<?xml version="1.0" encoding="UTF-8" standalone="no"?>
<svg
   xmlns:dc="http://purl.org/dc/elements/1.1/"
   xmlns:cc="http://creativecommons.org/ns#"
   xmlns:rdf="http://www.w3.org/1999/02/22-rdf-syntax-ns#"
   xmlns:svg="http://www.w3.org/2000/svg"
   xmlns="http://www.w3.org/2000/svg"
   xmlns:sodipodi="http://sodipodi.sourceforge.net/DTD/sodipodi-0.dtd"
   xmlns:inkscape="http://www.inkscape.org/namespaces/inkscape"
   viewBox="-812 -675 1624 1350"
   width="1624"
   height="1350"
   style="background-color: rgb(255, 255, 255);"
   version="1.1"
   id="svg272"
   sodipodi:docname="strip_layers.svg"
   inkscape:version="0.92.2 5c3e80d, 2017-08-06">
  <metadata
     id="metadata278">
    <rdf:RDF>
      <cc:Work
         rdf:about="">
        <dc:format>image/svg+xml</dc:format>
        <dc:type
           rdf:resource="http://purl.org/dc/dcmitype/StillImage" />
      </cc:Work>
    </rdf:RDF>
  </metadata>
  <defs
     id="defs276" />
  <sodipodi:namedview
     pagecolor="#ffffff"
     bordercolor="#666666"
     borderopacity="1"
     objecttolerance="10"
     gridtolerance="10"
     guidetolerance="10"
     inkscape:pageopacity="0"
     inkscape:pageshadow="2"
     inkscape:window-width="2560"
     inkscape:window-height="1565"
     id="namedview274"
     showgrid="false"
     inkscape:zoom="0.49114313"
     inkscape:cx="995.46059"
     inkscape:cy="1063.2162"
     inkscape:window-x="0"
     inkscape:window-y="0"
     inkscape:window-maximized="1"
     inkscape:current-layer="svg272" />
  <path
     d="m 417.44065,-97.341984 3.77517,9.635615 1.61157,-5.884968 z"
     style="fill:#c5932a"
     id="path2"
     inkscape:connector-curvature="0" />
  <path
     d="m 417.44065,-97.341984 3.77517,9.635615 1.61157,-5.884968 z"
     style="fill:#6dd54b"
     id="path4"
     inkscape:connector-curvature="0" />
  <path
     d="m 421.21582,-87.706369 6.01215,1.519726 -4.40058,-7.404694 z"
     style="fill:#c5932a"
     id="path6"
     inkscape:connector-curvature="0" />
  <path
     d="m 421.21582,-87.706369 6.01215,1.519726 -4.40058,-7.404694 z"
     style="fill:#6dd54b"
     id="path8"
     inkscape:connector-curvature="0" />
  <path
     d="m 421.10581,-101.81424 -3.66516,4.472256 5.38674,3.750647 z"
     style="fill:#c5932a"
     id="path10"
     inkscape:connector-curvature="0" />
  <path
     d="m 421.10581,-101.81424 -3.66516,4.472256 5.38674,3.750647 z"
     style="fill:#6dd54b"
     id="path12"
     inkscape:connector-curvature="0" />
  <path
     d="m 365.98717,-69.712728 56.84022,-23.878609"
     style="fill:none;stroke:#c5932a;stroke-width:5;stroke-linecap:round"
     id="path14"
     inkscape:connector-curvature="0" />
  <path
     d="m 365.98717,-69.712728 56.84022,-23.878609"
     style="fill:none;stroke:#6dd54b;stroke-width:5;stroke-linecap:round"
     id="path16"
     inkscape:connector-curvature="0" />
  <path
     d="m 427.169,-94.91566 0.059,8.729017 9.6754,-13.318019 z"
     style="fill:#c5932a"
     id="path18"
     inkscape:connector-curvature="0" />
  <path
     d="m 427.169,-94.91566 0.059,8.729017 9.6754,-13.318019 z"
     style="fill:#6dd54b"
     id="path20"
     inkscape:connector-curvature="0" />
  <path
     d="m 421.10581,-101.81424 6.06319,6.89858 9.73437,-4.589002 z"
     style="fill:#c5932a"
     id="path22"
     inkscape:connector-curvature="0" />
  <path
     d="m 421.10581,-101.81424 6.06319,6.89858 9.73437,-4.589002 z"
     style="fill:#6dd54b"
     id="path24"
     inkscape:connector-curvature="0" />
  <path
     d="m 427.22797,-86.186643 -0.059,-8.729017 -4.34161,1.324323 z"
     style="fill:#6dd54b"
     id="path26"
     inkscape:connector-curvature="0" />
  <path
     d="m 427.22797,-86.186643 -0.059,-8.729017 -4.34161,1.324323 z"
     style="fill:#c5932a"
     id="path28"
     inkscape:connector-curvature="0" />
  <path
     d="m 427.169,-94.91566 -6.06319,-6.89858 1.72158,8.222903 z"
     style="fill:#c5932a"
     id="path30"
     inkscape:connector-curvature="0" />
  <path
     d="m 427.169,-94.91566 -6.06319,-6.89858 1.72158,8.222903 z"
     style="fill:#6dd54b"
     id="path32"
     inkscape:connector-curvature="0" />
  <path
     d="m 457.55439,-45.396518 3.80302,9.710371 1.69502,-5.841952 z"
     style="fill:#c5932a"
     id="path34"
     inkscape:connector-curvature="0" />
  <path
     d="M 365.98717,-69.712728 616.69774,259.7977"
     style="fill:none;stroke:#684601;stroke-width:5;stroke-linecap:round"
     id="path36"
     inkscape:connector-curvature="0" />
  <path
     d="M 365.98717,-69.712728 76.770604,7.4219692"
     style="fill:none;stroke:#000000;stroke-width:1;stroke-linecap:round"
     id="path38"
     inkscape:connector-curvature="0" />
  <path
     d="M 542.45504,109.30495 365.98717,-69.712728"
     style="fill:none;stroke:#2d7217;stroke-width:5;stroke-linecap:round"
     id="path40"
     inkscape:connector-curvature="0" />
  <path
     d="M 365.98717,-69.712728 76.770604,7.4219692"
     style="fill:none;stroke:#000000;stroke-width:1;stroke-linecap:round"
     id="path42"
     inkscape:connector-curvature="0" />
  <path
     d="m 461.35741,-35.686147 6.15553,1.654277 -4.46051,-7.496229 z"
     style="fill:#c5932a"
     id="path44"
     inkscape:connector-curvature="0" />
  <path
     d="m 461.3455,-49.780979 -3.79111,4.384461 5.49804,3.868419 z"
     style="fill:#c5932a"
     id="path46"
     inkscape:connector-curvature="0" />
  <path
     d="m 406.05368,-17.053077 56.99875,-24.475022"
     style="fill:none;stroke:#c5932a;stroke-width:5;stroke-linecap:round"
     id="path48"
     inkscape:connector-curvature="0" />
  <path
     d="m 467.51495,-42.752689 -0.002,8.720819 9.65363,-13.556774 z"
     style="fill:#c5932a"
     id="path50"
     inkscape:connector-curvature="0" />
  <path
     d="m 461.3455,-49.780979 6.16945,7.02829 9.65162,-4.835955 z"
     style="fill:#c5932a"
     id="path52"
     inkscape:connector-curvature="0" />
  <path
     d="m 467.51294,-34.03187 0.002,-8.720819 -4.46252,1.2246 z"
     style="fill:#c5932a"
     id="path54"
     inkscape:connector-curvature="0" />
  <path
     d="m 467.51495,-42.752689 -6.16945,-7.02829 1.70693,8.25288 z"
     style="fill:#c5932a"
     id="path56"
     inkscape:connector-curvature="0" />
  <path
     d="m 460.2588,-54.781356 3.8135,9.738273 1.70453,-5.874783 z"
     style="fill:#6dd54b"
     id="path58"
     inkscape:connector-curvature="0" />
  <path
     d="m 464.0723,-45.043083 6.1792,1.636896 -4.47467,-7.511679 z"
     style="fill:#6dd54b"
     id="path60"
     inkscape:connector-curvature="0" />
  <path
     d="m 464.06706,-59.200665 -3.80826,4.419309 5.51803,3.86349 z"
     style="fill:#6dd54b"
     id="path62"
     inkscape:connector-curvature="0" />
  <path
     d="m 408.63771,-26.445908 57.13912,-24.471958"
     style="fill:none;stroke:#6dd54b;stroke-width:5;stroke-linecap:round"
     id="path64"
     inkscape:connector-curvature="0" />
  <path
     d="m 470.25774,-52.165902 -0.006,8.759715 9.67384,-13.571309 z"
     style="fill:#6dd54b"
     id="path66"
     inkscape:connector-curvature="0" />
  <path
     d="m 464.06706,-59.200665 6.19068,7.034763 9.6676,-4.811594 z"
     style="fill:#6dd54b"
     id="path68"
     inkscape:connector-curvature="0" />
  <path
     d="m 470.2515,-43.406187 0.006,-8.759715 -4.48091,1.248036 z"
     style="fill:#6dd54b"
     id="path70"
     inkscape:connector-curvature="0" />
  <path
     d="m 470.25774,-52.165902 -6.19068,-7.034763 1.70977,8.282799 z"
     style="fill:#6dd54b"
     id="path72"
     inkscape:connector-curvature="0" />
  <path
     d="m 498.32731,7.4025663 3.8313,9.7862667 1.78098,-5.796678 z"
     style="fill:#c5932a"
     id="path74"
     inkscape:connector-curvature="0" />
  <path
     d="m 502.15861,17.188833 6.3028,1.793088 -4.52182,-7.589766 z"
     style="fill:#c5932a"
     id="path76"
     inkscape:connector-curvature="0" />
  <path
     d="m 502.24805,3.1094005 -3.92074,4.2931658 5.61228,3.9895887 z"
     style="fill:#c5932a"
     id="path78"
     inkscape:connector-curvature="0" />
  <path
     d="m 446.78481,36.480105 57.15478,-25.08795"
     style="fill:none;stroke:#c5932a;stroke-width:5;stroke-linecap:round"
     id="path80"
     inkscape:connector-curvature="0" />
  <path
     d="m 508.52648,10.270749 -0.0651,8.711172 9.62983,-13.8016104 z"
     style="fill:#c5932a"
     id="path82"
     inkscape:connector-curvature="0" />
  <path
     d="m 502.24805,3.1094005 6.27843,7.1613485 9.56474,-5.0904728 z"
     style="fill:#c5932a"
     id="path84"
     inkscape:connector-curvature="0" />
  <path
     d="m 508.46141,18.981921 0.0651,-8.711172 -4.58691,1.121368 z"
     style="fill:#c5932a"
     id="path86"
     inkscape:connector-curvature="0" />
  <path
     d="m 508.52648,10.270749 -6.27843,-7.1613485 1.69154,8.2827545 z"
     style="fill:#c5932a"
     id="path88"
     inkscape:connector-curvature="0" />
  <path
     d="m 504.02737,-11.276033 3.85258,9.8431548 1.80125,-5.8626814 z"
     style="fill:#6dd54b"
     id="path90"
     inkscape:connector-curvature="0" />
  <path
     d="m 507.87995,-1.4328782 6.35227,1.75894027 -4.55102,-7.62162167 z"
     style="fill:#6dd54b"
     id="path92"
     inkscape:connector-curvature="0" />
  <path
     d="m 507.98422,-15.638936 -3.95685,4.362903 5.65383,3.9804734 z"
     style="fill:#6dd54b"
     id="path94"
     inkscape:connector-curvature="0" />
  <path
     d="M 452.24397,17.790419 509.6812,-7.2955596"
     style="fill:none;stroke:#6dd54b;stroke-width:5;stroke-linecap:round"
     id="path96"
     inkscape:connector-curvature="0" />
  <path
     d="m 514.30657,-8.4635746 -0.0743,8.78963667 9.66982,-13.83263107 z"
     style="fill:#6dd54b"
     id="path98"
     inkscape:connector-curvature="0" />
  <path
     d="m 507.98422,-15.638936 6.32235,7.1753614 9.59541,-5.0431014 z"
     style="fill:#6dd54b"
     id="path100"
     inkscape:connector-curvature="0" />
  <path
     d="m 514.23222,0.32606207 0.0743,-8.78963667 -4.62535,1.1680624 z"
     style="fill:#6dd54b"
     id="path102"
     inkscape:connector-curvature="0" />
  <path
     d="m 514.30657,-8.4635746 -6.32235,-7.1753614 1.69698,8.3433764 z"
     style="fill:#6dd54b"
     id="path104"
     inkscape:connector-curvature="0" />
  <path
     d="m 539.77582,61.076468 3.85996,9.863383 1.86959,-5.749136 z"
     style="fill:#c5932a"
     id="path106"
     inkscape:connector-curvature="0" />
  <path
     d="m 543.63578,70.939851 6.45415,1.936276 -4.58456,-7.685412 z"
     style="fill:#c5932a"
     id="path108"
     inkscape:connector-curvature="0" />
  <path
     d="m 543.82995,56.87824 -4.05413,4.198228 5.72955,4.114247 z"
     style="fill:#c5932a"
     id="path110"
     inkscape:connector-curvature="0" />
  <path
     d="m 488.19725,90.908715 57.30812,-25.718"
     style="fill:none;stroke:#c5932a;stroke-width:5;stroke-linecap:round"
     id="path112"
     inkscape:connector-curvature="0" />
  <path
     d="m 550.22013,64.17614 -0.1302,8.699987 9.60392,-14.05273 z"
     style="fill:#c5932a"
     id="path114"
     inkscape:connector-curvature="0" />
  <path
     d="m 543.82995,56.87824 6.39018,7.2979 9.47372,-5.352743 z"
     style="fill:#c5932a"
     id="path116"
     inkscape:connector-curvature="0" />
  <path
     d="m 550.08993,72.876127 0.1302,-8.699987 -4.71476,1.014575 z"
     style="fill:#c5932a"
     id="path118"
     inkscape:connector-curvature="0" />
  <path
     d="m 550.22013,64.17614 -6.39018,-7.2979 1.67542,8.312475 z"
     style="fill:#c5932a"
     id="path120"
     inkscape:connector-curvature="0" />
  <path
     d="m 581.91682,115.64712 3.88907,9.9417 1.9609,-5.69915 z"
     style="fill:#c5932a"
     id="path122"
     inkscape:connector-curvature="0" />
  <path
     d="m 548.77837,33.205812 3.8925,9.950292 1.90191,-5.84853 z"
     style="fill:#6dd54b"
     id="path124"
     inkscape:connector-curvature="0" />
  <path
     d="m 585.80589,125.58882 6.6097,2.08404 -4.6488,-7.78319 z"
     style="fill:#c5932a"
     id="path126"
     inkscape:connector-curvature="0" />
  <path
     d="m 586.10829,111.54762 -4.19147,4.0995 5.84997,4.24255 z"
     style="fill:#c5932a"
     id="path128"
     inkscape:connector-curvature="0" />
  <path
     d="m 552.67087,43.156104 6.53154,1.88608 -4.62963,-7.73461 z"
     style="fill:#6dd54b"
     id="path130"
     inkscape:connector-curvature="0" />
  <path
     d="m 552.88957,28.902992 -4.1112,4.30282 5.79441,4.101762 z"
     style="fill:#6dd54b"
     id="path132"
     inkscape:connector-curvature="0" />
  <path
     d="m 530.30823,146.25543 57.45856,-26.36576"
     style="fill:none;stroke:#c5932a;stroke-width:5;stroke-linecap:round"
     id="path134"
     inkscape:connector-curvature="0" />
  <path
     d="M 496.83843,63.02922 554.57278,37.307574"
     style="fill:none;stroke:#6dd54b;stroke-width:5;stroke-linecap:round"
     id="path136"
     inkscape:connector-curvature="0" />
  <path
     d="m 592.61308,118.98564 -0.19749,8.68722 9.57578,-14.31036 z"
     style="fill:#c5932a"
     id="path138"
     inkscape:connector-curvature="0" />
  <path
     d="m 586.10829,111.54762 6.50479,7.43802 9.37829,-5.62314 z"
     style="fill:#c5932a"
     id="path140"
     inkscape:connector-curvature="0" />
  <path
     d="m 559.34801,36.223507 -0.1456,8.818677 9.66318,-14.102314 z"
     style="fill:#6dd54b"
     id="path142"
     inkscape:connector-curvature="0" />
  <path
     d="m 552.88957,28.902992 6.45844,7.320515 9.51758,-5.283637 z"
     style="fill:#6dd54b"
     id="path144"
     inkscape:connector-curvature="0" />
  <path
     d="m 592.41559,127.67286 0.19749,-8.68722 -4.84629,0.90403 z"
     style="fill:#c5932a"
     id="path146"
     inkscape:connector-curvature="0" />
  <path
     d="m 592.61308,118.98564 -6.50479,-7.43802 1.6585,8.34205 z"
     style="fill:#c5932a"
     id="path148"
     inkscape:connector-curvature="0" />
  <path
     d="m 559.20241,45.042184 0.1456,-8.818677 -4.77523,1.084067 z"
     style="fill:#6dd54b"
     id="path150"
     inkscape:connector-curvature="0" />
  <path
     d="m 559.34801,36.223507 -6.45844,-7.320515 1.68321,8.404582 z"
     style="fill:#6dd54b"
     id="path152"
     inkscape:connector-curvature="0" />
  <path
     d="m 624.76781,171.13719 3.91861,10.0213 2.05505,-5.64671 z"
     style="fill:#c5932a"
     id="path154"
     inkscape:connector-curvature="0" />
  <path
     d="M 542.45504,109.30495 365.98717,-69.712728 76.770604,7.4219692 Z"
     style="fill:#000000;fill-opacity:0.4"
     id="path156"
     inkscape:connector-curvature="0" />
  <path
     d="m 628.68642,181.15849 6.76958,2.2365 -4.71453,-7.88321 z"
     style="fill:#c5932a"
     id="path158"
     inkscape:connector-curvature="0" />
  <path
     d="m 629.1007,167.14037 -4.33289,3.99682 5.97366,4.37459 z"
     style="fill:#c5932a"
     id="path160"
     inkscape:connector-curvature="0" />
  <path
     d="m 573.13559,202.54369 57.60588,-27.03191"
     style="fill:none;stroke:#c5932a;stroke-width:5;stroke-linecap:round"
     id="path162"
     inkscape:connector-curvature="0" />
  <path
     d="m 635.7231,174.72225 -0.2671,8.67274 9.54534,-14.57473 z"
     style="fill:#c5932a"
     id="path164"
     inkscape:connector-curvature="0" />
  <path
     d="m 629.1007,167.14037 6.6224,7.58188 9.27824,-5.90199 z"
     style="fill:#c5932a"
     id="path166"
     inkscape:connector-curvature="0" />
  <path
     d="m 635.456,183.39499 0.2671,-8.67274 -4.98163,0.78953 z"
     style="fill:#c5932a"
     id="path168"
     inkscape:connector-curvature="0" />
  <path
     d="m 635.7231,174.72225 -6.6224,-7.58188 1.64077,8.37141 z"
     style="fill:#c5932a"
     id="path170"
     inkscape:connector-curvature="0" />
  <path
     d="m 594.54527,78.697438 3.93321,10.059798 2.00669,-5.832253 z"
     style="fill:#6dd54b"
     id="path172"
     inkscape:connector-curvature="0" />
  <path
     d="m 598.47848,88.757236 6.71741,2.018567 -4.71072,-7.85082 z"
     style="fill:#6dd54b"
     id="path174"
     inkscape:connector-curvature="0" />
  <path
     d="m 598.81682,74.458553 -4.27155,4.238885 5.9399,4.227545 z"
     style="fill:#6dd54b"
     id="path176"
     inkscape:connector-curvature="0" />
  <path
     d="M 542.45504,109.30495 600.48517,82.924983"
     style="fill:none;stroke:#6dd54b;stroke-width:5;stroke-linecap:round"
     id="path178"
     inkscape:connector-curvature="0" />
  <path
     d="m 605.41593,81.929028 -0.22004,8.846775 9.65372,-14.38077 z"
     style="fill:#6dd54b"
     id="path180"
     inkscape:connector-curvature="0" />
  <path
     d="m 598.81682,74.458553 6.59911,7.470475 9.43368,-5.533995 z"
     style="fill:#6dd54b"
     id="path182"
     inkscape:connector-curvature="0" />
  <path
     d="m 605.19589,90.775803 0.22004,-8.846775 -4.93076,0.995955 z"
     style="fill:#6dd54b"
     id="path184"
     inkscape:connector-curvature="0" />
  <path
     d="m 605.41593,81.929028 -6.59911,-7.470475 1.66835,8.46643 z"
     style="fill:#6dd54b"
     id="path186"
     inkscape:connector-curvature="0" />
  <path
     d="m 668.34689,227.57011 3.94859,10.10215 2.15214,-5.5916 z"
     style="fill:#c5932a"
     id="path188"
     inkscape:connector-curvature="0" />
  <path
     d="m 672.29548,237.67226 6.934,2.39391 -4.78186,-7.98551 z"
     style="fill:#c5932a"
     id="path190"
     inkscape:connector-curvature="0" />
  <path
     d="m 672.82544,223.68005 -4.47855,3.89006 6.10073,4.51055 z"
     style="fill:#c5932a"
     id="path192"
     inkscape:connector-curvature="0" />
  <path
     d="m 616.69774,259.7977 57.74988,-27.71704"
     style="fill:none;stroke:#c5932a;stroke-width:5;stroke-linecap:round"
     id="path194"
     inkscape:connector-curvature="0" />
  <path
     d="m 679.56853,231.40961 -0.33905,8.65656 9.51245,-14.84606 z"
     style="fill:#c5932a"
     id="path196"
     inkscape:connector-curvature="0" />
  <path
     d="m 672.82544,223.68005 6.74309,7.72956 9.1734,-6.1895 z"
     style="fill:#c5932a"
     id="path198"
     inkscape:connector-curvature="0" />
  <path
     d="m -65.63964,-290.24684 -694.74297,144.33441"
     style="fill:none;stroke:#a00000;stroke-width:4;stroke-linecap:round"
     id="path200"
     inkscape:connector-curvature="0" />
  <path
     d="M 347.54811,285.08346 -65.63964,-290.24684"
     style="fill:none;stroke:#000000;stroke-width:1;stroke-linecap:round"
     id="path202"
     inkscape:connector-curvature="0" />
  <path
     d="M -178.54524,75.515275 -65.63964,-290.24684"
     style="fill:none;stroke:#000000;stroke-width:1;stroke-linecap:round"
     id="path204"
     inkscape:connector-curvature="0" />
  <path
     d="m -65.63964,-290.24684 v 0"
     style="fill:none;stroke:#000000;stroke-width:1;stroke-linecap:round"
     id="path206"
     inkscape:connector-curvature="0" />
  <path
     d="M -178.54524,75.515275 -65.63964,-290.24684"
     style="fill:none;stroke:#000000;stroke-width:1;stroke-linecap:round"
     id="path208"
     inkscape:connector-curvature="0" />
  <path
     d="M 87.299178,-52.000261 -65.63964,-290.24684"
     style="fill:none;stroke:#a00000;stroke-width:4;stroke-linecap:round"
     id="path210"
     inkscape:connector-curvature="0" />
  <path
     d="m 679.22948,240.06617 0.33905,-8.65656 -5.1209,0.6711 z"
     style="fill:#c5932a"
     id="path212"
     inkscape:connector-curvature="0" />
  <path
     d="m 679.56853,231.40961 -6.74309,-7.72956 1.62218,8.40061 z"
     style="fill:#c5932a"
     id="path214"
     inkscape:connector-curvature="0" />
  <path
     d="M 542.45504,109.30495 249.38511,200.49561"
     style="fill:none;stroke:#a00000;stroke-width:4;stroke-linecap:round"
     id="path216"
     inkscape:connector-curvature="0" />
  <path
     d="M 616.69774,259.7977 326.26161,360.22932"
     style="fill:none;stroke:#a00000;stroke-width:4;stroke-linecap:round"
     id="path218"
     inkscape:connector-curvature="0" />
  <path
     d="m -65.63964,-290.24684 v 0 L 87.299178,-52.000261 Z"
     style="fill:#000000;fill-opacity:0.4"
     id="path220"
     inkscape:connector-curvature="0" />
  <path
     d="M 365.98717,-69.712728 616.69774,259.7977 326.26161,360.22932 Z"
     style="fill:#000000;fill-opacity:0.4"
     id="path222"
     inkscape:connector-curvature="0" />
  <path
     d="M 76.770604,7.4219692 -178.54524,75.515275"
     style="fill:none;stroke:#000000;stroke-width:1;stroke-linecap:round"
     id="path224"
     inkscape:connector-curvature="0" />
  <path
     d="M 76.770604,7.4219692 -178.54524,75.515275"
     style="fill:none;stroke:#000000;stroke-width:1;stroke-linecap:round"
     id="path226"
     inkscape:connector-curvature="0" />
  <path
     d="M 76.770604,7.4219692 326.26161,360.22932 365.98717,-69.712728 Z"
     style="fill:#000000;fill-opacity:0.4"
     id="path228"
     inkscape:connector-curvature="0" />
  <path
     d="M 249.38511,200.49561 76.770604,7.4219692 542.45504,109.30495 Z"
     style="fill:#000000;fill-opacity:0.4"
     id="path230"
     inkscape:connector-curvature="0" />
  <path
     d="M 87.299178,-52.000261 -178.54524,75.515275 -65.63964,-290.24684 Z"
     style="fill:#000000;fill-opacity:0.4"
     id="path232"
     inkscape:connector-curvature="0" />
  <path
     d="M 249.38511,200.49561 87.299178,-52.000261"
     style="fill:none;stroke:#a00000;stroke-width:4;stroke-linecap:round"
     id="path236"
     inkscape:connector-curvature="0" />
  <path
     d="M 249.38511,200.49561 76.770604,7.4219692 -178.54524,75.515275 Z"
     style="fill:#000000;fill-opacity:0.4"
     id="path238"
     inkscape:connector-curvature="0" />
  <path
     d="M 87.299178,-52.000261 -178.54524,75.515275 249.38511,200.49561 Z"
     style="fill:#000000;fill-opacity:0.4"
     id="path240"
     inkscape:connector-curvature="0" />
  <path
     d="M -65.63964,-290.24684 347.54811,285.08346 -178.54524,75.515275 Z"
     style="fill:#000000;fill-opacity:0.4"
     id="path242"
     inkscape:connector-curvature="0" />
  <path
     d="M 68.496206,449.36354 -178.54524,75.515275"
     style="fill:none;stroke:#000000;stroke-width:1;stroke-linecap:round"
     id="path244"
     inkscape:connector-curvature="0" />
  <path
     d="M 249.38511,200.49561 -178.54524,75.515275"
     style="fill:none;stroke:#000000;stroke-width:1;stroke-linecap:round"
     id="path248"
     inkscape:connector-curvature="0" />
  <path
     d="M 249.38511,200.49561 -178.54524,75.515275"
     style="fill:none;stroke:#000000;stroke-width:1;stroke-linecap:round"
     id="path250"
     inkscape:connector-curvature="0" />
  <path
     d="m -178.54524,75.515275 v 0 L 249.38511,200.49561 Z"
     style="fill:#000000;fill-opacity:0.4"
     id="path252"
     inkscape:connector-curvature="0" />
  <path
     d="m 249.38511,200.49561 v 0 L -178.54524,75.515275 Z"
     style="fill:#000000;fill-opacity:0.4"
     id="path254"
     inkscape:connector-curvature="0" />
  <path
     d="M -178.54524,75.515275 68.496206,449.36354 76.770604,7.4219692 Z"
     style="fill:#000000;fill-opacity:0.4"
     id="path256"
     inkscape:connector-curvature="0" />
  <path
     d="M 76.770604,7.4219692 326.26161,360.22932 68.496206,449.36354 Z"
     style="fill:#000000;fill-opacity:0.4"
     id="path258"
     inkscape:connector-curvature="0" />
  <path
     d="M 326.26161,360.22932 68.496206,449.36354"
     style="fill:none;stroke:#a00000;stroke-width:4;stroke-linecap:round"
     id="path260"
     inkscape:connector-curvature="0" />
  <path
     d="M -178.54524,75.515275 68.496206,449.36354 347.54811,285.08346 Z"
     style="fill:#000000;fill-opacity:0.4"
     id="path262"
     inkscape:connector-curvature="0" />
  <path
     d="M 347.54811,285.08346 -364.84181,522.28035"
     style="fill:none;stroke:#a00000;stroke-width:4;stroke-linecap:round"
     id="path264"
     inkscape:connector-curvature="0" />
  <path
     d="M 68.496206,449.36354 347.54811,285.08346"
     style="fill:none;stroke:#a00000;stroke-width:4;stroke-linecap:round"
     id="path266"
     inkscape:connector-curvature="0" />
  <path
     d="m -65.63964,-290.24684 413.18775,575.3303 -712.38992,237.19689 z"
     style="fill:#000000;fill-opacity:0.4"
     id="path268"
     inkscape:connector-curvature="0" />
  <path
     d="m -760.38261,-145.91243 395.5408,668.19278 299.20217,-812.52719 z"
     style="fill:#000000;fill-opacity:0.4"
     id="path270"
     inkscape:connector-curvature="0" />
</svg>
