<svg viewBox="-812 -590 1624 1180" width="1624" height="1180" style="background-color: rgb(255, 255, 255);"><path d="M370.1000124262278,-115.4507498106537L379.9786150969094,-115.40091273313611L380.2161453889945,-115.47305156258417zM379.9786150969094,-115.40091273313611L390.1854131561215,-115.4507498106537L380.2161453889945,-115.47305156258417zM319.41431738740454,-115.4507498106537L329.3147997506548,-115.40091273313611L329.5206593371286,-115.47305156258417zM329.3147997506548,-115.40091273313611L339.49971811729824,-115.4507498106537L329.5206593371286,-115.47305156258417zM268.72862234858127,-115.4507498106537L278.6509844044002,-115.40091273313611L278.8251732852627,-115.47305156258417zM278.6509844044002,-115.40091273313611L288.814023078475,-115.4507498106537L278.8251732852627,-115.47305156258417zM218.04292730975803,-115.4507498106537L227.98716905814567,-115.40091273313611L228.12968723339677,-115.47305156258417zM227.98716905814567,-115.40091273313611L238.1283280396517,-115.4507498106537L228.12968723339677,-115.47305156258417zM177.32335371189114,-115.40091273313611L187.44263300082844,-115.4507498106537L177.43420118153088,-115.47305156258417zM167.35723227093476,-115.4507498106537L177.32335371189114,-115.40091273313611L177.43420118153088,-115.47305156258417zM116.6715372321115,-115.4507498106537L126.65953836563658,-115.40091273313611L126.73871512966498,-115.47305156258417zM126.65953836563658,-115.40091273313611L136.75693796200517,-115.4507498106537L126.73871512966498,-115.47305156258417zM65.98584219328825,-115.4507498106537L75.99572301938198,-115.40091273313611L76.04322907779903,-115.47305156258417zM75.99572301938198,-115.40091273313611L86.0712429231819,-115.4507498106537L76.04322907779903,-115.47305156258417zM25.331907673127425,-115.40091273313611L35.38554788435864,-115.4507498106537L25.347743025933106,-115.47305156258417zM15.300147154464918,-115.4507498106537L25.331907673127425,-115.40091273313611L25.347743025933106,-115.47305156258417zM-25.331907673127077,-115.40091273313611L-15.30014715446463,-115.4507498106537L-25.347743025932758,-115.47305156258417zM-35.38554788435829,-115.4507498106537L-25.331907673127077,-115.40091273313611L-25.347743025932758,-115.47305156258417zM-86.07124292318156,-115.4507498106537L-75.99572301938164,-115.40091273313611L-76.04322907779867,-115.47305156258417zM-75.99572301938164,-115.40091273313611L-65.98584219328784,-115.4507498106537L-76.04322907779867,-115.47305156258417zM-136.75693796200477,-115.4507498106537L-126.65953836563615,-115.40091273313611L-126.73871512966453,-115.47305156258417zM-126.65953836563615,-115.40091273313611L-116.67153723211106,-115.4507498106537L-126.73871512966453,-115.47305156258417z" style="fill:rgb(128,207,62)"></path><path d="M-126.65953836563615,-115.40091273313611L-116.67153723211106,-115.4507498106537L-126.73871512966453,-115.47305156258417zM-136.75693796200477,-115.4507498106537L-126.65953836563615,-115.40091273313611L-126.73871512966453,-115.47305156258417zM-88.13326627371649,-115.40091273313611L-78.12862717119066,-115.4507498106537L-88.18835969121072,-115.47305156258417zM-98.21402790108438,-115.4507498106537L-88.13326627371649,-115.40091273313611L-88.18835969121072,-115.47305156258417zM-10.795152108965782,-115.40091273313611L-0.7571137420891914,-115.4507498106537L-10.801900319343076,-115.47305156258417zM-20.84251447198291,-115.4507498106537L-10.795152108965782,-115.40091273313611L-10.801900319343076,-115.47305156258417zM37.06324882225766,-115.40091273313611L47.12195533447715,-115.4507498106537L37.08641761115419,-115.47305156258417zM27.036554604583493,-115.4507498106537L37.06324882225766,-115.40091273313611L37.08641761115419,-115.47305156258417zM91.48365483939477,-115.4507498106537L101.48252892480082,-115.40091273313611L101.54596716521574,-115.47305156258417zM101.48252892480082,-115.40091273313611L111.56905556928842,-115.4507498106537L101.54596716521574,-115.47305156258417zM121.35016380073638,-115.40091273313611L131.44527048879525,-115.4507498106537L121.42602159564103,-115.47305156258417zM111.35986975890152,-115.4507498106537L121.35016380073638,-115.40091273313611L121.42602159564103,-115.47305156258417zM185.76732293626705,-115.40091273313611L195.89024884063247,-115.4507498106537L185.88344885684202,-115.47305156258417zM175.8048481107388,-115.4507498106537L185.76732293626705,-115.40091273313611L185.88344885684202,-115.47305156258417z" style="fill:rgb(186,45,138)"></path><path d="M270.32370687372423,-53.68871553726763L270.2070151800245,-43.6271743259422L270.3759256099517,-43.65444632244087zM270.2070151800245,-43.6271743259422L270.32370687372423,-33.60331480737398L270.3759256099517,-43.65444632244087z" style="fill:rgb(41,170,178)"></path><path d="M-464.70862214210393,535.1190194363617L380.2161453889945,535.1190194363617L-464.70862214210393,-56.32831783540726zM-464.70862214210393,-56.32831783540726L380.2161453889945,-56.32831783540726L380.2161453889945,535.1190194363617z" style="fill:rgb(0,0,0); fill-opacity: 0.2"></path><path d="M-464.70862214210393,-56.32831783540726L380.2161453889945,-56.32831783540726M380.2161453889945,-56.32831783540726L380.2161453889945,535.1190194363617M380.2161453889945,535.1190194363617L-464.70862214210393,535.1190194363617M-464.70862214210393,535.1190194363617L-464.70862214210393,-56.32831783540726" style="fill:none;stroke:rgb(0,0,0);stroke-width:1;stroke-linecap:round"></path><path d="M-464.70862214210393,-56.32831783540726L380.2161453889945,-56.32831783540726L-126.73871512966453,281.6415891770321zM-126.73871512966453,281.6415891770321L380.2161453889945,281.6415891770321L380.2161453889945,-56.32831783540726z" style="fill:rgb(0,0,0); fill-opacity: 0.2"></path><path d="M380.2161453889945,281.6415891770321L380.2161453889945,-56.32831783540726M-464.70862214210393,-56.32831783540726L-126.73871512966453,281.6415891770321M-126.73871512966453,281.6415891770321L380.2161453889945,281.6415891770321M380.2161453889945,-56.32831783540726L-464.70862214210393,-56.32831783540726" style="fill:none;stroke:rgb(0,0,0);stroke-width:1;stroke-linecap:round"></path><path d="M-464.70862214210393,-56.32831783540726L-464.70862214210393,-56.32831783540726L-126.73871512966453,-56.32831783540726zM-126.73871512966453,-56.32831783540726L-126.73871512966453,281.6415891770321L-464.70862214210393,-56.32831783540726z" style="fill:rgb(0,0,0); fill-opacity: 0.2"></path><path d="M-464.70862214210393,-56.32831783540726L-126.73871512966453,-56.32831783540726M-126.73871512966453,-56.32831783540726L-126.73871512966453,281.6415891770321M-126.73871512966453,281.6415891770321L-464.70862214210393,-56.32831783540726M-464.70862214210393,-56.32831783540726L-464.70862214210393,-56.32831783540726" style="fill:none;stroke:rgb(0,0,0);stroke-width:1;stroke-linecap:round"></path><path d="M-126.73871512966453,-30.980574809474383L380.2161453889945,-30.980574809474383" style="fill:none;stroke:rgb(58,110,14);stroke-width:5;stroke-linecap:round"></path><path d="M380.2161453889945,-30.980574809474383L380.2161453889945,-115.47305156258423M329.5206593371286,-30.980574809474383L329.5206593371286,-115.47305156258423M278.8251732852627,-30.980574809474383L278.8251732852627,-115.47305156258423M228.12968723339677,-30.980574809474383L228.12968723339677,-115.47305156258423M177.43420118153088,-30.980574809474383L177.43420118153088,-115.47305156258423M126.73871512966498,-30.980574809474383L126.73871512966498,-115.47305156258423M76.04322907779903,-30.980574809474383L76.04322907779903,-115.47305156258423M25.347743025933106,-30.980574809474383L25.347743025933106,-115.47305156258423M-25.347743025932758,-30.980574809474383L-25.347743025932758,-115.47305156258423M-76.04322907779867,-30.980574809474383L-76.04322907779867,-115.47305156258423M-126.73871512966453,-30.980574809474383L-126.73871512966453,-115.47305156258423" style="fill:none;stroke:rgb(128,207,62);stroke-width:5;stroke-linecap:round"></path><path d="M-126.73871512966453,281.6415891770321L380.2161453889945,281.6415891770321L-126.73871512966453,-30.980574809474383zM-126.73871512966453,-30.980574809474383L380.2161453889945,-30.980574809474383L380.2161453889945,281.6415891770321z" style="fill:rgb(0,0,0); fill-opacity: 0.2"></path><path d="M380.2161453889945,281.6415891770321L-126.73871512966453,281.6415891770321M-126.73871512966453,281.6415891770321L-126.73871512966453,-30.980574809474383M-126.73871512966453,-30.980574809474383L380.2161453889945,-30.980574809474383M380.2161453889945,-30.980574809474383L380.2161453889945,281.6415891770321" style="fill:none;stroke:rgb(0,0,0);stroke-width:1;stroke-linecap:round"></path><path d="M185.88344885684185,-30.980574809474383L-126.73871512966453,-30.980574809474383" style="fill:none;stroke:rgb(97,2,64);stroke-width:5;stroke-linecap:round"></path><path d="M-126.73871512966453,-30.980574809474383L-126.73871512966453,-115.47305156258423M-88.18835969121072,-30.980574809474383L-88.18835969121072,-115.47305156258423M-10.801900319343076,-30.980574809474383L-10.801900319343076,-115.47305156258423M37.08641761115419,-30.980574809474383L37.08641761115419,-115.47305156258423M101.54596716521574,-30.980574809474383L101.54596716521574,-115.47305156258423M121.42602159564103,-30.980574809474383L121.42602159564103,-115.47305156258423M185.88344885684202,-30.980574809474383L185.88344885684202,-115.47305156258423" style="fill:none;stroke:rgb(186,45,138);stroke-width:5;stroke-linecap:round"></path><path d="M-126.73871512966453,281.6415891770321L-126.73871512966453,281.6415891770321L185.88344885684185,-30.980574809474383zM185.88344885684185,-30.980574809474383L-126.73871512966453,-30.980574809474383L-126.73871512966453,281.6415891770321z" style="fill:rgb(0,0,0); fill-opacity: 0.2"></path><path d="M-126.73871512966453,-30.980574809474383L-126.73871512966453,281.6415891770321M185.88344885684185,-30.980574809474383L-126.73871512966453,-30.980574809474383M-126.73871512966453,281.6415891770321L185.88344885684185,-30.980574809474383M-126.73871512966453,281.6415891770321L-126.73871512966453,281.6415891770321" style="fill:none;stroke:rgb(0,0,0);stroke-width:1;stroke-linecap:round"></path><path d="M185.88344885684185,-56.32831783540726L185.88344885684185,-30.980574809474383" style="fill:none;stroke:rgb(0,86,91);stroke-width:5;stroke-linecap:round"></path><path d="M185.88344885684185,-43.65444632244087L270.3759256099517,-43.65444632244088" style="fill:none;stroke:rgb(41,170,178);stroke-width:5;stroke-linecap:round"></path><path d="M-126.73871512966453,-56.32831783540726L-126.73871512966453,281.6415891770321L185.88344885684185,-56.32831783540726zM185.88344885684185,-56.32831783540726L185.88344885684185,-30.980574809474383L-126.73871512966453,281.6415891770321z" style="fill:rgb(0,0,0); fill-opacity: 0.2"></path><path d="M185.88344885684185,-56.32831783540726L185.88344885684185,-30.980574809474383M185.88344885684185,-30.980574809474383L-126.73871512966453,281.6415891770321M-126.73871512966453,281.6415891770321L-126.73871512966453,-56.32831783540726M-126.73871512966453,-56.32831783540726L185.88344885684185,-56.32831783540726" style="fill:none;stroke:rgb(0,0,0);stroke-width:1;stroke-linecap:round"></path><path d="M374.1974588550558,-115.5314791333141L370.1000124262278,-115.4507498106537L380.2161453889945,-115.47305156258417zM390.1854131561215,-115.4507498106537L386.61959885213014,-115.5314791333141L380.2161453889945,-115.47305156258417zM386.61959885213014,-115.5314791333141L390.1854131561215,-115.4507498106537L380.2161453889945,-136.59617075086166zM370.1000124262278,-115.4507498106537L374.1974588550558,-115.5314791333141L380.2161453889945,-136.59617075086166zM323.47632167457675,-115.5314791333141L319.41431738740454,-115.4507498106537L329.5206593371286,-115.47305156258417zM335.89846167165115,-115.5314791333141L339.49971811729824,-115.4507498106537L329.5206593371286,-136.59617075086166zM339.49971811729824,-115.4507498106537L335.89846167165115,-115.5314791333141L329.5206593371286,-115.47305156258417zM319.41431738740454,-115.4507498106537L323.47632167457675,-115.5314791333141L329.5206593371286,-136.59617075086166zM268.72862234858127,-115.4507498106537L272.7551844940977,-115.5314791333141L278.8251732852627,-136.59617075086166zM285.1773244911721,-115.5314791333141L288.814023078475,-115.4507498106537L278.8251732852627,-136.59617075086166zM272.7551844940977,-115.5314791333141L268.72862234858127,-115.4507498106537L278.8251732852627,-115.47305156258417zM288.814023078475,-115.4507498106537L285.1773244911721,-115.5314791333141L278.8251732852627,-115.47305156258417zM238.1283280396517,-115.4507498106537L234.45618731069305,-115.5314791333141L228.12968723339677,-115.47305156258417zM218.04292730975803,-115.4507498106537L222.03404731361866,-115.5314791333141L228.12968723339677,-136.59617075086166zM222.03404731361866,-115.5314791333141L218.04292730975803,-115.4507498106537L228.12968723339677,-115.47305156258417zM234.45618731069305,-115.5314791333141L238.1283280396517,-115.4507498106537L228.12968723339677,-136.59617075086166zM187.44263300082844,-115.4507498106537L183.735050130214,-115.5314791333141L177.43420118153088,-115.47305156258417zM167.35723227093476,-115.4507498106537L171.31291013313964,-115.5314791333141L177.43420118153088,-136.59617075086166zM183.735050130214,-115.5314791333141L187.44263300082844,-115.4507498106537L177.43420118153088,-136.59617075086166zM171.31291013313964,-115.5314791333141L167.35723227093476,-115.4507498106537L177.43420118153088,-115.47305156258417zM136.75693796200517,-115.4507498106537L133.01391294973496,-115.5314791333141L126.73871512966498,-115.47305156258417zM133.01391294973496,-115.5314791333141L136.75693796200517,-115.4507498106537L126.73871512966498,-136.59617075086166zM120.59177295266056,-115.5314791333141L116.6715372321115,-115.4507498106537L126.73871512966498,-115.47305156258417zM116.6715372321115,-115.4507498106537L120.59177295266056,-115.5314791333141L126.73871512966498,-136.59617075086166zM65.98584219328825,-115.4507498106537L69.87063577218153,-115.5314791333141L76.04322907779903,-136.59617075086166zM82.29277576925595,-115.5314791333141L86.0712429231819,-115.4507498106537L76.04322907779903,-136.59617075086166zM69.87063577218153,-115.5314791333141L65.98584219328825,-115.4507498106537L76.04322907779903,-115.47305156258417zM86.0712429231819,-115.4507498106537L82.29277576925595,-115.5314791333141L76.04322907779903,-115.47305156258417zM19.14949859170243,-115.5314791333141L15.300147154464918,-115.4507498106537L25.347743025933106,-115.47305156258417zM31.571638588776846,-115.5314791333141L35.38554788435864,-115.4507498106537L25.347743025933106,-136.59617075086166zM15.300147154464918,-115.4507498106537L19.14949859170243,-115.5314791333141L25.347743025933106,-136.59617075086166zM35.38554788435864,-115.4507498106537L31.571638588776846,-115.5314791333141L25.347743025933106,-115.47305156258417zM-15.30014715446463,-115.4507498106537L-19.14949859170214,-115.5314791333141L-25.347743025932758,-115.47305156258417zM-35.38554788435829,-115.4507498106537L-31.57163858877656,-115.5314791333141L-25.347743025932758,-136.59617075086166zM-19.14949859170214,-115.5314791333141L-15.30014715446463,-115.4507498106537L-25.347743025932758,-136.59617075086166zM-31.57163858877656,-115.5314791333141L-35.38554788435829,-115.4507498106537L-25.347743025932758,-115.47305156258417zM-86.07124292318156,-115.4507498106537L-82.29277576925554,-115.5314791333141L-76.04322907779867,-136.59617075086166zM-82.29277576925554,-115.5314791333141L-86.07124292318156,-115.4507498106537L-76.04322907779867,-115.47305156258417zM-69.87063577218112,-115.5314791333141L-65.98584219328784,-115.4507498106537L-76.04322907779867,-136.59617075086166zM-65.98584219328784,-115.4507498106537L-69.87063577218112,-115.5314791333141L-76.04322907779867,-115.47305156258417zM-136.75693796200477,-115.4507498106537L-133.01391294973453,-115.5314791333141L-126.73871512966453,-136.59617075086166zM-133.01391294973453,-115.5314791333141L-136.75693796200477,-115.4507498106537L-126.73871512966453,-115.47305156258417zM-120.59177295266016,-115.5314791333141L-116.67153723211106,-115.4507498106537L-126.73871512966453,-136.59617075086166zM-116.67153723211106,-115.4507498106537L-120.59177295266016,-115.5314791333141L-126.73871512966453,-115.47305156258417z" style="fill:rgb(128,207,62)"></path><path d="M-120.59177295266016,-115.5314791333141L-116.67153723211106,-115.4507498106537L-126.73871512966453,-136.59617075086166zM-133.01391294973453,-115.5314791333141L-136.75693796200477,-115.4507498106537L-126.73871512966453,-115.47305156258417zM-136.75693796200477,-115.4507498106537L-133.01391294973453,-115.5314791333141L-126.73871512966453,-136.59617075086166zM-116.67153723211106,-115.4507498106537L-120.59177295266016,-115.5314791333141L-126.73871512966453,-115.47305156258417zM-98.21402790108438,-115.4507498106537L-94.44405163013734,-115.5314791333141L-88.18835969121072,-136.59617075086166zM-78.12862717119066,-115.4507498106537L-82.02191163306298,-115.5314791333141L-88.18835969121072,-115.47305156258417zM-82.02191163306298,-115.5314791333141L-78.12862717119066,-115.4507498106537L-88.18835969121072,-136.59617075086166zM-94.44405163013734,-115.5314791333141L-98.21402790108438,-115.4507498106537L-88.18835969121072,-115.47305156258417zM-0.7571137420891914,-115.4507498106537L-4.596295914607901,-115.5314791333141L-10.801900319343076,-115.47305156258417zM-17.018435911682317,-115.5314791333141L-20.84251447198291,-115.4507498106537L-10.801900319343076,-115.47305156258417zM-20.84251447198291,-115.4507498106537L-17.018435911682317,-115.5314791333141L-10.801900319343076,-136.59617075086166zM-4.596295914607901,-115.5314791333141L-0.7571137420891914,-115.4507498106537L-10.801900319343076,-136.59617075086166zM27.036554604583493,-115.4507498106537L30.89411276395549,-115.5314791333141L37.08641761115419,-136.59617075086166zM30.89411276395549,-115.5314791333141L27.036554604583493,-115.4507498106537L37.08641761115419,-115.47305156258417zM43.31625276102991,-115.5314791333141L47.12195533447715,-115.4507498106537L37.08641761115419,-136.59617075086166zM47.12195533447715,-115.4507498106537L43.31625276102991,-115.5314791333141L37.08641761115419,-115.47305156258417zM95.3862778489987,-115.5314791333141L91.48365483939477,-115.4507498106537L101.54596716521574,-115.47305156258417zM111.56905556928842,-115.4507498106537L107.80841784607313,-115.5314791333141L101.54596716521574,-115.47305156258417zM91.48365483939477,-115.4507498106537L95.3862778489987,-115.5314791333141L101.54596716521574,-136.59617075086166zM107.80841784607313,-115.5314791333141L111.56905556928842,-115.4507498106537L101.54596716521574,-136.59617075086166zM131.44527048879525,-115.4507498106537L127.69853127529193,-115.5314791333141L121.42602159564103,-115.47305156258417zM127.69853127529193,-115.5314791333141L131.44527048879525,-115.4507498106537L121.42602159564103,-136.59617075086166zM111.35986975890152,-115.4507498106537L115.27639127821755,-115.5314791333141L121.42602159564103,-136.59617075086166zM115.27639127821755,-115.5314791333141L111.35986975890152,-115.4507498106537L121.42602159564103,-115.47305156258417zM195.89024884063247,-115.4507498106537L192.18857299362733,-115.5314791333141L185.88344885684202,-115.47305156258417zM179.76643299655294,-115.5314791333141L175.8048481107388,-115.4507498106537L185.88344885684202,-115.47305156258417zM192.18857299362733,-115.5314791333141L195.89024884063247,-115.4507498106537L185.88344885684202,-136.59617075086166zM175.8048481107388,-115.4507498106537L179.76643299655294,-115.5314791333141L185.88344885684202,-136.59617075086166z" style="fill:rgb(186,45,138)"></path><path d="M270.32370687372423,-33.60331480737398L270.5127316292217,-37.465464795765016L270.3759256099517,-43.65444632244087zM270.32370687372423,-53.68871553726763L270.5127316292217,-49.88760479283941L291.4990447982292,-43.65444632244087zM270.5127316292217,-37.465464795765016L270.32370687372423,-33.60331480737398L291.4990447982292,-43.65444632244087zM270.5127316292217,-49.88760479283941L270.32370687372423,-53.68871553726763L270.3759256099517,-43.65444632244087z" style="fill:rgb(41,170,178)"></path><path d="M386.61959885213014,-115.5314791333141L374.1974588550558,-115.5314791333141L380.2161453889945,-115.47305156258417zM374.1974588550558,-115.5314791333141L386.61959885213014,-115.5314791333141L380.2161453889945,-136.59617075086166zM323.47632167457675,-115.5314791333141L335.89846167165115,-115.5314791333141L329.5206593371286,-136.59617075086166zM335.89846167165115,-115.5314791333141L323.47632167457675,-115.5314791333141L329.5206593371286,-115.47305156258417zM285.1773244911721,-115.5314791333141L272.7551844940977,-115.5314791333141L278.8251732852627,-115.47305156258417zM272.7551844940977,-115.5314791333141L285.1773244911721,-115.5314791333141L278.8251732852627,-136.59617075086166zM234.45618731069305,-115.5314791333141L222.03404731361866,-115.5314791333141L228.12968723339677,-115.47305156258417zM222.03404731361866,-115.5314791333141L234.45618731069305,-115.5314791333141L228.12968723339677,-136.59617075086166zM183.735050130214,-115.5314791333141L171.31291013313964,-115.5314791333141L177.43420118153088,-115.47305156258417zM171.31291013313964,-115.5314791333141L183.735050130214,-115.5314791333141L177.43420118153088,-136.59617075086166zM133.01391294973496,-115.5314791333141L120.59177295266056,-115.5314791333141L126.73871512966498,-115.47305156258417zM120.59177295266056,-115.5314791333141L133.01391294973496,-115.5314791333141L126.73871512966498,-136.59617075086166zM82.29277576925595,-115.5314791333141L69.87063577218153,-115.5314791333141L76.04322907779903,-115.47305156258417zM69.87063577218153,-115.5314791333141L82.29277576925595,-115.5314791333141L76.04322907779903,-136.59617075086166zM31.571638588776846,-115.5314791333141L19.14949859170243,-115.5314791333141L25.347743025933106,-115.47305156258417zM19.14949859170243,-115.5314791333141L31.571638588776846,-115.5314791333141L25.347743025933106,-136.59617075086166zM-31.57163858877656,-115.5314791333141L-19.14949859170214,-115.5314791333141L-25.347743025932758,-136.59617075086166zM-19.14949859170214,-115.5314791333141L-31.57163858877656,-115.5314791333141L-25.347743025932758,-115.47305156258417zM-82.29277576925554,-115.5314791333141L-69.87063577218112,-115.5314791333141L-76.04322907779867,-136.59617075086166zM-69.87063577218112,-115.5314791333141L-82.29277576925554,-115.5314791333141L-76.04322907779867,-115.47305156258417zM-120.59177295266016,-115.5314791333141L-133.01391294973453,-115.5314791333141L-126.73871512966453,-115.47305156258417zM-133.01391294973453,-115.5314791333141L-120.59177295266016,-115.5314791333141L-126.73871512966453,-136.59617075086166z" style="fill:rgb(128,207,62)"></path><path d="M-120.59177295266016,-115.5314791333141L-133.01391294973453,-115.5314791333141L-126.73871512966453,-115.47305156258417zM-133.01391294973453,-115.5314791333141L-120.59177295266016,-115.5314791333141L-126.73871512966453,-136.59617075086166zM-94.44405163013734,-115.5314791333141L-82.02191163306298,-115.5314791333141L-88.18835969121072,-136.59617075086166zM-82.02191163306298,-115.5314791333141L-94.44405163013734,-115.5314791333141L-88.18835969121072,-115.47305156258417zM-4.596295914607901,-115.5314791333141L-17.018435911682317,-115.5314791333141L-10.801900319343076,-115.47305156258417zM-17.018435911682317,-115.5314791333141L-4.596295914607901,-115.5314791333141L-10.801900319343076,-136.59617075086166zM43.31625276102991,-115.5314791333141L30.89411276395549,-115.5314791333141L37.08641761115419,-115.47305156258417zM30.89411276395549,-115.5314791333141L43.31625276102991,-115.5314791333141L37.08641761115419,-136.59617075086166zM95.3862778489987,-115.5314791333141L107.80841784607313,-115.5314791333141L101.54596716521574,-136.59617075086166zM107.80841784607313,-115.5314791333141L95.3862778489987,-115.5314791333141L101.54596716521574,-115.47305156258417zM127.69853127529193,-115.5314791333141L115.27639127821755,-115.5314791333141L121.42602159564103,-115.47305156258417zM115.27639127821755,-115.5314791333141L127.69853127529193,-115.5314791333141L121.42602159564103,-136.59617075086166zM179.76643299655294,-115.5314791333141L192.18857299362733,-115.5314791333141L185.88344885684202,-136.59617075086166zM192.18857299362733,-115.5314791333141L179.76643299655294,-115.5314791333141L185.88344885684202,-115.47305156258417z" style="fill:rgb(186,45,138)"></path><path d="M270.5127316292217,-37.465464795765016L270.5127316292217,-49.88760479283941L270.3759256099517,-43.65444632244087zM270.5127316292217,-49.88760479283941L270.5127316292217,-37.465464795765016L291.4990447982292,-43.65444632244087z" style="fill:rgb(41,170,178)"></path></svg>