<?xml version="1.0" encoding="UTF-8" standalone="no"?>
<svg
   xmlns:dc="http://purl.org/dc/elements/1.1/"
   xmlns:cc="http://creativecommons.org/ns#"
   xmlns:rdf="http://www.w3.org/1999/02/22-rdf-syntax-ns#"
   xmlns:svg="http://www.w3.org/2000/svg"
   xmlns="http://www.w3.org/2000/svg"
   xmlns:sodipodi="http://sodipodi.sourceforge.net/DTD/sodipodi-0.dtd"
   xmlns:inkscape="http://www.inkscape.org/namespaces/inkscape"
   viewBox="-812 -590 1624 1180"
   width="1624"
   height="1180"
   style="background-color: rgb(255, 255, 255);"
   version="1.1"
   id="svg52"
   sodipodi:docname="strip22.svg"
   inkscape:version="0.92.2 5c3e80d, 2017-08-06">
  <metadata
     id="metadata58">
    <rdf:RDF>
      <cc:Work
         rdf:about="">
        <dc:format>image/svg+xml</dc:format>
        <dc:type
           rdf:resource="http://purl.org/dc/dcmitype/StillImage" />
      </cc:Work>
    </rdf:RDF>
  </metadata>
  <defs
     id="defs56" />
  <sodipodi:namedview
     pagecolor="#ffffff"
     bordercolor="#666666"
     borderopacity="1"
     objecttolerance="10"
     gridtolerance="10"
     guidetolerance="10"
     inkscape:pageopacity="0"
     inkscape:pageshadow="2"
     inkscape:window-width="1280"
     inkscape:window-height="1565"
     id="namedview54"
     showgrid="false"
     inkscape:zoom="0.34729064"
     inkscape:cx="468.67308"
     inkscape:cy="-80.445539"
     inkscape:window-x="0"
     inkscape:window-y="0"
     inkscape:window-maximized="1"
     inkscape:current-layer="svg52" />
  <path
     d="M126.71423759705836,102.59217749910408L126.6595383656366,112.58625632500934L126.738715129665,112.65663567081235zM126.6595383656366,112.58625632500934L126.71423759705836,122.67757822899782L126.738715129665,112.65663567081235zM126.71423759705836,46.2747385670782L126.6595383656366,56.29312816250433L126.738715129665,56.32831783540584zM126.6595383656366,56.29312816250433L126.71423759705836,66.36013929697195L126.738715129665,56.32831783540584zM126.71423759705836,-10.042700364947667L126.6595383656366,-7.542636029479979e-13L126.738715129665,-7.547351043609701e-13zM126.6595383656366,-7.542636029479979e-13L126.71423759705836,10.042700364946075L126.738715129665,-7.547351043609701e-13zM126.71423759705836,-66.36013929697353L126.6595383656366,-56.29312816250584L126.738715129665,-56.32831783540735zM126.6595383656366,-56.29312816250584L126.71423759705836,-46.274738567079794L126.738715129665,-56.32831783540735z"
     style="fill:rgb(41,170,178)"
     id="path2" />
  <path
     d="M-464.70862214210393,-56.32831783540726L380.2161453889945,-56.32831783540726L380.2161453889945,535.1190194363617zM-464.70862214210393,535.1190194363617L380.2161453889945,535.1190194363617L-464.70862214210393,-56.32831783540726z"
     style="fill:rgb(0,0,0); fill-opacity: 0.2"
     id="path4" />
  <path
     d="M380.2161453889945,-56.32831783540726L380.2161453889945,535.1190194363617M-464.70862214210393,-56.32831783540726L380.2161453889945,-56.32831783540726M-464.70862214210393,535.1190194363617L-464.70862214210393,-56.32831783540726M380.2161453889945,535.1190194363617L-464.70862214210393,535.1190194363617"
     style="fill:none;stroke:rgb(0,0,0);stroke-width:1;stroke-linecap:round"
     id="path6" />
  <path
     d="M-464.70862214210393,-56.32831783540726L380.2161453889945,-56.32831783540726L-126.73871512966453,281.6415891770321zM-126.73871512966453,281.6415891770321L380.2161453889945,281.6415891770321L380.2161453889945,-56.32831783540726z"
     style="fill:rgb(0,0,0); fill-opacity: 0.2"
     id="path8" />
  <path
     d="M380.2161453889945,-56.32831783540726L-464.70862214210393,-56.32831783540726M380.2161453889945,281.6415891770321L380.2161453889945,-56.32831783540726M-464.70862214210393,-56.32831783540726L-126.73871512966453,281.6415891770321M-126.73871512966453,281.6415891770321L380.2161453889945,281.6415891770321"
     style="fill:none;stroke:rgb(0,0,0);stroke-width:1;stroke-linecap:round"
     id="path10" />
  <path
     d="M-126.73871512966453,-56.32831783540726L-126.73871512966453,281.6415891770321L-464.70862214210393,-56.32831783540726zM-464.70862214210393,-56.32831783540726L-464.70862214210393,-56.32831783540726L-126.73871512966453,-56.32831783540726z"
     style="fill:rgb(0,0,0); fill-opacity: 0.2"
     id="path12" />
  <path
     d="M-126.73871512966453,112.65663567081235L380.2161453889945,112.65663567081235"
     style="fill:none;stroke:rgb(58,110,14);stroke-width:5;stroke-linecap:round"
     id="path16" />
  <path
     d="M380.2161453889945,112.65663567081235L380.2161453889945,28.1641589177025M329.5206593371286,112.65663567081235L329.5206593371286,28.1641589177025M278.8251732852627,112.65663567081235L278.8251732852627,28.1641589177025M228.12968723339677,112.65663567081235L228.12968723339677,28.1641589177025M177.43420118153088,112.65663567081235L177.43420118153088,28.1641589177025M126.73871512966498,112.65663567081235L126.73871512966498,28.1641589177025M76.04322907779903,112.65663567081235L76.04322907779903,28.1641589177025M25.347743025933106,112.65663567081235L25.347743025933106,28.1641589177025M-25.347743025932758,112.65663567081235L-25.347743025932758,28.1641589177025M-76.04322907779867,112.65663567081235L-76.04322907779867,28.1641589177025M-126.73871512966453,112.65663567081235L-126.73871512966453,28.1641589177025"
     style="fill:none;stroke:rgb(128,207,62);stroke-width:5;stroke-linecap:round"
     id="path18" />
  <path
     d="M-126.73871512966453,281.6415891770321L380.2161453889945,281.6415891770321L-126.73871512966453,112.65663567081235zM-126.73871512966453,112.65663567081235L380.2161453889945,112.65663567081235L380.2161453889945,281.6415891770321z"
     style="fill:rgb(0,0,0); fill-opacity: 0.2"
     id="path20" />
  <path
     d="M-126.73871512966453,281.6415891770321L-126.73871512966453,112.65663567081235M380.2161453889945,112.65663567081235L380.2161453889945,281.6415891770321M380.2161453889945,281.6415891770321L-126.73871512966453,281.6415891770321M-126.73871512966453,112.65663567081235L380.2161453889945,112.65663567081235"
     style="fill:none;stroke:rgb(0,0,0);stroke-width:1;stroke-linecap:round"
     id="path22" />
  <path
     d="M42.24623837655515,112.65663567081235L-126.73871512966453,112.65663567081235"
     style="fill:none;stroke:rgb(97,2,64);stroke-width:5;stroke-linecap:round"
     id="path24" />
  <path
     d="M-126.73871512966453,112.65663567081235L-126.73871512966453,28.1641589177025M-85.062655196201,112.65663567081235L-85.062655196201,28.1641589177025M-1.401618037425153,112.65663567081235L-1.401618037425153,28.1641589177025M42.24623837655521,112.65663567081235L42.24623837655521,28.1641589177025"
     style="fill:none;stroke:rgb(186,45,138);stroke-width:5;stroke-linecap:round"
     id="path26" />
  <path
     d="M-126.73871512966453,281.6415891770321L-126.73871512966453,281.6415891770321L42.24623837655515,112.65663567081235zM42.24623837655515,112.65663567081235L-126.73871512966453,112.65663567081235L-126.73871512966453,281.6415891770321z"
     style="fill:rgb(0,0,0); fill-opacity: 0.2"
     id="path28" />
  <path
     d="M-126.73871512966453,112.65663567081235L-126.73871512966453,281.6415891770321M-126.73871512966453,281.6415891770321L42.24623837655515,112.65663567081235M-126.73871512966453,281.6415891770321L-126.73871512966453,281.6415891770321M42.24623837655515,112.65663567081235L-126.73871512966453,112.65663567081235"
     style="fill:none;stroke:rgb(0,0,0);stroke-width:1;stroke-linecap:round"
     id="path30" />
  <path
     d="M42.24623837655515,-56.32831783540726L42.24623837655515,112.65663567081235"
     style="fill:none;stroke:rgb(0,86,91);stroke-width:5;stroke-linecap:round"
     id="path32" />
  <path
     d="M42.24623837655515,112.65663567081235L126.738715129665,112.65663567081234M42.24623837655515,56.32831783540584L126.738715129665,56.32831783540581M42.24623837655515,-7.547351043609701e-13L126.738715129665,-7.734962029807517e-13M42.24623837655515,-56.32831783540735L126.738715129665,-56.32831783540737"
     style="fill:none;stroke:rgb(41,170,178);stroke-width:5;stroke-linecap:round"
     id="path34" />
  <path
     d="M370.1000124262278,28.15871946601218L374.1974588550558,28.178409544709833L380.2161453889945,7.041039729425069zM386.61959885213014,28.178409544709833L390.1854131561215,28.15871946601218L380.2161453889945,7.041039729425069zM335.89846167165115,28.178409544709833L339.49971811729824,28.15871946601218L329.5206593371286,7.041039729425069zM319.41431738740454,28.15871946601218L323.47632167457675,28.178409544709833L329.5206593371286,7.041039729425069zM268.72862234858127,28.15871946601218L272.7551844940977,28.178409544709833L278.8251732852627,7.041039729425069zM285.1773244911721,28.178409544709833L288.814023078475,28.15871946601218L278.8251732852627,7.041039729425069zM234.45618731069305,28.178409544709833L238.1283280396517,28.15871946601218L228.12968723339677,7.041039729425069zM218.04292730975803,28.15871946601218L222.03404731361866,28.178409544709833L228.12968723339677,7.041039729425069zM167.35723227093476,28.15871946601218L171.31291013313964,28.178409544709833L177.43420118153088,7.041039729425069zM183.735050130214,28.178409544709833L187.44263300082844,28.15871946601218L177.43420118153088,7.041039729425069zM116.6715372321115,28.15871946601218L120.59177295266056,28.178409544709833L126.73871512966498,7.041039729425069zM133.01391294973496,28.178409544709833L136.75693796200517,28.15871946601218L126.73871512966498,7.041039729425069zM65.98584219328825,28.15871946601218L69.87063577218153,28.178409544709833L76.04322907779903,7.041039729425069zM82.29277576925595,28.178409544709833L86.0712429231819,28.15871946601218L76.04322907779903,7.041039729425069zM31.571638588776846,28.178409544709833L35.38554788435864,28.15871946601218L25.347743025933106,7.041039729425069zM15.300147154464918,28.15871946601218L19.14949859170243,28.178409544709833L25.347743025933106,7.041039729425069zM-19.14949859170214,28.178409544709833L-15.30014715446463,28.15871946601218L-25.347743025932758,7.041039729425069zM-35.38554788435829,28.15871946601218L-31.57163858877656,28.178409544709833L-25.347743025932758,7.041039729425069zM-69.87063577218112,28.178409544709833L-65.98584219328784,28.15871946601218L-76.04322907779867,7.041039729425069zM-86.07124292318156,28.15871946601218L-82.29277576925554,28.178409544709833L-76.04322907779867,7.041039729425069zM-136.75693796200477,28.15871946601218L-133.01391294973453,28.178409544709833L-126.73871512966453,7.041039729425069zM-120.59177295266016,28.178409544709833L-116.67153723211106,28.15871946601218L-126.73871512966453,7.041039729425069z"
     style="fill:rgb(128,207,62)"
     id="path40" />
  <path
     d="M-120.59177295266016,28.178409544709833L-116.67153723211106,28.15871946601218L-126.73871512966453,7.041039729425069zM-136.75693796200477,28.15871946601218L-133.01391294973453,28.178409544709833L-126.73871512966453,7.041039729425069zM-78.89462558012265,28.178409544709833L-75.0035263554404,28.15871946601218L-85.062655196201,7.041039729425069zM-95.08892708533412,28.15871946601218L-91.31676557719707,28.178409544709833L-85.062655196201,7.041039729425069zM4.808742764152998,28.178409544709833L8.641353027372007,28.15871946601218L-1.401618037425153,7.041039729425069zM-11.44404770252171,28.15871946601218L-7.613397232921361,28.178409544709833L-1.401618037425153,7.041039729425069zM48.47868431560333,28.178409544709833L52.28077956396646,28.15871946601218L42.24623837655521,7.041039729425069zM32.195378834072756,28.15871946601218L36.056544318528914,28.178409544709833L42.24623837655521,7.041039729425069z"
     style="fill:rgb(186,45,138)"
     id="path42" />
  <path
     d="M126.80284295119782,118.92470817737876L126.71423759705836,122.67757822899782L147.86183431794245,112.65663567081235zM126.71423759705836,102.59217749910408L126.80284295119782,106.50256818030437L147.86183431794245,112.65663567081235zM126.80284295119782,106.50256818030437L126.71423759705836,102.59217749910408L126.738715129665,112.65663567081235zM126.71423759705836,122.67757822899782L126.80284295119782,118.92470817737876L126.738715129665,112.65663567081235zM126.80284295119782,62.56788908795758L126.71423759705836,66.36013929697195L147.86183431794245,56.32831783540584zM126.80284295119782,50.145749090883186L126.71423759705836,46.2747385670782L126.738715129665,56.32831783540584zM126.71423759705836,66.36013929697195L126.80284295119782,62.56788908795758L126.738715129665,56.32831783540584zM126.71423759705836,46.2747385670782L126.80284295119782,50.145749090883186L147.86183431794245,56.32831783540584zM126.71423759705836,-10.042700364947667L126.80284295119782,-6.211069998537992L147.86183431794245,-7.547351043609701e-13zM126.71423759705836,10.042700364946075L126.80284295119782,6.211069998536398L126.738715129665,-7.547351043609701e-13zM126.80284295119782,6.211069998536398L126.71423759705836,10.042700364946075L147.86183431794245,-7.547351043609701e-13zM126.80284295119782,-6.211069998537992L126.71423759705836,-10.042700364947667L126.738715129665,-7.547351043609701e-13zM126.71423759705836,-46.274738567079794L126.80284295119782,-50.145749090884784L126.738715129665,-56.32831783540735zM126.80284295119782,-50.145749090884784L126.71423759705836,-46.274738567079794L147.86183431794245,-56.32831783540735zM126.71423759705836,-66.36013929697353L126.80284295119782,-62.567889087959166L147.86183431794245,-56.32831783540735zM126.80284295119782,-62.567889087959166L126.71423759705836,-66.36013929697353L126.738715129665,-56.32831783540735z"
     style="fill:rgb(41,170,178)"
     id="path44" />
  <path
     d="M374.1974588550558,28.178409544709833L386.61959885213014,28.178409544709833L380.2161453889945,7.041039729425069zM323.47632167457675,28.178409544709833L335.89846167165115,28.178409544709833L329.5206593371286,7.041039729425069zM272.7551844940977,28.178409544709833L285.1773244911721,28.178409544709833L278.8251732852627,7.041039729425069zM222.03404731361866,28.178409544709833L234.45618731069305,28.178409544709833L228.12968723339677,7.041039729425069zM171.31291013313964,28.178409544709833L183.735050130214,28.178409544709833L177.43420118153088,7.041039729425069zM120.59177295266056,28.178409544709833L133.01391294973496,28.178409544709833L126.73871512966498,7.041039729425069zM69.87063577218153,28.178409544709833L82.29277576925595,28.178409544709833L76.04322907779903,7.041039729425069zM19.14949859170243,28.178409544709833L31.571638588776846,28.178409544709833L25.347743025933106,7.041039729425069zM-31.57163858877656,28.178409544709833L-19.14949859170214,28.178409544709833L-25.347743025932758,7.041039729425069zM-82.29277576925554,28.178409544709833L-69.87063577218112,28.178409544709833L-76.04322907779867,7.041039729425069zM-133.01391294973453,28.178409544709833L-120.59177295266016,28.178409544709833L-126.73871512966453,7.041039729425069z"
     style="fill:rgb(128,207,62)"
     id="path46" />
  <path
     d="M-133.01391294973453,28.178409544709833L-120.59177295266016,28.178409544709833L-126.73871512966453,7.041039729425069zM-91.31676557719707,28.178409544709833L-78.89462558012265,28.178409544709833L-85.062655196201,7.041039729425069zM-7.613397232921361,28.178409544709833L4.808742764152998,28.178409544709833L-1.401618037425153,7.041039729425069zM36.056544318528914,28.178409544709833L48.47868431560333,28.178409544709833L42.24623837655521,7.041039729425069z"
     style="fill:rgb(186,45,138)"
     id="path48" />
  <path
     d="M126.80284295119782,118.92470817737876L126.80284295119782,106.50256818030437L126.738715129665,112.65663567081235zM126.80284295119782,106.50256818030437L126.80284295119782,118.92470817737876L147.86183431794245,112.65663567081235zM126.80284295119782,62.56788908795758L126.80284295119782,50.145749090883186L126.738715129665,56.32831783540584zM126.80284295119782,50.145749090883186L126.80284295119782,62.56788908795758L147.86183431794245,56.32831783540584zM126.80284295119782,-6.211069998537992L126.80284295119782,6.211069998536398L147.86183431794245,-7.547351043609701e-13zM126.80284295119782,6.211069998536398L126.80284295119782,-6.211069998537992L126.738715129665,-7.547351043609701e-13zM126.80284295119782,-50.145749090884784L126.80284295119782,-62.567889087959166L126.738715129665,-56.32831783540735zM126.80284295119782,-62.567889087959166L126.80284295119782,-50.145749090884784L147.86183431794245,-56.32831783540735z"
     style="fill:rgb(41,170,178)"
     id="path50" />
  <path
     inkscape:connector-curvature="0"
     d="M 42.246238,-56.328324 V 112.65664 L -126.73871,281.64159 Z m -168.984948,0 V 281.64159 L 42.246238,-56.328324 Z"
     style="fill:#000000;fill-opacity:0.2"
     id="path36" />
</svg>
