<svg viewBox="-812 -590 1624 1180" width="1624" height="1180" style="background-color: rgb(255, 255, 255);"><path d="M394.35910109418796,27.252776051674324L382.3450163785245,27.252776051674324L388.542197054954,27.266119091575916zM348.93780767473106,27.252776051674324L336.9237229590676,27.252776051674324L343.0986652356611,27.266119091575916zM303.51651425527416,27.252776051674324L291.5024295396107,27.252776051674324L297.6551334163682,27.266119091575916zM258.0952208358173,27.252776051674324L246.08113612015381,27.252776051674324L252.21160159707526,27.266119091575916zM212.67392741636036,27.252776051674324L200.65984270069688,27.252776051674324L206.7680697777824,27.266119091575916zM167.25263399690346,27.252776051674324L155.23854928123998,27.252776051674324L161.3245379584895,27.266119091575916zM121.83134057744654,27.252776051674324L109.81725586178311,27.252776051674324L115.8810061391966,27.266119091575916zM76.4100471579897,27.252776051674324L64.39596244232622,27.252776051674324L70.43747431990371,27.266119091575916zM30.988753738532804,27.252776051674324L18.974669022869325,27.252776051674324L24.99394250061083,27.266119091575916zM-14.43253968092409,27.252776051674324L-26.44662439658757,27.252776051674324L-20.449589318682055,27.266119091575916zM-59.85383310038099,27.252776051674324L-71.86791781604447,27.252776051674324L-65.89312113797494,27.266119091575916zM-105.2751265198379,27.252776051674324L-117.2892112355013,27.252776051674324L-111.33665295726783,27.266119091575916zM-150.6964199392948,27.252776051674324L-162.71050465495819,27.252776051674324L-156.78018477656065,27.266119091575916zM-196.11771335875167,27.252776051674324L-208.1317980744151,27.252776051674324L-202.22371659585355,27.266119091575916zM-241.53900677820855,27.252776051674324L-253.553091493872,27.252776051674324L-247.66724841514645,27.266119091575916zM-286.96030019766556,27.252776051674324L-298.974384913329,27.252776051674324L-293.1107802344394,27.266119091575916zM-332.38159361712246,27.252776051674324L-344.3956783327859,27.252776051674324L-338.5543120537323,27.266119091575916zM-377.80288703657936,27.252776051674324L-389.8169717522428,27.252776051674324L-383.9978438730252,27.266119091575916zM-423.2241804560362,27.252776051674324L-435.2382651716997,27.252776051674324L-429.44137569231805,27.266119091575916zM398.34104932038576,27.27121912845977L394.35910109418796,27.252776051674324L388.542197054954,27.266119091575916zM382.3450163785245,27.252776051674324L378.888695840712,27.27121912845977L388.542197054954,27.266119091575916zM352.88901743961975,27.27121912845977L348.93780767473106,27.252776051674324L343.0986652356611,27.266119091575916zM336.9237229590676,27.252776051674324L333.43666395994603,27.27121912845977L343.0986652356611,27.266119091575916zM291.5024295396107,27.252776051674324L287.9846320791801,27.27121912845977L297.6551334163682,27.266119091575916zM307.4369855588538,27.27121912845977L303.51651425527416,27.252776051674324L297.6551334163682,27.266119091575916zM246.08113612015381,27.252776051674324L242.53260019841406,27.27121912845977L252.21160159707526,27.266119091575916zM261.9849536780878,27.27121912845977L258.0952208358173,27.252776051674324L252.21160159707526,27.266119091575916zM200.65984270069688,27.252776051674324L197.08056831764804,27.27121912845977L206.7680697777824,27.266119091575916zM216.53292179732182,27.27121912845977L212.67392741636036,27.252776051674324L206.7680697777824,27.266119091575916zM155.23854928123998,27.252776051674324L151.6285364368821,27.27121912845977L161.3245379584895,27.266119091575916zM171.08088991655583,27.27121912845977L167.25263399690346,27.252776051674324L161.3245379584895,27.266119091575916zM109.81725586178311,27.252776051674324L106.17650455611609,27.27121912845977L115.8810061391966,27.266119091575916zM125.62885803578986,27.27121912845977L121.83134057744654,27.252776051674324L115.8810061391966,27.266119091575916zM64.39596244232622,27.252776051674324L60.72447267535012,27.27121912845977L70.43747431990371,27.266119091575916zM80.17682615502389,27.27121912845977L76.4100471579897,27.252776051674324L70.43747431990371,27.266119091575916zM18.974669022869325,27.252776051674324L15.27244079458415,27.27121912845977L24.99394250061083,27.266119091575916zM34.72479427425791,27.27121912845977L30.988753738532804,27.252776051674324L24.99394250061083,27.266119091575916zM-10.727237606508064,27.27121912845977L-14.43253968092409,27.252776051674324L-20.449589318682055,27.266119091575916zM-26.44662439658757,27.252776051674324L-30.179591086181826,27.27121912845977L-20.449589318682055,27.266119091575916zM-71.86791781604447,27.252776051674324L-75.63162296694775,27.27121912845977L-65.89312113797494,27.266119091575916zM-56.17926948727404,27.27121912845977L-59.85383310038099,27.252776051674324L-65.89312113797494,27.266119091575916zM-101.63130136804003,27.27121912845977L-105.2751265198379,27.252776051674324L-111.33665295726783,27.266119091575916zM-117.2892112355013,27.252776051674324L-121.08365484771377,27.27121912845977L-111.33665295726783,27.266119091575916zM-162.71050465495819,27.252776051674324L-166.53568672847973,27.27121912845977L-156.78018477656065,27.266119091575916zM-147.08333324880599,27.27121912845977L-150.6964199392948,27.252776051674324L-156.78018477656065,27.266119091575916zM-208.1317980744151,27.252776051674324L-211.98771860924572,27.27121912845977L-202.22371659585355,27.266119091575916zM-192.53536512957197,27.27121912845977L-196.11771335875167,27.252776051674324L-202.22371659585355,27.266119091575916zM-237.98739701033796,27.27121912845977L-241.53900677820855,27.252776051674324L-247.66724841514645,27.266119091575916zM-253.553091493872,27.252776051674324L-257.4397504900117,27.27121912845977L-247.66724841514645,27.266119091575916zM-283.4394288911039,27.27121912845977L-286.96030019766556,27.252776051674324L-293.1107802344394,27.266119091575916zM-298.974384913329,27.252776051674324L-302.8917823707777,27.27121912845977L-293.1107802344394,27.266119091575916zM-328.8914607718699,27.27121912845977L-332.38159361712246,27.252776051674324L-338.5543120537323,27.266119091575916zM-344.3956783327859,27.252776051674324L-348.3438142515436,27.27121912845977L-338.5543120537323,27.266119091575916zM-389.8169717522428,27.252776051674324L-393.79584613230963,27.27121912845977L-383.9978438730252,27.266119091575916zM-374.34349265263586,27.27121912845977L-377.80288703657936,27.252776051674324L-383.9978438730252,27.266119091575916zM-419.7955245334019,27.27121912845977L-423.2241804560362,27.252776051674324L-429.44137569231805,27.266119091575916zM-435.2382651716997,27.252776051674324L-439.2478780130756,27.27121912845977L-429.44137569231805,27.266119091575916z" style="fill:rgb(128,207,62)"></path><path d="M-429.4413756923182,-54.532238183151264L388.542197054954,-54.532238183151264M388.542197054954,-54.532238183151264L389.8634529569072,519.817937275877M-430.90171116289815,519.817937275877L-429.4413756923182,-54.532238183151264" style="fill:none;stroke:rgb(0,0,0);stroke-width:1;stroke-linecap:round"></path><path d="M-429.4413756923182,-54.532238183151264L388.542197054954,-54.532238183151264" style="fill:none;stroke:rgb(58,110,14);stroke-width:5;stroke-linecap:round"></path><path d="M388.542197054954,-54.532238183151264L388.542197054954,27.266119091575955M343.0986652356611,-54.532238183151264L343.0986652356611,27.266119091575955M297.6551334163682,-54.532238183151264L297.6551334163682,27.266119091575955M252.21160159707526,-54.532238183151264L252.21160159707526,27.266119091575955M206.7680697777824,-54.532238183151264L206.7680697777824,27.266119091575955M161.3245379584895,-54.532238183151264L161.3245379584895,27.266119091575955M115.8810061391966,-54.532238183151264L115.8810061391966,27.266119091575955M70.43747431990371,-54.532238183151264L70.43747431990371,27.266119091575955M24.99394250061083,-54.532238183151264L24.99394250061083,27.266119091575955M-20.449589318682055,-54.532238183151264L-20.449589318682055,27.266119091575955M-65.89312113797494,-54.532238183151264L-65.89312113797494,27.266119091575955M-111.33665295726783,-54.532238183151264L-111.33665295726783,27.266119091575955M-156.78018477656065,-54.532238183151264L-156.78018477656065,27.266119091575955M-202.22371659585355,-54.532238183151264L-202.22371659585355,27.266119091575955M-247.66724841514645,-54.532238183151264L-247.66724841514645,27.266119091575955M-293.1107802344394,-54.532238183151264L-293.1107802344394,27.266119091575955M-338.5543120537323,-54.532238183151264L-338.5543120537323,27.266119091575955M-383.9978438730252,-54.532238183151264L-383.9978438730252,27.266119091575955M-429.44137569231805,-54.532238183151264L-429.44137569231805,27.266119091575955" style="fill:none;stroke:rgb(128,207,62);stroke-width:5;stroke-linecap:round"></path><path d="M-429.4413756923182,-54.532238183151264L-429.4413756923182,-54.532238183151264" style="fill:none;stroke:rgb(97,2,64);stroke-width:5;stroke-linecap:round"></path><path d="M-429.4413756923182,-54.532238183151264L-347.64301841759095,-54.53223818315128" style="fill:none;stroke:rgb(186,45,138);stroke-width:5;stroke-linecap:round"></path><path d="M-347.81330884413006,-48.54602303629765L-347.57801726382104,-44.799502321286816L-327.19342909890923,-54.532238183151264zM-347.57801726382104,-64.24458152618601L-347.81330884413006,-60.571877777546646L-327.19342909890923,-54.532238183151264z" style="fill:rgb(186,45,138)"></path><path d="M378.888695840712,27.27121912845977L388.7774783960333,27.282630062879726L388.542197054954,27.266119091575916zM388.7774783960333,27.282630062879726L398.34104932038576,27.27121912845977L388.542197054954,27.266119091575916zM388.7774783960333,27.282630062879726L378.888695840712,27.27121912845977L388.542197054954,47.71570841025773zM398.34104932038576,27.27121912845977L388.7774783960333,27.282630062879726L388.542197054954,47.71570841025773zM343.30642829123406,27.282630062879726L333.43666395994603,27.27121912845977L343.0986652356611,47.71570841025773zM333.43666395994603,27.27121912845977L343.30642829123406,27.282630062879726L343.0986652356611,27.266119091575916zM343.30642829123406,27.282630062879726L352.88901743961975,27.27121912845977L343.0986652356611,27.266119091575916zM352.88901743961975,27.27121912845977L343.30642829123406,27.282630062879726L343.0986652356611,47.71570841025773zM297.8353781864348,27.282630062879726L307.4369855588538,27.27121912845977L297.6551334163682,27.266119091575916zM287.9846320791801,27.27121912845977L297.8353781864348,27.282630062879726L297.6551334163682,27.266119091575916zM307.4369855588538,27.27121912845977L297.8353781864348,27.282630062879726L297.6551334163682,47.71570841025773zM297.8353781864348,27.282630062879726L287.9846320791801,27.27121912845977L297.6551334163682,47.71570841025773zM261.9849536780878,27.27121912845977L252.36432808163553,27.282630062879726L252.21160159707526,47.71570841025773zM252.36432808163553,27.282630062879726L242.53260019841406,27.27121912845977L252.21160159707526,47.71570841025773zM242.53260019841406,27.27121912845977L252.36432808163553,27.282630062879726L252.21160159707526,27.266119091575916zM252.36432808163553,27.282630062879726L261.9849536780878,27.27121912845977L252.21160159707526,27.266119091575916zM197.08056831764804,27.27121912845977L206.8932779768363,27.282630062879726L206.7680697777824,27.266119091575916zM206.8932779768363,27.282630062879726L216.53292179732182,27.27121912845977L206.7680697777824,27.266119091575916zM206.8932779768363,27.282630062879726L197.08056831764804,27.27121912845977L206.7680697777824,47.71570841025773zM216.53292179732182,27.27121912845977L206.8932779768363,27.282630062879726L206.7680697777824,47.71570841025773zM161.42222787203704,27.282630062879726L171.08088991655583,27.27121912845977L161.3245379584895,27.266119091575916zM151.6285364368821,27.27121912845977L161.42222787203704,27.282630062879726L161.3245379584895,27.266119091575916zM161.42222787203704,27.282630062879726L151.6285364368821,27.27121912845977L161.3245379584895,47.71570841025773zM171.08088991655583,27.27121912845977L161.42222787203704,27.282630062879726L161.3245379584895,47.71570841025773zM115.9511777672378,27.282630062879726L106.17650455611609,27.27121912845977L115.8810061391966,47.71570841025773zM106.17650455611609,27.27121912845977L115.9511777672378,27.282630062879726L115.8810061391966,27.266119091575916zM115.9511777672378,27.282630062879726L125.62885803578986,27.27121912845977L115.8810061391966,27.266119091575916zM125.62885803578986,27.27121912845977L115.9511777672378,27.282630062879726L115.8810061391966,47.71570841025773zM70.48012766243856,27.282630062879726L60.72447267535012,27.27121912845977L70.43747431990371,47.71570841025773zM60.72447267535012,27.27121912845977L70.48012766243856,27.282630062879726L70.43747431990371,27.266119091575916zM80.17682615502389,27.27121912845977L70.48012766243856,27.282630062879726L70.43747431990371,47.71570841025773zM70.48012766243856,27.282630062879726L80.17682615502389,27.27121912845977L70.43747431990371,27.266119091575916zM25.009077557639323,27.282630062879726L15.27244079458415,27.27121912845977L24.99394250061083,47.71570841025773zM34.72479427425791,27.27121912845977L25.009077557639323,27.282630062879726L24.99394250061083,47.71570841025773zM15.27244079458415,27.27121912845977L25.009077557639323,27.282630062879726L24.99394250061083,27.266119091575916zM25.009077557639323,27.282630062879726L34.72479427425791,27.27121912845977L24.99394250061083,27.266119091575916zM-20.461972547159913,27.282630062879726L-10.727237606508064,27.27121912845977L-20.449589318682055,27.266119091575916zM-20.461972547159913,27.282630062879726L-30.179591086181826,27.27121912845977L-20.449589318682055,47.71570841025773zM-10.727237606508064,27.27121912845977L-20.461972547159913,27.282630062879726L-20.449589318682055,47.71570841025773zM-30.179591086181826,27.27121912845977L-20.461972547159913,27.282630062879726L-20.449589318682055,27.266119091575916zM-65.93302265195915,27.282630062879726L-75.63162296694775,27.27121912845977L-65.89312113797494,47.71570841025773zM-56.17926948727404,27.27121912845977L-65.93302265195915,27.282630062879726L-65.89312113797494,47.71570841025773zM-65.93302265195915,27.282630062879726L-56.17926948727404,27.27121912845977L-65.89312113797494,27.266119091575916zM-75.63162296694775,27.27121912845977L-65.93302265195915,27.282630062879726L-65.89312113797494,27.266119091575916zM-101.63130136804003,27.27121912845977L-111.40407275675838,27.282630062879726L-111.33665295726783,47.71570841025773zM-121.08365484771377,27.27121912845977L-111.40407275675838,27.282630062879726L-111.33665295726783,27.266119091575916zM-111.40407275675838,27.282630062879726L-101.63130136804003,27.27121912845977L-111.33665295726783,27.266119091575916zM-111.40407275675838,27.282630062879726L-121.08365484771377,27.27121912845977L-111.33665295726783,47.71570841025773zM-147.08333324880599,27.27121912845977L-156.87512286155754,27.282630062879726L-156.78018477656065,47.71570841025773zM-156.87512286155754,27.282630062879726L-147.08333324880599,27.27121912845977L-156.78018477656065,27.266119091575916zM-156.87512286155754,27.282630062879726L-166.53568672847973,27.27121912845977L-156.78018477656065,47.71570841025773zM-166.53568672847973,27.27121912845977L-156.87512286155754,27.282630062879726L-156.78018477656065,27.266119091575916zM-192.53536512957197,27.27121912845977L-202.3461729663568,27.282630062879726L-202.22371659585355,47.71570841025773zM-211.98771860924572,27.27121912845977L-202.3461729663568,27.282630062879726L-202.22371659585355,27.266119091575916zM-202.3461729663568,27.282630062879726L-211.98771860924572,27.27121912845977L-202.22371659585355,47.71570841025773zM-202.3461729663568,27.282630062879726L-192.53536512957197,27.27121912845977L-202.22371659585355,27.266119091575916zM-247.81722307115604,27.282630062879726L-257.4397504900117,27.27121912845977L-247.66724841514645,47.71570841025773zM-237.98739701033796,27.27121912845977L-247.81722307115604,27.282630062879726L-247.66724841514645,47.71570841025773zM-257.4397504900117,27.27121912845977L-247.81722307115604,27.282630062879726L-247.66724841514645,27.266119091575916zM-247.81722307115604,27.282630062879726L-237.98739701033796,27.27121912845977L-247.66724841514645,27.266119091575916zM-293.2882731759554,27.282630062879726L-283.4394288911039,27.27121912845977L-293.1107802344394,27.266119091575916zM-293.2882731759554,27.282630062879726L-302.8917823707777,27.27121912845977L-293.1107802344394,47.71570841025773zM-283.4394288911039,27.27121912845977L-293.2882731759554,27.282630062879726L-293.1107802344394,47.71570841025773zM-302.8917823707777,27.27121912845977L-293.2882731759554,27.282630062879726L-293.1107802344394,27.266119091575916zM-328.8914607718699,27.27121912845977L-338.7593232807546,27.282630062879726L-338.5543120537323,47.71570841025773zM-338.7593232807546,27.282630062879726L-348.3438142515436,27.27121912845977L-338.5543120537323,47.71570841025773zM-348.3438142515436,27.27121912845977L-338.7593232807546,27.282630062879726L-338.5543120537323,27.266119091575916zM-338.7593232807546,27.282630062879726L-328.8914607718699,27.27121912845977L-338.5543120537323,27.266119091575916zM-384.23037338555383,27.282630062879726L-374.34349265263586,27.27121912845977L-383.9978438730252,27.266119091575916zM-393.79584613230963,27.27121912845977L-384.23037338555383,27.282630062879726L-383.9978438730252,27.266119091575916zM-374.34349265263586,27.27121912845977L-384.23037338555383,27.282630062879726L-383.9978438730252,47.71570841025773zM-384.23037338555383,27.282630062879726L-393.79584613230963,27.27121912845977L-383.9978438730252,47.71570841025773zM-439.2478780130756,27.27121912845977L-429.7014234903531,27.282630062879726L-429.44137569231805,27.266119091575916zM-429.7014234903531,27.282630062879726L-419.7955245334019,27.27121912845977L-429.44137569231805,27.266119091575916zM-419.7955245334019,27.27121912845977L-429.7014234903531,27.282630062879726L-429.44137569231805,47.71570841025773zM-429.7014234903531,27.282630062879726L-439.2478780130756,27.27121912845977L-429.44137569231805,47.71570841025773z" style="fill:rgb(128,207,62)"></path><path d="M-347.81330884413006,-60.571877777546646L-347.81330884413006,-48.54602303629765L-327.19342909890923,-54.532238183151264z" style="fill:rgb(186,45,138)"></path><path d="M-429.4413756923182,-54.532238183151264L388.542197054954,-54.532238183151264L389.8634529569072,519.817937275877zM-430.90171116289815,519.817937275877L389.8634529569072,519.817937275877L-429.4413756923182,-54.532238183151264z" style="fill:rgb(0,0,0); fill-opacity: 0.2"></path><path d="M389.8634529569072,519.817937275877L-430.90171116289815,519.817937275877" style="fill:none;stroke:rgb(0,0,0);stroke-width:1;stroke-linecap:round"></path></svg>