<svg viewBox="-812 -590 1624 1180" width="1624" height="1180" style="background-color: rgb(255, 255, 255);"><path d="M379.9786150969094,-140.7328204062634L390.1854131561215,-140.79359733006535L380.2161453889945,-140.82079458851715zM370.1000124262278,-140.79359733006535L379.9786150969094,-140.7328204062634L380.2161453889945,-140.82079458851715zM319.41431738740454,-140.79359733006535L329.3147997506548,-140.7328204062634L329.5206593371286,-140.82079458851715zM329.3147997506548,-140.7328204062634L339.49971811729824,-140.79359733006535L329.5206593371286,-140.82079458851715zM268.72862234858127,-140.79359733006535L278.6509844044002,-140.7328204062634L278.8251732852627,-140.82079458851715zM278.6509844044002,-140.7328204062634L288.814023078475,-140.79359733006535L278.8251732852627,-140.82079458851715zM227.98716905814567,-140.7328204062634L238.1283280396517,-140.79359733006535L228.12968723339677,-140.82079458851715zM218.04292730975803,-140.79359733006535L227.98716905814567,-140.7328204062634L228.12968723339677,-140.82079458851715zM177.32335371189114,-140.7328204062634L187.44263300082844,-140.79359733006535L177.43420118153088,-140.82079458851715zM167.35723227093476,-140.79359733006535L177.32335371189114,-140.7328204062634L177.43420118153088,-140.82079458851715zM126.65953836563658,-140.7328204062634L136.75693796200517,-140.79359733006535L126.73871512966498,-140.82079458851715zM116.6715372321115,-140.79359733006535L126.65953836563658,-140.7328204062634L126.73871512966498,-140.82079458851715zM65.98584219328825,-140.79359733006535L75.99572301938198,-140.7328204062634L76.04322907779903,-140.82079458851715zM75.99572301938198,-140.7328204062634L86.0712429231819,-140.79359733006535L76.04322907779903,-140.82079458851715zM25.331907673127425,-140.7328204062634L35.38554788435864,-140.79359733006535L25.347743025933106,-140.82079458851715zM15.300147154464918,-140.79359733006535L25.331907673127425,-140.7328204062634L25.347743025933106,-140.82079458851715zM-25.331907673127077,-140.7328204062634L-15.30014715446463,-140.79359733006535L-25.347743025932758,-140.82079458851715zM-35.38554788435829,-140.79359733006535L-25.331907673127077,-140.7328204062634L-25.347743025932758,-140.82079458851715zM-75.99572301938164,-140.7328204062634L-65.98584219328784,-140.79359733006535L-76.04322907779867,-140.82079458851715zM-86.07124292318156,-140.79359733006535L-75.99572301938164,-140.7328204062634L-76.04322907779867,-140.82079458851715zM-126.65953836563615,-140.7328204062634L-116.67153723211106,-140.79359733006535L-126.73871512966453,-140.82079458851715zM-136.75693796200477,-140.79359733006535L-126.65953836563615,-140.7328204062634L-126.73871512966453,-140.82079458851715z" style="fill:rgb(128,207,62)"></path><path d="M-126.65953836563615,-140.7328204062634L-116.67153723211106,-140.79359733006535L-126.73871512966453,-140.82079458851715zM-136.75693796200477,-140.79359733006535L-126.65953836563615,-140.7328204062634L-126.73871512966453,-140.82079458851715zM-101.0415000677157,-140.79359733006535L-90.95951789435935,-140.7328204062634L-91.01637804383871,-140.82079458851715zM-90.95951789435935,-140.7328204062634L-80.956099337822,-140.79359733006535L-91.01637804383871,-140.82079458851715zM-29.345889168162188,-140.79359733006535L-19.294856120073,-140.7328204062634L-19.306917622030877,-140.82079458851715zM-19.294856120073,-140.7328204062634L-9.260488438268528,-140.79359733006535L-19.306917622030877,-140.82079458851715zM25.05269686638886,-140.7328204062634L35.10621649754588,-140.79359733006535L25.068357680360393,-140.82079458851715zM15.020815767652161,-140.79359733006535L25.05269686638886,-140.7328204062634L25.068357680360393,-140.82079458851715zM84.74623827415083,-140.7328204062634L94.825537178452,-140.79359733006535L84.7992144099927,-140.82079458851715zM74.74013644855833,-140.79359733006535L84.74623827415083,-140.7328204062634L84.7992144099927,-140.82079458851715zM103.1564018657513,-140.7328204062634L113.24365138957795,-140.79359733006535L103.22088646907399,-140.82079458851715zM93.15825065968423,-140.79359733006535L103.1564018657513,-140.7328204062634L103.22088646907399,-140.82079458851715zM149.4265400654328,-140.79359733006535L159.40040171854767,-140.7328204062634L159.50004528393367,-140.82079458851715zM159.40040171854767,-140.7328204062634L169.5119407953265,-140.79359733006535L159.50004528393367,-140.82079458851715zM201.1476956301501,-140.79359733006535L211.09923060939403,-140.7328204062634L211.23119188277468,-140.82079458851715zM211.09923060939403,-140.7328204062634L221.23309636004382,-140.79359733006535L211.23119188277468,-140.82079458851715z" style="fill:rgb(186,45,138)"></path><path d="M295.5389228531518,-56.29312816250576L295.66655439313587,-46.27473856707971L295.7236686358847,-56.32831783540726zM295.66655439313587,-66.36013929697346L295.5389228531518,-56.29312816250576L295.7236686358847,-56.32831783540726z" style="fill:rgb(41,170,178)"></path><path d="M-464.70862214210393,535.1190194363617L380.2161453889945,535.1190194363617L-464.70862214210393,-56.32831783540726zM-464.70862214210393,-56.32831783540726L380.2161453889945,-56.32831783540726L380.2161453889945,535.1190194363617z" style="fill:rgb(0,0,0); fill-opacity: 0.2"></path><path d="M-464.70862214210393,-56.32831783540726L380.2161453889945,-56.32831783540726M-464.70862214210393,535.1190194363617L-464.70862214210393,-56.32831783540726M380.2161453889945,535.1190194363617L-464.70862214210393,535.1190194363617M380.2161453889945,-56.32831783540726L380.2161453889945,535.1190194363617" style="fill:none;stroke:rgb(0,0,0);stroke-width:1;stroke-linecap:round"></path><path d="M-464.70862214210393,-56.32831783540726L380.2161453889945,-56.32831783540726L-126.73871512966453,281.6415891770321zM-126.73871512966453,281.6415891770321L380.2161453889945,281.6415891770321L380.2161453889945,-56.32831783540726z" style="fill:rgb(0,0,0); fill-opacity: 0.2"></path><path d="M-464.70862214210393,-56.32831783540726L-126.73871512966453,281.6415891770321M380.2161453889945,-56.32831783540726L-464.70862214210393,-56.32831783540726M-126.73871512966453,281.6415891770321L380.2161453889945,281.6415891770321M380.2161453889945,281.6415891770321L380.2161453889945,-56.32831783540726" style="fill:none;stroke:rgb(0,0,0);stroke-width:1;stroke-linecap:round"></path><path d="M-464.70862214210393,-56.32831783540726L-464.70862214210393,-56.32831783540726L-126.73871512966453,-56.32831783540726zM-126.73871512966453,-56.32831783540726L-126.73871512966453,281.6415891770321L-464.70862214210393,-56.32831783540726z" style="fill:rgb(0,0,0); fill-opacity: 0.2"></path><path d="M-464.70862214210393,-56.32831783540726L-464.70862214210393,-56.32831783540726M-126.73871512966453,-56.32831783540726L-126.73871512966453,281.6415891770321M-126.73871512966453,281.6415891770321L-464.70862214210393,-56.32831783540726M-464.70862214210393,-56.32831783540726L-126.73871512966453,-56.32831783540726" style="fill:none;stroke:rgb(0,0,0);stroke-width:1;stroke-linecap:round"></path><path d="M-126.73871512966453,-56.32831783540726L380.2161453889945,-56.32831783540726" style="fill:none;stroke:rgb(58,110,14);stroke-width:5;stroke-linecap:round"></path><path d="M380.2161453889945,-56.32831783540726L380.2161453889945,-140.82079458851712M329.5206593371286,-56.32831783540726L329.5206593371286,-140.82079458851712M278.8251732852627,-56.32831783540726L278.8251732852627,-140.82079458851712M228.12968723339677,-56.32831783540726L228.12968723339677,-140.82079458851712M177.43420118153088,-56.32831783540726L177.43420118153088,-140.82079458851712M126.73871512966498,-56.32831783540726L126.73871512966498,-140.82079458851712M76.04322907779903,-56.32831783540726L76.04322907779903,-140.82079458851712M25.347743025933106,-56.32831783540726L25.347743025933106,-140.82079458851712M-25.347743025932758,-56.32831783540726L-25.347743025932758,-140.82079458851712M-76.04322907779867,-56.32831783540726L-76.04322907779867,-140.82079458851712M-126.73871512966453,-56.32831783540726L-126.73871512966453,-140.82079458851712" style="fill:none;stroke:rgb(128,207,62);stroke-width:5;stroke-linecap:round"></path><path d="M-126.73871512966453,-56.32831783540726L380.2161453889945,-56.32831783540726L380.2161453889945,281.6415891770321zM-126.73871512966453,281.6415891770321L380.2161453889945,281.6415891770321L-126.73871512966453,-56.32831783540726z" style="fill:rgb(0,0,0); fill-opacity: 0.2"></path><path d="M380.2161453889945,281.6415891770321L-126.73871512966453,281.6415891770321M380.2161453889945,-56.32831783540726L380.2161453889945,281.6415891770321M-126.73871512966453,-56.32831783540726L380.2161453889945,-56.32831783540726M-126.73871512966453,281.6415891770321L-126.73871512966453,-56.32831783540726" style="fill:none;stroke:rgb(0,0,0);stroke-width:1;stroke-linecap:round"></path><path d="M211.23119188277482,-56.32831783540726L-126.73871512966453,-56.32831783540726" style="fill:none;stroke:rgb(97,2,64);stroke-width:5;stroke-linecap:round"></path><path d="M-126.73871512966453,-56.32831783540726L-126.73871512966453,-140.82079458851712M-91.01637804383871,-56.32831783540726L-91.01637804383871,-140.82079458851712M-19.306917622030877,-56.32831783540726L-19.306917622030877,-140.82079458851712M25.068357680360393,-56.32831783540726L25.068357680360393,-140.82079458851712M84.7992144099927,-56.32831783540726L84.7992144099927,-140.82079458851712M103.22088646907399,-56.32831783540726L103.22088646907399,-140.82079458851712M159.50004528393367,-56.32831783540726L159.50004528393367,-140.82079458851712M211.23119188277468,-56.32831783540726L211.23119188277468,-140.82079458851712" style="fill:none;stroke:rgb(186,45,138);stroke-width:5;stroke-linecap:round"></path><path d="M-126.73871512966453,281.6415891770321L-126.73871512966453,281.6415891770321L211.23119188277482,-56.32831783540726zM211.23119188277482,-56.32831783540726L-126.73871512966453,-56.32831783540726L-126.73871512966453,281.6415891770321z" style="fill:rgb(0,0,0); fill-opacity: 0.2"></path><path d="M-126.73871512966453,281.6415891770321L-126.73871512966453,281.6415891770321M-126.73871512966453,281.6415891770321L211.23119188277482,-56.32831783540726M-126.73871512966453,-56.32831783540726L-126.73871512966453,281.6415891770321M211.23119188277482,-56.32831783540726L-126.73871512966453,-56.32831783540726" style="fill:none;stroke:rgb(0,0,0);stroke-width:1;stroke-linecap:round"></path><path d="M211.23119188277482,-56.32831783540726L211.23119188277482,-56.32831783540726" style="fill:none;stroke:rgb(0,86,91);stroke-width:5;stroke-linecap:round"></path><path d="M211.23119188277482,-56.32831783540726L295.7236686358847,-56.32831783540729" style="fill:none;stroke:rgb(41,170,178);stroke-width:5;stroke-linecap:round"></path><path d="M-126.73871512966453,-56.32831783540726L-126.73871512966453,281.6415891770321L211.23119188277482,-56.32831783540726zM211.23119188277482,-56.32831783540726L211.23119188277482,-56.32831783540726L-126.73871512966453,281.6415891770321z" style="fill:rgb(0,0,0); fill-opacity: 0.2"></path><path d="M-126.73871512966453,-56.32831783540726L211.23119188277482,-56.32831783540726M211.23119188277482,-56.32831783540726L-126.73871512966453,281.6415891770321M211.23119188277482,-56.32831783540726L211.23119188277482,-56.32831783540726M-126.73871512966453,281.6415891770321L-126.73871512966453,-56.32831783540726" style="fill:none;stroke:rgb(0,0,0);stroke-width:1;stroke-linecap:round"></path><path d="M386.61959885213014,-140.89204772355362L390.1854131561215,-140.79359733006535L380.2161453889945,-161.94391377679463zM370.1000124262278,-140.79359733006535L374.1974588550558,-140.89204772355362L380.2161453889945,-161.94391377679463zM374.1974588550558,-140.89204772355362L370.1000124262278,-140.79359733006535L380.2161453889945,-140.82079458851715zM390.1854131561215,-140.79359733006535L386.61959885213014,-140.89204772355362L380.2161453889945,-140.82079458851715zM339.49971811729824,-140.79359733006535L335.89846167165115,-140.89204772355362L329.5206593371286,-140.82079458851715zM319.41431738740454,-140.79359733006535L323.47632167457675,-140.89204772355362L329.5206593371286,-161.94391377679463zM323.47632167457675,-140.89204772355362L319.41431738740454,-140.79359733006535L329.5206593371286,-140.82079458851715zM335.89846167165115,-140.89204772355362L339.49971811729824,-140.79359733006535L329.5206593371286,-161.94391377679463zM288.814023078475,-140.79359733006535L285.1773244911721,-140.89204772355362L278.8251732852627,-140.82079458851715zM268.72862234858127,-140.79359733006535L272.7551844940977,-140.89204772355362L278.8251732852627,-161.94391377679463zM285.1773244911721,-140.89204772355362L288.814023078475,-140.79359733006535L278.8251732852627,-161.94391377679463zM272.7551844940977,-140.89204772355362L268.72862234858127,-140.79359733006535L278.8251732852627,-140.82079458851715zM234.45618731069305,-140.89204772355362L238.1283280396517,-140.79359733006535L228.12968723339677,-161.94391377679463zM238.1283280396517,-140.79359733006535L234.45618731069305,-140.89204772355362L228.12968723339677,-140.82079458851715zM218.04292730975803,-140.79359733006535L222.03404731361866,-140.89204772355362L228.12968723339677,-161.94391377679463zM222.03404731361866,-140.89204772355362L218.04292730975803,-140.79359733006535L228.12968723339677,-140.82079458851715zM183.735050130214,-140.89204772355362L187.44263300082844,-140.79359733006535L177.43420118153088,-161.94391377679463zM171.31291013313964,-140.89204772355362L167.35723227093476,-140.79359733006535L177.43420118153088,-140.82079458851715zM167.35723227093476,-140.79359733006535L171.31291013313964,-140.89204772355362L177.43420118153088,-161.94391377679463zM187.44263300082844,-140.79359733006535L183.735050130214,-140.89204772355362L177.43420118153088,-140.82079458851715zM116.6715372321115,-140.79359733006535L120.59177295266056,-140.89204772355362L126.73871512966498,-161.94391377679463zM136.75693796200517,-140.79359733006535L133.01391294973496,-140.89204772355362L126.73871512966498,-140.82079458851715zM120.59177295266056,-140.89204772355362L116.6715372321115,-140.79359733006535L126.73871512966498,-140.82079458851715zM133.01391294973496,-140.89204772355362L136.75693796200517,-140.79359733006535L126.73871512966498,-161.94391377679463zM82.29277576925595,-140.89204772355362L86.0712429231819,-140.79359733006535L76.04322907779903,-161.94391377679463zM86.0712429231819,-140.79359733006535L82.29277576925595,-140.89204772355362L76.04322907779903,-140.82079458851715zM69.87063577218153,-140.89204772355362L65.98584219328825,-140.79359733006535L76.04322907779903,-140.82079458851715zM65.98584219328825,-140.79359733006535L69.87063577218153,-140.89204772355362L76.04322907779903,-161.94391377679463zM15.300147154464918,-140.79359733006535L19.14949859170243,-140.89204772355362L25.347743025933106,-161.94391377679463zM31.571638588776846,-140.89204772355362L35.38554788435864,-140.79359733006535L25.347743025933106,-161.94391377679463zM35.38554788435864,-140.79359733006535L31.571638588776846,-140.89204772355362L25.347743025933106,-140.82079458851715zM19.14949859170243,-140.89204772355362L15.300147154464918,-140.79359733006535L25.347743025933106,-140.82079458851715zM-15.30014715446463,-140.79359733006535L-19.14949859170214,-140.89204772355362L-25.347743025932758,-140.82079458851715zM-35.38554788435829,-140.79359733006535L-31.57163858877656,-140.89204772355362L-25.347743025932758,-161.94391377679463zM-31.57163858877656,-140.89204772355362L-35.38554788435829,-140.79359733006535L-25.347743025932758,-140.82079458851715zM-19.14949859170214,-140.89204772355362L-15.30014715446463,-140.79359733006535L-25.347743025932758,-161.94391377679463zM-65.98584219328784,-140.79359733006535L-69.87063577218112,-140.89204772355362L-76.04322907779867,-140.82079458851715zM-69.87063577218112,-140.89204772355362L-65.98584219328784,-140.79359733006535L-76.04322907779867,-161.94391377679463zM-82.29277576925554,-140.89204772355362L-86.07124292318156,-140.79359733006535L-76.04322907779867,-140.82079458851715zM-86.07124292318156,-140.79359733006535L-82.29277576925554,-140.89204772355362L-76.04322907779867,-161.94391377679463zM-116.67153723211106,-140.79359733006535L-120.59177295266016,-140.89204772355362L-126.73871512966453,-140.82079458851715zM-136.75693796200477,-140.79359733006535L-133.01391294973453,-140.89204772355362L-126.73871512966453,-161.94391377679463zM-133.01391294973453,-140.89204772355362L-136.75693796200477,-140.79359733006535L-126.73871512966453,-140.82079458851715zM-120.59177295266016,-140.89204772355362L-116.67153723211106,-140.79359733006535L-126.73871512966453,-161.94391377679463z" style="fill:rgb(128,207,62)"></path><path d="M-116.67153723211106,-140.79359733006535L-120.59177295266016,-140.89204772355362L-126.73871512966453,-140.82079458851715zM-133.01391294973453,-140.89204772355362L-136.75693796200477,-140.79359733006535L-126.73871512966453,-140.82079458851715zM-120.59177295266016,-140.89204772355362L-116.67153723211106,-140.79359733006535L-126.73871512966453,-161.94391377679463zM-136.75693796200477,-140.79359733006535L-133.01391294973453,-140.89204772355362L-126.73871512966453,-161.94391377679463zM-80.956099337822,-140.79359733006535L-84.8513609190567,-140.89204772355362L-91.01637804383871,-140.82079458851715zM-97.27350091613107,-140.89204772355362L-101.0415000677157,-140.79359733006535L-91.01637804383871,-140.82079458851715zM-84.8513609190567,-140.89204772355362L-80.956099337822,-140.79359733006535L-91.01637804383871,-161.94391377679463zM-101.0415000677157,-140.79359733006535L-97.27350091613107,-140.89204772355362L-91.01637804383871,-161.94391377679463zM-29.345889168162188,-140.79359733006535L-25.52775662103763,-140.89204772355362L-19.306917622030877,-161.94391377679463zM-25.52775662103763,-140.89204772355362L-29.345889168162188,-140.79359733006535L-19.306917622030877,-140.82079458851715zM-13.10561662396321,-140.89204772355362L-9.260488438268528,-140.79359733006535L-19.306917622030877,-161.94391377679463zM-9.260488438268528,-140.79359733006535L-13.10561662396321,-140.89204772355362L-19.306917622030877,-140.82079458851715zM31.29211187855829,-140.89204772355362L35.10621649754588,-140.79359733006535L25.068357680360393,-161.94391377679463zM15.020815767652161,-140.79359733006535L18.86997188148387,-140.89204772355362L25.068357680360393,-161.94391377679463zM18.86997188148387,-140.89204772355362L15.020815767652161,-140.79359733006535L25.068357680360393,-140.82079458851715zM35.10621649754588,-140.79359733006535L31.29211187855829,-140.89204772355362L25.068357680360393,-140.82079458851715zM91.05319149404232,-140.89204772355362L94.825537178452,-140.79359733006535L84.7992144099927,-161.94391377679463zM78.63105149696791,-140.89204772355362L74.74013644855833,-140.79359733006535L84.7992144099927,-140.82079458851715zM74.74013644855833,-140.79359733006535L78.63105149696791,-140.89204772355362L84.7992144099927,-161.94391377679463zM94.825537178452,-140.79359733006535L91.05319149404232,-140.89204772355362L84.7992144099927,-140.82079458851715zM113.24365138957795,-140.79359733006535L109.48418463308677,-140.89204772355362L103.22088646907399,-140.82079458851715zM97.06204463601235,-140.89204772355362L93.15825065968423,-140.79359733006535L103.22088646907399,-140.82079458851715zM93.15825065968423,-140.79359733006535L97.06204463601235,-140.89204772355362L103.22088646907399,-161.94391377679463zM109.48418463308677,-140.89204772355362L113.24365138957795,-140.79359733006535L103.22088646907399,-161.94391377679463zM165.79181982826006,-140.89204772355362L169.5119407953265,-140.79359733006535L159.50004528393367,-161.94391377679463zM149.4265400654328,-140.79359733006535L153.36967983118564,-140.89204772355362L159.50004528393367,-161.94391377679463zM169.5119407953265,-140.79359733006535L165.79181982826006,-140.89204772355362L159.50004528393367,-140.82079458851715zM153.36967983118564,-140.89204772355362L149.4265400654328,-140.79359733006535L159.50004528393367,-140.82079458851715zM217.5491415838666,-140.89204772355362L221.23309636004382,-140.79359733006535L211.23119188277468,-161.94391377679463zM201.1476956301501,-140.79359733006535L205.12700158679218,-140.89204772355362L211.23119188277468,-161.94391377679463zM205.12700158679218,-140.89204772355362L201.1476956301501,-140.79359733006535L211.23119188277468,-140.82079458851715zM221.23309636004382,-140.79359733006535L217.5491415838666,-140.89204772355362L211.23119188277468,-140.82079458851715z" style="fill:rgb(186,45,138)"></path><path d="M295.66655439313587,-66.36013929697346L295.87330021946127,-62.56788908795909L316.84678782416216,-56.32831783540726zM295.87330021946127,-50.14574909088469L295.66655439313587,-46.27473856707971L316.84678782416216,-56.32831783540726zM295.87330021946127,-62.56788908795909L295.66655439313587,-66.36013929697346L295.7236686358847,-56.32831783540726zM295.66655439313587,-46.27473856707971L295.87330021946127,-50.14574909088469L295.7236686358847,-56.32831783540726z" style="fill:rgb(41,170,178)"></path><path d="M374.1974588550558,-140.89204772355362L386.61959885213014,-140.89204772355362L380.2161453889945,-161.94391377679463zM386.61959885213014,-140.89204772355362L374.1974588550558,-140.89204772355362L380.2161453889945,-140.82079458851715zM335.89846167165115,-140.89204772355362L323.47632167457675,-140.89204772355362L329.5206593371286,-140.82079458851715zM323.47632167457675,-140.89204772355362L335.89846167165115,-140.89204772355362L329.5206593371286,-161.94391377679463zM285.1773244911721,-140.89204772355362L272.7551844940977,-140.89204772355362L278.8251732852627,-140.82079458851715zM272.7551844940977,-140.89204772355362L285.1773244911721,-140.89204772355362L278.8251732852627,-161.94391377679463zM234.45618731069305,-140.89204772355362L222.03404731361866,-140.89204772355362L228.12968723339677,-140.82079458851715zM222.03404731361866,-140.89204772355362L234.45618731069305,-140.89204772355362L228.12968723339677,-161.94391377679463zM183.735050130214,-140.89204772355362L171.31291013313964,-140.89204772355362L177.43420118153088,-140.82079458851715zM171.31291013313964,-140.89204772355362L183.735050130214,-140.89204772355362L177.43420118153088,-161.94391377679463zM133.01391294973496,-140.89204772355362L120.59177295266056,-140.89204772355362L126.73871512966498,-140.82079458851715zM120.59177295266056,-140.89204772355362L133.01391294973496,-140.89204772355362L126.73871512966498,-161.94391377679463zM69.87063577218153,-140.89204772355362L82.29277576925595,-140.89204772355362L76.04322907779903,-161.94391377679463zM82.29277576925595,-140.89204772355362L69.87063577218153,-140.89204772355362L76.04322907779903,-140.82079458851715zM31.571638588776846,-140.89204772355362L19.14949859170243,-140.89204772355362L25.347743025933106,-140.82079458851715zM19.14949859170243,-140.89204772355362L31.571638588776846,-140.89204772355362L25.347743025933106,-161.94391377679463zM-19.14949859170214,-140.89204772355362L-31.57163858877656,-140.89204772355362L-25.347743025932758,-140.82079458851715zM-31.57163858877656,-140.89204772355362L-19.14949859170214,-140.89204772355362L-25.347743025932758,-161.94391377679463zM-82.29277576925554,-140.89204772355362L-69.87063577218112,-140.89204772355362L-76.04322907779867,-161.94391377679463zM-69.87063577218112,-140.89204772355362L-82.29277576925554,-140.89204772355362L-76.04322907779867,-140.82079458851715zM-133.01391294973453,-140.89204772355362L-120.59177295266016,-140.89204772355362L-126.73871512966453,-161.94391377679463zM-120.59177295266016,-140.89204772355362L-133.01391294973453,-140.89204772355362L-126.73871512966453,-140.82079458851715z" style="fill:rgb(128,207,62)"></path><path d="M-133.01391294973453,-140.89204772355362L-120.59177295266016,-140.89204772355362L-126.73871512966453,-161.94391377679463zM-120.59177295266016,-140.89204772355362L-133.01391294973453,-140.89204772355362L-126.73871512966453,-140.82079458851715zM-97.27350091613107,-140.89204772355362L-84.8513609190567,-140.89204772355362L-91.01637804383871,-161.94391377679463zM-84.8513609190567,-140.89204772355362L-97.27350091613107,-140.89204772355362L-91.01637804383871,-140.82079458851715zM-25.52775662103763,-140.89204772355362L-13.10561662396321,-140.89204772355362L-19.306917622030877,-161.94391377679463zM-13.10561662396321,-140.89204772355362L-25.52775662103763,-140.89204772355362L-19.306917622030877,-140.82079458851715zM18.86997188148387,-140.89204772355362L31.29211187855829,-140.89204772355362L25.068357680360393,-161.94391377679463zM31.29211187855829,-140.89204772355362L18.86997188148387,-140.89204772355362L25.068357680360393,-140.82079458851715zM78.63105149696791,-140.89204772355362L91.05319149404232,-140.89204772355362L84.7992144099927,-161.94391377679463zM91.05319149404232,-140.89204772355362L78.63105149696791,-140.89204772355362L84.7992144099927,-140.82079458851715zM109.48418463308677,-140.89204772355362L97.06204463601235,-140.89204772355362L103.22088646907399,-140.82079458851715zM97.06204463601235,-140.89204772355362L109.48418463308677,-140.89204772355362L103.22088646907399,-161.94391377679463zM165.79181982826006,-140.89204772355362L153.36967983118564,-140.89204772355362L159.50004528393367,-140.82079458851715zM153.36967983118564,-140.89204772355362L165.79181982826006,-140.89204772355362L159.50004528393367,-161.94391377679463zM205.12700158679218,-140.89204772355362L217.5491415838666,-140.89204772355362L211.23119188277468,-161.94391377679463zM217.5491415838666,-140.89204772355362L205.12700158679218,-140.89204772355362L211.23119188277468,-140.82079458851715z" style="fill:rgb(186,45,138)"></path><path d="M295.87330021946127,-50.14574909088469L295.87330021946127,-62.56788908795909L295.7236686358847,-56.32831783540726zM295.87330021946127,-62.56788908795909L295.87330021946127,-50.14574909088469L316.84678782416216,-56.32831783540726z" style="fill:rgb(41,170,178)"></path></svg>