<svg viewBox="-812 -590 1624 1180" width="1624" height="1180" style="background-color: rgb(255, 255, 255);"><path d="M2.306825030485025e-13,239.24579469064574L2.3078212567291776e-13,249.3918158260559L2.3082670611717804e-13,239.39535080047713zM2.3078212567291776e-13,229.3064150961622L2.306825030485025e-13,239.24579469064574L2.3082670611717804e-13,239.39535080047713zM2.3078212567291776e-13,180.02865603063964L2.306825030485025e-13,189.98930754845387L2.3082670611717804e-13,190.10807269449643zM2.306825030485025e-13,189.98930754845387L2.3078212567291776e-13,200.11405676053334L2.3082670611717804e-13,190.10807269449643zM2.3078212567291776e-13,130.75089696511708L2.306825030485025e-13,140.73282040626196L2.3082670611717804e-13,140.82079458851572zM2.306825030485025e-13,140.73282040626196L2.3078212567291776e-13,150.83629769501076L2.3082670611717804e-13,140.82079458851572zM2.3078212567291776e-13,81.47313789959446L2.306825030485025e-13,91.47633326407009L2.3082670611717804e-13,91.53351648253505zM2.306825030485025e-13,91.47633326407009L2.3078212567291776e-13,101.5585386294882L2.3082670611717804e-13,91.53351648253505zM2.3078212567291776e-13,32.1953788340719L2.306825030485025e-13,42.21984612187814L2.3082670611717804e-13,42.246238376554274zM2.306825030485025e-13,42.21984612187814L2.3078212567291776e-13,52.28077956396556L2.3082670611717804e-13,42.246238376554274zM2.3078212567291776e-13,-17.08238023145073L2.306825030485025e-13,-7.036641020313723L2.3082670611717804e-13,-7.041039729426411zM2.306825030485025e-13,-7.036641020313723L2.3078212567291776e-13,3.0030204984430084L2.3082670611717804e-13,-7.041039729426411zM2.3078212567291776e-13,-66.36013929697329L2.306825030485025e-13,-56.293128162505674L2.3082670611717804e-13,-56.328317835407184zM2.306825030485025e-13,-56.293128162505674L2.3078212567291776e-13,-46.274738567079545L2.3082670611717804e-13,-56.328317835407184z" style="fill:rgb(41,170,178)"></path><path d="M-464.70862214210393,-56.32831783540726L380.2161453889945,-56.32831783540726L380.2161453889945,535.1190194363617zM-464.70862214210393,535.1190194363617L380.2161453889945,535.1190194363617L-464.70862214210393,-56.32831783540726z" style="fill:rgb(0,0,0); fill-opacity: 0.2"></path><path d="M380.2161453889945,-56.32831783540726L380.2161453889945,535.1190194363617M380.2161453889945,535.1190194363617L-464.70862214210393,535.1190194363617M-464.70862214210393,-56.32831783540726L380.2161453889945,-56.32831783540726M-464.70862214210393,535.1190194363617L-464.70862214210393,-56.32831783540726" style="fill:none;stroke:rgb(0,0,0);stroke-width:1;stroke-linecap:round"></path><path d="M-464.70862214210393,-56.32831783540726L380.2161453889945,-56.32831783540726L-126.73871512966453,281.6415891770321zM-126.73871512966453,281.6415891770321L380.2161453889945,281.6415891770321L380.2161453889945,-56.32831783540726z" style="fill:rgb(0,0,0); fill-opacity: 0.2"></path><path d="M-464.70862214210393,-56.32831783540726L-126.73871512966453,281.6415891770321M380.2161453889945,-56.32831783540726L-464.70862214210393,-56.32831783540726M380.2161453889945,281.6415891770321L380.2161453889945,-56.32831783540726M-126.73871512966453,281.6415891770321L380.2161453889945,281.6415891770321" style="fill:none;stroke:rgb(0,0,0);stroke-width:1;stroke-linecap:round"></path><path d="M-464.70862214210393,-56.32831783540726L-464.70862214210393,-56.32831783540726L-126.73871512966453,-56.32831783540726zM-126.73871512966453,-56.32831783540726L-126.73871512966453,281.6415891770321L-464.70862214210393,-56.32831783540726z" style="fill:rgb(0,0,0); fill-opacity: 0.2"></path><path d="M-126.73871512966453,-56.32831783540726L-126.73871512966453,281.6415891770321M-464.70862214210393,-56.32831783540726L-126.73871512966453,-56.32831783540726M-464.70862214210393,-56.32831783540726L-464.70862214210393,-56.32831783540726M-126.73871512966453,281.6415891770321L-464.70862214210393,-56.32831783540726" style="fill:none;stroke:rgb(0,0,0);stroke-width:1;stroke-linecap:round"></path><path d="M-126.73871512966453,239.39535080047716L380.2161453889945,239.39535080047716" style="fill:none;stroke:rgb(58,110,14);stroke-width:5;stroke-linecap:round"></path><path d="M380.2161453889945,239.39535080047716L380.2161453889945,154.90287404736733M329.5206593371286,239.39535080047716L329.5206593371286,154.90287404736733M278.8251732852627,239.39535080047716L278.8251732852627,154.90287404736733M228.12968723339677,239.39535080047716L228.12968723339677,154.90287404736733M177.43420118153088,239.39535080047716L177.43420118153088,154.90287404736733M126.73871512966498,239.39535080047716L126.73871512966498,154.90287404736733M76.04322907779903,239.39535080047716L76.04322907779903,154.90287404736733M25.347743025933106,239.39535080047716L25.347743025933106,154.90287404736733M-25.347743025932758,239.39535080047716L-25.347743025932758,154.90287404736733M-76.04322907779867,239.39535080047716L-76.04322907779867,154.90287404736733M-126.73871512966453,239.39535080047716L-126.73871512966453,154.90287404736733" style="fill:none;stroke:rgb(128,207,62);stroke-width:5;stroke-linecap:round"></path><path d="M-126.73871512966453,239.39535080047716L380.2161453889945,239.39535080047716L380.2161453889945,281.6415891770321zM-126.73871512966453,281.6415891770321L380.2161453889945,281.6415891770321L-126.73871512966453,239.39535080047716z" style="fill:rgb(0,0,0); fill-opacity: 0.2"></path><path d="M-126.73871512966453,239.39535080047716L380.2161453889945,239.39535080047716M-126.73871512966453,281.6415891770321L-126.73871512966453,239.39535080047716M380.2161453889945,281.6415891770321L-126.73871512966453,281.6415891770321M380.2161453889945,239.39535080047716L380.2161453889945,281.6415891770321" style="fill:none;stroke:rgb(0,0,0);stroke-width:1;stroke-linecap:round"></path><path d="M-84.49247675310961,239.39535080047716L-126.73871512966453,239.39535080047716" style="fill:none;stroke:rgb(97,2,64);stroke-width:5;stroke-linecap:round"></path><path d="M-105.6155959413871,239.39535080047716L-105.6155959413871,154.90287404736733" style="fill:none;stroke:rgb(186,45,138);stroke-width:5;stroke-linecap:round"></path><path d="M-126.73871512966453,281.6415891770321L-126.73871512966453,281.6415891770321L-84.49247675310961,239.39535080047716zM-84.49247675310961,239.39535080047716L-126.73871512966453,239.39535080047716L-126.73871512966453,281.6415891770321z" style="fill:rgb(0,0,0); fill-opacity: 0.2"></path><path d="M-126.73871512966453,281.6415891770321L-126.73871512966453,281.6415891770321M-126.73871512966453,239.39535080047716L-126.73871512966453,281.6415891770321M-84.49247675310961,239.39535080047716L-126.73871512966453,239.39535080047716M-126.73871512966453,281.6415891770321L-84.49247675310961,239.39535080047716" style="fill:none;stroke:rgb(0,0,0);stroke-width:1;stroke-linecap:round"></path><path d="M-84.49247675310961,-56.32831783540726L-84.49247675310961,239.39535080047716" style="fill:none;stroke:rgb(0,86,91);stroke-width:5;stroke-linecap:round"></path><path d="M-84.49247675310961,239.39535080047716L2.3082670611717804e-13,239.39535080047716M-84.49247675310961,190.10807269449643L2.3082670611717804e-13,190.10807269449643M-84.49247675310961,140.82079458851572L2.3082670611717804e-13,140.82079458851572M-84.49247675310961,91.53351648253505L2.3082670611717804e-13,91.53351648253503M-84.49247675310961,42.246238376554274L2.3082670611717804e-13,42.24623837655426M-84.49247675310961,-7.041039729426411L2.3082670611717804e-13,-7.04103972942643M-84.49247675310961,-56.328317835407184L2.3082670611717804e-13,-56.3283178354072" style="fill:none;stroke:rgb(41,170,178);stroke-width:5;stroke-linecap:round"></path><path d="M-84.49247675310961,-56.32831783540726L-84.49247675310961,239.39535080047716L-126.73871512966453,281.6415891770321zM-126.73871512966453,-56.32831783540726L-126.73871512966453,281.6415891770321L-84.49247675310961,-56.32831783540726z" style="fill:rgb(0,0,0); fill-opacity: 0.2"></path><path d="M-84.49247675310961,239.39535080047716L-126.73871512966453,281.6415891770321M-126.73871512966453,281.6415891770321L-126.73871512966453,-56.32831783540726M-126.73871512966453,-56.32831783540726L-84.49247675310961,-56.32831783540726M-84.49247675310961,-56.32831783540726L-84.49247675310961,239.39535080047716" style="fill:none;stroke:rgb(0,0,0);stroke-width:1;stroke-linecap:round"></path><path d="M370.1000124262278,154.87295706307032L374.1974588550558,154.9812524959074L380.2161453889945,133.77975485908982zM386.61959885213014,154.9812524959074L390.1854131561215,154.87295706307032L380.2161453889945,133.77975485908982zM335.89846167165115,154.9812524959074L339.49971811729824,154.87295706307032L329.5206593371286,133.77975485908982zM319.41431738740454,154.87295706307032L323.47632167457675,154.9812524959074L329.5206593371286,133.77975485908982zM268.72862234858127,154.87295706307032L272.7551844940977,154.9812524959074L278.8251732852627,133.77975485908982zM285.1773244911721,154.9812524959074L288.814023078475,154.87295706307032L278.8251732852627,133.77975485908982zM234.45618731069305,154.9812524959074L238.1283280396517,154.87295706307032L228.12968723339677,133.77975485908982zM218.04292730975803,154.87295706307032L222.03404731361866,154.9812524959074L228.12968723339677,133.77975485908982zM183.735050130214,154.9812524959074L187.44263300082844,154.87295706307032L177.43420118153088,133.77975485908982zM167.35723227093476,154.87295706307032L171.31291013313964,154.9812524959074L177.43420118153088,133.77975485908982zM133.01391294973496,154.9812524959074L136.75693796200517,154.87295706307032L126.73871512966498,133.77975485908982zM116.6715372321115,154.87295706307032L120.59177295266056,154.9812524959074L126.73871512966498,133.77975485908982zM82.29277576925595,154.9812524959074L86.0712429231819,154.87295706307032L76.04322907779903,133.77975485908982zM65.98584219328825,154.87295706307032L69.87063577218153,154.9812524959074L76.04322907779903,133.77975485908982zM15.300147154464918,154.87295706307032L19.14949859170243,154.9812524959074L25.347743025933106,133.77975485908982zM31.571638588776846,154.9812524959074L35.38554788435864,154.87295706307032L25.347743025933106,133.77975485908982zM-19.14949859170214,154.9812524959074L-15.30014715446463,154.87295706307032L-25.347743025932758,133.77975485908982zM-35.38554788435829,154.87295706307032L-31.57163858877656,154.9812524959074L-25.347743025932758,133.77975485908982zM-69.87063577218112,154.9812524959074L-65.98584219328784,154.87295706307032L-76.04322907779867,133.77975485908982zM-86.07124292318156,154.87295706307032L-82.29277576925554,154.9812524959074L-76.04322907779867,133.77975485908982zM-120.59177295266016,154.9812524959074L-116.67153723211106,154.87295706307032L-126.73871512966453,133.77975485908982zM-136.75693796200477,154.87295706307032L-133.01391294973453,154.9812524959074L-126.73871512966453,133.77975485908982z" style="fill:rgb(128,207,62)"></path><path d="M-99.4579657941272,154.9812524959074L-95.55249763260139,154.87295706307032L-105.6155959413871,133.77975485908982zM-115.63789836249505,154.87295706307032L-111.88010579120163,154.9812524959074L-105.6155959413871,133.77975485908982z" style="fill:rgb(186,45,138)"></path><path d="M2.3078212567291776e-13,229.3064150961622L2.309435008456061e-13,233.3054111315019L21.123119188277723,239.39535080047713zM2.3078212567291776e-13,249.3918158260559L2.309435008456061e-13,245.72755112857632L2.3082670611717804e-13,239.39535080047713zM2.309435008456061e-13,233.3054111315019L2.3078212567291776e-13,229.3064150961622L2.3082670611717804e-13,239.39535080047713zM2.309435008456061e-13,245.72755112857632L2.3078212567291776e-13,249.3918158260559L21.123119188277723,239.39535080047713zM2.3078212567291776e-13,200.11405676053334L2.309435008456061e-13,196.41533442533287L2.3082670611717804e-13,190.10807269449643zM2.3078212567291776e-13,180.02865603063964L2.309435008456061e-13,183.9931944282585L21.123119188277723,190.10807269449643zM2.309435008456061e-13,183.9931944282585L2.3078212567291776e-13,180.02865603063964L2.3082670611717804e-13,190.10807269449643zM2.309435008456061e-13,196.41533442533287L2.3078212567291776e-13,200.11405676053334L21.123119188277723,190.10807269449643zM2.309435008456061e-13,134.68097772501494L2.3078212567291776e-13,130.75089696511708L2.3082670611717804e-13,140.82079458851572zM2.3078212567291776e-13,130.75089696511708L2.309435008456061e-13,134.68097772501494L21.123119188277723,140.82079458851572zM2.3078212567291776e-13,150.83629769501076L2.309435008456061e-13,147.10311772208942L2.3082670611717804e-13,140.82079458851572zM2.309435008456061e-13,147.10311772208942L2.3078212567291776e-13,150.83629769501076L21.123119188277723,140.82079458851572zM2.309435008456061e-13,97.7909010188459L2.3078212567291776e-13,101.5585386294882L21.123119188277723,91.53351648253505zM2.309435008456061e-13,85.3687610217715L2.3078212567291776e-13,81.47313789959446L2.3082670611717804e-13,91.53351648253505zM2.3078212567291776e-13,81.47313789959446L2.309435008456061e-13,85.3687610217715L21.123119188277723,91.53351648253505zM2.3078212567291776e-13,101.5585386294882L2.309435008456061e-13,97.7909010188459L2.3082670611717804e-13,91.53351648253505zM2.309435008456061e-13,48.47868431560245L2.3078212567291776e-13,52.28077956396556L21.123119188277723,42.246238376554274zM2.3078212567291776e-13,52.28077956396556L2.309435008456061e-13,48.47868431560245L2.3082670611717804e-13,42.246238376554274zM2.3078212567291776e-13,32.1953788340719L2.309435008456061e-13,36.05654431852806L21.123119188277723,42.246238376554274zM2.309435008456061e-13,36.05654431852806L2.3078212567291776e-13,32.1953788340719L2.3082670611717804e-13,42.246238376554274zM2.3078212567291776e-13,-17.08238023145073L2.309435008456061e-13,-13.255672384715472L21.123119188277723,-7.041039729426411zM2.3078212567291776e-13,3.0030204984430084L2.309435008456061e-13,-0.8335323876410818L2.3082670611717804e-13,-7.041039729426411zM2.309435008456061e-13,-0.8335323876410818L2.3078212567291776e-13,3.0030204984430084L21.123119188277723,-7.041039729426411zM2.309435008456061e-13,-13.255672384715472L2.3078212567291776e-13,-17.08238023145073L2.3082670611717804e-13,-7.041039729426411zM2.3078212567291776e-13,-46.274738567079545L2.309435008456061e-13,-50.14574909088453L2.3082670611717804e-13,-56.328317835407184zM2.309435008456061e-13,-62.567889087958925L2.3078212567291776e-13,-66.36013929697329L2.3082670611717804e-13,-56.328317835407184zM2.309435008456061e-13,-50.14574909088453L2.3078212567291776e-13,-46.274738567079545L21.123119188277723,-56.328317835407184zM2.3078212567291776e-13,-66.36013929697329L2.309435008456061e-13,-62.567889087958925L21.123119188277723,-56.328317835407184z" style="fill:rgb(41,170,178)"></path><path d="M374.1974588550558,154.9812524959074L386.61959885213014,154.9812524959074L380.2161453889945,133.77975485908982zM323.47632167457675,154.9812524959074L335.89846167165115,154.9812524959074L329.5206593371286,133.77975485908982zM272.7551844940977,154.9812524959074L285.1773244911721,154.9812524959074L278.8251732852627,133.77975485908982zM222.03404731361866,154.9812524959074L234.45618731069305,154.9812524959074L228.12968723339677,133.77975485908982zM171.31291013313964,154.9812524959074L183.735050130214,154.9812524959074L177.43420118153088,133.77975485908982zM120.59177295266056,154.9812524959074L133.01391294973496,154.9812524959074L126.73871512966498,133.77975485908982zM69.87063577218153,154.9812524959074L82.29277576925595,154.9812524959074L76.04322907779903,133.77975485908982zM19.14949859170243,154.9812524959074L31.571638588776846,154.9812524959074L25.347743025933106,133.77975485908982zM-31.57163858877656,154.9812524959074L-19.14949859170214,154.9812524959074L-25.347743025932758,133.77975485908982zM-82.29277576925554,154.9812524959074L-69.87063577218112,154.9812524959074L-76.04322907779867,133.77975485908982zM-133.01391294973453,154.9812524959074L-120.59177295266016,154.9812524959074L-126.73871512966453,133.77975485908982z" style="fill:rgb(128,207,62)"></path><path d="M-111.88010579120163,154.9812524959074L-99.4579657941272,154.9812524959074L-105.6155959413871,133.77975485908982z" style="fill:rgb(186,45,138)"></path><path d="M2.309435008456061e-13,233.3054111315019L2.309435008456061e-13,245.72755112857632L21.123119188277723,239.39535080047713zM2.309435008456061e-13,245.72755112857632L2.309435008456061e-13,233.3054111315019L2.3082670611717804e-13,239.39535080047713zM2.309435008456061e-13,183.9931944282585L2.309435008456061e-13,196.41533442533287L21.123119188277723,190.10807269449643zM2.309435008456061e-13,196.41533442533287L2.309435008456061e-13,183.9931944282585L2.3082670611717804e-13,190.10807269449643zM2.309435008456061e-13,147.10311772208942L2.309435008456061e-13,134.68097772501494L2.3082670611717804e-13,140.82079458851572zM2.309435008456061e-13,134.68097772501494L2.309435008456061e-13,147.10311772208942L21.123119188277723,140.82079458851572zM2.309435008456061e-13,97.7909010188459L2.309435008456061e-13,85.3687610217715L2.3082670611717804e-13,91.53351648253505zM2.309435008456061e-13,85.3687610217715L2.309435008456061e-13,97.7909010188459L21.123119188277723,91.53351648253505zM2.309435008456061e-13,36.05654431852806L2.309435008456061e-13,48.47868431560245L21.123119188277723,42.246238376554274zM2.309435008456061e-13,48.47868431560245L2.309435008456061e-13,36.05654431852806L2.3082670611717804e-13,42.246238376554274zM2.309435008456061e-13,-0.8335323876410818L2.309435008456061e-13,-13.255672384715472L2.3082670611717804e-13,-7.041039729426411zM2.309435008456061e-13,-13.255672384715472L2.309435008456061e-13,-0.8335323876410818L21.123119188277723,-7.041039729426411zM2.309435008456061e-13,-62.567889087958925L2.309435008456061e-13,-50.14574909088453L21.123119188277723,-56.328317835407184zM2.309435008456061e-13,-50.14574909088453L2.309435008456061e-13,-62.567889087958925L2.3082670611717804e-13,-56.328317835407184z" style="fill:rgb(41,170,178)"></path></svg>