<svg viewBox="-812 -590 1624 1180" width="1624" height="1180" style="background-color: rgb(255, 255, 255);"><path d="M386.2287473565003,61.92982993407864L373.8191654708388,61.92982993407864L380.2161453889945,61.961149618946415zM338.5394665516477,61.92982993407864L326.1298846659861,61.92982993407864L332.50274675194424,61.961149618946415zM290.8501857467951,61.92982993407864L278.4406038611335,61.92982993407864L284.789348114894,61.961149618946415zM243.16090494194245,61.92982993407864L230.75132305628088,61.92982993407864L237.07594947784372,61.961149618946415zM195.4716241370898,61.92982993407864L183.06204225142824,61.92982993407864L189.36255084079343,61.961149618946415zM147.78234333223716,61.92982993407864L135.37276144657562,61.92982993407864L141.64915220374314,61.961149618946415zM100.09306252738455,61.92982993407864L87.68348064172298,61.92982993407864L93.93575356669285,61.961149618946415zM52.403781722531875,61.92982993407864L39.99419983687037,61.92982993407864L46.22235492964259,61.961149618946415zM4.714500917679267,61.92982993407864L-7.695080967982235,61.92982993407864L-1.49104370740766,61.961149618946415zM-42.97477988717334,61.92982993407864L-55.38436177283484,61.92982993407864L-49.20444234445791,61.961149618946415zM-90.66406069202588,61.92982993407864L-103.07364257768745,61.92982993407864L-96.91784098150816,61.961149618946415zM-138.3533414968785,61.92982993407864L-150.76292338254004,61.92982993407864L-144.6312396185584,61.961149618946415zM-186.04262230173111,61.92982993407864L-198.45220418739262,61.92982993407864L-192.3446382556086,61.961149618946415zM-233.7319031065838,61.92982993407864L-246.14148499224524,61.92982993407864L-240.0580368926589,61.961149618946415zM-281.42118391143634,61.92982993407864L-293.83076579709785,61.92982993407864L-287.77143552970915,61.961149618946415zM-329.11046471628896,61.92982993407864L-341.52004660195047,61.92982993407864L-335.4848341667594,61.961149618946415zM-376.79974552114163,61.92982993407864L-389.20932740680314,61.92982993407864L-383.19823280380973,61.961149618946415zM-424.4890263259942,61.92982993407864L-436.89860821165564,61.92982993407864L-430.9116314408599,61.961149618946415zM390.33618739657004,61.97312103683664L386.2287473565003,61.92982993407864L380.2161453889945,61.961149618946415zM373.8191654708388,61.92982993407864L370.24302532825357,61.97312103683664L380.2161453889945,61.961149618946415zM342.6135701275615,61.97312103683664L338.5394665516477,61.92982993407864L332.50274675194424,61.961149618946415zM326.1298846659861,61.92982993407864L322.520408059245,61.97312103683664L332.50274675194424,61.961149618946415zM278.4406038611335,61.92982993407864L274.79779079023655,61.97312103683664L284.789348114894,61.961149618946415zM294.890952858553,61.97312103683664L290.8501857467951,61.92982993407864L284.789348114894,61.961149618946415zM247.1683355895445,61.97312103683664L243.16090494194245,61.92982993407864L237.07594947784372,61.961149618946415zM230.75132305628088,61.92982993407864L227.07517352122798,61.97312103683664L237.07594947784372,61.961149618946415zM199.44571832053597,61.97312103683664L195.4716241370898,61.92982993407864L189.36255084079343,61.961149618946415zM183.06204225142824,61.92982993407864L179.35255625221944,61.97312103683664L189.36255084079343,61.961149618946415zM151.72310105152746,61.97312103683664L147.78234333223716,61.92982993407864L141.64915220374314,61.961149618946415zM135.37276144657562,61.92982993407864L131.62993898321093,61.97312103683664L141.64915220374314,61.961149618946415zM87.68348064172298,61.92982993407864L83.90732171420242,61.97312103683664L93.93575356669285,61.961149618946415zM104.0004837825189,61.97312103683664L100.09306252738455,61.92982993407864L93.93575356669285,61.961149618946415zM39.99419983687037,61.92982993407864L36.18470444519387,61.97312103683664L46.22235492964259,61.961149618946415zM56.27786651351042,61.97312103683664L52.403781722531875,61.92982993407864L46.22235492964259,61.961149618946415zM8.555249244501917,61.97312103683664L4.714500917679267,61.92982993407864L-1.49104370740766,61.961149618946415zM-7.695080967982235,61.92982993407864L-11.537912823814626,61.97312103683664L-1.49104370740766,61.961149618946415zM-39.16736802450658,61.97312103683664L-42.97477988717334,61.92982993407864L-49.20444234445791,61.961149618946415zM-55.38436177283484,61.92982993407864L-59.26053009282312,61.97312103683664L-49.20444234445791,61.961149618946415zM-86.88998529351508,61.97312103683664L-90.66406069202588,61.92982993407864L-96.91784098150816,61.961149618946415zM-103.07364257768745,61.92982993407864L-106.98314736183163,61.97312103683664L-96.91784098150816,61.961149618946415zM-150.76292338254004,61.92982993407864L-154.70576463084006,61.97312103683664L-144.6312396185584,61.961149618946415zM-134.6126025625236,61.97312103683664L-138.3533414968785,61.92982993407864L-144.6312396185584,61.961149618946415zM-198.45220418739262,61.92982993407864L-202.42838189984863,61.97312103683664L-192.3446382556086,61.961149618946415zM-182.33521983153207,61.97312103683664L-186.04262230173111,61.92982993407864L-192.3446382556086,61.961149618946415zM-230.0578371005405,61.97312103683664L-233.7319031065838,61.92982993407864L-240.0580368926589,61.961149618946415zM-246.14148499224524,61.92982993407864L-250.15099916885708,61.97312103683664L-240.0580368926589,61.961149618946415zM-277.7804543695491,61.97312103683664L-281.42118391143634,61.92982993407864L-287.77143552970915,61.961149618946415zM-293.83076579709785,61.92982993407864L-297.87361643786556,61.97312103683664L-287.77143552970915,61.961149618946415zM-341.52004660195047,61.92982993407864L-345.59623370687416,61.97312103683664L-335.4848341667594,61.961149618946415zM-325.5030716385576,61.97312103683664L-329.11046471628896,61.92982993407864L-335.4848341667594,61.961149618946415zM-373.22568890756605,61.97312103683664L-376.79974552114163,61.92982993407864L-383.19823280380973,61.961149618946415zM-389.20932740680314,61.92982993407864L-393.3188509758826,61.97312103683664L-383.19823280380973,61.961149618946415zM-436.89860821165564,61.92982993407864L-441.0414682448911,61.97312103683664L-430.9116314408599,61.961149618946415zM-420.9483061765746,61.97312103683664L-424.4890263259942,61.92982993407864L-430.9116314408599,61.961149618946415z" style="fill:rgb(128,207,62)"></path><path d="M-464.70862214210393,535.1190194363617L380.2161453889945,535.1190194363617L-464.70862214210393,-56.32831783540726zM-464.70862214210393,-56.32831783540726L380.2161453889945,-56.32831783540726L380.2161453889945,535.1190194363617z" style="fill:rgb(0,0,0); fill-opacity: 0.2"></path><path d="M380.2161453889945,535.1190194363617L-464.70862214210393,535.1190194363617M-464.70862214210393,535.1190194363617L-464.70862214210393,-56.32831783540726M380.2161453889945,-56.32831783540726L380.2161453889945,535.1190194363617M-464.70862214210393,-56.32831783540726L380.2161453889945,-56.32831783540726" style="fill:none;stroke:rgb(0,0,0);stroke-width:1;stroke-linecap:round"></path><path d="M-430.91163144086005,-22.53132713416339L380.2161453889945,-22.53132713416339" style="fill:none;stroke:rgb(58,110,14);stroke-width:5;stroke-linecap:round"></path><path d="M380.2161453889945,-22.53132713416339L380.2161453889945,61.96114961894646M332.50274675194424,-22.53132713416339L332.50274675194424,61.96114961894646M284.789348114894,-22.53132713416339L284.789348114894,61.96114961894646M237.07594947784372,-22.53132713416339L237.07594947784372,61.96114961894646M189.36255084079343,-22.53132713416339L189.36255084079343,61.96114961894646M141.64915220374314,-22.53132713416339L141.64915220374314,61.96114961894646M93.93575356669285,-22.53132713416339L93.93575356669285,61.96114961894646M46.22235492964259,-22.53132713416339L46.22235492964259,61.96114961894646M-1.49104370740766,-22.53132713416339L-1.49104370740766,61.96114961894646M-49.20444234445791,-22.53132713416339L-49.20444234445791,61.96114961894646M-96.91784098150816,-22.53132713416339L-96.91784098150816,61.96114961894646M-144.6312396185584,-22.53132713416339L-144.6312396185584,61.96114961894646M-192.3446382556086,-22.53132713416339L-192.3446382556086,61.96114961894646M-240.0580368926589,-22.53132713416339L-240.0580368926589,61.96114961894646M-287.77143552970915,-22.53132713416339L-287.77143552970915,61.96114961894646M-335.4848341667594,-22.53132713416339L-335.4848341667594,61.96114961894646M-383.19823280380973,-22.53132713416339L-383.19823280380973,61.96114961894646M-430.9116314408599,-22.53132713416339L-430.9116314408599,61.96114961894646" style="fill:none;stroke:rgb(128,207,62);stroke-width:5;stroke-linecap:round"></path><path d="M-464.70862214210393,-56.32831783540726L380.2161453889945,-56.32831783540726L-430.91163144086005,-22.53132713416339zM-430.91163144086005,-22.53132713416339L380.2161453889945,-22.53132713416339L380.2161453889945,-56.32831783540726z" style="fill:rgb(0,0,0); fill-opacity: 0.2"></path><path d="M-464.70862214210393,-56.32831783540726L-430.91163144086005,-22.53132713416339M380.2161453889945,-56.32831783540726L-464.70862214210393,-56.32831783540726M380.2161453889945,-22.53132713416339L380.2161453889945,-56.32831783540726M-430.91163144086005,-22.53132713416339L380.2161453889945,-22.53132713416339" style="fill:none;stroke:rgb(0,0,0);stroke-width:1;stroke-linecap:round"></path><path d="M-430.91163144086005,-56.32831783540726L-430.91163144086005,-22.53132713416339" style="fill:none;stroke:rgb(97,2,64);stroke-width:5;stroke-linecap:round"></path><path d="M-430.91163144086005,-39.429822484785376L-346.41915468775017,-39.42982248478539" style="fill:none;stroke:rgb(186,45,138);stroke-width:5;stroke-linecap:round"></path><path d="M-430.91163144086005,-56.32831783540726L-430.91163144086005,-22.53132713416339L-464.70862214210393,-56.32831783540726zM-464.70862214210393,-56.32831783540726L-464.70862214210393,-56.32831783540726L-430.91163144086005,-56.32831783540726z" style="fill:rgb(0,0,0); fill-opacity: 0.2"></path><path d="M-430.91163144086005,-56.32831783540726L-430.91163144086005,-22.53132713416339M-430.91163144086005,-22.53132713416339L-464.70862214210393,-56.32831783540726M-464.70862214210393,-56.32831783540726L-464.70862214210393,-56.32831783540726M-464.70862214210393,-56.32831783540726L-430.91163144086005,-56.32831783540726" style="fill:none;stroke:rgb(0,0,0);stroke-width:1;stroke-linecap:round"></path><path d="M-346.59443739993986,-33.23870336405842L-346.35224943195874,-29.379506887472033L-325.2960354994728,-39.429822484785376zM-346.35224943195874,-49.464907617365775L-346.59443739993986,-45.66084336113282L-325.2960354994728,-39.429822484785376z" style="fill:rgb(186,45,138)"></path><path d="M380.4539728342818,61.99990668410434L390.33618739657004,61.97312103683664L380.2161453889945,61.961149618946415zM370.24302532825357,61.97312103683664L380.4539728342818,61.99990668410434L380.2161453889945,61.961149618946415zM390.33618739657004,61.97312103683664L380.4539728342818,61.99990668410434L380.2161453889945,83.08426880722389zM380.4539728342818,61.99990668410434L370.24302532825357,61.97312103683664L380.2161453889945,83.08426880722389zM332.7107291844896,61.99990668410434L322.520408059245,61.97312103683664L332.50274675194424,83.08426880722389zM342.6135701275615,61.97312103683664L332.7107291844896,61.99990668410434L332.50274675194424,83.08426880722389zM322.520408059245,61.97312103683664L332.7107291844896,61.99990668410434L332.50274675194424,61.961149618946415zM332.7107291844896,61.99990668410434L342.6135701275615,61.97312103683664L332.50274675194424,61.961149618946415zM274.79779079023655,61.97312103683664L284.96748553469735,61.99990668410434L284.789348114894,61.961149618946415zM284.96748553469735,61.99990668410434L274.79779079023655,61.97312103683664L284.789348114894,83.08426880722389zM284.96748553469735,61.99990668410434L294.890952858553,61.97312103683664L284.789348114894,61.961149618946415zM294.890952858553,61.97312103683664L284.96748553469735,61.99990668410434L284.789348114894,83.08426880722389zM227.07517352122798,61.97312103683664L237.22424188490518,61.99990668410434L237.07594947784372,61.961149618946415zM237.22424188490518,61.99990668410434L247.1683355895445,61.97312103683664L237.07594947784372,61.961149618946415zM237.22424188490518,61.99990668410434L227.07517352122798,61.97312103683664L237.07594947784372,83.08426880722389zM247.1683355895445,61.97312103683664L237.22424188490518,61.99990668410434L237.07594947784372,83.08426880722389zM189.48099823511296,61.99990668410434L179.35255625221944,61.97312103683664L189.36255084079343,83.08426880722389zM199.44571832053597,61.97312103683664L189.48099823511296,61.99990668410434L189.36255084079343,83.08426880722389zM179.35255625221944,61.97312103683664L189.48099823511296,61.99990668410434L189.36255084079343,61.961149618946415zM189.48099823511296,61.99990668410434L199.44571832053597,61.97312103683664L189.36255084079343,61.961149618946415zM141.73775458532074,61.99990668410434L131.62993898321093,61.97312103683664L141.64915220374314,83.08426880722389zM151.72310105152746,61.97312103683664L141.73775458532074,61.99990668410434L141.64915220374314,83.08426880722389zM131.62993898321093,61.97312103683664L141.73775458532074,61.99990668410434L141.64915220374314,61.961149618946415zM141.73775458532074,61.99990668410434L151.72310105152746,61.97312103683664L141.64915220374314,61.961149618946415zM83.90732171420242,61.97312103683664L93.99451093552851,61.99990668410434L93.93575356669285,61.961149618946415zM104.0004837825189,61.97312103683664L93.99451093552851,61.99990668410434L93.93575356669285,83.08426880722389zM93.99451093552851,61.99990668410434L83.90732171420242,61.97312103683664L93.93575356669285,83.08426880722389zM93.99451093552851,61.99990668410434L104.0004837825189,61.97312103683664L93.93575356669285,61.961149618946415zM56.27786651351042,61.97312103683664L46.25126728573633,61.99990668410434L46.22235492964259,83.08426880722389zM36.18470444519387,61.97312103683664L46.25126728573633,61.99990668410434L46.22235492964259,61.961149618946415zM46.25126728573633,61.99990668410434L56.27786651351042,61.97312103683664L46.22235492964259,61.961149618946415zM46.25126728573633,61.99990668410434L36.18470444519387,61.97312103683664L46.22235492964259,83.08426880722389zM-1.491976364055845,61.99990668410434L-11.537912823814626,61.97312103683664L-1.49104370740766,83.08426880722389zM8.555249244501917,61.97312103683664L-1.491976364055845,61.99990668410434L-1.49104370740766,83.08426880722389zM-11.537912823814626,61.97312103683664L-1.491976364055845,61.99990668410434L-1.49104370740766,61.961149618946415zM-1.491976364055845,61.99990668410434L8.555249244501917,61.97312103683664L-1.49104370740766,61.961149618946415zM-49.23522001384803,61.99990668410434L-39.16736802450658,61.97312103683664L-49.20444234445791,61.961149618946415zM-59.26053009282312,61.97312103683664L-49.23522001384803,61.99990668410434L-49.20444234445791,61.961149618946415zM-39.16736802450658,61.97312103683664L-49.23522001384803,61.99990668410434L-49.20444234445791,83.08426880722389zM-49.23522001384803,61.99990668410434L-59.26053009282312,61.97312103683664L-49.20444234445791,83.08426880722389zM-86.88998529351508,61.97312103683664L-96.9784636636402,61.99990668410434L-96.91784098150816,83.08426880722389zM-96.9784636636402,61.99990668410434L-106.98314736183163,61.97312103683664L-96.91784098150816,83.08426880722389zM-96.9784636636402,61.99990668410434L-86.88998529351508,61.97312103683664L-96.91784098150816,61.961149618946415zM-106.98314736183163,61.97312103683664L-96.9784636636402,61.99990668410434L-96.91784098150816,61.961149618946415zM-144.72170731343238,61.99990668410434L-134.6126025625236,61.97312103683664L-144.6312396185584,61.961149618946415zM-154.70576463084006,61.97312103683664L-144.72170731343238,61.99990668410434L-144.6312396185584,61.961149618946415zM-134.6126025625236,61.97312103683664L-144.72170731343238,61.99990668410434L-144.6312396185584,83.08426880722389zM-144.72170731343238,61.99990668410434L-154.70576463084006,61.97312103683664L-144.6312396185584,83.08426880722389zM-202.42838189984863,61.97312103683664L-192.4649509632245,61.99990668410434L-192.3446382556086,61.961149618946415zM-182.33521983153207,61.97312103683664L-192.4649509632245,61.99990668410434L-192.3446382556086,83.08426880722389zM-192.4649509632245,61.99990668410434L-182.33521983153207,61.97312103683664L-192.3446382556086,61.961149618946415zM-192.4649509632245,61.99990668410434L-202.42838189984863,61.97312103683664L-192.3446382556086,83.08426880722389zM-240.20819461301673,61.99990668410434L-230.0578371005405,61.97312103683664L-240.0580368926589,61.961149618946415zM-230.0578371005405,61.97312103683664L-240.20819461301673,61.99990668410434L-240.0580368926589,83.08426880722389zM-250.15099916885708,61.97312103683664L-240.20819461301673,61.99990668410434L-240.0580368926589,61.961149618946415zM-240.20819461301673,61.99990668410434L-250.15099916885708,61.97312103683664L-240.0580368926589,83.08426880722389zM-287.9514382628089,61.99990668410434L-297.87361643786556,61.97312103683664L-287.77143552970915,83.08426880722389zM-287.9514382628089,61.99990668410434L-277.7804543695491,61.97312103683664L-287.77143552970915,61.961149618946415zM-277.7804543695491,61.97312103683664L-287.9514382628089,61.99990668410434L-287.77143552970915,83.08426880722389zM-297.87361643786556,61.97312103683664L-287.9514382628089,61.99990668410434L-287.77143552970915,61.961149618946415zM-335.6946819126011,61.99990668410434L-345.59623370687416,61.97312103683664L-335.4848341667594,83.08426880722389zM-335.6946819126011,61.99990668410434L-325.5030716385576,61.97312103683664L-335.4848341667594,61.961149618946415zM-345.59623370687416,61.97312103683664L-335.6946819126011,61.99990668410434L-335.4848341667594,61.961149618946415zM-325.5030716385576,61.97312103683664L-335.6946819126011,61.99990668410434L-335.4848341667594,83.08426880722389zM-373.22568890756605,61.97312103683664L-383.43792556239333,61.99990668410434L-383.19823280380973,83.08426880722389zM-383.43792556239333,61.99990668410434L-373.22568890756605,61.97312103683664L-383.19823280380973,61.961149618946415zM-393.3188509758826,61.97312103683664L-383.43792556239333,61.99990668410434L-383.19823280380973,61.961149618946415zM-383.43792556239333,61.99990668410434L-393.3188509758826,61.97312103683664L-383.19823280380973,83.08426880722389zM-431.1811692121855,61.99990668410434L-420.9483061765746,61.97312103683664L-430.9116314408599,61.961149618946415zM-441.0414682448911,61.97312103683664L-431.1811692121855,61.99990668410434L-430.9116314408599,61.961149618946415zM-431.1811692121855,61.99990668410434L-441.0414682448911,61.97312103683664L-430.9116314408599,83.08426880722389zM-420.9483061765746,61.97312103683664L-431.1811692121855,61.99990668410434L-430.9116314408599,83.08426880722389z" style="fill:rgb(128,207,62)"></path><path d="M-346.59443739993986,-45.66084336113282L-346.59443739993986,-33.23870336405842L-325.2960354994728,-39.429822484785376z" style="fill:rgb(186,45,138)"></path></svg>