<svg viewBox="-812 -590 1624 1180" width="1624" height="1180" style="background-color: rgb(255, 255, 255);"><path d="M370.1000124262278,-208.3745240484964L379.9786150969094,-208.2845742012695L380.2161453889945,-208.4147759910051zM379.9786150969094,-208.2845742012695L390.1854131561215,-208.3745240484964L380.2161453889945,-208.4147759910051zM329.3147997506548,-208.2845742012695L339.49971811729824,-208.3745240484964L329.5206593371286,-208.4147759910051zM319.41431738740454,-208.3745240484964L329.3147997506548,-208.2845742012695L329.5206593371286,-208.4147759910051zM268.72862234858127,-208.3745240484964L278.6509844044002,-208.2845742012695L278.8251732852627,-208.4147759910051zM278.6509844044002,-208.2845742012695L288.814023078475,-208.3745240484964L278.8251732852627,-208.4147759910051zM218.04292730975803,-208.3745240484964L227.98716905814567,-208.2845742012695L228.12968723339677,-208.4147759910051zM227.98716905814567,-208.2845742012695L238.1283280396517,-208.3745240484964L228.12968723339677,-208.4147759910051zM167.35723227093476,-208.3745240484964L177.32335371189114,-208.2845742012695L177.43420118153088,-208.4147759910051zM177.32335371189114,-208.2845742012695L187.44263300082844,-208.3745240484964L177.43420118153088,-208.4147759910051zM116.6715372321115,-208.3745240484964L126.65953836563658,-208.2845742012695L126.73871512966498,-208.4147759910051zM126.65953836563658,-208.2845742012695L136.75693796200517,-208.3745240484964L126.73871512966498,-208.4147759910051zM75.99572301938198,-208.2845742012695L86.0712429231819,-208.3745240484964L76.04322907779903,-208.4147759910051zM65.98584219328825,-208.3745240484964L75.99572301938198,-208.2845742012695L76.04322907779903,-208.4147759910051zM25.331907673127425,-208.2845742012695L35.38554788435864,-208.3745240484964L25.347743025933106,-208.4147759910051zM15.300147154464918,-208.3745240484964L25.331907673127425,-208.2845742012695L25.347743025933106,-208.4147759910051zM-35.38554788435829,-208.3745240484964L-25.331907673127077,-208.2845742012695L-25.347743025932758,-208.4147759910051zM-25.331907673127077,-208.2845742012695L-15.30014715446463,-208.3745240484964L-25.347743025932758,-208.4147759910051zM-75.99572301938164,-208.2845742012695L-65.98584219328784,-208.3745240484964L-76.04322907779867,-208.4147759910051zM-86.07124292318156,-208.3745240484964L-75.99572301938164,-208.2845742012695L-76.04322907779867,-208.4147759910051zM-136.75693796200477,-208.3745240484964L-126.65953836563615,-208.2845742012695L-126.73871512966453,-208.4147759910051zM-126.65953836563615,-208.2845742012695L-116.67153723211106,-208.3745240484964L-126.73871512966453,-208.4147759910051z" style="fill:rgb(128,207,62)"></path><path d="M-126.65953836563615,-208.2845742012695L-116.67153723211106,-208.3745240484964L-126.73871512966453,-208.4147759910051zM-136.75693796200477,-208.3745240484964L-126.65953836563615,-208.2845742012695L-126.73871512966453,-208.4147759910051zM-90.95951789435935,-208.2845742012695L-80.956099337822,-208.3745240484964L-91.01637804383871,-208.4147759910051zM-101.0415000677157,-208.3745240484964L-90.95951789435935,-208.2845742012695L-91.01637804383871,-208.4147759910051zM-29.345889168162188,-208.3745240484964L-19.294856120073,-208.2845742012695L-19.306917622030877,-208.4147759910051zM-19.294856120073,-208.2845742012695L-9.260488438268528,-208.3745240484964L-19.306917622030877,-208.4147759910051zM25.05269686638886,-208.2845742012695L35.10621649754588,-208.3745240484964L25.068357680360393,-208.4147759910051zM15.020815767652161,-208.3745240484964L25.05269686638886,-208.2845742012695L25.068357680360393,-208.4147759910051zM84.74623827415083,-208.2845742012695L94.825537178452,-208.3745240484964L84.7992144099927,-208.4147759910051zM74.74013644855833,-208.3745240484964L84.74623827415083,-208.2845742012695L84.7992144099927,-208.4147759910051zM93.15825065968423,-208.3745240484964L103.1564018657513,-208.2845742012695L103.22088646907399,-208.4147759910051zM103.1564018657513,-208.2845742012695L113.24365138957795,-208.3745240484964L103.22088646907399,-208.4147759910051zM149.4265400654328,-208.3745240484964L159.40040171854767,-208.2845742012695L159.50004528393367,-208.4147759910051zM159.40040171854767,-208.2845742012695L169.5119407953265,-208.3745240484964L159.50004528393367,-208.4147759910051zM201.1476956301501,-208.3745240484964L211.09923060939403,-208.2845742012695L211.23119188277468,-208.4147759910051zM211.09923060939403,-208.2845742012695L221.23309636004382,-208.3745240484964L211.23119188277468,-208.4147759910051z" style="fill:rgb(186,45,138)"></path><path d="M-464.70862214210393,535.1190194363617L380.2161453889945,535.1190194363617L-464.70862214210393,-56.32831783540726zM-464.70862214210393,-56.32831783540726L380.2161453889945,-56.32831783540726L380.2161453889945,535.1190194363617z" style="fill:rgb(0,0,0); fill-opacity: 0.2"></path><path d="M-464.70862214210393,535.1190194363617L-464.70862214210393,-56.32831783540726M-464.70862214210393,-56.32831783540726L380.2161453889945,-56.32831783540726M380.2161453889945,-56.32831783540726L380.2161453889945,535.1190194363617M380.2161453889945,535.1190194363617L-464.70862214210393,535.1190194363617" style="fill:none;stroke:rgb(0,0,0);stroke-width:1;stroke-linecap:round"></path><path d="M-464.70862214210393,-56.32831783540726L380.2161453889945,-56.32831783540726L-126.73871512966453,281.6415891770321zM-126.73871512966453,281.6415891770321L380.2161453889945,281.6415891770321L380.2161453889945,-56.32831783540726z" style="fill:rgb(0,0,0); fill-opacity: 0.2"></path><path d="M380.2161453889945,-56.32831783540726L-464.70862214210393,-56.32831783540726M-464.70862214210393,-56.32831783540726L-126.73871512966453,281.6415891770321M-126.73871512966453,281.6415891770321L380.2161453889945,281.6415891770321M380.2161453889945,281.6415891770321L380.2161453889945,-56.32831783540726" style="fill:none;stroke:rgb(0,0,0);stroke-width:1;stroke-linecap:round"></path><path d="M-464.70862214210393,-56.32831783540726L-464.70862214210393,-56.32831783540726L-126.73871512966453,-56.32831783540726zM-126.73871512966453,-56.32831783540726L-126.73871512966453,281.6415891770321L-464.70862214210393,-56.32831783540726z" style="fill:rgb(0,0,0); fill-opacity: 0.2"></path><path d="M-464.70862214210393,-56.32831783540726L-126.73871512966453,-56.32831783540726M-126.73871512966453,281.6415891770321L-464.70862214210393,-56.32831783540726M-464.70862214210393,-56.32831783540726L-464.70862214210393,-56.32831783540726M-126.73871512966453,-56.32831783540726L-126.73871512966453,281.6415891770321" style="fill:none;stroke:rgb(0,0,0);stroke-width:1;stroke-linecap:round"></path><path d="M-126.73871512966453,281.6415891770321L380.2161453889945,281.6415891770321L-126.73871512966453,-56.32831783540726zM-126.73871512966453,-56.32831783540726L380.2161453889945,-56.32831783540726L380.2161453889945,281.6415891770321z" style="fill:rgb(0,0,0); fill-opacity: 0.2"></path><path d="M380.2161453889945,281.6415891770321L-126.73871512966453,281.6415891770321M-126.73871512966453,281.6415891770321L-126.73871512966453,-56.32831783540726M-126.73871512966453,-56.32831783540726L380.2161453889945,-56.32831783540726M380.2161453889945,-56.32831783540726L380.2161453889945,281.6415891770321" style="fill:none;stroke:rgb(0,0,0);stroke-width:1;stroke-linecap:round"></path><path d="M211.23119188277482,-56.32831783540726L-126.73871512966453,-56.32831783540726L-126.73871512966453,281.6415891770321zM-126.73871512966453,281.6415891770321L-126.73871512966453,281.6415891770321L211.23119188277482,-56.32831783540726z" style="fill:rgb(0,0,0); fill-opacity: 0.2"></path><path d="M-126.73871512966453,281.6415891770321L211.23119188277482,-56.32831783540726M211.23119188277482,-56.32831783540726L-126.73871512966453,-56.32831783540726M-126.73871512966453,281.6415891770321L-126.73871512966453,281.6415891770321M-126.73871512966453,-56.32831783540726L-126.73871512966453,281.6415891770321" style="fill:none;stroke:rgb(0,0,0);stroke-width:1;stroke-linecap:round"></path><path d="M-126.73871512966453,-56.32831783540726L-126.73871512966453,281.6415891770321L211.23119188277482,-56.32831783540726zM211.23119188277482,-56.32831783540726L211.23119188277482,-56.32831783540726L-126.73871512966453,281.6415891770321z" style="fill:rgb(0,0,0); fill-opacity: 0.2"></path><path d="M-126.73871512966453,281.6415891770321L-126.73871512966453,-56.32831783540726M211.23119188277482,-56.32831783540726L-126.73871512966453,281.6415891770321M211.23119188277482,-56.32831783540726L211.23119188277482,-56.32831783540726M-126.73871512966453,-56.32831783540726L211.23119188277482,-56.32831783540726" style="fill:none;stroke:rgb(0,0,0);stroke-width:1;stroke-linecap:round"></path><path d="M-126.73871512966453,-123.92229923789527L380.2161453889945,-123.92229923789527" style="fill:none;stroke:rgb(58,110,14);stroke-width:5;stroke-linecap:round"></path><path d="M380.2161453889945,-123.92229923789527L380.2161453889945,-208.41477599100511M329.5206593371286,-123.92229923789527L329.5206593371286,-208.41477599100511M278.8251732852627,-123.92229923789527L278.8251732852627,-208.41477599100511M228.12968723339677,-123.92229923789527L228.12968723339677,-208.41477599100511M177.43420118153088,-123.92229923789527L177.43420118153088,-208.41477599100511M126.73871512966498,-123.92229923789527L126.73871512966498,-208.41477599100511M76.04322907779903,-123.92229923789527L76.04322907779903,-208.41477599100511M25.347743025933106,-123.92229923789527L25.347743025933106,-208.41477599100511M-25.347743025932758,-123.92229923789527L-25.347743025932758,-208.41477599100511M-76.04322907779867,-123.92229923789527L-76.04322907779867,-208.41477599100511M-126.73871512966453,-123.92229923789527L-126.73871512966453,-208.41477599100511" style="fill:none;stroke:rgb(128,207,62);stroke-width:5;stroke-linecap:round"></path><path d="M-126.73871512966453,-56.32831783540726L380.2161453889945,-56.32831783540726L-126.73871512966453,-123.92229923789527zM-126.73871512966453,-123.92229923789527L380.2161453889945,-123.92229923789527L380.2161453889945,-56.32831783540726z" style="fill:rgb(0,0,0); fill-opacity: 0.2"></path><path d="M-126.73871512966453,-123.92229923789527L380.2161453889945,-123.92229923789527M380.2161453889945,-56.32831783540726L-126.73871512966453,-56.32831783540726M380.2161453889945,-123.92229923789527L380.2161453889945,-56.32831783540726M-126.73871512966453,-56.32831783540726L-126.73871512966453,-123.92229923789527" style="fill:none;stroke:rgb(0,0,0);stroke-width:1;stroke-linecap:round"></path><path d="M211.23119188277482,-123.92229923789527L-126.73871512966453,-123.92229923789527" style="fill:none;stroke:rgb(97,2,64);stroke-width:5;stroke-linecap:round"></path><path d="M-126.73871512966453,-123.92229923789527L-126.73871512966453,-208.41477599100511M-91.01637804383871,-123.92229923789527L-91.01637804383871,-208.41477599100511M-19.306917622030877,-123.92229923789527L-19.306917622030877,-208.41477599100511M25.068357680360393,-123.92229923789527L25.068357680360393,-208.41477599100511M84.7992144099927,-123.92229923789527L84.7992144099927,-208.41477599100511M103.22088646907399,-123.92229923789527L103.22088646907399,-208.41477599100511M159.50004528393367,-123.92229923789527L159.50004528393367,-208.41477599100511M211.23119188277468,-123.92229923789527L211.23119188277468,-208.41477599100511" style="fill:none;stroke:rgb(186,45,138);stroke-width:5;stroke-linecap:round"></path><path d="M211.23119188277482,-123.92229923789527L-126.73871512966453,-123.92229923789527L-126.73871512966453,-56.32831783540726zM211.23119188277482,-56.32831783540726L-126.73871512966453,-56.32831783540726L211.23119188277482,-123.92229923789527z" style="fill:rgb(0,0,0); fill-opacity: 0.2"></path><path d="M-126.73871512966453,-123.92229923789527L-126.73871512966453,-56.32831783540726M-126.73871512966453,-56.32831783540726L211.23119188277482,-56.32831783540726M211.23119188277482,-56.32831783540726L211.23119188277482,-123.92229923789527M211.23119188277482,-123.92229923789527L-126.73871512966453,-123.92229923789527" style="fill:none;stroke:rgb(0,0,0);stroke-width:1;stroke-linecap:round"></path><path d="M386.61959885213014,-208.52023063085903L390.1854131561215,-208.3745240484964L380.2161453889945,-229.53789517928263zM374.1974588550558,-208.52023063085903L370.1000124262278,-208.3745240484964L380.2161453889945,-208.4147759910051zM390.1854131561215,-208.3745240484964L386.61959885213014,-208.52023063085903L380.2161453889945,-208.4147759910051zM370.1000124262278,-208.3745240484964L374.1974588550558,-208.52023063085903L380.2161453889945,-229.53789517928263zM339.49971811729824,-208.3745240484964L335.89846167165115,-208.52023063085903L329.5206593371286,-208.4147759910051zM319.41431738740454,-208.3745240484964L323.47632167457675,-208.52023063085903L329.5206593371286,-229.53789517928263zM335.89846167165115,-208.52023063085903L339.49971811729824,-208.3745240484964L329.5206593371286,-229.53789517928263zM323.47632167457675,-208.52023063085903L319.41431738740454,-208.3745240484964L329.5206593371286,-208.4147759910051zM285.1773244911721,-208.52023063085903L288.814023078475,-208.3745240484964L278.8251732852627,-229.53789517928263zM268.72862234858127,-208.3745240484964L272.7551844940977,-208.52023063085903L278.8251732852627,-229.53789517928263zM272.7551844940977,-208.52023063085903L268.72862234858127,-208.3745240484964L278.8251732852627,-208.4147759910051zM288.814023078475,-208.3745240484964L285.1773244911721,-208.52023063085903L278.8251732852627,-208.4147759910051zM218.04292730975803,-208.3745240484964L222.03404731361866,-208.52023063085903L228.12968723339677,-229.53789517928263zM234.45618731069305,-208.52023063085903L238.1283280396517,-208.3745240484964L228.12968723339677,-229.53789517928263zM222.03404731361866,-208.52023063085903L218.04292730975803,-208.3745240484964L228.12968723339677,-208.4147759910051zM238.1283280396517,-208.3745240484964L234.45618731069305,-208.52023063085903L228.12968723339677,-208.4147759910051zM183.735050130214,-208.52023063085903L187.44263300082844,-208.3745240484964L177.43420118153088,-229.53789517928263zM167.35723227093476,-208.3745240484964L171.31291013313964,-208.52023063085903L177.43420118153088,-229.53789517928263zM187.44263300082844,-208.3745240484964L183.735050130214,-208.52023063085903L177.43420118153088,-208.4147759910051zM171.31291013313964,-208.52023063085903L167.35723227093476,-208.3745240484964L177.43420118153088,-208.4147759910051zM133.01391294973496,-208.52023063085903L136.75693796200517,-208.3745240484964L126.73871512966498,-229.53789517928263zM136.75693796200517,-208.3745240484964L133.01391294973496,-208.52023063085903L126.73871512966498,-208.4147759910051zM116.6715372321115,-208.3745240484964L120.59177295266056,-208.52023063085903L126.73871512966498,-229.53789517928263zM120.59177295266056,-208.52023063085903L116.6715372321115,-208.3745240484964L126.73871512966498,-208.4147759910051zM65.98584219328825,-208.3745240484964L69.87063577218153,-208.52023063085903L76.04322907779903,-229.53789517928263zM69.87063577218153,-208.52023063085903L65.98584219328825,-208.3745240484964L76.04322907779903,-208.4147759910051zM86.0712429231819,-208.3745240484964L82.29277576925595,-208.52023063085903L76.04322907779903,-208.4147759910051zM82.29277576925595,-208.52023063085903L86.0712429231819,-208.3745240484964L76.04322907779903,-229.53789517928263zM19.14949859170243,-208.52023063085903L15.300147154464918,-208.3745240484964L25.347743025933106,-208.4147759910051zM15.300147154464918,-208.3745240484964L19.14949859170243,-208.52023063085903L25.347743025933106,-229.53789517928263zM31.571638588776846,-208.52023063085903L35.38554788435864,-208.3745240484964L25.347743025933106,-229.53789517928263zM35.38554788435864,-208.3745240484964L31.571638588776846,-208.52023063085903L25.347743025933106,-208.4147759910051zM-19.14949859170214,-208.52023063085903L-15.30014715446463,-208.3745240484964L-25.347743025932758,-229.53789517928263zM-15.30014715446463,-208.3745240484964L-19.14949859170214,-208.52023063085903L-25.347743025932758,-208.4147759910051zM-35.38554788435829,-208.3745240484964L-31.57163858877656,-208.52023063085903L-25.347743025932758,-229.53789517928263zM-31.57163858877656,-208.52023063085903L-35.38554788435829,-208.3745240484964L-25.347743025932758,-208.4147759910051zM-69.87063577218112,-208.52023063085903L-65.98584219328784,-208.3745240484964L-76.04322907779867,-229.53789517928263zM-82.29277576925554,-208.52023063085903L-86.07124292318156,-208.3745240484964L-76.04322907779867,-208.4147759910051zM-86.07124292318156,-208.3745240484964L-82.29277576925554,-208.52023063085903L-76.04322907779867,-229.53789517928263zM-65.98584219328784,-208.3745240484964L-69.87063577218112,-208.52023063085903L-76.04322907779867,-208.4147759910051zM-136.75693796200477,-208.3745240484964L-133.01391294973453,-208.52023063085903L-126.73871512966453,-229.53789517928263zM-120.59177295266016,-208.52023063085903L-116.67153723211106,-208.3745240484964L-126.73871512966453,-229.53789517928263zM-133.01391294973453,-208.52023063085903L-136.75693796200477,-208.3745240484964L-126.73871512966453,-208.4147759910051zM-116.67153723211106,-208.3745240484964L-120.59177295266016,-208.52023063085903L-126.73871512966453,-208.4147759910051z" style="fill:rgb(128,207,62)"></path><path d="M-120.59177295266016,-208.52023063085903L-116.67153723211106,-208.3745240484964L-126.73871512966453,-229.53789517928263zM-116.67153723211106,-208.3745240484964L-120.59177295266016,-208.52023063085903L-126.73871512966453,-208.4147759910051zM-136.75693796200477,-208.3745240484964L-133.01391294973453,-208.52023063085903L-126.73871512966453,-229.53789517928263zM-133.01391294973453,-208.52023063085903L-136.75693796200477,-208.3745240484964L-126.73871512966453,-208.4147759910051zM-101.0415000677157,-208.3745240484964L-97.27350091613107,-208.52023063085903L-91.01637804383871,-229.53789517928263zM-97.27350091613107,-208.52023063085903L-101.0415000677157,-208.3745240484964L-91.01637804383871,-208.4147759910051zM-80.956099337822,-208.3745240484964L-84.8513609190567,-208.52023063085903L-91.01637804383871,-208.4147759910051zM-84.8513609190567,-208.52023063085903L-80.956099337822,-208.3745240484964L-91.01637804383871,-229.53789517928263zM-9.260488438268528,-208.3745240484964L-13.10561662396321,-208.52023063085903L-19.306917622030877,-208.4147759910051zM-13.10561662396321,-208.52023063085903L-9.260488438268528,-208.3745240484964L-19.306917622030877,-229.53789517928263zM-29.345889168162188,-208.3745240484964L-25.52775662103763,-208.52023063085903L-19.306917622030877,-229.53789517928263zM-25.52775662103763,-208.52023063085903L-29.345889168162188,-208.3745240484964L-19.306917622030877,-208.4147759910051zM18.86997188148387,-208.52023063085903L15.020815767652161,-208.3745240484964L25.068357680360393,-208.4147759910051zM35.10621649754588,-208.3745240484964L31.29211187855829,-208.52023063085903L25.068357680360393,-208.4147759910051zM31.29211187855829,-208.52023063085903L35.10621649754588,-208.3745240484964L25.068357680360393,-229.53789517928263zM15.020815767652161,-208.3745240484964L18.86997188148387,-208.52023063085903L25.068357680360393,-229.53789517928263zM91.05319149404232,-208.52023063085903L94.825537178452,-208.3745240484964L84.7992144099927,-229.53789517928263zM78.63105149696791,-208.52023063085903L74.74013644855833,-208.3745240484964L84.7992144099927,-208.4147759910051zM74.74013644855833,-208.3745240484964L78.63105149696791,-208.52023063085903L84.7992144099927,-229.53789517928263zM94.825537178452,-208.3745240484964L91.05319149404232,-208.52023063085903L84.7992144099927,-208.4147759910051zM97.06204463601235,-208.52023063085903L93.15825065968423,-208.3745240484964L103.22088646907399,-208.4147759910051zM109.48418463308677,-208.52023063085903L113.24365138957795,-208.3745240484964L103.22088646907399,-229.53789517928263zM113.24365138957795,-208.3745240484964L109.48418463308677,-208.52023063085903L103.22088646907399,-208.4147759910051zM93.15825065968423,-208.3745240484964L97.06204463601235,-208.52023063085903L103.22088646907399,-229.53789517928263zM169.5119407953265,-208.3745240484964L165.79181982826006,-208.52023063085903L159.50004528393367,-208.4147759910051zM149.4265400654328,-208.3745240484964L153.36967983118564,-208.52023063085903L159.50004528393367,-229.53789517928263zM165.79181982826006,-208.52023063085903L169.5119407953265,-208.3745240484964L159.50004528393367,-229.53789517928263zM153.36967983118564,-208.52023063085903L149.4265400654328,-208.3745240484964L159.50004528393367,-208.4147759910051zM201.1476956301501,-208.3745240484964L205.12700158679218,-208.52023063085903L211.23119188277468,-229.53789517928263zM217.5491415838666,-208.52023063085903L221.23309636004382,-208.3745240484964L211.23119188277468,-229.53789517928263zM205.12700158679218,-208.52023063085903L201.1476956301501,-208.3745240484964L211.23119188277468,-208.4147759910051zM221.23309636004382,-208.3745240484964L217.5491415838666,-208.52023063085903L211.23119188277468,-208.4147759910051z" style="fill:rgb(186,45,138)"></path><path d="M374.1974588550558,-208.52023063085903L386.61959885213014,-208.52023063085903L380.2161453889945,-229.53789517928263zM386.61959885213014,-208.52023063085903L374.1974588550558,-208.52023063085903L380.2161453889945,-208.4147759910051zM335.89846167165115,-208.52023063085903L323.47632167457675,-208.52023063085903L329.5206593371286,-208.4147759910051zM323.47632167457675,-208.52023063085903L335.89846167165115,-208.52023063085903L329.5206593371286,-229.53789517928263zM285.1773244911721,-208.52023063085903L272.7551844940977,-208.52023063085903L278.8251732852627,-208.4147759910051zM272.7551844940977,-208.52023063085903L285.1773244911721,-208.52023063085903L278.8251732852627,-229.53789517928263zM234.45618731069305,-208.52023063085903L222.03404731361866,-208.52023063085903L228.12968723339677,-208.4147759910051zM222.03404731361866,-208.52023063085903L234.45618731069305,-208.52023063085903L228.12968723339677,-229.53789517928263zM183.735050130214,-208.52023063085903L171.31291013313964,-208.52023063085903L177.43420118153088,-208.4147759910051zM171.31291013313964,-208.52023063085903L183.735050130214,-208.52023063085903L177.43420118153088,-229.53789517928263zM133.01391294973496,-208.52023063085903L120.59177295266056,-208.52023063085903L126.73871512966498,-208.4147759910051zM120.59177295266056,-208.52023063085903L133.01391294973496,-208.52023063085903L126.73871512966498,-229.53789517928263zM69.87063577218153,-208.52023063085903L82.29277576925595,-208.52023063085903L76.04322907779903,-229.53789517928263zM82.29277576925595,-208.52023063085903L69.87063577218153,-208.52023063085903L76.04322907779903,-208.4147759910051zM19.14949859170243,-208.52023063085903L31.571638588776846,-208.52023063085903L25.347743025933106,-229.53789517928263zM31.571638588776846,-208.52023063085903L19.14949859170243,-208.52023063085903L25.347743025933106,-208.4147759910051zM-31.57163858877656,-208.52023063085903L-19.14949859170214,-208.52023063085903L-25.347743025932758,-229.53789517928263zM-19.14949859170214,-208.52023063085903L-31.57163858877656,-208.52023063085903L-25.347743025932758,-208.4147759910051zM-69.87063577218112,-208.52023063085903L-82.29277576925554,-208.52023063085903L-76.04322907779867,-208.4147759910051zM-82.29277576925554,-208.52023063085903L-69.87063577218112,-208.52023063085903L-76.04322907779867,-229.53789517928263zM-133.01391294973453,-208.52023063085903L-120.59177295266016,-208.52023063085903L-126.73871512966453,-229.53789517928263zM-120.59177295266016,-208.52023063085903L-133.01391294973453,-208.52023063085903L-126.73871512966453,-208.4147759910051z" style="fill:rgb(128,207,62)"></path><path d="M-120.59177295266016,-208.52023063085903L-133.01391294973453,-208.52023063085903L-126.73871512966453,-208.4147759910051zM-133.01391294973453,-208.52023063085903L-120.59177295266016,-208.52023063085903L-126.73871512966453,-229.53789517928263zM-97.27350091613107,-208.52023063085903L-84.8513609190567,-208.52023063085903L-91.01637804383871,-229.53789517928263zM-84.8513609190567,-208.52023063085903L-97.27350091613107,-208.52023063085903L-91.01637804383871,-208.4147759910051zM-13.10561662396321,-208.52023063085903L-25.52775662103763,-208.52023063085903L-19.306917622030877,-208.4147759910051zM-25.52775662103763,-208.52023063085903L-13.10561662396321,-208.52023063085903L-19.306917622030877,-229.53789517928263zM31.29211187855829,-208.52023063085903L18.86997188148387,-208.52023063085903L25.068357680360393,-208.4147759910051zM18.86997188148387,-208.52023063085903L31.29211187855829,-208.52023063085903L25.068357680360393,-229.53789517928263zM78.63105149696791,-208.52023063085903L91.05319149404232,-208.52023063085903L84.7992144099927,-229.53789517928263zM91.05319149404232,-208.52023063085903L78.63105149696791,-208.52023063085903L84.7992144099927,-208.4147759910051zM109.48418463308677,-208.52023063085903L97.06204463601235,-208.52023063085903L103.22088646907399,-208.4147759910051zM97.06204463601235,-208.52023063085903L109.48418463308677,-208.52023063085903L103.22088646907399,-229.53789517928263zM153.36967983118564,-208.52023063085903L165.79181982826006,-208.52023063085903L159.50004528393367,-229.53789517928263zM165.79181982826006,-208.52023063085903L153.36967983118564,-208.52023063085903L159.50004528393367,-208.4147759910051zM217.5491415838666,-208.52023063085903L205.12700158679218,-208.52023063085903L211.23119188277468,-208.4147759910051zM205.12700158679218,-208.52023063085903L217.5491415838666,-208.52023063085903L211.23119188277468,-229.53789517928263z" style="fill:rgb(186,45,138)"></path></svg>