<svg viewBox="-812 -590 1624 1180" width="1624" height="1180" style="background-color: rgb(255, 255, 255);"><path d="M-464.70862214210393,535.1190194363617L380.2161453889945,535.1190194363617L-464.70862214210393,-56.32831783540726zM-464.70862214210393,-56.32831783540726L380.2161453889945,-56.32831783540726L380.2161453889945,535.1190194363617z" style="fill:rgb(0,0,0); fill-opacity: 0.2"></path><path d="M-464.70862214210393,535.1190194363617L-464.70862214210393,-56.32831783540726M-464.70862214210393,-56.32831783540726L380.2161453889945,-56.32831783540726M380.2161453889945,535.1190194363617L-464.70862214210393,535.1190194363617M380.2161453889945,-56.32831783540726L380.2161453889945,535.1190194363617" style="fill:none;stroke:rgb(0,0,0);stroke-width:1;stroke-linecap:round"></path><path d="M-126.73871512966453,281.6415891770321L380.2161453889945,281.6415891770321L380.2161453889945,-56.32831783540726zM-464.70862214210393,-56.32831783540726L380.2161453889945,-56.32831783540726L-126.73871512966453,281.6415891770321z" style="fill:rgb(0,0,0); fill-opacity: 0.2"></path><path d="M380.2161453889945,-56.32831783540726L-464.70862214210393,-56.32831783540726M380.2161453889945,281.6415891770321L380.2161453889945,-56.32831783540726M-126.73871512966453,281.6415891770321L380.2161453889945,281.6415891770321M-464.70862214210393,-56.32831783540726L-126.73871512966453,281.6415891770321" style="fill:none;stroke:rgb(0,0,0);stroke-width:1;stroke-linecap:round"></path><path d="M-126.73871512966453,-56.32831783540726L-126.73871512966453,281.6415891770321L-464.70862214210393,-56.32831783540726zM-464.70862214210393,-56.32831783540726L-464.70862214210393,-56.32831783540726L-126.73871512966453,-56.32831783540726z" style="fill:rgb(0,0,0); fill-opacity: 0.2"></path><path d="M-126.73871512966453,-56.32831783540726L-126.73871512966453,281.6415891770321M-464.70862214210393,-56.32831783540726L-126.73871512966453,-56.32831783540726M-464.70862214210393,-56.32831783540726L-464.70862214210393,-56.32831783540726M-126.73871512966453,281.6415891770321L-464.70862214210393,-56.32831783540726" style="fill:none;stroke:rgb(0,0,0);stroke-width:1;stroke-linecap:round"></path><path d="M-126.73871512966453,281.6415891770321L380.2161453889945,281.6415891770321" style="fill:none;stroke:rgb(58,110,14);stroke-width:5;stroke-linecap:round"></path><path d="M380.2161453889945,281.6415891770321L380.2161453889945,197.14911242392225M329.5206593371286,281.6415891770321L329.5206593371286,197.14911242392225M278.8251732852627,281.6415891770321L278.8251732852627,197.14911242392225M228.12968723339677,281.6415891770321L228.12968723339677,197.14911242392225M177.43420118153088,281.6415891770321L177.43420118153088,197.14911242392225M126.73871512966498,281.6415891770321L126.73871512966498,197.14911242392225M76.04322907779903,281.6415891770321L76.04322907779903,197.14911242392225M25.347743025933106,281.6415891770321L25.347743025933106,197.14911242392225M-25.347743025932758,281.6415891770321L-25.347743025932758,197.14911242392225M-76.04322907779867,281.6415891770321L-76.04322907779867,197.14911242392225M-126.73871512966453,281.6415891770321L-126.73871512966453,197.14911242392225" style="fill:none;stroke:rgb(128,207,62);stroke-width:5;stroke-linecap:round"></path><path d="M-126.73871512966453,281.6415891770321L-126.73871512966453,281.6415891770321" style="fill:none;stroke:rgb(97,2,64);stroke-width:5;stroke-linecap:round"></path><path d="M-126.73871512966453,281.6415891770321L-126.73871512966453,197.14911242392225" style="fill:none;stroke:rgb(186,45,138);stroke-width:5;stroke-linecap:round"></path><path d="M-126.73871512966453,-56.32831783540726L-126.73871512966453,281.6415891770321" style="fill:none;stroke:rgb(0,86,91);stroke-width:5;stroke-linecap:round"></path><path d="M-126.73871512966453,281.6415891770321L-42.246238376554686,281.6415891770321M-126.73871512966453,233.36017388954076L-42.246238376554686,233.36017388954076M-126.73871512966453,185.07875860204945L-42.246238376554686,185.07875860204945M-126.73871512966453,136.79734331455816L-42.246238376554686,136.79734331455813M-126.73871512966453,88.51592802706679L-42.246238376554686,88.51592802706676M-126.73871512966453,40.23451273957549L-42.246238376554686,40.23451273957547M-126.73871512966453,-8.046902547915803L-42.246238376554686,-8.04690254791582M-126.73871512966453,-56.328317835407184L-42.246238376554686,-56.3283178354072" style="fill:none;stroke:rgb(41,170,178);stroke-width:5;stroke-linecap:round"></path><path d="M370.1000124262278,197.1110362620897L374.1974588550558,197.2488668129733L380.2161453889945,176.02599323564476zM386.61959885213014,197.2488668129733L390.1854131561215,197.1110362620897L380.2161453889945,176.02599323564476zM319.41431738740454,197.1110362620897L323.47632167457675,197.2488668129733L329.5206593371286,176.02599323564476zM335.89846167165115,197.2488668129733L339.49971811729824,197.1110362620897L329.5206593371286,176.02599323564476zM285.1773244911721,197.2488668129733L288.814023078475,197.1110362620897L278.8251732852627,176.02599323564476zM268.72862234858127,197.1110362620897L272.7551844940977,197.2488668129733L278.8251732852627,176.02599323564476zM218.04292730975803,197.1110362620897L222.03404731361866,197.2488668129733L228.12968723339677,176.02599323564476zM234.45618731069305,197.2488668129733L238.1283280396517,197.1110362620897L228.12968723339677,176.02599323564476zM183.735050130214,197.2488668129733L187.44263300082844,197.1110362620897L177.43420118153088,176.02599323564476zM167.35723227093476,197.1110362620897L171.31291013313964,197.2488668129733L177.43420118153088,176.02599323564476zM133.01391294973496,197.2488668129733L136.75693796200517,197.1110362620897L126.73871512966498,176.02599323564476zM116.6715372321115,197.1110362620897L120.59177295266056,197.2488668129733L126.73871512966498,176.02599323564476zM82.29277576925595,197.2488668129733L86.0712429231819,197.1110362620897L76.04322907779903,176.02599323564476zM65.98584219328825,197.1110362620897L69.87063577218153,197.2488668129733L76.04322907779903,176.02599323564476zM31.571638588776846,197.2488668129733L35.38554788435864,197.1110362620897L25.347743025933106,176.02599323564476zM15.300147154464918,197.1110362620897L19.14949859170243,197.2488668129733L25.347743025933106,176.02599323564476zM-19.14949859170214,197.2488668129733L-15.30014715446463,197.1110362620897L-25.347743025932758,176.02599323564476zM-35.38554788435829,197.1110362620897L-31.57163858877656,197.2488668129733L-25.347743025932758,176.02599323564476zM-69.87063577218112,197.2488668129733L-65.98584219328784,197.1110362620897L-76.04322907779867,176.02599323564476zM-86.07124292318156,197.1110362620897L-82.29277576925554,197.2488668129733L-76.04322907779867,176.02599323564476zM-120.59177295266016,197.2488668129733L-116.67153723211106,197.1110362620897L-126.73871512966453,176.02599323564476zM-136.75693796200477,197.1110362620897L-133.01391294973453,197.2488668129733L-126.73871512966453,176.02599323564476z" style="fill:rgb(128,207,62)"></path><path d="M-120.59177295266016,197.2488668129733L-116.67153723211106,197.1110362620897L-126.73871512966453,176.02599323564476zM-136.75693796200477,197.1110362620897L-133.01391294973453,197.2488668129733L-126.73871512966453,176.02599323564476z" style="fill:rgb(186,45,138)"></path><path d="M-42.26761431706563,287.99516544564216L-42.23807919901915,291.6298950250753L-21.12311918827726,281.641589177032zM-42.23807919901915,271.5444942951816L-42.26761431706563,275.57302544856776L-21.12311918827726,281.641589177032zM-42.26761431706563,239.68932051185266L-42.23807919901915,243.3578045119103L-21.12311918827726,233.3601738895407zM-42.23807919901915,223.2724037820166L-42.26761431706563,227.26718051477823L-21.12311918827726,233.3601738895407zM-42.23807919901915,175.0003132688516L-42.26761431706563,178.96133558098876L-21.12311918827726,185.07875860204945zM-42.26761431706563,191.38347557806316L-42.23807919901915,195.08571399874532L-21.12311918827726,185.07875860204945zM-42.23807919901915,126.72822275568664L-42.26761431706563,130.6554906471992L-21.12311918827726,136.79734331455816zM-42.26761431706563,143.0776306442736L-42.23807919901915,146.81362348558037L-21.12311918827726,136.79734331455816zM-42.23807919901915,78.45613224252168L-42.26761431706563,82.3496457134097L-21.12311918827726,88.51592802706679zM-42.26761431706563,94.77178571048408L-42.23807919901915,98.54153297241533L-21.12311918827726,88.51592802706679zM-42.26761431706563,46.46594077669457L-42.23807919901915,50.26944245925038L-21.12311918827726,40.23451273957549zM-42.23807919901915,30.184041729356718L-42.26761431706563,34.0438007796201L-21.12311918827726,40.23451273957549zM-42.26761431706563,-1.8399041570950194L-42.23807919901915,1.9973519460854154L-21.12311918827726,-8.046902547915803zM-42.23807919901915,-18.088048783808325L-42.26761431706563,-14.26204415416941L-21.12311918827726,-8.046902547915803zM-42.26761431706563,-50.14574909088453L-42.23807919901915,-46.274738567079545L-21.12311918827726,-56.328317835407184zM-42.23807919901915,-66.36013929697329L-42.26761431706563,-62.567889087958925L-21.12311918827726,-56.328317835407184z" style="fill:rgb(41,170,178)"></path><path d="M374.1974588550558,197.2488668129733L386.61959885213014,197.2488668129733L380.2161453889945,176.02599323564476zM323.47632167457675,197.2488668129733L335.89846167165115,197.2488668129733L329.5206593371286,176.02599323564476zM272.7551844940977,197.2488668129733L285.1773244911721,197.2488668129733L278.8251732852627,176.02599323564476zM222.03404731361866,197.2488668129733L234.45618731069305,197.2488668129733L228.12968723339677,176.02599323564476zM171.31291013313964,197.2488668129733L183.735050130214,197.2488668129733L177.43420118153088,176.02599323564476zM120.59177295266056,197.2488668129733L133.01391294973496,197.2488668129733L126.73871512966498,176.02599323564476zM69.87063577218153,197.2488668129733L82.29277576925595,197.2488668129733L76.04322907779903,176.02599323564476zM19.14949859170243,197.2488668129733L31.571638588776846,197.2488668129733L25.347743025933106,176.02599323564476zM-31.57163858877656,197.2488668129733L-19.14949859170214,197.2488668129733L-25.347743025932758,176.02599323564476zM-82.29277576925554,197.2488668129733L-69.87063577218112,197.2488668129733L-76.04322907779867,176.02599323564476zM-133.01391294973453,197.2488668129733L-120.59177295266016,197.2488668129733L-126.73871512966453,176.02599323564476z" style="fill:rgb(128,207,62)"></path><path d="M-133.01391294973453,197.2488668129733L-120.59177295266016,197.2488668129733L-126.73871512966453,176.02599323564476z" style="fill:rgb(186,45,138)"></path><path d="M-42.26761431706563,275.57302544856776L-42.26761431706563,287.99516544564216L-21.12311918827726,281.641589177032zM-42.26761431706563,227.26718051477823L-42.26761431706563,239.68932051185266L-21.12311918827726,233.3601738895407zM-42.26761431706563,178.96133558098876L-42.26761431706563,191.38347557806316L-21.12311918827726,185.07875860204945zM-42.26761431706563,130.6554906471992L-42.26761431706563,143.0776306442736L-21.12311918827726,136.79734331455816zM-42.26761431706563,82.3496457134097L-42.26761431706563,94.77178571048408L-21.12311918827726,88.51592802706679zM-42.26761431706563,34.0438007796201L-42.26761431706563,46.46594077669457L-21.12311918827726,40.23451273957549zM-42.26761431706563,-14.26204415416941L-42.26761431706563,-1.8399041570950194L-21.12311918827726,-8.046902547915803zM-42.26761431706563,-62.567889087958925L-42.26761431706563,-50.14574909088453L-21.12311918827726,-56.328317835407184z" style="fill:rgb(41,170,178)"></path></svg>