<svg viewBox="-812 -590 1624 1180" width="1624" height="1180" style="background-color: rgb(255, 255, 255);"><path d="M-429.8367728501565,100.97752759019555L388.89993734061716,100.97752759019555" style="fill:none;stroke:rgb(58,110,14);stroke-width:5;stroke-linecap:round"></path><path d="M388.89993734061716,100.97752759019555L388.89993734061716,19.103856571118182M343.41456455224085,100.97752759019555L343.41456455224085,19.103856571118182M297.9291917638646,100.97752759019555L297.9291917638646,19.103856571118182M252.4438189754882,100.97752759019555L252.4438189754882,19.103856571118182M206.9584461871119,100.97752759019555L206.9584461871119,19.103856571118182M161.4730733987356,100.97752759019555L161.4730733987356,19.103856571118182M115.9877006103593,100.97752759019555L115.9877006103593,19.103856571118182M70.502327821983,100.97752759019555L70.502327821983,19.103856571118182M25.016955033606706,100.97752759019555L25.016955033606706,19.103856571118182M-20.468417754769593,100.97752759019555L-20.468417754769593,19.103856571118182M-65.9537905431459,100.97752759019555L-65.9537905431459,19.103856571118182M-111.43916333152218,100.97752759019555L-111.43916333152218,19.103856571118182M-156.92453611989842,100.97752759019555L-156.92453611989842,19.103856571118182M-202.40990890827473,100.97752759019555L-202.40990890827473,19.103856571118182M-247.895281696651,100.97752759019555L-247.895281696651,19.103856571118182M-293.38065448502743,100.97752759019555L-293.38065448502743,19.103856571118182M-338.86602727340374,100.97752759019555L-338.86602727340374,19.103856571118182M-384.35140006178,100.97752759019555L-384.35140006178,19.103856571118182M-429.8367728501563,100.97752759019555L-429.8367728501563,19.103856571118182" style="fill:none;stroke:rgb(128,207,62);stroke-width:5;stroke-linecap:round"></path><path d="M-429.8367728501565,100.97752759019555L388.89993734061716,100.97752759019555M388.89993734061716,100.97752759019555L389.8634529569072,519.817937275877M-430.90171116289815,519.817937275877L-429.8367728501565,100.97752759019555" style="fill:none;stroke:rgb(0,0,0);stroke-width:1;stroke-linecap:round"></path><path d="M395.10907898935363,19.113223077805657L398.5586448717004,19.100281306351743L388.89993734061716,-1.3645611836511276zM379.09566545832735,19.100281306351743L383.07214632129757,19.113223077805657L388.89993734061716,-1.3645611836511276zM349.6014049945787,19.113223077805657L353.0817846184823,19.100281306351743L343.41456455224085,-1.3645611836511276zM333.6188052051093,19.100281306351743L337.5644723265226,19.113223077805657L343.41456455224085,-1.3645611836511276zM304.0937309998037,19.113223077805657L307.6049243652643,19.100281306351743L297.9291917638646,-1.3645611836511276zM288.1419449518913,19.100281306351743L292.0567983317476,19.113223077805657L297.9291917638646,-1.3645611836511276zM258.5860570050288,19.113223077805657L262.1280641120462,19.100281306351743L252.4438189754882,-1.3645611836511276zM242.66508469867324,19.100281306351743L246.54912433697265,19.113223077805657L252.4438189754882,-1.3645611836511276zM213.0783830102538,19.113223077805657L216.65120385882824,19.100281306351743L206.9584461871119,-1.3645611836511276zM197.1882244454552,19.100281306351743L201.04145034219772,19.113223077805657L206.9584461871119,-1.3645611836511276zM151.71136419223717,19.100281306351743L155.53377634742276,19.113223077805657L161.4730733987356,-1.3645611836511276zM167.57070901547885,19.113223077805657L171.17434360561023,19.100281306351743L161.4730733987356,-1.3645611836511276zM106.23450393901918,19.100281306351743L110.02610235264785,19.113223077805657L115.9877006103593,-1.3645611836511276zM122.06303502070388,19.113223077805657L125.69748335239221,19.100281306351743L115.9877006103593,-1.3645611836511276zM76.55536102592899,19.113223077805657L80.22062309917419,19.100281306351743L70.502327821983,-1.3645611836511276zM60.75764368580115,19.100281306351743L64.51842835787289,19.113223077805657L70.502327821983,-1.3645611836511276zM15.280783432583137,19.100281306351743L19.01075436309794,19.113223077805657L25.016955033606706,-1.3645611836511276zM31.047687031154037,19.113223077805657L34.74376284595617,19.100281306351743L25.016955033606706,-1.3645611836511276zM-30.196076820634882,19.100281306351743L-26.496919631677002,19.113223077805657L-20.468417754769593,-1.3645611836511276zM-14.459986963620906,19.113223077805657L-10.733097407261848,19.100281306351743L-20.468417754769593,-1.3645611836511276zM-59.967660958395854,19.113223077805657L-56.209957660479866,19.100281306351743L-65.9537905431459,-1.3645611836511276zM-75.67293707385284,19.100281306351743L-72.00459362645195,19.113223077805657L-65.9537905431459,-1.3645611836511276zM-121.14979732707091,19.100281306351743L-117.51226762122685,19.113223077805657L-111.43916333152218,-1.3645611836511276zM-105.4753349531708,19.113223077805657L-101.68681791369788,19.100281306351743L-111.43916333152218,-1.3645611836511276zM-166.62665758028893,19.100281306351743L-163.0199416160018,19.113223077805657L-156.92453611989842,-1.3645611836511276zM-150.98300894794573,19.113223077805657L-147.1636781669159,19.100281306351743L-156.92453611989842,-1.3645611836511276zM-212.10351783350697,19.100281306351743L-208.52761561077673,19.113223077805657L-202.40990890827473,-1.3645611836511276zM-196.4906829427207,19.113223077805657L-192.6405384201339,19.100281306351743L-202.40990890827473,-1.3645611836511276zM-241.99835693749566,19.113223077805657L-238.11739867335194,19.100281306351743L-247.895281696651,-1.3645611836511276zM-257.580378086725,19.100281306351743L-254.0352896055517,19.113223077805657L-247.895281696651,-1.3645611836511276zM-287.5060309322707,19.113223077805657L-283.5942589265699,19.100281306351743L-293.38065448502743,-1.3645611836511276zM-303.05723833994296,19.100281306351743L-299.54296360032674,19.113223077805657L-293.38065448502743,-1.3645611836511276zM-333.01370492704564,19.113223077805657L-329.071119179788,19.100281306351743L-338.86602727340374,-1.3645611836511276zM-348.534098593161,19.100281306351743L-345.0506375951017,19.113223077805657L-338.86602727340374,-1.3645611836511276zM-378.5213789218206,19.113223077805657L-374.547979433006,19.100281306351743L-384.35140006178,-1.3645611836511276zM-394.010958846379,19.100281306351743L-390.55831158987667,19.113223077805657L-384.35140006178,-1.3645611836511276zM-439.487819099597,19.100281306351743L-436.0659855846516,19.113223077805657L-429.8367728501563,-1.3645611836511276zM-424.02905291659556,19.113223077805657L-420.024839686224,19.100281306351743L-429.8367728501563,-1.3645611836511276zM383.07214632129757,19.113223077805657L395.10907898935363,19.113223077805657L388.89993734061716,-1.3645611836511276zM337.5644723265226,19.113223077805657L349.6014049945787,19.113223077805657L343.41456455224085,-1.3645611836511276zM292.0567983317476,19.113223077805657L304.0937309998037,19.113223077805657L297.9291917638646,-1.3645611836511276zM246.54912433697265,19.113223077805657L258.5860570050288,19.113223077805657L252.4438189754882,-1.3645611836511276zM201.04145034219772,19.113223077805657L213.0783830102538,19.113223077805657L206.9584461871119,-1.3645611836511276zM155.53377634742276,19.113223077805657L167.57070901547885,19.113223077805657L161.4730733987356,-1.3645611836511276zM110.02610235264785,19.113223077805657L122.06303502070388,19.113223077805657L115.9877006103593,-1.3645611836511276zM64.51842835787289,19.113223077805657L76.55536102592899,19.113223077805657L70.502327821983,-1.3645611836511276zM19.01075436309794,19.113223077805657L31.047687031154037,19.113223077805657L25.016955033606706,-1.3645611836511276zM-26.496919631677002,19.113223077805657L-14.459986963620906,19.113223077805657L-20.468417754769593,-1.3645611836511276zM-72.00459362645195,19.113223077805657L-59.967660958395854,19.113223077805657L-65.9537905431459,-1.3645611836511276zM-117.51226762122685,19.113223077805657L-105.4753349531708,19.113223077805657L-111.43916333152218,-1.3645611836511276zM-163.0199416160018,19.113223077805657L-150.98300894794573,19.113223077805657L-156.92453611989842,-1.3645611836511276zM-208.52761561077673,19.113223077805657L-196.4906829427207,19.113223077805657L-202.40990890827473,-1.3645611836511276zM-254.0352896055517,19.113223077805657L-241.99835693749566,19.113223077805657L-247.895281696651,-1.3645611836511276zM-299.54296360032674,19.113223077805657L-287.5060309322707,19.113223077805657L-293.38065448502743,-1.3645611836511276zM-345.0506375951017,19.113223077805657L-333.01370492704564,19.113223077805657L-338.86602727340374,-1.3645611836511276zM-390.55831158987667,19.113223077805657L-378.5213789218206,19.113223077805657L-384.35140006178,-1.3645611836511276zM-436.0659855846516,19.113223077805657L-424.02905291659556,19.113223077805657L-429.8367728501563,-1.3645611836511276z" style="fill:rgb(128,207,62)"></path><path d="M-429.8367728501565,100.97752759019555L388.89993734061716,100.97752759019555L389.8634529569072,519.817937275877zM-430.90171116289815,519.817937275877L389.8634529569072,519.817937275877L-429.8367728501565,100.97752759019555z" style="fill:rgb(0,0,0); fill-opacity: 0.2"></path><path d="M389.8634529569072,519.817937275877L-430.90171116289815,519.817937275877" style="fill:none;stroke:rgb(0,0,0);stroke-width:1;stroke-linecap:round"></path></svg>