<svg viewBox="-812 -590 1624 1180" width="1624" height="1180" style="background-color: rgb(255, 255, 255);"><path d="M386.2287473565003,298.3891805914729L373.8191654708388,298.3891805914729L380.2161453889945,298.540084527654zM338.3738787710753,298.3891805914729L325.9642968854138,298.3891805914729L332.3370752288989,298.540084527654zM290.5190101856503,298.3891805914729L278.10942829998874,298.3891805914729L284.45800506880335,298.540084527654zM242.66414160022526,298.3891805914729L230.2545597145637,298.3891805914729L236.5789349087078,298.540084527654zM194.80927301480023,298.3891805914729L182.39969112913866,298.3891805914729L188.6998647486122,298.540084527654zM146.95440442937522,298.3891805914729L134.54482254371365,298.3891805914729L140.82079458851666,298.540084527654zM99.0995358439502,298.3891805914729L86.68995395828865,298.3891805914729L92.94172442842113,298.540084527654zM51.24466725852518,298.3891805914729L38.83508537286369,298.3891805914729L45.062654268325545,298.540084527654zM3.389798673100209,298.3891805914729L-9.019783212561348,298.3891805914729L-2.8164158917699855,298.540084527654zM-44.46506991232482,298.3891805914729L-56.874651797986324,298.3891805914729L-50.69548605186557,298.540084527654zM-92.3199384977498,298.3891805914729L-104.72952038341136,298.3891805914729L-98.57455621196111,298.540084527654zM-140.17480708317478,298.3891805914729L-152.58438896883638,298.3891805914729L-146.45362637205676,298.540084527654zM-188.02967566859985,298.3891805914729L-200.43925755426136,298.3891805914729L-194.33269653215228,298.540084527654zM390.33618739657004,298.5977649956705L386.2287473565003,298.3891805914729L380.2161453889945,298.540084527654zM373.8191654708388,298.3891805914729L370.24302532825357,298.5977649956705L380.2161453889945,298.540084527654zM325.9642968854138,298.3891805914729L322.35470452706096,298.5977649956705L332.3370752288989,298.540084527654zM342.4478665953775,298.5977649956705L338.3738787710753,298.3891805914729L332.3370752288989,298.540084527654zM278.10942829998874,298.3891805914729L274.46638372586835,298.5977649956705L284.45800506880335,298.540084527654zM294.55954579418494,298.5977649956705L290.5190101856503,298.3891805914729L284.45800506880335,298.540084527654zM230.2545597145637,298.3891805914729L226.57806292467583,298.5977649956705L236.5789349087078,298.540084527654zM246.67122499299234,298.5977649956705L242.66414160022526,298.3891805914729L236.5789349087078,298.540084527654zM182.39969112913866,298.3891805914729L178.68974212348328,298.5977649956705L188.6998647486122,298.540084527654zM198.7829041917998,298.5977649956705L194.80927301480023,298.3891805914729L188.6998647486122,298.540084527654zM134.54482254371365,298.3891805914729L130.80142132229074,298.5977649956705L140.82079458851666,298.540084527654zM150.89458339060724,298.5977649956705L146.95440442937522,298.3891805914729L140.82079458851666,298.540084527654zM103.00626258941467,298.5977649956705L99.0995358439502,298.3891805914729L92.94172442842113,298.540084527654zM86.68995395828865,298.3891805914729L82.91310052109819,298.5977649956705L92.94172442842113,298.540084527654zM38.83508537286369,298.3891805914729L35.02477971990562,298.5977649956705L45.062654268325545,298.540084527654zM55.11794178822216,298.5977649956705L51.24466725852518,298.3891805914729L45.062654268325545,298.540084527654zM7.229620987029581,298.5977649956705L3.389798673100209,298.3891805914729L-2.8164158917699855,298.540084527654zM-9.019783212561348,298.3891805914729L-12.863541081286904,298.5977649956705L-2.8164158917699855,298.540084527654zM-40.65869981416294,298.5977649956705L-44.46506991232482,298.3891805914729L-50.69548605186557,298.540084527654zM-56.874651797986324,298.3891805914729L-60.751861882479474,298.5977649956705L-50.69548605186557,298.540084527654zM-104.72952038341136,298.3891805914729L-108.64018268367201,298.5977649956705L-98.57455621196111,298.540084527654zM-88.5470206153555,298.5977649956705L-92.3199384977498,298.3891805914729L-98.57455621196111,298.540084527654zM-152.58438896883638,298.3891805914729L-156.52850348486456,298.5977649956705L-146.45362637205676,298.540084527654zM-136.43534141654803,298.5977649956705L-140.17480708317478,298.3891805914729L-146.45362637205676,298.540084527654zM-184.32366221774055,298.5977649956705L-188.02967566859985,298.3891805914729L-194.33269653215228,298.540084527654zM-200.43925755426136,298.3891805914729L-204.41682428605708,298.5977649956705L-194.33269653215228,298.540084527654z" style="fill:rgb(128,207,62)"></path><path d="M-464.70862214210393,535.1190194363617L380.2161453889945,535.1190194363617L-464.70862214210393,-56.32831783540726zM-464.70862214210393,-56.32831783540726L380.2161453889945,-56.32831783540726L380.2161453889945,535.1190194363617z" style="fill:rgb(0,0,0); fill-opacity: 0.2"></path><path d="M380.2161453889945,535.1190194363617L-464.70862214210393,535.1190194363617M380.2161453889945,-56.32831783540726L380.2161453889945,535.1190194363617M-464.70862214210393,-56.32831783540726L380.2161453889945,-56.32831783540726M-464.70862214210393,535.1190194363617L-464.70862214210393,-56.32831783540726" style="fill:none;stroke:rgb(0,0,0);stroke-width:1;stroke-linecap:round"></path><path d="M-194.3326965321525,214.0476077745442L380.2161453889945,214.0476077745442" style="fill:none;stroke:rgb(58,110,14);stroke-width:5;stroke-linecap:round"></path><path d="M380.2161453889945,214.0476077745442L380.2161453889945,298.540084527654M332.3370752288989,214.0476077745442L332.3370752288989,298.540084527654M284.45800506880335,214.0476077745442L284.45800506880335,298.540084527654M236.5789349087078,214.0476077745442L236.5789349087078,298.540084527654M188.6998647486122,214.0476077745442L188.6998647486122,298.540084527654M140.82079458851666,214.0476077745442L140.82079458851666,298.540084527654M92.94172442842113,214.0476077745442L92.94172442842113,298.540084527654M45.062654268325545,214.0476077745442L45.062654268325545,298.540084527654M-2.8164158917699855,214.0476077745442L-2.8164158917699855,298.540084527654M-50.69548605186557,214.0476077745442L-50.69548605186557,298.540084527654M-98.57455621196111,214.0476077745442L-98.57455621196111,298.540084527654M-146.45362637205676,214.0476077745442L-146.45362637205676,298.540084527654M-194.33269653215228,214.0476077745442L-194.33269653215228,298.540084527654" style="fill:none;stroke:rgb(128,207,62);stroke-width:5;stroke-linecap:round"></path><path d="M-194.3326965321525,214.0476077745442L380.2161453889945,214.0476077745442L380.2161453889945,-56.32831783540726zM-464.70862214210393,-56.32831783540726L380.2161453889945,-56.32831783540726L-194.3326965321525,214.0476077745442z" style="fill:rgb(0,0,0); fill-opacity: 0.2"></path><path d="M-464.70862214210393,-56.32831783540726L-194.3326965321525,214.0476077745442M-194.3326965321525,214.0476077745442L380.2161453889945,214.0476077745442M380.2161453889945,214.0476077745442L380.2161453889945,-56.32831783540726M380.2161453889945,-56.32831783540726L-464.70862214210393,-56.32831783540726" style="fill:none;stroke:rgb(0,0,0);stroke-width:1;stroke-linecap:round"></path><path d="M-194.3326965321525,-56.32831783540726L-194.3326965321525,214.0476077745442" style="fill:none;stroke:rgb(97,2,64);stroke-width:5;stroke-linecap:round"></path><path d="M-194.3326965321525,214.0476077745442L-109.84021977904264,214.0476077745442M-194.3326965321525,159.97242265255386L-109.84021977904264,159.97242265255386M-194.3326965321525,105.89723753056357L-109.84021977904264,105.89723753056356M-194.3326965321525,51.82205240857321L-109.84021977904264,51.82205240857319M-194.3326965321525,-2.253132713417069L-109.84021977904264,-2.2531327134170875M-194.3326965321525,-56.32831783540743L-109.84021977904264,-56.328317835407454" style="fill:none;stroke:rgb(186,45,138);stroke-width:5;stroke-linecap:round"></path><path d="M-194.3326965321525,-56.32831783540726L-194.3326965321525,214.0476077745442L-464.70862214210393,-56.32831783540726zM-464.70862214210393,-56.32831783540726L-464.70862214210393,-56.32831783540726L-194.3326965321525,-56.32831783540726z" style="fill:rgb(0,0,0); fill-opacity: 0.2"></path><path d="M-464.70862214210393,-56.32831783540726L-464.70862214210393,-56.32831783540726M-464.70862214210393,-56.32831783540726L-194.3326965321525,-56.32831783540726M-194.3326965321525,-56.32831783540726L-194.3326965321525,214.0476077745442M-194.3326965321525,214.0476077745442L-464.70862214210393,-56.32831783540726" style="fill:none;stroke:rgb(0,0,0);stroke-width:1;stroke-linecap:round"></path><path d="M-109.89579722437104,220.36698253833677L-109.81900591745018,224.04896830664424L-88.71710059076517,214.04760777454413zM-109.81900591745018,203.96356757675056L-109.89579722437104,207.94484254126235L-88.71710059076517,214.04760777454413zM-109.89579722437104,166.2644362124925L-109.81900591745018,169.98422693189949L-88.71710059076517,159.97242265255386zM-109.81900591745018,149.89882620200578L-109.89579722437104,153.84229621541814L-88.71710059076517,159.97242265255386zM-109.81900591745018,95.83408482726098L-109.89579722437104,99.73974988957384L-88.71710059076517,105.89723753056357zM-109.89579722437104,112.16188988664823L-109.81900591745018,115.91948555715464L-88.71710059076517,105.89723753056357zM-109.89579722437104,58.05934356080387L-109.81900591745018,61.85474418240986L-88.71710059076517,51.82205240857321zM-109.81900591745018,41.76934345251612L-109.89579722437104,45.63720356372948L-88.71710059076517,51.82205240857321zM-109.89579722437104,3.9567972349595006L-109.81900591745018,7.790002807664989L-88.71710059076517,-2.253132713417069zM-109.81900591745018,-12.295397922228751L-109.89579722437104,-8.46534276211489L-88.71710059076517,-2.253132713417069zM-109.81900591745018,-66.36013929697363L-109.89579722437104,-62.56788908795926L-88.71710059076517,-56.32831783540743zM-109.89579722437104,-50.14574909088487L-109.81900591745018,-46.27473856707988L-88.71710059076517,-56.32831783540743z" style="fill:rgb(186,45,138)"></path><path d="M380.4539728342818,298.726823114324L390.33618739657004,298.5977649956705L380.2161453889945,298.540084527654zM390.33618739657004,298.5977649956705L380.4539728342818,298.726823114324L380.2161453889945,319.6632037159315zM370.24302532825357,298.5977649956705L380.4539728342818,298.726823114324L380.2161453889945,298.540084527654zM380.4539728342818,298.726823114324L370.24302532825357,298.5977649956705L380.2161453889945,319.6632037159315zM332.54495403292776,298.726823114324L322.35470452706096,298.5977649956705L332.3370752288989,319.6632037159315zM342.4478665953775,298.5977649956705L332.54495403292776,298.726823114324L332.3370752288989,319.6632037159315zM322.35470452706096,298.5977649956705L332.54495403292776,298.726823114324L332.3370752288989,298.540084527654zM332.54495403292776,298.726823114324L342.4478665953775,298.5977649956705L332.3370752288989,298.540084527654zM294.55954579418494,298.5977649956705L284.63593523157385,298.726823114324L284.45800506880335,319.6632037159315zM284.63593523157385,298.726823114324L274.46638372586835,298.5977649956705L284.45800506880335,319.6632037159315zM274.46638372586835,298.5977649956705L284.63593523157385,298.726823114324L284.45800506880335,298.540084527654zM284.63593523157385,298.726823114324L294.55954579418494,298.5977649956705L284.45800506880335,298.540084527654zM236.7269164302199,298.726823114324L246.67122499299234,298.5977649956705L236.5789349087078,298.540084527654zM236.7269164302199,298.726823114324L226.57806292467583,298.5977649956705L236.5789349087078,319.6632037159315zM246.67122499299234,298.5977649956705L236.7269164302199,298.726823114324L236.5789349087078,319.6632037159315zM226.57806292467583,298.5977649956705L236.7269164302199,298.726823114324L236.5789349087078,298.540084527654zM188.8178976288659,298.726823114324L198.7829041917998,298.5977649956705L188.6998647486122,298.540084527654zM178.68974212348328,298.5977649956705L188.8178976288659,298.726823114324L188.6998647486122,298.540084527654zM188.8178976288659,298.726823114324L178.68974212348328,298.5977649956705L188.6998647486122,319.6632037159315zM198.7829041917998,298.5977649956705L188.8178976288659,298.726823114324L188.6998647486122,319.6632037159315zM130.80142132229074,298.5977649956705L140.90887882751193,298.726823114324L140.82079458851666,298.540084527654zM140.90887882751193,298.726823114324L150.89458339060724,298.5977649956705L140.82079458851666,298.540084527654zM140.90887882751193,298.726823114324L130.80142132229074,298.5977649956705L140.82079458851666,319.6632037159315zM150.89458339060724,298.5977649956705L140.90887882751193,298.726823114324L140.82079458851666,319.6632037159315zM103.00626258941467,298.5977649956705L92.99986002615802,298.726823114324L92.94172442842113,319.6632037159315zM82.91310052109819,298.5977649956705L92.99986002615802,298.726823114324L92.94172442842113,298.540084527654zM92.99986002615802,298.726823114324L103.00626258941467,298.5977649956705L92.94172442842113,298.540084527654zM92.99986002615802,298.726823114324L82.91310052109819,298.5977649956705L92.94172442842113,319.6632037159315zM55.11794178822216,298.5977649956705L45.09084122480403,298.726823114324L45.062654268325545,319.6632037159315zM35.02477971990562,298.5977649956705L45.09084122480403,298.726823114324L45.062654268325545,298.540084527654zM45.09084122480403,298.726823114324L35.02477971990562,298.5977649956705L45.062654268325545,319.6632037159315zM45.09084122480403,298.726823114324L55.11794178822216,298.5977649956705L45.062654268325545,298.540084527654zM7.229620987029581,298.5977649956705L-2.818177576549891,298.726823114324L-2.8164158917699855,319.6632037159315zM-2.818177576549891,298.726823114324L-12.863541081286904,298.5977649956705L-2.8164158917699855,319.6632037159315zM-2.818177576549891,298.726823114324L7.229620987029581,298.5977649956705L-2.8164158917699855,298.540084527654zM-12.863541081286904,298.5977649956705L-2.818177576549891,298.726823114324L-2.8164158917699855,298.540084527654zM-50.72719637790387,298.726823114324L-40.65869981416294,298.5977649956705L-50.69548605186557,298.540084527654zM-50.72719637790387,298.726823114324L-60.751861882479474,298.5977649956705L-50.69548605186557,319.6632037159315zM-60.751861882479474,298.5977649956705L-50.72719637790387,298.726823114324L-50.69548605186557,298.540084527654zM-40.65869981416294,298.5977649956705L-50.72719637790387,298.726823114324L-50.69548605186557,319.6632037159315zM-98.63621517925779,298.726823114324L-108.64018268367201,298.5977649956705L-98.57455621196111,319.6632037159315zM-88.5470206153555,298.5977649956705L-98.63621517925779,298.726823114324L-98.57455621196111,319.6632037159315zM-108.64018268367201,298.5977649956705L-98.63621517925779,298.726823114324L-98.57455621196111,298.540084527654zM-98.63621517925779,298.726823114324L-88.5470206153555,298.5977649956705L-98.57455621196111,298.540084527654zM-146.5452339806118,298.726823114324L-156.52850348486456,298.5977649956705L-146.45362637205676,319.6632037159315zM-146.5452339806118,298.726823114324L-136.43534141654803,298.5977649956705L-146.45362637205676,298.540084527654zM-156.52850348486456,298.5977649956705L-146.5452339806118,298.726823114324L-146.45362637205676,298.540084527654zM-136.43534141654803,298.5977649956705L-146.5452339806118,298.726823114324L-146.45362637205676,319.6632037159315zM-184.32366221774055,298.5977649956705L-194.45425278196575,298.726823114324L-194.33269653215228,319.6632037159315zM-204.41682428605708,298.5977649956705L-194.45425278196575,298.726823114324L-194.33269653215228,298.540084527654zM-194.45425278196575,298.726823114324L-184.32366221774055,298.5977649956705L-194.33269653215228,298.540084527654zM-194.45425278196575,298.726823114324L-204.41682428605708,298.5977649956705L-194.33269653215228,319.6632037159315z" style="fill:rgb(128,207,62)"></path><path d="M-109.89579722437104,207.94484254126235L-109.89579722437104,220.36698253833677L-88.71710059076517,214.04760777454413zM-109.89579722437104,153.84229621541814L-109.89579722437104,166.2644362124925L-88.71710059076517,159.97242265255386zM-109.89579722437104,99.73974988957384L-109.89579722437104,112.16188988664823L-88.71710059076517,105.89723753056357zM-109.89579722437104,45.63720356372948L-109.89579722437104,58.05934356080387L-88.71710059076517,51.82205240857321zM-109.89579722437104,-8.46534276211489L-109.89579722437104,3.9567972349595006L-88.71710059076517,-2.253132713417069zM-109.89579722437104,-62.56788908795926L-109.89579722437104,-50.14574909088487L-88.71710059076517,-56.32831783540743z" style="fill:rgb(186,45,138)"></path></svg>