<svg viewBox="-812 -590 1624 1180" width="1624" height="1180" style="background-color: rgb(255, 255, 255);"><path d="M370.1000124262278,-444.90776756300505L379.9786150969094,-444.71571248379087L380.2161453889945,-444.99371089971277zM379.9786150969094,-444.71571248379087L390.1854131561215,-444.90776756300505L380.2161453889945,-444.99371089971277zM329.3147997506548,-444.71571248379087L339.49971811729824,-444.90776756300505L329.5206593371286,-444.99371089971277zM319.41431738740454,-444.90776756300505L329.3147997506548,-444.71571248379087L329.5206593371286,-444.99371089971277zM268.72862234858127,-444.90776756300505L278.6509844044002,-444.71571248379087L278.8251732852627,-444.99371089971277zM278.6509844044002,-444.71571248379087L288.814023078475,-444.90776756300505L278.8251732852627,-444.99371089971277zM218.04292730975803,-444.90776756300505L227.98716905814567,-444.71571248379087L228.12968723339677,-444.99371089971277zM227.98716905814567,-444.71571248379087L238.1283280396517,-444.90776756300505L228.12968723339677,-444.99371089971277zM167.35723227093476,-444.90776756300505L177.32335371189114,-444.71571248379087L177.43420118153088,-444.99371089971277zM177.32335371189114,-444.71571248379087L187.44263300082844,-444.90776756300505L177.43420118153088,-444.99371089971277zM116.6715372321115,-444.90776756300505L126.65953836563658,-444.71571248379087L126.73871512966498,-444.99371089971277zM126.65953836563658,-444.71571248379087L136.75693796200517,-444.90776756300505L126.73871512966498,-444.99371089971277zM75.99572301938198,-444.71571248379087L86.0712429231819,-444.90776756300505L76.04322907779903,-444.99371089971277zM65.98584219328825,-444.90776756300505L75.99572301938198,-444.71571248379087L76.04322907779903,-444.99371089971277zM25.331907673127425,-444.71571248379087L35.38554788435864,-444.90776756300505L25.347743025933106,-444.99371089971277zM15.300147154464918,-444.90776756300505L25.331907673127425,-444.71571248379087L25.347743025933106,-444.99371089971277zM-35.38554788435829,-444.90776756300505L-25.331907673127077,-444.71571248379087L-25.347743025932758,-444.99371089971277zM-25.331907673127077,-444.71571248379087L-15.30014715446463,-444.90776756300505L-25.347743025932758,-444.99371089971277zM-75.99572301938164,-444.71571248379087L-65.98584219328784,-444.90776756300505L-76.04322907779867,-444.99371089971277zM-86.07124292318156,-444.90776756300505L-75.99572301938164,-444.71571248379087L-76.04322907779867,-444.99371089971277zM-136.75693796200477,-444.90776756300505L-126.65953836563615,-444.71571248379087L-126.73871512966453,-444.99371089971277zM-126.65953836563615,-444.71571248379087L-116.67153723211106,-444.90776756300505L-126.73871512966453,-444.99371089971277z" style="fill:rgb(128,207,62)"></path><path d="M-126.65953836563615,-444.71571248379087L-116.67153723211106,-444.90776756300505L-126.73871512966453,-444.99371089971277zM-136.75693796200477,-444.90776756300505L-126.65953836563615,-444.71571248379087L-126.73871512966453,-444.99371089971277zM-90.95951789435935,-444.71571248379087L-80.956099337822,-444.90776756300505L-91.01637804383871,-444.99371089971277zM-101.0415000677157,-444.90776756300505L-90.95951789435935,-444.71571248379087L-91.01637804383871,-444.99371089971277zM-29.345889168162188,-444.90776756300505L-19.294856120073,-444.71571248379087L-19.306917622030877,-444.99371089971277zM-19.294856120073,-444.71571248379087L-9.260488438268528,-444.90776756300505L-19.306917622030877,-444.99371089971277zM25.05269686638886,-444.71571248379087L35.10621649754588,-444.90776756300505L25.068357680360393,-444.99371089971277zM15.020815767652161,-444.90776756300505L25.05269686638886,-444.71571248379087L25.068357680360393,-444.99371089971277zM84.74623827415083,-444.71571248379087L94.825537178452,-444.90776756300505L84.7992144099927,-444.99371089971277zM74.74013644855833,-444.90776756300505L84.74623827415083,-444.71571248379087L84.7992144099927,-444.99371089971277zM93.15825065968423,-444.90776756300505L103.1564018657513,-444.71571248379087L103.22088646907399,-444.99371089971277zM103.1564018657513,-444.71571248379087L113.24365138957795,-444.90776756300505L103.22088646907399,-444.99371089971277zM149.4265400654328,-444.90776756300505L159.40040171854767,-444.71571248379087L159.50004528393367,-444.99371089971277zM159.40040171854767,-444.71571248379087L169.5119407953265,-444.90776756300505L159.50004528393367,-444.99371089971277zM201.1476956301501,-444.90776756300505L211.09923060939403,-444.71571248379087L211.23119188277468,-444.99371089971277zM211.09923060939403,-444.71571248379087L221.23309636004382,-444.90776756300505L211.23119188277468,-444.99371089971277z" style="fill:rgb(186,45,138)"></path><path d="M-464.70862214210393,535.1190194363617L380.2161453889945,535.1190194363617L-464.70862214210393,-56.32831783540726zM-464.70862214210393,-56.32831783540726L380.2161453889945,-56.32831783540726L380.2161453889945,535.1190194363617z" style="fill:rgb(0,0,0); fill-opacity: 0.2"></path><path d="M-464.70862214210393,535.1190194363617L-464.70862214210393,-56.32831783540726M-464.70862214210393,-56.32831783540726L380.2161453889945,-56.32831783540726M380.2161453889945,-56.32831783540726L380.2161453889945,535.1190194363617M380.2161453889945,535.1190194363617L-464.70862214210393,535.1190194363617" style="fill:none;stroke:rgb(0,0,0);stroke-width:1;stroke-linecap:round"></path><path d="M-464.70862214210393,-56.32831783540726L380.2161453889945,-56.32831783540726L-126.73871512966453,281.6415891770321zM-126.73871512966453,281.6415891770321L380.2161453889945,281.6415891770321L380.2161453889945,-56.32831783540726z" style="fill:rgb(0,0,0); fill-opacity: 0.2"></path><path d="M380.2161453889945,-56.32831783540726L-464.70862214210393,-56.32831783540726M-464.70862214210393,-56.32831783540726L-126.73871512966453,281.6415891770321M-126.73871512966453,281.6415891770321L380.2161453889945,281.6415891770321M380.2161453889945,281.6415891770321L380.2161453889945,-56.32831783540726" style="fill:none;stroke:rgb(0,0,0);stroke-width:1;stroke-linecap:round"></path><path d="M-464.70862214210393,-56.32831783540726L-464.70862214210393,-56.32831783540726L-126.73871512966453,-56.32831783540726zM-126.73871512966453,-56.32831783540726L-126.73871512966453,281.6415891770321L-464.70862214210393,-56.32831783540726z" style="fill:rgb(0,0,0); fill-opacity: 0.2"></path><path d="M-464.70862214210393,-56.32831783540726L-126.73871512966453,-56.32831783540726M-126.73871512966453,281.6415891770321L-464.70862214210393,-56.32831783540726M-464.70862214210393,-56.32831783540726L-464.70862214210393,-56.32831783540726M-126.73871512966453,-56.32831783540726L-126.73871512966453,281.6415891770321" style="fill:none;stroke:rgb(0,0,0);stroke-width:1;stroke-linecap:round"></path><path d="M-126.73871512966453,281.6415891770321L380.2161453889945,281.6415891770321L-126.73871512966453,-56.32831783540726zM-126.73871512966453,-56.32831783540726L380.2161453889945,-56.32831783540726L380.2161453889945,281.6415891770321z" style="fill:rgb(0,0,0); fill-opacity: 0.2"></path><path d="M380.2161453889945,281.6415891770321L-126.73871512966453,281.6415891770321M-126.73871512966453,281.6415891770321L-126.73871512966453,-56.32831783540726M-126.73871512966453,-56.32831783540726L380.2161453889945,-56.32831783540726M380.2161453889945,-56.32831783540726L380.2161453889945,281.6415891770321" style="fill:none;stroke:rgb(0,0,0);stroke-width:1;stroke-linecap:round"></path><path d="M211.23119188277482,-56.32831783540726L-126.73871512966453,-56.32831783540726L-126.73871512966453,281.6415891770321zM-126.73871512966453,281.6415891770321L-126.73871512966453,281.6415891770321L211.23119188277482,-56.32831783540726z" style="fill:rgb(0,0,0); fill-opacity: 0.2"></path><path d="M-126.73871512966453,281.6415891770321L211.23119188277482,-56.32831783540726M211.23119188277482,-56.32831783540726L-126.73871512966453,-56.32831783540726M-126.73871512966453,281.6415891770321L-126.73871512966453,281.6415891770321M-126.73871512966453,-56.32831783540726L-126.73871512966453,281.6415891770321" style="fill:none;stroke:rgb(0,0,0);stroke-width:1;stroke-linecap:round"></path><path d="M-126.73871512966453,-56.32831783540726L-126.73871512966453,281.6415891770321L211.23119188277482,-56.32831783540726zM211.23119188277482,-56.32831783540726L211.23119188277482,-56.32831783540726L-126.73871512966453,281.6415891770321z" style="fill:rgb(0,0,0); fill-opacity: 0.2"></path><path d="M-126.73871512966453,281.6415891770321L-126.73871512966453,-56.32831783540726M211.23119188277482,-56.32831783540726L-126.73871512966453,281.6415891770321M211.23119188277482,-56.32831783540726L211.23119188277482,-56.32831783540726M-126.73871512966453,-56.32831783540726L211.23119188277482,-56.32831783540726" style="fill:none;stroke:rgb(0,0,0);stroke-width:1;stroke-linecap:round"></path><path d="M-126.73871512966453,-360.5012341466029L380.2161453889945,-360.5012341466029" style="fill:none;stroke:rgb(58,110,14);stroke-width:5;stroke-linecap:round"></path><path d="M380.2161453889945,-360.5012341466029L380.2161453889945,-444.99371089971277M329.5206593371286,-360.5012341466029L329.5206593371286,-444.99371089971277M278.8251732852627,-360.5012341466029L278.8251732852627,-444.99371089971277M228.12968723339677,-360.5012341466029L228.12968723339677,-444.99371089971277M177.43420118153088,-360.5012341466029L177.43420118153088,-444.99371089971277M126.73871512966498,-360.5012341466029L126.73871512966498,-444.99371089971277M76.04322907779903,-360.5012341466029L76.04322907779903,-444.99371089971277M25.347743025933106,-360.5012341466029L25.347743025933106,-444.99371089971277M-25.347743025932758,-360.5012341466029L-25.347743025932758,-444.99371089971277M-76.04322907779867,-360.5012341466029L-76.04322907779867,-444.99371089971277M-126.73871512966453,-360.5012341466029L-126.73871512966453,-444.99371089971277" style="fill:none;stroke:rgb(128,207,62);stroke-width:5;stroke-linecap:round"></path><path d="M-126.73871512966453,-56.32831783540726L380.2161453889945,-56.32831783540726L-126.73871512966453,-360.5012341466029zM-126.73871512966453,-360.5012341466029L380.2161453889945,-360.5012341466029L380.2161453889945,-56.32831783540726z" style="fill:rgb(0,0,0); fill-opacity: 0.2"></path><path d="M-126.73871512966453,-360.5012341466029L380.2161453889945,-360.5012341466029M380.2161453889945,-56.32831783540726L-126.73871512966453,-56.32831783540726M380.2161453889945,-360.5012341466029L380.2161453889945,-56.32831783540726M-126.73871512966453,-56.32831783540726L-126.73871512966453,-360.5012341466029" style="fill:none;stroke:rgb(0,0,0);stroke-width:1;stroke-linecap:round"></path><path d="M211.23119188277482,-360.5012341466029L-126.73871512966453,-360.5012341466029" style="fill:none;stroke:rgb(97,2,64);stroke-width:5;stroke-linecap:round"></path><path d="M-126.73871512966453,-360.5012341466029L-126.73871512966453,-444.99371089971277M-91.01637804383871,-360.5012341466029L-91.01637804383871,-444.99371089971277M-19.306917622030877,-360.5012341466029L-19.306917622030877,-444.99371089971277M25.068357680360393,-360.5012341466029L25.068357680360393,-444.99371089971277M84.7992144099927,-360.5012341466029L84.7992144099927,-444.99371089971277M103.22088646907399,-360.5012341466029L103.22088646907399,-444.99371089971277M159.50004528393367,-360.5012341466029L159.50004528393367,-444.99371089971277M211.23119188277468,-360.5012341466029L211.23119188277468,-444.99371089971277" style="fill:none;stroke:rgb(186,45,138);stroke-width:5;stroke-linecap:round"></path><path d="M211.23119188277482,-360.5012341466029L-126.73871512966453,-360.5012341466029L-126.73871512966453,-56.32831783540726zM211.23119188277482,-56.32831783540726L-126.73871512966453,-56.32831783540726L211.23119188277482,-360.5012341466029z" style="fill:rgb(0,0,0); fill-opacity: 0.2"></path><path d="M-126.73871512966453,-360.5012341466029L-126.73871512966453,-56.32831783540726M-126.73871512966453,-56.32831783540726L211.23119188277482,-56.32831783540726M211.23119188277482,-56.32831783540726L211.23119188277482,-360.5012341466029M211.23119188277482,-360.5012341466029L-126.73871512966453,-360.5012341466029" style="fill:none;stroke:rgb(0,0,0);stroke-width:1;stroke-linecap:round"></path><path d="M386.61959885213014,-445.218870806428L390.1854131561215,-444.90776756300505L380.2161453889945,-466.11683008799014zM374.1974588550558,-445.218870806428L370.1000124262278,-444.90776756300505L380.2161453889945,-444.99371089971277zM390.1854131561215,-444.90776756300505L386.61959885213014,-445.218870806428L380.2161453889945,-444.99371089971277zM370.1000124262278,-444.90776756300505L374.1974588550558,-445.218870806428L380.2161453889945,-466.11683008799014zM339.49971811729824,-444.90776756300505L335.89846167165115,-445.218870806428L329.5206593371286,-444.99371089971277zM319.41431738740454,-444.90776756300505L323.47632167457675,-445.218870806428L329.5206593371286,-466.11683008799014zM335.89846167165115,-445.218870806428L339.49971811729824,-444.90776756300505L329.5206593371286,-466.11683008799014zM323.47632167457675,-445.218870806428L319.41431738740454,-444.90776756300505L329.5206593371286,-444.99371089971277zM285.1773244911721,-445.218870806428L288.814023078475,-444.90776756300505L278.8251732852627,-466.11683008799014zM268.72862234858127,-444.90776756300505L272.7551844940977,-445.218870806428L278.8251732852627,-466.11683008799014zM272.7551844940977,-445.218870806428L268.72862234858127,-444.90776756300505L278.8251732852627,-444.99371089971277zM288.814023078475,-444.90776756300505L285.1773244911721,-445.218870806428L278.8251732852627,-444.99371089971277zM218.04292730975803,-444.90776756300505L222.03404731361866,-445.218870806428L228.12968723339677,-466.11683008799014zM234.45618731069305,-445.218870806428L238.1283280396517,-444.90776756300505L228.12968723339677,-466.11683008799014zM222.03404731361866,-445.218870806428L218.04292730975803,-444.90776756300505L228.12968723339677,-444.99371089971277zM238.1283280396517,-444.90776756300505L234.45618731069305,-445.218870806428L228.12968723339677,-444.99371089971277zM183.735050130214,-445.218870806428L187.44263300082844,-444.90776756300505L177.43420118153088,-466.11683008799014zM167.35723227093476,-444.90776756300505L171.31291013313964,-445.218870806428L177.43420118153088,-466.11683008799014zM187.44263300082844,-444.90776756300505L183.735050130214,-445.218870806428L177.43420118153088,-444.99371089971277zM171.31291013313964,-445.218870806428L167.35723227093476,-444.90776756300505L177.43420118153088,-444.99371089971277zM133.01391294973496,-445.218870806428L136.75693796200517,-444.90776756300505L126.73871512966498,-466.11683008799014zM136.75693796200517,-444.90776756300505L133.01391294973496,-445.218870806428L126.73871512966498,-444.99371089971277zM116.6715372321115,-444.90776756300505L120.59177295266056,-445.218870806428L126.73871512966498,-466.11683008799014zM120.59177295266056,-445.218870806428L116.6715372321115,-444.90776756300505L126.73871512966498,-444.99371089971277zM65.98584219328825,-444.90776756300505L69.87063577218153,-445.218870806428L76.04322907779903,-466.11683008799014zM69.87063577218153,-445.218870806428L65.98584219328825,-444.90776756300505L76.04322907779903,-444.99371089971277zM86.0712429231819,-444.90776756300505L82.29277576925595,-445.218870806428L76.04322907779903,-444.99371089971277zM82.29277576925595,-445.218870806428L86.0712429231819,-444.90776756300505L76.04322907779903,-466.11683008799014zM19.14949859170243,-445.218870806428L15.300147154464918,-444.90776756300505L25.347743025933106,-444.99371089971277zM15.300147154464918,-444.90776756300505L19.14949859170243,-445.218870806428L25.347743025933106,-466.11683008799014zM31.571638588776846,-445.218870806428L35.38554788435864,-444.90776756300505L25.347743025933106,-466.11683008799014zM35.38554788435864,-444.90776756300505L31.571638588776846,-445.218870806428L25.347743025933106,-444.99371089971277zM-19.14949859170214,-445.218870806428L-15.30014715446463,-444.90776756300505L-25.347743025932758,-466.11683008799014zM-15.30014715446463,-444.90776756300505L-19.14949859170214,-445.218870806428L-25.347743025932758,-444.99371089971277zM-35.38554788435829,-444.90776756300505L-31.57163858877656,-445.218870806428L-25.347743025932758,-466.11683008799014zM-31.57163858877656,-445.218870806428L-35.38554788435829,-444.90776756300505L-25.347743025932758,-444.99371089971277zM-69.87063577218112,-445.218870806428L-65.98584219328784,-444.90776756300505L-76.04322907779867,-466.11683008799014zM-82.29277576925554,-445.218870806428L-86.07124292318156,-444.90776756300505L-76.04322907779867,-444.99371089971277zM-86.07124292318156,-444.90776756300505L-82.29277576925554,-445.218870806428L-76.04322907779867,-466.11683008799014zM-65.98584219328784,-444.90776756300505L-69.87063577218112,-445.218870806428L-76.04322907779867,-444.99371089971277zM-136.75693796200477,-444.90776756300505L-133.01391294973453,-445.218870806428L-126.73871512966453,-466.11683008799014zM-120.59177295266016,-445.218870806428L-116.67153723211106,-444.90776756300505L-126.73871512966453,-466.11683008799014zM-133.01391294973453,-445.218870806428L-136.75693796200477,-444.90776756300505L-126.73871512966453,-444.99371089971277zM-116.67153723211106,-444.90776756300505L-120.59177295266016,-445.218870806428L-126.73871512966453,-444.99371089971277z" style="fill:rgb(128,207,62)"></path><path d="M-120.59177295266016,-445.218870806428L-116.67153723211106,-444.90776756300505L-126.73871512966453,-466.11683008799014zM-116.67153723211106,-444.90776756300505L-120.59177295266016,-445.218870806428L-126.73871512966453,-444.99371089971277zM-136.75693796200477,-444.90776756300505L-133.01391294973453,-445.218870806428L-126.73871512966453,-466.11683008799014zM-133.01391294973453,-445.218870806428L-136.75693796200477,-444.90776756300505L-126.73871512966453,-444.99371089971277zM-101.0415000677157,-444.90776756300505L-97.27350091613107,-445.218870806428L-91.01637804383871,-466.11683008799014zM-97.27350091613107,-445.218870806428L-101.0415000677157,-444.90776756300505L-91.01637804383871,-444.99371089971277zM-80.956099337822,-444.90776756300505L-84.8513609190567,-445.218870806428L-91.01637804383871,-444.99371089971277zM-84.8513609190567,-445.218870806428L-80.956099337822,-444.90776756300505L-91.01637804383871,-466.11683008799014zM-9.260488438268528,-444.90776756300505L-13.10561662396321,-445.218870806428L-19.306917622030877,-444.99371089971277zM-13.10561662396321,-445.218870806428L-9.260488438268528,-444.90776756300505L-19.306917622030877,-466.11683008799014zM-29.345889168162188,-444.90776756300505L-25.52775662103763,-445.218870806428L-19.306917622030877,-466.11683008799014zM-25.52775662103763,-445.218870806428L-29.345889168162188,-444.90776756300505L-19.306917622030877,-444.99371089971277zM18.86997188148387,-445.218870806428L15.020815767652161,-444.90776756300505L25.068357680360393,-444.99371089971277zM35.10621649754588,-444.90776756300505L31.29211187855829,-445.218870806428L25.068357680360393,-444.99371089971277zM31.29211187855829,-445.218870806428L35.10621649754588,-444.90776756300505L25.068357680360393,-466.11683008799014zM15.020815767652161,-444.90776756300505L18.86997188148387,-445.218870806428L25.068357680360393,-466.11683008799014zM91.05319149404232,-445.218870806428L94.825537178452,-444.90776756300505L84.7992144099927,-466.11683008799014zM78.63105149696791,-445.218870806428L74.74013644855833,-444.90776756300505L84.7992144099927,-444.99371089971277zM74.74013644855833,-444.90776756300505L78.63105149696791,-445.218870806428L84.7992144099927,-466.11683008799014zM94.825537178452,-444.90776756300505L91.05319149404232,-445.218870806428L84.7992144099927,-444.99371089971277zM97.06204463601235,-445.218870806428L93.15825065968423,-444.90776756300505L103.22088646907399,-444.99371089971277zM109.48418463308677,-445.218870806428L113.24365138957795,-444.90776756300505L103.22088646907399,-466.11683008799014zM113.24365138957795,-444.90776756300505L109.48418463308677,-445.218870806428L103.22088646907399,-444.99371089971277zM93.15825065968423,-444.90776756300505L97.06204463601235,-445.218870806428L103.22088646907399,-466.11683008799014zM169.5119407953265,-444.90776756300505L165.79181982826006,-445.218870806428L159.50004528393367,-444.99371089971277zM149.4265400654328,-444.90776756300505L153.36967983118564,-445.218870806428L159.50004528393367,-466.11683008799014zM165.79181982826006,-445.218870806428L169.5119407953265,-444.90776756300505L159.50004528393367,-466.11683008799014zM153.36967983118564,-445.218870806428L149.4265400654328,-444.90776756300505L159.50004528393367,-444.99371089971277zM201.1476956301501,-444.90776756300505L205.12700158679218,-445.218870806428L211.23119188277468,-466.11683008799014zM217.5491415838666,-445.218870806428L221.23309636004382,-444.90776756300505L211.23119188277468,-466.11683008799014zM205.12700158679218,-445.218870806428L201.1476956301501,-444.90776756300505L211.23119188277468,-444.99371089971277zM221.23309636004382,-444.90776756300505L217.5491415838666,-445.218870806428L211.23119188277468,-444.99371089971277z" style="fill:rgb(186,45,138)"></path><path d="M374.1974588550558,-445.218870806428L386.61959885213014,-445.218870806428L380.2161453889945,-466.11683008799014zM386.61959885213014,-445.218870806428L374.1974588550558,-445.218870806428L380.2161453889945,-444.99371089971277zM335.89846167165115,-445.218870806428L323.47632167457675,-445.218870806428L329.5206593371286,-444.99371089971277zM323.47632167457675,-445.218870806428L335.89846167165115,-445.218870806428L329.5206593371286,-466.11683008799014zM285.1773244911721,-445.218870806428L272.7551844940977,-445.218870806428L278.8251732852627,-444.99371089971277zM272.7551844940977,-445.218870806428L285.1773244911721,-445.218870806428L278.8251732852627,-466.11683008799014zM234.45618731069305,-445.218870806428L222.03404731361866,-445.218870806428L228.12968723339677,-444.99371089971277zM222.03404731361866,-445.218870806428L234.45618731069305,-445.218870806428L228.12968723339677,-466.11683008799014zM183.735050130214,-445.218870806428L171.31291013313964,-445.218870806428L177.43420118153088,-444.99371089971277zM171.31291013313964,-445.218870806428L183.735050130214,-445.218870806428L177.43420118153088,-466.11683008799014zM133.01391294973496,-445.218870806428L120.59177295266056,-445.218870806428L126.73871512966498,-444.99371089971277zM120.59177295266056,-445.218870806428L133.01391294973496,-445.218870806428L126.73871512966498,-466.11683008799014zM69.87063577218153,-445.218870806428L82.29277576925595,-445.218870806428L76.04322907779903,-466.11683008799014zM82.29277576925595,-445.218870806428L69.87063577218153,-445.218870806428L76.04322907779903,-444.99371089971277zM19.14949859170243,-445.218870806428L31.571638588776846,-445.218870806428L25.347743025933106,-466.11683008799014zM31.571638588776846,-445.218870806428L19.14949859170243,-445.218870806428L25.347743025933106,-444.99371089971277zM-31.57163858877656,-445.218870806428L-19.14949859170214,-445.218870806428L-25.347743025932758,-466.11683008799014zM-19.14949859170214,-445.218870806428L-31.57163858877656,-445.218870806428L-25.347743025932758,-444.99371089971277zM-69.87063577218112,-445.218870806428L-82.29277576925554,-445.218870806428L-76.04322907779867,-444.99371089971277zM-82.29277576925554,-445.218870806428L-69.87063577218112,-445.218870806428L-76.04322907779867,-466.11683008799014zM-133.01391294973453,-445.218870806428L-120.59177295266016,-445.218870806428L-126.73871512966453,-466.11683008799014zM-120.59177295266016,-445.218870806428L-133.01391294973453,-445.218870806428L-126.73871512966453,-444.99371089971277z" style="fill:rgb(128,207,62)"></path><path d="M-120.59177295266016,-445.218870806428L-133.01391294973453,-445.218870806428L-126.73871512966453,-444.99371089971277zM-133.01391294973453,-445.218870806428L-120.59177295266016,-445.218870806428L-126.73871512966453,-466.11683008799014zM-97.27350091613107,-445.218870806428L-84.8513609190567,-445.218870806428L-91.01637804383871,-466.11683008799014zM-84.8513609190567,-445.218870806428L-97.27350091613107,-445.218870806428L-91.01637804383871,-444.99371089971277zM-13.10561662396321,-445.218870806428L-25.52775662103763,-445.218870806428L-19.306917622030877,-444.99371089971277zM-25.52775662103763,-445.218870806428L-13.10561662396321,-445.218870806428L-19.306917622030877,-466.11683008799014zM31.29211187855829,-445.218870806428L18.86997188148387,-445.218870806428L25.068357680360393,-444.99371089971277zM18.86997188148387,-445.218870806428L31.29211187855829,-445.218870806428L25.068357680360393,-466.11683008799014zM78.63105149696791,-445.218870806428L91.05319149404232,-445.218870806428L84.7992144099927,-466.11683008799014zM91.05319149404232,-445.218870806428L78.63105149696791,-445.218870806428L84.7992144099927,-444.99371089971277zM109.48418463308677,-445.218870806428L97.06204463601235,-445.218870806428L103.22088646907399,-444.99371089971277zM97.06204463601235,-445.218870806428L109.48418463308677,-445.218870806428L103.22088646907399,-466.11683008799014zM153.36967983118564,-445.218870806428L165.79181982826006,-445.218870806428L159.50004528393367,-466.11683008799014zM165.79181982826006,-445.218870806428L153.36967983118564,-445.218870806428L159.50004528393367,-444.99371089971277zM217.5491415838666,-445.218870806428L205.12700158679218,-445.218870806428L211.23119188277468,-444.99371089971277zM205.12700158679218,-445.218870806428L217.5491415838666,-445.218870806428L211.23119188277468,-466.11683008799014z" style="fill:rgb(186,45,138)"></path></svg>