<svg viewBox="-812 -590 1624 1180" width="1624" height="1180" style="background-color: rgb(255, 255, 255);"><path d="M370.1000124262278,-166.1364448494771L379.9786150969094,-166.06472807939076L380.2161453889945,-166.1685376144502zM379.9786150969094,-166.06472807939076L390.1854131561215,-166.1364448494771L380.2161453889945,-166.1685376144502zM329.3147997506548,-166.06472807939076L339.49971811729824,-166.1364448494771L329.5206593371286,-166.1685376144502zM319.41431738740454,-166.1364448494771L329.3147997506548,-166.06472807939076L329.5206593371286,-166.1685376144502zM268.72862234858127,-166.1364448494771L278.6509844044002,-166.06472807939076L278.8251732852627,-166.1685376144502zM278.6509844044002,-166.06472807939076L288.814023078475,-166.1364448494771L278.8251732852627,-166.1685376144502zM218.04292730975803,-166.1364448494771L227.98716905814567,-166.06472807939076L228.12968723339677,-166.1685376144502zM227.98716905814567,-166.06472807939076L238.1283280396517,-166.1364448494771L228.12968723339677,-166.1685376144502zM167.35723227093476,-166.1364448494771L177.32335371189114,-166.06472807939076L177.43420118153088,-166.1685376144502zM177.32335371189114,-166.06472807939076L187.44263300082844,-166.1364448494771L177.43420118153088,-166.1685376144502zM116.6715372321115,-166.1364448494771L126.65953836563658,-166.06472807939076L126.73871512966498,-166.1685376144502zM126.65953836563658,-166.06472807939076L136.75693796200517,-166.1364448494771L126.73871512966498,-166.1685376144502zM75.99572301938198,-166.06472807939076L86.0712429231819,-166.1364448494771L76.04322907779903,-166.1685376144502zM65.98584219328825,-166.1364448494771L75.99572301938198,-166.06472807939076L76.04322907779903,-166.1685376144502zM25.331907673127425,-166.06472807939076L35.38554788435864,-166.1364448494771L25.347743025933106,-166.1685376144502zM15.300147154464918,-166.1364448494771L25.331907673127425,-166.06472807939076L25.347743025933106,-166.1685376144502zM-35.38554788435829,-166.1364448494771L-25.331907673127077,-166.06472807939076L-25.347743025932758,-166.1685376144502zM-25.331907673127077,-166.06472807939076L-15.30014715446463,-166.1364448494771L-25.347743025932758,-166.1685376144502zM-75.99572301938164,-166.06472807939076L-65.98584219328784,-166.1364448494771L-76.04322907779867,-166.1685376144502zM-86.07124292318156,-166.1364448494771L-75.99572301938164,-166.06472807939076L-76.04322907779867,-166.1685376144502zM-136.75693796200477,-166.1364448494771L-126.65953836563615,-166.06472807939076L-126.73871512966453,-166.1685376144502zM-126.65953836563615,-166.06472807939076L-116.67153723211106,-166.1364448494771L-126.73871512966453,-166.1685376144502z" style="fill:rgb(128,207,62)"></path><path d="M-126.65953836563615,-166.06472807939076L-116.67153723211106,-166.1364448494771L-126.73871512966453,-166.1685376144502zM-136.75693796200477,-166.1364448494771L-126.65953836563615,-166.06472807939076L-126.73871512966453,-166.1685376144502zM-90.95951789435935,-166.06472807939076L-80.956099337822,-166.1364448494771L-91.01637804383871,-166.1685376144502zM-101.0415000677157,-166.1364448494771L-90.95951789435935,-166.06472807939076L-91.01637804383871,-166.1685376144502zM-29.345889168162188,-166.1364448494771L-19.294856120073,-166.06472807939076L-19.306917622030877,-166.1685376144502zM-19.294856120073,-166.06472807939076L-9.260488438268528,-166.1364448494771L-19.306917622030877,-166.1685376144502zM25.05269686638886,-166.06472807939076L35.10621649754588,-166.1364448494771L25.068357680360393,-166.1685376144502zM15.020815767652161,-166.1364448494771L25.05269686638886,-166.06472807939076L25.068357680360393,-166.1685376144502zM84.74623827415083,-166.06472807939076L94.825537178452,-166.1364448494771L84.7992144099927,-166.1685376144502zM74.74013644855833,-166.1364448494771L84.74623827415083,-166.06472807939076L84.7992144099927,-166.1685376144502zM93.15825065968423,-166.1364448494771L103.1564018657513,-166.06472807939076L103.22088646907399,-166.1685376144502zM103.1564018657513,-166.06472807939076L113.24365138957795,-166.1364448494771L103.22088646907399,-166.1685376144502zM149.4265400654328,-166.1364448494771L159.40040171854767,-166.06472807939076L159.50004528393367,-166.1685376144502zM159.40040171854767,-166.06472807939076L169.5119407953265,-166.1364448494771L159.50004528393367,-166.1685376144502zM201.1476956301501,-166.1364448494771L211.09923060939403,-166.06472807939076L211.23119188277468,-166.1685376144502zM211.09923060939403,-166.06472807939076L221.23309636004382,-166.1364448494771L211.23119188277468,-166.1685376144502z" style="fill:rgb(186,45,138)"></path><path d="M-464.70862214210393,535.1190194363617L380.2161453889945,535.1190194363617L-464.70862214210393,-56.32831783540726zM-464.70862214210393,-56.32831783540726L380.2161453889945,-56.32831783540726L380.2161453889945,535.1190194363617z" style="fill:rgb(0,0,0); fill-opacity: 0.2"></path><path d="M-464.70862214210393,535.1190194363617L-464.70862214210393,-56.32831783540726M-464.70862214210393,-56.32831783540726L380.2161453889945,-56.32831783540726M380.2161453889945,-56.32831783540726L380.2161453889945,535.1190194363617M380.2161453889945,535.1190194363617L-464.70862214210393,535.1190194363617" style="fill:none;stroke:rgb(0,0,0);stroke-width:1;stroke-linecap:round"></path><path d="M-464.70862214210393,-56.32831783540726L380.2161453889945,-56.32831783540726L-126.73871512966453,281.6415891770321zM-126.73871512966453,281.6415891770321L380.2161453889945,281.6415891770321L380.2161453889945,-56.32831783540726z" style="fill:rgb(0,0,0); fill-opacity: 0.2"></path><path d="M380.2161453889945,-56.32831783540726L-464.70862214210393,-56.32831783540726M-464.70862214210393,-56.32831783540726L-126.73871512966453,281.6415891770321M-126.73871512966453,281.6415891770321L380.2161453889945,281.6415891770321M380.2161453889945,281.6415891770321L380.2161453889945,-56.32831783540726" style="fill:none;stroke:rgb(0,0,0);stroke-width:1;stroke-linecap:round"></path><path d="M-464.70862214210393,-56.32831783540726L-464.70862214210393,-56.32831783540726L-126.73871512966453,-56.32831783540726zM-126.73871512966453,-56.32831783540726L-126.73871512966453,281.6415891770321L-464.70862214210393,-56.32831783540726z" style="fill:rgb(0,0,0); fill-opacity: 0.2"></path><path d="M-464.70862214210393,-56.32831783540726L-126.73871512966453,-56.32831783540726M-126.73871512966453,281.6415891770321L-464.70862214210393,-56.32831783540726M-464.70862214210393,-56.32831783540726L-464.70862214210393,-56.32831783540726M-126.73871512966453,-56.32831783540726L-126.73871512966453,281.6415891770321" style="fill:none;stroke:rgb(0,0,0);stroke-width:1;stroke-linecap:round"></path><path d="M-126.73871512966453,281.6415891770321L380.2161453889945,281.6415891770321L-126.73871512966453,-56.32831783540726zM-126.73871512966453,-56.32831783540726L380.2161453889945,-56.32831783540726L380.2161453889945,281.6415891770321z" style="fill:rgb(0,0,0); fill-opacity: 0.2"></path><path d="M380.2161453889945,281.6415891770321L-126.73871512966453,281.6415891770321M-126.73871512966453,281.6415891770321L-126.73871512966453,-56.32831783540726M-126.73871512966453,-56.32831783540726L380.2161453889945,-56.32831783540726M380.2161453889945,-56.32831783540726L380.2161453889945,281.6415891770321" style="fill:none;stroke:rgb(0,0,0);stroke-width:1;stroke-linecap:round"></path><path d="M211.23119188277482,-56.32831783540726L-126.73871512966453,-56.32831783540726L-126.73871512966453,281.6415891770321zM-126.73871512966453,281.6415891770321L-126.73871512966453,281.6415891770321L211.23119188277482,-56.32831783540726z" style="fill:rgb(0,0,0); fill-opacity: 0.2"></path><path d="M-126.73871512966453,281.6415891770321L211.23119188277482,-56.32831783540726M211.23119188277482,-56.32831783540726L-126.73871512966453,-56.32831783540726M-126.73871512966453,281.6415891770321L-126.73871512966453,281.6415891770321M-126.73871512966453,-56.32831783540726L-126.73871512966453,281.6415891770321" style="fill:none;stroke:rgb(0,0,0);stroke-width:1;stroke-linecap:round"></path><path d="M-126.73871512966453,-56.32831783540726L-126.73871512966453,281.6415891770321L211.23119188277482,-56.32831783540726zM211.23119188277482,-56.32831783540726L211.23119188277482,-56.32831783540726L-126.73871512966453,281.6415891770321z" style="fill:rgb(0,0,0); fill-opacity: 0.2"></path><path d="M-126.73871512966453,281.6415891770321L-126.73871512966453,-56.32831783540726M211.23119188277482,-56.32831783540726L-126.73871512966453,281.6415891770321M211.23119188277482,-56.32831783540726L211.23119188277482,-56.32831783540726M-126.73871512966453,-56.32831783540726L211.23119188277482,-56.32831783540726" style="fill:none;stroke:rgb(0,0,0);stroke-width:1;stroke-linecap:round"></path><path d="M-126.73871512966453,-81.67606086134032L380.2161453889945,-81.67606086134032" style="fill:none;stroke:rgb(58,110,14);stroke-width:5;stroke-linecap:round"></path><path d="M380.2161453889945,-81.67606086134032L380.2161453889945,-166.16853761445017M329.5206593371286,-81.67606086134032L329.5206593371286,-166.16853761445017M278.8251732852627,-81.67606086134032L278.8251732852627,-166.16853761445017M228.12968723339677,-81.67606086134032L228.12968723339677,-166.16853761445017M177.43420118153088,-81.67606086134032L177.43420118153088,-166.16853761445017M126.73871512966498,-81.67606086134032L126.73871512966498,-166.16853761445017M76.04322907779903,-81.67606086134032L76.04322907779903,-166.16853761445017M25.347743025933106,-81.67606086134032L25.347743025933106,-166.16853761445017M-25.347743025932758,-81.67606086134032L-25.347743025932758,-166.16853761445017M-76.04322907779867,-81.67606086134032L-76.04322907779867,-166.16853761445017M-126.73871512966453,-81.67606086134032L-126.73871512966453,-166.16853761445017" style="fill:none;stroke:rgb(128,207,62);stroke-width:5;stroke-linecap:round"></path><path d="M-126.73871512966453,-56.32831783540726L380.2161453889945,-56.32831783540726L-126.73871512966453,-81.67606086134032zM-126.73871512966453,-81.67606086134032L380.2161453889945,-81.67606086134032L380.2161453889945,-56.32831783540726z" style="fill:rgb(0,0,0); fill-opacity: 0.2"></path><path d="M-126.73871512966453,-81.67606086134032L380.2161453889945,-81.67606086134032M380.2161453889945,-56.32831783540726L-126.73871512966453,-56.32831783540726M380.2161453889945,-81.67606086134032L380.2161453889945,-56.32831783540726M-126.73871512966453,-56.32831783540726L-126.73871512966453,-81.67606086134032" style="fill:none;stroke:rgb(0,0,0);stroke-width:1;stroke-linecap:round"></path><path d="M211.23119188277482,-81.67606086134032L-126.73871512966453,-81.67606086134032" style="fill:none;stroke:rgb(97,2,64);stroke-width:5;stroke-linecap:round"></path><path d="M-126.73871512966453,-81.67606086134032L-126.73871512966453,-166.16853761445017M-91.01637804383871,-81.67606086134032L-91.01637804383871,-166.16853761445017M-19.306917622030877,-81.67606086134032L-19.306917622030877,-166.16853761445017M25.068357680360393,-81.67606086134032L25.068357680360393,-166.16853761445017M84.7992144099927,-81.67606086134032L84.7992144099927,-166.16853761445017M103.22088646907399,-81.67606086134032L103.22088646907399,-166.16853761445017M159.50004528393367,-81.67606086134032L159.50004528393367,-166.16853761445017M211.23119188277468,-81.67606086134032L211.23119188277468,-166.16853761445017" style="fill:none;stroke:rgb(186,45,138);stroke-width:5;stroke-linecap:round"></path><path d="M211.23119188277482,-81.67606086134032L-126.73871512966453,-81.67606086134032L-126.73871512966453,-56.32831783540726zM211.23119188277482,-56.32831783540726L-126.73871512966453,-56.32831783540726L211.23119188277482,-81.67606086134032z" style="fill:rgb(0,0,0); fill-opacity: 0.2"></path><path d="M-126.73871512966453,-81.67606086134032L-126.73871512966453,-56.32831783540726M-126.73871512966453,-56.32831783540726L211.23119188277482,-56.32831783540726M211.23119188277482,-56.32831783540726L211.23119188277482,-81.67606086134032M211.23119188277482,-81.67606086134032L-126.73871512966453,-81.67606086134032" style="fill:none;stroke:rgb(0,0,0);stroke-width:1;stroke-linecap:round"></path><path d="M386.61959885213014,-166.25261631379325L390.1854131561215,-166.1364448494771L380.2161453889945,-187.2916568027276zM374.1974588550558,-166.25261631379325L370.1000124262278,-166.1364448494771L380.2161453889945,-166.1685376144502zM390.1854131561215,-166.1364448494771L386.61959885213014,-166.25261631379325L380.2161453889945,-166.1685376144502zM370.1000124262278,-166.1364448494771L374.1974588550558,-166.25261631379325L380.2161453889945,-187.2916568027276zM339.49971811729824,-166.1364448494771L335.89846167165115,-166.25261631379325L329.5206593371286,-166.1685376144502zM319.41431738740454,-166.1364448494771L323.47632167457675,-166.25261631379325L329.5206593371286,-187.2916568027276zM335.89846167165115,-166.25261631379325L339.49971811729824,-166.1364448494771L329.5206593371286,-187.2916568027276zM323.47632167457675,-166.25261631379325L319.41431738740454,-166.1364448494771L329.5206593371286,-166.1685376144502zM285.1773244911721,-166.25261631379325L288.814023078475,-166.1364448494771L278.8251732852627,-187.2916568027276zM268.72862234858127,-166.1364448494771L272.7551844940977,-166.25261631379325L278.8251732852627,-187.2916568027276zM272.7551844940977,-166.25261631379325L268.72862234858127,-166.1364448494771L278.8251732852627,-166.1685376144502zM288.814023078475,-166.1364448494771L285.1773244911721,-166.25261631379325L278.8251732852627,-166.1685376144502zM218.04292730975803,-166.1364448494771L222.03404731361866,-166.25261631379325L228.12968723339677,-187.2916568027276zM234.45618731069305,-166.25261631379325L238.1283280396517,-166.1364448494771L228.12968723339677,-187.2916568027276zM222.03404731361866,-166.25261631379325L218.04292730975803,-166.1364448494771L228.12968723339677,-166.1685376144502zM238.1283280396517,-166.1364448494771L234.45618731069305,-166.25261631379325L228.12968723339677,-166.1685376144502zM183.735050130214,-166.25261631379325L187.44263300082844,-166.1364448494771L177.43420118153088,-187.2916568027276zM167.35723227093476,-166.1364448494771L171.31291013313964,-166.25261631379325L177.43420118153088,-187.2916568027276zM187.44263300082844,-166.1364448494771L183.735050130214,-166.25261631379325L177.43420118153088,-166.1685376144502zM171.31291013313964,-166.25261631379325L167.35723227093476,-166.1364448494771L177.43420118153088,-166.1685376144502zM133.01391294973496,-166.25261631379325L136.75693796200517,-166.1364448494771L126.73871512966498,-187.2916568027276zM136.75693796200517,-166.1364448494771L133.01391294973496,-166.25261631379325L126.73871512966498,-166.1685376144502zM116.6715372321115,-166.1364448494771L120.59177295266056,-166.25261631379325L126.73871512966498,-187.2916568027276zM120.59177295266056,-166.25261631379325L116.6715372321115,-166.1364448494771L126.73871512966498,-166.1685376144502zM65.98584219328825,-166.1364448494771L69.87063577218153,-166.25261631379325L76.04322907779903,-187.2916568027276zM69.87063577218153,-166.25261631379325L65.98584219328825,-166.1364448494771L76.04322907779903,-166.1685376144502zM86.0712429231819,-166.1364448494771L82.29277576925595,-166.25261631379325L76.04322907779903,-166.1685376144502zM82.29277576925595,-166.25261631379325L86.0712429231819,-166.1364448494771L76.04322907779903,-187.2916568027276zM19.14949859170243,-166.25261631379325L15.300147154464918,-166.1364448494771L25.347743025933106,-166.1685376144502zM15.300147154464918,-166.1364448494771L19.14949859170243,-166.25261631379325L25.347743025933106,-187.2916568027276zM31.571638588776846,-166.25261631379325L35.38554788435864,-166.1364448494771L25.347743025933106,-187.2916568027276zM35.38554788435864,-166.1364448494771L31.571638588776846,-166.25261631379325L25.347743025933106,-166.1685376144502zM-19.14949859170214,-166.25261631379325L-15.30014715446463,-166.1364448494771L-25.347743025932758,-187.2916568027276zM-15.30014715446463,-166.1364448494771L-19.14949859170214,-166.25261631379325L-25.347743025932758,-166.1685376144502zM-35.38554788435829,-166.1364448494771L-31.57163858877656,-166.25261631379325L-25.347743025932758,-187.2916568027276zM-31.57163858877656,-166.25261631379325L-35.38554788435829,-166.1364448494771L-25.347743025932758,-166.1685376144502zM-69.87063577218112,-166.25261631379325L-65.98584219328784,-166.1364448494771L-76.04322907779867,-187.2916568027276zM-82.29277576925554,-166.25261631379325L-86.07124292318156,-166.1364448494771L-76.04322907779867,-166.1685376144502zM-86.07124292318156,-166.1364448494771L-82.29277576925554,-166.25261631379325L-76.04322907779867,-187.2916568027276zM-65.98584219328784,-166.1364448494771L-69.87063577218112,-166.25261631379325L-76.04322907779867,-166.1685376144502zM-136.75693796200477,-166.1364448494771L-133.01391294973453,-166.25261631379325L-126.73871512966453,-187.2916568027276zM-120.59177295266016,-166.25261631379325L-116.67153723211106,-166.1364448494771L-126.73871512966453,-187.2916568027276zM-133.01391294973453,-166.25261631379325L-136.75693796200477,-166.1364448494771L-126.73871512966453,-166.1685376144502zM-116.67153723211106,-166.1364448494771L-120.59177295266016,-166.25261631379325L-126.73871512966453,-166.1685376144502z" style="fill:rgb(128,207,62)"></path><path d="M-120.59177295266016,-166.25261631379325L-116.67153723211106,-166.1364448494771L-126.73871512966453,-187.2916568027276zM-116.67153723211106,-166.1364448494771L-120.59177295266016,-166.25261631379325L-126.73871512966453,-166.1685376144502zM-136.75693796200477,-166.1364448494771L-133.01391294973453,-166.25261631379325L-126.73871512966453,-187.2916568027276zM-133.01391294973453,-166.25261631379325L-136.75693796200477,-166.1364448494771L-126.73871512966453,-166.1685376144502zM-101.0415000677157,-166.1364448494771L-97.27350091613107,-166.25261631379325L-91.01637804383871,-187.2916568027276zM-97.27350091613107,-166.25261631379325L-101.0415000677157,-166.1364448494771L-91.01637804383871,-166.1685376144502zM-80.956099337822,-166.1364448494771L-84.8513609190567,-166.25261631379325L-91.01637804383871,-166.1685376144502zM-84.8513609190567,-166.25261631379325L-80.956099337822,-166.1364448494771L-91.01637804383871,-187.2916568027276zM-9.260488438268528,-166.1364448494771L-13.10561662396321,-166.25261631379325L-19.306917622030877,-166.1685376144502zM-13.10561662396321,-166.25261631379325L-9.260488438268528,-166.1364448494771L-19.306917622030877,-187.2916568027276zM-29.345889168162188,-166.1364448494771L-25.52775662103763,-166.25261631379325L-19.306917622030877,-187.2916568027276zM-25.52775662103763,-166.25261631379325L-29.345889168162188,-166.1364448494771L-19.306917622030877,-166.1685376144502zM18.86997188148387,-166.25261631379325L15.020815767652161,-166.1364448494771L25.068357680360393,-166.1685376144502zM35.10621649754588,-166.1364448494771L31.29211187855829,-166.25261631379325L25.068357680360393,-166.1685376144502zM31.29211187855829,-166.25261631379325L35.10621649754588,-166.1364448494771L25.068357680360393,-187.2916568027276zM15.020815767652161,-166.1364448494771L18.86997188148387,-166.25261631379325L25.068357680360393,-187.2916568027276zM91.05319149404232,-166.25261631379325L94.825537178452,-166.1364448494771L84.7992144099927,-187.2916568027276zM78.63105149696791,-166.25261631379325L74.74013644855833,-166.1364448494771L84.7992144099927,-166.1685376144502zM74.74013644855833,-166.1364448494771L78.63105149696791,-166.25261631379325L84.7992144099927,-187.2916568027276zM94.825537178452,-166.1364448494771L91.05319149404232,-166.25261631379325L84.7992144099927,-166.1685376144502zM97.06204463601235,-166.25261631379325L93.15825065968423,-166.1364448494771L103.22088646907399,-166.1685376144502zM109.48418463308677,-166.25261631379325L113.24365138957795,-166.1364448494771L103.22088646907399,-187.2916568027276zM113.24365138957795,-166.1364448494771L109.48418463308677,-166.25261631379325L103.22088646907399,-166.1685376144502zM93.15825065968423,-166.1364448494771L97.06204463601235,-166.25261631379325L103.22088646907399,-187.2916568027276zM169.5119407953265,-166.1364448494771L165.79181982826006,-166.25261631379325L159.50004528393367,-166.1685376144502zM149.4265400654328,-166.1364448494771L153.36967983118564,-166.25261631379325L159.50004528393367,-187.2916568027276zM165.79181982826006,-166.25261631379325L169.5119407953265,-166.1364448494771L159.50004528393367,-187.2916568027276zM153.36967983118564,-166.25261631379325L149.4265400654328,-166.1364448494771L159.50004528393367,-166.1685376144502zM201.1476956301501,-166.1364448494771L205.12700158679218,-166.25261631379325L211.23119188277468,-187.2916568027276zM217.5491415838666,-166.25261631379325L221.23309636004382,-166.1364448494771L211.23119188277468,-187.2916568027276zM205.12700158679218,-166.25261631379325L201.1476956301501,-166.1364448494771L211.23119188277468,-166.1685376144502zM221.23309636004382,-166.1364448494771L217.5491415838666,-166.25261631379325L211.23119188277468,-166.1685376144502z" style="fill:rgb(186,45,138)"></path><path d="M374.1974588550558,-166.25261631379325L386.61959885213014,-166.25261631379325L380.2161453889945,-187.2916568027276zM386.61959885213014,-166.25261631379325L374.1974588550558,-166.25261631379325L380.2161453889945,-166.1685376144502zM335.89846167165115,-166.25261631379325L323.47632167457675,-166.25261631379325L329.5206593371286,-166.1685376144502zM323.47632167457675,-166.25261631379325L335.89846167165115,-166.25261631379325L329.5206593371286,-187.2916568027276zM285.1773244911721,-166.25261631379325L272.7551844940977,-166.25261631379325L278.8251732852627,-166.1685376144502zM272.7551844940977,-166.25261631379325L285.1773244911721,-166.25261631379325L278.8251732852627,-187.2916568027276zM234.45618731069305,-166.25261631379325L222.03404731361866,-166.25261631379325L228.12968723339677,-166.1685376144502zM222.03404731361866,-166.25261631379325L234.45618731069305,-166.25261631379325L228.12968723339677,-187.2916568027276zM183.735050130214,-166.25261631379325L171.31291013313964,-166.25261631379325L177.43420118153088,-166.1685376144502zM171.31291013313964,-166.25261631379325L183.735050130214,-166.25261631379325L177.43420118153088,-187.2916568027276zM133.01391294973496,-166.25261631379325L120.59177295266056,-166.25261631379325L126.73871512966498,-166.1685376144502zM120.59177295266056,-166.25261631379325L133.01391294973496,-166.25261631379325L126.73871512966498,-187.2916568027276zM69.87063577218153,-166.25261631379325L82.29277576925595,-166.25261631379325L76.04322907779903,-187.2916568027276zM82.29277576925595,-166.25261631379325L69.87063577218153,-166.25261631379325L76.04322907779903,-166.1685376144502zM19.14949859170243,-166.25261631379325L31.571638588776846,-166.25261631379325L25.347743025933106,-187.2916568027276zM31.571638588776846,-166.25261631379325L19.14949859170243,-166.25261631379325L25.347743025933106,-166.1685376144502zM-31.57163858877656,-166.25261631379325L-19.14949859170214,-166.25261631379325L-25.347743025932758,-187.2916568027276zM-19.14949859170214,-166.25261631379325L-31.57163858877656,-166.25261631379325L-25.347743025932758,-166.1685376144502zM-69.87063577218112,-166.25261631379325L-82.29277576925554,-166.25261631379325L-76.04322907779867,-166.1685376144502zM-82.29277576925554,-166.25261631379325L-69.87063577218112,-166.25261631379325L-76.04322907779867,-187.2916568027276zM-133.01391294973453,-166.25261631379325L-120.59177295266016,-166.25261631379325L-126.73871512966453,-187.2916568027276zM-120.59177295266016,-166.25261631379325L-133.01391294973453,-166.25261631379325L-126.73871512966453,-166.1685376144502z" style="fill:rgb(128,207,62)"></path><path d="M-120.59177295266016,-166.25261631379325L-133.01391294973453,-166.25261631379325L-126.73871512966453,-166.1685376144502zM-133.01391294973453,-166.25261631379325L-120.59177295266016,-166.25261631379325L-126.73871512966453,-187.2916568027276zM-97.27350091613107,-166.25261631379325L-84.8513609190567,-166.25261631379325L-91.01637804383871,-187.2916568027276zM-84.8513609190567,-166.25261631379325L-97.27350091613107,-166.25261631379325L-91.01637804383871,-166.1685376144502zM-13.10561662396321,-166.25261631379325L-25.52775662103763,-166.25261631379325L-19.306917622030877,-166.1685376144502zM-25.52775662103763,-166.25261631379325L-13.10561662396321,-166.25261631379325L-19.306917622030877,-187.2916568027276zM31.29211187855829,-166.25261631379325L18.86997188148387,-166.25261631379325L25.068357680360393,-166.1685376144502zM18.86997188148387,-166.25261631379325L31.29211187855829,-166.25261631379325L25.068357680360393,-187.2916568027276zM78.63105149696791,-166.25261631379325L91.05319149404232,-166.25261631379325L84.7992144099927,-187.2916568027276zM91.05319149404232,-166.25261631379325L78.63105149696791,-166.25261631379325L84.7992144099927,-166.1685376144502zM109.48418463308677,-166.25261631379325L97.06204463601235,-166.25261631379325L103.22088646907399,-166.1685376144502zM97.06204463601235,-166.25261631379325L109.48418463308677,-166.25261631379325L103.22088646907399,-187.2916568027276zM153.36967983118564,-166.25261631379325L165.79181982826006,-166.25261631379325L159.50004528393367,-187.2916568027276zM165.79181982826006,-166.25261631379325L153.36967983118564,-166.25261631379325L159.50004528393367,-166.1685376144502zM217.5491415838666,-166.25261631379325L205.12700158679218,-166.25261631379325L211.23119188277468,-166.1685376144502zM205.12700158679218,-166.25261631379325L217.5491415838666,-166.25261631379325L211.23119188277468,-187.2916568027276z" style="fill:rgb(186,45,138)"></path></svg>