<svg viewBox="-812 -590 1624 1180" width="1624" height="1180" style="background-color: rgb(255, 255, 255);"><path d="M15.835183162422622,197.08841355138054L61.873176476061026,-542.3929551490996M181.16597768719873,259.70626623848165L15.835183162422622,197.08841355138054" style="fill:none;stroke:rgb(0,0,0);stroke-width:1;stroke-linecap:round"></path><path d="M230.67102817100397,-483.90627453787687L181.16597768719873,259.70626623848165" style="fill:none;stroke:rgb(58,110,14);stroke-width:5;stroke-linecap:round"></path><path d="M181.16597768719873,259.70626623848165L233.47540688227772,279.51808738709974M183.48153211150137,224.92445525285524L235.842612497436,244.67668785832802M185.801198857012,190.0808733248279L238.21403150395292,209.77327409185858" style="fill:none;stroke:rgb(128,207,62);stroke-width:5;stroke-linecap:round"></path><path d="M238.5407354287565,274.89728575387227L233.99287364942026,271.9018219214275L246.58903645285912,284.48478053706117zM228.72648219433847,279.4339656780778L230.02403774590965,287.08131733639544L246.58903645285912,284.48478053706117zM233.99287364942026,271.9018219214275L228.72648219433847,279.4339656780778L246.58903645285912,284.48478053706117z" style="fill:rgb(128,207,62)"></path><path d="M188.12498888841515,155.1753557544987L240.58967516097707,174.80768037141777" style="fill:none;stroke:rgb(128,207,62);stroke-width:5;stroke-linecap:round"></path><path d="M240.91177374807194,240.06163865837422L236.36099998388357,237.04687090859508L248.96922298316161,249.62845473793465zM231.0904185967091,244.57843468495176L232.3883039633113,252.2447357873084L248.96922298316161,249.62845473793465zM236.36099998388357,237.04687090859508L231.0904185967091,244.57843468495176L248.96922298316161,249.62845473793465z" style="fill:rgb(128,207,62)"></path><path d="M190.4529132094103,120.20773725592682L242.9695547678088,139.779740389763" style="fill:none;stroke:rgb(128,207,62);stroke-width:5;stroke-linecap:round"></path><path d="M230.67102817100397,-483.90627453787687L181.16597768719873,259.70626623848165L15.835183162422622,197.08841355138054z" style="fill:rgb(0,0,0); fill-opacity: 0.2"></path><path d="M243.28703108522294,205.16400512629542L238.73334216922245,202.12986945799466L251.3536483638787,214.71005365639513zM233.45856427060485,209.66083924967057L234.756778570805,217.34614517868744L251.3536483638787,214.71005365639513zM238.73334216922245,202.12986945799466L233.45856427060485,209.66083924967057L251.3536483638787,214.71005365639513z" style="fill:rgb(128,207,62)"></path><path d="M192.78498286288524,85.17785195452207L245.35368166407935,104.68928724604586" style="fill:none;stroke:rgb(128,207,62);stroke-width:5;stroke-linecap:round"></path><path d="M245.66651871119709,170.20421956261225L241.10991147335332,167.15065172430263L253.74232392849183,179.72941132077858zM235.83093046871133,174.6810134547717L237.12947281479143,182.38537979900897L253.74232392849183,179.72941132077858zM241.10991147335332,167.15065172430263L235.83093046871133,174.6810134547717L253.74232392849183,179.72941132077858z" style="fill:rgb(128,207,62)"></path><path d="M195.12120893109113,50.08553338442265L247.74206722993122,69.53615344316165" style="fill:none;stroke:rgb(128,207,62);stroke-width:5;stroke-linecap:round"></path><path d="M248.05024793716473,135.18211578193217L243.4907192043837,132.10905127065104L256.1352610509216,144.68636116721143zM238.20752848385902,139.63879079086684L239.50639798177983,147.36227334576486L256.1352610509216,144.68636116721143zM243.4907192043837,132.10905127065104L238.20752848385902,139.63879079086684L256.1352610509216,144.68636116721143z" style="fill:rgb(128,207,62)"></path><path d="M197.46160253581778,14.930614485857921L250.1347228861989,34.320170885084025" style="fill:none;stroke:rgb(128,207,62);stroke-width:5;stroke-linecap:round"></path><path d="M250.4382301146578,100.09752700586026L245.87577671079114,97.00490106598735L258.5324711457087,109.58073603696754zM240.58836964920263,104.5340041539998L241.88756539856703,112.27665892282583L258.5324711457087,109.58073603696754zM245.87577671079114,97.00490106598735L240.58836964920263,104.5340041539998L258.5324711457087,109.58073603696754z" style="fill:rgb(128,207,62)"></path><path d="M199.8061748385702,-20.28707239750251L252.5316600945909,-0.9588291258142269" style="fill:none;stroke:rgb(128,207,62);stroke-width:5;stroke-linecap:round"></path><path d="M252.83047663575047,64.95028586035208L248.265095381604,61.83803348242102L260.93396566819536,74.41236817380971z" style="fill:rgb(128,207,62)"></path><path d="M61.873176476061026,-542.3929551490996L15.835183162422622,197.08841355138054L230.67102817100397,-483.90627453787687z" style="fill:rgb(0,0,0); fill-opacity: 0.2"></path><path d="M242.97346533840116,69.36648584299057L244.27298643241733,77.12836903779011L260.93396566819536,74.41236817380971zM248.265095381604,61.83803348242102L242.97346533840116,69.36648584299057L260.93396566819536,74.41236817380971z" style="fill:rgb(128,207,62)"></path><path d="M202.154937040746,-55.56769552121407L254.9328903578732,-36.30101589145502" style="fill:none;stroke:rgb(128,207,62);stroke-width:5;stroke-linecap:round"></path><path d="M255.22699893324005,29.74022437305188L250.65868664658242,26.608280292554923L263.3397561147075,39.18108922131794zM245.36282696579906,34.136067556764466L246.66267249124317,41.91723559931814L263.3397561147075,39.18108922131794zM250.65868664658242,26.608280292554923L245.36282696579906,34.136067556764466L263.3397561147075,39.18108922131794z" style="fill:rgb(128,207,62)"></path><path d="M204.50790038381388,-90.91142374273659L257.3384252200528,-71.70655932076306" style="fill:none;stroke:rgb(128,207,62);stroke-width:5;stroke-linecap:round"></path><path d="M257.6278084808291,-5.532826029383172L253.05656197640062,-8.684527333196918L265.7498540227383,3.8867302202026464zM247.7564659866083,-1.1574196083323702L249.0566350237873,6.643089914453229L265.7498540227383,3.8867302202026464zM253.05656197640062,-8.684527333196918L247.7564659866083,-1.1574196083323702L265.7498540227383,3.8867302202026464z" style="fill:rgb(128,207,62)"></path><path d="M206.86507614949298,-126.31842652412848L259.7482762665629,-107.1756299323889" style="fill:none;stroke:rgb(128,207,62);stroke-width:5;stroke-linecap:round"></path><path d="M260.03291679330886,-40.869034523973376L255.4587328828302,-44.04055882930632L268.164270971133,-31.470878394396134zM250.1543938970915,-36.51414516123244L251.45488551980537,-28.694237314072648L268.164270971133,-31.470878394396134zM255.4587328828302,-44.04055882930632L250.1543938970915,-36.51414516123244L268.164270971133,-31.470878394396134z" style="fill:rgb(128,207,62)"></path><path d="M209.22647565993276,-161.78887393475492L262.1624551244488,-142.70839885744624" style="fill:none;stroke:rgb(128,207,62);stroke-width:5;stroke-linecap:round"></path><path d="M262.44233542674266,-76.26857089412087L257.86521091892416,-79.45998423784245L270.5830185802737,-66.89190679562415zM252.5566222347458,-71.93427921886035L253.85743551025,-64.09491599054712L270.5830185802737,-66.89190679562415zM257.86521091892416,-79.45998423784245L252.5566222347458,-71.93427921886035L270.5830185802737,-66.89190679562415z" style="fill:rgb(128,207,62)"></path><path d="M211.59211027789507,-197.32293665401093L264.58097346255516,-178.30503784226428" style="fill:none;stroke:rgb(128,207,62);stroke-width:5;stroke-linecap:round"></path><path d="M230.67102817100397,-483.90627453787687L61.873176476061026,-542.3929551490996M61.873176476061026,-542.3929551490996L-372.4207538459606,-368.5958962108691M230.67102817100397,-483.90627453787687L61.873176476061026,-542.3929551490996" style="fill:none;stroke:rgb(0,0,0);stroke-width:1;stroke-linecap:round"></path><path d="M264.85607597865186,-111.7316055323292L260.2760076792026,-114.94297421119768L273.0061085122663,-102.37652576764333zM254.96316257848804,-107.41799250886149L256.26429656745523,-99.55911662900067L273.0061085122663,-102.37652576764333zM260.2760076792026,-114.94297421119768L254.96316257848804,-107.41799250886149L273.0061085122663,-102.37652576764333z" style="fill:rgb(128,207,62)"></path><path d="M213.96199140693574,-232.92078597405896L267.00384299171355,-213.96571925115472" style="fill:none;stroke:rgb(128,207,62);stroke-width:5;stroke-linecap:round"></path><path d="M267.2741500882012,-147.25830944293722L262.69113479983844,-150.4897000148284L275.4335524711277,-137.92490670837626zM257.3740265488408,-142.96545637234482L258.67548030532265,-135.0870103559443L275.4335524711277,-137.92490670837626zM262.69113479983844,-150.4897000148284L257.3740265488408,-142.96545637234482L275.4335524711277,-137.92490670837626z" style="fill:rgb(128,207,62)"></path><path d="M216.33613049158808,-268.5825938025813L269.43107546493195,-249.69061606919396" style="fill:none;stroke:rgb(128,207,62);stroke-width:5;stroke-linecap:round"></path><path d="M269.6965694363864,-182.8488542448675L265.1106039588448,-186.10033353001054L277.8653622029744,-173.53722163226607zM259.78922580811957,-178.576842766641L261.09099837950805,-170.67876891312176L277.8653622029744,-173.53722163226607zM265.1106039588448,-186.10033353001054L259.78922580811957,-178.576842766641L277.8653622029744,-173.53722163226607z" style="fill:rgb(128,207,62)"></path><path d="M218.71453901754697,-304.3085326655472L271.8626826775846,-285.4799019050201" style="fill:none;stroke:rgb(128,207,62);stroke-width:5;stroke-linecap:round"></path><path d="M272.123345746222,-218.50341217439004L267.5344268762633,-221.77504725660987L280.3015494962117,-209.21364317305085zM262.20877206062016,-214.2523242680749L263.5108624876093,-206.33456466027732L280.3015494962117,-209.21364317305085zM267.5344268762633,-221.77504725660987L262.20877206062016,-214.2523242680749L280.3015494962117,-209.21364317305085z" style="fill:rgb(128,207,62)"></path><path d="M221.09722851185435,-340.0987757099954L274.2986764676027,-321.33375099364525" style="fill:none;stroke:rgb(128,207,62);stroke-width:5;stroke-linecap:round"></path><path d="M274.55449078293043,-254.22215608790054L269.9626153143531,-257.51401431586737L282.7421261817244,-244.9543445865532zM264.6326770528089,-249.992074074754L265.9350843693549,-242.05457057793765L282.7421261817244,-244.9543445865532zM269.9626153143531,-257.51401431586737L264.6326770528089,-249.992074074754L282.7421261817244,-244.9543445865532z" style="fill:rgb(128,207,62)"></path><path d="M223.48421054308525,-375.953496706831L276.7390687156674,-357.25233819928286" style="fill:none;stroke:rgb(128,207,62);stroke-width:5;stroke-linecap:round"></path><path d="M276.99001635413225,-290.00525946471384L272.3951810777814,-293.31740845319945L285.18710413306826,-280.7594997534849zM267.06095257351166,-285.7962660093699L268.36367580679445,-277.83896027020967L285.18710413306826,-280.7594997534849zM272.3951810777814,-293.31740845319945L267.06095257351166,-285.7962660093699L285.18710413306826,-280.7594997534849z" style="fill:rgb(128,207,62)"></path><path d="M225.87549672153494,-411.8728700536381L279.1838713454018,-393.23583901819063" style="fill:none;stroke:rgb(128,207,62);stroke-width:5;stroke-linecap:round"></path><path d="M279.4299343100373,-325.85289640987264L274.83213601381465,-329.1854040410141L287.63649526666256,-316.6292831822665zM269.49361045410546,-321.6650745220177L270.7966486244888,-313.68790796759214L287.63649526666256,-316.6292831822665zM274.83213601381465,-329.1854040410141L269.49361045410546,-321.6650745220177L287.63649526666256,-316.6292831822665z" style="fill:rgb(128,207,62)"></path><path d="M228.27109869940722,-447.8570707775067L281.6330963235663,-429.2844295815286" style="fill:none;stroke:rgb(128,207,62);stroke-width:5;stroke-linecap:round"></path><path d="M281.8742565436368,-361.7652416569706L277.2734920125108,-365.1181760815408L290.09031154198374,-352.563870011863zM271.93066256871066,-357.5986746930285L273.2340146897025,-349.60158852980453L290.09031154198374,-352.563870011863zM277.2734920125108,-365.1181760815408L271.93066256871066,-357.5986746930285L290.09031154198374,-352.563870011863z" style="fill:rgb(128,207,62)"></path><path d="M230.67102817100397,-483.90627453787675L284.0867556602529,-465.39828665823353" style="fill:none;stroke:rgb(128,207,62);stroke-width:5;stroke-linecap:round"></path><path d="M-201.74174232864857,-307.054532357411L230.67102817100397,-483.90627453787687" style="fill:none;stroke:rgb(97,2,64);stroke-width:5;stroke-linecap:round"></path><path d="M230.67102817100397,-483.90627453787687L284.0867556602529,-465.39828665823364" style="fill:none;stroke:rgb(186,45,138);stroke-width:5;stroke-linecap:round"></path><path d="M284.3229949908968,-397.74247057099217L279.71926100691286,-401.1159002096776L292.5485649617597,-388.56343601463334zM274.37212083438396,-393.5972422358184L275.6757859125965,-385.5801774486291L292.5485649617597,-388.56343601463334zM279.71926100691286,-401.1159002096776L274.37212083438396,-393.5972422358184L292.5485649617597,-388.56343601463334zM286.77616163095223,-433.784759151167L282.169454973243,-437.17875269585187L295.0112675721663,-424.6281575991974z" style="fill:rgb(128,207,62)"></path><path d="M207.31448400890048,-474.3537224205792L260.764700604173,-455.7938431042572" style="fill:none;stroke:rgb(186,45,138);stroke-width:5;stroke-linecap:round"></path><path d="M276.8179972113128,-429.66095349975234L278.12197424642216,-421.6238508507697L295.0112675721663,-424.6281575991974zM282.169454973243,-437.17875269585187L276.8179972113128,-429.66095349975234L295.0112675721663,-424.6281575991974zM289.2337684863021,-469.892284033839L284.62408593109853,-473.3069104488986L297.4784314630232,-460.75821181331685z" style="fill:rgb(128,207,62)"></path><path d="M289.23376848630215,-469.89228403383913L284.6240859310986,-473.30691044889886L297.4784314630232,-460.758211813317z" style="fill:rgb(186,45,138)"></path><path d="M279.26830370301053,-465.7899854730239L280.57259168771634,-457.73278550072615L297.4784314630232,-460.75821181331685z" style="fill:rgb(128,207,62)"></path><path d="M279.2683037030106,-465.789985473024L280.57259168771634,-457.73278550072644L297.4784314630232,-460.758211813317z" style="fill:rgb(186,45,138)"></path><path d="M284.62408593109853,-473.3069104488986L279.26830370301053,-465.7899854730239L297.4784314630232,-460.75821181331685z" style="fill:rgb(128,207,62)"></path><path d="M284.6240859310986,-473.30691044889886L279.2683037030106,-465.789985473024L297.4784314630232,-460.758211813317z" style="fill:rgb(186,45,138)"></path><path d="M-372.4207538459606,-368.5958962108691L-411.5493988822459,389.33152890779525M-244.4260121271031,455.20199254903275L-411.5493988822459,389.33152890779525" style="fill:none;stroke:rgb(0,0,0);stroke-width:1;stroke-linecap:round"></path><path d="M183.88159147988722,-464.76994471832705L237.36623707322929,-446.1579331601145" style="fill:none;stroke:rgb(186,45,138);stroke-width:5;stroke-linecap:round"></path><path d="M265.92685905886714,-460.2979597268063L261.2982829967954,-463.713498109489L274.1650848563532,-451.1407372731611zM255.92876983214094,-456.1822312648014L257.2434871677691,-448.1152686351261L274.1650848563532,-451.1407372731611zM261.2982829967954,-463.713498109489L255.92876983214094,-456.1822312648014L274.1650848563532,-451.1407372731611z" style="fill:rgb(186,45,138)"></path><path d="M160.3719756173734,-455.1547880741909L213.8909889534097,-436.49040193526133" style="fill:none;stroke:rgb(186,45,138);stroke-width:5;stroke-linecap:round"></path><path d="M242.54361284942803,-450.6722112686914L237.89604412288543,-454.0886492751274L250.77531498770162,-441.49173578027796zM232.5127387102061,-446.5429868481665L233.8379468035103,-438.4662407862743L250.77531498770162,-441.49173578027796zM237.89604412288543,-454.0886492751274L232.5127387102061,-446.5429868481665L250.77531498770162,-441.49173578027796z" style="fill:rgb(186,45,138)"></path><path d="M136.7852589953312,-445.50809812535994L190.33857765812772,-426.7910935209027" style="fill:none;stroke:rgb(186,45,138);stroke-width:5;stroke-linecap:round"></path><path d="M219.08365420567017,-441.01488402165444L214.41699298527524,-444.4322091716258L227.30874545656766,-431.81105205785144zM209.0198336307693,-436.8720971513483L210.35559432513125,-428.78554683543376L227.30874545656766,-431.81105205785144zM214.41699298527524,-444.4322091716258L209.0198336307693,-436.8720971513483L227.30874545656766,-431.81105205785144z" style="fill:rgb(186,45,138)"></path><path d="M-201.74174232864857,-307.054532357411L230.67102817100397,-483.90627453787687L61.873176476061026,-542.3929551490996z" style="fill:rgb(0,0,0); fill-opacity: 0.2"></path><path d="M113.1210617080983,-435.8297194948827L166.70862210787016,-417.0598509816114" style="fill:none;stroke:rgb(186,45,138);stroke-width:5;stroke-linecap:round"></path><path d="M195.54660500645562,-431.3258223315603L190.86075078542294,-434.74402200710813L203.7649973865848,-422.09852980769455zM185.449675409901,-427.1694060827122L186.79605098908567,-419.0730306440591L203.7649973865848,-422.09852980769455zM190.86075078542294,-434.74402200710813L185.449675409901,-427.1694060827122L203.7649973865848,-422.09852980769455z" style="fill:rgb(186,45,138)"></path><path d="M89.37900134998044,-426.11949578332286L143.00073870964417,-407.29651634686365" style="fill:none;stroke:rgb(186,45,138);stroke-width:5;stroke-linecap:round"></path><path d="M-244.4260121271031,455.20199254903275L-201.74174232864857,-307.054532357411" style="fill:none;stroke:rgb(0,86,91);stroke-width:5;stroke-linecap:round"></path><path d="M-244.4260121271031,455.2019925490324L-191.53496265723086,476.048613831047" style="fill:none;stroke:rgb(41,170,178);stroke-width:5;stroke-linecap:round"></path><path d="M171.9320846415081,-421.60486951961667L167.22693622996587,-425.0239309636307L180.14368940512972,-412.3540117018371zM161.80188236577763,-417.4347565223612L163.1589355577272,-409.32853504540236L180.14368940512972,-412.3540117018371zM167.22693622996587,-425.0239309636307L161.80188236577763,-417.4347565223612L180.14368940512972,-412.3540117018371z" style="fill:rgb(186,45,138)"></path><path d="M-242.43056323288084,419.5672271677743L-189.48652635419953,440.35148651287403" style="fill:none;stroke:rgb(41,170,178);stroke-width:5;stroke-linecap:round"></path><path d="M65.55869299465323,-416.3772695603375L119.21454133622053,-397.500930602492" style="fill:none;stroke:rgb(186,45,138);stroke-width:5;stroke-linecap:round"></path><path d="M-411.5493988822459,389.33152890779525L-372.4207538459606,-368.5958962108691L-244.4260121271031,455.20199254903275z" style="fill:rgb(0,0,0); fill-opacity: 0.2"></path><path d="M-240.4314653135441,383.8672974246516L-187.4343355596249,404.58893145236055" style="fill:none;stroke:rgb(41,170,178);stroke-width:5;stroke-linecap:round"></path><path d="M148.23970999089713,-411.8518678739282L143.5151655101485,-415.2717781887215L156.4444376227304,-402.5773393740316zM138.0760702980791,-407.66799031365656L139.4438642787452,-399.5519018360349L156.4444376227304,-402.5773393740316zM143.5151655101485,-415.2717781887215L138.0760702980791,-407.66799031365656L156.4444376227304,-402.5773393740316z" style="fill:rgb(186,45,138)"></path><path d="M-186.19551132032038,471.2334060560663L-191.0871875114652,468.24544886826203L-178.27443489689878,481.2751541056306zM-196.60138608366898,476.0435655256756L-195.11277232863435,483.8475378771432L-178.27443489689878,481.2751541056306zM-191.0871875114652,468.24544886826203L-196.60138608366898,476.0435655256756L-178.27443489689878,481.2751541056306z" style="fill:rgb(41,170,178)"></path><path d="M41.65974917435902,-406.602882356166L95.34964130517052,-387.67293368205094" style="fill:none;stroke:rgb(186,45,138);stroke-width:5;stroke-linecap:round"></path><path d="M-238.42870835061765,348.10202440953816L-185.37837994186765,368.76076860493055" style="fill:none;stroke:rgb(41,170,178);stroke-width:5;stroke-linecap:round"></path><path d="M-184.1427846169759,435.54227353140317L-189.0379307943204,432.53402458268073L-176.21267927543866,445.56240537091924z" style="fill:rgb(41,170,178)"></path><path d="M124.46909540431867,-402.0666586409673L119.72505228104518,-405.4874047868354L132.66685561226913,-392.7683534111733z" style="fill:rgb(186,45,138)"></path><path d="M-194.55673946202637,440.3316034293812L-193.0674965457181,448.1555393363994L-176.21267927543866,445.56240537091924zM-189.0379307943204,432.53402458268073L-194.55673946202637,440.3316034293812L-176.21267927543866,445.56240537091924z" style="fill:rgb(41,170,178)"></path><path d="M-236.42228228891815,312.27122855677277L-183.31864913134598,332.86681726480384" style="fill:none;stroke:rgb(41,170,178);stroke-width:5;stroke-linecap:round"></path><path d="M114.27185246718149,-397.8689482546503L115.650450864397,-389.7429717672861L132.66685561226913,-392.7683534111733zM119.72505228104518,-405.4874047868354L114.27185246718149,-397.8689482546503L132.66685561226913,-392.7683534111733z" style="fill:rgb(186,45,138)"></path><path d="M-182.08629665576373,399.7857433321279L-186.9849173288195,396.7571332263536L-174.14714258748828,409.784162803617z" style="fill:rgb(41,170,178)"></path><path d="M17.681779858897848,-396.79617465303994L71.40564735769445,-377.81236445809935" style="fill:none;stroke:rgb(186,45,138);stroke-width:5;stroke-linecap:round"></path><path d="M-192.50834373646347,404.5541591829306L-191.01847185253413,412.398118762636L-174.14714258748828,409.784162803617zM-186.9849173288195,396.7571332263536L-192.50834373646347,404.5541591829306L-174.14714258748828,409.784162803617z" style="fill:rgb(41,170,178)"></path><path d="M-234.41217703638574,276.3747296421535L-181.25513272036142,296.9068960619585" style="fill:none;stroke:rgb(41,170,178);stroke-width:5;stroke-linecap:round"></path><path d="M-372.4207538459606,-368.5958962108691L61.873176476061026,-542.3929551490996L-201.74174232864857,-307.054532357411z" style="fill:rgb(0,0,0); fill-opacity: 0.2"></path><path d="M100.61985268017028,-392.2490820169607L95.85620764057721,-395.6706508107238L108.81055438797975,-382.9268933446357z" style="fill:rgb(186,45,138)"></path><path d="M-180.02603708944662,363.9636355489424L-184.9281367750382,360.9145946103252L-172.0778144223194,373.94024607404816z" style="fill:rgb(41,170,178)"></path><path d="M90.38883957314417,-388.0374700894365L91.77830647053395,-379.9015845365969L108.81055438797975,-382.9268933446357z" style="fill:rgb(186,45,138)"></path><path d="M-190.45618858587278,368.7110525170299L-188.9656879322191,376.575096116821L-172.0778144223194,373.94024607404816z" style="fill:rgb(41,170,178)"></path><path d="M95.85620764057721,-395.6706508107238L90.38883957314417,-388.0374700894365L108.81055438797975,-382.9268933446357z" style="fill:rgb(186,45,138)"></path><path d="M-184.9281367750382,360.9145946103252L-190.45618858587278,368.7110525170299L-172.0778144223194,373.94024607404816z" style="fill:rgb(41,170,178)"></path><path d="M-232.39838246391494,240.41234677991648L-179.1878202629235,260.8808229590753" style="fill:none;stroke:rgb(41,170,178);stroke-width:5;stroke-linecap:round"></path><path d="M-6.3756075655901085,-386.9569858765036L47.382165637239986,-367.9190607333944" style="fill:none;stroke:rgb(186,45,138);stroke-width:5;stroke-linecap:round"></path><path d="M-177.9619955327986,328.075769612035L-182.86757875507152,325.0062278837725L-170.00468433094892,338.0304741899061zM-188.40026365122716,332.8021025000801L-186.9091344300194,340.68629069870155L-170.00468433094892,338.0304741899061zM-182.86757875507152,325.0062278837725L-188.40026365122716,332.8021025000801L-170.00468433094892,338.0304741899061z" style="fill:rgb(41,170,178)"></path><path d="M-230.38088840518455,204.38389841969732L-177.1167012745735,224.7884152484669" style="fill:none;stroke:rgb(41,170,178);stroke-width:5;stroke-linecap:round"></path><path d="M76.69159104441835,-382.39897713919004L71.90824010832075,-385.82135525271883L84.87514238423523,-373.0527976415206zM66.42663973448657,-378.1733944994147L67.827039675419,-370.02757877878696L84.87514238423523,-373.0527976415206z" style="fill:rgb(186,45,138)"></path><path d="M-175.8941615624306,292.1219642880454L-180.80323285285968,289.031851530964L-167.92774182596332,302.05466549320744z" style="fill:rgb(41,170,178)"></path><path d="M71.90824010832075,-385.82135525271883L66.42663973448657,-378.1733944994147L84.87514238423523,-373.0527976415206z" style="fill:rgb(186,45,138)"></path><path d="M-186.34055853540573,296.8271275351327L-184.848800953117,304.7315211437654L-167.92774182596332,302.05466549320744zM-180.80323285285968,289.031851530964L-186.34055853540573,296.8271275351327L-167.92774182596332,302.05466549320744z" style="fill:rgb(41,170,178)"></path><path d="M-228.35968465648617,168.28920234347606L-175.04176523220693,188.62948954898826" style="fill:none;stroke:rgb(41,170,178);stroke-width:5;stroke-linecap:round"></path><path d="M-30.512808318054006,-377.085154386651L23.278799667906043,-357.9928592319983" style="fill:none;stroke:rgb(186,45,138);stroke-width:5;stroke-linecap:round"></path><path d="M-173.82252471661522,256.1020376770148L-178.73508861401228,252.99128336820038L-165.84697638134142,266.0126376572285zM-184.27706280301857,260.7859453568288L-182.7846770704545,268.7106054201859L-165.84697638134142,266.0126376572285zM-178.73508861401228,252.99128336820038L-184.27706280301857,260.7859453568288L-165.84697638134142,266.0126376572285z" style="fill:rgb(41,170,178)"></path><path d="M-226.334760976553,132.12807566250527L-172.96300157389584,152.4038618029315" style="fill:none;stroke:rgb(41,170,178);stroke-width:5;stroke-linecap:round"></path><path d="M52.68391712925483,-372.51618207720566L47.880755604104515,-375.9393560359313L60.860225434124494,-363.1459036958196zM42.384858466754494,-368.27655909446605L43.7962564583329,-360.1207920572352L60.860225434124494,-363.1459036958196zM47.880755604104515,-375.9393560359313L42.384858466754494,-368.27655909446605L60.860225434124494,-363.1459036958196z" style="fill:rgb(186,45,138)"></path><path d="M-171.74707449510996,220.0158072093179L-176.66313554563217,216.8843405407401L-163.76237743227674,229.90420768342514zM-182.20976598023034,224.6783730283205L-180.716752312559,232.6233608257502L-163.76237743227674,229.90420768342514zM-176.66313554563217,216.8843405407401L-182.20976598023034,224.6783730283205L-163.76237743227674,229.90420768342514z" style="fill:rgb(41,170,178)"></path><path d="M-224.3061070863859,95.90033481422094L-170.8803996987092,116.11134727290239" style="fill:none;stroke:rgb(41,170,178);stroke-width:5;stroke-linecap:round"></path><path d="M-54.73022024417457,-367.1805174692733L-0.9048496673680223,-348.0335955902958" style="fill:none;stroke:rgb(186,45,138);stroke-width:5;stroke-linecap:round"></path><path d="M-169.66780035898006,183.8630896425782L-174.5873631161374,180.7108395197059L-161.6739343749989,193.72919189833584zM-180.13865755458338,188.5042269381761L-178.64501617136506,196.46960398476983L-161.6739343749989,193.72919189833584zM-174.5873631161374,180.7108395197059L-180.13865755458338,188.5042269381761L-161.6739343749989,193.72919189833584z" style="fill:rgb(41,170,178)"></path><path d="M-222.27371266908034,59.6057955591366L-168.79394896653278,79.75176053868047" style="fill:none;stroke:rgb(41,170,178);stroke-width:5;stroke-linecap:round"></path><path d="M28.596434951541053,-362.6005338239532L23.77335742639267,-366.02449000536L36.76540674781488,-353.20604781948845zM18.26309866087203,-358.34680040404254L19.685560177967485,-350.1810608549719L36.76540674781488,-353.20604781948845zM23.77335742639267,-366.02449000536L18.26309866087203,-358.34680040404254L36.76540674781488,-353.20604781948845z" style="fill:rgb(186,45,138)"></path><path d="M-244.4260121271031,455.20199254903275L-201.74174232864857,-307.054532357411L-372.4207538459606,-368.5958962108691z" style="fill:rgb(0,0,0); fill-opacity: 0.2"></path><path d="M-167.58469173041982,147.6437010585665L-172.50776075508347,144.47059609897596L-159.58163656659337,157.48740595046695zM-178.06372697481913,152.2633227972676L-176.56945810003685,160.2491508449751L-159.58163656659337,157.48740595046695zM-172.50776075508347,144.47059609897596L-178.06372697481913,152.2633227972676L-159.58163656659337,157.48740595046695z" style="fill:rgb(41,170,178)"></path><path d="M-79.02824383822313,-357.24291132691957L-25.169184148832237,-338.04110434792267" style="fill:none;stroke:rgb(186,45,138);stroke-width:5;stroke-linecap:round"></path><path d="M-220.23756736965078,23.244272977720033L-166.70363869788804,43.32491549406098" style="fill:none;stroke:rgb(41,170,178);stroke-width:5;stroke-linecap:round"></path><path d="M-165.49773799257363,111.35745686008234L-170.42431785298345,108.16342539205682L-157.48547332482107,121.17866480716158z" style="fill:rgb(41,170,178)"></path><path d="M4.428745891036493,-352.65186828681124L-0.41435376954714176,-356.0765929189124L12.590286890698694,-343.2330652334315z" style="fill:rgb(186,45,138)"></path><path d="M-175.98496365069923,115.95547563564125L-174.49006751278907,123.96181667439163L-157.48547332482107,121.17866480716158zM-170.42431785298345,108.16342539205682L-175.98496365069923,115.95547563564125L-157.48547332482107,121.17866480716158z" style="fill:rgb(41,170,178)"></path><path d="M-218.19766079485524,-13.184418532747307L-164.60945817374989,6.830625343679692" style="fill:none;stroke:rgb(41,170,178);stroke-width:5;stroke-linecap:round"></path><path d="M-201.74174232864857,-307.054532357411L-372.4207538459606,-368.5958962108691M-201.74174232864857,-307.054532357411L-372.4207538459606,-368.5958962108691" style="fill:none;stroke:rgb(0,0,0);stroke-width:1;stroke-linecap:round"></path><path d="M-5.939039438722673,-348.38395386816603L-4.505448449397173,-340.2082205656831L12.590286890698694,-343.2330652334315zM-0.41435376954714176,-356.0765929189124L-5.939039438722673,-348.38395386816603L12.590286890698694,-343.2330652334315z" style="fill:rgb(186,45,138)"></path><path d="M-163.40692848935544,75.0041717678174L-168.33702376112765,71.78914182893934L-155.38543392793648,84.80278275145032z" style="fill:rgb(41,170,178)"></path><path d="M-103.40728226513895,-347.27217106986683L-49.51460824217639,-328.0152189386012" style="fill:none;stroke:rgb(186,45,138);stroke-width:5;stroke-linecap:round"></path><path d="M-173.90235695282527,79.5804997993706L-172.406833784707,87.60741605819982L-155.38543392793648,84.80278275145032zM-168.33702376112765,71.78914182893934L-173.90235695282527,79.5804997993706L-155.38543392793648,84.80278275145032z" style="fill:rgb(41,170,178)"></path><path d="M-216.15398251301838,-49.6804652613282L-162.51139663536327,-29.731297400180015" style="fill:none;stroke:rgb(41,170,178);stroke-width:5;stroke-linecap:round"></path><path d="M-19.819551331590635,-342.6700202785396L-24.68277999369507,-346.09549943833554L-11.665536238679303,-333.2267900583962z" style="fill:rgb(186,45,138)"></path><path d="M-161.312252525267,38.58365981720237L-166.2458677914024,35.34755915293712L-153.28150761450473,48.359573378884875z" style="fill:rgb(41,170,178)"></path><path d="M-30.221958256160896,-338.3878538283379L-28.777171371934152,-330.2021054846228L-11.665536238679303,-333.2267900583962z" style="fill:rgb(186,45,138)"></path><path d="M-171.81589621245763,43.138208947392165L-170.3197462515656,51.18576289557671L-153.28150761450473,48.359573378884875z" style="fill:rgb(41,170,178)"></path><path d="M-24.68277999369507,-346.09549943833554L-30.221958256160896,-338.3878538283379L-11.665536238679303,-333.2267900583962z" style="fill:rgb(186,45,138)"></path><path d="M-166.2458677914024,35.34755915293712L-171.81589621245763,43.138208947392165L-153.28150761450473,48.359573378884875z" style="fill:rgb(41,170,178)"></path><path d="M-214.10652205385355,-86.24405418660518L-160.40944328405922,-66.36104092079786" style="fill:none;stroke:rgb(41,170,178);stroke-width:5;stroke-linecap:round"></path><path d="M-127.86774138282786,-337.2681307070006L-73.941529121004,-317.9557716808868" style="fill:none;stroke:rgb(186,45,138);stroke-width:5;stroke-linecap:round"></path><path d="M-159.21369936521629,2.0957343552358925L-164.15083921610727,-1.1615095824928139L-151.17368358321787,11.848849594354062zM-169.7255707213332,6.628416048323408L-168.22879420964736,14.696670396520613L-151.17368358321787,11.848849594354062zM-164.15083921610727,-1.1615095824928139L-169.7255707213332,6.628416048323408L-151.17368358321787,11.848849594354062z" style="fill:rgb(41,170,178)"></path><path d="M-212.05526890828426,-122.8753729798737L-158.3035872810695,-103.05879410024538" style="fill:none;stroke:rgb(41,170,178);stroke-width:5;stroke-linecap:round"></path><path d="M-44.148860676973015,-332.65482350813653L-49.03232594355117,-336.0810431200563L-36.002467430915864,-323.18705530577614zM-54.586062906447836,-328.35833351835714L-53.13001322453193,-320.16254879943614L-36.002467430915864,-323.18705530577614z" style="fill:rgb(186,45,138)"></path><path d="M-157.11125823433323,-34.45979196270415L-162.05192726777193,-37.73825201694648L-149.0619509927099,-24.729576391117995z" style="fill:rgb(41,170,178)"></path><path d="M-49.03232594355117,-336.0810431200563L-54.586062906447836,-328.35833351835714L-36.002467430915864,-323.18705530577614z" style="fill:rgb(186,45,138)"></path><path d="M-167.63136973148235,-29.94906662273687L-166.13396691555954,-21.860048921342248L-149.0619509927099,-24.729576391117995zM-162.05192726777193,-37.73825201694648L-167.63136973148235,-29.94906662273687L-149.0619509927099,-24.729576391117995z" style="fill:rgb(41,170,178)"></path><path d="M-210.00021252826403,-159.57461000835298L-156.19381774734012,-139.82474652263224" style="fill:none;stroke:rgb(41,170,178);stroke-width:5;stroke-linecap:round"></path><path d="M-152.41002976468468,-327.2306231366032L-98.45035668953213,-307.8625937688184" style="fill:none;stroke:rgb(186,45,138);stroke-width:5;stroke-linecap:round"></path><path d="M-155.0049183177861,-71.08310717606696L-159.94912113897152,-74.38285648628784L-146.94629896137124,-61.375893063591434zM-165.53328245504463,-66.594427487426L-164.03525358605012,-58.48458323596866L-146.94629896137124,-61.375893063591434zM-159.94912113897152,-74.38285648628784L-165.53328245504463,-66.594427487426L-146.94629896137124,-61.375893063591434z" style="fill:rgb(41,170,178)"></path><path d="M-207.94134232659582,-196.34195433841467L-154.08012376334423,-176.65908847737126" style="fill:none;stroke:rgb(41,170,178);stroke-width:5;stroke-linecap:round"></path><path d="M-68.55958880947686,-322.6061105716042L-73.46339902663134,-326.03305640592856L-60.420914188267204,-313.113692868322zM-79.03176121799174,-318.2952250550464L-77.56438135128018,-310.08938258088904L-60.420914188267204,-313.113692868322zM-73.46339902663134,-326.03305640592856L-79.03176121799174,-318.2952250550464L-60.420914188267204,-313.113692868322z" style="fill:rgb(186,45,138)"></path><path d="M-152.8946687605954,-107.77440002235303L-157.84240998214122,-111.09551202588109L-144.82671656716133,-98.0902896094482zM-163.43129806408345,-103.3078556673529L-161.93264339782257,-95.17712142412726L-144.82671656716133,-98.0902896094482zM-157.84240998214122,-111.09551202588109L-163.43129806408345,-103.3078556673529L-144.82671656716133,-98.0902896094482z" style="fill:rgb(41,170,178)"></path><path d="M-205.87864767675015,-233.17759573883015L-151.9624943688936,-213.5620109624613" style="fill:none;stroke:rgb(41,170,178);stroke-width:5;stroke-linecap:round"></path><path d="M-177.0345587223421,-317.15948013704985L-123.04150360552042,-297.73551526247644" style="fill:none;stroke:rgb(186,45,138);stroke-width:5;stroke-linecap:round"></path><path d="M-150.7804986674479,-144.53385994035636L-155.73178290938966,-147.87640837384157L-142.70319284742104,-134.8729559186476zM-161.3254056904,-140.08954098735137L-159.82612548735005,-131.93785306464548L-142.70319284742104,-134.8729559186476zM-155.73178290938966,-147.87640837384157L-161.3254056904,-140.08954098735137L-142.70319284742104,-134.8729559186476z" style="fill:rgb(41,170,178)"></path><path d="M-203.8121179126823,-270.0817246840347L-149.84091856294924,-250.53370568778826" style="fill:none;stroke:rgb(41,170,178);stroke-width:5;stroke-linecap:round"></path><path d="M-93.05214511986013,-312.5237129426216L-97.97640938318926,-315.95137061388886L-84.92128674739335,-303.0065335107584zM-103.55946375535922,-308.19835942888454L-102.08068582818203,-299.98243777350535L-84.92128674739335,-303.0065335107584zM-97.97640938318926,-315.95137061388886L-103.55946375535922,-308.19835942888454L-84.92128674739335,-303.0065335107584z" style="fill:rgb(186,45,138)"></path><path d="M-148.66239710250878,-181.36167707342486L-153.61722899231148,-184.72573597430403L-140.57571679868354,-171.72408258800004zM-159.21559442534587,-176.93967397875207L-157.71568895068822,-168.76696844167458L-140.57571679868354,-171.72408258800004zM-153.61722899231148,-184.72573597430403L-159.21559442534587,-176.93967397875207L-140.57571679868354,-171.72408258800004z" style="fill:rgb(41,170,178)"></path><path d="M-201.74174232864857,-307.054532357411L-147.71538530343088,-287.5743650784452" style="fill:none;stroke:rgb(186,45,138);stroke-width:5;stroke-linecap:round"></path><path d="M-201.74174232864857,-307.054532357411L-147.71538530343088,-287.5743650784452" style="fill:none;stroke:rgb(41,170,178);stroke-width:5;stroke-linecap:round"></path><path d="M-146.54035308923332,-218.2580422727386L-151.4987372617985,-221.6436859807098L-138.4442773764844,-208.64386092445935z" style="fill:rgb(41,170,178)"></path><path d="M-117.62694174815903,-302.4074609631233L-122.57176990916817,-305.835815928517L-109.50399810233243,-292.8654068603064z" style="fill:rgb(186,45,138)"></path><path d="M-157.10185331963444,-213.85844588267182L-155.6013228432871,-205.6646585479726L-138.4442773764844,-208.64386092445935zM-151.4987372617985,-221.6436859807098L-157.10185331963444,-213.85844588267182L-138.4442773764844,-208.64386092445935z" style="fill:rgb(41,170,178)"></path><path d="M-128.16958384226055,-298.0675664945448L-126.67933948609465,-289.8415441861089L-109.50399810233243,-292.8654068603064zM-122.57176990916817,-305.835815928517L-128.16958384226055,-298.0675664945448L-109.50399810233243,-292.8654068603064z" style="fill:rgb(186,45,138)"></path><path d="M-144.41435561017715,-255.22314710060672L-149.37629670785037,-258.6304502591122L-136.3088634951701,-245.6324829484328zM-154.98417138315193,-250.84604865332253L-153.48301617980175,-242.63111508820626L-136.3088634951701,-245.6324829484328zM-149.37629670785037,-258.6304502591122L-154.98417138315193,-250.84604865332253L-136.3088634951701,-245.6324829484328z" style="fill:rgb(41,170,178)"></path><path d="M-142.2843936068055,-292.2571838337828L-147.2498962793834,-295.6862213915002L-134.16946402770625,-282.6901413971105z" style="fill:rgb(186,45,138)"></path><path d="M-142.2843936068056,-292.25718383378273L-147.2498962793834,-295.6862213915001L-134.16946402770625,-282.6901413971105z" style="fill:rgb(41,170,178)"></path><path d="M-152.86253758476641,-287.9026749613375L-151.3607579339022,-279.6665304822711L-134.16946402770625,-282.6901413971105z" style="fill:rgb(186,45,138)"></path><path d="M-152.8625375847665,-287.9026749613375L-151.36075793390228,-279.666530482271L-134.16946402770625,-282.6901413971105z" style="fill:rgb(41,170,178)"></path><path d="M-147.2498962793834,-295.6862213915002L-152.86253758476641,-287.9026749613375L-134.16946402770625,-282.6901413971105z" style="fill:rgb(186,45,138)"></path><path d="M-147.2498962793834,-295.6862213915001L-152.8625375847665,-287.9026749613375L-134.16946402770625,-282.6901413971105z" style="fill:rgb(41,170,178)"></path></svg>