<svg viewBox="-812 -590 1624 1180" width="1624" height="1180" style="background-color: rgb(255, 255, 255);"><path d="M15.83518316242262,197.08841355138054L61.873176476061026,-542.3929551490996M186.9086801934662,261.88127362653L15.83518316242262,197.08841355138054M186.90868019346615,261.88127362653L236.53496417775554,-481.8744823740089M172.4483236843043,270.28193988628044L186.90868019346615,261.88127362653" style="fill:none;stroke:rgb(0,0,0);stroke-width:1;stroke-linecap:round"></path><path d="M220.18532139888254,-448.98177297365737L172.4483236843043,270.28193988628044" style="fill:none;stroke:rgb(58,110,14);stroke-width:5;stroke-linecap:round"></path><path d="M172.4483236843043,270.28193988628044L130.90764248239705,289.38264954348006M174.794274613618,234.93498770269034L133.2228084434496,253.9507148265578M177.14446074643635,199.5242227880245L135.542166133695,218.4546287366405" style="fill:none;stroke:rgb(128,207,62);stroke-width:5;stroke-linecap:round"></path><path d="M236.53496417775563,-481.8744823740089L186.9086801934662,261.88127362653L15.83518316242262,197.08841355138054z" style="fill:rgb(0,0,0); fill-opacity: 0.2"></path><path d="M179.49889356199847,164.04947218209475L137.86572694746604,182.8942168917347" style="fill:none;stroke:rgb(128,207,62);stroke-width:5;stroke-linecap:round"></path><path d="M131.40624688825952,281.7518709922713L124.84413658117678,284.65784001668464L120.48492376867925,294.1750919933705zM134.3477849536458,297.01854404173076L137.2825479940495,289.3932643577361L120.48492376867925,294.1750919933705zM137.2825479940495,289.3932643577361L131.40624688825952,281.7518709922713L120.48492376867925,294.1750919933705z" style="fill:rgb(128,207,62)"></path><path d="M181.8575845810659,128.5105622990847L140.19350232043044,147.26930427724605" style="fill:none;stroke:rgb(128,207,62);stroke-width:5;stroke-linecap:round"></path><path d="M133.7223152780788,246.3061252580445L127.15334677788712,249.22886713403696L122.79233165058223,258.72185038509457zM136.6660756897282,261.5933122375205L139.60423361060776,253.94983115947275L122.79233165058223,258.72185038509457zM139.60423361060776,253.94983115947275L133.7223152780788,246.3061252580445L122.79233165058223,258.72185038509457z" style="fill:rgb(128,207,62)"></path><path d="M184.22054536611063,92.90731892471878L142.52550372977845,111.57971524310844" style="fill:none;stroke:rgb(128,207,62);stroke-width:5;stroke-linecap:round"></path><path d="M136.04257784928134,210.79619062182945L129.46673706614573,213.7357613498801L125.10392024169231,223.20437232570117zM138.98856383669755,226.10394082763588L141.930124127056,218.44220490798492L125.10392024169231,223.20437232570117zM141.930124127056,218.44220490798492L136.04257784928134,210.79619062182945L125.10392024169231,223.20437232570117z" style="fill:rgb(128,207,62)"></path><path d="M186.58778752150377,57.239567213414965L144.86174269441142,75.82527350089663" style="fill:none;stroke:rgb(128,207,62);stroke-width:5;stroke-linecap:round"></path><path d="M220.18532139888254,-448.98177297365737L172.4483236843043,270.28193988628044L186.90868019346615,261.88127362653z" style="fill:rgb(0,0,0); fill-opacity: 0.2"></path><path d="M138.3670460050924,175.2218925655382L131.7843188063267,178.17834836809027L127.41970091462692,187.62248307532093zM141.3152608043969,190.55025546106762L144.2602309772479,182.87021105120235L127.41970091462692,187.62248307532093zM144.2602309772479,182.87021105120235L138.3670460050924,175.2218925655382L127.41970091462692,187.62248307532093z" style="fill:rgb(128,207,62)"></path><path d="M188.95932269370593,21.507131685423026L147.20223077513145,40.00580212092405" style="fill:none;stroke:rgb(128,207,62);stroke-width:5;stroke-linecap:round"></path><path d="M61.873176476061026,-542.3929551490996L15.83518316242262,197.08841355138054L236.53496417775563,-481.8744823740089z" style="fill:rgb(0,0,0); fill-opacity: 0.2"></path><path d="M140.69573119011264,139.58305593786457L134.10610340000736,142.5564532603839L129.7396850832895,151.97600725972507zM143.6461780440605,154.93208115431418L146.5945656365289,147.23367440363083L129.7396850832895,151.97600725972507zM146.5945656365289,147.23367440363083L140.69573119011264,139.58305593786457L129.7396850832895,151.97600725972507z" style="fill:rgb(128,207,62)"></path><path d="M191.3351625714579,-14.290163776053367L149.5469795748323,4.121123529324323" style="fill:none;stroke:rgb(128,207,62);stroke-width:5;stroke-linecap:round"></path><path d="M143.0286448905058,103.87950495140956L136.43210229015546,106.86990046344891L132.06388420305714,116.2647688674446zM145.98132704850198,119.24924228851116L148.9331396219248,111.53241914347636L132.06388420305714,116.2647688674446zM148.9331396219248,111.53241914347636L143.0286448905058,103.87950495140956L132.06388420305714,116.2647688674446z" style="fill:rgb(128,207,62)"></path><path d="M193.7153188859728,-50.15249592775022L151.89600073869084,-31.828940494883348" style="fill:none;stroke:rgb(128,207,62);stroke-width:5;stroke-linecap:round"></path><path d="M145.3657986341875,68.111063179791L138.7623269613168,71.11851377606047L134.39230977096904,80.48859124687313zM148.32071935230312,83.50156260654505L151.27596449233084,75.76626880975338L134.39230977096904,80.48859124687313zM151.27596449233084,75.76626880975338L145.3657986341875,68.111063179791L134.39230977096904,80.48859124687313z" style="fill:rgb(128,207,62)"></path><path d="M196.0998034111291,-86.08004216925238L154.24930595436,-67.84456882274442" style="fill:none;stroke:rgb(128,207,62);stroke-width:5;stroke-linecap:round"></path><path d="M147.70720399101523,32.27755355473774L141.09678893980458,35.302116356181216L136.7249733259161,44.64729710335409zM150.66436653200378,47.68886521015127L153.62305184870223,39.93504629937765L136.7249733259161,44.64729710335409zM153.62305184870223,39.93504629937765L147.70720399101523,32.27755355473774L136.7249733259161,44.64729710335409z" style="fill:rgb(128,207,62)"></path><path d="M198.4886279636649,-122.07298054591864L156.60690695216263,-103.92594097833575" style="fill:none;stroke:rgb(128,207,62);stroke-width:5;stroke-linecap:round"></path><path d="M236.53496417775563,-481.8744823740089L61.873176476061026,-542.3929551490996M61.873176476061026,-542.3929551490996L-372.4207538459606,-368.5958962108691M236.53496417775563,-481.8744823740089L61.873176476061026,-542.3929551490996" style="fill:none;stroke:rgb(0,0,0);stroke-width:1;stroke-linecap:round"></path><path d="M150.0528725729791,-3.6212016368324016L143.43549979388925,-0.5794692819547922L139.06188644883161,8.740708496252108zM153.01228020629293,11.810972556995875L155.9744133342458,4.0385738642428946L139.06188644883161,8.740708496252108zM155.9744133342458,4.0385738642428946L150.0528725729791,-3.6212016368324016L139.06188644883161,8.740708496252108z" style="fill:rgb(128,207,62)"></path><path d="M200.881804403373,-158.13148975182307L158.96881550528633,-140.07323714174836" style="fill:none;stroke:rgb(128,207,62);stroke-width:5;stroke-linecap:round"></path><path d="M152.4028160343941,-39.585380755750286L145.77847113398965,-36.52642127077366L141.40306076288283,-27.231353163991887zM155.36447203620045,-24.13229354225817L158.33006063461235,-31.9233268917183L141.40306076288283,-27.231353163991887zM158.33006063461235,-31.9233268917183L152.4028160343941,-39.585380755750286L141.40306076288283,-27.231353163991887z" style="fill:rgb(128,207,62)"></path><path d="M236.53496417775554,-481.8744823740089L186.90868019346615,261.88127362653L220.18532139888254,-448.98177297365737z" style="fill:rgb(0,0,0); fill-opacity: 0.2"></path><path d="M203.27934463329717,-194.25574913271194L161.3350434299793,-176.28663815208682" style="fill:none;stroke:rgb(128,207,62);stroke-width:5;stroke-linecap:round"></path><path d="M154.75704607209286,-75.6151628135496L148.1257146128652,-72.53891839230947L143.7485079336636,-63.26906711882142zM157.7209537252904,-60.141111926900976L160.69000547809034,-67.95083501548982L143.7485079336636,-63.26906711882142zM160.69000547809034,-67.95083501548982L154.75704607209286,-75.6151628135496L143.7485079336636,-63.26906711882142z" style="fill:rgb(128,207,62)"></path><path d="M205.68126059992957,-230.44593868897724L163.70560258574778,-212.56632551048475" style="fill:none;stroke:rgb(128,207,62);stroke-width:5;stroke-linecap:round"></path><path d="M157.11557442561963,-111.71072747543678L150.47724192580895,-108.61714008116823L146.09823966938836,-99.37261326454157zM160.0817370198551,-96.21566208914183L163.05425963580035,-104.04413020794343L146.09823966938836,-99.37261326454157zM163.05425963580035,-104.04413020794343L157.11557442561963,-111.71072747543678L146.09823966938836,-99.37261326454157z" style="fill:rgb(128,207,62)"></path><path d="M208.08756429340914,-266.7022390786465L166.08050487555371,-248.91248138313716" style="fill:none;stroke:rgb(128,207,62);stroke-width:5;stroke-linecap:round"></path><path d="M159.47841287742585,-147.87225506327775L152.83306481084193,-144.76126642750808L148.45226772108666,-135.5421721553124zM162.44683370911014,-132.3561241770917L165.42283492189105,-140.20339282682664L148.45226772108666,-135.5421721553124zM165.42283492189105,-140.20339282682664L159.47841287742585,-147.87225506327775L148.45226772108666,-135.5421721553124z" style="fill:rgb(128,207,62)"></path><path d="M210.4982677477211,-303.0248316203889L168.4597622460144,-285.32528860434985" style="fill:none;stroke:rgb(128,207,62);stroke-width:5;stroke-linecap:round"></path><path d="M161.84557325306588,-184.0999265585999L155.1931950489085,-180.97147818003546L150.81060388279926,-171.7779250061589zM164.81625562539077,-168.5626789977617L167.7957431937359,-176.42880388976673L150.81060388279926,-171.7779250061589zM167.7957431937359,-176.42880388976673L161.84557325306588,-184.0999265585999L150.81060388279926,-171.7779250061589z" style="fill:rgb(128,207,62)"></path><path d="M239.8091778534948,-394.25502529126555L230.47494869748036,-396.06835660017873L232.77623674865825,-392.9066081196362zM230.47494869748036,-396.06835660017873L224.31866245521013,-393.51276441834744L232.77623674865825,-392.9066081196362z" style="fill:rgb(41,170,178)"></path><path d="M236.98199762894492,-455.88733982533023L232.77623674865825,-392.90660811963625" style="fill:none;stroke:rgb(41,170,178);stroke-width:5;stroke-linecap:round"></path><path d="M212.9133830408976,-339.41389829653764L170.84338668760248,-321.8049306796044" style="fill:none;stroke:rgb(128,207,62);stroke-width:5;stroke-linecap:round"></path><path d="M239.4281457266921,-390.5763897446355L239.8091778534948,-394.25502529126555L232.77623674865825,-392.9066081196362zM229.85013680907133,-390.11687672152544L224.31866245521013,-393.51276441834744L231.72686924449928,-377.1924638491228zM239.4281457266921,-390.5763897446355L229.85013680907133,-390.11687672152544L231.72686924449928,-377.1924638491228zM224.31866245521013,-393.51276441834744L229.85013680907133,-390.11687672152544L232.77623674865825,-392.9066081196362zM229.85013680907133,-390.11687672152544L239.4281457266921,-390.5763897446355L232.77623674865825,-392.9066081196362z" style="fill:rgb(41,170,178)"></path><path d="M231.43285994633501,-390.7745247277488L222.09468750989097,-392.5895498764663L224.39361186929324,-389.4244087550336z" style="fill:rgb(186,45,138)"></path><path d="M164.21706742139457,-220.39392360561249L157.5576444640726,-217.2479567490186L153.1732599917751,-208.08005369599724z" style="fill:rgb(128,207,62)"></path><path d="M222.09468750989097,-392.5895498764663L215.93118912457663,-390.0309637960973L224.39361186929324,-389.4244087550336z" style="fill:rgb(186,45,138)"></path><path d="M167.1900146443492,-204.83550802007846L170.17299635213087,-212.72054507729155L153.1732599917751,-208.08005369599724z" style="fill:rgb(128,207,62)"></path><path d="M228.588586334336,-452.43658194831835L224.39361186929324,-389.42440875503365" style="fill:none;stroke:rgb(186,45,138);stroke-width:5;stroke-linecap:round"></path><path d="M231.04705783958568,-387.0918446910078L231.43285994633501,-390.7745247277488L224.39361186929324,-389.4244087550336zM221.46214812443617,-386.63152675424567L215.93118912457663,-390.0309637960973L223.34693686353202,-373.702437789607z" style="fill:rgb(186,45,138)"></path><path d="M170.17299635213087,-212.72054507729155L164.21706742139457,-220.39392360561249L153.1732599917751,-208.08005369599724z" style="fill:rgb(128,207,62)"></path><path d="M231.04705783958568,-387.0918446910078L221.46214812443617,-386.63152675424567L223.34693686353202,-373.702437789607zM215.93118912457663,-390.0309637960973L221.46214812443617,-386.63152675424567L224.39361186929324,-389.4244087550336zM221.46214812443617,-386.63152675424567L231.04705783958568,-387.0918446910078L224.39361186929324,-389.4244087550336z" style="fill:rgb(186,45,138)"></path><path d="M215.33292229521928,-375.8696217561292L173.23139023484745,-358.35159178864103" style="fill:none;stroke:rgb(128,207,62);stroke-width:5;stroke-linecap:round"></path><path d="M166.59290729476555,-256.7544285142415L159.92642492371525,-253.59088420931667L155.54024792866915,-244.44874077067755z" style="fill:rgb(128,207,62)"></path><path d="M216.51738131805013,-384.57689322113026L207.17219160168753,-386.3949363748121L209.46689624531413,-383.22374960477464z" style="fill:rgb(41,170,178)"></path><path d="M169.56812268515287,-241.1747933779162L172.5546063414935,-249.0787987358667L155.54024792866915,-244.44874077067755z" style="fill:rgb(128,207,62)"></path><path d="M207.17219160168753,-386.3949363748121L200.9958402984393,-383.83101480234717L209.46689624531413,-383.22374960477464z" style="fill:rgb(41,170,178)"></path><path d="M172.5546063414935,-249.0787987358667L166.59290729476555,-256.7544285142415L155.54024792866915,-244.44874077067755z" style="fill:rgb(128,207,62)"></path><path d="M236.98199762894492,-455.88733982533023L220.18532139888254,-448.98177297365737" style="fill:none;stroke:rgb(97,2,64);stroke-width:5;stroke-linecap:round"></path><path d="M236.98199762894492,-455.88733982533023L236.53496417775554,-481.8744823740089" style="fill:none;stroke:rgb(0,0,0);stroke-width:1;stroke-linecap:round"></path><path d="M-195.10923388714923,-278.24297469102174L236.98199762894492,-455.88733982533023" style="fill:none;stroke:rgb(0,86,91);stroke-width:5;stroke-linecap:round"></path><path d="M236.98199762894492,-455.88733982533023L236.53496417775554,-481.8744823740089" style="fill:none;stroke:rgb(0,0,0);stroke-width:1;stroke-linecap:round"></path><path d="M213.64262516483024,-446.2918939990559L209.46689624531413,-383.2237496047746" style="fill:none;stroke:rgb(41,170,178);stroke-width:5;stroke-linecap:round"></path><path d="M216.12307225676457,-380.88700579139027L216.51738131805013,-384.57689322113026L209.46689624531413,-383.22374960477464zM206.52587073224876,-380.4252530124246L200.9958402984393,-383.83101480234717L208.42502528113565,-367.487845843897zM216.12307225676457,-380.88700579139027L206.52587073224876,-380.4252530124246L208.42502528113565,-367.487845843897zM200.9958402984393,-383.83101480234717L206.52587073224876,-380.4252530124246L209.46689624531413,-383.22374960477464z" style="fill:rgb(41,170,178)"></path><path d="M217.75689767741846,-412.3921853179599L175.62378496653847,-394.9654567885592" style="fill:none;stroke:rgb(128,207,62);stroke-width:5;stroke-linecap:round"></path><path d="M206.52587073224876,-380.4252530124246L216.12307225676457,-380.88700579139027L209.46689624531413,-383.22374960477464z" style="fill:rgb(41,170,178)"></path><path d="M236.53496417775554,-481.8744823740089L236.53496417775554,-481.8744823740089L236.98199762894492,-455.88733982533023z" style="fill:rgb(0,0,0); fill-opacity: 0.2"></path><path d="M220.18532139888254,-448.98177297365737L236.53496417775554,-481.8744823740089M236.53496417775554,-481.8744823740089L236.53496417775554,-481.8744823740089M220.18532139888254,-448.98177297365737L236.53496417775554,-481.8744823740089M236.53496417775554,-481.8744823740089L-195.81113235300148,-304.9161450821412" style="fill:none;stroke:rgb(0,0,0);stroke-width:1;stroke-linecap:round"></path><path d="M236.98199762894492,-455.88733982533023L220.18532139888254,-448.98177297365737L236.53496417775554,-481.8744823740089z" style="fill:rgb(0,0,0); fill-opacity: 0.2"></path><path d="M168.97310482923064,-293.1816242631827L162.2995483387332,-290.0004433034261L157.91157961774186,-280.8841694460447zM171.95059171068434,-277.5807178731445L174.94058515006301,-285.5037478809496L157.91157961774186,-280.8841694460447zM174.94058515006301,-285.5037478809496L168.97310482923064,-293.1816242631827L157.91157961774186,-280.8841694460447z" style="fill:rgb(128,207,62)"></path><path d="M220.18532139888254,-448.98177297365737L178.02058300592745,-431.64671121693283" style="fill:none;stroke:rgb(128,207,62);stroke-width:5;stroke-linecap:round"></path><path d="M193.14961088804716,-374.8671927237033L183.79343870347142,-376.6899688381473L186.08150471159175,-373.509298974857zM183.79343870347142,-376.6899688381473L177.59692408266298,-374.1176770868621L186.08150471159175,-373.509298974857z" style="fill:rgb(41,170,178)"></path><path d="M171.35767202474042,-329.6756945029711L164.6770266637383,-326.47681744454337L160.2872670270591,-317.38652361101373z" style="fill:rgb(128,207,62)"></path><path d="M190.22698296437065,-436.6650916260533L186.08150471159172,-373.5092989748571" style="fill:none;stroke:rgb(41,170,178);stroke-width:5;stroke-linecap:round"></path><path d="M192.74194021192363,-371.16599950765874L193.14961088804716,-374.8671927237033L186.08150471159175,-373.509298974857zM183.1254717105609,-370.7019947879624L177.59692408266298,-374.1176770868621L185.04718481840567,-357.75157725353955z" style="fill:rgb(41,170,178)"></path><path d="M174.33743372774126,-314.0534649786944L177.33094481010139,-321.9955762000604L160.2872670270591,-317.38652361101373zM177.33094481010139,-321.9955762000604L171.35767202474042,-329.6756945029711L160.2872670270591,-317.38652361101373z" style="fill:rgb(128,207,62)"></path><path d="M192.74194021192363,-371.16599950765874L183.1254717105609,-370.7019947879624L185.04718481840567,-357.75157725353955zM177.59692408266298,-374.1176770868621L183.1254717105609,-370.7019947879624L186.08150471159175,-373.509298974857zM183.1254717105609,-370.7019947879624L192.74194021192363,-371.16599950765874L186.08150471159175,-373.509298974857z" style="fill:rgb(41,170,178)"></path><path d="M173.74662092534604,-366.2368235590671L167.0588718972587,-363.0201907196449L162.66732216869372,-353.95598783066407zM176.72866078723862,-350.5932188416396L179.72569739809558,-358.55446805586894L162.66732216869372,-353.95598783066407zM179.72569739809558,-358.55446805586894L173.74662092534604,-366.2368235590671L162.66732216869372,-353.95598783066407z" style="fill:rgb(128,207,62)"></path><path d="M169.70549423528942,-365.1257690903752L160.3383176352134,-366.953299413263L162.61968934351145,-363.7631013645757zM160.3383176352134,-366.953299413263L154.121540797677,-364.37259642822113L162.61968934351145,-363.7631013645757z" style="fill:rgb(41,170,178)"></path><path d="M166.73469655779874,-427.006778751696L162.61968934351145,-363.76310136457573" style="fill:none;stroke:rgb(41,170,178);stroke-width:5;stroke-linecap:round"></path><path d="M169.28437664577527,-361.4132158361824L169.70549423528942,-365.1257690903752L162.61968934351145,-363.7631013645757zM159.6485663753135,-360.9469469071848L154.121540797677,-364.37259642822113L161.59297546723914,-347.9835029875917zM169.28437664577527,-361.4132158361824L159.6485663753135,-360.9469469071848L161.59297546723914,-347.9835029875917z" style="fill:rgb(41,170,178)"></path><path d="M176.13996361940178,-402.86519643495967L169.44509608194016,-399.6307478925843L165.05175709892777,-390.59274734935053z" style="fill:rgb(128,207,62)"></path><path d="M154.121540797677,-364.37259642822113L159.6485663753135,-360.9469469071848L162.61968934351145,-363.7631013645757z" style="fill:rgb(41,170,178)"></path><path d="M-372.4207538459606,-368.5958962108691L-411.5493988822459,389.33152890779525M-238.6197970905455,457.4904698464629L-411.5493988822459,389.33152890779525" style="fill:none;stroke:rgb(0,0,0);stroke-width:1;stroke-linecap:round"></path><path d="M179.1242849844114,-387.2001642862963L182.124855034961,-395.18060848930105L165.05175709892777,-390.59274734935053z" style="fill:rgb(128,207,62)"></path><path d="M159.6485663753135,-360.9469469071848L169.28437664577527,-361.4132158361824L162.61968934351145,-363.7631013645757z" style="fill:rgb(41,170,178)"></path><path d="M182.124855034961,-395.18060848930105L176.13996361940178,-402.86519643495967L165.05175709892777,-390.59274734935053zM178.53771223976912,-439.560998815287L171.8357113047495,-436.3086744072052L167.44058391845638,-427.29698809383046zM181.52431845901828,-423.8744868173394L184.52842988624593,-431.87418322265887L167.44058391845638,-427.29698809383046zM184.52842988624593,-431.87418322265887L178.53771223976912,-439.560998815287L167.44058391845638,-427.29698809383046z" style="fill:rgb(128,207,62)"></path><path d="M146.18465659468885,-355.3524665999669L136.80645359259051,-357.18477251171504L139.08107489644732,-353.98500089476187zM136.80645359259051,-357.18477251171504L130.56931499131113,-354.5956169690465L139.08107489644732,-353.98500089476187z" style="fill:rgb(41,170,178)"></path><path d="M143.1653890198956,-417.3168004118552L139.08107489644732,-353.9850008947619" style="fill:none;stroke:rgb(41,170,178);stroke-width:5;stroke-linecap:round"></path><path d="M145.75000616965474,-351.6284987042968L146.18465659468885,-355.3524665999669L139.08107489644732,-353.98500089476187zM136.09477891239797,-351.15995321302734L130.56931499131113,-354.5956169690465L138.06202240160295,-338.18346694066184zM145.75000616965474,-351.6284987042968L136.09477891239797,-351.15995321302734L138.06202240160295,-338.18346694066184zM130.56931499131113,-354.5956169690465L136.09477891239797,-351.15995321302734L139.08107489644732,-353.98500089476187zM136.09477891239797,-351.15995321302734L145.75000616965474,-351.6284987042968L139.08107489644732,-353.98500089476187zM122.58672074429616,-345.5471285104323L113.1974693146109,-347.3842315252493L115.46528366512078,-344.17484066407513zM113.1974693146109,-347.3842315252493L106.93986874941302,-344.7865818299444L115.46528366512078,-344.17484066407513z" style="fill:rgb(41,170,178)"></path><path d="M119.51868094983179,-407.595000624612L115.46528366512077,-344.17484066407513" style="fill:none;stroke:rgb(41,170,178);stroke-width:5;stroke-linecap:round"></path><path d="M122.13845093260217,-341.81169101560727L122.58672074429616,-345.5471285104323L115.46528366512078,-344.17484066407513zM112.46373104223812,-341.34085652398215L106.93986874941302,-344.7865818299444L114.45394833853335,-328.3513119841107zM122.13845093260217,-341.81169101560727L112.46373104223812,-341.34085652398215L114.45394833853335,-328.3513119841107z" style="fill:rgb(41,170,178)"></path><path d="M-181.55327093024607,425.38197621551416L-179.65995817127737,434.99748706741985L-175.42474131808444,430.23652464320236z" style="fill:rgb(112,56,202)"></path><path d="M106.93986874941302,-344.7865818299444L112.46373104223812,-341.34085652398215L115.46528366512078,-344.17484066407513z" style="fill:rgb(41,170,178)"></path><path d="M-169.0158235430917,430.29404402499927L-171.91328001541106,438.0355309122863L-164.57015215933248,425.245504997622zM-179.65995817127737,434.99748706741985L-171.91328001541106,438.0355309122863L-175.42474131808444,430.23652464320236z" style="fill:rgb(112,56,202)"></path><path d="M112.46373104223812,-341.34085652398215L122.13845093260217,-341.81169101560727L115.46528366512078,-344.17484066407513z" style="fill:rgb(41,170,178)"></path><path d="M-174.9764762473849,422.4715569030127L-169.0158235430917,430.29404402499927L-164.57015215933248,425.245504997622zM-174.9764762473849,422.4715569030127L-181.55327093024607,425.38197621551416L-175.42474131808444,430.23652464320236z" style="fill:rgb(112,56,202)"></path><path d="M-219.00377528100026,450.2744838384569L-175.42474131808447,430.23652464320236" style="fill:none;stroke:rgb(112,56,202);stroke-width:5;stroke-linecap:round"></path><path d="M-171.91328001541106,438.0355309122863L-169.0158235430917,430.29404402499927L-175.42474131808444,430.23652464320236zM-169.0158235430917,430.29404402499927L-174.9764762473849,422.4715569030127L-175.42474131808444,430.23652464320236zM-179.47790756856938,389.3294531167964L-177.58309427077228,398.95814647126986L-173.34328420670502,394.1809664949222zM-166.9277541351803,394.226579192089L-169.82856714969137,401.9869652755036L-162.4802123875269,389.21195220529165zM-177.58309427077228,398.95814647126986L-169.82856714969137,401.9869652755036L-173.34328420670502,394.1809664949222zM-172.89419054830637,386.40164573645296L-166.9277541351803,394.226579192089L-162.4802123875269,389.21195220529165zM-172.89419054830637,386.40164573645296L-179.47790756856938,389.3294531167964L-173.34328420670502,394.1809664949222z" style="fill:rgb(112,56,202)"></path><path d="M-216.95652335107056,414.13064667128236L-173.3432842067051,394.1809664949224" style="fill:none;stroke:rgb(112,56,202);stroke-width:5;stroke-linecap:round"></path><path d="M-169.82856714969137,401.9869652755036L-166.9277541351803,394.226579192089L-173.34328420670502,394.1809664949222z" style="fill:rgb(112,56,202)"></path><path d="M98.9113069851346,-335.7095970504791L89.51098506345309,-337.55151881743205L91.77193546339828,-334.33246274061077z" style="fill:rgb(41,170,178)"></path><path d="M-166.9277541351803,394.226579192089L-172.89419054830637,386.40164573645296L-173.34328420670502,394.1809664949222z" style="fill:rgb(112,56,202)"></path><path d="M89.51098506345309,-337.55151881743205L83.23282167563471,-334.9453331011142L91.77193546339828,-334.33246274061077z" style="fill:rgb(41,170,178)"></path><path d="M-195.81113235300145,-304.91614508214116L236.53496417775563,-481.8744823740089L61.873176476061026,-542.3929551490996z" style="fill:rgb(0,0,0); fill-opacity: 0.2"></path><path d="M95.79419045080947,-397.8412223818874L91.77193546339825,-334.33246274061077" style="fill:none;stroke:rgb(41,170,178);stroke-width:5;stroke-linecap:round"></path><path d="M98.44933060114039,-331.96263464158005L98.9113069851346,-335.7095970504791L91.77193546339828,-334.33246274061077zM88.75504199953892,-331.48949862568355L83.23282167563471,-334.9453331011142L90.76837351797225,-318.48687995765226zM98.44933060114039,-331.96263464158005L88.75504199953892,-331.48949862568355L90.76837351797225,-318.48687995765226zM83.23282167563471,-334.9453331011142L88.75504199953892,-331.48949862568355L91.77193546339828,-334.33246274061077zM88.75504199953892,-331.48949862568355L98.44933060114039,-331.96263464158005L91.77193546339828,-334.33246274061077z" style="fill:rgb(41,170,178)"></path><path d="M-177.39870744691117,353.21027909785414L-175.5023912949627,362.8521872861788L-171.2579782664305,358.0587379006009zM-164.83582238963686,358.09239975372196L-167.7399994122226,365.871741731269L-160.3864109564958,353.11181888109724zM-175.5023912949627,362.8521872861788L-167.7399994122226,365.871741731269L-171.2579782664305,358.0587379006009zM-170.808053720825,350.2650242911637L-164.83582238963686,358.09239975372196L-160.3864109564958,353.11181888109724zM-170.808053720825,350.2650242911637L-177.39870744691117,353.21027909785414L-171.2579782664305,358.0587379006009z" style="fill:rgb(112,56,202)"></path><path d="M-214.90547461300127,377.91977759018243L-171.2579782664305,358.05873790060093" style="fill:none;stroke:rgb(112,56,202);stroke-width:5;stroke-linecap:round"></path><path d="M-167.7399994122226,365.871741731269L-164.83582238963686,358.09239975372196L-171.2579782664305,358.0587379006009zM-164.83582238963686,358.09239975372196L-170.808053720825,350.2650242911637L-171.2579782664305,358.0587379006009zM-175.31565991580123,317.0242691596264L-173.41783858922605,326.6794246249386L-169.1688128120594,321.86965376831387zM-162.7400175801934,321.89132043382693L-165.6475661009641,329.68967522138075L-158.28873715334532,316.94492031941815zM-173.41783858922605,326.6794246249386L-165.6475661009641,329.68967522138075L-169.1688128120594,321.86965376831387zM-168.71805507122272,314.06150732769163L-162.7400175801934,321.89132043382693L-158.28873715334532,316.94492031941815z" style="fill:rgb(112,56,202)"></path><path d="M75.15803312083466,-325.839713411106L65.74661860410608,-327.6864757151985L68.00064760388923,-324.45770815342496z" style="fill:rgb(41,170,178)"></path><path d="M-168.71805507122272,314.06150732769163L-175.31565991580123,317.0242691596264L-169.1688128120594,321.86965376831387z" style="fill:rgb(112,56,202)"></path><path d="M-212.85061849471884,341.64168994724054L-169.16881281205943,321.869653768314" style="fill:none;stroke:rgb(112,56,202);stroke-width:5;stroke-linecap:round"></path><path d="M65.74661860410608,-327.6864757151985L59.447790871020075,-325.071711833875L68.00064760388923,-324.45770815342496z" style="fill:rgb(41,170,178)"></path><path d="M-165.6475661009641,329.68967522138075L-162.7400175801934,321.89132043382693L-169.1688128120594,321.86965376831387zM-162.7400175801934,321.89132043382693L-168.71805507122272,314.06150732769163L-169.1688128120594,321.86965376831387z" style="fill:rgb(112,56,202)"></path><path d="M-219.00377528100026,450.2744838384569L-177.32509775669308,-285.5545129540687" style="fill:none;stroke:rgb(47,10,107);stroke-width:5;stroke-linecap:round"></path><path d="M-219.00377528100026,450.2744838384569L-238.61979709054555,457.4904698464628" style="fill:none;stroke:rgb(0,0,0);stroke-width:1;stroke-linecap:round"></path><path d="M71.99153310950331,-388.05530764099007L68.0006476038892,-324.45770815342496" style="fill:none;stroke:rgb(41,170,178);stroke-width:5;stroke-linecap:round"></path><path d="M74.68226233885368,-322.081170413053L75.15803312083466,-325.839713411106L68.00064760388923,-324.45770815342496zM64.9683285128355,-321.6057202624105L59.447790871020075,-325.071711833875L67.00491568240396,-308.59001166087427zM74.68226233885368,-322.081170413053L64.9683285128355,-321.6057202624105L67.00491568240396,-308.59001166087427zM59.447790871020075,-325.071711833875L64.9683285128355,-321.6057202624105L68.00064760388923,-324.45770815342496zM64.9683285128355,-321.6057202624105L74.68226233885368,-322.081170413053L68.00064760388923,-324.45770815342496z" style="fill:rgb(41,170,178)"></path><path d="M-195.10923388714923,-278.24297469102174L236.98199762894492,-455.88733982533023L236.53496417775554,-481.8744823740089z" style="fill:rgb(0,0,0); fill-opacity: 0.2"></path><path d="M-173.22875428632062,280.7712376177629L-171.329425459477,290.43967291554935L-167.07577711880094,285.61352832036044zM-160.64032894082715,285.623155269646L-163.5512564742234,293.44058000198163L-156.18718022551928,280.7110711307955zM-171.329425459477,290.43967291554935L-163.5512564742234,293.44058000198163L-167.07577711880094,285.61352832036044zM-166.6241838661525,277.7909089201238L-160.64032894082715,285.623155269646L-156.18718022551928,280.7110711307955zM-166.6241838661525,277.7909089201238L-173.22875428632062,280.7712376177629L-167.07577711880094,285.61352832036044z" style="fill:rgb(112,56,202)"></path><path d="M-210.79194438486314,305.2961964009437L-167.075777118801,285.6135283203605" style="fill:none;stroke:rgb(112,56,202);stroke-width:5;stroke-linecap:round"></path><path d="M-163.5512564742234,293.44058000198163L-160.64032894082715,285.623155269646L-167.07577711880094,285.61352832036044zM-160.64032894082715,285.623155269646L-166.6241838661525,277.7909089201238L-167.07577711880094,285.61352832036044z" style="fill:rgb(112,56,202)"></path><path d="M-195.81113235300148,-304.9161450821412L-238.61979709054555,457.4904698464628" style="fill:none;stroke:rgb(0,0,0);stroke-width:1;stroke-linecap:round"></path><path d="M51.326514437067836,-315.937317737058L41.90398518380831,-317.78894250031755L44.151034877342376,-314.55041688397597z" style="fill:rgb(41,170,178)"></path><path d="M-171.13797982991892,244.45099809944878L-169.23714117198418,254.13274589804476L-164.9788604220916,249.2901750900849z" style="fill:rgb(112,56,202)"></path><path d="M41.90398518380831,-317.78894250031755L35.58439091339,-315.1655580321075L44.151034877342376,-314.55041688397597z" style="fill:rgb(41,170,178)"></path><path d="M-158.53674566557635,249.28771760855014L-161.45105975047227,257.1242696403808L-154.08172938061514,244.4100852387638zM-169.23714117198418,254.13274589804476L-161.45105975047227,257.1242696403808L-164.9788604220916,249.2901750900849zM-164.526429332455,241.4530424529047L-158.53674566557635,249.28771760855014L-154.08172938061514,244.4100852387638z" style="fill:rgb(112,56,202)"></path><path d="M48.11032197529774,-378.2370973160802L44.15103487734236,-314.55041688397597" style="fill:none;stroke:rgb(41,170,178);stroke-width:5;stroke-linecap:round"></path><path d="M50.836860785764216,-312.1671381116601L51.326514437067836,-315.937317737058L44.151034877342376,-314.55041688397597zM41.10320478383996,-311.68936112850423L35.58439091339,-315.1655580321075L43.16319005629114,-298.6605468446731z" style="fill:rgb(41,170,178)"></path><path d="M-164.526429332455,241.4530424529047L-171.13797982991892,244.45099809944878L-164.9788604220916,249.2901750900849z" style="fill:rgb(112,56,202)"></path><path d="M-208.72944163260465,268.88310891295794L-164.9788604220916,249.29017509008492" style="fill:none;stroke:rgb(112,56,202);stroke-width:5;stroke-linecap:round"></path><path d="M50.836860785764216,-312.1671381116601L41.10320478383996,-311.68936112850423L43.16319005629114,-298.6605468446731z" style="fill:rgb(41,170,178)"></path><path d="M-161.45105975047227,257.1242696403808L-158.53674566557635,249.28771760855014L-164.9788604220916,249.2901750900849z" style="fill:rgb(112,56,202)"></path><path d="M35.58439091339,-315.1655580321075L41.10320478383996,-311.68936112850423L44.151034877342376,-314.55041688397597z" style="fill:rgb(41,170,178)"></path><path d="M-158.53674566557635,249.28771760855014L-164.526429332455,241.4530424529047L-164.9788604220916,249.2901750900849z" style="fill:rgb(112,56,202)"></path><path d="M41.10320478383996,-311.68936112850423L50.836860785764216,-312.1671381116601L44.151034877342376,-314.55041688397597z" style="fill:rgb(41,170,178)"></path><path d="M-169.04332577823035,208.06336354021045L-167.1409749531864,217.75845662130186L-162.87805191741052,212.89940691867955zM-156.42925690835492,212.88482010483696L-159.34696510816178,220.7405570118576L-151.97237378619946,208.0417758766668zM-167.1409749531864,217.75845662130186L-159.34696510816178,220.7405570118576L-162.87805191741052,212.89940691867955zM-162.4247806569736,205.04772061763558L-156.42925690835492,212.88482010483696L-151.97237378619946,208.0417758766668z" style="fill:rgb(112,56,202)"></path><path d="M-411.5493988822459,389.33152890779525L-372.4207538459606,-368.5958962108691L-238.6197970905455,457.4904698464629z" style="fill:rgb(0,0,0); fill-opacity: 0.2"></path><path d="M-162.4247806569736,205.04772061763558L-169.04332577823035,208.06336354021045L-162.87805191741052,212.89940691867955z" style="fill:rgb(112,56,202)"></path><path d="M-206.66309954746137,232.4022387448857L-162.87805191741055,212.8994069186796" style="fill:none;stroke:rgb(112,56,202);stroke-width:5;stroke-linecap:round"></path><path d="M-159.34696510816178,220.7405570118576L-156.42925690835492,212.88482010483696L-162.87805191741052,212.89940691867955zM-156.42925690835492,212.88482010483696L-162.4247806569736,205.04772061763558L-162.87805191741052,212.89940691867955z" style="fill:rgb(112,56,202)"></path><path d="M27.416363680776474,-306.0022491181951L17.98269751128337,-307.85875840077176L20.2227095318378,-304.61042785748zM17.98269751128337,-307.85875840077176L11.642233836523891,-305.2267106436121L20.2227095318378,-304.61042785748z" style="fill:rgb(41,170,178)"></path><path d="M24.150167539318293,-368.3864312695487L20.222709531837783,-304.6104278574799" style="fill:none;stroke:rgb(41,170,178);stroke-width:5;stroke-linecap:round"></path><path d="M26.912738037504287,-302.22037646117315L27.416363680776474,-306.0022491181951L20.2227095318378,-304.61042785748zM17.15928246658343,-301.7402598597022L11.642233836523891,-305.2267106436121L19.242809325306933,-288.69832420260474z" style="fill:rgb(41,170,178)"></path><path d="M-166.94478132288896,171.60814618070424L-165.04091598950788,181.31661743983184L-160.7733407600939,176.44103595197035zM-154.31785178276596,176.41427471651164L-157.2389616855368,184.28925429644744L-149.859102569622,171.60595558445343z" style="fill:rgb(112,56,202)"></path><path d="M26.912738037504287,-302.22037646117315L17.15928246658343,-301.7402598597022L19.242809325306933,-288.69832420260474z" style="fill:rgb(41,170,178)"></path><path d="M-165.04091598950788,181.31661743983184L-157.2389616855368,184.28925429644744L-160.7733407600939,176.44103595197035z" style="fill:rgb(112,56,202)"></path><path d="M11.642233836523891,-305.2267106436121L17.15928246658343,-301.7402598597022L20.2227095318378,-304.61042785748z" style="fill:rgb(41,170,178)"></path><path d="M-160.31922698636853,168.574755409856L-154.31785178276596,176.41427471651164L-149.859102569622,171.60595558445343zM-160.31922698636853,168.574755409856L-166.94478132288896,171.60814618070424L-160.7733407600939,176.44103595197035z" style="fill:rgb(112,56,202)"></path><path d="M-204.59290739911333,195.85339645500434L-160.7733407600939,176.44103595197038" style="fill:none;stroke:rgb(112,56,202);stroke-width:5;stroke-linecap:round"></path><path d="M17.15928246658343,-301.7402598597022L26.912738037504287,-302.22037646117315L20.2227095318378,-304.61042785748z" style="fill:rgb(41,170,178)"></path><path d="M-157.2389616855368,184.28925429644744L-154.31785178276596,176.41427471651164L-160.7733407600939,176.44103595197035zM-154.31785178276596,176.41427471651164L-160.31922698636853,168.574755409856L-160.7733407600939,176.44103595197035zM-164.84233561534273,135.08515756348675L-162.93695342717223,144.80704001055358L-158.6647160651483,139.91487363718431zM-152.20251936191434,139.87589270204816L-155.12703858044867,147.77017297570998L-147.74190481782892,135.1024362054576zM-162.93695342717223,144.80704001055358L-155.12703858044867,147.77017297570998L-158.6647160651483,139.91487363718431zM-158.20975742693022,132.03395812580786L-152.20251936191434,139.87589270204816L-147.74190481782892,135.1024362054576zM-158.20975742693022,132.03395812580786L-164.84233561534273,135.08515756348675L-158.6647160651483,139.91487363718431z" style="fill:rgb(112,56,202)"></path><path d="M-202.5188544172173,159.23639189498758L-158.6647160651483,139.91487363718434" style="fill:none;stroke:rgb(112,56,202);stroke-width:5;stroke-linecap:round"></path><path d="M-155.12703858044867,147.77017297570998L-152.20251936191434,139.87589270204816L-158.6647160651483,139.91487363718431zM-152.20251936191434,139.87589270204816L-158.20975742693022,132.03395812580786L-158.6647160651483,139.91487363718431z" style="fill:rgb(112,56,202)"></path><path d="M3.4271910391979072,-296.03434558077714L-6.017634264230463,-297.8957615820528L-3.7847187482266693,-294.6375789341825zM-6.017634264230463,-297.8957615820528L-12.3790708908656,-295.25500755138097L-3.7847187482266693,-294.6375789341825z" style="fill:rgb(41,170,178)"></path><path d="M0.11067771325507929,-358.5031483033111L-3.7847187482266818,-294.6375789341824" style="fill:none;stroke:rgb(41,170,178);stroke-width:5;stroke-linecap:round"></path><path d="M2.909503624282276,-292.2407231187552L3.4271910391979072,-296.03434558077714L-3.7847187482266693,-294.6375789341825zM-6.86382935364871,-291.7582540243847L-12.3790708908656,-295.25500755138097L-4.756616384638314,-278.7031813621497zM2.909503624282276,-292.2407231187552L-6.86382935364871,-291.7582540243847L-4.756616384638314,-278.7031813621497zM-12.3790708908656,-295.25500755138097L-6.86382935364871,-291.7582540243847L-3.7847187482266693,-294.6375789341825zM-6.86382935364871,-291.7582540243847L2.909503624282276,-292.2407231187552L-3.7847187482266693,-294.6375789341825z" style="fill:rgb(41,170,178)"></path><path d="M-162.73597776666665,98.49420852976752L-160.82907637201532,108.22953528954841L-156.55216690706334,103.32073071969936zM-150.08324867821815,103.269484617134L-153.01118485016767,111.18312382947938L-145.62076957717508,98.53102888315904zM-160.82907637201532,108.22953528954841L-153.01118485016767,111.18312382947938L-156.55216690706334,103.32073071969936zM-156.09636104439136,95.42513935918093L-150.08324867821815,103.269484617134L-145.62076957717508,98.53102888315904zM-156.09636104439136,95.42513935918093L-162.73597776666665,98.49420852976752L-156.55216690706334,103.32073071969936z" style="fill:rgb(112,56,202)"></path><path d="M-200.44092979122038,122.55103420660761L-156.55216690706334,103.32073071969937" style="fill:none;stroke:rgb(112,56,202);stroke-width:5;stroke-linecap:round"></path><path d="M-153.01118485016767,111.18312382947938L-150.08324867821815,103.269484617134L-156.55216690706334,103.32073071969936zM-150.08324867821815,103.269484617134L-156.09636104439136,95.42513935918093L-156.55216690706334,103.32073071969936z" style="fill:rgb(112,56,202)"></path><path d="M-372.4207538459606,-368.5958962108691L61.873176476061026,-542.3929551490996L-195.81113235300145,-304.91614508214116z" style="fill:rgb(0,0,0); fill-opacity: 0.2"></path><path d="M-160.62569684737446,61.83510921614331L-158.7172738892974,71.58391352879778L-154.4356823196226,66.65841723977519zM-147.96002872321924,66.59486031139575L-150.89138951119364,74.52791693259579L-143.49568585323493,61.891544057926396zM-158.7172738892974,71.58391352879778L-150.89138951119364,74.52791693259579L-154.4356823196226,66.65841723977519zM-153.97902686373794,58.74810899783992L-147.96002872321924,66.59486031139575L-143.49568585323493,61.891544057926396zM-153.97902686373794,58.74810899783992L-160.62569684737446,61.83510921614331L-154.4356823196226,66.65841723977519z" style="fill:rgb(112,56,202)"></path><path d="M-198.35912267017113,85.79713181841893L-154.43568231962263,66.6584172397752" style="fill:none;stroke:rgb(112,56,202);stroke-width:5;stroke-linecap:round"></path><path d="M-20.64139588131987,-286.0334440786613L-30.097402574158632,-287.89978913836876L-27.87164286335881,-284.6317069005412z" style="fill:rgb(41,170,178)"></path><path d="M-150.89138951119364,74.52791693259579L-147.96002872321924,66.59486031139575L-154.4356823196226,66.65841723977519z" style="fill:rgb(112,56,202)"></path><path d="M-30.097402574158632,-287.89978913836876L-36.479916386366455,-285.25028556478355L-27.87164286335881,-284.6317069005412z" style="fill:rgb(41,170,178)"></path><path d="M-147.96002872321924,66.59486031139575L-153.97902686373794,58.74810899783992L-154.4356823196226,66.65841723977519z" style="fill:rgb(112,56,202)"></path><path d="M-24.008542192025324,-348.5870861500139L-27.87164286335883,-284.6317069005412" style="fill:none;stroke:rgb(41,170,178);stroke-width:5;stroke-linecap:round"></path><path d="M-21.173235510361042,-282.2280146661295L-20.64139588131987,-286.0334440786613L-27.87164286335881,-284.6317069005412zM-30.96652418159096,-281.74318011473525L-36.479916386366455,-285.25028556478355L-28.835479528579356,-268.6749548758915zM-21.173235510361042,-282.2280146661295L-30.96652418159096,-281.74318011473525L-28.835479528579356,-268.6749548758915zM-36.479916386366455,-285.25028556478355L-30.96652418159096,-281.74318011473525L-27.87164286335881,-284.6317069005412zM-30.96652418159096,-281.74318011473525L-21.173235510361042,-282.2280146661295L-27.87164286335881,-284.6317069005412z" style="fill:rgb(41,170,178)"></path><path d="M-158.51148188723008,25.107669051314293L-156.60153500351393,34.86998427290194L-152.31525129571406,29.927742529266713zM-145.8328484473926,29.851828925106776L-148.76764153906615,37.80436165161932L-141.3666426106126,25.18379146374216zM-156.60153500351393,34.86998427290194L-148.76764153906615,37.80436165161932L-152.31525129571406,29.927742529266713zM-151.85774386901926,22.00267622053394L-145.8328484473926,29.851828925106776L-141.3666426106126,25.18379146374216z" style="fill:rgb(112,56,202)"></path><path d="M-238.61979709054555,457.4904698464628L-195.81113235300148,-304.9161450821412L-219.00377528100026,450.2744838384569z" style="fill:rgb(0,0,0); fill-opacity: 0.2"></path><path d="M-151.85774386901926,22.00267622053394L-158.51148188723008,25.107669051314293L-152.31525129571406,29.927742529266713z" style="fill:rgb(112,56,202)"></path><path d="M-196.2734221625318,48.97449244242407L-152.31525129571412,29.92774252926674" style="fill:none;stroke:rgb(112,56,202);stroke-width:5;stroke-linecap:round"></path><path d="M-148.76764153906615,37.80436165161932L-145.8328484473926,29.851828925106776L-152.31525129571406,29.927742529266713zM-145.8328484473926,29.851828925106776L-151.85774386901926,22.00267622053394L-152.31525129571406,29.927742529266713zM-156.39332187505713,-11.6883032472184L-154.48184869820568,-1.9124436442195614L-150.19086278713934,-6.871484791681448z" style="fill:rgb(112,56,202)"></path><path d="M-44.789792076713105,-275.9993804844118L-54.25700245197968,-277.87067708376674L-52.03845832040557,-274.5926474603232z" style="fill:rgb(41,170,178)"></path><path d="M-143.70169675995453,-6.959801114123728L-146.6399298681734,1.012266641525165L-139.2336287727511,-11.592419875090831zM-154.48184869820568,-1.9124436442195614L-146.6399298681734,1.012266641525165L-150.19086278713934,-6.871484791681448zM-149.73250100315698,-14.811350506412946L-143.70169675995453,-6.959801114123728L-139.2336287727511,-11.592419875090831z" style="fill:rgb(112,56,202)"></path><path d="M-54.25700245197968,-277.87067708376674L-60.66069837531267,-275.2123804106639L-52.03845832040557,-274.5926474603232z" style="fill:rgb(41,170,178)"></path><path d="M-149.73250100315698,-14.811350506412946L-156.39332187505713,-11.6883032472184L-150.19086278713934,-6.871484791681448z" style="fill:rgb(112,56,202)"></path><path d="M-194.18381733598753,12.082923070719916L-150.19086278713934,-6.871484791681427" style="fill:none;stroke:rgb(112,56,202);stroke-width:5;stroke-linecap:round"></path><path d="M-48.207889488080156,-338.63808146415465L-52.03845832040559,-274.5926474603232" style="fill:none;stroke:rgb(41,170,178);stroke-width:5;stroke-linecap:round"></path><path d="M-45.335875031006914,-272.1820866006591L-44.789792076713105,-275.9993804844118L-52.03845832040557,-274.5926474603232zM-55.1491981334836,-271.69487353781307L-60.66069837531267,-275.2123804106639L-52.994175163888215,-258.61348021260716z" style="fill:rgb(41,170,178)"></path><path d="M-146.6399298681734,1.012266641525165L-143.70169675995453,-6.959801114123728L-150.19086278713934,-6.871484791681448zM-143.70169675995453,-6.959801114123728L-149.73250100315698,-14.811350506412946L-150.19086278713934,-6.871484791681448z" style="fill:rgb(112,56,202)"></path><path d="M-45.335875031006914,-272.1820866006591L-55.1491981334836,-271.69487353781307L-52.994175163888215,-258.61348021260716zM-60.66069837531267,-275.2123804106639L-55.1491981334836,-271.69487353781307L-52.03845832040557,-274.5926474603232zM-55.1491981334836,-271.69487353781307L-45.335875031006914,-272.1820866006591L-52.03845832040557,-274.5926474603232z" style="fill:rgb(41,170,178)"></path><path d="M-154.27120575854792,-48.552999676473085L-152.35820391576706,-38.76356210264588L-148.06250570442162,-43.73945681795888zM-141.56656252867015,-43.840222094679945L-144.50824339155986,-35.84856015761981L-137.0966332217399,-48.43728164726143zM-152.35820391576706,-38.76356210264588L-144.50824339155986,-35.84856015761981L-148.06250570442162,-43.73945681795888zM-147.60328716775297,-51.694163432429605L-141.56656252867015,-43.840222094679945L-137.0966332217399,-48.43728164726143zM-147.60328716775297,-51.694163432429605L-154.27120575854792,-48.552999676473085L-148.06250570442162,-43.73945681795888z" style="fill:rgb(112,56,202)"></path><path d="M-192.09029721725602,-24.87777002787443L-148.06250570442165,-43.73945681795886" style="fill:none;stroke:rgb(112,56,202);stroke-width:5;stroke-linecap:round"></path><path d="M-144.50824339155986,-35.84856015761981L-141.56656252867015,-43.840222094679945L-148.06250570442162,-43.73945681795888zM-141.56656252867015,-43.840222094679945L-147.60328716775297,-51.694163432429605L-148.06250570442162,-43.73945681795888z" style="fill:rgb(112,56,202)"></path><path d="M-69.01839516681055,-265.9319895803216L-78.49683155482718,-267.8082603431634L-76.28556325420087,-264.5202352256116zM-78.49683155482718,-267.8082603431634L-84.92181521244325,-265.14112672434993L-76.28556325420087,-264.5202352256116z" style="fill:rgb(41,170,178)"></path><path d="M-152.14512244407118,-85.4866129513274L-150.23058955725426,-75.68356369979115L-145.93016891661298,-80.6763663628316zM-139.42743457965926,-80.78962702428794L-142.37257096073324,-72.77831152399871L-134.95564479812194,-85.35098625778028z" style="fill:rgb(112,56,202)"></path><path d="M-72.48776413070702,-328.6559698131123L-76.2855632542009,-264.52023522561154" style="fill:none;stroke:rgb(41,170,178);stroke-width:5;stroke-linecap:round"></path><path d="M-69.57881323202743,-262.10277332633734L-69.01839516681055,-265.9319895803216L-76.28556325420087,-264.5202352256116zM-79.41224995877305,-261.6131686065362L-84.92181521244325,-265.14112672434993L-77.23310097187999,-248.51859174826888z" style="fill:rgb(41,170,178)"></path><path d="M-150.23058955725426,-75.68356369979115L-142.37257096073324,-72.77831152399871L-145.93016891661298,-80.6763663628316zM-145.47009122289595,-88.64595552604443L-139.42743457965926,-80.78962702428794L-134.95564479812194,-85.35098625778028z" style="fill:rgb(112,56,202)"></path><path d="M-69.57881323202743,-262.10277332633734L-79.41224995877305,-261.6131686065362L-77.23310097187999,-248.51859174826888z" style="fill:rgb(41,170,178)"></path><path d="M-145.47009122289595,-88.64595552604443L-152.14512244407118,-85.4866129513274L-145.93016891661298,-80.6763663628316z" style="fill:rgb(112,56,202)"></path><path d="M-189.99285079189488,-61.90778131120858L-145.930168916613,-80.67636636283157" style="fill:none;stroke:rgb(112,56,202);stroke-width:5;stroke-linecap:round"></path><path d="M-84.92181521244325,-265.14112672434993L-79.41224995877305,-261.6131686065362L-76.28556325420087,-264.5202352256116z" style="fill:rgb(41,170,178)"></path><path d="M-142.37257096073324,-72.77831152399871L-139.42743457965926,-80.78962702428794L-145.93016891661298,-80.6763663628316z" style="fill:rgb(112,56,202)"></path><path d="M-79.41224995877305,-261.6131686065362L-69.57881323202743,-262.10277332633734L-76.28556325420087,-264.5202352256116z" style="fill:rgb(41,170,178)"></path><path d="M-139.42743457965926,-80.78962702428794L-145.47009122289595,-88.64595552604443L-145.93016891661298,-80.6763663628316z" style="fill:rgb(112,56,202)"></path><path d="M-195.81113235300148,-304.9161450821412L236.53496417775554,-481.8744823740089L-195.10923388714923,-278.24297469102174z" style="fill:rgb(0,0,0); fill-opacity: 0.2"></path><path d="M-150.01506079647893,-122.48933650787619L-148.0989944821918,-112.67264175376023L-143.79384125109996,-117.6824069613038zM-137.2843016972017,-117.80820963338233L-140.23290138546992,-109.7771809574058L-132.8106523006994,-122.3337268313294zM-148.0989944821918,-112.67264175376023L-140.23290138546992,-109.7771809574058L-143.79384125109996,-117.6824069613038zM-143.3329019869675,-125.66692047825046L-137.2843016972017,-117.80820963338233L-132.8106523006994,-122.3337268313294zM-143.3329019869675,-125.66692047825046L-150.01506079647893,-122.48933650787619L-143.79384125109996,-117.6824069613038z" style="fill:rgb(112,56,202)"></path><path d="M-187.8914670041089,-99.0073059672116L-143.7938412511,-117.68240696130376" style="fill:none;stroke:rgb(112,56,202);stroke-width:5;stroke-linecap:round"></path><path d="M-140.23290138546992,-109.7771809574058L-137.2843016972017,-117.80820963338233L-143.79384125109996,-117.6824069613038zM-137.2843016972017,-117.80820963338233L-143.3329019869675,-125.66692047825046L-143.79384125109996,-117.6824069613038z" style="fill:rgb(112,56,202)"></path><path d="M-93.32760541715724,-255.8311050493443L-102.81729018530778,-257.71237274328956L-100.61335844942933,-254.41430370772372zM-102.81729018530778,-257.71237274328956L-109.26366790377743,-255.03635804057203L-100.61335844942933,-254.41430370772372z" style="fill:rgb(41,170,178)"></path><path d="M-238.6197970905455,457.4904698464629L-195.81113235300145,-304.91614508214116L-372.4207538459606,-368.5958962108691z" style="fill:rgb(0,0,0); fill-opacity: 0.2"></path><path d="M-96.84856874197851,-318.6405856680882L-100.61335844942933,-254.4143037077237" style="fill:none;stroke:rgb(41,170,178);stroke-width:5;stroke-linecap:round"></path><path d="M-93.90245105947055,-251.98990814468945L-93.32760541715724,-255.8311050493443L-100.61335844942933,-254.41430370772372zM-103.75608106202849,-251.49789853057425L-109.26366790377743,-255.03635804057203L-101.5526572796342,-238.39012275695615zM-93.90245105947055,-251.98990814468945L-103.75608106202849,-251.49789853057425L-101.5526572796342,-238.39012275695615zM-109.26366790377743,-255.03635804057203L-103.75608106202849,-251.49789853057425L-100.61335844942933,-254.41430370772372z" style="fill:rgb(41,170,178)"></path><path d="M-147.88100963891168,-159.56136450680847L-145.96340750837786,-149.73099030672236L-141.65351149340876,-154.7577728734975zM-135.1371526235412,-154.89616437849222L-138.0892234336195,-146.84536268262553L-130.66164448633828,-159.3856972156302zM-145.96340750837786,-149.73099030672236L-138.0892234336195,-146.84536268262553L-141.65351149340876,-154.7577728734975z" style="fill:rgb(112,56,202)"></path><path d="M-103.75608106202849,-251.49789853057425L-93.90245105947055,-251.98990814468945L-100.61335844942933,-254.41430370772372z" style="fill:rgb(41,170,178)"></path><path d="M-141.1917082364465,-162.75725270588987L-135.1371526235412,-154.89616437849222L-130.66164448633828,-159.3856972156302zM-141.1917082364465,-162.75725270588987L-147.88100963891168,-159.56136450680847L-141.65351149340876,-154.7577728734975z" style="fill:rgb(112,56,202)"></path><path d="M-185.78613475655553,-136.17653991732124L-141.65351149340879,-154.7577728734975" style="fill:none;stroke:rgb(112,56,202);stroke-width:5;stroke-linecap:round"></path><path d="M-138.0892234336195,-146.84536268262553L-135.1371526235412,-154.89616437849222L-141.65351149340876,-154.7577728734975zM-135.1371526235412,-154.89616437849222L-141.1917082364465,-162.75725270588987L-141.65351149340876,-154.7577728734975zM-145.7429577526034,-196.70289183680373L-143.823817411689,-186.8588041283049L-139.5091683870089,-191.90265908805242zM-132.9859760586882,-192.05368644564612L-135.94152583090855,-183.98305165283188L-128.508610069772,-196.50709198482974zM-143.823817411689,-186.8588041283049L-135.94152583090855,-183.98305165283188L-139.5091683870089,-191.90265908805242zM-139.04649870571265,-199.91714735505732L-132.9859760586882,-192.05368644564612L-128.508610069772,-196.50709198482974z" style="fill:rgb(112,56,202)"></path><path d="M-195.81113235300145,-304.91614508214116L-372.4207538459606,-368.5958962108691M-195.81113235300145,-304.91614508214116L-372.4207538459606,-368.5958962108691" style="fill:none;stroke:rgb(0,0,0);stroke-width:1;stroke-linecap:round"></path><path d="M-139.04649870571265,-199.91714735505732L-145.7429577526034,-196.70289183680373L-139.5091683870089,-191.90265908805242z" style="fill:rgb(112,56,202)"></path><path d="M-183.67684291014965,-173.41567981993282L-139.50916838700897,-191.90265908805242" style="fill:none;stroke:rgb(112,56,202);stroke-width:5;stroke-linecap:round"></path><path d="M-135.94152583090855,-183.98305165283188L-132.9859760586882,-192.05368644564612L-139.5091683870089,-191.90265908805242z" style="fill:rgb(112,56,202)"></path><path d="M-117.71782576105657,-245.69655946593483L-127.21878131353706,-247.58284700354196L-125.02224736270867,-244.2746853080376z" style="fill:rgb(41,170,178)"></path><path d="M-132.9859760586882,-192.05368644564612L-139.04649870571265,-199.91714735505732L-139.5091683870089,-191.90265908805242z" style="fill:rgb(112,56,202)"></path><path d="M-219.00377528100026,450.2744838384569L-177.32509775669308,-285.5545129540687L-195.81113235300148,-304.9161450821412z" style="fill:rgb(0,0,0); fill-opacity: 0.2"></path><path d="M-127.21878131353706,-247.58284700354196L-133.68666012870878,-244.89790678429216L-125.02224736270867,-244.2746853080376z" style="fill:rgb(41,170,178)"></path><path d="M-121.2907086324973,-308.5917623949562L-125.02224736270867,-244.2746853080375" style="fill:none;stroke:rgb(41,170,178);stroke-width:5;stroke-linecap:round"></path><path d="M-118.30719213316412,-241.8433232455822L-117.71782576105657,-245.69655946593483L-125.02224736270867,-244.2746853080376zM-128.1810955250783,-241.3488954071511L-133.68666012870878,-244.89790678429216L-125.95324708203422,-228.227905401677zM-118.30719213316412,-241.8433232455822L-128.1810955250783,-241.3488954071511L-125.95324708203422,-228.227905401677zM-133.68666012870878,-244.89790678429216L-128.1810955250783,-241.3488954071511L-125.02224736270867,-244.2746853080376zM-128.1810955250783,-241.3488954071511L-118.30719213316412,-241.8433232455822L-125.02224736270867,-244.2746853080376z" style="fill:rgb(41,170,178)"></path><path d="M-143.60089387668455,-233.91411411794653L-141.68021292588347,-224.0562787190049L-137.3608006331159,-229.1172613255434zM-130.8307606602217,-229.28097175379577L-133.7897972607426,-221.19044355300528L-126.35153772340387,-233.69810644290726zM-141.68021292588347,-224.0562787190049L-133.7897972607426,-221.19044355300528L-137.3608006331159,-229.1172613255434zM-136.89726208684905,-237.14680030452232L-130.8307606602217,-229.28097175379577L-126.35153772340387,-233.69810644290726zM-136.89726208684905,-237.14680030452232L-143.60089387668455,-233.91411411794653L-137.3608006331159,-229.1172613255434z" style="fill:rgb(112,56,202)"></path><path d="M-181.56358028386703,-210.7249230738675L-137.36080063311593,-229.1172613255434" style="fill:none;stroke:rgb(112,56,202);stroke-width:5;stroke-linecap:round"></path><path d="M-133.7897972607426,-221.19044355300528L-130.8307606602217,-229.28097175379577L-137.3608006331159,-229.1172613255434zM-130.8307606602217,-229.28097175379577L-136.89726208684905,-237.14680030452232L-137.3608006331159,-229.1172613255434zM-141.4548067079847,-271.1952277051617L-139.5325827424034,-261.32361031362063L-135.2083968904926,-266.4017760419189zM-128.6714950430899,-266.5782169582602L-131.6340263640076,-258.46773480337004L-124.19041607710837,-270.9589366270995zM-139.5325827424034,-261.32361031362063L-131.6340263640076,-258.46773480337004L-135.2083968904926,-266.4017760419189zM-134.74398702944325,-274.4464081691708L-128.6714950430899,-266.5782169582602L-124.19041607710837,-270.9589366270995z" style="fill:rgb(112,56,202)"></path><path d="M-142.1894618218331,-235.5281842867996L-151.70171059939597,-237.41951472674418L-149.51263614489307,-234.10121130872713z" style="fill:rgb(41,170,178)"></path><path d="M-134.74398702944325,-274.4464081691708L-141.4548067079847,-271.1952277051617L-135.2083968904926,-266.4017760419189z" style="fill:rgb(112,56,202)"></path><path d="M-179.44633565454686,-248.10446782186062L-135.20839689049262,-266.4017760419189" style="fill:none;stroke:rgb(112,56,202);stroke-width:5;stroke-linecap:round"></path><path d="M-151.70171059939597,-237.41951472674418L-158.19119826232046,-234.72560426143977L-149.51263614489307,-234.10121130872713z" style="fill:rgb(41,170,178)"></path><path d="M-131.6340263640076,-258.46773480337004L-128.6714950430899,-266.5782169582602L-135.2083968904926,-266.4017760419189zM-128.6714950430899,-266.5782169582602L-134.74398702944325,-274.4464081691708L-135.2083968904926,-266.4017760419189z" style="fill:rgb(112,56,202)"></path><path d="M-145.81459182387462,-298.50933224502177L-149.51263614489307,-234.10121130872707" style="fill:none;stroke:rgb(41,170,178);stroke-width:5;stroke-linecap:round"></path><path d="M-142.79344276904104,-231.66284969794205L-142.1894618218331,-235.5281842867996L-149.51263614489307,-234.10121130872713zM-152.68770012936776,-231.1659902117544L-158.19119826232046,-234.72560426143977L-150.4352760640271,-218.031770725097zM-142.79344276904104,-231.66284969794205L-152.68770012936776,-231.1659902117544L-150.4352760640271,-218.031770725097zM-158.19119826232046,-234.72560426143977L-152.68770012936776,-231.1659902117544L-149.51263614489307,-234.10121130872713zM-152.68770012936776,-231.1659902117544L-142.79344276904104,-231.66284969794205L-149.51263614489307,-234.10121130872713z" style="fill:rgb(41,170,178)"></path><path d="M-139.30468490083337,-308.546429691667L-137.38091551017598,-298.66099588470325L-133.05194577525006,-303.7564004319571zM-126.50816777940982,-303.9456194541877L-129.47420173886997,-295.81512256285095L-122.0252337180315,-308.28977931134426zM-137.38091551017598,-298.66099588470325L-129.47420173886997,-295.81512256285095L-133.05194577525006,-303.7564004319571zM-132.58666214038777,-311.81616830346644L-126.50816777940982,-303.9456194541877L-122.0252337180315,-308.28977931134426zM-132.58666214038777,-311.81616830346644L-139.30468490083337,-308.546429691667L-133.05194577525006,-303.7564004319571z" style="fill:rgb(112,56,202)"></path><path d="M-177.32509775669308,-285.5545129540687L-133.0519457752501,-303.7564004319571" style="fill:none;stroke:rgb(112,56,202);stroke-width:5;stroke-linecap:round"></path><path d="M-129.47420173886997,-295.81512256285095L-126.50816777940982,-303.9456194541877L-133.05194577525006,-303.7564004319571zM-126.50816777940982,-303.9456194541877L-132.58666214038777,-311.81616830346644L-133.05194577525006,-303.7564004319571z" style="fill:rgb(112,56,202)"></path><path d="M-166.74292193531846,-225.3258098415526L-176.26648641501063,-227.22220638981491L-174.084933663601,-223.89371186340406zM-176.26648641501063,-227.22220638981491L-182.77769139792431,-224.51928064955567L-174.084933663601,-223.89371186340406z" style="fill:rgb(41,170,178)"></path><path d="M-170.4206290714351,-288.3931263456869L-174.084933663601,-223.89371186340398" style="fill:none;stroke:rgb(41,170,178);stroke-width:5;stroke-linecap:round"></path><path d="M-167.36161200168928,-221.44831744037967L-166.74292193531846,-225.3258098415526L-174.084933663601,-223.89371186340406zM-177.27630437854202,-220.94901278875207L-182.77769139792431,-224.51928064955567L-174.9991526231073,-207.80154864017567zM-167.36161200168928,-221.44831744037967L-177.27630437854202,-220.94901278875207L-174.9991526231073,-207.80154864017567zM-182.77769139792431,-224.51928064955567L-177.27630437854202,-220.94901278875207L-174.084933663601,-223.89371186340406zM-177.27630437854202,-220.94901278875207L-167.36161200168928,-221.44831744037967L-174.084933663601,-223.89371186340406z" style="fill:rgb(41,170,178)"></path><path d="M-182.5002673989081,-218.77836854653276L-192.03108574056645,-220.67801965114927L-189.85437975599618,-217.3429767472178zM-192.03108574056645,-220.67801965114927L-198.55624707010173,-217.96930036443854L-189.85437975599618,-217.3429767472178z" style="fill:rgb(197,147,42)"></path><path d="M-186.21179821303406,-281.9009505914021L-189.85437975599618,-217.34297674721768" style="fill:none;stroke:rgb(197,147,42);stroke-width:5;stroke-linecap:round"></path><path d="M-183.12842124357817,-214.8930637674244L-182.5002673989081,-218.77836854653276L-189.85437975599618,-217.3429767472178zM-193.0562347831819,-214.39218707197034L-198.55624707010173,-217.96930036443854L-190.76317698596466,-201.23623840519454zM-183.12842124357817,-214.8930637674244L-193.0562347831819,-214.39218707197034L-190.76317698596466,-201.23623840519454zM-198.55624707010173,-217.96930036443854L-193.0562347831819,-214.39218707197034L-189.85437975599618,-217.3429767472178zM-193.0562347831819,-214.39218707197034L-183.12842124357817,-214.8930637674244L-189.85437975599618,-217.3429767472178z" style="fill:rgb(197,147,42)"></path><path d="M-191.37861717256354,-215.08926532327834L-200.91351986745812,-216.9907513343425L-198.73955152596864,-213.65201598766555zM-200.91351986745812,-216.9907513343425L-207.44655136982675,-214.27876498834124L-198.73955152596864,-213.65201598766555z" style="fill:rgb(41,170,178)"></path><path d="M-195.10923388714923,-278.2429746910218L-198.7395515259686,-213.6520159876655" style="fill:none;stroke:rgb(41,170,178);stroke-width:5;stroke-linecap:round"></path><path d="M-192.01211160712774,-211.19955527172067L-191.37861717256354,-215.08926532327834L-198.73955152596864,-213.65201598766555zM-201.94732052125488,-210.69779184191492L-207.44655136982675,-214.27876498834124L-199.6452878920259,-197.53706792070855zM-192.01211160712774,-211.19955527172067L-201.94732052125488,-210.69779184191492L-199.6452878920259,-197.53706792070855zM-207.44655136982675,-214.27876498834124L-201.94732052125488,-210.69779184191492L-198.73955152596864,-213.65201598766555zM-201.94732052125488,-210.69779184191492L-192.01211160712774,-211.19955527172067L-198.73955152596864,-213.65201598766555z" style="fill:rgb(41,170,178)"></path><path d="M-177.32509775669308,-285.5545129540687L-195.10923388714923,-278.24297469102174" style="fill:none;stroke:rgb(104,70,1);stroke-width:5;stroke-linecap:round"></path><path d="M-177.32509775669308,-285.5545129540687L-195.81113235300148,-304.9161450821412M-177.32509775669308,-285.5545129540687L-195.81113235300148,-304.9161450821412" style="fill:none;stroke:rgb(0,0,0);stroke-width:1;stroke-linecap:round"></path><path d="M-177.32509775669308,-285.5545129540687L-195.10923388714923,-278.24297469102174L-195.81113235300148,-304.9161450821412zM-195.81113235300148,-304.9161450821412L-195.81113235300148,-304.9161450821412L-177.32509775669308,-285.5545129540687z" style="fill:rgb(0,0,0); fill-opacity: 0.2"></path><path d="M-195.10923388714923,-278.24297469102174L-195.81113235300148,-304.9161450821412M-195.10923388714923,-278.24297469102174L-195.81113235300148,-304.9161450821412M-195.81113235300148,-304.9161450821412L-195.81113235300148,-304.9161450821412" style="fill:none;stroke:rgb(0,0,0);stroke-width:1;stroke-linecap:round"></path></svg>