<svg viewBox="-1163.5 -664 2327 1328" width="2327" height="1328" style="background-color: rgb(255, 255, 255);">
    <path d="M-206.08193300170979,93.44549521471308L-214.64785139447844,-651.4793756482011" style="fill:none;stroke:rgb(0,0,0);stroke-width:1;stroke-linecap:round">
    </path>
    <path d="M-25.097551727696384,166.97106285948115L-206.08193300170979,93.44549521471308" style="fill:none;stroke:rgb(160,0,0);stroke-width:4;stroke-linecap:round">
    </path>
    <path d="M-25.097551727696384,166.97106285948115L-20.38362733751045,-612.1083758546596" style="fill:none;stroke:rgb(0,0,0);stroke-width:1;stroke-linecap:round">
    </path>
    <path d="M-173.02205854750153,249.0034456562961L-25.097551727696384,166.97106285948115" style="fill:none;stroke:rgb(160,0,0);stroke-width:4;stroke-linecap:round">
    </path>
    <path d="M-20.38362733751045,-612.1083758546596L-25.097551727696384,166.97106285948115L-206.08193300170979,93.44549521471308z" style="fill:rgb(0,0,0); fill-opacity: 0.2">
    </path>
    <path d="M-214.64785139447844,-651.4793756482011L-206.08193300170979,93.44549521471308L-20.38362733751045,-612.1083758546596z" style="fill:rgb(0,0,0); fill-opacity: 0.2">
    </path>
    <path d="M-20.38362733751045,-612.1083758546596L-214.64785139447844,-651.4793756482011" style="fill:none;stroke:rgb(0,0,0);stroke-width:1;stroke-linecap:round">
    </path>
    <path d="M-214.64785139447844,-651.4793756482011L-925.7032034546347,-548.6530417973316" style="fill:none;stroke:rgb(0,0,0);stroke-width:1;stroke-linecap:round">
    </path>
    <path d="M-20.38362733751045,-612.1083758546596L-214.64785139447844,-651.4793756482011" style="fill:none;stroke:rgb(0,0,0);stroke-width:1;stroke-linecap:round">
    </path>
    <path d="M34.81629546788374,-240.2497140109611L19.613241230126217,-242.63392548246063L21.459626220997873,-238.66140394873497z" style="fill:rgb(109,213,75)">
    </path>
    <path d="M34.81629546788374,-240.2497140109611L19.613241230126217,-242.63392548246063L21.459626220997873,-238.66140394873497z" style="fill:rgb(43,180,168)">
    </path>
    <path d="M19.613241230126217,-242.63392548246063L6.94741343045297,-239.53395562081585L21.459626220997873,-238.66140394873497z" style="fill:rgb(109,213,75)">
    </path>
    <path d="M19.613241230126217,-242.63392548246063L6.94741343045297,-239.53395562081585L21.459626220997873,-238.66140394873497z" style="fill:rgb(43,180,168)">
    </path>
    <path d="M34.81629546788374,-240.2497140109611L31.606399530042086,-235.65005725018867L21.180135257025608,-211.2170787268609z" style="fill:rgb(109,213,75)">
    </path>
    <path d="M34.81629546788374,-240.2497140109611L31.606399530042086,-235.65005725018867L21.180135257025608,-211.2170787268609z" style="fill:rgb(43,180,168)">
    </path>
    <path d="M14.31510344671267,-235.20362499243453L6.94741343045297,-239.53395562081585L21.180135257025608,-211.2170787268609z" style="fill:rgb(109,213,75)">
    </path>
    <path d="M14.31510344671267,-235.20362499243453L6.94741343045297,-239.53395562081585L21.180135257025608,-211.2170787268609z" style="fill:rgb(43,180,168)">
    </path>
    <path d="M22.59215476452087,-349.86886922687904L21.459626220997883,-238.66140394873503" style="fill:none;stroke:rgb(109,213,75);stroke-width:5;stroke-linecap:round">
    </path>
    <path d="M22.59215476452087,-349.86886922687904L21.459626220997883,-238.66140394873503" style="fill:none;stroke:rgb(43,180,168);stroke-width:5;stroke-linecap:round">
    </path>
    <path d="M31.606399530042086,-235.65005725018867L34.81629546788374,-240.2497140109611L21.459626220997873,-238.66140394873497z" style="fill:rgb(109,213,75)">
    </path>
    <path d="M31.606399530042086,-235.65005725018867L34.81629546788374,-240.2497140109611L21.459626220997873,-238.66140394873497z" style="fill:rgb(43,180,168)">
    </path>
    <path d="M6.94741343045297,-239.53395562081585L14.31510344671267,-235.20362499243453L21.459626220997873,-238.66140394873497z" style="fill:rgb(109,213,75)">
    </path>
    <path d="M6.94741343045297,-239.53395562081585L14.31510344671267,-235.20362499243453L21.459626220997873,-238.66140394873497z" style="fill:rgb(43,180,168)">
    </path>
    <path d="M31.606399530042086,-235.65005725018867L14.31510344671267,-235.20362499243453L21.180135257025608,-211.2170787268609z" style="fill:rgb(109,213,75)">
    </path>
    <path d="M31.606399530042086,-235.65005725018867L14.31510344671267,-235.20362499243453L21.180135257025608,-211.2170787268609z" style="fill:rgb(43,180,168)">
    </path>
    <path d="M-177.69688230796856,-305.67634405548864L-173.02205854750153,249.0034456562961" style="fill:none;stroke:rgb(104,70,1);stroke-width:5;stroke-linecap:round">
    </path>
    <path d="M-173.02205854750153,249.0034456562961L-264.9790870042087,280.36929350511764" style="fill:none;stroke:rgb(197,147,42);stroke-width:5;stroke-linecap:round">
    </path>
    <path d="M14.31510344671267,-235.20362499243453L31.606399530042086,-235.65005725018867L21.459626220997873,-238.66140394873497z" style="fill:rgb(109,213,75)">
    </path>
    <path d="M14.31510344671267,-235.20362499243453L31.606399530042086,-235.65005725018867L21.459626220997873,-238.66140394873497z" style="fill:rgb(43,180,168)">
    </path>
    <path d="M-177.69688230796856,-305.67634405548864L-173.02205854750153,249.0034456562961L-25.097551727696384,166.97106285948115z" style="fill:rgb(0,0,0); fill-opacity: 0.2">
    </path>
    <path d="M-173.5174938138656,190.2187847913092L-266.025977108112,220.5907813170707" style="fill:none;stroke:rgb(197,147,42);stroke-width:5;stroke-linecap:round">
    </path>
    <path d="M-20.38362733751045,-612.1083758546596L-25.097551727696384,166.97106285948115L-177.69688230796856,-305.67634405548864z" style="fill:rgb(0,0,0); fill-opacity: 0.2">
    </path>
    <path d="M-15.824051443880931,-227.78528276316118L-31.09778805539259,-230.22236700207858L-29.411971581265192,-226.159614401293z" style="fill:rgb(43,180,168)">
    </path>
    <path d="M-31.09778805539259,-230.22236700207858L-44.05627190491782,-227.05076937565462L-29.411971581265192,-226.159614401293z" style="fill:rgb(43,180,168)">
    </path>
    <path d="M22.59215476452087,-349.86886922687904L-177.69688230796856,-305.67634405548864" style="fill:none;stroke:rgb(45,114,23);stroke-width:5;stroke-linecap:round">
    </path>
    <path d="M22.59215476452087,-349.86886922687904L-20.38362733751045,-612.1083758546596" style="fill:none;stroke:rgb(0,0,0);stroke-width:1;stroke-linecap:round">
    </path>
    <path d="M-684.6445262227953,-193.82151244942943L22.59215476452087,-349.86886922687904" style="fill:none;stroke:rgb(1,93,85);stroke-width:5;stroke-linecap:round">
    </path>
    <path d="M22.59215476452087,-349.86886922687904L-20.38362733751045,-612.1083758546596" style="fill:none;stroke:rgb(0,0,0);stroke-width:1;stroke-linecap:round">
    </path>
    <path d="M-15.824051443880931,-227.78528276316118L-19.282725226367003,-223.08042259042296L-29.56232415342533,-198.4327101041691z" style="fill:rgb(43,180,168)">
    </path>
    <path d="M-36.800351882794466,-222.6222522825526L-44.05627190491782,-227.05076937565462L-29.56232415342533,-198.4327101041691z" style="fill:rgb(43,180,168)">
    </path>
    <path d="M-28.802635052916624,-338.5289298278824L-29.411971581265167,-226.15961440129306" style="fill:none;stroke:rgb(43,180,168);stroke-width:5;stroke-linecap:round">
    </path>
    <path d="M-19.282725226367003,-223.08042259042296L-15.824051443880931,-227.78528276316118L-29.411971581265192,-226.159614401293z" style="fill:rgb(43,180,168)">
    </path>
    <path d="M-44.05627190491782,-227.05076937565462L-36.800351882794466,-222.6222522825526L-29.411971581265192,-226.159614401293z" style="fill:rgb(43,180,168)">
    </path>
    <path d="M-19.282725226367003,-223.08042259042296L-36.800351882794466,-222.6222522825526L-29.56232415342533,-198.4327101041691z" style="fill:rgb(43,180,168)">
    </path>
    <path d="M-29.034571242027347,-224.5336933524764L-44.3263585841435,-226.9846654794961L-42.683108648340955,-222.89820784369402z" style="fill:rgb(109,213,75)">
    </path>
    <path d="M-44.3263585841435,-226.9846654794961L-57.36173651401594,-223.79424797525712L-42.683108648340955,-222.89820784369402z" style="fill:rgb(109,213,75)">
    </path>
    <path d="M-174.01868270615734,130.751441501669L-267.08527022789315,160.1040440411623" style="fill:none;stroke:rgb(197,147,42);stroke-width:5;stroke-linecap:round">
    </path>
    <path d="M-36.800351882794466,-222.6222522825526L-19.282725226367003,-223.08042259042296L-29.411971581265192,-226.159614401293z" style="fill:rgb(43,180,168)">
    </path>
    <path d="M-29.034571242027347,-224.5336933524764L-32.558938832641054,-219.80119239154126L-42.79927805193123,-195.09771018405843z" style="fill:rgb(109,213,75)">
    </path>
    <path d="M-50.135712233213766,-219.339935071297L-57.36173651401594,-223.79424797525712L-42.79927805193123,-195.09771018405843z" style="fill:rgb(109,213,75)">
    </path>
    <path d="M-42.21228847751871,-335.57017354661934L-42.68310864834094,-222.89820784369405" style="fill:none;stroke:rgb(109,213,75);stroke-width:5;stroke-linecap:round">
    </path>
    <path d="M-32.558938832641054,-219.80119239154126L-29.034571242027347,-224.5336933524764L-42.683108648340955,-222.89820784369402z" style="fill:rgb(109,213,75)">
    </path>
    <path d="M-57.36173651401594,-223.79424797525712L-50.135712233213766,-219.339935071297L-42.683108648340955,-222.89820784369402z" style="fill:rgb(109,213,75)">
    </path>
    <path d="M-32.558938832641054,-219.80119239154126L-50.135712233213766,-219.339935071297L-42.79927805193123,-195.09771018405843z" style="fill:rgb(109,213,75)">
    </path>
    <path d="M-50.135712233213766,-219.339935071297L-32.558938832641054,-219.80119239154126L-42.683108648340955,-222.89820784369402z" style="fill:rgb(109,213,75)">
    </path>
    <path d="M-20.38362733751045,-612.1083758546596L-20.38362733751045,-612.1083758546596L22.59215476452087,-349.86886922687904z" style="fill:rgb(0,0,0); fill-opacity: 0.2">
    </path>
    <path d="M-174.52572603742055,70.58945406200561L-268.1571880938613,98.89642064645041" style="fill:none;stroke:rgb(197,147,42);stroke-width:5;stroke-linecap:round">
    </path>
    <path d="M-67.642046329649,-215.03098951596277L-82.98566603991898,-217.52277401212157L-81.46842660779323,-213.36664399259513z" style="fill:rgb(43,180,168)">
    </path>
    <path d="M-82.98566603991898,-217.52277401212157L-96.24706752946643,-214.27703708983154L-81.46842660779323,-213.36664399259513z" style="fill:rgb(43,180,168)">
    </path>
    <path d="M-177.69688230796856,-305.67634405548864L-20.38362733751045,-612.1083758546596" style="fill:none;stroke:rgb(0,0,0);stroke-width:1;stroke-linecap:round">
    </path>
    <path d="M-20.38362733751045,-612.1083758546596L-20.38362733751045,-612.1083758546596" style="fill:none;stroke:rgb(0,0,0);stroke-width:1;stroke-linecap:round">
    </path>
    <path d="M-177.69688230796856,-305.67634405548864L-20.38362733751045,-612.1083758546596" style="fill:none;stroke:rgb(0,0,0);stroke-width:1;stroke-linecap:round">
    </path>
    <path d="M-20.38362733751045,-612.1083758546596L-744.0083122790021,-496.5210937758736" style="fill:none;stroke:rgb(0,0,0);stroke-width:1;stroke-linecap:round">
    </path>
    <path d="M-67.642046329649,-215.03098951596277L-71.36028907661652,-210.21724298767657L-81.48352260046225,-185.3513626883965z" style="fill:rgb(43,180,168)">
    </path>
    <path d="M-265.21356714173737,266.9802341312116L-274.1388061723103,272.02073912694055L-288.54397250820415,288.40709796332936z" style="fill:rgb(197,147,42)">
    </path>
    <path d="M-89.11016436671785,-209.74690483623218L-96.24706752946643,-214.27703708983154L-81.48352260046225,-185.3513626883965z" style="fill:rgb(43,180,168)">
    </path>
    <path d="M-81.40723744460502,-326.92205283998067L-81.4684266077932,-213.36664399259513" style="fill:none;stroke:rgb(43,180,168);stroke-width:5;stroke-linecap:round">
    </path>
    <path d="M-71.36028907661652,-210.21724298767657L-67.642046329649,-215.03098951596277L-81.46842660779323,-213.36664399259513z" style="fill:rgb(43,180,168)">
    </path>
    <path d="M-96.24706752946643,-214.27703708983154L-89.11016436671785,-209.74690483623218L-81.46842660779323,-213.36664399259513z" style="fill:rgb(43,180,168)">
    </path>
    <path d="M-71.36028907661652,-210.21724298767657L-89.11016436671785,-209.74690483623218L-81.48352260046225,-185.3513626883965z" style="fill:rgb(43,180,168)">
    </path>
    <path d="M-259.15837518565564,293.81070014832545L-255.91793278721258,280.4719262855494L-288.54397250820415,288.40709796332936z" style="fill:rgb(197,147,42)">
    </path>
    <path d="M-255.91793278721258,280.4719262855494L-265.21356714173737,266.9802341312116L-288.54397250820415,288.40709796332936z" style="fill:rgb(197,147,42)">
    </path>
    <path d="M-175.03872698975084,9.720579652917586L-269.24195775321124,36.95494650232571" style="fill:none;stroke:rgb(197,147,42);stroke-width:5;stroke-linecap:round">
    </path>
    <path d="M-89.11016436671785,-209.74690483623218L-71.36028907661652,-210.21724298767657L-81.46842660779323,-213.36664399259513z" style="fill:rgb(43,180,168)">
    </path>
    <path d="M-94.76334925445607,-208.35545041971548L-110.14256037518102,-210.87610588219843L-108.71527706588414,-206.67067993851302z" style="fill:rgb(109,213,75)">
    </path>
    <path d="M-110.14256037518102,-210.87610588219843L-123.56390110190611,-207.59122372417744L-108.71527706588414,-206.67067993851302z" style="fill:rgb(109,213,75)">
    </path>
    <path d="M-94.76334925445607,-208.35545041971548L-98.61946804163878,-203.48421461755615L-108.65832421193035,-178.5047753316557z" style="fill:rgb(109,213,75)">
    </path>
    <path d="M-266.2632288607931,207.04345983948087L-275.2372846249782,212.32088645449545L-289.7356055940472,228.37502691659515z" style="fill:rgb(197,147,42)">
    </path>
    <path d="M-116.49116529164112,-203.0074446165123L-123.56390110190611,-207.59122372417744L-108.65832421193035,-178.5047753316557z" style="fill:rgb(109,213,75)">
    </path>
    <path d="M-108.94614474194842,-320.84576493267014L-108.71527706588415,-206.67067993851308" style="fill:none;stroke:rgb(109,213,75);stroke-width:5;stroke-linecap:round">
    </path>
    <path d="M22.59215476452087,-349.86886922687904L-177.69688230796856,-305.67634405548864L-20.38362733751045,-612.1083758546596z" style="fill:rgb(0,0,0); fill-opacity: 0.2">
    </path>
    <path d="M-98.61946804163878,-203.48421461755615L-94.76334925445607,-208.35545041971548L-108.71527706588414,-206.67067993851302z" style="fill:rgb(109,213,75)">
    </path>
    <path d="M-123.56390110190611,-207.59122372417744L-116.49116529164112,-203.0074446165123L-108.71527706588414,-206.67067993851302z" style="fill:rgb(109,213,75)">
    </path>
    <path d="M-260.1714989358396,234.08121628776811L-256.9144125970372,220.5165515058997L-289.7356055940472,228.37502691659515z" style="fill:rgb(197,147,42)">
    </path>
    <path d="M-98.61946804163878,-203.48421461755615L-116.49116529164112,-203.0074446165123L-108.65832421193035,-178.5047753316557z" style="fill:rgb(109,213,75)">
    </path>
    <path d="M-256.9144125970372,220.5165515058997L-266.2632288607931,207.04345983948087L-289.7356055940472,228.37502691659515z" style="fill:rgb(197,147,42)">
    </path>
    <path d="M-175.55779118429572,-51.867713944769015L-270.33981173035096,-25.7336557764147" style="fill:none;stroke:rgb(197,147,42);stroke-width:5;stroke-linecap:round">
    </path>
    <path d="M-116.49116529164112,-203.0074446165123L-98.61946804163878,-203.48421461755615L-108.71527706588414,-206.67067993851302z" style="fill:rgb(109,213,75)">
    </path>
    <path d="M-331.0820302228024,291.3050784618049L-327.2728564303132,308.02254794898573L-321.93411965556584,299.7962249572162z" style="fill:rgb(167,41,160)">
    </path>
    <path d="M-925.7032034546347,-548.6530417973316L-861.396726916527,293.44027962255694" style="fill:none;stroke:rgb(0,0,0);stroke-width:1;stroke-linecap:round">
    </path>
    <path d="M-690.7668484085556,389.31901556516834L-861.396726916527,293.44027962255694" style="fill:none;stroke:rgb(160,0,0);stroke-width:4;stroke-linecap:round">
    </path>
    <path d="M-327.2728564303132,308.02254794898573L-316.07183959250284,313.4102674733107L-321.93411965556584,299.7962249572162z" style="fill:rgb(167,41,160)">
    </path>
    <path d="M-312.93309967945095,299.95813519898525L-316.07183959250284,313.4102674733107L-298.036144005644,291.64480596608183z" style="fill:rgb(167,41,160)">
    </path>
    <path d="M-120.67925200318616,-201.97660414919022L-136.09184027577365,-204.5250021963188L-134.75162161036513,-200.2721999586821z" style="fill:rgb(43,180,168)">
    </path>
    <path d="M-322.24747428044924,286.27082778579955L-331.0820302228024,291.3050784618049L-321.93411965556584,299.7962249572162z" style="fill:rgb(167,41,160)">
    </path>
    <path d="M-322.24747428044924,286.27082778579955L-312.93309967945095,299.95813519898525L-298.036144005644,291.64480596608183z" style="fill:rgb(167,41,160)">
    </path>
    <path d="M-136.09184027577365,-204.5250021963188L-149.66690640884897,-201.2024956418358L-134.75162161036513,-200.2721999586821z" style="fill:rgb(43,180,168)">
    </path>
    <path d="M-419.9860745621381,333.24100618268795L-321.9341196555659,299.7962249572162" style="fill:none;stroke:rgb(167,41,160);stroke-width:5;stroke-linecap:round">
    </path>
    <path d="M-120.67925200318616,-201.97660414919022L-124.66841519820981,-197.0501139998519L-134.6250156209232,-171.96256672093403z" style="fill:rgb(43,180,168)">
    </path>
    <path d="M-267.32534302954866,146.3956377373145L-276.3487493163039,151.91526068950097L-290.94142807752695,167.6281226404359z" style="fill:rgb(197,147,42)">
    </path>
    <path d="M-316.07183959250284,313.4102674733107L-312.93309967945095,299.95813519898525L-321.93411965556584,299.7962249572162z" style="fill:rgb(167,41,160)">
    </path>
    <path d="M-142.65668963664302,-196.56715739199598L-149.66690640884897,-201.2024956418358L-134.6250156209232,-171.96256672093403z" style="fill:rgb(43,180,168)">
    </path>
    <path d="M-135.26487892623246,-315.03870060244844L-134.75162161036516,-200.27219995868217" style="fill:none;stroke:rgb(43,180,168);stroke-width:5;stroke-linecap:round">
    </path>
    <path d="M-312.93309967945095,299.95813519898525L-322.24747428044924,286.27082778579955L-321.93411965556584,299.7962249572162z" style="fill:rgb(167,41,160)">
    </path>
    <path d="M-124.66841519820981,-197.0501139998519L-120.67925200318616,-201.97660414919022L-134.75162161036513,-200.2721999586821z" style="fill:rgb(43,180,168)">
    </path>
    <path d="M-149.66690640884897,-201.2024956418358L-142.65668963664302,-196.56715739199598L-134.75162161036513,-200.2721999586821z" style="fill:rgb(43,180,168)">
    </path>
    <path d="M-124.66841519820981,-197.0501139998519L-142.65668963664302,-196.56715739199598L-134.6250156209232,-171.96256672093403z" style="fill:rgb(43,180,168)">
    </path>
    <path d="M-261.1966317484816,173.64372898524746L-257.92273344439576,159.8487349525929L-290.94142807752695,167.6281226404359z" style="fill:rgb(197,147,42)">
    </path>
    <path d="M-257.92273344439576,159.8487349525929L-267.32534302954866,146.3956377373145L-290.94142807752695,167.6281226404359z" style="fill:rgb(197,147,42)">
    </path>
    <path d="M-176.0830267537524,-114.18825695199274L-271.450988193068,-89.18298581777921" style="fill:none;stroke:rgb(197,147,42);stroke-width:5;stroke-linecap:round">
    </path>
    <path d="M-142.65668963664302,-196.56715739199598L-124.66841519820981,-197.0501139998519L-134.75162161036513,-200.2721999586821z" style="fill:rgb(43,180,168)">
    </path>
    <path d="M-332.53253406356123,230.9946053138044L-328.69997354358253,247.84233111042053L-323.33324030405913,239.40566117140781z" style="fill:rgb(167,41,160)">
    </path>
    <path d="M-328.69997354358253,247.84233111042053L-317.43671456290764,253.07004618415078L-323.33324030405913,239.40566117140781z" style="fill:rgb(167,41,160)">
    </path>
    <path d="M-314.282612380711,239.3870640760564L-317.43671456290764,253.07004618415078L-299.286476123847,231.51072859734154z" style="fill:rgb(167,41,160)">
    </path>
    <path d="M-323.65034412325633,225.71843667038226L-332.53253406356123,230.9946053138044L-323.33324030405913,239.40566117140781z" style="fill:rgb(167,41,160)">
    </path>
    <path d="M-323.65034412325633,225.71843667038226L-314.282612380711,239.3870640760564L-299.286476123847,231.51072859734154z" style="fill:rgb(167,41,160)">
    </path>
    <path d="M-422.01072578793855,271.803038574672L-323.3332403040592,239.40566117140781" style="fill:none;stroke:rgb(167,41,160);stroke-width:5;stroke-linecap:round">
    </path>
    <path d="M-268.40013256092624,85.02403926533894L-277.4734319010395,90.79127191311176L-292.1616949174623,106.15354082387705z" style="fill:rgb(197,147,42)">
    </path>
    <path d="M-317.43671456290764,253.07004618415078L-314.282612380711,239.3870640760564L-323.33324030405913,239.40566117140781z" style="fill:rgb(167,41,160)">
    </path>
    <path d="M-314.282612380711,239.3870640760564L-323.65034412325633,225.71843667038226L-323.33324030405913,239.40566117140781z" style="fill:rgb(167,41,160)">
    </path>
    <path d="M-262.23398842076506,112.48557470888707L-258.9431076489916,98.45570194895073L-292.1616949174623,106.15354082387705z" style="fill:rgb(197,147,42)">
    </path>
    <path d="M-162.45412163413803,-191.69428931220722L-177.9192108662645,-194.28772514872523L-176.72161173150133,-189.9579970149853z" style="fill:rgb(109,213,75)">
    </path>
    <path d="M-258.9431076489916,98.45570194895073L-268.40013256092624,85.02403926533894L-292.1616949174623,106.15354082387705z" style="fill:rgb(197,147,42)">
    </path>
    <path d="M-177.9192108662645,-194.28772514872523L-191.74391354783447,-190.9041198813165L-176.72161173150133,-189.9579970149853z" style="fill:rgb(109,213,75)">
    </path>
    <path d="M-176.61454441746605,-177.25418650210256L-272.5757311247803,-153.40697532832175" style="fill:none;stroke:rgb(197,147,42);stroke-width:5;stroke-linecap:round">
    </path>
    <path d="M-162.45412163413803,-191.69428931220722L-166.66041136284798,-186.67807374664812L-176.48106990080717,-161.41709389162094z" style="fill:rgb(109,213,75)">
    </path>
    <path d="M-334.000395378689,169.9624260507024L-330.14415947809044,186.94233777014935L-324.74914005074305,178.2908573419496z" style="fill:rgb(167,41,160)">
    </path>
    <path d="M-184.83695012407898,-186.18506112049917L-191.74391354783447,-190.9041198813165L-176.48106990080717,-161.41709389162094z" style="fill:rgb(109,213,75)">
    </path>
    <path d="M-177.69688230796856,-305.67634405548864L-176.72161173150138,-189.95799701498535" style="fill:none;stroke:rgb(109,213,75);stroke-width:5;stroke-linecap:round">
    </path>
    <path d="M-166.66041136284798,-186.67807374664812L-162.45412163413803,-191.69428931220722L-176.72161173150133,-189.9579970149853z" style="fill:rgb(109,213,75)">
    </path>
    <path d="M-330.14415947809044,186.94233777014935L-318.8179663474941,192.00581675273511L-324.74914005074305,178.2908573419496z" style="fill:rgb(167,41,160)">
    </path>
    <path d="M-191.74391354783447,-190.9041198813165L-184.83695012407898,-186.18506112049917L-176.72161173150133,-189.9579970149853z" style="fill:rgb(109,213,75)">
    </path>
    <path d="M-174.97921040048465,-188.6114094087038L-190.4597277633411,-191.2184252146627L-189.30543685882765,-186.86549864182334z" style="fill:rgb(43,180,168)">
    </path>
    <path d="M-315.6483581781376,178.0873921615024L-318.8179663474941,192.00581675273511L-300.5517268393301,170.65914899858083z" style="fill:rgb(167,41,160)">
    </path>
    <path d="M-166.66041136284798,-186.67807374664812L-184.83695012407898,-186.18506112049917L-176.48106990080717,-161.41709389162094z" style="fill:rgb(109,213,75)">
    </path>
    <path d="M-325.07006075599884,164.43888371708385L-334.000395378689,169.9624260507024L-324.74914005074305,178.2908573419496z" style="fill:rgb(167,41,160)">
    </path>
    <path d="M-325.07006075599884,164.43888371708385L-315.6483581781376,178.0873921615024L-300.5517268393301,170.65914899858083z" style="fill:rgb(167,41,160)">
    </path>
    <path d="M-190.4597277633411,-191.2184252146627L-204.35972000239306,-187.81639277748803L-189.30543685882765,-186.86549864182334z" style="fill:rgb(43,180,168)">
    </path>
    <path d="M-424.06016386444026,209.61291488610092L-324.7491400507431,178.2908573419496" style="fill:none;stroke:rgb(167,41,160);stroke-width:5;stroke-linecap:round">
    </path>
    <path d="M-184.83695012407898,-186.18506112049917L-166.66041136284798,-186.67807374664812L-176.72161173150133,-189.9579970149853z" style="fill:rgb(109,213,75)">
    </path>
    <path d="M-174.97921040048465,-188.6114094087038L-179.25124126121642,-183.56813360436234L-189.03033532374732,-158.2553544533898z" style="fill:rgb(43,180,168)">
    </path>
    <path d="M-269.4878257203109,22.91563023300295L-278.61156957672006,28.93602896859473L-293.3966672176998,43.93812758184253z" style="fill:rgb(197,147,42)">
    </path>
    <path d="M-318.8179663474941,192.00581675273511L-315.6483581781376,178.0873921615024L-324.74914005074305,178.2908573419496z" style="fill:rgb(167,41,160)">
    </path>
    <path d="M-197.48431003243982,-183.0720858417433L-204.35972000239306,-187.81639277748803L-189.03033532374732,-158.2553544533898z" style="fill:rgb(43,180,168)">
    </path>
    <path d="M-190.42087014244737,-302.8688756045212L-189.30543685882765,-186.86549864182336" style="fill:none;stroke:rgb(43,180,168);stroke-width:5;stroke-linecap:round">
    </path>
    <path d="M-315.6483581781376,178.0873921615024L-325.07006075599884,164.43888371708385L-324.74914005074305,178.2908573419496z" style="fill:rgb(167,41,160)">
    </path>
    <path d="M-179.25124126121642,-183.56813360436234L-174.97921040048465,-188.6114094087038L-189.30543685882765,-186.86549864182334z" style="fill:rgb(43,180,168)">
    </path>
    <path d="M-204.35972000239306,-187.81639277748803L-197.48431003243982,-183.0720858417433L-189.30543685882765,-186.86549864182334z" style="fill:rgb(43,180,168)">
    </path>
    <path d="M-179.25124126121642,-183.56813360436234L-197.48431003243982,-183.0720858417433L-189.03033532374732,-158.2553544533898z" style="fill:rgb(43,180,168)">
    </path>
    <path d="M-263.28378890315486,50.5937861111798L-259.97575263714305,36.324370567696455L-293.3966672176998,43.93812758184253z" style="fill:rgb(197,147,42)">
    </path>
    <path d="M-259.97575263714305,36.324370567696455L-269.4878257203109,22.91563023300295L-293.3966672176998,43.93812758184253z" style="fill:rgb(197,147,42)">
    </path>
    <path d="M-197.48431003243982,-183.0720858417433L-179.25124126121642,-183.56813360436234L-189.30543685882765,-186.86549864182334z" style="fill:rgb(43,180,168)">
    </path>
    <path d="M-177.15245755923954,-241.07895587315448L-273.71429050313554,-218.41989829135076" style="fill:none;stroke:rgb(197,147,42);stroke-width:5;stroke-linecap:round">
    </path>
    <path d="M-335.4859276062539,108.19550823670234L-331.60572229975855,125.30957707143553L-326.1821225540342,116.4387065913031z" style="fill:rgb(167,41,160)">
    </path>
    <path d="M-331.60572229975855,125.30957707143553L-320.2158914775871,130.20446972497248L-326.1821225540342,116.4387065913031z" style="fill:rgb(167,41,160)">
    </path>
    <path d="M-317.0306317424107,116.04589355629693L-320.2158914775871,130.20446972497248L-301.83216476108686,109.07714855900291z" style="fill:rgb(167,41,160)">
    </path>
    <path d="M-326.5069294765224,102.41899128532425L-335.4859276062539,108.19550823670234L-326.1821225540342,116.4387065913031z" style="fill:rgb(167,41,160)">
    </path>
    <path d="M-326.5069294765224,102.41899128532425L-317.0306317424107,116.04589355629693L-301.83216476108686,109.07714855900291z" style="fill:rgb(167,41,160)">
    </path>
    <path d="M-426.13484677568044,146.65673760806573L-326.18212255403427,116.4387065913031" style="fill:none;stroke:rgb(167,41,160);stroke-width:5;stroke-linecap:round">
    </path>
    <path d="M-270.58865628717115,-39.94293841013127L-279.7634052504385,-33.66366960250398L-294.6466124133706,-19.031589928093165z" style="fill:rgb(197,147,42)">
    </path>
    <path d="M-320.2158914775871,130.20446972497248L-317.0306317424107,116.04589355629693L-326.1821225540342,116.4387065913031z" style="fill:rgb(167,41,160)">
    </path>
    <path d="M-317.0306317424107,116.04589355629693L-326.5069294765224,102.41899128532425L-326.1821225540342,116.4387065913031z" style="fill:rgb(167,41,160)">
    </path>
    <path d="M-419.9860745621381,333.24100618268807L-439.14020906609585,-247.99050678987243" style="fill:none;stroke:rgb(84,0,79);stroke-width:5;stroke-linecap:round">
    </path>
    <path d="M-419.9860745621381,333.24100618268807L-690.7668484085556,389.31901556516834" style="fill:none;stroke:rgb(160,0,0);stroke-width:4;stroke-linecap:round">
    </path>
    <path d="M-264.3462584548723,-12.044917137185998L-261.02089109623955,-26.55865766223509L-294.6466124133706,-19.031589928093165z" style="fill:rgb(197,147,42)">
    </path>
    <path d="M-261.02089109623955,-26.55865766223509L-270.58865628717115,-39.94293841013127L-294.6466124133706,-19.031589928093165z" style="fill:rgb(197,147,42)">
    </path>
    <path d="M-177.69688230796856,-305.67634405548847L-274.8669224852335,-284.2363815432886" style="fill:none;stroke:rgb(197,147,42);stroke-width:5;stroke-linecap:round">
    </path>
    <path d="M-336.9894517766999,45.68050375273113L-333.08497753286593,62.93074364546143L-327.63249884406554,53.83578385488684z" style="fill:rgb(167,41,160)">
    </path>
    <path d="M-333.08497753286593,62.93074364546143L-321.6307936869514,67.65257723166303L-327.63249884406554,53.83578385488684z" style="fill:rgb(167,41,160)">
    </path>
    <path d="M-230.58756180037335,-174.9241715618717L-246.13483333428468,-177.59190572903793L-245.17587066288365,-173.13523587206373z" style="fill:rgb(43,180,168)">
    </path>
    <path d="M-318.4297349196259,53.24902030249992L-321.6307936869514,67.65257723166303L-303.128064985444,46.7514966628852z" style="fill:rgb(167,41,160)">
    </path>
    <path d="M-246.13483333428468,-177.59190572903793L-260.3715587571477,-174.10745761894083L-245.17587066288365,-173.13523587206373z" style="fill:rgb(43,180,168)">
    </path>
    <path d="M-327.9612630043226,39.6452613921711L-336.9894517766999,45.68050375273113L-327.63249884406554,53.83578385488684z" style="fill:rgb(167,41,160)">
    </path>
    <path d="M-327.9612630043226,39.6452613921711L-318.4297349196259,53.24902030249992L-303.128064985444,46.7514966628852z" style="fill:rgb(167,41,160)">
    </path>
    <path d="M-428.2352438584485,82.92026473281764L-327.63249884406554,53.835783854886834" style="fill:none;stroke:rgb(167,41,160);stroke-width:5;stroke-linecap:round">
    </path>
    <path d="M-230.58756180037335,-174.9241715618717L-235.15504131149393,-169.75987209292654L-244.74510932277602,-144.21823018292443z" style="fill:rgb(43,180,168)">
    </path>
    <path d="M-744.0083122790021,-496.5210937758736L-20.38362733751045,-612.1083758546596L-214.64785139447844,-651.4793756482011z" style="fill:rgb(0,0,0); fill-opacity: 0.2">
    </path>
    <path d="M-253.63955729190027,-169.25023703236752L-260.3715587571477,-174.10745761894083L-244.74510932277602,-144.21823018292443z" style="fill:rgb(43,180,168)">
    </path>
    <path d="M-246.92273300490857,-290.4020924331783L-245.17587066288365,-173.1352358720638" style="fill:none;stroke:rgb(43,180,168);stroke-width:5;stroke-linecap:round">
    </path>
    <path d="M-271.7028637225711,-103.56534013952802L-280.9291877116781,-97.02134495343535L-295.91180446396316,-82.76941323232431z" style="fill:rgb(197,147,42)">
    </path>
    <path d="M-321.6307936869514,67.65257723166303L-318.4297349196259,53.24902030249992L-327.63249884406554,53.83578385488684z" style="fill:rgb(167,41,160)">
    </path>
    <path d="M-318.4297349196259,53.24902030249992L-327.9612630043226,39.6452613921711L-327.63249884406554,53.83578385488684z" style="fill:rgb(167,41,160)">
    </path>
    <path d="M-235.15504131149393,-169.75987209292654L-230.58756180037335,-174.9241715618717L-245.17587066288365,-173.13523587206373z" style="fill:rgb(43,180,168)">
    </path>
    <path d="M-260.3715587571477,-174.10745761894083L-253.63955729190027,-169.25023703236752L-245.17587066288365,-173.13523587206373z" style="fill:rgb(43,180,168)">
    </path>
    <path d="M-235.15504131149393,-169.75987209292654L-253.63955729190027,-169.25023703236752L-244.74510932277602,-144.21823018292443z" style="fill:rgb(43,180,168)">
    </path>
    <path d="M-265.4216278050344,-75.44413784736825L-262.0787511348384,-90.20710738824171L-295.91180446396316,-82.76941323232431z" style="fill:rgb(197,147,42)">
    </path>
    <path d="M-262.0787511348384,-90.20710738824171L-271.7028637225711,-103.56534013952802L-295.91180446396316,-82.76941323232431z" style="fill:rgb(197,147,42)">
    </path>
    <path d="M-253.63955729190027,-169.25023703236752L-235.15504131149393,-169.75987209292654L-245.17587066288365,-173.13523587206373z" style="fill:rgb(43,180,168)">
    </path>
    <path d="M-338.5112967441347,-17.596260820249057L-334.58224838713494,-0.20779196465658265L-329.10058754774883,-9.531663833403623z" style="fill:rgb(167,41,160)">
    </path>
    <path d="M-334.58224838713494,-0.20779196465658265L-323.0629841318024,4.336383261968129L-329.10058754774883,-9.531663833403623z" style="fill:rgb(167,41,160)">
    </path>
    <path d="M-319.8459769510391,-10.317107479705156L-323.0629841318024,4.336383261968129L-304.43970929309955,-16.331358786905344z" style="fill:rgb(167,41,160)">
    </path>
    <path d="M-329.4333817074445,-23.89613408139917L-338.5112967441347,-17.596260820249057L-329.10058754774883,-9.531663833403623z" style="fill:rgb(167,41,160)">
    </path>
    <path d="M-329.4333817074445,-23.89613408139917L-319.8459769510391,-10.317107479705156L-304.43970929309955,-16.331358786905344z" style="fill:rgb(167,41,160)">
    </path>
    <path d="M-430.3618361562511,18.38889901267848L-329.10058754774883,-9.531663833403632" style="fill:none;stroke:rgb(167,41,160);stroke-width:5;stroke-linecap:round">
    </path>
    <path d="M-272.83069334282754,-167.965582771645L-282.109171811462,-161.15084766860525L-297.1925240535052,-147.28948262595407z" style="fill:rgb(197,147,42)">
    </path>
    <path d="M-323.0629841318024,4.336383261968129L-319.8459769510391,-10.317107479705156L-329.10058754774883,-9.531663833403623z" style="fill:rgb(167,41,160)">
    </path>
    <path d="M-319.8459769510391,-10.317107479705156L-329.4333817074445,-23.89613408139917L-329.10058754774883,-9.531663833403623z" style="fill:rgb(167,41,160)">
    </path>
    <path d="M-684.6445262227953,-193.82151244942943L22.59215476452087,-349.86886922687904L-20.38362733751045,-612.1083758546596z" style="fill:rgb(0,0,0); fill-opacity: 0.2">
    </path>
    <path d="M-266.5101333196965,-139.61781116055656L-263.1495664486423,-154.63503942049832L-297.1925240535052,-147.28948262595407z" style="fill:rgb(197,147,42)">
    </path>
    <path d="M-263.1495664486423,-154.63503942049832L-272.83069334282754,-167.965582771645L-297.1925240535052,-147.28948262595407z" style="fill:rgb(197,147,42)">
    </path>
    <path d="M-340.0517994261234,-81.64879417162847L-336.09786599316374,-64.11999323187095L-330.58671512213573,-73.67772741377037z" style="fill:rgb(167,41,160)">
    </path>
    <path d="M-336.09786599316374,-64.11999323187095L-324.5127816189309,-59.75820642184707L-330.58671512213573,-73.67772741377037z" style="fill:rgb(167,41,160)">
    </path>
    <path d="M-287.5521727683197,-160.90310890594654L-303.1648766778643,-163.63376431344471L-302.41116872659654,-159.0695551781143z" style="fill:rgb(43,180,168)">
    </path>
    <path d="M-321.2796747009369,-74.66671181966751L-324.5127816189309,-59.75820642184707L-305.7673863533882,-80.18530119290192z" style="fill:rgb(167,41,160)">
    </path>
    <path d="M-303.1648766778643,-163.63376431344471L-317.7507214261954,-160.06386901393483L-302.41116872659654,-159.0695551781143z" style="fill:rgb(43,180,168)">
    </path>
    <path d="M-330.92361383775796,-88.21936354575557L-340.0517994261234,-81.64879417162847L-330.58671512213573,-73.67772741377037z" style="fill:rgb(167,41,160)">
    </path>
    <path d="M-330.92361383775796,-88.21936354575557L-321.2796747009369,-74.66671181966751L-305.7673863533882,-80.18530119290192z" style="fill:rgb(167,41,160)">
    </path>
    <path d="M-432.51511678660626,-46.95232318544449L-330.58671512213573,-73.67772741377037" style="fill:none;stroke:rgb(167,41,160);stroke-width:5;stroke-linecap:round">
    </path>
    <path d="M-287.5521727683197,-160.90310890594654L-292.4283566114901,-155.61333975383667L-301.8171883617597,-129.83913809761856z" style="fill:rgb(43,180,168)">
    </path>
    <path d="M-311.1712442622351,-155.08959634676648L-317.7507214261954,-160.06386901393483L-301.8171883617597,-129.83913809761856z" style="fill:rgb(43,180,168)">
    </path>
    <path d="M-304.82033725224693,-277.62734764204095L-302.41116872659654,-159.06955517811437" style="fill:none;stroke:rgb(43,180,168);stroke-width:5;stroke-linecap:round">
    </path>
    <path d="M-273.9723964995745,-233.15801874583178L-283.3036186480891,-226.0663678579389L-298.4890587981609,-212.60628763113272z" style="fill:rgb(197,147,42)">
    </path>
    <path d="M-324.5127816189309,-59.75820642184707L-321.2796747009369,-74.66671181966751L-330.58671512213573,-73.67772741377037z" style="fill:rgb(167,41,160)">
    </path>
    <path d="M-321.2796747009369,-74.66671181966751L-330.92361383775796,-88.21936354575557L-330.58671512213573,-73.67772741377037z" style="fill:rgb(167,41,160)">
    </path>
    <path d="M-292.4283566114901,-155.61333975383667L-287.5521727683197,-160.90310890594654L-302.41116872659654,-159.0695551781143z" style="fill:rgb(43,180,168)">
    </path>
    <path d="M-317.7507214261954,-160.06386901393483L-311.1712442622351,-155.08959634676648L-302.41116872659654,-159.0695551781143z" style="fill:rgb(43,180,168)">
    </path>
    <path d="M-292.4283566114901,-155.61333975383667L-311.1712442622351,-155.08959634676648L-301.8171883617597,-129.83913809761856z" style="fill:rgb(43,180,168)">
    </path>
    <path d="M-267.61201717505594,-204.58021475927626L-264.23357649261374,-219.85686108756394L-298.4890587981609,-212.60628763113272z" style="fill:rgb(197,147,42)">
    </path>
    <path d="M-264.23357649261374,-219.85686108756394L-273.9723964995745,-233.15801874583178L-298.4890587981609,-212.60628763113272z" style="fill:rgb(197,147,42)">
    </path>
    <path d="M-311.1712442622351,-155.08959634676648L-292.4283566114901,-155.61333975383667L-302.41116872659654,-159.0695551781143z" style="fill:rgb(43,180,168)">
    </path>
    <path d="M-341.61130505235656,-146.49145060050844L-337.6321696465681,-128.82016794041164L-332.0912160964327,-138.61684624667726z" style="fill:rgb(167,41,160)">
    </path>
    <path d="M-337.6321696465681,-128.82016794041164L-325.9805128422941,-124.64563474392946L-332.0912160964327,-138.61684624667726z" style="fill:rgb(167,41,160)">
    </path>
    <path d="M-322.73115289298505,-139.81436750444988L-325.9805128422941,-124.64563474392946L-307.11139193608153,-144.82455544948976z" style="fill:rgb(167,41,160)">
    </path>
    <path d="M-332.4322957749726,-153.33894623504824L-341.61130505235656,-146.49145060050844L-332.0912160964327,-138.61684624667726z" style="fill:rgb(167,41,160)">
    </path>
    <path d="M-332.4322957749726,-153.33894623504824L-322.73115289298505,-139.81436750444988L-307.11139193608153,-144.82455544948976z" style="fill:rgb(167,41,160)">
    </path>
    <path d="M-434.69559132225083,-113.1187434478148L-332.0912160964327,-138.61684624667723" style="fill:none;stroke:rgb(167,41,160);stroke-width:5;stroke-linecap:round">
    </path>
    <path d="M-275.1282307665145,-299.1573557880129L-284.51279575974326,-291.78244562470684L-299.8017034615663,-278.7346778452429z" style="fill:rgb(197,147,42)">
    </path>
    <path d="M-325.9805128422941,-124.64563474392946L-322.73115289298505,-139.81436750444988L-332.0912160964327,-138.61684624667726z" style="fill:rgb(167,41,160)">
    </path>
    <path d="M-322.73115289298505,-139.81436750444988L-332.4322957749726,-153.33894623504824L-332.0912160964327,-138.61684624667726z" style="fill:rgb(167,41,160)">
    </path>
    <path d="M-861.396726916527,293.44027962255694L-925.7032034546347,-548.6530417973316L-690.7668484085556,389.31901556516834z" style="fill:rgb(0,0,0); fill-opacity: 0.2">
    </path>
    <path d="M-268.72752753708016,-270.34597945752853L-265.3310266594908,-285.88733697717197L-299.8017034615663,-278.7346778452429z" style="fill:rgb(197,147,42)">
    </path>
    <path d="M-265.3310266594908,-285.88733697717197L-275.1282307665145,-299.1573557880129L-299.8017034615663,-278.7346778452429z" style="fill:rgb(197,147,42)">
    </path>
    <path d="M-343.19016742257736,-212.13894074005958L-339.1855070612084,-194.32297886414574L-333.6144333230483,-204.3638189488711z" style="fill:rgb(167,41,160)">
    </path>
    <path d="M-345.9232735772547,-146.5358579438023L-361.59992875562625,-149.3317460664118L-361.0619631001612,-144.65601363969657z" style="fill:rgb(43,180,168)">
    </path>
    <path d="M-339.1855070612084,-194.32297886414574L-327.4665126284404,-190.34070416491627L-333.6144333230483,-204.3638189488711z" style="fill:rgb(167,41,160)">
    </path>
    <path d="M-324.20074435542534,-205.7750130841539L-327.4665126284404,-190.34070416491627L-308.47202913105195,-210.26369850752073z" style="fill:rgb(167,41,160)">
    </path>
    <path d="M-361.59992875562625,-149.3317460664118L-376.54789397448593,-145.67322153850262L-361.0619631001612,-144.65601363969657z" style="fill:rgb(43,180,168)">
    </path>
    <path d="M-333.9597722797709,-219.26976313327125L-343.19016742257736,-212.13894074005958L-333.6144333230483,-204.3638189488711z" style="fill:rgb(167,41,160)">
    </path>
    <path d="M-333.9597722797709,-219.26976313327125L-324.20074435542534,-205.7750130841539L-308.47202913105195,-210.26369850752073z" style="fill:rgb(167,41,160)">
    </path>
    <path d="M-436.90377818688404,-180.12609332267814L-333.6144333230483,-204.3638189488711" style="fill:none;stroke:rgb(167,41,160);stroke-width:5;stroke-linecap:round">
    </path>
    <path d="M-345.9232735772547,-146.5358579438023L-351.1221362161913,-141.1159521496416L-360.296783381858,-115.10542774284052z" style="fill:rgb(43,180,168)">
    </path>
    <path d="M-370.1306064170135,-140.5775528713763L-376.54789397448593,-145.67322153850262L-360.296783381858,-115.10542774284052z" style="fill:rgb(43,180,168)">
    </path>
    <path d="M-364.1660472567333,-264.5330873593971L-361.0619631001612,-144.65601363969662" style="fill:none;stroke:rgb(43,180,168);stroke-width:5;stroke-linecap:round">
    </path>
    <path d="M-327.4665126284404,-190.34070416491627L-324.20074435542534,-205.7750130841539L-333.6144333230483,-204.3638189488711z" style="fill:rgb(167,41,160)">
    </path>
    <path d="M-351.1221362161913,-141.1159521496416L-345.9232735772547,-146.5358579438023L-361.0619631001612,-144.65601363969657z" style="fill:rgb(43,180,168)">
    </path>
    <path d="M-324.20074435542534,-205.7750130841539L-333.9597722797709,-219.26976313327125L-333.6144333230483,-204.3638189488711z" style="fill:rgb(167,41,160)">
    </path>
    <path d="M-376.54789397448593,-145.67322153850262L-370.1306064170135,-140.5775528713763L-361.0619631001612,-144.65601363969657z" style="fill:rgb(43,180,168)">
    </path>
    <path d="M-351.1221362161913,-141.1159521496416L-370.1306064170135,-140.5775528713763L-360.296783381858,-115.10542774284052z" style="fill:rgb(43,180,168)">
    </path>
    <path d="M-370.1306064170135,-140.5775528713763L-351.1221362161913,-141.1159521496416L-361.0619631001612,-144.65601363969657z" style="fill:rgb(43,180,168)">
    </path>
    <path d="M-344.78874917417363,-278.60634268370893L-340.75823463190005,-260.6434548448289L-335.15671823806906,-270.93381463633966z" style="fill:rgb(167,41,160)">
    </path>
    <path d="M-340.75823463190005,-260.6434548448289L-328.971124191156,-256.85858793969743L-335.15671823806906,-270.93381463633966z" style="fill:rgb(167,41,160)">
    </path>
    <path d="M-744.0083122790021,-496.5210937758736L-690.7668484085556,389.31901556516834" style="fill:none;stroke:rgb(0,0,0);stroke-width:1;stroke-linecap:round">
    </path>
    <path d="M-325.68879027550935,-272.563962291845L-328.971124191156,-256.85858793969743L-309.84960857614175,-276.51767033356924z" style="fill:rgb(167,41,160)">
    </path>
    <path d="M-335.50639675646096,-286.0270683112219L-344.78874917417363,-278.60634268370893L-335.15671823806906,-270.93381463633966z" style="fill:rgb(167,41,160)">
    </path>
    <path d="M-335.50639675646096,-286.0270683112219L-325.68879027550935,-272.563962291845L-309.84960857614175,-276.51767033356924z" style="fill:rgb(167,41,160)">
    </path>
    <path d="M-925.7032034546347,-548.6530417973316L-214.64785139447844,-651.4793756482011L-744.0083122790021,-496.5210937758736z" style="fill:rgb(0,0,0); fill-opacity: 0.2">
    </path>
    <path d="M-439.14020906609585,-247.99050678987243L-335.15671823806906,-270.93381463633966" style="fill:none;stroke:rgb(167,41,160);stroke-width:5;stroke-linecap:round">
    </path>
    <path d="M-328.971124191156,-256.85858793969743L-325.68879027550935,-272.563962291845L-335.15671823806906,-270.93381463633966z" style="fill:rgb(167,41,160)">
    </path>
    <path d="M-325.68879027550935,-272.563962291845L-335.50639675646096,-286.0270683112219L-335.15671823806906,-270.93381463633966z" style="fill:rgb(167,41,160)">
    </path>
    <path d="M-405.75360593463535,-131.80943702293106L-421.4925584240926,-134.6729847249947L-421.1814215700757,-129.88154517463067z" style="fill:rgb(43,180,168)">
    </path>
    <path d="M-421.4925584240926,-134.6729847249947L-436.8162989118425,-130.92248894761522L-421.1814215700757,-129.88154517463067z" style="fill:rgb(43,180,168)">
    </path>
    <path d="M-405.75360593463535,-131.80943702293106L-411.28988813988855,-126.25449277889386L-420.2366128568583,-100.00381690070103z" style="fill:rgb(43,180,168)">
    </path>
    <path d="M-430.5714540408883,-125.70086193797513L-436.8162989118425,-130.92248894761522L-420.2366128568583,-100.00381690070103z" style="fill:rgb(43,180,168)">
    </path>
    <path d="M-425.01487998601294,-251.1071724349313L-421.18142157007577,-129.88154517463073" style="fill:none;stroke:rgb(43,180,168);stroke-width:5;stroke-linecap:round">
    </path>
    <path d="M-411.28988813988855,-126.25449277889386L-405.75360593463535,-131.80943702293106L-421.1814215700757,-129.88154517463067z" style="fill:rgb(43,180,168)">
    </path>
    <path d="M-436.8162989118425,-130.92248894761522L-430.5714540408883,-125.70086193797513L-421.1814215700757,-129.88154517463067z" style="fill:rgb(43,180,168)">
    </path>
    <path d="M-419.63972226314706,-128.39155873356495L-435.3926626547465,-131.27092487780018L-435.13499488854694,-126.45242864205407z" style="fill:rgb(74,87,214)">
    </path>
    <path d="M-411.28988813988855,-126.25449277889386L-430.5714540408883,-125.70086193797513L-420.2366128568583,-100.00381690070103z" style="fill:rgb(43,180,168)">
    </path>
    <path d="M-435.3926626547465,-131.27092487780018L-450.8042835174518,-127.4989203196209L-435.13499488854694,-126.45242864205407z" style="fill:rgb(74,87,214)">
    </path>
    <path d="M-430.5714540408883,-125.70086193797513L-411.28988813988855,-126.25449277889386L-421.1814215700757,-129.88154517463067z" style="fill:rgb(43,180,168)">
    </path>
    <path d="M-419.63972226314706,-128.39155873356495L-425.2552828586478,-122.80503456292959L-434.1478951318513,-96.4989225245881z" style="fill:rgb(74,87,214)">
    </path>
    <path d="M-444.6003584815279,-122.24783830077553L-450.8042835174518,-127.4989203196209L-434.1478951318513,-96.4989225245881z" style="fill:rgb(74,87,214)">
    </path>
    <path d="M-439.1402090660958,-247.9905067898725L-435.13499488854706,-126.45242864205416" style="fill:none;stroke:rgb(74,87,214);stroke-width:5;stroke-linecap:round">
    </path>
    <path d="M-425.2552828586478,-122.80503456292959L-419.63972226314706,-128.39155873356495L-435.13499488854694,-126.45242864205407z" style="fill:rgb(74,87,214)">
    </path>
    <path d="M-450.8042835174518,-127.4989203196209L-444.6003584815279,-122.24783830077553L-435.13499488854694,-126.45242864205407z" style="fill:rgb(74,87,214)">
    </path>
    <path d="M-425.2552828586478,-122.80503456292959L-444.6003584815279,-122.24783830077553L-434.1478951318513,-96.4989225245881z" style="fill:rgb(74,87,214)">
    </path>
    <path d="M-444.6003584815279,-122.24783830077553L-425.2552828586478,-122.80503456292959L-435.13499488854694,-126.45242864205407z" style="fill:rgb(74,87,214)">
    </path>
    <path d="M-690.7668484085556,389.31901556516834L-744.0083122790021,-496.5210937758736L-419.9860745621381,333.24100618268807z" style="fill:rgb(0,0,0); fill-opacity: 0.2">
    </path>
    <path d="M-467.098581928926,-116.71020721293272L-482.8979901678879,-119.64396405948712L-482.825408414163,-114.73242103299074z" style="fill:rgb(43,180,168)">
    </path>
    <path d="M-482.8979901678879,-119.64396405948712L-498.6118559778978,-115.79798484743615L-482.825408414163,-114.73242103299074z" style="fill:rgb(43,180,168)">
    </path>
    <path d="M-467.098581928926,-116.71020721293272L-472.98784205648235,-111.0150728891074L-481.69206130480626,-84.52035165365432z" style="fill:rgb(43,180,168)">
    </path>
    <path d="M-492.5503360322274,-110.44560480589809L-498.6118559778978,-115.79798484743615L-481.69206130480626,-84.52035165365432z" style="fill:rgb(43,180,168)">
    </path>
    <path d="M-487.42467512147414,-237.33684090416955L-482.825408414163,-114.73242103299079" style="fill:none;stroke:rgb(43,180,168);stroke-width:5;stroke-linecap:round">
    </path>
    <path d="M-472.98784205648235,-111.0150728891074L-467.098581928926,-116.71020721293272L-482.825408414163,-114.73242103299074z" style="fill:rgb(43,180,168)">
    </path>
    <path d="M-498.6118559778978,-115.79798484743615L-492.5503360322274,-110.44560480589809L-482.825408414163,-114.73242103299074z" style="fill:rgb(43,180,168)">
    </path>
    <path d="M-472.98784205648235,-111.0150728891074L-492.5503360322274,-110.44560480589809L-481.69206130480626,-84.52035165365432z" style="fill:rgb(43,180,168)">
    </path>
    <path d="M-439.14020906609585,-247.99050678987243L-684.6445262227953,-193.82151244942943" style="fill:none;stroke:rgb(22,31,115);stroke-width:5;stroke-linecap:round">
    </path>
    <path d="M-439.14020906609585,-247.99050678987243L-744.0083122790021,-496.5210937758736" style="fill:none;stroke:rgb(0,0,0);stroke-width:1;stroke-linecap:round">
    </path>
    <path d="M-439.14020906609585,-247.99050678987243L-744.0083122790021,-496.5210937758736" style="fill:none;stroke:rgb(0,0,0);stroke-width:1;stroke-linecap:round">
    </path>
    <path d="M-492.5503360322274,-110.44560480589809L-472.98784205648235,-111.0150728891074L-482.825408414163,-114.73242103299074z" style="fill:rgb(43,180,168)">
    </path>
    <path d="M-744.0083122790021,-496.5210937758736L-925.7032034546347,-548.6530417973316" style="fill:none;stroke:rgb(0,0,0);stroke-width:1;stroke-linecap:round">
    </path>
    <path d="M-744.0083122790021,-496.5210937758736L-925.7032034546347,-548.6530417973316" style="fill:none;stroke:rgb(0,0,0);stroke-width:1;stroke-linecap:round">
    </path>
    <path d="M-497.45852283785814,-109.23752151419511L-513.2865705933465,-112.20633858825497L-513.3342921855502,-107.23480623976548z" style="fill:rgb(74,87,214)">
    </path>
    <path d="M-513.2865705933465,-112.20633858825497L-529.1953230187023,-108.31266074619217L-513.3342921855502,-107.23480623976548z" style="fill:rgb(74,87,214)">
    </path>
    <path d="M-419.9860745621381,333.24100618268807L-439.14020906609585,-247.99050678987243L-744.0083122790021,-496.5210937758736z" style="fill:rgb(0,0,0); fill-opacity: 0.2">
    </path>
    <path d="M-497.45852283785814,-109.23752151419511L-503.52510183102817,-103.47235721628465L-512.1060026956642,-76.85767541511176z" style="fill:rgb(74,87,214)">
    </path>
    <path d="M-523.226972764813,-102.89496874621074L-529.1953230187023,-108.31266074619217L-512.1060026956642,-76.85767541511176z" style="fill:rgb(74,87,214)">
    </path>
    <path d="M-518.3192947426547,-230.52013602992628L-513.3342921855503,-107.23480623976558" style="fill:none;stroke:rgb(74,87,214);stroke-width:5;stroke-linecap:round">
    </path>
    <path d="M-503.52510183102817,-103.47235721628465L-497.45852283785814,-109.23752151419511L-513.3342921855502,-107.23480623976548z" style="fill:rgb(74,87,214)">
    </path>
    <path d="M-529.1953230187023,-108.31266074619217L-523.226972764813,-102.89496874621074L-513.3342921855502,-107.23480623976548z" style="fill:rgb(74,87,214)">
    </path>
    <path d="M-503.52510183102817,-103.47235721628465L-523.226972764813,-102.89496874621074L-512.1060026956642,-76.85767541511176z" style="fill:rgb(74,87,214)">
    </path>
    <path d="M-523.226972764813,-102.89496874621074L-503.52510183102817,-103.47235721628465L-513.3342921855502,-107.23480623976548z" style="fill:rgb(74,87,214)">
    </path>
    <path d="M-530.0164552023376,-101.22383017367837L-545.8742739380855,-104.23047630537151L-546.0526575430737,-99.194207247259z" style="fill:rgb(43,180,168)">
    </path>
    <path d="M-545.8742739380855,-104.23047630537151L-561.9933551986468,-100.28532033961365L-546.0526575430737,-99.194207247259z" style="fill:rgb(43,180,168)">
    </path>
    <path d="M-744.0083122790021,-496.5210937758736L-20.38362733751045,-612.1083758546596L-684.6445262227953,-193.82151244942943z" style="fill:rgb(0,0,0); fill-opacity: 0.2">
    </path>
    <path d="M-530.0164552023376,-101.22383017367837L-536.2751245731826,-95.38308818408233L-544.7213499778219,-68.64036337985134z" style="fill:rgb(43,180,168)">
    </path>
    <path d="M-556.1267163717247,-94.79714522669359L-561.9933551986468,-100.28532033961365L-544.7213499778219,-68.64036337985134z" style="fill:rgb(43,180,168)">
    </path>
    <path d="M-551.4562784389277,-223.2086675266776L-546.0526575430737,-99.19420724725904" style="fill:none;stroke:rgb(43,180,168);stroke-width:5;stroke-linecap:round">
    </path>
    <path d="M-536.2751245731826,-95.38308818408233L-530.0164552023376,-101.22383017367837L-546.0526575430737,-99.194207247259z" style="fill:rgb(43,180,168)">
    </path>
    <path d="M-561.9933551986468,-100.28532033961365L-556.1267163717247,-94.79714522669359L-546.0526575430737,-99.194207247259z" style="fill:rgb(43,180,168)">
    </path>
    <path d="M-536.2751245731826,-95.38308818408233L-556.1267163717247,-94.79714522669359L-544.7213499778219,-68.64036337985134z" style="fill:rgb(43,180,168)">
    </path>
    <path d="M-556.1267163717247,-94.79714522669359L-536.2751245731826,-95.38308818408233L-546.0526575430737,-99.194207247259z" style="fill:rgb(43,180,168)">
    </path>
    <path d="M-690.7668484085556,389.31901556516834L-744.0083122790021,-496.5210937758736L-925.7032034546347,-548.6530417973316z" style="fill:rgb(0,0,0); fill-opacity: 0.2">
    </path>
    <path d="M-577.8098053121968,-89.46014838878968L-593.709560480235,-92.52275779307415L-594.0828403967488,-87.39070069541458z" style="fill:rgb(74,87,214)">
    </path>
    <path d="M-593.709560480235,-92.52275779307415L-610.139892161581,-88.50142307776144L-594.0828403967488,-87.39070069541458z" style="fill:rgb(74,87,214)">
    </path>
    <path d="M-577.8098053121968,-89.46014838878968L-584.3540794331105,-83.50756663983435L-592.5980541060605,-56.578010842621204z" style="fill:rgb(74,87,214)">
    </path>
    <path d="M-604.4259286834131,-82.90895235489332L-610.139892161581,-88.50142307776144L-592.5980541060605,-56.578010842621204z" style="fill:rgb(74,87,214)">
    </path>
    <path d="M-600.1102654829388,-212.47346914259046L-594.0828403967488,-87.39070069541468" style="fill:none;stroke:rgb(74,87,214);stroke-width:5;stroke-linecap:round">
    </path>
    <path d="M-584.3540794331105,-83.50756663983435L-577.8098053121968,-89.46014838878968L-594.0828403967488,-87.39070069541458z" style="fill:rgb(74,87,214)">
    </path>
    <path d="M-610.139892161581,-88.50142307776144L-604.4259286834131,-82.90895235489332L-594.0828403967488,-87.39070069541458z" style="fill:rgb(74,87,214)">
    </path>
    <path d="M-584.3540794331105,-83.50756663983435L-604.4259286834131,-82.90895235489332L-592.5980541060605,-56.578010842621204z" style="fill:rgb(74,87,214)">
    </path>
    <path d="M-594.5685054612649,-85.33522274058039L-610.4824681936657,-88.41757736379937L-610.9249591562249,-83.25171876128263z" style="fill:rgb(43,180,168)">
    </path>
    <path d="M-610.4824681936657,-88.41757736379937L-627.0226434403479,-84.36935836208829L-610.9249591562249,-83.25171876128263z" style="fill:rgb(43,180,168)">
    </path>
    <path d="M-604.4259286834131,-82.90895235489332L-584.3540794331105,-83.50756663983435L-594.0828403967488,-87.39070069541458z" style="fill:rgb(74,87,214)">
    </path>
    <path d="M-594.5685054612649,-85.33522274058039L-601.2139482260039,-79.34317214193983L-609.3857208358312,-52.34842240166198z" style="fill:rgb(43,180,168)">
    </path>
    <path d="M-621.3631644145331,-78.74008260630794L-627.0226434403479,-84.36935836208829L-609.3857208358312,-52.34842240166198z" style="fill:rgb(43,180,168)">
    </path>
    <path d="M-617.1737396737157,-208.7085201283598L-610.924959156225,-83.25171876128266" style="fill:none;stroke:rgb(43,180,168);stroke-width:5;stroke-linecap:round">
    </path>
    <path d="M-601.2139482260039,-79.34317214193983L-594.5685054612649,-85.33522274058039L-610.9249591562249,-83.25171876128263z" style="fill:rgb(43,180,168)">
    </path>
    <path d="M-627.0226434403479,-84.36935836208829L-621.3631644145331,-78.74008260630794L-610.9249591562249,-83.25171876128263z" style="fill:rgb(43,180,168)">
    </path>
    <path d="M-601.2139482260039,-79.34317214193983L-621.3631644145331,-78.74008260630794L-609.3857208358312,-52.34842240166198z" style="fill:rgb(43,180,168)">
    </path>
    <path d="M-621.3631644145331,-78.74008260630794L-601.2139482260039,-79.34317214193983L-610.9249591562249,-83.25171876128263z" style="fill:rgb(43,180,168)">
    </path>
    <path d="M-660.819237552855,-69.0285079246083L-676.7868373592718,-72.18953847367253L-677.5073611590653,-66.88896993160733z" style="fill:rgb(74,87,214)">
    </path>
    <path d="M-660.8192375528546,-69.02850792460838L-676.7868373592712,-72.18953847367258L-677.507361159065,-66.8889699316074z" style="fill:rgb(43,180,168)">
    </path>
    <path d="M-676.7868373592712,-72.18953847367258L-693.7648257051062,-68.03416442186361L-677.507361159065,-66.8889699316074z" style="fill:rgb(43,180,168)">
    </path>
    <path d="M-676.7868373592718,-72.18953847367253L-693.7648257051065,-68.03416442186354L-677.5073611590653,-66.88896993160733z" style="fill:rgb(74,87,214)">
    </path>
    <path d="M-660.8192375528546,-69.02850792460838L-667.8698154669175,-62.8791456302124L-675.7496350261812,-35.62828797949447z" style="fill:rgb(43,180,168)">
    </path>
    <path d="M-660.819237552855,-69.0285079246083L-667.8698154669178,-62.879145630212314L-675.7496350261815,-35.628287979494395z" style="fill:rgb(74,87,214)">
    </path>
    <path d="M-688.3255602859629,-62.258201449733676L-693.7648257051062,-68.03416442186361L-675.7496350261812,-35.62828797949447z" style="fill:rgb(43,180,168)">
    </path>
    <path d="M-688.3255602859631,-62.25820144973359L-693.7648257051065,-68.03416442186354L-675.7496350261815,-35.628287979494395z" style="fill:rgb(74,87,214)">
    </path>
    <path d="M-684.6445262227951,-193.82151244942952L-677.5073611590652,-66.88896993160746" style="fill:none;stroke:rgb(43,180,168);stroke-width:5;stroke-linecap:round">
    </path>
    <path d="M-684.6445262227953,-193.82151244942943L-677.5073611590656,-66.88896993160739" style="fill:none;stroke:rgb(74,87,214);stroke-width:5;stroke-linecap:round">
    </path>
    <path d="M-439.14020906609585,-247.99050678987243L-684.6445262227953,-193.82151244942943L-744.0083122790021,-496.5210937758736z" style="fill:rgb(0,0,0); fill-opacity: 0.2">
    </path>
    <path d="M-667.8698154669175,-62.8791456302124L-660.8192375528546,-69.02850792460838L-677.507361159065,-66.8889699316074z" style="fill:rgb(43,180,168)">
    </path>
    <path d="M-667.8698154669178,-62.879145630212314L-660.819237552855,-69.0285079246083L-677.5073611590653,-66.88896993160733z" style="fill:rgb(74,87,214)">
    </path>
    <path d="M-693.7648257051062,-68.03416442186361L-688.3255602859629,-62.258201449733676L-677.507361159065,-66.8889699316074z" style="fill:rgb(43,180,168)">
    </path>
    <path d="M-693.7648257051065,-68.03416442186354L-688.3255602859631,-62.25820144973359L-677.5073611590653,-66.88896993160733z" style="fill:rgb(74,87,214)">
    </path>
    <path d="M-667.8698154669178,-62.879145630212314L-688.3255602859631,-62.25820144973359L-675.7496350261815,-35.628287979494395z" style="fill:rgb(74,87,214)">
    </path>
    <path d="M-667.8698154669175,-62.8791456302124L-688.3255602859629,-62.258201449733676L-675.7496350261812,-35.62828797949447z" style="fill:rgb(43,180,168)">
    </path>
    <path d="M-688.3255602859631,-62.25820144973359L-667.8698154669178,-62.879145630212314L-677.5073611590653,-66.88896993160733z" style="fill:rgb(74,87,214)">
    </path>
    <path d="M-688.3255602859629,-62.258201449733676L-667.8698154669175,-62.8791456302124L-677.507361159065,-66.8889699316074z" style="fill:rgb(43,180,168)">
    </path>
    <path d="M-744.0083122790021,-496.5210937758736L-744.0083122790021,-496.5210937758736L-439.14020906609585,-247.99050678987243z" style="fill:rgb(0,0,0); fill-opacity: 0.2">
    </path>
    <path d="M-684.6445262227953,-193.82151244942943L-744.0083122790021,-496.5210937758736" style="fill:none;stroke:rgb(0,0,0);stroke-width:1;stroke-linecap:round">
    </path>
    <path d="M-684.6445262227953,-193.82151244942943L-744.0083122790021,-496.5210937758736" style="fill:none;stroke:rgb(0,0,0);stroke-width:1;stroke-linecap:round">
    </path>
    <path d="M-744.0083122790021,-496.5210937758736L-744.0083122790021,-496.5210937758736" style="fill:none;stroke:rgb(0,0,0);stroke-width:1;stroke-linecap:round">
    </path>
</svg>