<svg viewBox="-1163.5 -664 2327 1328" width="2327" height="1328" style="background-color: rgb(255, 255, 255);">
    <path d="M-206.08193300170979,93.44549521471308L-214.64785139447844,-651.4793756482011" style="fill:none;stroke:rgb(0,0,0);stroke-width:1;stroke-linecap:round">
    </path>
    <path d="M-25.097551727696384,166.97106285948115L-206.08193300170979,93.44549521471308" style="fill:none;stroke:rgb(160,0,0);stroke-width:4;stroke-linecap:round">
    </path>
    <path d="M-25.097551727696384,166.97106285948115L-20.38362733751045,-612.1083758546596" style="fill:none;stroke:rgb(0,0,0);stroke-width:1;stroke-linecap:round">
    </path>
    <path d="M-230.890768979951,281.0948705879029L-25.097551727696384,166.97106285948115" style="fill:none;stroke:rgb(160,0,0);stroke-width:4;stroke-linecap:round">
    </path>
    <path d="M-20.38362733751045,-612.1083758546596L-25.097551727696384,166.97106285948115L-206.08193300170979,93.44549521471308z" style="fill:rgb(0,0,0); fill-opacity: 0.2">
    </path>
    <path d="M-214.64785139447844,-651.4793756482011L-206.08193300170979,93.44549521471308L-20.38362733751045,-612.1083758546596z" style="fill:rgb(0,0,0); fill-opacity: 0.2">
    </path>
    <path d="M83.40293953410904,194.57134004932053L86.7836832930976,210.32464769853843L92.83538770269598,202.35222112085083z" style="fill:rgb(197,147,42)">
    </path>
    <path d="M-20.38362733751045,-612.1083758546596L-214.64785139447844,-651.4793756482011" style="fill:none;stroke:rgb(0,0,0);stroke-width:1;stroke-linecap:round">
    </path>
    <path d="M-214.64785139447844,-651.4793756482011L-925.7032034546347,-548.6530417973316" style="fill:none;stroke:rgb(0,0,0);stroke-width:1;stroke-linecap:round">
    </path>
    <path d="M-20.38362733751045,-612.1083758546596L-214.64785139447844,-651.4793756482011" style="fill:none;stroke:rgb(0,0,0);stroke-width:1;stroke-linecap:round">
    </path>
    <path d="M86.7836832930976,210.32464769853843L98.54012320077823,215.09448790559392L92.83538770269598,202.35222112085083z" style="fill:rgb(197,147,42)">
    </path>
    <path d="M102.45318929424371,202.23089839967466L98.54012320077823,215.09448790559392L113.33642099708318,195.1518577436533z" style="fill:rgb(197,147,42)">
    </path>
    <path d="M93.0611521411164,189.52519286785719L83.40293953410904,194.57134004932053L92.83538770269598,202.35222112085083z" style="fill:rgb(197,147,42)">
    </path>
    <path d="M93.0611521411164,189.52519286785719L102.45318929424371,202.23089839967466L113.33642099708318,195.1518577436533z" style="fill:rgb(197,147,42)">
    </path>
    <path d="M8.851224730410154,231.8490997730989L92.83538770269598,202.35222112085083" style="fill:none;stroke:rgb(197,147,42);stroke-width:5;stroke-linecap:round">
    </path>
    <path d="M98.54012320077823,215.09448790559392L102.45318929424371,202.23089839967466L92.83538770269598,202.35222112085083z" style="fill:rgb(197,147,42)">
    </path>
    <path d="M102.45318929424371,202.23089839967466L93.0611521411164,189.52519286785719L92.83538770269598,202.35222112085083z" style="fill:rgb(197,147,42)">
    </path>
    <path d="M84.547835129256,125.87439755568285L87.95070400000799,141.76644027314578L94.04604325121079,133.56763735691985z" style="fill:rgb(197,147,42)">
    </path>
    <path d="M87.95070400000799,141.76644027314578L99.78973930051059,146.3626001212271L94.04604325121079,133.56763735691985z" style="fill:rgb(197,147,42)">
    </path>
    <path d="M103.73212084899237,133.25120883512272L99.78973930051059,146.3626001212271L114.67853212414781,126.64559266031652z" style="fill:rgb(197,147,42)">
    </path>
    <path d="M94.27485607836381,120.56741190478911L84.547835129256,125.87439755568285L94.04604325121079,133.56763735691985z" style="fill:rgb(197,147,42)">
    </path>
    <path d="M94.27485607836381,120.56741190478911L103.73212084899237,133.25120883512272L114.67853212414781,126.64559266031652z" style="fill:rgb(197,147,42)">
    </path>
    <path d="M9.509701274200168,161.92894370516913L94.04604325121083,133.56763735691985" style="fill:none;stroke:rgb(197,147,42);stroke-width:5;stroke-linecap:round">
    </path>
    <path d="M99.78973930051059,146.3626001212271L103.73212084899237,133.25120883512272L94.04604325121079,133.56763735691985z" style="fill:rgb(197,147,42)">
    </path>
    <path d="M103.73212084899237,133.25120883512272L94.27485607836381,120.56741190478911L94.04604325121079,133.56763735691985z" style="fill:rgb(197,147,42)">
    </path>
    <path d="M85.70820065344286,56.24921598929773L89.1334859501232,72.28231733098306L95.27309083732115,63.851723881222824z" style="fill:rgb(197,147,42)">
    </path>
    <path d="M91.02703683122525,102.22331555214079L75.93999135735142,99.19190895651607L77.95523030323727,104.29803622863253z" style="fill:rgb(43,180,168)">
    </path>
    <path d="M91.02703683122525,102.2233155521408L75.93999135735142,99.19190895651607L77.95523030323723,104.29803622863254z" style="fill:rgb(74,87,214)">
    </path>
    <path d="M75.93999135735142,99.19190895651607L63.62367929906068,103.20979699308063L77.95523030323727,104.29803622863253z" style="fill:rgb(43,180,168)">
    </path>
    <path d="M75.93999135735142,99.19190895651607L63.62367929906062,103.20979699308066L77.95523030323723,104.29803622863254z" style="fill:rgb(74,87,214)">
    </path>
    <path d="M89.1334859501232,72.28231733098306L101.05628313548668,76.69964622826225L95.27309083732115,63.851723881222824z" style="fill:rgb(197,147,42)">
    </path>
    <path d="M105.02841812889463,63.33489187584571L101.05628313548668,76.69964622826225L116.03872833175872,57.21619886061056z" style="fill:rgb(197,147,42)">
    </path>
    <path d="M95.50501421403372,50.67476950153062L85.70820065344286,56.24921598929773L95.27309083732115,63.851723881222824z" style="fill:rgb(197,147,42)">
    </path>
    <path d="M95.50501421403372,50.67476950153062L105.02841812889463,63.33489187584571L116.03872833175872,57.21619886061056z" style="fill:rgb(197,147,42)">
    </path>
    <path d="M91.02703683122525,102.22331555214079L88.09442517062766,108.1477270569666L77.53680868610239,130.4613316092212z" style="fill:rgb(43,180,168)">
    </path>
    <path d="M91.02703683122525,102.2233155521408L88.0944251706276,108.14772705696663L77.53680868610232,130.46133160922122z" style="fill:rgb(74,87,214)">
    </path>
    <path d="M10.17726805615034,91.04354312420529L95.27309083732112,63.85172388122282" style="fill:none;stroke:rgb(197,147,42);stroke-width:5;stroke-linecap:round">
    </path>
    <path d="M71.09307924869135,108.7627181741906L63.62367929906068,103.20979699308063L77.53680868610239,130.4613316092212z" style="fill:rgb(43,180,168)">
    </path>
    <path d="M71.0930792486913,108.7627181741906L63.62367929906062,103.20979699308066L77.53680868610232,130.46133160922122z" style="fill:rgb(74,87,214)">
    </path>
    <path d="M79.65038967535438,-1.6978147351975628L77.9552303032372,104.29803622863247" style="fill:none;stroke:rgb(43,180,168);stroke-width:5;stroke-linecap:round">
    </path>
    <path d="M79.65038967535432,-1.6978147351975448L77.95523030323716,104.29803622863248" style="fill:none;stroke:rgb(74,87,214);stroke-width:5;stroke-linecap:round">
    </path>
    <path d="M88.09442517062766,108.1477270569666L91.02703683122525,102.22331555214079L77.95523030323727,104.29803622863253z" style="fill:rgb(43,180,168)">
    </path>
    <path d="M88.0944251706276,108.14772705696663L91.02703683122525,102.2233155521408L77.95523030323723,104.29803622863254z" style="fill:rgb(74,87,214)">
    </path>
    <path d="M101.05628313548668,76.69964622826225L105.02841812889463,63.33489187584571L95.27309083732115,63.851723881222824z" style="fill:rgb(197,147,42)">
    </path>
    <path d="M63.62367929906068,103.20979699308063L71.09307924869135,108.7627181741906L77.95523030323727,104.29803622863253z" style="fill:rgb(43,180,168)">
    </path>
    <path d="M63.62367929906062,103.20979699308066L71.0930792486913,108.7627181741906L77.95523030323723,104.29803622863254z" style="fill:rgb(74,87,214)">
    </path>
    <path d="M105.02841812889463,63.33489187584571L95.50501421403372,50.67476950153062L95.27309083732115,63.851723881222824z" style="fill:rgb(197,147,42)">
    </path>
    <path d="M88.09442517062766,108.1477270569666L71.09307924869135,108.7627181741906L77.53680868610239,130.4613316092212z" style="fill:rgb(43,180,168)">
    </path>
    <path d="M88.0944251706276,108.14772705696663L71.0930792486913,108.7627181741906L77.53680868610232,130.46133160922122z" style="fill:rgb(74,87,214)">
    </path>
    <path d="M71.09307924869135,108.7627181741906L88.09442517062766,108.1477270569666L77.95523030323727,104.29803622863253z" style="fill:rgb(43,180,168)">
    </path>
    <path d="M71.0930792486913,108.7627181741906L88.0944251706276,108.14772705696663L77.95523030323723,104.29803622863254z" style="fill:rgb(74,87,214)">
    </path>
    <path d="M86.88435178595624,-14.323146291236293L90.33235061035286,1.8533938643208547L96.51686564764633,-6.814563263153218z" style="fill:rgb(197,147,42)">
    </path>
    <path d="M10.854114620056954,19.1727713727903L8.851224730410154,231.8490997730989" style="fill:none;stroke:rgb(104,70,1);stroke-width:5;stroke-linecap:round">
    </path>
    <path d="M8.851224730410154,231.8490997730989L-230.890768979951,281.0948705879029" style="fill:none;stroke:rgb(160,0,0);stroke-width:4;stroke-linecap:round">
    </path>
    <path d="M90.33235061035286,1.8533938643208547L102.34010101482126,6.086578393355816L96.51686564764633,-6.814563263153218z" style="fill:rgb(197,147,42)">
    </path>
    <path d="M106.3424372473776,-7.537259599574823L102.34010101482126,6.086578393355816L117.41737764689688,-13.155109099839507z" style="fill:rgb(197,147,42)">
    </path>
    <path d="M96.7519634363647,-20.171874977991603L86.88435178595624,-14.323146291236293L96.51686564764633,-6.814563263153218z" style="fill:rgb(197,147,42)">
    </path>
    <path d="M96.7519634363647,-20.171874977991603L106.3424372473776,-7.537259599574823L117.41737764689688,-13.155109099839507z" style="fill:rgb(197,147,42)">
    </path>
    <path d="M10.854114620056954,19.1727713727903L96.51686564764633,-6.814563263153227" style="fill:none;stroke:rgb(197,147,42);stroke-width:5;stroke-linecap:round">
    </path>
    <path d="M102.34010101482126,6.086578393355816L106.3424372473776,-7.537259599574823L96.51686564764633,-6.814563263153218z" style="fill:rgb(197,147,42)">
    </path>
    <path d="M106.3424372473776,-7.537259599574823L96.7519634363647,-20.171874977991603L96.51686564764633,-6.814563263153218z" style="fill:rgb(197,147,42)">
    </path>
    <path d="M41.79288848972956,118.37474546392451L26.634707657563386,115.27652167006347L28.4987007479107,120.49732598426556z" style="fill:rgb(74,87,214)">
    </path>
    <path d="M26.634707657563386,115.27652167006347L14.03816398713901,119.38582824462303L28.4987007479107,120.49732598426556z" style="fill:rgb(74,87,214)">
    </path>
    <path d="M40.369815752392036,118.84158931825613L25.209611909362206,115.74142343047333L27.069175455156177,120.96556131413095z" style="fill:rgb(43,180,168)">
    </path>
    <path d="M25.209611909362206,115.74142343047333L12.604921555419727,119.85338765629166L27.069175455156177,120.96556131413095z" style="fill:rgb(43,180,168)">
    </path>
    <path d="M79.65038967535432,-1.6978147351975448L-190.03518421195153,80.11614957279782" style="fill:none;stroke:rgb(1,93,85);stroke-width:5;stroke-linecap:round">
    </path>
    <path d="M79.65038967535432,-1.6978147351975448L37.97932207870005,-255.97591446250857" style="fill:none;stroke:rgb(0,0,0);stroke-width:1;stroke-linecap:round">
    </path>
    <path d="M-606.1638510811799,206.35625729542772L79.65038967535432,-1.6978147351975448" style="fill:none;stroke:rgb(22,31,115);stroke-width:5;stroke-linecap:round">
    </path>
    <path d="M79.65038967535432,-1.6978147351975448L37.97932207870005,-255.97591446250857" style="fill:none;stroke:rgb(0,0,0);stroke-width:1;stroke-linecap:round">
    </path>
    <path d="M41.79288848972956,118.37474546392451L38.62423815841626,124.43299127471178L28.202259734114623,146.91495049560356z" style="fill:rgb(74,87,214)">
    </path>
    <path d="M40.369815752392036,118.84158931825613L37.194275119863924,124.90372581830037L26.776302388671397,147.39052307523727z" style="fill:rgb(43,180,168)">
    </path>
    <path d="M21.40404770602636,125.06337406812746L14.03816398713901,119.38582824462303L28.202259734114623,146.91495049560356z" style="fill:rgb(74,87,214)">
    </path>
    <path d="M29.699852054412844,13.455578318717102L28.498700747910643,120.4973259842655" style="fill:none;stroke:rgb(74,87,214);stroke-width:5;stroke-linecap:round">
    </path>
    <path d="M19.96775028115517,125.53455632620931L12.604921555419727,119.85338765629166L26.776302388671397,147.39052307523727z" style="fill:rgb(43,180,168)">
    </path>
    <path d="M28.255874748893483,13.893634778439658L27.06917545515613,120.96556131413092" style="fill:none;stroke:rgb(43,180,168);stroke-width:5;stroke-linecap:round">
    </path>
    <path d="M38.62423815841626,124.43299127471178L41.79288848972956,118.37474546392451L28.4987007479107,120.49732598426556z" style="fill:rgb(74,87,214)">
    </path>
    <path d="M37.194275119863924,124.90372581830037L40.369815752392036,118.84158931825613L27.069175455156177,120.96556131413095z" style="fill:rgb(43,180,168)">
    </path>
    <path d="M14.03816398713901,119.38582824462303L21.40404770602636,125.06337406812746L28.4987007479107,120.49732598426556z" style="fill:rgb(74,87,214)">
    </path>
    <path d="M38.62423815841626,124.43299127471178L21.40404770602636,125.06337406812746L28.202259734114623,146.91495049560356z" style="fill:rgb(74,87,214)">
    </path>
    <path d="M12.604921555419727,119.85338765629166L19.96775028115517,125.53455632620931L27.069175455156177,120.96556131413095z" style="fill:rgb(43,180,168)">
    </path>
    <path d="M37.194275119863924,124.90372581830037L19.96775028115517,125.53455632620931L26.776302388671397,147.39052307523727z" style="fill:rgb(43,180,168)">
    </path>
    <path d="M21.40404770602636,125.06337406812746L38.62423815841626,124.43299127471178L28.4987007479107,120.49732598426556z" style="fill:rgb(74,87,214)">
    </path>
    <path d="M19.96775028115517,125.53455632620931L37.194275119863924,124.90372581830037L27.069175455156177,120.96556131413095z" style="fill:rgb(43,180,168)">
    </path>
    <path d="M23.220844144217473,124.4673678138527L8.036407902167253,121.34375070209713L9.842336661151327,126.60814391559472z" style="fill:rgb(109,213,75)">
    </path>
    <path d="M8.036407902167253,121.34375070209713L-4.666662239782336,125.48780886735143L9.842336661151327,126.60814391559472z" style="fill:rgb(109,213,75)">
    </path>
    <path d="M23.220844144217473,124.4673678138527L19.961971258392726,130.57648831251242L9.592646162421737,153.12146288572342z" style="fill:rgb(109,213,75)">
    </path>
    <path d="M2.659073689217796,131.2127265852201L-4.666662239782336,125.48780886735143L9.592646162421737,153.12146288572342z" style="fill:rgb(109,213,75)">
    </path>
    <path d="M10.854114620056954,19.1727713727903L9.842336661151277,126.60814391559471" style="fill:none;stroke:rgb(109,213,75);stroke-width:5;stroke-linecap:round">
    </path>
    <path d="M19.961971258392726,130.57648831251242L23.220844144217473,124.4673678138527L9.842336661151327,126.60814391559472z" style="fill:rgb(109,213,75)">
    </path>
    <path d="M-4.666662239782336,125.48780886735143L2.659073689217796,131.2127265852201L9.842336661151327,126.60814391559472z" style="fill:rgb(109,213,75)">
    </path>
    <path d="M19.961971258392726,130.57648831251242L2.659073689217796,131.2127265852201L9.592646162421737,153.12146288572342z" style="fill:rgb(109,213,75)">
    </path>
    <path d="M2.659073689217796,131.2127265852201L19.961971258392726,130.57648831251242L9.842336661151327,126.60814391559472z" style="fill:rgb(109,213,75)">
    </path>
    <path d="M-8.568599333032825,134.89600292897816L-23.79724148475586,131.72868073850447L-22.0919864172859,137.06810455878727z" style="fill:rgb(74,87,214)">
    </path>
    <path d="M-23.79724148475586,131.72868073850447L-36.6836908408167,135.93256177500828L-22.0919864172859,137.06810455878727z" style="fill:rgb(74,87,214)">
    </path>
    <path d="M37.97932207870005,-255.97591446250857L-20.38362733751045,-612.1083758546596" style="fill:none;stroke:rgb(0,0,0);stroke-width:1;stroke-linecap:round">
    </path>
    <path d="M37.97932207870005,-255.97591446250857L-20.38362733751045,-612.1083758546596" style="fill:none;stroke:rgb(0,0,0);stroke-width:1;stroke-linecap:round">
    </path>
    <path d="M-11.48125135814853,135.85150833784135L-26.713897395514255,132.68016660823147L-25.017947567699892,138.0264915082043z" style="fill:rgb(43,180,168)">
    </path>
    <path d="M-26.713897395514255,132.68016660823147L-39.61721419098215,136.8895502239717L-25.017947567699892,138.0264915082043z" style="fill:rgb(43,180,168)">
    </path>
    <path d="M-8.568599333032825,134.89600292897816L-11.983410394358385,141.0927004429284L-22.26071772791411,163.74491279728326z" style="fill:rgb(74,87,214)">
    </path>
    <path d="M-29.42807319566121,141.7390243163304L-36.6836908408167,135.93256177500828L-22.26071772791411,163.74491279728326z" style="fill:rgb(74,87,214)">
    </path>
    <path d="M-21.408201423824057,28.960124605152384L-22.09198641728595,137.06810455878724" style="fill:none;stroke:rgb(74,87,214);stroke-width:5;stroke-linecap:round">
    </path>
    <path d="M10.854114620056954,19.1727713727903L8.851224730410154,231.8490997730989L-230.890768979951,281.0948705879029z" style="fill:rgb(0,0,0); fill-opacity: 0.2">
    </path>
    <path d="M-11.48125135814853,135.85150833784135L-14.910445053664274,142.0562612394446L-25.179201968425975,164.71825963918968z" style="fill:rgb(43,180,168)">
    </path>
    <path d="M-11.983410394358385,141.0927004429284L-8.568599333032825,134.89600292897816L-22.0919864172859,137.06810455878727z" style="fill:rgb(74,87,214)">
    </path>
    <path d="M-32.36810927861708,142.7035131585585L-39.61721419098215,136.8895502239717L-25.179201968425975,164.71825963918968z" style="fill:rgb(43,180,168)">
    </path>
    <path d="M-24.364457202001102,29.856957910823194L-25.01794756769993,138.02649150820423" style="fill:none;stroke:rgb(43,180,168);stroke-width:5;stroke-linecap:round">
    </path>
    <path d="M-36.6836908408167,135.93256177500828L-29.42807319566121,141.7390243163304L-22.0919864172859,137.06810455878727z" style="fill:rgb(74,87,214)">
    </path>
    <path d="M-14.910445053664274,142.0562612394446L-11.48125135814853,135.85150833784135L-25.017947567699892,138.0264915082043z" style="fill:rgb(43,180,168)">
    </path>
    <path d="M-11.983410394358385,141.0927004429284L-29.42807319566121,141.7390243163304L-22.26071772791411,163.74491279728326z" style="fill:rgb(74,87,214)">
    </path>
    <path d="M-39.61721419098215,136.8895502239717L-32.36810927861708,142.7035131585585L-25.017947567699892,138.0264915082043z" style="fill:rgb(43,180,168)">
    </path>
    <path d="M-14.910445053664274,142.0562612394446L-32.36810927861708,142.7035131585585L-25.179201968425975,164.71825963918968z" style="fill:rgb(43,180,168)">
    </path>
    <path d="M-29.42807319566121,141.7390243163304L-11.983410394358385,141.0927004429284L-22.0919864172859,137.06810455878727z" style="fill:rgb(74,87,214)">
    </path>
    <path d="M-32.36810927861708,142.7035131585585L-14.910445053664274,142.0562612394446L-25.017947567699892,138.0264915082043z" style="fill:rgb(43,180,168)">
    </path>
    <path d="M10.854114620056954,19.1727713727903L-237.5466477388341,-189.09439915117653" style="fill:none;stroke:rgb(0,0,0);stroke-width:1;stroke-linecap:round">
    </path>
    <path d="M-190.03518421195153,80.11614957279782L10.854114620056954,19.1727713727903" style="fill:none;stroke:rgb(45,114,23);stroke-width:5;stroke-linecap:round">
    </path>
    <path d="M10.854114620056954,19.1727713727903L-237.5466477388341,-189.09439915117653" style="fill:none;stroke:rgb(0,0,0);stroke-width:1;stroke-linecap:round">
    </path>
    <path d="M-40.818895883717836,145.4758224631695L-56.09143663889889,142.26385228549108L-54.489973693094605,147.67993656760262z" style="fill:rgb(109,213,75)">
    </path>
    <path d="M-56.09143663889889,142.26385228549108L-69.1652649074087,146.5288609945539L-54.489973693094605,147.67993656760262z" style="fill:rgb(109,213,75)">
    </path>
    <path d="M-237.5466477388341,-189.09439915117653L-230.890768979951,281.0948705879029L-25.097551727696384,166.97106285948115z" style="fill:rgb(0,0,0); fill-opacity: 0.2">
    </path>
    <path d="M-20.38362733751045,-612.1083758546596L-25.097551727696384,166.97106285948115L-237.5466477388341,-189.09439915117653z" style="fill:rgb(0,0,0); fill-opacity: 0.2">
    </path>
    <path d="M-40.818895883717836,145.4758224631695L-44.39384845892949,151.7620061232186L-54.575363180181995,174.52220522246844z" style="fill:rgb(109,213,75)">
    </path>
    <path d="M-61.98258572763671,152.41864293845913L-69.1652649074087,146.5288609945539L-54.575363180181995,174.52220522246844z" style="fill:rgb(109,213,75)">
    </path>
    <path d="M-54.14389921590367,38.89108669613054L-54.48997369309465,147.6799365676026" style="fill:none;stroke:rgb(109,213,75);stroke-width:5;stroke-linecap:round">
    </path>
    <path d="M-44.39384845892949,151.7620061232186L-40.818895883717836,145.4758224631695L-54.489973693094605,147.67993656760262z" style="fill:rgb(109,213,75)">
    </path>
    <path d="M-69.1652649074087,146.5288609945539L-61.98258572763671,152.41864293845913L-54.489973693094605,147.67993656760262z" style="fill:rgb(109,213,75)">
    </path>
    <path d="M-44.39384845892949,151.7620061232186L-61.98258572763671,152.41864293845913L-54.575363180181995,174.52220522246844z" style="fill:rgb(109,213,75)">
    </path>
    <path d="M-20.38362733751045,-612.1083758546596L-20.38362733751045,-612.1083758546596L37.97932207870005,-255.97591446250857z" style="fill:rgb(0,0,0); fill-opacity: 0.2">
    </path>
    <path d="M-61.98258572763671,152.41864293845913L-44.39384845892949,151.7620061232186L-54.489973693094605,147.67993656760262z" style="fill:rgb(109,213,75)">
    </path>
    <path d="M-60.09659496895094,151.79993725187146L-75.39492021231857,148.5611298590529L-73.85629717522669,154.0232988780822z" style="fill:rgb(74,87,214)">
    </path>
    <path d="M-75.39492021231857,148.5611298590529L-88.58139979380168,152.8628882347819L-73.85629717522669,154.0232988780822z" style="fill:rgb(74,87,214)">
    </path>
    <path d="M-64.56887104837668,153.26708263929578L-79.87312933230534,150.02203331483352L-78.3491699820301,155.49492151491106z" style="fill:rgb(43,180,168)">
    </path>
    <path d="M-60.09659496895094,151.79993725187146L-63.768206997742006,158.1399191029291L-73.89128739170913,180.96428003953048z" style="fill:rgb(74,87,214)">
    </path>
    <path d="M-79.87312933230534,150.02203331483352L-93.0858121173985,154.3323398288206L-78.3491699820301,155.49492151491106z" style="fill:rgb(43,180,168)">
    </path>
    <path d="M-81.44318736940191,158.80275953326577L-88.58139979380168,152.8628882347819L-73.89128739170913,180.96428003953048z" style="fill:rgb(74,87,214)">
    </path>
    <path d="M-73.7144775042289,44.82817324654775L-73.85629717522673,154.02329887808216" style="fill:none;stroke:rgb(74,87,214);stroke-width:5;stroke-linecap:round">
    </path>
    <path d="M-63.768206997742006,158.1399191029291L-60.09659496895094,151.79993725187146L-73.85629717522669,154.0232988780822z" style="fill:rgb(74,87,214)">
    </path>
    <path d="M-64.56887104837668,153.26708263929578L-68.26300724174487,159.6195781460919L-78.37240578330334,182.45878269064025z" style="fill:rgb(43,180,168)">
    </path>
    <path d="M-88.58139979380168,152.8628882347819L-81.44318736940191,158.80275953326577L-73.85629717522669,154.0232988780822z" style="fill:rgb(74,87,214)">
    </path>
    <path d="M-85.95800841126336,160.28386194040158L-93.0858121173985,154.3323398288206L-78.37240578330334,182.45878269064025z" style="fill:rgb(43,180,168)">
    </path>
    <path d="M-78.25499116680173,46.2056196459793L-78.34916998203016,155.49492151491103" style="fill:none;stroke:rgb(43,180,168);stroke-width:5;stroke-linecap:round">
    </path>
    <path d="M-63.768206997742006,158.1399191029291L-81.44318736940191,158.80275953326577L-73.89128739170913,180.96428003953048z" style="fill:rgb(74,87,214)">
    </path>
    <path d="M-68.26300724174487,159.6195781460919L-64.56887104837668,153.26708263929578L-78.3491699820301,155.49492151491106z" style="fill:rgb(43,180,168)">
    </path>
    <path d="M-93.0858121173985,154.3323398288206L-85.95800841126336,160.28386194040158L-78.3491699820301,155.49492151491106z" style="fill:rgb(43,180,168)">
    </path>
    <path d="M-81.44318736940191,158.80275953326577L-63.768206997742006,158.1399191029291L-73.85629717522669,154.0232988780822z" style="fill:rgb(74,87,214)">
    </path>
    <path d="M-68.26300724174487,159.6195781460919L-85.95800841126336,160.28386194040158L-78.37240578330334,182.45878269064025z" style="fill:rgb(43,180,168)">
    </path>
    <path d="M-230.890768979951,281.0948705879029L-237.5466477388341,-189.09439915117653" style="fill:none;stroke:rgb(0,0,0);stroke-width:1;stroke-linecap:round">
    </path>
    <path d="M-237.5466477388341,-189.09439915117653L-20.38362733751045,-612.1083758546596" style="fill:none;stroke:rgb(0,0,0);stroke-width:1;stroke-linecap:round">
    </path>
    <path d="M-20.38362733751045,-612.1083758546596L-20.38362733751045,-612.1083758546596" style="fill:none;stroke:rgb(0,0,0);stroke-width:1;stroke-linecap:round">
    </path>
    <path d="M-237.5466477388341,-189.09439915117653L-20.38362733751045,-612.1083758546596" style="fill:none;stroke:rgb(0,0,0);stroke-width:1;stroke-linecap:round">
    </path>
    <path d="M-20.38362733751045,-612.1083758546596L-744.0083122790021,-496.5210937758736" style="fill:none;stroke:rgb(0,0,0);stroke-width:1;stroke-linecap:round">
    </path>
    <path d="M-85.95800841126336,160.28386194040158L-68.26300724174487,159.6195781460919L-78.3491699820301,155.49492151491106z" style="fill:rgb(43,180,168)">
    </path>
    <path d="M37.97932207870005,-255.97591446250857L-237.5466477388341,-189.09439915117653L79.65038967535432,-1.6978147351975448z" style="fill:rgb(0,0,0); fill-opacity: 0.2">
    </path>
    <path d="M-106.74272393689888,167.10235860089372L-122.1020281164695,163.7981528560703L-120.71792844157977,169.37264000918725z" style="fill:rgb(109,213,75)">
    </path>
    <path d="M-122.1020281164695,163.7981528560703L-135.5630863005724,168.18948561716246L-120.71792844157977,169.37264000918725z" style="fill:rgb(109,213,75)">
    </path>
    <path d="M-106.74272393689888,167.10235860089372L-110.65111527811061,173.57346796850453L-120.62916775395107,196.55188117045523z" style="fill:rgb(109,213,75)">
    </path>
    <path d="M-112.832102498657,169.09999996079637L-128.19921971150166,165.7872087561139L-126.83555009354124,171.37644267481093z" style="fill:rgb(74,87,214)">
    </path>
    <path d="M-128.19921971150166,165.7872087561139L-141.69633105255633,170.19030295580163L-126.83555009354124,171.37644267481093z" style="fill:rgb(74,87,214)">
    </path>
    <path d="M-128.5351559604488,174.25144008787913L-135.5630863005724,168.18948561716246L-120.62916775395107,196.55188117045523z" style="fill:rgb(109,213,75)">
    </path>
    <path d="M-121.07773594752415,59.19666867600429L-120.71792844157982,169.37264000918722" style="fill:none;stroke:rgb(109,213,75);stroke-width:5;stroke-linecap:round">
    </path>
    <path d="M-110.65111527811061,173.57346796850453L-106.74272393689888,167.10235860089372L-120.71792844157977,169.37264000918725z" style="fill:rgb(109,213,75)">
    </path>
    <path d="M-112.832102498657,169.09999996079637L-116.7717061250873,175.5883267174137L-126.73044646830392,198.58672524662703z" style="fill:rgb(74,87,214)">
    </path>
    <path d="M-135.5630863005724,168.18948561716246L-128.5351559604488,174.25144008787913L-120.71792844157977,169.37264000918725z" style="fill:rgb(109,213,75)">
    </path>
    <path d="M-118.93781139332329,171.10299854198325L-134.31272841334686,167.7815877031821L-132.96960344888362,173.38562747959068z" style="fill:rgb(43,180,168)">
    </path>
    <path d="M-110.65111527811061,173.57346796850453L-128.5351559604488,174.25144008787913L-120.62916775395107,196.55188117045523z" style="fill:rgb(109,213,75)">
    </path>
    <path d="M-134.31272841334686,167.7815877031821L-147.84603794904825,172.1964906563772L-132.96960344888362,173.38562747959068z" style="fill:rgb(43,180,168)">
    </path>
    <path d="M-134.68307792703536,176.26828681096436L-141.69633105255633,170.19030295580163L-126.73044646830392,198.58672524662703z" style="fill:rgb(74,87,214)">
    </path>
    <path d="M-127.26161430222614,61.07265928130076L-126.8355500935413,171.3764426748109" style="fill:none;stroke:rgb(74,87,214);stroke-width:5;stroke-linecap:round">
    </path>
    <path d="M-116.7717061250873,175.5883267174137L-112.832102498657,169.09999996079637L-126.83555009354124,171.37644267481093z" style="fill:rgb(74,87,214)">
    </path>
    <path d="M-128.5351559604488,174.25144008787913L-110.65111527811061,173.57346796850453L-120.71792844157977,169.37264000918725z" style="fill:rgb(109,213,75)">
    </path>
    <path d="M-118.93781139332329,171.10299854198325L-122.90878106912636,177.608611923999L-132.84806947009994,200.62702032381677z" style="fill:rgb(43,180,168)">
    </path>
    <path d="M-141.69633105255633,170.19030295580163L-134.68307792703536,176.26828681096436L-126.83555009354124,171.37644267481093z" style="fill:rgb(74,87,214)">
    </path>
    <path d="M-116.7717061250873,175.5883267174137L-134.68307792703536,176.26828681096436L-126.73044646830392,198.58672524662703z" style="fill:rgb(74,87,214)">
    </path>
    <path d="M37.97932207870005,-255.97591446250857L-237.5466477388341,-189.09439915117653L-20.38362733751045,-612.1083758546596z" style="fill:rgb(0,0,0); fill-opacity: 0.2">
    </path>
    <path d="M-140.84756645161784,178.29056824977766L-147.84603794904825,172.1964906563772L-132.84806947009994,200.62702032381677z" style="fill:rgb(43,180,168)">
    </path>
    <path d="M-133.46228113190523,62.953742972121844L-132.96960344888367,173.38562747959062" style="fill:none;stroke:rgb(43,180,168);stroke-width:5;stroke-linecap:round">
    </path>
    <path d="M-925.7032034546347,-548.6530417973316L-861.396726916527,293.44027962255694" style="fill:none;stroke:rgb(0,0,0);stroke-width:1;stroke-linecap:round">
    </path>
    <path d="M-690.7668484085556,389.31901556516834L-861.396726916527,293.44027962255694" style="fill:none;stroke:rgb(160,0,0);stroke-width:4;stroke-linecap:round">
    </path>
    <path d="M-122.90878106912636,177.608611923999L-118.93781139332329,171.10299854198325L-132.96960344888362,173.38562747959068z" style="fill:rgb(43,180,168)">
    </path>
    <path d="M-134.68307792703536,176.26828681096436L-116.7717061250873,175.5883267174137L-126.83555009354124,171.37644267481093z" style="fill:rgb(74,87,214)">
    </path>
    <path d="M-147.84603794904825,172.1964906563772L-140.84756645161784,178.29056824977766L-132.96960344888362,173.38562747959068z" style="fill:rgb(43,180,168)">
    </path>
    <path d="M-122.90878106912636,177.608611923999L-140.84756645161784,178.29056824977766L-132.84806947009994,200.62702032381677z" style="fill:rgb(43,180,168)">
    </path>
    <path d="M-237.5466477388341,-189.09439915117653L-230.890768979951,281.0948705879029L10.854114620056954,19.1727713727903z" style="fill:rgb(0,0,0); fill-opacity: 0.2">
    </path>
    <path d="M-140.84756645161784,178.29056824977766L-122.90878106912636,177.608611923999L-132.96960344888362,173.38562747959068z" style="fill:rgb(43,180,168)">
    </path>
    <path d="M79.65038967535432,-1.6978147351975448L-190.03518421195153,80.11614957279782L-237.5466477388341,-189.09439915117653z" style="fill:rgb(0,0,0); fill-opacity: 0.2">
    </path>
    <path d="M-166.81807057438056,186.81028050727517L-182.252966290401,183.4208884390395L-181.07302631886662,189.1417125165901z" style="fill:rgb(74,87,214)">
    </path>
    <path d="M-182.252966290401,183.4208884390395L-196.07181634463726,187.9289418278476L-181.07302631886662,189.1417125165901z" style="fill:rgb(74,87,214)">
    </path>
    <path d="M-325.9218632565549,313.76054732580496L-690.7668484085556,389.31901556516834" style="fill:none;stroke:rgb(160,0,0);stroke-width:4;stroke-linecap:round">
    </path>
    <path d="M-337.2153862595413,-164.9006860654433L-325.9218632565549,313.76054732580496" style="fill:none;stroke:rgb(0,0,0);stroke-width:1;stroke-linecap:round">
    </path>
    <path d="M-507.25811248506665,413.11678111155317L-325.9218632565549,313.76054732580496" style="fill:none;stroke:rgb(160,0,0);stroke-width:4;stroke-linecap:round">
    </path>
    <path d="M-166.81807057438056,186.81028050727517L-171.03744142320477,193.45225428012785L-180.8211342581848,216.62656915121264z" style="fill:rgb(74,87,214)">
    </path>
    <path d="M-174.63502790690612,189.37465996203827L-190.0795159370568,185.97410404806664L-188.9265673418353,191.71410867504878z" style="fill:rgb(109,213,75)">
    </path>
    <path d="M-174.63502790690612,189.37465996203827L-190.0795159370568,185.97410404806664L-188.9265673418353,191.71410867504878z" style="fill:rgb(43,180,168)">
    </path>
    <path d="M-189.19151911871725,194.14996644115757L-196.07181634463726,187.9289418278476L-180.8211342581848,216.62656915121264z" style="fill:rgb(74,87,214)">
    </path>
    <path d="M-182.09429722343222,77.7071388300726L-181.0730263188667,189.14171251659008" style="fill:none;stroke:rgb(74,87,214);stroke-width:5;stroke-linecap:round">
    </path>
    <path d="M-190.0795159370568,185.97410404806664L-203.9452662046544,190.49745745568597L-188.9265673418353,191.71410867504878z" style="fill:rgb(109,213,75)">
    </path>
    <path d="M-190.0795159370568,185.97410404806664L-203.9452662046544,190.49745745568597L-188.9265673418353,191.71410867504878z" style="fill:rgb(43,180,168)">
    </path>
    <path d="M-171.03744142320477,193.45225428012785L-166.81807057438056,186.81028050727517L-181.07302631886662,189.1417125165901z" style="fill:rgb(74,87,214)">
    </path>
    <path d="M-196.07181634463726,187.9289418278476L-189.19151911871725,194.14996644115757L-181.07302631886662,189.1417125165901z" style="fill:rgb(74,87,214)">
    </path>
    <path d="M-171.03744142320477,193.45225428012785L-189.19151911871725,194.14996644115757L-180.8211342581848,216.62656915121264z" style="fill:rgb(74,87,214)">
    </path>
    <path d="M-174.63502790690612,189.37465996203827L-178.89536257027774,196.03903087854056L-188.65313807773651,219.2386292328606z" style="fill:rgb(109,213,75)">
    </path>
    <path d="M-174.63502790690612,189.37465996203827L-178.89536257027774,196.03903087854056L-188.65313807773651,219.2386292328606z" style="fill:rgb(43,180,168)">
    </path>
    <path d="M-197.08464260972585,196.73933246341144L-203.9452662046544,190.49745745568597L-188.65313807773651,219.2386292328606z" style="fill:rgb(109,213,75)">
    </path>
    <path d="M-197.08464260972585,196.73933246341144L-203.9452662046544,190.49745745568597L-188.65313807773651,219.2386292328606z" style="fill:rgb(43,180,168)">
    </path>
    <path d="M-190.03518421195153,80.11614957279782L-188.92656734183535,191.71410867504875" style="fill:none;stroke:rgb(109,213,75);stroke-width:5;stroke-linecap:round">
    </path>
    <path d="M-190.03518421195153,80.11614957279782L-188.92656734183535,191.71410867504875" style="fill:none;stroke:rgb(43,180,168);stroke-width:5;stroke-linecap:round">
    </path>
    <path d="M-189.19151911871725,194.14996644115757L-171.03744142320477,193.45225428012785L-181.07302631886662,189.1417125165901z" style="fill:rgb(74,87,214)">
    </path>
    <path d="M-190.03518421195153,80.11614957279782L10.854114620056954,19.1727713727903L-237.5466477388341,-189.09439915117653z" style="fill:rgb(0,0,0); fill-opacity: 0.2">
    </path>
    <path d="M-178.89536257027774,196.03903087854056L-174.63502790690612,189.37465996203827L-188.9265673418353,191.71410867504878z" style="fill:rgb(109,213,75)">
    </path>
    <path d="M-178.89536257027774,196.03903087854056L-174.63502790690612,189.37465996203827L-188.9265673418353,191.71410867504878z" style="fill:rgb(43,180,168)">
    </path>
    <path d="M-203.9452662046544,190.49745745568597L-197.08464260972585,196.73933246341144L-188.9265673418353,191.71410867504878z" style="fill:rgb(109,213,75)">
    </path>
    <path d="M-203.9452662046544,190.49745745568597L-197.08464260972585,196.73933246341144L-188.9265673418353,191.71410867504878z" style="fill:rgb(43,180,168)">
    </path>
    <path d="M-178.89536257027774,196.03903087854056L-197.08464260972585,196.73933246341144L-188.65313807773651,219.2386292328606z" style="fill:rgb(109,213,75)">
    </path>
    <path d="M-178.89536257027774,196.03903087854056L-197.08464260972585,196.73933246341144L-188.65313807773651,219.2386292328606z" style="fill:rgb(43,180,168)">
    </path>
    <path d="M-197.08464260972585,196.73933246341144L-178.89536257027774,196.03903087854056L-188.9265673418353,191.71410867504878z" style="fill:rgb(109,213,75)">
    </path>
    <path d="M-197.08464260972585,196.73933246341144L-178.89536257027774,196.03903087854056L-188.9265673418353,191.71410867504878z" style="fill:rgb(43,180,168)">
    </path>
    <path d="M-606.1638510811799,206.35625729542772L79.65038967535432,-1.6978147351975448L37.97932207870005,-255.97591446250857z" style="fill:rgb(0,0,0); fill-opacity: 0.2">
    </path>
    <path d="M-222.09950907688219,204.94554453586406L-237.60103722071673,201.47680899263943L-236.614087502157,207.33396643195928z" style="fill:rgb(74,87,214)">
    </path>
    <path d="M-237.60103722071673,201.47680899263943L-251.75326884349124,206.09361976023928L-236.614087502157,207.33396643195928z" style="fill:rgb(74,87,214)">
    </path>
    <path d="M-222.09950907688219,204.94554453586406L-226.61104496340116,211.74672357253047L-236.2083485285507,235.0988190073914z" style="fill:rgb(74,87,214)">
    </path>
    <path d="M-245.01439637047437,212.46285129400582L-251.75326884349124,206.09361976023928L-236.2083485285507,235.0988190073914z" style="fill:rgb(74,87,214)">
    </path>
    <path d="M-238.2593833336403,94.74582682565746L-236.61408750215705,207.33396643195928" style="fill:none;stroke:rgb(74,87,214);stroke-width:5;stroke-linecap:round">
    </path>
    <path d="M-226.61104496340116,211.74672357253047L-222.09950907688219,204.94554453586406L-236.614087502157,207.33396643195928z" style="fill:rgb(74,87,214)">
    </path>
    <path d="M-190.03518421195153,80.11614957279782L-237.5466477388341,-189.09439915117653" style="fill:none;stroke:rgb(0,0,0);stroke-width:1;stroke-linecap:round">
    </path>
    <path d="M-190.03518421195153,80.11614957279782L-237.5466477388341,-189.09439915117653" style="fill:none;stroke:rgb(0,0,0);stroke-width:1;stroke-linecap:round">
    </path>
    <path d="M-251.75326884349124,206.09361976023928L-245.01439637047437,212.46285129400582L-236.614087502157,207.33396643195928z" style="fill:rgb(74,87,214)">
    </path>
    <path d="M-226.61104496340116,211.74672357253047L-245.01439637047437,212.46285129400582L-236.2083485285507,235.0988190073914z" style="fill:rgb(74,87,214)">
    </path>
    <path d="M-245.01439637047437,212.46285129400582L-226.61104496340116,211.74672357253047L-236.614087502157,207.33396643195928z" style="fill:rgb(74,87,214)">
    </path>
    <path d="M-744.0083122790021,-496.5210937758736L-20.38362733751045,-612.1083758546596L-214.64785139447844,-651.4793756482011z" style="fill:rgb(0,0,0); fill-opacity: 0.2">
    </path>
    <path d="M-663.442655417508,-85.71187452941334L37.97932207870005,-255.97591446250857L-20.38362733751045,-612.1083758546596z" style="fill:rgb(0,0,0); fill-opacity: 0.2">
    </path>
    <path d="M-237.5466477388341,-189.09439915117653L-237.5466477388341,-189.09439915117653L-190.03518421195153,80.11614957279782z" style="fill:rgb(0,0,0); fill-opacity: 0.2">
    </path>
    <path d="M-270.55040156667707,220.8400247000053L-286.10802238210573,217.30099682154116L-285.2942539344362,223.27896153127682z" style="fill:rgb(167,41,160)">
    </path>
    <path d="M-270.5504015666769,220.8400247000053L-286.1080223821055,217.3009968215411L-285.294253934436,223.27896153127674z" style="fill:rgb(214,94,68)">
    </path>
    <path d="M-286.10802238210573,217.30099682154116L-300.55570648362567,222.01419155327787L-285.2942539344362,223.27896153127682z" style="fill:rgb(167,41,160)">
    </path>
    <path d="M-286.1080223821055,217.3009968215411L-300.55570648362556,222.01419155327784L-285.294253934436,223.27896153127674z" style="fill:rgb(214,94,68)">
    </path>
    <path d="M-270.55040156667707,220.8400247000053L-275.32273309609843,227.7822948861696L-284.7507350744008,251.28824295121152z" style="fill:rgb(167,41,160)">
    </path>
    <path d="M-270.5504015666769,220.8400247000053L-275.32273309609826,227.78229488616958L-284.75073507440067,251.2882429512115z" style="fill:rgb(214,94,68)">
    </path>
    <path d="M-278.72361427242134,223.52127494232272L-294.290485002025,219.97032011528472L-293.5063023303404,225.96878535532235z" style="fill:rgb(74,87,214)">
    </path>
    <path d="M-293.9451771010182,228.51476042862873L-300.55570648362556,222.01419155327784L-284.75073507440067,251.2882429512115z" style="fill:rgb(214,94,68)">
    </path>
    <path d="M-293.94517710101843,228.5147604286288L-300.55570648362567,222.01419155327787L-284.7507350744008,251.28824295121152z" style="fill:rgb(167,41,160)">
    </path>
    <path d="M-287.4985703861279,109.68341890372056L-285.29425393443626,223.27896153127676" style="fill:none;stroke:rgb(167,41,160);stroke-width:5;stroke-linecap:round">
    </path>
    <path d="M-287.4985703861277,109.68341890372054L-285.2942539344361,223.2789615312767" style="fill:none;stroke:rgb(214,94,68);stroke-width:5;stroke-linecap:round">
    </path>
    <path d="M-294.290485002025,219.97032011528472L-308.78830966573315,224.6998719484013L-293.5063023303404,225.96878535532235z" style="fill:rgb(74,87,214)">
    </path>
    <path d="M-275.32273309609843,227.7822948861696L-270.55040156667707,220.8400247000053L-285.2942539344362,223.27896153127682z" style="fill:rgb(167,41,160)">
    </path>
    <path d="M-275.32273309609826,227.78229488616958L-270.5504015666769,220.8400247000053L-285.294253934436,223.27896153127674z" style="fill:rgb(214,94,68)">
    </path>
    <path d="M-300.55570648362567,222.01419155327787L-293.94517710101843,228.5147604286288L-285.2942539344362,223.27896153127682z" style="fill:rgb(167,41,160)">
    </path>
    <path d="M-300.55570648362556,222.01419155327784L-293.9451771010182,228.51476042862873L-285.294253934436,223.27896153127674z" style="fill:rgb(214,94,68)">
    </path>
    <path d="M-275.32273309609843,227.7822948861696L-293.94517710101843,228.5147604286288L-284.7507350744008,251.28824295121152z" style="fill:rgb(167,41,160)">
    </path>
    <path d="M-275.32273309609826,227.78229488616958L-293.9451771010182,228.51476042862873L-284.75073507440067,251.2882429512115z" style="fill:rgb(214,94,68)">
    </path>
    <path d="M-278.72361427242134,223.52127494232272L-283.54037521996065,230.48748929347872L-292.9392703605959,254.01921022868407z" style="fill:rgb(74,87,214)">
    </path>
    <path d="M-302.19983511162644,231.22272908037274L-308.78830966573315,224.6998719484013L-292.9392703605959,254.01921022868407z" style="fill:rgb(74,87,214)">
    </path>
    <path d="M-295.80603490667517,112.20363752712385L-293.5063023303405,225.96878535532235" style="fill:none;stroke:rgb(74,87,214);stroke-width:5;stroke-linecap:round">
    </path>
    <path d="M-293.94517710101843,228.5147604286288L-275.32273309609843,227.7822948861696L-285.2942539344362,223.27896153127682z" style="fill:rgb(167,41,160)">
    </path>
    <path d="M-293.9451771010182,228.51476042862873L-275.32273309609826,227.78229488616958L-285.294253934436,223.27896153127674z" style="fill:rgb(214,94,68)">
    </path>
    <path d="M-283.54037521996065,230.48748929347872L-278.72361427242134,223.52127494232272L-293.5063023303404,225.96878535532235z" style="fill:rgb(74,87,214)">
    </path>
    <path d="M-308.78830966573315,224.6998719484013L-302.19983511162644,231.22272908037274L-293.5063023303404,225.96878535532235z" style="fill:rgb(74,87,214)">
    </path>
    <path d="M-283.54037521996065,230.48748929347872L-302.19983511162644,231.22272908037274L-292.9392703605959,254.01921022868407z" style="fill:rgb(74,87,214)">
    </path>
    <path d="M-302.19983511162644,231.22272908037274L-283.54037521996065,230.48748929347872L-293.5063023303404,225.96878535532235z" style="fill:rgb(74,87,214)">
    </path>
    <path d="M-330.0373775256915,240.3549296030358L-345.6609210295643,236.72863700197138L-345.0649379971566,242.85661161570576z" style="fill:rgb(167,41,160)">
    </path>
    <path d="M-345.6609210295643,236.72863700197138L-360.4755243517071,241.56152993069662L-345.0649379971566,242.85661161570576z" style="fill:rgb(167,41,160)">
    </path>
    <path d="M-287.4985703861277,109.68341890372054L-606.1638510811799,206.35625729542772" style="fill:none;stroke:rgb(84,0,79);stroke-width:5;stroke-linecap:round">
    </path>
    <path d="M-287.4985703861277,109.68341890372054L-337.2153862595413,-164.9006860654433" style="fill:none;stroke:rgb(0,0,0);stroke-width:1;stroke-linecap:round">
    </path>
    <path d="M-517.0606059920209,179.32518697018574L-287.4985703861277,109.68341890372054" style="fill:none;stroke:rgb(115,35,18);stroke-width:5;stroke-linecap:round">
    </path>
    <path d="M-287.4985703861277,109.68341890372054L-337.2153862595413,-164.9006860654433" style="fill:none;stroke:rgb(0,0,0);stroke-width:1;stroke-linecap:round">
    </path>
    <path d="M-330.0373775256915,240.3549296030358L-335.13595263192997,247.47241822478915L-344.3484970104034,271.1647571224599z" style="fill:rgb(167,41,160)">
    </path>
    <path d="M-336.73990320120816,242.55371596020322L-352.3706707716174,238.91752464052303L-351.7995824061314,245.06251763384014z" style="fill:rgb(74,87,214)">
    </path>
    <path d="M-325.9218632565549,313.76054732580496L-337.2153862595413,-164.9006860654433L-507.25811248506665,413.11678111155317z" style="fill:rgb(0,0,0); fill-opacity: 0.2">
    </path>
    <path d="M-352.3706707716174,238.91752464052303L-367.22690370719016,243.76399818696694L-351.7995824061314,245.06251763384014z" style="fill:rgb(74,87,214)">
    </path>
    <path d="M-354.0281849530667,248.22519562252066L-360.4755243517071,241.56152993069662L-344.3484970104034,271.1647571224599z" style="fill:rgb(167,41,160)">
    </path>
    <path d="M-347.9710740563888,128.02883940797517L-345.0649379971566,242.85661161570576" style="fill:none;stroke:rgb(167,41,160);stroke-width:5;stroke-linecap:round">
    </path>
    <path d="M-861.396726916527,293.44027962255694L-925.7032034546347,-548.6530417973316L-690.7668484085556,389.31901556516834z" style="fill:rgb(0,0,0); fill-opacity: 0.2">
    </path>
    <path d="M-335.13595263192997,247.47241822478915L-330.0373775256915,240.3549296030358L-345.0649379971566,242.85661161570576z" style="fill:rgb(167,41,160)">
    </path>
    <path d="M-336.73990320120816,242.55371596020322L-341.8756545304461,249.69108431026567L-351.063398194845,273.404251093633z" style="fill:rgb(74,87,214)">
    </path>
    <path d="M-360.4755243517071,241.56152993069662L-354.0281849530667,248.22519562252066L-345.0649379971566,242.85661161570576z" style="fill:rgb(167,41,160)">
    </path>
    <path d="M-343.46128863933956,244.75868932667788L-359.0992591997043,241.11255792810354L-358.5532080176017,247.27464086943607z" style="fill:rgb(214,94,68)">
    </path>
    <path d="M-335.13595263192997,247.47241822478915L-354.0281849530667,248.22519562252066L-344.3484970104034,271.1647571224599z" style="fill:rgb(167,41,160)">
    </path>
    <path d="M-359.0992591997043,241.11255792810354L-373.9972974669634,245.97266941594188L-358.5532080176017,247.27464086943607z" style="fill:rgb(214,94,68)">
    </path>
    <path d="M-360.7983391522727,250.44616774703047L-367.22690370719016,243.76399818696694L-351.063398194845,273.404251093633z" style="fill:rgb(74,87,214)">
    </path>
    <path d="M-354.7858629501152,130.0962280609212L-351.7995824061314,245.06251763384014" style="fill:none;stroke:rgb(74,87,214);stroke-width:5;stroke-linecap:round">
    </path>
    <path d="M-341.8756545304461,249.69108431026567L-336.73990320120816,242.55371596020322L-351.7995824061314,245.06251763384014z" style="fill:rgb(74,87,214)">
    </path>
    <path d="M-354.0281849530667,248.22519562252066L-335.13595263192997,247.47241822478915L-345.0649379971566,242.85661161570576z" style="fill:rgb(167,41,160)">
    </path>
    <path d="M-343.46128863933956,244.75868932667788L-348.6344057483337,251.91602130793942L-357.7971722060066,275.6500393616986z" style="fill:rgb(214,94,68)">
    </path>
    <path d="M-367.22690370719016,243.76399818696694L-360.7983391522727,250.44616774703047L-351.7995824061314,245.06251763384014z" style="fill:rgb(74,87,214)">
    </path>
    <path d="M-341.8756545304461,249.69108431026567L-360.7983391522727,250.44616774703047L-351.063398194845,273.404251093633z" style="fill:rgb(74,87,214)">
    </path>
    <path d="M-367.5876394788771,252.6734208237894L-373.9972974669634,245.97266941594188L-357.7971722060066,275.6500393616986z" style="fill:rgb(214,94,68)">
    </path>
    <path d="M-361.6200760132911,132.1695093846659L-358.5532080176017,247.27464086943607" style="fill:none;stroke:rgb(214,94,68);stroke-width:5;stroke-linecap:round">
    </path>
    <path d="M-348.6344057483337,251.91602130793942L-343.46128863933956,244.75868932667788L-358.5532080176017,247.27464086943607z" style="fill:rgb(214,94,68)">
    </path>
    <path d="M-360.7983391522727,250.44616774703047L-341.8756545304461,249.69108431026567L-351.7995824061314,245.06251763384014z" style="fill:rgb(74,87,214)">
    </path>
    <path d="M-373.9972974669634,245.97266941594188L-367.5876394788771,252.6734208237894L-358.5532080176017,247.27464086943607z" style="fill:rgb(214,94,68)">
    </path>
    <path d="M-348.6344057483337,251.91602130793942L-367.5876394788771,252.6734208237894L-357.7971722060066,275.6500393616986z" style="fill:rgb(214,94,68)">
    </path>
    <path d="M-367.5876394788771,252.6734208237894L-348.6344057483337,251.91602130793942L-358.5532080176017,247.27464086943607z" style="fill:rgb(214,94,68)">
    </path>
    <path d="M-744.0083122790021,-496.5210937758736L-690.7668484085556,389.31901556516834" style="fill:none;stroke:rgb(0,0,0);stroke-width:1;stroke-linecap:round">
    </path>
    <path d="M-337.2153862595413,-164.9006860654433L-744.0083122790021,-496.5210937758736" style="fill:none;stroke:rgb(0,0,0);stroke-width:1;stroke-linecap:round">
    </path>
    <path d="M-337.2153862595413,-164.9006860654433L-744.0083122790021,-496.5210937758736" style="fill:none;stroke:rgb(0,0,0);stroke-width:1;stroke-linecap:round">
    </path>
    <path d="M-517.0606059920209,179.32518697018574L-337.2153862595413,-164.9006860654433" style="fill:none;stroke:rgb(0,0,0);stroke-width:1;stroke-linecap:round">
    </path>
    <path d="M-517.0606059920209,179.32518697018574L-337.2153862595413,-164.9006860654433" style="fill:none;stroke:rgb(0,0,0);stroke-width:1;stroke-linecap:round">
    </path>
    <path d="M-925.7032034546347,-548.6530417973316L-214.64785139447844,-651.4793756482011L-744.0083122790021,-496.5210937758736z" style="fill:rgb(0,0,0); fill-opacity: 0.2">
    </path>
    <path d="M-391.0458131536919,260.3689545281449L-406.7335920128762,256.6520648059715L-406.36686879785384,262.93581548522405z" style="fill:rgb(167,41,160)">
    </path>
    <path d="M-406.7335920128762,256.6520648059715L-421.92927178905086,261.6092743741604L-406.36686879785384,262.93581548522405z" style="fill:rgb(167,41,160)">
    </path>
    <path d="M-396.2003581016173,262.0599205397046L-411.89340765493415,258.3353253015635L-411.5463282917939,264.6323268634848z" style="fill:rgb(74,87,214)">
    </path>
    <path d="M-391.0458131536919,260.3689545281449L-396.48589704374433,267.6684214103796L-405.46877934500554,291.5490487218486z" style="fill:rgb(167,41,160)">
    </path>
    <path d="M-411.89340765493415,258.3353253015635L-427.1215056320831,263.3031104950893L-411.5463282917939,264.6323268634848z" style="fill:rgb(74,87,214)">
    </path>
    <path d="M-415.6557238834773,268.44231949285125L-421.92927178905086,261.6092743741604L-405.46877934500554,291.5490487218486z" style="fill:rgb(167,41,160)">
    </path>
    <path d="M-410.01049043874184,146.8496110363296L-406.36686879785395,262.93581548522405" style="fill:none;stroke:rgb(167,41,160);stroke-width:5;stroke-linecap:round">
    </path>
    <path d="M-396.48589704374433,267.6684214103796L-391.0458131536919,260.3689545281449L-406.36686879785384,262.93581548522405z" style="fill:rgb(167,41,160)">
    </path>
    <path d="M-396.2003581016173,262.0599205397046L-401.66961686765177,269.37486830418777L-410.6326918749725,293.27127078601256z" style="fill:rgb(74,87,214)">
    </path>
    <path d="M-421.92927178905086,261.6092743741604L-415.6557238834773,268.44231949285125L-406.36686879785384,262.93581548522405z" style="fill:rgb(167,41,160)">
    </path>
    <path d="M-420.8629394471223,270.15056427914067L-427.1215056320831,263.3031104950893L-410.6326918749725,293.27127078601256z" style="fill:rgb(74,87,214)">
    </path>
    <path d="M-415.25308158958427,148.44004525612837L-411.546328291794,264.6323268634848" style="fill:none;stroke:rgb(74,87,214);stroke-width:5;stroke-linecap:round">
    </path>
    <path d="M-396.48589704374433,267.6684214103796L-415.6557238834773,268.44231949285125L-405.46877934500554,291.5490487218486z" style="fill:rgb(167,41,160)">
    </path>
    <path d="M-401.66961686765177,269.37486830418777L-396.2003581016173,262.0599205397046L-411.5463282917939,264.6323268634848z" style="fill:rgb(74,87,214)">
    </path>
    <path d="M-427.1215056320831,263.3031104950893L-420.8629394471223,270.15056427914067L-411.5463282917939,264.6323268634848z" style="fill:rgb(74,87,214)">
    </path>
    <path d="M-415.6557238834773,268.44231949285125L-396.48589704374433,267.6684214103796L-406.36686879785384,262.93581548522405z" style="fill:rgb(167,41,160)">
    </path>
    <path d="M-401.66961686765177,269.37486830418777L-420.8629394471223,270.15056427914067L-410.6326918749725,293.27127078601256z" style="fill:rgb(74,87,214)">
    </path>
    <path d="M-420.8629394471223,270.15056427914067L-401.66961686765177,269.37486830418777L-411.5463282917939,264.6323268634848z" style="fill:rgb(74,87,214)">
    </path>
    <path d="M-418.66439689825796,269.4293249141422L-434.38013200285843,265.6710553733127L-434.1191608638336,272.02596848629213z" style="fill:rgb(214,94,68)">
    </path>
    <path d="M-434.38013200285843,265.6710553733127L-449.74991463196704,270.6850616324772L-434.1191608638336,272.02596848629213z" style="fill:rgb(214,94,68)">
    </path>
    <path d="M-418.66439689825796,269.4293249141422L-424.2613870231535,276.8119322885649L-433.137405951331,300.7768423666866z" style="fill:rgb(214,94,68)">
    </path>
    <path d="M-443.55718295721175,277.59548809323314L-449.74991463196704,270.6850616324772L-433.137405951331,300.7768423666866z" style="fill:rgb(214,94,68)">
    </path>
    <path d="M-438.10254459647524,155.3718403979917L-434.1191608638336,272.02596848629213" style="fill:none;stroke:rgb(214,94,68);stroke-width:5;stroke-linecap:round">
    </path>
    <path d="M-517.0606059920209,179.32518697018574L-287.4985703861277,109.68341890372054L-337.2153862595413,-164.9006860654433z" style="fill:rgb(0,0,0); fill-opacity: 0.2">
    </path>
    <path d="M-424.2613870231535,276.8119322885649L-418.66439689825796,269.4293249141422L-434.1191608638336,272.02596848629213z" style="fill:rgb(214,94,68)">
    </path>
    <path d="M-449.74991463196704,270.6850616324772L-443.55718295721175,277.59548809323314L-434.1191608638336,272.02596848629213z" style="fill:rgb(214,94,68)">
    </path>
    <path d="M-424.2613870231535,276.8119322885649L-443.55718295721175,277.59548809323314L-433.137405951331,300.7768423666866z" style="fill:rgb(214,94,68)">
    </path>
    <path d="M-443.55718295721175,277.59548809323314L-424.2613870231535,276.8119322885649L-434.1191608638336,272.02596848629213z" style="fill:rgb(214,94,68)">
    </path>
    <path d="M-337.2153862595413,-164.9006860654433L-337.2153862595413,-164.9006860654433L-517.0606059920209,179.32518697018574z" style="fill:rgb(0,0,0); fill-opacity: 0.2">
    </path>
    <path d="M-507.25811248506665,413.11678111155317L-517.0606059920209,179.32518697018574" style="fill:none;stroke:rgb(80,97,2);stroke-width:5;stroke-linecap:round">
    </path>
    <path d="M-507.25811248506665,413.11678111155317L-616.3162120392906,451.4201161064769" style="fill:none;stroke:rgb(162,186,45);stroke-width:5;stroke-linecap:round">
    </path>
    <path d="M-453.63483464238385,280.9014960237337L-469.3849634560328,277.09050405665397L-469.2596526621126,283.5360969549497z" style="fill:rgb(167,41,160)">
    </path>
    <path d="M-469.3849634560328,277.09050405665397L-484.97661472386187,282.176889396909L-469.2596526621126,283.5360969549497z" style="fill:rgb(167,41,160)">
    </path>
    <path d="M-457.15958175553385,282.0578013092426L-472.9131149315948,278.24147502407965L-472.801586615039,284.6962433484523z" style="fill:rgb(74,87,214)">
    </path>
    <path d="M-690.7668484085556,389.31901556516834L-744.0083122790021,-496.5210937758736L-325.9218632565549,313.76054732580496z" style="fill:rgb(0,0,0); fill-opacity: 0.2">
    </path>
    <path d="M-325.9218632565549,313.76054732580496L-337.2153862595413,-164.9006860654433L-744.0083122790021,-496.5210937758736z" style="fill:rgb(0,0,0); fill-opacity: 0.2">
    </path>
    <path d="M-472.9131149315948,278.24147502407965L-488.5272169119001,283.3351843464362L-472.801586615039,284.6962433484523z" style="fill:rgb(74,87,214)">
    </path>
    <path d="M-453.63483464238385,280.9014960237337L-459.4325594484838,288.3900537873373L-468.1706797887031,312.4608274908511z" style="fill:rgb(167,41,160)">
    </path>
    <path d="M-663.442655417508,-85.71187452941334L37.97932207870005,-255.97591446250857L-606.1638510811799,206.35625729542772z" style="fill:rgb(0,0,0); fill-opacity: 0.2">
    </path>
    <path d="M-478.88812637568407,289.185924316128L-484.97661472386187,282.176889396909L-468.1706797887031,312.4608274908511z" style="fill:rgb(167,41,160)">
    </path>
    <path d="M-473.6785196831591,166.1644516378511L-469.2596526621126,283.5360969549497" style="fill:none;stroke:rgb(167,41,160);stroke-width:5;stroke-linecap:round">
    </path>
    <path d="M-457.15958175553385,282.0578013092426L-462.977666837087,289.55708011148346L-471.70172757114904,313.63847106348237z" style="fill:rgb(74,87,214)">
    </path>
    <path d="M-459.4325594484838,288.3900537873373L-453.63483464238385,280.9014960237337L-469.2596526621126,283.5360969549497z" style="fill:rgb(167,41,160)">
    </path>
    <path d="M-482.4493541666966,290.35419721215686L-488.5272169119001,283.3351843464362L-471.70172757114904,313.63847106348237z" style="fill:rgb(74,87,214)">
    </path>
    <path d="M-477.26467428228096,167.25237606831442L-472.801586615039,284.6962433484523" style="fill:none;stroke:rgb(74,87,214);stroke-width:5;stroke-linecap:round">
    </path>
    <path d="M-484.97661472386187,282.176889396909L-478.88812637568407,289.185924316128L-469.2596526621126,283.5360969549497z" style="fill:rgb(167,41,160)">
    </path>
    <path d="M-507.25811248506665,413.11678111155317L-517.0606059920209,179.32518697018574L-337.2153862595413,-164.9006860654433z" style="fill:rgb(0,0,0); fill-opacity: 0.2">
    </path>
    <path d="M-462.977666837087,289.55708011148346L-457.15958175553385,282.0578013092426L-472.801586615039,284.6962433484523z" style="fill:rgb(74,87,214)">
    </path>
    <path d="M-459.4325594484838,288.3900537873373L-478.88812637568407,289.185924316128L-468.1706797887031,312.4608274908511z" style="fill:rgb(167,41,160)">
    </path>
    <path d="M-488.5272169119001,283.3351843464362L-482.4493541666966,290.35419721215686L-472.801586615039,284.6962433484523z" style="fill:rgb(74,87,214)">
    </path>
    <path d="M-462.977666837087,289.55708011148346L-482.4493541666966,290.35419721215686L-471.70172757114904,313.63847106348237z" style="fill:rgb(74,87,214)">
    </path>
    <path d="M-478.88812637568407,289.185924316128L-459.4325594484838,288.3900537873373L-469.2596526621126,283.5360969549497z" style="fill:rgb(167,41,160)">
    </path>
    <path d="M-482.4493541666966,290.35419721215686L-462.977666837087,289.55708011148346L-472.801586615039,284.6962433484523z" style="fill:rgb(74,87,214)">
    </path>
    <path d="M-337.2153862595413,-164.9006860654433L-663.442655417508,-85.71187452941334L-287.4985703861277,109.68341890372054z" style="fill:rgb(0,0,0); fill-opacity: 0.2">
    </path>
    <path d="M-510.4755548847288,336.38008272543533L-620.4590233526752,373.27870844679336" style="fill:none;stroke:rgb(162,186,45);stroke-width:5;stroke-linecap:round">
    </path>
    <path d="M-496.26954925847116,294.8879592434144L-512.0600916110816,291.01219474308056L-512.102830378902,297.5692095919767z" style="fill:rgb(214,94,68)">
    </path>
    <path d="M-512.0600916110816,291.01219474308056L-527.9243851704288,296.1875227957457L-512.102830378902,297.5692095919767z" style="fill:rgb(214,94,68)">
    </path>
    <path d="M-496.26954925847116,294.8879592434144L-502.3151188223615,302.50671377821953L-510.8812041125972,326.70526074485383z" style="fill:rgb(214,94,68)">
    </path>
    <path d="M-521.965880942572,303.3177282993748L-527.9243851704288,296.1875227957457L-510.8812041125972,326.70526074485383z" style="fill:rgb(214,94,68)">
    </path>
    <path d="M-517.0606059920209,179.32518697018574L-512.102830378902,297.5692095919767" style="fill:none;stroke:rgb(214,94,68);stroke-width:5;stroke-linecap:round">
    </path>
    <path d="M-744.0083122790021,-496.5210937758736L-925.7032034546347,-548.6530417973316" style="fill:none;stroke:rgb(0,0,0);stroke-width:1;stroke-linecap:round">
    </path>
    <path d="M-744.0083122790021,-496.5210937758736L-925.7032034546347,-548.6530417973316" style="fill:none;stroke:rgb(0,0,0);stroke-width:1;stroke-linecap:round">
    </path>
    <path d="M-502.3151188223615,302.50671377821953L-496.26954925847116,294.8879592434144L-512.102830378902,297.5692095919767z" style="fill:rgb(214,94,68)">
    </path>
    <path d="M-527.9243851704288,296.1875227957457L-521.965880942572,303.3177282993748L-512.102830378902,297.5692095919767z" style="fill:rgb(214,94,68)">
    </path>
    <path d="M-502.3151188223615,302.50671377821953L-521.965880942572,303.3177282993748L-510.8812041125972,326.70526074485383z" style="fill:rgb(214,94,68)">
    </path>
    <path d="M-521.965880942572,303.3177282993748L-502.3151188223615,302.50671377821953L-512.102830378902,297.5692095919767z" style="fill:rgb(214,94,68)">
    </path>
    <path d="M-517.8666720328591,301.97296886655676L-533.6770499041218,298.064185444636L-533.8060302861708,304.6780064906546z" style="fill:rgb(167,41,160)">
    </path>
    <path d="M-533.6770499041218,298.064185444636L-549.6803542025806,303.28486226590866L-533.8060302861708,304.6780064906546z" style="fill:rgb(167,41,160)">
    </path>
    <path d="M-519.6749647306085,302.56618543984064L-535.4869839811806,298.6546310618604L-535.6232192271084,305.27321950822085z" style="fill:rgb(74,87,214)">
    </path>
    <path d="M-535.4869839811806,298.6546310618604L-551.501954902149,303.87911382624225L-535.6232192271084,305.27321950822085z" style="fill:rgb(74,87,214)">
    </path>
    <path d="M-517.8666720328591,301.97296886655676L-524.0390969459529,309.65810626266415L-532.5163947035812,333.9208366055906z" style="fill:rgb(167,41,160)">
    </path>
    <path d="M-513.7426663565,258.458766207239L-624.6672209470366,293.90398947972176" style="fill:none;stroke:rgb(162,186,45);stroke-width:5;stroke-linecap:round">
    </path>
    <path d="M-519.6749647306085,302.56618543984064L-525.8580509076268,310.256894091351L-534.3278645538128,334.5249818784882z" style="fill:rgb(74,87,214)">
    </path>
    <path d="M-543.7889086446027,310.4768468028056L-549.6803542025806,303.28486226590866L-532.5163947035812,333.9208366055906z" style="fill:rgb(167,41,160)">
    </path>
    <path d="M-539.0401444378526,185.9930748664249L-533.8060302861709,304.6780064906545" style="fill:none;stroke:rgb(167,41,160);stroke-width:5;stroke-linecap:round">
    </path>
    <path d="M-545.616161091474,311.0762831863108L-551.501954902149,303.87911382624225L-534.3278645538128,334.5249818784882z" style="fill:rgb(74,87,214)">
    </path>
    <path d="M-540.8805729308743,186.55140191695676L-535.6232192271086,305.2732195082208" style="fill:none;stroke:rgb(74,87,214);stroke-width:5;stroke-linecap:round">
    </path>
    <path d="M-524.0390969459529,309.65810626266415L-517.8666720328591,301.97296886655676L-533.8060302861708,304.6780064906546z" style="fill:rgb(167,41,160)">
    </path>
    <path d="M-525.8580509076268,310.256894091351L-519.6749647306085,302.56618543984064L-535.6232192271084,305.27321950822085z" style="fill:rgb(74,87,214)">
    </path>
    <path d="M-549.6803542025806,303.28486226590866L-543.7889086446027,310.4768468028056L-533.8060302861708,304.6780064906546z" style="fill:rgb(167,41,160)">
    </path>
    <path d="M-524.0390969459529,309.65810626266415L-543.7889086446027,310.4768468028056L-532.5163947035812,333.9208366055906z" style="fill:rgb(167,41,160)">
    </path>
    <path d="M-551.501954902149,303.87911382624225L-545.616161091474,311.0762831863108L-535.6232192271084,305.27321950822085z" style="fill:rgb(74,87,214)">
    </path>
    <path d="M-525.8580509076268,310.256894091351L-545.616161091474,311.0762831863108L-534.3278645538128,334.5249818784882z" style="fill:rgb(74,87,214)">
    </path>
    <path d="M-744.0083122790021,-496.5210937758736L-20.38362733751045,-612.1083758546596L-663.442655417508,-85.71187452941334z" style="fill:rgb(0,0,0); fill-opacity: 0.2">
    </path>
    <path d="M-543.7889086446027,310.4768468028056L-524.0390969459529,309.65810626266415L-533.8060302861708,304.6780064906546z" style="fill:rgb(167,41,160)">
    </path>
    <path d="M-545.616161091474,311.0762831863108L-525.8580509076268,310.256894091351L-535.6232192271084,305.27321950822085z" style="fill:rgb(74,87,214)">
    </path>
    <path d="M-517.0606059920209,179.32518697018574L-628.9423651299722,213.26652879610435" style="fill:none;stroke:rgb(162,186,45);stroke-width:5;stroke-linecap:round">
    </path>
    <path d="M-617.0880787998177,436.8612210396268L-625.6181924332492,441.78821516766794L-644.3360788701309,461.2612407008149z" style="fill:rgb(162,186,45)">
    </path>
    <path d="M-287.4985703861277,109.68341890372054L-606.1638510811799,206.35625729542772L-663.442655417508,-85.71187452941334z" style="fill:rgb(0,0,0); fill-opacity: 0.2">
    </path>
    <path d="M-690.7668484085556,389.31901556516834L-744.0083122790021,-496.5210937758736L-925.7032034546347,-548.6530417973316z" style="fill:rgb(0,0,0); fill-opacity: 0.2">
    </path>
    <path d="M-610.0739335467855,466.38005078534326L-607.439795752003,452.09209081186196L-644.3360788701309,461.2612407008149z" style="fill:rgb(162,186,45)">
    </path>
    <path d="M-607.439795752003,452.09209081186196L-617.0880787998177,436.8612210396268L-644.3360788701309,461.2612407008149z" style="fill:rgb(162,186,45)">
    </path>
    <path d="M-583.8068655961245,323.6048737655575L-599.6751570724097,319.5944133222959L-600.0720855056837,326.3831895901439z" style="fill:rgb(74,87,214)">
    </path>
    <path d="M-583.8068655961246,323.60487376555756L-599.67515707241,319.5944133222961L-600.0720855056841,326.383189590144z" style="fill:rgb(167,41,160)">
    </path>
    <path d="M-599.6751570724097,319.5944133222959L-616.106635047484,324.9547710711632L-600.0720855056837,326.3831895901439z" style="fill:rgb(74,87,214)">
    </path>
    <path d="M-599.67515707241,319.5944133222961L-616.1066350474845,324.95477107116324L-600.0720855056841,326.383189590144z" style="fill:rgb(167,41,160)">
    </path>
    <path d="M-583.8068655961245,323.6048737655575L-590.3720419876706,331.49448088722124L-598.5714248890638,355.95092130866806z" style="fill:rgb(74,87,214)">
    </path>
    <path d="M-583.8068655961246,323.60487376555756L-590.3720419876709,331.4944808872213L-598.571424889064,355.9509213086681z" style="fill:rgb(167,41,160)">
    </path>
    <path d="M-610.424983450146,332.3370379114839L-616.106635047484,324.9547710711632L-598.5714248890638,355.95092130866806z" style="fill:rgb(74,87,214)">
    </path>
    <path d="M-610.4249834501464,332.33703791148406L-616.1066350474845,324.95477107116324L-598.571424889064,355.9509213086681z" style="fill:rgb(167,41,160)">
    </path>
    <path d="M-606.1638510811797,206.35625729542767L-600.072085505684,326.3831895901439" style="fill:none;stroke:rgb(74,87,214);stroke-width:5;stroke-linecap:round">
    </path>
    <path d="M-606.1638510811799,206.35625729542772L-600.0720855056842,326.383189590144" style="fill:none;stroke:rgb(167,41,160);stroke-width:5;stroke-linecap:round">
    </path>
    <path d="M-590.3720419876706,331.49448088722124L-583.8068655961245,323.6048737655575L-600.0720855056837,326.3831895901439z" style="fill:rgb(74,87,214)">
    </path>
    <path d="M-590.3720419876709,331.4944808872213L-583.8068655961246,323.60487376555756L-600.0720855056841,326.383189590144z" style="fill:rgb(167,41,160)">
    </path>
    <path d="M-616.1066350474845,324.95477107116324L-610.4249834501464,332.33703791148406L-600.0720855056841,326.383189590144z" style="fill:rgb(167,41,160)">
    </path>
    <path d="M-616.106635047484,324.9547710711632L-610.424983450146,332.3370379114839L-600.0720855056837,326.3831895901439z" style="fill:rgb(74,87,214)">
    </path>
    <path d="M-590.3720419876706,331.49448088722124L-610.424983450146,332.3370379114839L-598.5714248890638,355.95092130866806z" style="fill:rgb(74,87,214)">
    </path>
    <path d="M-590.3720419876709,331.4944808872213L-610.4249834501464,332.33703791148406L-598.571424889064,355.9509213086681z" style="fill:rgb(167,41,160)">
    </path>
    <path d="M-621.2430334292119,358.4907670307737L-629.8238587599585,363.75650736090023L-648.7226391894246,382.76093879304227z" style="fill:rgb(162,186,45)">
    </path>
    <path d="M-610.424983450146,332.3370379114839L-590.3720419876706,331.49448088722124L-600.0720855056837,326.3831895901439z" style="fill:rgb(74,87,214)">
    </path>
    <path d="M-610.4249834501464,332.33703791148406L-590.3720419876709,331.4944808872213L-600.0720855056841,326.383189590144z" style="fill:rgb(167,41,160)">
    </path>
    <path d="M-614.1701585571659,388.3121477810082L-611.5265098845955,373.6988437680249L-648.7226391894246,382.76093879304227z" style="fill:rgb(162,186,45)">
    </path>
    <path d="M-611.5265098845955,373.6988437680249L-621.2430334292119,358.4907670307737L-648.7226391894246,382.76093879304227z" style="fill:rgb(162,186,45)">
    </path>
    <path d="M-337.2153862595413,-164.9006860654433L-663.442655417508,-85.71187452941334L-744.0083122790021,-496.5210937758736z" style="fill:rgb(0,0,0); fill-opacity: 0.2">
    </path>
    <path d="M-625.4636631754175,278.8815537138869L-634.0957450788321,284.49615736568023L-653.1788225971366,303.0146871974126z" style="fill:rgb(162,186,45)">
    </path>
    <path d="M-618.3310710091596,309.0113991921L-615.6779388279151,294.0642071921295L-653.1788225971366,303.0146871974126z" style="fill:rgb(162,186,45)">
    </path>
    <path d="M-606.1638510811799,206.35625729542772L-663.442655417508,-85.71187452941334" style="fill:none;stroke:rgb(0,0,0);stroke-width:1;stroke-linecap:round">
    </path>
    <path d="M-606.1638510811799,206.35625729542772L-663.442655417508,-85.71187452941334" style="fill:none;stroke:rgb(0,0,0);stroke-width:1;stroke-linecap:round">
    </path>
    <path d="M-615.6779388279151,294.0642071921295L-625.4636631754175,278.8815537138869L-653.1788225971366,303.0146871974126z" style="fill:rgb(162,186,45)">
    </path>
    <path d="M-744.0083122790021,-496.5210937758736L-744.0083122790021,-496.5210937758736L-337.2153862595413,-164.9006860654433z" style="fill:rgb(0,0,0); fill-opacity: 0.2">
    </path>
    <path d="M-629.7515375793627,198.0039765213902L-638.4354277930441,203.97791668193537L-657.7062999299895,221.99258522235397z" style="fill:rgb(162,186,45)">
    </path>
    <path d="M-622.5582154108872,228.44836901110986L-619.89563202877,213.1584588764337L-657.7062999299895,221.99258522235397z" style="fill:rgb(162,186,45)">
    </path>
    <path d="M-619.89563202877,213.1584588764337L-629.7515375793627,198.0039765213902L-657.7062999299895,221.99258522235397z" style="fill:rgb(162,186,45)">
    </path>
    <path d="M-663.442655417508,-85.71187452941334L-744.0083122790021,-496.5210937758736" style="fill:none;stroke:rgb(0,0,0);stroke-width:1;stroke-linecap:round">
    </path>
    <path d="M-663.442655417508,-85.71187452941334L-744.0083122790021,-496.5210937758736" style="fill:none;stroke:rgb(0,0,0);stroke-width:1;stroke-linecap:round">
    </path>
    <path d="M-744.0083122790021,-496.5210937758736L-744.0083122790021,-496.5210937758736" style="fill:none;stroke:rgb(0,0,0);stroke-width:1;stroke-linecap:round">
    </path>
</svg>