<svg viewBox="-1163.5 -664 2327 1328" width="2327" height="1328" style="background-color: rgb(255, 255, 255);">
    <path d="M-206.08193300170979,93.44549521471308L-214.64785139447844,-651.4793756482011" style="fill:none;stroke:rgb(0,0,0);stroke-width:1;stroke-linecap:round">
    </path>
    <path d="M-25.097551727696384,166.97106285948115L-206.08193300170979,93.44549521471308" style="fill:none;stroke:rgb(160,0,0);stroke-width:4;stroke-linecap:round">
    </path>
    <path d="M-25.097551727696384,166.97106285948115L-20.38362733751045,-612.1083758546596" style="fill:none;stroke:rgb(0,0,0);stroke-width:1;stroke-linecap:round">
    </path>
    <path d="M-230.890768979951,281.0948705879029L-25.097551727696384,166.97106285948115" style="fill:none;stroke:rgb(160,0,0);stroke-width:4;stroke-linecap:round">
    </path>
    <path d="M-20.38362733751045,-612.1083758546596L-25.097551727696384,166.97106285948115L-206.08193300170979,93.44549521471308z" style="fill:rgb(0,0,0); fill-opacity: 0.2">
    </path>
    <path d="M-214.64785139447844,-651.4793756482011L-206.08193300170979,93.44549521471308L-20.38362733751045,-612.1083758546596z" style="fill:rgb(0,0,0); fill-opacity: 0.2">
    </path>
    <path d="M-20.38362733751045,-612.1083758546596L-214.64785139447844,-651.4793756482011" style="fill:none;stroke:rgb(0,0,0);stroke-width:1;stroke-linecap:round">
    </path>
    <path d="M-214.64785139447844,-651.4793756482011L-925.7032034546347,-548.6530417973316" style="fill:none;stroke:rgb(0,0,0);stroke-width:1;stroke-linecap:round">
    </path>
    <path d="M-20.38362733751045,-612.1083758546596L-214.64785139447844,-651.4793756482011" style="fill:none;stroke:rgb(0,0,0);stroke-width:1;stroke-linecap:round">
    </path>
    <path d="M59.38357734780592,-90.5695772705006L44.23080369239829,-93.23920962342373L46.151725414854,-88.76675897774436z" style="fill:rgb(43,180,168)">
    </path>
    <path d="M59.38357734780586,-90.5695772705006L44.230803692398226,-93.23920962342373L46.15172541485397,-88.76675897774436z" style="fill:rgb(74,87,214)">
    </path>
    <path d="M44.23080369239829,-93.23920962342373L31.71833086419902,-89.73443960094224L46.151725414854,-88.76675897774436z" style="fill:rgb(43,180,168)">
    </path>
    <path d="M44.230803692398226,-93.23920962342373L31.71833086419899,-89.73443960094224L46.15172541485397,-88.76675897774436z" style="fill:rgb(74,87,214)">
    </path>
    <path d="M59.38357734780592,-90.5695772705006L56.29573397818808,-85.38567142622466L45.81097612015912,-61.88557920271781z" style="fill:rgb(43,180,168)">
    </path>
    <path d="M59.38357734780586,-90.5695772705006L56.29573397818808,-85.38567142622462L45.81097612015909,-61.88557920271781z" style="fill:rgb(74,87,214)">
    </path>
    <path d="M-94.76893564279129,230.64018598015832L-91.21944454017192,246.75557187216785L-85.47782678327502,238.6838697993954z" style="fill:rgb(197,147,42)">
    </path>
    <path d="M39.1312761644195,-84.86490543555479L31.71833086419902,-89.73443960094224L45.81097612015912,-61.88557920271781z" style="fill:rgb(43,180,168)">
    </path>
    <path d="M39.131276164419475,-84.86490543555479L31.71833086419899,-89.73443960094224L45.81097612015909,-61.88557920271781z" style="fill:rgb(74,87,214)">
    </path>
    <path d="M47.53236148333227,-197.68298254288044L46.151725414853985,-88.76675897774439" style="fill:none;stroke:rgb(43,180,168);stroke-width:5;stroke-linecap:round">
    </path>
    <path d="M47.53236148333223,-197.6829825428804L46.15172541485395,-88.76675897774436" style="fill:none;stroke:rgb(74,87,214);stroke-width:5;stroke-linecap:round">
    </path>
    <path d="M56.29573397818808,-85.38567142622466L59.38357734780592,-90.5695772705006L46.151725414854,-88.76675897774436z" style="fill:rgb(43,180,168)">
    </path>
    <path d="M56.29573397818808,-85.38567142622462L59.38357734780586,-90.5695772705006L46.15172541485397,-88.76675897774436z" style="fill:rgb(74,87,214)">
    </path>
    <path d="M-91.21944454017192,246.75557187216785L-79.72226251736173,251.75198150040788L-85.47782678327502,238.6838697993954z" style="fill:rgb(197,147,42)">
    </path>
    <path d="M31.71833086419902,-89.73443960094224L39.1312761644195,-84.86490543555479L46.151725414854,-88.76675897774436z" style="fill:rgb(43,180,168)">
    </path>
    <path d="M31.71833086419899,-89.73443960094224L39.131276164419475,-84.86490543555479L46.15172541485397,-88.76675897774436z" style="fill:rgb(74,87,214)">
    </path>
    <path d="M-76.13933279111815,238.66401149526288L-79.72226251736173,251.75198150040788L-63.62271886795001,231.1349004241946z" style="fill:rgb(197,147,42)">
    </path>
    <path d="M56.29573397818808,-85.38567142622466L39.1312761644195,-84.86490543555479L45.81097612015912,-61.88557920271781z" style="fill:rgb(43,180,168)">
    </path>
    <path d="M56.29573397818808,-85.38567142622462L39.131276164419475,-84.86490543555479L45.81097612015909,-61.88557920271781z" style="fill:rgb(74,87,214)">
    </path>
    <path d="M-85.47560933275136,225.5931098642199L-94.76893564279129,230.64018598015832L-85.47782678327502,238.6838697993954z" style="fill:rgb(197,147,42)">
    </path>
    <path d="M-85.47560933275136,225.5931098642199L-76.13933279111815,238.66401149526288L-63.62271886795001,231.1349004241946z" style="fill:rgb(197,147,42)">
    </path>
    <path d="M-175.06108965008346,269.6268104854902L-85.47782678327502,238.68386979939538" style="fill:none;stroke:rgb(197,147,42);stroke-width:5;stroke-linecap:round">
    </path>
    <path d="M39.1312761644195,-84.86490543555479L56.29573397818808,-85.38567142622466L46.151725414854,-88.76675897774436z" style="fill:rgb(43,180,168)">
    </path>
    <path d="M39.131276164419475,-84.86490543555479L56.29573397818808,-85.38567142622462L46.15172541485397,-88.76675897774436z" style="fill:rgb(74,87,214)">
    </path>
    <path d="M-79.72226251736173,251.75198150040788L-76.13933279111815,238.66401149526288L-85.47782678327502,238.6838697993954z" style="fill:rgb(197,147,42)">
    </path>
    <path d="M-76.13933279111815,238.66401149526288L-85.47560933275136,225.5931098642199L-85.47782678327502,238.6838697993954z" style="fill:rgb(197,147,42)">
    </path>
    <path d="M-94.81700727610064,165.81520225299045L-91.24494707402424,182.06489588921173L-85.46683181815074,173.77489104080968z" style="fill:rgb(197,147,42)">
    </path>
    <path d="M-91.24494707402424,182.06489588921173L-79.67459201992286,186.89435261079825L-85.46683181815074,173.77489104080968z" style="fill:rgb(197,147,42)">
    </path>
    <path d="M-76.06866541930862,173.5671881722582L-79.67459201992286,186.89435261079825L-63.473277730290945,166.49349150885888z" style="fill:rgb(197,147,42)">
    </path>
    <path d="M-85.46458601736539,160.51676481439927L-94.81700727610064,165.81520225299045L-85.46683181815074,173.77489104080968z" style="fill:rgb(197,147,42)">
    </path>
    <path d="M-85.46458601736539,160.51676481439927L-76.06866541930862,173.5671881722582L-63.473277730290945,166.49349150885888z" style="fill:rgb(197,147,42)">
    </path>
    <path d="M-175.63171684870446,203.6257532087511L-85.46683181815075,173.77489104080962" style="fill:none;stroke:rgb(197,147,42);stroke-width:5;stroke-linecap:round">
    </path>
    <path d="M-79.67459201992286,186.89435261079825L-76.06866541930862,173.5671881722582L-85.46683181815074,173.77489104080968z" style="fill:rgb(197,147,42)">
    </path>
    <path d="M-76.06866541930862,173.5671881722582L-85.46458601736539,160.51676481439927L-85.46683181815074,173.77489104080968z" style="fill:rgb(197,147,42)">
    </path>
    <path d="M9.360268362696731,-76.47900261065703L-5.863401180477436,-79.2077172118818L-4.098930055105794,-74.63414984732484z" style="fill:rgb(74,87,214)">
    </path>
    <path d="M-5.863401180477436,-79.2077172118818L-18.66305554390259,-75.62250703584394L-4.098930055105794,-74.63414984732484z" style="fill:rgb(74,87,214)">
    </path>
    <path d="M7.914240879032853,-76.0716853293309L-7.311443842167549,-78.80211740905717L-5.55155510779082,-74.22561025932033z" style="fill:rgb(43,180,168)">
    </path>
    <path d="M-7.311443842167549,-78.80211740905717L-20.11944818164552,-75.21456838712051L-5.55155510779082,-74.22561025932033z" style="fill:rgb(43,180,168)">
    </path>
    <path d="M47.53236148333223,-197.6829825428804L-226.64884560466842,-127.3450217453622" style="fill:none;stroke:rgb(1,93,85);stroke-width:5;stroke-linecap:round">
    </path>
    <path d="M47.53236148333223,-197.6829825428804L37.97932207870005,-255.97591446250857" style="fill:none;stroke:rgb(0,0,0);stroke-width:1;stroke-linecap:round">
    </path>
    <path d="M-650.2935835607343,-18.663951708112595L47.53236148333223,-197.6829825428804" style="fill:none;stroke:rgb(22,31,115);stroke-width:5;stroke-linecap:round">
    </path>
    <path d="M47.53236148333223,-197.6829825428804L37.97932207870005,-255.97591446250857" style="fill:none;stroke:rgb(0,0,0);stroke-width:1;stroke-linecap:round">
    </path>
    <path d="M9.360268362696731,-76.47900261065703L6.029269286589132,-71.17714342029771L-4.313701644595371,-47.48290435871423z" style="fill:rgb(74,87,214)">
    </path>
    <path d="M7.914240879032853,-76.0716853293309L4.576142789519072,-70.76639663998503L-5.7626414268769315,-47.06657033955735z" style="fill:rgb(43,180,168)">
    </path>
    <path d="M-11.358229087134518,-70.64301252764332L-18.66305554390259,-75.62250703584394L-4.313701644595371,-47.48290435871423z" style="fill:rgb(74,87,214)">
    </path>
    <path d="M-3.2285975837434933,-184.6608560929139L-4.09893005510581,-74.63414984732484" style="fill:none;stroke:rgb(74,87,214);stroke-width:5;stroke-linecap:round">
    </path>
    <path d="M-12.817812200225724,-70.23187689418535L-20.11944818164552,-75.21456838712051L-5.7626414268769315,-47.06657033955735z" style="fill:rgb(43,180,168)">
    </path>
    <path d="M-4.696153040140062,-184.2843720178143L-5.551555107790837,-74.22561025932033" style="fill:none;stroke:rgb(43,180,168);stroke-width:5;stroke-linecap:round">
    </path>
    <path d="M6.029269286589132,-71.17714342029771L9.360268362696731,-76.47900261065703L-4.098930055105794,-74.63414984732484z" style="fill:rgb(74,87,214)">
    </path>
    <path d="M4.576142789519072,-70.76639663998503L7.914240879032853,-76.0716853293309L-5.55155510779082,-74.22561025932033z" style="fill:rgb(43,180,168)">
    </path>
    <path d="M-18.66305554390259,-75.62250703584394L-11.358229087134518,-70.64301252764332L-4.098930055105794,-74.63414984732484z" style="fill:rgb(74,87,214)">
    </path>
    <path d="M6.029269286589132,-71.17714342029771L-11.358229087134518,-70.64301252764332L-4.313701644595371,-47.48290435871423z" style="fill:rgb(74,87,214)">
    </path>
    <path d="M-20.11944818164552,-75.21456838712051L-12.817812200225724,-70.23187689418535L-5.55155510779082,-74.22561025932033z" style="fill:rgb(43,180,168)">
    </path>
    <path d="M-94.86569379407958,100.16104160888125L-91.27077564921582,116.54717131737632L-85.45569592110073,108.03391806743154z" style="fill:rgb(197,147,42)">
    </path>
    <path d="M4.576142789519072,-70.76639663998503L-12.817812200225724,-70.23187689418535L-5.7626414268769315,-47.06657033955735z" style="fill:rgb(43,180,168)">
    </path>
    <path d="M37.97932207870005,-255.97591446250857L-20.38362733751045,-612.1083758546596" style="fill:none;stroke:rgb(0,0,0);stroke-width:1;stroke-linecap:round">
    </path>
    <path d="M37.97932207870005,-255.97591446250857L-20.38362733751045,-612.1083758546596" style="fill:none;stroke:rgb(0,0,0);stroke-width:1;stroke-linecap:round">
    </path>
    <path d="M-11.358229087134518,-70.64301252764332L6.029269286589132,-71.17714342029771L-4.098930055105794,-74.63414984732484z" style="fill:rgb(74,87,214)">
    </path>
    <path d="M-91.27077564921582,116.54717131737632L-79.62631018639233,121.20497638289892L-85.45569592110073,108.03391806743154z" style="fill:rgb(197,147,42)">
    </path>
    <path d="M-12.817812200225724,-70.23187689418535L4.576142789519072,-70.76639663998503L-5.55155510779082,-74.22561025932033z" style="fill:rgb(43,180,168)">
    </path>
    <path d="M-75.99708960656943,107.6335342556517L-79.62631018639233,121.20497638289892L-63.321930444354784,101.02756993145451z" style="fill:rgb(197,147,42)">
    </path>
    <path d="M-85.45342122286743,94.60519522564239L-94.86569379407958,100.16104160888125L-85.45569592110073,108.03391806743154z" style="fill:rgb(197,147,42)">
    </path>
    <path d="M-85.45342122286743,94.60519522564239L-75.99708960656943,107.6335342556517L-63.321930444354784,101.02756993145451z" style="fill:rgb(197,147,42)">
    </path>
    <path d="M-176.20980492614362,136.76174041323964L-85.45569592110076,108.03391806743156" style="fill:none;stroke:rgb(197,147,42);stroke-width:5;stroke-linecap:round">
    </path>
    <path d="M-79.62631018639233,121.20497638289892L-75.99708960656943,107.6335342556517L-85.45569592110073,108.03391806743154z" style="fill:rgb(197,147,42)">
    </path>
    <path d="M-75.99708960656943,107.6335342556517L-85.45342122286743,94.60519522564239L-85.45569592110073,108.03391806743154z" style="fill:rgb(197,147,42)">
    </path>
    <path d="M-94.91500707015719,33.66169263328994L-91.29693655846549,50.18643581194658L-85.4444163649783,41.44485111873542z" style="fill:rgb(197,147,42)">
    </path>
    <path d="M-91.29693655846549,50.18643581194658L-79.57740518103184,54.66774981876119L-85.4444163649783,41.44485111873542z" style="fill:rgb(197,147,42)">
    </path>
    <path d="M-75.92458772233758,40.84680895975245L-79.57740518103184,54.66774981876119L-63.16864030616844,34.721259230066z" style="fill:rgb(197,147,42)">
    </path>
    <path d="M-237.5466477388341,-189.09439915117653L-230.890768979951,281.0948705879029L-25.097551727696384,166.97106285948115z" style="fill:rgb(0,0,0); fill-opacity: 0.2">
    </path>
    <path d="M-20.38362733751045,-612.1083758546596L-25.097551727696384,166.97106285948115L-237.5466477388341,-189.09439915117653z" style="fill:rgb(0,0,0); fill-opacity: 0.2">
    </path>
    <path d="M-85.44211220793801,27.842217668415945L-94.91500707015719,33.66169263328994L-85.4444163649783,41.44485111873542z" style="fill:rgb(197,147,42)">
    </path>
    <path d="M-85.44211220793801,27.842217668415945L-75.92458772233758,40.84680895975245L-63.16864030616844,34.721259230066z" style="fill:rgb(197,147,42)">
    </path>
    <path d="M-176.7955011703643,69.01773617544853L-85.44441636497835,41.44485111873543" style="fill:none;stroke:rgb(197,147,42);stroke-width:5;stroke-linecap:round">
    </path>
    <path d="M-178.59977110781676,-139.6714461353163L-175.06108965008346,269.6268104854902" style="fill:none;stroke:rgb(104,70,1);stroke-width:5;stroke-linecap:round">
    </path>
    <path d="M-175.06108965008346,269.6268104854902L-230.890768979951,281.0948705879029" style="fill:none;stroke:rgb(160,0,0);stroke-width:4;stroke-linecap:round">
    </path>
    <path d="M-41.81851908590618,-62.062952569675694L-57.11234114357159,-64.85278106674113L-55.51210028448205,-60.17459241046982z" style="fill:rgb(74,87,214)">
    </path>
    <path d="M-57.11234114357159,-64.85278106674113L-70.20917863733213,-61.18432926926779L-55.51210028448205,-60.17459241046982z" style="fill:rgb(74,87,214)">
    </path>
    <path d="M-79.57740518103184,54.66774981876119L-75.92458772233758,40.84680895975245L-85.4444163649783,41.44485111873542z" style="fill:rgb(197,147,42)">
    </path>
    <path d="M-44.77875112415968,-61.22911387743947L-60.076557202869836,-64.02249789830351L-58.485944486519195,-59.338221674026805z" style="fill:rgb(43,180,168)">
    </path>
    <path d="M-75.92458772233758,40.84680895975245L-85.44211220793801,27.842217668415945L-85.4444163649783,41.44485111873542z" style="fill:rgb(197,147,42)">
    </path>
    <path d="M-60.076557202869836,-64.02249789830351L-73.1906882780113,-60.349202132220825L-58.485944486519195,-59.338221674026805z" style="fill:rgb(43,180,168)">
    </path>
    <path d="M-41.81851908590618,-62.062952569675694L-45.40316858969901,-56.63903658382324L-55.59494840137435,-32.74790444311685z" style="fill:rgb(74,87,214)">
    </path>
    <path d="M-63.019497434829965,-56.091057180344976L-70.20917863733213,-61.18432926926779L-55.59494840137435,-32.74790444311685z" style="fill:rgb(74,87,214)">
    </path>
    <path d="M-55.176318917742364,-171.33427975488473L-55.512100284482074,-60.174592410469785" style="fill:none;stroke:rgb(74,87,214);stroke-width:5;stroke-linecap:round">
    </path>
    <path d="M-44.77875112415968,-61.22911387743947L-48.37822297758486,-55.79809533504476L-58.56106808081949,-31.895628494492478z" style="fill:rgb(43,180,168)">
    </path>
    <path d="M-20.38362733751045,-612.1083758546596L-20.38362733751045,-612.1083758546596L37.97932207870005,-255.97591446250857z" style="fill:rgb(0,0,0); fill-opacity: 0.2">
    </path>
    <path d="M-45.40316858969901,-56.63903658382324L-41.81851908590618,-62.062952569675694L-55.51210028448205,-60.17459241046982z" style="fill:rgb(74,87,214)">
    </path>
    <path d="M-66.0078073486864,-55.249309507065725L-73.1906882780113,-60.349202132220825L-58.56106808081949,-31.895628494492478z" style="fill:rgb(43,180,168)">
    </path>
    <path d="M-58.181467758467655,-170.56334419881728L-58.485944486519195,-59.3382216740268" style="fill:none;stroke:rgb(43,180,168);stroke-width:5;stroke-linecap:round">
    </path>
    <path d="M-70.20917863733213,-61.18432926926779L-63.019497434829965,-56.091057180344976L-55.51210028448205,-60.17459241046982z" style="fill:rgb(74,87,214)">
    </path>
    <path d="M-48.37822297758486,-55.79809533504476L-44.77875112415968,-61.22911387743947L-58.485944486519195,-59.338221674026805z" style="fill:rgb(43,180,168)">
    </path>
    <path d="M-45.40316858969901,-56.63903658382324L-63.019497434829965,-56.091057180344976L-55.59494840137435,-32.74790444311685z" style="fill:rgb(74,87,214)">
    </path>
    <path d="M-73.1906882780113,-60.349202132220825L-66.0078073486864,-55.249309507065725L-58.485944486519195,-59.338221674026805z" style="fill:rgb(43,180,168)">
    </path>
    <path d="M-48.37822297758486,-55.79809533504476L-66.0078073486864,-55.249309507065725L-58.56106808081949,-31.895628494492478z" style="fill:rgb(43,180,168)">
    </path>
    <path d="M-63.019497434829965,-56.091057180344976L-45.40316858969901,-56.63903658382324L-55.51210028448205,-60.17459241046982z" style="fill:rgb(74,87,214)">
    </path>
    <path d="M-94.96495928544445,-33.699270999738275L-91.32343625747646,-17.033686403825957L-85.43299035181664,-26.008827653756402z" style="fill:rgb(197,147,42)">
    </path>
    <path d="M-66.0078073486864,-55.249309507065725L-48.37822297758486,-55.79809533504476L-58.485944486519195,-59.338221674026805z" style="fill:rgb(43,180,168)">
    </path>
    <path d="M-91.32343625747646,-17.033686403825957L-79.52786486059172,-12.733848461173038L-85.43299035181664,-26.008827653756402z" style="fill:rgb(197,147,42)">
    </path>
    <path d="M-75.8511416768595,-26.80965149483943L-79.52786486059172,-12.733848461173038L-63.01336966333016,-32.441727304183296z" style="fill:rgb(197,147,42)">
    </path>
    <path d="M-85.4306561599758,-39.788772101312226L-94.96495928544445,-33.699270999738275L-85.43299035181664,-26.008827653756402z" style="fill:rgb(197,147,42)">
    </path>
    <path d="M-85.4306561599758,-39.788772101312226L-75.8511416768595,-26.80965149483943L-63.01336966333016,-32.441727304183296z" style="fill:rgb(197,147,42)">
    </path>
    <path d="M-177.38895677189865,0.3762531849304826L-85.43299035181666,-26.008827653756388" style="fill:none;stroke:rgb(197,147,42);stroke-width:5;stroke-linecap:round">
    </path>
    <path d="M-79.52786486059172,-12.733848461173038L-75.8511416768595,-26.80965149483943L-85.43299035181664,-26.008827653756402z" style="fill:rgb(197,147,42)">
    </path>
    <path d="M-230.890768979951,281.0948705879029L-237.5466477388341,-189.09439915117653" style="fill:none;stroke:rgb(0,0,0);stroke-width:1;stroke-linecap:round">
    </path>
    <path d="M-237.5466477388341,-189.09439915117653L-20.38362733751045,-612.1083758546596" style="fill:none;stroke:rgb(0,0,0);stroke-width:1;stroke-linecap:round">
    </path>
    <path d="M-20.38362733751045,-612.1083758546596L-20.38362733751045,-612.1083758546596" style="fill:none;stroke:rgb(0,0,0);stroke-width:1;stroke-linecap:round">
    </path>
    <path d="M-237.5466477388341,-189.09439915117653L-20.38362733751045,-612.1083758546596" style="fill:none;stroke:rgb(0,0,0);stroke-width:1;stroke-linecap:round">
    </path>
    <path d="M-20.38362733751045,-612.1083758546596L-744.0083122790021,-496.5210937758736" style="fill:none;stroke:rgb(0,0,0);stroke-width:1;stroke-linecap:round">
    </path>
    <path d="M-75.8511416768595,-26.80965149483943L-85.4306561599758,-39.788772101312226L-85.43299035181664,-26.008827653756402z" style="fill:rgb(197,147,42)">
    </path>
    <path d="M-95.01556293876543,-101.9387040549538L-91.35028137024726,-85.12999801105698L-85.42141501051486,-94.344067846596z" style="fill:rgb(197,147,42)">
    </path>
    <path d="M37.97932207870005,-255.97591446250857L-237.5466477388341,-189.09439915117653L47.53236148333223,-197.6829825428804z" style="fill:rgb(0,0,0); fill-opacity: 0.2">
    </path>
    <path d="M-94.19328803456185,-47.31001824494369L-109.55640891582208,-50.16308710225676L-108.12859834785867,-45.37660830485527z" style="fill:rgb(74,87,214)">
    </path>
    <path d="M-91.35028137024726,-85.12999801105698L-79.47767676425848,-81.0167718946845L-85.42141501051486,-94.344067846596z" style="fill:rgb(197,147,42)">
    </path>
    <path d="M-75.77673290614328,-95.35294774265692L-79.47767676425848,-81.0167718946845L-62.85607988417587,-100.47809996423914z" style="fill:rgb(197,147,42)">
    </path>
    <path d="M-109.55640891582208,-50.16308710225676L-122.96090101535914,-46.40846060099712L-108.12859834785867,-45.37660830485527z" style="fill:rgb(74,87,214)">
    </path>
    <path d="M-85.4190501927653,-108.30481290951604L-95.01556293876543,-101.9387040549538L-85.42141501051486,-94.344067846596z" style="fill:rgb(197,147,42)">
    </path>
    <path d="M-85.4190501927653,-108.30481290951604L-75.77673290614328,-95.35294774265692L-62.85607988417587,-100.47809996423914z" style="fill:rgb(197,147,42)">
    </path>
    <path d="M-177.99032695396343,-69.18066230542996L-85.4214150105149,-94.344067846596" style="fill:none;stroke:rgb(197,147,42);stroke-width:5;stroke-linecap:round">
    </path>
    <path d="M-98.73956125167663,-46.02942318856962L-114.1085785135145,-48.88801479941922L-112.69594349866219,-44.09207772159531z" style="fill:rgb(43,180,168)">
    </path>
    <path d="M-94.19328803456185,-47.31001824494369L-98.04262428521359,-41.7597490696673L-108.07326109894844,-17.66894318390713z" style="fill:rgb(74,87,214)">
    </path>
    <path d="M-114.1085785135145,-48.88801479941922L-127.53994414040378,-45.12586096648378L-112.69594349866219,-44.09207772159531z" style="fill:rgb(43,180,168)">
    </path>
    <path d="M-115.8937992910613,-41.19741433648368L-122.96090101535914,-46.40846060099712L-108.07326109894844,-17.66894318390713z" style="fill:rgb(74,87,214)">
    </path>
    <path d="M-108.35291352151337,-157.69245044677658L-108.12859834785868,-45.376608304855246" style="fill:none;stroke:rgb(74,87,214);stroke-width:5;stroke-linecap:round">
    </path>
    <path d="M-79.47767676425848,-81.0167718946845L-75.77673290614328,-95.35294774265692L-85.42141501051486,-94.344067846596z" style="fill:rgb(197,147,42)">
    </path>
    <path d="M-98.04262428521359,-41.7597490696673L-94.19328803456185,-47.31001824494369L-108.12859834785867,-45.37660830485527z" style="fill:rgb(74,87,214)">
    </path>
    <path d="M-75.77673290614328,-95.35294774265692L-85.4190501927653,-108.30481290951604L-85.42141501051486,-94.344067846596z" style="fill:rgb(197,147,42)">
    </path>
    <path d="M-98.73956125167663,-46.02942318856962L-102.61211682130593,-40.46811730144403L-112.62845969845364,-16.360066055829787z" style="fill:rgb(43,180,168)">
    </path>
    <path d="M-122.96090101535914,-46.40846060099712L-115.8937992910613,-41.19741433648368L-108.12859834785867,-45.37660830485527z" style="fill:rgb(74,87,214)">
    </path>
    <path d="M-120.48370900617248,-39.904527743516226L-127.53994414040378,-45.12586096648378L-112.62845969845364,-16.360066055829787z" style="fill:rgb(43,180,168)">
    </path>
    <path d="M-112.9694996259254,-156.50811963184117L-112.6959434986622,-44.09207772159529" style="fill:none;stroke:rgb(43,180,168);stroke-width:5;stroke-linecap:round">
    </path>
    <path d="M-98.04262428521359,-41.7597490696673L-115.8937992910613,-41.19741433648368L-108.07326109894844,-17.66894318390713z" style="fill:rgb(74,87,214)">
    </path>
    <path d="M-102.61211682130593,-40.46811730144403L-98.73956125167663,-46.02942318856962L-112.69594349866219,-44.09207772159531z" style="fill:rgb(43,180,168)">
    </path>
    <path d="M-127.53994414040378,-45.12586096648378L-120.48370900617248,-39.904527743516226L-112.69594349866219,-44.09207772159531z" style="fill:rgb(43,180,168)">
    </path>
    <path d="M-115.8937992910613,-41.19741433648368L-98.04262428521359,-41.7597490696673L-108.12859834785867,-45.37660830485527z" style="fill:rgb(74,87,214)">
    </path>
    <path d="M-102.61211682130593,-40.46811730144403L-120.48370900617248,-39.904527743516226L-112.62845969845364,-16.360066055829787z" style="fill:rgb(43,180,168)">
    </path>
    <path d="M-178.59977110781676,-139.6714461353163L-175.06108965008346,269.6268104854902L-230.890768979951,281.0948705879029z" style="fill:rgb(0,0,0); fill-opacity: 0.2">
    </path>
    <path d="M-120.48370900617248,-39.904527743516226L-102.61211682130593,-40.46811730144403L-112.69594349866219,-44.09207772159531z" style="fill:rgb(43,180,168)">
    </path>
    <path d="M-95.06683085708389,-171.07390379599912L-91.37747869459194,-154.11974259783926L-85.40968739443302,-163.57826500363356z" style="fill:rgb(197,147,42)">
    </path>
    <path d="M37.97932207870005,-255.97591446250857L-237.5466477388341,-189.09439915117653L-20.38362733751045,-612.1083758546596z" style="fill:rgb(0,0,0); fill-opacity: 0.2">
    </path>
    <path d="M-925.7032034546347,-548.6530417973316L-861.396726916527,293.44027962255694" style="fill:none;stroke:rgb(0,0,0);stroke-width:1;stroke-linecap:round">
    </path>
    <path d="M-690.7668484085556,389.31901556516834L-861.396726916527,293.44027962255694" style="fill:none;stroke:rgb(160,0,0);stroke-width:4;stroke-linecap:round">
    </path>
    <path d="M-91.37747869459194,-154.11974259783926L-79.42682810320579,-150.1984201944154L-85.40968739443302,-163.57826500363356z" style="fill:rgb(197,147,42)">
    </path>
    <path d="M-75.70134235631562,-164.80063168347004L-79.42682810320579,-150.1984201944154L-62.696731325735385,-169.4050064879361z" style="fill:rgb(197,147,42)">
    </path>
    <path d="M-85.40729134405284,-177.7233924756152L-95.06683085708389,-171.07390379599912L-85.40968739443302,-163.57826500363356z" style="fill:rgb(197,147,42)">
    </path>
    <path d="M-85.40729134405284,-177.7233924756152L-75.70134235631562,-164.80063168347004L-62.696731325735385,-169.4050064879361z" style="fill:rgb(197,147,42)">
    </path>
    <path d="M-178.59977110781676,-139.6714461353163L-85.40968739443305,-163.57826500363356" style="fill:none;stroke:rgb(197,147,42);stroke-width:5;stroke-linecap:round">
    </path>
    <path d="M-79.42682810320579,-150.1984201944154L-75.70134235631562,-164.80063168347004L-85.40968739443302,-163.57826500363356z" style="fill:rgb(197,147,42)">
    </path>
    <path d="M-75.70134235631562,-164.80063168347004L-85.40729134405284,-177.7233924756152L-85.40968739443302,-163.57826500363356z" style="fill:rgb(197,147,42)">
    </path>
    <path d="M-147.80645690612522,-32.208251207492324L-163.23790336227563,-35.12678731713941L-161.9911704059333,-30.228175502602813z" style="fill:rgb(74,87,214)">
    </path>
    <path d="M-163.23790336227563,-35.12678731713941L-176.961019345041,-31.282913594349875L-161.9911704059333,-30.228175502602813z" style="fill:rgb(74,87,214)">
    </path>
    <path d="M-147.80645690612522,-32.208251207492324L-151.9320917813019,-26.527128020217827L-161.79104966644996,-2.2338346390163486z" style="fill:rgb(74,87,214)">
    </path>
    <path d="M-154.0145031160202,-30.45956763603322L-169.45369052866593,-33.3857322254717L-168.22822383273893,-28.47405234973605z" style="fill:rgb(43,180,168)">
    </path>
    <path d="M-169.45369052866593,-33.3857322254717L-183.21394249289887,-29.53145663596964L-168.22822383273893,-28.47405234973605z" style="fill:rgb(43,180,168)">
    </path>
    <path d="M-170.02436619393922,-25.949906528639374L-176.961019345041,-31.282913594349875L-161.79104966644996,-2.2338346390163486z" style="fill:rgb(74,87,214)">
    </path>
    <path d="M-162.80250859796234,-143.72404785418468L-161.9911704059334,-30.228175502602816" style="fill:none;stroke:rgb(74,87,214);stroke-width:5;stroke-linecap:round">
    </path>
    <path d="M-151.9320917813019,-26.527128020217827L-147.80645690612522,-32.208251207492324L-161.9911704059333,-30.228175502602813z" style="fill:rgb(74,87,214)">
    </path>
    <path d="M-154.0145031160202,-30.45956763603322L-158.17248143196628,-24.763193523066274L-168.01112044939222,-0.44657812209971653z" style="fill:rgb(43,180,168)">
    </path>
    <path d="M-176.961019345041,-31.282913594349875L-170.02436619393922,-25.949906528639374L-161.9911704059333,-30.228175502602813z" style="fill:rgb(74,87,214)">
    </path>
    <path d="M-151.9320917813019,-26.527128020217827L-170.02436619393922,-25.949906528639374L-161.79104966644996,-2.2338346390163486z" style="fill:rgb(74,87,214)">
    </path>
    <path d="M-176.29271932213973,-24.184235693599963L-183.21394249289887,-29.53145663596964L-168.01112044939222,-0.44657812209971653z" style="fill:rgb(43,180,168)">
    </path>
    <path d="M-169.10842992859818,-142.10633797516974L-168.22822383273896,-28.47405234973605" style="fill:none;stroke:rgb(43,180,168);stroke-width:5;stroke-linecap:round">
    </path>
    <path d="M-158.17248143196628,-24.763193523066274L-154.0145031160202,-30.45956763603322L-168.22822383273893,-28.47405234973605z" style="fill:rgb(43,180,168)">
    </path>
    <path d="M-170.02436619393922,-25.949906528639374L-151.9320917813019,-26.527128020217827L-161.9911704059333,-30.228175502602813z" style="fill:rgb(74,87,214)">
    </path>
    <path d="M-325.9218632565549,313.76054732580496L-690.7668484085556,389.31901556516834" style="fill:none;stroke:rgb(160,0,0);stroke-width:4;stroke-linecap:round">
    </path>
    <path d="M-337.2153862595413,-164.9006860654433L-325.9218632565549,313.76054732580496" style="fill:none;stroke:rgb(0,0,0);stroke-width:1;stroke-linecap:round">
    </path>
    <path d="M-365.30453028740385,335.33876728607567L-325.9218632565549,313.76054732580496" style="fill:none;stroke:rgb(160,0,0);stroke-width:4;stroke-linecap:round">
    </path>
    <path d="M-183.21394249289887,-29.53145663596964L-176.29271932213973,-24.184235693599963L-168.22822383273893,-28.47405234973605z" style="fill:rgb(43,180,168)">
    </path>
    <path d="M-158.17248143196628,-24.763193523066274L-176.29271932213973,-24.184235693599963L-168.01112044939222,-0.44657812209971653z" style="fill:rgb(43,180,168)">
    </path>
    <path d="M-176.29271932213973,-24.184235693599963L-158.17248143196628,-24.763193523066274L-168.22822383273893,-28.47405234973605z" style="fill:rgb(43,180,168)">
    </path>
    <path d="M47.53236148333223,-197.6829825428804L-226.64884560466842,-127.3450217453622L-237.5466477388341,-189.09439915117653z" style="fill:rgb(0,0,0); fill-opacity: 0.2">
    </path>
    <path d="M-186.88431924221754,-21.200791925706138L-202.36390244943658,-24.167512473298938L-201.25206753700027,-19.186351110985154z" style="fill:rgb(109,213,75)">
    </path>
    <path d="M-202.36390244943658,-24.167512473298938L-216.32161389011569,-20.257928068089118L-201.25206753700027,-19.186351110985154z" style="fill:rgb(109,213,75)">
    </path>
    <path d="M-186.88431924221754,-21.200791925706138L-191.21475710770898,-15.42332643277508L-200.9442930260904,9.016341089665568z" style="fill:rgb(109,213,75)">
    </path>
    <path d="M-237.5466477388341,-189.09439915117653L-230.890768979951,281.0948705879029L-178.59977110781676,-139.6714461353163z" style="fill:rgb(0,0,0); fill-opacity: 0.2">
    </path>
    <path d="M-209.48321192323147,-14.835131776226405L-216.32161389011569,-20.257928068089118L-200.9442930260904,9.016341089665568z" style="fill:rgb(109,213,75)">
    </path>
    <path d="M-202.50000428951196,-133.5401226852519L-201.2520675370003,-19.186351110985154" style="fill:none;stroke:rgb(109,213,75);stroke-width:5;stroke-linecap:round">
    </path>
    <path d="M-191.21475710770898,-15.42332643277508L-186.88431924221754,-21.200791925706138L-201.25206753700027,-19.186351110985154z" style="fill:rgb(109,213,75)">
    </path>
    <path d="M-216.32161389011569,-20.257928068089118L-209.48321192323147,-14.835131776226405L-201.25206753700027,-19.186351110985154z" style="fill:rgb(109,213,75)">
    </path>
    <path d="M-191.21475710770898,-15.42332643277508L-209.48321192323147,-14.835131776226405L-200.9442930260904,9.016341089665568z" style="fill:rgb(109,213,75)">
    </path>
    <path d="M-202.70247408747727,-16.745131227721366L-218.2011432760418,-19.731467923990248L-217.14461152625177,-14.71669573659187z" style="fill:rgb(74,87,214)">
    </path>
    <path d="M-218.2011432760418,-19.731467923990248L-232.25438015812782,-15.795126641221186L-217.14461152625177,-14.71669573659187z" style="fill:rgb(74,87,214)">
    </path>
    <path d="M-209.48321192323147,-14.835131776226405L-191.21475710770898,-15.42332643277508L-201.25206753700027,-19.186351110985154z" style="fill:rgb(109,213,75)">
    </path>
    <path d="M-202.70247408747727,-16.745131227721366L-207.1166315229284,-10.928436462660681L-216.79275131910802,13.570189647941758z" style="fill:rgb(74,87,214)">
    </path>
    <path d="M-210.65217392867336,-14.505858348570882L-226.16034828785203,-17.502077817718806L-225.13176210416677,-12.470371263253291z" style="fill:rgb(43,180,168)">
    </path>
    <path d="M-225.45650869601462,-10.335770672231112L-232.25438015812782,-15.795126641221186L-216.79275131910802,13.570189647941758z" style="fill:rgb(74,87,214)">
    </path>
    <path d="M-218.57136967695598,-129.4172031000966L-217.1446115262518,-14.71669573659187" style="fill:none;stroke:rgb(74,87,214);stroke-width:5;stroke-linecap:round">
    </path>
    <path d="M-226.16034828785203,-17.502077817718806L-240.26171605580421,-13.5522549723318L-225.13176210416677,-12.470371263253291z" style="fill:rgb(43,180,168)">
    </path>
    <path d="M-207.1166315229284,-10.928436462660681L-202.70247408747727,-16.745131227721366L-217.14461152625177,-14.71669573659187z" style="fill:rgb(74,87,214)">
    </path>
    <path d="M-232.25438015812782,-15.795126641221186L-225.45650869601462,-10.335770672231112L-217.14461152625177,-14.71669573659187z" style="fill:rgb(74,87,214)">
    </path>
    <path d="M-207.1166315229284,-10.928436462660681L-225.45650869601462,-10.335770672231112L-216.79275131910802,13.570189647941758z" style="fill:rgb(74,87,214)">
    </path>
    <path d="M-210.65217392867336,-14.505858348570882L-215.10858420928008,-8.669397871767893L-224.75763507700066,15.858795501401735z" style="fill:rgb(43,180,168)">
    </path>
    <path d="M-233.48437928110718,-8.074478643899234L-240.26171605580421,-13.5522549723318L-224.75763507700066,15.858795501401735z" style="fill:rgb(43,180,168)">
    </path>
    <path d="M-226.64884560466842,-127.3450217453622L-225.1317621041668,-12.470371263253291" style="fill:none;stroke:rgb(43,180,168);stroke-width:5;stroke-linecap:round">
    </path>
    <path d="M-225.45650869601462,-10.335770672231112L-207.1166315229284,-10.928436462660681L-217.14461152625177,-14.71669573659187z" style="fill:rgb(74,87,214)">
    </path>
    <path d="M-215.10858420928008,-8.669397871767893L-210.65217392867336,-14.505858348570882L-225.13176210416677,-12.470371263253291z" style="fill:rgb(43,180,168)">
    </path>
    <path d="M-178.59977110781676,-139.6714461353163L-237.5466477388341,-189.09439915117653" style="fill:none;stroke:rgb(0,0,0);stroke-width:1;stroke-linecap:round">
    </path>
    <path d="M-226.64884560466842,-127.3450217453622L-178.59977110781676,-139.6714461353163" style="fill:none;stroke:rgb(45,114,23);stroke-width:5;stroke-linecap:round">
    </path>
    <path d="M-178.59977110781676,-139.6714461353163L-237.5466477388341,-189.09439915117653" style="fill:none;stroke:rgb(0,0,0);stroke-width:1;stroke-linecap:round">
    </path>
    <path d="M-240.26171605580421,-13.5522549723318L-233.48437928110718,-8.074478643899234L-225.13176210416677,-12.470371263253291z" style="fill:rgb(43,180,168)">
    </path>
    <path d="M-215.10858420928008,-8.669397871767893L-233.48437928110718,-8.074478643899234L-224.75763507700066,15.858795501401735z" style="fill:rgb(43,180,168)">
    </path>
    <path d="M-365.30453028740385,335.33876728607567L-376.98688528302876,-88.7775675657682" style="fill:none;stroke:rgb(80,97,2);stroke-width:5;stroke-linecap:round">
    </path>
    <path d="M-365.30453028740385,335.33876728607567L-466.4308659670318,370.268798930371" style="fill:none;stroke:rgb(162,186,45);stroke-width:5;stroke-linecap:round">
    </path>
    <path d="M-233.48437928110718,-8.074478643899234L-215.10858420928008,-8.669397871767893L-225.13176210416677,-12.470371263253291z" style="fill:rgb(43,180,168)">
    </path>
    <path d="M-650.2935835607343,-18.663951708112595L47.53236148333223,-197.6829825428804L37.97932207870005,-255.97591446250857z" style="fill:rgb(0,0,0); fill-opacity: 0.2">
    </path>
    <path d="M-744.0083122790021,-496.5210937758736L-20.38362733751045,-612.1083758546596L-214.64785139447844,-651.4793756482011z" style="fill:rgb(0,0,0); fill-opacity: 0.2">
    </path>
    <path d="M-367.18573516758164,267.0434861389765L-469.05048966238536,300.767820675256" style="fill:none;stroke:rgb(162,186,45);stroke-width:5;stroke-linecap:round">
    </path>
    <path d="M-226.64884560466842,-127.3450217453622L-178.59977110781676,-139.6714461353163L-237.5466477388341,-189.09439915117653z" style="fill:rgb(0,0,0); fill-opacity: 0.2">
    </path>
    <path d="M-325.9218632565549,313.76054732580496L-337.2153862595413,-164.9006860654433L-365.30453028740385,335.33876728607567z" style="fill:rgb(0,0,0); fill-opacity: 0.2">
    </path>
    <path d="M-258.9279408316463,-0.907531656307532L-274.49258940899136,-3.9641151682449407L-273.63588993220867,1.1710404436131616z" style="fill:rgb(74,87,214)">
    </path>
    <path d="M-274.49258940899136,-3.9641151682449407L-288.8880040684172,0.06807083145945278L-273.63588993220867,1.1710404436131616z" style="fill:rgb(74,87,214)">
    </path>
    <path d="M-663.442655417508,-85.71187452941334L37.97932207870005,-255.97591446250857L-20.38362733751045,-612.1083758546596z" style="fill:rgb(0,0,0); fill-opacity: 0.2">
    </path>
    <path d="M-258.9279408316463,-0.907531656307532L-263.6434960818324,5.049682211491035L-273.12495315920654,29.75651587546349z" style="fill:rgb(74,87,214)">
    </path>
    <path d="M-282.23774286042857,5.658377565941255L-288.8880040684172,0.06807083145945278L-273.12495315920654,29.75651587546349z" style="fill:rgb(74,87,214)">
    </path>
    <path d="M-275.7080317281705,-114.7594651094345L-273.63588993220867,1.1710404436131616" style="fill:none;stroke:rgb(74,87,214);stroke-width:5;stroke-linecap:round">
    </path>
    <path d="M-263.6434960818324,5.049682211491035L-258.9279408316463,-0.907531656307532L-273.63588993220867,1.1710404436131616z" style="fill:rgb(74,87,214)">
    </path>
    <path d="M-226.64884560466842,-127.3450217453622L-237.5466477388341,-189.09439915117653" style="fill:none;stroke:rgb(0,0,0);stroke-width:1;stroke-linecap:round">
    </path>
    <path d="M-226.64884560466842,-127.3450217453622L-237.5466477388341,-189.09439915117653" style="fill:none;stroke:rgb(0,0,0);stroke-width:1;stroke-linecap:round">
    </path>
    <path d="M-288.8880040684172,0.06807083145945278L-282.23774286042857,5.658377565941255L-273.63588993220867,1.1710404436131616z" style="fill:rgb(74,87,214)">
    </path>
    <path d="M-263.6434960818324,5.049682211491035L-282.23774286042857,5.658377565941255L-273.12495315920654,29.75651587546349z" style="fill:rgb(74,87,214)">
    </path>
    <path d="M-282.23774286042857,5.658377565941255L-263.6434960818324,5.049682211491035L-273.63588993220867,1.1710404436131616z" style="fill:rgb(74,87,214)">
    </path>
    <path d="M-237.5466477388341,-189.09439915117653L-237.5466477388341,-189.09439915117653L-226.64884560466842,-127.3450217453622z" style="fill:rgb(0,0,0); fill-opacity: 0.2">
    </path>
    <path d="M-369.09256415504404,197.81794713980483L-471.7065568174739,230.29996457921953" style="fill:none;stroke:rgb(162,186,45);stroke-width:5;stroke-linecap:round">
    </path>
    <path d="M-308.2163230813695,12.976028708708936L-323.8364206688075,9.85719601207107L-323.15908072766206,15.099055747249004z" style="fill:rgb(167,41,160)">
    </path>
    <path d="M-323.8364206688075,9.85719601207107L-338.5351764052757,13.974348487067978L-323.15908072766206,15.099055747249004z" style="fill:rgb(167,41,160)">
    </path>
    <path d="M-308.2163230813695,12.976028708708936L-313.20099150495355,19.057810014851306L-322.50564570507083,43.94541623403877z" style="fill:rgb(167,41,160)">
    </path>
    <path d="M-316.53174319855805,15.318317740889698L-332.16097545739933,12.188921361181027L-331.51428040464435,17.448891189932695z" style="fill:rgb(74,87,214)">
    </path>
    <path d="M-332.01886538185045,19.680733099193183L-338.5351764052757,13.974348487067978L-322.50564570507083,43.94541623403877z" style="fill:rgb(167,41,160)">
    </path>
    <path d="M-325.80952045186393,-101.90651801224935L-323.15908072766206,15.099055747249004" style="fill:none;stroke:rgb(167,41,160);stroke-width:5;stroke-linecap:round">
    </path>
    <path d="M-332.16097545739933,12.188921361181027L-346.9112191326878,16.32049571640689L-331.51428040464435,17.448891189932695z" style="fill:rgb(74,87,214)">
    </path>
    <path d="M-313.20099150495355,19.057810014851306L-308.2163230813695,12.976028708708936L-323.15908072766206,15.099055747249004z" style="fill:rgb(167,41,160)">
    </path>
    <path d="M-338.5351764052757,13.974348487067978L-332.01886538185045,19.680733099193183L-323.15908072766206,15.099055747249004z" style="fill:rgb(167,41,160)">
    </path>
    <path d="M-371.0255443832167,127.64301323130063L-474.39983324575627,158.8449129208182" style="fill:none;stroke:rgb(162,186,45);stroke-width:5;stroke-linecap:round">
    </path>
    <path d="M-313.20099150495355,19.057810014851306L-332.01886538185045,19.680733099193183L-322.50564570507083,43.94541623403877z" style="fill:rgb(167,41,160)">
    </path>
    <path d="M-316.53174319855805,15.318317740889698L-321.56226510258625,21.421242390811393L-330.8365237831849,46.33918579974524z" style="fill:rgb(74,87,214)">
    </path>
    <path d="M-340.41792610671837,22.046582032768175L-346.9112191326878,16.32049571640689L-330.8365237831849,46.33918579974524z" style="fill:rgb(74,87,214)">
    </path>
    <path d="M-334.2634400408322,-99.7377644680162L-331.5142804046445,17.448891189932695" style="fill:none;stroke:rgb(74,87,214);stroke-width:5;stroke-linecap:round">
    </path>
    <path d="M-332.01886538185045,19.680733099193183L-313.20099150495355,19.057810014851306L-323.15908072766206,15.099055747249004z" style="fill:rgb(167,41,160)">
    </path>
    <path d="M-321.56226510258625,21.421242390811393L-316.53174319855805,15.318317740889698L-331.51428040464435,17.448891189932695z" style="fill:rgb(74,87,214)">
    </path>
    <path d="M-346.9112191326878,16.32049571640689L-340.41792610671837,22.046582032768175L-331.51428040464435,17.448891189932695z" style="fill:rgb(74,87,214)">
    </path>
    <path d="M-321.56226510258625,21.421242390811393L-340.41792610671837,22.046582032768175L-330.8365237831849,46.33918579974524z" style="fill:rgb(74,87,214)">
    </path>
    <path d="M-466.9589622394241,356.257928739645L-475.6480912463572,361.2545884874152L-492.3809310229304,379.2322068051079z" style="fill:rgb(162,186,45)">
    </path>
    <path d="M-333.25025381869466,20.027590815258844L-348.8976594158547,16.876901828250993L-348.31291382231535,22.1733772249272z" style="fill:rgb(214,94,68)">
    </path>
    <path d="M-861.396726916527,293.44027962255694L-925.7032034546347,-548.6530417973316L-690.7668484085556,389.31901556516834z" style="fill:rgb(0,0,0); fill-opacity: 0.2">
    </path>
    <path d="M-348.8976594158547,16.876901828250993L-363.7516939001952,21.03754820794153L-348.31291382231535,22.1733772249272z" style="fill:rgb(214,94,68)">
    </path>
    <path d="M-340.41792610671837,22.046582032768175L-321.56226510258625,21.421242390811393L-331.51428040464435,17.448891189932695z" style="fill:rgb(74,87,214)">
    </path>
    <path d="M-460.3923825461401,384.50709586990763L-457.4910834168852,370.6573201124422L-492.3809310229304,379.2322068051079z" style="fill:rgb(162,186,45)">
    </path>
    <path d="M-333.25025381869466,20.027590815258844L-338.3733606702055,26.173136594000773L-347.5860122375438,51.15193366704723z" style="fill:rgb(214,94,68)">
    </path>
    <path d="M-457.4910834168852,370.6573201124422L-466.9589622394241,356.257928739645L-492.3809310229304,379.2322068051079z" style="fill:rgb(162,186,45)">
    </path>
    <path d="M-357.30504597201906,26.803348989599847L-363.7516939001952,21.03754820794153L-347.5860122375438,51.15193366704723z" style="fill:rgb(214,94,68)">
    </path>
    <path d="M-351.26156398593696,-95.37709588543763L-348.3129138223154,22.1733772249272" style="fill:none;stroke:rgb(214,94,68);stroke-width:5;stroke-linecap:round">
    </path>
    <path d="M-365.30453028740385,335.33876728607567L-376.98688528302876,-88.7775675657682L-337.2153862595413,-164.9006860654433z" style="fill:rgb(0,0,0); fill-opacity: 0.2">
    </path>
    <path d="M-338.3733606702055,26.173136594000773L-333.25025381869466,20.027590815258844L-348.31291382231535,22.1733772249272z" style="fill:rgb(214,94,68)">
    </path>
    <path d="M-363.7516939001952,21.03754820794153L-357.30504597201906,26.803348989599847L-348.31291382231535,22.1733772249272z" style="fill:rgb(214,94,68)">
    </path>
    <path d="M-338.3733606702055,26.173136594000773L-357.30504597201906,26.803348989599847L-347.5860122375438,51.15193366704723z" style="fill:rgb(214,94,68)">
    </path>
    <path d="M-357.30504597201906,26.803348989599847L-338.3733606702055,26.173136594000773L-348.31291382231535,22.1733772249272z" style="fill:rgb(214,94,68)">
    </path>
    <path d="M-372.9852175441192,56.49901882086274L-477.13110636885534,86.38177469452027" style="fill:none;stroke:rgb(162,186,45);stroke-width:5;stroke-linecap:round">
    </path>
    <path d="M-469.58591226026545,286.5625764645851L-478.3253280533016,291.8483853379571L-495.19471686064077,309.42338234228436z" style="fill:rgb(162,186,45)">
    </path>
    <path d="M-368.74446523706774,30.02560666286578L-384.4296021810307,26.829473918019143L-383.9778687122192,32.20387060653841z" style="fill:rgb(167,41,160)">
    </path>
    <path d="M-384.4296021810307,26.829473918019143L-399.5051943894189,31.05217908338325L-383.9778687122192,32.20387060653841z" style="fill:rgb(167,41,160)">
    </path>
    <path d="M-325.80952045186376,-101.90651801224942L-650.2935835607343,-18.663951708112595" style="fill:none;stroke:rgb(84,0,79);stroke-width:5;stroke-linecap:round">
    </path>
    <path d="M-325.80952045186376,-101.90651801224942L-337.2153862595413,-164.9006860654433" style="fill:none;stroke:rgb(0,0,0);stroke-width:1;stroke-linecap:round">
    </path>
    <path d="M-376.98688528302876,-88.7775675657682L-325.80952045186376,-101.90651801224942" style="fill:none;stroke:rgb(115,35,18);stroke-width:5;stroke-linecap:round">
    </path>
    <path d="M-325.80952045186376,-101.90651801224942L-337.2153862595413,-164.9006860654433" style="fill:none;stroke:rgb(0,0,0);stroke-width:1;stroke-linecap:round">
    </path>
    <path d="M-462.9716683633033,315.0674604496771L-460.0569790951941,300.94094844353214L-495.19471686064077,309.42338234228436z" style="fill:rgb(162,186,45)">
    </path>
    <path d="M-460.0569790951941,300.94094844353214L-469.58591226026545,286.5625764645851L-495.19471686064077,309.42338234228436z" style="fill:rgb(162,186,45)">
    </path>
    <path d="M-368.74446523706774,30.02560666286578L-374.06588159403805,36.262133030489075L-383.1455436067743,61.36950295137885z" style="fill:rgb(167,41,160)">
    </path>
    <path d="M-375.5651938195569,31.946870715083964L-391.257448778688,28.74196814694894L-390.8315076323942,34.131403672007956z" style="fill:rgb(74,87,214)">
    </path>
    <path d="M-391.257448778688,28.74196814694894L-406.3758041501944,32.97665136447118L-390.8315076323942,34.131403672007956z" style="fill:rgb(74,87,214)">
    </path>
    <path d="M-393.1591989088558,36.90275322877831L-399.5051943894189,31.05217908338325L-383.1455436067743,61.36950295137885z" style="fill:rgb(167,41,160)">
    </path>
    <path d="M-387.35451957975897,-86.11787304304194L-383.9778687122192,32.20387060653841" style="fill:none;stroke:rgb(167,41,160);stroke-width:5;stroke-linecap:round">
    </path>
    <path d="M-374.06588159403805,36.262133030489075L-368.74446523706774,30.02560666286578L-383.9778687122192,32.20387060653841z" style="fill:rgb(167,41,160)">
    </path>
    <path d="M-744.0083122790021,-496.5210937758736L-690.7668484085556,389.31901556516834" style="fill:none;stroke:rgb(0,0,0);stroke-width:1;stroke-linecap:round">
    </path>
    <path d="M-375.5651938195569,31.946870715083964L-380.92499034155935,38.20095724127834L-389.97875467629194,63.33293736260035z" style="fill:rgb(74,87,214)">
    </path>
    <path d="M-399.5051943894189,31.05217908338325L-393.1591989088558,36.90275322877831L-383.9778687122192,32.20387060653841z" style="fill:rgb(167,41,160)">
    </path>
    <path d="M-374.06588159403805,36.262133030489075L-393.1591989088558,36.90275322877831L-383.1455436067743,61.36950295137885z" style="fill:rgb(167,41,160)">
    </path>
    <path d="M-337.2153862595413,-164.9006860654433L-744.0083122790021,-496.5210937758736" style="fill:none;stroke:rgb(0,0,0);stroke-width:1;stroke-linecap:round">
    </path>
    <path d="M-337.2153862595413,-164.9006860654433L-744.0083122790021,-496.5210937758736" style="fill:none;stroke:rgb(0,0,0);stroke-width:1;stroke-linecap:round">
    </path>
    <path d="M-376.98688528302876,-88.7775675657682L-337.2153862595413,-164.9006860654433" style="fill:none;stroke:rgb(0,0,0);stroke-width:1;stroke-linecap:round">
    </path>
    <path d="M-376.98688528302876,-88.7775675657682L-337.2153862595413,-164.9006860654433" style="fill:none;stroke:rgb(0,0,0);stroke-width:1;stroke-linecap:round">
    </path>
    <path d="M-925.7032034546347,-548.6530417973316L-214.64785139447844,-651.4793756482011L-744.0083122790021,-496.5210937758736z" style="fill:rgb(0,0,0); fill-opacity: 0.2">
    </path>
    <path d="M-400.0494032225699,38.843587217446796L-406.3758041501944,32.97665136447118L-389.97875467629194,63.33293736260035z" style="fill:rgb(74,87,214)">
    </path>
    <path d="M-394.2911017298372,-84.33837455544368L-390.8315076323944,34.13140367200796" style="fill:none;stroke:rgb(74,87,214);stroke-width:5;stroke-linecap:round">
    </path>
    <path d="M-380.92499034155935,38.20095724127834L-375.5651938195569,31.946870715083964L-390.8315076323942,34.131403672007956z" style="fill:rgb(74,87,214)">
    </path>
    <path d="M-393.1591989088558,36.90275322877831L-374.06588159403805,36.262133030489075L-383.9778687122192,32.20387060653841z" style="fill:rgb(167,41,160)">
    </path>
    <path d="M-374.9721403944661,-15.634248592953586L-479.90118598409197,12.889065247359236" style="fill:none;stroke:rgb(162,186,45);stroke-width:5;stroke-linecap:round">
    </path>
    <path d="M-406.3758041501944,32.97665136447118L-400.0494032225699,38.843587217446796L-390.8315076323942,34.131403672007956z" style="fill:rgb(74,87,214)">
    </path>
    <path d="M-380.92499034155935,38.20095724127834L-400.0494032225699,38.843587217446796L-389.97875467629194,63.33293736260035z" style="fill:rgb(74,87,214)">
    </path>
    <path d="M-376.98688528302876,-88.7775675657682L-325.80952045186376,-101.90651801224942L-337.2153862595413,-164.9006860654433z" style="fill:rgb(0,0,0); fill-opacity: 0.2">
    </path>
    <path d="M-400.0494032225699,38.843587217446796L-380.92499034155935,38.20095724127834L-390.8315076323942,34.131403672007956z" style="fill:rgb(74,87,214)">
    </path>
    <path d="M-337.2153862595413,-164.9006860654433L-337.2153862595413,-164.9006860654433L-376.98688528302876,-88.7775675657682z" style="fill:rgb(0,0,0); fill-opacity: 0.2">
    </path>
    <path d="M-472.2494592632879,215.89627325970451L-481.03972515075725,221.47881777276217L-498.04785718960784,238.63818976532306z" style="fill:rgb(162,186,45)">
    </path>
    <path d="M-465.5868557404061,244.66128180394088L-462.6586835756985,230.2516378574348L-498.04785718960784,238.63818976532306z" style="fill:rgb(162,186,45)">
    </path>
    <path d="M-462.6586835756985,230.2516378574348L-472.2494592632879,215.89627325970451L-498.04785718960784,238.63818976532306z" style="fill:rgb(162,186,45)">
    </path>
    <path d="M-376.98688528302876,-88.7775675657682L-482.7109050649687,-61.65531495860333" style="fill:none;stroke:rgb(162,186,45);stroke-width:5;stroke-linecap:round">
    </path>
    <path d="M-430.83548645225545,47.515416671215526L-446.58384396966966,44.23900809898098L-446.3696651494551,49.7510819562347z" style="fill:rgb(167,41,160)">
    </path>
    <path d="M-474.95037338150246,144.23858680193956L-483.79206162795964,150.1256882412744L-500.9411834606847,166.85600113378533z" style="fill:rgb(162,186,45)">
    </path>
    <path d="M-446.58384396966966,44.23900809898098L-462.05095223803517,48.57137773827989L-446.3696651494551,49.7510819562347z" style="fill:rgb(167,41,160)">
    </path>
    <path d="M-436.0821843497666,48.99330747737015L-451.8357216932686,45.71007012326167L-451.64190038833266,51.23385743802367z" style="fill:rgb(74,87,214)">
    </path>
    <path d="M-430.83548645225545,47.515416671215526L-436.5095241121604,53.91271277494275L-445.34936779949015,79.24296356704409z" style="fill:rgb(167,41,160)">
    </path>
    <path d="M-451.8357216932686,45.71007012326167L-467.3361427756971,50.05177075202171L-451.64190038833266,51.23385743802367z" style="fill:rgb(74,87,214)">
    </path>
    <path d="M-468.23869951154126,173.2682382592116L-465.29695172969184,158.56887821099642L-500.9411834606847,166.85600113378533z" style="fill:rgb(162,186,45)">
    </path>
    <path d="M-455.8863368454933,54.57174470948196L-462.05095223803517,48.57137773827989L-445.34936779949015,79.24296356704409z" style="fill:rgb(167,41,160)">
    </path>
    <path d="M-450.5096578904176,-69.91616582234546L-446.36966514945516,49.7510819562347" style="fill:none;stroke:rgb(167,41,160);stroke-width:5;stroke-linecap:round">
    </path>
    <path d="M-465.29695172969184,158.56887821099642L-474.95037338150246,144.23858680193956L-500.9411834606847,166.85600113378533z" style="fill:rgb(162,186,45)">
    </path>
    <path d="M-436.5095241121604,53.91271277494275L-430.83548645225545,47.515416671215526L-446.3696651494551,49.7510819562347z" style="fill:rgb(167,41,160)">
    </path>
    <path d="M-436.0821843497666,48.99330747737015L-441.7863516905841,55.40428280857217L-450.60551225466554,80.75324837877477z" style="fill:rgb(74,87,214)">
    </path>
    <path d="M-462.05095223803517,48.57137773827989L-455.8863368454933,54.57174470948196L-446.3696651494551,49.7510819562347z" style="fill:rgb(167,41,160)">
    </path>
    <path d="M-461.1871634402798,56.06488249680737L-467.3361427756971,50.05177075202171L-450.60551225466554,80.75324837877477z" style="fill:rgb(74,87,214)">
    </path>
    <path d="M-455.8472488152814,-68.54686970896977L-451.6419003883328,51.233857438023676" style="fill:none;stroke:rgb(74,87,214);stroke-width:5;stroke-linecap:round">
    </path>
    <path d="M-436.5095241121604,53.91271277494275L-455.8863368454933,54.57174470948196L-445.34936779949015,79.24296356704409z" style="fill:rgb(167,41,160)">
    </path>
    <path d="M-441.7863516905841,55.40428280857217L-436.0821843497666,48.99330747737015L-451.64190038833266,51.23385743802367z" style="fill:rgb(74,87,214)">
    </path>
    <path d="M-467.3361427756971,50.05177075202171L-461.1871634402798,56.06488249680737L-451.64190038833266,51.23385743802367z" style="fill:rgb(74,87,214)">
    </path>
    <path d="M-455.8863368454933,54.57174470948196L-436.5095241121604,53.91271277494275L-446.3696651494551,49.7510819562347z" style="fill:rgb(167,41,160)">
    </path>
    <path d="M-441.7863516905841,55.40428280857217L-461.1871634402798,56.06488249680737L-450.60551225466554,80.75324837877477z" style="fill:rgb(74,87,214)">
    </path>
    <path d="M-690.7668484085556,389.31901556516834L-744.0083122790021,-496.5210937758736L-325.9218632565549,313.76054732580496z" style="fill:rgb(0,0,0); fill-opacity: 0.2">
    </path>
    <path d="M-325.9218632565549,313.76054732580496L-337.2153862595413,-164.9006860654433L-744.0083122790021,-496.5210937758736z" style="fill:rgb(0,0,0); fill-opacity: 0.2">
    </path>
    <path d="M-461.1871634402798,56.06488249680737L-441.7863516905841,55.40428280857217L-451.64190038833266,51.23385743802367z" style="fill:rgb(74,87,214)">
    </path>
    <path d="M-477.68944650908105,71.56850742502144L-486.5831385062225,77.76823061332155L-503.87555071249545,94.05560330471697z" style="fill:rgb(162,186,45)">
    </path>
    <path d="M-663.442655417508,-85.71187452941334L37.97932207870005,-255.97591446250857L-650.2935835607343,-18.663951708112595z" style="fill:rgb(0,0,0); fill-opacity: 0.2">
    </path>
    <path d="M-470.9279758207718,100.86743443413508L-467.9725597961432,85.87157879312579L-503.87555071249545,94.05560330471697z" style="fill:rgb(162,186,45)">
    </path>
    <path d="M-467.9725597961432,85.87157879312579L-477.68944650908105,71.56850742502144L-503.87555071249545,94.05560330471697z" style="fill:rgb(162,186,45)">
    </path>
    <path d="M-337.2153862595413,-164.9006860654433L-663.442655417508,-85.71187452941334L-325.80952045186376,-101.90651801224942z" style="fill:rgb(0,0,0); fill-opacity: 0.2">
    </path>
    <path d="M-494.55071038616137,65.46273239310442L-510.360259590067,62.10291659066953L-510.3962956631166,67.75807777598682z" style="fill:rgb(167,41,160)">
    </path>
    <path d="M-510.360259590067,62.10291659066953L-526.2343359804755,66.5492788590695L-510.3962956631166,67.75807777598682z" style="fill:rgb(167,41,160)">
    </path>
    <path d="M-498.1393495603169,66.4735809202526L-513.9522343122239,63.10903628424084L-514.0025574968363,68.77231109177664z" style="fill:rgb(74,87,214)">
    </path>
    <path d="M-513.9522343122239,63.10903628424084L-529.8493894101463,67.5618629472783L-514.0025574968363,68.77231109177664z" style="fill:rgb(74,87,214)">
    </path>
    <path d="M-744.0083122790021,-496.5210937758736L-925.7032034546347,-548.6530417973316" style="fill:none;stroke:rgb(0,0,0);stroke-width:1;stroke-linecap:round">
    </path>
    <path d="M-744.0083122790021,-496.5210937758736L-925.7032034546347,-548.6530417973316" style="fill:none;stroke:rgb(0,0,0);stroke-width:1;stroke-linecap:round">
    </path>
    <path d="M-480.4674930754373,-2.1355724176265536L-489.41377951616835,4.385090029760978L-506.851838413874,20.21517703210094z" style="fill:rgb(162,186,45)">
    </path>
    <path d="M-494.55071038616137,65.46273239310442L-500.5941522156797,72.02714033106339L-509.17841004312487,97.58340947182873z" style="fill:rgb(167,41,160)">
    </path>
    <path d="M-520.2628660088375,72.70533700717907L-526.2343359804755,66.5492788590695L-509.17841004312487,97.58340947182873z" style="fill:rgb(167,41,160)">
    </path>
    <path d="M-515.3389595325582,-53.284971708549705L-510.3962956631166,67.75807777598682" style="fill:none;stroke:rgb(167,41,160);stroke-width:5;stroke-linecap:round">
    </path>
    <path d="M-498.1393495603169,66.4735809202526L-504.20382516832876,73.04746550321586L-512.7734015021363,98.61638355485653z" style="fill:rgb(74,87,214)">
    </path>
    <path d="M-500.5941522156797,72.02714033106339L-494.55071038616137,65.46273239310442L-510.3962956631166,67.75807777598682z" style="fill:rgb(167,41,160)">
    </path>
    <path d="M-523.8890095686698,73.72674977642109L-529.8493894101463,67.5618629472783L-512.7734015021363,98.61638355485653z" style="fill:rgb(74,87,214)">
    </path>
    <path d="M-518.9910139201276,-52.34808015032988L-514.0025574968363,68.77231109177664" style="fill:none;stroke:rgb(74,87,214);stroke-width:5;stroke-linecap:round">
    </path>
    <path d="M-526.2343359804755,66.5492788590695L-520.2628660088375,72.70533700717907L-510.3962956631166,67.75807777598682z" style="fill:rgb(167,41,160)">
    </path>
    <path d="M-473.6554828794873,27.437380849913563L-470.686306143136,12.138047636167851L-506.851838413874,20.21517703210094z" style="fill:rgb(162,186,45)">
    </path>
    <path d="M-504.20382516832876,73.04746550321586L-498.1393495603169,66.4735809202526L-514.0025574968363,68.77231109177664z" style="fill:rgb(74,87,214)">
    </path>
    <path d="M-500.5941522156797,72.02714033106339L-520.2628660088375,72.70533700717907L-509.17841004312487,97.58340947182873z" style="fill:rgb(167,41,160)">
    </path>
    <path d="M-470.686306143136,12.138047636167851L-480.4674930754373,-2.1355724176265536L-506.851838413874,20.21517703210094z" style="fill:rgb(162,186,45)">
    </path>
    <path d="M-529.8493894101463,67.5618629472783L-523.8890095686698,73.72674977642109L-514.0025574968363,68.77231109177664z" style="fill:rgb(74,87,214)">
    </path>
    <path d="M-504.20382516832876,73.04746550321586L-523.8890095686698,73.72674977642109L-512.7734015021363,98.61638355485653z" style="fill:rgb(74,87,214)">
    </path>
    <path d="M-520.2628660088375,72.70533700717907L-500.5941522156797,72.02714033106339L-510.3962956631166,67.75807777598682z" style="fill:rgb(167,41,160)">
    </path>
    <path d="M-523.8890095686698,73.72674977642109L-504.20382516832876,73.04746550321586L-514.0025574968363,68.77231109177664z" style="fill:rgb(74,87,214)">
    </path>
    <path d="M-744.0083122790021,-496.5210937758736L-20.38362733751045,-612.1083758546596L-663.442655417508,-85.71187452941334z" style="fill:rgb(0,0,0); fill-opacity: 0.2">
    </path>
    <path d="M-483.28535085259017,-76.89587957292083L-492.2848319082458,-70.04569810985609L-509.8709513426674,-54.68772483589155z" style="fill:rgb(162,186,45)">
    </path>
    <path d="M-476.4220417562913,-47.04402733506998L-473.43901206210427,-62.65403006376475L-509.8709513426674,-54.68772483589155z" style="fill:rgb(162,186,45)">
    </path>
    <path d="M-473.43901206210427,-62.65403006376475L-483.28535085259017,-76.89587957292083L-509.8709513426674,-54.68772483589155z" style="fill:rgb(162,186,45)">
    </path>
    <path d="M-559.9547114750935,83.88574316735016L-575.8231948020522,80.43922277609003L-576.1228688864581,86.24316936653695z" style="fill:rgb(167,41,160)">
    </path>
    <path d="M-575.8231948020522,80.43922277609003L-592.1205153389507,85.00413662235769L-576.1228688864581,86.24316936653695z" style="fill:rgb(167,41,160)">
    </path>
    <path d="M-561.7962441206377,84.40446641371325L-577.6663299283516,80.95548881132797L-577.9735266583635,86.76365258570901z" style="fill:rgb(74,87,214)">
    </path>
    <path d="M-690.7668484085556,389.31901556516834L-744.0083122790021,-496.5210937758736L-925.7032034546347,-548.6530417973316z" style="fill:rgb(0,0,0); fill-opacity: 0.2">
    </path>
    <path d="M-577.6663299283516,80.95548881132797L-593.9756479326644,85.52376317351577L-577.9735266583635,86.76365258570901z" style="fill:rgb(74,87,214)">
    </path>
    <path d="M-559.9547114750935,83.88574316735016L-566.3853135203086,90.6239436605705L-574.6972072679016,116.40938451405025z" style="fill:rgb(167,41,160)">
    </path>
    <path d="M-561.7962441206377,84.40446641371325L-568.2378639642196,91.14759327520316L-576.5419422466192,116.9394451400063z" style="fill:rgb(74,87,214)">
    </path>
    <path d="M-586.3547084687605,91.32209906235188L-592.1205153389507,85.00413662235769L-574.6972072679016,116.40938451405025z" style="fill:rgb(167,41,160)">
    </path>
    <path d="M-581.9098886492732,-36.206983569986356L-576.1228688864583,86.24316936653696" style="fill:none;stroke:rgb(167,41,160);stroke-width:5;stroke-linecap:round">
    </path>
    <path d="M-588.2157402738889,91.84631483548901L-593.9756479326644,85.52376317351577L-576.5419422466192,116.9394451400063z" style="fill:rgb(74,87,214)">
    </path>
    <path d="M-583.7846197399313,-35.72604337951484L-577.9735266583635,86.76365258570901" style="fill:none;stroke:rgb(74,87,214);stroke-width:5;stroke-linecap:round">
    </path>
    <path d="M-566.3853135203086,90.6239436605705L-559.9547114750935,83.88574316735016L-576.1228688864581,86.24316936653695z" style="fill:rgb(167,41,160)">
    </path>
    <path d="M-568.2378639642196,91.14759327520316L-561.7962441206377,84.40446641371325L-577.9735266583635,86.76365258570901z" style="fill:rgb(74,87,214)">
    </path>
    <path d="M-592.1205153389507,85.00413662235769L-586.3547084687605,91.32209906235188L-576.1228688864581,86.24316936653695z" style="fill:rgb(167,41,160)">
    </path>
    <path d="M-566.3853135203086,90.6239436605705L-586.3547084687605,91.32209906235188L-574.6972072679016,116.40938451405025z" style="fill:rgb(167,41,160)">
    </path>
    <path d="M-593.9756479326644,85.52376317351577L-588.2157402738889,91.84631483548901L-577.9735266583635,86.76365258570901z" style="fill:rgb(74,87,214)">
    </path>
    <path d="M-568.2378639642196,91.14759327520316L-588.2157402738889,91.84631483548901L-576.5419422466192,116.9394451400063z" style="fill:rgb(74,87,214)">
    </path>
    <path d="M-586.3547084687605,91.32209906235188L-566.3853135203086,90.6239436605705L-576.1228688864581,86.24316936653695z" style="fill:rgb(167,41,160)">
    </path>
    <path d="M-588.2157402738889,91.84631483548901L-568.2378639642196,91.14759327520316L-577.9735266583635,86.76365258570901z" style="fill:rgb(74,87,214)">
    </path>
    <path d="M-325.80952045186376,-101.90651801224942L-650.2935835607343,-18.663951708112595L-663.442655417508,-85.71187452941334z" style="fill:rgb(0,0,0); fill-opacity: 0.2">
    </path>
    <path d="M-627.1155332307172,102.8036155025403L-643.0404441162187,99.26691604060858L-643.6179973083644,105.22565346098837z" style="fill:rgb(167,41,160)">
    </path>
    <path d="M-627.1155332307171,102.80361550254023L-643.0404441162184,99.26691604060848L-643.617997308364,105.22565346098827z" style="fill:rgb(74,87,214)">
    </path>
    <path d="M-643.0404441162187,99.26691604060858L-659.7781644486679,103.95518679821944L-643.6179973083644,105.22565346098837z" style="fill:rgb(167,41,160)">
    </path>
    <path d="M-643.0404441162184,99.26691604060848L-659.7781644486677,103.95518679821936L-643.617997308364,105.22565346098827z" style="fill:rgb(74,87,214)">
    </path>
    <path d="M-627.1155332307171,102.80361550254023L-633.9520937336121,109.7226508169439L-641.9737592299686,135.74042754006038z" style="fill:rgb(74,87,214)">
    </path>
    <path d="M-627.1155332307172,102.8036155025403L-633.9520937336124,109.72265081694398L-641.9737592299688,135.74042754006047z" style="fill:rgb(167,41,160)">
    </path>
    <path d="M-337.2153862595413,-164.9006860654433L-663.442655417508,-85.71187452941334L-744.0083122790021,-496.5210937758736z" style="fill:rgb(0,0,0); fill-opacity: 0.2">
    </path>
    <path d="M-654.2313467173681,110.44160271585683L-659.7781644486677,103.95518679821936L-641.9737592299686,135.74042754006038z" style="fill:rgb(74,87,214)">
    </path>
    <path d="M-654.2313467173685,110.44160271585693L-659.7781644486679,103.95518679821944L-641.9737592299688,135.74042754006047z" style="fill:rgb(167,41,160)">
    </path>
    <path d="M-650.293583560734,-18.663951708112677L-643.6179973083642,105.2256534609883" style="fill:none;stroke:rgb(74,87,214);stroke-width:5;stroke-linecap:round">
    </path>
    <path d="M-650.2935835607343,-18.663951708112595L-643.6179973083646,105.22565346098837" style="fill:none;stroke:rgb(167,41,160);stroke-width:5;stroke-linecap:round">
    </path>
    <path d="M-633.9520937336124,109.72265081694398L-627.1155332307172,102.8036155025403L-643.6179973083644,105.22565346098837z" style="fill:rgb(167,41,160)">
    </path>
    <path d="M-633.9520937336121,109.7226508169439L-627.1155332307171,102.80361550254023L-643.617997308364,105.22565346098827z" style="fill:rgb(74,87,214)">
    </path>
    <path d="M-659.7781644486679,103.95518679821944L-654.2313467173685,110.44160271585693L-643.6179973083644,105.22565346098837z" style="fill:rgb(167,41,160)">
    </path>
    <path d="M-659.7781644486677,103.95518679821936L-654.2313467173681,110.44160271585683L-643.617997308364,105.22565346098827z" style="fill:rgb(74,87,214)">
    </path>
    <path d="M-633.9520937336121,109.7226508169439L-654.2313467173681,110.44160271585683L-641.9737592299686,135.74042754006038z" style="fill:rgb(74,87,214)">
    </path>
    <path d="M-633.9520937336124,109.72265081694398L-654.2313467173685,110.44160271585693L-641.9737592299688,135.74042754006047z" style="fill:rgb(167,41,160)">
    </path>
    <path d="M-654.2313467173685,110.44160271585693L-633.9520937336124,109.72265081694398L-643.6179973083644,105.22565346098837z" style="fill:rgb(167,41,160)">
    </path>
    <path d="M-654.2313467173681,110.44160271585683L-633.9520937336121,109.7226508169439L-643.617997308364,105.22565346098827z" style="fill:rgb(74,87,214)">
    </path>
    <path d="M-744.0083122790021,-496.5210937758736L-744.0083122790021,-496.5210937758736L-337.2153862595413,-164.9006860654433z" style="fill:rgb(0,0,0); fill-opacity: 0.2">
    </path>
    <path d="M-650.2935835607343,-18.663951708112595L-663.442655417508,-85.71187452941334" style="fill:none;stroke:rgb(0,0,0);stroke-width:1;stroke-linecap:round">
    </path>
    <path d="M-650.2935835607343,-18.663951708112595L-663.442655417508,-85.71187452941334" style="fill:none;stroke:rgb(0,0,0);stroke-width:1;stroke-linecap:round">
    </path>
    <path d="M-663.442655417508,-85.71187452941334L-744.0083122790021,-496.5210937758736" style="fill:none;stroke:rgb(0,0,0);stroke-width:1;stroke-linecap:round">
    </path>
    <path d="M-663.442655417508,-85.71187452941334L-744.0083122790021,-496.5210937758736" style="fill:none;stroke:rgb(0,0,0);stroke-width:1;stroke-linecap:round">
    </path>
    <path d="M-744.0083122790021,-496.5210937758736L-744.0083122790021,-496.5210937758736" style="fill:none;stroke:rgb(0,0,0);stroke-width:1;stroke-linecap:round">
    </path>
</svg>