<svg viewBox="-1163.5 -590 2327 1180" width="2327" height="1180" style="background-color: rgb(255, 255, 255);">
    <path d="M-145.92535752663125,250.51508740574562L-121.64209589040026,-575.3587958890241" style="fill:none;stroke:rgb(0,0,0);stroke-width:1;stroke-linecap:round">
    </path>
    <path d="M-8.647871851981163,294.62640779891166L-145.92535752663125,250.51508740574562" style="fill:none;stroke:rgb(160,0,0);stroke-width:3;stroke-linecap:round">
    </path>
    <path d="M-8.64787185198145,294.62640779891154L18.545474302454867,-537.7487136408192" style="fill:none;stroke:rgb(0,0,0);stroke-width:1;stroke-linecap:round">
    </path>
    <path d="M-106.7972466030911,358.25143144046535L-8.64787185198145,294.62640779891154" style="fill:none;stroke:rgb(160,0,0);stroke-width:3;stroke-linecap:round">
    </path>
    <path d="M18.54547430245516,-537.7487136408191L-8.647871851981163,294.62640779891166L-145.92535752663125,250.51508740574562z" style="fill:rgb(0,0,0); fill-opacity: 0.2">
    </path>
    <path d="M87.80598126605301,325.619886424596L-106.79724660309081,358.25143144046547" style="fill:none;stroke:rgb(160,0,0);stroke-width:3;stroke-linecap:round">
    </path>
    <path d="M102.2962278890691,-88.75735008127702L87.80598126605301,325.619886424596" style="fill:none;stroke:rgb(50,34,0);stroke-width:5;stroke-linecap:round">
    </path>
    <path d="M87.80598126605301,325.619886424596L141.90109731243538,343.0022487537169" style="fill:none;stroke:rgb(197,147,42);stroke-width:5;stroke-linecap:round">
    </path>
    <path d="M89.24236954062464,284.5435252520401L143.39496341927114,301.80312692425116" style="fill:none;stroke:rgb(197,147,42);stroke-width:5;stroke-linecap:round">
    </path>
    <path d="M-121.64209589040026,-575.3587958890241L-145.92535752663125,250.51508740574562L18.54547430245516,-537.7487136408191z" style="fill:rgb(0,0,0); fill-opacity: 0.2">
    </path>
    <path d="M90.68154411292079,243.3874843900188L144.89173718115953,260.5238152878084" style="fill:none;stroke:rgb(197,147,42);stroke-width:5;stroke-linecap:round">
    </path>
    <path d="M92.12351309807893,202.15153177014366L146.3914270955428,219.16407949463755" style="fill:none;stroke:rgb(197,147,42);stroke-width:5;stroke-linecap:round">
    </path>
    <path d="M147.71371593940026,338.4398413584386L142.21208005480938,334.4256997368403L155.48234579664495,347.36630597899295z" style="fill:rgb(197,147,42)">
    </path>
    <path d="M93.56828464278085,160.83543442194662L147.89404169300616,177.72368428093375" style="fill:none;stroke:rgb(197,147,42);stroke-width:5;stroke-linecap:round">
    </path>
    <path d="M136.27543956476623,342.26654147741124L138.11468496249827,351.12356235376467L155.48234579664495,347.36630597899295z" style="fill:rgb(197,147,42)">
    </path>
    <path d="M142.21208005480938,334.4256997368403L136.27543956476623,342.26654147741124L155.48234579664495,347.36630597899295z" style="fill:rgb(197,147,42)">
    </path>
    <path d="M18.54547430245516,-537.7487136408191L-121.64209589040026,-575.3587958890241" style="fill:none;stroke:rgb(0,0,0);stroke-width:1;stroke-linecap:round">
    </path>
    <path d="M-121.64209589040026,-575.3587958890241L-632.9325915276765,-444.34584225505716" style="fill:none;stroke:rgb(0,0,0);stroke-width:1;stroke-linecap:round">
    </path>
    <path d="M18.54547430245516,-537.7487136408191L-121.64209589040026,-575.3587958890241" style="fill:none;stroke:rgb(0,0,0);stroke-width:1;stroke-linecap:round">
    </path>
    <path d="M149.21264381104692,297.25248369406546L143.7065512239973,293.20989097844034L156.99069840649625,306.1363814096468z" style="fill:rgb(197,147,42)">
    </path>
    <path d="M95.01586692540658,119.4389584684925L149.39958953744008,136.20239346437714" style="fill:none;stroke:rgb(197,147,42);stroke-width:5;stroke-linecap:round">
    </path>
    <path d="M137.76460826188412,301.0453308172364L139.6050454413806,309.9274793342084L156.99069840649625,306.1363814096468z" style="fill:rgb(197,147,42)">
    </path>
    <path d="M143.7065512239973,293.20989097844034L137.76460826188412,301.0453308172364L156.99069840649625,306.1363814096468z" style="fill:rgb(197,147,42)">
    </path>
    <path d="M150.714488041755,255.98499067026964L145.20393181581306,251.91384366535755L158.5019893679207,264.82613874164883z" style="fill:rgb(197,147,42)">
    </path>
    <path d="M96.46626815618828,77.96186912196595L150.90807922620257,94.5999699396461" style="fill:none;stroke:rgb(197,147,42);stroke-width:5;stroke-linecap:round">
    </path>
    <path d="M139.25667697618132,259.74384569299275L141.09830709436602,268.6512029581437L158.5019893679207,264.82613874164883z" style="fill:rgb(197,147,42)">
    </path>
    <path d="M145.20393181581306,251.91384366535755L139.25667697618132,259.74384569299275L158.5019893679207,264.82613874164883z" style="fill:rgb(197,147,42)">
    </path>
    <path d="M102.2962278890691,-88.75735008127702L87.80598126605301,325.619886424596L-106.79724660309081,358.25143144046547z" style="fill:rgb(0,0,0); fill-opacity: 0.2">
    </path>
    <path d="M152.21925715104615,214.6371281886754L146.70423033459045,210.53732325777943L160.01622727538864,223.43534305024713z" style="fill:rgb(197,147,42)">
    </path>
    <path d="M97.91949657736579,36.403930679232786L152.41951939028314,52.916175673904235" style="fill:none;stroke:rgb(197,147,42);stroke-width:5;stroke-linecap:round">
    </path>
    <path d="M140.75165418718407,218.36185138558312L142.59447840095828,227.29449883775754L160.01622727538864,223.43534305024713z" style="fill:rgb(197,147,42)">
    </path>
    <path d="M146.70423033459045,210.53732325777943L140.75165418718407,218.36185138558312L160.01622727538864,223.43534305024713z" style="fill:rgb(197,147,42)">
    </path>
    <path d="M153.72695969165812,173.2086612381939L148.20745531783987,169.08009430091263L161.53342075692063,181.96375849361095z" style="fill:rgb(197,147,42)">
    </path>
    <path d="M99.37556046334254,-5.235093482624913L153.93391869446728,11.150771702260368" style="fill:none;stroke:rgb(197,147,42);stroke-width:5;stroke-linecap:round">
    </path>
    <path d="M142.24954840750905,176.8991122599396L144.09356787373812,185.85713167092595L161.53342075692063,181.96375849361095z" style="fill:rgb(197,147,42)">
    </path>
    <path d="M148.20745531783987,169.08009430091263L142.24954840750905,176.8991122599396L161.53342075692063,181.96375849361095z" style="fill:rgb(197,147,42)">
    </path>
    <path d="M-106.79724660309081,358.25143144046547L-87.65916547454023,-271.25747690772135" style="fill:none;stroke:rgb(0,0,0);stroke-width:1;stroke-linecap:round">
    </path>
    <path d="M155.23760424970703,131.69935389057014L149.71361533641075,127.54192042051615L163.0535784742517,140.41114830835176z" style="fill:rgb(197,147,42)">
    </path>
    <path d="M-87.65916547454052,-271.2574769077214L-106.7972466030911,358.25143144046535L-8.64787185198145,294.62640779891154z" style="fill:rgb(0,0,0); fill-opacity: 0.2">
    </path>
    <path d="M100.83446812084269,-46.955440910799965L155.45128583750193,-30.696481876798163" style="fill:none;stroke:rgb(197,147,42);stroke-width:5;stroke-linecap:round">
    </path>
    <path d="M143.75036818302505,135.35539176055082L145.59558405852502,144.33886523675204L163.0535784742517,140.41114830835176z" style="fill:rgb(197,147,42)">
    </path>
    <path d="M149.71361533641075,127.54192042051615L143.75036818302505,135.35539176055082L163.0535784742517,140.41114830835176z" style="fill:rgb(197,147,42)">
    </path>
    <path d="M156.75119944485044,90.10896929590443L151.22271899465417,85.92256431840916L164.57670912299562,98.77727480501748z" style="fill:rgb(197,147,42)">
    </path>
    <path d="M102.2962278890691,-88.75735008127702L-87.65916547454023,-271.25747690772135" style="fill:none;stroke:rgb(0,0,0);stroke-width:1;stroke-linecap:round">
    </path>
    <path d="M102.2962278890691,-88.75735008127702L-87.65916547454023,-271.25747690772135" style="fill:none;stroke:rgb(0,0,0);stroke-width:1;stroke-linecap:round">
    </path>
    <path d="M102.2962278890691,-88.75735008127702L60.49682182730053,-312.84574952765666" style="fill:none;stroke:rgb(0,0,0);stroke-width:1;stroke-linecap:round">
    </path>
    <path d="M102.2962278890691,-88.75735008127702L60.49682182730053,-312.84574952765666" style="fill:none;stroke:rgb(0,0,0);stroke-width:1;stroke-linecap:round">
    </path>
    <path d="M102.2962278890691,-88.75735008127702L156.97162955226233,-72.62582590599845" style="fill:none;stroke:rgb(197,147,42);stroke-width:5;stroke-linecap:round">
    </path>
    <path d="M-45.09916983461635,-44.62291525961114L102.2962278890691,-88.75735008127702" style="fill:none;stroke:rgb(22,55,11);stroke-width:5;stroke-linecap:round">
    </path>
    <path d="M102.2962278890691,-88.75735008127702L156.97162955226233,-72.62582590599845" style="fill:none;stroke:rgb(109,213,75);stroke-width:5;stroke-linecap:round">
    </path>
    <path d="M102.2962278890691,-88.75735008127702L-45.09916983461635,-44.62291525961114" style="fill:none;stroke:rgb(0,44,41);stroke-width:5;stroke-linecap:round">
    </path>
    <path d="M102.2962278890691,-88.75735008127702L156.97162955226233,-72.62582590599845" style="fill:none;stroke:rgb(43,180,168);stroke-width:5;stroke-linecap:round">
    </path>
    <path d="M-402.8140224341554,62.48723261890175L102.2962278890691,-88.75735008127702" style="fill:none;stroke:rgb(10,15,55);stroke-width:5;stroke-linecap:round">
    </path>
    <path d="M102.2962278890691,-88.75735008127702L156.97162955226233,-72.62582590599845" style="fill:none;stroke:rgb(74,87,214);stroke-width:5;stroke-linecap:round">
    </path>
    <path d="M145.25412209301587,93.7304524069634L147.10053553453955,102.73946239107704L164.57670912299562,98.77727480501748z" style="fill:rgb(197,147,42)">
    </path>
    <path d="M151.22271899465417,85.92256431840916L145.25412209301587,93.7304524069634L164.57670912299562,98.77727480501748z" style="fill:rgb(197,147,42)">
    </path>
    <path d="M18.545474302454867,-537.7487136408192L-8.64787185198145,294.62640779891154L-87.65916547454052,-271.2574769077214z" style="fill:rgb(0,0,0); fill-opacity: 0.2">
    </path>
    <path d="M158.267753930451,48.43726967814797L152.7347749305868,44.221787767952435L166.10282143281123,57.061899363560386z" style="fill:rgb(197,147,42)">
    </path>
    <path d="M146.7608187503432,52.024055789256735L148.6084309145666,61.05868506196515L166.10282143281123,57.061899363560386z" style="fill:rgb(197,147,42)">
    </path>
    <path d="M152.7347749305868,44.221787767952435L146.7608187503432,52.024055789256735L166.10282143281123,57.061899363560386z" style="fill:rgb(197,147,42)">
    </path>
    <path d="M159.78727639374182,6.684016330571133L154.2497918160558,2.4393516095028196L167.63192416756885,15.264782428778462z" style="fill:rgb(197,147,42)">
    </path>
    <path d="M60.49682182730026,-312.8457495276568L18.545474302454867,-537.7487136408192" style="fill:none;stroke:rgb(0,0,0);stroke-width:1;stroke-linecap:round">
    </path>
    <path d="M60.49682182730026,-312.8457495276568L18.545474302454867,-537.7487136408192" style="fill:none;stroke:rgb(0,0,0);stroke-width:1;stroke-linecap:round">
    </path>
    <path d="M148.27046680161152,10.235962563491286L150.1192788451199,19.29629424516222L167.63192416756885,15.264782428778462z" style="fill:rgb(197,147,42)">
    </path>
    <path d="M154.2497918160558,2.4393516095028196L148.27046680161152,10.235962563491286L167.63192416756885,15.264782428778462z" style="fill:rgb(197,147,42)">
    </path>
    <path d="M75.2585940105781,-80.66150239151857L129.9588270474243,-64.46740187921979" style="fill:none;stroke:rgb(74,87,214);stroke-width:5;stroke-linecap:round">
    </path>
    <path d="M73.09056780098311,-80.01233279113247L127.79277472640551,-63.813209360842826" style="fill:none;stroke:rgb(109,213,75);stroke-width:5;stroke-linecap:round">
    </path>
    <path d="M73.09056780098311,-80.01233279113251L127.79277472640551,-63.81320936084287" style="fill:none;stroke:rgb(43,180,168);stroke-width:5;stroke-linecap:round">
    </path>
    <path d="M161.30977555599168,-35.15103038879452L155.76777835690433,-39.42498425415902L169.16402612551823,-26.614316494270618z" style="fill:rgb(197,147,42)">
    </path>
    <path d="M149.78307492733322,-31.634067552869915L151.63308800660715,-22.547950000473L169.16402612551823,-26.614316494270618z" style="fill:rgb(197,147,42)">
    </path>
    <path d="M155.76777835690433,-39.42498425415902L149.78307492733322,-31.634067552869915L169.16402612551823,-26.614316494270618z" style="fill:rgb(197,147,42)">
    </path>
    <path d="M18.545474302454867,-537.7487136408192L18.545474302454867,-537.7487136408192L60.49682182730026,-312.8457495276568z" style="fill:rgb(0,0,0); fill-opacity: 0.2">
    </path>
    <path d="M-87.65916547454052,-271.2574769077214L18.545474302454867,-537.7487136408192" style="fill:none;stroke:rgb(0,0,0);stroke-width:1;stroke-linecap:round">
    </path>
    <path d="M18.545474302454867,-537.7487136408192L18.545474302454867,-537.7487136408192" style="fill:none;stroke:rgb(0,0,0);stroke-width:1;stroke-linecap:round">
    </path>
    <path d="M-87.65916547454052,-271.2574769077214L18.545474302454867,-537.7487136408192" style="fill:none;stroke:rgb(0,0,0);stroke-width:1;stroke-linecap:round">
    </path>
    <path d="M18.545474302454867,-537.7487136408192L-491.8461094072169,-404.0061191819869" style="fill:none;stroke:rgb(0,0,0);stroke-width:1;stroke-linecap:round">
    </path>
    <path d="M162.83526017267272,-77.06811106174061L157.2887432931388,-81.37146086242723L170.69913613945727,-68.5756388448816z" style="fill:rgb(197,147,42)">
    </path>
    <path d="M162.83526017267272,-77.06811106174061L157.2887432931388,-81.37146086242723L170.69913613945727,-68.5756388448816z" style="fill:rgb(109,213,75)">
    </path>
    <path d="M162.83526017267275,-77.06811106174061L157.28874329313885,-81.37146086242723L170.69913613945727,-68.5756388448816z" style="fill:rgb(43,180,168)">
    </path>
    <path d="M162.83526017267272,-77.06811106174061L157.2887432931388,-81.37146086242723L170.69913613945727,-68.5756388448816z" style="fill:rgb(74,87,214)">
    </path>
    <path d="M151.29865184209524,-73.58627578556661L153.14986711349616,-64.47428855756371L170.69913613945727,-68.5756388448816z" style="fill:rgb(197,147,42)">
    </path>
    <path d="M151.29865184209524,-73.58627578556661L153.14986711349616,-64.47428855756371L170.69913613945727,-68.5756388448816z" style="fill:rgb(109,213,75)">
    </path>
    <path d="M151.29865184209524,-73.58627578556661L153.1498671134962,-64.47428855756371L170.69913613945727,-68.5756388448816z" style="fill:rgb(43,180,168)">
    </path>
    <path d="M151.29865184209524,-73.58627578556661L153.14986711349616,-64.47428855756371L170.69913613945727,-68.5756388448816z" style="fill:rgb(74,87,214)">
    </path>
    <path d="M157.2887432931388,-81.37146086242723L151.29865184209524,-73.58627578556661L170.69913613945727,-68.5756388448816z" style="fill:rgb(197,147,42)">
    </path>
    <path d="M157.2887432931388,-81.37146086242723L151.29865184209524,-73.58627578556661L170.69913613945727,-68.5756388448816z" style="fill:rgb(109,213,75)">
    </path>
    <path d="M157.2887432931388,-81.37146086242723L151.29865184209524,-73.58627578556661L170.69913613945727,-68.5756388448816z" style="fill:rgb(43,180,168)">
    </path>
    <path d="M157.2887432931388,-81.37146086242723L151.29865184209524,-73.58627578556661L170.69913613945727,-68.5756388448816z" style="fill:rgb(74,87,214)">
    </path>
    <path d="M-87.65916547454023,-271.25747690772135L-106.79724660309081,358.25143144046547L102.2962278890691,-88.75735008127702z" style="fill:rgb(0,0,0); fill-opacity: 0.2">
    </path>
    <path d="M48.10463083276103,-72.53082235313703L102.8294017113953,-56.27375534978198" style="fill:none;stroke:rgb(74,87,214);stroke-width:5;stroke-linecap:round">
    </path>
    <path d="M43.74915118531828,-71.22666607969956L98.47782057890456,-54.95948801082554" style="fill:none;stroke:rgb(109,213,75);stroke-width:5;stroke-linecap:round">
    </path>
    <path d="M43.749151185318325,-71.22666607969956L98.47782057890458,-54.95948801082554" style="fill:none;stroke:rgb(43,180,168);stroke-width:5;stroke-linecap:round">
    </path>
    <path d="M60.49682182730053,-312.84574952765666L-87.65916547454023,-271.25747690772135L102.2962278890691,-88.75735008127702z" style="fill:rgb(0,0,0); fill-opacity: 0.2">
    </path>
    <path d="M135.84582034946422,-68.92249486607334L130.2710911617735,-73.23020783859126L143.6926946293173,-60.40146614739284z" style="fill:rgb(74,87,214)">
    </path>
    <path d="M133.68164338892512,-68.26932996100189L128.10464893769552,-72.57739188619156L141.5271480475054,-59.74600949504045z" style="fill:rgb(109,213,75)">
    </path>
    <path d="M133.68164338892518,-68.26932996100189L128.10464893769552,-72.57739188619156L141.5271480475054,-59.74600949504045z" style="fill:rgb(43,180,168)">
    </path>
    <path d="M124.2594554192599,-65.42564267341582L126.12561120103815,-56.297331352891206L143.6926946293173,-60.40146614739284z" style="fill:rgb(74,87,214)">
    </path>
    <path d="M130.2710911617735,-73.23020783859126L124.2594554192599,-65.42564267341582L143.6926946293173,-60.40146614739284z" style="fill:rgb(74,87,214)">
    </path>
    <path d="M122.0912840316627,-64.77127222017629L123.95863987570829,-55.64165254906496L141.5271480475054,-59.74600949504045z" style="fill:rgb(109,213,75)">
    </path>
    <path d="M122.09128403166275,-64.77127222017629L123.95863987570829,-55.64165254906496L141.5271480475054,-59.74600949504045z" style="fill:rgb(43,180,168)">
    </path>
    <path d="M128.10464893769552,-72.57739188619156L122.0912840316627,-64.77127222017629L141.5271480475054,-59.74600949504045z" style="fill:rgb(109,213,75)">
    </path>
    <path d="M128.10464893769552,-72.57739188619156L122.09128403166275,-64.77127222017629L141.5271480475054,-59.74600949504045z" style="fill:rgb(43,180,168)">
    </path>
    <path d="M60.49682182730026,-312.8457495276568L-87.65916547454052,-271.2574769077214L18.545474302454867,-537.7487136408192z" style="fill:rgb(0,0,0); fill-opacity: 0.2">
    </path>
    <path d="M20.83358597762831,-64.36508468245414L75.58259666373327,-48.04465772416586" style="fill:none;stroke:rgb(74,87,214);stroke-width:5;stroke-linecap:round">
    </path>
    <path d="M14.271029282408072,-62.400065860959785L69.02581266903312,-46.06437359514299" style="fill:none;stroke:rgb(109,213,75);stroke-width:5;stroke-linecap:round">
    </path>
    <path d="M14.271029282408094,-62.400065860959785L69.02581266903314,-46.06437359514299" style="fill:none;stroke:rgb(43,180,168);stroke-width:5;stroke-linecap:round">
    </path>
    <path d="M108.73990497573507,-60.74172547208344L103.13677131897968,-65.05379923003487L116.56955725052876,-52.19197253644501z" style="fill:rgb(74,87,214)">
    </path>
    <path d="M97.10346085515353,-57.22975900262457L98.98466907034708,-48.085067414299445L116.56955725052876,-52.19197253644501z" style="fill:rgb(74,87,214)">
    </path>
    <path d="M103.13677131897968,-65.05379923003487L97.10346085515353,-57.22975900262457L116.56955725052876,-52.19197253644501z" style="fill:rgb(74,87,214)">
    </path>
    <path d="M104.39209918869891,-59.42952494230275L98.78440287072483,-63.742296194244936L112.21897533815253,-50.87516047614516z" style="fill:rgb(109,213,75)">
    </path>
    <path d="M104.39209918869891,-59.42952494230275L98.78440287072488,-63.742296194244936L112.21897533815257,-50.87516047614516z" style="fill:rgb(43,180,168)">
    </path>
    <path d="M-45.09916983461635,-44.62291525961114L102.2962278890691,-88.75735008127702L-87.65916547454023,-271.25747690772135z" style="fill:rgb(0,0,0); fill-opacity: 0.2">
    </path>
    <path d="M102.2962278890691,-88.75735008127702L-45.09916983461635,-44.62291525961114L-87.65916547454023,-271.25747690772135z" style="fill:rgb(0,0,0); fill-opacity: 0.2">
    </path>
    <path d="M92.74761227492992,-55.915131097289766L94.6312393349196,-46.767813434931675L112.21897533815253,-50.87516047614516z" style="fill:rgb(109,213,75)">
    </path>
    <path d="M92.74761227492992,-55.915131097289766L94.6312393349196,-46.767813434931675L112.21897533815257,-50.87516047614516z" style="fill:rgb(43,180,168)">
    </path>
    <path d="M-6.5552994349913885,-56.16406214885098L48.21764846027277,-39.779878426472465" style="fill:none;stroke:rgb(74,87,214);stroke-width:5;stroke-linecap:round">
    </path>
    <path d="M98.78440287072483,-63.742296194244936L92.74761227492992,-55.915131097289766L112.21897533815253,-50.87516047614516z" style="fill:rgb(109,213,75)">
    </path>
    <path d="M98.78440287072488,-63.742296194244936L92.74761227492992,-55.915131097289766L112.21897533815257,-50.87516047614516z" style="fill:rgb(43,180,168)">
    </path>
    <path d="M-15.344755528834602,-53.53224539552994L39.435787610719665,-37.12757515131291" style="fill:none;stroke:rgb(109,213,75);stroke-width:5;stroke-linecap:round">
    </path>
    <path d="M-15.344755528834579,-53.53224539552994L39.435787610719686,-37.12757515131291" style="fill:none;stroke:rgb(43,180,168);stroke-width:5;stroke-linecap:round">
    </path>
    <path d="M81.51675842866638,-52.52557482711366L75.88502643728611,-56.84200683060104L89.32896599441925,-43.94692858181893z" style="fill:rgb(74,87,214)">
    </path>
    <path d="M69.82990973228229,-48.99839587708155L71.72628333892894,-39.83726757417473L89.32896599441925,-43.94692858181893z" style="fill:rgb(74,87,214)">
    </path>
    <path d="M75.88502643728611,-56.84200683060104L69.82990973228229,-48.99839587708155L89.32896599441925,-43.94692858181893z" style="fill:rgb(74,87,214)">
    </path>
    <path d="M74.96567471754882,-50.54840842699578L69.32705008758467,-54.86588601419341L82.77366214709693,-41.962802472038575z" style="fill:rgb(109,213,75)">
    </path>
    <path d="M74.96567471754882,-50.54840842699578L69.32705008758467,-54.86588601419341L82.77366214709696,-41.962802472038575z" style="fill:rgb(43,180,168)">
    </path>
    <path d="M-34.06279085784409,-47.927525553690145L20.733787021819303,-31.479184876887082" style="fill:none;stroke:rgb(74,87,214);stroke-width:5;stroke-linecap:round">
    </path>
    <path d="M63.26668019239709,-47.017563774371546L65.16671041718834,-37.852482230380154L82.77366214709693,-41.962802472038575z" style="fill:rgb(109,213,75)">
    </path>
    <path d="M63.266680192397125,-47.017563774371546L65.16671041718838,-37.852482230380154L82.77366214709696,-41.962802472038575z" style="fill:rgb(43,180,168)">
    </path>
    <path d="M69.32705008758467,-54.86588601419341L63.26668019239709,-47.017563774371546L82.77366214709693,-41.962802472038575z" style="fill:rgb(109,213,75)">
    </path>
    <path d="M69.32705008758467,-54.86588601419341L63.266680192397125,-47.017563774371546L82.77366214709696,-41.962802472038575z" style="fill:rgb(43,180,168)">
    </path>
    <path d="M-45.09916983461635,-44.62291525961114L-87.65916547454023,-271.25747690772135" style="fill:none;stroke:rgb(0,0,0);stroke-width:1;stroke-linecap:round">
    </path>
    <path d="M-45.09916983461635,-44.62291525961114L-87.65916547454023,-271.25747690772135" style="fill:none;stroke:rgb(0,0,0);stroke-width:1;stroke-linecap:round">
    </path>
    <path d="M-45.09916983461637,-44.62291525961114L9.70677296750294,-28.148798983448312" style="fill:none;stroke:rgb(109,213,75);stroke-width:5;stroke-linecap:round">
    </path>
    <path d="M-45.09916983461635,-44.62291525961114L9.706772967502964,-28.148798983448312" style="fill:none;stroke:rgb(43,180,168);stroke-width:5;stroke-linecap:round">
    </path>
    <path d="M54.17561853524413,-44.27381290160847L48.51509262026769,-48.594600454704015L61.97015627311811,-35.66610286193718z" style="fill:rgb(74,87,214)">
    </path>
    <path d="M42.43803705262777,-40.73132241462367L44.3496900554248,-31.553700677306303L61.97015627311811,-35.66610286193718z" style="fill:rgb(74,87,214)">
    </path>
    <path d="M48.51509262026769,-48.594600454704015L42.43803705262777,-40.73132241462367L61.97015627311811,-35.66610286193718z" style="fill:rgb(74,87,214)">
    </path>
    <path d="M-87.65916547454023,-271.25747690772135L-87.65916547454023,-271.25747690772135L-45.09916983461635,-44.62291525961114z" style="fill:rgb(0,0,0); fill-opacity: 0.2">
    </path>
    <path d="M-61.689660387560494,-39.65524370896332L-6.869764438088526,-23.14234246986182" style="fill:none;stroke:rgb(74,87,214);stroke-width:5;stroke-linecap:round">
    </path>
    <path d="M45.40140819412697,-41.62569014222701L39.73162663115596,-45.947870875985316L53.19024364358838,-33.00864345264434z" style="fill:rgb(109,213,75)">
    </path>
    <path d="M45.401408194126994,-41.62569014222701L39.731626631155976,-45.947870875985316L53.190243643588424,-33.00864345264434z" style="fill:rgb(43,180,168)">
    </path>
    <path d="M33.64752243631346,-38.07827890220047L35.56408909621825,-28.89536724183718L53.19024364358838,-33.00864345264434z" style="fill:rgb(109,213,75)">
    </path>
    <path d="M33.64752243631348,-38.07827890220047L35.56408909621827,-28.89536724183718L53.190243643588424,-33.00864345264434z" style="fill:rgb(43,180,168)">
    </path>
    <path d="M39.73162663115596,-45.947870875985316L33.64752243631346,-38.07827890220047L53.19024364358838,-33.00864345264434z" style="fill:rgb(109,213,75)">
    </path>
    <path d="M39.731626631155976,-45.947870875985316L33.64752243631348,-38.07827890220047L53.190243643588424,-33.00864345264434z" style="fill:rgb(43,180,168)">
    </path>
    <path d="M-632.9325915276765,-444.34584225505716L-648.0303723601917,411.21762017045097" style="fill:none;stroke:rgb(0,0,0);stroke-width:1;stroke-linecap:round">
    </path>
    <path d="M-509.9032285413373,458.5304303751123L-648.0303723601917,411.21762017045097" style="fill:none;stroke:rgb(160,0,0);stroke-width:3;stroke-linecap:round">
    </path>
    <path d="M-402.8140224341554,62.48723261890175L102.2962278890691,-88.75735008127702L60.49682182730053,-312.84574952765666z" style="fill:rgb(0,0,0); fill-opacity: 0.2">
    </path>
    <path d="M-491.84610940721655,-404.0061191819867L18.54547430245516,-537.7487136408191L-121.64209589040026,-575.3587958890241z" style="fill:rgb(0,0,0); fill-opacity: 0.2">
    </path>
    <path d="M-307.1080442757053,424.24374493203976L-509.9032285413376,458.53043037511225" style="fill:none;stroke:rgb(160,0,0);stroke-width:3;stroke-linecap:round">
    </path>
    <path d="M-290.69014811754516,-214.26546456840148L-307.108044275705,424.2437449320399" style="fill:none;stroke:rgb(0,0,0);stroke-width:1;stroke-linecap:round">
    </path>
    <path d="M-412.7958432060504,491.79270717904495L-307.108044275705,424.2437449320399" style="fill:none;stroke:rgb(160,0,0);stroke-width:3;stroke-linecap:round">
    </path>
    <path d="M26.715716501128224,-35.98620766764619L21.026199331168026,-40.3113479158211L34.492356848020755,-27.34926194221174z" style="fill:rgb(74,87,214)">
    </path>
    <path d="M14.927071166120575,-32.42830572544867L16.854118628239963,-23.2341335592914L34.492356848020755,-27.34926194221174z" style="fill:rgb(74,87,214)">
    </path>
    <path d="M21.026199331168026,-40.3113479158211L14.927071166120575,-32.42830572544867L34.492356848020755,-27.34926194221174z" style="fill:rgb(74,87,214)">
    </path>
    <path d="M-89.43668683689619,-31.346983415660656L-34.59378948636226,-14.769114552012875" style="fill:none;stroke:rgb(74,87,214);stroke-width:5;stroke-linecap:round">
    </path>
    <path d="M15.698328805397027,-32.6610770893108L9.99715948669291,-36.98795758022637L23.46774592504473,-24.012388642069958z" style="fill:rgb(109,213,75)">
    </path>
    <path d="M15.69832880539705,-32.6610770893108L9.997159486692933,-36.98795758022637L23.467745925044753,-24.012388642069958z" style="fill:rgb(43,180,168)">
    </path>
    <path d="M3.8891645853076557,-29.09698239306828L5.822402288218634,-19.89617403512714L23.46774592504473,-24.012388642069958z" style="fill:rgb(109,213,75)">
    </path>
    <path d="M3.8891645853076784,-29.09698239306828L5.822402288218656,-19.89617403512714L23.467745925044753,-24.012388642069958z" style="fill:rgb(43,180,168)">
    </path>
    <path d="M9.99715948669291,-36.98795758022637L3.8891645853076557,-29.09698239306828L23.46774592504473,-24.012388642069958z" style="fill:rgb(109,213,75)">
    </path>
    <path d="M9.997159486692933,-36.98795758022637L3.8891645853076784,-29.09698239306828L23.467745925044753,-24.012388642069958z" style="fill:rgb(43,180,168)">
    </path>
    <path d="M-447.2460595928454,-170.31928294408107L60.49682182730026,-312.8457495276568L18.545474302454867,-537.7487136408192z" style="fill:rgb(0,0,0); fill-opacity: 0.2">
    </path>
    <path d="M-0.8637231614067162,-27.6625250771912L-6.582430679411043,-31.99201500470346L6.894789757316906,-18.996170353109004z" style="fill:rgb(74,87,214)">
    </path>
    <path d="M-12.703766301821084,-24.089110890245912L-10.761208246758775,-14.878331024657673L6.894789757316906,-18.996170353109004z" style="fill:rgb(74,87,214)">
    </path>
    <path d="M-6.582430679411043,-31.99201500470346L-12.703766301821084,-24.089110890245912L6.894789757316906,-18.996170353109004z" style="fill:rgb(74,87,214)">
    </path>
    <path d="M-117.30465580791649,-23.00250944185717L-62.43907854450724,-6.359262399727684" style="fill:none;stroke:rgb(74,87,214);stroke-width:5;stroke-linecap:round">
    </path>
    <path d="M-28.563482706473824,-19.30252904006091L-34.31158144676651,-23.6363654673013L-20.823329757430482,-10.606590567926673z" style="fill:rgb(74,87,214)">
    </path>
    <path d="M-40.455260523701774,-15.713500938040342L-38.49707465949286,-6.4860558246996955L-20.823329757430482,-10.606590567926673z" style="fill:rgb(74,87,214)">
    </path>
    <path d="M-34.31158144676651,-23.6363654673013L-40.455260523701774,-15.713500938040342L-20.823329757430482,-10.606590567926673z" style="fill:rgb(74,87,214)">
    </path>
    <path d="M-145.29435976614042,-14.62158450051182L-90.4064289637414,2.0874548035225637" style="fill:none;stroke:rgb(74,87,214);stroke-width:5;stroke-linecap:round">
    </path>
    <path d="M-56.38435122853411,-10.90598140160444L-62.162043866312956,-15.24416098239948L-48.662793325670755,-2.1802829802794994z" style="fill:rgb(74,87,214)">
    </path>
    <path d="M-68.32820354432323,-7.3012368237458745L-66.35427155988316,1.942931364976027L-48.662793325670755,-2.1802829802794994z" style="fill:rgb(74,87,214)">
    </path>
    <path d="M-62.162043866312956,-15.24416098239948L-68.32820354432323,-7.3012368237458745L-48.662793325670755,-2.1802829802794994z" style="fill:rgb(74,87,214)">
    </path>
    <path d="M-173.40659811565834,-6.2039692269749755L-118.49664510110397,10.571279990169456" style="fill:none;stroke:rgb(74,87,214);stroke-width:5;stroke-linecap:round">
    </path>
    <path d="M-491.8461094072169,-404.0061191819869L-509.9032285413376,458.53043037511225" style="fill:none;stroke:rgb(0,0,0);stroke-width:1;stroke-linecap:round">
    </path>
    <path d="M-84.32712473732869,-2.4726419200870717L-90.13461576877742,-6.8151611389589855L-76.62439952323001,6.282994118712048z" style="fill:rgb(74,87,214)">
    </path>
    <path d="M-96.32339435613727,1.1479225945765996L-94.33359683303682,10.4088719672007L-76.62439952323001,6.282994118712048z" style="fill:rgb(74,87,214)">
    </path>
    <path d="M-90.13461576877742,-6.8151611389589855L-96.32339435613727,1.1479225945765996L-76.62439952323001,6.282994118712048z" style="fill:rgb(74,87,214)">
    </path>
    <path d="M-648.0303723601917,411.21762017045097L-632.9325915276765,-444.34584225505716L-509.9032285413373,458.5304303751123z" style="fill:rgb(0,0,0); fill-opacity: 0.2">
    </path>
    <path d="M-201.64217727523865,2.2505778437999338L-146.7105383965696,19.09245823183728" style="fill:none;stroke:rgb(74,87,214);stroke-width:5;stroke-linecap:round">
    </path>
    <path d="M-632.9325915276765,-444.34584225505716L-121.64209589040026,-575.3587958890241L-491.84610940721655,-404.0061191819867z" style="fill:rgb(0,0,0); fill-opacity: 0.2">
    </path>
    <path d="M-307.108044275705,424.2437449320399L-290.69014811754516,-214.26546456840148L-412.7958432060504,491.79270717904495z" style="fill:rgb(0,0,0); fill-opacity: 0.2">
    </path>
    <path d="M-112.39260623379842,5.997731756222398L-118.23010199638568,1.6508765868402022L-104.70895394866999,14.783484563533275z" style="fill:rgb(74,87,214)">
    </path>
    <path d="M-124.44163897559241,9.634220578761287L-122.43585537542572,18.912009526293467L-104.70895394866999,14.783484563533275z" style="fill:rgb(74,87,214)">
    </path>
    <path d="M-118.23010199638568,1.6508765868402022L-124.44163897559241,9.634220578761287L-104.70895394866999,14.783484563533275z" style="fill:rgb(74,87,214)">
    </path>
    <path d="M-230.0019107554378,10.742300300345402L-175.0489274511831,27.651236762941284" style="fill:none;stroke:rgb(74,87,214);stroke-width:5;stroke-linecap:round">
    </path>
    <path d="M-509.9032285413376,458.53043037511225L-491.8461094072169,-404.0061191819869L-307.1080442757053,424.24374493203976z" style="fill:rgb(0,0,0); fill-opacity: 0.2">
    </path>
    <path d="M-247.07768601989952,15.855280095356298L-290.69014811754516,-214.26546456840148" style="fill:none;stroke:rgb(0,0,0);stroke-width:1;stroke-linecap:round">
    </path>
    <path d="M-247.07768601989952,15.855280095356298L-290.69014811754516,-214.26546456840148" style="fill:none;stroke:rgb(0,0,0);stroke-width:1;stroke-linecap:round">
    </path>
    <path d="M-247.07768601989952,15.855280095356298L-402.8140224341554,62.48723261890175" style="fill:none;stroke:rgb(40,0,38);stroke-width:5;stroke-linecap:round">
    </path>
    <path d="M-247.0776860198996,15.855280095356298L-192.1120620947281,32.80465568802775" style="fill:none;stroke:rgb(167,41,160);stroke-width:5;stroke-linecap:round">
    </path>
    <path d="M-402.8140224341554,62.48723261890175L-247.07768601989952,15.855280095356298" style="fill:none;stroke:rgb(55,17,8);stroke-width:5;stroke-linecap:round">
    </path>
    <path d="M-247.07768601989952,15.855280095356298L-192.112062094728,32.80465568802775" style="fill:none;stroke:rgb(214,94,68);stroke-width:5;stroke-linecap:round">
    </path>
    <path d="M-140.58160578700532,14.505384112267649L-146.44931448005488,10.154196854859743L-132.9172693006561,23.32143433769304z" style="fill:rgb(74,87,214)">
    </path>
    <path d="M-447.24605959284514,-170.31928294408098L60.49682182730053,-312.84574952765666L-402.8140224341554,62.48723261890175z" style="fill:rgb(0,0,0); fill-opacity: 0.2">
    </path>
    <path d="M-152.68375052048938,18.157902533884066L-150.66185917207062,27.452589731415383L-132.9172693006561,23.32143433769304z" style="fill:rgb(74,87,214)">
    </path>
    <path d="M-146.44931448005488,10.154196854859743L-152.68375052048938,18.157902533884066L-132.9172693006561,23.32143433769304z" style="fill:rgb(74,87,214)">
    </path>
    <path d="M-258.4866192367306,19.271443878074273L-203.51263810623107,36.24786500459918" style="fill:none;stroke:rgb(74,87,214);stroke-width:5;stroke-linecap:round">
    </path>
    <path d="M-307.1080442757053,424.24374493203976L-290.6901481175454,-214.2654645684016L-491.8461094072169,-404.0061191819869z" style="fill:rgb(0,0,0); fill-opacity: 0.2">
    </path>
    <path d="M-412.7958432060504,491.79270717904495L-402.8140224341554,62.48723261890175" style="fill:none;stroke:rgb(38,46,1);stroke-width:5;stroke-linecap:round">
    </path>
    <path d="M-412.7958432060504,491.7927071790449L-358.313759170664,510.45450261080407" style="fill:none;stroke:rgb(162,186,45);stroke-width:5;stroke-linecap:round">
    </path>
    <path d="M-290.6901481175454,-214.2654645684016L-491.8461094072169,-404.0061191819869" style="fill:none;stroke:rgb(0,0,0);stroke-width:1;stroke-linecap:round">
    </path>
    <path d="M-290.6901481175454,-214.2654645684016L-491.8461094072169,-404.0061191819869" style="fill:none;stroke:rgb(0,0,0);stroke-width:1;stroke-linecap:round">
    </path>
    <path d="M-402.8140224341554,62.48723261890175L-290.69014811754516,-214.26546456840148" style="fill:none;stroke:rgb(0,0,0);stroke-width:1;stroke-linecap:round">
    </path>
    <path d="M-402.8140224341554,62.48723261890175L-290.69014811754516,-214.26546456840148" style="fill:none;stroke:rgb(0,0,0);stroke-width:1;stroke-linecap:round">
    </path>
    <path d="M-491.8461094072169,-404.0061191819869L18.545474302454867,-537.7487136408192L-447.2460595928454,-170.31928294408107z" style="fill:rgb(0,0,0); fill-opacity: 0.2">
    </path>
    <path d="M-277.92802889558226,25.092762865512455L-222.93996988767614,42.11532027339456" style="fill:none;stroke:rgb(167,41,160);stroke-width:5;stroke-linecap:round">
    </path>
    <path d="M-277.92802889558214,25.092762865512455L-222.93996988767603,42.11532027339456" style="fill:none;stroke:rgb(214,94,68);stroke-width:5;stroke-linecap:round">
    </path>
    <path d="M-168.8949406120728,23.05056178972724L-174.7930723176081,18.695046484571545L-161.2501654563506,31.89709159745105z" style="fill:rgb(74,87,214)">
    </path>
    <path d="M-181.05054928836108,26.719216031918084L-179.0124273747477,36.03086044023336L-161.2501654563506,31.89709159745105z" style="fill:rgb(74,87,214)">
    </path>
    <path d="M-174.7930723176081,18.695046484571545L-181.05054928836108,26.719216031918084L-161.2501654563506,31.89709159745105z" style="fill:rgb(74,87,214)">
    </path>
    <path d="M-411.8067118116185,449.25141813040767L-357.2660478414908,467.78167136312663" style="fill:none;stroke:rgb(162,186,45);stroke-width:5;stroke-linecap:round">
    </path>
    <path d="M-287.0971306486745,27.83825648298413L-232.1025035234659,44.88259458886063" style="fill:none;stroke:rgb(74,87,214);stroke-width:5;stroke-linecap:round">
    </path>
    <path d="M-185.94296510176125,28.19578396910449L-191.85945224526304,23.837673849687935L-178.31004571941313,37.060689601149335z" style="fill:rgb(167,41,160)">
    </path>
    <path d="M-185.9429651017612,28.195783969104447L-191.859452245263,23.837673849687935L-178.31004571941304,37.06068960114929z" style="fill:rgb(214,94,68)">
    </path>
    <path d="M-410.815585380881,406.62432509594504L-356.216215843762,425.02246619842873" style="fill:none;stroke:rgb(162,186,45);stroke-width:5;stroke-linecap:round">
    </path>
    <path d="M-198.13082237530975,31.87417108081211L-196.08290268889286,41.19601823622786L-178.31004571941313,37.060689601149335z" style="fill:rgb(167,41,160)">
    </path>
    <path d="M-198.13082237530963,31.87417108081207L-196.08290268889274,41.19601823622786L-178.31004571941304,37.06068960114929z" style="fill:rgb(214,94,68)">
    </path>
    <path d="M-191.85945224526304,23.837673849687935L-198.13082237530975,31.87417108081211L-178.31004571941313,37.060689601149335z" style="fill:rgb(167,41,160)">
    </path>
    <path d="M-191.859452245263,23.837673849687935L-198.13082237530963,31.87417108081207L-178.31004571941304,37.06068960114929z" style="fill:rgb(214,94,68)">
    </path>
    <path d="M-402.8140224341554,62.48723261890175L-247.07768601989952,15.855280095356298L-290.69014811754516,-214.26546456840148z" style="fill:rgb(0,0,0); fill-opacity: 0.2">
    </path>
    <path d="M-197.3334351491586,31.63351361084972L-203.26220185302753,27.273674478938975L-189.708469550847,40.51070669586098z" style="fill:rgb(74,87,214)">
    </path>
    <path d="M-308.92576998037345,34.374380912300076L-253.91569046534437,51.470627371292665" style="fill:none;stroke:rgb(167,41,160);stroke-width:5;stroke-linecap:round">
    </path>
    <path d="M-308.92576998037333,34.374380912300026L-253.91569046534423,51.47062737129261" style="fill:none;stroke:rgb(214,94,68);stroke-width:5;stroke-linecap:round">
    </path>
    <path d="M-409.82245787188816,363.9111682190661L-355.1642567322988,382.1766246073582" style="fill:none;stroke:rgb(162,186,45);stroke-width:5;stroke-linecap:round">
    </path>
    <path d="M-209.5428628358935,35.31841083570338L-207.48838638123235,44.64707170289728L-189.708469550847,40.51070669586098z" style="fill:rgb(74,87,214)">
    </path>
    <path d="M-203.26220185302753,27.273674478938975L-209.5428628358935,35.31841083570338L-189.708469550847,40.51070669586098z" style="fill:rgb(74,87,214)">
    </path>
    <path d="M-412.7958432060504,491.79270717904495L-402.8140224341554,62.48723261890175L-290.69014811754516,-214.26546456840148z" style="fill:rgb(0,0,0); fill-opacity: 0.2">
    </path>
    <path d="M-290.69014811754516,-214.26546456840148L-290.69014811754516,-214.26546456840148L-402.8140224341554,62.48723261890175z" style="fill:rgb(0,0,0); fill-opacity: 0.2">
    </path>
    <path d="M-290.69014811754516,-214.26546456840148L-447.24605959284514,-170.31928294408098L-247.07768601989952,15.855280095356298z" style="fill:rgb(0,0,0); fill-opacity: 0.2">
    </path>
    <path d="M-315.8342802501266,36.44298821567607L-260.81936426639913,53.55567938325916" style="fill:none;stroke:rgb(74,87,214);stroke-width:5;stroke-linecap:round">
    </path>
    <path d="M-352.0653613238362,505.642013415102L-358.09566054207727,501.5714393911147L-344.6330496172326,515.1405679030499z" style="fill:rgb(162,186,45)">
    </path>
    <path d="M-408.82732321826916,321.11168659282197L-354.1101640357784,339.24388301571855" style="fill:none;stroke:rgb(162,186,45);stroke-width:5;stroke-linecap:round">
    </path>
    <path d="M-364.4332422928444,509.77971476322637L-362.3123129037264,518.9199164134109L-344.6330496172326,515.1405679030499z" style="fill:rgb(162,186,45)">
    </path>
    <path d="M-358.09566054207727,501.5714393911147L-364.4332422928444,509.77971476322637L-344.6330496172326,515.1405679030499z" style="fill:rgb(162,186,45)">
    </path>
    <path d="M-509.9032285413373,458.5304303751123L-491.84610940721655,-404.0061191819867L-632.9325915276765,-444.34584225505716z" style="fill:rgb(0,0,0); fill-opacity: 0.2">
    </path>
    <path d="M-216.74352677754192,37.491625441373415L-222.69324734810354,33.12884861190635L-209.13217485620768,46.389775270353944z" style="fill:rgb(167,41,160)">
    </path>
    <path d="M-216.7435267775418,37.491625441373415L-222.69324734810343,33.12884861190635L-209.13217485620754,46.38977527035394z" style="fill:rgb(214,94,68)">
    </path>
    <path d="M-228.98975581251116,41.18762959027459L-226.92408685731723,50.52789563938598L-209.13217485620768,46.389775270353944z" style="fill:rgb(167,41,160)">
    </path>
    <path d="M-228.98975581251102,41.18762959027454L-226.92408685731712,50.52789563938594L-209.13217485620754,46.38977527035394z" style="fill:rgb(214,94,68)">
    </path>
    <path d="M-222.69324734810354,33.12884861190635L-228.98975581251116,41.18762959027459L-209.13217485620768,46.389775270353944z" style="fill:rgb(167,41,160)">
    </path>
    <path d="M-222.69324734810343,33.12884861190635L-228.98975581251102,41.18762959027454L-209.13217485620754,46.38977527035394z" style="fill:rgb(214,94,68)">
    </path>
    <path d="M-491.84610940721655,-404.0061191819867L-632.9325915276765,-444.34584225505716" style="fill:none;stroke:rgb(0,0,0);stroke-width:1;stroke-linecap:round">
    </path>
    <path d="M-491.84610940721655,-404.0061191819867L-632.9325915276765,-444.34584225505716" style="fill:none;stroke:rgb(0,0,0);stroke-width:1;stroke-linecap:round">
    </path>
    <path d="M-351.011763640329,462.98176507112834L-357.0475079371754,458.8806351730393L-343.5705676173294,472.4347265007833z" style="fill:rgb(162,186,45)">
    </path>
    <path d="M-225.89792114347787,40.25449060260478L-231.8575367567605,35.89033204861559L-218.29301605766148,49.16253220713281z" style="fill:rgb(74,87,214)">
    </path>
    <path d="M-407.83017532910696,278.2256182545933L-353.0539312566008,296.22397677906554" style="fill:none;stroke:rgb(162,186,45);stroke-width:5;stroke-linecap:round">
    </path>
    <path d="M-363.3911560350239,467.0831799059431L-361.2685162370948,476.25041240722487L-343.5705676173294,472.4347265007833z" style="fill:rgb(162,186,45)">
    </path>
    <path d="M-357.0475079371754,458.8806351730393L-363.3911560350239,467.0831799059431L-343.5705676173294,472.4347265007833z" style="fill:rgb(162,186,45)">
    </path>
    <path d="M-238.16152605940243,43.95573892323575L-236.0905699155974,53.30147578633682L-218.29301605766148,49.16253220713281z" style="fill:rgb(74,87,214)">
    </path>
    <path d="M-340.0719681729731,43.70045130054177L-285.04028947537205,60.870898829308956" style="fill:none;stroke:rgb(167,41,160);stroke-width:5;stroke-linecap:round">
    </path>
    <path d="M-340.07196817297296,43.70045130054172L-285.04028947537194,60.8708988293089" style="fill:none;stroke:rgb(214,94,68);stroke-width:5;stroke-linecap:round">
    </path>
    <path d="M-231.8575367567605,35.89033204861559L-238.16152605940243,43.95573892323575L-218.29301605766148,49.16253220713281z" style="fill:rgb(74,87,214)">
    </path>
    <path d="M-344.69891071052683,45.08589139569372L-289.6640683826802,62.267375515692706" style="fill:none;stroke:rgb(74,87,214);stroke-width:5;stroke-linecap:round">
    </path>
    <path d="M-349.95603424649084,420.23520361775894L-355.99723332312175,416.10340243604253L-342.5059331471079,429.64236781536044z" style="fill:rgb(162,186,45)">
    </path>
    <path d="M-406.83100808881505,235.2527001807456L-351.9955518707559,253.11664017726835" style="fill:none;stroke:rgb(162,186,45);stroke-width:5;stroke-linecap:round">
    </path>
    <path d="M-362.3469593552715,424.30017648341106L-360.2226065662337,433.4945306175925L-342.5059331471079,429.64236781536044z" style="fill:rgb(162,186,45)">
    </path>
    <path d="M-355.99723332312175,416.10340243604253L-362.3469593552715,424.30017648341106L-342.5059331471079,429.64236781536044z" style="fill:rgb(162,186,45)">
    </path>
    <path d="M-247.69170962497347,46.832020094979185L-253.67491467026935,42.46458184082169L-240.10222006568625,55.7636314259775z" style="fill:rgb(167,41,160)">
    </path>
    <path d="M-247.69170962497336,46.832020094979185L-253.67491467026923,42.46458184082164L-240.1022200656861,55.763631425977444z" style="fill:rgb(214,94,68)">
    </path>
    <path d="M-247.07768601989952,15.855280095356298L-402.8140224341554,62.48723261890175L-447.24605959284514,-170.31928294408098z" style="fill:rgb(0,0,0); fill-opacity: 0.2">
    </path>
    <path d="M-348.89816666623886,377.4020668379156L-354.9448302493019,373.2394784493738L-341.43913965893785,386.7632286686122z" style="fill:rgb(162,186,45)">
    </path>
    <path d="M-259.9967307708871,50.5457681457258L-257.913165635198,59.904522762804426L-240.10222006568625,55.7636314259775z" style="fill:rgb(167,41,160)">
    </path>
    <path d="M-259.99673077088704,50.54576814572576L-257.91316563519797,59.90452276280438L-240.1022200656861,55.763631425977444z" style="fill:rgb(214,94,68)">
    </path>
    <path d="M-253.67491467026935,42.46458184082169L-259.9967307708871,50.5457681457258L-240.10222006568625,55.7636314259775z" style="fill:rgb(167,41,160)">
    </path>
    <path d="M-253.67491467026923,42.46458184082164L-259.99673077088704,50.54576814572576L-240.1022200656861,55.763631425977444z" style="fill:rgb(214,94,68)">
    </path>
    <path d="M-405.8298153570121,192.19266828125177L-350.9350193276883,209.92160640903893" style="fill:none;stroke:rgb(162,186,45);stroke-width:5;stroke-linecap:round">
    </path>
    <path d="M-361.3006458360832,381.43044155656094L-359.174577468469,390.6520084911551L-341.43913965893785,386.7632286686122z" style="fill:rgb(162,186,45)">
    </path>
    <path d="M-354.9448302493019,373.2394784493738L-361.3006458360832,381.43044155656094L-341.43913965893785,386.7632286686122z" style="fill:rgb(162,186,45)">
    </path>
    <path d="M-254.58923772639184,48.913746021156825L-260.5799181070971,44.5452726364667L-247.00464687029736,57.85282295132087z" style="fill:rgb(74,87,214)">
    </path>
    <path d="M-266.9073812763838,52.63145451227888L-264.81981910958075,61.99432719888127L-247.00464687029736,57.85282295132087z" style="fill:rgb(74,87,214)">
    </path>
    <path d="M-260.5799181070971,44.5452726364667L-266.9073812763838,52.63145451227888L-247.00464687029736,57.85282295132087z" style="fill:rgb(74,87,214)">
    </path>
    <path d="M-371.3676925391687,53.07129413937983L-316.31484283370713,70.31645959627173" style="fill:none;stroke:rgb(167,41,160);stroke-width:5;stroke-linecap:round">
    </path>
    <path d="M-371.3676925391686,53.07129413937983L-316.3148428337071,70.31645959627173" style="fill:none;stroke:rgb(214,94,68);stroke-width:5;stroke-linecap:round">
    </path>
    <path d="M-347.8381543972312,334.4820914512986L-353.89029223892953,330.28859941631544L-340.3701805786052,343.79704481386506z" style="fill:rgb(162,186,45)">
    </path>
    <path d="M-373.69187219226615,53.76722058618627L-318.6374714875783,71.01794139963634" style="fill:none;stroke:rgb(74,87,214);stroke-width:5;stroke-linecap:round">
    </path>
    <path d="M-404.8265909683962,149.0452573942829L-349.8723270501631,166.63860758642795" style="fill:none;stroke:rgb(162,186,45);stroke-width:5;stroke-linecap:round">
    </path>
    <path d="M-360.2522090339084,338.4737111191589L-358.12442249507035,347.7225824094003L-340.3701805786052,343.79704481386506z" style="fill:rgb(162,186,45)">
    </path>
    <path d="M-353.89029223892953,330.28859941631544L-360.2522090339084,338.4737111191589L-340.3701805786052,343.79704481386506z" style="fill:rgb(162,186,45)">
    </path>
    <path d="M-290.6901481175454,-214.2654645684016L-447.2460595928454,-170.31928294408107L-491.8461094072169,-404.0061191819869z" style="fill:rgb(0,0,0); fill-opacity: 0.2">
    </path>
    <path d="M-346.77599091073415,291.47501310899156L-352.8336127889137,287.25050046877107L-339.2990493051777,300.7435509305136z" style="fill:rgb(162,186,45)">
    </path>
    <path d="M-278.7885774732706,56.217289001590515L-284.8055205134583,51.845194846068L-271.2212486876502,65.18258112501576z" style="fill:rgb(167,41,160)">
    </path>
    <path d="M-278.7885774732705,56.217289001590466L-284.8055205134582,51.845194846067955L-271.2212486876501,65.18258112501576z" style="fill:rgb(214,94,68)">
    </path>
    <path d="M-403.82132873261844,105.81020128076469L-348.80746843412965,123.26737472928646" style="fill:none;stroke:rgb(162,186,45);stroke-width:5;stroke-linecap:round">
    </path>
    <path d="M-359.20164247901874,295.4297200923883L-357.07213517111916,304.705987683256L-339.2990493051777,300.7435509305136z" style="fill:rgb(162,186,45)">
    </path>
    <path d="M-352.8336127889137,287.25050046877107L-359.20164247901874,295.4297200923883L-339.2990493051777,300.7435509305136z" style="fill:rgb(162,186,45)">
    </path>
    <path d="M-491.8461094072169,-404.0061191819869L-491.8461094072169,-404.0061191819869L-290.6901481175454,-214.2654645684016z" style="fill:rgb(0,0,0); fill-opacity: 0.2">
    </path>
    <path d="M-291.15281512541713,59.94890903987666L-289.05120539139386,69.32622226670931L-271.2212486876502,65.18258112501576z" style="fill:rgb(167,41,160)">
    </path>
    <path d="M-291.152815125417,59.94890903987666L-289.05120539139375,69.32622226670931L-271.2212486876501,65.18258112501576z" style="fill:rgb(214,94,68)">
    </path>
    <path d="M-284.8055205134583,51.845194846068L-291.15281512541713,59.94890903987666L-271.2212486876502,65.18258112501576z" style="fill:rgb(167,41,160)">
    </path>
    <path d="M-284.8055205134582,51.845194846067955L-291.152815125417,59.94890903987666L-271.2212486876501,65.18258112501576z" style="fill:rgb(214,94,68)">
    </path>
    <path d="M-283.40823149757955,57.61153537666468L-289.4301944726335,53.2387519424184L-275.84421138490046,66.58183601934107z" style="fill:rgb(74,87,214)">
    </path>
    <path d="M-295.78127830815356,61.34581408530587L-293.6769825850401,70.72588271520877L-275.84421138490046,66.58183601934107z" style="fill:rgb(74,87,214)">
    </path>
    <path d="M-289.4301944726335,53.2387519424184L-295.78127830815356,61.34581408530587L-275.84421138490046,66.58183601934107z" style="fill:rgb(74,87,214)">
    </path>
    <path d="M-345.71166965148774,248.38056638803496L-351.77478536972484,244.12491566182092L-338.2257392108687,257.60248061855884z" style="fill:rgb(162,186,45)">
    </path>
    <path d="M-402.8140224341554,62.48723261890175L-447.24605959284514,-170.31928294408098" style="fill:none;stroke:rgb(0,0,0);stroke-width:1;stroke-linecap:round">
    </path>
    <path d="M-402.8140224341554,62.48723261890175L-447.24605959284514,-170.31928294408098" style="fill:none;stroke:rgb(0,0,0);stroke-width:1;stroke-linecap:round">
    </path>
    <path d="M-402.8140224341552,62.48723261890175L-347.7404368485839,79.80763775969415" style="fill:none;stroke:rgb(74,87,214);stroke-width:5;stroke-linecap:round">
    </path>
    <path d="M-402.8140224341554,62.48723261890175L-347.740436848584,79.80763775969415" style="fill:none;stroke:rgb(167,41,160);stroke-width:5;stroke-linecap:round">
    </path>
    <path d="M-402.8140224341552,62.48723261890175L-347.7404368485839,79.80763775969415" style="fill:none;stroke:rgb(214,94,68);stroke-width:5;stroke-linecap:round">
    </path>
    <path d="M-402.8140224341554,62.48723261890175L-347.740436848584,79.80763775969415" style="fill:none;stroke:rgb(162,186,45);stroke-width:5;stroke-linecap:round">
    </path>
    <path d="M-358.148939675374,252.29820231939598L-356.0177089953751,261.60195854764964L-338.2257392108687,257.60248061855884z" style="fill:rgb(162,186,45)">
    </path>
    <path d="M-351.77478536972484,244.12491566182092L-358.148939675374,252.29820231939598L-338.2257392108687,257.60248061855884z" style="fill:rgb(162,186,45)">
    </path>
    <path d="M-344.6451840375711,205.19848478596523L-350.7138034252607,200.9115779682445L-337.1502436409007,214.3735663931134z" style="fill:rgb(162,186,45)">
    </path>
    <path d="M-357.09409410048903,209.0788905598072L-354.96113744014235,218.41022815603517L-337.1502436409007,214.3735663931134z" style="fill:rgb(162,186,45)">
    </path>
    <path d="M-350.7138034252607,200.9115779682445L-357.09409410048903,209.0788905598072L-337.1502436409007,214.3735663931134z" style="fill:rgb(162,186,45)">
    </path>
    <path d="M-310.03520439821574,65.64775632536725L-316.08614145615854,61.27101203399385L-302.4903383556751,74.64695054013215z" style="fill:rgb(167,41,160)">
    </path>
    <path d="M-310.03520439821557,65.6477563253672L-316.08614145615843,61.27101203399385L-302.49033835567496,74.64695054013215z" style="fill:rgb(214,94,68)">
    </path>
    <path d="M-312.3557566083085,66.34811645841341L-318.409221995841,61.97102794863905L-304.8125665840223,75.34983079832409z" style="fill:rgb(74,87,214)">
    </path>
    <path d="M-322.45908704643966,69.39737767265514L-320.3392827712903,78.7933199207821L-302.4903383556751,74.64695054013215z" style="fill:rgb(167,41,160)">
    </path>
    <path d="M-322.4590870464396,69.3973776726551L-320.3392827712902,78.7933199207821L-302.49033835567496,74.64695054013215z" style="fill:rgb(214,94,68)">
    </path>
    <path d="M-316.08614145615843,61.27101203399385L-322.4590870464396,69.3973776726551L-302.49033835567496,74.64695054013215z" style="fill:rgb(214,94,68)">
    </path>
    <path d="M-316.08614145615854,61.27101203399385L-322.45908704643966,69.39737767265514L-302.4903383556751,74.64695054013215z" style="fill:rgb(167,41,160)">
    </path>
    <path d="M-343.57652746026685,161.92850071532146L-349.65066037271106,157.6102192730086L-336.07255591336735,171.05653967887386z" style="fill:rgb(162,186,45)">
    </path>
    <path d="M-324.78407456359395,70.09907641477464L-322.66291653751193,79.4964014016294L-304.8125665840223,75.34983079832409z" style="fill:rgb(74,87,214)">
    </path>
    <path d="M-318.409221995841,61.97102794863905L-324.78407456359395,70.09907641477464L-304.8125665840223,75.34983079832409z" style="fill:rgb(74,87,214)">
    </path>
    <path d="M-447.2460595928454,-170.31928294408107L-491.8461094072169,-404.0061191819869" style="fill:none;stroke:rgb(0,0,0);stroke-width:1;stroke-linecap:round">
    </path>
    <path d="M-447.2460595928454,-170.31928294408107L-491.8461094072169,-404.0061191819869" style="fill:none;stroke:rgb(0,0,0);stroke-width:1;stroke-linecap:round">
    </path>
    <path d="M-356.0370992052985,165.77151648420593L-353.90241395113543,175.13052857488668L-336.07255591336735,171.05653967887386z" style="fill:rgb(162,186,45)">
    </path>
    <path d="M-349.65066037271106,157.6102192730086L-356.0370992052985,165.77151648420593L-336.07255591336735,171.05653967887386z" style="fill:rgb(162,186,45)">
    </path>
    <path d="M-342.5056932839243,118.57034549811793L-348.5853496024212,114.2205703677225L-334.9926693190958,127.65113080455782z" style="fill:rgb(162,186,45)">
    </path>
    <path d="M-354.9779484140214,122.37581066858161L-352.84153194734284,131.76259077815772L-334.9926693190958,127.65113080455782z" style="fill:rgb(162,186,45)">
    </path>
    <path d="M-348.5853496024212,114.2205703677225L-354.9779484140214,122.37581066858161L-334.9926693190958,127.65113080455782z" style="fill:rgb(162,186,45)">
    </path>
    <path d="M-491.8461094072169,-404.0061191819869L-491.8461094072169,-404.0061191819869" style="fill:none;stroke:rgb(0,0,0);stroke-width:1;stroke-linecap:round">
    </path>
    <path d="M-341.4326748458221,75.12374936028327L-347.51786447775487,70.74236094505903L-333.91057712150644,84.15706899730847z" style="fill:rgb(74,87,214)">
    </path>
    <path d="M-341.4326748458222,75.12374936028327L-347.5178644777549,70.74236094505903L-333.9105771215065,84.15706899730851z" style="fill:rgb(167,41,160)">
    </path>
    <path d="M-341.4326748458221,75.12374936028327L-347.51786447775487,70.74236094505903L-333.91057712150644,84.15706899730847z" style="fill:rgb(214,94,68)">
    </path>
    <path d="M-341.4326748458222,75.12374936028327L-347.5178644777549,70.74236094505903L-333.9105771215065,84.15706899730851z" style="fill:rgb(162,186,45)">
    </path>
    <path d="M-353.9166351240248,78.8915025887423L-351.7784848208913,88.30614464170728L-333.91057712150644,84.15706899730847z" style="fill:rgb(74,87,214)">
    </path>
    <path d="M-353.91663512402494,78.89150258874234L-351.77848482089144,88.30614464170733L-333.9105771215065,84.15706899730851z" style="fill:rgb(167,41,160)">
    </path>
    <path d="M-353.9166351240248,78.8915025887423L-351.7784848208913,88.30614464170728L-333.91057712150644,84.15706899730847z" style="fill:rgb(214,94,68)">
    </path>
    <path d="M-353.91663512402494,78.89150258874234L-351.77848482089144,88.30614464170733L-333.9105771215065,84.15706899730851z" style="fill:rgb(162,186,45)">
    </path>
    <path d="M-347.51786447775487,70.74236094505903L-353.9166351240248,78.8915025887423L-333.91057712150644,84.15706899730847z" style="fill:rgb(74,87,214)">
    </path>
    <path d="M-347.5178644777549,70.74236094505903L-353.91663512402494,78.89150258874234L-333.9105771215065,84.15706899730851z" style="fill:rgb(167,41,160)">
    </path>
    <path d="M-347.51786447775487,70.74236094505903L-353.9166351240248,78.8915025887423L-333.91057712150644,84.15706899730847z" style="fill:rgb(214,94,68)">
    </path>
    <path d="M-347.5178644777549,70.74236094505903L-353.91663512402494,78.89150258874234L-333.9105771215065,84.15706899730851z" style="fill:rgb(162,186,45)">
    </path>
</svg>