<svg viewBox="-1163.5 -590 2327 1180" width="2327" height="1180" style="background-color: rgb(255, 255, 255);">
    <path d="M-145.92535752663125,250.51508740574562L-121.64209589040026,-575.3587958890241" style="fill:none;stroke:rgb(0,0,0);stroke-width:1;stroke-linecap:round">
    </path>
    <path d="M-8.647871851981163,294.62640779891166L-145.92535752663125,250.51508740574562" style="fill:none;stroke:rgb(160,0,0);stroke-width:3;stroke-linecap:round">
    </path>
    <path d="M-8.64787185198145,294.62640779891154L18.545474302454867,-537.7487136408192" style="fill:none;stroke:rgb(0,0,0);stroke-width:1;stroke-linecap:round">
    </path>
    <path d="M-106.7972466030911,358.25143144046535L-8.64787185198145,294.62640779891154" style="fill:none;stroke:rgb(160,0,0);stroke-width:3;stroke-linecap:round">
    </path>
    <path d="M18.54547430245516,-537.7487136408191L-8.647871851981163,294.62640779891166L-145.92535752663125,250.51508740574562z" style="fill:rgb(0,0,0); fill-opacity: 0.2">
    </path>
    <path d="M-121.64209589040026,-575.3587958890241L-145.92535752663125,250.51508740574562L18.54547430245516,-537.7487136408191z" style="fill:rgb(0,0,0); fill-opacity: 0.2">
    </path>
    <path d="M-31.507735460640713,331.91802313906567L-29.37942455541011,342.29141565061434L-25.21145457920153,336.6365428210239z" style="fill:rgb(197,147,42)">
    </path>
    <path d="M-18.73878177932757,336.057125519986L-21.48971758550262,344.8537254563512L-13.039197782775394,332.62136189091575z" style="fill:rgb(197,147,42)">
    </path>
    <path d="M-29.37942455541011,342.29141565061434L-21.48971758550262,344.8537254563512L-25.21145457920153,336.6365428210239z" style="fill:rgb(197,147,42)">
    </path>
    <path d="M-24.934349549044978,328.06039791573755L-18.73878177932757,336.057125519986L-13.039197782775394,332.62136189091575z" style="fill:rgb(197,147,42)">
    </path>
    <path d="M-24.934349549044978,328.06039791573755L-31.507735460640713,331.91802313906567L-25.21145457920153,336.6365428210239z" style="fill:rgb(197,147,42)">
    </path>
    <path d="M-74.13451026450157,352.77446395721876L-25.211454579201547,336.63654282102385" style="fill:none;stroke:rgb(197,147,42);stroke-width:5;stroke-linecap:round">
    </path>
    <path d="M-21.48971758550262,344.8537254563512L-18.73878177932757,336.057125519986L-25.21145457920153,336.6365428210239z" style="fill:rgb(197,147,42)">
    </path>
    <path d="M-18.73878177932757,336.057125519986L-24.934349549044978,328.06039791573755L-25.21145457920153,336.6365428210239z" style="fill:rgb(197,147,42)">
    </path>
    <path d="M-30.256834408240024,293.0206345345788L-28.126660597890403,303.4063473905561L-23.95434628449251,297.7302014566278z" style="fill:rgb(197,147,42)">
    </path>
    <path d="M-17.47514181454123,297.1320868308109L-20.229084396021843,305.95158502609166L-11.772129776874635,293.74859473206124z" style="fill:rgb(197,147,42)">
    </path>
    <path d="M-28.126660597890403,303.4063473905561L-20.229084396021843,305.95158502609166L-23.95434628449251,297.7302014566278z" style="fill:rgb(197,147,42)">
    </path>
    <path d="M-23.676732200559556,289.138301806837L-17.47514181454123,297.1320868308109L-11.772129776874635,293.74859473206124z" style="fill:rgb(197,147,42)">
    </path>
    <path d="M-23.676732200559556,289.138301806837L-30.256834408240024,293.0206345345788L-23.95434628449251,297.7302014566278z" style="fill:rgb(197,147,42)">
    </path>
    <path d="M-72.91764814693518,313.7332508056995L-23.95434628449251,297.73020145662775" style="fill:none;stroke:rgb(197,147,42);stroke-width:5;stroke-linecap:round">
    </path>
    <path d="M-20.229084396021843,305.95158502609166L-17.47514181454123,297.1320868308109L-23.95434628449251,297.7302014566278z" style="fill:rgb(197,147,42)">
    </path>
    <path d="M-17.47514181454123,297.1320868308109L-23.676732200559556,289.138301806837L-23.95434628449251,297.7302014566278z" style="fill:rgb(197,147,42)">
    </path>
    <path d="M18.54547430245516,-537.7487136408191L-121.64209589040026,-575.3587958890241" style="fill:none;stroke:rgb(0,0,0);stroke-width:1;stroke-linecap:round">
    </path>
    <path d="M-121.64209589040026,-575.3587958890241L-632.9325915276765,-444.34584225505716" style="fill:none;stroke:rgb(0,0,0);stroke-width:1;stroke-linecap:round">
    </path>
    <path d="M18.54547430245516,-537.7487136408191L-121.64209589040026,-575.3587958890241" style="fill:none;stroke:rgb(0,0,0);stroke-width:1;stroke-linecap:round">
    </path>
    <path d="M-29.003635359401283,254.05178859116725L-26.871595387543213,264.44984957447974L-22.6949278007485,258.75236187398843z" style="fill:rgb(197,147,42)">
    </path>
    <path d="M-16.209178572247865,258.13548213441305L-18.96613434055435,266.9779479489677L-10.50273551077519,254.80445952458385z" style="fill:rgb(197,147,42)">
    </path>
    <path d="M-26.871595387543213,264.44984957447974L-18.96613434055435,266.9779479489677L-22.6949278007485,258.75236187398843z" style="fill:rgb(197,147,42)">
    </path>
    <path d="M-22.41680325901932,250.14466402657555L-16.209178572247865,258.13548213441305L-10.50273551077519,254.80445952458385z" style="fill:rgb(197,147,42)">
    </path>
    <path d="M-22.41680325901932,250.14466402657555L-29.003635359401283,254.05178859116725L-22.6949278007485,258.75236187398843z" style="fill:rgb(197,147,42)">
    </path>
    <path d="M-71.69854118598782,274.62001518946266L-22.694927800748513,258.7523618739883" style="fill:none;stroke:rgb(197,147,42);stroke-width:5;stroke-linecap:round">
    </path>
    <path d="M-18.96613434055435,266.9779479489677L-16.209178572247865,258.13548213441305L-22.6949278007485,258.75236187398843z" style="fill:rgb(197,147,42)">
    </path>
    <path d="M-16.209178572247865,258.13548213441305L-22.41680325901932,250.14466402657555L-22.6949278007485,258.75236187398843z" style="fill:rgb(197,147,42)">
    </path>
    <path d="M-27.74813197592209,215.01128821928464L-25.6142225776425,225.4217252036833L-21.433192753958107,219.70282680333503z" style="fill:rgb(197,147,42)">
    </path>
    <path d="M-14.940885639325415,219.06711388162495L-17.700861026116076,227.9326169425622L-9.231008572281434,215.78875954677017z" style="fill:rgb(197,147,42)">
    </path>
    <path d="M-25.6142225776425,225.4217252036833L-17.700861026116076,227.9326169425622L-21.433192753958107,219.70282680333503z" style="fill:rgb(197,147,42)">
    </path>
    <path d="M-21.15455634524489,211.07928714523817L-14.940885639325415,219.06711388162495L-9.231008572281434,215.78875954677017z" style="fill:rgb(197,147,42)">
    </path>
    <path d="M-21.15455634524489,211.07928714523817L-27.74813197592209,215.01128821928464L-21.433192753958107,219.70282680333503z" style="fill:rgb(197,147,42)">
    </path>
    <path d="M-70.47718316405982,235.43455762606078L-21.433192753958124,219.70282680333494" style="fill:none;stroke:rgb(197,147,42);stroke-width:5;stroke-linecap:round">
    </path>
    <path d="M-17.700861026116076,227.9326169425622L-14.940885639325415,219.06711388162495L-21.433192753958107,219.70282680333503z" style="fill:rgb(197,147,42)">
    </path>
    <path d="M-14.940885639325415,219.06711388162495L-21.15455634524489,211.07928714523817L-21.433192753958107,219.70282680333503z" style="fill:rgb(197,147,42)">
    </path>
    <path d="M-26.490317896269772,175.89893560391613L-24.354535798102294,186.32177655438304L-20.169134746639667,180.58139824851656z" style="fill:rgb(197,147,42)">
    </path>
    <path d="M-13.670256579026649,179.92678379552913L-16.43325803618096,188.81539399796873L-7.956942525609531,176.7012973532394z" style="fill:rgb(197,147,42)">
    </path>
    <path d="M-24.354535798102294,186.32177655438304L-16.43325803618096,188.81539399796873L-20.169134746639667,180.58139824851656z" style="fill:rgb(197,147,42)">
    </path>
    <path d="M-19.88998505656283,171.9419730059931L-13.670256579026649,179.92678379552913L-7.956942525609531,176.7012973532394z" style="fill:rgb(197,147,42)">
    </path>
    <path d="M-19.88998505656283,171.9419730059931L-26.490317896269772,175.89893560391613L-20.169134746639667,180.58139824851656z" style="fill:rgb(197,147,42)">
    </path>
    <path d="M-69.25356784056892,196.17667789568378L-20.169134746639696,180.58139824851654" style="fill:none;stroke:rgb(197,147,42);stroke-width:5;stroke-linecap:round">
    </path>
    <path d="M-55.64300924473431,-240.49787346097764L-74.13451026450157,352.77446395721876" style="fill:none;stroke:rgb(50,34,0);stroke-width:5;stroke-linecap:round">
    </path>
    <path d="M-74.13451026450157,352.77446395721876L-106.79724660309081,358.25143144046547" style="fill:none;stroke:rgb(160,0,0);stroke-width:3;stroke-linecap:round">
    </path>
    <path d="M-16.43325803618096,188.81539399796873L-13.670256579026649,179.92678379552913L-20.169134746639667,180.58139824851656z" style="fill:rgb(197,147,42)">
    </path>
    <path d="M-13.670256579026649,179.92678379552913L-19.88998505656283,171.9419730059931L-20.169134746639667,180.58139824851656z" style="fill:rgb(197,147,42)">
    </path>
    <path d="M-25.230186735473772,136.71453220123726L-23.092528655368938,147.1498051743745L-18.902747357733286,141.38787748365493z" style="fill:rgb(197,147,42)">
    </path>
    <path d="M-12.3972849308701,140.7142928681042L-15.163318930572341,149.62608037644387L-6.680530911279062,137.54187477161352z" style="fill:rgb(197,147,42)">
    </path>
    <path d="M-23.092528655368938,147.1498051743745L-15.163318930572341,149.62608037644387L-18.902747357733286,141.38787748365493z" style="fill:rgb(197,147,42)">
    </path>
    <path d="M-18.623082966697527,132.73252272154062L-12.3972849308701,140.7142928681042L-6.680530911279062,137.54187477161352z" style="fill:rgb(197,147,42)">
    </path>
    <path d="M-18.623082966697527,132.73252272154062L-25.230186735473772,136.71453220123726L-18.902747357733286,141.38787748365493z" style="fill:rgb(197,147,42)">
    </path>
    <path d="M-68.02768895184396,156.84617503774837L-18.902747357733297,141.38787748365488" style="fill:none;stroke:rgb(197,147,42);stroke-width:5;stroke-linecap:round">
    </path>
    <path d="M-15.163318930572341,149.62608037644387L-12.3972849308701,140.7142928681042L-18.902747357733286,141.38787748365493z" style="fill:rgb(197,147,42)">
    </path>
    <path d="M-12.3972849308701,140.7142928681042L-18.623082966697527,132.73252272154062L-18.902747357733286,141.38787748365493z" style="fill:rgb(197,147,42)">
    </path>
    <path d="M-106.79724660309081,358.25143144046547L-87.65916547454023,-271.25747690772135" style="fill:none;stroke:rgb(0,0,0);stroke-width:1;stroke-linecap:round">
    </path>
    <path d="M-23.967732085017815,97.45787873525458L-21.828194732313033,107.90561187967502L-17.63402414249197,102.12206504978015z" style="fill:rgb(197,147,42)">
    </path>
    <path d="M-11.121964210530749,101.42944135685151L-13.891037245353958,110.36447660604163L-5.401767246003698,98.31029289916748z" style="fill:rgb(197,147,42)">
    </path>
    <path d="M-87.65916547454052,-271.2574769077214L-106.7972466030911,358.25143144046535L-8.64787185198145,294.62640779891154z" style="fill:rgb(0,0,0); fill-opacity: 0.2">
    </path>
    <path d="M-21.828194732313033,107.90561187967502L-13.891037245353958,110.36447660604163L-17.63402414249197,102.12206504978015z" style="fill:rgb(197,147,42)">
    </path>
    <path d="M-17.353843625662208,93.45073667074442L-11.121964210530749,101.42944135685151L-5.401767246003698,98.31029289916748z" style="fill:rgb(197,147,42)">
    </path>
    <path d="M-17.353843625662208,93.45073667074442L-23.967732085017815,97.45787873525458L-17.63402414249197,102.12206504978015z" style="fill:rgb(197,147,42)">
    </path>
    <path d="M-66.79954021101803,117.44284734746942L-17.634024142491977,102.1220650497801" style="fill:none;stroke:rgb(197,147,42);stroke-width:5;stroke-linecap:round">
    </path>
    <path d="M-13.891037245353958,110.36447660604163L-11.121964210530749,101.42944135685151L-17.63402414249197,102.12206504978015z" style="fill:rgb(197,147,42)">
    </path>
    <path d="M-11.121964210530749,101.42944135685151L-17.353843625662208,93.45073667074442L-17.63402414249197,102.12206504978015z" style="fill:rgb(197,147,42)">
    </path>
    <path d="M72.97897028179982,-206.47673205010747L63.17497074800528,-208.02638197527702L65.09228713120191,-205.40755889670083z" style="fill:rgb(43,180,168)">
    </path>
    <path d="M72.97897028179979,-206.47673205010747L63.17497074800528,-208.02638197527702L65.09228713120186,-205.40755889670083z" style="fill:rgb(74,87,214)">
    </path>
    <path d="M63.17497074800528,-208.02638197527702L56.01788513313772,-205.957542180559L65.09228713120191,-205.40755889670083z" style="fill:rgb(43,180,168)">
    </path>
    <path d="M63.17497074800528,-208.02638197527702L56.01788513313772,-205.957542180559L65.09228713120186,-205.40755889670083z" style="fill:rgb(74,87,214)">
    </path>
    <path d="M-22.702947512731097,58.128775194427476L-20.561527588120686,68.58899675114753L-16.36295863237238,62.78376075144689z" style="fill:rgb(197,147,42)">
    </path>
    <path d="M-9.844287909729779,62.07202878140399L-12.616406492720325,71.03038247822889L-4.120645022581499,59.00635209946207z" style="fill:rgb(197,147,42)">
    </path>
    <path d="M-20.561527588120686,68.58899675114753L-12.616406492720325,71.03038247822889L-16.36295863237238,62.78376075144689z" style="fill:rgb(197,147,42)">
    </path>
    <path d="M-16.08226055964956,54.096414495244034L-9.844287909729779,62.07202878140399L-4.120645022581499,59.00635209946207z" style="fill:rgb(197,147,42)">
    </path>
    <path d="M-16.08226055964956,54.096414495244034L-22.702947512731097,58.128775194427476L-16.36295863237238,62.78376075144689z" style="fill:rgb(197,147,42)">
    </path>
    <path d="M67.47391866844681,-275.4412356547938L65.09228713120187,-205.4075588967009" style="fill:none;stroke:rgb(43,180,168);stroke-width:5;stroke-linecap:round">
    </path>
    <path d="M67.47391866844681,-275.4412356547937L65.09228713120187,-205.40755889670083" style="fill:none;stroke:rgb(74,87,214);stroke-width:5;stroke-linecap:round">
    </path>
    <path d="M-65.56911530792092,77.96649237241138L-16.362958632372397,62.78376075144687" style="fill:none;stroke:rgb(197,147,42);stroke-width:5;stroke-linecap:round">
    </path>
    <path d="M71.88954178212524,-203.4472522744865L72.97897028179982,-206.47673205010747L65.09228713120191,-205.40755889670083z" style="fill:rgb(43,180,168)">
    </path>
    <path d="M71.88954178212518,-203.4472522744865L72.97897028179979,-206.47673205010747L65.09228713120186,-205.40755889670083z" style="fill:rgb(74,87,214)">
    </path>
    <path d="M61.39999065420845,-203.1256712610656L56.01788513313772,-205.957542180559L64.4980911083565,-187.93477541020135z" style="fill:rgb(43,180,168)">
    </path>
    <path d="M61.39999065420841,-203.1256712610656L56.01788513313772,-205.957542180559L64.49809110835645,-187.93477541020135z" style="fill:rgb(74,87,214)">
    </path>
    <path d="M56.01788513313772,-205.957542180559L61.39999065420845,-203.1256712610656L65.09228713120191,-205.40755889670083z" style="fill:rgb(43,180,168)">
    </path>
    <path d="M56.01788513313772,-205.957542180559L61.39999065420841,-203.1256712610656L65.09228713120186,-205.40755889670083z" style="fill:rgb(74,87,214)">
    </path>
    <path d="M71.88954178212518,-203.4472522744865L61.39999065420845,-203.1256712610656L64.4980911083565,-187.93477541020135z" style="fill:rgb(43,180,168)">
    </path>
    <path d="M71.88954178212518,-203.4472522744865L61.39999065420841,-203.1256712610656L64.49809110835645,-187.93477541020135z" style="fill:rgb(74,87,214)">
    </path>
    <path d="M-12.616406492720325,71.03038247822889L-9.844287909729779,62.07202878140399L-16.36295863237238,62.78376075144689z" style="fill:rgb(197,147,42)">
    </path>
    <path d="M-9.844287909729779,62.07202878140399L-16.08226055964956,54.096414495244034L-16.36295863237238,62.78376075144689z" style="fill:rgb(197,147,42)">
    </path>
    <path d="M61.39999065420845,-203.1256712610656L71.88954178212518,-203.4472522744865L65.09228713120191,-205.40755889670083z" style="fill:rgb(43,180,168)">
    </path>
    <path d="M61.39999065420841,-203.1256712610656L71.88954178212518,-203.4472522744865L65.09228713120186,-205.40755889670083z" style="fill:rgb(74,87,214)">
    </path>
    <path d="M18.545474302454867,-537.7487136408192L-8.64787185198145,294.62640779891154L-87.65916547454052,-271.2574769077214z" style="fill:rgb(0,0,0); fill-opacity: 0.2">
    </path>
    <path d="M-21.435826562679097,18.727020828271186L-19.29252075818401,29.199759131105886L-15.089544334924922,23.37276365333208z" style="fill:rgb(197,147,42)">
    </path>
    <path d="M-8.56424949612392,22.64185392011566L-11.339420160886322,31.623597044482658L-2.837157709784602,19.629851998957278z" style="fill:rgb(197,147,42)">
    </path>
    <path d="M-19.29252075818401,29.199759131105886L-11.339420160886322,31.623597044482658L-15.089544334924922,23.37276365333208z" style="fill:rgb(197,147,42)">
    </path>
    <path d="M-14.808327270921685,14.669355096048141L-8.56424949612392,22.64185392011566L-2.837157709784602,19.629851998957278z" style="fill:rgb(197,147,42)">
    </path>
    <path d="M-14.808327270921685,14.669355096048141L-21.435826562679097,18.727020828271186L-15.089544334924922,23.37276365333208z" style="fill:rgb(197,147,42)">
    </path>
    <path d="M-64.33640790897113,38.4169069090213L-15.089544334924936,23.37276365333205" style="fill:none;stroke:rgb(197,147,42);stroke-width:5;stroke-linecap:round">
    </path>
    <path d="M-11.339420160886322,31.623597044482658L-8.56424949612392,22.64185392011566L-15.089544334924922,23.37276365333208z" style="fill:rgb(197,147,42)">
    </path>
    <path d="M-8.56424949612392,22.64185392011566L-14.808327270921685,14.669355096048141L-15.089544334924922,23.37276365333208z" style="fill:rgb(197,147,42)">
    </path>
    <path d="M-20.16636275505383,-20.747585856058734L-18.02116775399134,-10.2623023800988L-13.8137747336831,-16.11112792318627z" style="fill:rgb(197,147,42)">
    </path>
    <path d="M67.47391866844681,-275.4412356547937L-80.55498646345379,-233.4272922040146" style="fill:none;stroke:rgb(0,44,41);stroke-width:5;stroke-linecap:round">
    </path>
    <path d="M67.47391866844681,-275.4412356547937L60.49682182730053,-312.84574952765666" style="fill:none;stroke:rgb(0,0,0);stroke-width:1;stroke-linecap:round">
    </path>
    <path d="M-439.82907820028066,-131.45719818682835L67.47391866844681,-275.4412356547937" style="fill:none;stroke:rgb(10,15,55);stroke-width:5;stroke-linecap:round">
    </path>
    <path d="M67.47391866844681,-275.4412356547937L60.49682182730053,-312.84574952765666" style="fill:none;stroke:rgb(0,0,0);stroke-width:1;stroke-linecap:round">
    </path>
    <path d="M-7.281842413194192,-16.8612851933677L-10.060071713976468,-7.856081387132332L-1.5512987522480968,-19.819408516392595z" style="fill:rgb(197,147,42)">
    </path>
    <path d="M-18.02116775399134,-10.2623023800988L-10.060071713976468,-7.856081387132332L-13.8137747336831,-16.11112792318627z" style="fill:rgb(197,147,42)">
    </path>
    <path d="M-13.532037237699303,-24.830643369890698L-7.281842413194192,-16.8612851933677L-1.5512987522480968,-19.819408516392595z" style="fill:rgb(197,147,42)">
    </path>
    <path d="M45.89052028254189,-198.63709111904234L36.07370053685246,-200.19244099463978L37.978051726914835,-197.5630596386118z" style="fill:rgb(74,87,214)">
    </path>
    <path d="M-13.532037237699303,-24.830643369890698L-20.16636275505383,-20.747585856058734L-13.8137747336831,-16.11112792318627z" style="fill:rgb(197,147,42)">
    </path>
    <path d="M-63.10141165706714,-1.206113000857892L-13.813774733683127,-16.111127923186295" style="fill:none;stroke:rgb(197,147,42);stroke-width:5;stroke-linecap:round">
    </path>
    <path d="M36.07370053685246,-200.19244099463978L28.8858690773841,-198.11471375183805L37.978051726914835,-197.5630596386118z" style="fill:rgb(74,87,214)">
    </path>
    <path d="M60.49682182730026,-312.8457495276568L18.545474302454867,-537.7487136408192" style="fill:none;stroke:rgb(0,0,0);stroke-width:1;stroke-linecap:round">
    </path>
    <path d="M60.49682182730026,-312.8457495276568L18.545474302454867,-537.7487136408192" style="fill:none;stroke:rgb(0,0,0);stroke-width:1;stroke-linecap:round">
    </path>
    <path d="M43.71842160398656,-198.00846623621655L33.90057538743093,-199.56427360501317L35.80388379067489,-196.9340447131126z" style="fill:rgb(43,180,168)">
    </path>
    <path d="M-10.060071713976468,-7.856081387132332L-7.281842413194192,-16.8612851933677L-13.8137747336831,-16.11112792318627z" style="fill:rgb(197,147,42)">
    </path>
    <path d="M33.90057538743093,-199.56427360501317L26.71027570577834,-197.48583289355227L35.80388379067489,-196.9340447131126z" style="fill:rgb(43,180,168)">
    </path>
    <path d="M-7.281842413194192,-16.8612851933677L-13.532037237699303,-24.830643369890698L-13.8137747336831,-16.11112792318627z" style="fill:rgb(197,147,42)">
    </path>
    <path d="M40.32046884107531,-267.7344738941482L37.97805172691483,-197.56305963861178" style="fill:none;stroke:rgb(74,87,214);stroke-width:5;stroke-linecap:round">
    </path>
    <path d="M44.77828799197371,-195.59518356685993L45.89052028254189,-198.63709111904234L37.978051726914835,-197.5630596386118z" style="fill:rgb(74,87,214)">
    </path>
    <path d="M34.26177512241937,-195.27162773753759L28.8858690773841,-198.11471375183805L37.39364191333733,-180.05598847027062z" style="fill:rgb(74,87,214)">
    </path>
    <path d="M38.14314824113459,-267.1165011780857L35.80388379067488,-196.9340447131126" style="fill:none;stroke:rgb(43,180,168);stroke-width:5;stroke-linecap:round">
    </path>
    <path d="M28.8858690773841,-198.11471375183805L34.26177512241937,-195.27162773753759L37.978051726914835,-197.5630596386118z" style="fill:rgb(74,87,214)">
    </path>
    <path d="M44.77828799197371,-195.59518356685993L34.26177512241937,-195.27162773753759L37.39364191333733,-180.05598847027062z" style="fill:rgb(74,87,214)">
    </path>
    <path d="M42.604356983597725,-194.96556105749414L43.71842160398656,-198.00846623621655L35.80388379067489,-196.9340447131126z" style="fill:rgb(43,180,168)">
    </path>
    <path d="M32.08568134803858,-194.64184663806756L26.71027570577834,-197.48583289355227L35.22026074016669,-179.42422476684825z" style="fill:rgb(43,180,168)">
    </path>
    <path d="M34.26177512241937,-195.27162773753759L44.77828799197371,-195.59518356685993L37.978051726914835,-197.5630596386118z" style="fill:rgb(74,87,214)">
    </path>
    <path d="M26.71027570577834,-197.48583289355227L32.08568134803858,-194.64184663806756L35.80388379067489,-196.9340447131126z" style="fill:rgb(43,180,168)">
    </path>
    <path d="M42.604356983597725,-194.96556105749414L32.08568134803858,-194.64184663806756L35.22026074016669,-179.42422476684825z" style="fill:rgb(43,180,168)">
    </path>
    <path d="M-18.894549586063242,-60.295247097201184L-16.74746206301645,-49.79738992751075L-12.535643288052503,-55.66811640346924z" style="fill:rgb(197,147,42)">
    </path>
    <path d="M-55.64300924473431,-240.49787346097764L-74.13451026450157,352.77446395721876L-106.79724660309081,358.25143144046547z" style="fill:rgb(0,0,0); fill-opacity: 0.2">
    </path>
    <path d="M32.08568134803858,-194.64184663806756L42.604356983597725,-194.96556105749414L35.80388379067489,-196.9340447131126z" style="fill:rgb(43,180,168)">
    </path>
    <path d="M-5.997060080133824,-56.43759127355682L-8.778354591913267,-47.408855255404184L-0.26306157035849487,-59.34163130456292z" style="fill:rgb(197,147,42)">
    </path>
    <path d="M-16.74746206301645,-49.79738992751075L-8.778354591913267,-47.408855255404184L-12.535643288052503,-55.66811640346924z" style="fill:rgb(197,147,42)">
    </path>
    <path d="M-12.253383914050639,-64.40378349312051L-5.997060080133824,-56.43759127355682L-0.26306157035849487,-59.34163130456292z" style="fill:rgb(197,147,42)">
    </path>
    <path d="M-12.253383914050639,-64.40378349312051L-18.894549586063242,-60.295247097201184L-12.535643288052503,-55.66811640346924z" style="fill:rgb(197,147,42)">
    </path>
    <path d="M-61.86412017147818,-40.90277207349353L-12.535643288052519,-55.66811640346926" style="fill:none;stroke:rgb(197,147,42);stroke-width:5;stroke-linecap:round">
    </path>
    <path d="M-8.778354591913267,-47.408855255404184L-5.997060080133824,-56.43759127355682L-12.535643288052503,-55.66811640346924z" style="fill:rgb(197,147,42)">
    </path>
    <path d="M-5.997060080133824,-56.43759127355682L-12.253383914050639,-64.40378349312051L-12.535643288052503,-55.66811640346924z" style="fill:rgb(197,147,42)">
    </path>
    <path d="M18.545474302454867,-537.7487136408192L18.545474302454867,-537.7487136408192L60.49682182730026,-312.8457495276568z" style="fill:rgb(0,0,0); fill-opacity: 0.2">
    </path>
    <path d="M-17.620380527820195,-99.91616588304304L-15.471397148607453,-89.40570640502119L-11.255143433198894,-95.29840496307638z" style="fill:rgb(197,147,42)">
    </path>
    <path d="M-4.709895891735764,-96.0872677865863L-7.494262210305128,-87.03492774943457L1.0275604398584344,-98.93701897090178z" style="fill:rgb(197,147,42)">
    </path>
    <path d="M-15.471397148607453,-89.40570640502119L-7.494262210305128,-87.03492774943457L-11.255143433198894,-95.29840496307638z" style="fill:rgb(197,147,42)">
    </path>
    <path d="M-10.97236072977933,-104.05026861515324L-4.709895891735764,-96.0872677865863L1.0275604398584344,-98.93701897090178z" style="fill:rgb(197,147,42)">
    </path>
    <path d="M-10.97236072977933,-104.05026861515324L-17.620380527820195,-99.91616588304304L-11.255143433198894,-95.29840496307638z" style="fill:rgb(197,147,42)">
    </path>
    <path d="M-60.6245270477343,-80.67327578678878L-11.25514343319891,-95.2984049630764" style="fill:none;stroke:rgb(197,147,42);stroke-width:5;stroke-linecap:round">
    </path>
    <path d="M-87.65916547454052,-271.2574769077214L18.545474302454867,-537.7487136408192" style="fill:none;stroke:rgb(0,0,0);stroke-width:1;stroke-linecap:round">
    </path>
    <path d="M18.545474302454867,-537.7487136408192L18.545474302454867,-537.7487136408192" style="fill:none;stroke:rgb(0,0,0);stroke-width:1;stroke-linecap:round">
    </path>
    <path d="M-87.65916547454052,-271.2574769077214L18.545474302454867,-537.7487136408192" style="fill:none;stroke:rgb(0,0,0);stroke-width:1;stroke-linecap:round">
    </path>
    <path d="M18.545474302454867,-537.7487136408192L-491.8461094072169,-404.0061191819869" style="fill:none;stroke:rgb(0,0,0);stroke-width:1;stroke-linecap:round">
    </path>
    <path d="M-7.494262210305128,-87.03492774943457L-4.709895891735764,-96.0872677865863L-11.255143433198894,-95.29840496307638z" style="fill:rgb(197,147,42)">
    </path>
    <path d="M-4.709895891735764,-96.0872677865863L-10.97236072977933,-104.05026861515324L-11.255143433198894,-95.29840496307638z" style="fill:rgb(197,147,42)">
    </path>
    <path d="M18.685574570677396,-190.76373528155503L8.855914877315767,-192.32481985293043L10.747171506934299,-189.68481352553954z" style="fill:rgb(74,87,214)">
    </path>
    <path d="M8.855914877315767,-192.32481985293043L1.6371390270445458,-190.23814776992958L10.747171506934299,-189.68481352553954z" style="fill:rgb(74,87,214)">
    </path>
    <path d="M13.050014084473657,-259.99450349444834L10.747171506934269,-189.68481352553954" style="fill:none;stroke:rgb(74,87,214);stroke-width:5;stroke-linecap:round">
    </path>
    <path d="M14.321922225374866,-189.5008550674376L4.49020631565943,-191.06286043389906L6.379355722791656,-188.42114788395705z" style="fill:rgb(43,180,168)">
    </path>
    <path d="M17.55035214749261,-187.70932094049266L18.685574570677396,-190.76373528155503L10.747171506934299,-189.68481352553954z" style="fill:rgb(74,87,214)">
    </path>
    <path d="M7.006742354739475,-187.38377625585886L1.6371390270445458,-190.23814776992958L10.172637672173149,-172.1433210272259z" style="fill:rgb(74,87,214)">
    </path>
    <path d="M-16.34384902823088,-139.61054595419262L-14.192966449875037,-129.08745545883906L-9.972268579935866,-135.002197531244z" style="fill:rgb(197,147,42)">
    </path>
    <path d="M4.49020631565943,-191.06286043389906L-2.7335391764391797,-188.97475181746398L6.379355722791656,-188.42114788395705z" style="fill:rgb(43,180,168)">
    </path>
    <path d="M1.6371390270445458,-190.23814776992958L7.006742354739475,-187.38377625585886L10.747171506934299,-189.68481352553954z" style="fill:rgb(74,87,214)">
    </path>
    <path d="M17.55035214749261,-187.70932094049266L7.006742354739475,-187.38377625585886L10.172637672173149,-172.1433210272259z" style="fill:rgb(74,87,214)">
    </path>
    <path d="M-3.4203432182795392,-135.81051895370194L-6.207787960333714,-126.73450281211748L2.3205739068506657,-138.60577487159176z" style="fill:rgb(197,147,42)">
    </path>
    <path d="M-14.192966449875037,-129.08745545883906L-6.207787960333714,-126.73450281211748L-9.972268579935866,-135.002197531244z" style="fill:rgb(197,147,42)">
    </path>
    <path d="M-9.688961090311977,-143.7703028319479L-3.4203432182795392,-135.81051895370194L2.3205739068506657,-138.60577487159176z" style="fill:rgb(197,147,42)">
    </path>
    <path d="M-9.688961090311977,-143.7703028319479L-16.34384902823088,-139.61054595419262L-9.972268579935866,-135.002197531244z" style="fill:rgb(197,147,42)">
    </path>
    <path d="M7.006742354739475,-187.38377625585886L17.55035214749261,-187.70932094049266L10.747171506934299,-189.68481352553954z" style="fill:rgb(74,87,214)">
    </path>
    <path d="M8.675832717892469,-258.7530121221029L6.37935572279167,-188.42114788395705" style="fill:none;stroke:rgb(43,180,168);stroke-width:5;stroke-linecap:round">
    </path>
    <path d="M-59.38262585751588,-120.51783038382787L-9.972268579935895,-135.00219753124404" style="fill:none;stroke:rgb(197,147,42);stroke-width:5;stroke-linecap:round">
    </path>
    <path d="M13.183003970012667,-186.44443226270832L14.321922225374866,-189.5008550674376L6.379355722791656,-188.42114788395705z" style="fill:rgb(43,180,168)">
    </path>
    <path d="M2.6350460581043293,-186.1185680499178L-2.7335391764391797,-188.97475181746398L5.806410434532697,-170.8741355186337z" style="fill:rgb(43,180,168)">
    </path>
    <path d="M-2.7335391764391797,-188.97475181746398L2.6350460581043293,-186.1185680499178L6.379355722791656,-188.42114788395705z" style="fill:rgb(43,180,168)">
    </path>
    <path d="M-6.207787960333714,-126.73450281211748L-3.4203432182795392,-135.81051895370194L-9.972268579935866,-135.002197531244z" style="fill:rgb(197,147,42)">
    </path>
    <path d="M13.183003970012667,-186.44443226270832L2.6350460581043293,-186.1185680499178L5.806410434532697,-170.8741355186337z" style="fill:rgb(43,180,168)">
    </path>
    <path d="M-3.4203432182795392,-135.81051895370194L-9.688961090311977,-143.7703028319479L-9.972268579935866,-135.002197531244z" style="fill:rgb(197,147,42)">
    </path>
    <path d="M2.6350460581043293,-186.1185680499178L13.183003970012667,-186.44443226270832L6.379355722791656,-188.42114788395705z" style="fill:rgb(43,180,168)">
    </path>
    <path d="M-15.064948510882324,-179.37859180747122L-12.912163381579871,-168.84284149098147L-8.687012114611894,-174.7796987943837z" style="fill:rgb(197,147,42)">
    </path>
    <path d="M-2.1283954054172805,-175.60754975476615L-4.918925208640395,-166.50778514363864L3.6159854836532155,-178.348103117132z" style="fill:rgb(197,147,42)">
    </path>
    <path d="M-12.912163381579871,-168.84284149098147L-4.918925208640395,-166.50778514363864L-8.687012114611894,-174.7796987943837z" style="fill:rgb(197,147,42)">
    </path>
    <path d="M-8.403178376585045,-183.5640909974127L-2.1283954054172805,-175.60754975476615L3.6159854836532155,-178.348103117132z" style="fill:rgb(197,147,42)">
    </path>
    <path d="M-8.403178376585045,-183.5640909974127L-15.064948510882324,-179.37859180747122L-8.687012114611894,-174.7796987943837z" style="fill:rgb(197,147,42)">
    </path>
    <path d="M-58.13841014854252,-160.43664287644165L-8.68701211461191,-174.77969879438376" style="fill:none;stroke:rgb(197,147,42);stroke-width:5;stroke-linecap:round">
    </path>
    <path d="M60.49682182730053,-312.84574952765666L-87.65916547454023,-271.25747690772135L67.47391866844681,-275.4412356547937z" style="fill:rgb(0,0,0); fill-opacity: 0.2">
    </path>
    <path d="M-4.918925208640395,-166.50778514363864L-2.1283954054172805,-175.60754975476615L-8.687012114611894,-174.7796987943837z" style="fill:rgb(197,147,42)">
    </path>
    <path d="M-2.1283954054172805,-175.60754975476615L-8.403178376585045,-183.5640909974127L-8.687012114611894,-174.7796987943837z" style="fill:rgb(197,147,42)">
    </path>
    <path d="M-8.636619969751845,-182.85644657911755L-18.479139244884493,-184.42330088251268L-16.60110785625204,-181.77260232077109z" style="fill:rgb(74,87,214)">
    </path>
    <path d="M-18.479139244884493,-184.42330088251268L-25.729059745372872,-182.32762607197319L-16.60110785625204,-181.77260232077109z" style="fill:rgb(74,87,214)">
    </path>
    <path d="M-13.783672374929644,-219.2205086994259L-11.62898133401962,-208.67206966278283L-7.399367398996553,-214.63111419959904z" style="fill:rgb(197,147,42)">
    </path>
    <path d="M-0.8340457740594455,-215.4785659317848L-3.62766729721233,-206.35498020499313L4.913801848002407,-218.16420857583816z" style="fill:rgb(197,147,42)">
    </path>
    <path d="M-11.62898133401962,-208.67206966278283L-3.62766729721233,-206.35498020499313L-7.399367398996553,-214.63111419959904z" style="fill:rgb(197,147,42)">
    </path>
    <path d="M-7.115005944930943,-223.43183872692657L-0.8340457740594455,-215.4785659317848L4.913801848002407,-218.16420857583816z" style="fill:rgb(197,147,42)">
    </path>
    <path d="M60.49682182730026,-312.8457495276568L-87.65916547454052,-271.2574769077214L18.545474302454867,-537.7487136408192z" style="fill:rgb(0,0,0); fill-opacity: 0.2">
    </path>
    <path d="M-14.338203500235812,-252.2211093468911L-16.60110785625205,-181.77260232077109" style="fill:none;stroke:rgb(74,87,214);stroke-width:5;stroke-linecap:round">
    </path>
    <path d="M-7.115005944930943,-223.43183872692657L-13.783672374929644,-219.2205086994259L-7.399367398996553,-214.63111419959904z" style="fill:rgb(197,147,42)">
    </path>
    <path d="M-9.795020644252691,-179.7894457603029L-8.636619969751845,-182.85644657911755L-16.60110785625204,-181.77260232077109z" style="fill:rgb(74,87,214)">
    </path>
    <path d="M-20.3658635404803,-179.46189805419138L-25.729059745372872,-182.32762607197319L-17.165675053309176,-164.19655406983438z" style="fill:rgb(74,87,214)">
    </path>
    <path d="M-56.89187344446127,-200.42992104879187L-7.399367398996557,-214.63111419959907" style="fill:none;stroke:rgb(197,147,42);stroke-width:5;stroke-linecap:round">
    </path>
    <path d="M-25.729059745372872,-182.32762607197319L-20.3658635404803,-179.46189805419138L-16.60110785625204,-181.77260232077109z" style="fill:rgb(74,87,214)">
    </path>
    <path d="M-15.21147754385059,-180.95362369500117L-25.057086028608452,-182.52186798007037L-23.18224829037227,-179.86859320957652z" style="fill:rgb(43,180,168)">
    </path>
    <path d="M-9.795020644252691,-179.7894457603029L-20.3658635404803,-179.46189805419138L-17.165675053309176,-164.19655406983438z" style="fill:rgb(74,87,214)">
    </path>
    <path d="M-3.62766729721233,-206.35498020499313L-0.8340457740594455,-215.4785659317848L-7.399367398996553,-214.63111419959904z" style="fill:rgb(197,147,42)">
    </path>
    <path d="M-25.057086028608452,-182.52186798007037L-32.31451123575778,-180.42402384578327L-23.18224829037227,-179.86859320957652z" style="fill:rgb(43,180,168)">
    </path>
    <path d="M-0.8340457740594455,-215.4785659317848L-7.115005944930943,-223.43183872692657L-7.399367398996553,-214.63111419959904z" style="fill:rgb(197,147,42)">
    </path>
    <path d="M-20.3658635404803,-179.46189805419138L-9.795020644252691,-179.7894457603029L-16.60110785625204,-181.77260232077109z" style="fill:rgb(74,87,214)">
    </path>
    <path d="M-20.928983624367508,-250.35049723106792L-23.18224829037228,-179.86859320957663" style="fill:none;stroke:rgb(43,180,168);stroke-width:5;stroke-linecap:round">
    </path>
    <path d="M-16.375469189982887,-177.8835901880002L-15.21147754385059,-180.95362369500117L-23.18224829037227,-179.86859320957652z" style="fill:rgb(43,180,168)">
    </path>
    <path d="M-26.952868406502745,-177.5555596345989L-32.31451123575778,-180.42402384578327L-23.744409904598577,-162.28423148933598z" style="fill:rgb(43,180,168)">
    </path>
    <path d="M-32.31451123575778,-180.42402384578327L-26.952868406502745,-177.5555596345989L-23.18224829037227,-179.86859320957652z" style="fill:rgb(43,180,168)">
    </path>
    <path d="M-16.375469189982887,-177.8835901880002L-26.952868406502745,-177.5555596345989L-23.744409904598577,-162.28423148933598z" style="fill:rgb(43,180,168)">
    </path>
    <path d="M-12.50001399498232,-259.1365026498596L-10.343413672915323,-248.57534589842493L-6.109327770166288,-254.55664995822343z" style="fill:rgb(197,147,42)">
    </path>
    <path d="M0.46271237974044477,-255.42377399245171L-2.334007543267875,-246.2762942215241L6.2140297024505475,-258.0542968773634z" style="fill:rgb(197,147,42)">
    </path>
    <path d="M-26.952868406502745,-177.5555596345989L-16.375469189982887,-177.8835901880002L-23.18224829037227,-179.86859320957652z" style="fill:rgb(43,180,168)">
    </path>
    <path d="M-10.343413672915323,-248.57534589842493L-2.334007543267875,-246.2762942215241L-6.109327770166288,-254.55664995822343z" style="fill:rgb(197,147,42)">
    </path>
    <path d="M-5.824437126963654,-263.3737524008809L0.46271237974044477,-255.42377399245171L6.2140297024505475,-258.0542968773634z" style="fill:rgb(197,147,42)">
    </path>
    <path d="M-5.824437126963654,-263.3737524008809L-12.50001399498232,-259.1365026498596L-6.109327770166288,-254.55664995822343z" style="fill:rgb(197,147,42)">
    </path>
    <path d="M-55.64300924473431,-240.49787346097764L-6.1093277701663045,-254.55664995822352" style="fill:none;stroke:rgb(197,147,42);stroke-width:5;stroke-linecap:round">
    </path>
    <path d="M-2.334007543267875,-246.2762942215241L0.46271237974044477,-255.42377399245171L-6.109327770166288,-254.55664995822343z" style="fill:rgb(197,147,42)">
    </path>
    <path d="M0.46271237974044477,-255.42377399245171L-5.824437126963654,-263.3737524008809L-6.109327770166288,-254.55664995822343z" style="fill:rgb(197,147,42)">
    </path>
    <path d="M-87.65916547454023,-271.25747690772135L-106.79724660309081,358.25143144046547L-55.64300924473431,-240.49787346097764z" style="fill:rgb(0,0,0); fill-opacity: 0.2">
    </path>
    <path d="M-36.07682296033406,-174.91500517041382L-45.93222134679578,-176.48766453604887L-44.06754720839687,-173.82620590178217z" style="fill:rgb(74,87,214)">
    </path>
    <path d="M-45.93222134679578,-176.48766453604887L-53.21348848864641,-174.3829286100539L-44.06754720839687,-173.82620590178217z" style="fill:rgb(74,87,214)">
    </path>
    <path d="M-41.84494837180987,-244.41407448083194L-44.067547208396874,-173.82620590178217" style="fill:none;stroke:rgb(74,87,214);stroke-width:5;stroke-linecap:round">
    </path>
    <path d="M-37.25859180213535,-171.8353375011408L-36.07682296033406,-174.91500517041382L-44.06754720839687,-173.82620590178217z" style="fill:rgb(74,87,214)">
    </path>
    <path d="M-47.856804990536844,-171.50577247922178L-53.21348848864641,-174.3829286100539L-44.62205620916512,-156.21546669513603z" style="fill:rgb(74,87,214)">
    </path>
    <path d="M-53.21348848864641,-174.3829286100539L-47.856804990536844,-171.50577247922178L-44.06754720839687,-173.82620590178217z" style="fill:rgb(74,87,214)">
    </path>
    <path d="M-37.25859180213535,-171.8353375011408L-47.856804990536844,-171.50577247922178L-44.62205620916512,-156.21546669513603z" style="fill:rgb(74,87,214)">
    </path>
    <path d="M-47.856804990536844,-171.50577247922178L-37.25859180213535,-171.8353375011408L-44.06754720839687,-173.82620590178217z" style="fill:rgb(74,87,214)">
    </path>
    <path d="M-44.88273625961865,-172.36649470420497L-54.7422600688797,-173.9410191999372L-52.8818883500457,-171.2761029202585z" style="fill:rgb(43,180,168)">
    </path>
    <path d="M-54.7422600688797,-173.9410191999372L-62.03360108187483,-171.83337130297636L-52.8818883500457,-171.2761029202585z" style="fill:rgb(43,180,168)">
    </path>
    <path d="M-50.67226544880953,-241.90868271180753L-52.88188835004571,-171.2761029202585" style="fill:none;stroke:rgb(43,180,168);stroke-width:5;stroke-linecap:round">
    </path>
    <path d="M-46.07202332154395,-169.2827565553825L-44.88273625961865,-172.36649470420497L-52.8818883500457,-171.2761029202585z" style="fill:rgb(43,180,168)">
    </path>
    <path d="M-56.67902414372813,-168.9525429523171L-62.03360108187483,-171.83337130297636L-53.433159242461976,-153.65423392461804z" style="fill:rgb(43,180,168)">
    </path>
    <path d="M-62.03360108187483,-171.83337130297636L-56.67902414372813,-168.9525429523171L-52.8818883500457,-171.2761029202585z" style="fill:rgb(43,180,168)">
    </path>
    <path d="M-46.07202332154395,-169.2827565553825L-56.67902414372813,-168.9525429523171L-53.433159242461976,-153.65423392461804z" style="fill:rgb(43,180,168)">
    </path>
    <path d="M67.47391866844681,-275.4412356547937L-80.55498646345379,-233.4272922040146L-87.65916547454023,-271.25747690772135z" style="fill:rgb(0,0,0); fill-opacity: 0.2">
    </path>
    <path d="M-56.67902414372813,-168.9525429523171L-46.07202332154395,-169.2827565553825L-52.8818883500457,-171.2761029202585z" style="fill:rgb(43,180,168)">
    </path>
    <path d="M-62.25501891519962,-167.338799942177L-72.12267044883868,-168.9170071121266L-70.27080919603402,-166.2452630443991z" style="fill:rgb(109,213,75)">
    </path>
    <path d="M-72.12267044883868,-168.9170071121266L-79.43390558843424,-166.80360858383247L-70.27080919603402,-166.2452630443991z" style="fill:rgb(109,213,75)">
    </path>
    <path d="M-63.63580059868659,-166.93918931096601L-73.50409751857961,-168.51768936616529L-71.65291398405196,-165.84540223982364z" style="fill:rgb(74,87,214)">
    </path>
    <path d="M-73.50409751857961,-168.51768936616529L-80.81691504342785,-166.40383343079833L-71.65291398405196,-165.84540223982364z" style="fill:rgb(74,87,214)">
    </path>
    <path d="M-68.08684414131595,-236.96603233042308L-70.27080919603402,-166.2452630443991" style="fill:none;stroke:rgb(109,213,75);stroke-width:5;stroke-linecap:round">
    </path>
    <path d="M-63.459165081115835,-164.24702369027258L-62.25501891519962,-167.338799942177L-70.27080919603402,-166.2452630443991z" style="fill:rgb(109,213,75)">
    </path>
    <path d="M-74.08350804543723,-163.91552886019886L-79.43390558843424,-166.80360858383247L-70.81567727529118,-148.6014414817694z" style="fill:rgb(109,213,75)">
    </path>
    <path d="M-69.4709916200107,-236.5731800435971L-71.65291398405196,-165.84540223982364" style="fill:none;stroke:rgb(74,87,214);stroke-width:5;stroke-linecap:round">
    </path>
    <path d="M-64.84112934163949,-163.8467737273197L-63.63580059868659,-166.93918931096601L-71.65291398405196,-165.84540223982364z" style="fill:rgb(74,87,214)">
    </path>
    <path d="M-75.46685102916426,-163.51517696567456L-80.81691504342785,-166.40383343079833L-72.19727231975008,-148.19983608797466z" style="fill:rgb(74,87,214)">
    </path>
    <path d="M-79.43390558843424,-166.80360858383247L-74.08350804543723,-163.91552886019886L-70.27080919603402,-166.2452630443991z" style="fill:rgb(109,213,75)">
    </path>
    <path d="M-63.459165081115835,-164.24702369027258L-74.08350804543723,-163.91552886019886L-70.81567727529118,-148.6014414817694z" style="fill:rgb(109,213,75)">
    </path>
    <path d="M-80.81691504342785,-166.40383343079833L-75.46685102916426,-163.51517696567456L-71.65291398405196,-165.84540223982364z" style="fill:rgb(74,87,214)">
    </path>
    <path d="M-64.84112934163949,-163.8467737273197L-75.46685102916426,-163.51517696567456L-72.19727231975008,-148.19983608797466z" style="fill:rgb(74,87,214)">
    </path>
    <path d="M-74.08350804543723,-163.91552886019886L-63.459165081115835,-164.24702369027258L-70.27080919603402,-166.2452630443991z" style="fill:rgb(109,213,75)">
    </path>
    <path d="M-75.46685102916426,-163.51517696567456L-64.84112934163949,-163.8467737273197L-71.65291398405196,-165.84540223982364z" style="fill:rgb(74,87,214)">
    </path>
    <path d="M-74.69282144767898,-163.73918808439987L-84.56628319449915,-165.32003445822895L-82.72053354470438,-162.64339664616327z" style="fill:rgb(43,180,168)">
    </path>
    <path d="M-55.64300924473431,-240.49787346097764L-87.65916547454023,-271.25747690772135" style="fill:none;stroke:rgb(0,0,0);stroke-width:1;stroke-linecap:round">
    </path>
    <path d="M-80.55498646345379,-233.4272922040146L-55.64300924473431,-240.49787346097764" style="fill:none;stroke:rgb(22,55,11);stroke-width:5;stroke-linecap:round">
    </path>
    <path d="M-55.64300924473431,-240.49787346097764L-87.65916547454023,-271.25747690772135" style="fill:none;stroke:rgb(0,0,0);stroke-width:1;stroke-linecap:round">
    </path>
    <path d="M-84.56628319449915,-165.32003445822895L-91.89177831592679,-163.20251391442818L-82.72053354470438,-162.64339664616327z" style="fill:rgb(43,180,168)">
    </path>
    <path d="M-80.55498646345379,-233.4272922040146L-82.72053354470438,-162.64339664616324" style="fill:none;stroke:rgb(43,180,168);stroke-width:5;stroke-linecap:round">
    </path>
    <path d="M-75.90762824773826,-160.64165048085704L-74.69282144767898,-163.73918808439987L-82.72053354470438,-162.64339664616327z" style="fill:rgb(43,180,168)">
    </path>
    <path d="M-86.54439226283694,-160.30923695532178L-91.89177831592679,-163.20251391442818L-83.26080551720871,-144.98386146187354z" style="fill:rgb(43,180,168)">
    </path>
    <path d="M-91.89177831592679,-163.20251391442818L-86.54439226283694,-160.30923695532178L-82.72053354470438,-162.64339664616327z" style="fill:rgb(43,180,168)">
    </path>
    <path d="M-75.90762824773826,-160.64165048085704L-86.54439226283694,-160.30923695532178L-83.26080551720871,-144.98386146187354z" style="fill:rgb(43,180,168)">
    </path>
    <path d="M-86.54439226283694,-160.30923695532178L-75.90762824773826,-160.64165048085704L-82.72053354470438,-162.64339664616327z" style="fill:rgb(43,180,168)">
    </path>
    <path d="M-91.31432572977096,-158.92877533249504L-101.19554049477335,-160.51315200485334L-99.35798227804528,-157.829967379242z" style="fill:rgb(74,87,214)">
    </path>
    <path d="M-101.19554049477335,-160.51315200485334L-108.5401139137485,-158.3901166547047L-99.35798227804528,-157.829967379242z" style="fill:rgb(74,87,214)">
    </path>
    <path d="M-80.55498646345379,-233.4272922040146L-55.64300924473431,-240.49787346097764L-87.65916547454023,-271.25747690772135z" style="fill:rgb(0,0,0); fill-opacity: 0.2">
    </path>
    <path d="M-97.21711103766003,-228.69820528003336L-99.3579822780453,-157.829967379242" style="fill:none;stroke:rgb(74,87,214);stroke-width:5;stroke-linecap:round">
    </path>
    <path d="M-92.54340794645316,-155.82353007188138L-91.31432572977096,-158.92877533249504L-99.35798227804528,-157.829967379242z" style="fill:rgb(74,87,214)">
    </path>
    <path d="M-103.19677736824532,-155.48988701555783L-108.5401139137485,-158.3901166547047L-99.89209655905321,-140.14943750026237z" style="fill:rgb(74,87,214)">
    </path>
    <path d="M-108.5401139137485,-158.3901166547047L-103.19677736824532,-155.48988701555783L-99.35798227804528,-157.829967379242z" style="fill:rgb(74,87,214)">
    </path>
    <path d="M-92.54340794645316,-155.82353007188138L-103.19677736824532,-155.48988701555783L-99.89209655905321,-140.14943750026237z" style="fill:rgb(74,87,214)">
    </path>
    <path d="M-103.19677736824532,-155.48988701555783L-92.54340794645316,-155.82353007188138L-99.35798227804528,-157.829967379242z" style="fill:rgb(74,87,214)">
    </path>
    <path d="M-80.55498646345379,-233.4272922040146L-87.65916547454023,-271.25747690772135" style="fill:none;stroke:rgb(0,0,0);stroke-width:1;stroke-linecap:round">
    </path>
    <path d="M-80.55498646345379,-233.4272922040146L-87.65916547454023,-271.25747690772135" style="fill:none;stroke:rgb(0,0,0);stroke-width:1;stroke-linecap:round">
    </path>
    <path d="M-87.65916547454023,-271.25747690772135L-87.65916547454023,-271.25747690772135L-80.55498646345379,-233.4272922040146z" style="fill:rgb(0,0,0); fill-opacity: 0.2">
    </path>
    <path d="M-632.9325915276765,-444.34584225505716L-648.0303723601917,411.21762017045097" style="fill:none;stroke:rgb(0,0,0);stroke-width:1;stroke-linecap:round">
    </path>
    <path d="M-509.9032285413373,458.5304303751123L-648.0303723601917,411.21762017045097" style="fill:none;stroke:rgb(160,0,0);stroke-width:3;stroke-linecap:round">
    </path>
    <path d="M-491.84610940721655,-404.0061191819867L18.54547430245516,-537.7487136408191L-121.64209589040026,-575.3587958890241z" style="fill:rgb(0,0,0); fill-opacity: 0.2">
    </path>
    <path d="M-307.1080442757053,424.24374493203976L-509.9032285413376,458.53043037511225" style="fill:none;stroke:rgb(160,0,0);stroke-width:3;stroke-linecap:round">
    </path>
    <path d="M-290.69014811754516,-214.26546456840148L-307.108044275705,424.2437449320399" style="fill:none;stroke:rgb(0,0,0);stroke-width:1;stroke-linecap:round">
    </path>
    <path d="M-324.50410450720676,435.3622073062899L-307.108044275705,424.2437449320399" style="fill:none;stroke:rgb(160,0,0);stroke-width:3;stroke-linecap:round">
    </path>
    <path d="M-119.11317791813788,-150.8835376220125L-129.0073297264807,-152.4738271426019L-127.18353291789076,-149.7796754165309z" style="fill:rgb(74,87,214)">
    </path>
    <path d="M-129.0073297264807,-152.4738271426019L-136.38386633945774,-150.34155245520398L-127.18353291789076,-149.7796754165309z" style="fill:rgb(74,87,214)">
    </path>
    <path d="M-439.82907820028066,-131.45719818682835L67.47391866844681,-275.4412356547937L60.49682182730053,-312.84574952765666z" style="fill:rgb(0,0,0); fill-opacity: 0.2">
    </path>
    <path d="M-125.0840911936345,-220.78892751179032L-127.18353291789076,-149.7796754165309" style="fill:none;stroke:rgb(74,87,214);stroke-width:5;stroke-linecap:round">
    </path>
    <path d="M-120.36620904099563,-147.76538021559057L-119.11317791813788,-150.8835376220125L-127.18353291789076,-149.7796754165309z" style="fill:rgb(74,87,214)">
    </path>
    <path d="M-131.04736647045883,-147.4296761771388L-136.38386633945774,-150.34155245520398L-127.70730882296155,-132.0640442299739z" style="fill:rgb(74,87,214)">
    </path>
    <path d="M-136.38386633945774,-150.34155245520398L-131.04736647045883,-147.4296761771388L-127.18353291789076,-149.7796754165309z" style="fill:rgb(74,87,214)">
    </path>
    <path d="M-120.36620904099563,-147.76538021559057L-131.04736647045883,-147.4296761771388L-127.70730882296155,-132.0640442299739z" style="fill:rgb(74,87,214)">
    </path>
    <path d="M-131.04736647045883,-147.4296761771388L-120.36620904099563,-147.76538021559057L-127.18353291789076,-149.7796754165309z" style="fill:rgb(74,87,214)">
    </path>
    <path d="M-447.2460595928454,-170.31928294408107L60.49682182730026,-312.8457495276568L18.545474302454867,-537.7487136408192z" style="fill:rgb(0,0,0); fill-opacity: 0.2">
    </path>
    <path d="M-324.50410450720676,435.3622073062899L-309.22076420604947,-168.52678478861884" style="fill:none;stroke:rgb(38,46,1);stroke-width:5;stroke-linecap:round">
    </path>
    <path d="M-324.50410450720676,435.3622073062897L-375.7605958193684,452.26984324453844" style="fill:none;stroke:rgb(162,186,45);stroke-width:5;stroke-linecap:round">
    </path>
    <path d="M-147.03314352111673,-142.8032486006383L-156.94025145450576,-144.39948750725682L-155.13035353714446,-141.69429847910777z" style="fill:rgb(74,87,214)">
    </path>
    <path d="M-156.94025145450576,-144.39948750725682L-164.34896036960927,-142.25791303744631L-155.13035353714446,-141.69429847910777z" style="fill:rgb(74,87,214)">
    </path>
    <path d="M-153.07272350681714,-212.84512211633114L-155.13035353714446,-141.69429847910777" style="fill:none;stroke:rgb(74,87,214);stroke-width:5;stroke-linecap:round">
    </path>
    <path d="M-148.31032086389334,-139.67209586565394L-147.03314352111673,-142.8032486006383L-155.13035353714446,-141.69429847910777z" style="fill:rgb(74,87,214)">
    </path>
    <path d="M-159.01940762287762,-139.3343160236435L-164.34896036960927,-142.25791303744631L-155.64369580246833,-123.94342759986579z" style="fill:rgb(74,87,214)">
    </path>
    <path d="M-164.34896036960927,-142.25791303744631L-159.01940762287762,-139.3343160236435L-155.13035353714446,-141.69429847910777z" style="fill:rgb(74,87,214)">
    </path>
    <path d="M-148.31032086389334,-139.67209586565394L-159.01940762287762,-139.3343160236435L-155.64369580246833,-123.94342759986579z" style="fill:rgb(74,87,214)">
    </path>
    <path d="M-159.01940762287762,-139.3343160236435L-148.31032086389334,-139.67209586565394L-155.13035353714446,-141.69429847910777z" style="fill:rgb(74,87,214)">
    </path>
    <path d="M-323.4986183509881,395.6325402649679L-374.79949974012754,412.39959855747657" style="fill:none;stroke:rgb(162,186,45);stroke-width:5;stroke-linecap:round">
    </path>
    <path d="M-322.49124086306387,355.8281412360693L-373.83658869822506,372.45406170454214" style="fill:none;stroke:rgb(162,186,45);stroke-width:5;stroke-linecap:round">
    </path>
    <path d="M-175.07501576296363,-134.68767870214262L-184.99509878344466,-136.28990384260442L-183.1992386497223,-133.57360670381286z" style="fill:rgb(74,87,214)">
    </path>
    <path d="M-184.99509878344466,-136.28990384260442L-192.43619093680815,-134.13896861681036L-183.1992386497223,-133.57360670381286z" style="fill:rgb(74,87,214)">
    </path>
    <path d="M-181.18380632101943,-204.866562505668L-183.19923864972228,-133.57360670381277" style="fill:none;stroke:rgb(74,87,214);stroke-width:5;stroke-linecap:round">
    </path>
    <path d="M-176.37653854241907,-131.5434467341615L-175.07501576296363,-134.68767870214262L-183.1992386497223,-133.57360670381286z" style="fill:rgb(74,87,214)">
    </path>
    <path d="M-187.11369701153131,-131.20357613167792L-192.43619093680815,-134.13896861681036L-183.70205105784055,-115.78735693591776z" style="fill:rgb(74,87,214)">
    </path>
    <path d="M-192.43619093680815,-134.13896861681036L-187.11369701153131,-131.20357613167792L-183.1992386497223,-133.57360670381286z" style="fill:rgb(74,87,214)">
    </path>
    <path d="M-321.4819667019832,315.9487991634261L-372.8718575476572,332.43301920819" style="fill:none;stroke:rgb(162,186,45);stroke-width:5;stroke-linecap:round">
    </path>
    <path d="M-176.37653854241907,-131.5434467341615L-187.11369701153131,-131.20357613167792L-183.70205105784055,-115.78735693591776z" style="fill:rgb(74,87,214)">
    </path>
    <path d="M-187.11369701153131,-131.20357613167792L-176.37653854241907,-131.5434467341615L-183.1992386497223,-133.57360670381286z" style="fill:rgb(74,87,214)">
    </path>
    <path d="M-307.108044275705,424.2437449320399L-290.69014811754516,-214.26546456840148L-324.50410450720676,435.3622073062899z" style="fill:rgb(0,0,0); fill-opacity: 0.2">
    </path>
    <path d="M-320.4707905061629,275.99430219537567L-371.90530112294744,292.3362567830748" style="fill:none;stroke:rgb(162,186,45);stroke-width:5;stroke-linecap:round">
    </path>
    <path d="M-375.54874509201693,443.4813979277042L-382.1074312775212,447.3808333075825L-388.63782766098905,456.5175695772786z" style="fill:rgb(162,186,45)">
    </path>
    <path d="M-371.967229773237,460.72365136415425L-369.27752534161203,451.7298797424369L-388.63782766098905,456.5175695772786z" style="fill:rgb(162,186,45)">
    </path>
    <path d="M-369.27752534161203,451.7298797424369L-375.54874509201693,443.4813979277042L-388.63782766098905,456.5175695772786z" style="fill:rgb(162,186,45)">
    </path>
    <path d="M-203.23959480998295,-126.536596351204L-213.17267175674954,-128.14484488667298L-211.39098972519352,-125.41736821512582z" style="fill:rgb(74,87,214)">
    </path>
    <path d="M-213.17267175674954,-128.14484488667298L-220.64635993253466,-125.98448739713015L-211.39098972519352,-125.41736821512582z" style="fill:rgb(74,87,214)">
    </path>
    <path d="M-319.4577068937924,235.96443768100931L-370.93691423905494,252.16355933222664" style="fill:none;stroke:rgb(162,186,45);stroke-width:5;stroke-linecap:round">
    </path>
    <path d="M-209.41814498088908,-196.85302010481797L-211.39098972519355,-125.41736821512582" style="fill:none;stroke:rgb(74,87,214);stroke-width:5;stroke-linecap:round">
    </path>
    <path d="M-204.5656641679091,-123.37920051624334L-203.23959480998295,-126.536596351204L-211.39098972519352,-125.41736821512582z" style="fill:rgb(74,87,214)">
    </path>
    <path d="M-215.3310377969491,-123.03722405936524L-220.64635993253466,-125.98448739713015L-211.88317509375986,-107.59559954549006z" style="fill:rgb(74,87,214)">
    </path>
    <path d="M-220.64635993253466,-125.98448739713015L-215.3310377969491,-123.03722405936524L-211.39098972519352,-125.41736821512582z" style="fill:rgb(74,87,214)">
    </path>
    <path d="M-204.5656641679091,-123.37920051624334L-215.3310377969491,-123.03722405936524L-211.88317509375986,-107.59559954549006z" style="fill:rgb(74,87,214)">
    </path>
    <path d="M-374.5872490947496,403.59456298508474L-381.1526573933965,407.5199655836226L-387.68794339837405,416.6120268874756z" style="fill:rgb(162,186,45)">
    </path>
    <path d="M-215.3310377969491,-123.03722405936524L-204.5656641679091,-123.37920051624334L-211.39098972519352,-125.41736821512582z" style="fill:rgb(74,87,214)">
    </path>
    <path d="M-371.0024701408187,420.8578616009473L-368.30984957829423,411.8399966135604L-387.68794339837405,416.6120268874756z" style="fill:rgb(162,186,45)">
    </path>
    <path d="M-368.30984957829423,411.8399966135604L-374.5872490947496,403.59456298508474L-387.68794339837405,416.6120268874756z" style="fill:rgb(162,186,45)">
    </path>
    <path d="M-318.44271046273815,195.85899216639925L-369.96669169128114,211.9147109432042" style="fill:none;stroke:rgb(162,186,45);stroke-width:5;stroke-linecap:round">
    </path>
    <path d="M-373.6239370013421,363.6323888552056L-380.1960811187663,367.58384983421655L-386.7362635756204,376.6310510058759z" style="fill:rgb(162,186,45)">
    </path>
    <path d="M-491.8461094072169,-404.0061191819869L-509.9032285413376,458.53043037511225" style="fill:none;stroke:rgb(0,0,0);stroke-width:1;stroke-linecap:round">
    </path>
    <path d="M-370.0358884663547,380.9167814309976L-367.3403455494747,371.8747480575854L-386.7362635756204,376.6310510058759z" style="fill:rgb(162,186,45)">
    </path>
    <path d="M-367.3403455494747,371.8747480575854L-373.6239370013421,363.6323888552056L-386.7362635756204,376.6310510058759z" style="fill:rgb(162,186,45)">
    </path>
    <path d="M-317.4257957904474,155.67775139080487L-368.9946282551768,171.58949488422698" style="fill:none;stroke:rgb(162,186,45);stroke-width:5;stroke-linecap:round">
    </path>
    <path d="M-231.52768784663672,-118.34976794138332L-241.47377743277966,-119.96407734974927L-239.70641526506523,-117.2253491030958z" style="fill:rgb(74,87,214)">
    </path>
    <path d="M-241.47377743277966,-119.96407734974927L-248.98027628345906,-117.79423554863529L-239.70641526506523,-117.2253491030958z" style="fill:rgb(74,87,214)">
    </path>
    <path d="M-648.0303723601917,411.21762017045097L-632.9325915276765,-444.34584225505716L-509.9032285413373,458.5304303751123z" style="fill:rgb(0,0,0); fill-opacity: 0.2">
    </path>
    <path d="M-237.77655190881802,-188.8042643299742L-239.70641526506526,-117.2253491030958" style="fill:none;stroke:rgb(74,87,214);stroke-width:5;stroke-linecap:round">
    </path>
    <path d="M-232.8785068721732,-115.17912286793985L-231.52768784663672,-118.34976794138332L-239.70641526506523,-117.2253491030958z" style="fill:rgb(74,87,214)">
    </path>
    <path d="M-372.65880366150293,323.5946618826581L-379.2376973450692,327.5722727819613L-385.7827830967077,336.57442784381516z" style="fill:rgb(162,186,45)">
    </path>
    <path d="M-243.67224019069707,-114.83502532419526L-248.98027628345906,-117.79423554863529L-240.1878754354518,-99.36792069519414z" style="fill:rgb(74,87,214)">
    </path>
    <path d="M-248.98027628345906,-117.79423554863529L-243.67224019069707,-114.83502532419526L-239.70641526506523,-117.2253491030958z" style="fill:rgb(74,87,214)">
    </path>
    <path d="M-232.8785068721732,-115.17912286793985L-243.67224019069707,-114.83502532419526L-240.1878754354518,-99.36792069519414z" style="fill:rgb(74,87,214)">
    </path>
    <path d="M-369.067479583312,340.90019736286285L-366.36900806894,331.83392028653225L-385.7827830967077,336.57442784381516z" style="fill:rgb(162,186,45)">
    </path>
    <path d="M-366.36900806894,331.83392028653225L-372.65880366150293,323.5946618826581L-385.7827830967077,336.57442784381516z" style="fill:rgb(162,186,45)">
    </path>
    <path d="M-243.67224019069707,-114.83502532419526L-232.8785068721732,-115.17912286793985L-239.70641526506523,-117.2253491030958z" style="fill:rgb(74,87,214)">
    </path>
    <path d="M-632.9325915276765,-444.34584225505716L-121.64209589040026,-575.3587958890241L-491.84610940721655,-404.0061191819867z" style="fill:rgb(0,0,0); fill-opacity: 0.2">
    </path>
    <path d="M-316.4069574338523,115.42050028285706L-368.02071868644873,131.18769360028537" style="fill:none;stroke:rgb(162,186,45);stroke-width:5;stroke-linecap:round">
    </path>
    <path d="M-371.69184390544797,283.4811676033919L-378.2775009444195,287.48502034269484L-384.8274968463136,296.4419425017156z" style="fill:rgb(162,186,45)">
    </path>
    <path d="M-368.0972383056051,300.80789509717664L-365.3958319308425,291.7172987030574L-384.8274968463136,296.4419425017156z" style="fill:rgb(162,186,45)">
    </path>
    <path d="M-365.3958319308425,291.7172987030574L-371.69184390544797,283.4811676033919L-384.8274968463136,296.4419425017156z" style="fill:rgb(162,186,45)">
    </path>
    <path d="M-315.3861899292718,75.08702295672089L-367.04495772086426,90.70908870922766" style="fill:none;stroke:rgb(162,186,45);stroke-width:5;stroke-linecap:round">
    </path>
    <path d="M-259.94010915265875,-110.12695781280593L-269.8992299618552,-111.74736589210531L-268.1463308800728,-108.99731340098006z" style="fill:rgb(74,87,214)">
    </path>
    <path d="M-324.50410450720676,435.3622073062899L-309.22076420604947,-168.52678478861884L-290.69014811754516,-214.26546456840148z" style="fill:rgb(0,0,0); fill-opacity: 0.2">
    </path>
    <path d="M-370.723052543808,243.2916907408846L-377.31548676951616,247.32187762167777L-383.8703996897213,256.23337926524226z" style="fill:rgb(162,186,45)">
    </path>
    <path d="M-269.8992299618552,-111.74736589210531L-277.43875602876307,-109.56797718560016L-268.1463308800728,-108.99731340098006z" style="fill:rgb(74,87,214)">
    </path>
    <path d="M-367.12515942750474,260.63965952282246L-364.4208119096078,251.52466789661932L-383.8703996897213,256.23337926524226z" style="fill:rgb(162,186,45)">
    </path>
    <path d="M-266.2598466828669,-180.7200625663899L-268.14633088007287,-108.99731340098016" style="fill:none;stroke:rgb(74,87,214);stroke-width:5;stroke-linecap:round">
    </path>
    <path d="M-364.4208119096078,251.52466789661932L-370.723052543808,243.2916907408846L-383.8703996897213,256.23337926524226z" style="fill:rgb(162,186,45)">
    </path>
    <path d="M-261.31588290491317,-106.9429773837793L-259.94010915265875,-110.12695781280593L-268.1463308800728,-108.99731340098006z" style="fill:rgb(74,87,214)">
    </path>
    <path d="M-272.13812153292537,-106.59674338058123L-277.43875602876307,-109.56797718560016L-268.6169667058193,-91.10408358847167z" style="fill:rgb(74,87,214)">
    </path>
    <path d="M-277.43875602876307,-109.56797718560016L-272.13812153292537,-106.59674338058123L-268.1463308800728,-108.99731340098006z" style="fill:rgb(74,87,214)">
    </path>
    <path d="M-261.31588290491317,-106.9429773837793L-272.13812153292537,-106.59674338058123L-268.6169667058193,-91.10408358847167z" style="fill:rgb(74,87,214)">
    </path>
    <path d="M-314.36348779231486,34.67710270823646L-366.06734007415776,50.153460997825654" style="fill:none;stroke:rgb(162,186,45);stroke-width:5;stroke-linecap:round">
    </path>
    <path d="M-272.13812153292537,-106.59674338058123L-261.31588290491317,-106.9429773837793L-268.1463308800728,-108.99731340098006z" style="fill:rgb(74,87,214)">
    </path>
    <path d="M-369.752424367536,203.02601520229194L-376.35164965355074,207.0826289097536L-382.91148647272826,215.94852160143859z" style="fill:rgb(162,186,45)">
    </path>
    <path d="M-509.9032285413376,458.53043037511225L-491.8461094072169,-404.0061191819869L-307.1080442757053,424.24374493203976z" style="fill:rgb(0,0,0); fill-opacity: 0.2">
    </path>
    <path d="M-366.1512377235436,220.3952747130869L-363.4439427598405,211.25581163962292L-382.91148647272826,215.94852160143859z" style="fill:rgb(162,186,45)">
    </path>
    <path d="M-363.4439427598405,211.25581163962292L-369.752424367536,203.02601520229194L-382.91148647272826,215.94852160143859z" style="fill:rgb(162,186,45)">
    </path>
    <path d="M-277.04758092929643,-105.17590169956041L-287.0145293373939,-106.79998725895439L-285.2703774678546,-104.04310507644449z" style="fill:rgb(167,41,160)">
    </path>
    <path d="M-287.0145293373939,-106.79998725895439L-294.5739764674331,-104.6148401347947L-285.2703774678546,-104.04310507644449z" style="fill:rgb(167,41,160)">
    </path>
    <path d="M-313.3388455177819,-5.809477988961862L-365.08786044193425,9.520590417817598" style="fill:none;stroke:rgb(162,186,45);stroke-width:5;stroke-linecap:round">
    </path>
    <path d="M-283.410113364162,-175.8524298978129L-285.27037746785464,-104.04310507644443" style="fill:none;stroke:rgb(167,41,160);stroke-width:5;stroke-linecap:round">
    </path>
    <path d="M-278.43842677403586,-101.9838784077467L-277.04758092929643,-105.17590169956041L-285.2703774678546,-104.04310507644449z" style="fill:rgb(167,41,160)">
    </path>
    <path d="M-289.2778389430181,-101.63635509115396L-294.5739764674331,-104.6148401347947L-285.7344706811979,-86.12832607371615z" style="fill:rgb(167,41,160)">
    </path>
    <path d="M-294.5739764674331,-104.6148401347947L-289.2778389430181,-101.63635509115396L-285.2703774678546,-104.04310507644449z" style="fill:rgb(167,41,160)">
    </path>
    <path d="M-278.43842677403586,-101.9838784077467L-289.2778389430181,-101.63635509115396L-285.7344706811979,-86.12832607371615z" style="fill:rgb(167,41,160)">
    </path>
    <path d="M-368.77995414781327,162.68392407457395L-375.38598441011493,166.76705767948684L-381.9507520215536,175.5871521548394z" style="fill:rgb(162,186,45)">
    </path>
    <path d="M-289.2778389430181,-101.63635509115396L-278.43842677403586,-101.9838784077467L-285.2703774678546,-104.04310507644449z" style="fill:rgb(167,41,160)">
    </path>
    <path d="M-365.1754679484234,180.0745239217903L-362.46521921623076,170.91051288354186L-381.9507520215536,175.5871521548394z" style="fill:rgb(162,186,45)">
    </path>
    <path d="M-288.47768018118614,-101.86792822954988L-298.44985066432895,-103.49447310143104L-296.7115593684924,-100.73302306258749z" style="fill:rgb(74,87,214)">
    </path>
    <path d="M-362.46521921623076,170.91051288354186L-368.77995414781327,162.68392407457395L-381.9507520215536,175.5871521548394z" style="fill:rgb(162,186,45)">
    </path>
    <path d="M-298.44985066432895,-103.49447310143104L-306.02262239848324,-101.30547434369797L-296.7115593684924,-100.73302306258749z" style="fill:rgb(74,87,214)">
    </path>
    <path d="M-289.90785874663237,-101.45402169666552L-299.8806821953798,-103.08087441472172L-298.14312511396827,-100.31885256281686z" style="fill:rgb(214,94,68)">
    </path>
    <path d="M-299.8806821953798,-103.08087441472172L-307.4551219817783,-100.89139348686402L-298.14312511396827,-100.31885256281686z" style="fill:rgb(214,94,68)">
    </path>
    <path d="M-312.31225757956594,-46.37293748734895L-364.106513499574,-31.18974391807197" style="fill:none;stroke:rgb(162,186,45);stroke-width:5;stroke-linecap:round">
    </path>
    <path d="M-294.8688561157214,-172.60018014596847L-296.71155936849243,-100.73302306258752" style="fill:none;stroke:rgb(74,87,214);stroke-width:5;stroke-linecap:round">
    </path>
    <path d="M-447.24605959284514,-170.31928294408098L60.49682182730053,-312.84574952765666L-439.82907820028066,-131.45719818682835z" style="fill:rgb(0,0,0); fill-opacity: 0.2">
    </path>
    <path d="M-289.8786157121649,-98.67052557405924L-288.47768018118614,-101.86792822954988L-296.7115593684924,-100.73302306258749z" style="fill:rgb(74,87,214)">
    </path>
    <path d="M-300.729506370942,-98.32213959712024L-306.02262239848324,-101.30547434369797L-297.17127070359464,-82.80384934287673z" style="fill:rgb(74,87,214)">
    </path>
    <path d="M-296.30262152794535,-172.1932451700109L-298.14312511396827,-100.31885256281682" style="fill:none;stroke:rgb(214,94,68);stroke-width:5;stroke-linecap:round">
    </path>
    <path d="M-291.31005783772713,-98.25594563585697L-289.90785874663237,-101.45402169666552L-298.14312511396827,-100.31885256281686z" style="fill:rgb(214,94,68)">
    </path>
    <path d="M-302.1623849693796,-97.90745165041726L-307.4551219817783,-100.89139348686402L-298.6022875776144,-82.3878778919638z" style="fill:rgb(214,94,68)">
    </path>
    <path d="M-306.02262239848324,-101.30547434369797L-300.729506370942,-98.32213959712024L-296.7115593684924,-100.73302306258749z" style="fill:rgb(74,87,214)">
    </path>
    <path d="M-289.8786157121649,-98.67052557405924L-300.729506370942,-98.32213959712024L-297.17127070359464,-82.80384934287673z" style="fill:rgb(74,87,214)">
    </path>
    <path d="M-307.4551219817783,-100.89139348686402L-302.1623849693796,-97.90745165041726L-298.14312511396827,-100.31885256281686z" style="fill:rgb(214,94,68)">
    </path>
    <path d="M-291.31005783772713,-98.25594563585697L-302.1623849693796,-97.90745165041726L-298.6022875776144,-82.3878778919638z" style="fill:rgb(214,94,68)">
    </path>
    <path d="M-300.729506370942,-98.32213959712024L-289.8786157121649,-98.67052557405924L-296.7115593684924,-100.73302306258749z" style="fill:rgb(74,87,214)">
    </path>
    <path d="M-367.80563663595626,122.26519962060021L-374.4184858331071,126.37494658127913L-380.988191142745,135.1490527435616z" style="fill:rgb(162,186,45)">
    </path>
    <path d="M-302.1623849693796,-97.90745165041726L-291.31005783772713,-98.25594563585697L-298.14312511396827,-100.31885256281686z" style="fill:rgb(214,94,68)">
    </path>
    <path d="M-364.1978448369199,139.6771895793958L-361.4846359934593,130.48855375501938L-380.988191142745,135.1490527435616z" style="fill:rgb(162,186,45)">
    </path>
    <path d="M-361.4846359934593,130.48855375501938L-367.80563663595626,122.26519962060021L-380.988191142745,135.1490527435616z" style="fill:rgb(162,186,45)">
    </path>
    <path d="M-283.4101133641619,-175.852429897813L-439.82907820028066,-131.45719818682835" style="fill:none;stroke:rgb(40,0,38);stroke-width:5;stroke-linecap:round">
    </path>
    <path d="M-283.4101133641619,-175.852429897813L-290.69014811754516,-214.26546456840148" style="fill:none;stroke:rgb(0,0,0);stroke-width:1;stroke-linecap:round">
    </path>
    <path d="M-309.22076420604947,-168.52678478861884L-283.4101133641619,-175.852429897813" style="fill:none;stroke:rgb(55,17,8);stroke-width:5;stroke-linecap:round">
    </path>
    <path d="M-283.4101133641619,-175.852429897813L-290.69014811754516,-214.26546456840148" style="fill:none;stroke:rgb(0,0,0);stroke-width:1;stroke-linecap:round">
    </path>
    <path d="M-307.1080442757053,424.24374493203976L-290.6901481175454,-214.2654645684016L-491.8461094072169,-404.0061191819869z" style="fill:rgb(0,0,0); fill-opacity: 0.2">
    </path>
    <path d="M-311.2837184305531,-87.01349496943429L-363.1232939021356,-71.9777637401348" style="fill:none;stroke:rgb(162,186,45);stroke-width:5;stroke-linecap:round">
    </path>
    <path d="M-290.6901481175454,-214.2654645684016L-491.8461094072169,-404.0061191819869" style="fill:none;stroke:rgb(0,0,0);stroke-width:1;stroke-linecap:round">
    </path>
    <path d="M-290.6901481175454,-214.2654645684016L-491.8461094072169,-404.0061191819869" style="fill:none;stroke:rgb(0,0,0);stroke-width:1;stroke-linecap:round">
    </path>
    <path d="M-309.22076420604947,-168.52678478861884L-290.69014811754516,-214.26546456840148" style="fill:none;stroke:rgb(0,0,0);stroke-width:1;stroke-linecap:round">
    </path>
    <path d="M-309.22076420604947,-168.52678478861884L-290.69014811754516,-214.26546456840148" style="fill:none;stroke:rgb(0,0,0);stroke-width:1;stroke-linecap:round">
    </path>
    <path d="M-307.955136568933,-96.23097726577738L-317.9361913001434,-97.86171709847653L-316.2079167138674,-95.09247452965512z" style="fill:rgb(167,41,160)">
    </path>
    <path d="M-317.9361913001434,-97.86171709847653L-325.53169585160117,-95.66614715246729L-316.2079167138674,-95.09247452965512z" style="fill:rgb(167,41,160)">
    </path>
    <path d="M-366.8294665633216,81.76962327523236L-373.4491486966393,85.90607743946343L-380.0237986230849,94.63400435537305z" style="fill:rgb(162,186,45)">
    </path>
    <path d="M-491.8461094072169,-404.0061191819869L18.545474302454867,-537.7487136408192L-447.2460595928454,-170.31928294408107z" style="fill:rgb(0,0,0); fill-opacity: 0.2">
    </path>
    <path d="M-314.39521607396074,-167.05815859042139L-316.20791671386746,-95.0924745296551" style="fill:none;stroke:rgb(167,41,160);stroke-width:5;stroke-linecap:round">
    </path>
    <path d="M-309.37330140537387,-93.02439748712186L-307.955136568933,-96.23097726577738L-316.2079167138674,-95.09247452965512z" style="fill:rgb(167,41,160)">
    </path>
    <path d="M-320.24375981935196,-92.67453923321882L-325.53169585160117,-95.66614715246729L-316.6601416763257,-77.13877712579708z" style="fill:rgb(167,41,160)">
    </path>
    <path d="M-309.22076420604947,-168.52678478861884L-283.4101133641619,-175.852429897813L-290.69014811754516,-214.26546456840148z" style="fill:rgb(0,0,0); fill-opacity: 0.2">
    </path>
    <path d="M-363.21836310378956,99.20305328909586L-360.50218778610235,89.98971555194588L-380.0237986230849,94.63400435537305z" style="fill:rgb(162,186,45)">
    </path>
    <path d="M-360.50218778610235,89.98971555194588L-366.8294665633216,81.76962327523236L-380.0237986230849,94.63400435537305z" style="fill:rgb(162,186,45)">
    </path>
    <path d="M-290.69014811754516,-214.26546456840148L-290.69014811754516,-214.26546456840148L-309.22076420604947,-168.52678478861884z" style="fill:rgb(0,0,0); fill-opacity: 0.2">
    </path>
    <path d="M-325.53169585160117,-95.66614715246729L-320.24375981935196,-92.67453923321882L-316.2079167138674,-95.09247452965512z" style="fill:rgb(167,41,160)">
    </path>
    <path d="M-309.37330140537387,-93.02439748712186L-320.24375981935196,-92.67453923321882L-316.6601416763257,-77.13877712579708z" style="fill:rgb(167,41,160)">
    </path>
    <path d="M-310.25322250252344,-127.73137045170951L-362.13819628425955,-112.84369162570422" style="fill:none;stroke:rgb(162,186,45);stroke-width:5;stroke-linecap:round">
    </path>
    <path d="M-320.24375981935196,-92.67453923321882L-309.37330140537387,-93.02439748712186L-316.2079167138674,-95.09247452965512z" style="fill:rgb(167,41,160)">
    </path>
    <path d="M-317.14122963792664,-93.5724393567339L-327.12646810969096,-95.20515946996777L-325.40293079549025,-92.43223793932123z" style="fill:rgb(74,87,214)">
    </path>
    <path d="M-327.12646810969096,-95.20515946996777L-334.73270589289206,-93.00648695705473L-325.40293079549025,-92.43223793932123z" style="fill:rgb(74,87,214)">
    </path>
    <path d="M-323.60441433469583,-164.44438032455648L-325.40293079549036,-92.43223793932125" style="fill:none;stroke:rgb(74,87,214);stroke-width:5;stroke-linecap:round">
    </path>
    <path d="M-318.5675360157802,-90.36152684182645L-317.14122963792664,-93.5724393567339L-325.40293079549025,-92.43223793932123z" style="fill:rgb(74,87,214)">
    </path>
    <path d="M-329.4472265388272,-90.01097323355214L-334.73270589289206,-93.00648695705473L-325.85161648252677,-74.46697696705748z" style="fill:rgb(74,87,214)">
    </path>
    <path d="M-365.8514386412115,41.19697564138459L-372.4779677549432,45.36023124837584L-379.05756922949655,54.041787143738226z" style="fill:rgb(162,186,45)">
    </path>
    <path d="M-334.73270589289206,-93.00648695705473L-329.4472265388272,-90.01097323355214L-325.40293079549025,-92.43223793932123z" style="fill:rgb(74,87,214)">
    </path>
    <path d="M-318.5675360157802,-90.36152684182645L-329.4472265388272,-90.01097323355214L-325.85161648252677,-74.46697696705748z" style="fill:rgb(74,87,214)">
    </path>
    <path d="M-362.23701744367304,58.65189582287667L-359.5178692685362,49.413778739514996L-379.05756922949655,54.041787143738226z" style="fill:rgb(162,186,45)">
    </path>
    <path d="M-329.4472265388272,-90.01097323355214L-318.5675360157802,-90.36152684182645L-325.40293079549025,-92.43223793932123z" style="fill:rgb(74,87,214)">
    </path>
    <path d="M-359.5178692685362,49.413778739514996L-365.8514386412115,41.19697564138459L-379.05756922949655,54.041787143738226z" style="fill:rgb(162,186,45)">
    </path>
    <path d="M-309.22076420604947,-168.52678478861884L-361.1512152600703,-153.78775100320382" style="fill:none;stroke:rgb(162,186,45);stroke-width:5;stroke-linecap:round">
    </path>
    <path d="M-364.8715475607779,0.547036486061525L-371.5049377422746,4.7371881684047565L-378.0894977089496,13.372180423842115z" style="fill:rgb(162,186,45)">
    </path>
    <path d="M-361.2538025309997,18.02349711755991L-358.5316750948407,8.76052294625664L-378.0894977089496,13.372180423842115z" style="fill:rgb(162,186,45)">
    </path>
    <path d="M-358.5316750948407,8.76052294625664L-364.8715475607779,0.547036486061525L-378.0894977089496,13.372180423842115z" style="fill:rgb(162,186,45)">
    </path>
    <path d="M-339.0102957360206,-87.24333504432457L-349.0054780421576,-88.88077425885746L-347.2932524603661,-86.0990845422574z" style="fill:rgb(167,41,160)">
    </path>
    <path d="M-349.0054780421576,-88.88077425885746L-356.6372986143423,-86.67470673982645L-347.2932524603661,-86.0990845422574z" style="fill:rgb(167,41,160)">
    </path>
    <path d="M-345.5285919197092,-158.22180402136198L-347.2932524603661,-86.0990845422574" style="fill:none;stroke:rgb(167,41,160);stroke-width:5;stroke-linecap:round">
    </path>
    <path d="M-340.4560250364239,-84.02209595358558L-339.0102957360206,-87.24333504432457L-347.2932524603661,-86.0990845422574z" style="fill:rgb(167,41,160)">
    </path>
    <path d="M-351.357703018125,-83.66988438457953L-356.6372986143423,-86.67470673982645L-347.73349037150933,-68.10630086634518z" style="fill:rgb(167,41,160)">
    </path>
    <path d="M-356.6372986143423,-86.67470673982645L-351.357703018125,-83.66988438457953L-347.2932524603661,-86.0990845422574z" style="fill:rgb(167,41,160)">
    </path>
    <path d="M-345.9315935613768,-85.24024923730198L-355.92991819672415,-86.87918337133866L-354.22128257352693,-84.09471575691757z" style="fill:rgb(74,87,214)">
    </path>
    <path d="M-340.4560250364239,-84.02209595358558L-351.357703018125,-83.66988438457953L-347.73349037150933,-68.10630086634518z" style="fill:rgb(167,41,160)">
    </path>
    <path d="M-355.92991819672415,-86.87918337133866L-363.56984436293357,-84.67077283499849L-354.22128257352693,-84.09471575691757z" style="fill:rgb(74,87,214)">
    </path>
    <path d="M-363.8897879929266,-40.18041526362686L-370.5300533728194,-35.963272477982436L-377.1195787883644,-27.37503733140931z" style="fill:rgb(162,186,45)">
    </path>
    <path d="M-351.357703018125,-83.66988438457953L-340.4560250364239,-84.02209595358558L-347.2932524603661,-86.0990845422574z" style="fill:rgb(167,41,160)">
    </path>
    <path d="M-352.4673628628012,-156.2524242589351L-354.2212825735271,-84.09471575691757" style="fill:none;stroke:rgb(74,87,214);stroke-width:5;stroke-linecap:round">
    </path>
    <path d="M-360.2687130198919,-22.682363729178018L-357.5435998987025,-31.97027303995279L-377.1195787883644,-27.37503733140931z" style="fill:rgb(162,186,45)">
    </path>
    <path d="M-347.38348189396476,-82.01573845955157L-345.9315935613768,-85.24024923730198L-354.22128257352693,-84.09471575691757z" style="fill:rgb(74,87,214)">
    </path>
    <path d="M-358.292121238106,-81.66300141741172L-363.56984436293357,-84.67077283499849L-354.6588404316196,-66.09322333743262z" style="fill:rgb(74,87,214)">
    </path>
    <path d="M-357.5435998987025,-31.97027303995279L-363.8897879929266,-40.18041526362686L-377.1195787883644,-27.37503733140931z" style="fill:rgb(162,186,45)">
    </path>
    <path d="M-363.56984436293357,-84.67077283499849L-358.292121238106,-81.66300141741172L-354.22128257352693,-84.09471575691757z" style="fill:rgb(74,87,214)">
    </path>
    <path d="M-347.38348189396476,-82.01573845955157L-358.292121238106,-81.66300141741172L-354.6588404316196,-66.09322333743262z" style="fill:rgb(74,87,214)">
    </path>
    <path d="M-358.292121238106,-81.66300141741172L-347.38348189396476,-82.01573845955157L-354.22128257352693,-84.09471575691757z" style="fill:rgb(74,87,214)">
    </path>
    <path d="M-290.69014811754516,-214.26546456840148L-447.24605959284514,-170.31928294408098L-283.4101133641619,-175.852429897813z" style="fill:rgb(0,0,0); fill-opacity: 0.2">
    </path>
    <path d="M-362.9061545882208,-80.98560152447293L-369.55330934059714,-76.74137221023489L-376.14780717451674,-68.20008849541139z" style="fill:rgb(162,186,45)">
    </path>
    <path d="M-509.9032285413373,458.5304303751123L-491.84610940721655,-404.0061191819867L-632.9325915276765,-444.34584225505716z" style="fill:rgb(0,0,0); fill-opacity: 0.2">
    </path>
    <path d="M-359.2817435440671,-63.465908462809814L-356.5536382933178,-72.77883127590218L-376.14780717451674,-68.20008849541139z" style="fill:rgb(162,186,45)">
    </path>
    <path d="M-356.5536382933178,-72.77883127590218L-362.9061545882208,-80.98560152447293L-376.14780717451674,-68.20008849541139z" style="fill:rgb(162,186,45)">
    </path>
    <path d="M-491.84610940721655,-404.0061191819867L-632.9325915276765,-444.34584225505716" style="fill:none;stroke:rgb(0,0,0);stroke-width:1;stroke-linecap:round">
    </path>
    <path d="M-491.84610940721655,-404.0061191819867L-632.9325915276765,-444.34584225505716" style="fill:none;stroke:rgb(0,0,0);stroke-width:1;stroke-linecap:round">
    </path>
    <path d="M-370.21411831454543,-78.2126682952488L-380.22344926820176,-79.85685241996816L-378.5274463354433,-77.06262797150288z" style="fill:rgb(167,41,160)">
    </path>
    <path d="M-380.22344926820176,-79.85685241996816L-387.89184693920174,-77.64021186022246L-378.5274463354433,-77.06262797150288z" style="fill:rgb(167,41,160)">
    </path>
    <path d="M-361.9206419767835,-121.86874506120162L-368.5747003193647,-117.5973333937378L-375.1741775539412,-109.10319629190572z" style="fill:rgb(162,186,45)">
    </path>
    <path d="M-376.8113077520556,-149.34306339434812L-378.52744633544336,-77.0626279715029" style="fill:none;stroke:rgb(167,41,160);stroke-width:5;stroke-linecap:round">
    </path>
    <path d="M-374.84961540410575,-76.8711137684986L-384.8610442347241,-78.51630103707087L-383.16745954382935,-75.72021209187415z" style="fill:rgb(74,87,214)">
    </path>
    <path d="M-371.6876601422538,-74.97666608890036L-370.21411831454543,-78.2126682952488L-378.5274463354433,-77.06262797150288z" style="fill:rgb(167,41,160)">
    </path>
    <path d="M-382.620732439634,-74.62208264292684L-387.89184693920174,-77.64021186022246L-378.9555770945273,-59.03058907671378z" style="fill:rgb(167,41,160)">
    </path>
    <path d="M-358.29288871674146,-104.3273596759833L-355.5617848712946,-113.66537466708188L-375.1741775539412,-109.10319629190572z" style="fill:rgb(162,186,45)">
    </path>
    <path d="M-355.5617848712946,-113.66537466708188L-361.9206419767835,-121.86874506120162L-375.1741775539412,-109.10319629190572z" style="fill:rgb(162,186,45)">
    </path>
    <path d="M-384.8610442347241,-78.51630103707087L-392.534883091728,-76.29808763849923L-383.16745954382935,-75.72021209187415z" style="fill:rgb(74,87,214)">
    </path>
    <path d="M-387.89184693920174,-77.64021186022246L-382.620732439634,-74.62208264292684L-378.5274463354433,-77.06262797150288z" style="fill:rgb(167,41,160)">
    </path>
    <path d="M-371.6876601422538,-74.97666608890036L-382.620732439634,-74.62208264292684L-378.9555770945273,-59.03058907671378z" style="fill:rgb(167,41,160)">
    </path>
    <path d="M-374.84961540410575,-76.8711137684986L-376.3272988628868,-73.63291554549284L-383.5937863564372,-57.682343174556976z" style="fill:rgb(74,87,214)">
    </path>
    <path d="M-382.620732439634,-74.62208264292684L-371.6876601422538,-74.97666608890036L-378.5274463354433,-77.06262797150288z" style="fill:rgb(167,41,160)">
    </path>
    <path d="M-381.4585507008936,-148.02407098350415L-383.16745954382935,-75.72021209187413" style="fill:none;stroke:rgb(74,87,214);stroke-width:5;stroke-linecap:round">
    </path>
    <path d="M-376.3272988628868,-73.63291554549284L-374.84961540410575,-76.8711137684986L-383.16745954382935,-75.72021209187415z" style="fill:rgb(74,87,214)">
    </path>
    <path d="M-387.2650371194952,-73.27797912037111L-392.534883091728,-76.29808763849923L-383.5937863564372,-57.682343174556976z" style="fill:rgb(74,87,214)">
    </path>
    <path d="M-392.534883091728,-76.29808763849923L-387.2650371194952,-73.27797912037111L-383.16745954382935,-75.72021209187415z" style="fill:rgb(74,87,214)">
    </path>
    <path d="M-376.3272988628868,-73.63291554549284L-387.2650371194952,-73.27797912037111L-383.5937863564372,-57.682343174556976z" style="fill:rgb(74,87,214)">
    </path>
    <path d="M-387.2650371194952,-73.27797912037111L-376.3272988628868,-73.63291554549284L-383.16745954382935,-75.72021209187415z" style="fill:rgb(74,87,214)">
    </path>
    <path d="M-360.93324476820027,-162.8300694905244L-367.5942209625203,-158.53137924385388L-374.1986845928345,-150.0845847990487z" style="fill:rgb(162,186,45)">
    </path>
    <path d="M-357.30214313053096,-145.2669408125718L-354.5680342045538,-154.63012697174153L-374.1986845928345,-150.0845847990487z" style="fill:rgb(162,186,45)">
    </path>
    <path d="M-354.5680342045538,-154.63012697174153L-360.93324476820027,-162.8300694905244L-374.1986845928345,-150.0845847990487z" style="fill:rgb(162,186,45)">
    </path>
    <path d="M-401.5676743603314,-69.13866733477585L-411.5911748499668,-70.78964232281022L-409.9115701592176,-67.98279472595809z" style="fill:rgb(167,41,160)">
    </path>
    <path d="M-411.5911748499668,-70.78964232281022L-419.29641320642276,-68.56235252953043L-409.9115701592176,-67.98279472595809z" style="fill:rgb(167,41,160)">
    </path>
    <path d="M-403.8961461151255,-68.46478667803045L-413.9206970258028,-70.11626653280481L-412.24231405895097,-67.30848034756472z" style="fill:rgb(74,87,214)">
    </path>
    <path d="M-401.5676743603314,-69.13866733477585L-403.0692794026109,-65.88779721930888L-410.32747234839997,-49.91133058049196z" style="fill:rgb(167,41,160)">
    </path>
    <path d="M-413.9206970258028,-70.11626653280481L-421.6286748771646,-67.88818485629444L-412.24231405895097,-67.30848034756472z" style="fill:rgb(74,87,214)">
    </path>
    <path d="M-408.24444068115224,-140.4216310012141L-409.9115701592176,-67.98279472595806" style="fill:none;stroke:rgb(167,41,160);stroke-width:5;stroke-linecap:round">
    </path>
    <path d="M-403.0692794026109,-65.88779721930888L-401.5676743603314,-69.13866733477585L-409.9115701592176,-67.98279472595809z" style="fill:rgb(167,41,160)">
    </path>
    <path d="M-414.0339222042749,-65.53082314816265L-419.29641320642276,-68.56235252953043L-410.32747234839997,-49.91133058049196z" style="fill:rgb(167,41,160)">
    </path>
    <path d="M-403.8961461151255,-68.46478667803045L-405.39983995937735,-65.21281103974455L-412.65730556149305,-49.23408901917273z" style="fill:rgb(74,87,214)">
    </path>
    <path d="M-410.5788344109204,-139.75907738665524L-412.24231405895097,-67.3084803475647" style="fill:none;stroke:rgb(74,87,214);stroke-width:5;stroke-linecap:round">
    </path>
    <path d="M-419.29641320642276,-68.56235252953043L-414.0339222042749,-65.53082314816265L-409.9115701592176,-67.98279472595809z" style="fill:rgb(167,41,160)">
    </path>
    <path d="M-403.0692794026109,-65.88779721930888L-414.0339222042749,-65.53082314816265L-410.32747234839997,-49.91133058049196z" style="fill:rgb(167,41,160)">
    </path>
    <path d="M-405.39983995937735,-65.21281103974455L-403.8961461151255,-68.46478667803045L-412.24231405895097,-67.30848034756472z" style="fill:rgb(74,87,214)">
    </path>
    <path d="M-416.36682836573993,-64.85565913426541L-421.6286748771646,-67.88818485629444L-412.65730556149305,-49.23408901917273z" style="fill:rgb(74,87,214)">
    </path>
    <path d="M-283.4101133641619,-175.852429897813L-439.82907820028066,-131.45719818682835L-447.24605959284514,-170.31928294408098z" style="fill:rgb(0,0,0); fill-opacity: 0.2">
    </path>
    <path d="M-414.0339222042749,-65.53082314816265L-403.0692794026109,-65.88779721930888L-409.9115701592176,-67.98279472595809z" style="fill:rgb(167,41,160)">
    </path>
    <path d="M-421.6286748771646,-67.88818485629444L-416.36682836573993,-64.85565913426541L-412.24231405895097,-67.30848034756472z" style="fill:rgb(74,87,214)">
    </path>
    <path d="M-405.39983995937735,-65.21281103974455L-416.36682836573993,-64.85565913426541L-412.65730556149305,-49.23408901917273z" style="fill:rgb(74,87,214)">
    </path>
    <path d="M-416.36682836573993,-64.85565913426541L-405.39983995937735,-65.21281103974455L-412.24231405895097,-67.30848034756472z" style="fill:rgb(74,87,214)">
    </path>
    <path d="M-290.6901481175454,-214.2654645684016L-447.2460595928454,-170.31928294408107L-491.8461094072169,-404.0061191819869z" style="fill:rgb(0,0,0); fill-opacity: 0.2">
    </path>
    <path d="M-491.8461094072169,-404.0061191819869L-491.8461094072169,-404.0061191819869L-290.6901481175454,-214.2654645684016z" style="fill:rgb(0,0,0); fill-opacity: 0.2">
    </path>
    <path d="M-433.0720442233584,-60.021019499910054L-443.1097349482911,-61.67883173418587L-441.4467060664355,-58.859271730034074z" style="fill:rgb(74,87,214)">
    </path>
    <path d="M-433.0720442233584,-60.021019499910004L-443.10973494829125,-61.67883173418587L-441.44670606643575,-58.85927173003408z" style="fill:rgb(167,41,160)">
    </path>
    <path d="M-443.10973494829125,-61.67883173418587L-450.85208011559763,-59.440815780696L-441.44670606643575,-58.85927173003408z" style="fill:rgb(167,41,160)">
    </path>
    <path d="M-443.1097349482911,-61.67883173418587L-450.85208011559746,-59.440815780696L-441.4467060664355,-58.859271730034074z" style="fill:rgb(74,87,214)">
    </path>
    <path d="M-433.0720442233584,-60.021019499910054L-434.6019658247335,-56.755175679965284L-441.85025693374024,-40.74821120794z" style="fill:rgb(74,87,214)">
    </path>
    <path d="M-433.0720442233584,-60.021019499910004L-434.6019658247336,-56.755175679965284L-441.8502569337403,-40.74821120794z" style="fill:rgb(167,41,160)">
    </path>
    <path d="M-439.82907820028066,-131.45719818682838L-441.4467060664356,-58.859271730034116" style="fill:none;stroke:rgb(74,87,214);stroke-width:5;stroke-linecap:round">
    </path>
    <path d="M-439.82907820028066,-131.45719818682835L-441.4467060664356,-58.85927173003407" style="fill:none;stroke:rgb(167,41,160);stroke-width:5;stroke-linecap:round">
    </path>
    <path d="M-434.6019658247336,-56.755175679965284L-433.0720442233584,-60.021019499910004L-441.44670606643575,-58.85927173003408z" style="fill:rgb(167,41,160)">
    </path>
    <path d="M-434.6019658247335,-56.755175679965284L-433.0720442233584,-60.021019499910054L-441.4467060664355,-58.859271730034074z" style="fill:rgb(74,87,214)">
    </path>
    <path d="M-445.5983567755599,-56.39579204679827L-450.85208011559746,-59.440815780696L-441.85025693374024,-40.74821120794z" style="fill:rgb(74,87,214)">
    </path>
    <path d="M-445.5983567755599,-56.39579204679827L-450.85208011559763,-59.440815780696L-441.8502569337403,-40.74821120794z" style="fill:rgb(167,41,160)">
    </path>
    <path d="M-450.85208011559746,-59.440815780696L-445.5983567755599,-56.39579204679827L-441.4467060664355,-58.859271730034074z" style="fill:rgb(74,87,214)">
    </path>
    <path d="M-450.85208011559763,-59.440815780696L-445.5983567755599,-56.39579204679827L-441.44670606643575,-58.85927173003408z" style="fill:rgb(167,41,160)">
    </path>
    <path d="M-434.6019658247335,-56.755175679965284L-445.5983567755599,-56.39579204679827L-441.85025693374024,-40.74821120794z" style="fill:rgb(74,87,214)">
    </path>
    <path d="M-434.6019658247336,-56.755175679965284L-445.5983567755599,-56.39579204679827L-441.8502569337403,-40.74821120794z" style="fill:rgb(167,41,160)">
    </path>
    <path d="M-445.5983567755599,-56.39579204679827L-434.6019658247335,-56.755175679965284L-441.4467060664355,-58.859271730034074z" style="fill:rgb(74,87,214)">
    </path>
    <path d="M-445.5983567755599,-56.39579204679827L-434.6019658247336,-56.755175679965284L-441.44670606643575,-58.85927173003408z" style="fill:rgb(167,41,160)">
    </path>
    <path d="M-439.82907820028066,-131.45719818682835L-447.24605959284514,-170.31928294408098" style="fill:none;stroke:rgb(0,0,0);stroke-width:1;stroke-linecap:round">
    </path>
    <path d="M-439.82907820028066,-131.45719818682835L-447.24605959284514,-170.31928294408098" style="fill:none;stroke:rgb(0,0,0);stroke-width:1;stroke-linecap:round">
    </path>
    <path d="M-447.2460595928454,-170.31928294408107L-491.8461094072169,-404.0061191819869" style="fill:none;stroke:rgb(0,0,0);stroke-width:1;stroke-linecap:round">
    </path>
    <path d="M-447.2460595928454,-170.31928294408107L-491.8461094072169,-404.0061191819869" style="fill:none;stroke:rgb(0,0,0);stroke-width:1;stroke-linecap:round">
    </path>
    <path d="M-491.8461094072169,-404.0061191819869L-491.8461094072169,-404.0061191819869" style="fill:none;stroke:rgb(0,0,0);stroke-width:1;stroke-linecap:round">
    </path>
</svg>