<svg viewBox="-1163.5 -664 2327 1328" width="2327" height="1328" style="background-color: rgb(255, 255, 255);">
    <path d="M-206.08193300170979,83.40354553944336L-214.64785139447844,-662.2449146589179" style="fill:none;stroke:rgb(0,0,0);stroke-width:1;stroke-linecap:round">
    </path>
    <path d="M-25.097551727696384,156.4312514975481L-206.08193300170979,83.40354553944336" style="fill:none;stroke:rgb(160,0,0);stroke-width:4;stroke-linecap:round">
    </path>
    <path d="M-25.097551727696384,156.4312514975481L-20.38362733751045,-623.4481614901945" style="fill:none;stroke:rgb(0,0,0);stroke-width:1;stroke-linecap:round">
    </path>
    <path d="M-230.890768979951,269.7560154632199L-25.097551727696384,156.4312514975481" style="fill:none;stroke:rgb(160,0,0);stroke-width:4;stroke-linecap:round">
    </path>
    <path d="M-20.38362733751045,-623.4481614901945L-25.097551727696384,156.4312514975481L-206.08193300170979,83.40354553944336z" style="fill:rgb(0,0,0); fill-opacity: 0.2">
    </path>
    <path d="M-214.64785139447844,-662.2449146589179L-206.08193300170979,83.40354553944336L-20.38362733751045,-623.4481614901945z" style="fill:rgb(0,0,0); fill-opacity: 0.2">
    </path>
    <path d="M-20.38362733751045,-623.4481614901945L-214.64785139447844,-662.2449146589179" style="fill:none;stroke:rgb(0,0,0);stroke-width:1;stroke-linecap:round">
    </path>
    <path d="M-214.64785139447844,-662.2449146589179L-925.7032034546347,-561.0629197144536" style="fill:none;stroke:rgb(0,0,0);stroke-width:1;stroke-linecap:round">
    </path>
    <path d="M-20.38362733751045,-623.4481614901945L-214.64785139447844,-662.2449146589179" style="fill:none;stroke:rgb(0,0,0);stroke-width:1;stroke-linecap:round">
    </path>
    <path d="M92.37113473454815,203.83019627865406L-230.890768979951,269.7560154632199" style="fill:none;stroke:rgb(160,0,0);stroke-width:4;stroke-linecap:round">
    </path>
    <path d="M92.37113473454815,203.83019627865406L94.5739446160422,78.36995964552578" style="fill:none;stroke:rgb(0,0,0);stroke-width:1;stroke-linecap:round">
    </path>
    <path d="M282.7306874732937,280.6408102435923L92.37113473454815,203.83019627865406" style="fill:none;stroke:rgb(160,0,0);stroke-width:4;stroke-linecap:round">
    </path>
    <path d="M94.5739446160422,78.36995964552578L-237.5466477388341,-200.95849575091253" style="fill:none;stroke:rgb(0,0,0);stroke-width:1;stroke-linecap:round">
    </path>
    <path d="M94.5739446160422,78.36995964552578L-237.5466477388341,-200.95849575091253" style="fill:none;stroke:rgb(0,0,0);stroke-width:1;stroke-linecap:round">
    </path>
    <path d="M94.5739446160422,78.36995964552578L37.97932207870005,-267.14126663185965" style="fill:none;stroke:rgb(0,0,0);stroke-width:1;stroke-linecap:round">
    </path>
    <path d="M94.5739446160422,78.36995964552578L37.97932207870005,-267.14126663185965" style="fill:none;stroke:rgb(0,0,0);stroke-width:1;stroke-linecap:round">
    </path>
    <path d="M287.49015759278234,150.0431414709129L94.5739446160422,78.36995964552578" style="fill:none;stroke:rgb(0,0,0);stroke-width:1;stroke-linecap:round">
    </path>
    <path d="M94.5739446160422,78.36995964552578L-173.03613923874568,164.7632340740986" style="fill:none;stroke:rgb(0,0,0);stroke-width:1;stroke-linecap:round">
    </path>
    <path d="M287.49015759278234,150.0431414709129L94.5739446160422,78.36995964552578" style="fill:none;stroke:rgb(0,0,0);stroke-width:1;stroke-linecap:round">
    </path>
    <path d="M-173.03613923874568,164.7632340740986L94.5739446160422,78.36995964552578" style="fill:none;stroke:rgb(0,0,0);stroke-width:1;stroke-linecap:round">
    </path>
    <path d="M287.49015759278234,150.0431414709129L94.5739446160422,78.36995964552578" style="fill:none;stroke:rgb(0,0,0);stroke-width:1;stroke-linecap:round">
    </path>
    <path d="M94.5739446160422,78.36995964552578L-585.7001269454281,297.984645701016" style="fill:none;stroke:rgb(0,0,0);stroke-width:1;stroke-linecap:round">
    </path>
    <path d="M287.49015759278234,150.0431414709129L94.5739446160422,78.36995964552578" style="fill:none;stroke:rgb(0,0,0);stroke-width:1;stroke-linecap:round">
    </path>
    <path d="M94.5739446160422,78.36995964552578L92.37113473454815,203.83019627865406L-230.890768979951,269.7560154632199z" style="fill:rgb(0,0,0); fill-opacity: 0.2">
    </path>
    <path d="M94.5739446160422,78.36995964552578L92.37113473454815,203.83019627865406L287.49015759278234,150.0431414709129z" style="fill:rgb(0,0,0); fill-opacity: 0.2">
    </path>
    <path d="M37.97932207870005,-267.14126663185965L-20.38362733751045,-623.4481614901945" style="fill:none;stroke:rgb(0,0,0);stroke-width:1;stroke-linecap:round">
    </path>
    <path d="M37.97932207870005,-267.14126663185965L-20.38362733751045,-623.4481614901945" style="fill:none;stroke:rgb(0,0,0);stroke-width:1;stroke-linecap:round">
    </path>
    <path d="M-237.5466477388341,-200.95849575091253L-230.890768979951,269.7560154632199L-25.097551727696384,156.4312514975481z" style="fill:rgb(0,0,0); fill-opacity: 0.2">
    </path>
    <path d="M-20.38362733751045,-623.4481614901945L-25.097551727696384,156.4312514975481L-237.5466477388341,-200.95849575091253z" style="fill:rgb(0,0,0); fill-opacity: 0.2">
    </path>
    <path d="M287.49015759278234,150.0431414709129L282.7306874732937,280.6408102435923L92.37113473454815,203.83019627865406z" style="fill:rgb(0,0,0); fill-opacity: 0.2">
    </path>
    <path d="M-20.38362733751045,-623.4481614901945L-20.38362733751045,-623.4481614901945L37.97932207870005,-267.14126663185965z" style="fill:rgb(0,0,0); fill-opacity: 0.2">
    </path>
    <path d="M-230.890768979951,269.7560154632199L-237.5466477388341,-200.95849575091253" style="fill:none;stroke:rgb(0,0,0);stroke-width:1;stroke-linecap:round">
    </path>
    <path d="M-237.5466477388341,-200.95849575091253L-20.38362733751045,-623.4481614901945" style="fill:none;stroke:rgb(0,0,0);stroke-width:1;stroke-linecap:round">
    </path>
    <path d="M-20.38362733751045,-623.4481614901945L-20.38362733751045,-623.4481614901945" style="fill:none;stroke:rgb(0,0,0);stroke-width:1;stroke-linecap:round">
    </path>
    <path d="M-237.5466477388341,-200.95849575091253L-20.38362733751045,-623.4481614901945" style="fill:none;stroke:rgb(0,0,0);stroke-width:1;stroke-linecap:round">
    </path>
    <path d="M-20.38362733751045,-623.4481614901945L-744.0083122790021,-509.70030541413234" style="fill:none;stroke:rgb(0,0,0);stroke-width:1;stroke-linecap:round">
    </path>
    <path d="M37.97932207870005,-267.14126663185965L-237.5466477388341,-200.95849575091253L94.5739446160422,78.36995964552578z" style="fill:rgb(0,0,0); fill-opacity: 0.2">
    </path>
    <path d="M287.49015759278234,150.0431414709129L282.7306874732937,280.6408102435923" style="fill:none;stroke:rgb(104,70,1);stroke-width:5;stroke-linecap:round">
    </path>
    <path d="M282.7306874732937,280.6408102435923L373.3548870822651,317.2079292134479" style="fill:none;stroke:rgb(197,147,42);stroke-width:5;stroke-linecap:round">
    </path>
    <path d="M-237.5466477388341,-200.95849575091253L-230.890768979951,269.7560154632199L94.5739446160422,78.36995964552578z" style="fill:rgb(0,0,0); fill-opacity: 0.2">
    </path>
    <path d="M94.5739446160422,78.36995964552578L-173.03613923874568,164.7632340740986L287.49015759278234,150.0431414709129z" style="fill:rgb(0,0,0); fill-opacity: 0.2">
    </path>
    <path d="M37.97932207870005,-267.14126663185965L-237.5466477388341,-200.95849575091253L-20.38362733751045,-623.4481614901945z" style="fill:rgb(0,0,0); fill-opacity: 0.2">
    </path>
    <path d="M-925.7032034546347,-561.0629197144536L-861.396726916527,281.98214488207356" style="fill:none;stroke:rgb(0,0,0);stroke-width:1;stroke-linecap:round">
    </path>
    <path d="M-690.7668484085556,377.20812964457474L-861.396726916527,281.98214488207356" style="fill:none;stroke:rgb(160,0,0);stroke-width:4;stroke-linecap:round">
    </path>
    <path d="M285.09521191357123,215.75934825230493L376.3635275755659,251.13557508073495" style="fill:none;stroke:rgb(197,147,42);stroke-width:5;stroke-linecap:round">
    </path>
    <path d="M-173.03613923874568,164.7632340740986L94.5739446160422,78.36995964552578L-237.5466477388341,-200.95849575091253z" style="fill:rgb(0,0,0); fill-opacity: 0.2">
    </path>
    <path d="M94.5739446160422,78.36995964552578L-173.03613923874568,164.7632340740986L-237.5466477388341,-200.95849575091253z" style="fill:rgb(0,0,0); fill-opacity: 0.2">
    </path>
    <path d="M287.49015759278234,150.0431414709129L379.4117349140155,184.1942987187253" style="fill:none;stroke:rgb(197,147,42);stroke-width:5;stroke-linecap:round">
    </path>
    <path d="M18.463893488878337,245.57056354896574L287.49015759278234,150.0431414709129" style="fill:none;stroke:rgb(45,114,23);stroke-width:5;stroke-linecap:round">
    </path>
    <path d="M287.49015759278234,150.0431414709129L379.4117349140155,184.1942987187253" style="fill:none;stroke:rgb(109,213,75);stroke-width:5;stroke-linecap:round">
    </path>
    <path d="M287.49015759278234,150.0431414709129L18.463893488878337,245.57056354896574" style="fill:none;stroke:rgb(1,93,85);stroke-width:5;stroke-linecap:round">
    </path>
    <path d="M287.4901575927824,150.0431414709129L379.41173491401554,184.1942987187253" style="fill:none;stroke:rgb(43,180,168);stroke-width:5;stroke-linecap:round">
    </path>
    <path d="M-399.57876255109403,394.01159916003564L287.49015759278234,150.0431414709129" style="fill:none;stroke:rgb(22,31,115);stroke-width:5;stroke-linecap:round">
    </path>
    <path d="M287.49015759278234,150.0431414709129L379.4117349140155,184.1942987187253" style="fill:none;stroke:rgb(74,87,214);stroke-width:5;stroke-linecap:round">
    </path>
    <path d="M-325.9218632565549,302.19103107318017L-690.7668484085556,377.20812964457474" style="fill:none;stroke:rgb(160,0,0);stroke-width:4;stroke-linecap:round">
    </path>
    <path d="M-337.2153862595413,-177.01754640999414L-325.9218632565549,302.19103107318017" style="fill:none;stroke:rgb(0,0,0);stroke-width:1;stroke-linecap:round">
    </path>
    <path d="M-578.7269816974268,439.73590457778005L-325.9218632565549,302.19103107318017" style="fill:none;stroke:rgb(160,0,0);stroke-width:4;stroke-linecap:round">
    </path>
    <path d="M18.463893488878337,245.57056354896574L287.49015759278234,150.0431414709129L94.5739446160422,78.36995964552578z" style="fill:rgb(0,0,0); fill-opacity: 0.2">
    </path>
    <path d="M-585.7001269454281,297.984645701016L94.5739446160422,78.36995964552578L37.97932207870005,-267.14126663185965z" style="fill:rgb(0,0,0); fill-opacity: 0.2">
    </path>
    <path d="M-173.03613923874568,164.7632340740986L94.5739446160422,78.36995964552578L18.463893488878337,245.57056354896574z" style="fill:rgb(0,0,0); fill-opacity: 0.2">
    </path>
    <path d="M383.41968960007387,309.00493902583867L373.97846228722284,303.5136769882063L396.6343781212303,326.60126920489165z" style="fill:rgb(197,147,42)">
    </path>
    <path d="M363.6269542487513,316.97470904186076L366.7343873976597,330.74547919039134L396.6343781212303,326.60126920489165z" style="fill:rgb(197,147,42)">
    </path>
    <path d="M237.77373978763646,167.69673839276106L329.70410771063297,202.662266072606" style="fill:none;stroke:rgb(74,87,214);stroke-width:5;stroke-linecap:round">
    </path>
    <path d="M-173.03613923874568,164.7632340740986L-237.5466477388341,-200.95849575091253" style="fill:none;stroke:rgb(0,0,0);stroke-width:1;stroke-linecap:round">
    </path>
    <path d="M-173.03613923874568,164.7632340740986L-237.5466477388341,-200.95849575091253" style="fill:none;stroke:rgb(0,0,0);stroke-width:1;stroke-linecap:round">
    </path>
    <path d="M18.463893488878337,245.57056354896574L-173.03613923874568,164.7632340740986" style="fill:none;stroke:rgb(0,0,0);stroke-width:1;stroke-linecap:round">
    </path>
    <path d="M18.463893488878337,245.57056354896574L-173.03613923874568,164.7632340740986" style="fill:none;stroke:rgb(0,0,0);stroke-width:1;stroke-linecap:round">
    </path>
    <path d="M373.97846228722284,303.5136769882063L363.6269542487513,316.97470904186076L396.6343781212303,326.60126920489165z" style="fill:rgb(197,147,42)">
    </path>
    <path d="M236.33577483689467,168.2073394124812L328.2660041100553,203.19656738291192" style="fill:none;stroke:rgb(109,213,75);stroke-width:5;stroke-linecap:round">
    </path>
    <path d="M236.33577483689476,168.2073394124812L328.26600411005535,203.19656738291192" style="fill:none;stroke:rgb(43,180,168);stroke-width:5;stroke-linecap:round">
    </path>
    <path d="M386.48785829945683,243.0128018415305L376.99528208935806,237.26169814091378L399.8126031147888,260.2245980256162z" style="fill:rgb(197,147,42)">
    </path>
    <path d="M366.58051908760814,250.71074089872099L369.7010011623409,264.734364219261L399.8126031147888,260.2245980256162z" style="fill:rgb(197,147,42)">
    </path>
    <path d="M376.99528208935806,237.26169814091378L366.58051908760814,250.71074089872099L399.8126031147888,260.2245980256162z" style="fill:rgb(197,147,42)">
    </path>
    <path d="M-744.0083122790021,-509.70030541413234L-20.38362733751045,-623.4481614901945L-214.64785139447844,-662.2449146589179z" style="fill:rgb(0,0,0); fill-opacity: 0.2">
    </path>
    <path d="M-237.5466477388341,-200.95849575091253L-237.5466477388341,-200.95849575091253L-173.03613923874568,164.7632340740986z" style="fill:rgb(0,0,0); fill-opacity: 0.2">
    </path>
    <path d="M389.5962945216015,176.15456499108777L380.0518307279766,170.13723959415555L403.032858244698,192.97013482537758z" style="fill:rgb(197,147,42)">
    </path>
    <path d="M389.5962945216015,176.15456499108777L380.0518307279766,170.13723959415555L403.032858244698,192.97013482537758z" style="fill:rgb(109,213,75)">
    </path>
    <path d="M389.5962945216017,176.15456499108774L380.0518307279766,170.13723959415555L403.032858244698,192.97013482537758z" style="fill:rgb(43,180,168)">
    </path>
    <path d="M389.5962945216015,176.15456499108777L380.0518307279766,170.13723959415555L403.032858244698,192.97013482537758z" style="fill:rgb(74,87,214)">
    </path>
    <path d="M186.85261682650022,185.7781090797441L278.76460873782645,221.58791304029728" style="fill:none;stroke:rgb(74,87,214);stroke-width:5;stroke-linecap:round">
    </path>
    <path d="M-663.442655417508,-98.65605974470053L37.97932207870005,-267.14126663185965L-20.38362733751045,-623.4481614901945z" style="fill:rgb(0,0,0); fill-opacity: 0.2">
    </path>
    <path d="M183.9055438253816,186.82457302782902L275.8156235615028,222.68355499762905" style="fill:none;stroke:rgb(109,213,75);stroke-width:5;stroke-linecap:round">
    </path>
    <path d="M183.9055438253816,186.824573027829L275.8156235615028,222.683554997629" style="fill:none;stroke:rgb(43,180,168);stroke-width:5;stroke-linecap:round">
    </path>
    <path d="M369.5730389522942,183.57280697815665L372.7066452615474,197.8547722221116L403.032858244698,192.97013482537758z" style="fill:rgb(197,147,42)">
    </path>
    <path d="M369.5730389522942,183.57280697815665L372.7066452615474,197.8547722221116L403.032858244698,192.97013482537758z" style="fill:rgb(109,213,75)">
    </path>
    <path d="M369.5730389522942,183.57280697815665L372.7066452615474,197.8547722221116L403.032858244698,192.97013482537758z" style="fill:rgb(43,180,168)">
    </path>
    <path d="M369.5730389522942,183.57280697815665L372.7066452615474,197.8547722221116L403.032858244698,192.97013482537758z" style="fill:rgb(74,87,214)">
    </path>
    <path d="M380.0518307279766,170.13723959415555L369.5730389522942,183.57280697815665L403.032858244698,192.97013482537758z" style="fill:rgb(197,147,42)">
    </path>
    <path d="M380.0518307279766,170.13723959415555L369.5730389522942,183.57280697815665L403.032858244698,192.97013482537758z" style="fill:rgb(109,213,75)">
    </path>
    <path d="M380.0518307279766,170.13723959415555L369.5730389522942,183.57280697815665L403.032858244698,192.97013482537758z" style="fill:rgb(43,180,168)">
    </path>
    <path d="M380.0518307279766,170.13723959415555L369.5730389522942,183.57280697815665L403.032858244698,192.97013482537758z" style="fill:rgb(74,87,214)">
    </path>
    <path d="M287.49015759278234,150.0431414709129L18.463893488878337,245.57056354896574L-173.03613923874568,164.7632340740986z" style="fill:rgb(0,0,0); fill-opacity: 0.2">
    </path>
    <path d="M-269.71656884035997,195.97483404869774L-337.2153862595413,-177.01754640999414" style="fill:none;stroke:rgb(0,0,0);stroke-width:1;stroke-linecap:round">
    </path>
    <path d="M-269.71656884035997,195.97483404869774L-337.2153862595413,-177.01754640999414" style="fill:none;stroke:rgb(0,0,0);stroke-width:1;stroke-linecap:round">
    </path>
    <path d="M-585.7001269454281,297.984645701016L-269.71656884035997,195.97483404869774" style="fill:none;stroke:rgb(0,0,0);stroke-width:1;stroke-linecap:round">
    </path>
    <path d="M-79.12756469511773,280.2239103075358L-269.71656884035997,195.97483404869774" style="fill:none;stroke:rgb(0,0,0);stroke-width:1;stroke-linecap:round">
    </path>
    <path d="M-269.71656884035997,195.97483404869774L-585.7001269454281,297.984645701016" style="fill:none;stroke:rgb(0,0,0);stroke-width:1;stroke-linecap:round">
    </path>
    <path d="M-79.12756469511773,280.2239103075358L-269.71656884035997,195.97483404869774" style="fill:none;stroke:rgb(0,0,0);stroke-width:1;stroke-linecap:round">
    </path>
    <path d="M340.1155427308144,194.4862588165813L330.2830250661087,188.458561025996L353.3353771993873,211.65037115787044z" style="fill:rgb(74,87,214)">
    </path>
    <path d="M338.68403963668993,195.0166039605413L328.8431266212292,188.98862884432145L351.8974661611947,212.19085162999036z" style="fill:rgb(109,213,75)">
    </path>
    <path d="M338.68403963668993,195.0166039605413L328.8431266212292,188.98862884432145L351.8974661611947,212.19085162999036z" style="fill:rgb(43,180,168)">
    </path>
    <path d="M134.68246389612034,204.30299264625026L226.54687043270903,240.98846664883428" style="fill:none;stroke:rgb(74,87,214);stroke-width:5;stroke-linecap:round">
    </path>
    <path d="M319.5989220203015,202.08728336829242L322.89604175414695,216.49776298577643L353.3353771993873,211.65037115787044z" style="fill:rgb(74,87,214)">
    </path>
    <path d="M130.15113014954957,205.91200518198553L222.01002891471614,242.6740478314003" style="fill:none;stroke:rgb(109,213,75);stroke-width:5;stroke-linecap:round">
    </path>
    <path d="M130.15113014954957,205.91200518198548L222.01002891471614,242.6740478314002" style="fill:none;stroke:rgb(43,180,168);stroke-width:5;stroke-linecap:round">
    </path>
    <path d="M330.2830250661087,188.458561025996L319.5989220203015,202.08728336829242L353.3353771993873,211.65037115787044z" style="fill:rgb(74,87,214)">
    </path>
    <path d="M318.15305580905016,202.62294977872526L321.4549513914459,217.03713075949648L351.8974661611947,212.19085162999036z" style="fill:rgb(109,213,75)">
    </path>
    <path d="M318.15305580905016,202.62294977872523L321.4549513914459,217.0371307594964L351.8974661611947,212.19085162999036z" style="fill:rgb(43,180,168)">
    </path>
    <path d="M328.8431266212292,188.98862884432145L318.15305580905016,202.62294977872526L351.8974661611947,212.19085162999036z" style="fill:rgb(109,213,75)">
    </path>
    <path d="M328.8431266212292,188.98862884432145L318.15305580905016,202.62294977872523L351.8974661611947,212.19085162999036z" style="fill:rgb(43,180,168)">
    </path>
    <path d="M-399.57876255109403,394.01159916003564L287.49015759278234,150.0431414709129L94.5739446160422,78.36995964552578z" style="fill:rgb(0,0,0); fill-opacity: 0.2">
    </path>
    <path d="M-861.396726916527,281.98214488207356L-925.7032034546347,-561.0629197144536L-690.7668484085556,377.20812964457474z" style="fill:rgb(0,0,0); fill-opacity: 0.2">
    </path>
    <path d="M-325.9218632565549,302.19103107318017L-337.2153862595413,-177.01754640999414L-578.7269816974268,439.73590457778005z" style="fill:rgb(0,0,0); fill-opacity: 0.2">
    </path>
    <path d="M289.4111009994852,213.27130689631488L279.2790975598113,207.23456615012816L302.39923675832887,230.79619346698334z" style="fill:rgb(74,87,214)">
    </path>
    <path d="M81.21675472185841,223.28790991447482L173.0021686361434,260.8820294758478" style="fill:none;stroke:rgb(74,87,214);stroke-width:5;stroke-linecap:round">
    </path>
    <path d="M286.4758030630645,214.35877992592L276.32632874466765,208.32156484050682L299.45022779628255,231.9046638199865z" style="fill:rgb(109,213,75)">
    </path>
    <path d="M286.4758030630646,214.35877992591995L276.32632874466776,208.32156484050682L299.4502277962826,231.90466381998647z" style="fill:rgb(43,180,168)">
    </path>
    <path d="M-744.0083122790021,-509.70030541413234L-690.7668484085556,377.20812964457474" style="fill:none;stroke:rgb(0,0,0);stroke-width:1;stroke-linecap:round">
    </path>
    <path d="M-337.2153862595413,-177.01754640999414L-744.0083122790021,-509.70030541413234" style="fill:none;stroke:rgb(0,0,0);stroke-width:1;stroke-linecap:round">
    </path>
    <path d="M-337.2153862595413,-177.01754640999414L-744.0083122790021,-509.70030541413234" style="fill:none;stroke:rgb(0,0,0);stroke-width:1;stroke-linecap:round">
    </path>
    <path d="M-585.7001269454281,297.984645701016L-337.2153862595413,-177.01754640999414" style="fill:none;stroke:rgb(0,0,0);stroke-width:1;stroke-linecap:round">
    </path>
    <path d="M-585.7001269454281,297.984645701016L-337.2153862595413,-177.01754640999414" style="fill:none;stroke:rgb(0,0,0);stroke-width:1;stroke-linecap:round">
    </path>
    <path d="M268.38265341542655,221.06195373948145L271.85048965775536,235.60296728465244L302.39923675832887,230.79619346698334z" style="fill:rgb(74,87,214)">
    </path>
    <path d="M-925.7032034546347,-561.0629197144536L-214.64785139447844,-662.2449146589179L-744.0083122790021,-509.70030541413234z" style="fill:rgb(0,0,0); fill-opacity: 0.2">
    </path>
    <path d="M279.2790975598113,207.23456615012816L268.38265341542655,221.06195373948145L302.39923675832887,230.79619346698334z" style="fill:rgb(74,87,214)">
    </path>
    <path d="M75.02172669890527,225.4876767614227L166.79600865151974,263.1878156587213" style="fill:none;stroke:rgb(109,213,75);stroke-width:5;stroke-linecap:round">
    </path>
    <path d="M75.02172669890527,225.4876767614227L166.79600865151974,263.1878156587213" style="fill:none;stroke:rgb(43,180,168);stroke-width:5;stroke-linecap:round">
    </path>
    <path d="M265.41753157388223,222.1604759685756L268.8953485950495,236.70901024856002L299.45022779628255,231.9046638199865z" style="fill:rgb(109,213,75)">
    </path>
    <path d="M265.41753157388223,222.1604759685756L268.8953485950495,236.70901024856002L299.4502277962826,231.90466381998647z" style="fill:rgb(43,180,168)">
    </path>
    <path d="M276.32632874466765,208.32156484050682L265.41753157388223,222.1604759685756L299.45022779628255,231.9046638199865z" style="fill:rgb(109,213,75)">
    </path>
    <path d="M276.32632874466776,208.32156484050682L265.41753157388223,222.1604759685756L299.4502277962826,231.90466381998647z" style="fill:rgb(43,180,168)">
    </path>
    <path d="M-585.7001269454281,297.984645701016L-269.71656884035997,195.97483404869774L-337.2153862595413,-177.01754640999414z" style="fill:rgb(0,0,0); fill-opacity: 0.2">
    </path>
    <path d="M237.43700706342597,232.526737390212L226.99349213572333,226.48239358929575L250.1775440458777,250.42522779695287z" style="fill:rgb(74,87,214)">
    </path>
    <path d="M26.406623175533046,242.75021255551817L118.07927095069581,281.28763598941623" style="fill:none;stroke:rgb(74,87,214);stroke-width:5;stroke-linecap:round">
    </path>
    <path d="M232.92146265422028,234.19966220580443L222.45066701879836,228.15473750169127L245.64000531010055,252.1307930322386z" style="fill:rgb(109,213,75)">
    </path>
    <path d="M232.92146265422033,234.1996622058044L222.45066701879844,228.15473750169124L245.6400053101007,252.13079303223859z" style="fill:rgb(43,180,168)">
    </path>
    <path d="M215.8773381314794,240.51419181512716L219.52348558739237,255.18779029184782L250.1775440458777,250.42522779695287z" style="fill:rgb(74,87,214)">
    </path>
    <path d="M226.99349213572333,226.48239358929575L215.8773381314794,240.51419181512716L250.1775440458777,250.42522779695287z" style="fill:rgb(74,87,214)">
    </path>
    <path d="M-663.442655417508,-98.65605974470053L37.97932207870005,-267.14126663185965L-585.7001269454281,297.984645701016z" style="fill:rgb(0,0,0); fill-opacity: 0.2">
    </path>
    <path d="M18.46389348887827,245.57056354896577L110.11752856013943,284.24567697469985" style="fill:none;stroke:rgb(109,213,75);stroke-width:5;stroke-linecap:round">
    </path>
    <path d="M18.463893488878337,245.57056354896574L110.11752856013952,284.24567697469985" style="fill:none;stroke:rgb(43,180,168);stroke-width:5;stroke-linecap:round">
    </path>
    <path d="M211.31532638479487,242.20433191085812L214.97712435695138,256.8893912454441L245.64000531010055,252.1307930322386z" style="fill:rgb(109,213,75)">
    </path>
    <path d="M211.31532638479496,242.20433191085812L214.97712435695138,256.8893912454441L245.6400053101007,252.13079303223859z" style="fill:rgb(43,180,168)">
    </path>
    <path d="M-690.7668484085556,377.20812964457474L-744.0083122790021,-509.70030541413234L-325.9218632565549,302.19103107318017z" style="fill:rgb(0,0,0); fill-opacity: 0.2">
    </path>
    <path d="M222.45066701879836,228.15473750169127L211.31532638479487,242.20433191085812L245.64000531010055,252.1307930322386z" style="fill:rgb(109,213,75)">
    </path>
    <path d="M222.45066701879844,228.15473750169124L211.31532638479496,242.20433191085812L245.6400053101007,252.13079303223859z" style="fill:rgb(43,180,168)">
    </path>
    <path d="M-325.9218632565549,302.19103107318017L-337.2153862595413,-177.01754640999414L-744.0083122790021,-509.70030541413234z" style="fill:rgb(0,0,0); fill-opacity: 0.2">
    </path>
    <path d="M-337.2153862595413,-177.01754640999414L-337.2153862595413,-177.01754640999414L-585.7001269454281,297.984645701016z" style="fill:rgb(0,0,0); fill-opacity: 0.2">
    </path>
    <path d="M-337.2153862595413,-177.01754640999414L-663.442655417508,-98.65605974470053L-269.71656884035997,195.97483404869774z" style="fill:rgb(0,0,0); fill-opacity: 0.2">
    </path>
    <path d="M-585.7001269454281,297.984645701016L94.5739446160422,78.36995964552578L-399.57876255109403,394.01159916003564z" style="fill:rgb(0,0,0); fill-opacity: 0.2">
    </path>
    <path d="M-269.71656884035997,195.97483404869774L-585.7001269454281,297.984645701016L-79.12756469511773,280.2239103075358z" style="fill:rgb(0,0,0); fill-opacity: 0.2">
    </path>
    <path d="M184.14496766032394,252.27044204943866L173.37728313224414,246.22005427947622L196.62100892211242,270.5560012731629z" style="fill:rgb(74,87,214)">
    </path>
    <path d="M-744.0083122790021,-509.70030541413234L-925.7032034546347,-561.0629197144536" style="fill:none;stroke:rgb(0,0,0);stroke-width:1;stroke-linecap:round">
    </path>
    <path d="M-744.0083122790021,-509.70030541413234L-925.7032034546347,-561.0629197144536" style="fill:none;stroke:rgb(0,0,0);stroke-width:1;stroke-linecap:round">
    </path>
    <path d="M-29.799285689488823,262.70813598471835L61.72427323651054,302.2253132950586" style="fill:none;stroke:rgb(74,87,214);stroke-width:5;stroke-linecap:round">
    </path>
    <path d="M162.03369050512836,260.46225701242685L165.86616162836572,275.27052217086396L196.62100892211242,270.5560012731629z" style="fill:rgb(74,87,214)">
    </path>
    <path d="M177.96827787335832,254.55879018344552L167.1627095920876,248.50781662130504L190.41296795990482,272.8894731090916z" style="fill:rgb(109,213,75)">
    </path>
    <path d="M177.96827787335832,254.55879018344552L167.16270959208765,248.50781662130504L190.41296795990488,272.8894731090916z" style="fill:rgb(43,180,168)">
    </path>
    <path d="M173.37728313224414,246.22005427947622L162.03369050512836,260.46225701242685L196.62100892211242,270.5560012731629z" style="fill:rgb(74,87,214)">
    </path>
    <path d="M155.79261492568375,262.7744588792837L159.64691008144771,277.5982484175229L190.41296795990482,272.8894731090916z" style="fill:rgb(109,213,75)">
    </path>
    <path d="M155.79261492568384,262.7744588792837L159.64691008144777,277.5982484175229L190.41296795990488,272.8894731090916z" style="fill:rgb(43,180,168)">
    </path>
    <path d="M167.1627095920876,248.50781662130504L155.79261492568375,262.7744588792837L190.41296795990482,272.8894731090916z" style="fill:rgb(109,213,75)">
    </path>
    <path d="M167.16270959208765,248.50781662130504L155.79261492568384,262.7744588792837L190.41296795990488,272.8894731090916z" style="fill:rgb(43,180,168)">
    </path>
    <path d="M-578.7269816974268,439.73590457778005L-585.7001269454281,297.984645701016L-337.2153862595413,-177.01754640999414z" style="fill:rgb(0,0,0); fill-opacity: 0.2">
    </path>
    <path d="M-744.0083122790021,-509.70030541413234L-20.38362733751045,-623.4481614901945L-663.442655417508,-98.65605974470053z" style="fill:rgb(0,0,0); fill-opacity: 0.2">
    </path>
    <path d="M-269.71656884035997,195.97483404869774L-585.7001269454281,297.984645701016L-663.442655417508,-98.65605974470053z" style="fill:rgb(0,0,0); fill-opacity: 0.2">
    </path>
    <path d="M-585.7001269454281,297.984645701016L-578.7269816974268,439.73590457778005" style="fill:none;stroke:rgb(0,0,0);stroke-width:1;stroke-linecap:round">
    </path>
    <path d="M-394.9641828640557,542.2911758739713L-578.7269816974268,439.73590457778005" style="fill:none;stroke:rgb(160,0,0);stroke-width:4;stroke-linecap:round">
    </path>
    <path d="M-79.12756469511773,280.2239103075358L-399.57876255109403,394.01159916003564" style="fill:none;stroke:rgb(84,0,79);stroke-width:5;stroke-linecap:round">
    </path>
    <path d="M-79.12756469511788,280.2239103075359L12.237216522286673,320.6113316841187" style="fill:none;stroke:rgb(167,41,160);stroke-width:5;stroke-linecap:round">
    </path>
    <path d="M-399.57876255109403,394.01159916003564L-79.12756469511773,280.2239103075358" style="fill:none;stroke:rgb(115,35,18);stroke-width:5;stroke-linecap:round">
    </path>
    <path d="M-79.12756469511773,280.2239103075358L12.237216522286817,320.6113316841185" style="fill:none;stroke:rgb(214,94,68);stroke-width:5;stroke-linecap:round">
    </path>
    <path d="M-690.7668484085556,377.20812964457474L-744.0083122790021,-509.70030541413234L-925.7032034546347,-561.0629197144536z" style="fill:rgb(0,0,0); fill-opacity: 0.2">
    </path>
    <path d="M129.4842088599986,272.5212316662464L118.37902259883413,266.4664876833775L141.67778880801023,291.208000429093z" style="fill:rgb(74,87,214)">
    </path>
    <path d="M-87.45497613045426,283.18085635014876L3.880423148254145,323.7161466973819" style="fill:none;stroke:rgb(74,87,214);stroke-width:5;stroke-linecap:round">
    </path>
    <path d="M106.79987990786283,280.92535161061545L110.82713311653538,295.8703950480252L141.67778880801023,291.208000429093z" style="fill:rgb(74,87,214)">
    </path>
    <path d="M118.37902259883413,266.4664876833775L106.79987990786283,280.92535161061545L141.67778880801023,291.208000429093z" style="fill:rgb(74,87,214)">
    </path>
    <path d="M121.56071654931306,275.45673749045625L110.40618608510452,269.4015169361183L133.7124124760374,294.2020176152525z" style="fill:rgb(109,213,75)">
    </path>
    <path d="M121.56071654931306,275.45673749045625L110.4061860851046,269.4015169361183L133.71241247603746,294.2020176152525z" style="fill:rgb(43,180,168)">
    </path>
    <path d="M98.79270780838601,283.89185923273635L102.84850489436977,298.8566164904225L133.7124124760374,294.2020176152525z" style="fill:rgb(109,213,75)">
    </path>
    <path d="M98.79270780838607,283.8918592327363L102.84850489436982,298.8566164904225L133.71241247603746,294.2020176152525z" style="fill:rgb(43,180,168)">
    </path>
    <path d="M110.40618608510452,269.4015169361183L98.79270780838601,283.89185923273635L133.7124124760374,294.2020176152525z" style="fill:rgb(109,213,75)">
    </path>
    <path d="M110.4061860851046,269.4015169361183L98.79270780838607,283.8918592327363L133.71241247603746,294.2020176152525z" style="fill:rgb(43,180,168)">
    </path>
    <path d="M-399.57876255109403,394.01159916003564L-79.12756469511773,280.2239103075358L-269.71656884035997,195.97483404869774z" style="fill:rgb(0,0,0); fill-opacity: 0.2">
    </path>
    <path d="M-585.7001269454281,297.984645701016L-269.71656884035997,195.97483404869774L-399.57876255109403,394.01159916003564z" style="fill:rgb(0,0,0); fill-opacity: 0.2">
    </path>
    <path d="M-585.7001269454281,297.984645701016L-663.442655417508,-98.65605974470053" style="fill:none;stroke:rgb(0,0,0);stroke-width:1;stroke-linecap:round">
    </path>
    <path d="M-585.7001269454281,297.984645701016L-663.442655417508,-98.65605974470053" style="fill:none;stroke:rgb(0,0,0);stroke-width:1;stroke-linecap:round">
    </path>
    <path d="M-399.57876255109403,394.01159916003564L-585.7001269454281,297.984645701016" style="fill:none;stroke:rgb(0,0,0);stroke-width:1;stroke-linecap:round">
    </path>
    <path d="M-399.57876255109403,394.01159916003564L-585.7001269454281,297.984645701016" style="fill:none;stroke:rgb(0,0,0);stroke-width:1;stroke-linecap:round">
    </path>
    <path d="M-399.57876255109403,394.01159916003564L-585.7001269454281,297.984645701016" style="fill:none;stroke:rgb(0,0,0);stroke-width:1;stroke-linecap:round">
    </path>
    <path d="M-399.57876255109403,394.01159916003564L-585.7001269454281,297.984645701016" style="fill:none;stroke:rgb(0,0,0);stroke-width:1;stroke-linecap:round">
    </path>
    <path d="M-139.77774049397757,301.7599300784832L-48.64400108539783,343.23064390038775" style="fill:none;stroke:rgb(167,41,160);stroke-width:5;stroke-linecap:round">
    </path>
    <path d="M-139.77774049397735,301.7599300784832L-48.644001085397605,343.23064390038775" style="fill:none;stroke:rgb(214,94,68);stroke-width:5;stroke-linecap:round">
    </path>
    <path d="M73.40131471256775,293.29889585181127L61.944575632753846,287.2416224076957L85.29332129917938,312.4017341232901z" style="fill:rgb(74,87,214)">
    </path>
    <path d="M-146.61727478890995,304.18855198863605L-55.512070501186685,345.7823505275418" style="fill:none;stroke:rgb(74,87,214);stroke-width:5;stroke-linecap:round">
    </path>
    <path d="M-337.2153862595413,-177.01754640999414L-663.442655417508,-98.65605974470053L-744.0083122790021,-509.70030541413234z" style="fill:rgb(0,0,0); fill-opacity: 0.2">
    </path>
    <path d="M50.12136432963369,301.9236824051167L54.35233450598379,317.0076444435262L85.29332129917938,312.4017341232901z" style="fill:rgb(74,87,214)">
    </path>
    <path d="M61.944575632753846,287.2416224076957L50.12136432963369,301.9236824051167L85.29332129917938,312.4017341232901z" style="fill:rgb(74,87,214)">
    </path>
    <path d="M-744.0083122790021,-509.70030541413234L-744.0083122790021,-509.70030541413234L-337.2153862595413,-177.01754640999414z" style="fill:rgb(0,0,0); fill-opacity: 0.2">
    </path>
    <path d="M-578.7269816974268,439.73590457778005L-585.7001269454281,297.984645701016L-394.9641828640557,542.2911758739713z" style="fill:rgb(0,0,0); fill-opacity: 0.2">
    </path>
    <path d="M24.155814148277486,311.54343349434197L12.385980175871572,305.48555944819753L35.77318705705378,331.01530952797293z" style="fill:rgb(167,41,160)">
    </path>
    <path d="M24.155814148277702,311.5434334943419L12.385980175871717,305.4855594481975L35.77318705705393,331.01530952797293z" style="fill:rgb(214,94,68)">
    </path>
    <path d="M-202.07776394938318,323.88178742174455L-111.2225248789716,366.48055944644955" style="fill:none;stroke:rgb(167,41,160);stroke-width:5;stroke-linecap:round">
    </path>
    <path d="M-202.07776394938298,323.88178742174455L-111.22252487897137,366.48055944644955" style="fill:none;stroke:rgb(214,94,68);stroke-width:5;stroke-linecap:round">
    </path>
    <path d="M0.3464593289162391,320.36435449765486L4.75954071947874,335.5691139179682L35.77318705705378,331.01530952797293z" style="fill:rgb(167,41,160)">
    </path>
    <path d="M0.34645932891638503,320.3643544976548L4.759540719478886,335.56911391796814L35.77318705705393,331.01530952797293z" style="fill:rgb(214,94,68)">
    </path>
    <path d="M12.385980175871572,305.48555944819753L0.3464593289162391,320.36435449765486L35.77318705705378,331.01530952797293z" style="fill:rgb(167,41,160)">
    </path>
    <path d="M12.385980175871717,305.4855594481975L0.34645932891638503,320.3643544976548L35.77318705705393,331.01530952797293z" style="fill:rgb(214,94,68)">
    </path>
    <path d="M15.840053136718973,314.62426754137545L4.016942645442576,308.5664416319468L27.410143432111493,334.1588014733782z" style="fill:rgb(74,87,214)">
    </path>
    <path d="M-79.12756469511773,280.2239103075358L-399.57876255109403,394.01159916003564L-585.7001269454281,297.984645701016z" style="fill:rgb(0,0,0); fill-opacity: 0.2">
    </path>
    <path d="M-207.3460175118385,325.752469763304L-116.51624389637628,368.4473447366433" style="fill:none;stroke:rgb(74,87,214);stroke-width:5;stroke-linecap:round">
    </path>
    <path d="M-8.059289268992647,323.4785272637128L-3.6151577779319704,338.7035755735574L27.410143432111493,334.1588014733782z" style="fill:rgb(74,87,214)">
    </path>
    <path d="M4.016942645442576,308.5664416319468L-8.059289268992647,323.4785272637128L27.410143432111493,334.1588014733782z" style="fill:rgb(74,87,214)">
    </path>
    <path d="M-663.442655417508,-98.65605974470053L-744.0083122790021,-509.70030541413234" style="fill:none;stroke:rgb(0,0,0);stroke-width:1;stroke-linecap:round">
    </path>
    <path d="M-663.442655417508,-98.65605974470053L-744.0083122790021,-509.70030541413234" style="fill:none;stroke:rgb(0,0,0);stroke-width:1;stroke-linecap:round">
    </path>
    <path d="M-36.42487750680512,333.9874476001337L-48.58552086548333,327.9309135993491L-25.157961664212493,353.9180449218611z" style="fill:rgb(167,41,160)">
    </path>
    <path d="M-36.42487750680497,333.9874476001335L-48.5855208654831,327.93091359934897L-25.15796166421227,353.9180449218611z" style="fill:rgb(214,94,68)">
    </path>
    <path d="M-266.0958837656901,346.61371648713043L-175.5703369979271,390.3878219807121" style="fill:none;stroke:rgb(167,41,160);stroke-width:5;stroke-linecap:round">
    </path>
    <path d="M-266.0958837656898,346.6137164871304L-175.57033699792683,390.38782198071203" style="fill:none;stroke:rgb(214,94,68);stroke-width:5;stroke-linecap:round">
    </path>
    <path d="M-60.89370291850215,343.05269013349795L-56.25244732684567,358.40453147020594L-25.15796166421227,353.9180449218611z" style="fill:rgb(214,94,68)">
    </path>
    <path d="M-60.89370291850229,343.052690133498L-56.252447326845825,358.4045314702061L-25.157961664212493,353.9180449218611z" style="fill:rgb(167,41,160)">
    </path>
    <path d="M-43.25881214488531,336.5192926686649L-55.46393266808259,330.46305380042577L-32.032303655497124,356.5019652801284z" style="fill:rgb(74,87,214)">
    </path>
    <path d="M-48.58552086548333,327.9309135993491L-60.89370291850229,343.052690133498L-25.157961664212493,353.9180449218611z" style="fill:rgb(167,41,160)">
    </path>
    <path d="M-48.5855208654831,327.93091359934897L-60.89370291850215,343.05269013349795L-25.15796166421227,353.9180449218611z" style="fill:rgb(214,94,68)">
    </path>
    <path d="M-269.7042512113082,347.89499674108043L-179.19860138861523,391.7358378102409" style="fill:none;stroke:rgb(74,87,214);stroke-width:5;stroke-linecap:round">
    </path>
    <path d="M-67.80259907999856,345.6123070455487L-63.13531672023786,360.9806349801637L-32.032303655497124,356.5019652801284z" style="fill:rgb(74,87,214)">
    </path>
    <path d="M-55.46393266808259,330.46305380042577L-67.80259907999856,345.6123070455487L-32.032303655497124,356.5019652801284z" style="fill:rgb(74,87,214)">
    </path>
    <path d="M-394.9641828640557,542.2911758739713L-399.57876255109403,394.01159916003564L-585.7001269454281,297.984645701016z" style="fill:rgb(0,0,0); fill-opacity: 0.2">
    </path>
    <path d="M-744.0083122790021,-509.70030541413234L-744.0083122790021,-509.70030541413234" style="fill:none;stroke:rgb(0,0,0);stroke-width:1;stroke-linecap:round">
    </path>
    <path d="M-98.69064245176503,357.0557498686064L-111.25945902421716,351.0029835663655L-87.79843258299621,377.4632785258477z" style="fill:rgb(214,94,68)">
    </path>
    <path d="M-98.69064245176519,357.0557498686065L-111.25945902421739,351.0029835663656L-87.79843258299644,377.4632785258477z" style="fill:rgb(167,41,160)">
    </path>
    <path d="M-394.9641828640557,542.2911758739713L-399.57876255109403,394.01159916003564" style="fill:none;stroke:rgb(80,97,2);stroke-width:5;stroke-linecap:round">
    </path>
    <path d="M-394.9641828640557,542.2911758739713L-306.50910406635296,591.6566331983893" style="fill:none;stroke:rgb(162,186,45);stroke-width:5;stroke-linecap:round">
    </path>
    <path d="M-103.95772494523065,359.0071054994197L-116.56137101677162,352.9547690779344L-93.09788606625922,379.4552314662824z" style="fill:rgb(74,87,214)">
    </path>
    <path d="M-331.9041655739888,369.9813067611597L-241.76354826226128,414.98070909794455" style="fill:none;stroke:rgb(167,41,160);stroke-width:5;stroke-linecap:round">
    </path>
    <path d="M-331.9041655739887,369.98130676115954L-241.76354826226114,414.9807090979443" style="fill:none;stroke:rgb(214,94,68);stroke-width:5;stroke-linecap:round">
    </path>
    <path d="M-123.84672183438104,366.375607154562L-118.96617827425652,381.87687319025434L-87.79843258299644,377.4632785258477z" style="fill:rgb(167,41,160)">
    </path>
    <path d="M-123.8467218343809,366.37560715456186L-118.96617827425636,381.87687319025423L-87.79843258299621,377.4632785258477z" style="fill:rgb(214,94,68)">
    </path>
    <path d="M-333.75845219415504,370.63973771848015L-243.62935733980305,415.67391662104" style="fill:none;stroke:rgb(74,87,214);stroke-width:5;stroke-linecap:round">
    </path>
    <path d="M-111.25945902421739,351.0029835663656L-123.84672183438104,366.375607154562L-87.79843258299644,377.4632785258477z" style="fill:rgb(167,41,160)">
    </path>
    <path d="M-111.25945902421716,351.0029835663655L-123.8467218343809,366.37560715456186L-87.79843258299621,377.4632785258477z" style="fill:rgb(214,94,68)">
    </path>
    <path d="M-129.17237842567852,368.34866339396945L-124.27137168530083,383.8624879950791L-93.09788606625922,379.4552314662824z" style="fill:rgb(74,87,214)">
    </path>
    <path d="M-116.56137101677162,352.9547690779344L-129.17237842567852,368.34866339396945L-93.09788606625922,379.4552314662824z" style="fill:rgb(74,87,214)">
    </path>
    <path d="M-397.25430356341,468.70308097598826L-308.1830261914463,516.550571964171" style="fill:none;stroke:rgb(162,186,45);stroke-width:5;stroke-linecap:round">
    </path>
    <path d="M-162.71277863659236,380.7747548577913L-175.70814663867003,374.7283895901104L-152.2211772604801,401.67843129518087z" style="fill:rgb(167,41,160)">
    </path>
    <path d="M-162.7127786365922,380.77475485779127L-175.70814663866977,374.7283895901102L-152.22117726047986,401.67843129518087z" style="fill:rgb(214,94,68)">
    </path>
    <path d="M-166.32255669491627,382.1121101676494L-179.34218236787464,376.06618212509505L-155.85400603692426,403.0439351129216z" style="fill:rgb(74,87,214)">
    </path>
    <path d="M-399.57876255109375,394.0115991600354L-309.8826984897774,440.28914390672276" style="fill:none;stroke:rgb(74,87,214);stroke-width:5;stroke-linecap:round">
    </path>
    <path d="M-399.57876255109375,394.0115991600354L-309.8826984897774,440.28914390672276" style="fill:none;stroke:rgb(214,94,68);stroke-width:5;stroke-linecap:round">
    </path>
    <path d="M-399.57876255109403,394.01159916003564L-309.88269848977774,440.2891439067229" style="fill:none;stroke:rgb(167,41,160);stroke-width:5;stroke-linecap:round">
    </path>
    <path d="M-399.57876255109403,394.01159916003564L-309.88269848977774,440.2891439067229" style="fill:none;stroke:rgb(162,186,45);stroke-width:5;stroke-linecap:round">
    </path>
    <path d="M-188.58547825375345,390.36010654820495L-183.45385645668034,406.01316353948664L-152.2211772604801,401.67843129518087z" style="fill:rgb(167,41,160)">
    </path>
    <path d="M-188.5854782537533,390.36010654820484L-183.4538564566801,406.0131635394866L-152.22117726047986,401.67843129518087z" style="fill:rgb(214,94,68)">
    </path>
    <path d="M-175.70814663867003,374.7283895901104L-188.58547825375345,390.36010654820495L-152.2211772604801,401.67843129518087z" style="fill:rgb(167,41,160)">
    </path>
    <path d="M-175.70814663866977,374.7283895901102L-188.5854782537533,390.36010654820484L-152.22117726047986,401.67843129518087z" style="fill:rgb(214,94,68)">
    </path>
    <path d="M-192.2359631225555,391.7125429706025L-187.09003247458193,407.37410259951486L-155.85400603692426,403.0439351129216z" style="fill:rgb(74,87,214)">
    </path>
    <path d="M-179.34218236787464,376.06618212509505L-192.2359631225555,391.7125429706025L-155.85400603692426,403.0439351129216z" style="fill:rgb(74,87,214)">
    </path>
    <path d="M-293.1711823469963,581.4419493048472L-306.85574321274436,576.103519606797L-283.6844453714759,604.3947340520804z" style="fill:rgb(162,186,45)">
    </path>
    <path d="M-228.56666384860506,405.17238862920436L-242.00805022815413,399.1352811843297L-218.50335846611748,426.592507089597z" style="fill:rgb(167,41,160)">
    </path>
    <path d="M-228.56666384860478,405.17238862920414L-242.00805022815396,399.13528118432953L-218.5033584661173,426.592507089597z" style="fill:rgb(214,94,68)">
    </path>
    <path d="M-230.42284489710372,405.860069018735L-243.87690964663216,399.82326181118026L-220.37185010910417,427.29483374161515z" style="fill:rgb(74,87,214)">
    </path>
    <path d="M-320.13761639928487,592.3002906979989L-314.56172405531345,607.5892925126183L-283.6844453714759,604.3947340520804z" style="fill:rgb(162,186,45)">
    </path>
    <path d="M-306.85574321274436,576.103519606797L-320.13761639928487,592.3002906979989L-283.6844453714759,604.3947340520804z" style="fill:rgb(162,186,45)">
    </path>
    <path d="M-255.18704720196894,415.0347431709151L-249.7918296140403,430.8419777631321L-218.50335846611748,426.592507089597z" style="fill:rgb(167,41,160)">
    </path>
    <path d="M-255.18704720196868,415.0347431709151L-249.79182961404,430.84197776313187L-218.5033584661173,426.592507089597z" style="fill:rgb(214,94,68)">
    </path>
    <path d="M-242.00805022815413,399.1352811843297L-255.18704720196894,415.0347431709151L-218.50335846611748,426.592507089597z" style="fill:rgb(167,41,160)">
    </path>
    <path d="M-242.00805022815396,399.13528118432953L-255.18704720196868,415.0347431709151L-218.5033584661173,426.592507089597z" style="fill:rgb(214,94,68)">
    </path>
    <path d="M-257.0644579344542,415.7302887616152L-251.66173214228476,431.54184030460556L-220.37185010910417,427.29483374161515z" style="fill:rgb(74,87,214)">
    </path>
    <path d="M-243.87690964663216,399.82326181118026L-257.0644579344542,415.7302887616152L-220.37185010910417,427.29483374161515z" style="fill:rgb(74,87,214)">
    </path>
    <path d="M-294.73958233314,506.4356162252031L-308.534981475471,500.7589322472474L-285.1938663204741,528.8999358916549z" style="fill:rgb(162,186,45)">
    </path>
    <path d="M-321.921542513077,516.9465675227825L-316.2979464863455,532.5687294689901L-285.1938663204741,528.8999358916549z" style="fill:rgb(162,186,45)">
    </path>
    <path d="M-308.534981475471,500.7589322472474L-321.921542513077,516.9465675227825L-285.1938663204741,528.8999358916549z" style="fill:rgb(162,186,45)">
    </path>
    <path d="M-296.3320517701571,430.2781984316936L-310.2400931501247,424.253448552416L-286.7266584978915,452.2362085644099z" style="fill:rgb(74,87,214)">
    </path>
    <path d="M-296.33205177015725,430.2781984316938L-310.24009315012506,424.25344855241605L-286.7266584978918,452.2362085644099z" style="fill:rgb(167,41,160)">
    </path>
    <path d="M-296.3320517701571,430.2781984316936L-310.2400931501247,424.253448552416L-286.7266584978915,452.2362085644099z" style="fill:rgb(214,94,68)">
    </path>
    <path d="M-296.33205177015725,430.2781984316938L-310.24009315012506,424.25344855241605L-286.7266584978918,452.2362085644099z" style="fill:rgb(162,186,45)">
    </path>
    <path d="M-323.7330040110816,440.42973915871073L-318.06089042694936,456.39355474794087L-286.7266584978915,452.2362085644099z" style="fill:rgb(74,87,214)">
    </path>
    <path d="M-323.7330040110819,440.42973915871085L-318.06089042694975,456.3935547479411L-286.7266584978918,452.2362085644099z" style="fill:rgb(167,41,160)">
    </path>
    <path d="M-323.73300401108173,440.42973915871085L-318.0608904269495,456.39355474794087L-286.7266584978915,452.2362085644099z" style="fill:rgb(214,94,68)">
    </path>
    <path d="M-323.7330040110819,440.42973915871085L-318.06089042694975,456.3935547479411L-286.7266584978918,452.2362085644099z" style="fill:rgb(162,186,45)">
    </path>
    <path d="M-310.2400931501247,424.253448552416L-323.7330040110816,440.42973915871073L-286.7266584978915,452.2362085644099z" style="fill:rgb(74,87,214)">
    </path>
    <path d="M-310.24009315012506,424.25344855241605L-323.7330040110819,440.42973915871085L-286.7266584978918,452.2362085644099z" style="fill:rgb(167,41,160)">
    </path>
    <path d="M-310.2400931501247,424.253448552416L-323.73300401108173,440.42973915871085L-286.7266584978915,452.2362085644099z" style="fill:rgb(214,94,68)">
    </path>
    <path d="M-310.24009315012506,424.25344855241605L-323.7330040110819,440.42973915871085L-286.7266584978918,452.2362085644099z" style="fill:rgb(162,186,45)">
    </path>
</svg>