<svg viewBox="-812 -590 1624 1180" width="1624" height="1180" style="background-color: rgb(255, 255, 255);"><path d="M16.017876963072986,197.03546368009594L59.343553435545815,-540.4641051284015M186.31463929753014,262.5204430005678L16.017876963072986,197.03546368009594M186.31463929753008,262.5204430005678L233.24965158234366,-479.2381413509722M75.96860236314484,327.15915644167364L186.31463929753008,262.5204430005678M217.54685678007505,274.53030794421335L75.96860236314484,327.15915644167364M217.54685678007513,274.5303079442134L241.12032232090544,-93.18723488856676M367.5759780410747,332.2216801615539L217.54685678007513,274.5303079442134" style="fill:none;stroke:rgb(0,0,0);stroke-width:1;stroke-linecap:round"></path><path d="M233.24965158234374,-479.2381413509722L186.31463929753014,262.5204430005678L16.017876963072986,197.03546368009594zM241.12032232090536,-93.18723488856679L217.54685678007505,274.53030794421335L75.96860236314484,327.15915644167364z" style="fill:rgb(0,0,0); fill-opacity: 0.2"></path><path d="M392.7465422274303,-37.32241666318308L367.5759780410747,332.2216801615539" style="fill:none;stroke:rgb(58,110,14);stroke-width:5;stroke-linecap:round"></path><path d="M367.5759780410747,332.2216801615539L420.4889813674296,352.56855511743385" style="fill:none;stroke:rgb(128,207,62);stroke-width:5;stroke-linecap:round"></path><path d="M59.343553435545815,-540.4641051284015L16.017876963072986,197.03546368009594L233.24965158234374,-479.2381413509722z" style="fill:rgb(0,0,0); fill-opacity: 0.2"></path><path d="M370.07141228375076,295.5847185675354L423.0406494049484,315.868604952153" style="fill:none;stroke:rgb(128,207,62);stroke-width:5;stroke-linecap:round"></path><path d="M392.7465422274303,-37.32241666318308L367.5759780410747,332.2216801615539L217.54685678007513,274.5303079442134z" style="fill:rgb(0,0,0); fill-opacity: 0.2"></path><path d="M372.57161472994875,258.877752127744L425.5972040792412,279.09837161388697" style="fill:none;stroke:rgb(128,207,62);stroke-width:5;stroke-linecap:round"></path><path d="M241.12032232090544,-93.18723488856676L217.54685678007513,274.5303079442134L392.7465422274303,-37.32241666318308z" style="fill:rgb(0,0,0); fill-opacity: 0.2"></path><path d="M425.57139666180586,347.8553454680148L421.02017658754704,344.928518161331L433.7544308763509,357.6695780309664zM415.73144466486247,352.56222521531765L417.0185852227843,360.20354796185353L433.7544308763509,357.6695780309664zM421.02017658754704,344.928518161331L415.73144466486247,352.56222521531765L433.7544308763509,357.6695780309664z" style="fill:rgb(128,207,62)"></path><path d="M375.0765990591552,222.1005800054532L428.15865944117917,242.25765301275993" style="fill:none;stroke:rgb(128,207,62);stroke-width:5;stroke-linecap:round"></path><path d="M241.12032232090536,-93.18723488856679L109.7283422375562,-230.7840670794506M241.12032232090536,-93.18723488856679L109.7283422375562,-230.7840670794506M241.12032232090536,-93.18723488856679L237.201218523629,-285.41654084163065M241.12032232090536,-93.18723488856679L237.201218523629,-285.41654084163065M392.7465422274303,-37.32241666318308L241.12032232090544,-93.18723488856676M241.12032232090544,-93.18723488856676L114.20985461452366,-37.10243416668928M392.7465422274303,-37.32241666318308L241.12032232090544,-93.18723488856676M114.20985461452366,-37.10243416668928L241.12032232090544,-93.18723488856676M392.7465422274303,-37.32241666318308L241.12032232090544,-93.18723488856676M241.12032232090544,-93.18723488856676L-190.7138350401247,97.65070857033486M392.7465422274303,-37.32241666318308L241.12032232090544,-93.18723488856676" style="fill:none;stroke:rgb(0,0,0);stroke-width:1;stroke-linecap:round"></path><path d="M109.7283422375562,-230.7840670794506L75.96860236314484,327.15915644167364L186.31463929753008,262.5204430005678z" style="fill:rgb(0,0,0); fill-opacity: 0.2"></path><path d="M428.1272071827711,311.1612160093851L423.5728615183315,308.2139422956757L436.32023253876145,320.9538500899115zM418.2795927078888,315.84741147616165L419.5670628816474,323.5090372995103L436.32023253876145,320.9538500899115zM423.5728615183315,308.2139422956757L418.2795927078888,315.84741147616165L436.32023253876145,320.9538500899115z" style="fill:rgb(128,207,62)"></path><path d="M377.5863790032345,185.25300059496186L430.72502959555436,205.34624628337653" style="fill:none;stroke:rgb(128,207,62);stroke-width:5;stroke-linecap:round"></path><path d="M233.24965158234374,-479.2381413509722L59.343553435545815,-540.4641051284015M59.343553435545815,-540.4641051284015L-378.24760297100556,-362.7725086975186M233.24965158234374,-479.2381413509722L59.343553435545815,-540.4641051284015" style="fill:none;stroke:rgb(0,0,0);stroke-width:1;stroke-linecap:round"></path><path d="M430.6879108949174,274.39683431993194L426.130436008721,271.4290412187486L438.89095067372824,284.16776913932756zM420.83262262409124,279.06225760710026L422.12042131567824,286.74425030737046L438.89095067372824,284.16776913932756zM426.130436008721,271.4290412187486L420.83262262409124,279.06225760710026L438.89095067372824,284.16776913932756z" style="fill:rgb(128,207,62)"></path><path d="M380.10096834667814,148.33481151790917L433.2963287013366,168.36394778109738" style="fill:none;stroke:rgb(128,207,62);stroke-width:5;stroke-linecap:round"></path><path d="M433.253521863995,237.56199845570612L428.69291412079883,234.57361267941312L441.4665994258849,247.31113277443495zM423.39054845633774,242.20656127244888L424.67867455960817,249.90898490494837L441.4665994258849,247.31113277443495zM428.69291412079883,234.57361267941312L423.39054845633774,242.20656127244888L441.4665994258849,247.31113277443495z" style="fill:rgb(128,207,62)"></path><path d="M382.62038092685776,111.34580961957019L435.8725709719368,131.31055307829487" style="fill:none;stroke:rgb(128,207,62);stroke-width:5;stroke-linecap:round"></path><path d="M435.82405420971673,200.6565056980173L431.2603099706226,197.64745365023936L444.04719299417576,210.38373781328744zM425.9533843014078,205.28011935974462L427.24183670202984,213.00303823623514L444.04719299417576,210.38373781328744zM431.2603099706226,197.64745365023936L425.9533843014078,205.28011935974462L444.04719299417576,210.38373781328744z" style="fill:rgb(128,207,62)"></path><path d="M233.24965158234366,-479.2381413509722L186.31463929753008,262.5204430005678L109.7283422375562,-230.7840670794506z" style="fill:rgb(0,0,0); fill-opacity: 0.2"></path><path d="M385.14463063427917,74.28579096512918L438.4537706754659,94.18585696058584" style="fill:none;stroke:rgb(128,207,62);stroke-width:5;stroke-linecap:round"></path><path d="M109.7283422375562,-230.7840670794506L75.96860236314484,327.15915644167364L241.12032232090536,-93.18723488856679z" style="fill:rgb(0,0,0); fill-opacity: 0.2"></path><path d="M438.3995221060162,163.68015254971547L433.83263772848284,160.65036032377506L446.6327456321167,173.38538029303805z" style="fill:rgb(128,207,62)"></path><path d="M237.201218523629,-285.41654084163065L233.24965158234366,-479.2381413509722M237.201218523629,-285.41654084163065L233.24965158234366,-479.2381413509722" style="fill:none;stroke:rgb(0,0,0);stroke-width:1;stroke-linecap:round"></path><path d="M428.52114431025086,168.28272797601474L429.80992188565534,176.0262066659746L446.6327456321167,173.38538029303805zM433.83263772848284,160.65036032377506L428.52114431025086,168.28272797601474L446.6327456321167,173.38538029303805z" style="fill:rgb(128,207,62)"></path><path d="M387.6737314128371,37.154550835931715L441.0399421350004,56.98965342304325" style="fill:none;stroke:rgb(128,207,62);stroke-width:5;stroke-linecap:round"></path><path d="M440.97993978130853,126.63273473144986L436.4099116191643,123.58212810879634L449.2232716480574,136.3158554661843z" style="fill:rgb(128,207,62)"></path><path d="M241.12032232090544,-93.18723488856676L114.20985461452366,-37.10243416668928L392.7465422274303,-37.32241666318308z" style="fill:rgb(0,0,0); fill-opacity: 0.2"></path><path d="M431.0938426882473,131.21418244402437L432.38294430757645,138.97828577591807L449.2232716480574,136.3158554661843zM436.4099116191643,123.58212810879634L431.0938426882473,131.21418244402437L449.2232716480574,136.3158554661843z" style="fill:rgb(128,207,62)"></path><path d="M390.2076972600726,-0.048116274284895066L443.6310997288467,19.721735666385737" style="fill:none;stroke:rgb(128,207,62);stroke-width:5;stroke-linecap:round"></path><path d="M237.201218523629,-285.41654084163065L109.7283422375562,-230.7840670794506L241.12032232090536,-93.18723488856679z" style="fill:rgb(0,0,0); fill-opacity: 0.2"></path><path d="M443.5653215187531,89.51404717790773L438.99214592220756,86.44255162653661L451.81878540544625,99.17495779679095zM433.67149369547025,94.07427729850164L434.9609182195266,101.85907036105733L451.81878540544625,99.17495779679095zM438.99214592220756,86.44255162653661L433.67149369547025,94.07427729850164L451.81878540544625,99.17495779679095z" style="fill:rgb(128,207,62)"></path><path d="M392.7465422274303,-37.32241666318308L446.2272578908066,-17.618103906855005" style="fill:none;stroke:rgb(128,207,62);stroke-width:5;stroke-linecap:round"></path><path d="M266.33952840606185,19.61992275194189L392.7465422274303,-37.32241666318308" style="fill:none;stroke:rgb(97,2,64);stroke-width:5;stroke-linecap:round"></path><path d="M392.7465422274303,-37.32241666318308L446.2272578908066,-17.618103906855005" style="fill:none;stroke:rgb(186,45,138);stroke-width:5;stroke-linecap:round"></path><path d="M392.7465422274303,-37.32241666318308L266.33952840606185,19.61992275194189" style="fill:none;stroke:rgb(0,86,91);stroke-width:5;stroke-linecap:round"></path><path d="M392.7465422274303,-37.32241666318308L446.2272578908066,-17.618103906855005" style="fill:none;stroke:rgb(41,170,178);stroke-width:5;stroke-linecap:round"></path><path d="M-37.433000210097205,156.4597855612635L392.7465422274303,-37.32241666318308" style="fill:none;stroke:rgb(104,70,1);stroke-width:5;stroke-linecap:round"></path><path d="M392.7465422274303,-37.32241666318308L446.2272578908066,-17.618103906855005" style="fill:none;stroke:rgb(197,147,42);stroke-width:5;stroke-linecap:round"></path><path d="M233.24965158234366,-479.2381413509722L233.24965158234366,-479.2381413509722L237.201218523629,-285.41654084163065z" style="fill:rgb(0,0,0); fill-opacity: 0.2"></path><path d="M446.15568165651575,52.323884034030435L441.57935497217335,49.23142470689338L454.4193013230942,61.96248095669154zM436.25411164694935,56.86280628234187L437.54385792814355,64.668354425836L454.4193013230942,61.96248095669154zM441.57935497217335,49.23142470689338L436.25411164694935,56.86280628234187L454.4193013230942,61.96248095669154z" style="fill:rgb(128,207,62)"></path><path d="M114.20985461452355,-37.10243416668934L241.12032232090536,-93.18723488856679L109.7283422375562,-230.7840670794506zM241.12032232090536,-93.18723488856679L114.20985461452355,-37.10243416668934L109.7283422375562,-230.7840670794506zM266.33952840606185,19.61992275194189L392.7465422274303,-37.32241666318308L241.12032232090544,-93.18723488856676z" style="fill:rgb(0,0,0); fill-opacity: 0.2"></path><path d="M448.7510345880348,15.062038651208002L444.17155315890744,11.948540384612945L457.02483387544277,24.678217821667417z" style="fill:rgb(128,207,62)"></path><path d="M114.20985461452366,-37.10243416668928L241.12032232090544,-93.18723488856676L266.33952840606185,19.61992275194189z" style="fill:rgb(0,0,0); fill-opacity: 0.2"></path><path d="M369.50429919243504,-26.85252538374998L423.018798300789,-7.092488607337512" style="fill:none;stroke:rgb(197,147,42);stroke-width:5;stroke-linecap:round"></path><path d="M438.84171091293496,19.579562342789064L440.1317777952342,27.405931180338733L457.02483387544277,24.678217821667417zM444.17155315890744,11.948540384612945L438.84171091293496,19.579562342789064L457.02483387544277,24.678217821667417z" style="fill:rgb(128,207,62)"></path><path d="M367.6416738419815,-26.0134719032317L421.1588729733407,-6.248966080277128" style="fill:none;stroke:rgb(186,45,138);stroke-width:5;stroke-linecap:round"></path><path d="M367.6416738419815,-26.0134719032317L421.1588729733407,-6.248966080277128" style="fill:none;stroke:rgb(41,170,178);stroke-width:5;stroke-linecap:round"></path><path d="M109.7283422375562,-230.7840670794506L233.24965158234366,-479.2381413509722M233.24965158234366,-479.2381413509722L233.24965158234366,-479.2381413509722M109.7283422375562,-230.7840670794506L233.24965158234366,-479.2381413509722M233.24965158234366,-479.2381413509722L-202.504588460684,-298.3413327929282" style="fill:none;stroke:rgb(0,0,0);stroke-width:1;stroke-linecap:round"></path><path d="M237.201218523629,-285.41654084163065L109.7283422375562,-230.7840670794506L233.24965158234366,-479.2381413509722z" style="fill:rgb(0,0,0); fill-opacity: 0.2"></path><path d="M114.20985461452355,-37.10243416668934L109.7283422375562,-230.7840670794506M114.20985461452355,-37.10243416668934L109.7283422375562,-230.7840670794506M266.33952840606185,19.61992275194189L114.20985461452366,-37.10243416668928M266.33952840606185,19.61992275194189L114.20985461452366,-37.10243416668928" style="fill:none;stroke:rgb(0,0,0);stroke-width:1;stroke-linecap:round"></path><path d="M451.3513947622877,-22.271696416548345L446.7687549278075,-25.406309104546043L459.635397592833,-12.678039532395053z" style="fill:rgb(128,207,62)"></path><path d="M451.3513947622877,-22.271696416548345L446.7687549278075,-25.406309104546043L459.635397592833,-12.678039532395053z" style="fill:rgb(186,45,138)"></path><path d="M451.35139476228784,-22.271696416548345L446.7687549278075,-25.406309104546043L459.635397592833,-12.678039532395053z" style="fill:rgb(41,170,178)"></path><path d="M451.3513947622877,-22.271696416548345L446.7687549278075,-25.406309104546043L459.635397592833,-12.678039532395053z" style="fill:rgb(197,147,42)"></path><path d="M441.4343059191655,-17.775662372404145L442.7246922380409,-9.928406963541283L459.635397592833,-12.678039532395053z" style="fill:rgb(128,207,62)"></path><path d="M441.4343059191655,-17.775662372404145L442.7246922380409,-9.928406963541283L459.635397592833,-12.678039532395053z" style="fill:rgb(186,45,138)"></path><path d="M441.4343059191655,-17.775662372404145L442.7246922380409,-9.928406963541317L459.635397592833,-12.678039532395053z" style="fill:rgb(41,170,178)"></path><path d="M441.4343059191655,-17.775662372404145L442.7246922380409,-9.928406963541283L459.635397592833,-12.678039532395053z" style="fill:rgb(197,147,42)"></path><path d="M446.7687549278075,-25.406309104546043L441.4343059191655,-17.775662372404145L459.635397592833,-12.678039532395053z" style="fill:rgb(128,207,62)"></path><path d="M446.7687549278075,-25.406309104546043L441.4343059191655,-17.775662372404145L459.635397592833,-12.678039532395053z" style="fill:rgb(186,45,138)"></path><path d="M446.7687549278075,-25.406309104546043L441.4343059191655,-17.775662372404145L459.635397592833,-12.678039532395053z" style="fill:rgb(41,170,178)"></path><path d="M446.7687549278075,-25.406309104546043L441.4343059191655,-17.775662372404145L459.635397592833,-12.678039532395053z" style="fill:rgb(197,147,42)"></path><path d="M346.1868075059755,-16.348736980077668L399.7350283101893,3.4672818372685623" style="fill:none;stroke:rgb(197,147,42);stroke-width:5;stroke-linecap:round"></path><path d="M342.4490013380258,-14.664974180458746L396.00261180753455,5.1600258167704025" style="fill:none;stroke:rgb(186,45,138);stroke-width:5;stroke-linecap:round"></path><path d="M342.4490013380258,-14.664974180458778L396.00261180753455,5.160025816770369" style="fill:none;stroke:rgb(41,170,178);stroke-width:5;stroke-linecap:round"></path><path d="M-95.39345081685605,406.93808720519155L-242.33006730419953,461.6894831753569M-210.7689926635783,474.3269491018402L-95.39345081685605,406.93808720519155" style="fill:none;stroke:rgb(0,0,0);stroke-width:1;stroke-linecap:round"></path><path d="M392.7465422274303,-37.32241666318308L266.33952840606185,19.61992275194189L114.20985461452366,-37.10243416668928z" style="fill:rgb(0,0,0); fill-opacity: 0.2"></path><path d="M428.15783190049166,-11.75660979372811L423.5564986335245,-14.891192276982625L436.4354694082471,-2.1384309422622585z" style="fill:rgb(197,147,42)"></path><path d="M-378.24760297100556,-362.7725086975186L-414.37632600505947,392.7999172506071M-242.33006730419953,461.6894831753569L-414.37632600505947,392.7999172506071" style="fill:none;stroke:rgb(0,0,0);stroke-width:1;stroke-linecap:round"></path><path d="M426.29910131961793,-10.913931453068107L421.69626838386876,-14.048510800726758L434.5762259401796,-1.2937861540852411z" style="fill:rgb(186,45,138)"></path><path d="M426.29910131961793,-10.913931453068107L421.69626838386887,-14.048510800726758L434.5762259401796,-1.2937861540852411z" style="fill:rgb(41,170,178)"></path><path d="M418.20858665278286,-7.245997248569569L419.5093673746421,0.610205433525328L436.4354694082471,-2.1384309422622585zM423.5564986335245,-14.891192276982625L418.20858665278286,-7.245997248569569L436.4354694082471,-2.1384309422622585z" style="fill:rgb(197,147,42)"></path><path d="M416.3472768054596,-6.402149565782116L417.64889169754116,1.4547696233656922L434.5762259401796,-1.2937861540852411z" style="fill:rgb(186,45,138)"></path><path d="M416.3472768054596,-6.40214956578215L417.6488916975412,1.4547696233656922L434.5762259401796,-1.2937861540852411z" style="fill:rgb(41,170,178)"></path><path d="M421.69626838386876,-14.048510800726758L416.3472768054596,-6.402149565782116L434.5762259401796,-1.2937861540852411z" style="fill:rgb(186,45,138)"></path><path d="M421.69626838386887,-14.048510800726758L416.3472768054596,-6.40214956578215L434.5762259401796,-1.2937861540852411z" style="fill:rgb(41,170,178)"></path><path d="M-190.71383504012482,97.65070857033483L241.12032232090536,-93.18723488856679L237.201218523629,-285.41654084163065z" style="fill:rgb(0,0,0); fill-opacity: 0.2"></path><path d="M322.7937011400885,-5.810886568210123L376.37558075503216,14.061373944984004" style="fill:none;stroke:rgb(197,147,42);stroke-width:5;stroke-linecap:round"></path><path d="M109.7283422375562,-230.7840670794506L109.7283422375562,-230.7840670794506L114.20985461452355,-37.10243416668934z" style="fill:rgb(0,0,0); fill-opacity: 0.2"></path><path d="M317.1680632670826,-3.2767156269997786L370.75801151192604,16.60908171257622" style="fill:none;stroke:rgb(186,45,138);stroke-width:5;stroke-linecap:round"></path><path d="M317.1680632670826,-3.2767156269997786L370.75801151192604,16.60908171257622" style="fill:none;stroke:rgb(41,170,178);stroke-width:5;stroke-linecap:round"></path><path d="M404.8890284109623,-1.2074119081025783L400.2689044244297,-4.341947488494447L413.16021561957285,8.435397684139136zM394.9074701028152,3.317850159924963L396.21870595985223,11.183016908964314L413.16021561957285,8.435397684139136zM400.2689044244297,-4.341947488494447L394.9074701028152,3.317850159924963L413.16021561957285,8.435397684139136z" style="fill:rgb(197,147,42)"></path><path d="M401.1590130530691,0.4836363722502546L396.53587347959984,-2.6508901432649656L409.4291602794317,10.130397022082688z" style="fill:rgb(186,45,138)"></path><path d="M401.15901305306926,0.4836363722502546L396.53587347959984,-2.6508901432649994L409.4291602794317,10.130397022082654z" style="fill:rgb(41,170,178)"></path><path d="M391.1722700496043,5.011248985586554L392.48518439276467,12.877851545272081L409.4291602794317,10.130397022082688z" style="fill:rgb(186,45,138)"></path><path d="M391.1722700496043,5.011248985586554L392.48518439276467,12.877851545272081L409.4291602794317,10.130397022082654z" style="fill:rgb(41,170,178)"></path><path d="M396.53587347959984,-2.6508901432649656L391.1722700496043,5.011248985586554L409.4291602794317,10.130397022082688z" style="fill:rgb(186,45,138)"></path><path d="M396.53587347959984,-2.6508901432649994L391.1722700496043,5.011248985586554L409.4291602794317,10.130397022082654z" style="fill:rgb(41,170,178)"></path><path d="M299.3246116890224,4.761191806926913L352.9400860807239,24.68995531803468" style="fill:none;stroke:rgb(197,147,42);stroke-width:5;stroke-linecap:round"></path><path d="M291.79839494151554,8.151513084146124L345.42460594841003,28.098413012397405" style="fill:none;stroke:rgb(186,45,138);stroke-width:5;stroke-linecap:round"></path><path d="M291.79839494151565,8.151513084146124L345.4246059484101,28.098413012397405" style="fill:none;stroke:rgb(41,170,178);stroke-width:5;stroke-linecap:round"></path><path d="M381.54461757452725,9.3760634969697L376.9056049281951,6.241591680025111L389.8092687791617,19.04361327639454zM371.53058853086463,13.916046571799297L372.85234068328623,21.79019420357286L389.8092687791617,19.04361327639454zM376.9056049281951,6.241591680025111L371.53058853086463,13.916046571799297L389.8092687791617,19.04361327639454z" style="fill:rgb(197,147,42)"></path><path d="M375.93066764204184,11.921216658129582L371.28710707079574,8.786762671460329L384.19373737129627,21.59472044334783z" style="fill:rgb(186,45,138)"></path><path d="M375.93066764204184,11.921216658129547L371.28710707079586,8.786762671460329L384.19373737129627,21.59472044334783z" style="fill:rgb(41,170,178)"></path><path d="M-37.433000210097205,156.4597855612635L392.7465422274303,-37.32241666318308L241.12032232090544,-93.18723488856676z" style="fill:rgb(0,0,0); fill-opacity: 0.2"></path><path d="M365.90882204581794,16.464743463077877L367.23310725765225,24.341049011327975L384.19373737129627,21.59472044334783z" style="fill:rgb(186,45,138)"></path><path d="M365.90882204581794,16.464743463077877L367.2331072576523,24.341049011327943L384.19373737129627,21.59472044334783z" style="fill:rgb(41,170,178)"></path><path d="M371.28710707079574,8.786762671460329L365.90882204581794,16.464743463077877L384.19373737129627,21.59472044334783z" style="fill:rgb(186,45,138)"></path><path d="M371.28710707079586,8.786762671460329L365.90882204581794,16.464743463077877L384.19373737129627,21.59472044334783z" style="fill:rgb(41,170,178)"></path><path d="M275.77916834989634,15.367665180237962L329.4281723225635,35.35319465169013" style="fill:none;stroke:rgb(197,147,42);stroke-width:5;stroke-linecap:round"></path><path d="M266.33952840606185,19.61992275194189L320.00192569354937,39.62823261147147" style="fill:none;stroke:rgb(186,45,138);stroke-width:5;stroke-linecap:round"></path><path d="M266.33952840606185,19.61992275194189L320.00192569354937,39.62823261147147" style="fill:none;stroke:rgb(41,170,178);stroke-width:5;stroke-linecap:round"></path><path d="M358.1242302849739,19.993983760324255L353.46623038003287,16.85959273146286L366.3822590455328,29.686383851595206z" style="fill:rgb(197,147,42)"></path><path d="M-196.584170237582,-99.50429377873782L237.201218523629,-285.41654084163065L233.24965158234366,-479.2381413509722z" style="fill:rgb(0,0,0); fill-opacity: 0.2"></path><path d="M348.0775718031905,24.54875979173135L349.40990184286414,32.43190514385987L366.3822590455328,29.686383851595206zM353.46623038003287,16.85959273146286L348.0775718031905,24.54875979173135L366.3822590455328,29.686383851595206z" style="fill:rgb(197,147,42)"></path><path d="M-202.50458846068395,-298.3413327929282L233.24965158234374,-479.2381413509722L59.343553435545815,-540.4641051284015z" style="fill:rgb(0,0,0); fill-opacity: 0.2"></path><path d="M350.61359951417006,23.39902047752073L345.9495027541012,20.26465892346035L358.8694907154565,33.09939603841553z" style="fill:rgb(186,45,138)"></path><path d="M350.6135995141701,23.39902047752073L345.9495027541012,20.26465892346035L358.8694907154566,33.09939603841553z" style="fill:rgb(41,170,178)"></path><path d="M340.55646592523885,27.95854552742493L341.8921939680367,35.84457370970409L358.8694907154565,33.09939603841553z" style="fill:rgb(186,45,138)"></path><path d="M340.55646592523885,27.95854552742493L341.8921939680367,35.84457370970409L358.8694907154566,33.09939603841553z" style="fill:rgb(41,170,178)"></path><path d="M345.9495027541012,20.26465892346035L340.55646592523885,27.95854552742493L358.8694907154565,33.09939603841553z" style="fill:rgb(186,45,138)"></path><path d="M345.9495027541012,20.26465892346035L340.55646592523885,27.95854552742493L358.8694907154566,33.09939603841553z" style="fill:rgb(41,170,178)"></path><path d="M252.1569979031729,26.008701675254617L305.83946508606414,46.05126174318848" style="fill:none;stroke:rgb(197,147,42);stroke-width:5;stroke-linecap:round"></path><path d="M334.6274950295954,30.646517311810005L329.9504086031891,27.51222426132291L342.87881416384585,40.363878523208996zM324.5480473711746,35.21615871921346L325.8910173253128,43.108318650896955L342.87881416384585,40.363878523208996zM329.9504086031891,27.51222426132291L324.5480473711746,35.21615871921346L342.87881416384585,40.363878523208996z" style="fill:rgb(197,147,42)"></path><path d="M325.2073398166823,34.91726039058702L320.522590838292,31.78301138214606L333.4559505218269,44.64463723051645z" style="fill:rgb(186,45,138)"></path><path d="M325.2073398166822,34.91726039058698L320.522590838292,31.78301138214606L333.4559505218269,44.64463723051645z" style="fill:rgb(41,170,178)"></path><path d="M228.45772469293732,36.684470513019L282.17358752707986,56.784327500749384" style="fill:none;stroke:rgb(197,147,42);stroke-width:5;stroke-linecap:round"></path><path d="M315.11473152716735,39.492868331756256L316.4619749129359,47.38863882062277L333.4559505218269,44.64463723051645z" style="fill:rgb(186,45,138)"></path><path d="M315.11473152716735,39.492868331756256L316.4619749129359,47.38863882062277L333.4559505218269,44.64463723051645z" style="fill:rgb(41,170,178)"></path><path d="M320.522590838292,31.78301138214606L315.11473152716735,39.492868331756256L333.4559505218269,44.64463723051645z" style="fill:rgb(186,45,138)"></path><path d="M320.522590838292,31.78301138214606L315.11473152716735,39.492868331756256L333.4559505218269,44.64463723051645z" style="fill:rgb(41,170,178)"></path><path d="M-95.39345081685605,406.93808720519155L-63.75431177149231,-156.43266920189117L-210.7689926635783,474.3269491018402z" style="fill:rgb(0,0,0); fill-opacity: 0.2"></path><path d="M-202.504588460684,-298.3413327929282L-242.33006730419953,461.6894831753569" style="fill:none;stroke:rgb(0,0,0);stroke-width:1;stroke-linecap:round"></path><path d="M311.05403786954747,41.33383368119553L306.35776498924423,38.199655966649836L319.2985594461854,51.076267510037624zM300.9416402515943,45.91841335749561L302.2953125864762,53.819604749256676L319.2985594461854,51.076267510037624zM306.35776498924423,38.199655966649836L300.9416402515943,45.91841335749561L319.2985594461854,51.076267510037624z" style="fill:rgb(197,147,42)"></path><path d="M204.6809706069843,47.39514202105382L258.4301603317378,67.55256395267507" style="fill:none;stroke:rgb(197,147,42);stroke-width:5;stroke-linecap:round"></path><path d="M-190.7138350401247,97.65070857033486L-210.76899266357822,474.3269491018403M-59.12556464630815,535.0469555136889L-210.76899266357822,474.3269491018403" style="fill:none;stroke:rgb(0,0,0);stroke-width:1;stroke-linecap:round"></path><path d="M-414.37632600505947,392.7999172506071L-378.24760297100556,-362.7725086975186L-242.33006730419953,461.6894831753569z" style="fill:rgb(0,0,0); fill-opacity: 0.2"></path><path d="M287.40348242001033,52.056103507162156L282.6879224782222,48.92205865504003L295.6411177516485,61.823722145262245z" style="fill:rgb(197,147,42)"></path><path d="M-58.49270939758894,39.21899984761105L-63.75431177149231,-156.43266920189117M-58.49270939758894,39.21899984761105L-63.75431177149231,-156.43266920189117M-190.7138350401247,97.65070857033486L-58.49270939758884,39.21899984761105M94.2990998289919,97.11866416674026L-58.49270939758884,39.21899984761105M-58.49270939758884,39.21899984761105L-190.7138350401247,97.65070857033486M94.2990998289919,97.11866416674026L-58.49270939758884,39.21899984761105" style="fill:none;stroke:rgb(0,0,0);stroke-width:1;stroke-linecap:round"></path><path d="M277.2579730067032,56.65569482261657L278.6224106314332,64.56593457603793L295.6411177516485,61.823722145262245zM282.6879224782222,48.92205865504003L277.2579730067032,56.65569482261657L295.6411177516485,61.823722145262245z" style="fill:rgb(197,147,42)"></path><path d="M180.82635505670916,58.14088764242109L234.60880169617286,78.35614425654157" style="fill:none;stroke:rgb(197,147,42);stroke-width:5;stroke-linecap:round"></path><path d="M-190.7138350401247,97.65070857033486L241.12032232090544,-93.18723488856676L-37.433000210097205,156.4597855612635z" style="fill:rgb(0,0,0); fill-opacity: 0.2"></path><path d="M263.6754498301569,62.81349854638596L258.94050153850174,59.67960425374101L271.90610946623895,72.60641488557769z" style="fill:rgb(197,147,42)"></path><path d="M-242.33006730419953,461.6894831753569L-202.504588460684,-298.3413327929282L-95.39345081685605,406.93808720519155z" style="fill:rgb(0,0,0); fill-opacity: 0.2"></path><path d="M253.49666572411357,67.4281753525238L254.87193199441924,75.34748038998075L271.90610946623895,72.60641488557769zM258.94050153850174,59.67960425374101L253.49666572411357,67.4281753525238L271.90610946623895,72.60641488557769z" style="fill:rgb(197,147,42)"></path><path d="M-196.584170237582,-99.50429377873782L237.201218523629,-285.41654084163065L-190.71383504012482,97.65070857033483z" style="fill:rgb(0,0,0); fill-opacity: 0.2"></path><path d="M156.89349495680105,68.92187994486956L210.70912730606202,89.19524270848005" style="fill:none;stroke:rgb(197,147,42);stroke-width:5;stroke-linecap:round"></path><path d="M-378.24760297100556,-362.7725086975186L59.343553435545815,-540.4641051284015L-202.50458846068395,-298.3413327929282z" style="fill:rgb(0,0,0); fill-opacity: 0.2"></path><path d="M239.86955876292396,73.60619168270868L235.11512014653175,70.47246581884099L248.09315248256195,83.42451932041706zM229.65733599648365,78.2360283162832L231.0434947185511,86.16441558067034L248.09315248256195,83.42451932041706zM235.11512014653175,70.47246581884099L229.65733599648365,78.2360283162832L248.09315248256195,83.42451932041706z" style="fill:rgb(197,147,42)"></path><path d="M-95.39345081685605,406.93808720519155L-63.75431177149231,-156.43266920189117L-202.504588460684,-298.3413327929282z" style="fill:rgb(0,0,0); fill-opacity: 0.2"></path><path d="M132.88200470473586,79.73829263007244L186.73075031595704,100.07003475255024" style="fill:none;stroke:rgb(197,147,42);stroke-width:5;stroke-linecap:round"></path><path d="M-210.7689926635783,474.3269491018402L-190.71383504012482,97.65070857033483L-63.75431177149231,-156.43266920189117z" style="fill:rgb(0,0,0); fill-opacity: 0.2"></path><path d="M-63.75431177149231,-156.43266920189117L-202.504588460684,-298.3413327929282M-63.75431177149231,-156.43266920189117L-202.504588460684,-298.3413327929282M-190.71383504012482,97.65070857033483L-63.75431177149231,-156.43266920189117M-190.71383504012482,97.65070857033483L-63.75431177149231,-156.43266920189117" style="fill:none;stroke:rgb(0,0,0);stroke-width:1;stroke-linecap:round"></path><path d="M-190.71383504012482,97.65070857033483L-58.49270939758894,39.21899984761105L-63.75431177149231,-156.43266920189117zM-210.76899266357822,474.3269491018403L-190.7138350401247,97.65070857033486L-59.12556464630815,535.0469555136889z" style="fill:rgb(0,0,0); fill-opacity: 0.2"></path><path d="M215.9854253745832,84.43435693639954L211.2113937663454,81.30081754454862L224.20186217931897,94.27821018126701zM205.7395989010018,89.07942822337952L207.13671433535055,97.01691467783183L224.20186217931897,94.27821018126701zM211.2113937663454,81.30081754454862L205.7395989010018,89.07942822337952L224.20186217931897,94.27821018126701z" style="fill:rgb(197,147,42)"></path><path d="M-58.49270939758884,39.21899984761105L-190.7138350401247,97.65070857033486L94.2990998289919,97.11866416674026z" style="fill:rgb(0,0,0); fill-opacity: 0.2"></path><path d="M108.79149616006667,90.59030054295638L162.67328132841203,110.98069699020633" style="fill:none;stroke:rgb(197,147,42);stroke-width:5;stroke-linecap:round"></path><path d="M-59.12556464630815,535.0469555136889L-37.433000210097205,156.4597855612635" style="fill:none;stroke:rgb(114,20,32);stroke-width:5;stroke-linecap:round"></path><path d="M-59.12556464630815,535.0469555136889L-5.629558335376901,556.4674541708288" style="fill:none;stroke:rgb(212,72,90);stroke-width:5;stroke-linecap:round"></path><path d="M-63.75431177149231,-156.43266920189117L-63.75431177149231,-156.43266920189117L-190.71383504012482,97.65070857033483zM-63.75431177149231,-156.43266920189117L-196.584170237582,-99.50429377873782L-58.49270939758894,39.21899984761105zM-202.504588460684,-298.3413327929282L233.24965158234366,-479.2381413509722L-196.584170237582,-99.50429377873782z" style="fill:rgb(0,0,0); fill-opacity: 0.2"></path><path d="M192.02266329411097,95.2981694735082L187.22893532887215,92.1648347725646L200.23185140059985,105.16766335107532z" style="fill:rgb(197,147,42)"></path><path d="M94.2990998289919,97.11866416674026L-37.433000210097205,156.4597855612635" style="fill:none;stroke:rgb(47,10,107);stroke-width:5;stroke-linecap:round"></path><path d="M94.29909982899181,97.11866416674032L148.2006728250524,117.54438592854544" style="fill:none;stroke:rgb(112,56,202);stroke-width:5;stroke-linecap:round"></path><path d="M-37.433000210097205,156.4597855612635L94.2990998289919,97.11866416674026" style="fill:none;stroke:rgb(26,115,41);stroke-width:5;stroke-linecap:round"></path><path d="M94.2990998289919,97.11866416674026L148.20067282505252,117.54438592854537" style="fill:none;stroke:rgb(81,214,102);stroke-width:5;stroke-linecap:round"></path><path d="M181.7430669786696,99.95855073310908L183.1512038440666,107.90515336071749L200.23185140059985,105.16766335107532z" style="fill:rgb(197,147,42)"></path><path d="M-56.97549516843184,497.5230969941538L-3.4218100228706594,518.8777375039965" style="fill:none;stroke:rgb(212,72,90);stroke-width:5;stroke-linecap:round"></path><path d="M187.22893532887215,92.1648347725646L181.7430669786696,99.95855073310908L200.23185140059985,105.16766335107532z" style="fill:rgb(197,147,42)"></path><path d="M84.6215786235097,101.47807968112275L138.5363283729045,121.92740718985686" style="fill:none;stroke:rgb(197,147,42);stroke-width:5;stroke-linecap:round"></path><path d="M-58.49270939758894,39.21899984761105L-190.71383504012482,97.65070857033483L-196.584170237582,-99.50429377873782zM-37.433000210097205,156.4597855612635L94.2990998289919,97.11866416674026L-58.49270939758884,39.21899984761105z" style="fill:rgb(0,0,0); fill-opacity: 0.2"></path><path d="M-54.82119547588819,459.9254111037739L-1.2097079377726772,481.2138923338252" style="fill:none;stroke:rgb(212,72,90);stroke-width:5;stroke-linecap:round"></path><path d="M167.98088360235366,106.19780561531012L163.1673552110453,103.0646940015461L176.1827304349697,116.09305587375138z" style="fill:rgb(197,147,42)"></path><path d="M-0.2729400278383648,551.5553314527815L-5.169969172177296,548.642365445833L7.783168944442044,561.8380851113153z" style="fill:rgb(212,72,90)"></path><path d="M-190.7138350401247,97.65070857033486L-58.49270939758884,39.21899984761105L-37.433000210097205,156.4597855612635z" style="fill:rgb(0,0,0); fill-opacity: 0.2"></path><path d="M157.66735021337905,110.87357266406526L159.08657369079282,118.8293084675862L176.1827304349697,116.09305587375138z" style="fill:rgb(197,147,42)"></path><path d="M-242.33006730419953,461.6894831753569L-202.50458846068395,-298.3413327929282L-378.24760297100556,-362.7725086975186z" style="fill:rgb(0,0,0); fill-opacity: 0.2"></path><path d="M163.1673552110453,103.0646940015461L157.66735021337905,110.87357266406526L176.1827304349697,116.09305587375138z" style="fill:rgb(197,147,42)"></path><path d="M-10.705857534614342,556.5458525582889L-9.225260488810633,564.3397828039055L7.783168944442044,561.8380851113153zM-5.169969172177296,548.642365445833L-10.705857534614342,556.5458525582889L7.783168944442044,561.8380851113153z" style="fill:rgb(212,72,90)"></path><path d="M68.14047570905703,108.90229237090728L122.07759789179613,129.3918519838191" style="fill:none;stroke:rgb(112,56,202);stroke-width:5;stroke-linecap:round"></path><path d="M68.14047570905707,108.90229237090725L122.07759789179619,129.39185198381904" style="fill:none;stroke:rgb(81,214,102);stroke-width:5;stroke-linecap:round"></path><path d="M-52.662653072101534,422.25367974739424L1.0067608113624686,443.475699167097" style="fill:none;stroke:rgb(212,72,90);stroke-width:5;stroke-linecap:round"></path><path d="M-190.71383504012482,97.65070857033483L-196.584170237582,-99.50429377873782M-190.71383504012482,97.65070857033483L-196.584170237582,-99.50429377873782M-37.433000210097205,156.4597855612635L-190.7138350401247,97.65070857033486M-37.433000210097205,156.4597855612635L-190.7138350401247,97.65070857033486M-37.433000210097205,156.4597855612635L-190.7138350401247,97.65070857033486M-37.433000210097205,156.4597855612635L-190.7138350401247,97.65070857033486" style="fill:none;stroke:rgb(0,0,0);stroke-width:1;stroke-linecap:round"></path><path d="M60.37185881582282,112.40180720436214L114.31949688454742,132.91034429651967" style="fill:none;stroke:rgb(197,147,42);stroke-width:5;stroke-linecap:round"></path><path d="M153.51772458225182,112.75485641609501L148.69226568710425,109.6218875592945L161.71512188185886,122.66561636496688z" style="fill:rgb(112,56,202)"></path><path d="M153.51772458225193,112.75485641609494L148.69226568710434,109.62188755929445L161.71512188185895,122.66561636496681z" style="fill:rgb(81,214,102)"></path><path d="M1.9394435226733235,513.9716703741135L-2.961314884310621,511.03722339880073L10.005416929263085,524.2318714693348z" style="fill:rgb(212,72,90)"></path><path d="M143.18374821822846,117.43989153870092L144.6096551434873,125.40111541716261L161.71512188185886,122.66561636496688z" style="fill:rgb(112,56,202)"></path><path d="M143.18374821822854,117.43989153870088L144.60965514348737,125.40111541716261L161.71512188185895,122.66561636496681z" style="fill:rgb(81,214,102)"></path><path d="M-8.502191363038165,518.9405430073755L-7.020938801257245,526.7558545434771L10.005416929263085,524.2318714693348z" style="fill:rgb(212,72,90)"></path><path d="M148.69226568710425,109.6218875592945L143.18374821822846,117.43989153870092L161.71512188185886,122.66561636496688z" style="fill:rgb(112,56,202)"></path><path d="M148.69226568710434,109.62188755929445L143.18374821822854,117.43989153870088L161.71512188185895,122.66561636496681z" style="fill:rgb(81,214,102)"></path><path d="M-2.961314884310621,511.03722339880073L-8.502191363038165,518.9405430073755L10.005416929263085,524.2318714693348z" style="fill:rgb(212,72,90)"></path><path d="M-50.49985541122587,384.50768396997387L3.2276091669256144,405.66293764318425" style="fill:none;stroke:rgb(212,72,90);stroke-width:5;stroke-linecap:round"></path><path d="M-202.50458846068395,-298.3413327929282L-378.24760297100556,-362.7725086975186M-202.50458846068395,-298.3413327929282L-378.24760297100556,-362.7725086975186" style="fill:none;stroke:rgb(0,0,0);stroke-width:1;stroke-linecap:round"></path><path d="M143.85969481098684,117.13344284784613L139.0262612147018,114.0005728966649L152.0541069943488,127.05456596376142zM133.5120560107826,121.82467200371791L134.94243174737764,129.78955800527717L152.0541069943488,127.05456596376142zM139.0262612147018,114.0005728966649L133.5120560107826,121.82467200371791L152.0541069943488,127.05456596376142z" style="fill:rgb(197,147,42)"></path><path d="M-59.12556464630815,535.0469555136889L-37.433000210097205,156.4597855612635L-190.7138350401247,97.65070857033486z" style="fill:rgb(0,0,0); fill-opacity: 0.2"></path><path d="M4.156188721115555,476.3139142328927L-0.7483041423232861,473.3579071919967L12.232049823560093,486.55145375846547z" style="fill:rgb(212,72,90)"></path><path d="M41.888456515972166,120.72799208514508L95.86103790407171,141.28171584303877" style="fill:none;stroke:rgb(112,56,202);stroke-width:5;stroke-linecap:round"></path><path d="M41.88845651597226,120.72799208514505L95.86103790407181,141.28171584303874" style="fill:none;stroke:rgb(81,214,102);stroke-width:5;stroke-linecap:round"></path><path d="M-6.2941776556220494,481.26104325780403L-4.812269870907495,489.0978053131778L12.232049823560093,486.55145375846547z" style="fill:rgb(212,72,90)"></path><path d="M94.2990998289919,97.11866416674026L-37.433000210097205,156.4597855612635L-190.7138350401247,97.65070857033486z" style="fill:rgb(0,0,0); fill-opacity: 0.2"></path><path d="M-0.7483041423232861,473.3579071919967L-6.2941776556220494,481.26104325780403L12.232049823560093,486.55145375846547z" style="fill:rgb(212,72,90)"></path><path d="M36.04194085647463,123.36166144426318L90.02238968258894,143.92968844157235" style="fill:none;stroke:rgb(197,147,42);stroke-width:5;stroke-linecap:round"></path><path d="M-48.332789897901726,346.6872039523426L5.452850122504909,367.7753865297595" style="fill:none;stroke:rgb(212,72,90);stroke-width:5;stroke-linecap:round"></path><path d="M127.41172697419985,124.59033110618525L122.56469762380043,121.45763618806598L135.60102984841444,134.5291146710553z" style="fill:rgb(112,56,202)"></path><path d="M127.4117269741999,124.59033110618518L122.56469762380047,121.45763618806593L135.60102984841447,134.52911467105528z" style="fill:rgb(81,214,102)"></path><path d="M117.04079977119787,129.29211834552973L118.47879678147622,137.26323621453508L135.60102984841444,134.5291146710553z" style="fill:rgb(112,56,202)"></path><path d="M117.04079977119795,129.2921183455297L118.47879678147629,137.26323621453508L135.60102984841447,134.52911467105528z" style="fill:rgb(81,214,102)"></path><path d="M122.56469762380043,121.45763618806598L117.04079977119787,129.29211834552973L135.60102984841444,134.5291146710553z" style="fill:rgb(112,56,202)"></path><path d="M122.56469762380047,121.45763618806593L117.04079977119795,129.2921183455297L135.60102984841447,134.52911467105528z" style="fill:rgb(81,214,102)"></path><path d="M6.377308478502621,438.5818436986211L1.4690759558230666,435.60419715184526L14.463080618515624,448.79661213412163zM-4.0818035340104935,443.50713354192067L-2.599240824975793,451.3654156305912L14.463080618515624,448.79661213412163zM1.4690759558230666,435.60419715184526L-4.0818035340104935,443.50713354192067L14.463080618515624,448.79661213412163z" style="fill:rgb(212,72,90)"></path><path d="M119.65870284126547,128.105259831556L114.80525854527326,124.97265029926068L127.84558619268209,138.0523730158184z" style="fill:rgb(197,147,42)"></path><path d="M-46.16144388701156,308.79201900693454L7.682496723139271,329.81282371848135" style="fill:none;stroke:rgb(212,72,90);stroke-width:5;stroke-linecap:round"></path><path d="M109.27678917695344,132.81202791808823L110.71838329012527,140.78608115887857L127.84558619268209,138.0523730158184z" style="fill:rgb(197,147,42)"></path><path d="M-63.75431177149231,-156.43266920189117L-196.584170237582,-99.50429377873782L-202.504588460684,-298.3413327929282z" style="fill:rgb(0,0,0); fill-opacity: 0.2"></path><path d="M114.80525854527326,124.97265029926068L109.27678917695344,132.81202791808823L127.84558619268209,138.0523730158184z" style="fill:rgb(197,147,42)"></path><path d="M15.542541177574313,132.5959890265268L69.55049013845513,153.21420550381637" style="fill:none;stroke:rgb(112,56,202);stroke-width:5;stroke-linecap:round"></path><path d="M15.54254117757436,132.59598902652678L69.55049013845519,153.21420550381634" style="fill:none;stroke:rgb(81,214,102);stroke-width:5;stroke-linecap:round"></path><path d="M8.602815756856744,400.77523857428605L3.6908383631645547,397.7758727364689L16.698522356681643,410.9671258824144z" style="fill:rgb(212,72,90)"></path><path d="M11.63142624210141,134.3578219139169L65.64460694869814,154.98562095260027" style="fill:none;stroke:rgb(197,147,42);stroke-width:5;stroke-linecap:round"></path><path d="M-1.8650560689330256,405.6785932232131L-0.38183873980221095,413.55846514588796L16.698522356681643,410.9671258824144zM3.6908383631645547,397.7758727364689L-1.8650560689330256,405.6785932232131L16.698522356681643,410.9671258824144z" style="fill:rgb(212,72,90)"></path><path d="M-43.985804683433955,270.8219075734952L9.916562065573222,291.7750262206542" style="fill:none;stroke:rgb(212,72,90);stroke-width:5;stroke-linecap:round"></path><path d="M101.21233259346293,136.4681483704166L96.34360916687973,133.33574941303064L109.39343054206863,146.43509285246358z" style="fill:rgb(112,56,202)"></path><path d="M101.21233259346302,136.4681483704166L96.34360916687982,133.33574941303064L109.39343054206871,146.43509285246353z" style="fill:rgb(81,214,102)"></path><path d="M90.80425601082979,141.18677773734342L92.25442060120206,149.1678094886527L109.39343054206863,146.43509285246358z" style="fill:rgb(112,56,202)"></path><path d="M90.80425601082989,141.18677773734342L92.25442060120214,149.16780948865264L109.39343054206871,146.43509285246353z" style="fill:rgb(81,214,102)"></path><path d="M96.34360916687973,133.33574941303064L90.80425601082979,141.18677773734342L109.39343054206863,146.43509285246358z" style="fill:rgb(112,56,202)"></path><path d="M96.34360916687982,133.33574941303064L90.80425601082989,141.18677773734342L109.39343054206871,146.43509285246353z" style="fill:rgb(81,214,102)"></path><path d="M-202.504588460684,-298.3413327929282L-202.504588460684,-298.3413327929282L-63.75431177149231,-156.43266920189117z" style="fill:rgb(0,0,0); fill-opacity: 0.2"></path><path d="M95.3775110025627,139.11343641100814L90.50394979026447,135.9811062365898L103.5567705243971,149.08665761466867z" style="fill:rgb(197,147,42)"></path><path d="M10.832723569460198,362.893877792075L5.916996083987296,359.8727125313938L18.93838813223368,373.06277341584956z" style="fill:rgb(212,72,90)"></path><path d="M-196.584170237582,-99.50429377873782L-202.504588460684,-298.3413327929282M-196.584170237582,-99.50429377873782L-202.504588460684,-298.3413327929282" style="fill:none;stroke:rgb(0,0,0);stroke-width:1;stroke-linecap:round"></path><path d="M84.9611518968329,143.83582076151964L86.41403097828484,151.8190583014925L103.5567705243971,149.08665761466867z" style="fill:rgb(197,147,42)"></path><path d="M0.3560777200476543,367.7752007920131L1.8399493593990983,375.6767326375364L18.93838813223368,373.06277341584956z" style="fill:rgb(212,72,90)"></path><path d="M90.50394979026447,135.9811062365898L84.9611518968329,143.83582076151964L103.5567705243971,149.08665761466867z" style="fill:rgb(197,147,42)"></path><path d="M5.916996083987296,359.8727125313938L0.3560777200476543,367.7752007920131L18.93838813223368,373.06277341584956z" style="fill:rgb(212,72,90)"></path><path d="M-41.805859541796146,232.7766472147641L12.155059298513383,253.66177016286213" style="fill:none;stroke:rgb(212,72,90);stroke-width:5;stroke-linecap:round"></path><path d="M-10.89777496911183,144.50651052967223L43.145448260468335,165.1895506014669" style="fill:none;stroke:rgb(112,56,202);stroke-width:5;stroke-linecap:round"></path><path d="M-10.897774969111735,144.50651052967214L43.14544826046843,165.18955060146683" style="fill:none;stroke:rgb(81,214,102);stroke-width:5;stroke-linecap:round"></path><path d="M-12.860086175250062,145.390469317718L41.185746205034725,166.0783243633429" style="fill:none;stroke:rgb(197,147,42);stroke-width:5;stroke-linecap:round"></path><path d="M13.06704498110897,324.9375394090686L8.147562174081123,321.89449424523025L21.182691091226488,335.0833322690013zM2.581610864789027,329.7967338611726L4.0661364987929645,337.71999600798733L21.182691091226488,335.0833322690013zM8.147562174081123,321.89449424523025L2.581610864789027,329.7967338611726L21.182691091226488,335.0833322690013z" style="fill:rgb(212,72,90)"></path><path d="M74.91903933767803,148.3885358430631L70.02849729910051,145.2564551002347L83.0918208268693,158.3837794812788z" style="fill:rgb(112,56,202)"></path><path d="M74.91903933767809,148.3885358430631L70.02849729910054,145.2564551002347L83.09182082686934,158.38377948127874z" style="fill:rgb(81,214,102)"></path><path d="M-39.621595666225105,194.6560146121303L14.398001622886383,215.47283078257684" style="fill:none;stroke:rgb(212,72,90);stroke-width:5;stroke-linecap:round"></path><path d="M64.47361340983674,153.12409799442275L65.93602367659977,161.11506354314238L83.0918208268693,158.3837794812788z" style="fill:rgb(112,56,202)"></path><path d="M64.47361340983686,153.12409799442275L65.93602367659982,161.11506354314233L83.09182082686934,158.38377948127874z" style="fill:rgb(81,214,102)"></path><path d="M70.02849729910051,145.2564551002347L64.47361340983674,153.12409799442275L83.0918208268693,158.3837794812788z" style="fill:rgb(112,56,202)"></path><path d="M70.02849729910054,145.2564551002347L64.47361340983686,153.12409799442275L83.09182082686934,158.38377948127874z" style="fill:rgb(81,214,102)"></path><path d="M71.01571997069544,150.15815362472614L66.12193489751748,147.02612193167184L79.1872598426464,160.1576015449761zM60.56474371246391,154.89623208654606L62.028974832325424,162.88867100409715L79.1872598426464,160.1576015449761zM66.12193489751748,147.02612193167184L60.56474371246391,154.89623208654606L79.1872598426464,160.1576015449761z" style="fill:rgb(197,147,42)"></path><path d="M15.305793108367912,286.90600060290524L10.382549740994804,283.840994705327L23.43144443185127,297.02857909416025zM4.811556448823642,291.7429691617148L6.296735756177762,299.68803227933375L23.43144443185127,297.02857909416025zM10.382549740994804,283.840994705327L4.811556448823642,291.7429691617148L23.43144443185127,297.02857909416025z" style="fill:rgb(212,72,90)"></path><path d="M-37.433000210097106,156.45978556126343L16.645402292098538,177.20798242373925" style="fill:none;stroke:rgb(197,147,42);stroke-width:5;stroke-linecap:round"></path><path d="M-37.433000210097205,156.4597855612635L16.645402292098442,177.20798242373934" style="fill:none;stroke:rgb(112,56,202);stroke-width:5;stroke-linecap:round"></path><path d="M-37.433000210097106,156.45978556126343L16.645402292098538,177.20798242373925" style="fill:none;stroke:rgb(81,214,102);stroke-width:5;stroke-linecap:round"></path><path d="M-37.433000210097205,156.4597855612635L16.645402292098442,177.20798242373934" style="fill:none;stroke:rgb(212,72,90);stroke-width:5;stroke-linecap:round"></path><path d="M17.548981119827396,248.7990376674207L12.621971944292808,245.71198985339942L25.684661404694324,258.8982896569548zM7.045927607615497,253.61368253845887L8.531760261241514,261.58061758894456L25.684661404694324,258.8982896569548z" style="fill:rgb(212,72,90)"></path><path d="M48.53134149894158,160.35172279301463L43.61885538930963,157.2199827528205L56.695693950736896,170.37540477237596z" style="fill:rgb(112,56,202)"></path><path d="M48.53134149894167,160.35172279301463L43.61885538930972,157.2199827528205L56.695693950736995,170.3754047723759z" style="fill:rgb(81,214,102)"></path><path d="M12.621971944292808,245.71198985339942L7.045927607615497,253.61368253845887L25.684661404694324,258.8982896569548z" style="fill:rgb(212,72,90)"></path><path d="M46.572927766033054,161.23959371511316L41.658811153259265,158.10787981323412L54.73665133733373,171.26538780130522z" style="fill:rgb(197,147,42)"></path><path d="M38.04836482258486,165.1043090374705L39.523099468904306,173.10522832161828L56.695693950736896,170.37540477237596z" style="fill:rgb(112,56,202)"></path><path d="M38.04836482258491,165.1043090374705L39.523099468904405,173.10522832161823L56.695693950736995,170.3754047723759z" style="fill:rgb(81,214,102)"></path><path d="M43.61885538930963,157.2199827528205L38.04836482258486,165.1043090374705L56.695693950736896,170.37540477237596z" style="fill:rgb(112,56,202)"></path><path d="M43.61885538930972,157.2199827528205L38.04836482258491,165.1043090374705L56.695693950736995,170.3754047723759z" style="fill:rgb(81,214,102)"></path><path d="M36.087161501006356,165.9934446538587L37.56281221199385,173.99510204550734L54.73665133733373,171.26538780130522zM41.658811153259265,158.10787981323412L36.087161501006356,165.9934446538587L54.73665133733373,171.26538780130522z" style="fill:rgb(197,147,42)"></path><path d="M19.796622236361536,210.61642600826218L14.865841995813573,207.50725474113204L27.942355312997385,220.6922388319475zM9.284737528817951,215.40864894561804L10.771223195819495,223.3975271850724L27.942355312997385,220.6922388319475zM14.865841995813573,207.50725474113204L9.284737528817951,215.40864894561804L27.942355312997385,220.6922388319475z" style="fill:rgb(212,72,90)"></path><path d="M-202.504588460684,-298.3413327929282L-202.504588460684,-298.3413327929282" style="fill:none;stroke:rgb(0,0,0);stroke-width:1;stroke-linecap:round"></path><path d="M22.048729731387994,172.35794013847598L17.114173159929415,169.22656352575538L30.20453951291947,182.4102005982035z" style="fill:rgb(197,147,42)"></path><path d="M22.048729731387898,172.35794013847598L17.11417315992932,169.22656352575538L30.204539512919375,182.41020059820357z" style="fill:rgb(112,56,202)"></path><path d="M22.048729731387994,172.35794013847598L17.114173159929415,169.22656352575538L30.20453951291947,182.4102005982035z" style="fill:rgb(81,214,102)"></path><path d="M22.048729731387898,172.35794013847598L17.11417315992932,169.22656352575538L30.204539512919375,182.41020059820357z" style="fill:rgb(212,72,90)"></path><path d="M11.527999452533173,177.1276424423728L13.01513779415338,185.13853542243476L30.204539512919375,182.41020059820357z" style="fill:rgb(112,56,202)"></path><path d="M11.527999452533173,177.1276424423728L13.01513779415338,185.13853542243476L30.204539512919375,182.41020059820357z" style="fill:rgb(212,72,90)"></path><path d="M11.527999452533269,177.1276424423728L13.015137794153475,185.13853542243464L30.20453951291947,182.4102005982035z" style="fill:rgb(197,147,42)"></path><path d="M11.527999452533269,177.1276424423728L13.015137794153475,185.13853542243464L30.20453951291947,182.4102005982035z" style="fill:rgb(81,214,102)"></path><path d="M17.114173159929415,169.22656352575538L11.527999452533269,177.1276424423728L30.20453951291947,182.4102005982035z" style="fill:rgb(197,147,42)"></path><path d="M17.11417315992932,169.22656352575538L11.527999452533173,177.1276424423728L30.204539512919375,182.41020059820357z" style="fill:rgb(112,56,202)"></path><path d="M17.114173159929415,169.22656352575538L11.527999452533269,177.1276424423728L30.20453951291947,182.4102005982035z" style="fill:rgb(81,214,102)"></path><path d="M17.11417315992932,169.22656352575538L11.527999452533173,177.1276424423728L30.204539512919375,182.41020059820357z" style="fill:rgb(212,72,90)"></path></svg>