<svg viewBox="-1163.5 -664 2327 1328" width="2327" height="1328" style="background-color: rgb(255, 255, 255);">
    <path d="M-297.2013799260995,139.6488411700963L-290.632093497889,-615.4913582022722" style="fill:none;stroke:rgb(0,0,0);stroke-width:1;stroke-linecap:round">
    </path>
    <path d="M-136.52615664146657,202.15135842642118L-297.2013799260995,139.6488411700963" style="fill:none;stroke:rgb(160,0,0);stroke-width:4;stroke-linecap:round">
    </path>
    <path d="M-136.52615664146657,202.15135842642118L-115.9638937385186,-574.9561332648669" style="fill:none;stroke:rgb(0,0,0);stroke-width:1;stroke-linecap:round">
    </path>
    <path d="M-366.82137683033704,311.06153830805295L-136.52615664146657,202.15135842642118" style="fill:none;stroke:rgb(160,0,0);stroke-width:4;stroke-linecap:round">
    </path>
    <path d="M-136.52615664146657,202.15135842642118L-366.82137683033704,311.06153830805295" style="fill:none;stroke:rgb(160,0,0);stroke-width:4;stroke-linecap:round">
    </path>
    <path d="M-136.52615664146657,202.15135842642118L-133.32732169377854,81.25811752850923" style="fill:none;stroke:rgb(0,0,0);stroke-width:1;stroke-linecap:round">
    </path>
    <path d="M35.22670002913391,268.9630651004521L-136.52615664146657,202.15135842642118" style="fill:none;stroke:rgb(160,0,0);stroke-width:4;stroke-linecap:round">
    </path>
    <path d="M-133.32732169377854,81.25811752850923L-366.310247747002,-152.37027857862705" style="fill:none;stroke:rgb(0,0,0);stroke-width:1;stroke-linecap:round">
    </path>
    <path d="M-133.32732169377854,81.25811752850923L-366.310247747002,-152.37027857862705" style="fill:none;stroke:rgb(0,0,0);stroke-width:1;stroke-linecap:round">
    </path>
    <path d="M-133.32732169377854,81.25811752850923L-124.94462377155968,-235.54832477251492" style="fill:none;stroke:rgb(0,0,0);stroke-width:1;stroke-linecap:round">
    </path>
    <path d="M-133.32732169377854,81.25811752850923L-124.94462377155968,-235.54832477251492" style="fill:none;stroke:rgb(0,0,0);stroke-width:1;stroke-linecap:round">
    </path>
    <path d="M40.90468961574872,144.7658373345971L-133.32732169377854,81.25811752850923" style="fill:none;stroke:rgb(0,0,0);stroke-width:1;stroke-linecap:round">
    </path>
    <path d="M-133.32732169377854,81.25811752850923L-366.6805382624492,183.3656674762152" style="fill:none;stroke:rgb(0,0,0);stroke-width:1;stroke-linecap:round">
    </path>
    <path d="M40.90468961574872,144.7658373345971L-133.32732169377854,81.25811752850923" style="fill:none;stroke:rgb(0,0,0);stroke-width:1;stroke-linecap:round">
    </path>
    <path d="M-366.6805382624492,183.3656674762152L-133.32732169377854,81.25811752850923" style="fill:none;stroke:rgb(0,0,0);stroke-width:1;stroke-linecap:round">
    </path>
    <path d="M40.90468961574872,144.7658373345971L-133.32732169377854,81.25811752850923" style="fill:none;stroke:rgb(0,0,0);stroke-width:1;stroke-linecap:round">
    </path>
    <path d="M-133.32732169377854,81.25811752850923L-733.0720554881638,343.6863208430441" style="fill:none;stroke:rgb(0,0,0);stroke-width:1;stroke-linecap:round">
    </path>
    <path d="M40.90468961574872,144.7658373345971L-133.32732169377854,81.25811752850923" style="fill:none;stroke:rgb(0,0,0);stroke-width:1;stroke-linecap:round">
    </path>
    <path d="M-115.9638937385186,-574.9561332648669L-136.52615664146657,202.15135842642118L-297.2013799260995,139.6488411700963z" style="fill:rgb(0,0,0); fill-opacity: 0.2">
    </path>
    <path d="M-133.32732169377854,81.25811752850923L-136.52615664146657,202.15135842642118L40.90468961574872,144.7658373345971z" style="fill:rgb(0,0,0); fill-opacity: 0.2">
    </path>
    <path d="M-133.32732169377854,81.25811752850923L-136.52615664146657,202.15135842642118L-366.82137683033704,311.06153830805295z" style="fill:rgb(0,0,0); fill-opacity: 0.2">
    </path>
    <path d="M40.90468961574872,144.7658373345971L35.22670002913391,268.9630651004521L-136.52615664146657,202.15135842642118z" style="fill:rgb(0,0,0); fill-opacity: 0.2">
    </path>
    <path d="M-290.632093497889,-615.4913582022722L-297.2013799260995,139.6488411700963L-115.9638937385186,-574.9561332648669z" style="fill:rgb(0,0,0); fill-opacity: 0.2">
    </path>
    <path d="M40.90468961574872,144.7658373345971L35.22670002913391,268.9630651004521" style="fill:none;stroke:rgb(104,70,1);stroke-width:5;stroke-linecap:round">
    </path>
    <path d="M35.22670002913391,268.9630651004521L125.62152239872344,304.1265696504288" style="fill:none;stroke:rgb(197,147,42);stroke-width:5;stroke-linecap:round">
    </path>
    <path d="M38.04626302876398,207.28949160698483L129.12052391880061,241.60873963719294" style="fill:none;stroke:rgb(197,147,42);stroke-width:5;stroke-linecap:round">
    </path>
    <path d="M-115.9638937385186,-574.9561332648669L-290.632093497889,-615.4913582022722" style="fill:none;stroke:rgb(0,0,0);stroke-width:1;stroke-linecap:round">
    </path>
    <path d="M-290.632093497889,-615.4913582022722L-943.5488463942637,-471.220150250516" style="fill:none;stroke:rgb(0,0,0);stroke-width:1;stroke-linecap:round">
    </path>
    <path d="M-115.9638937385186,-574.9561332648669L-290.632093497889,-615.4913582022722" style="fill:none;stroke:rgb(0,0,0);stroke-width:1;stroke-linecap:round">
    </path>
    <path d="M-124.94462377155968,-235.54832477251492L-115.9638937385186,-574.9561332648669" style="fill:none;stroke:rgb(0,0,0);stroke-width:1;stroke-linecap:round">
    </path>
    <path d="M-124.94462377155968,-235.54832477251492L-115.9638937385186,-574.9561332648669" style="fill:none;stroke:rgb(0,0,0);stroke-width:1;stroke-linecap:round">
    </path>
    <path d="M-133.32732169377854,81.25811752850923L-366.6805382624492,183.3656674762152L40.90468961574872,144.7658373345971z" style="fill:rgb(0,0,0); fill-opacity: 0.2">
    </path>
    <path d="M40.90468961574872,144.7658373345971L132.66861181860685,178.21386686582758" style="fill:none;stroke:rgb(197,147,42);stroke-width:5;stroke-linecap:round">
    </path>
    <path d="M-188.6984245944854,255.25009199011524L40.90468961574872,144.7658373345971" style="fill:none;stroke:rgb(45,114,23);stroke-width:5;stroke-linecap:round">
    </path>
    <path d="M40.90468961574872,144.7658373345971L132.66861181860685,178.21386686582758" style="fill:none;stroke:rgb(109,213,75);stroke-width:5;stroke-linecap:round">
    </path>
    <path d="M40.90468961574872,144.7658373345971L-188.6984245944854,255.25009199011524" style="fill:none;stroke:rgb(1,93,85);stroke-width:5;stroke-linecap:round">
    </path>
    <path d="M40.90468961574879,144.76583733459708L132.66861181860693,178.21386686582758" style="fill:none;stroke:rgb(43,180,168);stroke-width:5;stroke-linecap:round">
    </path>
    <path d="M-551.4531654524792,429.8064663856009L40.90468961574872,144.7658373345971" style="fill:none;stroke:rgb(22,31,115);stroke-width:5;stroke-linecap:round">
    </path>
    <path d="M40.90468961574872,144.7658373345971L132.66861181860685,178.21386686582758" style="fill:none;stroke:rgb(74,87,214);stroke-width:5;stroke-linecap:round">
    </path>
    <path d="M134.12241609825273,295.6239887835976L126.34648336710818,291.1734496452938L148.71783998592346,313.1110164060698z" style="fill:rgb(197,147,42)">
    </path>
    <path d="M117.52405362997213,304.6556964659398L119.90590418841803,317.3933722967013L148.71783998592346,313.1110164060698z" style="fill:rgb(197,147,42)">
    </path>
    <path d="M126.34648336710818,291.1734496452938L117.52405362997213,304.6556964659398L148.71783998592346,313.1110164060698z" style="fill:rgb(197,147,42)">
    </path>
    <path d="M137.67271122484544,233.1862067376023L129.85562685663447,228.47440967305045L152.39394900564562,250.37879651453932z" style="fill:rgb(197,147,42)">
    </path>
    <path d="M-124.94462377155968,-235.54832477251492L-366.310247747002,-152.37027857862705L-133.32732169377854,81.25811752850923z" style="fill:rgb(0,0,0); fill-opacity: 0.2">
    </path>
    <path d="M-188.6984245944854,255.25009199011524L40.90468961574872,144.7658373345971L-133.32732169377854,81.25811752850923z" style="fill:rgb(0,0,0); fill-opacity: 0.2">
    </path>
    <path d="M-1.3030357889403972,165.07605437186234L90.93121039979555,199.33884703068568" style="fill:none;stroke:rgb(74,87,214);stroke-width:5;stroke-linecap:round">
    </path>
    <path d="M120.97745265734721,241.94542969763003L123.36676083148787,254.93786591751171L152.39394900564562,250.37879651453932z" style="fill:rgb(197,147,42)">
    </path>
    <path d="M-2.5253224663217924,165.66421465440195L89.72225222495926,199.95074946340523" style="fill:none;stroke:rgb(109,213,75);stroke-width:5;stroke-linecap:round">
    </path>
    <path d="M-2.5253224663217924,165.6642146544019L89.72225222495926,199.95074946340515" style="fill:none;stroke:rgb(43,180,168);stroke-width:5;stroke-linecap:round">
    </path>
    <path d="M129.85562685663447,228.47440967305045L120.97745265734721,241.94542969763003L152.39394900564562,250.37879651453932z" style="fill:rgb(197,147,42)">
    </path>
    <path d="M-366.310247747002,-152.37027857862705L-366.82137683033704,311.06153830805295L-136.52615664146657,202.15135842642118z" style="fill:rgb(0,0,0); fill-opacity: 0.2">
    </path>
    <path d="M-366.82137683033704,311.06153830805295L-366.310247747002,-152.37027857862705" style="fill:none;stroke:rgb(0,0,0);stroke-width:1;stroke-linecap:round">
    </path>
    <path d="M-366.310247747002,-152.37027857862705L-366.82137683033704,311.06153830805295L-133.32732169377854,81.25811752850923z" style="fill:rgb(0,0,0); fill-opacity: 0.2">
    </path>
    <path d="M141.27270068808573,169.8744680063511L133.41407104850825,164.89449756879912L156.12185930350046,186.76259599211537z" style="fill:rgb(197,147,42)">
    </path>
    <path d="M141.27270068808573,169.8744680063511L133.41407104850825,164.89449756879912L156.12185930350046,186.76259599211537z" style="fill:rgb(109,213,75)">
    </path>
    <path d="M141.2727006880858,169.8744680063511L133.41407104850833,164.8944975687991L156.12185930350051,186.76259599211537z" style="fill:rgb(43,180,168)">
    </path>
    <path d="M141.27270068808573,169.8744680063511L133.41407104850825,164.89449756879912L156.12185930350046,186.76259599211537z" style="fill:rgb(74,87,214)">
    </path>
    <path d="M-115.9638937385186,-574.9561332648669L-136.52615664146657,202.15135842642118L-366.310247747002,-152.37027857862705z" style="fill:rgb(0,0,0); fill-opacity: 0.2">
    </path>
    <path d="M124.47945138017137,178.35264114648854L126.87619229551865,191.60576586419003L156.12185930350051,186.76259599211537z" style="fill:rgb(43,180,168)">
    </path>
    <path d="M124.47945138017137,178.3526411464886L126.87619229551865,191.60576586419003L156.12185930350046,186.76259599211537z" style="fill:rgb(197,147,42)">
    </path>
    <path d="M124.47945138017137,178.3526411464886L126.87619229551865,191.60576586419003L156.12185930350046,186.76259599211537z" style="fill:rgb(109,213,75)">
    </path>
    <path d="M124.47945138017137,178.3526411464886L126.87619229551865,191.60576586419003L156.12185930350046,186.76259599211537z" style="fill:rgb(74,87,214)">
    </path>
    <path d="M133.41407104850833,164.8944975687991L124.47945138017137,178.35264114648854L156.12185930350051,186.76259599211537z" style="fill:rgb(43,180,168)">
    </path>
    <path d="M133.41407104850825,164.89449756879912L124.47945138017137,178.3526411464886L156.12185930350046,186.76259599211537z" style="fill:rgb(197,147,42)">
    </path>
    <path d="M133.41407104850825,164.89449756879912L124.47945138017137,178.3526411464886L156.12185930350046,186.76259599211537z" style="fill:rgb(109,213,75)">
    </path>
    <path d="M133.41407104850825,164.89449756879912L124.47945138017137,178.3526411464886L156.12185930350046,186.76259599211537z" style="fill:rgb(74,87,214)">
    </path>
    <path d="M-115.9638937385186,-574.9561332648669L-115.9638937385186,-574.9561332648669L-124.94462377155968,-235.54832477251492z" style="fill:rgb(0,0,0); fill-opacity: 0.2">
    </path>
    <path d="M-366.6805382624492,183.3656674762152L-133.32732169377854,81.25811752850923L-366.310247747002,-152.37027857862705z" style="fill:rgb(0,0,0); fill-opacity: 0.2">
    </path>
    <path d="M-133.32732169377854,81.25811752850923L-366.6805382624492,183.3656674762152L-366.310247747002,-152.37027857862705z" style="fill:rgb(0,0,0); fill-opacity: 0.2">
    </path>
    <path d="M-366.6805382624492,183.3656674762152L-133.32732169377854,81.25811752850923L-188.6984245944854,255.25009199011524z" style="fill:rgb(0,0,0); fill-opacity: 0.2">
    </path>
    <path d="M-44.63801858719471,185.92870391646258L48.05874938075775,221.0383265827987" style="fill:none;stroke:rgb(74,87,214);stroke-width:5;stroke-linecap:round">
    </path>
    <path d="M-47.14928711441697,187.1371179766306L45.57365130139255,222.29613482791513" style="fill:none;stroke:rgb(109,213,75);stroke-width:5;stroke-linecap:round">
    </path>
    <path d="M-47.14928711441694,187.1371179766306L45.57365130139259,222.29613482791513" style="fill:none;stroke:rgb(43,180,168);stroke-width:5;stroke-linecap:round">
    </path>
    <path d="M99.74525643477882,190.83984855846475L91.6247833262912,185.87186141660177L114.51160309628324,208.09839285187832z" style="fill:rgb(74,87,214)">
    </path>
    <path d="M-366.6805382624492,183.3656674762152L-366.310247747002,-152.37027857862705" style="fill:none;stroke:rgb(0,0,0);stroke-width:1;stroke-linecap:round">
    </path>
    <path d="M-366.6805382624492,183.3656674762152L-366.310247747002,-152.37027857862705" style="fill:none;stroke:rgb(0,0,0);stroke-width:1;stroke-linecap:round">
    </path>
    <path d="M-188.6984245944854,255.25009199011524L-366.6805382624492,183.3656674762152" style="fill:none;stroke:rgb(0,0,0);stroke-width:1;stroke-linecap:round">
    </path>
    <path d="M-188.6984245944854,255.25009199011524L-366.6805382624492,183.3656674762152" style="fill:none;stroke:rgb(0,0,0);stroke-width:1;stroke-linecap:round">
    </path>
    <path d="M98.54241705421695,191.4471092702659L90.41429776859819,186.47950029633162L113.30625348075662,208.71643986446568z" style="fill:rgb(109,213,75)">
    </path>
    <path d="M98.54241705421701,191.4471092702659L90.41429776859819,186.47950029633162L113.3062534807567,208.71643986446568z" style="fill:rgb(43,180,168)">
    </path>
    <path d="M82.49820228492989,199.54712780851628L85.04051763091655,212.9208798963597L114.51160309628324,208.09839285187832z" style="fill:rgb(74,87,214)">
    </path>
    <path d="M-733.0720554881638,343.6863208430441L-133.32732169377854,81.25811752850923L-124.94462377155968,-235.54832477251492z" style="fill:rgb(0,0,0); fill-opacity: 0.2">
    </path>
    <path d="M91.6247833262912,185.87186141660177L82.49820228492989,199.54712780851628L114.51160309628324,208.09839285187832z" style="fill:rgb(74,87,214)">
    </path>
    <path d="M81.28212782768617,200.16107032855922L83.82870477216845,213.5382938493304L113.30625348075662,208.71643986446568z" style="fill:rgb(109,213,75)">
    </path>
    <path d="M81.28212782768617,200.16107032855922L83.82870477216845,213.5382938493304L113.3062534807567,208.71643986446568z" style="fill:rgb(43,180,168)">
    </path>
    <path d="M40.90468961574872,144.7658373345971L-188.6984245944854,255.25009199011524L-366.6805382624492,183.3656674762152z" style="fill:rgb(0,0,0); fill-opacity: 0.2">
    </path>
    <path d="M90.41429776859819,186.47950029633162L81.28212782768617,200.16107032855922L113.3062534807567,208.71643986446568z" style="fill:rgb(43,180,168)">
    </path>
    <path d="M90.41429776859819,186.47950029633162L81.28212782768617,200.16107032855922L113.30625348075662,208.71643986446568z" style="fill:rgb(109,213,75)">
    </path>
    <path d="M-366.310247747002,-152.37027857862705L-115.9638937385186,-574.9561332648669" style="fill:none;stroke:rgb(0,0,0);stroke-width:1;stroke-linecap:round">
    </path>
    <path d="M-115.9638937385186,-574.9561332648669L-115.9638937385186,-574.9561332648669" style="fill:none;stroke:rgb(0,0,0);stroke-width:1;stroke-linecap:round">
    </path>
    <path d="M-366.310247747002,-152.37027857862705L-115.9638937385186,-574.9561332648669" style="fill:none;stroke:rgb(0,0,0);stroke-width:1;stroke-linecap:round">
    </path>
    <path d="M-115.9638937385186,-574.9561332648669L-763.3941271235052,-416.64899245823125" style="fill:none;stroke:rgb(0,0,0);stroke-width:1;stroke-linecap:round">
    </path>
    <path d="M-124.94462377155968,-235.54832477251492L-366.310247747002,-152.37027857862705L-115.9638937385186,-574.9561332648669z" style="fill:rgb(0,0,0); fill-opacity: 0.2">
    </path>
    <path d="M-89.14602910416734,207.34581049658092L4.0042881136817225,243.33606407493303" style="fill:none;stroke:rgb(74,87,214);stroke-width:5;stroke-linecap:round">
    </path>
    <path d="M-93.01712570475935,209.20856930143026L0.17160904578366723,245.2759373429205" style="fill:none;stroke:rgb(109,213,75);stroke-width:5;stroke-linecap:round">
    </path>
    <path d="M-93.01712570475935,209.2085693014302L0.17160904578366723,245.27593734292046" style="fill:none;stroke:rgb(43,180,168);stroke-width:5;stroke-linecap:round">
    </path>
    <path d="M-450.7214860604683,350.73920066182745L-727.5694875191193,481.6649125111828" style="fill:none;stroke:rgb(160,0,0);stroke-width:4;stroke-linecap:round">
    </path>
    <path d="M-454.6393469335423,-121.9308076573243L-450.7214860604683,350.73920066182745" style="fill:none;stroke:rgb(0,0,0);stroke-width:1;stroke-linecap:round">
    </path>
    <path d="M-727.5694875191193,481.6649125111828L-450.7214860604683,350.73920066182745" style="fill:none;stroke:rgb(160,0,0);stroke-width:4;stroke-linecap:round">
    </path>
    <path d="M57.09106218765901,212.37407563682453L48.69731646467381,207.42056780773498L71.76455328653938,230.01708440121473z" style="fill:rgb(74,87,214)">
    </path>
    <path d="M54.61869670017462,213.62226425620707L46.208976885938924,208.66966315166584L69.28656330850187,231.28768198005795z" style="fill:rgb(109,213,75)">
    </path>
    <path d="M54.61869670017462,213.62226425620707L46.20897688593899,208.6696631516658L69.28656330850187,231.28768198005795z" style="fill:rgb(43,180,168)">
    </path>
    <path d="M39.37155670560102,221.31987478980332L42.06654359491752,234.81595304472847L71.76455328653938,230.01708440121473z" style="fill:rgb(74,87,214)">
    </path>
    <path d="M48.69731646467381,207.42056780773498L39.37155670560102,221.31987478980332L71.76455328653938,230.01708440121473z" style="fill:rgb(74,87,214)">
    </path>
    <path d="M36.87160969230532,222.58198810874887L39.575543697874494,236.08510783391895L69.28656330850187,231.28768198005795z" style="fill:rgb(109,213,75)">
    </path>
    <path d="M36.87160969230532,222.58198810874887L39.575543697874494,236.08510783391895L69.28656330850187,231.28768198005795z" style="fill:rgb(43,180,168)">
    </path>
    <path d="M46.208976885938924,208.66966315166584L36.87160969230532,222.58198810874887L69.28656330850187,231.28768198005795z" style="fill:rgb(109,213,75)">
    </path>
    <path d="M46.20897688593899,208.6696631516658L36.87160969230532,222.58198810874887L69.28656330850187,231.28768198005795z" style="fill:rgb(43,180,168)">
    </path>
    <path d="M-551.4531654524792,429.8064663856009L40.90468961574872,144.7658373345971L-133.32732169377854,81.25811752850923z" style="fill:rgb(0,0,0); fill-opacity: 0.2">
    </path>
    <path d="M-134.87534956129332,229.35060735653443L-41.28173854973098,266.25714642527447" style="fill:none;stroke:rgb(74,87,214);stroke-width:5;stroke-linecap:round">
    </path>
    <path d="M-140.18158202437024,231.9039487636339L-46.5380236904189,268.91756407379205" style="fill:none;stroke:rgb(109,213,75);stroke-width:5;stroke-linecap:round">
    </path>
    <path d="M-140.18158202437021,231.9039487636339L-46.53802369041887,268.91756407379205" style="fill:none;stroke:rgb(43,180,168);stroke-width:5;stroke-linecap:round">
    </path>
    <path d="M-451.80008986673243,220.61113164749236L-454.6393469335423,-121.9308076573243" style="fill:none;stroke:rgb(0,0,0);stroke-width:1;stroke-linecap:round">
    </path>
    <path d="M-451.80008986673243,220.61113164749236L-454.6393469335423,-121.9308076573243" style="fill:none;stroke:rgb(0,0,0);stroke-width:1;stroke-linecap:round">
    </path>
    <path d="M-733.0720554881638,343.6863208430441L-451.80008986673243,220.61113164749236" style="fill:none;stroke:rgb(0,0,0);stroke-width:1;stroke-linecap:round">
    </path>
    <path d="M-272.7269839983567,295.68435520752524L-451.80008986673243,220.61113164749236" style="fill:none;stroke:rgb(0,0,0);stroke-width:1;stroke-linecap:round">
    </path>
    <path d="M-451.80008986673243,220.61113164749236L-733.0720554881638,343.6863208430441" style="fill:none;stroke:rgb(0,0,0);stroke-width:1;stroke-linecap:round">
    </path>
    <path d="M-272.7269839983567,295.68435520752524L-451.80008986673243,220.61113164749236" style="fill:none;stroke:rgb(0,0,0);stroke-width:1;stroke-linecap:round">
    </path>
    <path d="M-366.310247747002,-152.37027857862705L-366.310247747002,-152.37027857862705L-366.6805382624492,183.3656674762152z" style="fill:rgb(0,0,0); fill-opacity: 0.2">
    </path>
    <path d="M13.263629686223803,234.50061911996914L4.584529068972239,229.56428075377846L27.833478838195752,252.54288851050075z" style="fill:rgb(74,87,214)">
    </path>
    <path d="M9.450833335292169,236.4255323406672L0.7466892538796432,231.4907974899797L24.011271490086223,254.50273800359315z" style="fill:rgb(109,213,75)">
    </path>
    <path d="M9.450833335292238,236.4255323406672L0.7466892538796432,231.4907974899797L24.011271490086223,254.50273800359307z" style="fill:rgb(43,180,168)">
    </path>
    <path d="M-4.948009350278061,243.69487486441184L-2.0928282340047795,257.3149817724492L27.833478838195752,252.54288851050075z" style="fill:rgb(74,87,214)">
    </path>
    <path d="M4.584529068972239,229.56428075377846L-4.948009350278061,243.69487486441184L27.833478838195752,252.54288851050075z" style="fill:rgb(74,87,214)">
    </path>
    <path d="M-8.803939701176489,245.64156454499798L-5.934663079772182,259.27238173042286L24.011271490086223,254.50273800359307z" style="fill:rgb(43,180,168)">
    </path>
    <path d="M-8.803939701176489,245.64156454499798L-5.934663079772249,259.27238173042286L24.011271490086223,254.50273800359315z" style="fill:rgb(109,213,75)">
    </path>
    <path d="M0.7466892538796432,231.4907974899797L-8.803939701176489,245.64156454499798L24.011271490086223,254.50273800359315z" style="fill:rgb(109,213,75)">
    </path>
    <path d="M0.7466892538796432,231.4907974899797L-8.803939701176489,245.64156454499798L24.011271490086223,254.50273800359307z" style="fill:rgb(43,180,168)">
    </path>
    <path d="M-181.876948790909,251.9676205288672L-87.8517062816495,289.82808307135565" style="fill:none;stroke:rgb(74,87,214);stroke-width:5;stroke-linecap:round">
    </path>
    <path d="M-188.6984245944854,255.25009199011524L-94.6125606450367,293.2500238120093" style="fill:none;stroke:rgb(43,180,168);stroke-width:5;stroke-linecap:round">
    </path>
    <path d="M-188.69842459448546,255.25009199011532L-94.61256064503674,293.25002381200943" style="fill:none;stroke:rgb(109,213,75);stroke-width:5;stroke-linecap:round">
    </path>
    <path d="M-747.6143981847921,-20.96741467178249L-124.94462377155968,-235.54832477251492L-115.9638937385186,-574.9561332648669z" style="fill:rgb(0,0,0); fill-opacity: 0.2">
    </path>
    <path d="M-31.78612238681673,257.2442580067868L-40.76336005322473,252.327989390535L-17.331504477119967,275.70138348326213z" style="fill:rgb(74,87,214)">
    </path>
    <path d="M-50.5106858566738,266.6974667432358L-47.48733094869067,280.443304897494L-17.331504477119967,275.70138348326213z" style="fill:rgb(74,87,214)">
    </path>
    <path d="M-37.01479311746832,259.8839839427521L-46.02695062797795,254.97020371508697L-22.57412071322311,278.3895523440872z" style="fill:rgb(109,213,75)">
    </path>
    <path d="M-37.01479311746832,259.8839839427521L-46.026950627977925,254.97020371508694L-22.57412071322311,278.3895523440872z" style="fill:rgb(43,180,168)">
    </path>
    <path d="M-943.5488463942637,-471.220150250516L-893.0120218192554,398.1152591902366" style="fill:none;stroke:rgb(0,0,0);stroke-width:1;stroke-linecap:round">
    </path>
    <path d="M-727.5694875191193,481.6649125111828L-893.0120218192554,398.1152591902366" style="fill:none;stroke:rgb(160,0,0);stroke-width:4;stroke-linecap:round">
    </path>
    <path d="M-40.76336005322473,252.327989390535L-50.5106858566738,266.6974667432358L-17.331504477119967,275.70138348326213z" style="fill:rgb(74,87,214)">
    </path>
    <path d="M-55.79935282542889,269.3674821416554L-52.75624829445259,283.1277978559885L-22.57412071322311,278.3895523440872z" style="fill:rgb(109,213,75)">
    </path>
    <path d="M-55.79935282542885,269.36748214165533L-52.75624829445256,283.1277978559885L-22.57412071322311,278.3895523440872z" style="fill:rgb(43,180,168)">
    </path>
    <path d="M-46.02695062797795,254.97020371508697L-55.79935282542889,269.3674821416554L-22.57412071322311,278.3895523440872z" style="fill:rgb(109,213,75)">
    </path>
    <path d="M-46.026950627977925,254.97020371508694L-55.79935282542885,269.36748214165533L-22.57412071322311,278.3895523440872z" style="fill:rgb(43,180,168)">
    </path>
    <path d="M-230.20467173929518,275.22276002258417L-135.76100335131926,314.07690824744617" style="fill:none;stroke:rgb(74,87,214);stroke-width:5;stroke-linecap:round">
    </path>
    <path d="M-450.7214860604683,350.73920066182745L-454.6393469335423,-121.9308076573243L-727.5694875191193,481.6649125111828z" style="fill:rgb(0,0,0); fill-opacity: 0.2">
    </path>
    <path d="M-763.3941271235052,-416.64899245823125L-115.9638937385186,-574.9561332648669L-290.632093497889,-615.4913582022722z" style="fill:rgb(0,0,0); fill-opacity: 0.2">
    </path>
    <path d="M-78.11005175916263,280.6311729836969L-87.39895929296438,275.73810204943595L-63.783123036792496,299.5196049443562z" style="fill:rgb(74,87,214)">
    </path>
    <path d="M-97.36951837205017,290.35443079621587L-94.16951915464176,304.2276987875959L-63.783123036792496,299.5196049443562z" style="fill:rgb(74,87,214)">
    </path>
    <path d="M-87.39895929296438,275.73810204943595L-97.36951837205017,290.35443079621587L-63.783123036792496,299.5196049443562z" style="fill:rgb(74,87,214)">
    </path>
    <path d="M-84.83492886938703,284.0262677292838L-94.16951165399595,279.136780229166L-70.52731232845805,302.97771036899445z" style="fill:rgb(109,213,75)">
    </path>
    <path d="M-84.83492886938699,284.0262677292838L-94.16951165399591,279.136780229166L-70.52731232845802,302.9777103689944z" style="fill:rgb(43,180,168)">
    </path>
    <path d="M-104.172677543509,293.7890467122887L-100.9467216519454,307.6806571827275L-70.52731232845805,302.97771036899445z" style="fill:rgb(109,213,75)">
    </path>
    <path d="M-104.17267754350897,293.7890467122887L-100.94672165194535,307.68065718272743L-70.52731232845802,302.9777103689944z" style="fill:rgb(43,180,168)">
    </path>
    <path d="M-94.16951165399595,279.136780229166L-104.172677543509,293.7890467122887L-70.52731232845805,302.97771036899445z" style="fill:rgb(109,213,75)">
    </path>
    <path d="M-94.16951165399591,279.136780229166L-104.17267754350897,293.7890467122887L-70.52731232845802,302.9777103689944z" style="fill:rgb(43,180,168)">
    </path>
    <path d="M-733.0720554881638,343.6863208430441L-133.32732169377854,81.25811752850923L-551.4531654524792,429.8064663856009z" style="fill:rgb(0,0,0); fill-opacity: 0.2">
    </path>
    <path d="M-454.6393469335423,-121.9308076573243L-763.3941271235052,-416.64899245823125" style="fill:none;stroke:rgb(0,0,0);stroke-width:1;stroke-linecap:round">
    </path>
    <path d="M-454.6393469335423,-121.9308076573243L-763.3941271235052,-416.64899245823125" style="fill:none;stroke:rgb(0,0,0);stroke-width:1;stroke-linecap:round">
    </path>
    <path d="M-733.0720554881638,343.6863208430441L-454.6393469335423,-121.9308076573243" style="fill:none;stroke:rgb(0,0,0);stroke-width:1;stroke-linecap:round">
    </path>
    <path d="M-733.0720554881638,343.6863208430441L-454.6393469335423,-121.9308076573243" style="fill:none;stroke:rgb(0,0,0);stroke-width:1;stroke-linecap:round">
    </path>
    <path d="M-733.0720554881638,343.6863208430441L-451.80008986673243,220.61113164749236L-454.6393469335423,-121.9308076573243z" style="fill:rgb(0,0,0); fill-opacity: 0.2">
    </path>
    <path d="M-451.80008986673243,220.61113164749236L-733.0720554881638,343.6863208430441L-272.7269839983567,295.68435520752524z" style="fill:rgb(0,0,0); fill-opacity: 0.2">
    </path>
    <path d="M-272.7269839983567,295.68435520752524L-551.4531654524792,429.8064663856009" style="fill:none;stroke:rgb(84,0,79);stroke-width:5;stroke-linecap:round">
    </path>
    <path d="M-272.7269839983569,295.68435520752536L-177.93645498627473,335.4236032726618" style="fill:none;stroke:rgb(167,41,160);stroke-width:5;stroke-linecap:round">
    </path>
    <path d="M-551.4531654524792,429.8064663856009L-272.7269839983567,295.68435520752524" style="fill:none;stroke:rgb(115,35,18);stroke-width:5;stroke-linecap:round">
    </path>
    <path d="M-272.7269839983567,295.68435520752524L-177.9364549862746,335.4236032726617" style="fill:none;stroke:rgb(214,94,68);stroke-width:5;stroke-linecap:round">
    </path>
    <path d="M-279.9154452394062,299.1434188403043L-185.0682503872086,339.0332922150273" style="fill:none;stroke:rgb(74,87,214);stroke-width:5;stroke-linecap:round">
    </path>
    <path d="M-125.76299170351994,304.68904695895134L-135.37790783521828,299.82254845819295L-111.57715070595863,324.0261511280912z" style="fill:rgb(74,87,214)">
    </path>
    <path d="M-747.6143981847921,-20.96741467178249L-124.94462377155968,-235.54832477251492L-733.0720554881638,343.6863208430441z" style="fill:rgb(0,0,0); fill-opacity: 0.2">
    </path>
    <path d="M-145.5806140571852,314.6940930616761L-142.1949719402635,328.6964807728008L-111.57715070595863,324.0261511280912z" style="fill:rgb(74,87,214)">
    </path>
    <path d="M-135.37790783521828,299.82254845819295L-145.5806140571852,314.6940930616761L-111.57715070595863,324.0261511280912z" style="fill:rgb(74,87,214)">
    </path>
    <path d="M-454.6393469335423,-121.9308076573243L-454.6393469335423,-121.9308076573243L-733.0720554881638,343.6863208430441z" style="fill:rgb(0,0,0); fill-opacity: 0.2">
    </path>
    <path d="M-454.6393469335423,-121.9308076573243L-747.6143981847921,-20.96741467178249L-451.80008986673243,220.61113164749236z" style="fill:rgb(0,0,0); fill-opacity: 0.2">
    </path>
    <path d="M-551.4531654524792,429.8064663856009L-272.7269839983567,295.68435520752524L-451.80008986673243,220.61113164749236z" style="fill:rgb(0,0,0); fill-opacity: 0.2">
    </path>
    <path d="M-325.1482796958564,320.9093082885694L-229.9576081078137,361.7536044344077" style="fill:none;stroke:rgb(167,41,160);stroke-width:5;stroke-linecap:round">
    </path>
    <path d="M-325.1482796958563,320.90930828856926L-229.95760810781354,361.7536044344076" style="fill:none;stroke:rgb(214,94,68);stroke-width:5;stroke-linecap:round">
    </path>
    <path d="M-331.0695017065719,323.7585806198877L-235.83553966135736,364.72866237424" style="fill:none;stroke:rgb(74,87,214);stroke-width:5;stroke-linecap:round">
    </path>
    <path d="M-727.5694875191193,481.6649125111828L-733.0720554881638,343.6863208430441L-454.6393469335423,-121.9308076573243z" style="fill:rgb(0,0,0); fill-opacity: 0.2">
    </path>
    <path d="M-763.3941271235052,-416.64899245823125L-727.5694875191193,481.6649125111828" style="fill:none;stroke:rgb(0,0,0);stroke-width:1;stroke-linecap:round">
    </path>
    <path d="M-733.0720554881638,343.6863208430441L-727.5694875191193,481.6649125111828" style="fill:none;stroke:rgb(0,0,0);stroke-width:1;stroke-linecap:round">
    </path>
    <path d="M-548.645050716588,572.0230222242348L-727.5694875191193,481.6649125111828" style="fill:none;stroke:rgb(160,0,0);stroke-width:4;stroke-linecap:round">
    </path>
    <path d="M-167.7100456900853,325.8662700142413L-177.6164649883727,321.0254363297865L-153.65657161369015,345.6025137439045z" style="fill:rgb(167,41,160)">
    </path>
    <path d="M-167.71004569008517,325.8662700142412L-177.61646498837257,321.02543632978643L-153.65657161369,345.6025137439044z" style="fill:rgb(214,94,68)">
    </path>
    <path d="M-188.0256283297725,336.1227143689896L-184.473271778767,350.23711061488285L-153.65657161369015,345.6025137439045z" style="fill:rgb(167,41,160)">
    </path>
    <path d="M-188.0256283297724,336.12271436898953L-184.47327177876687,350.2371106148828L-153.65657161369,345.6025137439044z" style="fill:rgb(214,94,68)">
    </path>
    <path d="M-177.6164649883727,321.0254363297865L-188.0256283297725,336.1227143689896L-153.65657161369015,345.6025137439045z" style="fill:rgb(167,41,160)">
    </path>
    <path d="M-177.61646498837257,321.02543632978643L-188.0256283297724,336.12271436898953L-153.65657161369,345.6025137439044z" style="fill:rgb(214,94,68)">
    </path>
    <path d="M-174.8029675608515,329.4471743757029L-184.7590971051004,324.6108909022496L-160.77263223955615,349.2512974283679z" style="fill:rgb(74,87,214)">
    </path>
    <path d="M-450.7214860604683,350.73920066182745L-454.6393469335423,-121.9308076573243L-763.3941271235052,-416.64899245823125z" style="fill:rgb(0,0,0); fill-opacity: 0.2">
    </path>
    <path d="M-195.20336579004325,339.74643839206755L-191.6225136240761,353.8796216153152L-160.77263223955615,349.2512974283679z" style="fill:rgb(74,87,214)">
    </path>
    <path d="M-184.7590971051004,324.6108909022496L-195.20336579004325,339.74643839206755L-160.77263223955615,349.2512974283679z" style="fill:rgb(74,87,214)">
    </path>
    <path d="M-451.80008986673243,220.61113164749236L-733.0720554881638,343.6863208430441L-747.6143981847921,-20.96741467178249z" style="fill:rgb(0,0,0); fill-opacity: 0.2">
    </path>
    <path d="M-733.0720554881638,343.6863208430441L-451.80008986673243,220.61113164749236L-551.4531654524792,429.8064663856009z" style="fill:rgb(0,0,0); fill-opacity: 0.2">
    </path>
    <path d="M-893.0120218192554,398.1152591902366L-943.5488463942637,-471.220150250516L-727.5694875191193,481.6649125111828z" style="fill:rgb(0,0,0); fill-opacity: 0.2">
    </path>
    <path d="M-379.1560968253924,346.89769020426354L-283.5849185371693,388.8965465104381" style="fill:none;stroke:rgb(167,41,160);stroke-width:5;stroke-linecap:round">
    </path>
    <path d="M-379.15609682539224,346.89769020426354L-283.58491853716913,388.8965465104381" style="fill:none;stroke:rgb(214,94,68);stroke-width:5;stroke-linecap:round">
    </path>
    <path d="M-727.5694875191193,481.6649125111828L-763.3941271235052,-416.64899245823125L-450.7214860604683,350.73920066182745z" style="fill:rgb(0,0,0); fill-opacity: 0.2">
    </path>
    <path d="M-383.73062260528997,349.0989367898463L-288.12869594959204,391.1963352957481" style="fill:none;stroke:rgb(74,87,214);stroke-width:5;stroke-linecap:round">
    </path>
    <path d="M-733.0720554881638,343.6863208430441L-747.6143981847921,-20.96741467178249" style="fill:none;stroke:rgb(0,0,0);stroke-width:1;stroke-linecap:round">
    </path>
    <path d="M-733.0720554881638,343.6863208430441L-747.6143981847921,-20.96741467178249" style="fill:none;stroke:rgb(0,0,0);stroke-width:1;stroke-linecap:round">
    </path>
    <path d="M-551.4531654524792,429.8064663856009L-733.0720554881638,343.6863208430441" style="fill:none;stroke:rgb(0,0,0);stroke-width:1;stroke-linecap:round">
    </path>
    <path d="M-551.4531654524792,429.8064663856009L-733.0720554881638,343.6863208430441" style="fill:none;stroke:rgb(0,0,0);stroke-width:1;stroke-linecap:round">
    </path>
    <path d="M-551.4531654524792,429.8064663856009L-733.0720554881638,343.6863208430441" style="fill:none;stroke:rgb(0,0,0);stroke-width:1;stroke-linecap:round">
    </path>
    <path d="M-551.4531654524792,429.8064663856009L-733.0720554881638,343.6863208430441" style="fill:none;stroke:rgb(0,0,0);stroke-width:1;stroke-linecap:round">
    </path>
    <path d="M-219.44597268363225,351.985464612876L-229.71776420379655,347.17921808003445L-205.5662976243149,372.21939790085753z" style="fill:rgb(167,41,160)">
    </path>
    <path d="M-219.44597268363208,351.98546461287594L-229.71776420379643,347.17921808003433L-205.56629762431473,372.21939790085736z" style="fill:rgb(214,94,68)">
    </path>
    <path d="M-943.5488463942637,-471.220150250516L-290.632093497889,-615.4913582022722L-763.3941271235052,-416.64899245823125z" style="fill:rgb(0,0,0); fill-opacity: 0.2">
    </path>
    <path d="M-240.38428214120867,362.55629635533387L-236.62204895331087,376.80671038887954L-205.5662976243149,372.21939790085753z" style="fill:rgb(167,41,160)">
    </path>
    <path d="M-240.38428214120856,362.5562963553338L-236.62204895331075,376.8067103888795L-205.56629762431473,372.21939790085736z" style="fill:rgb(214,94,68)">
    </path>
    <path d="M-225.2914324499067,354.9365802113818L-235.60491191809336,350.1344452772405L-211.4321266290997,375.2271211755459z" style="fill:rgb(74,87,214)">
    </path>
    <path d="M-272.7269839983567,295.68435520752524L-551.4531654524792,429.8064663856009L-733.0720554881638,343.6863208430441z" style="fill:rgb(0,0,0); fill-opacity: 0.2">
    </path>
    <path d="M-229.71776420379655,347.17921808003445L-240.38428214120867,362.55629635533387L-205.5662976243149,372.21939790085753z" style="fill:rgb(167,41,160)">
    </path>
    <path d="M-229.71776420379643,347.17921808003433L-240.38428214120856,362.5562963553338L-205.56629762431473,372.21939790085736z" style="fill:rgb(214,94,68)">
    </path>
    <path d="M-727.5694875191193,481.6649125111828L-733.0720554881638,343.6863208430441L-548.645050716588,572.0230222242348z" style="fill:rgb(0,0,0); fill-opacity: 0.2">
    </path>
    <path d="M-246.30069625989157,365.5432336863546L-242.51445412227915,379.8088679758485L-211.4321266290997,375.2271211755459z" style="fill:rgb(74,87,214)">
    </path>
    <path d="M-235.60491191809336,350.1344452772405L-246.30069625989157,365.5432336863546L-211.4321266290997,375.2271211755459z" style="fill:rgb(74,87,214)">
    </path>
    <path d="M-434.82356571979346,373.6846910274562L-338.8939379616395,416.8906692531415" style="fill:none;stroke:rgb(167,41,160);stroke-width:5;stroke-linecap:round">
    </path>
    <path d="M-434.8235657197932,373.6846910274561L-338.8939379616394,416.89066925314137" style="fill:none;stroke:rgb(214,94,68);stroke-width:5;stroke-linecap:round">
    </path>
    <path d="M-437.96640375627584,375.1970142342131L-342.0175612719414,418.47166083933246" style="fill:none;stroke:rgb(74,87,214);stroke-width:5;stroke-linecap:round">
    </path>
    <path d="M-763.3941271235052,-416.64899245823125L-115.9638937385186,-574.9561332648669L-747.6143981847921,-20.96741467178249z" style="fill:rgb(0,0,0); fill-opacity: 0.2">
    </path>
    <path d="M-272.77519287841824,378.9090428882743L-283.430364903464,374.14184007011056L-259.0868607735358,399.66224414254503z" style="fill:rgb(167,41,160)">
    </path>
    <path d="M-272.775192878418,378.90904288827414L-283.43036490346384,374.1418400701105L-259.08686077353565,399.66224414254503z" style="fill:rgb(214,94,68)">
    </path>
    <path d="M-277.2935241762233,381.19014967975386L-287.98149341051743,376.4264130746849L-263.62197250293895,401.9876377213063z" style="fill:rgb(74,87,214)">
    </path>
    <path d="M-294.36530667658633,389.8089419810529L-290.3818098813445,404.1971001390126L-259.08686077353565,399.66224414254503z" style="fill:rgb(214,94,68)">
    </path>
    <path d="M-294.3653066765865,389.8089419810529L-290.3818098813446,404.19710013901266L-259.0868607735358,399.66224414254503z" style="fill:rgb(167,41,160)">
    </path>
    <path d="M-283.430364903464,374.14184007011056L-294.3653066765865,389.8089419810529L-259.0868607735358,399.66224414254503z" style="fill:rgb(167,41,160)">
    </path>
    <path d="M-283.43036490346384,374.1418400701105L-294.36530667658633,389.8089419810529L-259.08686077353565,399.66224414254503z" style="fill:rgb(214,94,68)">
    </path>
    <path d="M-298.9393241499466,392.1181622739288L-294.9368510017977,406.51787592862433L-263.62197250293895,401.9876377213063z" style="fill:rgb(74,87,214)">
    </path>
    <path d="M-287.98149341051743,376.4264130746849L-298.9393241499466,392.1181622739288L-263.62197250293895,401.9876377213063z" style="fill:rgb(74,87,214)">
    </path>
    <path d="M-548.645050716588,572.0230222242348L-551.4531654524792,429.8064663856009L-733.0720554881638,343.6863208430441z" style="fill:rgb(0,0,0); fill-opacity: 0.2">
    </path>
    <path d="M-548.645050716588,572.0230222242348L-551.4531654524792,429.8064663856009" style="fill:none;stroke:rgb(80,97,2);stroke-width:5;stroke-linecap:round">
    </path>
    <path d="M-548.645050716588,572.0230222242348L-453.6014218797523,620.0207289401902" style="fill:none;stroke:rgb(162,186,45);stroke-width:5;stroke-linecap:round">
    </path>
    <path d="M-492.2283814155587,401.30769735121504L-395.9650320288413,445.77664895414426" style="fill:none;stroke:rgb(214,94,68);stroke-width:5;stroke-linecap:round">
    </path>
    <path d="M-492.2283814155589,401.30769735121515L-395.96503202884145,445.77664895414443" style="fill:none;stroke:rgb(167,41,160);stroke-width:5;stroke-linecap:round">
    </path>
    <path d="M-493.848544804181,402.08731458344556L-397.57630610320547,446.59217967009715" style="fill:none;stroke:rgb(74,87,214);stroke-width:5;stroke-linecap:round">
    </path>
    <path d="M-454.6393469335423,-121.9308076573243L-747.6143981847921,-20.96741467178249L-763.3941271235052,-416.64899245823125z" style="fill:rgb(0,0,0); fill-opacity: 0.2">
    </path>
    <path d="M-327.7724594866657,406.67474445022714L-338.8301885120106,401.9514132953254L-314.2944228298125,427.97010466831534z" style="fill:rgb(167,41,160)">
    </path>
    <path d="M-327.77245948666547,406.674744450227L-338.8301885120104,401.9514132953254L-314.29442282981233,427.97010466831523z" style="fill:rgb(214,94,68)">
    </path>
    <path d="M-330.87834559888796,408.2427697757703L-341.95902608032657,403.5220254705683L-317.4125779474744,429.5689490454409z" style="fill:rgb(74,87,214)">
    </path>
    <path d="M-550.0377349459395,501.490735228388L-454.2372933890195,548.4064540920463" style="fill:none;stroke:rgb(162,186,45);stroke-width:5;stroke-linecap:round">
    </path>
    <path d="M-350.04529406094383,417.9193192421573L-345.8283756358371,432.44691040797875L-314.2944228298125,427.97010466831534z" style="fill:rgb(167,41,160)">
    </path>
    <path d="M-350.0452940609437,417.91931924215714L-345.82837563583695,432.44691040797863L-314.29442282981233,427.97010466831523z" style="fill:rgb(214,94,68)">
    </path>
    <path d="M-338.8301885120106,401.9514132953254L-350.04529406094383,417.9193192421573L-314.2944228298125,427.97010466831534z" style="fill:rgb(167,41,160)">
    </path>
    <path d="M-338.8301885120104,401.9514132953254L-350.0452940609437,417.91931924215714L-314.29442282981233,427.97010466831523z" style="fill:rgb(214,94,68)">
    </path>
    <path d="M-353.1900547762296,419.5069706453869L-348.95979553614495,434.04235670573246L-317.4125779474744,429.5689490454409z" style="fill:rgb(74,87,214)">
    </path>
    <path d="M-341.95902608032657,403.5220254705683L-353.1900547762296,419.5069706453869L-317.4125779474744,429.5689490454409z" style="fill:rgb(74,87,214)">
    </path>
    <path d="M-727.5694875191193,481.6649125111828L-763.3941271235052,-416.64899245823125L-943.5488463942637,-471.220150250516z" style="fill:rgb(0,0,0); fill-opacity: 0.2">
    </path>
    <path d="M-763.3941271235052,-416.64899245823125L-943.5488463942637,-471.220150250516" style="fill:none;stroke:rgb(0,0,0);stroke-width:1;stroke-linecap:round">
    </path>
    <path d="M-763.3941271235052,-416.64899245823125L-943.5488463942637,-471.220150250516" style="fill:none;stroke:rgb(0,0,0);stroke-width:1;stroke-linecap:round">
    </path>
    <path d="M-747.6143981847921,-20.96741467178249L-763.3941271235052,-416.64899245823125" style="fill:none;stroke:rgb(0,0,0);stroke-width:1;stroke-linecap:round">
    </path>
    <path d="M-747.6143981847921,-20.96741467178249L-763.3941271235052,-416.64899245823125" style="fill:none;stroke:rgb(0,0,0);stroke-width:1;stroke-linecap:round">
    </path>
    <path d="M-551.4531654524789,429.8064663856008L-454.88376996970896,475.5977956482058" style="fill:none;stroke:rgb(74,87,214);stroke-width:5;stroke-linecap:round">
    </path>
    <path d="M-551.4531654524792,429.8064663856009L-454.8837699697092,475.5977956482059" style="fill:none;stroke:rgb(167,41,160);stroke-width:5;stroke-linecap:round">
    </path>
    <path d="M-551.453165452479,429.8064663856008L-454.8837699697091,475.5977956482058" style="fill:none;stroke:rgb(214,94,68);stroke-width:5;stroke-linecap:round">
    </path>
    <path d="M-551.4531654524792,429.8064663856009L-454.8837699697092,475.5977956482059" style="fill:none;stroke:rgb(162,186,45);stroke-width:5;stroke-linecap:round">
    </path>
    <path d="M-763.3941271235052,-416.64899245823125L-763.3941271235052,-416.64899245823125L-454.6393469335423,-121.9308076573243z" style="fill:rgb(0,0,0); fill-opacity: 0.2">
    </path>
    <path d="M-442.0081856229363,609.115346231746L-453.7330334347479,605.1981335961797L-429.2196172191696,632.3337132362064z" style="fill:rgb(162,186,45)">
    </path>
    <path d="M-384.51727632006885,435.3227072773049L-395.99800225758503,430.6484812447935L-371.27002376897315,457.18453299452204z" style="fill:rgb(167,41,160)">
    </path>
    <path d="M-384.51727632006873,435.32270727730486L-395.9980022575849,430.6484812447934L-371.270023768973,457.1845329945219z" style="fill:rgb(214,94,68)">
    </path>
    <path d="M-386.11927099252307,436.1314839442626L-397.61205155762667,431.4587008316965L-372.87873741178925,458.0094062497533z" style="fill:rgb(74,87,214)">
    </path>
    <path d="M-465.3495757127992,621.8161540731232L-460.7080852602605,635.9325688466179L-429.2196172191696,632.3337132362064z" style="fill:rgb(162,186,45)">
    </path>
    <path d="M-453.7330334347479,605.1981335961797L-465.3495757127992,621.8161540731232L-429.2196172191696,632.3337132362064z" style="fill:rgb(162,186,45)">
    </path>
    <path d="M-407.5057347214317,446.92856907200525L-403.04240115797506,461.5972345755892L-371.270023768973,457.1845329945219z" style="fill:rgb(214,94,68)">
    </path>
    <path d="M-407.5057347214318,446.9285690720053L-403.0424011579753,461.59723457558925L-371.27002376897315,457.18453299452204z" style="fill:rgb(167,41,160)">
    </path>
    <path d="M-395.99800225758503,430.6484812447935L-407.5057347214318,446.9285690720053L-371.27002376897315,457.18453299452204z" style="fill:rgb(167,41,160)">
    </path>
    <path d="M-395.9980022575849,430.6484812447934L-407.5057347214317,446.92856907200525L-371.270023768973,457.1845329945219z" style="fill:rgb(214,94,68)">
    </path>
    <path d="M-409.1280978448716,447.74762887422094L-404.6577253688328,462.42023599792526L-372.87873741178925,458.0094062497533z" style="fill:rgb(74,87,214)">
    </path>
    <path d="M-397.61205155762667,431.4587008316965L-409.1280978448716,447.74762887422094L-372.87873741178925,458.0094062497533z" style="fill:rgb(74,87,214)">
    </path>
    <path d="M-442.546754276346,537.6002799623818L-454.37109270540225,533.3374647156053L-429.65613846114934,560.4444210909226z" style="fill:rgb(162,186,45)">
    </path>
    <path d="M-466.0853369445251,549.9498756826307L-461.40312669023353,564.4089783259981L-429.65613846114934,560.4444210909226z" style="fill:rgb(162,186,45)">
    </path>
    <path d="M-454.37109270540225,533.3374647156053L-466.0853369445251,549.9498756826307L-429.65613846114934,560.4444210909226z" style="fill:rgb(162,186,45)">
    </path>
    <path d="M-443.09428126058185,464.8956613143956L-455.019812054662,460.27621712053195L-430.0999786951397,487.349787477045z" style="fill:rgb(74,87,214)">
    </path>
    <path d="M-443.0942812605821,464.89566131439574L-455.01981205466234,460.2762171205321L-430.09997869514007,487.34978747704525z" style="fill:rgb(167,41,160)">
    </path>
    <path d="M-443.0942812605819,464.8956613143956L-455.0198120546621,460.27621712053195L-430.09997869513984,487.34978747704514z" style="fill:rgb(214,94,68)">
    </path>
    <path d="M-443.0942812605821,464.89566131439574L-455.01981205466234,460.2762171205321L-430.09997869514007,487.34978747704525z" style="fill:rgb(162,186,45)">
    </path>
    <path d="M-466.833415326544,476.8805062433225L-462.1097667171876,491.6918283061344L-430.0999786951397,487.349787477045z" style="fill:rgb(74,87,214)">
    </path>
    <path d="M-466.8334153265442,476.8805062433226L-462.109766717188,491.6918283061346L-430.09997869514007,487.34978747704525z" style="fill:rgb(167,41,160)">
    </path>
    <path d="M-466.83341532654407,476.8805062433225L-462.1097667171878,491.6918283061346L-430.09997869513984,487.34978747704514z" style="fill:rgb(214,94,68)">
    </path>
    <path d="M-466.8334153265442,476.8805062433226L-462.109766717188,491.6918283061346L-430.09997869514007,487.34978747704525z" style="fill:rgb(162,186,45)">
    </path>
    <path d="M-455.019812054662,460.27621712053195L-466.833415326544,476.8805062433225L-430.0999786951397,487.349787477045z" style="fill:rgb(74,87,214)">
    </path>
    <path d="M-455.01981205466234,460.2762171205321L-466.8334153265442,476.8805062433226L-430.09997869514007,487.34978747704525z" style="fill:rgb(167,41,160)">
    </path>
    <path d="M-455.0198120546621,460.27621712053195L-466.83341532654407,476.8805062433225L-430.09997869513984,487.34978747704514z" style="fill:rgb(214,94,68)">
    </path>
    <path d="M-455.01981205466234,460.2762171205321L-466.8334153265442,476.8805062433226L-430.09997869514007,487.34978747704525z" style="fill:rgb(162,186,45)">
    </path>
    <path d="M-763.3941271235052,-416.64899245823125L-763.3941271235052,-416.64899245823125" style="fill:none;stroke:rgb(0,0,0);stroke-width:1;stroke-linecap:round">
    </path>
</svg>