<svg viewBox="-812 -590 1624 1180" width="1624" height="1180" style="background-color: rgb(255, 255, 255);"><path d="M15.83518316242262,197.08841355138054L61.873176476061026,-542.3929551490996M186.9086801934662,261.88127362653L15.83518316242262,197.08841355138054M186.90868019346615,261.88127362653L236.53496417775554,-481.8744823740089M88.59950353246009,318.993460513258L186.90868019346615,261.88127362653" style="fill:none;stroke:rgb(0,0,0);stroke-width:1;stroke-linecap:round"></path><path d="M236.53496417775563,-481.8744823740089L186.9086801934662,261.88127362653L15.83518316242262,197.08841355138054zM61.873176476061026,-542.3929551490996L15.83518316242262,197.08841355138054L236.53496417775563,-481.8744823740089z" style="fill:rgb(0,0,0); fill-opacity: 0.2"></path><path d="M125.77272476109424,-259.0396349746373L88.59950353246009,318.993460513258" style="fill:none;stroke:rgb(58,110,14);stroke-width:5;stroke-linecap:round"></path><path d="M88.59950353246009,318.993460513258L46.51518488234709,338.3737085040523M90.89110608019162,283.3596878534684L48.775043982546315,302.6537967521663M93.186884510261,247.66098140224693L51.03903313085755,266.86860440199905" style="fill:none;stroke:rgb(128,207,62);stroke-width:5;stroke-linecap:round"></path><path d="M125.77272476109424,-259.0396349746373L88.59950353246009,318.993460513258L186.90868019346615,261.88127362653z" style="fill:rgb(0,0,0); fill-opacity: 0.2"></path><path d="M95.48685024735607,211.89716350892098L53.30716365955699,231.01795233269024" style="fill:none;stroke:rgb(128,207,62);stroke-width:5;stroke-linecap:round"></path><path d="M236.53496417775563,-481.8744823740089L61.873176476061026,-542.3929551490996M61.873176476061026,-542.3929551490996L-372.4207538459606,-368.5958962108691M236.53496417775563,-481.8744823740089L61.873176476061026,-542.3929551490996" style="fill:none;stroke:rgb(0,0,0);stroke-width:1;stroke-linecap:round"></path><path d="M47.0008280666192,330.697507946427L40.42530557706461,333.6047712027026L35.955790923776014,343.23641461677346zM49.97964549592259,346.06494621724966L52.90848972473081,338.4004121787619L35.955790923776014,343.23641461677346zM52.90848972473081,338.4004121787619L47.0008280666192,330.697507946427L35.955790923776014,343.23641461677346z" style="fill:rgb(128,207,62)"></path><path d="M97.79101475787832,176.06805587418717L55.57944694241775,195.1016607674695" style="fill:none;stroke:rgb(128,207,62);stroke-width:5;stroke-linecap:round"></path><path d="M49.26157439480929,294.96357244167274L42.67914132485669,297.8878523325091L38.20765023135832,307.49490571762766zM52.24268056533365,310.35184962016194L55.17492679279264,302.668839413808L38.20765023135832,307.49490571762766zM55.17492679279264,302.668839413808L49.26157439480929,294.96357244167274L38.20765023135832,307.49490571762766z" style="fill:rgb(128,207,62)"></path><path d="M100.09938955013291,140.17347954714734L57.85589439489991,159.119549270651" style="fill:none;stroke:rgb(128,207,62);stroke-width:5;stroke-linecap:round"></path><path d="M242.35678811784751,-245.837754831615L233.0510340213146,-247.67232463667054L235.34632166729853,-244.45489991601448z" style="fill:rgb(186,45,138)"></path><path d="M242.35678811784751,-245.837754831615L233.05103402131465,-247.67232463667054L235.34632166729853,-244.45489991601448z" style="fill:rgb(41,170,178)"></path><path d="M51.526453204667106,259.1643178732327L44.93709526481635,262.1056717698054L40.463627969768524,271.6880290880957z" style="fill:rgb(128,207,62)"></path><path d="M233.0510340213146,-247.67232463667054L226.91494495535176,-245.06103293682546L235.34632166729853,-244.45489991601448z" style="fill:rgb(186,45,138)"></path><path d="M233.05103402131465,-247.67232463667054L226.91494495535176,-245.06103293682546L235.34632166729853,-244.45489991601448z" style="fill:rgb(41,170,178)"></path><path d="M54.5098515111026,274.573484502104L57.44550728692966,266.871943356896L40.463627969768524,271.6880290880957zM57.44550728692966,266.871943356896L51.526453204667106,259.1643178732327L40.463627969768524,271.6880290880957z" style="fill:rgb(128,207,62)"></path><path d="M239.54306692795473,-307.00614810840955L235.34632166729853,-244.4548999160145" style="fill:none;stroke:rgb(186,45,138);stroke-width:5;stroke-linecap:round"></path><path d="M239.54306692795473,-307.00614810840955L235.34632166729853,-244.4548999160145" style="fill:none;stroke:rgb(41,170,178);stroke-width:5;stroke-linecap:round"></path><path d="M241.97831581197423,-242.09026601390502L242.35678811784751,-245.837754831615L235.34632166729853,-244.45489991601448z" style="fill:rgb(186,45,138)"></path><path d="M241.97831581197423,-242.09026601390502L242.35678811784751,-245.837754831615L235.34632166729853,-244.45489991601448zM232.4304152835859,-241.60943724810477L226.91494495535176,-245.06103293682546L234.29919721294485,-228.84781929412287z" style="fill:rgb(41,170,178)"></path><path d="M232.4304152835859,-241.60943724810477L226.91494495535176,-245.06103293682546L234.29919721294485,-228.84781929412287zM241.97831581197423,-242.09026601390502L232.4304152835859,-241.60943724810477L234.29919721294485,-228.84781929412287z" style="fill:rgb(186,45,138)"></path><path d="M241.97831581197423,-242.09026601390502L232.4304152835859,-241.60943724810477L234.29919721294485,-228.84781929412287zM226.91494495535176,-245.06103293682546L232.4304152835859,-241.60943724810477L235.34632166729853,-244.45489991601448z" style="fill:rgb(41,170,178)"></path><path d="M226.91494495535176,-245.06103293682546L232.4304152835859,-241.60943724810477L235.34632166729853,-244.45489991601448zM232.4304152835859,-241.60943724810477L241.97831581197423,-242.09026601390502L235.34632166729853,-244.45489991601448z" style="fill:rgb(186,45,138)"></path><path d="M232.4304152835859,-241.60943724810477L241.97831581197423,-242.09026601390502L235.34632166729853,-244.45489991601448z" style="fill:rgb(41,170,178)"></path><path d="M102.41198617452065,104.21325492232981L60.136517474341645,123.07143674461233" style="fill:none;stroke:rgb(128,207,62);stroke-width:5;stroke-linecap:round"></path><path d="M236.53496417775554,-481.8744823740089L186.90868019346615,261.88127362653L125.77272476109424,-259.0396349746373z" style="fill:rgb(0,0,0); fill-opacity: 0.2"></path><path d="M53.79547583737689,223.29956497944312L47.1991786943607,226.2580504824986L42.7237354476597,235.8156052372462zM56.781169681563355,238.7296717743164L59.7202425798514,231.00954471127696L42.7237354476597,235.8156052372462zM59.7202425798514,231.00954471127696L53.79547583737689,223.29956497944312L42.7237354476597,235.8156052372462z" style="fill:rgb(128,207,62)"></path><path d="M104.72881622373062,68.1872017366937L62.421327680151606,86.95714142675598" style="fill:none;stroke:rgb(128,207,62);stroke-width:5;stroke-linecap:round"></path><path d="M219.14146174136152,-235.94876775006878L209.82481346813714,-237.78810745903624L212.113562242615,-234.56109020226816zM209.82481346813714,-237.78810745903624L203.66878733140211,-235.1683312820483L212.113562242615,-234.56109020226816z" style="fill:rgb(41,170,178)"></path><path d="M239.54306692795473,-307.00614810840955L125.77272476109424,-259.0396349746373" style="fill:none;stroke:rgb(97,2,64);stroke-width:5;stroke-linecap:round"></path><path d="M239.54306692795473,-307.00614810840955L236.53496417775554,-481.8744823740089" style="fill:none;stroke:rgb(0,0,0);stroke-width:1;stroke-linecap:round"></path><path d="M-191.08847759304558,-125.44834277291731L239.54306692795473,-307.00614810840955" style="fill:none;stroke:rgb(0,86,91);stroke-width:5;stroke-linecap:round"></path><path d="M239.54306692795473,-307.00614810840955L236.53496417775554,-481.8744823740089" style="fill:none;stroke:rgb(0,0,0);stroke-width:1;stroke-linecap:round"></path><path d="M216.2804751509471,-297.19844785238945L212.11356224261493,-234.5610902022682" style="fill:none;stroke:rgb(41,170,178);stroke-width:5;stroke-linecap:round"></path><path d="M218.74979933632537,-232.18983597126874L219.14146174136152,-235.94876775006878L212.113562242615,-234.56109020226816zM209.182826497108,-231.7067074109989L203.66878733140211,-235.1683312820483L211.07388454229414,-218.93257446688241z" style="fill:rgb(41,170,178)"></path><path d="M56.068653675660634,187.36913384208566L49.46540295226754,190.34480878304612L44.98798401512554,199.87745401640186z" style="fill:rgb(128,207,62)"></path><path d="M218.74979933632537,-232.18983597126874L209.182826497108,-231.7067074109989L211.07388454229414,-218.93257446688241z" style="fill:rgb(41,170,178)"></path><path d="M214.1403193430321,-233.81844092338468L204.82132598730007,-235.6588089451891L207.10866177502712,-232.42972336988294z" style="fill:rgb(186,45,138)"></path><path d="M59.05664646660566,202.82023169224288L61.999144085925955,195.0814635234321L44.98798401512554,199.87745401640186z" style="fill:rgb(128,207,62)"></path><path d="M203.66878733140211,-235.1683312820483L209.182826497108,-231.7067074109989L212.113562242615,-234.56109020226816z" style="fill:rgb(41,170,178)"></path><path d="M61.999144085925955,195.0814635234321L56.068653675660634,187.36913384208566L44.98798401512554,199.87745401640186z" style="fill:rgb(128,207,62)"></path><path d="M204.82132598730007,-235.6588089451891L198.6610006899798,-233.0372032050654L207.10866177502712,-232.42972336988294z" style="fill:rgb(186,45,138)"></path><path d="M209.182826497108,-231.7067074109989L218.74979933632537,-232.18983597126874L212.113562242615,-234.56109020226816z" style="fill:rgb(41,170,178)"></path><path d="M211.26913249208022,-295.08562451999734L207.10866177502712,-232.42972336988296" style="fill:none;stroke:rgb(186,45,138);stroke-width:5;stroke-linecap:round"></path><path d="M213.74581013283643,-230.05704177861398L214.1403193430321,-233.81844092338468L207.10866177502712,-232.42972336988294zM204.17472713846414,-229.57341714156328L198.6610006899798,-233.0372032050654L206.0705921669993,-216.796591647327zM213.74581013283643,-230.05704177861398L204.17472713846414,-229.57341714156328L206.0705921669993,-216.796591647327zM198.6610006899798,-233.0372032050654L204.17472713846414,-229.57341714156328L207.10866177502712,-232.42972336988294z" style="fill:rgb(186,45,138)"></path><path d="M107.0498913329336,32.09513906661656L64.71033655400193,50.776480886454685" style="fill:none;stroke:rgb(128,207,62);stroke-width:5;stroke-linecap:round"></path><path d="M204.17472713846414,-229.57341714156328L213.74581013283643,-230.05704177861398L207.10866177502712,-232.42972336988294z" style="fill:rgb(186,45,138)"></path><path d="M58.3459981439683,151.37284388337812L51.73577941886483,154.3657663254531L47.256385063890406,163.87339461612441zM61.336293297865616,166.84498385252658L64.28222326137102,159.0875191800634L47.256385063890406,163.87339461612441zM64.28222326137102,159.0875191800634L58.3459981439683,151.37284388337812L47.256385063890406,163.87339461612441z" style="fill:rgb(128,207,62)"></path><path d="M195.85064645482578,-226.02762480544413L186.5230822929443,-227.87175576405724L188.8052374994447,-224.63510054517542z" style="fill:rgb(41,170,178)"></path><path d="M109.37522317997714,-4.063114675133965L67.0035556800229,14.529272021979319" style="fill:none;stroke:rgb(128,207,62);stroke-width:5;stroke-linecap:round"></path><path d="M186.5230822929443,-227.87175576405724L180.3470217595583,-225.24345369164575L188.8052374994447,-224.63510054517542z" style="fill:rgb(41,170,178)"></path><path d="M192.94210144892764,-287.35879731273513L188.80523749944467,-224.63510054517545" style="fill:none;stroke:rgb(41,170,178);stroke-width:5;stroke-linecap:round"></path><path d="M195.44571007947619,-222.25719538973792L195.85064645482578,-226.02762480544413L188.8052374994447,-224.63510054517542zM185.85959125705884,-221.7717546023095L180.3470217595583,-225.24345369164575L187.7730605611734,-208.98509269449707zM195.44571007947619,-222.25719538973792L185.85959125705884,-221.7717546023095L187.7730605611734,-208.98509269449707zM180.3470217595583,-225.24345369164575L185.85959125705884,-221.7717546023095L188.8052374994447,-224.63510054517542z" style="fill:rgb(41,170,178)"></path><path d="M60.627520708669174,115.31051386294965L54.01031951622117,118.32074210225363L49.528950027500315,127.80324556318165z" style="fill:rgb(128,207,62)"></path><path d="M185.85959125705884,-221.7717546023095L195.44571007947619,-222.25719538973792L188.8052374994447,-224.63510054517542z" style="fill:rgb(41,170,178)"></path><path d="M63.62012164891703,130.80374718998846L66.56949160444564,123.0275304050665L49.528950027500315,127.80324556318165zM66.56949160444564,123.0275304050665L60.627520708669174,115.31051386294965L49.528950027500315,127.80324556318165z" style="fill:rgb(128,207,62)"></path><path d="M185.8122950577813,-221.75160793298957L176.48003037871857,-223.59780572473915L178.7593334274021,-220.3569921433925zM176.48003037871857,-223.59780572473915L170.29532497409843,-220.9658247160774L178.7593334274021,-220.3569921433925z" style="fill:rgb(186,45,138)"></path><path d="M182.88320931982813,-283.11788555812325L178.75933342740208,-220.35699214339252" style="fill:none;stroke:rgb(186,45,138);stroke-width:5;stroke-linecap:round"></path><path d="M185.4016249371891,-217.97621763561656L185.8122950577813,-221.75160793298957L178.7593334274021,-220.3569921433925zM175.80725058768027,-217.4897787469335L170.29532497409843,-220.9658247160774L177.73039852346946,-204.69772510409655z" style="fill:rgb(186,45,138)"></path><path d="M111.70482348558139,-40.287741742445895L69.30099668499813,-21.784668942589896" style="fill:none;stroke:rgb(128,207,62);stroke-width:5;stroke-linecap:round"></path><path d="M236.53496417775554,-481.8744823740089L236.53496417775554,-481.8744823740089L239.54306692795473,-307.00614810840955z" style="fill:rgb(0,0,0); fill-opacity: 0.2"></path><path d="M185.4016249371891,-217.97621763561656L175.80725058768027,-217.4897787469335L177.73039852346946,-204.69772510409655zM170.29532497409843,-220.9658247160774L175.80725058768027,-217.4897787469335L178.7593334274021,-220.3569921433925zM175.80725058768027,-217.4897787469335L185.4016249371891,-217.97621763561656L178.7593334274021,-220.3569921433925z" style="fill:rgb(186,45,138)"></path><path d="M62.9132328782445,79.18196187479897L56.28903470833734,82.20955444147539L51.80569038151507,91.66682471749873zM65.90814303546394,94.69633997458989L68.86096065564347,86.90131525648788L51.80569038151507,91.66682471749873zM68.86096065564347,86.90131525648788L62.9132328782445,79.18196187479897L51.80569038151507,91.66682471749873z" style="fill:rgb(128,207,62)"></path><path d="M172.4839734594872,-216.0741689012591L163.1454716579986,-217.92311258808584L165.4209781692118,-214.67677368950214zM163.1454716579986,-217.92311258808584L156.94927876756879,-215.2862429319444L165.4209781692118,-214.67677368950214z" style="fill:rgb(41,170,178)"></path><path d="M169.5275749086042,-277.48704010934836L165.42097816921182,-214.67677368950217" style="fill:none;stroke:rgb(41,170,178);stroke-width:5;stroke-linecap:round"></path><path d="M172.0656786322767,-212.292186820194L172.4839734594872,-216.0741689012591L165.4209781692118,-214.67677368950214zM162.46033973725955,-211.80442128790395L156.94927876756879,-215.2862429319444L164.3963564106723,-199.00521650539898z" style="fill:rgb(41,170,178)"></path><path d="M114.03870401353572,-76.5789250589246L71.60267123856104,-58.165526460468925" style="fill:none;stroke:rgb(128,207,62);stroke-width:5;stroke-linecap:round"></path><path d="M172.0656786322767,-212.292186820194L162.46033973725955,-211.80442128790395L164.3963564106723,-199.00521650539898zM156.94927876756879,-215.2862429319444L162.46033973725955,-211.80442128790395L165.4209781692118,-214.67677368950214zM162.46033973725955,-211.80442128790395L172.0656786322767,-212.292186820194L165.4209781692118,-214.67677368950214z" style="fill:rgb(41,170,178)"></path><path d="M-70.17296871601131,384.47862888975646L-68.30464432012738,394.03912084203733L-64.05954435267556,389.29447288439536zM-57.65387852965771,389.33815027117186L-60.56930437902139,397.04466765542026L-53.35411922412285,384.364517963106z" style="fill:rgb(112,56,202)"></path><path d="M125.77272476109424,-259.0396349746373L236.53496417775554,-481.8744823740089M236.53496417775554,-481.8744823740089L236.53496417775554,-481.8744823740089M125.77272476109424,-259.0396349746373L236.53496417775554,-481.8744823740089M236.53496417775554,-481.8744823740089L-195.81113235300148,-304.9161450821412" style="fill:none;stroke:rgb(0,0,0);stroke-width:1;stroke-linecap:round"></path><path d="M-68.30464432012738,394.03912084203733L-60.56930437902139,397.04466765542026L-64.05954435267556,389.29447288439536zM-63.592055943049914,381.5697817190929L-57.65387852965771,389.33815027117186L-53.35411922412285,384.364517963106z" style="fill:rgb(112,56,202)"></path><path d="M65.2031462034808,42.9870053442356L58.571936501338875,46.03202100358722L54.08661764370139,55.46394926909249z" style="fill:rgb(128,207,62)"></path><path d="M-63.592055943049914,381.5697817190929L-70.17296871601131,384.47862888975646L-64.05954435267556,389.29447288439536z" style="fill:rgb(112,56,202)"></path><path d="M-107.03872430019838,409.0868134174344L-64.05954435267557,389.29447288439536" style="fill:none;stroke:rgb(112,56,202);stroke-width:5;stroke-linecap:round"></path><path d="M68.20036901553414,58.522579808377955L71.15664199788678,50.708691123464625L54.08661764370139,55.46394926909249z" style="fill:rgb(128,207,62)"></path><path d="M239.54306692795473,-307.00614810840955L125.77272476109424,-259.0396349746373L236.53496417775554,-481.8744823740089z" style="fill:rgb(0,0,0); fill-opacity: 0.2"></path><path d="M-60.56930437902139,397.04466765542026L-57.65387852965771,389.33815027117186L-64.05954435267556,389.29447288439536z" style="fill:rgb(112,56,202)"></path><path d="M71.15664199788678,50.708691123464625L65.2031462034808,42.9870053442356L54.08661764370139,55.46394926909249z" style="fill:rgb(128,207,62)"></path><path d="M-57.65387852965771,389.33815027117186L-63.592055943049914,381.5697817190929L-64.05954435267556,389.29447288439536z" style="fill:rgb(112,56,202)"></path><path d="M157.37205238958782,-209.63697349792645L148.02648425324563,-211.4890328516798L150.29767290710078,-208.2364235885471zM148.02648425324563,-211.4890328516798L141.81725372431907,-208.84661486062572L150.29767290710078,-208.2364235885471z" style="fill:rgb(186,45,138)"></path><path d="M116.37687657089718,-112.93684822097235L73.90859105339271,-94.61348566529347" style="fill:none;stroke:rgb(128,207,62);stroke-width:5;stroke-linecap:round"></path><path d="M154.38463073547493,-271.1026501468124L150.29767290710075,-208.23642358854707" style="fill:none;stroke:rgb(186,45,138);stroke-width:5;stroke-linecap:round"></path><path d="M156.94509625465096,-205.84751058826419L157.37205238958782,-209.63697349792645L150.29767290710078,-208.2364235885471zM147.32732091107695,-205.35823891467265L141.81725372431907,-208.84661486062572L149.27795330190818,-192.5509366278351zM156.94509625465096,-205.84751058826419L147.32732091107695,-205.35823891467265L149.27795330190818,-192.5509366278351zM141.81725372431907,-208.84661486062572L147.32732091107695,-205.35823891467265L150.29767290710078,-208.2364235885471z" style="fill:rgb(186,45,138)"></path><path d="M-68.00365139861393,348.535897107242L-66.1338661928065,358.10944483351346L-61.88415355908763,353.3487217207131zM-55.471876005165804,353.38059022038925L-58.39069014824807,361.1058365929329L-51.170483153471736,348.44060084674703zM-66.1338661928065,358.10944483351346L-58.39069014824807,361.1058365929329L-61.88415355908763,353.3487217207131z" style="fill:rgb(112,56,202)"></path><path d="M147.32732091107695,-205.35823891467265L156.94509625465096,-205.84751058826419L150.29767290710078,-208.2364235885471z" style="fill:rgb(186,45,138)"></path><path d="M-61.415804565208056,345.6098104219344L-55.471876005165804,353.38059022038925L-51.170483153471736,348.44060084674703z" style="fill:rgb(112,56,202)"></path><path d="M67.49727227766454,6.725461024804452L60.85903644366986,9.78795877843048L56.37174337422717,19.194435734988623z" style="fill:rgb(128,207,62)"></path><path d="M-61.415804565208056,345.6098104219344L-68.00365139861393,348.535897107242L-61.88415355908763,353.3487217207131z" style="fill:rgb(112,56,202)"></path><path d="M-104.89658131183468,373.05347149372847L-61.88415355908764,353.3487217207132" style="fill:none;stroke:rgb(112,56,202);stroke-width:5;stroke-linecap:round"></path><path d="M149.04107155033427,-206.08824191604216L139.691610319488,-207.94201994353827L141.96041257338564,-204.68595135372055z" style="fill:rgb(41,170,178)"></path><path d="M70.49681118967388,22.282283622414383L73.45654725672152,14.449474723147821L56.37174337422717,19.194435734988623z" style="fill:rgb(128,207,62)"></path><path d="M139.691610319488,-207.94201994353827L133.47518647192823,-205.2965407431309L141.96041257338564,-204.68595135372055z" style="fill:rgb(41,170,178)"></path><path d="M-58.39069014824807,361.1058365929329L-55.471876005165804,353.38059022038925L-61.88415355908763,353.3487217207131z" style="fill:rgb(112,56,202)"></path><path d="M73.45654725672152,14.449474723147821L67.49727227766454,6.725461024804452L56.37174337422717,19.194435734988623z" style="fill:rgb(128,207,62)"></path><path d="M-55.471876005165804,353.38059022038925L-61.415804565208056,345.6098104219344L-61.88415355908763,353.3487217207131z" style="fill:rgb(112,56,202)"></path><path d="M146.0365221921577,-267.58301883993016L141.96041257338564,-204.68595135372058" style="fill:none;stroke:rgb(41,170,178);stroke-width:5;stroke-linecap:round"></path><path d="M148.60933317402396,-202.29465178566898L149.04107155033427,-206.08824191604216L141.96041257338564,-204.68595135372055zM138.9846996968836,-201.80454890508688L133.47518647192823,-205.2965407431309L140.94340082555152,-188.992787400721zM148.60933317402396,-202.29465178566898L138.9846996968836,-201.80454890508688L140.94340082555152,-188.992787400721zM133.47518647192823,-205.2965407431309L138.9846996968836,-201.80454890508688L141.96041257338564,-204.68595135372055z" style="fill:rgb(41,170,178)"></path><path d="M118.71935300818922,-149.36169550088385L76.21876788542025,-131.1287323742588" style="fill:none;stroke:rgb(128,207,62);stroke-width:5;stroke-linecap:round"></path><path d="M138.9846996968836,-201.80454890508688L148.60933317402396,-202.29465178566898L141.96041257338564,-204.68595135372055z" style="fill:rgb(41,170,178)"></path><path d="M-65.83034003995276,312.5269893196219L-63.95909180920395,322.1136247121299L-59.70475671115191,317.3367752632202zM-53.28585392482343,317.3567912815909L-56.208063903656495,325.10082259415594L-48.98282879677714,312.4505772135025zM-63.95909180920395,322.1136247121299L-56.208063903656495,325.10082259415594L-59.70475671115191,317.3367752632202zM-59.235544754496765,309.58360452871875L-53.28585392482343,317.3567912815909L-48.98282879677714,312.4505772135025z" style="fill:rgb(112,56,202)"></path><path d="M69.7956227367777,-29.60285500480659L63.150346126287396,-26.52281591786734L58.66107917585678,-17.141900043878213z" style="fill:rgb(128,207,62)"></path><path d="M-59.235544754496765,309.58360452871875L-65.83034003995276,312.5269893196219L-59.70475671115191,317.3367752632202z" style="fill:rgb(112,56,202)"></path><path d="M-102.75048186874832,336.95357738998524L-59.70475671115191,317.33677526322026" style="fill:none;stroke:rgb(112,56,202);stroke-width:5;stroke-linecap:round"></path><path d="M72.79748120114346,-14.02473232631299L75.76068810051372,-21.876517902391708L58.66107917585678,-17.141900043878213z" style="fill:rgb(128,207,62)"></path><path d="M-56.208063903656495,325.10082259415594L-53.28585392482343,317.3567912815909L-59.70475671115191,317.3367752632202z" style="fill:rgb(112,56,202)"></path><path d="M75.76068810051372,-21.876517902391708L69.7956227367777,-29.60285500480659L58.66107917585678,-17.141900043878213z" style="fill:rgb(128,207,62)"></path><path d="M-53.28585392482343,317.3567912815909L-59.235544754496765,309.58360452871875L-59.70475671115191,317.3367752632202z" style="fill:rgb(112,56,202)"></path><path d="M121.06614521960206,-185.8536518499599L78.5332135340167,-167.71145309127797" style="fill:none;stroke:rgb(128,207,62);stroke-width:5;stroke-linecap:round"></path><path d="M128.81892320372708,-197.4742530141562L119.46001940674537,-199.33220596313825L121.72301122649446,-196.0677328129592zM119.46001940674537,-199.33220596313825L113.22611758410692,-196.67928878541952L121.72301122649446,-196.0677328129592z" style="fill:rgb(186,45,138)"></path><path d="M125.52156709644,-196.06968469495973L116.16112460787414,-197.92831881053175L118.42316660378802,-194.6624742216229z" style="fill:rgb(41,170,178)"></path><path d="M125.77272476109424,-259.0396349746373L121.72301122649442,-196.06773281295924" style="fill:none;stroke:rgb(186,45,138);stroke-width:5;stroke-linecap:round"></path><path d="M128.37555484103487,-193.6706353921135L128.81892320372708,-197.4742530141562L121.72301122649446,-196.0677328129592zM118.7342681079207,-193.17851224588134L113.22611758410692,-196.67928878541952L120.71258825949933,-180.35594093535974z" style="fill:rgb(186,45,138)"></path><path d="M-63.65302359941309,276.4517225984462L-61.780310123894914,286.0514776593247L-57.52134273274677,281.25845049215206zM-51.095801171509315,281.26657025399993L-54.021414552583266,289.0294426724228L-46.79114505226279,276.3942644233732z" style="fill:rgb(112,56,202)"></path><path d="M116.16112460787414,-197.92831881053175L109.9243705581748,-195.2741878308669L118.42316660378802,-194.6624742216229z" style="fill:rgb(41,170,178)"></path><path d="M-61.780310123894914,286.0514776593247L-54.021414552583266,289.0294426724228L-57.52134273274677,281.25845049215206z" style="fill:rgb(112,56,202)"></path><path d="M128.37555484103487,-193.6706353921135L118.7342681079207,-193.17851224588134L120.71258825949933,-180.35594093535974z" style="fill:rgb(186,45,138)"></path><path d="M-57.05126542602129,273.49098087471424L-51.095801171509315,281.26657025399993L-46.79114505226279,276.3942644233732z" style="fill:rgb(112,56,202)"></path><path d="M113.22611758410692,-196.67928878541952L118.7342681079207,-193.17851224588134L121.72301122649446,-196.0677328129592z" style="fill:rgb(186,45,138)"></path><path d="M72.09820925969464,-65.9981273438761L65.44587718285774,-62.900487445995196L60.95463669414737,-53.54524290578096z" style="fill:rgb(128,207,62)"></path><path d="M-57.05126542602129,273.49098087471424L-63.65302359941309,276.4517225984462L-57.52134273274677,281.25845049215206z" style="fill:rgb(112,56,202)"></path><path d="M-100.60041499968078,300.78694655684797L-57.52134273274678,281.2584504921521" style="fill:none;stroke:rgb(112,56,202);stroke-width:5;stroke-linecap:round"></path><path d="M122.46856751739915,-257.64657507161525L118.42316660378802,-194.66247422162292" style="fill:none;stroke:rgb(41,170,178);stroke-width:5;stroke-linecap:round"></path><path d="M125.07629945275079,-192.26443077294465L125.52156709644,-196.06968469495973L118.42316660378802,-194.6624742216229z" style="fill:rgb(41,170,178)"></path><path d="M-372.4207538459606,-368.5958962108691L-411.5493988822459,389.33152890779525M-238.6197970905455,457.4904698464629L-411.5493988822459,389.33152890779525" style="fill:none;stroke:rgb(0,0,0);stroke-width:1;stroke-linecap:round"></path><path d="M115.43229646071771,-191.77197785419193L109.9243705581748,-195.2741878308669L117.4138201145879,-178.94764584590627z" style="fill:rgb(41,170,178)"></path><path d="M118.7342681079207,-193.17851224588134L128.37555484103487,-193.6706353921135L121.72301122649446,-196.0677328129592z" style="fill:rgb(186,45,138)"></path><path d="M75.10239073611405,-50.398652457995205L78.06907624064675,-58.26947138927393L60.95463669414737,-53.54524290578096z" style="fill:rgb(128,207,62)"></path><path d="M-54.021414552583266,289.0294426724228L-51.095801171509315,281.26657025399993L-57.52134273274677,281.25845049215206z" style="fill:rgb(112,56,202)"></path><path d="M125.07629945275079,-192.26443077294465L115.43229646071771,-191.77197785419193L117.4138201145879,-178.94764584590627z" style="fill:rgb(41,170,178)"></path><path d="M78.06907624064675,-58.26947138927393L72.09820925969464,-65.9981273438761L60.95463669414737,-53.54524290578096z" style="fill:rgb(128,207,62)"></path><path d="M-51.095801171509315,281.26657025399993L-57.05126542602129,273.49098087471424L-57.52134273274677,281.25845049215206z" style="fill:rgb(112,56,202)"></path><path d="M109.9243705581748,-195.2741878308669L115.43229646071771,-191.77197785419193L118.42316660378802,-194.6624742216229z" style="fill:rgb(41,170,178)"></path><path d="M-107.03872430019838,409.08681341743454L-72.28344328967032,-175.53752357113632" style="fill:none;stroke:rgb(47,10,107);stroke-width:5;stroke-linecap:round"></path><path d="M-107.03872430019838,409.08681341743454L-238.61979709054555,457.4904698464628" style="fill:none;stroke:rgb(0,0,0);stroke-width:1;stroke-linecap:round"></path><path d="M115.43229646071771,-191.77197785419193L125.07629945275079,-192.26443077294465L118.42316660378802,-194.6624742216229z" style="fill:rgb(41,170,178)"></path><path d="M123.41726514319413,-222.41290290163744L80.85193984220199,-204.36183501015688" style="fill:none;stroke:rgb(128,207,62);stroke-width:5;stroke-linecap:round"></path><path d="M-61.47169099565029,240.3099133404245L-59.59751005071184,249.92282018218185L-55.333900506881285,245.11356371242684zM-48.90170658706789,245.10974326063055L-51.8307309614344,252.89151316586833L-44.59542077721847,240.27147916293845zM-59.59751005071184,249.92282018218185L-51.8307309614344,252.89151316586833L-55.333900506881285,245.11356371242684zM-54.862955453976916,237.33175561920268L-48.90170658706789,245.10974326063055L-44.59542077721847,240.27147916293845z" style="fill:rgb(112,56,202)"></path><path d="M74.40504356837975,-102.46054127277617L67.745641289953,-99.3452408465792L63.252427617646426,-90.01577837133485z" style="fill:rgb(128,207,62)"></path><path d="M-54.862955453976916,237.33175561920268L-61.47169099565029,240.3099133404245L-55.333900506881285,245.11356371242684z" style="fill:rgb(112,56,202)"></path><path d="M-98.44636969277146,264.55339376198714L-55.33390050688131,245.11356371242684" style="fill:none;stroke:rgb(112,56,202);stroke-width:5;stroke-linecap:round"></path><path d="M77.41155152386555,-86.8396618731252L80.38172343171975,-94.72957105493833L63.252427617646426,-90.01577837133485z" style="fill:rgb(128,207,62)"></path><path d="M-51.8307309614344,252.89151316586833L-48.90170658706789,245.10974326063055L-55.333900506881285,245.11356371242684z" style="fill:rgb(112,56,202)"></path><path d="M80.38172343171975,-94.72957105493833L74.40504356837975,-102.46054127277617L63.252427617646426,-90.01577837133485z" style="fill:rgb(128,207,62)"></path><path d="M-48.90170658706789,245.10974326063055L-54.862955453976916,237.33175561920268L-55.333900506881285,245.11356371242684z" style="fill:rgb(112,56,202)"></path><path d="M125.77272476109424,-259.0396349746373L83.17495869684483,-241.080066017787" style="fill:none;stroke:rgb(128,207,62);stroke-width:5;stroke-linecap:round"></path><path d="M101.92508402111206,-186.0183370413601L92.55363840804772,-187.8818491284393L94.80886370270818,-184.60618193385326zM92.55363840804772,-187.8818491284393L86.29645426099411,-185.21902385782224L94.80886370270818,-184.60618193385326z" style="fill:rgb(41,170,178)"></path><path d="M-59.28633110640189,204.10137726431114L-57.41068046255634,213.72746811031806L-53.14241887550647,208.90193055052734z" style="fill:rgb(112,56,202)"></path><path d="M98.82333263773202,-247.67754933252374L94.80886370270817,-184.6061819338533" style="fill:none;stroke:rgb(41,170,178);stroke-width:5;stroke-linecap:round"></path><path d="M101.46620076532163,-182.20136322406876L101.92508402111206,-186.0183370413601L94.80886370270818,-184.60618193385326zM91.80275289922832,-181.70654749009066L86.29645426099411,-185.21902385782224L93.80723814072658,-168.8696312622344z" style="fill:rgb(41,170,178)"></path><path d="M-46.70355897211995,208.88612574516517L-49.63600195549629,216.6868497343103L-42.39564478781132,204.08203744225094zM-57.41068046255634,213.72746811031806L-49.63600195549629,216.6868497343103L-53.14241887550647,208.90193055052734zM-52.670603671460235,201.10574424235784L-46.70355897211995,208.88612574516517L-42.39564478781132,204.08203744225094z" style="fill:rgb(112,56,202)"></path><path d="M101.46620076532163,-182.20136322406876L91.80275289922832,-181.70654749009066L93.80723814072658,-168.8696312622344z" style="fill:rgb(41,170,178)"></path><path d="M76.71613742808651,-138.99028275611636L70.04965016724901,-135.8572618433195L65.55446367809033,-126.55369264664834z" style="fill:rgb(128,207,62)"></path><path d="M86.29645426099411,-185.21902385782224L91.80275289922832,-181.70654749009066L94.80886370270818,-184.60618193385326z" style="fill:rgb(41,170,178)"></path><path d="M-52.670603671460235,201.10574424235784L-59.28633110640189,204.10137726431114L-53.14241887550647,208.90193055052734z" style="fill:rgb(112,56,202)"></path><path d="M-96.28833489536994,228.2527330869388L-53.14241887550647,208.90193055052737" style="fill:none;stroke:rgb(112,56,202);stroke-width:5;stroke-linecap:round"></path><path d="M91.80275289922832,-181.70654749009066L101.46620076532163,-182.20136322406876L94.80886370270818,-184.60618193385326z" style="fill:rgb(41,170,178)"></path><path d="M79.72497533698561,-123.347946355637L82.6986414717471,-131.25700290128893L65.55446367809033,-126.55369264664834z" style="fill:rgb(128,207,62)"></path><path d="M-49.63600195549629,216.6868497343103L-46.70355897211995,208.88612574516517L-53.14241887550647,208.90193055052734z" style="fill:rgb(112,56,202)"></path><path d="M82.6986414717471,-131.25700290128893L76.71613742808651,-138.99028275611636L65.55446367809033,-126.55369264664834z" style="fill:rgb(128,207,62)"></path><path d="M-46.70355897211995,208.88612574516517L-52.670603671460235,201.10574424235784L-53.14241887550647,208.90193055052734zM-57.09693276829847,167.8259294077733L-55.219810191210144,177.46523659275357L-50.94688663932565,172.6233659513663zM-44.50134708587204,172.59553246881444L-47.43721631874575,180.41526735611578L-40.19180585889584,167.82575459171224zM-55.219810191210144,177.46523659275357L-47.43721631874575,180.41526735611578L-50.94688663932565,172.6233659513663zM-50.47419887027918,164.81276154210693L-44.50134708587204,172.59553246881444L-40.19180585889584,167.82575459171224z" style="fill:rgb(112,56,202)"></path><path d="M79.0315026475574,-175.58753844590504L72.3579155777248,-172.4367368461458L67.86075665060386,-163.15917262649273z" style="fill:rgb(128,207,62)"></path><path d="M-50.47419887027918,164.81276154210693L-57.09693276829847,167.8259294077733L-50.94688663932565,172.6233659513663z" style="fill:rgb(112,56,202)"></path><path d="M-94.1262995138467,191.8847779239242L-50.946886639325655,172.62336595136637" style="fill:none;stroke:rgb(112,56,202);stroke-width:5;stroke-linecap:round"></path><path d="M82.04267399156956,-159.9236923760638L85.0198422023591,-167.85195361785776L67.86075665060386,-163.15917262649273z" style="fill:rgb(128,207,62)"></path><path d="M-47.43721631874575,180.41526735611578L-44.50134708587204,172.59553246881444L-50.94688663932565,172.6233659513663z" style="fill:rgb(112,56,202)"></path><path d="M85.0198422023591,-167.85195361785776L79.0315026475574,-175.58753844590504L67.86075665060386,-163.15917262649273z" style="fill:rgb(128,207,62)"></path><path d="M-44.50134708587204,172.59553246881444L-50.47419887027918,164.81276154210693L-50.94688663932565,172.6233659513663z" style="fill:rgb(112,56,202)"></path><path d="M78.25124378184788,-175.93403770823525L68.86877313928841,-177.80244978736158L71.11712484282126,-174.51691307935585zM68.86877313928841,-177.80244978736158L62.59105834412742,-175.13088743512472L71.11712484282126,-174.51691307935585z" style="fill:rgb(41,170,178)"></path><path d="M75.10043682191663,-237.67578110322975L71.11712484282124,-174.51691307935596" style="fill:none;stroke:rgb(41,170,178);stroke-width:5;stroke-linecap:round"></path><path d="M77.77865793733223,-172.10528752778782L78.25124378184788,-175.93403770823525L71.11712484282126,-174.51691307935585zM68.09568940843263,-171.6080961136185L62.59105834412742,-175.13088743512472L70.12327630103822,-158.75858201826523zM77.77865793733223,-172.10528752778782L68.09568940843263,-171.6080961136185L70.12327630103822,-158.75858201826523zM62.59105834412742,-175.13088743512472L68.09568940843263,-171.6080961136185L71.11712484282126,-174.51691307935585z" style="fill:rgb(41,170,178)"></path><path d="M-54.90348477667369,131.48338412424152L-53.02488802714504,141.1359400947657L-48.747292557603494,136.2776841751339z" style="fill:rgb(112,56,202)"></path><path d="M68.09568940843263,-171.6080961136185L77.77865793733223,-172.10528752778782L71.11712484282126,-174.51691307935585z" style="fill:rgb(41,170,178)"></path><path d="M-42.29505964592484,136.2377775071595L-45.234362793658946,144.07658032504906L-37.98389272382296,131.5024452589315zM-53.02488802714504,141.1359400947657L-45.234362793658946,144.07658032504906L-48.747292557603494,136.2776841751339zM-48.273729800761934,128.45262163097445L-42.29505964592484,136.2377775071595L-37.98389272382296,131.5024452589315z" style="fill:rgb(112,56,202)"></path><path d="M81.35115107922509,-212.25249568472864L74.67044932786229,-209.08385295438907L70.17131835390123,-199.83240589748826z" style="fill:rgb(128,207,62)"></path><path d="M-48.273729800761934,128.45262163097445L-54.90348477667369,131.48338412424152L-48.747292557603494,136.2776841751339z" style="fill:rgb(112,56,202)"></path><path d="M-91.96025241340314,155.4493409726524L-48.74729255760351,136.2776841751339" style="fill:none;stroke:rgb(112,56,202);stroke-width:5;stroke-linecap:round"></path><path d="M84.36465934742172,-196.56708709471172L87.34533750900378,-204.51461058498506L70.17131835390123,-199.83240589748826z" style="fill:rgb(128,207,62)"></path><path d="M-45.234362793658946,144.07658032504906L-42.29505964592484,136.2377775071595L-48.747292557603494,136.2776841751339z" style="fill:rgb(112,56,202)"></path><path d="M87.34533750900378,-204.51461058498506L81.35115107922509,-212.25249568472864L70.17131835390123,-199.83240589748826z" style="fill:rgb(128,207,62)"></path><path d="M-42.29505964592484,136.2377775071595L-48.273729800761934,128.45262163097445L-48.747292557603494,136.2776841751339zM-52.70597588537304,95.07355507974258L-50.82590271933158,104.7393923947239L-46.54362534797445,99.86469879412793zM-40.084685328080454,99.81267424697702L-43.02743008101924,107.6706022471024L-35.771894074248166,95.11192340556732zM-50.82590271933158,104.7393923947239L-43.02743008101924,107.6706022471024L-46.54362534797445,99.86469879412793zM-46.06918517156496,92.02513793290845L-40.084685328080454,99.81267424697702L-35.771894074248166,95.11192340556732z" style="fill:rgb(112,56,202)"></path><path d="M83.67509461941464,-248.9853425089483L76.98726326784802,-245.7987979599721L72.48616065048776,-236.57358074130894z" style="fill:rgb(128,207,62)"></path><path d="M-46.06918517156496,92.02513793290845L-52.70597588537304,95.07355507974258L-46.54362534797445,99.86469879412793z" style="fill:rgb(112,56,202)"></path><path d="M-89.79018241788043,118.94623423710495L-46.543625347974455,99.86469879412795" style="fill:none;stroke:rgb(112,56,202);stroke-width:5;stroke-linecap:round"></path><path d="M-191.08847759304558,-125.44834277291731L239.54306692795473,-307.00614810840955L236.53496417775554,-481.8744823740089z" style="fill:rgb(0,0,0); fill-opacity: 0.2"></path><path d="M86.69094330825763,-233.27831836485316L89.67513932114959,-241.2451618770176L72.48616065048776,-236.57358074130894z" style="fill:rgb(128,207,62)"></path><path d="M-195.81113235300145,-304.91614508214116L236.53496417775563,-481.8744823740089L61.873176476061026,-542.3929551490996z" style="fill:rgb(0,0,0); fill-opacity: 0.2"></path><path d="M54.49966535009189,-165.81662438959813L45.106147735028,-167.6899586195143L47.34756850690908,-164.39450518673883z" style="fill:rgb(41,170,178)"></path><path d="M-43.02743008101924,107.6706022471024L-40.084685328080454,99.81267424697702L-46.54362534797445,99.86469879412793z" style="fill:rgb(112,56,202)"></path><path d="M89.67513932114959,-241.2451618770176L83.67509461941464,-248.9853425089483L72.48616065048776,-236.57358074130894z" style="fill:rgb(128,207,62)"></path><path d="M-40.084685328080454,99.81267424697702L-46.06918517156496,92.02513793290845L-46.54362534797445,99.86469879412793z" style="fill:rgb(112,56,202)"></path><path d="M45.106147735028,-167.6899586195143L38.8078010800818,-165.00961611372517L47.34756850690908,-164.39450518673883z" style="fill:rgb(41,170,178)"></path><path d="M51.299496833635125,-227.64110880814565L47.34756850690908,-164.3945051867389" style="fill:none;stroke:rgb(41,170,178);stroke-width:5;stroke-linecap:round"></path><path d="M54.013289302810854,-161.97604101089553L54.49966535009189,-165.81662438959813L47.34756850690908,-164.39450518673883zM44.310723889570674,-161.4764609629155L38.8078010800818,-165.00961611372517L46.36155350647859,-148.61433542119764zM54.013289302810854,-161.97604101089553L44.310723889570674,-161.4764609629155L46.36155350647859,-148.61433542119764zM38.8078010800818,-165.00961611372517L44.310723889570674,-161.4764609629155L47.34756850690908,-164.39450518673883zM44.310723889570674,-161.4764609629155L54.013289302810854,-161.97604101089553L47.34756850690908,-164.39450518673883z" style="fill:rgb(41,170,178)"></path><path d="M-50.50439480656167,58.59625524971502L-48.62284297504689,68.27540658090852L-44.335873686249606,63.384222689566336zM-37.870212766148796,63.3200353830464L-40.81640683972397,71.19714603730894L-33.55579855993825,58.65400230415127zM-48.62284297504689,68.27540658090852L-40.81640683972397,71.19714603730894L-44.335873686249606,63.384222689566336zM-43.8605536494798,55.5301231800894L-37.870212766148796,63.3200353830464L-33.55579855993825,58.65400230415127zM-43.8605536494798,55.5301231800894L-50.50439480656167,58.59625524971502L-44.335873686249606,63.384222689566336z" style="fill:rgb(112,56,202)"></path><path d="M-87.61607830956727,82.37526902230225L-44.33587368624962,63.38422268956635" style="fill:none;stroke:rgb(112,56,202);stroke-width:5;stroke-linecap:round"></path><path d="M-40.81640683972397,71.19714603730894L-37.870212766148796,63.3200353830464L-44.335873686249606,63.384222689566336zM-37.870212766148796,63.3200353830464L-43.8605536494798,55.5301231800894L-44.335873686249606,63.384222689566336zM-48.298730210531154,22.051296915806883L-46.41569745968146,31.743795048310805L-42.12402620622281,26.836068048381833zM-35.65163055175259,26.759672914938978L-38.601281686590326,34.656023916538146L-31.335594788577342,22.128494534894084z" style="fill:rgb(112,56,202)"></path><path d="M30.669965190793246,-155.66593371177467L21.26537862241333,-157.54421239053167L23.499810667381038,-154.23879471555327z" style="fill:rgb(41,170,178)"></path><path d="M-46.41569745968146,31.743795048310805L-38.601281686590326,34.656023916538146L-42.12402620622281,26.836068048381833zM-41.64782385923893,18.967389409721076L-35.65163055175259,26.759672914938978L-31.335594788577342,22.128494534894084z" style="fill:rgb(112,56,202)"></path><path d="M21.26537862241333,-157.54421239053167L14.9462982296402,-154.85504637567803L23.499810667381038,-154.23879471555327z" style="fill:rgb(41,170,178)"></path><path d="M-41.64782385923893,18.967389409721076L-48.298730210531154,22.051296915806883L-42.12402620622281,26.836068048381833z" style="fill:rgb(112,56,202)"></path><path d="M-85.43792882900655,45.73625593105229L-42.12402620622283,26.836068048381854" style="fill:none;stroke:rgb(112,56,202);stroke-width:5;stroke-linecap:round"></path><path d="M-38.601281686590326,34.656023916538146L-35.65163055175259,26.759672914938978L-42.12402620622281,26.836068048381833z" style="fill:rgb(112,56,202)"></path><path d="M27.420126910854208,-217.57336980682166L23.499810667381038,-154.23879471555338" style="fill:none;stroke:rgb(41,170,178);stroke-width:5;stroke-linecap:round"></path><path d="M30.169710683719522,-151.81345992949576L30.669965190793246,-155.66593371177467L23.499810667381038,-154.23879471555327zM20.4474717285768,-151.31147820468175L14.9462982296402,-154.85504637567803L22.5216861614484,-138.43672770814354z" style="fill:rgb(41,170,178)"></path><path d="M-35.65163055175259,26.759672914938978L-41.64782385923893,18.967389409721076L-42.12402620622281,26.836068048381833z" style="fill:rgb(112,56,202)"></path><path d="M30.169710683719522,-151.81345992949576L20.4474717285768,-151.31147820468175L22.5216861614484,-138.43672770814354zM14.9462982296402,-154.85504637567803L20.4474717285768,-151.31147820468175L23.499810667381038,-154.23879471555327zM20.4474717285768,-151.31147820468175L30.169710683719522,-151.81345992949576L23.499810667381038,-154.23879471555327z" style="fill:rgb(41,170,178)"></path><path d="M-46.088970725505085,-14.56150833734426L-44.20445479654457,-4.855630504584205L-39.908071499475675,-9.779953640000752zM-33.4289272341316,-9.868601856209896L-36.38204319615981,-1.9529525917266486L-29.1112713255716,-14.464788017525569zM-44.20445479654457,-4.855630504584205L-36.38204319615981,-1.9529525917266486L-39.908071499475675,-9.779953640000752zM-39.430984383320386,-17.663252039196568L-33.4289272341316,-9.868601856209896L-29.1112713255716,-14.464788017525569zM-39.430984383320386,-17.663252039196568L-46.088970725505085,-14.56150833734426L-39.908071499475675,-9.779953640000752z" style="fill:rgb(112,56,202)"></path><path d="M-83.25572267480108,9.029004860681285L-39.908071499475696,-9.779953640000729" style="fill:none;stroke:rgb(112,56,202);stroke-width:5;stroke-linecap:round"></path><path d="M-36.38204319615981,-1.9529525917266486L-33.4289272341316,-9.868601856209896L-39.908071499475675,-9.779953640000752z" style="fill:rgb(112,56,202)"></path><path d="M-195.81113235300148,-304.9161450821412L-238.61979709054555,457.4904698464628" style="fill:none;stroke:rgb(0,0,0);stroke-width:1;stroke-linecap:round"></path><path d="M-33.4289272341316,-9.868601856209896L-39.430984383320386,-17.663252039196568L-39.908071499475675,-9.779953640000752z" style="fill:rgb(112,56,202)"></path><path d="M6.761757241761661,-145.48180122461034L-2.653920298332519,-147.36504679068284L-0.42653523440758256,-144.04961704748578zM-2.653920298332519,-147.36504679068284L-8.993836978831382,-144.667013625335L-0.42653523440758256,-144.04961704748578z" style="fill:rgb(41,170,178)"></path><path d="M-43.87510493744369,-51.24234962534968L-41.98910356666898,-41.52305907903333L-37.687998115181315,-46.46403158690606zM-31.20209131994556,-46.56497833094785L-34.15867990050194,-38.62997266462897L-26.882816693852902,-51.12603416719106zM-41.98910356666898,-41.52305907903333L-34.15867990050194,-38.62997266462897L-37.687998115181315,-46.46403158690606z" style="fill:rgb(112,56,202)"></path><path d="M3.4619387449840313,-207.47240038515852L-0.42653523440758984,-144.0496170474858" style="fill:none;stroke:rgb(41,170,178);stroke-width:5;stroke-linecap:round"></path><path d="M6.247535369252668,-141.61737946017925L6.761757241761661,-145.48180122461034L-0.42653523440758256,-144.04961704748578zM-3.4944542246517565,-141.1129829253468L-8.993836978831382,-144.667013625335L-1.3967118568484538,-128.22559403731523z" style="fill:rgb(41,170,178)"></path><path d="M-37.21002376175149,-54.36199052911189L-31.20209131994556,-46.56497833094785L-26.882816693852902,-51.12603416719106zM-37.21002376175149,-54.36199052911189L-43.87510493744369,-51.24234962534968L-37.687998115181315,-46.46403158690606z" style="fill:rgb(112,56,202)"></path><path d="M-81.06944850341804,-27.746675000254587L-37.68799811518133,-46.464031586906046" style="fill:none;stroke:rgb(112,56,202);stroke-width:5;stroke-linecap:round"></path><path d="M6.247535369252668,-141.61737946017925L-3.4944542246517565,-141.1129829253468L-1.3967118568484538,-128.22559403731523zM-8.993836978831382,-144.667013625335L-3.4944542246517565,-141.1129829253468L-0.42653523440758256,-144.04961704748578z" style="fill:rgb(41,170,178)"></path><path d="M-34.15867990050194,-38.62997266462897L-31.20209131994556,-46.56497833094785L-37.687998115181315,-46.46403158690606z" style="fill:rgb(112,56,202)"></path><path d="M-3.4944542246517565,-141.1129829253468L6.247535369252668,-141.61737946017925L-0.42653523440758256,-144.04961704748578z" style="fill:rgb(41,170,178)"></path><path d="M-31.20209131994556,-46.56497833094785L-37.21002376175149,-54.36199052911189L-37.687998115181315,-46.46403158690606z" style="fill:rgb(112,56,202)"></path><path d="M-411.5493988822459,389.33152890779525L-372.4207538459606,-368.5958962108691L-238.6197970905455,457.4904698464629z" style="fill:rgb(0,0,0); fill-opacity: 0.2"></path><path d="M-41.657121389847276,-87.99141676732548L-39.76963230861425,-78.25868037928845L-35.463794559907136,-83.2163557076671zM-28.971111273076072,-83.32964661476981L-31.931180289016627,-75.37522618319774L-24.65021937368154,-87.85543343019502zM-39.76963230861425,-78.25868037928845L-31.931180289016627,-75.37522618319774L-35.463794559907136,-83.2163557076671zM-34.98493049191129,-91.12901612718521L-28.971111273076072,-83.32964661476981L-24.65021937368154,-87.85543343019502zM-34.98493049191129,-91.12901612718521L-41.657121389847276,-87.99141676732548L-35.463794559907136,-83.2163557076671z" style="fill:rgb(112,56,202)"></path><path d="M-78.87909492899247,-64.59097517527523L-35.46379455990715,-83.21635570766709" style="fill:none;stroke:rgb(112,56,202);stroke-width:5;stroke-linecap:round"></path><path d="M-31.931180289016627,-75.37522618319774L-28.971111273076072,-83.32964661476981L-35.463794559907136,-83.2163557076671zM-28.971111273076072,-83.32964661476981L-34.98493049191129,-91.12901612718521L-35.463794559907136,-83.2163557076671z" style="fill:rgb(112,56,202)"></path><path d="M-17.225347107181594,-135.2640613925888L-26.652137674753224,-137.15229642600207L-24.431858309042507,-133.82680647746335zM-26.652137674753224,-137.15229642600207L-33.012993870281214,-134.44535218045203L-24.431858309042507,-133.82680647746335z" style="fill:rgb(41,170,178)"></path><path d="M-20.575458540170455,-197.33803574653382L-24.431858309042514,-133.82680647746338" style="fill:none;stroke:rgb(41,170,178);stroke-width:5;stroke-linecap:round"></path><path d="M-17.753625905070024,-131.38763369111263L-17.225347107181594,-135.2640613925888L-24.431858309042507,-133.82680647746335zM-27.515443677191847,-130.8808091221507L-33.012993870281214,-134.44535218045203L-25.394029219251696,-117.98076847912608zM-17.753625905070024,-131.38763369111263L-27.515443677191847,-130.8808091221507L-25.394029219251696,-117.98076847912608z" style="fill:rgb(41,170,178)"></path><path d="M-39.43500858355865,-124.80890028916659L-37.54602951826919,-115.0626848158679L-33.23544929741659,-120.03711662490237z" style="fill:rgb(112,56,202)"></path><path d="M-33.012993870281214,-134.44535218045203L-27.515443677191847,-130.8808091221507L-24.431858309042507,-133.82680647746335z" style="fill:rgb(41,170,178)"></path><path d="M-26.735975514427434,-120.1627975214007L-29.699532808235585,-112.1889037356238L-22.413467802447602,-124.65317602790478zM-37.54602951826919,-115.0626848158679L-29.699532808235585,-112.1889037356238L-33.23544929741659,-120.03711662490237zM-32.755693028332004,-127.96451960856938L-26.735975514427434,-120.1627975214007L-22.413467802447602,-124.65317602790478z" style="fill:rgb(112,56,202)"></path><path d="M-27.515443677191847,-130.8808091221507L-17.753625905070024,-131.38763369111263L-24.431858309042507,-133.82680647746335z" style="fill:rgb(41,170,178)"></path><path d="M-32.755693028332004,-127.96451960856938L-39.43500858355865,-124.80890028916659L-33.23544929741659,-120.03711662490237z" style="fill:rgb(112,56,202)"></path><path d="M-76.68465052312965,-101.50408790330124L-33.23544929741661,-120.03711662490235" style="fill:none;stroke:rgb(112,56,202);stroke-width:5;stroke-linecap:round"></path><path d="M-29.699532808235585,-112.1889037356238L-26.735975514427434,-120.1627975214007L-33.23544929741659,-120.03711662490237zM-26.735975514427434,-120.1627975214007L-32.755693028332004,-127.96451960856938L-33.23544929741659,-120.03711662490237zM-37.20875497656428,-161.69499142684015L-35.318283648653,-151.93526350884676L-31.002950748469587,-156.92650567181207zM-24.496672421726252,-157.06462257609687L-27.46372586162255,-149.07119662055547L-20.17255037447144,-161.5194528902467zM-35.318283648653,-151.93526350884676L-27.46372586162255,-149.07119662055547L-31.002950748469587,-156.92650567181207zM-30.522299782499353,-164.86869245971022L-24.496672421726252,-157.06462257609687L-20.17255037447144,-161.5194528902467zM-30.522299782499353,-164.86869245971022L-37.20875497656428,-161.69499142684015L-31.002950748469587,-156.92650567181207z" style="fill:rgb(112,56,202)"></path><path d="M-74.48610381470617,-138.48620614199777L-31.002950748469615,-156.92650567181207" style="fill:none;stroke:rgb(112,56,202);stroke-width:5;stroke-linecap:round"></path><path d="M-27.46372586162255,-149.07119662055547L-24.496672421726252,-157.06462257609687L-31.002950748469587,-156.92650567181207zM-24.496672421726252,-157.06462257609687L-30.522299782499353,-164.86869245971022L-31.002950748469587,-156.92650567181207z" style="fill:rgb(112,56,202)"></path><path d="M-41.2917390352589,-125.01254758586326L-50.72966472320918,-126.9057948093306L-48.5165502401438,-123.57019620467119zM-50.72966472320918,-126.9057948093306L-57.11156434407672,-124.18989526320796L-48.5165502401438,-123.57019620467119z" style="fill:rgb(41,170,178)"></path><path d="M-44.692458409666415,-187.17011000283927L-48.516550240143815,-123.57019620467123" style="fill:none;stroke:rgb(41,170,178);stroke-width:5;stroke-linecap:round"></path><path d="M-41.83416497851724,-121.12405561303933L-41.2917390352589,-125.01254758586326L-48.5165502401438,-123.57019620467119zM-51.615888914239,-120.61478969413751L-57.11156434407672,-124.18989526320796L-49.47065716569732,-107.70208400720249z" style="fill:rgb(41,170,178)"></path><path d="M-238.61979709054555,457.4904698464628L-195.81113235300148,-304.9161450821412L-107.03872430019838,409.08681341743454z" style="fill:rgb(0,0,0); fill-opacity: 0.2"></path><path d="M-41.83416497851724,-121.12405561303933L-51.615888914239,-120.61478969413751L-49.47065716569732,-107.70208400720249zM-57.11156434407672,-124.18989526320796L-51.615888914239,-120.61478969413751L-48.5165502401438,-123.57019620467119zM-51.615888914239,-120.61478969413751L-41.83416497851724,-121.12405561303933L-48.5165502401438,-123.57019620467119z" style="fill:rgb(41,170,178)"></path><path d="M-34.97834898379462,-198.6498821296958L-33.08638310971547,-188.87660829116467L-28.766287290622046,-193.88471489549173zM-22.253190329320052,-194.03531401896566L-25.22374780937244,-186.02229685041175L-17.927455440802916,-198.454455659008zM-33.08638310971547,-188.87660829116467L-25.22374780937244,-186.02229685041175L-28.766287290622046,-193.88471489549173zM-28.284739122651747,-201.84172688166393L-22.253190329320052,-194.03531401896566L-17.927455440802916,-198.454455659008zM-28.284739122651747,-201.84172688166393L-34.97834898379462,-198.6498821296958L-28.766287290622046,-193.88471489549173z" style="fill:rgb(112,56,202)"></path><path d="M-72.28344328967032,-175.53752357113632L-28.766287290622074,-193.88471489549167" style="fill:none;stroke:rgb(112,56,202);stroke-width:5;stroke-linecap:round"></path><path d="M-372.4207538459606,-368.5958962108691L61.873176476061026,-542.3929551490996L-195.81113235300145,-304.91614508214116z" style="fill:rgb(0,0,0); fill-opacity: 0.2"></path><path d="M-25.22374780937244,-186.02229685041175L-22.253190329320052,-194.03531401896566L-28.766287290622046,-193.88471489549173zM-22.253190329320052,-194.03531401896566L-28.284739122651747,-201.84172688166393L-28.766287290622046,-193.88471489549173z" style="fill:rgb(112,56,202)"></path><path d="M-65.43781231200103,-114.7270920711985L-74.88689525013599,-116.62537435126963L-72.68100530566933,-113.27961832348002zM-74.88689525013599,-116.62537435126963L-81.28994289531904,-113.90047499113365L-72.68100530566933,-113.27961832348002z" style="fill:rgb(41,170,178)"></path><path d="M-68.82464367384745,-113.28441015316187L-78.27529039505693,-115.18339917414765L-76.07041667357224,-111.83621719739546z" style="fill:rgb(197,147,42)"></path><path d="M-68.88945693889211,-176.9684561654295L-72.68100530566933,-113.27961832348005" style="fill:none;stroke:rgb(41,170,178);stroke-width:5;stroke-linecap:round"></path><path d="M-65.9944762864702,-110.82647711019087L-65.43781231200103,-114.7270920711985L-72.68100530566933,-113.27961832348002zM-75.7961848204625,-110.31475643305853L-81.28994289531904,-113.90047499113365L-73.62698952647993,-97.38937248930665z" style="fill:rgb(41,170,178)"></path><path d="M-78.27529039505693,-115.18339917414765L-84.68130715009896,-112.45723627108613L-76.07041667357224,-111.83621719739546z" style="fill:rgb(197,147,42)"></path><path d="M-65.9944762864702,-110.82647711019087L-75.7961848204625,-110.31475643305853L-73.62698952647993,-97.38937248930665zM-81.28994289531904,-113.90047499113365L-75.7961848204625,-110.31475643305853L-72.68100530566933,-113.27961832348002z" style="fill:rgb(41,170,178)"></path><path d="M-72.28344328967022,-175.5375235711364L-76.07041667357225,-111.83621719739548" style="fill:none;stroke:rgb(197,147,42);stroke-width:5;stroke-linecap:round"></path><path d="M-69.3833082635407,-109.38209326628909L-68.82464367384745,-113.28441015316187L-76.07041667357224,-111.83621719739546zM-79.18782092610418,-108.87002784772329L-84.68130715009896,-112.45723627108613L-77.01525900419374,-95.94286789801853z" style="fill:rgb(197,147,42)"></path><path d="M-75.7961848204625,-110.31475643305853L-65.9944762864702,-110.82647711019087L-72.68100530566933,-113.27961832348002z" style="fill:rgb(41,170,178)"></path><path d="M-69.3833082635407,-109.38209326628909L-79.18782092610418,-108.87002784772329L-77.01525900419374,-95.94286789801853zM-84.68130715009896,-112.45723627108613L-79.18782092610418,-108.87002784772329L-76.07041667357224,-111.83621719739546zM-79.18782092610418,-108.87002784772329L-69.3833082635407,-109.38209326628909L-76.07041667357224,-111.83621719739546z" style="fill:rgb(197,147,42)"></path><path d="M-107.03872430019838,409.08681341743454L-72.28344328967032,-175.53752357113632L-195.81113235300148,-304.9161450821412z" style="fill:rgb(0,0,0); fill-opacity: 0.2"></path><path d="M-89.66396331872323,-104.40752600282227L-99.12422567351491,-106.31086635104371L-96.92562039943012,-102.95490381428397zM-99.12422567351491,-106.31086635104371L-105.54852663636943,-103.57692236795118L-96.92562039943012,-102.95490381428397z" style="fill:rgb(41,170,178)"></path><path d="M-93.16685283524976,-166.73290613598053L-96.92562039943012,-102.95490381428398" style="fill:none;stroke:rgb(41,170,178);stroke-width:5;stroke-linecap:round"></path><path d="M-90.2349568819588,-100.49472895110779L-89.66396331872323,-104.40752600282227L-96.92562039943012,-102.95490381428397zM-100.05672890157246,-99.98054001418542L-105.54852663636943,-103.57692236795118L-97.86342274372642,-87.04246467816934zM-90.2349568819588,-100.49472895110779L-100.05672890157246,-99.98054001418542L-97.86342274372642,-87.04246467816934zM-105.54852663636943,-103.57692236795118L-100.05672890157246,-99.98054001418542L-96.92562039943012,-102.95490381428397z" style="fill:rgb(41,170,178)"></path><path d="M-72.28344328967032,-175.53752357113632L-191.08847759304558,-125.44834277291731" style="fill:none;stroke:rgb(104,70,1);stroke-width:5;stroke-linecap:round"></path><path d="M-72.28344328967032,-175.53752357113632L-195.81113235300148,-304.9161450821412M-72.28344328967032,-175.53752357113632L-195.81113235300148,-304.9161450821412" style="fill:none;stroke:rgb(0,0,0);stroke-width:1;stroke-linecap:round"></path><path d="M-100.05672890157246,-99.98054001418542L-90.2349568819588,-100.49472895110779L-96.92562039943012,-102.95490381428397z" style="fill:rgb(41,170,178)"></path><path d="M-98.28358187543574,-100.73584397807491L-107.74781826133813,-102.6409855026152L-105.55181359821053,-99.28138778880178zM-107.74781826133813,-102.6409855026152L-114.17968960834767,-99.90381984508214L-105.55181359821053,-99.28138778880178z" style="fill:rgb(197,147,42)"></path><path d="M-101.80474064691623,-163.0911015032874L-105.55181359821056,-99.28138778880182" style="fill:none;stroke:rgb(197,147,42);stroke-width:5;stroke-linecap:round"></path><path d="M-98.85968459117827,-96.81870799594135L-98.28358187543574,-100.73584397807491L-105.55181359821053,-99.28138778880178zM-108.68859820759005,-96.30363956176436L-114.17968960834767,-99.90381984508214L-106.48669705887205,-83.3610556371117zM-98.85968459117827,-96.81870799594135L-108.68859820759005,-96.30363956176436L-106.48669705887205,-83.3610556371117zM-114.17968960834767,-99.90381984508214L-108.68859820759005,-96.30363956176436L-105.55181359821053,-99.28138778880178zM-108.68859820759005,-96.30363956176436L-98.85968459117827,-96.81870799594135L-105.55181359821053,-99.28138778880178z" style="fill:rgb(197,147,42)"></path><path d="M-195.81113235300148,-304.9161450821412L236.53496417775554,-481.8744823740089L-191.08847759304558,-125.44834277291731z" style="fill:rgb(0,0,0); fill-opacity: 0.2"></path><path d="M-113.9705910702155,-94.05367941318653L-123.44205504455705,-95.96210098727242L-121.25079505282001,-92.5958825342466zM-123.44205504455705,-95.96210098727242L-129.88771531859072,-93.21906727432153L-121.25079505282001,-92.5958825342466z" style="fill:rgb(41,170,178)"></path><path d="M-117.52504746005481,-156.4632906972566L-121.25079505282001,-92.59588253424663" style="fill:none;stroke:rgb(41,170,178);stroke-width:5;stroke-linecap:round"></path><path d="M-114.55600645741261,-90.12864077936871L-113.9705910702155,-94.05367941318653L-121.25079505282001,-92.5958825342466zM-124.39792130610276,-89.61196998703139L-129.88771531859072,-93.21906727432153L-122.18035589308357,-76.66119020223093zM-114.55600645741261,-90.12864077936871L-124.39792130610276,-89.61196998703139L-122.18035589308357,-76.66119020223093zM-129.88771531859072,-93.21906727432153L-124.39792130610276,-89.61196998703139L-121.25079505282001,-92.5958825342466zM-124.39792130610276,-89.61196998703139L-114.55600645741261,-90.12864077936871L-121.25079505282001,-92.5958825342466z" style="fill:rgb(41,170,178)"></path><path d="M-127.8615320643479,-88.13658249997526L-137.33939091039244,-90.04791079115586L-135.15234503598288,-86.6758242344383zM-137.33939091039244,-90.04791079115586L-143.79727368896485,-87.2996756340424L-135.15234503598288,-86.6758242344383z" style="fill:rgb(197,147,42)"></path><path d="M-131.4455265500897,-150.59430208051097L-135.15234503598288,-86.67582423443835" style="fill:none;stroke:rgb(197,147,42);stroke-width:5;stroke-linecap:round"></path><path d="M-128.45520942363694,-84.2045393947725L-127.8615320643479,-88.13658249997526L-135.15234503598288,-86.6758242344383zM-138.30864136314287,-83.68644782515436L-143.79727368896485,-87.2996756340424L-136.07718136251637,-70.72842069316938zM-128.45520942363694,-84.2045393947725L-138.30864136314287,-83.68644782515436L-136.07718136251637,-70.72842069316938zM-143.79727368896485,-87.2996756340424L-138.30864136314287,-83.68644782515436L-135.15234503598288,-86.6758242344383zM-138.30864136314287,-83.68644782515436L-128.45520942363694,-84.2045393947725L-135.15234503598288,-86.6758242344383z" style="fill:rgb(197,147,42)"></path><path d="M-238.6197970905455,457.4904698464629L-195.81113235300145,-304.91614508214116L-372.4207538459606,-368.5958962108691z" style="fill:rgb(0,0,0); fill-opacity: 0.2"></path><path d="M-138.35809723664926,-83.66538120363546L-147.84078506960387,-85.57890730865057L-145.65693145676238,-82.20238320795497zM-147.84078506960387,-85.57890730865057L-154.30791135430536,-82.8267384585002L-145.65693145676238,-82.20238320795497z" style="fill:rgb(41,170,178)"></path><path d="M-141.96444485065413,-146.15943950378514L-145.65693145676238,-82.20238320795498" style="fill:none;stroke:rgb(41,170,178);stroke-width:5;stroke-linecap:round"></path><path d="M-138.95802736662884,-79.7280411042276L-138.35809723664926,-83.66538120363546L-145.65693145676238,-82.20238320795497zM-148.8201648474108,-79.20887476597989L-154.30791135430536,-82.8267384585002L-146.57819070562195,-66.24537755629028zM-138.95802736662884,-79.7280411042276L-148.8201648474108,-79.20887476597989L-146.57819070562195,-66.24537755629028zM-154.30791135430536,-82.8267384585002L-148.8201648474108,-79.20887476597989L-145.65693145676238,-82.20238320795497zM-148.8201648474108,-79.20887476597989L-138.95802736662884,-79.7280411042276L-145.65693145676238,-82.20238320795497z" style="fill:rgb(41,170,178)"></path><path d="M-157.55921690010808,-75.48631788900158L-167.0507310664065,-77.40386747518755L-164.8727345839113,-74.01921838618037z" style="fill:rgb(197,147,42)"></path><path d="M-195.81113235300145,-304.91614508214116L-372.4207538459606,-368.5958962108691M-195.81113235300145,-304.91614508214116L-372.4207538459606,-368.5958962108691" style="fill:none;stroke:rgb(0,0,0);stroke-width:1;stroke-linecap:round"></path><path d="M-167.0507310664065,-77.40386747518755L-173.5347833872712,-74.64449553243719L-164.8727345839113,-74.01921838618037z" style="fill:rgb(197,147,42)"></path><path d="M-161.2065279217956,-138.04681882625067L-164.8727345839113,-74.01921838618041" style="fill:none;stroke:rgb(197,147,42);stroke-width:5;stroke-linecap:round"></path><path d="M-158.17060665161196,-71.5392789269709L-157.55921690010808,-75.48631788900158L-164.8727345839113,-74.01921838618037zM-168.04867511062085,-71.01814393124738L-173.5347833872712,-74.64449553243719L-165.78743468391409,-58.04465450502884zM-158.17060665161196,-71.5392789269709L-168.04867511062085,-71.01814393124738L-165.78743468391409,-58.04465450502884z" style="fill:rgb(197,147,42)"></path><path d="M-162.82688616570303,-73.24245913498088L-172.32082013224664,-75.16111322453466L-170.1444344838767,-71.77423341797987z" style="fill:rgb(41,170,178)"></path><path d="M-173.5347833872712,-74.64449553243719L-168.04867511062085,-71.01814393124738L-164.8727345839113,-74.01921838618037z" style="fill:rgb(197,147,42)"></path><path d="M-172.32082013224664,-75.16111322453466L-178.80951983897333,-72.39976352689888L-170.1444344838767,-71.77423341797987z" style="fill:rgb(41,170,178)"></path><path d="M-168.04867511062085,-71.01814393124738L-158.17060665161196,-71.5392789269709L-164.8727345839113,-74.01921838618037z" style="fill:rgb(197,147,42)"></path><path d="M-166.48545174276637,-135.8211810724377L-170.14443448387667,-71.77423341797987" style="fill:none;stroke:rgb(41,170,178);stroke-width:5;stroke-linecap:round"></path><path d="M-163.44142464696066,-69.29275729115639L-162.82688616570303,-73.24245913498088L-170.1444344838767,-71.77423341797987zM-173.32386502589827,-68.77108162081961L-178.80951983897333,-72.39976352689888L-171.05733158995952,-55.794854092060106zM-163.44142464696066,-69.29275729115639L-173.32386502589827,-68.77108162081961L-171.05733158995952,-55.794854092060106zM-178.80951983897333,-72.39976352689888L-173.32386502589827,-68.77108162081961L-170.1444344838767,-71.77423341797987zM-173.32386502589827,-68.77108162081961L-163.44142464696066,-69.29275729115639L-170.1444344838767,-71.77423341797987zM-187.37736490490997,-62.78473981798281L-196.882567315668,-64.70854549543546L-194.71371171086622,-61.31125959534161z" style="fill:rgb(41,170,178)"></path><path d="M-187.37736490491005,-62.78473981798281L-196.882567315668,-64.70854549543543L-194.71371171086622,-61.311259595341575z" style="fill:rgb(197,147,42)"></path><path d="M-196.882567315668,-64.70854549543546L-203.39294857359235,-61.93796893455282L-194.71371171086622,-61.31125959534161z" style="fill:rgb(41,170,178)"></path><path d="M-196.882567315668,-64.70854549543543L-203.39294857359243,-61.937968934552785L-194.71371171086622,-61.311259595341575z" style="fill:rgb(197,147,42)"></path><path d="M-191.08847759304558,-125.44834277291731L-194.71371171086625,-61.31125959534161" style="fill:none;stroke:rgb(41,170,178);stroke-width:5;stroke-linecap:round"></path><path d="M-191.08847759304558,-125.44834277291731L-194.71371171086625,-61.31125959534161" style="fill:none;stroke:rgb(197,147,42);stroke-width:5;stroke-linecap:round"></path><path d="M-188.00660604172728,-58.822615552293435L-187.37736490490997,-62.78473981798281L-194.71371171086622,-61.31125959534161z" style="fill:rgb(41,170,178)"></path><path d="M-188.00660604172728,-58.822615552293406L-187.37736490491005,-62.78473981798281L-194.71371171086622,-61.311259595341575z" style="fill:rgb(197,147,42)"></path><path d="M-197.90943005145354,-58.29841666718425L-203.39294857359235,-61.93796893455282L-195.6181856546056,-45.30944600862754z" style="fill:rgb(41,170,178)"></path><path d="M-197.90943005145363,-58.29841666718425L-203.39294857359243,-61.937968934552785L-195.6181856546056,-45.3094460086275z" style="fill:rgb(197,147,42)"></path><path d="M-188.00660604172728,-58.822615552293435L-197.90943005145354,-58.29841666718425L-195.6181856546056,-45.30944600862754z" style="fill:rgb(41,170,178)"></path><path d="M-188.00660604172728,-58.822615552293406L-197.90943005145363,-58.29841666718425L-195.6181856546056,-45.3094460086275z" style="fill:rgb(197,147,42)"></path><path d="M-203.39294857359235,-61.93796893455282L-197.90943005145354,-58.29841666718425L-194.71371171086622,-61.31125959534161z" style="fill:rgb(41,170,178)"></path><path d="M-203.39294857359243,-61.937968934552785L-197.90943005145363,-58.29841666718425L-194.71371171086622,-61.311259595341575z" style="fill:rgb(197,147,42)"></path><path d="M-72.28344328967032,-175.53752357113632L-191.08847759304558,-125.44834277291731L-195.81113235300148,-304.9161450821412z" style="fill:rgb(0,0,0); fill-opacity: 0.2"></path><path d="M-197.90943005145354,-58.29841666718425L-188.00660604172728,-58.822615552293435L-194.71371171086622,-61.31125959534161z" style="fill:rgb(41,170,178)"></path><path d="M-197.90943005145363,-58.29841666718425L-188.00660604172728,-58.822615552293406L-194.71371171086622,-61.311259595341575z" style="fill:rgb(197,147,42)"></path><path d="M-195.81113235300148,-304.9161450821412L-195.81113235300148,-304.9161450821412L-72.28344328967032,-175.53752357113632z" style="fill:rgb(0,0,0); fill-opacity: 0.2"></path><path d="M-191.08847759304558,-125.44834277291731L-195.81113235300148,-304.9161450821412M-191.08847759304558,-125.44834277291731L-195.81113235300148,-304.9161450821412M-195.81113235300148,-304.9161450821412L-195.81113235300148,-304.9161450821412" style="fill:none;stroke:rgb(0,0,0);stroke-width:1;stroke-linecap:round"></path></svg>