<svg viewBox="-812 -590 1624 1180" width="1624" height="1180" style="background-color: rgb(255, 255, 255);"><path d="M15.83518316242262,197.08841355138054L61.873176476061026,-542.3929551490996M186.9086801934662,261.88127362653L15.83518316242262,197.08841355138054M186.90868019346615,261.88127362653L236.53496417775554,-481.8744823740089M77.57372846027035,325.3988251789118L186.90868019346615,261.88127362653M218.28180194345921,273.7636184838346L77.57372846027035,325.3988251789118M218.28180194345921,273.7636184838346L243.1899769034122,-95.0023950508991M310.79285495900564,308.80151633164286L218.28180194345921,273.7636184838346" style="fill:none;stroke:rgb(0,0,0);stroke-width:1;stroke-linecap:round"></path><path d="M236.53496417775563,-481.8744823740089L186.9086801934662,261.88127362653L15.83518316242262,197.08841355138054z" style="fill:rgb(0,0,0); fill-opacity: 0.2"></path><path d="M336.6734226632521,-61.09120435805862L310.79285495900564,308.80151633164286" style="fill:none;stroke:rgb(58,110,14);stroke-width:5;stroke-linecap:round"></path><path d="M310.79285495900564,308.80151633164286L363.67945709635705,328.8319375927088M313.3590932811842,272.1240799718116L366.30107355402794,292.09144135873737" style="fill:none;stroke:rgb(128,207,62);stroke-width:5;stroke-linecap:round"></path><path d="M336.6734226632521,-61.09120435805862L310.79285495900564,308.80151633164286L218.28180194345921,273.7636184838346z" style="fill:rgb(0,0,0); fill-opacity: 0.2"></path><path d="M315.9301437797133,235.37786656570108L368.9276170153387,255.28189590967375" style="fill:none;stroke:rgb(128,207,62);stroke-width:5;stroke-linecap:round"></path><path d="M243.1899769034122,-95.0023950508991L218.28180194345921,273.7636184838346L77.57372846027035,325.3988251789118z" style="fill:rgb(0,0,0); fill-opacity: 0.2"></path><path d="M368.73566013305134,324.17167237125574L364.2252215678929,321.18335213604377L376.9379822255393,333.8535088963109z" style="fill:rgb(128,207,62)"></path><path d="M61.873176476061026,-542.3929551490996L15.83518316242262,197.08841355138054L236.53496417775563,-481.8744823740089z" style="fill:rgb(0,0,0); fill-opacity: 0.2"></path><path d="M358.95713804663484,328.76733970385874L360.2162376871358,336.43953939483197L376.9379822255393,333.8535088963109zM364.2252215678929,321.18335213604377L358.95713804663484,328.76733970385874L376.9379822255393,333.8535088963109z" style="fill:rgb(128,207,62)"></path><path d="M318.50602000289035,198.56268247704017L371.55910138289363,218.40310640825209" style="fill:none;stroke:rgb(128,207,62);stroke-width:5;stroke-linecap:round"></path><path d="M371.36127601008803,287.43725739834366L366.8478633407433,284.42848668021963L379.57351650255714,297.0972168033815zM361.5753829270525,292.0118775647256L362.8347469862836,299.70416317225715L379.57351650255714,297.0972168033815zM366.8478633407433,284.42848668021963L361.5753829270525,292.0118775647256L379.57351650255714,297.0972168033815z" style="fill:rgb(128,207,62)"></path><path d="M243.1899769034122,-95.0023950508991L218.28180194345921,273.7636184838346L336.6734226632521,-61.09120435805862z" style="fill:rgb(0,0,0); fill-opacity: 0.2"></path><path d="M321.08673554991964,161.6783333419852L374.195540611652,181.45487728348223" style="fill:none;stroke:rgb(128,207,62);stroke-width:5;stroke-linecap:round"></path><path d="M373.99182500166194,250.633824303588L369.47543500930414,247.60453147854358L382.21400670805787,260.271807204946zM364.1985504727879,255.18731003363322L365.45817772069984,262.8997435530441L382.21400670805787,260.271807204946zM369.47543500930414,247.60453147854358L364.1985504727879,255.18731003363322L382.21400670805787,260.271807204946z" style="fill:rgb(128,207,62)"></path><path d="M323.6723040711511,124.72462406569919L376.8369487091746,144.43701222719326" style="fill:none;stroke:rgb(128,207,62);stroke-width:5;stroke-linecap:round"></path><path d="M376.62732102365186,213.76117839298223L372.1079504870667,210.7112915411744L384.85946683408565,223.37708496194932zM366.82665457984956,218.29344203554393L368.08654377804237,226.02608570560037L384.85946683408565,223.37708496194932zM372.1079504870667,210.7112915411744L366.82665457984956,218.29344203554393L384.85946683408565,223.37708496194932z" style="fill:rgb(128,207,62)"></path><path d="M243.1899769034122,-95.0023950508991L113.40728636864677,-234.16246932938503M243.1899769034122,-95.0023950508991L113.40728636864677,-234.16246932938503M243.1899769034122,-95.0023950508991L239.8759469225199,-287.6550238304579M243.1899769034122,-95.0023950508991L239.8759469225199,-287.6550238304579M336.6734226632521,-61.09120435805862L243.1899769034122,-95.0023950508991M243.1899769034122,-95.0023950508991L117.2651198435203,-40.031183391396254M336.6734226632521,-61.09120435805862L243.1899769034122,-95.0023950508991M117.2651198435203,-40.031183391396254L243.1899769034122,-95.0023950508991M336.6734226632521,-61.09120435805862L243.1899769034122,-95.0023950508991M243.1899769034122,-95.0023950508991L-185.36430501069677,92.07860459226193M336.6734226632521,-61.09120435805862L243.1899769034122,-95.0023950508991" style="fill:none;stroke:rgb(0,0,0);stroke-width:1;stroke-linecap:round"></path><path d="M326.2627392683216,87.70135881891235L379.48333973587154,107.3493141905562" style="fill:none;stroke:rgb(128,207,62);stroke-width:5;stroke-linecap:round"></path><path d="M113.40728636864677,-234.16246932938503L77.57372846027035,325.3988251789118L186.90868019346615,261.88127362653z" style="fill:rgb(0,0,0); fill-opacity: 0.2"></path><path d="M236.53496417775563,-481.8744823740089L61.873176476061026,-542.3929551490996M61.873176476061026,-542.3929551490996L-372.4207538459606,-368.5958962108691M236.53496417775563,-481.8744823740089L61.873176476061026,-542.3929551490996" style="fill:none;stroke:rgb(0,0,0);stroke-width:1;stroke-linecap:round"></path><path d="M379.26777804432686,176.8191242395449L374.7454237399285,173.7485711438285L387.50991092540596,186.41285420006415zM369.4597091965973,181.3300777605017L370.7198590982706,189.08299406459057L387.50991092540596,186.41285420006415zM374.7454237399285,173.7485711438285L369.4597091965973,181.3300777605017L387.50991092540596,186.41285420006415z" style="fill:rgb(128,207,62)"></path><path d="M328.85805489479634,50.60834103446262L382.13472780525234,70.19158538058811" style="fill:none;stroke:rgb(128,207,62);stroke-width:5;stroke-linecap:round"></path><path d="M381.9132100845924,139.80746567986645L377.3878687864401,136.71617382431845L390.16535307975414,149.3789183062251zM372.0977283239894,144.2970206601681L373.35813767389163,152.07027232747856L390.16535307975414,149.3789183062251zM377.3878687864401,136.71617382431845L372.0977283239894,144.2970206601681L390.16535307975414,149.3789183062251z" style="fill:rgb(128,207,62)"></path><path d="M331.45826475581305,13.445373403817092L384.79112708417637,32.96362725663571" style="fill:none;stroke:rgb(128,207,62);stroke-width:5;stroke-linecap:round"></path><path d="M384.56363121823887,102.72600581063743L380.03529969805345,99.6139023790723L392.8258074480849,112.27507992514255zM374.7407260158297,107.1940734443384L376.0013935502085,114.98772345105091L392.8258074480849,112.27507992514255zM380.03529969805345,99.6139023790723L374.7407260158297,107.1940734443384L392.8258074480849,112.27507992514255z" style="fill:rgb(128,207,62)"></path><path d="M334.0633827087258,-23.78774212642664L387.4525517931055,-4.334759473160773" style="fill:none;stroke:rgb(128,207,62);stroke-width:5;stroke-linecap:round"></path><path d="M236.53496417775554,-481.8744823740089L186.90868019346615,261.88127362653L113.40728636864677,-234.16246932938503z" style="fill:rgb(0,0,0); fill-opacity: 0.2"></path><path d="M387.219055572191,65.57454698515657L382.68773059937183,62.441558859632984L395.49128823482437,75.10114095579678zM377.38871637901843,70.02103807743835L378.64964082556884,77.83514964791995L395.49128823482437,75.10114095579678zM382.68773059937183,62.441558859632984L377.38871637901843,70.02103807743835L395.49128823482437,75.10114095579678z" style="fill:rgb(128,207,62)"></path><path d="M113.40728636864677,-234.16246932938503L77.57372846027035,325.3988251789118L243.1899769034122,-95.0023950508991z" style="fill:rgb(0,0,0); fill-opacity: 0.2"></path><path d="M336.6734226632521,-61.09120435805862L390.11901620635734,-41.70377485542376" style="fill:none;stroke:rgb(128,207,62);stroke-width:5;stroke-linecap:round"></path><path d="M211.07280881712262,-5.60099236130561L336.6734226632521,-61.09120435805862" style="fill:none;stroke:rgb(97,2,64);stroke-width:5;stroke-linecap:round"></path><path d="M336.6734226632521,-61.09120435805862L390.11901620635734,-41.70377485542376" style="fill:none;stroke:rgb(186,45,138);stroke-width:5;stroke-linecap:round"></path><path d="M336.6734226632521,-61.09120435805862L211.07280881712262,-5.60099236130561" style="fill:none;stroke:rgb(0,86,91);stroke-width:5;stroke-linecap:round"></path><path d="M336.6734226632521,-61.09120435805862L390.11901620635734,-41.70377485542376" style="fill:none;stroke:rgb(41,170,178);stroke-width:5;stroke-linecap:round"></path><path d="M-90.81313661415585,127.7718837565134L336.6734226632521,-61.09120435805862" style="fill:none;stroke:rgb(104,70,1);stroke-width:5;stroke-linecap:round"></path><path d="M336.6734226632521,-61.09120435805862L390.11901620635734,-41.70377485542376" style="fill:none;stroke:rgb(197,147,42);stroke-width:5;stroke-linecap:round"></path><path d="M239.8759469225199,-287.6550238304579L236.53496417775554,-481.8744823740089M239.8759469225199,-287.6550238304579L236.53496417775554,-481.8744823740089" style="fill:none;stroke:rgb(0,0,0);stroke-width:1;stroke-linecap:round"></path><path d="M243.1899769034122,-95.0023950508991L117.2651198435203,-40.031183391396254L336.6734226632521,-61.09120435805862z" style="fill:rgb(0,0,0); fill-opacity: 0.2"></path><path d="M389.87949732675906,28.352890809819364L385.345175668401,25.19894456913819L398.161809698122,37.856902547912654zM380.04171357380227,32.77771577500065L381.3028936516164,40.6123523830075L398.161809698122,37.856902547912654zM385.345175668401,25.19894456913819L380.04171357380227,32.77771577500065L398.161809698122,37.856902547912654zM392.54497071589094,-8.939161859413709L388.00764913680155,-12.114139941220115L400.8373861501058,0.5421650984137861z" style="fill:rgb(128,207,62)"></path><path d="M313.5803921918071,-50.88872908928471L367.0609826351287,-31.446713248540846" style="fill:none;stroke:rgb(197,147,42);stroke-width:5;stroke-linecap:round"></path><path d="M211.07280881712262,-5.60099236130561L336.6734226632521,-61.09120435805862L243.1899769034122,-95.0023950508991z" style="fill:rgb(0,0,0); fill-opacity: 0.2"></path><path d="M382.69973181402725,-4.536092999878444L383.9611662335423,3.319132370008287L400.8373861501058,0.5421650984137861zM388.00764913680155,-12.114139941220115L382.69973181402725,-4.536092999878444L400.8373861501058,0.5421650984137861z" style="fill:rgb(128,207,62)"></path><path d="M239.8759469225199,-287.6550238304579L113.40728636864677,-234.16246932938503L243.1899769034122,-95.0023950508991z" style="fill:rgb(0,0,0); fill-opacity: 0.2"></path><path d="M311.7297063310689,-50.07109812708605L365.213094138916,-30.62470446406435" style="fill:none;stroke:rgb(186,45,138);stroke-width:5;stroke-linecap:round"></path><path d="M311.72970633106894,-50.07109812708605L365.2130941389161,-30.62470446406435" style="fill:none;stroke:rgb(41,170,178);stroke-width:5;stroke-linecap:round"></path><path d="M395.2154900274264,-46.30181092056846L390.6751652901434,-49.49789487575624L403.51803195713717,-36.843271752143174z" style="fill:rgb(128,207,62)"></path><path d="M395.2154900274264,-46.30181092056846L390.6751652901434,-49.49789487575624L403.51803195713717,-36.843271752143174z" style="fill:rgb(186,45,138)"></path><path d="M395.2154900274265,-46.30181092056846L390.6751652901434,-49.49789487575627L403.51803195713717,-36.843271752143174z" style="fill:rgb(41,170,178)"></path><path d="M395.2154900274264,-46.30181092056846L390.6751652901434,-49.49789487575624L403.51803195713717,-36.843271752143174z" style="fill:rgb(197,147,42)"></path><path d="M385.3627853673922,-41.92058854010254L386.62447283033896,-34.04471043216645L403.51803195713717,-36.843271752143174z" style="fill:rgb(128,207,62)"></path><path d="M385.3627853673922,-41.92058854010254L386.62447283033896,-34.04471043216645L403.51803195713717,-36.843271752143174z" style="fill:rgb(186,45,138)"></path><path d="M385.3627853673922,-41.92058854010254L386.62447283033896,-34.04471043216645L403.51803195713717,-36.843271752143174z" style="fill:rgb(41,170,178)"></path><path d="M385.3627853673922,-41.92058854010254L386.62447283033896,-34.04471043216645L403.51803195713717,-36.843271752143174z" style="fill:rgb(197,147,42)"></path><path d="M390.6751652901434,-49.49789487575624L385.3627853673922,-41.92058854010254L403.51803195713717,-36.843271752143174z" style="fill:rgb(128,207,62)"></path><path d="M390.6751652901434,-49.49789487575624L385.3627853673922,-41.92058854010254L403.51803195713717,-36.843271752143174z" style="fill:rgb(186,45,138)"></path><path d="M390.6751652901434,-49.49789487575624L385.3627853673922,-41.92058854010254L403.51803195713717,-36.843271752143174z" style="fill:rgb(41,170,178)"></path><path d="M390.6751652901434,-49.49789487575624L385.3627853673922,-41.92058854010254L403.51803195713717,-36.843271752143174z" style="fill:rgb(197,147,42)"></path><path d="M236.53496417775554,-481.8744823740089L236.53496417775554,-481.8744823740089L239.8759469225199,-287.6550238304579zM117.2651198435203,-40.031183391396254L243.1899769034122,-95.0023950508991L211.07280881712262,-5.60099236130561z" style="fill:rgb(0,0,0); fill-opacity: 0.2"></path><path d="M290.4121700318825,-40.65303421587382L343.9277017724831,-21.156178878187834" style="fill:none;stroke:rgb(197,147,42);stroke-width:5;stroke-linecap:round"></path><path d="M117.2651198435203,-40.031183391396254L243.1899769034122,-95.0023950508991L113.40728636864677,-234.16246932938503zM243.1899769034122,-95.0023950508991L117.2651198435203,-40.031183391396254L113.40728636864677,-234.16246932938503z" style="fill:rgb(0,0,0); fill-opacity: 0.2"></path><path d="M286.69825215370105,-39.0122294133488L340.219369268279,-19.50657615569509" style="fill:none;stroke:rgb(186,45,138);stroke-width:5;stroke-linecap:round"></path><path d="M286.6982521537011,-39.01222941334883L340.21936926827914,-19.506576155695125" style="fill:none;stroke:rgb(41,170,178);stroke-width:5;stroke-linecap:round"></path><path d="M372.17238461511204,-36.05518599559925L367.61348135044653,-39.25150576220146L380.4688335980584,-26.57250283592635z" style="fill:rgb(197,147,42)"></path><path d="M113.40728636864677,-234.16246932938503L236.53496417775554,-481.8744823740089M236.53496417775554,-481.8744823740089L236.53496417775554,-481.8744823740089M113.40728636864677,-234.16246932938503L236.53496417775554,-481.8744823740089M236.53496417775554,-481.8744823740089L-195.81113235300148,-304.9161450821412" style="fill:none;stroke:rgb(0,0,0);stroke-width:1;stroke-linecap:round"></path><path d="M370.3256934055553,-35.23401402949557L365.76529966931,-38.43035199446328L378.62165133237227,-25.749394721646816z" style="fill:rgb(186,45,138)"></path><path d="M370.32569340555534,-35.23401402949557L365.7652996693101,-38.430351994463315L378.6216513323723,-25.749394721646848z" style="fill:rgb(41,170,178)"></path><path d="M362.2875510298197,-31.659676780070463L363.55946403666076,-23.77460088690509L380.4688335980584,-26.57250283592635zM367.61348135044653,-39.25150576220146L362.2875510298197,-31.659676780070463L380.4688335980584,-26.57250283592635z" style="fill:rgb(197,147,42)"></path><path d="M360.4382827196521,-30.837358849354725L361.71101636020535,-22.951546350238992L378.62165133237227,-25.749394721646816z" style="fill:rgb(186,45,138)"></path><path d="M360.4382827196521,-30.837358849354725L361.7110163602054,-22.951546350238992L378.6216513323723,-25.749394721646848z" style="fill:rgb(41,170,178)"></path><path d="M239.8759469225199,-287.6550238304579L113.40728636864677,-234.16246932938503L236.53496417775554,-481.8744823740089z" style="fill:rgb(0,0,0); fill-opacity: 0.2"></path><path d="M365.76529966931,-38.43035199446328L360.4382827196521,-30.837358849354725L378.62165133237227,-25.749394721646816z" style="fill:rgb(186,45,138)"></path><path d="M365.7652996693101,-38.430351994463315L360.4382827196521,-30.837358849354725L378.6216513323723,-25.749394721646848z" style="fill:rgb(41,170,178)"></path><path d="M336.6734226632521,-61.09120435805862L211.07280881712262,-5.60099236130561L117.2651198435203,-40.031183391396254z" style="fill:rgb(0,0,0); fill-opacity: 0.2"></path><path d="M117.2651198435203,-40.031183391396254L113.40728636864677,-234.16246932938503M117.2651198435203,-40.031183391396254L113.40728636864677,-234.16246932938503M211.07280881712262,-5.60099236130561L117.2651198435203,-40.031183391396254M211.07280881712262,-5.60099236130561L117.2651198435203,-40.031183391396254" style="fill:none;stroke:rgb(0,0,0);stroke-width:1;stroke-linecap:round"></path><path d="M267.168388344608,-30.383957227020762L320.7188046748471,-10.832007624690347" style="fill:none;stroke:rgb(197,147,42);stroke-width:5;stroke-linecap:round"></path><path d="M261.5785963976151,-27.914393339885873L315.1373764673946,-8.349183024692007" style="fill:none;stroke:rgb(186,45,138);stroke-width:5;stroke-linecap:round"></path><path d="M261.5785963976152,-27.914393339885873L315.1373764673947,-8.349183024692007" style="fill:none;stroke:rgb(41,170,178);stroke-width:5;stroke-linecap:round"></path><path d="M349.0541022794118,-25.77513199398588L344.4765233104064,-28.971672095148023L357.34437428833246,-16.268197489484486zM339.1369823572405,-21.36526594684608L340.4191809963991,-13.470974130995156L357.34437428833246,-16.268197489484486zM344.4765233104064,-28.971672095148023L339.1369823572405,-21.36526594684608L357.34437428833246,-16.268197489484486z" style="fill:rgb(197,147,42)"></path><path d="M345.34817609977677,-24.127210202071023L340.76759995630454,-27.32378411013133L353.63745194663727,-14.616385475514123z" style="fill:rgb(186,45,138)"></path><path d="M345.34817609977677,-24.127210202071023L340.76759995630454,-27.32378411013133L353.63745194663727,-14.616385475514123z" style="fill:rgb(41,170,178)"></path><path d="M335.42587568720575,-19.715040535644544L336.70972563214656,-11.819272486963122L353.63745194663727,-14.616385475514123z" style="fill:rgb(186,45,138)"></path><path d="M335.42587568720575,-19.715040535644544L336.70972563214656,-11.819272486963156L353.63745194663727,-14.616385475514123z" style="fill:rgb(41,170,178)"></path><path d="M340.76759995630454,-27.32378411013133L335.42587568720575,-19.715040535644544L353.63745194663727,-14.616385475514123z" style="fill:rgb(186,45,138)"></path><path d="M340.76759995630454,-27.32378411013133L335.42587568720575,-19.715040535644544L353.63745194663727,-14.616385475514123z" style="fill:rgb(41,170,178)"></path><path d="M-92.53762525814363,403.75241234446787L-238.61979709054555,457.4904698464628M-206.8982192021393,469.99329834647614L-92.53762525814363,403.75241234446787" style="fill:none;stroke:rgb(0,0,0);stroke-width:1;stroke-linecap:round"></path><path d="M243.84867688789694,-20.081334550181953L297.4339199827519,-0.4740342936948255" style="fill:none;stroke:rgb(197,147,42);stroke-width:5;stroke-linecap:round"></path><path d="M236.37027205545954,-16.7773835833668L289.96664731811086,2.847683298571454" style="fill:none;stroke:rgb(186,45,138);stroke-width:5;stroke-linecap:round"></path><path d="M236.37027205545954,-16.77738358336683L289.96664731811086,2.8476832985714204" style="fill:none;stroke:rgb(41,170,178);stroke-width:5;stroke-linecap:round"></path><path d="M-372.4207538459606,-368.5958962108691L-411.5493988822459,389.33152890779525M-238.6197970905455,457.4904698464629L-411.5493988822459,389.33152890779525" style="fill:none;stroke:rgb(0,0,0);stroke-width:1;stroke-linecap:round"></path><path d="M325.8602745280752,-15.461485057523854L321.2639220218313,-18.658229860726813L334.14428480861346,-5.930191187938215z" style="fill:rgb(197,147,42)"></path><path d="M-185.36430501069677,92.07860459226193L243.1899769034122,-95.0023950508991L239.8759469225199,-287.6550238304579z" style="fill:rgb(0,0,0); fill-opacity: 0.2"></path><path d="M315.9107098274312,-11.037191724224732L317.2032546132273,-3.1336658176660728L334.14428480861346,-5.930191187938215zM321.2639220218313,-18.658229860726813L315.9107098274312,-11.037191724224732L334.14428480861346,-5.930191187938215z" style="fill:rgb(197,147,42)"></path><path d="M113.40728636864677,-234.16246932938503L113.40728636864677,-234.16246932938503L117.2651198435203,-40.031183391396254z" style="fill:rgb(0,0,0); fill-opacity: 0.2"></path><path d="M320.2824735521263,-12.981192862352508L315.6816007660406,-16.17798445049282L328.56496832500795,-3.444036597187299z" style="fill:rgb(186,45,138)"></path><path d="M320.2824735521263,-12.981192862352508L315.6816007660406,-16.17798445049282L328.56496832500795,-3.4440365971873326z" style="fill:rgb(41,170,178)"></path><path d="M310.32509841334746,-8.55342644551549L311.6201353265142,-0.6476816504057239L328.56496832500795,-3.444036597187299z" style="fill:rgb(186,45,138)"></path><path d="M310.32509841334746,-8.553426445515523L311.6201353265142,-0.6476816504057239L328.56496832500795,-3.4440365971873326z" style="fill:rgb(41,170,178)"></path><path d="M315.6816007660406,-16.17798445049282L310.32509841334746,-8.55342644551549L328.56496832500795,-3.444036597187299z" style="fill:rgb(186,45,138)"></path><path d="M315.6816007660406,-16.17798445049282L310.32509841334746,-8.553426445515523L328.56496832500795,-3.4440365971873326z" style="fill:rgb(41,170,178)"></path><path d="M220.45266299678758,-9.745001542390378L274.07267390102623,9.917907392642302" style="fill:none;stroke:rgb(197,147,42);stroke-width:5;stroke-linecap:round"></path><path d="M-90.81313661415585,127.7718837565134L336.6734226632521,-61.09120435805862L243.1899769034122,-95.0023950508991z" style="fill:rgb(0,0,0); fill-opacity: 0.2"></path><path d="M211.07280881712256,-5.60099236130561L264.70671008201515,14.08423266069568" style="fill:none;stroke:rgb(186,45,138);stroke-width:5;stroke-linecap:round"></path><path d="M211.07280881712262,-5.60099236130561L264.7067100820152,14.08423266069568" style="fill:none;stroke:rgb(41,170,178);stroke-width:5;stroke-linecap:round"></path><path d="M302.59053045660863,-5.114080255351605L297.97530591881423,-8.31101397086897L310.8681935204843,4.4416816715349405zM292.6083614974871,-0.6752887195924083L293.9113133737877,7.237489476079069L310.8681935204843,4.4416816715349405zM297.97530591881423,-8.31101397086897L292.6083614974871,-0.6752887195924083L310.8681935204843,4.4416816715349405z" style="fill:rgb(197,147,42)"></path><path d="M295.1281179185165,-1.7957539731503358L290.5068334198517,-4.992744779930668L303.40373169713087,7.767860798341232z" style="fill:rgb(186,45,138)"></path><path d="M295.1281179185165,-1.7957539731503358L290.5068334198517,-4.992744779930668L303.40373169713087,7.767860798341232z" style="fill:rgb(41,170,178)"></path><path d="M285.1354817437499,2.6476920408488525L286.441776831013,10.56343481747668L303.40373169713087,7.767860798341232z" style="fill:rgb(186,45,138)"></path><path d="M285.13548174374995,2.6476920408488525L286.441776831013,10.56343481747668L303.40373169713087,7.767860798341232z" style="fill:rgb(41,170,178)"></path><path d="M290.5068334198517,-4.992744779930668L285.1354817437499,2.6476920408488525L303.40373169713087,7.767860798341232z" style="fill:rgb(186,45,138)"></path><path d="M290.5068334198517,-4.992744779930668L285.13548174374995,2.6476920408488525L303.40373169713087,7.767860798341232z" style="fill:rgb(41,170,178)"></path><path d="M196.97997156359162,0.625207518515037L250.63469017879422,20.343984804552452" style="fill:none;stroke:rgb(197,147,42);stroke-width:5;stroke-linecap:round"></path><path d="M279.24449672850415,5.267248424841233L274.610300997907,2.0701417455025655L287.51572634661187,14.847587778543218zM269.22956298396815,9.72060954490267L270.5429833278748,17.6426582582877L287.51572634661187,14.847587778543218zM274.610300997907,2.0701417455025655L269.22956298396815,9.72060954490267L287.51572634661187,14.847587778543218z" style="fill:rgb(197,147,42)"></path><path d="M269.8846380396282,9.429315976915685L265.24282591630333,6.23214461349008L278.1532699680082,19.01951707754734z" style="fill:rgb(186,45,138)"></path><path d="M269.88463803962827,9.429315976915685L265.24282591630333,6.232144613490045L278.1532699680082,19.01951707754734z" style="fill:rgb(41,170,178)"></path><path d="M259.85655319723486,13.88852502262277L261.17417821152526,21.814287053828732L278.1532699680082,19.01951707754734z" style="fill:rgb(186,45,138)"></path><path d="M259.8565531972349,13.888525022622739L261.17417821152526,21.814287053828732L278.1532699680082,19.01951707754734z" style="fill:rgb(41,170,178)"></path><path d="M-190.56592731617832,-105.59066641244662L239.8759469225199,-287.6550238304579L236.53496417775554,-481.8744823740089z" style="fill:rgb(0,0,0); fill-opacity: 0.2"></path><path d="M173.43022501784682,11.02945944274596L227.11959008927587,30.804366413640153" style="fill:none;stroke:rgb(197,147,42);stroke-width:5;stroke-linecap:round"></path><path d="M265.24282591630333,6.23214461349008L259.85655319723486,13.88852502262277L278.1532699680082,19.01951707754734z" style="fill:rgb(186,45,138)"></path><path d="M265.24282591630333,6.232144613490045L259.8565531972349,13.888525022622739L278.1532699680082,19.01951707754734z" style="fill:rgb(41,170,178)"></path><path d="M-195.81113235300145,-304.91614508214116L236.53496417775563,-481.8744823740089L61.873176476061026,-542.3929551490996z" style="fill:rgb(0,0,0); fill-opacity: 0.2"></path><path d="M255.82179755527318,15.682668085692324L251.16853079809908,12.485404551368715L264.0865067507074,25.287694918410413zM245.77393744284865,20.150670641265904L247.09788806842198,28.082008130968564L264.0865067507074,25.287694918410413zM251.16853079809908,12.485404551368715L245.77393744284865,20.150670641265904L264.0865067507074,25.287694918410413z" style="fill:rgb(197,147,42)"></path><path d="M149.80304330607223,21.46792213750914L203.5269924093878,41.29922180195769" style="fill:none;stroke:rgb(197,147,42);stroke-width:5;stroke-linecap:round"></path><path d="M232.32205467628376,26.132346929132378L227.64961638059842,22.934942810597548L240.58015571728842,35.76217198119403zM222.24110554926958,30.615063244660195L223.5756487112919,38.55570779909083L240.58015571728842,35.76217198119403zM227.64961638059842,22.934942810597548L222.24110554926958,30.615063244660195L240.58015571728842,35.76217198119403z" style="fill:rgb(197,147,42)"></path><path d="M-92.53762525814363,403.75241234446787L-58.737686355214194,-161.3501670942855L-206.8982192021393,469.99329834647614z" style="fill:rgb(0,0,0); fill-opacity: 0.2"></path><path d="M-195.81113235300148,-304.9161450821412L-238.61979709054555,457.4904698464628" style="fill:none;stroke:rgb(0,0,0);stroke-width:1;stroke-linecap:round"></path><path d="M126.09804387132313,31.940764616038745L179.8565133991416,51.82872167116909" style="fill:none;stroke:rgb(197,147,42);stroke-width:5;stroke-linecap:round"></path><path d="M208.7448873383977,36.616454265439856L204.05317630841301,33.41892599701645L216.9962917312411,46.27118897079232zM198.6306854770895,41.11395714249854L199.9758838748656,49.063927079672055L216.9962917312411,46.27118897079232zM204.05317630841301,33.41892599701645L198.6306854770895,41.11395714249854L216.9962917312411,46.27118897079232z" style="fill:rgb(197,147,42)"></path><path d="M-185.36430501069677,92.07860459226193L-206.8982192021393,469.99329834647614M-113.34510179904161,506.8665770543439L-206.8982192021393,469.99329834647614" style="fill:none;stroke:rgb(0,0,0);stroke-width:1;stroke-linecap:round"></path><path d="M-411.5493988822459,389.33152890779525L-372.4207538459606,-368.5958962108691L-238.6197970905455,457.4904698464629z" style="fill:rgb(0,0,0); fill-opacity: 0.2"></path><path d="M102.31484163254379,42.44815700671844L156.10776678083877,62.39303785180538" style="fill:none;stroke:rgb(197,147,42);stroke-width:5;stroke-linecap:round"></path><path d="M-54.125213777571226,34.787518220445136L-58.737686355214194,-161.3501670942855M-54.125213777571226,34.787518220445136L-58.737686355214194,-161.3501670942855M-185.36430501069677,92.07860459226193L-54.125213777571226,34.787518220445136M40.1097377117132,69.93030297835863L-54.125213777571226,34.787518220445136M-54.125213777571226,34.787518220445136L-185.36430501069677,92.07860459226193M40.1097377117132,69.93030297835863L-54.125213777571226,34.787518220445136" style="fill:none;stroke:rgb(0,0,0);stroke-width:1;stroke-linecap:round"></path><path d="M185.08991227540707,47.13516052238529L180.37882662572943,43.93752470357413L193.3345307571793,56.814917014141884z" style="fill:rgb(197,147,42)"></path><path d="M-185.36430501069677,92.07860459226193L243.1899769034122,-95.0023950508991L-90.81313661415585,127.7718837565134z" style="fill:rgb(0,0,0); fill-opacity: 0.2"></path><path d="M174.9422928782341,51.64752324362712L176.2982096594312,59.60683691095604L193.3345307571793,56.814917014141884zM180.37882662572943,43.93752470357413L174.9422928782341,51.64752324362712L193.3345307571793,56.814917014141884z" style="fill:rgb(197,147,42)"></path><path d="M78.45304896371525,52.99027056229376L132.2803637180576,72.99234331261161" style="fill:none;stroke:rgb(197,147,42);stroke-width:5;stroke-linecap:round"></path><path d="M-238.61979709054555,457.4904698464628L-195.81113235300148,-304.9161450821412L-92.53762525814363,403.75241234446787zM-190.56592731617832,-105.59066641244662L239.8759469225199,-287.6550238304579L-185.36430501069677,92.07860459226193z" style="fill:rgb(0,0,0); fill-opacity: 0.2"></path><path d="M161.35674368726598,57.688637254465974L156.6261808370875,54.490910651593616L169.5944862185992,67.3935283705065zM151.17554086184018,62.21593358759926L152.54223962636675,70.18460936168188L169.5944862185992,67.3935283705065zM156.6261808370875,54.490910651593616L151.17554086184018,62.21593358759926L169.5944862185992,67.3935283705065z" style="fill:rgb(197,147,42)"></path><path d="M-372.4207538459606,-368.5958962108691L61.873176476061026,-542.3929551490996L-195.81113235300145,-304.91614508214116z" style="fill:rgb(0,0,0); fill-opacity: 0.2"></path><path d="M54.51227567279656,63.56727766917596L108.3739127944322,83.62681216998702" style="fill:none;stroke:rgb(197,147,42);stroke-width:5;stroke-linecap:round"></path><path d="M-113.34510179904161,506.8665770543439L-90.81313661415585,127.7718837565134" style="fill:none;stroke:rgb(114,20,32);stroke-width:5;stroke-linecap:round"></path><path d="M-113.34510179904161,506.8665770543439L-59.853002841409285,527.9500976070038" style="fill:none;stroke:rgb(212,72,90);stroke-width:5;stroke-linecap:round"></path><path d="M-92.53762525814363,403.75241234446787L-58.737686355214194,-161.3501670942855L-195.81113235300148,-304.9161450821412z" style="fill:rgb(0,0,0); fill-opacity: 0.2"></path><path d="M137.5449932191164,68.27705715223279L132.79484988634712,65.0792567001171L145.77576897682675,78.00719644085808z" style="fill:rgb(197,147,42)"></path><path d="M-206.8982192021393,469.99329834647614L-185.36430501069677,92.07860459226193L-113.34510179904161,506.8665770543439z" style="fill:rgb(0,0,0); fill-opacity: 0.2"></path><path d="M127.33003997319233,72.81936135404166L128.70758477711667,80.79741764044502L145.77576897682675,78.00719644085808z" style="fill:rgb(197,147,42)"></path><path d="M40.1097377117132,69.93030297835863L-90.81313661415585,127.7718837565134" style="fill:none;stroke:rgb(47,10,107);stroke-width:5;stroke-linecap:round"></path><path d="M40.10973771171311,69.93030297835863L93.9919354645345,90.02444478015126" style="fill:none;stroke:rgb(112,56,202);stroke-width:5;stroke-linecap:round"></path><path d="M-90.81313661415585,127.7718837565134L40.1097377117132,69.93030297835863" style="fill:none;stroke:rgb(26,115,41);stroke-width:5;stroke-linecap:round"></path><path d="M40.1097377117132,69.93030297835863L93.99193546453459,90.02444478015126" style="fill:none;stroke:rgb(81,214,102);stroke-width:5;stroke-linecap:round"></path><path d="M132.79484988634712,65.0792567001171L127.33003997319233,72.81936135404166L145.77576897682675,78.00719644085808z" style="fill:rgb(197,147,42)"></path><path d="M-58.737686355214194,-161.3501670942855L-195.81113235300148,-304.9161450821412M-58.737686355214194,-161.3501670942855L-195.81113235300148,-304.9161450821412M-185.36430501069677,92.07860459226193L-58.737686355214194,-161.3501670942855M-185.36430501069677,92.07860459226193L-58.737686355214194,-161.3501670942855" style="fill:none;stroke:rgb(0,0,0);stroke-width:1;stroke-linecap:round"></path><path d="M-206.8982192021393,469.99329834647614L-185.36430501069677,92.07860459226193L-58.737686355214194,-161.3501670942855z" style="fill:rgb(0,0,0); fill-opacity: 0.2"></path><path d="M-111.11146728408099,469.2862335538824L-57.56251377218241,490.30375169541645" style="fill:none;stroke:rgb(212,72,90);stroke-width:5;stroke-linecap:round"></path><path d="M-54.125213777571226,34.787518220445136L-185.36430501069677,92.07860459226193L40.1097377117132,69.93030297835863zM-185.36430501069677,92.07860459226193L-54.125213777571226,34.787518220445136L-58.737686355214194,-161.3501670942855z" style="fill:rgb(0,0,0); fill-opacity: 0.2"></path><path d="M30.492128980456044,74.17935185683851L84.38801999221921,94.29661969751936" style="fill:none;stroke:rgb(197,147,42);stroke-width:5;stroke-linecap:round"></path><path d="M-108.87351923730353,431.63331595667853L-55.267591197305826,452.5845369413043" style="fill:none;stroke:rgb(212,72,90);stroke-width:5;stroke-linecap:round"></path><path d="M113.65426994010551,78.9005940517096L108.88444213544685,75.70273685534386L121.87798730975523,88.65609577735133zM103.40539817245008,83.45798087211398L104.79385353195923,91.44543610515161L121.87798730975523,88.65609577735133z" style="fill:rgb(197,147,42)"></path><path d="M-90.81313661415585,127.7718837565134L40.1097377117132,69.93030297835863L-54.125213777571226,34.787518220445136z" style="fill:rgb(0,0,0); fill-opacity: 0.2"></path><path d="M108.88444213544685,75.70273685534386L103.40539817245008,83.45798087211398L121.87798730975523,88.65609577735133z" style="fill:rgb(197,147,42)"></path><path d="M-58.737686355214194,-161.3501670942855L-58.737686355214194,-161.3501670942855L-185.36430501069677,92.07860459226193zM-58.737686355214194,-161.3501670942855L-190.56592731617832,-105.59066641244662L-54.125213777571226,34.787518220445136z" style="fill:rgb(0,0,0); fill-opacity: 0.2"></path><path d="M-54.521827715193034,523.0923878938806L-59.3761825960619,520.1131076230029L-46.441566766879845,533.2361172926771z" style="fill:rgb(212,72,90)"></path><path d="M14.112889494439283,81.41568170900078L68.03203339871895,101.57236424931044" style="fill:none;stroke:rgb(112,56,202);stroke-width:5;stroke-linecap:round"></path><path d="M14.112889494439331,81.41568170900078L68.032033398719,101.57236424931044" style="fill:none;stroke:rgb(81,214,102);stroke-width:5;stroke-linecap:round"></path><path d="M-64.89321050601976,527.9666853249752L-63.44365028928438,535.7962023992768L-46.441566766879845,533.2361172926771zM-59.3761825960619,520.1131076230029L-64.89321050601976,527.9666853249752L-46.441566766879845,533.2361172926771z" style="fill:rgb(212,72,90)"></path><path d="M-195.81113235300148,-304.9161450821412L236.53496417775554,-481.8744823740089L-190.56592731617832,-105.59066641244662z" style="fill:rgb(0,0,0); fill-opacity: 0.2"></path><path d="M-106.6312451513764,393.9076138299761L-52.96822223196755,414.7922415706429" style="fill:none;stroke:rgb(212,72,90);stroke-width:5;stroke-linecap:round"></path><path d="M6.392213498590991,84.8266678073069L60.322288670650615,105.001942335614" style="fill:none;stroke:rgb(197,147,42);stroke-width:5;stroke-linecap:round"></path><path d="M99.28176542443373,85.29164510014213L94.50007672533984,82.09376213905313L107.50120345434308,95.0624194349883z" style="fill:rgb(112,56,202)"></path><path d="M99.28176542443381,85.29164510014213L94.50007672533994,82.09376213905304L107.50120345434317,95.06241943498827z" style="fill:rgb(81,214,102)"></path><path d="M89.01246139035916,89.85811757834388L90.40749424389455,97.85122103970616L107.50120345434308,95.0624194349883z" style="fill:rgb(112,56,202)"></path><path d="M89.01246139035925,89.85811757834385L90.40749424389465,97.85122103970616L107.50120345434317,95.06241943498827z" style="fill:rgb(81,214,102)"></path><path d="M94.50007672533984,82.09376213905313L89.01246139035916,89.85811757834388L107.50120345434308,95.0624194349883z" style="fill:rgb(112,56,202)"></path><path d="M94.50007672533994,82.09376213905304L89.01246139035925,89.85811757834385L107.50120345434317,95.06241943498827z" style="fill:rgb(81,214,102)"></path><path d="M-52.226856868789795,485.45237962228845L-57.08477093992122,482.4515981262415L-44.136786033564576,495.5732379842009zM-62.606639689359625,490.3046259538939L-61.15650325955535,498.15530883257475L-44.136786033564576,495.5732379842009zM-57.08477093992122,482.4515981262415L-62.606639689359625,490.3046259538939L-44.136786033564576,495.5732379842009z" style="fill:rgb(212,72,90)"></path><path d="M89.68418032199124,89.55942294390644L84.89456334294955,86.36152628016214L97.90074689037083,99.34040209289265z" style="fill:rgb(197,147,42)"></path><path d="M-104.3846324705655,356.10891592668276L-50.66439394137883,376.92665298799153" style="fill:none;stroke:rgb(212,72,90);stroke-width:5;stroke-linecap:round"></path><path d="M-185.36430501069677,92.07860459226193L-54.125213777571226,34.787518220445136L-90.81313661415585,127.7718837565134z" style="fill:rgb(0,0,0); fill-opacity: 0.2"></path><path d="M79.40122081316267,94.13196763006248L80.80065170856187,102.12884027256703L97.90074689037083,99.34040209289265z" style="fill:rgb(197,147,42)"></path><path d="M-54.125213777571226,34.787518220445136L-185.36430501069677,92.07860459226193L-190.56592731617832,-105.59066641244662z" style="fill:rgb(0,0,0); fill-opacity: 0.2"></path><path d="M84.89456334294955,86.36152628016214L79.40122081316267,94.13196763006248L97.90074689037083,99.34040209289265z" style="fill:rgb(197,147,42)"></path><path d="M-11.97731643557579,92.94230577366571L41.978691283901334,113.16184928980095" style="fill:none;stroke:rgb(112,56,202);stroke-width:5;stroke-linecap:round"></path><path d="M-11.977316435575693,92.94230577366565L41.97869128390142,113.16184928980088" style="fill:none;stroke:rgb(81,214,102);stroke-width:5;stroke-linecap:round"></path><path d="M-49.9274451448737,447.73953614820147L-54.78892309790444,444.71717573490974L-41.827541563709985,457.8374158711813zM-60.31564110023768,452.5696368366073L-58.86492894185689,460.44155284247756L-41.827541563709985,457.8374158711813zM-54.78892309790444,444.71717573490974L-60.31564110023768,452.5696368366073L-41.827541563709985,457.8374158711813z" style="fill:rgb(212,72,90)"></path><path d="M-17.7878687913672,95.50940136474377L36.176319544070154,115.74295770122015" style="fill:none;stroke:rgb(197,147,42);stroke-width:5;stroke-linecap:round"></path><path d="M-102.13366859050143,318.23701018142674L-48.356093340531515,338.98755777250744" style="fill:none;stroke:rgb(212,72,90);stroke-width:5;stroke-linecap:round"></path><path d="M73.33898329350022,96.82767521628307L68.53584950305326,93.62976167178269L81.55063411943487,106.62604506442894z" style="fill:rgb(112,56,202)"></path><path d="M73.3389832935003,96.82767521628304L68.5358495030533,93.62976167178262L81.55063411943493,106.62604506442891z" style="fill:rgb(81,214,102)"></path><path d="M-238.6197970905455,457.4904698464629L-195.81113235300145,-304.91614508214116L-372.4207538459606,-368.5958962108691zM-113.34510179904161,506.8665770543439L-90.81313661415585,127.7718837565134L-185.36430501069677,92.07860459226193z" style="fill:rgb(0,0,0); fill-opacity: 0.2"></path><path d="M63.03274688756875,101.41057048799445L64.43967850284562,109.41385752934978L81.55063411943487,106.62604506442894z" style="fill:rgb(112,56,202)"></path><path d="M63.03274688756879,101.41057048799445L64.43967850284572,109.41385752934978L81.55063411943493,106.62604506442891z" style="fill:rgb(81,214,102)"></path><path d="M68.53584950305326,93.62976167178269L63.03274688756875,101.41057048799445L81.55063411943487,106.62604506442894z" style="fill:rgb(112,56,202)"></path><path d="M68.5358495030533,93.62976167178262L63.03274688756879,101.41057048799445L81.55063411943493,106.62604506442891z" style="fill:rgb(81,214,102)"></path><path d="M40.1097377117132,69.93030297835863L-90.81313661415585,127.7718837565134L-185.36430501069677,92.07860459226193z" style="fill:rgb(0,0,0); fill-opacity: 0.2"></path><path d="M-47.62357964099813,409.95364585751696L-52.488626174807706,406.9096285041822L-39.513820377172074,420.02843884250984z" style="fill:rgb(212,72,90)"></path><path d="M65.63432821753518,100.25371998442806L60.824816642374664,97.05580130377666L73.8436507650639,110.06029227080501z" style="fill:rgb(197,147,42)"></path><path d="M-58.02020186511688,414.76150593336104L-56.5689144687162,422.65472266158827L-39.513820377172074,420.02843884250984zM-52.488626174807706,406.9096285041822L-58.02020186511688,414.76150593336104L-39.513820377172074,420.02843884250984z" style="fill:rgb(212,72,90)"></path><path d="M-185.36430501069677,92.07860459226193L-190.56592731617832,-105.59066641244662M-185.36430501069677,92.07860459226193L-190.56592731617832,-105.59066641244662M-90.81313661415585,127.7718837565134L-185.36430501069677,92.07860459226193M-90.81313661415585,127.7718837565134L-185.36430501069677,92.07860459226193M-90.81313661415585,127.7718837565134L-185.36430501069677,92.07860459226193M-90.81313661415585,127.7718837565134L-185.36430501069677,92.07860459226193" style="fill:none;stroke:rgb(0,0,0);stroke-width:1;stroke-linecap:round"></path><path d="M55.317110620569494,104.84149828486946L56.72758250032272,112.84780682795967L73.8436507650639,110.06029227080501zM60.824816642374664,97.05580130377666L55.317110620569494,104.84149828486946L73.8436507650639,110.06029227080501z" style="fill:rgb(197,147,42)"></path><path d="M-99.87834085794357,280.29168370659175L-46.04330739395412,300.97474167393557" style="fill:none;stroke:rgb(212,72,90);stroke-width:5;stroke-linecap:round"></path><path d="M-38.161383870565935,104.5103977472039L15.831403718463514,124.79312472285552" style="fill:none;stroke:rgb(112,56,202);stroke-width:5;stroke-linecap:round"></path><path d="M-38.161383870565835,104.51039774720387L15.83140371846361,124.79312472285548" style="fill:none;stroke:rgb(81,214,102);stroke-width:5;stroke-linecap:round"></path><path d="M-195.81113235300145,-304.91614508214116L-372.4207538459606,-368.5958962108691M-195.81113235300145,-304.91614508214116L-372.4207538459606,-368.5958962108691" style="fill:none;stroke:rgb(0,0,0);stroke-width:1;stroke-linecap:round"></path><path d="M-45.31524740468606,372.09449631557845L-50.183867225399915,369.02874366698916L-37.195609443431216,382.1460939638794z" style="fill:rgb(212,72,90)"></path><path d="M-42.048518560364414,106.22772954512887L11.949710659850892,126.51984459765352" style="fill:none;stroke:rgb(197,147,42);stroke-width:5;stroke-linecap:round"></path><path d="M-55.720309060506246,376.8800203816089L-54.26844692274812,384.79460570107244L-37.195609443431216,382.1460939638794zM-50.183867225399915,369.02874366698916L-55.720309060506246,376.8800203816089L-37.195609443431216,382.1460939638794z" style="fill:rgb(212,72,90)"></path><path d="M47.30285019268963,108.40521589958053L42.478147772343725,105.20729226477671L55.50660443851822,118.23131681108931z" style="fill:rgb(112,56,202)"></path><path d="M47.30285019268968,108.40521589958048L42.478147772343824,105.20729226477668L55.5066044385183,118.23131681108926z" style="fill:rgb(81,214,102)"></path><path d="M-97.61863657054312,242.27272278832694L-43.726023015466545,262.8879896085754" style="fill:none;stroke:rgb(212,72,90);stroke-width:5;stroke-linecap:round"></path><path d="M36.9594818214923,113.00462271841184L38.37838891170341,121.01811493007405L55.50660443851822,118.23131681108931z" style="fill:rgb(112,56,202)"></path><path d="M36.959481821492396,113.00462271841181L38.37838891170346,121.01811493007402L55.5066044385183,118.23131681108926z" style="fill:rgb(81,214,102)"></path><path d="M42.478147772343725,105.20729226477671L36.9594818214923,113.00462271841184L55.50660443851822,118.23131681108931z" style="fill:rgb(112,56,202)"></path><path d="M42.478147772343824,105.20729226477668L36.959481821492396,113.00462271841181L55.5066044385183,118.23131681108926z" style="fill:rgb(81,214,102)"></path><path d="M41.504314838678724,110.98366250317808L36.67480252031292,107.78573943143186L49.706299331722526,120.81594437458921z" style="fill:rgb(197,147,42)"></path><path d="M-43.002435433187145,334.16187426319334L-47.874633254179905,331.0743076300247L-34.87289568134758,344.1901674737882z" style="fill:rgb(212,72,90)"></path><path d="M31.152667669683073,115.58675067199901L32.574246454495274,123.60251363484142L49.706299331722526,120.81594437458921zM36.67480252031292,107.78573943143186L31.152667669683073,115.58675067199901L49.706299331722526,120.81594437458921z" style="fill:rgb(197,147,42)"></path><path d="M-53.415949712718245,338.9249664920192L-51.9635133364128,346.8609885466724L-34.87289568134758,344.1901674737882zM-47.874633254179905,331.0743076300247L-53.415949712718245,338.9249664920192L-34.87289568134758,344.1901674737882z" style="fill:rgb(212,72,90)"></path><path d="M-95.3545429766044,204.1799128825351L-41.404227067933114,224.72708565522507" style="fill:none;stroke:rgb(212,72,90);stroke-width:5;stroke-linecap:round"></path><path d="M-64.43982023415913,116.12018180881185L-10.41033835063996,136.4664169939962" style="fill:none;stroke:rgb(112,56,202);stroke-width:5;stroke-linecap:round"></path><path d="M-64.43982023415907,116.12018180881182L-10.410338350639911,136.46641699399618" style="fill:none;stroke:rgb(81,214,102);stroke-width:5;stroke-linecap:round"></path><path d="M-66.3901391538553,116.98183054603699L-12.357942623909642,137.3327830245185" style="fill:none;stroke:rgb(197,147,42);stroke-width:5;stroke-linecap:round"></path><path d="M-58.737686355214194,-161.3501670942855L-190.56592731617832,-105.59066641244662L-195.81113235300148,-304.9161450821412z" style="fill:rgb(0,0,0); fill-opacity: 0.2"></path><path d="M-40.685130673233715,296.1555656126295L-45.56091121513219,293.04610596973293L-32.545665958914995,306.16044477951783zM-51.10711079762481,300.8961297444553L-49.654100691772165,308.85365695469613L-32.545665958914995,306.16044477951783zM-45.56091121513219,293.04610596973293L-51.10711079762481,300.8961297444553L-32.545665958914995,306.16044477951783z" style="fill:rgb(212,72,90)"></path><path d="M21.17286135093557,120.0244916076194L16.326465842822195,116.82657859809375L29.368608608019727,129.87846006205393z" style="fill:rgb(112,56,202)"></path><path d="M21.172861350935666,120.02449160761934L16.32646584282229,116.82657859809372L29.368608608019823,129.87846006205388z" style="fill:rgb(81,214,102)"></path><path d="M-93.08604727484533,166.01303861083733L-39.07790636301439,186.4918130511" style="fill:none;stroke:rgb(212,72,90);stroke-width:5;stroke-linecap:round"></path><path d="M10.792159980253015,124.64049936786923L12.223119857215018,132.66421837526346L29.368608608019727,129.87846006205393z" style="fill:rgb(112,56,202)"></path><path d="M10.79215998025306,124.64049936786918L12.223119857215112,132.66421837526343L29.368608608019823,129.87846006205388z" style="fill:rgb(81,214,102)"></path><path d="M16.326465842822195,116.82657859809375L10.792159980253015,124.64049936786923L29.368608608019727,129.87846006205393z" style="fill:rgb(112,56,202)"></path><path d="M16.32646584282229,116.82657859809372L10.79215998025306,124.64049936786918L29.368608608019823,129.87846006205388z" style="fill:rgb(81,214,102)"></path><path d="M17.29373873450075,121.74942901416057L12.444118794322687,118.5515193542331L25.488290317607348,131.60753765778287zM6.907489363152669,126.3679038152404L8.340241450094021,134.3931397448054L25.488290317607348,131.60753765778287zM12.444118794322687,118.5515193542331L6.907489363152669,126.3679038152404L25.488290317607348,131.60753765778287z" style="fill:rgb(197,147,42)"></path><path d="M-38.36332002079511,258.0753554435873L-43.242688011481306,254.9439234282692L-30.21390709301358,268.0567104530901zM-48.793779240412086,262.7932947839354L-47.340195920244675,270.77239584798474L-30.21390709301358,268.0567104530901zM-43.242688011481306,254.9439234282692L-48.793779240412086,262.7932947839354L-30.21390709301358,268.0567104530901z" style="fill:rgb(212,72,90)"></path><path d="M-195.81113235300148,-304.9161450821412L-195.81113235300148,-304.9161450821412L-58.737686355214194,-161.3501670942855z" style="fill:rgb(0,0,0); fill-opacity: 0.2"></path><path d="M-90.81313661415585,127.77188375651338L-36.7470476609175,148.18195418772964" style="fill:none;stroke:rgb(197,147,42);stroke-width:5;stroke-linecap:round"></path><path d="M-90.81313661415585,127.7718837565134L-36.7470476609175,148.18195418772967" style="fill:none;stroke:rgb(112,56,202);stroke-width:5;stroke-linecap:round"></path><path d="M-90.81313661415585,127.77188375651338L-36.7470476609175,148.18195418772964" style="fill:none;stroke:rgb(81,214,102);stroke-width:5;stroke-linecap:round"></path><path d="M-90.81313661415585,127.7718837565134L-36.7470476609175,148.18195418772967" style="fill:none;stroke:rgb(212,72,90);stroke-width:5;stroke-linecap:round"></path><path d="M-190.56592731617832,-105.59066641244662L-195.81113235300148,-304.9161450821412M-190.56592731617832,-105.59066641244662L-195.81113235300148,-304.9161450821412" style="fill:none;stroke:rgb(0,0,0);stroke-width:1;stroke-linecap:round"></path><path d="M-36.03699032083071,219.92102799914832L-40.919950495444645,216.767543909439L-27.877605849160737,229.8787482271986z" style="fill:rgb(212,72,90)"></path><path d="M-5.05149164862361,131.6857284191679L-9.919705630155262,128.48784697539088L3.1361371679187147,141.56770183372757z" style="fill:rgb(112,56,202)"></path><path d="M-5.051491648623514,131.68572841916787L-9.919705630155214,128.48784697539088L3.136137167918762,141.56770183372748z" style="fill:rgb(81,214,102)"></path><path d="M-46.475941915333465,224.6162454165663L-45.02178590235896,232.6169893118551L-27.877605849160737,229.8787482271986zM-40.919950495444645,216.767543909439L-46.475941915333465,224.6162454165663L-27.877605849160737,229.8787482271986z" style="fill:rgb(212,72,90)"></path><path d="M-6.997804231045593,132.55119922538003L-11.867639409396762,129.35332095906602L1.1892187570032198,142.4352525739191z" style="fill:rgb(197,147,42)"></path><path d="M-15.469728506846037,136.31842716161452L-14.026637927037083,144.35239462493985L3.1361371679187147,141.56770183372757z" style="fill:rgb(112,56,202)"></path><path d="M-15.469728506845941,136.31842716161452L-14.026637927037035,144.3523946249398L3.136137167918762,141.56770183372748z" style="fill:rgb(81,214,102)"></path><path d="M-9.919705630155262,128.48784697539088L-15.469728506846037,136.31842716161452L3.1361371679187147,141.56770183372757z" style="fill:rgb(112,56,202)"></path><path d="M-9.919705630155214,128.48784697539088L-15.469728506845941,136.31842716161452L3.136137167918762,141.56770183372748z" style="fill:rgb(81,214,102)"></path><path d="M-17.418829591094752,137.18513793665073L-15.974837324421777,145.21986540746286L1.1892187570032198,142.4352525739191zM-11.867639409396762,129.35332095906602L-17.418829591094752,137.18513793665073L1.1892187570032198,142.4352525739191z" style="fill:rgb(197,147,42)"></path><path d="M-33.7061283670415,181.6923666817008L-38.59268546798397,178.51675047461276L-25.536748941260743,191.6263409911172zM-44.15358564546151,186.36476460545532L-42.69885746750579,194.38722059001924L-25.536748941260743,191.6263409911172zM-38.59268546798397,178.51675047461276L-44.15358564546151,186.36476460545532L-25.536748941260743,191.6263409911172z" style="fill:rgb(212,72,90)"></path><path d="M-31.37072090162005,143.38915404884065L-36.26087967855532,140.191325338616L-23.191323031353,153.29927078658469z" style="fill:rgb(197,147,42)"></path><path d="M-31.370720901620146,143.38915404884074L-36.26087967855532,140.191325338616L-23.191323031353,153.29927078658474z" style="fill:rgb(112,56,202)"></path><path d="M-31.37072090162005,143.38915404884065L-36.26087967855532,140.191325338616L-23.191323031353,153.29927078658469z" style="fill:rgb(81,214,102)"></path><path d="M-31.370720901620146,143.38915404884074L-36.26087967855532,140.191325338616L-23.191323031353,153.29927078658474z" style="fill:rgb(212,72,90)"></path><path d="M-41.82669720243798,148.0386344665969L-40.37139739368858,156.08287208047977L-23.191323031353,153.29927078658469z" style="fill:rgb(197,147,42)"></path><path d="M-41.82669720243807,148.0386344665969L-40.371397393688675,156.08287208047983L-23.191323031353,153.29927078658474z" style="fill:rgb(112,56,202)"></path><path d="M-41.82669720243798,148.0386344665969L-40.37139739368858,156.08287208047977L-23.191323031353,153.29927078658469z" style="fill:rgb(81,214,102)"></path><path d="M-41.82669720243807,148.0386344665969L-40.371397393688675,156.08287208047983L-23.191323031353,153.29927078658474z" style="fill:rgb(212,72,90)"></path><path d="M-36.26087967855532,140.191325338616L-41.82669720243798,148.0386344665969L-23.191323031353,153.29927078658469z" style="fill:rgb(197,147,42)"></path><path d="M-36.26087967855532,140.191325338616L-41.82669720243807,148.0386344665969L-23.191323031353,153.29927078658474z" style="fill:rgb(112,56,202)"></path><path d="M-36.26087967855532,140.191325338616L-41.82669720243798,148.0386344665969L-23.191323031353,153.29927078658469z" style="fill:rgb(81,214,102)"></path><path d="M-36.26087967855532,140.191325338616L-41.82669720243807,148.0386344665969L-23.191323031353,153.29927078658474z" style="fill:rgb(212,72,90)"></path><path d="M-195.81113235300148,-304.9161450821412L-195.81113235300148,-304.9161450821412" style="fill:none;stroke:rgb(0,0,0);stroke-width:1;stroke-linecap:round"></path></svg>