<svg viewBox="-1163.5 -590 2327 1180" width="2327" height="1180" style="background-color: rgb(255, 255, 255);">
    <path d="M-145.92535752663125,250.51508740574562L-121.64209589040026,-575.3587958890241" style="fill:none;stroke:rgb(0,0,0);stroke-width:1;stroke-linecap:round">
    </path>
    <path d="M-8.647871851981163,294.62640779891166L-145.92535752663125,250.51508740574562" style="fill:none;stroke:rgb(160,0,0);stroke-width:3;stroke-linecap:round">
    </path>
    <path d="M-8.64787185198145,294.62640779891154L18.545474302454867,-537.7487136408192" style="fill:none;stroke:rgb(0,0,0);stroke-width:1;stroke-linecap:round">
    </path>
    <path d="M-106.7972466030911,358.25143144046535L-8.64787185198145,294.62640779891154" style="fill:none;stroke:rgb(160,0,0);stroke-width:3;stroke-linecap:round">
    </path>
    <path d="M116.66960141570121,307.15933932472177L118.77364898248997,317.46787575937486L122.97566083083085,311.83914684226613z" style="fill:rgb(197,147,42)">
    </path>
    <path d="M129.4754045967331,311.2519614792348L126.68612202173544,320.0014108900376L134.92891640730593,307.8733125384778z" style="fill:rgb(197,147,42)">
    </path>
    <path d="M118.77364898248997,317.46787575937486L126.68612202173544,320.0014108900376L122.97566083083085,311.83914684226613z" style="fill:rgb(197,147,42)">
    </path>
    <path d="M123.28077893021303,303.3131327587322L129.4754045967331,311.2519614792348L134.92891640730593,307.8733125384778z" style="fill:rgb(197,147,42)">
    </path>
    <path d="M123.28077893021303,303.3131327587322L116.66960141570121,307.15933932472177L122.97566083083085,311.83914684226613z" style="fill:rgb(197,147,42)">
    </path>
    <path d="M74.93430294747967,327.7782409137866L122.97566083083088,311.83914684226613" style="fill:none;stroke:rgb(197,147,42);stroke-width:5;stroke-linecap:round">
    </path>
    <path d="M126.68612202173544,320.0014108900376L129.4754045967331,311.2519614792348L122.97566083083085,311.83914684226613z" style="fill:rgb(197,147,42)">
    </path>
    <path d="M129.4754045967331,311.2519614792348L123.28077893021303,303.3131327587322L122.97566083083085,311.83914684226613z" style="fill:rgb(197,147,42)">
    </path>
    <path d="M118.04019194729815,268.6964298296573L120.1460494896931,279.01706686512046L124.35243742880405,273.3674315032942z" style="fill:rgb(197,147,42)">
    </path>
    <path d="M130.85871930472504,272.76186660461923L128.0663826575527,281.5338166407299L136.31521701054547,269.434606292805z" style="fill:rgb(197,147,42)">
    </path>
    <path d="M120.1460494896931,279.01706686512046L128.0663826575527,281.5338166407299L124.35243742880405,273.3674315032942z" style="fill:rgb(197,147,42)">
    </path>
    <path d="M124.65810945415441,264.82593888664263L130.85871930472504,272.76186660461923L136.31521701054547,269.434606292805z" style="fill:rgb(197,147,42)">
    </path>
    <path d="M18.54547430245516,-537.7487136408191L-8.647871851981163,294.62640779891166L-145.92535752663125,250.51508740574562z" style="fill:rgb(0,0,0); fill-opacity: 0.2">
    </path>
    <path d="M124.65810945415441,264.82593888664263L118.04019194729815,268.6964298296573L124.35243742880405,273.3674315032942z" style="fill:rgb(197,147,42)">
    </path>
    <path d="M76.27259348461604,289.17392706630636L124.35243742880407,273.3674315032942" style="fill:none;stroke:rgb(197,147,42);stroke-width:5;stroke-linecap:round">
    </path>
    <path d="M128.0663826575527,281.5338166407299L130.85871930472504,272.76186660461923L124.35243742880405,273.3674315032942z" style="fill:rgb(197,147,42)">
    </path>
    <path d="M130.85871930472504,272.76186660461923L124.65810945415441,264.82593888664263L124.35243742880405,273.3674315032942z" style="fill:rgb(197,147,42)">
    </path>
    <path d="M119.41327074895605,230.16369196211593L121.5209413744668,240.49645656643025L125.73171437639004,234.82584808354937z" style="fill:rgb(197,147,42)">
    </path>
    <path d="M132.24454740257315,234.20183781441463L129.44915018450925,242.9963558251579L137.7040328622803,230.92615839238613z" style="fill:rgb(197,147,42)">
    </path>
    <path d="M121.5209413744668,240.49645656643025L129.44915018450925,242.9963558251579L125.73171437639004,234.82584808354937z" style="fill:rgb(197,147,42)">
    </path>
    <path d="M126.0379418375145,226.26883474478475L132.24454740257315,234.20183781441463L137.7040328622803,230.92615839238613z" style="fill:rgb(197,147,42)">
    </path>
    <path d="M126.0379418375145,226.26883474478475L119.41327074895605,230.16369196211593L125.73171437639004,234.82584808354937z" style="fill:rgb(197,147,42)">
    </path>
    <path d="M77.61332377965424,250.49923598971003L125.73171437639006,234.82584808354935" style="fill:none;stroke:rgb(197,147,42);stroke-width:5;stroke-linecap:round">
    </path>
    <path d="M129.44915018450925,242.9963558251579L132.24454740257315,234.20183781441463L125.73171437639004,234.82584808354937z" style="fill:rgb(197,147,42)">
    </path>
    <path d="M132.24454740257315,234.20183781441463L126.0379418375145,226.26883474478475L125.73171437639004,234.82584808354937z" style="fill:rgb(197,147,42)">
    </path>
    <path d="M120.78884460291187,191.5609353920443L122.89833142703147,201.90585462039624L127.11349849106779,196.21420608000773z" style="fill:rgb(197,147,42)">
    </path>
    <path d="M133.6328957464967,195.57168433747503L130.8344314385048,204.38883792813354L139.0953708140758,192.34777886016482z" style="fill:rgb(197,147,42)">
    </path>
    <path d="M122.89833142703147,201.90585462039624L130.8344314385048,204.38883792813354L127.11349849106779,196.21420608000773z" style="fill:rgb(197,147,42)">
    </path>
    <path d="M127.42028290326408,187.64162967667207L133.6328957464967,195.57168433747503L139.0953708140758,192.34777886016482z" style="fill:rgb(197,147,42)">
    </path>
    <path d="M127.42028290326408,187.64162967667207L120.78884460291187,191.5609353920443L127.11349849106779,196.21420608000773z" style="fill:rgb(197,147,42)">
    </path>
    <path d="M78.95650051034761,211.75397505760208L127.11349849106779,196.21420608000773" style="fill:none;stroke:rgb(197,147,42);stroke-width:5;stroke-linecap:round">
    </path>
    <path d="M130.8344314385048,204.38883792813354L133.6328957464967,195.57168433747503L127.11349849106779,196.21420608000773z" style="fill:rgb(197,147,42)">
    </path>
    <path d="M133.6328957464967,195.57168433747503L127.42028290326408,187.64162967667207L127.11349849106779,196.21420608000773z" style="fill:rgb(197,147,42)">
    </path>
    <path d="M122.16692031607352,152.88796909705383L124.27822646230538,163.245070092142L128.4977966151234,157.53231429644535z" style="fill:rgb(197,147,42)">
    </path>
    <path d="M135.0237712176751,156.87121470815583L132.2222332803155,165.7110717411655L140.4892377424049,153.6992770284579z" style="fill:rgb(197,147,42)">
    </path>
    <path d="M124.27822646230538,163.245070092142L132.2222332803155,165.7110717411655L128.4977966151234,157.53231429644535z" style="fill:rgb(197,147,42)">
    </path>
    <path d="M128.80513949920623,148.94413233191995L135.0237712176751,156.87121470815583L140.4892377424049,153.6992770284579z" style="fill:rgb(197,147,42)">
    </path>
    <path d="M128.80513949920623,148.94413233191995L122.16692031607352,152.88796909705383L128.4977966151234,157.53231429644535z" style="fill:rgb(197,147,42)">
    </path>
    <path d="M80.30213037884147,172.93795093997292L128.49779661512343,157.53231429644535" style="fill:none;stroke:rgb(197,147,42);stroke-width:5;stroke-linecap:round">
    </path>
    <path d="M89.79079547104615,-100.77197605159671L74.93430294747967,327.7782409137866" style="fill:none;stroke:rgb(50,34,0);stroke-width:5;stroke-linecap:round">
    </path>
    <path d="M74.93430294747967,327.7782409137866L-106.79724660309081,358.25143144046547" style="fill:none;stroke:rgb(160,0,0);stroke-width:3;stroke-linecap:round">
    </path>
    <path d="M132.2222332803155,165.7110717411655L135.0237712176751,156.87121470815583L128.4977966151234,157.53231429644535z" style="fill:rgb(197,147,42)">
    </path>
    <path d="M135.0237712176751,156.87121470815583L128.80513949920623,148.94413233191995L128.4977966151234,157.53231429644535z" style="fill:rgb(197,147,42)">
    </path>
    <path d="M123.5475047201316,114.14460135926994L125.66063332001715,124.51391135167346L129.88461561576332,118.77998084028238z" style="fill:rgb(197,147,42)">
    </path>
    <path d="M-121.64209589040026,-575.3587958890241L-145.92535752663125,250.51508740574562L18.54547430245516,-537.7487136408191z" style="fill:rgb(0,0,0); fill-opacity: 0.2">
    </path>
    <path d="M136.41718072236105,118.10023676315058L133.61256259570723,126.96286535930203L141.8856405487614,114.98046153581451z" style="fill:rgb(197,147,42)">
    </path>
    <path d="M125.66063332001715,124.51391135167346L133.61256259570723,126.96286535930203L129.88461561576332,118.77998084028238z" style="fill:rgb(197,147,42)">
    </path>
    <path d="M130.19251849808947,110.17615066308547L136.41718072236105,118.10023676315058L141.8856405487614,114.98046153581451z" style="fill:rgb(197,147,42)">
    </path>
    <path d="M130.19251849808947,110.17615066308547L123.5475047201316,114.14460135926994L129.88461561576332,118.77998084028238z" style="fill:rgb(197,147,42)">
    </path>
    <path d="M81.65022011178468,134.0509695999833L129.88461561576332,118.77998084028238" style="fill:none;stroke:rgb(197,147,42);stroke-width:5;stroke-linecap:round">
    </path>
    <path d="M133.61256259570723,126.96286535930203L136.41718072236105,118.10023676315058L129.88461561576332,118.77998084028238z" style="fill:rgb(197,147,42)">
    </path>
    <path d="M136.41718072236105,118.10023676315058L130.19251849808947,110.17615066308547L129.88461561576332,118.77998084028238z" style="fill:rgb(197,147,42)">
    </path>
    <path d="M124.93060467167287,75.33063976216415L127.04555886481897,85.71218607071332L131.273962385228,79.95701311941z" style="fill:rgb(197,147,42)">
    </path>
    <path d="M137.8131311919955,79.25855763831045L135.00542629554974,88.14402617795731L143.28458615977405,76.19114032385768z" style="fill:rgb(197,147,42)">
    </path>
    <path d="M127.04555886481897,85.71218607071332L135.00542629554974,88.14402617795731L131.273962385228,79.95701311941z" style="fill:rgb(197,147,42)">
    </path>
    <path d="M131.58242679772147,71.3374919224907L137.8131311919955,79.25855763831045L143.28458615977405,76.19114032385768z" style="fill:rgb(197,147,42)">
    </path>
    <path d="M131.58242679772147,71.3374919224907L124.93060467167287,75.33063976216415L131.273962385228,79.95701311941z" style="fill:rgb(197,147,42)">
    </path>
    <path d="M83.00077646044187,95.09283629073083L131.27396238522803,79.95701311941" style="fill:none;stroke:rgb(197,147,42);stroke-width:5;stroke-linecap:round">
    </path>
    <path d="M135.00542629554974,88.14402617795731L137.8131311919955,79.25855763831045L131.273962385228,79.95701311941z" style="fill:rgb(197,147,42)">
    </path>
    <path d="M137.8131311919955,79.25855763831045L131.58242679772147,71.3374919224907L131.273962385228,79.95701311941z" style="fill:rgb(197,147,42)">
    </path>
    <path d="M126.31622705229341,36.44589118736852L128.4330099863999,46.83970121951701L132.66584384090575,41.063217838999805z" style="fill:rgb(197,147,42)">
    </path>
    <path d="M139.21162958332204,40.34598376544623L136.40083131593073,49.254360889720125L144.68608152732074,37.331120634108665z" style="fill:rgb(197,147,42)">
    </path>
    <path d="M128.4330099863999,46.83970121951701L136.40083131593073,49.254360889720125L132.66584384090575,41.063217838999805z" style="fill:rgb(197,147,42)">
    </path>
    <path d="M132.97487132108333,32.42796265902815L139.21162958332204,40.34598376544623L144.68608152732074,37.331120634108665z" style="fill:rgb(197,147,42)">
    </path>
    <path d="M132.97487132108333,32.42796265902815L126.31622705229341,36.44589118736852L132.66584384090575,41.063217838999805z" style="fill:rgb(197,147,42)">
    </path>
    <path d="M84.35380620080593,56.06335555199924L132.66584384090575,41.06321783899979" style="fill:none;stroke:rgb(197,147,42);stroke-width:5;stroke-linecap:round">
    </path>
    <path d="M136.40083131593073,49.254360889720125L139.21162958332204,40.34598376544623L132.66584384090575,41.063217838999805z" style="fill:rgb(197,147,42)">
    </path>
    <path d="M139.21162958332204,40.34598376544623L132.97487132108333,32.42796265902815L132.66584384090575,41.063217838999805z" style="fill:rgb(197,147,42)">
    </path>
    <path d="M127.7043787687127,-2.5098381885272314L129.8229935996003,7.896263063672054L134.0602669254478,2.0984009982958356z" style="fill:rgb(197,147,42)">
    </path>
    <path d="M140.61268287850265,1.3623208691127848L137.79878461827124,10.293675481145067L146.09013362864403,-1.5997909952058975z" style="fill:rgb(197,147,42)">
    </path>
    <path d="M129.8229935996003,7.896263063672054L137.79878461827124,10.293675481145067L134.0602669254478,2.0984009982958356z" style="fill:rgb(197,147,42)">
    </path>
    <path d="M134.3698590164445,-6.552631285050997L140.61268287850265,1.3623208691127848L146.09013362864403,-1.5997909952058975z" style="fill:rgb(197,147,42)">
    </path>
    <path d="M134.3698590164445,-6.552631285050997L127.7043787687127,-2.5098381885272314L134.0602669254478,2.0984009982958356z" style="fill:rgb(197,147,42)">
    </path>
    <path d="M85.70931613371157,16.962331206989347L134.0602669254478,2.098400998295855" style="fill:none;stroke:rgb(197,147,42);stroke-width:5;stroke-linecap:round">
    </path>
    <path d="M137.79878461827124,10.293675481145067L140.61268287850265,1.3623208691127848L134.0602669254478,2.0984009982958356z" style="fill:rgb(197,147,42)">
    </path>
    <path d="M140.61268287850265,1.3623208691127848L134.3698590164445,-6.552631285050997L134.0602669254478,2.0984009982958356z" style="fill:rgb(197,147,42)">
    </path>
    <path d="M18.54547430245516,-537.7487136408191L-121.64209589040026,-575.3587958890241" style="fill:none;stroke:rgb(0,0,0);stroke-width:1;stroke-linecap:round">
    </path>
    <path d="M-121.64209589040026,-575.3587958890241L-632.9325915276765,-444.34584225505716" style="fill:none;stroke:rgb(0,0,0);stroke-width:1;stroke-linecap:round">
    </path>
    <path d="M18.54547430245516,-537.7487136408191L-121.64209589040026,-575.3587958890241" style="fill:none;stroke:rgb(0,0,0);stroke-width:1;stroke-linecap:round">
    </path>
    <path d="M129.09506675288878,-41.536742897196085L131.2155166445268,-31.118322839120577L135.4572386068836,-36.93763211261091z" style="fill:rgb(197,147,42)">
    </path>
    <path d="M142.01629808523415,-37.692626036624006L139.1992931894415,-28.73822477047371L147.49674946646653,-40.60178873236452z" style="fill:rgb(197,147,42)">
    </path>
    <path d="M131.2155166445268,-31.118322839120577L139.1992931894415,-28.73822477047371L135.4572386068836,-36.93763211261091z" style="fill:rgb(197,147,42)">
    </path>
    <path d="M135.7673968574784,-45.60448477736639L142.01629808523415,-37.692626036624006L147.49674946646653,-40.60178873236452z" style="fill:rgb(197,147,42)">
    </path>
    <path d="M135.7673968574784,-45.60448477736639L129.09506675288878,-41.536742897196085L135.4572386068836,-36.93763211261091z" style="fill:rgb(197,147,42)">
    </path>
    <path d="M87.06731308494895,-22.21043364096784L135.4572386068836,-36.93763211261088" style="fill:none;stroke:rgb(197,147,42);stroke-width:5;stroke-linecap:round">
    </path>
    <path d="M139.1992931894415,-28.73822477047371L142.01629808523415,-37.692626036624006L135.4572386068836,-36.93763211261091z" style="fill:rgb(197,147,42)">
    </path>
    <path d="M142.01629808523415,-37.692626036624006L135.7673968574784,-45.60448477736639L135.4572386068836,-36.93763211261091z" style="fill:rgb(197,147,42)">
    </path>
    <path d="M130.48829796213315,-80.63501818181187L132.61058608666738,-70.20425164228253L136.8567658787369,-76.04507691602582z" style="fill:rgb(197,147,42)">
    </path>
    <path d="M143.42248223686465,-76.81905265143823L140.60236404187705,-67.84153530034655L148.90593606910764,-79.67506745537888z" style="fill:rgb(197,147,42)">
    </path>
    <path d="M132.61058608666738,-70.20425164228253L140.60236404187705,-67.84153530034655L136.8567658787369,-76.04507691602582z" style="fill:rgb(197,147,42)">
    </path>
    <path d="M137.16749184337857,-84.72779339865573L143.42248223686465,-76.81905265143823L148.90593606910764,-79.67506745537888z" style="fill:rgb(197,147,42)">
    </path>
    <path d="M137.16749184337857,-84.72779339865573L130.48829796213315,-80.63501818181187L136.8567658787369,-76.04507691602582z" style="fill:rgb(197,147,42)">
    </path>
    <path d="M88.42780390537851,-61.455136611715965L136.85676587873695,-76.0450769160258" style="fill:none;stroke:rgb(197,147,42);stroke-width:5;stroke-linecap:round">
    </path>
    <path d="M140.60236404187705,-67.84153530034655L143.42248223686465,-76.81905265143823L136.8567658787369,-76.04507691602582z" style="fill:rgb(197,147,42)">
    </path>
    <path d="M143.42248223686465,-76.81905265143823L137.16749184337857,-84.72779339865573L136.8567658787369,-76.04507691602582z" style="fill:rgb(197,147,42)">
    </path>
    <path d="M131.88407937922702,-119.80486000030514L134.00820891700823,-109.36171921361199L138.25885576014264,-115.22412954991177z" style="fill:rgb(197,147,42)">
    </path>
    <path d="M89.79079547104615,-100.77197605159671L74.93430294747967,327.7782409137866L-106.79724660309081,358.25143144046547z" style="fill:rgb(0,0,0); fill-opacity: 0.2">
    </path>
    <path d="M144.8312423925112,-116.01715539201275L142.00800421369607,-107.01645225945019L150.31770049060069,-118.81982275523973z" style="fill:rgb(197,147,42)">
    </path>
    <path d="M134.00820891700823,-109.36171921361199L142.00800421369607,-107.01645225945019L138.25885576014264,-115.22412954991177z" style="fill:rgb(197,147,42)">
    </path>
    <path d="M138.5701509989756,-123.92275344603982L144.8312423925112,-116.01715539201275L150.31770049060069,-118.81982275523973z" style="fill:rgb(197,147,42)">
    </path>
    <path d="M138.5701509989756,-123.92275344603982L131.88407937922702,-119.80486000030514L138.25885576014264,-115.22412954991177z" style="fill:rgb(197,147,42)">
    </path>
    <path d="M89.79079547104615,-100.77197605159661L138.25885576014267,-115.22412954991174" style="fill:none;stroke:rgb(197,147,42);stroke-width:5;stroke-linecap:round">
    </path>
    <path d="M142.00800421369607,-107.01645225945019L144.8312423925112,-116.01715539201275L138.25885576014264,-115.22412954991177z" style="fill:rgb(197,147,42)">
    </path>
    <path d="M144.8312423925112,-116.01715539201275L138.5701509989756,-123.92275344603982L138.25885576014264,-115.22412954991177z" style="fill:rgb(197,147,42)">
    </path>
    <path d="M104.94919474874446,-35.13766798583064L95.14912289511597,-36.736914943576984L97.08386187708126,-34.01414834979323z" style="fill:rgb(43,180,168)">
    </path>
    <path d="M104.94919474874442,-35.13766798583064L95.14912289511597,-36.736914943576984L97.08386187708126,-34.01414834979323z" style="fill:rgb(74,87,214)">
    </path>
    <path d="M95.14912289511597,-36.736914943576984L88.02004574927972,-34.57404691786844L97.08386187708126,-34.01414834979323z" style="fill:rgb(43,180,168)">
    </path>
    <path d="M95.14912289511597,-36.736914943576984L88.02004574927969,-34.57404691786844L97.08386187708126,-34.01414834979323z" style="fill:rgb(74,87,214)">
    </path>
    <path d="M99.51431133398981,-103.67132343534539L97.08386187708128,-34.01414834979322" style="fill:none;stroke:rgb(43,180,168);stroke-width:5;stroke-linecap:round">
    </path>
    <path d="M99.51431133398981,-103.67132343534539L97.08386187708128,-34.01414834979322" style="fill:none;stroke:rgb(74,87,214);stroke-width:5;stroke-linecap:round">
    </path>
    <path d="M103.88534447320464,-31.98340494381795L104.94919474874446,-35.13766798583064L97.08386187708126,-34.01414834979323z" style="fill:rgb(43,180,168)">
    </path>
    <path d="M103.88534447320461,-31.983404943817902L104.94919474874442,-35.13766798583064L97.08386187708126,-34.01414834979323z" style="fill:rgb(74,87,214)">
    </path>
    <path d="M93.4155577559346,-31.63432666824721L88.02004574927972,-34.57404691786844L96.47748450094409,-16.63524958790254z" style="fill:rgb(43,180,168)">
    </path>
    <path d="M93.4155577559346,-31.63432666824721L88.02004574927969,-34.57404691786844L96.47748450094409,-16.63524958790254z" style="fill:rgb(74,87,214)">
    </path>
    <path d="M88.02004574927972,-34.57404691786844L93.4155577559346,-31.63432666824721L97.08386187708126,-34.01414834979323z" style="fill:rgb(43,180,168)">
    </path>
    <path d="M88.02004574927969,-34.57404691786844L93.4155577559346,-31.63432666824721L97.08386187708126,-34.01414834979323z" style="fill:rgb(74,87,214)">
    </path>
    <path d="M103.88534447320461,-31.98340494381795L93.4155577559346,-31.63432666824721L96.47748450094409,-16.63524958790254z" style="fill:rgb(43,180,168)">
    </path>
    <path d="M103.88534447320461,-31.983404943817902L93.4155577559346,-31.63432666824721L96.47748450094409,-16.63524958790254z" style="fill:rgb(74,87,214)">
    </path>
    <path d="M-106.79724660309081,358.25143144046547L-87.65916547454023,-271.25747690772135" style="fill:none;stroke:rgb(0,0,0);stroke-width:1;stroke-linecap:round">
    </path>
    <path d="M93.4155577559346,-31.63432666824721L103.88534447320461,-31.98340494381795L97.08386187708126,-34.01414834979323z" style="fill:rgb(43,180,168)">
    </path>
    <path d="M93.4155577559346,-31.63432666824721L103.88534447320461,-31.983404943817902L97.08386187708126,-34.01414834979323z" style="fill:rgb(74,87,214)">
    </path>
    <path d="M-87.65916547454052,-271.2574769077214L-106.7972466030911,358.25143144046535L-8.64787185198145,294.62640779891154z" style="fill:rgb(0,0,0); fill-opacity: 0.2">
    </path>
    <path d="M95.24885923317494,-32.19119184588433L85.44417227853567,-33.79256086375874L87.3743024578955,-31.065845655184557z" style="fill:rgb(109,213,75)">
    </path>
    <path d="M85.44417227853567,-33.79256086375874L78.30410788529474,-31.62635945202898L87.3743024578955,-31.065845655184557z" style="fill:rgb(109,213,75)">
    </path>
    <path d="M89.79079547104615,-100.77197605159671L87.37430245789551,-31.065845655184546" style="fill:none;stroke:rgb(109,213,75);stroke-width:5;stroke-linecap:round">
    </path>
    <path d="M94.17688076004792,-29.032277376566178L95.24885923317494,-32.19119184588433L87.3743024578955,-31.065845655184557z" style="fill:rgb(109,213,75)">
    </path>
    <path d="M83.69743824641424,-28.682448641555332L78.30410788529474,-31.62635945202898L86.7714080467751,-13.674760223477582z" style="fill:rgb(109,213,75)">
    </path>
    <path d="M78.30410788529474,-31.62635945202898L83.69743824641424,-28.682448641555332L87.3743024578955,-31.065845655184557z" style="fill:rgb(109,213,75)">
    </path>
    <path d="M94.17688076004792,-29.032277376566178L83.69743824641424,-28.682448641555332L86.7714080467751,-13.674760223477582z" style="fill:rgb(109,213,75)">
    </path>
    <path d="M83.69743824641424,-28.682448641555332L94.17688076004792,-29.032277376566178L87.3743024578955,-31.065845655184557z" style="fill:rgb(109,213,75)">
    </path>
    <path d="M99.51431133398981,-103.67132343534539L-47.93165051425408,-59.70604690834323" style="fill:none;stroke:rgb(0,44,41);stroke-width:5;stroke-linecap:round">
    </path>
    <path d="M99.51431133398981,-103.67132343534539L60.49682182730053,-312.84574952765666" style="fill:none;stroke:rgb(0,0,0);stroke-width:1;stroke-linecap:round">
    </path>
    <path d="M-405.77095022120164,46.99408625662703L99.51431133398981,-103.67132343534539" style="fill:none;stroke:rgb(10,15,55);stroke-width:5;stroke-linecap:round">
    </path>
    <path d="M99.51431133398981,-103.67132343534539L60.49682182730053,-312.84574952765666" style="fill:none;stroke:rgb(0,0,0);stroke-width:1;stroke-linecap:round">
    </path>
    <path d="M77.96686753765326,-26.941788245372297L68.15396956728804,-28.54694129236468L70.07586549833654,-25.813184221380595z" style="fill:rgb(74,87,214)">
    </path>
    <path d="M68.15396956728804,-28.54694129236468L60.994309474840094,-26.37479480381928L70.07586549833654,-25.813184221380595z" style="fill:rgb(74,87,214)">
    </path>
    <path d="M75.80328530856833,-26.284600315678652L65.98936038698261,-27.89022740240876L67.9102233497104,-25.155588103297617z" style="fill:rgb(43,180,168)">
    </path>
    <path d="M18.545474302454867,-537.7487136408192L-8.64787185198145,294.62640779891154L-87.65916547454052,-271.2574769077214z" style="fill:rgb(0,0,0); fill-opacity: 0.2">
    </path>
    <path d="M65.98936038698261,-27.89022740240876L58.82724516133809,-25.717336058816812L67.9102233497104,-25.155588103297617z" style="fill:rgb(43,180,168)">
    </path>
    <path d="M72.46743337700573,-95.60651478500898L70.07586549833655,-25.81318422138058" style="fill:none;stroke:rgb(74,87,214);stroke-width:5;stroke-linecap:round">
    </path>
    <path d="M76.8803800736231,-23.774578372806822L77.96686753765326,-26.941788245372297L70.07586549833654,-25.813184221380595z" style="fill:rgb(74,87,214)">
    </path>
    <path d="M66.38372884054093,-23.423410789051253L60.994309474840094,-26.37479480381928L69.47919136345485,-8.4003917574934z" style="fill:rgb(74,87,214)">
    </path>
    <path d="M70.29866531915073,-94.95983388448583L67.91022334971042,-25.155588103297607" style="fill:none;stroke:rgb(43,180,168);stroke-width:5;stroke-linecap:round">
    </path>
    <path d="M60.994309474840094,-26.37479480381928L66.38372884054093,-23.423410789051253L70.07586549833654,-25.813184221380595z" style="fill:rgb(74,87,214)">
    </path>
    <path d="M76.8803800736231,-23.774578372806822L66.38372884054093,-23.423410789051253L69.47919136345485,-8.4003917574934z" style="fill:rgb(74,87,214)">
    </path>
    <path d="M74.71497890502961,-23.116351152558227L75.80328530856833,-26.284600315678652L67.9102233497104,-25.155588103297617z" style="fill:rgb(43,180,168)">
    </path>
    <path d="M64.21617271448801,-22.765015788470222L58.82724516133809,-25.717336058816812L67.31432930886108,-7.740078486901024z" style="fill:rgb(43,180,168)">
    </path>
    <path d="M89.79079547104615,-100.77197605159671L-87.65916547454023,-271.25747690772135" style="fill:none;stroke:rgb(0,0,0);stroke-width:1;stroke-linecap:round">
    </path>
    <path d="M-47.93165051425408,-59.70604690834323L89.79079547104615,-100.77197605159671" style="fill:none;stroke:rgb(22,55,11);stroke-width:5;stroke-linecap:round">
    </path>
    <path d="M89.79079547104615,-100.77197605159671L-87.65916547454023,-271.25747690772135" style="fill:none;stroke:rgb(0,0,0);stroke-width:1;stroke-linecap:round">
    </path>
    <path d="M66.38372884054093,-23.423410789051253L76.8803800736231,-23.774578372806822L70.07586549833654,-25.813184221380595z" style="fill:rgb(74,87,214)">
    </path>
    <path d="M58.82724516133809,-25.717336058816812L64.21617271448801,-22.765015788470222L67.9102233497104,-25.155588103297617z" style="fill:rgb(43,180,168)">
    </path>
    <path d="M74.71497890502961,-23.116351152558227L64.21617271448801,-22.765015788470222L67.31432930886108,-7.740078486901024z" style="fill:rgb(43,180,168)">
    </path>
    <path d="M68.0082428151582,-23.91685677940244L58.190619814282044,-25.524192320947794L60.107757283438026,-22.78637331870834z" style="fill:rgb(109,213,75)">
    </path>
    <path d="M64.21617271448801,-22.765015788470222L74.71497890502961,-23.116351152558227L67.9102233497104,-25.155588103297617z" style="fill:rgb(43,180,168)">
    </path>
    <path d="M58.190619814282044,-25.524192320947794L51.019655644785644,-23.348616324443967L60.107757283438026,-22.78637331870834z" style="fill:rgb(109,213,75)">
    </path>
    <path d="M62.48492702498945,-92.62994189893253L60.10775728343803,-22.78637331870833" style="fill:none;stroke:rgb(109,213,75);stroke-width:5;stroke-linecap:round">
    </path>
    <path d="M66.91337841743422,-20.744861805955754L68.0082428151582,-23.91685677940244L60.107757283438026,-22.78637331870834z" style="fill:rgb(109,213,75)">
    </path>
    <path d="M56.406807246218094,-20.39292164972153L51.019655644785644,-23.348616324443967L59.51467630618229,-5.361074996699061z" style="fill:rgb(109,213,75)">
    </path>
    <path d="M51.019655644785644,-23.348616324443967L56.406807246218094,-20.39292164972153L60.107757283438026,-22.78637331870834z" style="fill:rgb(109,213,75)">
    </path>
    <path d="M66.91337841743422,-20.744861805955754L56.406807246218094,-20.39292164972153L59.51467630618229,-5.361074996699061z" style="fill:rgb(109,213,75)">
    </path>
    <path d="M56.406807246218094,-20.39292164972153L66.91337841743422,-20.744861805955754L60.107757283438026,-22.78637331870834z" style="fill:rgb(109,213,75)">
    </path>
    <path d="M60.49682182730026,-312.8457495276568L18.545474302454867,-537.7487136408192" style="fill:none;stroke:rgb(0,0,0);stroke-width:1;stroke-linecap:round">
    </path>
    <path d="M60.49682182730026,-312.8457495276568L18.545474302454867,-537.7487136408192" style="fill:none;stroke:rgb(0,0,0);stroke-width:1;stroke-linecap:round">
    </path>
    <path d="M50.86866250392626,-18.710710625521287L41.04291849575332,-20.321805793554468L42.951843103007185,-17.57698885305555z" style="fill:rgb(74,87,214)">
    </path>
    <path d="M41.04291849575332,-20.321805793554468L33.85247823759013,-18.140321008496173L42.951843103007185,-17.57698885305555z" style="fill:rgb(74,87,214)">
    </path>
    <path d="M45.304172236890395,-87.50700312371647L42.9518431030072,-17.57698885305554" style="fill:none;stroke:rgb(74,87,214);stroke-width:5;stroke-linecap:round">
    </path>
    <path d="M46.522146343291126,-17.39045668805216L36.69434512695631,-19.00250595930984L38.60118233195624,-16.255912960644658z" style="fill:rgb(43,180,168)">
    </path>
    <path d="M49.75935295240428,-15.530471668143926L50.86866250392626,-18.710710625521287L42.951843103007185,-17.57698885305555z" style="fill:rgb(74,87,214)">
    </path>
    <path d="M39.235702729559875,-15.177200020953991L33.85247823759013,-18.140321008496173L42.364961245090385,-0.13017152287848782z" style="fill:rgb(74,87,214)">
    </path>
    <path d="M36.69434512695631,-19.00250595930984L29.498961627055955,-16.81952145987366L38.60118233195624,-16.255912960644658z" style="fill:rgb(43,180,168)">
    </path>
    <path d="M33.85247823759013,-18.140321008496173L39.235702729559875,-15.177200020953991L42.951843103007185,-17.57698885305555z" style="fill:rgb(74,87,214)">
    </path>
    <path d="M49.75935295240428,-15.530471668143926L39.235702729559875,-15.177200020953991L42.364961245090385,-0.13017152287848782z" style="fill:rgb(74,87,214)">
    </path>
    <path d="M18.545474302454867,-537.7487136408192L18.545474302454867,-537.7487136408192L60.49682182730026,-312.8457495276568z" style="fill:rgb(0,0,0); fill-opacity: 0.2">
    </path>
    <path d="M39.235702729559875,-15.177200020953991L49.75935295240428,-15.530471668143926L42.951843103007185,-17.57698885305555z" style="fill:rgb(74,87,214)">
    </path>
    <path d="M40.94719988572955,-86.20784584712423L38.601182331956245,-16.255912960644643" style="fill:none;stroke:rgb(43,180,168);stroke-width:5;stroke-linecap:round">
    </path>
    <path d="M45.409167981737035,-14.208125397004963L46.522146343291126,-17.39045668805216L38.60118233195624,-16.255912960644658z" style="fill:rgb(43,180,168)">
    </path>
    <path d="M34.88118537520653,-13.854515721530438L29.498961627055955,-16.81952145987366L38.015875559609206,1.1963605704586946z" style="fill:rgb(43,180,168)">
    </path>
    <path d="M40.64960814798957,-15.606673679144187L30.819028896413467,-17.220012467373156L32.72304283717309,-14.47101894398z" style="fill:rgb(109,213,75)">
    </path>
    <path d="M29.498961627055955,-16.81952145987366L34.88118537520653,-13.854515721530438L38.60118233195624,-16.255912960644658z" style="fill:rgb(43,180,168)">
    </path>
    <path d="M45.409167981737035,-14.208125397004963L34.88118537520653,-13.854515721530438L38.015875559609206,1.1963605704586946z" style="fill:rgb(43,180,168)">
    </path>
    <path d="M30.819028896413467,-17.220012467373156L23.61696393013825,-15.035000899118469L32.72304283717309,-14.47101894398z" style="fill:rgb(109,213,75)">
    </path>
    <path d="M34.88118537520653,-13.854515721530438L45.409167981737035,-14.208125397004963L38.60118233195624,-16.255912960644658z" style="fill:rgb(43,180,168)">
    </path>
    <path d="M35.060525084548395,-84.4525635578416L32.7230428371731,-14.471018943979987" style="fill:none;stroke:rgb(109,213,75);stroke-width:5;stroke-linecap:round">
    </path>
    <path d="M39.531669300189236,-12.421514363778785L40.64960814798957,-15.606673679144187L32.72304283717309,-14.47101894398z" style="fill:rgb(109,213,75)">
    </path>
    <path d="M28.997832467478307,-12.067447744584562L23.61696393013825,-15.035000899118469L32.1398660880992,2.98862582076934z" style="fill:rgb(109,213,75)">
    </path>
    <path d="M-87.65916547454052,-271.2574769077214L18.545474302454867,-537.7487136408192" style="fill:none;stroke:rgb(0,0,0);stroke-width:1;stroke-linecap:round">
    </path>
    <path d="M18.545474302454867,-537.7487136408192L18.545474302454867,-537.7487136408192" style="fill:none;stroke:rgb(0,0,0);stroke-width:1;stroke-linecap:round">
    </path>
    <path d="M-87.65916547454052,-271.2574769077214L18.545474302454867,-537.7487136408192" style="fill:none;stroke:rgb(0,0,0);stroke-width:1;stroke-linecap:round">
    </path>
    <path d="M18.545474302454867,-537.7487136408192L-491.8461094072169,-404.0061191819869" style="fill:none;stroke:rgb(0,0,0);stroke-width:1;stroke-linecap:round">
    </path>
    <path d="M23.61696393013825,-15.035000899118469L28.997832467478307,-12.067447744584562L32.72304283717309,-14.47101894398z" style="fill:rgb(109,213,75)">
    </path>
    <path d="M39.531669300189236,-12.421514363778785L28.997832467478307,-12.067447744584562L32.1398660880992,2.98862582076934z" style="fill:rgb(109,213,75)">
    </path>
    <path d="M28.997832467478307,-12.067447744584562L39.531669300189236,-12.421514363778785L32.72304283717309,-14.47101894398z" style="fill:rgb(109,213,75)">
    </path>
    <path d="M-87.65916547454023,-271.25747690772135L-106.79724660309081,358.25143144046547L89.79079547104615,-100.77197605159671z" style="fill:rgb(0,0,0); fill-opacity: 0.2">
    </path>
    <path d="M23.65383157097043,-10.444207898072143L13.815221702727774,-12.061281520547087L15.7110454121602,-9.305334726657744z" style="fill:rgb(74,87,214)">
    </path>
    <path d="M13.815221702727774,-12.061281520547087L6.593802360360965,-9.870398089728756L15.7110454121602,-9.305334726657744z" style="fill:rgb(74,87,214)">
    </path>
    <path d="M18.023775095677923,-79.3725639770256L15.711045412160212,-9.30533472665773" style="fill:none;stroke:rgb(74,87,214);stroke-width:5;stroke-linecap:round">
    </path>
    <path d="M22.521513271598202,-7.250856898046065L23.65383157097043,-10.444207898072143L15.7110454121602,-9.305334726657744z" style="fill:rgb(74,87,214)">
    </path>
    <path d="M11.97072859312267,-6.89546629944267L6.593802360360965,-9.870398089728756L15.134045748213957,8.17563938771136z" style="fill:rgb(74,87,214)">
    </path>
    <path d="M6.593802360360965,-9.870398089728756L11.97072859312267,-6.89546629944267L15.7110454121602,-9.305334726657744z" style="fill:rgb(74,87,214)">
    </path>
    <path d="M17.10483451916548,-8.45495056540049L7.263133906184448,-10.07346445714844L9.155793973586395,-7.314836018550052z" style="fill:rgb(43,180,168)">
    </path>
    <path d="M22.521513271598202,-7.250856898046065L11.97072859312267,-6.89546629944267L15.134045748213957,8.17563938771136z" style="fill:rgb(74,87,214)">
    </path>
    <path d="M60.49682182730053,-312.84574952765666L-87.65916547454023,-271.25747690772135L99.51431133398981,-103.67132343534539z" style="fill:rgb(0,0,0); fill-opacity: 0.2">
    </path>
    <path d="M7.263133906184448,-10.07346445714844L0.03424979408171992,-7.8803163135978815L9.155793973586395,-7.314836018550052z" style="fill:rgb(43,180,168)">
    </path>
    <path d="M11.97072859312267,-6.89546629944267L22.521513271598202,-7.250856898046065L15.7110454121602,-9.305334726657744z" style="fill:rgb(74,87,214)">
    </path>
    <path d="M13.1721866067503,-7.260409075351727L3.328631002278121,-8.8797881433935L5.2193892580115895,-6.119548763078178z" style="fill:rgb(109,213,75)">
    </path>
    <path d="M11.458965719124068,-77.41507625766505L9.155793973586409,-7.314836018550041" style="fill:none;stroke:rgb(43,180,168);stroke-width:5;stroke-linecap:round">
    </path>
    <path d="M15.966966147748366,-5.2584402521630755L17.10483451916548,-8.45495056540049L9.155793973586395,-7.314836018550052z" style="fill:rgb(43,180,168)">
    </path>
    <path d="M5.409648931529032,-4.902538875010425L0.03424979408171992,-7.8803163135978815L8.581179514679848,10.174355437649758z" style="fill:rgb(43,180,168)">
    </path>
    <path d="M3.328631002278121,-8.8797881433935L-3.9047375287576487,-6.685279486255327L5.2193892580115895,-6.119548763078178z" style="fill:rgb(109,213,75)">
    </path>
    <path d="M0.03424979408171992,-7.8803163135978815L5.409648931529032,-4.902538875010425L9.155793973586395,-7.314836018550052z" style="fill:rgb(43,180,168)">
    </path>
    <path d="M15.966966147748366,-5.2584402521630755L5.409648931529032,-4.902538875010425L8.581179514679848,10.174355437649758z" style="fill:rgb(43,180,168)">
    </path>
    <path d="M7.516816148345765,-76.23961038652467L5.219389258011604,-6.119548763078168" style="fill:none;stroke:rgb(109,213,75);stroke-width:5;stroke-linecap:round">
    </path>
    <path d="M5.409648931529032,-4.902538875010425L15.966966147748366,-5.2584402521630755L9.155793973586395,-7.314836018550052z" style="fill:rgb(43,180,168)">
    </path>
    <path d="M12.03098297179677,-4.062000856808627L13.1721866067503,-7.260409075351727L5.2193892580115895,-6.119548763078178z" style="fill:rgb(109,213,75)">
    </path>
    <path d="M1.4697424541082749,-3.7057925964196157L-3.9047375287576487,-6.685279486255327L4.646208437943734,11.374576770853198z" style="fill:rgb(109,213,75)">
    </path>
    <path d="M-3.9047375287576487,-6.685279486255327L1.4697424541082749,-3.7057925964196157L5.2193892580115895,-6.119548763078178z" style="fill:rgb(109,213,75)">
    </path>
    <path d="M12.03098297179677,-4.062000856808627L1.4697424541082749,-3.7057925964196157L4.646208437943734,11.374576770853198z" style="fill:rgb(109,213,75)">
    </path>
    <path d="M1.4697424541082749,-3.7057925964196157L12.03098297179677,-4.062000856808627L5.2193892580115895,-6.119548763078178z" style="fill:rgb(109,213,75)">
    </path>
    <path d="M60.49682182730026,-312.8457495276568L-87.65916547454052,-271.2574769077214L18.545474302454867,-537.7487136408192z" style="fill:rgb(0,0,0); fill-opacity: 0.2">
    </path>
    <path d="M-3.6783797908733535,-2.1420508747009785L-13.529875239820909,-3.765139589822965L-11.647283318699516,-0.9979923607621765z" style="fill:rgb(74,87,214)">
    </path>
    <path d="M-13.529875239820909,-3.765139589822965L-20.78247430260807,-1.564796642861301L-11.647283318699516,-0.9979923607621765z" style="fill:rgb(74,87,214)">
    </path>
    <path d="M-9.374517371373901,-71.20297093031067L-11.647283318699502,-0.997992360762165" style="fill:none;stroke:rgb(74,87,214);stroke-width:5;stroke-linecap:round">
    </path>
    <path d="M-4.833895279916583,1.0644958369502886L-3.6783797908733535,-2.1420508747009785L-11.647283318699516,-0.9979923607621765z" style="fill:rgb(74,87,214)">
    </path>
    <path d="M-15.411950881439132,1.4220204091453705L-20.78247430260807,-1.564796642861301L-12.214309980120701,16.517271215005227z" style="fill:rgb(74,87,214)">
    </path>
    <path d="M-20.78247430260807,-1.564796642861301L-15.411950881439132,1.4220204091453705L-11.647283318699516,-0.9979923607621765z" style="fill:rgb(74,87,214)">
    </path>
    <path d="M-4.833895279916583,1.0644958369502886L-15.411950881439132,1.4220204091453705L-12.214309980120701,16.517271215005227z" style="fill:rgb(74,87,214)">
    </path>
    <path d="M-15.411950881439132,1.4220204091453705L-4.833895279916583,1.0644958369502886L-11.647283318699516,-0.9979923607621765z" style="fill:rgb(74,87,214)">
    </path>
    <path d="M-12.449602292012203,0.5222072611423723L-22.305225274796964,-1.1028140718370405L-20.426895387122183,1.6679323018750993z" style="fill:rgb(43,180,168)">
    </path>
    <path d="M-22.305225274796964,-1.1028140718370405L-29.567844505555286,1.1005688619944116L-20.426895387122183,1.6679323018750993z" style="fill:rgb(43,180,168)">
    </path>
    <path d="M-14.424797122496013,1.122172533521288L-24.281349076864384,-0.5032841608962352L-22.403980017114552,2.2682730269709777z" style="fill:rgb(109,213,75)">
    </path>
    <path d="M-24.281349076864384,-0.5032841608962352L-31.546225707130287,1.7007836381872425L-22.403980017114552,2.2682730269709777z" style="fill:rgb(109,213,75)">
    </path>
    <path d="M-18.16699536295196,-68.5812394063563L-20.42689538712217,1.6679323018751104" style="fill:none;stroke:rgb(43,180,168);stroke-width:5;stroke-linecap:round">
    </path>
    <path d="M-13.612580974382498,3.732994388587089L-12.449602292012203,0.5222072611423723L-20.426895387122183,1.6679323018750993z" style="fill:rgb(43,180,168)">
    </path>
    <path d="M-24.1993922580978,4.0912050271355245L-29.567844505555286,1.1005688619944116L-20.99071136194758,19.194196651509788z" style="fill:rgb(43,180,168)">
    </path>
    <path d="M-20.146980029740575,-67.99084973204174L-22.403980017114538,2.268273026970989" style="fill:none;stroke:rgb(109,213,75);stroke-width:5;stroke-linecap:round">
    </path>
    <path d="M-29.567844505555286,1.1005688619944116L-24.1993922580978,4.0912050271355245L-20.426895387122183,1.6679323018750993z" style="fill:rgb(43,180,168)">
    </path>
    <path d="M-15.589457714137554,4.333914947814595L-14.424797122496013,1.122172533521288L-22.403980017114552,2.2682730269709777z" style="fill:rgb(109,213,75)">
    </path>
    <path d="M-26.178240969842044,4.692280165656209L-31.546225707130287,1.7007836381872425L-22.967072290206698,19.797014436430754z" style="fill:rgb(109,213,75)">
    </path>
    <path d="M-13.612580974382498,3.732994388587089L-24.1993922580978,4.0912050271355245L-20.99071136194758,19.194196651509788z" style="fill:rgb(43,180,168)">
    </path>
    <path d="M-31.546225707130287,1.7007836381872425L-26.178240969842044,4.692280165656209L-22.403980017114552,2.2682730269709777z" style="fill:rgb(109,213,75)">
    </path>
    <path d="M-24.1993922580978,4.0912050271355245L-13.612580974382498,3.732994388587089L-20.426895387122183,1.6679323018750993z" style="fill:rgb(43,180,168)">
    </path>
    <path d="M-15.589457714137554,4.333914947814595L-26.178240969842044,4.692280165656209L-22.967072290206698,19.797014436430754z" style="fill:rgb(109,213,75)">
    </path>
    <path d="M-26.178240969842044,4.692280165656209L-15.589457714137554,4.333914947814595L-22.403980017114552,2.2682730269709777z" style="fill:rgb(109,213,75)">
    </path>
    <path d="M99.51431133398981,-103.67132343534539L-47.93165051425408,-59.70604690834323L-87.65916547454023,-271.25747690772135z" style="fill:rgb(0,0,0); fill-opacity: 0.2">
    </path>
    <path d="M-47.93165051425408,-59.70604690834323L89.79079547104615,-100.77197605159671L-87.65916547454023,-271.25747690772135z" style="fill:rgb(0,0,0); fill-opacity: 0.2">
    </path>
    <path d="M-31.12873263406251,6.195991614215562L-40.99313327985396,4.566850860198057L-39.12390536951917,7.34526971054283z" style="fill:rgb(74,87,214)">
    </path>
    <path d="M-40.99313327985396,4.566850860198057L-48.27711443558818,6.776714720459792L-39.12390536951917,7.34526971054283z" style="fill:rgb(74,87,214)">
    </path>
    <path d="M-36.89147106623505,-62.997995607755264L-39.12390536951916,7.3452697105428415" style="fill:none;stroke:rgb(74,87,214);stroke-width:5;stroke-linecap:round">
    </path>
    <path d="M-32.307635556435464,9.41581842526822L-31.12873263406251,6.195991614215562L-39.12390536951917,7.34526971054283z" style="fill:rgb(74,87,214)">
    </path>
    <path d="M-42.913099559712144,9.775492128921252L-48.27711443558818,6.776714720459792L-39.68086731791989,24.894956189967z" style="fill:rgb(74,87,214)">
    </path>
    <path d="M-48.27711443558818,6.776714720459792L-42.913099559712144,9.775492128921252L-39.12390536951917,7.34526971054283z" style="fill:rgb(74,87,214)">
    </path>
    <path d="M-32.307635556435464,9.41581842526822L-42.913099559712144,9.775492128921252L-39.68086731791989,24.894956189967z" style="fill:rgb(74,87,214)">
    </path>
    <path d="M-42.913099559712144,9.775492128921252L-32.307635556435464,9.41581842526822L-39.12390536951917,7.34526971054283z" style="fill:rgb(74,87,214)">
    </path>
    <path d="M-42.14212511562644,9.54130870296031L-52.01169330871208,7.90973671880975L-50.14784832634124,10.692684286387289z" style="fill:rgb(109,213,75)">
    </path>
    <path d="M-42.14212511562643,9.54130870296031L-52.011693308712054,7.90973671880975L-50.14784832634122,10.692684286387289z" style="fill:rgb(43,180,168)">
    </path>
    <path d="M-52.01169330871208,7.90973671880975L-59.308284358444396,10.123426254678273L-50.14784832634124,10.692684286387289z" style="fill:rgb(109,213,75)">
    </path>
    <path d="M-52.011693308712054,7.90973671880975L-59.308284358444375,10.123426254678273L-50.14784832634122,10.692684286387289z" style="fill:rgb(43,180,168)">
    </path>
    <path d="M-47.9316505142541,-59.70604690834323L-50.14784832634122,10.6926842863873" style="fill:none;stroke:rgb(109,213,75);stroke-width:5;stroke-linecap:round">
    </path>
    <path d="M-47.93165051425408,-59.70604690834323L-50.1478483263412,10.6926842863873" style="fill:none;stroke:rgb(43,180,168);stroke-width:5;stroke-linecap:round">
    </path>
    <path d="M-43.33043668709292,12.766471344837072L-42.14212511562644,9.54130870296031L-50.14784832634124,10.692684286387289z" style="fill:rgb(109,213,75)">
    </path>
    <path d="M-43.33043668709289,12.766471344837072L-42.14212511562643,9.54130870296031L-50.14784832634122,10.692684286387289z" style="fill:rgb(43,180,168)">
    </path>
    <path d="M-53.94690277351338,13.127008975956828L-59.308284358444396,10.123426254678273L-50.70075850655793,28.25617746358161z" style="fill:rgb(109,213,75)">
    </path>
    <path d="M-53.94690277351335,13.127008975956828L-59.308284358444375,10.123426254678273L-50.70075850655791,28.25617746358161z" style="fill:rgb(43,180,168)">
    </path>
    <path d="M-59.308284358444396,10.123426254678273L-53.94690277351338,13.127008975956828L-50.14784832634124,10.692684286387289z" style="fill:rgb(109,213,75)">
    </path>
    <path d="M-59.308284358444375,10.123426254678273L-53.94690277351335,13.127008975956828L-50.14784832634122,10.692684286387289z" style="fill:rgb(43,180,168)">
    </path>
    <path d="M-43.33043668709292,12.766471344837072L-53.94690277351338,13.127008975956828L-50.70075850655793,28.25617746358161z" style="fill:rgb(109,213,75)">
    </path>
    <path d="M-43.33043668709289,12.766471344837072L-53.94690277351335,13.127008975956828L-50.70075850655791,28.25617746358161z" style="fill:rgb(43,180,168)">
    </path>
    <path d="M-53.94690277351338,13.127008975956828L-43.33043668709292,12.766471344837072L-50.14784832634124,10.692684286387289z" style="fill:rgb(109,213,75)">
    </path>
    <path d="M-53.94690277351335,13.127008975956828L-43.33043668709289,12.766471344837072L-50.14784832634122,10.692684286387289z" style="fill:rgb(43,180,168)">
    </path>
    <path d="M-58.697994604491335,14.570152741056656L-68.57531995584736,12.934922690571419L-66.71958962649715,15.724684959153596z" style="fill:rgb(74,87,214)">
    </path>
    <path d="M-68.57531995584736,12.934922690571419L-75.89088733218857,15.154369393774246L-66.71958962649715,15.724684959153596z" style="fill:rgb(74,87,214)">
    </path>
    <path d="M-64.52785853947245,-54.75740765107168L-66.71958962649715,15.724684959153608" style="fill:none;stroke:rgb(74,87,214);stroke-width:5;stroke-linecap:round">
    </path>
    <path d="M-59.90047702634108,17.80334476584609L-58.697994604491335,14.570152741056656L-66.71958962649715,15.724684959153596z" style="fill:rgb(74,87,214)">
    </path>
    <path d="M-70.53348793123165,18.165182896019967L-75.89088733218857,15.154369393774246L-67.26639423890732,33.308928555346725z" style="fill:rgb(74,87,214)">
    </path>
    <path d="M-75.89088733218857,15.154369393774246L-70.53348793123165,18.165182896019967L-66.71958962649715,15.724684959153596z" style="fill:rgb(74,87,214)">
    </path>
    <path d="M-59.90047702634108,17.80334476584609L-70.53348793123165,18.165182896019967L-67.26639423890732,33.308928555346725z" style="fill:rgb(74,87,214)">
    </path>
    <path d="M-70.53348793123165,18.165182896019967L-59.90047702634108,17.80334476584609L-66.71958962649715,15.724684959153596z" style="fill:rgb(74,87,214)">
    </path>
    <path d="M-47.93165051425408,-59.70604690834323L-87.65916547454023,-271.25747690772135" style="fill:none;stroke:rgb(0,0,0);stroke-width:1;stroke-linecap:round">
    </path>
    <path d="M-47.93165051425408,-59.70604690834323L-87.65916547454023,-271.25747690772135" style="fill:none;stroke:rgb(0,0,0);stroke-width:1;stroke-linecap:round">
    </path>
    <path d="M-87.65916547454023,-271.25747690772135L-87.65916547454023,-271.25747690772135L-47.93165051425408,-59.70604690834323z" style="fill:rgb(0,0,0); fill-opacity: 0.2">
    </path>
    <path d="M-86.38694001304933,22.980667702693243L-96.27720946829655,21.33931078352136L-94.43511165380413,24.140488884729276z" style="fill:rgb(74,87,214)">
    </path>
    <path d="M-96.27720946829655,21.33931078352136L-103.62456896710658,23.56840279757587L-94.43511165380413,24.140488884729276z" style="fill:rgb(74,87,214)">
    </path>
    <path d="M-92.28445906255018,-46.48097469794245L-94.4351116538041,24.140488884729287" style="fill:none;stroke:rgb(74,87,214);stroke-width:5;stroke-linecap:round">
    </path>
    <path d="M-87.61319584394067,26.22731078997444L-86.38694001304933,22.980667702693243L-94.43511165380413,24.140488884729276z" style="fill:rgb(74,87,214)">
    </path>
    <path d="M-98.27389318143798,26.591328780457044L-103.62456896710658,23.56840279757587L-94.97166538410129,41.75942458751274z" style="fill:rgb(74,87,214)">
    </path>
    <path d="M-103.62456896710658,23.56840279757587L-98.27389318143798,26.591328780457044L-94.43511165380413,24.140488884729276z" style="fill:rgb(74,87,214)">
    </path>
    <path d="M-87.61319584394067,26.22731078997444L-98.27389318143798,26.591328780457044L-94.97166538410129,41.75942458751274z" style="fill:rgb(74,87,214)">
    </path>
    <path d="M-632.9325915276765,-444.34584225505716L-648.0303723601917,411.21762017045097" style="fill:none;stroke:rgb(0,0,0);stroke-width:1;stroke-linecap:round">
    </path>
    <path d="M-509.9032285413373,458.5304303751123L-648.0303723601917,411.21762017045097" style="fill:none;stroke:rgb(160,0,0);stroke-width:3;stroke-linecap:round">
    </path>
    <path d="M-98.27389318143798,26.591328780457044L-87.61319584394067,26.22731078997444L-94.43511165380413,24.140488884729276z" style="fill:rgb(74,87,214)">
    </path>
    <path d="M-405.77095022120164,46.99408625662703L99.51431133398981,-103.67132343534539L60.49682182730053,-312.84574952765666z" style="fill:rgb(0,0,0); fill-opacity: 0.2">
    </path>
    <path d="M-491.84610940721655,-404.0061191819867L18.54547430245516,-537.7487136408191L-121.64209589040026,-575.3587958890241z" style="fill:rgb(0,0,0); fill-opacity: 0.2">
    </path>
    <path d="M-307.1080442757053,424.24374493203976L-509.9032285413376,458.53043037511225" style="fill:none;stroke:rgb(160,0,0);stroke-width:3;stroke-linecap:round">
    </path>
    <path d="M-290.69014811754516,-214.26546456840148L-307.108044275705,424.2437449320399" style="fill:none;stroke:rgb(0,0,0);stroke-width:1;stroke-linecap:round">
    </path>
    <path d="M-405.65093851191125,487.22613561328706L-307.108044275705,424.2437449320399" style="fill:none;stroke:rgb(160,0,0);stroke-width:3;stroke-linecap:round">
    </path>
    <path d="M-114.19634990811367,31.42777374250771L-124.09958275215425,29.78025206441767L-122.27125376624069,32.5929190367544z" style="fill:rgb(74,87,214)">
    </path>
    <path d="M-124.09958275215425,29.78025206441767L-131.47894206881477,32.01905240136472L-122.27125376624069,32.5929190367544z" style="fill:rgb(74,87,214)">
    </path>
    <path d="M-447.2460595928454,-170.31928294408107L60.49682182730026,-312.8457495276568L18.545474302454867,-537.7487136408192z" style="fill:rgb(0,0,0); fill-opacity: 0.2">
    </path>
    <path d="M-120.1620587010755,-38.168462360179745L-122.27125376624068,32.59291903675442" style="fill:none;stroke:rgb(74,87,214);stroke-width:5;stroke-linecap:round">
    </path>
    <path d="M-115.44657492224182,34.68795448341786L-114.19634990811367,31.42777374250771L-122.27125376624069,32.5929190367544z" style="fill:rgb(74,87,214)">
    </path>
    <path d="M-126.135099264573,35.054167908270934L-131.47894206881477,32.01905240136472L-122.79746213432618,50.246682618568784z" style="fill:rgb(74,87,214)">
    </path>
    <path d="M-131.47894206881477,32.01905240136472L-126.135099264573,35.054167908270934L-122.27125376624069,32.5929190367544z" style="fill:rgb(74,87,214)">
    </path>
    <path d="M-115.44657492224182,34.68795448341786L-126.135099264573,35.054167908270934L-122.79746213432618,50.246682618568784z" style="fill:rgb(74,87,214)">
    </path>
    <path d="M-126.135099264573,35.054167908270934L-115.44657492224182,34.68795448341786L-122.27125376624069,32.5929190367544z" style="fill:rgb(74,87,214)">
    </path>
    <path d="M-142.12701214898976,39.91171017270133L-152.0432275502155,38.25798552403985L-150.2288051028457,41.082215036889934z" style="fill:rgb(74,87,214)">
    </path>
    <path d="M-152.0432275502155,38.25798552403985L-159.45479619319858,40.50655774598794L-150.2288051028457,41.082215036889934z" style="fill:rgb(74,87,214)">
    </path>
    <path d="M-148.1614503890045,-29.81963420159896L-150.22880510284568,41.082215036889956" style="fill:none;stroke:rgb(74,87,214);stroke-width:5;stroke-linecap:round">
    </path>
    <path d="M-143.40140400668082,43.18551590882645L-142.12701214898976,39.91171017270133L-150.2288051028457,41.082215036889934z" style="fill:rgb(74,87,214)">
    </path>
    <path d="M-154.1178969775309,43.55394048395533L-159.45479619319858,40.50655774598794L-150.7445726836723,58.770943058760274z" style="fill:rgb(74,87,214)">
    </path>
    <path d="M-159.45479619319858,40.50655774598794L-154.1178969775309,43.55394048395533L-150.2288051028457,41.082215036889934z" style="fill:rgb(74,87,214)">
    </path>
    <path d="M-143.40140400668082,43.18551590882645L-154.1178969775309,43.55394048395533L-150.7445726836723,58.770943058760274z" style="fill:rgb(74,87,214)">
    </path>
    <path d="M-154.1178969775309,43.55394048395533L-143.40140400668082,43.18551590882645L-150.2288051028457,41.082215036889934z" style="fill:rgb(74,87,214)">
    </path>
    <path d="M-170.17972148031458,48.43271839689424L-180.10893848746417,46.77275224113276L-178.3085617014698,49.60861860161737z" style="fill:rgb(74,87,214)">
    </path>
    <path d="M-180.10893848746417,46.77275224113276L-187.55292779816023,49.03116046627366L-178.3085617014698,49.60861860161737z" style="fill:rgb(74,87,214)">
    </path>
    <path d="M-176.28343400382286,-21.434251715601476L-178.3085617014698,49.60861860161738" style="fill:none;stroke:rgb(74,87,214);stroke-width:5;stroke-linecap:round">
    </path>
    <path d="M-171.4784797498183,51.7202372284417L-170.17972148031458,48.43271839689424L-178.3085617014698,49.60861860161737z" style="fill:rgb(74,87,214)">
    </path>
    <path d="M-182.22308403467812,52.09088881318541L-187.55292779816023,49.03116046627366L-178.81379211391862,67.332448419174z" style="fill:rgb(74,87,214)">
    </path>
    <path d="M-187.55292779816023,49.03116046627366L-182.22308403467812,52.09088881318541L-178.3085617014698,49.60861860161737z" style="fill:rgb(74,87,214)">
    </path>
    <path d="M-171.4784797498183,51.7202372284417L-182.22308403467812,52.09088881318541L-178.81379211391862,67.332448419174z" style="fill:rgb(74,87,214)">
    </path>
    <path d="M-182.22308403467812,52.09088881318541L-171.4784797498183,51.7202372284417L-178.3085617014698,49.60861860161737z" style="fill:rgb(74,87,214)">
    </path>
    <path d="M-198.3552796074377,56.991041933022416L-208.29751714639622,55.32479540525861L-206.51132657432925,58.17237356518068z" style="fill:rgb(74,87,214)">
    </path>
    <path d="M-208.29751714639622,55.32479540525861L-215.7741403192023,57.59310431396197L-206.51132657432925,58.17237356518068z" style="fill:rgb(74,87,214)">
    </path>
    <path d="M-204.5288164427161,-13.012074302462235L-206.5113265743292,58.17237356518068" style="fill:none;stroke:rgb(74,87,214);stroke-width:5;stroke-linecap:round">
    </path>
    <path d="M-199.6786057870172,60.29236272710027L-198.3552796074377,56.991041933022416L-206.51132657432925,58.17237356518068z" style="fill:rgb(74,87,214)">
    </path>
    <path d="M-210.45146514365717,60.66525732584352L-215.7741403192023,57.59310431396197L-207.00592246993318,75.93144333473671z" style="fill:rgb(74,87,214)">
    </path>
    <path d="M-215.7741403192023,57.59310431396197L-210.45146514365717,60.66525732584352L-206.51132657432925,58.17237356518068z" style="fill:rgb(74,87,214)">
    </path>
    <path d="M-199.6786057870172,60.29236272710027L-210.45146514365717,60.66525732584352L-207.00592246993318,75.93144333473671z" style="fill:rgb(74,87,214)">
    </path>
    <path d="M-210.45146514365717,60.66525732584352L-199.6786057870172,60.29236272710027L-206.51132657432925,58.17237356518068z" style="fill:rgb(74,87,214)">
    </path>
    <path d="M-491.8461094072169,-404.0061191819869L-509.9032285413376,458.53043037511225" style="fill:none;stroke:rgb(0,0,0);stroke-width:1;stroke-linecap:round">
    </path>
    <path d="M-648.0303723601917,411.21762017045097L-632.9325915276765,-444.34584225505716L-509.9032285413373,458.5304303751123z" style="fill:rgb(0,0,0); fill-opacity: 0.2">
    </path>
    <path d="M-307.108044275705,424.2437449320399L-290.69014811754516,-214.26546456840148L-405.65093851191125,487.22613561328706z" style="fill:rgb(0,0,0); fill-opacity: 0.2">
    </path>
    <path d="M-632.9325915276765,-444.34584225505716L-121.64209589040026,-575.3587958890241L-491.84610940721655,-404.0061191819867z" style="fill:rgb(0,0,0); fill-opacity: 0.2">
    </path>
    <path d="M-226.65449527279432,65.58692643653622L-236.6097721433343,63.914360339949994L-234.83790978455423,66.77372590283036z" style="fill:rgb(74,87,214)">
    </path>
    <path d="M-236.6097721433343,63.914360339949994L-244.1192442460072,66.19263518093804L-234.83790978455423,66.77372590283036z" style="fill:rgb(74,87,214)">
    </path>
    <path d="M-232.89841169974466,-4.552859246317646L-234.83790978455423,66.77372590283035" style="fill:none;stroke:rgb(74,87,214);stroke-width:5;stroke-linecap:round">
    </path>
    <path d="M-228.00259281311727,68.90213883554156L-226.65449527279432,65.58692643653622L-234.83790978455423,66.77372590283036z" style="fill:rgb(74,87,214)">
    </path>
    <path d="M-238.80385208218925,69.27729259934772L-244.1192442460072,66.19263518093804L-235.3217728360661,84.56817458751571z" style="fill:rgb(74,87,214)">
    </path>
    <path d="M-244.1192442460072,66.19263518093804L-238.80385208218925,69.27729259934772L-234.83790978455423,66.77372590283036z" style="fill:rgb(74,87,214)">
    </path>
    <path d="M-228.00259281311727,68.90213883554156L-238.80385208218925,69.27729259934772L-235.3217728360661,84.56817458751571z" style="fill:rgb(74,87,214)">
    </path>
    <path d="M-238.80385208218925,69.27729259934772L-228.00259281311727,68.90213883554156L-234.83790978455423,66.77372590283036z" style="fill:rgb(74,87,214)">
    </path>
    <path d="M-243.69371938852888,70.76258940403123L-253.65682882820497,69.08621261225738L-251.89363216544106,71.9526871803836z" style="fill:rgb(167,41,160)">
    </path>
    <path d="M-243.6937193885288,70.7625894040312L-253.65682882820485,69.08621261225736L-251.89363216544098,71.9526871803836z" style="fill:rgb(214,94,68)">
    </path>
    <path d="M-253.65682882820497,69.08621261225738L-261.1861143083516,71.37049857077756L-251.89363216544106,71.9526871803836z" style="fill:rgb(167,41,160)">
    </path>
    <path d="M-253.65682882820485,69.08621261225736L-261.1861143083515,71.37049857077754L-251.89363216544098,71.9526871803836z" style="fill:rgb(214,94,68)">
    </path>
    <path d="M-249.9801323121766,0.5405496261174034L-251.89363216544106,71.9526871803836" style="fill:none;stroke:rgb(167,41,160);stroke-width:5;stroke-linecap:round">
    </path>
    <path d="M-249.98013231217652,0.5405496261174034L-251.89363216544098,71.9526871803836" style="fill:none;stroke:rgb(214,94,68);stroke-width:5;stroke-linecap:round">
    </path>
    <path d="M-245.05677822230737,74.08618012004251L-243.69371938852888,70.76258940403123L-251.89363216544106,71.9526871803836z" style="fill:rgb(167,41,160)">
    </path>
    <path d="M-245.0567782223073,74.08618012004248L-243.6937193885288,70.7625894040312L-251.89363216544098,71.9526871803836z" style="fill:rgb(214,94,68)">
    </path>
    <path d="M-255.87514741684387,74.46269719703433L-261.1861143083515,71.37049857077754L-252.37100790191187,89.76843025440127z" style="fill:rgb(214,94,68)">
    </path>
    <path d="M-255.87514741684396,74.46269719703436L-261.1861143083516,71.37049857077756L-252.37100790191195,89.76843025440127z" style="fill:rgb(167,41,160)">
    </path>
    <path d="M-261.1861143083516,71.37049857077756L-255.87514741684396,74.46269719703436L-251.89363216544106,71.9526871803836z" style="fill:rgb(167,41,160)">
    </path>
    <path d="M-261.1861143083515,71.37049857077754L-255.87514741684387,74.46269719703433L-251.89363216544098,71.9526871803836z" style="fill:rgb(214,94,68)">
    </path>
    <path d="M-245.0567782223073,74.08618012004248L-255.87514741684387,74.46269719703433L-252.37100790191187,89.76843025440127z" style="fill:rgb(214,94,68)">
    </path>
    <path d="M-245.05677822230737,74.08618012004251L-255.87514741684396,74.46269719703436L-252.37100790191195,89.76843025440127z" style="fill:rgb(167,41,160)">
    </path>
    <path d="M-255.87514741684396,74.46269719703436L-245.05677822230737,74.08618012004251L-251.89363216544106,71.9526871803836z" style="fill:rgb(167,41,160)">
    </path>
    <path d="M-255.87514741684387,74.46269719703433L-245.0567782223073,74.08618012004248L-251.89363216544098,71.9526871803836z" style="fill:rgb(214,94,68)">
    </path>
    <path d="M-255.07818433328669,74.22061972390463L-265.04651920574906,72.54169452616799L-263.28912852374856,75.41292375437415z" style="fill:rgb(74,87,214)">
    </path>
    <path d="M-265.04651920574906,72.54169452616799L-272.58905720002724,74.83000112277206L-263.28912852374856,75.41292375437415z" style="fill:rgb(74,87,214)">
    </path>
    <path d="M-261.3930409440394,3.9436383081506134L-263.28912852374856,75.41292375437416" style="fill:none;stroke:rgb(74,87,214);stroke-width:5;stroke-linecap:round">
    </path>
    <path d="M-256.4512586601228,77.54981415402239L-255.07818433328669,74.22061972390463L-263.28912852374856,75.41292375437415z" style="fill:rgb(74,87,214)">
    </path>
    <path d="M-267.2810637758914,77.92724338228902L-272.58905720002724,74.83000112277206L-263.76215941355093,93.24289113032762z" style="fill:rgb(74,87,214)">
    </path>
    <path d="M-509.9032285413376,458.53043037511225L-491.8461094072169,-404.0061191819869L-307.1080442757053,424.24374493203976z" style="fill:rgb(0,0,0); fill-opacity: 0.2">
    </path>
    <path d="M-272.58905720002724,74.83000112277206L-267.2810637758914,77.92724338228902L-263.28912852374856,75.41292375437415z" style="fill:rgb(74,87,214)">
    </path>
    <path d="M-256.4512586601228,77.54981415402239L-267.2810637758914,77.92724338228902L-263.76215941355093,93.24289113032762z" style="fill:rgb(74,87,214)">
    </path>
    <path d="M-267.2810637758914,77.92724338228902L-256.4512586601228,77.54981415402239L-263.28912852374856,75.41292375437415z" style="fill:rgb(74,87,214)">
    </path>
    <path d="M-249.98013231217652,0.5405496261174034L-405.77095022120164,46.99408625662703" style="fill:none;stroke:rgb(40,0,38);stroke-width:5;stroke-linecap:round">
    </path>
    <path d="M-249.98013231217652,0.5405496261174034L-290.69014811754516,-214.26546456840148" style="fill:none;stroke:rgb(0,0,0);stroke-width:1;stroke-linecap:round">
    </path>
    <path d="M-395.26835178083394,43.86243287734988L-249.98013231217652,0.5405496261174034" style="fill:none;stroke:rgb(55,17,8);stroke-width:5;stroke-linecap:round">
    </path>
    <path d="M-249.98013231217652,0.5405496261174034L-290.69014811754516,-214.26546456840148" style="fill:none;stroke:rgb(0,0,0);stroke-width:1;stroke-linecap:round">
    </path>
    <path d="M-447.24605959284514,-170.31928294408098L60.49682182730053,-312.84574952765666L-405.77095022120164,46.99408625662703z" style="fill:rgb(0,0,0); fill-opacity: 0.2">
    </path>
    <path d="M-272.42098332036977,79.4884935343834L-282.3972665283642,77.8056825345108L-280.6487453843132,80.68416243346846z" style="fill:rgb(214,94,68)">
    </path>
    <path d="M-282.3972665283642,77.8056825345108L-289.96001545544283,80.10012086169223L-280.6487453843132,80.68416243346846z" style="fill:rgb(214,94,68)">
    </path>
    <path d="M-274.4778117809716,80.11325501540625L-284.4550366916097,78.42998287511519L-282.7075694515121,81.30932329638598z" style="fill:rgb(167,41,160)">
    </path>
    <path d="M-284.4550366916097,78.42998287511519L-292.0201843969715,80.72514896000544L-282.7075694515121,81.30932329638598z" style="fill:rgb(167,41,160)">
    </path>
    <path d="M-278.7792478792425,9.127838581119947L-280.6487453843132,80.68416243346846" style="fill:none;stroke:rgb(214,94,68);stroke-width:5;stroke-linecap:round">
    </path>
    <path d="M-273.8093448002411,82.82623357900452L-272.42098332036977,79.4884935343834L-280.6487453843132,80.68416243346846z" style="fill:rgb(214,94,68)">
    </path>
    <path d="M-284.6565775970392,83.20505432100826L-289.96001545544283,80.10012086169223L-281.1151413448015,98.53579384865095z" style="fill:rgb(214,94,68)">
    </path>
    <path d="M-280.84123066643,9.742678365785721L-282.7075694515121,81.30932329638598" style="fill:none;stroke:rgb(167,41,160);stroke-width:5;stroke-linecap:round">
    </path>
    <path d="M-405.65093851191125,487.22613561328706L-395.26835178083394,43.86243287734988" style="fill:none;stroke:rgb(38,46,1);stroke-width:5;stroke-linecap:round">
    </path>
    <path d="M-405.65093851191125,487.226135613287L-457.8247874133654,504.53630173583457" style="fill:none;stroke:rgb(162,186,45);stroke-width:5;stroke-linecap:round">
    </path>
    <path d="M-289.96001545544283,80.10012086169223L-284.6565775970392,83.20505432100826L-280.6487453843132,80.68416243346846z" style="fill:rgb(214,94,68)">
    </path>
    <path d="M-275.8679886804676,83.45200928210133L-274.4778117809716,80.11325501540625L-282.7075694515121,81.30932329638598z" style="fill:rgb(167,41,160)">
    </path>
    <path d="M-286.7172888927776,83.83099521289449L-292.0201843969715,80.72514896000544L-283.173177230259,99.16352364032022z" style="fill:rgb(167,41,160)">
    </path>
    <path d="M-273.8093448002411,82.82623357900452L-284.6565775970392,83.20505432100826L-281.1151413448015,98.53579384865095z" style="fill:rgb(214,94,68)">
    </path>
    <path d="M-292.0201843969715,80.72514896000544L-286.7172888927776,83.83099521289449L-282.7075694515121,81.30932329638598z" style="fill:rgb(167,41,160)">
    </path>
    <path d="M-284.6565775970392,83.20505432100826L-273.8093448002411,82.82623357900452L-280.6487453843132,80.68416243346846z" style="fill:rgb(214,94,68)">
    </path>
    <path d="M-275.8679886804676,83.45200928210133L-286.7172888927776,83.83099521289449L-283.173177230259,99.16352364032022z" style="fill:rgb(167,41,160)">
    </path>
    <path d="M-286.7172888927776,83.83099521289449L-275.8679886804676,83.45200928210133L-282.7075694515121,81.30932329638598z" style="fill:rgb(167,41,160)">
    </path>
    <path d="M-283.62716983868825,82.8923717964308L-293.6085812506022,81.20704762607058L-291.86580719057446,84.09021744803934z" style="fill:rgb(74,87,214)">
    </path>
    <path d="M-293.6085812506022,81.20704762607058L-301.1844040131013,83.50545238257044L-291.86580719057446,84.09021744803934z" style="fill:rgb(74,87,214)">
    </path>
    <path d="M-290.0135325990335,12.477665379340719L-291.86580719057446,84.09021744803935" style="fill:none;stroke:rgb(74,87,214);stroke-width:5;stroke-linecap:round">
    </path>
    <path d="M-307.1080442757053,424.24374493203976L-290.6901481175454,-214.2654645684016L-491.8461094072169,-404.0061191819869z" style="fill:rgb(0,0,0); fill-opacity: 0.2">
    </path>
    <path d="M-285.025428375918,86.23563947624486L-283.62716983868825,82.8923717964308L-291.86580719057446,84.09021744803934z" style="fill:rgb(74,87,214)">
    </path>
    <path d="M-295.88392637712394,86.615360618381L-301.1844040131013,83.50545238257044L-292.3279055989286,101.95584411065865z" style="fill:rgb(74,87,214)">
    </path>
    <path d="M-301.1844040131013,83.50545238257044L-295.88392637712394,86.615360618381L-291.86580719057446,84.09021744803934z" style="fill:rgb(74,87,214)">
    </path>
    <path d="M-285.025428375918,86.23563947624486L-295.88392637712394,86.615360618381L-292.3279055989286,101.95584411065865z" style="fill:rgb(74,87,214)">
    </path>
    <path d="M-404.7159903106698,447.30139362890816L-456.9356344852666,464.4688697735061" style="fill:none;stroke:rgb(162,186,45);stroke-width:5;stroke-linecap:round">
    </path>
    <path d="M-290.6901481175454,-214.2654645684016L-491.8461094072169,-404.0061191819869" style="fill:none;stroke:rgb(0,0,0);stroke-width:1;stroke-linecap:round">
    </path>
    <path d="M-290.6901481175454,-214.2654645684016L-491.8461094072169,-404.0061191819869" style="fill:none;stroke:rgb(0,0,0);stroke-width:1;stroke-linecap:round">
    </path>
    <path d="M-395.26835178083394,43.86243287734988L-290.69014811754516,-214.26546456840148" style="fill:none;stroke:rgb(0,0,0);stroke-width:1;stroke-linecap:round">
    </path>
    <path d="M-395.26835178083394,43.86243287734988L-290.69014811754516,-214.26546456840148" style="fill:none;stroke:rgb(0,0,0);stroke-width:1;stroke-linecap:round">
    </path>
    <path d="M-295.88392637712394,86.615360618381L-285.025428375918,86.23563947624486L-291.86580719057446,84.09021744803934z" style="fill:rgb(74,87,214)">
    </path>
    <path d="M-491.8461094072169,-404.0061191819869L18.545474302454867,-537.7487136408192L-447.2460595928454,-170.31928294408107z" style="fill:rgb(0,0,0); fill-opacity: 0.2">
    </path>
    <path d="M-301.27606852893217,88.25322336735513L-311.26554425680433,86.56393743607049L-309.53184682925996,89.4545012451889z" style="fill:rgb(214,94,68)">
    </path>
    <path d="M-311.26554425680433,86.56393743607049L-318.8619802169387,88.8685959649957L-309.53184682925996,89.4545012451889z" style="fill:rgb(214,94,68)">
    </path>
    <path d="M-403.7792726447655,407.30109085942814L-456.04479205059334,424.32530446270016" style="fill:none;stroke:rgb(162,186,45);stroke-width:5;stroke-linecap:round">
    </path>
    <path d="M-305.4087077083025,89.50851218880644L-315.4000696043915,87.81829792240649L-313.668502038388,90.71059445943304z" style="fill:rgb(167,41,160)">
    </path>
    <path d="M-307.70676313112335,17.753413614480227L-309.53184682925996,89.45450124518891" style="fill:none;stroke:rgb(214,94,68);stroke-width:5;stroke-linecap:round">
    </path>
    <path d="M-302.6899446567974,91.60520591836124L-301.27606852893217,88.25322336735513L-309.53184682925996,89.4545012451889z" style="fill:rgb(214,94,68)">
    </path>
    <path d="M-313.56619114440474,91.9863471325467L-318.8619802169387,88.8685959649957L-309.98716045749023,107.34216436470783z" style="fill:rgb(214,94,68)">
    </path>
    <path d="M-315.4000696043915,87.81829792240649L-323.0013363658729,90.12442205277743L-313.668502038388,90.71059445943304z" style="fill:rgb(167,41,160)">
    </path>
    <path d="M-318.8619802169387,88.8685959649957L-313.56619114440474,91.9863471325467L-309.53184682925996,89.4545012451889z" style="fill:rgb(214,94,68)">
    </path>
    <path d="M-302.6899446567974,91.60520591836124L-313.56619114440474,91.9863471325467L-309.98716045749023,107.34216436470783z" style="fill:rgb(214,94,68)">
    </path>
    <path d="M-311.8497970026424,18.988778947913715L-313.668502038388,90.71059445943303" style="fill:none;stroke:rgb(167,41,160);stroke-width:5;stroke-linecap:round">
    </path>
    <path d="M-313.56619114440474,91.9863471325467L-302.6899446567974,91.60520591836124L-309.53184682925996,89.4545012451889z" style="fill:rgb(214,94,68)">
    </path>
    <path d="M-306.82624621343393,92.86253703798155L-305.4087077083025,89.50851218880644L-313.668502038388,90.71059445943304z" style="fill:rgb(167,41,160)">
    </path>
    <path d="M-317.70664983301793,93.24401112930755L-323.0013363658729,90.12442205277743L-314.12222404351303,108.60341671785444z" style="fill:rgb(167,41,160)">
    </path>
    <path d="M-323.0013363658729,90.12442205277743L-317.70664983301793,93.24401112930755L-313.668502038388,90.71059445943304z" style="fill:rgb(167,41,160)">
    </path>
    <path d="M-312.30228211108766,91.60243486438299L-322.29678846372866,89.91067150709597L-320.56877747037976,92.80585952465147z" style="fill:rgb(74,87,214)">
    </path>
    <path d="M-306.82624621343393,92.86253703798155L-317.70664983301793,93.24401112930755L-314.12222404351303,108.60341671785444z" style="fill:rgb(167,41,160)">
    </path>
    <path d="M-322.29678846372866,89.91067150709597L-329.9061168071133,92.21924141514316L-320.56877747037976,92.80585952465147z" style="fill:rgb(74,87,214)">
    </path>
    <path d="M-317.70664983301793,93.24401112930755L-306.82624621343393,92.86253703798155L-313.668502038388,90.71059445943304z" style="fill:rgb(167,41,160)">
    </path>
    <path d="M-402.84078048615925,367.2250125943745L-455.152255289342,384.1053886021181" style="fill:none;stroke:rgb(162,186,45);stroke-width:5;stroke-linecap:round">
    </path>
    <path d="M-318.7607224227464,21.049471172669787L-320.5687774703797,92.80585952465147" style="fill:none;stroke:rgb(74,87,214);stroke-width:5;stroke-linecap:round">
    </path>
    <path d="M-313.72593430402736,94.95986781360105L-312.30228211108766,91.60243486438299L-320.56877747037976,92.80585952465147z" style="fill:rgb(74,87,214)">
    </path>
    <path d="M-324.6132733448835,95.3418974707275L-329.9061168071133,92.21924141514316L-321.01984206351193,110.70728689490224z" style="fill:rgb(74,87,214)">
    </path>
    <path d="M-329.9061168071133,92.21924141514316L-324.6132733448835,95.3418974707275L-320.56877747037976,92.80585952465147z" style="fill:rgb(74,87,214)">
    </path>
    <path d="M-313.72593430402736,94.95986781360105L-324.6132733448835,95.3418974707275L-321.01984206351193,110.70728689490224z" style="fill:rgb(74,87,214)">
    </path>
    <path d="M-324.6132733448835,95.3418974707275L-313.72593430402736,94.95986781360105L-320.56877747037976,92.80585952465147z" style="fill:rgb(74,87,214)">
    </path>
    <path d="M-395.26835178083394,43.86243287734988L-249.98013231217652,0.5405496261174034L-290.69014811754516,-214.26546456840148z" style="fill:rgb(0,0,0); fill-opacity: 0.2">
    </path>
    <path d="M-401.90050878774343,327.0729433090199L-454.25801936315634,343.80890416346807" style="fill:none;stroke:rgb(162,186,45);stroke-width:5;stroke-linecap:round">
    </path>
    <path d="M-405.65093851191125,487.22613561328706L-395.26835178083394,43.86243287734988L-290.69014811754516,-214.26546456840148z" style="fill:rgb(0,0,0); fill-opacity: 0.2">
    </path>
    <path d="M-330.259830022977,97.05703861178938L-340.2625168805462,95.36123667232118L-338.5437929143839,98.26396366524422z" style="fill:rgb(214,94,68)">
    </path>
    <path d="M-340.2625168805462,95.36123667232118L-347.8928654561606,97.67618384172393L-338.5437929143839,98.26396366524422z" style="fill:rgb(214,94,68)">
    </path>
    <path d="M-290.69014811754516,-214.26546456840148L-290.69014811754516,-214.26546456840148L-395.26835178083394,43.86243287734988z" style="fill:rgb(0,0,0); fill-opacity: 0.2">
    </path>
    <path d="M-457.6277417902059,495.6569381866502L-464.216084251362,499.5720989508283L-470.9332336443847,508.8854035683641z" style="fill:rgb(162,186,45)">
    </path>
    <path d="M-336.7635386834834,26.417531343641084L-338.5437929143839,98.26396366524422" style="fill:none;stroke:rgb(214,94,68);stroke-width:5;stroke-linecap:round">
    </path>
    <path d="M-331.6994348858587,100.42335767298805L-330.259830022977,97.05703861178938L-338.5437929143839,98.26396366524422z" style="fill:rgb(214,94,68)">
    </path>
    <path d="M-342.60484630224283,100.80683632298434L-347.8928654561606,97.67618384172393L-338.9879206079618,116.1878027017963z" style="fill:rgb(214,94,68)">
    </path>
    <path d="M-336.4874597979982,98.94868065974404L-346.49298001921403,97.25147705439518L-344.77748428404396,100.15682082477832z" style="fill:rgb(167,41,160)">
    </path>
    <path d="M-290.69014811754516,-214.26546456840148L-447.24605959284514,-170.31928294408098L-249.98013231217652,0.5405496261174034z" style="fill:rgb(0,0,0); fill-opacity: 0.2">
    </path>
    <path d="M-347.8928654561606,97.67618384172393L-342.60484630224283,100.80683632298434L-338.5437929143839,98.26396366524422z" style="fill:rgb(214,94,68)">
    </path>
    <path d="M-331.6994348858587,100.42335767298805L-342.60484630224283,100.80683632298434L-338.9879206079618,116.1878027017963z" style="fill:rgb(214,94,68)">
    </path>
    <path d="M-453.99476143403587,513.0927938126106L-451.30630926574753,504.01541822102837L-470.9332336443847,508.8854035683641z" style="fill:rgb(162,186,45)">
    </path>
    <path d="M-346.49298001921403,97.25147705439518L-354.13062512601334,99.56863789517158L-344.77748428404396,100.15682082477832z" style="fill:rgb(167,41,160)">
    </path>
    <path d="M-451.30630926574753,504.01541822102837L-457.6277417902059,495.6569381866502L-470.9332336443847,508.8854035683641z" style="fill:rgb(162,186,45)">
    </path>
    <path d="M-342.60484630224283,100.80683632298434L-331.6994348858587,100.42335767298805L-338.5437929143839,98.26396366524422z" style="fill:rgb(214,94,68)">
    </path>
    <path d="M-400.9584524832526,286.84466666051907L-453.3620794152412,303.4356322875258" style="fill:none;stroke:rgb(162,186,45);stroke-width:5;stroke-linecap:round">
    </path>
    <path d="M-343.0068908531649,28.27916730270536L-344.77748428404385,100.15682082477832" style="fill:none;stroke:rgb(167,41,160);stroke-width:5;stroke-linecap:round">
    </path>
    <path d="M-341.10435882538707,100.35106337144596L-351.11197838027124,98.65282026636558L-349.3988784158829,101.56010476213456z" style="fill:rgb(74,87,214)">
    </path>
    <path d="M-337.93260601652423,102.31808414038748L-336.4874597979982,98.94868065974404L-344.77748428404396,100.15682082477832z" style="fill:rgb(167,41,160)">
    </path>
    <path d="M-348.8442868481396,102.70206589165134L-354.13062512601334,99.56863789517158L-345.2192014113173,118.08843068800543z" style="fill:rgb(167,41,160)">
    </path>
    <path d="M-351.11197838027124,98.65282026636558L-358.75503507470916,100.97162291149229L-349.3988784158829,101.56010476213456z" style="fill:rgb(74,87,214)">
    </path>
    <path d="M-354.13062512601334,99.56863789517158L-348.8442868481396,102.70206589165134L-344.77748428404396,100.15682082477832z" style="fill:rgb(167,41,160)">
    </path>
    <path d="M-337.93260601652423,102.31808414038748L-348.8442868481396,102.70206589165134L-345.2192014113173,118.08843068800543z" style="fill:rgb(167,41,160)">
    </path>
    <path d="M-348.8442868481396,102.70206589165134L-337.93260601652423,102.31808414038748L-344.77748428404396,100.15682082477832z" style="fill:rgb(167,41,160)">
    </path>
    <path d="M-347.6354535891361,29.659307104831633L-349.3988784158829,101.56010476213456" style="fill:none;stroke:rgb(74,87,214);stroke-width:5;stroke-linecap:round">
    </path>
    <path d="M-509.9032285413373,458.5304303751123L-491.84610940721655,-404.0061191819867L-632.9325915276765,-444.34584225505716z" style="fill:rgb(0,0,0); fill-opacity: 0.2">
    </path>
    <path d="M-342.5536161644344,103.72275441974044L-341.10435882538707,100.35106337144596L-349.3988784158829,101.56010476213456z" style="fill:rgb(74,87,214)">
    </path>
    <path d="M-353.4699455257586,104.10710934641276L-358.75503507470916,100.97162291149229L-349.8388068339043,119.49747509291883z" style="fill:rgb(74,87,214)">
    </path>
    <path d="M-456.7382145881567,455.5726405136286L-463.3333111052307,459.51417625646894L-470.05564837003675,468.7821417029452z" style="fill:rgb(162,186,45)">
    </path>
    <path d="M-358.75503507470916,100.97162291149229L-353.4699455257586,104.10710934641276L-349.3988784158829,101.56010476213456z" style="fill:rgb(74,87,214)">
    </path>
    <path d="M-342.5536161644344,103.72275441974044L-353.4699455257586,104.10710934641276L-349.8388068339043,119.49747509291883z" style="fill:rgb(74,87,214)">
    </path>
    <path d="M-453.10189343927635,473.02990516963666L-450.410534687332,463.9280450795596L-470.05564837003675,468.7821417029452z" style="fill:rgb(162,186,45)">
    </path>
    <path d="M-353.4699455257586,104.10710934641276L-342.5536161644344,103.72275441974044L-349.3988784158829,101.56010476213456z" style="fill:rgb(74,87,214)">
    </path>
    <path d="M-450.410534687332,463.9280450795596L-456.7382145881567,455.5726405136286L-470.05564837003675,468.7821417029452z" style="fill:rgb(162,186,45)">
    </path>
    <path d="M-491.84610940721655,-404.0061191819867L-632.9325915276765,-444.34584225505716" style="fill:none;stroke:rgb(0,0,0);stroke-width:1;stroke-linecap:round">
    </path>
    <path d="M-491.84610940721655,-404.0061191819867L-632.9325915276765,-444.34584225505716" style="fill:none;stroke:rgb(0,0,0);stroke-width:1;stroke-linecap:round">
    </path>
    <path d="M-400.01460648717114,246.53996548402262L-452.46443057027375,262.985353280172" style="fill:none;stroke:rgb(162,186,45);stroke-width:5;stroke-linecap:round">
    </path>
    <path d="M-455.84699681215983,415.41216139365156L-462.44886117079125,419.3801653205073L-469.1763939044442,428.60260233430904z" style="fill:rgb(162,186,45)">
    </path>
    <path d="M-359.3731304539527,105.90020129799493L-369.3890469056391,104.19784191622813L-367.6854477116237,107.11281206863161z" style="fill:rgb(214,94,68)">
    </path>
    <path d="M-369.3890469056391,104.19784191622813L-377.0535356977884,106.52314677726801L-367.6854477116237,107.11281206863161z" style="fill:rgb(214,94,68)">
    </path>
    <path d="M-452.2073287271457,432.8908850049885L-449.5130571934567,423.7644636942859L-469.1763939044442,428.60260233430904z" style="fill:rgb(162,186,45)">
    </path>
    <path d="M-449.5130571934567,423.7644636942859L-455.84699681215983,415.41216139365156L-469.1763939044442,428.60260233430904z" style="fill:rgb(162,186,45)">
    </path>
    <path d="M-365.95044286039456,35.12045068452977L-367.6854477116237,107.11281206863161" style="fill:none;stroke:rgb(214,94,68);stroke-width:5;stroke-linecap:round">
    </path>
    <path d="M-360.8386802486144,109.28095170842799L-359.3731304539527,105.90020129799493L-367.6854477116237,107.11281206863161z" style="fill:rgb(214,94,68)">
    </path>
    <path d="M-371.77340899274265,109.66678491611712L-377.0535356977884,106.52314677726801L-368.1182848094584,125.07297209105168z" style="fill:rgb(214,94,68)">
    </path>
    <path d="M-399.068965694643,206.15862178876958L-451.5650679343149,222.45784660840712" style="fill:none;stroke:rgb(162,186,45);stroke-width:5;stroke-linecap:round">
    </path>
    <path d="M-377.0535356977884,106.52314677726801L-371.77340899274265,109.66678491611712L-367.6854477116237,107.11281206863161z" style="fill:rgb(214,94,68)">
    </path>
    <path d="M-360.8386802486144,109.28095170842799L-371.77340899274265,109.66678491611712L-368.1182848094584,125.07297209105168z" style="fill:rgb(214,94,68)">
    </path>
    <path d="M-367.7151307652061,108.43408322786028L-377.73483047157526,106.7298426303444L-376.03558065412506,109.64832561686444z" style="fill:rgb(167,41,160)">
    </path>
    <path d="M-371.77340899274265,109.66678491611712L-360.8386802486144,109.28095170842799L-367.6854477116237,107.11281206863161z" style="fill:rgb(214,94,68)">
    </path>
    <path d="M-377.73483047157526,106.7298426303444L-385.4091157006683,109.0581196012097L-376.03558065412506,109.64832561686444z" style="fill:rgb(167,41,160)">
    </path>
    <path d="M-370.034245090873,109.13851401949813L-380.054995966188,107.43375025541211L-378.35695652893304,110.35321020033706z" style="fill:rgb(74,87,214)">
    </path>
    <path d="M-380.054995966188,107.43375025541211L-387.73200576108934,109.76285382362661L-378.35695652893304,110.35321020033706z" style="fill:rgb(74,87,214)">
    </path>
    <path d="M-454.9540836381489,375.17528344235325L-461.5627296660249,379.1698491475129L-468.2954654808023,388.34656763244357z" style="fill:rgb(162,186,45)">
    </path>
    <path d="M-374.3135819247955,37.61416239417021L-376.03558065412506,109.64832561686444" style="fill:none;stroke:rgb(167,41,160);stroke-width:5;stroke-linecap:round">
    </path>
    <path d="M-369.18813340523315,111.81897441830154L-367.7151307652061,108.43408322786028L-376.03558065412506,109.64832561686444z" style="fill:rgb(167,41,160)">
    </path>
    <path d="M-380.13126668418147,112.20548352395035L-385.4091157006683,109.0581196012097L-376.46517249437676,127.61888982969018z" style="fill:rgb(167,41,160)">
    </path>
    <path d="M-376.6385767705375,38.30742682837766L-378.35695652893304,110.35321020033706" style="fill:none;stroke:rgb(74,87,214);stroke-width:5;stroke-linecap:round">
    </path>
    <path d="M-385.4091157006683,109.0581196012097L-380.13126668418147,112.20548352395035L-376.03558065412506,109.64832561686444z" style="fill:rgb(167,41,160)">
    </path>
    <path d="M-451.3110624566355,392.6755161031414L-448.6138719235012,383.52445654451697L-468.2954654808023,388.34656763244357z" style="fill:rgb(162,186,45)">
    </path>
    <path d="M-369.18813340523315,111.81897441830154L-380.13126668418147,112.20548352395035L-376.46517249437676,127.61888982969018z" style="fill:rgb(167,41,160)">
    </path>
    <path d="M-371.5093211354797,112.52455681546438L-370.034245090873,109.13851401949813L-378.35695652893304,110.35321020033706z" style="fill:rgb(74,87,214)">
    </path>
    <path d="M-382.4547912359635,112.91125392141922L-387.73200576108934,109.76285382362661L-378.7856453735914,128.326666582922z" style="fill:rgb(74,87,214)">
    </path>
    <path d="M-448.6138719235012,383.52445654451697L-454.9540836381489,375.17528344235325L-468.2954654808023,388.34656763244357z" style="fill:rgb(162,186,45)">
    </path>
    <path d="M-380.13126668418147,112.20548352395035L-369.18813340523315,111.81897441830154L-376.03558065412506,109.64832561686444z" style="fill:rgb(167,41,160)">
    </path>
    <path d="M-387.73200576108934,109.76285382362661L-382.4547912359635,112.91125392141922L-378.35695652893304,110.35321020033706z" style="fill:rgb(74,87,214)">
    </path>
    <path d="M-371.5093211354797,112.52455681546438L-382.4547912359635,112.91125392141922L-378.7856453735914,128.326666582922z" style="fill:rgb(74,87,214)">
    </path>
    <path d="M-398.12152498137885,165.70041675415723L-450.6639865947211,181.8528908963442" style="fill:none;stroke:rgb(162,186,45);stroke-width:5;stroke-linecap:round">
    </path>
    <path d="M-382.4547912359635,112.91125392141922L-371.5093211354797,112.52455681546438L-378.35695652893304,110.35321020033706z" style="fill:rgb(74,87,214)">
    </path>
    <path d="M-249.98013231217652,0.5405496261174034L-405.77095022120164,46.99408625662703L-447.24605959284514,-170.31928294408098z" style="fill:rgb(0,0,0); fill-opacity: 0.2">
    </path>
    <path d="M-454.0594702236863,334.86178844750356L-460.67491179071175,338.88300991614057L-467.41285831413893,348.01381893712045z" style="fill:rgb(162,186,45)">
    </path>
    <path d="M-450.413089768303,352.38358042144995L-447.7129739983292,343.20780528095065L-467.41285831413893,348.01381893712045z" style="fill:rgb(162,186,45)">
    </path>
    <path d="M-447.7129739983292,343.20780528095065L-454.0594702236863,334.86178844750356L-467.41285831413893,348.01381893712045z" style="fill:rgb(162,186,45)">
    </path>
    <path d="M-388.61684020158265,114.7829758037434L-398.64600456267937,113.07401718428221L-396.9576830365403,116.00131118169506z" style="fill:rgb(214,94,68)">
    </path>
    <path d="M-398.64600456267937,113.07401718428221L-406.3448632136792,115.40974940741052L-396.9576830365403,116.00131118169506z" style="fill:rgb(214,94,68)">
    </path>
    <path d="M-397.1722792035638,125.16513072578861L-449.76118162005423,141.17026392117774" style="fill:none;stroke:rgb(162,186,45);stroke-width:5;stroke-linecap:round">
    </path>
    <path d="M-395.26835178083405,43.86243287734988L-396.9576830365403,116.00131118169506" style="fill:none;stroke:rgb(214,94,68);stroke-width:5;stroke-linecap:round">
    </path>
    <path d="M-390.10855325948984,118.17825324701174L-388.61684020158265,114.7829758037434L-396.9576830365403,116.00131118169506z" style="fill:rgb(214,94,68)">
    </path>
    <path d="M-401.0727529030531,118.5664582943469L-406.3448632136792,115.40974940741052L-397.3791238060884,133.99793812163193z" style="fill:rgb(214,94,68)">
    </path>
    <path d="M-406.3448632136792,115.40974940741052L-401.0727529030531,118.5664582943469L-396.9576830365403,116.00131118169506z" style="fill:rgb(214,94,68)">
    </path>
    <path d="M-390.10855325948984,118.17825324701174L-401.0727529030531,118.5664582943469L-397.3791238060884,133.99793812163193z" style="fill:rgb(214,94,68)">
    </path>
    <path d="M-453.1631517078754,294.47145736506263L-459.78540272634444,298.5194289751968L-466.52856760122756,307.6041367539361z" style="fill:rgb(162,186,45)">
    </path>
    <path d="M-401.0727529030531,118.5664582943469L-390.10855325948984,118.17825324701174L-396.9576830365403,116.00131118169506z" style="fill:rgb(214,94,68)">
    </path>
    <path d="M-399.0927935338753,117.96504579371934L-409.12669370084404,116.25372010523698L-407.44386584336036,119.18543516618982z" style="fill:rgb(74,87,214)">
    </path>
    <path d="M-399.09279353387547,117.96504579371936L-409.1266937008441,116.25372010523702L-407.4438658433604,119.18543516618982z" style="fill:rgb(167,41,160)">
    </path>
    <path d="M-449.51340578418456,312.0148590862066L-446.81035852020045,302.814290721723L-466.52856760122756,307.6041367539361z" style="fill:rgb(162,186,45)">
    </path>
    <path d="M-446.81035852020045,302.814290721723L-453.1631517078754,294.47145736506263L-466.52856760122756,307.6041367539361z" style="fill:rgb(162,186,45)">
    </path>
    <path d="M-409.12669370084404,116.25372010523698L-416.83788334689194,118.59319338970732L-407.44386584336036,119.18543516618982z" style="fill:rgb(74,87,214)">
    </path>
    <path d="M-409.1266937008441,116.25372010523702L-416.837883346892,118.59319338970738L-407.4438658433604,119.18543516618982z" style="fill:rgb(167,41,160)">
    </path>
    <path d="M-396.22122319776406,84.55254321149741L-448.85664805999187,100.40974260912957" style="fill:none;stroke:rgb(162,186,45);stroke-width:5;stroke-linecap:round">
    </path>
    <path d="M-405.7709502212016,46.99408625662703L-407.44386584336036,119.18543516618982" style="fill:none;stroke:rgb(74,87,214);stroke-width:5;stroke-linecap:round">
    </path>
    <path d="M-405.77095022120164,46.99408625662703L-407.4438658433604,119.18543516618982" style="fill:none;stroke:rgb(167,41,160);stroke-width:5;stroke-linecap:round">
    </path>
    <path d="M-400.59390393685044,121.3655348139528L-399.0927935338753,117.96504579371934L-407.44386584336036,119.18543516618982z" style="fill:rgb(74,87,214)">
    </path>
    <path d="M-400.59390393685055,121.36553481395286L-399.09279353387547,117.96504579371936L-407.4438658433604,119.18543516618982z" style="fill:rgb(167,41,160)">
    </path>
    <path d="M-411.56866634446845,121.75459116587848L-416.83788334689194,118.59319338970732L-407.8612106656208,137.19512153669712z" style="fill:rgb(74,87,214)">
    </path>
    <path d="M-411.5686663444685,121.75459116587854L-416.837883346892,118.59319338970738L-407.8612106656209,137.19512153669712z" style="fill:rgb(167,41,160)">
    </path>
    <path d="M-290.6901481175454,-214.2654645684016L-447.2460595928454,-170.31928294408107L-491.8461094072169,-404.0061191819869z" style="fill:rgb(0,0,0); fill-opacity: 0.2">
    </path>
    <path d="M-416.83788334689194,118.59319338970732L-411.56866634446845,121.75459116587848L-407.44386584336036,119.18543516618982z" style="fill:rgb(74,87,214)">
    </path>
    <path d="M-416.837883346892,118.59319338970738L-411.5686663444685,121.75459116587854L-407.4438658433604,119.18543516618982z" style="fill:rgb(167,41,160)">
    </path>
    <path d="M-400.59390393685044,121.3655348139528L-411.56866634446845,121.75459116587848L-407.8612106656208,137.19512153669712z" style="fill:rgb(74,87,214)">
    </path>
    <path d="M-400.59390393685055,121.36553481395286L-411.5686663444685,121.75459116587854L-407.8612106656209,137.19512153669712z" style="fill:rgb(167,41,160)">
    </path>
    <path d="M-411.56866634446845,121.75459116587848L-400.59390393685044,121.3655348139528L-407.44386584336036,119.18543516618982z" style="fill:rgb(74,87,214)">
    </path>
    <path d="M-411.5686663444685,121.75459116587854L-400.59390393685055,121.36553481395286L-407.4438658433604,119.18543516618982z" style="fill:rgb(167,41,160)">
    </path>
    <path d="M-452.2651232112723,254.00407031521377L-458.8941976360404,258.0788868396842L-465.6425885204999,267.1173007503294z" style="fill:rgb(162,186,45)">
    </path>
    <path d="M-448.6120056077062,271.56913238867867L-445.9060205726819,262.34369284843655L-465.6425885204999,267.1173007503294z" style="fill:rgb(162,186,45)">
    </path>
    <path d="M-445.9060205726819,262.34369284843655L-452.2651232112723,254.00407031521377L-465.6425885204999,267.1173007503294z" style="fill:rgb(162,186,45)">
    </path>
    <path d="M-491.8461094072169,-404.0061191819869L-491.8461094072169,-404.0061191819869L-290.6901481175454,-214.2654645684016z" style="fill:rgb(0,0,0); fill-opacity: 0.2">
    </path>
    <path d="M-395.26835178083394,43.86243287734988L-447.95038094523704,59.5711030313719" style="fill:none;stroke:rgb(162,186,45);stroke-width:5;stroke-linecap:round">
    </path>
    <path d="M-451.3653798357975,213.45940657837357L-458.00129166445464,217.56116318682265L-464.75491623195853,226.5530897515779z" style="fill:rgb(162,186,45)">
    </path>
    <path d="M-447.708884323595,231.04617978112233L-444.9999552205584,221.79579080216573L-464.75491623195853,226.5530897515779z" style="fill:rgb(162,186,45)">
    </path>
    <path d="M-444.9999552205584,221.79579080216573L-451.3653798357975,213.45940657837357L-464.75491623195853,226.5530897515779z" style="fill:rgb(162,186,45)">
    </path>
    <path d="M-405.77095022120164,46.99408625662703L-447.24605959284514,-170.31928294408098" style="fill:none;stroke:rgb(0,0,0);stroke-width:1;stroke-linecap:round">
    </path>
    <path d="M-405.77095022120164,46.99408625662703L-447.24605959284514,-170.31928294408098" style="fill:none;stroke:rgb(0,0,0);stroke-width:1;stroke-linecap:round">
    </path>
    <path d="M-450.4639166646471,172.83724459117894L-457.1066799376916,176.9660368520491L-463.865545877089,185.91128173676972z" style="fill:rgb(162,186,45)">
    </path>
    <path d="M-446.80403699779043,190.4457798727739L-444.092157509743,181.170362879439L-463.865545877089,185.91128173676972z" style="fill:rgb(162,186,45)">
    </path>
    <path d="M-444.092157509743,181.170362879439L-450.4639166646471,172.83724459117894L-463.865545877089,185.91128173676972z" style="fill:rgb(162,186,45)">
    </path>
    <path d="M-449.5607287622027,132.13736194245126L-456.2103575632159,136.29328582499275L-462.9744725787707,145.1916538347534z" style="fill:rgb(162,186,45)">
    </path>
    <path d="M-447.2460595928454,-170.31928294408107L-491.8461094072169,-404.0061191819869" style="fill:none;stroke:rgb(0,0,0);stroke-width:1;stroke-linecap:round">
    </path>
    <path d="M-447.2460595928454,-170.31928294408107L-491.8461094072169,-404.0061191819869" style="fill:none;stroke:rgb(0,0,0);stroke-width:1;stroke-linecap:round">
    </path>
    <path d="M-445.89745867735365,149.76771042581805L-443.1826224671865,140.4671865281983L-462.9744725787707,145.1916538347534z" style="fill:rgb(162,186,45)">
    </path>
    <path d="M-443.1826224671865,140.4671865281983L-449.5607287622027,132.13736194245126L-462.9744725787707,145.1916538347534z" style="fill:rgb(162,186,45)">
    </path>
    <path d="M-448.6558111739417,91.35953536913713L-455.31231962976415,95.54268724542825L-462.08169144118835,104.39398232006351z" style="fill:rgb(162,186,45)">
    </path>
    <path d="M-444.9891443903777,109.01174835133276L-442.27134510078685,99.68603834373502L-462.08169144118835,104.39398232006351z" style="fill:rgb(162,186,45)">
    </path>
    <path d="M-442.27134510078685,99.68603834373502L-448.6558111739417,91.35953536913713L-462.08169144118835,104.39398232006351z" style="fill:rgb(162,186,45)">
    </path>
    <path d="M-447.74915892634647,50.50354075222606L-454.4125612072541,54.714017399205005L-461.1871975497411,63.51804260882341z" style="fill:rgb(162,186,45)">
    </path>
    <path d="M-491.8461094072169,-404.0061191819869L-491.8461094072169,-404.0061191819869" style="fill:none;stroke:rgb(0,0,0);stroke-width:1;stroke-linecap:round">
    </path>
    <path d="M-444.0790891458961,68.17766970521116L-441.3583203992977,58.82669406460276L-461.1871975497411,63.51804260882341z" style="fill:rgb(162,186,45)">
    </path>
    <path d="M-441.3583203992977,58.82669406460276L-447.74915892634647,50.50354075222606L-461.1871975497411,63.51804260882341z" style="fill:rgb(162,186,45)">
    </path>
</svg>