<svg viewBox="-812 -590 1624 1180" width="1624" height="1180" style="background-color: rgb(255, 255, 255);"><path d="M15.83518316242262,197.08841355138054L61.873176476061026,-542.3929551490996M186.9086801934662,261.88127362653L15.83518316242262,197.08841355138054M186.90868019346615,261.88127362653L236.53496417775554,-481.8744823740089M77.57372846027035,325.3988251789118L186.90868019346615,261.88127362653" style="fill:none;stroke:rgb(0,0,0);stroke-width:1;stroke-linecap:round"></path><path d="M202.33012554013172,268.7794305879547L204.13424731226527,278.187255558805L208.39272435169912,273.48801709896446zM214.77516937138267,273.4934590857172L211.82385045675719,281.1028234800877L218.71599689871235,268.7270908220958zM204.13424731226527,278.187255558805L211.82385045675719,281.1028234800877L208.39272435169912,273.48801709896446zM208.90500908680266,265.8751380434321L214.77516937138267,273.4934590857172L218.71599689871235,268.7270908220958zM208.90500908680266,265.8751380434321L202.33012554013172,268.7794305879547L208.39272435169912,273.48801709896446z" style="fill:rgb(128,207,62)"></path><path d="M166.9504237316366,292.60053564358316L208.39272435169912,273.4880170989645" style="fill:none;stroke:rgb(128,207,62);stroke-width:5;stroke-linecap:round"></path><path d="M211.82385045675719,281.1028234800877L214.77516937138267,273.4934590857172L208.39272435169912,273.48801709896446zM214.77516937138267,273.4934590857172L208.90500908680266,265.8751380434321L208.39272435169912,273.48801709896446zM204.75062840089626,232.7219959884945L206.5561275184597,242.1426776215633L210.8192985362878,237.42757156799436zM217.2084041048905,237.42133837552927L214.25359563053655,245.0491780732042L221.15031401478797,232.68825834254577zM206.5561275184597,242.1426776215633L214.25359563053655,245.0491780732042L210.8192985362878,237.42757156799436zM211.33252653171652,229.80067506028877L217.2084041048905,237.42133837552927L221.15031401478797,232.68825834254577zM211.33252653171652,229.80067506028877L204.75062840089626,232.7219959884945L210.8192985362878,237.42757156799436z" style="fill:rgb(128,207,62)"></path><path d="M169.3457764823685,256.4533887284785L210.81929853628782,237.4275715679944" style="fill:none;stroke:rgb(128,207,62);stroke-width:5;stroke-linecap:round"></path><path d="M214.25359563053655,245.0491780732042L217.2084041048905,237.42133837552927L210.8192985362878,237.42757156799436zM217.2084041048905,237.42133837552927L211.33252653171652,229.80067506028877L210.8192985362878,237.42757156799436zM207.17558879939236,196.59815891629532L208.98246727850378,206.03172863265428L213.2503423503409,201.3007044823607zM219.64612218931424,201.28275306445516L216.68781630023923,208.9291232564868L223.58911178768662,196.5830920071557zM208.98246727850378,206.03172863265428L216.68781630023923,208.9291232564868L213.2503423503409,201.3007044823607zM213.76451621370686,193.6597517716991L219.64612218931424,201.28275306445516L223.58911178768662,196.5830920071557zM213.76451621370686,193.6597517716991L207.17558879939236,196.59815891629532L213.2503423503409,201.3007044823607z" style="fill:rgb(128,207,62)"></path><path d="M171.74555413216697,220.2394677331898L213.25034235034093,201.3007044823607" style="fill:none;stroke:rgb(128,207,62);stroke-width:5;stroke-linecap:round"></path><path d="M216.68781630023923,208.9291232564868L219.64612218931424,201.28275306445516L213.2503423503409,201.3007044823607zM219.64612218931424,201.28275306445516L213.76451621370686,193.6597517716991L213.2503423503409,201.3007044823607z" style="fill:rgb(128,207,62)"></path><path d="M236.53496417775563,-481.8744823740089L186.9086801934662,261.88127362653L15.83518316242262,197.08841355138054z" style="fill:rgb(0,0,0); fill-opacity: 0.2"></path><path d="M209.60501906030387,160.40773577459564L211.41327892121583,169.8542251036231L215.68586815449655,165.1072321550712zM222.08833602726165,165.07751928681398L219.12652484279772,172.742475375476L226.03240259959497,160.41140850392335zM211.41327892121583,169.8542251036231L219.12652484279772,172.742475375476L215.68586815449655,165.1072321550712zM216.20099050303196,157.45218434770555L222.08833602726165,165.07751928681398L226.03240259959497,160.41140850392335zM216.20099050303196,157.45218434770555L209.60501906030387,160.40773577459564L215.68586815449655,165.1072321550712z" style="fill:rgb(128,207,62)"></path><path d="M174.14976895344157,183.95858746053185L215.68586815449655,165.10723215507122" style="fill:none;stroke:rgb(128,207,62);stroke-width:5;stroke-linecap:round"></path><path d="M219.12652484279772,172.742475375476L222.08833602726165,165.07751928681398L215.68586815449655,165.1072321550712z" style="fill:rgb(128,207,62)"></path><path d="M195.98942266205933,-145.61340185887448L166.9504237316366,292.60053564358316" style="fill:none;stroke:rgb(58,110,14);stroke-width:5;stroke-linecap:round"></path><path d="M166.9504237316366,292.60053564358316L77.57372846027035,325.3988251789118" style="fill:none;stroke:rgb(0,0,0);stroke-width:1;stroke-linecap:round"></path><path d="M222.08833602726165,165.07751928681398L216.20099050303196,157.45218434770555L215.68586815449655,165.1072321550712zM212.0389315537922,124.15054228917194L213.8485748209017,133.60998286903182L218.125888355012,128.8469702212005zM224.53505806712943,128.80545249811138L221.56973368082427,136.48905009789485L228.48019887836526,124.17302384478606zM213.8485748209017,133.60998286903182L221.56973368082427,136.48905009789485L218.125888355012,128.8469702212005zM218.64196181561402,121.17778827975735L224.53505806712943,128.80545249811138L228.48019887836526,124.17302384478606zM218.64196181561402,121.17778827975735L212.0389315537922,124.15054228917194L218.125888355012,128.8469702212005z" style="fill:rgb(128,207,62)"></path><path d="M176.5584332640269,147.61056202782922L218.12588835501202,128.8469702212005" style="fill:none;stroke:rgb(128,207,62);stroke-width:5;stroke-linecap:round"></path><path d="M221.56973368082427,136.48905009789485L224.53505806712943,128.80545249811138L218.125888355012,128.8469702212005zM224.53505806712943,128.80545249811138L218.64196181561402,121.17778827975735L218.125888355012,128.8469702212005zM214.47733869570607,87.8263935052112L216.28836739756457,97.29881708333403L220.57041540397478,92.51973363475919zM226.9863008033152,92.46636747190446L224.0174552828221,100.16866241051943L230.93251309772654,87.867753362501zM216.28836739756457,97.29881708333403L224.0174552828221,100.16866241051943L220.57041540397478,92.51973363475919zM221.08744261325012,84.83637837757621L226.9863008033152,92.46636747190446L230.93251309772654,87.867753362501zM221.08744261325012,84.83637837757621L214.47733869570607,87.8263935052112L220.57041540397478,92.51973363475919z" style="fill:rgb(128,207,62)"></path><path d="M178.9715594273931,111.19520486374168L220.57041540397478,92.51973363475919" style="fill:none;stroke:rgb(128,207,62);stroke-width:5;stroke-linecap:round"></path><path d="M224.0174552828221,100.16866241051943L226.9863008033152,92.46636747190446L220.57041540397478,92.51973363475919zM226.9863008033152,92.46636747190446L221.08744261325012,84.83637837757621L220.57041540397478,92.51973363475919zM216.9202529477927,51.43510378416552L218.73266911711585,60.9205422177326L223.0194617995141,56.1253366655462zM229.44207677642967,56.060078296648356L226.46970216339693,63.78112661603126L233.3893577774963,51.49541170750862zM218.73266911711585,60.9205422177326L226.46970216339693,63.78112661603126L223.0194617995141,56.1253366655462zM223.5374454038238,48.42776876600497L229.44207677642967,56.060078296648356L233.3893577774963,51.49541170750862zM223.5374454038238,48.42776876600497L216.9202529477927,51.43510378416552L223.0194617995141,56.1253366655462z" style="fill:rgb(128,207,62)"></path><path d="M181.38915985285746,74.712328705072L223.0194617995141,56.1253366655462" style="fill:none;stroke:rgb(128,207,62);stroke-width:5;stroke-linecap:round"></path><path d="M226.46970216339693,63.78112661603126L229.44207677642967,56.060078296648356L223.0194617995141,56.1253366655462zM229.44207677642967,56.060078296648356L223.5374454038238,48.42776876600497L223.0194617995141,56.1253366655462zM219.36768681791023,14.976486800590168L221.1814924915879,24.474972057020057L225.4730400860142,19.66359289598362z" style="fill:rgb(128,207,62)"></path><path d="M61.873176476061026,-542.3929551490996L15.83518316242262,197.08841355138054L236.53496417775563,-481.8744823740089z" style="fill:rgb(0,0,0); fill-opacity: 0.2"></path><path d="M231.9023985735109,19.58639837252616L228.92648688347097,27.32625632985278L235.85074548379362,15.055812844778336zM221.1814924915879,24.474972057020057L228.92648688347097,27.32625632985278L225.4730400860142,19.66359289598362zM225.99198274151877,11.95177288183851L231.9023985735109,19.58639837252616L235.85074548379362,15.055812844778336zM225.99198274151877,11.95177288183851L219.36768681791023,14.976486800590168L225.4730400860142,19.66359289598362z" style="fill:rgb(128,207,62)"></path><path d="M183.81124699579703,38.16174559355605L225.4730400860142,19.66359289598364" style="fill:none;stroke:rgb(128,207,62);stroke-width:5;stroke-linecap:round"></path><path d="M228.92648688347097,27.32625632985278L231.9023985735109,19.58639837252616L225.4730400860142,19.66359289598362zM231.9023985735109,19.58639837252616L225.99198274151877,11.95177288183851L225.4730400860142,19.66359289598362zM221.81965286024075,-21.549644461036927L223.63485007934756,-12.038080303599042L227.93116285432825,-16.865684782066324zM234.36727882823936,-16.954859591739442L231.38782205049657,-9.196135523035279L238.31668882925325,-21.45122994936329zM223.63485007934756,-12.038080303599042L231.38782205049657,-9.196135523035279L227.93116285432825,-16.865684782066324zM228.45106722703318,-24.5917965293629L234.36727882823936,-16.954859591739442L238.31668882925325,-21.45122994936329zM228.45106722703318,-24.5917965293629L221.81965286024075,-21.549644461036927L227.93116285432825,-16.865684782066324z" style="fill:rgb(128,207,62)"></path><path d="M186.23783335786266,1.543266872634912L227.93116285432825,-16.865684782066335" style="fill:none;stroke:rgb(128,207,62);stroke-width:5;stroke-linecap:round"></path><path d="M231.38782205049657,-9.196135523035279L234.36727882823936,-16.954859591739442L227.93116285432825,-16.865684782066324zM234.36727882823936,-16.954859591739442L228.45106722703318,-24.5917965293629L227.93116285432825,-16.865684782066324zM224.27616367550564,-58.14347770951241L226.09275448531025,-48.618802461703275L230.39384274199398,-53.462684170502zM236.83673022115372,-53.56388358209169L233.85372031867266,-45.78623671129377L240.78720047324143,-58.02590409042205zM226.09275448531025,-48.618802461703275L233.85372031867266,-45.78623671129377L230.39384274199398,-53.462684170502zM230.9147115077952,-61.20312741647767L236.83673022115372,-53.56388358209169L240.78720047324143,-58.02590409042205z" style="fill:rgb(128,207,62)"></path><path d="M195.98942266205933,-145.61340185887448L166.9504237316366,292.60053564358316L77.57372846027035,325.3988251789118z" style="fill:rgb(0,0,0); fill-opacity: 0.2"></path><path d="M230.9147115077952,-61.20312741647767L224.27616367550564,-58.14347770951241L230.39384274199398,-53.462684170502z" style="fill:rgb(128,207,62)"></path><path d="M188.66893148719382,-35.14329681579107L230.39384274199398,-53.46268417050199" style="fill:none;stroke:rgb(128,207,62);stroke-width:5;stroke-linecap:round"></path><path d="M233.85372031867266,-45.78623671129377L236.83673022115372,-53.56388358209169L230.39384274199398,-53.462684170502zM236.83673022115372,-53.56388358209169L230.9147115077952,-61.20312741647767L230.39384274199398,-53.462684170502z" style="fill:rgb(128,207,62)"></path><path d="M244.77889376157725,-104.73206318116691L235.50021462793543,-106.58667028282126L237.7897909238417,-103.31668987244196z" style="fill:rgb(41,170,178)"></path><path d="M244.77889376157725,-104.73206318116691L235.50021462793543,-106.58667028282126L237.7897909238417,-103.31668987244196z" style="fill:rgb(197,147,42)"></path><path d="M226.7372319111806,-94.80520135012314L228.55521836115636,-85.26738271086649L232.86109243345004,-90.12759376820017z" style="fill:rgb(128,207,62)"></path><path d="M235.50021462793543,-106.58667028282126L229.3833213525225,-103.92279004987675L237.7897909238417,-103.31668987244196z" style="fill:rgb(41,170,178)"></path><path d="M235.50021462793543,-106.58667028282126L229.3833213525225,-103.92279004987675L237.7897909238417,-103.31668987244196z" style="fill:rgb(197,147,42)"></path><path d="M239.31076547986876,-90.24086228236345L236.32419438916128,-82.4442357004428L243.2622931220719,-94.6683976889426zM228.55521836115636,-85.26738271086649L236.32419438916128,-82.4442357004428L232.86109243345004,-90.12759376820017zM233.3829282781801,-97.88240842604534L239.31076547986876,-90.24086228236345L243.2622931220719,-94.6683976889426z" style="fill:rgb(128,207,62)"></path><path d="M241.97794144369453,-165.4609662874161L237.7897909238417,-103.31668987244193" style="fill:none;stroke:rgb(41,170,178);stroke-width:5;stroke-linecap:round"></path><path d="M241.97794144369448,-165.4609662874161L237.78979092384165,-103.31668987244193" style="fill:none;stroke:rgb(197,147,42);stroke-width:5;stroke-linecap:round"></path><path d="M233.3829282781801,-97.88240842604534L226.7372319111806,-94.80520135012314L232.86109243345004,-90.12759376820017z" style="fill:rgb(128,207,62)"></path><path d="M191.1045539786353,-71.89813553462596L232.86109243345004,-90.12759376820016" style="fill:none;stroke:rgb(128,207,62);stroke-width:5;stroke-linecap:round"></path><path d="M244.40284721511915,-100.9195762649523L244.77889376157725,-104.73206318116691L237.7897909238417,-103.31668987244196z" style="fill:rgb(41,170,178)"></path><path d="M244.40284721511915,-100.9195762649523L244.77889376157725,-104.73206318116691L237.7897909238417,-103.31668987244196z" style="fill:rgb(197,147,42)"></path><path d="M234.88356945165057,-100.41861318350935L229.3833213525225,-103.92279004987675L236.74480484849462,-87.81106198052704z" style="fill:rgb(41,170,178)"></path><path d="M234.88356945165054,-100.41861318350932L229.3833213525225,-103.92279004987675L236.74480484849457,-87.81106198052704z" style="fill:rgb(197,147,42)"></path><path d="M244.40284721511915,-100.9195762649523L234.88356945165057,-100.41861318350935L236.74480484849462,-87.81106198052704z" style="fill:rgb(41,170,178)"></path><path d="M244.40284721511915,-100.9195762649523L234.88356945165054,-100.41861318350932L236.74480484849457,-87.81106198052704z" style="fill:rgb(197,147,42)"></path><path d="M236.32419438916128,-82.4442357004428L239.31076547986876,-90.24086228236345L232.86109243345004,-90.12759376820017z" style="fill:rgb(128,207,62)"></path><path d="M229.3833213525225,-103.92279004987675L234.88356945165057,-100.41861318350935L237.7897909238417,-103.31668987244196z" style="fill:rgb(41,170,178)"></path><path d="M229.3833213525225,-103.92279004987675L234.88356945165054,-100.41861318350932L237.7897909238417,-103.31668987244196z" style="fill:rgb(197,147,42)"></path><path d="M239.31076547986876,-90.24086228236345L233.3829282781801,-97.88240842604534L232.86109243345004,-90.12759376820017z" style="fill:rgb(128,207,62)"></path><path d="M234.88356945165057,-100.41861318350935L244.40284721511915,-100.9195762649523L237.7897909238417,-103.31668987244196z" style="fill:rgb(41,170,178)"></path><path d="M234.88356945165054,-100.41861318350932L244.40284721511915,-100.9195762649523L237.7897909238417,-103.31668987244196z" style="fill:rgb(197,147,42)"></path><path d="M113.40728636864677,-234.16246932938503L77.57372846027035,325.3988251789118L186.90868019346615,261.88127362653z" style="fill:rgb(0,0,0); fill-opacity: 0.2"></path><path d="M229.20287026171349,-131.5350044878798L231.02225440554818,-121.9840100438895L235.33292466025372,-126.86060277425308z" style="fill:rgb(128,207,62)"></path><path d="M236.53496417775563,-481.8744823740089L61.873176476061026,-542.3929551490996M61.873176476061026,-542.3929551490996L-372.4207538459606,-368.5958962108691M236.53496417775563,-481.8744823740089L61.873176476061026,-542.3929551490996" style="fill:none;stroke:rgb(0,0,0);stroke-width:1;stroke-linecap:round"></path><path d="M241.78939737929383,-126.98598507751916L238.79925701030538,-119.17032165609807L245.7419795292245,-131.37889955373436zM231.02225440554818,-121.9840100438895L238.79925701030538,-119.17032165609807L235.33292466025372,-126.86060277425308zM235.85573027972782,-134.62982890550657L241.78939737929383,-126.98598507751916L245.7419795292245,-131.37889955373436zM235.85573027972782,-134.62982890550657L229.20287026171349,-131.5350044878798L235.33292466025372,-126.86060277425308z" style="fill:rgb(128,207,62)"></path><path d="M193.5447134739543,-108.72144005486093L235.33292466025372,-126.86060277425304" style="fill:none;stroke:rgb(128,207,62);stroke-width:5;stroke-linecap:round"></path><path d="M238.79925701030538,-119.17032165609807L241.78939737929383,-126.98598507751916L235.33292466025372,-126.86060277425308zM241.78939737929383,-126.98598507751916L235.85573027972782,-134.62982890550657L235.33292466025372,-126.86060277425308z" style="fill:rgb(128,207,62)"></path><path d="M221.6362457742391,-94.64400019503184L212.34673539889215,-96.50343147758379L214.6298150044102,-93.22371416808458zM212.34673539889215,-96.50343147758379L206.21002633656045,-93.83092155621796L214.6298150044102,-93.22371416808458z" style="fill:rgb(197,147,42)"></path><path d="M219.78159749435835,-93.83554436600132L210.49121969023108,-95.69536251256059L212.77377722493253,-92.4148642677304z" style="fill:rgb(41,170,178)"></path><path d="M241.97794144369448,-165.4609662874161L115.85423182066363,-111.02893588009175" style="fill:none;stroke:rgb(0,86,91);stroke-width:5;stroke-linecap:round"></path><path d="M241.97794144369448,-165.4609662874161L239.8759469225199,-287.6550238304579" style="fill:none;stroke:rgb(0,0,0);stroke-width:1;stroke-linecap:round"></path><path d="M-187.26654047452766,19.790869087416034L241.97794144369448,-165.4609662874161" style="fill:none;stroke:rgb(104,70,1);stroke-width:5;stroke-linecap:round"></path><path d="M241.97794144369448,-165.4609662874161L239.8759469225199,-287.6550238304579" style="fill:none;stroke:rgb(0,0,0);stroke-width:1;stroke-linecap:round"></path><path d="M210.49121969023108,-95.69536251256059L204.3529212067256,-93.02216040523436L212.77377722493253,-92.4148642677304z" style="fill:rgb(41,170,178)"></path><path d="M218.78832225363544,-155.45287137282543L214.6298150044102,-93.22371416808456" style="fill:none;stroke:rgb(197,147,42);stroke-width:5;stroke-linecap:round"></path><path d="M221.24709139595726,-90.81989146084186L221.6362457742391,-94.64400019503184L214.6298150044102,-93.22371416808458zM211.70885533239715,-90.31657231728637L206.21002633656045,-93.83092155621796L213.59222852233003,-77.6969569840226z" style="fill:rgb(197,147,42)"></path><path d="M231.6730914687421,-168.33307693076796L233.49387536434824,-158.76887415604804L237.8093522013003,-163.66190109122232z" style="fill:rgb(128,207,62)"></path><path d="M221.24709139595726,-90.81989146084186L211.70885533239715,-90.31657231728637L213.59222852233003,-77.6969569840226z" style="fill:rgb(197,147,42)"></path><path d="M244.2726387418529,-163.79944205691405L241.2789209778485,-155.96468444722407L248.22627249556334,-168.15759919511365z" style="fill:rgb(128,207,62)"></path><path d="M216.9299037622119,-154.65082160647262L212.77377722493253,-92.41486426773037" style="fill:none;stroke:rgb(41,170,178);stroke-width:5;stroke-linecap:round"></path><path d="M219.39139090727568,-90.01050349817348L219.78159749435835,-93.83554436600132L212.77377722493253,-92.4148642677304z" style="fill:rgb(41,170,178)"></path><path d="M233.49387536434824,-158.76887415604804L241.2789209778485,-155.96468444722407L237.8093522013003,-163.66190109122232z" style="fill:rgb(128,207,62)"></path><path d="M209.85163503097516,-89.506995323758L204.3529212067256,-93.02216040523436L211.73678501677892,-76.88641434004833z" style="fill:rgb(41,170,178)"></path><path d="M206.21002633656045,-93.83092155621796L211.70885533239715,-90.31657231728637L214.6298150044102,-93.22371416808458z" style="fill:rgb(197,147,42)"></path><path d="M238.3331303013627,-171.44557890646138L244.2726387418529,-163.79944205691405L248.22627249556334,-168.15759919511365z" style="fill:rgb(128,207,62)"></path><path d="M219.39139090727568,-90.01050349817348L209.85163503097516,-89.506995323758L211.73678501677892,-76.88641434004833z" style="fill:rgb(41,170,178)"></path><path d="M211.70885533239715,-90.31657231728637L221.24709139595726,-90.81989146084186L214.6298150044102,-93.22371416808458z" style="fill:rgb(197,147,42)"></path><path d="M238.3331303013627,-171.44557890646138L231.6730914687421,-168.33307693076796L237.8093522013003,-163.66190109122232z" style="fill:rgb(128,207,62)"></path><path d="M195.98942266205933,-145.61340185887448L237.80935220130036,-163.66190109122226" style="fill:none;stroke:rgb(128,207,62);stroke-width:5;stroke-linecap:round"></path><path d="M204.3529212067256,-93.02216040523436L209.85163503097516,-89.506995323758L212.77377722493253,-92.4148642677304z" style="fill:rgb(41,170,178)"></path><path d="M241.2789209778485,-155.96468444722407L244.2726387418529,-163.79944205691405L237.8093522013003,-163.66190109122232z" style="fill:rgb(128,207,62)"></path><path d="M209.85163503097516,-89.506995323758L219.39139090727568,-90.01050349817348L212.77377722493253,-92.4148642677304z" style="fill:rgb(41,170,178)"></path><path d="M244.2726387418529,-163.79944205691405L238.3331303013627,-171.44557890646138L237.8093522013003,-163.66190109122232z" style="fill:rgb(128,207,62)"></path><path d="M198.8836596401962,-84.72596825057717L189.58351376296545,-86.59014814504332L191.86017403519415,-83.30084404513157z" style="fill:rgb(186,45,138)"></path><path d="M198.41856844618076,-84.52323132686422L189.1182053023687,-86.38750834823864L191.3947340230483,-83.09800813758285z" style="fill:rgb(197,147,42)"></path><path d="M189.58351376296545,-86.59014814504332L183.42729166100517,-83.90914038037522L191.86017403519415,-83.30084404513157z" style="fill:rgb(186,45,138)"></path><path d="M189.1182053023687,-86.38750834823864L182.96158400651478,-83.7063267363781L191.3947340230483,-83.09800813758285z" style="fill:rgb(197,147,42)"></path><path d="M195.98942266205933,-145.61340185887448L191.86017403519418,-83.3008440451315" style="fill:none;stroke:rgb(186,45,138);stroke-width:5;stroke-linecap:round"></path><path d="M198.48157896045927,-80.89041639649007L198.8836596401962,-84.72596825057717L191.86017403519415,-83.30084404513157zM188.92469292800567,-80.38477602726853L183.42729166100517,-83.90914038037522L190.82989107118027,-67.7533261887481z" style="fill:rgb(186,45,138)"></path><path d="M195.52338337823718,-145.4122702513137L191.3947340230483,-83.09800813758282" style="fill:none;stroke:rgb(197,147,42);stroke-width:5;stroke-linecap:round"></path><path d="M198.01622312933458,-80.68744538345904L198.41856844618076,-84.52323132686422L191.3947340230483,-83.09800813758285zM188.4589557524237,-80.18175751509027L182.96158400651478,-83.7063267363781L190.3646006482286,-67.55006603638732z" style="fill:rgb(197,147,42)"></path><path d="M194.69675296526407,-82.90086257222549L185.39465137823453,-84.76591692131703L187.67012689970906,-81.47484715784285z" style="fill:rgb(41,170,178)"></path><path d="M198.48157896045927,-80.89041639649007L188.92469292800567,-80.38477602726853L190.82989107118027,-67.7533261887481z" style="fill:rgb(186,45,138)"></path><path d="M198.01622312933458,-80.68744538345904L188.4589557524237,-80.18175751509027L190.3646006482286,-67.55006603638732z" style="fill:rgb(197,147,42)"></path><path d="M183.42729166100517,-83.90914038037522L188.92469292800567,-80.38477602726853L191.86017403519415,-83.30084404513157z" style="fill:rgb(186,45,138)"></path><path d="M185.39465137823453,-84.76591692131703L179.23483513295594,-82.0833439229741L187.67012689970906,-81.47484715784285z" style="fill:rgb(41,170,178)"></path><path d="M182.96158400651478,-83.7063267363781L188.4589557524237,-80.18175751509027L191.3947340230483,-83.09800813758285z" style="fill:rgb(197,147,42)"></path><path d="M188.92469292800567,-80.38477602726853L198.48157896045927,-80.89041639649007L191.86017403519415,-83.30084404513157z" style="fill:rgb(186,45,138)"></path><path d="M188.4589557524237,-80.18175751509027L198.01622312933458,-80.68744538345904L191.3947340230483,-83.09800813758285z" style="fill:rgb(197,147,42)"></path><path d="M191.79397896643303,-143.8027469114811L187.6701268997091,-81.47484715784277" style="fill:none;stroke:rgb(41,170,178);stroke-width:5;stroke-linecap:round"></path><path d="M194.29228934572149,-79.06320311127429L194.69675296526407,-82.90086257222549L187.67012689970906,-81.47484715784285zM184.73197015555434,-78.55713506608585L179.23483513295594,-82.0833439229741L186.64119101514203,-65.9235102940151z" style="fill:rgb(41,170,178)"></path><path d="M236.53496417775554,-481.8744823740089L186.90868019346615,261.88127362653L113.40728636864677,-234.16246932938503z" style="fill:rgb(0,0,0); fill-opacity: 0.2"></path><path d="M194.29228934572149,-79.06320311127429L184.73197015555434,-78.55713506608585L186.64119101514203,-65.9235102940151zM179.23483513295594,-82.0833439229741L184.73197015555434,-78.55713506608585L187.67012689970906,-81.47484715784285zM184.73197015555434,-78.55713506608585L194.29228934572149,-79.06320311127429L187.67012689970906,-81.47484715784285z" style="fill:rgb(41,170,178)"></path><path d="M239.8759469225199,-287.6550238304579L236.53496417775554,-481.8744823740089M239.8759469225199,-287.6550238304579L236.53496417775554,-481.8744823740089" style="fill:none;stroke:rgb(0,0,0);stroke-width:1;stroke-linecap:round"></path><path d="M175.1254963130338,-74.3695972678603L165.81425883542533,-76.2387417198562L168.08418205117866,-72.93941231150329zM165.81425883542533,-76.2387417198562L159.6376282325343,-73.54884614241033L168.08418205117866,-72.93941231150329z" style="fill:rgb(197,147,42)"></path><path d="M195.98942266205933,-145.61340185887448L113.40728636864677,-234.16246932938503" style="fill:none;stroke:rgb(0,0,0);stroke-width:1;stroke-linecap:round"></path><path d="M115.85423182066363,-111.02893588009175L195.98942266205933,-145.61340185887448" style="fill:none;stroke:rgb(97,2,64);stroke-width:5;stroke-linecap:round"></path><path d="M195.98942266205933,-145.61340185887448L113.40728636864677,-234.16246932938503" style="fill:none;stroke:rgb(0,0,0);stroke-width:1;stroke-linecap:round"></path><path d="M172.3252436830475,-73.14894503636768L163.01269983436816,-75.01867504412364L165.28182669870654,-71.71816300684632z" style="fill:rgb(186,45,138)"></path><path d="M172.18275726405096,-135.3390042954464L168.0841820511787,-72.93941231150326" style="fill:none;stroke:rgb(197,147,42);stroke-width:5;stroke-linecap:round"></path><path d="M174.70987634783228,-70.5220783677264L175.1254963130338,-74.3695972678603L168.08418205117866,-72.93941231150329zM165.13350423224844,-70.01400902562132L159.6376282325343,-73.54884614241033L167.06155570234034,-57.37022946007402z" style="fill:rgb(197,147,42)"></path><path d="M163.01269983436816,-75.01867504412364L156.83366156133303,-72.32773093687422L165.28182669870654,-71.71816300684632z" style="fill:rgb(186,45,138)"></path><path d="M174.70987634783228,-70.5220783677264L165.13350423224844,-70.01400902562132L167.06155570234034,-57.37022946007402zM159.6376282325343,-73.54884614241033L165.13350423224844,-70.01400902562132L168.08418205117866,-72.93941231150329z" style="fill:rgb(197,147,42)"></path><path d="M169.52389943583947,-71.92781696030899L160.2100489049293,-73.79813283836286L162.47837862439783,-70.49643750070344z" style="fill:rgb(41,170,178)"></path><path d="M169.3767784049237,-134.12800973273627L165.28182669870648,-71.71816300684631" style="fill:none;stroke:rgb(186,45,138);stroke-width:5;stroke-linecap:round"></path><path d="M171.90802510591493,-69.30001441816815L172.3252436830475,-73.14894503636768L165.28182669870654,-71.71816300684632zM162.3293554678278,-68.79165843836589L156.83366156133303,-72.32773093687422L164.26010483567572,-56.14642750348681z" style="fill:rgb(186,45,138)"></path><path d="M160.2100489049293,-73.79813283836286L154.02860155369945,-71.10613958811004L162.47837862439783,-70.49643750070344z" style="fill:rgb(41,170,178)"></path><path d="M165.13350423224844,-70.01400902562132L174.70987634783228,-70.5220783677264L168.08418205117866,-72.93941231150329z" style="fill:rgb(197,147,42)"></path><path d="M171.90802510591493,-69.30001441816815L162.3293554678278,-68.79165843836589L164.26010483567572,-56.14642750348681zM156.83366156133303,-72.32773093687422L162.3293554678278,-68.79165843836589L165.28182669870654,-71.71816300684632z" style="fill:rgb(186,45,138)"></path><path d="M166.56970368355056,-132.91654222162273L162.47837862439783,-70.49643750070338" style="fill:none;stroke:rgb(41,170,178);stroke-width:5;stroke-linecap:round"></path><path d="M169.1050810315459,-68.07747381548783L169.52389943583947,-71.92781696030899L162.47837862439783,-70.49643750070344zM159.5241128069366,-67.56883101300181L154.02860155369945,-71.10613958811004L161.4575620301884,-54.922148538045576z" style="fill:rgb(41,170,178)"></path><path d="M162.3293554678278,-68.79165843836589L171.90802510591493,-69.30001441816815L165.28182669870654,-71.71816300684632z" style="fill:rgb(186,45,138)"></path><path d="M169.1050810315459,-68.07747381548783L159.5241128069366,-67.56883101300181L161.4575620301884,-54.922148538045576zM154.02860155369945,-71.10613958811004L159.5241128069366,-67.56883101300181L162.47837862439783,-70.49643750070344zM159.5241128069366,-67.56883101300181L169.1050810315459,-68.07747381548783L162.47837862439783,-70.49643750070344z" style="fill:rgb(41,170,178)"></path><path d="M113.40728636864677,-234.16246932938503L77.57372846027035,325.3988251789118L195.98942266205933,-145.61340185887448zM239.8759469225199,-287.6550238304579L113.40728636864677,-234.16246932938503L241.97794144369448,-165.4609662874161z" style="fill:rgb(0,0,0); fill-opacity: 0.2"></path><path d="M151.75666153302362,-64.18293767288614L142.43452811789712,-66.05697138223579L144.69779077917667,-62.747766182766476zM142.43452811789712,-66.05697138223579L136.2377905024402,-63.3583192888747L144.69779077917667,-62.747766182766476z" style="fill:rgb(197,147,42)"></path><path d="M148.7660739622271,-125.23291384399006L144.6977907791767,-62.74776618276644" style="fill:none;stroke:rgb(197,147,42);stroke-width:5;stroke-linecap:round"></path><path d="M151.32768260141054,-60.32362970935518L151.75666153302362,-64.18293767288614L144.69779077917667,-62.747766182766476zM141.73213190671933,-59.81316605764729L136.2377905024402,-63.3583192888747L143.68272578333915,-47.157286538945215zM151.32768260141054,-60.32362970935518L141.73213190671933,-59.81316605764729L143.68272578333915,-47.157286538945215zM136.2377905024402,-63.3583192888747L141.73213190671933,-59.81316605764729L144.69779077917667,-62.747766182766476z" style="fill:rgb(197,147,42)"></path><path d="M145.66830893771365,-61.52897670450906L136.34333903542426,-63.40428521274697L138.60486088204337,-60.09250463871092z" style="fill:rgb(186,45,138)"></path><path d="M141.73213190671933,-59.81316605764729L151.32768260141054,-60.32362970935518L144.69779077917667,-62.747766182766476z" style="fill:rgb(197,147,42)"></path><path d="M136.34333903542426,-63.40428521274697L130.1413575140293,-60.703349421315224L138.60486088204337,-60.09250463871092z" style="fill:rgb(186,45,138)"></path><path d="M144.26257292898956,-60.916205278972726L134.93694824490615,-62.791808182664504L137.1980678316241,-59.47943284069457z" style="fill:rgb(41,170,178)"></path><path d="M236.53496417775554,-481.8744823740089L236.53496417775554,-481.8744823740089L239.8759469225199,-287.6550238304579z" style="fill:rgb(0,0,0); fill-opacity: 0.2"></path><path d="M134.93694824490615,-62.791808182664504L128.73375564609748,-60.0903449723229L137.1980678316241,-59.47943284069457z" style="fill:rgb(41,170,178)"></path><path d="M142.6652322436367,-122.59993386798766L138.60486088204334,-60.09250463871089" style="fill:none;stroke:rgb(186,45,138);stroke-width:5;stroke-linecap:round"></path><path d="M145.23584278794942,-57.66659434961216L145.66830893771365,-61.52897670450906L138.60486088204337,-60.09250463871092zM135.635293516095,-57.15550606409101L130.1413575140293,-60.703349421315224L137.5917707874966,-44.49647862326996z" style="fill:rgb(186,45,138)"></path><path d="M141.25661127759588,-121.99200614777467L137.19806783162406,-59.479432840694535" style="fill:none;stroke:rgb(41,170,178);stroke-width:5;stroke-linecap:round"></path><path d="M143.82930122009134,-57.053112906372405L144.26257292898956,-60.916205278972726L137.1980678316241,-59.47943284069457zM134.22759771677008,-56.54188035035773L128.73375564609748,-60.0903449723229L136.18543400978842,-43.88212635293049z" style="fill:rgb(41,170,178)"></path><path d="M145.23584278794942,-57.66659434961216L135.635293516095,-57.15550606409101L137.5917707874966,-44.49647862326996zM130.1413575140293,-60.703349421315224L135.635293516095,-57.15550606409101L138.60486088204337,-60.09250463871092z" style="fill:rgb(186,45,138)"></path><path d="M143.82930122009134,-57.053112906372405L134.22759771677008,-56.54188035035773L136.18543400978842,-43.88212635293049zM128.73375564609748,-60.0903449723229L134.22759771677008,-56.54188035035773L137.1980678316241,-59.47943284069457z" style="fill:rgb(41,170,178)"></path><path d="M135.635293516095,-57.15550606409101L145.23584278794942,-57.66659434961216L138.60486088204337,-60.09250463871092z" style="fill:rgb(186,45,138)"></path><path d="M134.22759771677008,-56.54188035035773L143.82930122009134,-57.053112906372405L137.1980678316241,-59.47943284069457z" style="fill:rgb(41,170,178)"></path><path d="M128.31169386760604,-53.96309115203705L118.97864287303544,-55.842036081474966L121.23518949697187,-52.522908198193456zM118.97864287303544,-55.842036081474966L112.76169990231831,-53.13458464438601L121.23518949697187,-52.522908198193456z" style="fill:rgb(197,147,42)"></path><path d="M125.27296110896879,-115.09383819347701L121.23518949697187,-52.52290819819349" style="fill:none;stroke:rgb(197,147,42);stroke-width:5;stroke-linecap:round"></path><path d="M127.8692710379914,-50.0919376563765L128.31169386760604,-53.96309115203705L121.23518949697187,-52.522908198193456zM118.25446750557018,-49.57906677152767L112.76169990231831,-53.13458464438601L120.22774059306182,-36.91107550981523z" style="fill:rgb(197,147,42)"></path><path d="M113.40728636864677,-234.16246932938503L236.53496417775554,-481.8744823740089M236.53496417775554,-481.8744823740089L236.53496417775554,-481.8744823740089M113.40728636864677,-234.16246932938503L236.53496417775554,-481.8744823740089M236.53496417775554,-481.8744823740089L-195.81113235300148,-304.9161450821412" style="fill:none;stroke:rgb(0,0,0);stroke-width:1;stroke-linecap:round"></path><path d="M127.8692710379914,-50.0919376563765L118.25446750557018,-49.57906677152767L120.22774059306182,-36.91107550981523zM112.76169990231831,-53.13458464438601L118.25446750557018,-49.57906677152767L121.23518949697187,-52.522908198193456z" style="fill:rgb(197,147,42)"></path><path d="M241.97794144369448,-165.4609662874161L115.85423182066363,-111.02893588009175L113.40728636864677,-234.16246932938503z" style="fill:rgb(0,0,0); fill-opacity: 0.2"></path><path d="M118.25446750557018,-49.57906677152767L127.8692710379914,-50.0919376563765L121.23518949697187,-52.522908198193456z" style="fill:rgb(197,147,42)"></path><path d="M239.8759469225199,-287.6550238304579L113.40728636864677,-234.16246932938503L236.53496417775554,-481.8744823740089z" style="fill:rgb(0,0,0); fill-opacity: 0.2"></path><path d="M118.91230620047322,-49.86582385276271L109.5748821058641,-51.746739450471416L111.82872668185371,-48.42362929621182z" style="fill:rgb(186,45,138)"></path><path d="M118.91230620047322,-49.86582385276271L109.5748821058641,-51.746739450471416L111.82872668185371,-48.42362929621182z" style="fill:rgb(41,170,178)"></path><path d="M109.5748821058641,-51.746739450471416L103.34982931337402,-49.03575622151669L111.82872668185371,-48.42362929621182z" style="fill:rgb(186,45,138)"></path><path d="M109.5748821058641,-51.746739450471416L103.34982931337402,-49.03575622151669L111.82872668185371,-48.42362929621182z" style="fill:rgb(41,170,178)"></path><path d="M115.85423182066363,-111.02893588009175L111.8287266818537,-48.42362929621178" style="fill:none;stroke:rgb(186,45,138);stroke-width:5;stroke-linecap:round"></path><path d="M115.85423182066363,-111.02893588009175L111.8287266818537,-48.42362929621178" style="fill:none;stroke:rgb(41,170,178);stroke-width:5;stroke-linecap:round"></path><path d="M118.46448189236907,-45.989916251344106L118.91230620047322,-49.86582385276271L111.82872668185371,-48.42362929621182z" style="fill:rgb(186,45,138)"></path><path d="M118.46448189236907,-45.989916251344106L118.91230620047322,-49.86582385276271L111.82872668185371,-48.42362929621182z" style="fill:rgb(41,170,178)"></path><path d="M108.84195633817687,-45.47607883486999L103.34982931337402,-49.03575622151669L110.82433963457457,-32.803239592181725z" style="fill:rgb(186,45,138)"></path><path d="M108.84195633817687,-45.47607883486999L103.34982931337402,-49.03575622151669L110.82433963457457,-32.803239592181725z" style="fill:rgb(41,170,178)"></path><path d="M118.46448189236907,-45.989916251344106L108.84195633817687,-45.47607883486999L110.82433963457457,-32.803239592181725z" style="fill:rgb(186,45,138)"></path><path d="M118.46448189236907,-45.989916251344106L108.84195633817687,-45.47607883486999L110.82433963457457,-32.803239592181725z" style="fill:rgb(41,170,178)"></path><path d="M103.34982931337402,-49.03575622151669L108.84195633817687,-45.47607883486999L111.82872668185371,-48.42362929621182z" style="fill:rgb(186,45,138)"></path><path d="M103.34982931337402,-49.03575622151669L108.84195633817687,-45.47607883486999L111.82872668185371,-48.42362929621182z" style="fill:rgb(41,170,178)"></path><path d="M108.84195633817687,-45.47607883486999L118.46448189236907,-45.989916251344106L111.82872668185371,-48.42362929621182z" style="fill:rgb(186,45,138)"></path><path d="M108.84195633817687,-45.47607883486999L118.46448189236907,-45.989916251344106L111.82872668185371,-48.42362929621182z" style="fill:rgb(41,170,178)"></path><path d="M115.85423182066363,-111.02893588009175L195.98942266205933,-145.61340185887448L113.40728636864677,-234.16246932938503z" style="fill:rgb(0,0,0); fill-opacity: 0.2"></path><path d="M104.79022066191457,-43.70989526211427L95.44623040796027,-45.59377351145671L97.69600507446015,-42.2646757499695zM95.44623040796027,-45.59377351145671L89.20898309692056,-42.87747962307864L97.69600507446015,-42.2646757499695z" style="fill:rgb(197,147,42)"></path><path d="M101.70304390579476,-104.92161558968667L97.69600507446015,-42.2646757499695" style="fill:none;stroke:rgb(197,147,42);stroke-width:5;stroke-linecap:round"></path><path d="M104.33426838385242,-39.82683940058955L104.79022066191457,-43.70989526211427L97.69600507446015,-42.2646757499695zM94.7001373337857,-39.31154827065472L89.20898309692056,-42.87747962307864L96.69622741695696,-26.6314335539095zM104.33426838385242,-39.82683940058955L94.7001373337857,-39.31154827065472L96.69622741695696,-26.6314335539095zM89.20898309692056,-42.87747962307864L94.7001373337857,-39.31154827065472L97.69600507446015,-42.2646757499695zM94.7001373337857,-39.31154827065472L104.33426838385242,-39.82683940058955L97.69600507446015,-42.2646757499695z" style="fill:rgb(197,147,42)"></path><path d="M115.85423182066363,-111.02893588009175L113.40728636864677,-234.16246932938503M115.85423182066363,-111.02893588009175L113.40728636864677,-234.16246932938503M-92.53762525814363,403.75241234446787L-238.61979709054555,457.4904698464628M-164.7122606662225,445.55799966630667L-92.53762525814363,403.75241234446787M-372.4207538459606,-368.5958962108691L-411.5493988822459,389.33152890779525M-238.6197970905455,457.4904698464629L-411.5493988822459,389.33152890779525" style="fill:none;stroke:rgb(0,0,0);stroke-width:1;stroke-linecap:round"></path><path d="M81.19186682501571,-33.42318649801832L71.83691559392082,-35.31202030525281L74.079861941724,-31.97290516702394zM71.83691559392082,-35.31202030525281L65.57926430987467,-32.586840575988184L74.079861941724,-31.97290516702394z" style="fill:rgb(197,147,42)"></path><path d="M78.05594509960777,-94.71608321904401L74.079861941724,-31.972905167023907" style="fill:none;stroke:rgb(197,147,42);stroke-width:5;stroke-linecap:round"></path><path d="M80.72229892382813,-29.52817106892636L81.19186682501571,-33.42318649801832L74.079861941724,-31.97290516702394zM71.06876525177444,-29.01044659281065L65.57926430987467,-32.586840575988184L73.08781110434279,-16.3181967882401zM80.72229892382813,-29.52817106892636L71.06876525177444,-29.01044659281065L73.08781110434279,-16.3181967882401zM65.57926430987467,-32.586840575988184L71.06876525177444,-29.01044659281065L74.079861941724,-31.97290516702394zM71.06876525177444,-29.01044659281065L80.72229892382813,-29.52817106892636L74.079861941724,-31.97290516702394z" style="fill:rgb(197,147,42)"></path><path d="M113.40728636864677,-234.16246932938503L113.40728636864677,-234.16246932938503L115.85423182066363,-111.02893588009175zM-187.26654047452766,19.790869087416034L241.97794144369448,-165.4609662874161L239.8759469225199,-287.6550238304579z" style="fill:rgb(0,0,0); fill-opacity: 0.2"></path><path d="M57.51625480997067,-23.10280028405754L48.15032084636228,-24.99661202644332L50.38638206905775,-21.647431706325648zM48.15032084636228,-24.99661202644332L41.87216530369921,-22.262502782347962L50.38638206905775,-21.647431706325648z" style="fill:rgb(197,147,42)"></path><path d="M54.33128496256703,-84.47707719993286L50.38638206905775,-21.647431706325616" style="fill:none;stroke:rgb(197,147,42);stroke-width:5;stroke-linecap:round"></path><path d="M57.03298448131641,-19.195767714731268L57.51625480997067,-23.10280028405754L50.38638206905775,-21.647431706325648zM47.35997265534654,-18.67559670143967L41.87216530369921,-22.262502782347962L49.40211404847081,-5.971200256896833zM57.03298448131641,-19.195767714731268L47.35997265534654,-18.67559670143967L49.40211404847081,-5.971200256896833zM41.87216530369921,-22.262502782347962L47.35997265534654,-18.67559670143967L50.38638206905775,-21.647431706325648zM47.35997265534654,-18.67559670143967L57.03298448131641,-19.195767714731268L50.38638206905775,-21.647431706325648zM33.76300459370056,-12.748570965171297L24.38606610479656,-14.647383160350103L26.615184946796756,-11.288089544092562zM24.38606610479656,-14.647383160350103L18.0873053596222,-11.90430044080008L26.615184946796756,-11.288089544092562z" style="fill:rgb(197,147,42)"></path><path d="M30.528681271762235,-74.20443257392367L26.61518494679675,-11.28808954409253" style="fill:none;stroke:rgb(197,147,42);stroke-width:5;stroke-linecap:round"></path><path d="M33.265944398088294,-8.829463308954727L33.76300459370056,-12.748570965171297L26.615184946796756,-11.288089544092562zM23.57337845549454,-8.306832476834472L18.0873053596222,-11.90430044080008L25.63875616639316,4.409722077747663zM33.265944398088294,-8.829463308954727L23.57337845549454,-8.306832476834472L25.63875616639316,4.409722077747663zM18.0873053596222,-11.90430044080008L23.57337845549454,-8.306832476834472L26.615184946796756,-11.288089544092562zM23.57337845549454,-8.306832476834472L33.265944398088294,-8.829463308954727L26.615184946796756,-11.288089544092562z" style="fill:rgb(197,147,42)"></path><path d="M-190.56592731617832,-105.59066641244662L239.8759469225199,-287.6550238304579L236.53496417775554,-481.8744823740089zM-195.81113235300145,-304.91614508214116L236.53496417775563,-481.8744823740089L61.873176476061026,-542.3929551490996z" style="fill:rgb(0,0,0); fill-opacity: 0.2"></path><path d="M9.931733656653515,-2.360331798066668L0.5437688124746736,-4.264167105184363L2.765887564947741,-0.894711766914566zM0.5437688124746736,-4.264167105184363L-5.775698742799497,-1.5120666605199058L2.765887564947741,-0.894711766914566z" style="fill:rgb(197,147,42)"></path><path d="M6.647749288687185,-63.897983296914596L2.76588756494773,-0.894711766914532" style="fill:none;stroke:rgb(197,147,42);stroke-width:5;stroke-linecap:round"></path><path d="M9.4207955138989,1.5709092687396957L9.931733656653515,-2.360331798066668L2.765887564947741,-0.894711766914566zM-0.29140094202535805,2.0960132927645323L-5.775698742799497,-1.5120666605199058L1.7973548786322278,14.824737343919393zM9.4207955138989,1.5709092687396957L-0.29140094202535805,2.0960132927645323L1.7973548786322278,14.824737343919393zM-5.775698742799497,-1.5120666605199058L-0.29140094202535805,2.0960132927645323L2.765887564947741,-0.894711766914566z" style="fill:rgb(197,147,42)"></path><path d="M-164.7122606662225,445.55799966630667L-138.79261263957355,-1.1293395058844604" style="fill:none;stroke:rgb(114,20,32);stroke-width:5;stroke-linecap:round"></path><path d="M-164.7122606662225,445.5579996663067L-208.34302644795744,465.67980293597435" style="fill:none;stroke:rgb(212,72,90);stroke-width:5;stroke-linecap:round"></path><path d="M-0.29140094202535805,2.0960132927645323L9.4207955138989,1.5709092687396957L2.765887564947741,-0.894711766914566z" style="fill:rgb(197,147,42)"></path><path d="M-92.53762525814363,403.75241234446787L-58.737686355214194,-161.3501670942855L-164.7122606662225,445.55799966630667z" style="fill:rgb(0,0,0); fill-opacity: 0.2"></path><path d="M-162.57472144244798,408.7206279835449L-206.24045480303843,428.7521135664902" style="fill:none;stroke:rgb(212,72,90);stroke-width:5;stroke-linecap:round"></path><path d="M-13.977943037729204,8.06208505773246L-23.37695610414142,6.153203836893303L-21.161895607382352,9.532869637210974zM-23.37695610414142,6.153203836893303L-29.71723274626167,8.914366547747328L-21.161895607382352,9.532869637210974z" style="fill:rgb(197,147,42)"></path><path d="M-17.311898261490104,-53.5575622301854L-21.161895607382355,9.532869637211006" style="fill:none;stroke:rgb(197,147,42);stroke-width:5;stroke-linecap:round"></path><path d="M-14.502847854103505,12.005518238956318L-13.977943037729204,8.06208505773246L-21.161895607382352,9.532869637210974zM-24.234751657313506,12.533108920157865L-29.71723274626167,8.914366547747328L-22.122474911351247,25.27401376941189zM-14.502847854103505,12.005518238956318L-24.234751657313506,12.533108920157865L-22.122474911351247,25.27401376941189zM-29.71723274626167,8.914366547747328L-24.234751657313506,12.533108920157865L-21.161895607382352,9.532869637210974zM-24.234751657313506,12.533108920157865L-14.502847854103505,12.005518238956318L-21.161895607382352,9.532869637210974z" style="fill:rgb(197,147,42)"></path><path d="M-160.43314231497519,371.8136344513026L-204.13389753286668,391.7544242368937" style="fill:none;stroke:rgb(212,72,90);stroke-width:5;stroke-linecap:round"></path><path d="M-195.81113235300148,-304.9161450821412L-238.61979709054555,457.4904698464628" style="fill:none;stroke:rgb(0,0,0);stroke-width:1;stroke-linecap:round"></path><path d="M-158.28751181997274,334.836821507162L-202.0233432939912,354.6865357209496" style="fill:none;stroke:rgb(212,72,90);stroke-width:5;stroke-linecap:round"></path><path d="M-37.96641306374974,18.518848548924627L-47.37649625611011,16.604898468801306L-45.1685526427603,19.994823787932628zM-47.37649625611011,16.604898468801306L-53.73768493649801,19.375168280738112L-45.1685526427603,19.994823787932628z" style="fill:rgb(197,147,42)"></path><path d="M-41.35065121086199,-43.183001131362225L-45.1685526427603,19.994823787932628" style="fill:none;stroke:rgb(197,147,42);stroke-width:5;stroke-linecap:round"></path><path d="M-38.50537393217144,22.4745329316368L-37.96641306374974,18.518848548924627L-45.1685526427603,19.994823787932628zM-48.25706235715114,23.004623828264265L-53.73768493649801,19.375168280738112L-46.12112083789213,35.75772069064406z" style="fill:rgb(197,147,42)"></path><path d="M-207.89915267838938,457.8840007232494L-214.49458077637578,460.794137615651L-219.29119110299698,470.72891934283916z" style="fill:rgb(212,72,90)"></path><path d="M-38.50537393217144,22.4745329316368L-48.25706235715114,23.004623828264265L-46.12112083789213,35.75772069064406zM-53.73768493649801,19.375168280738112L-48.25706235715114,23.004623828264265L-45.1685526427603,19.994823787932628z" style="fill:rgb(197,147,42)"></path><path d="M-204.81461435539458,473.5170963127763L-201.91376946329234,465.74940649688284L-219.29119110299698,470.72891934283916z" style="fill:rgb(212,72,90)"></path><path d="M-48.25706235715114,23.004623828264265L-38.50537393217144,22.4745329316368L-45.1685526427603,19.994823787932628z" style="fill:rgb(197,147,42)"></path><path d="M-201.91376946329234,465.74940649688284L-207.89915267838938,457.8840007232494L-219.29119110299698,470.72891934283916z" style="fill:rgb(212,72,90)"></path><path d="M-411.5493988822459,389.33152890779525L-372.4207538459606,-368.5958962108691L-238.6197970905455,457.4904698464629z" style="fill:rgb(0,0,0); fill-opacity: 0.2"></path><path d="M-156.13781845019437,297.78999084051367L-199.90878069987414,317.5482480356833" style="fill:none;stroke:rgb(212,72,90);stroke-width:5;stroke-linecap:round"></path><path d="M-52.39747806679793,24.80946372776723L-61.81421386371527,22.892461257958868L-59.61056871526248,26.28856596835546z" style="fill:rgb(112,56,202)"></path><path d="M-52.397478066797845,24.8094637277672L-61.814213863715175,22.892461257958832L-59.610568715262396,26.288565968355428z" style="fill:rgb(81,214,102)"></path><path d="M-61.81421386371527,22.892461257958868L-68.18799946649574,25.66821697443032L-59.61056871526248,26.28856596835546z" style="fill:rgb(112,56,202)"></path><path d="M-61.814213863715175,22.892461257958832L-68.18799946649564,25.668216974430287L-59.610568715262396,26.288565968355428z" style="fill:rgb(81,214,102)"></path><path d="M-55.81203670696519,-36.9418068514868L-59.61056871526248,26.288565968355492" style="fill:none;stroke:rgb(112,56,202);stroke-width:5;stroke-linecap:round"></path><path d="M-55.812036706965095,-36.94180685148684L-59.610568715262396,26.28856596835546" style="fill:none;stroke:rgb(81,214,102);stroke-width:5;stroke-linecap:round"></path><path d="M-52.94491574144293,28.77252735377249L-52.39747806679793,24.80946372776723L-59.61056871526248,26.28856596835546z" style="fill:rgb(112,56,202)"></path><path d="M-52.94491574144284,28.772527353772457L-52.397478066797845,24.8094637277672L-59.610568715262396,26.288565968355428z" style="fill:rgb(81,214,102)"></path><path d="M-62.70851221573522,29.304124926588553L-68.18799946649574,25.66821697443032L-60.55830235260628,42.06454234350676z" style="fill:rgb(112,56,202)"></path><path d="M-62.70851221573512,29.30412492658852L-68.18799946649564,25.668216974430287L-60.55830235260619,42.06454234350673z" style="fill:rgb(81,214,102)"></path><path d="M-205.79573994293298,420.9415391912219L-212.39827339460314,423.8695608491381L-217.19743217306632,433.7785843784623z" style="fill:rgb(212,72,90)"></path><path d="M-52.94491574144293,28.77252735377249L-62.70851221573522,29.304124926588553L-60.55830235260628,42.06454234350676z" style="fill:rgb(112,56,202)"></path><path d="M-52.94491574144284,28.772527353772457L-62.70851221573512,29.30412492658852L-60.55830235260619,42.06454234350673z" style="fill:rgb(81,214,102)"></path><path d="M-68.18799946649574,25.66821697443032L-62.70851221573522,29.304124926588553L-59.61056871526248,26.28856596835546z" style="fill:rgb(112,56,202)"></path><path d="M-68.18799946649564,25.668216974430287L-62.70851221573512,29.30412492658852L-59.610568715262396,26.288565968355428z" style="fill:rgb(81,214,102)"></path><path d="M-202.70868924509017,436.59661049107723L-199.80440706650003,428.8094738223601L-217.19743217306632,433.7785843784623zM-199.80440706650003,428.8094738223601L-205.79573994293298,420.9415391912219L-217.19743217306632,433.7785843784623z" style="fill:rgb(212,72,90)"></path><path d="M-62.70851221573522,29.304124926588553L-52.94491574144293,28.77252735377249L-59.61056871526248,26.28856596835546z" style="fill:rgb(112,56,202)"></path><path d="M-62.70851221573512,29.30412492658852L-52.94491574144284,28.772527353772457L-59.610568715262396,26.288565968355428z" style="fill:rgb(81,214,102)"></path><path d="M-62.034066554395835,29.010128737559544L-71.45524181294626,27.091086707654693L-69.2544741764069,30.491320921687894zM-71.45524181294626,27.091086707654693L-77.83744616327117,29.870508751812444L-69.2544741764069,30.491320921687894z" style="fill:rgb(197,147,42)"></path><path d="M-153.98405065477337,260.6729433890112L-197.79019832068607,280.33936043778453" style="fill:none;stroke:rgb(212,72,90);stroke-width:5;stroke-linecap:round"></path><path d="M-65.46890196992398,-32.77413064529296L-69.25447417640689,30.49132092168789" style="fill:none;stroke:rgb(197,147,42);stroke-width:5;stroke-linecap:round"></path><path d="M-62.58717351095871,32.97812379521999L-62.034066554395835,29.010128737559544L-69.2544741764069,30.491320921687894zM-72.35872427603124,33.51072855928827L-77.83744616327117,29.870508751812444L-70.19897309406075,46.27602856180755zM-62.58717351095871,32.97812379521999L-72.35872427603124,33.51072855928827L-70.19897309406075,46.27602856180755zM-77.83744616327117,29.870508751812444L-72.35872427603124,33.51072855928827L-69.2544741764069,30.491320921687894zM-72.35872427603124,33.51072855928827L-62.58717351095871,32.97812379521999L-69.2544741764069,30.491320921687894z" style="fill:rgb(197,147,42)"></path><path d="M-203.68833918929977,383.92903567190376L-210.29799309553985,386.8750047032845L-215.09970137228646,396.7581544493723zM-200.59877212917058,399.60613795142774L-197.69104483783985,391.7994946161764L-215.09970137228646,396.7581544493723zM-197.69104483783985,391.7994946161764L-203.68833918929977,383.92903567190376L-215.09970137228646,396.7581544493723z" style="fill:rgb(212,72,90)"></path><path d="M-78.44550080743335,36.16400250896371L-87.87423122178787,34.2414846894122L-85.67837724325696,37.648757319769736z" style="fill:rgb(112,56,202)"></path><path d="M-151.82619683901544,223.4854793350061L-195.6675846830999,243.05967141999062" style="fill:none;stroke:rgb(212,72,90);stroke-width:5;stroke-linecap:round"></path><path d="M-55.812036706965095,-36.94180685148684L-187.26654047452766,19.790869087416034" style="fill:none;stroke:rgb(47,10,107);stroke-width:5;stroke-linecap:round"></path><path d="M-55.812036706965095,-36.94180685148684L-58.737686355214194,-161.3501670942855" style="fill:none;stroke:rgb(0,0,0);stroke-width:1;stroke-linecap:round"></path><path d="M-138.79261263957355,-1.1293395058844604L-55.812036706965095,-36.94180685148684" style="fill:none;stroke:rgb(26,115,41);stroke-width:5;stroke-linecap:round"></path><path d="M-55.812036706965095,-36.94180685148684L-58.737686355214194,-161.3501670942855" style="fill:none;stroke:rgb(0,0,0);stroke-width:1;stroke-linecap:round"></path><path d="M-87.87423122178787,34.2414846894122L-94.27078577183117,37.02715618270163L-85.67837724325696,37.648757319769736z" style="fill:rgb(112,56,202)"></path><path d="M-79.89533926949943,36.795998542133546L-89.32473680350739,34.8731735178653L-87.12931771030708,38.2810682916529zM-89.32473680350739,34.8731735178653L-95.72255987073528,37.65939744483324L-87.12931771030708,38.2810682916529z" style="fill:rgb(81,214,102)"></path><path d="M-81.91492309087907,-25.676414249137576L-85.67837724325696,37.64875731976977" style="fill:none;stroke:rgb(112,56,202);stroke-width:5;stroke-linecap:round"></path><path d="M-79.00827887084672,40.140402995483264L-78.44550080743335,36.16400250896371L-85.67837724325696,37.648757319769736zM-88.79338064793458,40.674725035662L-94.27078577183117,37.02715618270163L-86.61735559882361,53.44832948359663z" style="fill:rgb(112,56,202)"></path><path d="M-238.61979709054555,457.4904698464628L-195.81113235300148,-304.9161450821412L-92.53762525814363,403.75241234446787z" style="fill:rgb(0,0,0); fill-opacity: 0.2"></path><path d="M-83.3678203891376,-25.04937790399756L-87.12931771030708,38.2810682916529" style="fill:none;stroke:rgb(81,214,102);stroke-width:5;stroke-linecap:round"></path><path d="M-80.45897268640736,40.77314201721323L-79.89533926949943,36.795998542133546L-87.12931771030708,38.2810682916529zM-90.24527188101997,41.30761588792731L-95.72255987073528,37.65939744483324L-88.06780765149435,54.081953325126925z" style="fill:rgb(81,214,102)"></path><path d="M-79.00827887084672,40.140402995483264L-88.79338064793458,40.674725035662L-86.61735559882361,53.44832948359663zM-94.27078577183117,37.02715618270163L-88.79338064793458,40.674725035662L-85.67837724325696,37.648757319769736z" style="fill:rgb(112,56,202)"></path><path d="M-201.57693906495302,346.8462907794835L-208.19372857427692,349.81027005224246L-212.99798738793996,359.66742991047306z" style="fill:rgb(212,72,90)"></path><path d="M-80.45897268640736,40.77314201721323L-90.24527188101997,41.30761588792731L-88.06780765149435,54.081953325126925zM-95.72255987073528,37.65939744483324L-90.24527188101997,41.30761588792731L-87.12931771030708,38.2810682916529z" style="fill:rgb(81,214,102)"></path><path d="M-88.79338064793458,40.674725035662L-79.00827887084672,40.140402995483264L-85.67837724325696,37.648757319769736z" style="fill:rgb(112,56,202)"></path><path d="M-198.4848516459585,362.54547950410443L-195.5736713896256,354.7192694529706L-212.99798738793996,359.66742991047306z" style="fill:rgb(212,72,90)"></path><path d="M-86.1812962224906,39.53609681025757L-95.61358552376531,37.611939593973204L-93.42005342738513,41.02253240093682z" style="fill:rgb(197,147,42)"></path><path d="M-195.5736713896256,354.7192694529706L-201.57693906495302,346.8462907794835L-212.99798738793996,359.66742991047306z" style="fill:rgb(212,72,90)"></path><path d="M-90.24527188101997,41.30761588792731L-80.45897268640736,40.77314201721323L-87.12931771030708,38.2810682916529z" style="fill:rgb(81,214,102)"></path><path d="M-95.61358552376531,37.611939593973204L-102.0169098615721,40.40055930018584L-93.42005342738513,41.02253240093682z" style="fill:rgb(197,147,42)"></path><path d="M-89.66704554892736,-22.33078029483203L-93.42005342738511,41.02253240093684" style="fill:none;stroke:rgb(197,147,42);stroke-width:5;stroke-linecap:round"></path><path d="M-86.74863996672921,43.51646240589216L-86.1812962224906,39.53609681025757L-93.42005342738513,41.02253240093682zM-96.5401312373976,44.051594783978594L-102.0169098615721,40.40055930018584L-94.35642445281024,56.82910896410485zM-86.74863996672921,43.51646240589216L-96.5401312373976,44.051594783978594L-94.35642445281024,56.82910896410485zM-102.0169098615721,40.40055930018584L-96.5401312373976,44.051594783978594L-93.42005342738513,41.02253240093682z" style="fill:rgb(197,147,42)"></path><path d="M-164.7122606662225,445.55799966630667L-138.79261263957355,-1.1293395058844604L-58.737686355214194,-161.3501670942855z" style="fill:rgb(0,0,0); fill-opacity: 0.2"></path><path d="M-149.66424536419083,186.22739810196197L-193.54092827008398,205.70897870744875" style="fill:none;stroke:rgb(212,72,90);stroke-width:5;stroke-linecap:round"></path><path d="M-190.56592731617832,-105.59066641244662L239.8759469225199,-287.6550238304579L-187.26654047452766,19.790869087416034z" style="fill:rgb(0,0,0); fill-opacity: 0.2"></path><path d="M-96.5401312373976,44.051594783978594L-86.74863996672921,43.51646240589216L-93.42005342738513,41.02253240093682z" style="fill:rgb(197,147,42)"></path><path d="M-372.4207538459606,-368.5958962108691L61.873176476061026,-542.3929551490996L-195.81113235300145,-304.91614508214116z" style="fill:rgb(0,0,0); fill-opacity: 0.2"></path><path d="M-199.4615281742258,309.6931043706526L-206.08546848297362,312.6751570139656L-210.89227886430706,322.5062103577734zM-196.36691639062056,325.41443520277915L-193.45227529090184,317.5685981496323L-210.89227886430706,322.5062103577734zM-193.45227529090184,317.5685981496323L-199.4615281742258,309.6931043706526L-210.89227886430706,322.5062103577734z" style="fill:rgb(212,72,90)"></path><path d="M-104.58665445622671,47.55913778836419L-114.02740515006954,45.631077399219L-111.8394121918126,49.0495761744682zM-114.02740515006954,45.631077399219L-120.44685087123862,48.42671789728348L-111.8394121918126,49.0495761744682z" style="fill:rgb(112,56,202)"></path><path d="M-147.49818454732502,148.8984983508482L-191.41021752069358,168.2870792540576" style="fill:none;stroke:rgb(212,72,90);stroke-width:5;stroke-linecap:round"></path><path d="M-107.49699760563811,48.82777934652091L-116.93908547213425,46.89910142798191L-114.75197029838796,50.31885116462608z" style="fill:rgb(81,214,102)"></path><path d="M-108.11131155068605,-14.370668347211527L-111.8394121918126,49.0495761744682" style="fill:none;stroke:rgb(112,56,202);stroke-width:5;stroke-linecap:round"></path><path d="M-105.16487923053278,51.54894527080395L-104.58665445622671,47.55913778836419L-111.8394121918126,49.0495761744682zM-114.97157783964008,52.086007887904195L-120.44685087123862,48.42671789728348L-112.76956654079619,64.87281216887455z" style="fill:rgb(112,56,202)"></path><path d="M-116.93908547213425,46.89910142798191L-123.36108223943708,49.69585289546549L-114.75197029838796,50.31885116462608z" style="fill:rgb(81,214,102)"></path><path d="M-105.16487923053278,51.54894527080395L-114.97157783964008,52.086007887904195L-112.76956654079619,64.87281216887455zM-120.44685087123862,48.42671789728348L-114.97157783964008,52.086007887904195L-111.8394121918126,49.0495761744682z" style="fill:rgb(112,56,202)"></path><path d="M-110.40849738205249,50.09692508752064L-119.85192273863746,48.16762930098097L-117.66568621999896,51.58863072348763z" style="fill:rgb(197,147,42)"></path><path d="M-111.02781494025844,-13.111973993400046L-114.75197029838796,50.31885116462611" style="fill:none;stroke:rgb(81,214,102);stroke-width:5;stroke-linecap:round"></path><path d="M-108.07694528102547,52.81908084609749L-107.49699760563811,48.82777934652091L-114.75197029838796,50.31885116462608zM-117.88604921283037,53.35644897140156L-123.36108223943708,49.69585289546549L-115.68113993518784,66.14472068570885z" style="fill:rgb(81,214,102)"></path><path d="M-119.85192273863746,48.16762930098097L-126.27647207303,50.96549240025336L-117.66568621999896,51.58863072348763z" style="fill:rgb(197,147,42)"></path><path d="M-114.97157783964008,52.086007887904195L-105.16487923053278,51.54894527080395L-111.8394121918126,49.0495761744682z" style="fill:rgb(112,56,202)"></path><path d="M-197.3420950781163,272.4692755410045L-203.97320143065414,275.46946494661495L-208.78256440246145,285.2742946247777z" style="fill:rgb(212,72,90)"></path><path d="M-108.07694528102547,52.81908084609749L-117.88604921283037,53.35644897140156L-115.68113993518784,66.14472068570885z" style="fill:rgb(81,214,102)"></path><path d="M-92.53762525814363,403.75241234446787L-58.737686355214194,-161.3501670942855L-195.81113235300148,-304.9161450821412z" style="fill:rgb(0,0,0); fill-opacity: 0.2"></path><path d="M-123.36108223943708,49.69585289546549L-117.88604921283037,53.35644897140156L-114.75197029838796,50.31885116462608z" style="fill:rgb(81,214,102)"></path><path d="M-194.24495491496168,288.21280434092296L-191.32684506723808,280.34727976170035L-208.78256440246145,285.2742946247777z" style="fill:rgb(212,72,90)"></path><path d="M-113.9454795794445,-11.852778471533243L-117.66568621999895,51.588630723487626" style="fill:none;stroke:rgb(197,147,42);stroke-width:5;stroke-linecap:round"></path><path d="M-110.99016928277634,54.089721476929526L-110.40849738205249,50.09692508752064L-117.66568621999896,51.58863072348763zM-120.8016796750959,54.62739531097866L-126.27647207303,50.96549240025336L-118.593870288334,67.41713461507939z" style="fill:rgb(197,147,42)"></path><path d="M-117.88604921283037,53.35644897140156L-108.07694528102547,52.81908084609749L-114.75197029838796,50.31885116462608z" style="fill:rgb(81,214,102)"></path><path d="M-191.32684506723808,280.34727976170035L-197.3420950781163,272.4692755410045L-208.78256440246145,285.2742946247777z" style="fill:rgb(212,72,90)"></path><path d="M-110.99016928277634,54.089721476929526L-120.8016796750959,54.62739531097866L-118.593870288334,67.41713461507939zM-126.27647207303,50.96549240025336L-120.8016796750959,54.62739531097866L-117.66568621999896,51.58863072348763zM-120.8016796750959,54.62739531097866L-110.99016928277634,54.089721476929526L-117.66568621999896,51.58863072348763z" style="fill:rgb(197,147,42)"></path><path d="M-58.737686355214194,-161.3501670942855L-195.81113235300148,-304.9161450821412M-58.737686355214194,-161.3501670942855L-195.81113235300148,-304.9161450821412M-138.79261263957355,-1.1293395058844604L-58.737686355214194,-161.3501670942855M-138.79261263957355,-1.1293395058844604L-58.737686355214194,-161.3501670942855" style="fill:none;stroke:rgb(0,0,0);stroke-width:1;stroke-linecap:round"></path><path d="M-138.79261263957355,-1.1293395058844604L-55.812036706965095,-36.94180685148684L-58.737686355214194,-161.3501670942855z" style="fill:rgb(0,0,0); fill-opacity: 0.2"></path><path d="M-145.32800266098826,111.49857797651343L-189.2754408298615,130.7937692387879" style="fill:none;stroke:rgb(212,72,90);stroke-width:5;stroke-linecap:round"></path><path d="M-195.21862829408136,235.1746026214133L-201.8569159830018,238.19299244494647L-206.6688325600644,247.97148077885626zM-192.11895572721926,250.94038544818991L-189.1973692005218,243.05511257973922L-206.6688325600644,247.97148077885626zM-189.1973692005218,243.05511257973922L-195.21862829408136,235.1746026214133L-206.6688325600644,247.97148077885626z" style="fill:rgb(212,72,90)"></path><path d="M-130.82143937163644,58.995087676171345L-140.27423605221014,57.06145731097734L-138.09417456590145,60.49124086735015zM-140.27423605221014,57.06145731097734L-146.71669604473408,59.86712042342749L-138.09417456590145,60.49124086735015z" style="fill:rgb(112,56,202)"></path><path d="M-58.737686355214194,-161.3501670942855L-58.737686355214194,-161.3501670942855L-138.79261263957355,-1.1293395058844604z" style="fill:rgb(0,0,0); fill-opacity: 0.2"></path><path d="M-134.40170538271607,-3.0243519348351273L-138.09417456590145,60.49124086735015" style="fill:none;stroke:rgb(112,56,202);stroke-width:5;stroke-linecap:round"></path><path d="M-143.15368793308397,74.02743410403825L-187.13658654818732,93.22884406198236" style="fill:none;stroke:rgb(212,72,90);stroke-width:5;stroke-linecap:round"></path><path d="M-131.41521802739328,62.99837278765535L-130.82143937163644,58.995087676171345L-138.09417456590145,60.49124086735015zM-141.2436055683936,63.53819221210774L-146.71669604473408,59.86712042342749L-139.01543561282398,76.33820901194683z" style="fill:rgb(112,56,202)"></path><path d="M-134.7160679698677,60.69278703313587L-144.1706514301539,58.75832914399861L-141.991771005405,62.18978953191478z" style="fill:rgb(197,147,42)"></path><path d="M-135.20304189651267,60.90506281278251L-144.657848744011,58.97050144053755L-142.47911606171414,62.40217152359202z" style="fill:rgb(81,214,102)"></path><path d="M-131.41521802739328,62.99837278765535L-141.2436055683936,63.53819221210774L-139.01543561282398,76.33820901194683z" style="fill:rgb(112,56,202)"></path><path d="M-144.1706514301539,58.75832914399861L-150.61653146753545,61.565481671006424L-141.991771005405,62.18978953191478z" style="fill:rgb(197,147,42)"></path><path d="M-146.71669604473408,59.86712042342749L-141.2436055683936,63.53819221210774L-138.09417456590145,60.49124086735015z" style="fill:rgb(112,56,202)"></path><path d="M-144.657848744011,58.97050144053755L-151.10415647847677,61.77784022775245L-142.47911606171414,62.40217152359202z" style="fill:rgb(81,214,102)"></path><path d="M-141.2436055683936,63.53819221210774L-131.41521802739328,62.99837278765535L-138.09417456590145,60.49124086735015z" style="fill:rgb(112,56,202)"></path><path d="M-138.30460433614888,-1.3399524262499716L-141.99177100540498,62.189789531914776" style="fill:none;stroke:rgb(197,147,42);stroke-width:5;stroke-linecap:round"></path><path d="M-135.31216007105587,64.69807486813372L-134.7160679698677,60.69278703313587L-141.991771005405,62.18978953191478zM-145.14376865503743,65.23830409627016L-150.61653146753545,61.565481671006424L-142.91170859763534,78.04027937803788z" style="fill:rgb(197,147,42)"></path><path d="M-138.79261263957346,-1.1293395058844948L-142.47911606171414,62.40217152359205" style="fill:none;stroke:rgb(81,214,102);stroke-width:5;stroke-linecap:round"></path><path d="M-135.79942334522661,64.91060109807745L-135.20304189651267,60.90506281278251L-142.47911606171414,62.40217152359202zM-145.63143470269105,65.45088157692928L-151.10415647847677,61.77784022775245L-143.39888811418817,78.25310168831324z" style="fill:rgb(81,214,102)"></path><path d="M-135.31216007105587,64.69807486813372L-145.14376865503743,65.23830409627016L-142.91170859763534,78.04027937803788z" style="fill:rgb(197,147,42)"></path><path d="M-193.0911162958292,197.8088831743919L-199.7366006621531,200.84553733667607L-204.55107185115816,210.59756611759386z" style="fill:rgb(212,72,90)"></path><path d="M-135.79942334522661,64.91060109807745L-145.63143470269105,65.45088157692928L-143.39888811418817,78.25310168831324z" style="fill:rgb(81,214,102)"></path><path d="M-150.61653146753545,61.565481671006424L-145.14376865503743,65.23830409627016L-141.991771005405,62.18978953191478z" style="fill:rgb(197,147,42)"></path><path d="M-151.10415647847677,61.77784022775245L-145.63143470269105,65.45088157692928L-142.47911606171414,62.40217152359202z" style="fill:rgb(81,214,102)"></path><path d="M-189.98890729185544,213.5969762867801L-187.06383612875067,205.69189412569577L-204.55107185115816,210.59756611759386z" style="fill:rgb(212,72,90)"></path><path d="M-145.14376865503743,65.23830409627016L-135.31216007105587,64.69807486813372L-141.991771005405,62.18978953191478z" style="fill:rgb(197,147,42)"></path><path d="M-145.63143470269105,65.45088157692928L-135.79942334522661,64.91060109807745L-142.47911606171414,62.40217152359202z" style="fill:rgb(81,214,102)"></path><path d="M-187.06383612875067,205.69189412569577L-193.0911162958292,197.8088831743919L-204.55107185115816,210.59756611759386z" style="fill:rgb(212,72,90)"></path><path d="M-195.81113235300148,-304.9161450821412L236.53496417775554,-481.8744823740089L-190.56592731617832,-105.59066641244662z" style="fill:rgb(0,0,0); fill-opacity: 0.2"></path><path d="M-140.97522854663578,36.48486308506628L-184.9936429817256,55.5920983416334" style="fill:none;stroke:rgb(212,72,90);stroke-width:5;stroke-linecap:round"></path><path d="M-58.737686355214194,-161.3501670942855L-190.56592731617832,-105.59066641244662L-55.812036706965095,-36.94180685148684z" style="fill:rgb(0,0,0); fill-opacity: 0.2"></path><path d="M-190.959547513111,160.371913990429L-197.61224394649022,163.42689667882493L-202.42927074595733,173.1523471651189zM-187.85479802934861,176.18237384778172L-184.92623424582294,168.25742114923435L-202.42927074595733,173.1523471651189zM-184.92623424582294,168.25742114923435L-190.959547513111,160.371913990429L-202.42927074595733,173.1523471651189z" style="fill:rgb(212,72,90)"></path><path d="M-157.1503595028764,70.47207184782661L-166.6152279222735,68.53284391189479L-164.44316896685012,71.97397130058418zM-166.6152279222735,68.53284391189479L-173.0808261706158,71.3485836334215L-164.44316896685012,71.97397130058418z" style="fill:rgb(112,56,202)"></path><path d="M-159.1044085672778,71.32385726367295L-168.5701722152084,69.38421358992889L-166.39870888344024,72.82618362307129zM-168.5701722152084,69.38421358992889L-175.0374893650793,72.20070188554347L-166.39870888344024,72.82618362307129z" style="fill:rgb(197,147,42)"></path><path d="M-160.78661150193557,8.3627537605836L-164.44316896685012,71.97397130058418" style="fill:none;stroke:rgb(112,56,202);stroke-width:5;stroke-linecap:round"></path><path d="M-157.75980006715898,74.48890572363852L-157.1503595028764,70.47207184782661L-164.44316896685012,71.97397130058418zM-167.60996921523866,75.0314983078597L-173.0808261706158,71.3485836334215L-165.35546684001764,87.84474019405023zM-157.75980006715898,74.48890572363852L-167.60996921523866,75.0314983078597L-165.35546684001764,87.84474019405023z" style="fill:rgb(112,56,202)"></path><path d="M-138.79261263957355,-1.1293395058844604L-182.84659839177274,17.883325909640725" style="fill:none;stroke:rgb(212,72,90);stroke-width:5;stroke-linecap:round"></path><path d="M-162.74482275881337,9.207871740358534L-166.39870888344024,72.82618362307133" style="fill:none;stroke:rgb(197,147,42);stroke-width:5;stroke-linecap:round"></path><path d="M-159.71501359403482,75.34169759536132L-159.1044085672778,71.32385726367295L-166.39870888344024,72.82618362307129zM-169.56679989707993,75.88449625271097L-175.0374893650793,72.20070188554347L-167.31034002231303,88.6987182715673z" style="fill:rgb(197,147,42)"></path><path d="M-173.0808261706158,71.3485836334215L-167.60996921523866,75.0314983078597L-164.44316896685012,71.97397130058418z" style="fill:rgb(112,56,202)"></path><path d="M-159.71501359403482,75.34169759536132L-169.56679989707993,75.88449625271097L-167.31034002231303,88.6987182715673z" style="fill:rgb(197,147,42)"></path><path d="M-167.60996921523866,75.0314983078597L-157.75980006715898,74.48890572363852L-164.44316896685012,71.97397130058418z" style="fill:rgb(112,56,202)"></path><path d="M-175.0374893650793,72.20070188554347L-169.56679989707993,75.88449625271097L-166.39870888344024,72.82618362307129zM-169.56679989707993,75.88449625271097L-159.71501359403482,75.34169759536132L-166.39870888344024,72.82618362307129z" style="fill:rgb(197,147,42)"></path><path d="M-188.82391033151103,122.86349108430565L-195.4838342704321,125.9368667540434L-200.3034176706405,135.6356196684103zM-185.7166163159835,138.69637434749237L-182.78455190132723,130.75148962405154L-200.3034176706405,135.6356196684103zM-182.78455190132723,130.75148962405154L-188.82391033151103,122.86349108430565L-200.3034176706405,135.6356196684103z" style="fill:rgb(212,72,90)"></path><path d="M-238.6197970905455,457.4904698464629L-195.81113235300145,-304.91614508214116L-372.4207538459606,-368.5958962108691zM-55.812036706965095,-36.94180685148684L-187.26654047452766,19.790869087416034L-190.56592731617832,-105.59066641244662z" style="fill:rgb(0,0,0); fill-opacity: 0.2"></path><path d="M-186.6841930922356,85.28340969138989L-193.3513600242247,88.3752430669142L-198.1735010071389,98.04717859358409z" style="fill:rgb(212,72,90)"></path><path d="M-183.57392242218486,81.99031155807627L-193.05088837699654,80.04545826683726L-190.88690362466696,83.49798895769617z" style="fill:rgb(197,147,42)"></path><path d="M-183.57392242218498,81.99031155807631L-193.05088837699654,80.04545826683726L-190.88690362466696,83.49798895769624z" style="fill:rgb(112,56,202)"></path><path d="M-183.57435048364005,101.13877322371961L-180.63877740033072,93.17389474416946L-198.1735010071389,98.04717859358409zM-180.63877740033072,93.17389474416946L-186.6841930922356,85.28340969138989L-198.1735010071389,98.04717859358409z" style="fill:rgb(212,72,90)"></path><path d="M-193.05088837699654,80.04545826683726L-199.5397497578091,82.87132898067556L-190.88690362466696,83.49798895769617z" style="fill:rgb(197,147,42)"></path><path d="M-193.05088837699654,80.04545826683726L-199.53974975780918,82.87132898067556L-190.88690362466696,83.49798895769624z" style="fill:rgb(112,56,202)"></path><path d="M-187.26654047452766,19.790869087416002L-190.88690362466693,83.4979889576962" style="fill:none;stroke:rgb(197,147,42);stroke-width:5;stroke-linecap:round"></path><path d="M-187.26654047452766,19.790869087416034L-190.88690362466693,83.49798895769624" style="fill:none;stroke:rgb(112,56,202);stroke-width:5;stroke-linecap:round"></path><path d="M-184.19913378675807,86.02076584014867L-183.57392242218486,81.99031155807627L-190.88690362466696,83.49798895769617z" style="fill:rgb(197,147,42)"></path><path d="M-184.19913378675807,86.02076584014867L-183.57392242218498,81.99031155807631L-190.88690362466696,83.49798895769624z" style="fill:rgb(112,56,202)"></path><path d="M-194.07117779712613,86.56614805966815L-199.5397497578091,82.87132898067556L-191.79016787056307,99.39262747914657z" style="fill:rgb(197,147,42)"></path><path d="M-194.0711777971262,86.56614805966818L-199.53974975780918,82.87132898067556L-191.79016787056307,99.39262747914665z" style="fill:rgb(112,56,202)"></path><path d="M-184.19913378675807,86.02076584014867L-194.07117779712613,86.56614805966815L-191.79016787056307,99.39262747914657z" style="fill:rgb(197,147,42)"></path><path d="M-184.19913378675807,86.02076584014867L-194.0711777971262,86.56614805966818L-191.79016787056307,99.39262747914665z" style="fill:rgb(112,56,202)"></path><path d="M-199.5397497578091,82.87132898067556L-194.07117779712613,86.56614805966815L-190.88690362466696,83.49798895769617z" style="fill:rgb(197,147,42)"></path><path d="M-199.53974975780918,82.87132898067556L-194.0711777971262,86.56614805966818L-190.88690362466696,83.49798895769624z" style="fill:rgb(112,56,202)"></path><path d="M-194.07117779712613,86.56614805966815L-184.19913378675807,86.02076584014867L-190.88690362466696,83.49798895769617z" style="fill:rgb(197,147,42)"></path><path d="M-194.0711777971262,86.56614805966818L-184.19913378675807,86.02076584014867L-190.88690362466696,83.49798895769624z" style="fill:rgb(112,56,202)"></path><path d="M-184.54038409190116,47.63146426391088L-191.21480955373002,50.7418203402339L-196.03950909292553,60.386818122157635zM-181.4279888195814,63.50936513205931L-178.48889900316655,55.52443092020763L-196.03950909292553,60.386818122157635zM-178.48889900316655,55.52443092020763L-184.54038409190116,47.63146426391088L-196.03950909292553,60.386818122157635z" style="fill:rgb(212,72,90)"></path><path d="M-195.81113235300145,-304.91614508214116L-372.4207538459606,-368.5958962108691M-195.81113235300145,-304.91614508214116L-372.4207538459606,-368.5958962108691" style="fill:none;stroke:rgb(0,0,0);stroke-width:1;stroke-linecap:round"></path><path d="M-182.3924715823207,9.907448467211356L-189.0741711602135,13.036392511273817L-193.90143022080161,22.65433164729369z" style="fill:rgb(212,72,90)"></path><path d="M-187.26654047452766,19.790869087416034L-190.56592731617832,-105.59066641244662M-187.26654047452766,19.790869087416034L-190.56592731617832,-105.59066641244662" style="fill:none;stroke:rgb(0,0,0);stroke-width:1;stroke-linecap:round"></path><path d="M-179.27751956624024,25.80794394215382L-176.33490492521935,17.802891775633974L-193.90143022080161,22.65433164729369zM-176.33490492521935,17.802891775633974L-182.3924715823207,9.907448467211356L-193.90143022080161,22.65433164729369z" style="fill:rgb(212,72,90)"></path><path d="M-58.737686355214194,-161.3501670942855L-190.56592731617832,-105.59066641244662L-195.81113235300148,-304.9161450821412zM-195.81113235300148,-304.9161450821412L-195.81113235300148,-304.9161450821412L-58.737686355214194,-161.3501670942855z" style="fill:rgb(0,0,0); fill-opacity: 0.2"></path><path d="M-190.56592731617832,-105.59066641244662L-195.81113235300148,-304.9161450821412M-190.56592731617832,-105.59066641244662L-195.81113235300148,-304.9161450821412M-195.81113235300148,-304.9161450821412L-195.81113235300148,-304.9161450821412" style="fill:none;stroke:rgb(0,0,0);stroke-width:1;stroke-linecap:round"></path></svg>