<svg viewBox="-1163.5 -664 2327 1328" width="2327" height="1328" style="background-color: rgb(255, 255, 255);">
    <path d="M-206.08193300170979,93.44549521471308L-214.64785139447844,-651.4793756482011" style="fill:none;stroke:rgb(0,0,0);stroke-width:1;stroke-linecap:round">
    </path>
    <path d="M-25.097551727696384,166.97106285948115L-206.08193300170979,93.44549521471308" style="fill:none;stroke:rgb(160,0,0);stroke-width:4;stroke-linecap:round">
    </path>
    <path d="M-25.097551727696384,166.97106285948115L-20.38362733751045,-612.1083758546596" style="fill:none;stroke:rgb(0,0,0);stroke-width:1;stroke-linecap:round">
    </path>
    <path d="M-230.890768979951,281.0948705879029L-25.097551727696384,166.97106285948115" style="fill:none;stroke:rgb(160,0,0);stroke-width:4;stroke-linecap:round">
    </path>
    <path d="M-20.38362733751045,-612.1083758546596L-25.097551727696384,166.97106285948115L-206.08193300170979,93.44549521471308z" style="fill:rgb(0,0,0); fill-opacity: 0.2">
    </path>
    <path d="M-214.64785139447844,-651.4793756482011L-206.08193300170979,93.44549521471308L-20.38362733751045,-612.1083758546596z" style="fill:rgb(0,0,0); fill-opacity: 0.2">
    </path>
    <path d="M-20.38362733751045,-612.1083758546596L-214.64785139447844,-651.4793756482011" style="fill:none;stroke:rgb(0,0,0);stroke-width:1;stroke-linecap:round">
    </path>
    <path d="M-214.64785139447844,-651.4793756482011L-925.7032034546347,-548.6530417973316" style="fill:none;stroke:rgb(0,0,0);stroke-width:1;stroke-linecap:round">
    </path>
    <path d="M-20.38362733751045,-612.1083758546596L-214.64785139447844,-651.4793756482011" style="fill:none;stroke:rgb(0,0,0);stroke-width:1;stroke-linecap:round">
    </path>
    <path d="M92.37113473454815,214.69314689691709L-230.890768979951,281.0948705879029" style="fill:none;stroke:rgb(160,0,0);stroke-width:4;stroke-linecap:round">
    </path>
    <path d="M94.5739446160422,89.36616347204476L92.37113473454815,214.69314689691709" style="fill:none;stroke:rgb(104,70,1);stroke-width:5;stroke-linecap:round">
    </path>
    <path d="M92.37113473454815,214.69314689691709L174.76871525993784,248.16746571955818" style="fill:none;stroke:rgb(197,147,42);stroke-width:5;stroke-linecap:round">
    </path>
    <path d="M93.46582552071457,152.41165126453495L176.39923067541804,184.78667429885016" style="fill:none;stroke:rgb(197,147,42);stroke-width:5;stroke-linecap:round">
    </path>
    <path d="M94.5739446160422,89.36616347204476L-237.5466477388341,-189.09439915117653" style="fill:none;stroke:rgb(0,0,0);stroke-width:1;stroke-linecap:round">
    </path>
    <path d="M94.5739446160422,89.36616347204476L-237.5466477388341,-189.09439915117653" style="fill:none;stroke:rgb(0,0,0);stroke-width:1;stroke-linecap:round">
    </path>
    <path d="M94.5739446160422,89.36616347204476L37.97932207870005,-255.97591446250857" style="fill:none;stroke:rgb(0,0,0);stroke-width:1;stroke-linecap:round">
    </path>
    <path d="M94.5739446160422,89.36616347204476L37.97932207870005,-255.97591446250857" style="fill:none;stroke:rgb(0,0,0);stroke-width:1;stroke-linecap:round">
    </path>
    <path d="M94.5739446160422,89.36616347204476L178.05016979881907,120.61198006711767" style="fill:none;stroke:rgb(197,147,42);stroke-width:5;stroke-linecap:round">
    </path>
    <path d="M-173.03613923874568,176.43652965182713L94.5739446160422,89.36616347204476" style="fill:none;stroke:rgb(45,114,23);stroke-width:5;stroke-linecap:round">
    </path>
    <path d="M94.5739446160422,89.36616347204476L178.05016979881907,120.61198006711767" style="fill:none;stroke:rgb(109,213,75);stroke-width:5;stroke-linecap:round">
    </path>
    <path d="M94.5739446160422,89.36616347204476L-173.03613923874568,176.43652965182713" style="fill:none;stroke:rgb(1,93,85);stroke-width:5;stroke-linecap:round">
    </path>
    <path d="M94.57394461604225,89.36616347204473L178.05016979881913,120.61198006711764" style="fill:none;stroke:rgb(43,180,168);stroke-width:5;stroke-linecap:round">
    </path>
    <path d="M-585.7001269454281,310.70204013358835L94.5739446160422,89.36616347204476" style="fill:none;stroke:rgb(22,31,115);stroke-width:5;stroke-linecap:round">
    </path>
    <path d="M94.5739446160422,89.36616347204476L178.05016979881907,120.61198006711767" style="fill:none;stroke:rgb(74,87,214);stroke-width:5;stroke-linecap:round">
    </path>
    <path d="M94.5739446160422,89.36616347204476L92.37113473454815,214.69314689691709L-230.890768979951,281.0948705879029z" style="fill:rgb(0,0,0); fill-opacity: 0.2">
    </path>
    <path d="M184.74242387453043,240.4811438007331L175.1067404141975,235.02787710010958L195.9082053766163,256.7554609907994z" style="fill:rgb(197,147,42)">
    </path>
    <path d="M164.95785169322608,247.75718180115925L168.38165710972257,261.0422640159235L195.9082053766163,256.7554609907994z" style="fill:rgb(197,147,42)">
    </path>
    <path d="M44.99773560209342,105.4964176480879L128.3869292803492,137.45103300153428" style="fill:none;stroke:rgb(74,87,214);stroke-width:5;stroke-linecap:round">
    </path>
    <path d="M175.1067404141975,235.02787710010958L164.95785169322608,247.75718180115925L195.9082053766163,256.7554609907994z" style="fill:rgb(197,147,42)">
    </path>
    <path d="M43.564647670349025,105.96269115014519L126.95096948005498,137.93791631475378" style="fill:none;stroke:rgb(109,213,75);stroke-width:5;stroke-linecap:round">
    </path>
    <path d="M43.56464767034908,105.96269115014518L126.95096948005505,137.93791631475375" style="fill:none;stroke:rgb(43,180,168);stroke-width:5;stroke-linecap:round">
    </path>
    <path d="M37.97932207870005,-255.97591446250857L-20.38362733751045,-612.1083758546596" style="fill:none;stroke:rgb(0,0,0);stroke-width:1;stroke-linecap:round">
    </path>
    <path d="M37.97932207870005,-255.97591446250857L-20.38362733751045,-612.1083758546596" style="fill:none;stroke:rgb(0,0,0);stroke-width:1;stroke-linecap:round">
    </path>
    <path d="M186.43175203276954,177.1748072053542L176.7414793963161,171.48290876109826L197.67959039545246,193.09396778124687z" style="fill:rgb(197,147,42)">
    </path>
    <path d="M166.53160582342568,184.2001246502498L169.97304426650055,197.71674802867796L197.67959039545246,193.09396778124687z" style="fill:rgb(197,147,42)">
    </path>
    <path d="M176.7414793963161,171.48290876109826L166.53160582342568,184.2001246502498L197.67959039545246,193.09396778124687z" style="fill:rgb(197,147,42)">
    </path>
    <path d="M188.1421995291485,113.07703886687071L178.3967217428704,107.14094123251482L199.47328145944155,128.6308215561515z" style="fill:rgb(197,147,42)">
    </path>
    <path d="M188.1421995291485,113.07703886687071L178.3967217428704,107.14094123251482L199.47328145944155,128.6308215561515z" style="fill:rgb(109,213,75)">
    </path>
    <path d="M188.1421995291485,113.0770388668707L178.39672174287048,107.14094123251479L199.4732814594416,128.63082155615146z" style="fill:rgb(43,180,168)">
    </path>
    <path d="M188.1421995291485,113.07703886687071L178.3967217428704,107.14094123251482L199.47328145944155,128.6308215561515z" style="fill:rgb(74,87,214)">
    </path>
    <path d="M-237.5466477388341,-189.09439915117653L-230.890768979951,281.0948705879029L-25.097551727696384,166.97106285948115z" style="fill:rgb(0,0,0); fill-opacity: 0.2">
    </path>
    <path d="M-20.38362733751045,-612.1083758546596L-25.097551727696384,166.97106285948115L-237.5466477388341,-189.09439915117653z" style="fill:rgb(0,0,0); fill-opacity: 0.2">
    </path>
    <path d="M-5.722566621974209,121.99891719438737L77.55280237333298,154.6870922060026" style="fill:none;stroke:rgb(74,87,214);stroke-width:5;stroke-linecap:round">
    </path>
    <path d="M-8.656246688454893,122.95342755499622L74.6117713760331,155.68429206908593" style="fill:none;stroke:rgb(109,213,75);stroke-width:5;stroke-linecap:round">
    </path>
    <path d="M-8.656246688454859,122.95342755499621L74.61177137603313,155.6842920690859" style="fill:none;stroke:rgb(43,180,168);stroke-width:5;stroke-linecap:round">
    </path>
    <path d="M168.12512703928735,119.84476122708364L171.58437289032037,133.5977081747967L199.47328145944155,128.6308215561515z" style="fill:rgb(197,147,42)">
    </path>
    <path d="M168.12512703928735,119.84476122708364L171.58437289032037,133.5977081747967L199.47328145944155,128.6308215561515z" style="fill:rgb(109,213,75)">
    </path>
    <path d="M168.12512703928743,119.84476122708364L171.58437289032042,133.5977081747967L199.4732814594416,128.63082155615146z" style="fill:rgb(43,180,168)">
    </path>
    <path d="M168.12512703928735,119.84476122708364L171.58437289032037,133.5977081747967L199.47328145944155,128.6308215561515z" style="fill:rgb(74,87,214)">
    </path>
    <path d="M178.3967217428704,107.14094123251482L168.12512703928735,119.84476122708364L199.47328145944155,128.6308215561515z" style="fill:rgb(197,147,42)">
    </path>
    <path d="M178.3967217428704,107.14094123251482L168.12512703928735,119.84476122708364L199.47328145944155,128.6308215561515z" style="fill:rgb(109,213,75)">
    </path>
    <path d="M178.39672174287048,107.14094123251479L168.12512703928743,119.84476122708364L199.4732814594416,128.63082155615146z" style="fill:rgb(43,180,168)">
    </path>
    <path d="M178.3967217428704,107.14094123251482L168.12512703928735,119.84476122708364L199.47328145944155,128.6308215561515z" style="fill:rgb(74,87,214)">
    </path>
    <path d="M-20.38362733751045,-612.1083758546596L-20.38362733751045,-612.1083758546596L37.97932207870005,-255.97591446250857z" style="fill:rgb(0,0,0); fill-opacity: 0.2">
    </path>
    <path d="M-230.890768979951,281.0948705879029L-237.5466477388341,-189.09439915117653" style="fill:none;stroke:rgb(0,0,0);stroke-width:1;stroke-linecap:round">
    </path>
    <path d="M-237.5466477388341,-189.09439915117653L-20.38362733751045,-612.1083758546596" style="fill:none;stroke:rgb(0,0,0);stroke-width:1;stroke-linecap:round">
    </path>
    <path d="M-20.38362733751045,-612.1083758546596L-20.38362733751045,-612.1083758546596" style="fill:none;stroke:rgb(0,0,0);stroke-width:1;stroke-linecap:round">
    </path>
    <path d="M-237.5466477388341,-189.09439915117653L-20.38362733751045,-612.1083758546596" style="fill:none;stroke:rgb(0,0,0);stroke-width:1;stroke-linecap:round">
    </path>
    <path d="M-20.38362733751045,-612.1083758546596L-744.0083122790021,-496.5210937758736" style="fill:none;stroke:rgb(0,0,0);stroke-width:1;stroke-linecap:round">
    </path>
    <path d="M37.97932207870005,-255.97591446250857L-237.5466477388341,-189.09439915117653L94.5739446160422,89.36616347204476z" style="fill:rgb(0,0,0); fill-opacity: 0.2">
    </path>
    <path d="M138.6937823690284,129.7954255670831L128.6718828105436,123.84509346178602L149.79418857603864,145.65426301721942z" style="fill:rgb(74,87,214)">
    </path>
    <path d="M137.26406720960955,130.2788087020563L127.23411943948672,124.32808382908499L148.3576789831955,146.14650906163538z" style="fill:rgb(109,213,75)">
    </path>
    <path d="M137.26406720960955,130.2788087020563L127.23411943948679,124.32808382908497L148.35767898319557,146.14650906163536z" style="fill:rgb(43,180,168)">
    </path>
    <path d="M-57.62702852834678,138.88669825051804L25.50588698528779,172.3343652019411" style="fill:none;stroke:rgb(74,87,214);stroke-width:5;stroke-linecap:round">
    </path>
    <path d="M118.20736302190623,136.72183293091933L121.82591700225008,150.59484860082105L149.79418857603864,145.65426301721942z" style="fill:rgb(74,87,214)">
    </path>
    <path d="M-62.132424960594896,140.35258664863156L20.98688554523294,173.8665991775208" style="fill:none;stroke:rgb(43,180,168);stroke-width:5;stroke-linecap:round">
    </path>
    <path d="M-62.13242496059496,140.3525866486316L20.986885545232877,173.8665991775209" style="fill:none;stroke:rgb(109,213,75);stroke-width:5;stroke-linecap:round">
    </path>
    <path d="M128.6718828105436,123.84509346178602L118.20736302190623,136.72183293091933L149.79418857603864,145.65426301721942z" style="fill:rgb(74,87,214)">
    </path>
    <path d="M116.76399622640893,137.20983165005393L120.38719733571763,151.08630517376506L148.35767898319557,146.14650906163536z" style="fill:rgb(43,180,168)">
    </path>
    <path d="M116.76399622640893,137.20983165005393L120.38719733571763,151.08630517376506L148.3576789831955,146.14650906163538z" style="fill:rgb(109,213,75)">
    </path>
    <path d="M127.23411943948679,124.32808382908497L116.76399622640893,137.20983165005393L148.35767898319557,146.14650906163536z" style="fill:rgb(43,180,168)">
    </path>
    <path d="M127.23411943948672,124.32808382908499L116.76399622640893,137.20983165005393L148.3576789831955,146.14650906163538z" style="fill:rgb(109,213,75)">
    </path>
    <path d="M-237.5466477388341,-189.09439915117653L-230.890768979951,281.0948705879029L94.5739446160422,89.36616347204476z" style="fill:rgb(0,0,0); fill-opacity: 0.2">
    </path>
    <path d="M37.97932207870005,-255.97591446250857L-237.5466477388341,-189.09439915117653L-20.38362733751045,-612.1083758546596z" style="fill:rgb(0,0,0); fill-opacity: 0.2">
    </path>
    <path d="M-925.7032034546347,-548.6530417973316L-861.396726916527,293.44027962255694" style="fill:none;stroke:rgb(0,0,0);stroke-width:1;stroke-linecap:round">
    </path>
    <path d="M-690.7668484085556,389.31901556516834L-861.396726916527,293.44027962255694" style="fill:none;stroke:rgb(160,0,0);stroke-width:4;stroke-linecap:round">
    </path>
    <path d="M-173.03613923874568,176.43652965182713L94.5739446160422,89.36616347204476L-237.5466477388341,-189.09439915117653z" style="fill:rgb(0,0,0); fill-opacity: 0.2">
    </path>
    <path d="M94.5739446160422,89.36616347204476L-173.03613923874568,176.43652965182713L-237.5466477388341,-189.09439915117653z" style="fill:rgb(0,0,0); fill-opacity: 0.2">
    </path>
    <path d="M88.08185865459049,146.90719093582456L77.77313740765116,140.94359814766236L98.93746894829141,163.08123962318996z" style="fill:rgb(74,87,214)">
    </path>
    <path d="M-110.75760953887905,156.17341285145915L-27.797742494847153,190.40774561453637" style="fill:none;stroke:rgb(74,87,214);stroke-width:5;stroke-linecap:round">
    </path>
    <path d="M85.15375498729797,147.89717549386592L74.82831934107776,141.93285603824083L95.99493371686674,164.08955264486397z" style="fill:rgb(109,213,75)">
    </path>
    <path d="M85.15375498729804,147.89717549386592L74.82831934107783,141.93285603824083L95.99493371686681,164.08955264486397z" style="fill:rgb(43,180,168)">
    </path>
    <path d="M67.10938939629014,153.99793056421777L70.89385539084836,167.99288453150342L98.93746894829141,163.08123962318996z" style="fill:rgb(74,87,214)">
    </path>
    <path d="M77.77313740765116,140.94359814766236L67.10938939629014,153.99793056421777L98.93746894829141,163.08123962318996z" style="fill:rgb(74,87,214)">
    </path>
    <path d="M-116.90969946540699,158.17507405554292L-33.971650570491235,192.50110005159385" style="fill:none;stroke:rgb(109,213,75);stroke-width:5;stroke-linecap:round">
    </path>
    <path d="M-116.90969946540694,158.17507405554292L-33.9716505704912,192.50110005159385" style="fill:none;stroke:rgb(43,180,168);stroke-width:5;stroke-linecap:round">
    </path>
    <path d="M64.15299056723123,154.99748164598873L67.94714364843946,168.99946064780025L95.99493371686674,164.08955264486397z" style="fill:rgb(109,213,75)">
    </path>
    <path d="M64.15299056723123,154.99748164598873L67.94714364843946,168.99946064780025L95.99493371686681,164.08955264486397z" style="fill:rgb(43,180,168)">
    </path>
    <path d="M74.82831934107776,141.93285603824083L64.15299056723123,154.99748164598873L95.99493371686674,164.08955264486397z" style="fill:rgb(109,213,75)">
    </path>
    <path d="M74.82831934107783,141.93285603824083L64.15299056723123,154.99748164598873L95.99493371686681,164.08955264486397z" style="fill:rgb(43,180,168)">
    </path>
    <path d="M-325.9218632565549,313.76054732580496L-690.7668484085556,389.31901556516834" style="fill:none;stroke:rgb(160,0,0);stroke-width:4;stroke-linecap:round">
    </path>
    <path d="M-337.2153862595413,-164.9006860654433L-325.9218632565549,313.76054732580496" style="fill:none;stroke:rgb(0,0,0);stroke-width:1;stroke-linecap:round">
    </path>
    <path d="M-578.7269816974268,452.2754033289902L-325.9218632565549,313.76054732580496" style="fill:none;stroke:rgb(160,0,0);stroke-width:4;stroke-linecap:round">
    </path>
    <path d="M-585.7001269454281,310.70204013358835L94.5739446160422,89.36616347204476L37.97932207870005,-255.97591446250857z" style="fill:rgb(0,0,0); fill-opacity: 0.2">
    </path>
    <path d="M36.264874060420134,164.42638438703483L25.658418510487568,158.45058693909212L46.86074744319587,180.92627198130916z" style="fill:rgb(74,87,214)">
    </path>
    <path d="M-165.15827515232655,173.8733657349873L-82.40415883807658,208.92285509516842" style="fill:none;stroke:rgb(74,87,214);stroke-width:5;stroke-linecap:round">
    </path>
    <path d="M31.76595230852575,165.94745862766442L21.13345154043744,159.9706670182455L42.33883940457053,182.475785716766z" style="fill:rgb(109,213,75)">
    </path>
    <path d="M31.765952308525815,165.94745862766442L21.133451540437505,159.9706670182455L42.338839404570585,182.47578571676598z" style="fill:rgb(43,180,168)">
    </path>
    <path d="M14.78884976214815,171.68737472043694L18.746171457860076,185.80616854286365L46.86074744319587,180.92627198130916z" style="fill:rgb(74,87,214)">
    </path>
    <path d="M25.658418510487568,158.45058693909212L14.78884976214815,171.68737472043694L46.86074744319587,180.92627198130916z" style="fill:rgb(74,87,214)">
    </path>
    <path d="M-173.03613923874568,176.43652965182713L-237.5466477388341,-189.09439915117653" style="fill:none;stroke:rgb(0,0,0);stroke-width:1;stroke-linecap:round">
    </path>
    <path d="M-173.03613923874568,176.43652965182713L-237.5466477388341,-189.09439915117653" style="fill:none;stroke:rgb(0,0,0);stroke-width:1;stroke-linecap:round">
    </path>
    <path d="M-173.03613923874573,176.43652965182716L-90.31421522496959,211.60487618003043" style="fill:none;stroke:rgb(109,213,75);stroke-width:5;stroke-linecap:round">
    </path>
    <path d="M-173.03613923874568,176.43652965182713L-90.31421522496952,211.60487618003043" style="fill:none;stroke:rgb(43,180,168);stroke-width:5;stroke-linecap:round">
    </path>
    <path d="M10.245924478237715,173.223326445659L14.218396992362594,187.35282462440568L42.33883940457053,182.475785716766z" style="fill:rgb(109,213,75)">
    </path>
    <path d="M10.245924478237782,173.223326445659L14.218396992362628,187.35282462440568L42.338839404570585,182.47578571676598z" style="fill:rgb(43,180,168)">
    </path>
    <path d="M21.13345154043744,159.9706670182455L10.245924478237715,173.223326445659L42.33883940457053,182.475785716766z" style="fill:rgb(109,213,75)">
    </path>
    <path d="M21.133451540437505,159.9706670182455L10.245924478237782,173.223326445659L42.338839404570585,182.47578571676598z" style="fill:rgb(43,180,168)">
    </path>
    <path d="M-744.0083122790021,-496.5210937758736L-20.38362733751045,-612.1083758546596L-214.64785139447844,-651.4793756482011z" style="fill:rgb(0,0,0); fill-opacity: 0.2">
    </path>
    <path d="M-16.800728382346993,182.36773242341673L-27.716375170477022,176.38087485950498L-6.480408828187862,199.204585826185z" style="fill:rgb(74,87,214)">
    </path>
    <path d="M-220.8751182826273,192.00155382063957L-138.36171479457863,227.89608835572616" style="fill:none;stroke:rgb(74,87,214);stroke-width:5;stroke-linecap:round">
    </path>
    <path d="M-237.5466477388341,-189.09439915117653L-237.5466477388341,-189.09439915117653L-173.03613923874568,176.43652965182713z" style="fill:rgb(0,0,0); fill-opacity: 0.2">
    </path>
    <path d="M-38.798663652948726,189.80517955684624L-34.661181283711834,204.049746606715L-6.480408828187862,199.204585826185z" style="fill:rgb(74,87,214)">
    </path>
    <path d="M-22.946900536707815,184.44573792296495L-33.89863856706655,178.45769342976988L-12.659121321621488,201.32183363269388z" style="fill:rgb(109,213,75)">
    </path>
    <path d="M-22.946900536707776,184.44573792296495L-33.89863856706651,178.4576934297698L-12.659121321621454,201.32183363269385z" style="fill:rgb(43,180,168)">
    </path>
    <path d="M-27.716375170477022,176.38087485950498L-38.798663652948726,189.80517955684624L-6.480408828187862,199.204585826185z" style="fill:rgb(74,87,214)">
    </path>
    <path d="M-663.442655417508,-85.71187452941334L37.97932207870005,-255.97591446250857L-20.38362733751045,-612.1083758546596z" style="fill:rgb(0,0,0); fill-opacity: 0.2">
    </path>
    <path d="M-45.00569154555196,191.9037602299449L-40.84713724278603,206.16282588598568L-12.659121321621488,201.32183363269388z" style="fill:rgb(109,213,75)">
    </path>
    <path d="M-45.005691545551926,191.90376022994485L-40.847137242786005,206.16282588598568L-12.659121321621454,201.32183363269385z" style="fill:rgb(43,180,168)">
    </path>
    <path d="M-33.89863856706655,178.45769342976988L-45.00569154555196,191.9037602299449L-12.659121321621488,201.32183363269388z" style="fill:rgb(109,213,75)">
    </path>
    <path d="M-33.89863856706651,178.4576934297698L-45.005691545551926,191.90376022994485L-12.659121321621454,201.32183363269385z" style="fill:rgb(43,180,168)">
    </path>
    <path d="M-269.71656884035997,207.892744928076L-337.2153862595413,-164.9006860654433" style="fill:none;stroke:rgb(0,0,0);stroke-width:1;stroke-linecap:round">
    </path>
    <path d="M-269.71656884035997,207.892744928076L-337.2153862595413,-164.9006860654433" style="fill:none;stroke:rgb(0,0,0);stroke-width:1;stroke-linecap:round">
    </path>
    <path d="M-269.71656884035997,207.892744928076L-585.7001269454281,310.70204013358835" style="fill:none;stroke:rgb(84,0,79);stroke-width:5;stroke-linecap:round">
    </path>
    <path d="M-269.71656884036014,207.89274492807607L-187.43915100870086,244.53651571542926" style="fill:none;stroke:rgb(167,41,160);stroke-width:5;stroke-linecap:round">
    </path>
    <path d="M-585.7001269454281,310.70204013358835L-269.71656884035997,207.892744928076" style="fill:none;stroke:rgb(115,35,18);stroke-width:5;stroke-linecap:round">
    </path>
    <path d="M-269.71656884035997,207.892744928076L-187.43915100870072,244.53651571542918" style="fill:none;stroke:rgb(214,94,68);stroke-width:5;stroke-linecap:round">
    </path>
    <path d="M-71.16063039999598,200.74667992286598L-82.397503660973,194.7500021203631L-61.132616952723076,217.93215534742623z" style="fill:rgb(74,87,214)">
    </path>
    <path d="M-277.95648951205453,210.57370858924398L-195.72118589556953,247.34466158768254" style="fill:none;stroke:rgb(74,87,214);stroke-width:5;stroke-linecap:round">
    </path>
    <path d="M-93.69973570371022,208.36709529681255L-89.37440329220857,222.73940047641292L-61.132616952723076,217.93215534742623z" style="fill:rgb(74,87,214)">
    </path>
    <path d="M-82.397503660973,194.7500021203631L-93.69973570371022,208.36709529681255L-61.132616952723076,217.93215534742623z" style="fill:rgb(74,87,214)">
    </path>
    <path d="M-79.03475372478039,203.4089014100095L-90.31853432290603,197.41092782330458L-69.04992326583866,220.64516383304803z" style="fill:rgb(43,180,168)">
    </path>
    <path d="M-79.03475372478046,203.40890141000952L-90.31853432290609,197.41092782330463L-69.04992326583873,220.64516383304803z" style="fill:rgb(109,213,75)">
    </path>
    <path d="M-101.6527964058149,211.05600531464992L-97.2999770313985,225.44672101917354L-69.04992326583873,220.64516383304803z" style="fill:rgb(109,213,75)">
    </path>
    <path d="M-101.65279640581487,211.05600531464992L-97.29997703139846,225.44672101917354L-69.04992326583866,220.64516383304803z" style="fill:rgb(43,180,168)">
    </path>
    <path d="M-90.31853432290603,197.41092782330458L-101.65279640581487,211.05600531464992L-69.04992326583866,220.64516383304803z" style="fill:rgb(43,180,168)">
    </path>
    <path d="M-90.31853432290609,197.41092782330463L-101.6527964058149,211.05600531464992L-69.04992326583873,220.64516383304803z" style="fill:rgb(109,213,75)">
    </path>
    <path d="M-861.396726916527,293.44027962255694L-925.7032034546347,-548.6530417973316L-690.7668484085556,389.31901556516834z" style="fill:rgb(0,0,0); fill-opacity: 0.2">
    </path>
    <path d="M-329.69450342946874,227.40733366163985L-247.73882606745767,264.9820083905376" style="fill:none;stroke:rgb(167,41,160);stroke-width:5;stroke-linecap:round">
    </path>
    <path d="M-329.6945034294685,227.40733366163985L-247.7388260674574,264.98200839053754" style="fill:none;stroke:rgb(214,94,68);stroke-width:5;stroke-linecap:round">
    </path>
    <path d="M-325.9218632565549,313.76054732580496L-337.2153862595413,-164.9006860654433L-578.7269816974268,452.2754033289902z" style="fill:rgb(0,0,0); fill-opacity: 0.2">
    </path>
    <path d="M-126.86276963579982,219.57943448319378L-138.43351944567686,213.57427904287738L-117.14481409649485,237.12574975183114z" style="fill:rgb(74,87,214)">
    </path>
    <path d="M-336.45313703286496,229.60634161472586L-254.5359241242462,267.2866645664896" style="fill:none;stroke:rgb(74,87,214);stroke-width:5;stroke-linecap:round">
    </path>
    <path d="M-149.96326339634908,227.38965389636797L-145.4419822944439,241.89169322022155L-117.14481409649485,237.12574975183114z" style="fill:rgb(74,87,214)">
    </path>
    <path d="M-138.43351944567686,213.57427904287738L-149.96326339634908,227.38965389636797L-117.14481409649485,237.12574975183114z" style="fill:rgb(74,87,214)">
    </path>
    <path d="M-744.0083122790021,-496.5210937758736L-690.7668484085556,389.31901556516834" style="fill:none;stroke:rgb(0,0,0);stroke-width:1;stroke-linecap:round">
    </path>
    <path d="M-337.2153862595413,-164.9006860654433L-744.0083122790021,-496.5210937758736" style="fill:none;stroke:rgb(0,0,0);stroke-width:1;stroke-linecap:round">
    </path>
    <path d="M-337.2153862595413,-164.9006860654433L-744.0083122790021,-496.5210937758736" style="fill:none;stroke:rgb(0,0,0);stroke-width:1;stroke-linecap:round">
    </path>
    <path d="M-585.7001269454281,310.70204013358835L-337.2153862595413,-164.9006860654433" style="fill:none;stroke:rgb(0,0,0);stroke-width:1;stroke-linecap:round">
    </path>
    <path d="M-585.7001269454281,310.70204013358835L-337.2153862595413,-164.9006860654433" style="fill:none;stroke:rgb(0,0,0);stroke-width:1;stroke-linecap:round">
    </path>
    <path d="M-925.7032034546347,-548.6530417973316L-214.64785139447844,-651.4793756482011L-744.0083122790021,-496.5210937758736z" style="fill:rgb(0,0,0); fill-opacity: 0.2">
    </path>
    <path d="M-175.71385812681578,236.09586584791245L-187.58135101188643,230.08459617709377L-166.27660370141936,253.96164782629793z" style="fill:rgb(214,94,68)">
    </path>
    <path d="M-175.713858126816,236.09586584791248L-187.58135101188654,230.08459617709377L-166.27660370141953,253.96164782629802z" style="fill:rgb(167,41,160)">
    </path>
    <path d="M-391.21955579450344,247.4252969666427L-309.63053927158967,285.96730503984736" style="fill:none;stroke:rgb(214,94,68);stroke-width:5;stroke-linecap:round">
    </path>
    <path d="M-391.2195557945036,247.4252969666427L-309.6305392715899,285.96730503984736" style="fill:none;stroke:rgb(167,41,160);stroke-width:5;stroke-linecap:round">
    </path>
    <path d="M-199.31240554109192,244.07447596110634L-194.6163927584406,258.68932781530765L-166.27660370141953,253.96164782629802z" style="fill:rgb(167,41,160)">
    </path>
    <path d="M-199.3124055410918,244.07447596110632L-194.61639275844047,258.68932781530754L-166.27660370141936,253.96164782629793z" style="fill:rgb(214,94,68)">
    </path>
    <path d="M-187.58135101188654,230.08459617709377L-199.31240554109192,244.07447596110634L-166.27660370141953,253.96164782629802z" style="fill:rgb(167,41,160)">
    </path>
    <path d="M-187.58135101188643,230.08459617709377L-199.3124055410918,244.07447596110632L-166.27660370141936,253.96164782629793z" style="fill:rgb(214,94,68)">
    </path>
    <path d="M-183.9574806466832,238.88301409274797L-195.87541125578343,232.8708343608183L-174.56840365789748,256.8029833453921z" style="fill:rgb(74,87,214)">
    </path>
    <path d="M-396.4183571287544,249.1167935251759L-314.86202343336623,287.74111677275175" style="fill:none;stroke:rgb(74,87,214);stroke-width:5;stroke-linecap:round">
    </path>
    <path d="M-207.64060114000597,246.8902181533548L-202.91483660569276,261.5240181784191L-174.56840365789748,256.8029833453921z" style="fill:rgb(74,87,214)">
    </path>
    <path d="M-585.7001269454281,310.70204013358835L-269.71656884035997,207.892744928076L-337.2153862595413,-164.9006860654433z" style="fill:rgb(0,0,0); fill-opacity: 0.2">
    </path>
    <path d="M-195.87541125578343,232.8708343608183L-207.64060114000597,246.8902181533548L-174.56840365789748,256.8029833453921z" style="fill:rgb(74,87,214)">
    </path>
    <path d="M-663.442655417508,-85.71187452941334L37.97932207870005,-255.97591446250857L-585.7001269454281,310.70204013358835z" style="fill:rgb(0,0,0); fill-opacity: 0.2">
    </path>
    <path d="M-690.7668484085556,389.31901556516834L-744.0083122790021,-496.5210937758736L-325.9218632565549,313.76054732580496z" style="fill:rgb(0,0,0); fill-opacity: 0.2">
    </path>
    <path d="M-325.9218632565549,313.76054732580496L-337.2153862595413,-164.9006860654433L-744.0083122790021,-496.5210937758736z" style="fill:rgb(0,0,0); fill-opacity: 0.2">
    </path>
    <path d="M-337.2153862595413,-164.9006860654433L-337.2153862595413,-164.9006860654433L-585.7001269454281,310.70204013358835z" style="fill:rgb(0,0,0); fill-opacity: 0.2">
    </path>
    <path d="M-337.2153862595413,-164.9006860654433L-663.442655417508,-85.71187452941334L-269.71656884035997,207.892744928076z" style="fill:rgb(0,0,0); fill-opacity: 0.2">
    </path>
    <path d="M-235.73244044649655,256.38799906564066L-247.96954295503386,250.37090725879725L-226.65129001588792,274.6501282020751z" style="fill:rgb(167,41,160)">
    </path>
    <path d="M-235.7324404464964,256.3879990656406L-247.96954295503366,250.37090725879725L-226.65129001588775,274.65012820207505z" style="fill:rgb(214,94,68)">
    </path>
    <path d="M-454.35236942805045,267.9663659796314L-373.1781838075158,307.51406958897064" style="fill:none;stroke:rgb(214,94,68);stroke-width:5;stroke-linecap:round">
    </path>
    <path d="M-454.3523694280507,267.9663659796314L-373.17818380751606,307.51406958897064" style="fill:none;stroke:rgb(167,41,160);stroke-width:5;stroke-linecap:round">
    </path>
    <path d="M-259.9502078538889,264.5759659164607L-255.03582920422042,279.3281846166576L-226.65129001588792,274.6501282020751z" style="fill:rgb(167,41,160)">
    </path>
    <path d="M-259.95020785388874,264.5759659164606L-255.03582920422028,279.3281846166576L-226.65129001588775,274.65012820207505z" style="fill:rgb(214,94,68)">
    </path>
    <path d="M-242.49764660863656,258.67529842163566L-254.77675881643307,252.65766720509038L-233.45741260996846,276.9823694494972z" style="fill:rgb(74,87,214)">
    </path>
    <path d="M-247.96954295503386,250.37090725879725L-259.9502078538889,264.5759659164607L-226.65129001588792,274.6501282020751z" style="fill:rgb(167,41,160)">
    </path>
    <path d="M-247.96954295503366,250.37090725879725L-259.95020785388874,264.5759659164606L-226.65129001588775,274.65012820207505z" style="fill:rgb(214,94,68)">
    </path>
    <path d="M-457.9081561340095,269.12328669833283L-376.7584981888121,308.72802789614303" style="fill:none;stroke:rgb(74,87,214);stroke-width:5;stroke-linecap:round">
    </path>
    <path d="M-266.7857170872898,266.887034565773L-261.84646936294183,281.6546516482976L-233.45741260996846,276.9823694494972z" style="fill:rgb(74,87,214)">
    </path>
    <path d="M-744.0083122790021,-496.5210937758736L-925.7032034546347,-548.6530417973316" style="fill:none;stroke:rgb(0,0,0);stroke-width:1;stroke-linecap:round">
    </path>
    <path d="M-744.0083122790021,-496.5210937758736L-925.7032034546347,-548.6530417973316" style="fill:none;stroke:rgb(0,0,0);stroke-width:1;stroke-linecap:round">
    </path>
    <path d="M-254.77675881643307,252.65766720509038L-266.7857170872898,266.887034565773L-233.45741260996846,276.9823694494972z" style="fill:rgb(74,87,214)">
    </path>
    <path d="M-578.7269816974268,452.2754033289902L-585.7001269454281,310.70204013358835L-337.2153862595413,-164.9006860654433z" style="fill:rgb(0,0,0); fill-opacity: 0.2">
    </path>
    <path d="M-744.0083122790021,-496.5210937758736L-20.38362733751045,-612.1083758546596L-663.442655417508,-85.71187452941334z" style="fill:rgb(0,0,0); fill-opacity: 0.2">
    </path>
    <path d="M-269.71656884035997,207.892744928076L-585.7001269454281,310.70204013358835L-663.442655417508,-85.71187452941334z" style="fill:rgb(0,0,0); fill-opacity: 0.2">
    </path>
    <path d="M-297.3322141634806,277.2147291571488L-309.95443177252207,271.1935995179097L-288.6294329810412,295.88806205705254z" style="fill:rgb(167,41,160)">
    </path>
    <path d="M-297.3322141634805,277.2147291571487L-309.9544317725219,271.1935995179097L-288.629432981041,295.8880620570524z" style="fill:rgb(214,94,68)">
    </path>
    <path d="M-578.7269816974268,452.2754033289902L-585.7001269454281,310.70204013358835" style="fill:none;stroke:rgb(80,97,2);stroke-width:5;stroke-linecap:round">
    </path>
    <path d="M-578.7269816974268,452.2754033289902L-499.5215324316926,496.78178416785636" style="fill:none;stroke:rgb(162,186,45);stroke-width:5;stroke-linecap:round">
    </path>
    <path d="M-302.5388626919345,278.9750840584779L-315.19389954115434,272.9537031016881L-293.8686610442892,297.6833784982205z" style="fill:rgb(74,87,214)">
    </path>
    <path d="M-519.1567992316917,289.0513167101757L-438.4491181821939,329.6451409314715" style="fill:none;stroke:rgb(167,41,160);stroke-width:5;stroke-linecap:round">
    </path>
    <path d="M-519.1567992316915,289.0513167101756L-438.4491181821938,329.6451409314714" style="fill:none;stroke:rgb(214,94,68);stroke-width:5;stroke-linecap:round">
    </path>
    <path d="M-322.19389753661846,285.62040239244044L-317.05116822686773,300.51219057348567L-288.6294329810412,295.88806205705254z" style="fill:rgb(167,41,160)">
    </path>
    <path d="M-322.1938975366183,285.6204023924404L-317.0511682268675,300.51219057348555L-288.629432981041,295.8880620570524z" style="fill:rgb(214,94,68)">
    </path>
    <path d="M-520.9814249048525,289.64498202806914L-440.2874757323578,330.26846312664884" style="fill:none;stroke:rgb(74,87,214);stroke-width:5;stroke-linecap:round">
    </path>
    <path d="M-309.95443177252207,271.1935995179097L-322.19389753661846,285.62040239244044L-288.6294329810412,295.88806205705254z" style="fill:rgb(167,41,160)">
    </path>
    <path d="M-309.9544317725219,271.1935995179097L-322.1938975366183,285.6204023924404L-288.629432981041,295.8880620570524z" style="fill:rgb(214,94,68)">
    </path>
    <path d="M-327.45536156435134,287.3992902775684L-322.29313465336764,302.3028096324883L-293.8686610442892,297.6833784982205z" style="fill:rgb(74,87,214)">
    </path>
    <path d="M-690.7668484085556,389.31901556516834L-744.0083122790021,-496.5210937758736L-925.7032034546347,-548.6530417973316z" style="fill:rgb(0,0,0); fill-opacity: 0.2">
    </path>
    <path d="M-315.19389954115434,272.9537031016881L-327.45536156435134,287.3992902775684L-293.8686610442892,297.6833784982205z" style="fill:rgb(74,87,214)">
    </path>
    <path d="M-582.188996819123,381.98730423162124L-502.49634949392873,425.1041027671289" style="fill:none;stroke:rgb(162,186,45);stroke-width:5;stroke-linecap:round">
    </path>
    <path d="M-360.5764981505903,298.5974640756547L-373.60019218168225,292.5742312796179L-352.27577018883574,317.69763290028857z" style="fill:rgb(167,41,160)">
    </path>
    <path d="M-360.57649815059017,298.59746407565467L-373.60019218168196,292.5742312796179L-352.2757701888355,317.6976329002885z" style="fill:rgb(214,94,68)">
    </path>
    <path d="M-364.13961216706423,299.8021440513851L-377.1861082634215,293.7788543492328L-355.86194503481266,318.92650069992663z" style="fill:rgb(74,87,214)">
    </path>
    <path d="M-585.7001269454281,310.70204013358835L-663.442655417508,-85.71187452941334" style="fill:none;stroke:rgb(0,0,0);stroke-width:1;stroke-linecap:round">
    </path>
    <path d="M-585.7001269454281,310.70204013358835L-663.442655417508,-85.71187452941334" style="fill:none;stroke:rgb(0,0,0);stroke-width:1;stroke-linecap:round">
    </path>
    <path d="M-585.7001269454278,310.7020401335883L-505.5144043844211,352.3846136809612" style="fill:none;stroke:rgb(74,87,214);stroke-width:5;stroke-linecap:round">
    </path>
    <path d="M-585.7001269454281,310.70204013358835L-505.51440438442137,352.38461368096125" style="fill:none;stroke:rgb(167,41,160);stroke-width:5;stroke-linecap:round">
    </path>
    <path d="M-585.7001269454278,310.7020401335883L-505.5144043844211,352.3846136809612" style="fill:none;stroke:rgb(214,94,68);stroke-width:5;stroke-linecap:round">
    </path>
    <path d="M-585.7001269454281,310.70204013358835L-505.51440438442137,352.38461368096125" style="fill:none;stroke:rgb(162,186,45);stroke-width:5;stroke-linecap:round">
    </path>
    <path d="M-386.1081243846684,307.2296433238685L-380.7264866862961,322.2632338928627L-352.2757701888355,317.6976329002885z" style="fill:rgb(214,94,68)">
    </path>
    <path d="M-386.1081243846686,307.2296433238685L-380.72648668629625,322.2632338928627L-352.27577018883574,317.69763290028857z" style="fill:rgb(167,41,160)">
    </path>
    <path d="M-373.60019218168225,292.5742312796179L-386.1081243846686,307.2296433238685L-352.27577018883574,317.69763290028857z" style="fill:rgb(167,41,160)">
    </path>
    <path d="M-373.60019218168196,292.5742312796179L-386.1081243846684,307.2296433238685L-352.2757701888355,317.6976329002885z" style="fill:rgb(214,94,68)">
    </path>
    <path d="M-389.7092486954016,308.4471744854307L-384.31401662230087,323.4887090209897L-355.86194503481266,318.92650069992663z" style="fill:rgb(74,87,214)">
    </path>
    <path d="M-377.1861082634215,293.7788543492328L-389.7092486954016,308.4471744854307L-355.86194503481266,318.92650069992663z" style="fill:rgb(74,87,214)">
    </path>
    <path d="M-337.2153862595413,-164.9006860654433L-663.442655417508,-85.71187452941334L-744.0083122790021,-496.5210937758736z" style="fill:rgb(0,0,0); fill-opacity: 0.2">
    </path>
    <path d="M-744.0083122790021,-496.5210937758736L-744.0083122790021,-496.5210937758736L-337.2153862595413,-164.9006860654433z" style="fill:rgb(0,0,0); fill-opacity: 0.2">
    </path>
    <path d="M-486.4789969915096,487.3316958453428L-500.1377661965639,481.9337425764781L-479.11843677666155,508.24649971372804z" style="fill:rgb(162,186,45)">
    </path>
    <path d="M-425.53203782845895,320.55877028165827L-438.97448469555275,314.5355318585658L-417.65857170529597,340.1022347070968z" style="fill:rgb(214,94,68)">
    </path>
    <path d="M-425.5320378284591,320.5587702816583L-438.97448469555286,314.5355318585659L-417.6585717052961,340.1022347070969z" style="fill:rgb(167,41,160)">
    </path>
    <path d="M-427.36145641394575,321.1772921496017L-440.8157912106045,315.1540851809815L-419.5002340586829,340.73331368709194z" style="fill:rgb(74,87,214)">
    </path>
    <path d="M-513.0157980800469,497.0909553006675L-507.22337806578463,511.8049317223442L-479.11843677666155,508.24649971372804z" style="fill:rgb(162,186,45)">
    </path>
    <path d="M-500.1377661965639,481.9337425764781L-513.0157980800469,497.0909553006675L-479.11843677666155,508.24649971372804z" style="fill:rgb(162,186,45)">
    </path>
    <path d="M-451.76105562260057,329.42673587961207L-446.1293382966353,344.60439045093597L-417.6585717052961,340.1022347070969z" style="fill:rgb(167,41,160)">
    </path>
    <path d="M-451.76105562260034,329.426735879612L-446.12933829663507,344.60439045093597L-417.65857170529597,340.1022347070968z" style="fill:rgb(214,94,68)">
    </path>
    <path d="M-438.97448469555275,314.5355318585658L-451.76105562260034,329.426735879612L-417.65857170529597,340.1022347070968z" style="fill:rgb(214,94,68)">
    </path>
    <path d="M-438.97448469555286,314.5355318585659L-451.76105562260057,329.42673587961207L-417.6585717052961,340.1022347070969z" style="fill:rgb(167,41,160)">
    </path>
    <path d="M-453.61025244352396,330.05194471970276L-447.97142275937614,345.23363361636365L-419.5002340586829,340.73331368709194z" style="fill:rgb(74,87,214)">
    </path>
    <path d="M-440.8157912106045,315.1540851809815L-453.61025244352396,330.05194471970276L-419.5002340586829,340.73331368709194z" style="fill:rgb(74,87,214)">
    </path>
    <path d="M-663.442655417508,-85.71187452941334L-744.0083122790021,-496.5210937758736" style="fill:none;stroke:rgb(0,0,0);stroke-width:1;stroke-linecap:round">
    </path>
    <path d="M-663.442655417508,-85.71187452941334L-744.0083122790021,-496.5210937758736" style="fill:none;stroke:rgb(0,0,0);stroke-width:1;stroke-linecap:round">
    </path>
    <path d="M-489.3532772892345,415.7461375640225L-503.1215141781537,410.04087228223534L-481.96335814488856,436.21324371102634z" style="fill:rgb(162,186,45)">
    </path>
    <path d="M-516.0977391267604,425.187693034268L-510.2551425066037,440.20306010015577L-481.96335814488856,436.21324371102634z" style="fill:rgb(162,186,45)">
    </path>
    <path d="M-503.1215141781537,410.04087228223534L-516.0977391267604,425.187693034268L-481.96335814488856,436.21324371102634z" style="fill:rgb(162,186,45)">
    </path>
    <path d="M-492.2692401321035,343.12245218455394L-506.14869555464054,337.1014821595507L-484.8498843441809,363.1265556238443z" style="fill:rgb(74,87,214)">
    </path>
    <path d="M-492.2692401321037,343.122452184554L-506.14869555464077,337.1014821595508L-484.8498843441813,363.1265556238444z" style="fill:rgb(167,41,160)">
    </path>
    <path d="M-492.2692401321035,343.12245218455394L-506.14869555464054,337.1014821595507L-484.8498843441809,363.1265556238443z" style="fill:rgb(214,94,68)">
    </path>
    <path d="M-492.2692401321037,343.122452184554L-506.14869555464077,337.1014821595508L-484.8498843441813,363.1265556238444z" style="fill:rgb(162,186,45)">
    </path>
    <path d="M-519.2246184206726,352.2359984568147L-513.3309926897755,367.56000545536415L-484.8498843441813,363.1265556238444z" style="fill:rgb(167,41,160)">
    </path>
    <path d="M-519.2246184206726,352.2359984568147L-513.3309926897755,367.56000545536415L-484.8498843441813,363.1265556238444z" style="fill:rgb(162,186,45)">
    </path>
    <path d="M-519.2246184206723,352.23599845681457L-513.3309926897751,367.56000545536403L-484.8498843441809,363.1265556238443z" style="fill:rgb(74,87,214)">
    </path>
    <path d="M-519.2246184206725,352.2359984568146L-513.3309926897753,367.56000545536415L-484.8498843441809,363.1265556238443z" style="fill:rgb(214,94,68)">
    </path>
    <path d="M-506.14869555464077,337.1014821595508L-519.2246184206726,352.2359984568147L-484.8498843441813,363.1265556238444z" style="fill:rgb(167,41,160)">
    </path>
    <path d="M-506.14869555464077,337.1014821595508L-519.2246184206726,352.2359984568147L-484.8498843441813,363.1265556238444z" style="fill:rgb(162,186,45)">
    </path>
    <path d="M-506.14869555464054,337.1014821595507L-519.2246184206723,352.23599845681457L-484.8498843441809,363.1265556238443z" style="fill:rgb(74,87,214)">
    </path>
    <path d="M-506.14869555464054,337.1014821595507L-519.2246184206725,352.2359984568146L-484.8498843441809,363.1265556238443z" style="fill:rgb(214,94,68)">
    </path>
    <path d="M-744.0083122790021,-496.5210937758736L-744.0083122790021,-496.5210937758736" style="fill:none;stroke:rgb(0,0,0);stroke-width:1;stroke-linecap:round">
    </path>
</svg>