<svg viewBox="-812 -590 1624 1180" width="1624" height="1180" style="background-color: rgb(255, 255, 255);"><path d="M15.83518316242262,197.08841355138054L61.873176476061026,-542.3929551490996M186.9086801934662,261.88127362653L15.83518316242262,197.08841355138054M186.90868019346615,261.88127362653L236.53496417775554,-481.8744823740089M77.57372846027035,325.3988251789118L186.90868019346615,261.88127362653" style="fill:none;stroke:rgb(0,0,0);stroke-width:1;stroke-linecap:round"></path><path d="M236.53496417775563,-481.8744823740089L186.9086801934662,261.88127362653L15.83518316242262,197.08841355138054z" style="fill:rgb(0,0,0); fill-opacity: 0.2"></path><path d="M136.89774149865463,292.7504351900422L138.71625536771427,302.19062297693483L142.96964511332524,297.4815229225234zM149.3547114323913,297.4947787942784L146.41322466039315,305.1249392619937L153.3787751712842,292.68546627828835zM138.71625536771427,302.19062297693483L146.41322466039315,305.1249392619937L142.96964511332524,297.4815229225234zM143.47108956489092,289.8448517438013L149.3547114323913,297.4947787942784L153.3787751712842,292.68546627828835zM143.47108956489092,289.8448517438013L136.89774149865463,292.7504351900422L142.96964511332524,297.4815229225234z" style="fill:rgb(128,207,62)"></path><path d="M101.18210930808752,316.73533064987333L142.96964511332527,297.4815229225234" style="fill:none;stroke:rgb(128,207,62);stroke-width:5;stroke-linecap:round"></path><path d="M146.41322466039315,305.1249392619937L149.3547114323913,297.4947787942784L142.96964511332524,297.4815229225234zM149.3547114323913,297.4947787942784L143.47108956489092,289.8448517438013L142.96964511332524,297.4815229225234zM139.1666890195956,258.10988874673006L140.9865454115969,267.56247663803856L145.24442711388375,262.8380801896337zM151.63588248612476,262.84008500826843L148.69106564387224,270.48805813591207L155.6611119035448,258.0628460937225zM140.9865454115969,267.56247663803856L148.69106564387224,270.48805813591207L145.24442711388375,262.8380801896337zM145.74675911239027,255.18789225123493L151.63588248612476,262.84008500826843L155.6611119035448,258.0628460937225zM145.74675911239027,255.18789225123493L139.1666890195956,258.10988874673006L145.24442711388375,262.8380801896337z" style="fill:rgb(128,207,62)"></path><path d="M103.4264287175025,282.00835708649794L145.24442711388372,262.8380801896337" style="fill:none;stroke:rgb(128,207,62);stroke-width:5;stroke-linecap:round"></path><path d="M148.69106564387224,270.48805813591207L151.63588248612476,262.84008500826843L145.24442711388375,262.8380801896337zM151.63588248612476,262.84008500826843L145.74675911239027,255.18789225123493L145.24442711388375,262.8380801896337zM141.43965309810363,223.4080205903065L143.2608539190029,232.87303771526237L147.52323682425526,228.13329806940058zM153.92109387634704,228.12401194796655L150.9729397765767,235.78984888758765L157.9474867959864,223.37896777655317zM143.2608539190029,232.87303771526237L150.9729397765767,235.78984888758765L147.52323682425526,228.13329806940058zM148.026458728201,220.46955745293678L153.92109387634704,228.12401194796655L157.9474867959864,223.37896777655317zM148.026458728201,220.46955745293678L141.43965309810363,223.4080205903065L147.52323682425526,228.13329806940058z" style="fill:rgb(128,207,62)"></path><path d="M105.67473345069179,247.2197175085747L147.52323682425524,228.13329806940058" style="fill:none;stroke:rgb(128,207,62);stroke-width:5;stroke-linecap:round"></path><path d="M150.9729397765767,235.78984888758765L153.92109387634704,228.12401194796655L147.52323682425526,228.13329806940058zM153.92109387634704,228.12401194796655L148.026458728201,220.46955745293678L147.52323682425526,228.13329806940058zM143.71664440896947,188.64466774627294L145.53919156853678,198.1221433306166L149.80608495106188,193.36701350697007zM156.21035634674286,193.34639639935102L153.25885777964967,201.03014849117304L160.23791057523138,188.63366860592993zM145.53919156853678,198.1221433306166L153.25885777964967,201.03014849117304L149.80608495106188,193.36701350697007z" style="fill:rgb(128,207,62)"></path><path d="M61.873176476061026,-542.3929551490996L15.83518316242262,197.08841355138054L236.53496417775563,-481.8744823740089z" style="fill:rgb(0,0,0); fill-opacity: 0.2"></path><path d="M150.31019912730906,185.68968416667786L156.21035634674286,193.34639639935102L160.23791057523138,188.63366860592993zM150.31019912730906,185.68968416667786L143.71664440896947,188.64466774627294L149.80608495106188,193.36701350697007z" style="fill:rgb(128,207,62)"></path><path d="M107.9270341324264,212.36924751608876L149.80608495106188,193.36701350697007" style="fill:none;stroke:rgb(128,207,62);stroke-width:5;stroke-linecap:round"></path><path d="M153.25885777964967,201.03014849117304L156.21035634674286,193.34639639935102L149.80608495106188,193.36701350697007zM156.21035634674286,193.34639639935102L150.31019912730906,185.68968416667786L149.80608495106188,193.36701350697007z" style="fill:rgb(128,207,62)"></path><path d="M135.2702458242944,-210.71981261407788L101.18210930808752,316.73533064987333" style="fill:none;stroke:rgb(58,110,14);stroke-width:5;stroke-linecap:round"></path><path d="M101.18210930808752,316.73533064987333L77.57372846027035,325.3988251789118" style="fill:none;stroke:rgb(0,0,0);stroke-width:1;stroke-linecap:round"></path><path d="M145.99767366484454,153.81966666210303L147.82156907667277,163.30963002849398L152.09298223890704,158.53906286905678zM158.50368067912214,158.5070745692153L155.54883041226714,166.20879334248895L162.5323940059269,153.82678528417463zM147.82156907667277,163.30963002849398L155.54883041226714,166.20879334248895L152.09298223890704,158.53906286905678zM152.59799106271865,150.84810863123226L158.50368067912214,158.5070745692153L162.5323940059269,153.82678528417463zM152.59799106271865,150.84810863123226L145.99767366484454,153.81966666210303L152.09298223890704,158.53906286905678z" style="fill:rgb(128,207,62)"></path><path d="M110.18334142527821,177.45678212412378L152.092982238907,158.53906286905678" style="fill:none;stroke:rgb(128,207,62);stroke-width:5;stroke-linecap:round"></path><path d="M155.54883041226714,166.20879334248895L158.50368067912214,158.5070745692153L152.09298223890704,158.53906286905678zM158.50368067912214,158.5070745692153L152.59799106271865,150.84810863123226L152.09298223890704,158.53906286905678zM148.28275161640894,118.93285320467787L150.10799719792288,128.4353337731064L154.383939470544,123.64928194137678zM160.80107769358935,123.60588208259689L157.84286847180726,131.32561925645768L164.83094789091345,118.9581539342231zM150.10799719792288,128.4353337731064L157.84286847180726,131.32561925645768L154.383939470544,123.64928194137678zM154.88984532562137,115.94466650380781L160.80107769358935,123.60588208259689L164.83094789091345,118.9581539342231zM154.88984532562137,115.94466650380781L148.28275161640894,118.93285320467787L154.383939470544,123.64928194137678z" style="fill:rgb(128,207,62)"></path><path d="M112.44366602978805,142.4821557602585L154.38393947054396,123.64928194137677" style="fill:none;stroke:rgb(128,207,62);stroke-width:5;stroke-linecap:round"></path><path d="M157.84286847180726,131.32561925645768L160.80107769358935,123.60588208259689L154.383939470544,123.64928194137678zM160.80107769358935,123.60588208259689L154.88984532562137,115.94466650380781L154.383939470544,123.64928194137678zM150.5718890525403,83.98406265770731L152.39848672500594,93.49908994590922L156.6789674670455,88.69750592606678zM163.10255824871354,88.64265398019208L160.14098279401955,96.3804614645225L167.13358307139444,84.02761009705335zM152.39848672500594,93.49908994590922L160.14098279401955,96.3804614645225L156.6789674670455,88.69750592606678zM157.1857727455656,80.97919285746156L163.10255824871354,88.64265398019208L167.13358307139444,84.02761009705335zM157.1857727455656,80.97919285746156L150.5718890525403,83.98406265770731L156.6789674670455,88.69750592606678z" style="fill:rgb(128,207,62)"></path><path d="M114.70801868463492,107.44520226194932L156.67896746704548,88.69750592606677" style="fill:none;stroke:rgb(128,207,62);stroke-width:5;stroke-linecap:round"></path><path d="M160.14098279401955,96.3804614645225L163.10255824871354,88.64265398019208L156.6789674670455,88.69750592606678zM163.10255824871354,88.64265398019208L157.1857727455656,80.97919285746156L156.6789674670455,88.69750592606678z" style="fill:rgb(128,207,62)"></path><path d="M113.40728636864677,-234.16246932938503L77.57372846027035,325.3988251789118L186.90868019346615,261.88127362653z" style="fill:rgb(0,0,0); fill-opacity: 0.2"></path><path d="M152.8650968004838,48.973129719137624L154.69304848901706,58.50073334301041L158.978077087974,53.68356943908928zM165.4081332416997,53.617224715757054L162.4431842531959,61.3731546120535L169.4403104271065,49.0349887291zM154.69304848901706,58.50073334301041L162.4431842531959,61.3731546120535L158.978077087974,53.68356943908928zM159.4857841906273,45.95152217850231L165.4081332416997,53.617224715757054L169.4403104271065,49.0349887291zM159.4857841906273,45.95152217850231L152.8650968004838,48.973129719137624L158.978077087974,53.68356943908928z" style="fill:rgb(128,207,62)"></path><path d="M116.97641016680602,72.34575487389871L158.97807708797396,53.68356943908926" style="fill:none;stroke:rgb(128,207,62);stroke-width:5;stroke-linecap:round"></path><path d="M236.53496417775563,-481.8744823740089L61.873176476061026,-542.3929551490996M61.873176476061026,-542.3929551490996L-372.4207538459606,-368.5958962108691M236.53496417775563,-481.8744823740089L61.873176476061026,-542.3929551490996" style="fill:none;stroke:rgb(0,0,0);stroke-width:1;stroke-linecap:round"></path><path d="M162.4431842531959,61.3731546120535L165.4081332416997,53.617224715757054L158.978077087974,53.68356943908928zM165.4081332416997,53.617224715757054L159.4857841906273,45.95152217850231L158.978077087974,53.68356943908928zM155.16238572602245,13.899888498545332L156.9916933595988,23.44009817256693L161.28127923155316,18.607306507624298zM167.71781360856048,18.529428153495086L164.74948376234178,26.3035327557393L171.75114087649112,13.980124199654716zM156.9916933595988,23.44009817256693L164.74948376234178,26.3035327557393L161.28127923155316,18.607306507624298zM161.78989056758135,10.861488363878928L167.71781360856048,18.529428153495086L171.75114087649112,13.980124199654716zM161.78989056758135,10.861488363878928L155.16238572602245,13.899888498545332L161.28127923155316,18.607306507624298z" style="fill:rgb(128,207,62)"></path><path d="M119.24885129176782,37.183646245409975L161.28127923155313,18.607306507624283" style="fill:none;stroke:rgb(128,207,62);stroke-width:5;stroke-linecap:round"></path><path d="M243.23921428328705,-194.4298590913369L233.94332388553514,-196.27174640796005L236.23653150047485,-193.03513186235708z" style="fill:rgb(41,170,178)"></path><path d="M243.23921428328705,-194.4298590913369L233.94332388553514,-196.27174640796L236.23653150047485,-193.03513186235708z" style="fill:rgb(197,147,42)"></path><path d="M164.74948376234178,26.3035327557393L167.71781360856048,18.529428153495086L161.28127923155316,18.607306507624298z" style="fill:rgb(128,207,62)"></path><path d="M233.94332388553514,-196.27174640796005L227.81422898898035,-193.6412541267087L236.23653150047485,-193.03513186235708z" style="fill:rgb(41,170,178)"></path><path d="M233.94332388553514,-196.27174640796L227.81422898898035,-193.6412541267087L236.23653150047485,-193.03513186235708z" style="fill:rgb(197,147,42)"></path><path d="M167.71781360856048,18.529428153495086L161.78989056758135,10.861488363878928L161.28127923155316,18.607306507624298z" style="fill:rgb(128,207,62)"></path><path d="M240.43014813448423,-255.43795851320314L236.23653150047485,-193.03513186235705" style="fill:none;stroke:rgb(41,170,178);stroke-width:5;stroke-linecap:round"></path><path d="M240.43014813448417,-255.43795851320314L236.23653150047483,-193.03513186235705" style="fill:none;stroke:rgb(197,147,42);stroke-width:5;stroke-linecap:round"></path><path d="M242.8616266326581,-190.658637759097L243.23921428328705,-194.4298590913369L236.23653150047485,-193.03513186235708z" style="fill:rgb(41,170,178)"></path><path d="M242.8616266326581,-190.658637759097L243.23921428328705,-194.4298590913369L236.23653150047485,-193.03513186235708z" style="fill:rgb(197,147,42)"></path><path d="M233.32415427281902,-190.17045879693163L227.81422898898035,-193.6412541267087L235.1901854464084,-177.46505068250417z" style="fill:rgb(41,170,178)"></path><path d="M233.32415427281902,-190.17045879693163L227.81422898898035,-193.6412541267087L235.19018544640838,-177.46505068250417z" style="fill:rgb(197,147,42)"></path><path d="M242.8616266326581,-190.658637759097L233.32415427281902,-190.17045879693163L235.1901854464084,-177.46505068250417z" style="fill:rgb(41,170,178)"></path><path d="M242.8616266326581,-190.658637759097L233.32415427281902,-190.17045879693163L235.19018544640838,-177.46505068250417z" style="fill:rgb(197,147,42)"></path><path d="M227.81422898898035,-193.6412541267087L233.32415427281902,-190.17045879693163L236.23653150047485,-193.03513186235708z" style="fill:rgb(41,170,178)"></path><path d="M227.81422898898035,-193.6412541267087L233.32415427281902,-190.17045879693163L236.23653150047485,-193.03513186235708z" style="fill:rgb(197,147,42)"></path><path d="M233.32415427281902,-190.17045879693163L242.8616266326581,-190.658637759097L236.23653150047485,-193.03513186235708z" style="fill:rgb(41,170,178)"></path><path d="M233.32415427281902,-190.17045879693163L242.8616266326581,-190.658637759097L236.23653150047485,-193.03513186235708z" style="fill:rgb(197,147,42)"></path><path d="M157.46376673364904,-21.235827485483007L159.2944322451125,-11.68298194783338L163.58858483483968,-16.531449432553416z" style="fill:rgb(128,207,62)"></path><path d="M135.2702458242944,-210.71981261407788L101.18210930808752,316.73533064987333L77.57372846027035,325.3988251789118z" style="fill:rgb(0,0,0); fill-opacity: 0.2"></path><path d="M170.03161032428923,-16.620902434570247L167.0598922733489,-8.828570639034805L174.0660853768665,-21.137149711746783zM159.2944322451125,-11.68298194783338L167.0598922733489,-8.828570639034805L163.58858483483968,-16.531449432553416zM164.09810282207394,-24.291075281445206L170.03161032428923,-16.620902434570247L174.0660853768665,-21.137149711746783zM164.09810282207394,-24.291075281445206L157.46376673364904,-21.235827485483007L163.58858483483968,-16.531449432553416z" style="fill:rgb(128,207,62)"></path><path d="M121.52535291363782,1.9587084277272582L163.58858483483968,-16.531449432553433" style="fill:none;stroke:rgb(128,207,62);stroke-width:5;stroke-linecap:round"></path><path d="M167.0598922733489,-8.828570639034805L170.03161032428923,-16.620902434570247L163.58858483483968,-16.531449432553416zM170.03161032428923,-16.620902434570247L164.09810282207394,-24.291075281445206L163.58858483483968,-16.531449432553416zM159.76925076673876,-56.434185307984606L161.60127609281093,-46.86867399380356L165.90000487389682,-51.73286553971058zM172.34953440303386,-51.83393437123579L169.37442077716844,-44.02332270082292L176.38515492460135,-56.31699981795213z" style="fill:rgb(128,207,62)"></path><path d="M220.05036900985505,-184.46818722245305L210.7436073841431,-186.31486432110654L213.0302915132351,-183.06860438747208z" style="fill:rgb(197,147,42)"></path><path d="M161.60127609281093,-46.86867399380356L169.37442077716844,-44.02332270082292L165.90000487389682,-51.73286553971058zM166.41043193879608,-59.50633604713197L172.34953440303386,-51.83393437123579L176.38515492460135,-56.31699981795213z" style="fill:rgb(128,207,62)"></path><path d="M210.7436073841431,-186.31486432110654L204.59461964844263,-183.67583440734867L213.0302915132351,-183.06860438747208z" style="fill:rgb(197,147,42)"></path><path d="M166.41043193879608,-59.50633604713197L159.76925076673876,-56.434185307984606L165.90000487389682,-51.73286553971058z" style="fill:rgb(128,207,62)"></path><path d="M123.80592592535751,-33.3292271286382L165.9000048738968,-51.7328655397106" style="fill:none;stroke:rgb(128,207,62);stroke-width:5;stroke-linecap:round"></path><path d="M218.1920123620765,-183.66985772729106L208.8843801036064,-185.51691893225427L211.1705400045183,-182.26988539989475z" style="fill:rgb(41,170,178)"></path><path d="M240.43014813448417,-255.43795851320314L114.05244633839675,-201.69716584259248" style="fill:none;stroke:rgb(0,86,91);stroke-width:5;stroke-linecap:round"></path><path d="M240.43014813448417,-255.43795851320314L239.8759469225199,-287.6550238304579" style="fill:none;stroke:rgb(0,0,0);stroke-width:1;stroke-linecap:round"></path><path d="M-189.69597840734656,-72.53133289664989L240.43014813448417,-255.43795851320314" style="fill:none;stroke:rgb(104,70,1);stroke-width:5;stroke-linecap:round"></path><path d="M240.43014813448417,-255.43795851320314L239.8759469225199,-287.6550238304579" style="fill:none;stroke:rgb(0,0,0);stroke-width:1;stroke-linecap:round"></path><path d="M208.8843801036064,-185.51691893225427L202.73379675849884,-182.8772042129419L211.1705400045183,-182.26988539989475z" style="fill:rgb(41,170,178)"></path><path d="M169.37442077716844,-44.02332270082292L172.34953440303386,-51.83393437123579L165.90000487389682,-51.73286553971058z" style="fill:rgb(128,207,62)"></path><path d="M217.19414475974293,-245.55709169802387L213.0302915132351,-183.06860438747205" style="fill:none;stroke:rgb(197,147,42);stroke-width:5;stroke-linecap:round"></path><path d="M219.65962126459524,-180.68545745142478L220.05036900985505,-184.46818722245305L213.0302915132351,-183.06860438747208zM210.1031181710658,-180.19495810366507L204.59461964844263,-183.67583440734867L211.99137501203495,-167.47719980172764z" style="fill:rgb(197,147,42)"></path><path d="M172.34953440303386,-51.83393437123579L166.41043193879608,-59.50633604713197L165.90000487389682,-51.73286553971058z" style="fill:rgb(128,207,62)"></path><path d="M236.53496417775554,-481.8744823740089L186.90868019346615,261.88127362653L113.40728636864677,-234.16246932938503z" style="fill:rgb(0,0,0); fill-opacity: 0.2"></path><path d="M219.65962126459524,-180.68545745142478L210.1031181710658,-180.19495810366507L211.99137501203495,-167.47719980172764z" style="fill:rgb(197,147,42)"></path><path d="M215.33200287550017,-244.7652353855407L211.1705400045183,-182.26988539989472" style="fill:none;stroke:rgb(41,170,178);stroke-width:5;stroke-linecap:round"></path><path d="M217.80020820608496,-179.88620491248307L218.1920123620765,-183.66985772729106L211.1705400045183,-182.26988539989475zM208.24217948708878,-179.3955193942641L202.73379675849884,-182.8772042129419L210.1322201875223,-166.6767725037833z" style="fill:rgb(41,170,178)"></path><path d="M204.59461964844263,-183.67583440734867L210.1031181710658,-180.19495810366507L213.0302915132351,-183.06860438747208z" style="fill:rgb(197,147,42)"></path><path d="M217.80020820608496,-179.88620491248307L208.24217948708878,-179.3955193942641L210.1322201875223,-166.6767725037833z" style="fill:rgb(41,170,178)"></path><path d="M210.1031181710658,-180.19495810366507L219.65962126459524,-180.68545745142478L213.0302915132351,-183.06860438747208z" style="fill:rgb(197,147,42)"></path><path d="M202.73379675849884,-182.8772042129419L208.24217948708878,-179.3955193942641L211.1705400045183,-182.26988539989475zM208.24217948708878,-179.3955193942641L217.80020820608496,-179.88620491248307L211.1705400045183,-182.26988539989475z" style="fill:rgb(41,170,178)"></path><path d="M162.0788488077223,-91.69535264026914L163.91223588901187,-82.11714553680392L168.2155503639682,-86.99710956880644z" style="fill:rgb(128,207,62)"></path><path d="M239.8759469225199,-287.6550238304579L236.53496417775554,-481.8744823740089M239.8759469225199,-287.6550238304579L236.53496417775554,-481.8744823740089" style="fill:none;stroke:rgb(0,0,0);stroke-width:1;stroke-linecap:round"></path><path d="M174.67159689827136,-87.10983557677409L171.69308030398545,-79.28089115476905L178.7083605552882,-91.55959352683378zM163.91223588901187,-82.11714553680392L171.69308030398545,-79.28089115476905L168.2155503639682,-86.99710956880644zM168.72688894165762,-94.78446182012188L174.67159689827136,-87.10983557677409L178.7083605552882,-91.55959352683378zM168.72688894165762,-94.78446182012188L162.0788488077223,-91.69535264026914L168.2155503639682,-86.99710956880644z" style="fill:rgb(128,207,62)"></path><path d="M126.0905812588659,-68.68032957659675L168.21555036396816,-86.99710956880645" style="fill:none;stroke:rgb(128,207,62);stroke-width:5;stroke-linecap:round"></path><path d="M171.69308030398545,-79.28089115476905L174.67159689827136,-87.10983557677409L168.2155503639682,-86.99710956880644zM174.67159689827136,-87.10983557677409L168.72688894165762,-94.78446182012188L168.2155503639682,-86.99710956880644z" style="fill:rgb(128,207,62)"></path><path d="M196.78620242942165,-174.47415815180963L187.4685479313761,-176.3256464562331L189.74865406141592,-173.06969549695566zM187.4685479313761,-176.3256464562331L181.2995703516191,-173.67803727728491L189.74865406141592,-173.06969549695566z" style="fill:rgb(197,147,42)"></path><path d="M164.3925718782604,-127.01949775258058L166.22732265927232,-117.42856474680164L170.53523235965275,-122.32434987415702zM176.99780890298393,-122.44877457160213L174.01588192339395,-114.60144432527099L181.03571334391924,-126.86509884394405zM166.22732265927232,-117.42856474680164L174.01588192339395,-114.60144432527099L170.53523235965275,-122.32434987415702zM171.04748489396252,-130.12562108730253L176.99780890298393,-122.44877457160213L181.03571334391924,-126.86509884394405z" style="fill:rgb(128,207,62)"></path><path d="M193.88252803784331,-235.64407109974036L189.74865406141592,-173.0696954969556" style="fill:none;stroke:rgb(197,147,42);stroke-width:5;stroke-linecap:round"></path><path d="M196.38221099742722,-170.67986500338247L196.78620242942165,-174.47415815180963L189.74865406141592,-173.06969549695566zM186.8066037384278,-170.18703275291264L181.2995703516191,-173.67803727728491L188.71722094075386,-157.4569110072754z" style="fill:rgb(197,147,42)"></path><path d="M193.0569214324467,-172.8721002157342L183.73752206363264,-174.72436031009022L186.01657062639276,-171.46685453201806z" style="fill:rgb(41,170,178)"></path><path d="M171.04748489396252,-130.12562108730253L164.3925718782604,-127.01949775258058L170.53523235965275,-122.32434987415702z" style="fill:rgb(128,207,62)"></path><path d="M128.37932988527442,-104.09476867518258L170.53523235965275,-122.32434987415704" style="fill:none;stroke:rgb(128,207,62);stroke-width:5;stroke-linecap:round"></path><path d="M196.38221099742722,-170.67986500338247L186.8066037384278,-170.18703275291264L188.71722094075386,-157.4569110072754z" style="fill:rgb(197,147,42)"></path><path d="M183.73752206363264,-174.72436031009022L177.56533706463279,-172.07537456711358L186.01657062639276,-171.46685453201806z" style="fill:rgb(41,170,178)"></path><path d="M181.2995703516191,-173.67803727728491L186.8066037384278,-170.18703275291264L189.74865406141592,-173.06969549695566z" style="fill:rgb(197,147,42)"></path><path d="M174.01588192339395,-114.60144432527099L176.99780890298393,-122.44877457160213L170.53523235965275,-122.32434987415702zM176.99780890298393,-122.44877457160213L171.04748489396252,-130.12562108730253L170.53523235965275,-122.32434987415702z" style="fill:rgb(128,207,62)"></path><path d="M186.8066037384278,-170.18703275291264L196.38221099742722,-170.67986500338247L189.74865406141592,-173.06969549695566z" style="fill:rgb(197,147,42)"></path><path d="M190.14562777649763,-234.05499344346393L186.01657062639276,-171.46685453201803" style="fill:none;stroke:rgb(41,170,178);stroke-width:5;stroke-linecap:round"></path><path d="M192.6508032126962,-169.07595180500874L193.0569214324467,-172.8721002157342L186.01657062639276,-171.46685453201806zM183.07213244505246,-168.58274512281682L177.56533706463279,-172.07537456711358L184.98633986902598,-155.85064400045007zM192.6508032126962,-169.07595180500874L183.07213244505246,-168.58274512281682L184.98633986902598,-155.85064400045007zM177.56533706463279,-172.07537456711358L183.07213244505246,-168.58274512281682L186.01657062639276,-171.46685453201806zM183.07213244505246,-168.58274512281682L192.6508032126962,-169.07595180500874L186.01657062639276,-171.46685453201806z" style="fill:rgb(41,170,178)"></path><path d="M166.71043103941935,-162.40678951677458L168.54654746856406,-152.80310039494609L172.859061955081,-157.71475541211504zM179.3281815498352,-157.85092047896546L176.34283674457305,-149.98515113865957L183.3672244050618,-162.23368437518533zM168.54654746856406,-152.80310039494609L176.34283674457305,-149.98515113865957L172.859061955081,-157.71475541211504zM173.37223089858523,-165.52998293819064L179.3281815498352,-157.85092047896546L183.3672244050618,-162.23368437518533zM173.37223089858523,-165.52998293819064L166.71043103941935,-162.40678951677458L172.859061955081,-157.71475541211504z" style="fill:rgb(128,207,62)"></path><path d="M130.67218281504248,-139.57271479227185L172.85906195508096,-157.71475541211504" style="fill:none;stroke:rgb(128,207,62);stroke-width:5;stroke-linecap:round"></path><path d="M176.34283674457305,-149.98515113865957L179.3281815498352,-157.85092047896546L172.859061955081,-157.71475541211504zM179.3281815498352,-157.85092047896546L173.37223089858523,-165.52998293819064L172.859061955081,-157.71475541211504z" style="fill:rgb(128,207,62)"></path><path d="M173.44634696041064,-164.44761397042055L164.11777790682436,-166.3039350375724L166.3912510956695,-163.03824712237727zM164.11777790682436,-166.3039350375724L157.9287128463637,-163.64770468962078L166.3912510956695,-163.03824712237727z" style="fill:rgb(197,147,42)"></path><path d="M170.4949282819723,-225.69873951291135L166.39125109566947,-163.03824712237724" style="fill:none;stroke:rgb(197,147,42);stroke-width:5;stroke-linecap:round"></path><path d="M173.0290276418654,-160.64170215200508L173.44634696041064,-164.44761397042055L166.3912510956695,-163.03824712237727zM163.43424237040182,-160.14652439624993L157.9287128463637,-163.64770468962078L165.36735559107848,-147.40402601739606z" style="fill:rgb(197,147,42)"></path><path d="M169.03243739184694,-197.85739740900874L170.86992142144962,-188.24092185625665L175.18705028409136,-193.1684957437626zM181.66272601134816,-193.3164430276355L178.6739559164644,-185.43218112589125L185.70290489303545,-197.66551932949352z" style="fill:rgb(128,207,62)"></path><path d="M236.53496417775554,-481.8744823740089L236.53496417775554,-481.8744823740089L239.8759469225199,-287.6550238304579z" style="fill:rgb(0,0,0); fill-opacity: 0.2"></path><path d="M170.86992142144962,-188.24092185625665L178.6739559164644,-185.43218112589125L175.18705028409136,-193.1684957437626z" style="fill:rgb(128,207,62)"></path><path d="M239.8759469225199,-287.6550238304579L113.40728636864677,-234.16246932938503L240.43014813448417,-255.43795851320314z" style="fill:rgb(0,0,0); fill-opacity: 0.2"></path><path d="M173.0290276418654,-160.64170215200508L163.43424237040182,-160.14652439624993L165.36735559107848,-147.40402601739606z" style="fill:rgb(197,147,42)"></path><path d="M175.70113809814714,-200.99771706762854L181.66272601134816,-193.3164430276355L185.70290489303545,-197.66551932949352z" style="fill:rgb(128,207,62)"></path><path d="M157.9287128463637,-163.64770468962078L163.43424237040182,-160.14652439624993L166.3912510956695,-163.03824712237727z" style="fill:rgb(197,147,42)"></path><path d="M167.83347808611015,-162.03638748158306L158.50228630843475,-163.8938716343611L160.77415936799883,-160.6258399825924z" style="fill:rgb(41,170,178)"></path><path d="M175.70113809814714,-200.99771706762854L169.03243739184694,-197.85739740900874L175.18705028409136,-193.1684957437626z" style="fill:rgb(128,207,62)"></path><path d="M132.96915109815384,-175.11433890731374L175.18705028409133,-193.1684957437626" style="fill:none;stroke:rgb(128,207,62);stroke-width:5;stroke-linecap:round"></path><path d="M158.50228630843475,-163.8938716343611L152.3083856536208,-161.23556594023907L160.77415936799883,-160.6258399825924z" style="fill:rgb(41,170,178)"></path><path d="M163.43424237040182,-160.14652439624993L173.0290276418654,-160.64170215200508L166.3912510956695,-163.03824712237727z" style="fill:rgb(197,147,42)"></path><path d="M178.6739559164644,-185.43218112589125L181.66272601134816,-193.3164430276355L175.18705028409136,-193.1684957437626zM181.66272601134816,-193.3164430276355L175.70113809814714,-200.99771706762854L175.18705028409136,-193.1684957437626z" style="fill:rgb(128,207,62)"></path><path d="M164.87055677445818,-223.30703449856074L160.77415936799883,-160.62583998259237" style="fill:none;stroke:rgb(41,170,178);stroke-width:5;stroke-linecap:round"></path><path d="M167.41294747786768,-158.2276789152469L167.83347808611015,-162.03638748158306L160.77415936799883,-160.6258399825924zM157.81354844857134,-157.73193635340087L152.3083856536208,-161.23556594023907L159.7520810071512,-144.9864656274987zM167.41294747786768,-158.2276789152469L157.81354844857134,-157.73193635340087L159.7520810071512,-144.9864656274987zM152.3083856536208,-161.23556594023907L157.81354844857134,-157.73193635340087L160.77415936799883,-160.6258399825924zM157.81354844857134,-157.73193635340087L167.41294747786768,-158.2276789152469L160.77415936799883,-160.6258399825924z" style="fill:rgb(41,170,178)"></path><path d="M113.40728636864677,-234.16246932938503L77.57372846027035,325.3988251789118L135.2702458242944,-210.71981261407788z" style="fill:rgb(0,0,0); fill-opacity: 0.2"></path><path d="M171.35860207595002,-233.37149151244904L173.19745566225993,-223.74219911232677L177.51920852040837,-228.68574103761964zM184.0014535000835,-228.8455125546227L181.0092506279496,-220.94270442525587L188.0427660020899,-233.16077352153695zM173.19745566225993,-223.74219911232677L181.0092506279496,-220.94270442525587L177.51920852040837,-228.68574103761964zM178.03421767519538,-236.52899377849633L184.0014535000835,-228.8455125546227L188.0427660020899,-233.16077352153695zM178.03421767519538,-236.52899377849633L171.35860207595002,-233.37149151244904L177.51920852040837,-228.68574103761964z" style="fill:rgb(128,207,62)"></path><path d="M135.2702458242944,-210.71981261407777L177.5192085204083,-228.68574103761964" style="fill:none;stroke:rgb(128,207,62);stroke-width:5;stroke-linecap:round"></path><path d="M181.0092506279496,-220.94270442525587L184.0014535000835,-228.8455125546227L177.51920852040837,-228.68574103761964zM184.0014535000835,-228.8455125546227L178.03421767519538,-236.52899377849633L177.51920852040837,-228.68574103761964z" style="fill:rgb(128,207,62)"></path><path d="M150.03043262552936,-154.38839574012627L140.6909272945445,-156.24957126123894L142.95771216725532,-152.97410016482408z" style="fill:rgb(197,147,42)"></path><path d="M113.40728636864677,-234.16246932938503L236.53496417775554,-481.8744823740089M236.53496417775554,-481.8744823740089L236.53496417775554,-481.8744823740089M113.40728636864677,-234.16246932938503L236.53496417775554,-481.8744823740089M236.53496417775554,-481.8744823740089L-195.81113235300148,-304.9161450821412" style="fill:none;stroke:rgb(0,0,0);stroke-width:1;stroke-linecap:round"></path><path d="M140.6909272945445,-156.24957126123894L134.4816764798458,-153.5846775671309L142.95771216725532,-152.97410016482408z" style="fill:rgb(197,147,42)"></path><path d="M147.03097339143238,-215.72093870561648L142.95771216725532,-152.97410016482405" style="fill:none;stroke:rgb(197,147,42);stroke-width:5;stroke-linecap:round"></path><path d="M149.59970060763908,-150.57080960228635L150.03043262552936,-154.38839574012627L142.95771216725532,-152.97410016482408zM139.98566305842473,-150.07327365249512L134.4816764798458,-153.5846775671309L141.94140892573543,-137.31838551887324z" style="fill:rgb(197,147,42)"></path><path d="M239.8759469225199,-287.6550238304579L113.40728636864677,-234.16246932938503L236.53496417775554,-481.8744823740089z" style="fill:rgb(0,0,0); fill-opacity: 0.2"></path><path d="M149.59970060763908,-150.57080960228635L139.98566305842473,-150.07327365249512L141.94140892573543,-137.31838551887324zM134.4816764798458,-153.5846775671309L139.98566305842473,-150.07327365249512L142.95771216725532,-152.97410016482408zM139.98566305842473,-150.07327365249512L149.59970060763908,-150.57080960228635L142.95771216725532,-152.97410016482408z" style="fill:rgb(197,147,42)"></path><path d="M142.5212156511884,-151.162519047752L133.17820611749232,-153.0252525973955L135.44283896263713,-149.7466410716971zM133.17820611749232,-153.0252525973955L126.9624750013412,-150.35757767975633L135.44283896263713,-149.7466410716971z" style="fill:rgb(41,170,178)"></path><path d="M139.50632051801432,-212.52115896408307L135.4428389626371,-149.74664107169707" style="fill:none;stroke:rgb(41,170,178);stroke-width:5;stroke-linecap:round"></path><path d="M142.086173556209,-147.34118531586023L142.5212156511884,-151.162519047752L135.44283896263713,-149.7466410716971zM132.46595952454652,-146.84289204994047L126.9624750013412,-150.35757767975633L134.4289768544437,-134.08403643479917zM142.086173556209,-147.34118531586023L132.46595952454652,-146.84289204994047L134.4289768544437,-134.08403643479917zM126.9624750013412,-150.35757767975633L132.46595952454652,-146.84289204994047L135.44283896263713,-149.7466410716971zM132.46595952454652,-146.84289204994047L142.086173556209,-147.34118531586023L135.44283896263713,-149.7466410716971z" style="fill:rgb(41,170,178)"></path><path d="M240.43014813448417,-255.43795851320314L114.05244633839675,-201.69716584259248L113.40728636864677,-234.16246932938503z" style="fill:rgb(0,0,0); fill-opacity: 0.2"></path><path d="M127.71452533075808,-144.8017283875418L118.36461038133919,-146.66753585467833L120.62498966498066,-143.3827276490571z" style="fill:rgb(186,45,138)"></path><path d="M126.53808703221932,-144.29634348519573L117.1876236635153,-146.16239528684156L119.44766440845562,-142.87709448649028z" style="fill:rgb(197,147,42)"></path><path d="M118.36461038133919,-146.66753585467833L112.13609148949014,-143.9943726641644L120.62498966498066,-143.3827276490571z" style="fill:rgb(186,45,138)"></path><path d="M117.1876236635153,-146.16239528684156L110.95808817895521,-143.48879579385155L119.44766440845562,-142.87709448649028z" style="fill:rgb(197,147,42)"></path><path d="M124.66915119928099,-206.21180827290374L120.62498966498066,-143.38272764905707" style="fill:none;stroke:rgb(186,45,138);stroke-width:5;stroke-linecap:round"></path><path d="M127.27097212754735,-140.9729997733335L127.71452533075808,-144.8017283875418L120.62498966498066,-143.3827276490571zM117.63857574246906,-140.47321170711223L112.13609148949014,-143.9943726641644L119.61595006820804,-127.70654121570574z" style="fill:rgb(186,45,138)"></path><path d="M123.49028883190674,-205.7105094110644L119.44766440845562,-142.87709448649025" style="fill:none;stroke:rgb(197,147,42);stroke-width:5;stroke-linecap:round"></path><path d="M126.09385688389237,-140.46702701875256L126.53808703221932,-144.29634348519573L119.44766440845562,-142.87709448649028zM116.46049237024252,-139.96712009927555L110.95808817895521,-143.48879579385155L118.43900849211727,-127.19982915860976z" style="fill:rgb(197,147,42)"></path><path d="M127.27097212754735,-140.9729997733335L117.63857574246906,-140.47321170711223L119.61595006820804,-127.70654121570574zM112.13609148949014,-143.9943726641644L117.63857574246906,-140.47321170711223L120.62498966498066,-143.3827276490571z" style="fill:rgb(186,45,138)"></path><path d="M126.09385688389237,-140.46702701875256L116.46049237024252,-139.96712009927555L118.43900849211727,-127.19982915860976zM110.95808817895521,-143.48879579385155L116.46049237024252,-139.96712009927555L119.44766440845562,-142.87709448649028z" style="fill:rgb(197,147,42)"></path><path d="M117.63857574246906,-140.47321170711223L127.27097212754735,-140.9729997733335L120.62498966498066,-143.3827276490571z" style="fill:rgb(186,45,138)"></path><path d="M116.46049237024252,-139.96712009927555L126.09385688389237,-140.46702701875256L119.44766440845562,-142.87709448649028z" style="fill:rgb(197,147,42)"></path><path d="M-92.53762525814363,403.75241234446787L-238.61979709054555,457.4904698464628M-111.44663907993194,414.70504721442035L-92.53762525814363,403.75241234446787" style="fill:none;stroke:rgb(0,0,0);stroke-width:1;stroke-linecap:round"></path><path d="M117.1196641634311,-140.25029302278853L107.76481147817057,-142.11830147860846L110.02213884617531,-138.82905570324266zM107.76481147817057,-142.11830147860846L101.52713428446457,-139.44120771714552L110.02213884617531,-138.82905570324266z" style="fill:rgb(41,170,178)"></path><path d="M114.05244633839675,-201.69716584259248L110.02213884617531,-138.82905570324272" style="fill:none;stroke:rgb(41,170,178);stroke-width:5;stroke-linecap:round"></path><path d="M116.67001070270335,-136.41626866119543L117.1196641634311,-140.25029302278853L110.02213884617531,-138.82905570324266zM107.0288943960182,-135.9154097570577L101.52713428446457,-139.44120771714552L109.01655737098523,-123.14315405470745zM116.67001070270335,-136.41626866119543L107.0288943960182,-135.9154097570577L109.01655737098523,-123.14315405470745z" style="fill:rgb(41,170,178)"></path><path d="M135.2702458242944,-210.71981261407788L113.40728636864677,-234.16246932938503" style="fill:none;stroke:rgb(0,0,0);stroke-width:1;stroke-linecap:round"></path><path d="M114.05244633839675,-201.69716584259248L135.2702458242944,-210.71981261407788" style="fill:none;stroke:rgb(97,2,64);stroke-width:5;stroke-linecap:round"></path><path d="M135.2702458242944,-210.71981261407788L113.40728636864677,-234.16246932938503" style="fill:none;stroke:rgb(0,0,0);stroke-width:1;stroke-linecap:round"></path><path d="M101.52713428446457,-139.44120771714552L107.0288943960182,-135.9154097570577L110.02213884617531,-138.82905570324266zM107.0288943960182,-135.9154097570577L116.67001070270335,-136.41626866119543L110.02213884617531,-138.82905570324266z" style="fill:rgb(41,170,178)"></path><path d="M-372.4207538459606,-368.5958962108691L-411.5493988822459,389.33152890779525M-238.6197970905455,457.4904698464629L-411.5493988822459,389.33152890779525" style="fill:none;stroke:rgb(0,0,0);stroke-width:1;stroke-linecap:round"></path><path d="M102.96893535291487,-134.1712961838458L93.60749214790128,-136.04224622901245L95.86073251279844,-132.74706890218317zM93.60749214790128,-136.04224622901245L87.35757243051502,-133.35989820658804L95.86073251279844,-132.74706890218317z" style="fill:rgb(197,147,42)"></path><path d="M99.87249761553153,-195.66729131911876L95.86073251279842,-132.74706890218317" style="fill:none;stroke:rgb(197,147,42);stroke-width:5;stroke-linecap:round"></path><path d="M102.51112101938884,-130.3301930169536L102.96893535291487,-134.1712961838458L95.86073251279844,-132.74706890218317zM92.85835443008602,-129.82790226451118L87.35757243051502,-133.35989820658804L94.85977940254337,-117.0481955351294zM102.51112101938884,-130.3301930169536L92.85835443008602,-129.82790226451118L94.85977940254337,-117.0481955351294zM87.35757243051502,-133.35989820658804L92.85835443008602,-129.82790226451118L95.86073251279844,-132.74706890218317zM92.85835443008602,-129.82790226451118L102.51112101938884,-130.3301930169536L95.86073251279844,-132.74706890218317z" style="fill:rgb(197,147,42)"></path><path d="M114.05244633839675,-201.69716584259248L135.2702458242944,-210.71981261407788L113.40728636864677,-234.16246932938503z" style="fill:rgb(0,0,0); fill-opacity: 0.2"></path><path d="M-111.44663907993194,414.70504721442035L-79.75742589708264,-119.28154969117662" style="fill:none;stroke:rgb(114,20,32);stroke-width:5;stroke-linecap:round"></path><path d="M-111.44663907993194,414.70504721442023L-154.72586229554398,434.6461570770891" style="fill:none;stroke:rgb(212,72,90);stroke-width:5;stroke-linecap:round"></path><path d="M114.05244633839675,-201.69716584259248L113.40728636864677,-234.16246932938503M114.05244633839675,-201.69716584259248L113.40728636864677,-234.16246932938503" style="fill:none;stroke:rgb(0,0,0);stroke-width:1;stroke-linecap:round"></path><path d="M113.40728636864677,-234.16246932938503L113.40728636864677,-234.16246932938503L114.05244633839675,-201.69716584259248z" style="fill:rgb(0,0,0); fill-opacity: 0.2"></path><path d="M-109.3606483170148,379.55456549562854L-152.67277906930582,399.40978505071985" style="fill:none;stroke:rgb(212,72,90);stroke-width:5;stroke-linecap:round"></path><path d="M79.32260030510788,-124.0130917596771L69.95015542712295,-125.88896214885376L72.19653871508663,-122.58386117074619zM69.95015542712295,-125.88896214885376L63.67975126130014,-123.19782258633943L72.19653871508663,-122.58386117074619z" style="fill:rgb(197,147,42)"></path><path d="M76.17722028077165,-185.59112306773994L72.19653871508662,-122.58386117074613" style="fill:none;stroke:rgb(197,147,42);stroke-width:5;stroke-linecap:round"></path><path d="M78.85111510252115,-120.16014515487028L79.32260030510788,-124.0130917596771L72.19653871508663,-122.58386117074619zM69.17887089865211,-119.65545761781524L63.67975126130014,-123.19782258633943L71.2033443143267,-106.86332218999496zM78.85111510252115,-120.16014515487028L69.17887089865211,-119.65545761781524L71.2033443143267,-106.86332218999496zM63.67975126130014,-123.19782258633943L69.17887089865211,-119.65545761781524L72.19653871508663,-122.58386117074619zM69.17887089865211,-119.65545761781524L78.85111510252115,-120.16014515487028L72.19653871508663,-122.58386117074619z" style="fill:rgb(197,147,42)"></path><path d="M-189.69597840734656,-72.53133289664989L240.43014813448417,-255.43795851320314L239.8759469225199,-287.6550238304579z" style="fill:rgb(0,0,0); fill-opacity: 0.2"></path><path d="M-107.270898751034,344.3407451749974L-150.61598539256397,364.1097318190983" style="fill:none;stroke:rgb(212,72,90);stroke-width:5;stroke-linecap:round"></path><path d="M55.59870213121668,-113.8215670730259L46.21523370573075,-115.70238004530009L48.45470277123027,-112.38730798639715z" style="fill:rgb(197,147,42)"></path><path d="M-105.17738021319482,309.0634149008409L-148.55547119761067,328.74582459356293" style="fill:none;stroke:rgb(212,72,90);stroke-width:5;stroke-linecap:round"></path><path d="M46.21523370573075,-115.70238004530009L39.92424421785878,-113.00240564963806L48.45470277123027,-112.38730798639715z" style="fill:rgb(197,147,42)"></path><path d="M52.40407487209805,-175.48184223434407L48.454702771230245,-112.38730798639708" style="fill:none;stroke:rgb(197,147,42);stroke-width:5;stroke-linecap:round"></path><path d="M55.11345874112452,-109.95671992423746L55.59870213121668,-113.8215670730259L48.45470277123027,-112.38730798639715zM45.42166095288782,-109.44962256180939L39.92424421785878,-113.00240564963806L47.469323409644915,-96.64504559914195zM55.11345874112452,-109.95671992423746L45.42166095288782,-109.44962256180939L47.469323409644915,-96.64504559914195zM39.92424421785878,-113.00240564963806L45.42166095288782,-109.44962256180939L48.45470277123027,-112.38730798639715zM45.42166095288782,-109.44962256180939L55.11345874112452,-109.95671992423746L48.45470277123027,-112.38730798639715z" style="fill:rgb(197,147,42)"></path><path d="M-154.2732947448476,426.87889349049874L-160.86120938814778,429.78870647162563L-165.58563633645278,439.64985009982803zM-151.21284486741416,442.4483758962624L-148.30746255973352,434.7051619162269L-165.58563633645278,439.64985009982803zM-148.30746255973352,434.7051619162269L-154.2732947448476,426.87889349049874L-165.58563633645278,439.64985009982803z" style="fill:rgb(212,72,90)"></path><path d="M-190.56592731617832,-105.59066641244662L239.8759469225199,-287.6550238304579L236.53496417775554,-481.8744823740089z" style="fill:rgb(0,0,0); fill-opacity: 0.2"></path><path d="M-103.08008249798945,273.7224027028315L-146.4912263802821,293.3178899597748" style="fill:none;stroke:rgb(212,72,90);stroke-width:5;stroke-linecap:round"></path><path d="M-92.53762525814363,403.75241234446787L-58.737686355214194,-161.3501670942855L-111.44663907993194,414.70504721442035zM-195.81113235300145,-304.91614508214116L236.53496417775563,-481.8744823740089L61.873176476061026,-542.3929551490996z" style="fill:rgb(0,0,0); fill-opacity: 0.2"></path><path d="M-152.2193939004935,391.62848896133556L-158.81409234957374,394.5553002721414L-163.5408465223844,404.39194274355066zM-149.1565779792683,407.2188411264511L-146.24790151213173,399.45715054047804L-163.5408465223844,404.39194274355066zM-146.24790151213173,399.45715054047804L-152.2193939004935,391.62848896133556L-163.5408465223844,404.39194274355066z" style="fill:rgb(212,72,90)"></path><path d="M31.7968585782561,-103.59655791223082L22.4023446930807,-105.4823358463955L24.634841937879845,-102.15724496998159zM22.4023446930807,-105.4823358463955L16.09066834613551,-102.77348303980425L24.634841937879845,-102.15724496998159z" style="fill:rgb(197,147,42)"></path><path d="M-100.9789953630313,238.31753598920633L-144.42324079979366,257.82575387488185" style="fill:none;stroke:rgb(212,72,90);stroke-width:5;stroke-linecap:round"></path><path d="M28.5526769194644,-165.33928532707486L24.634841937879834,-102.15724496998156" style="fill:none;stroke:rgb(197,147,42);stroke-width:5;stroke-linecap:round"></path><path d="M31.29776904209028,-99.71975274178097L31.7968585782561,-103.59655791223082L24.634841937879845,-102.15724496998159zM21.58634126557488,-99.21023242335353L16.09066834613551,-102.77348303980425L23.657334375212557,-86.39320116412708zM31.29776904209028,-99.71975274178097L21.58634126557488,-99.21023242335353L23.657334375212557,-86.39320116412708zM16.09066834613551,-102.77348303980425L21.58634126557488,-99.21023242335353L24.634841937879845,-102.15724496998159zM21.58634126557488,-99.21023242335353L31.29776904209028,-99.71975274178097L24.634841937879845,-102.15724496998159z" style="fill:rgb(197,147,42)"></path><path d="M-150.1617803879433,356.3143651654161L-156.76327641538023,359.2582315221542L-161.49235851100886,369.0702681007072zM-147.0965948650989,371.92563713419315L-144.18461707067758,364.14541576647554L-161.49235851100886,369.0702681007072zM-144.18461707067758,364.14541576647554L-150.1617803879433,356.3143651654161L-161.49235851100886,369.0702681007072z" style="fill:rgb(212,72,90)"></path><path d="M-98.87410852888817,202.84864154395706L-142.35150427857374,222.26924166466952" style="fill:none;stroke:rgb(212,72,90);stroke-width:5;stroke-linecap:round"></path><path d="M-148.10044413146164,320.936349176305L-154.70875155130875,323.8973275197173L-159.44016226043175,333.6846530208933z" style="fill:rgb(212,72,90)"></path><path d="M7.9166848773070715,-93.33789898481304L-1.4888964171906387,-95.2286644004843L0.7365709518591206,-91.89350666013942z" style="fill:rgb(197,147,42)"></path><path d="M-145.03288544146773,336.5685911623252L-142.1175991291849,328.76978463359535L-159.44016226043175,333.6846530208933z" style="fill:rgb(212,72,90)"></path><path d="M-1.4888964171906387,-95.2286644004843L-7.821361829107414,-92.51088931811424L0.7365709518591206,-91.89350666013942z" style="fill:rgb(197,147,42)"></path><path d="M-142.1175991291849,328.76978463359535L-148.10044413146164,320.936349176305L-159.44016226043175,333.6846530208933z" style="fill:rgb(212,72,90)"></path><path d="M4.6226394175809915,-155.1632877759906L0.7365709518591074,-91.89350666013945" style="fill:none;stroke:rgb(197,147,42);stroke-width:5;stroke-linecap:round"></path><path d="M7.403660590779029,-89.44907794036843L7.9166848773070715,-93.33789898481304L0.7365709518591206,-91.89350666013942zM-2.327474015287333,-88.93712144468887L-7.821361829107414,-92.51088931811424L-0.23300761824682692,-76.10762320329009zM7.403660590779029,-89.44907794036843L-2.327474015287333,-88.93712144468887L-0.23300761824682692,-76.10762320329009z" style="fill:rgb(197,147,42)"></path><path d="M-96.76541167891467,167.31554552400556L-140.27600660209677,186.6481780206951" style="fill:none;stroke:rgb(212,72,90);stroke-width:5;stroke-linecap:round"></path><path d="M-7.821361829107414,-92.51088931811424L-2.327474015287333,-88.93712144468887L0.7365709518591206,-91.89350666013942zM-2.327474015287333,-88.93712144468887L7.403660590779029,-89.44907794036843L0.7365709518591206,-91.89350666013942z" style="fill:rgb(197,147,42)"></path><path d="M-195.81113235300148,-304.9161450821412L-238.61979709054555,457.4904698464628" style="fill:none;stroke:rgb(0,0,0);stroke-width:1;stroke-linecap:round"></path><path d="M-146.03537501882087,285.49426744126475L-152.6505076867742,288.47241493765125L-157.3842476923694,298.2349237262516zM-142.96543958842372,301.14752982811655L-140.0468375448603,293.3300835547041L-157.3842476923694,298.2349237262516zM-140.0468375448603,293.3300835547041L-146.03537501882087,285.49426744126475L-157.3842476923694,298.2349237262516z" style="fill:rgb(212,72,90)"></path><path d="M-94.65289445908367,131.71807345636321L-138.19673751871534,150.96238699740658" style="fill:none;stroke:rgb(212,72,90);stroke-width:5;stroke-linecap:round"></path><path d="M-16.042206277216977,-83.04542390856926L-25.45887696789401,-84.94119946731568L-23.24049799060653,-81.59592650438407zM-25.45887696789401,-84.94119946731568L-31.812234325071852,-82.21445795488097L-23.24049799060653,-81.59592650438407z" style="fill:rgb(197,147,42)"></path><path d="M-143.96656290113586,249.98794577841772L-150.58853471469962,252.98331982071124L-155.32460469198384,262.72090580862726zM-140.89424714933742,265.6622791204345L-137.97232213813726,257.8261383133204L-155.32460469198384,262.72090580862726z" style="fill:rgb(212,72,90)"></path><path d="M-19.386427195017266,-144.9536839241624L-23.240497990606542,-81.59592650438408" style="fill:none;stroke:rgb(197,147,42);stroke-width:5;stroke-linecap:round"></path><path d="M-16.5692545697709,-79.14452876007252L-16.042206277216977,-83.04542390856926L-23.24049799060653,-81.59592650438407zM-26.320173287302953,-78.63012277449357L-31.812234325071852,-82.21445795488097L-24.202089936732264,-65.78814494282832z" style="fill:rgb(197,147,42)"></path><path d="M-137.97232213813726,257.8261383133204L-143.96656290113586,249.98794577841772L-155.32460469198384,262.72090580862726z" style="fill:rgb(212,72,90)"></path><path d="M-16.5692545697709,-79.14452876007252L-26.320173287302953,-78.63012277449357L-24.202089936732264,-65.78814494282832zM-31.812234325071852,-82.21445795488097L-26.320173287302953,-78.63012277449357L-23.24049799060653,-81.59592650438407z" style="fill:rgb(197,147,42)"></path><path d="M-411.5493988822459,389.33152890779525L-372.4207538459606,-368.5958962108691L-238.6197970905455,457.4904698464629z" style="fill:rgb(0,0,0); fill-opacity: 0.2"></path><path d="M-26.320173287302953,-78.63012277449357L-16.5692545697709,-79.14452876007252L-23.24049799060653,-81.59592650438407z" style="fill:rgb(197,147,42)"></path><path d="M-92.53654647781671,96.05605023527575L-136.11368673949147,115.21169200924571" style="fill:none;stroke:rgb(212,72,90);stroke-width:5;stroke-linecap:round"></path><path d="M-141.89399759269781,214.41720937389294L-148.5228224913511,217.42986758273983L-153.26122310771706,227.14242422670762zM-138.81929793073476,230.1126643968951L-135.89404269250903,222.25777406075906L-153.26122310771706,227.14242422670762zM-135.89404269250903,222.25777406075906L-141.89399759269781,214.41720937389294L-153.26122310771706,227.14242422670762z" style="fill:rgb(212,72,90)"></path><path d="M-111.44663907993194,414.70504721442035L-79.75742589708264,-119.28154969117662L-58.737686355214194,-161.3501670942855z" style="fill:rgb(0,0,0); fill-opacity: 0.2"></path><path d="M-90.41635730581386,60.32930011935176L-134.02684393802676,79.39591582773522" style="fill:none;stroke:rgb(212,72,90);stroke-width:5;stroke-linecap:round"></path><path d="M-40.08020474850888,-72.71896520257691L-49.507986859220885,-74.6197737090589L-47.29675525486657,-71.26433685009353zM-49.507986859220885,-74.6197737090589L-55.88233972191181,-71.88402132044668L-47.29675525486657,-71.26433685009353z" style="fill:rgb(197,147,42)"></path><path d="M-43.47491505710986,-134.71030701868588L-47.29675525486657,-71.26433685009353" style="fill:none;stroke:rgb(197,147,42);stroke-width:5;stroke-linecap:round"></path><path d="M-40.62136695984024,-68.80593733914547L-40.08020474850888,-72.71896520257691L-47.29675525486657,-71.26433685009353zM-50.39214751470706,-68.28906845884941L-55.88233972191181,-71.88402132044668L-48.250302503901494,-55.4345985077829z" style="fill:rgb(197,147,42)"></path><path d="M-139.81766887080693,178.7818827789571L-146.45336083617133,181.8118830038041L-151.19409275112403,191.49930330314626z" style="fill:rgb(212,72,90)"></path><path d="M-40.62136695984024,-68.80593733914547L-50.39214751470706,-68.28906845884941L-48.250302503901494,-55.4345985077829zM-55.88233972191181,-71.88402132044668L-50.39214751470706,-68.28906845884941L-47.29675525486657,-71.26433685009353z" style="fill:rgb(197,147,42)"></path><path d="M-136.74058170212962,194.49851038099806L-133.8119889543614,186.6248153132619L-151.19409275112403,191.49930330314626zM-133.8119889543614,186.6248153132619L-139.81766887080693,178.7818827789571L-151.19409275112403,191.49930330314626z" style="fill:rgb(212,72,90)"></path><path d="M-50.39214751470706,-68.28906845884941L-40.62136695984024,-68.80593733914547L-47.29675525486657,-71.26433685009353z" style="fill:rgb(197,147,42)"></path><path d="M-88.29231647588215,24.53764672867601L-131.93619875029194,43.514880578550546" style="fill:none;stroke:rgb(212,72,90);stroke-width:5;stroke-linecap:round"></path><path d="M-54.54113849126788,-66.50670775015075L-63.97559804075644,-68.4105470314679L-61.768683366215434,-65.04898833970888zM-63.97559804075644,-68.4105470314679L-70.36259820064568,-65.66936666071142L-61.768683366215434,-65.04898833970888z" style="fill:rgb(112,56,202)"></path><path d="M-238.61979709054555,457.4904698464628L-195.81113235300148,-304.9161450821412L-92.53762525814363,403.75241234446787z" style="fill:rgb(0,0,0); fill-opacity: 0.2"></path><path d="M-137.7375664756045,143.08178990712997L-144.38013953161243,146.12919022731705L-149.12320339670524,155.79136672167184z" style="fill:rgb(212,72,90)"></path><path d="M-57.966294076150625,-128.54800002698192L-61.768683366215434,-65.04898833970886" style="fill:none;stroke:rgb(112,56,202);stroke-width:5;stroke-linecap:round"></path><path d="M-55.09081248749417,-62.586371964939985L-54.54113849126788,-66.50670775015075L-61.768683366215434,-65.04898833970888zM-64.8735476391146,-62.06801887486511L-70.36259820064568,-65.66936666071142L-62.717375736678775,-49.20604767156605z" style="fill:rgb(112,56,202)"></path><path d="M-134.65808819585595,158.81964115924606L-131.72615063280378,150.92708594911116L-149.12320339670524,155.79136672167184z" style="fill:rgb(212,72,90)"></path><path d="M-55.09081248749417,-62.586371964939985L-64.8735476391146,-62.06801887486511L-62.717375736678775,-49.20604767156605z" style="fill:rgb(112,56,202)"></path><path d="M-131.72615063280378,150.92708594911116L-137.7375664756045,143.08178990712997L-149.12320339670524,155.79136672167184z" style="fill:rgb(212,72,90)"></path><path d="M-70.36259820064568,-65.66936666071142L-64.8735476391146,-62.06801887486511L-61.768683366215434,-65.04898833970888zM-64.8735476391146,-62.06801887486511L-55.09081248749417,-62.586371964939985L-61.768683366215434,-65.04898833970888z" style="fill:rgb(112,56,202)"></path><path d="M-86.16441348276344,-11.319086958093381L-129.84174077445516,7.568407738574711" style="fill:none;stroke:rgb(212,72,90);stroke-width:5;stroke-linecap:round"></path><path d="M-64.19770297851444,-62.35835427810958L-73.63661856988399,-64.26421868123045L-71.43259378903052,-60.898568935411795z" style="fill:rgb(197,147,42)"></path><path d="M-65.40567183361513,-61.83942419683765L-74.84514467876524,-63.745541999802406L-72.64148180814243,-60.3793803179036z" style="fill:rgb(81,214,102)"></path><path d="M-73.63661856988399,-64.26421868123045L-80.03207118392955,-61.519410676085684L-71.43259378903052,-60.898568935411795z" style="fill:rgb(197,147,42)"></path><path d="M-74.84514467876524,-63.745541999802406L-81.24165502920715,-61.00028003408543L-72.64148180814243,-60.3793803179036z" style="fill:rgb(81,214,102)"></path><path d="M-372.4207538459606,-368.5958962108691L61.873176476061026,-542.3929551490996L-195.81113235300145,-304.91614508214116z" style="fill:rgb(0,0,0); fill-opacity: 0.2"></path><path d="M-67.64321890614036,-124.43298920160179L-71.43259378903052,-60.898568935411795" style="fill:none;stroke:rgb(197,147,42);stroke-width:5;stroke-linecap:round"></path><path d="M-64.75306968423443,-58.43313470490395L-64.19770297851444,-62.35835427810958L-71.43259378903052,-60.898568935411795zM-74.54379024960213,-57.91378943211897L-80.03207118392955,-61.519410676085684L-72.37803782221533,-45.04681491293529z" style="fill:rgb(197,147,42)"></path><path d="M-68.85373638463327,-123.91822933565011L-72.64148180814243,-60.37938031790363" style="fill:none;stroke:rgb(81,214,102);stroke-width:5;stroke-linecap:round"></path><path d="M-65.96175115363401,-57.9135934825984L-65.40567183361513,-61.83942419683765L-72.64148180814243,-60.3793803179036zM-75.75347077964184,-57.394124034194235L-81.24165502920715,-61.00028003408543L-73.5865191363689,-44.5265239612886z" style="fill:rgb(81,214,102)"></path><path d="M-64.75306968423443,-58.43313470490395L-74.54379024960213,-57.91378943211897L-72.37803782221533,-45.04681491293529zM-80.03207118392955,-61.519410676085684L-74.54379024960213,-57.91378943211897L-71.43259378903052,-60.898568935411795z" style="fill:rgb(197,147,42)"></path><path d="M-65.96175115363401,-57.9135934825984L-75.75347077964184,-57.394124034194235L-73.5865191363689,-44.5265239612886z" style="fill:rgb(81,214,102)"></path><path d="M-135.6536801099038,107.31675403128386L-142.30314832296767,110.3816127571436L-147.048544781738,120.01843752418047z" style="fill:rgb(212,72,90)"></path><path d="M-81.24165502920715,-61.00028003408543L-75.75347077964184,-57.394124034194235L-72.64148180814243,-60.3793803179036z" style="fill:rgb(81,214,102)"></path><path d="M-74.54379024960213,-57.91378943211897L-64.75306968423443,-58.43313470490395L-71.43259378903052,-60.898568935411795z" style="fill:rgb(197,147,42)"></path><path d="M-132.57180710689858,123.07588017824848L-129.63651739949958,115.16440920572785L-147.048544781738,120.01843752418047z" style="fill:rgb(212,72,90)"></path><path d="M-75.75347077964184,-57.394124034194235L-65.96175115363401,-57.9135934825984L-72.64148180814243,-60.3793803179036z" style="fill:rgb(81,214,102)"></path><path d="M-129.63651739949958,115.16440920572785L-135.6536801099038,107.31675403128386L-147.048544781738,120.01843752418047z" style="fill:rgb(212,72,90)"></path><path d="M-190.56592731617832,-105.59066641244662L239.8759469225199,-287.6550238304579L-189.69597840734656,-72.53133289664989z" style="fill:rgb(0,0,0); fill-opacity: 0.2"></path><path d="M-84.03263778296125,-47.241078606642965L-127.74345957070948,-28.443681867061958" style="fill:none;stroke:rgb(212,72,90);stroke-width:5;stroke-linecap:round"></path><path d="M-80.64321350920765,-55.2935445520842L-90.08971248710188,-57.20286014748136L-87.89062254592274,-53.83023749187733z" style="fill:rgb(112,56,202)"></path><path d="M-57.966294076150525,-128.54800002698192L-189.69597840734656,-72.53133289664989" style="fill:none;stroke:rgb(47,10,107);stroke-width:5;stroke-linecap:round"></path><path d="M-57.966294076150525,-128.54800002698192L-58.737686355214194,-161.3501670942855" style="fill:none;stroke:rgb(0,0,0);stroke-width:1;stroke-linecap:round"></path><path d="M-79.75742589708264,-119.28154969117662L-57.966294076150525,-128.54800002698192" style="fill:none;stroke:rgb(26,115,41);stroke-width:5;stroke-linecap:round"></path><path d="M-57.966294076150525,-128.54800002698192L-58.737686355214194,-161.3501670942855" style="fill:none;stroke:rgb(0,0,0);stroke-width:1;stroke-linecap:round"></path><path d="M-90.08971248710188,-57.20286014748136L-96.49957282979648,-54.45186861611594L-87.89062254592274,-53.83023749187733z" style="fill:rgb(112,56,202)"></path><path d="M-133.56599943902032,71.48659778072755L-140.22237691820268,74.5689734546904L-144.9701066061067,84.18033810781266z" style="fill:rgb(212,72,90)"></path><path d="M-84.12345906809792,-117.42493986126277L-87.89062254592274,-53.83023749187729" style="fill:none;stroke:rgb(112,56,202);stroke-width:5;stroke-linecap:round"></path><path d="M-81.20829134887558,-51.36000072097363L-80.64321350920765,-55.2935445520842L-87.89062254592274,-53.83023749187733zM-91.01261600372216,-50.838963743565536L-96.49957282979648,-54.45186861611594L-88.83052273713629,-37.96347904908526z" style="fill:rgb(112,56,202)"></path><path d="M-130.48172809272313,87.267050241809L-127.54307888849608,79.33660767675431L-144.9701066061067,84.18033810781266z" style="fill:rgb(212,72,90)"></path><path d="M-81.20829134887558,-51.36000072097363L-91.01261600372216,-50.838963743565536L-88.83052273713629,-37.96347904908526zM-96.49957282979648,-54.45186861611594L-91.01261600372216,-50.838963743565536L-87.89062254592274,-53.83023749187733z" style="fill:rgb(112,56,202)"></path><path d="M-127.54307888849608,79.33660767675431L-133.56599943902032,71.48659778072755L-144.9701066061067,84.18033810781266z" style="fill:rgb(212,72,90)"></path><path d="M-92.53762525814363,403.75241234446787L-58.737686355214194,-161.3501670942855L-195.81113235300148,-304.9161450821412z" style="fill:rgb(0,0,0); fill-opacity: 0.2"></path><path d="M-91.01261600372216,-50.838963743565536L-81.20829134887558,-51.36000072097363L-87.89062254592274,-53.83023749187733z" style="fill:rgb(112,56,202)"></path><path d="M-88.39509600928919,-51.9634214294624L-97.8451671784685,-53.87436482353039L-95.64840914536367,-50.4984528800601zM-97.8451671784685,-53.87436482353039L-104.26182448098251,-51.120456164817014L-95.64840914536367,-50.4984528800601z" style="fill:rgb(197,147,42)"></path><path d="M-81.89697879456654,-83.22850652993885L-125.64134466109958,-64.52156806795934" style="fill:none;stroke:rgb(212,72,90);stroke-width:5;stroke-linecap:round"></path><path d="M-58.737686355214194,-161.3501670942855L-195.81113235300148,-304.9161450821412M-58.737686355214194,-161.3501670942855L-195.81113235300148,-304.9161450821412M-79.75742589708264,-119.28154969117662L-58.737686355214194,-161.3501670942855M-79.75742589708264,-119.28154969117662L-58.737686355214194,-161.3501670942855" style="fill:none;stroke:rgb(0,0,0);stroke-width:1;stroke-linecap:round"></path><path d="M-91.89173609977848,-114.1215615007272L-95.64840914536367,-50.49845288006007" style="fill:none;stroke:rgb(197,147,42);stroke-width:5;stroke-linecap:round"></path><path d="M-88.96475845370016,-48.02595076452358L-88.39509600928919,-51.9634214294624L-95.64840914536367,-50.4984528800601zM-98.77549765340524,-47.50411550773196L-104.26182448098251,-51.120456164817014L-96.58569099429198,-34.624624053613836z" style="fill:rgb(197,147,42)"></path><path d="M-79.75742589708264,-119.28154969117662L-57.966294076150525,-128.54800002698192L-58.737686355214194,-161.3501670942855z" style="fill:rgb(0,0,0); fill-opacity: 0.2"></path><path d="M-88.96475845370016,-48.02595076452358L-98.77549765340524,-47.50411550773196L-96.58569099429198,-34.624624053613836zM-104.26182448098251,-51.120456164817014L-98.77549765340524,-47.50411550773196L-95.64840914536367,-50.4984528800601zM-98.77549765340524,-47.50411550773196L-88.96475845370016,-48.02595076452358L-95.64840914536367,-50.4984528800601z" style="fill:rgb(197,147,42)"></path><path d="M-58.737686355214194,-161.3501670942855L-58.737686355214194,-161.3501670942855L-79.75742589708264,-119.28154969117662z" style="fill:rgb(0,0,0); fill-opacity: 0.2"></path><path d="M-131.47451409060068,35.59114313827404L-138.137814987785,38.69109453598017L-142.8878785321327,48.276890222014266zM-128.38784077310544,51.392973507997695L-125.4458246960526,43.44350330912078L-142.8878785321327,48.276890222014266zM-125.4458246960526,43.44350330912078L-131.47451409060068,35.59114313827404L-142.8878785321327,48.276890222014266z" style="fill:rgb(212,72,90)"></path><path d="M-79.75742589708264,-119.28154969117662L-123.53538552934704,-100.6654313514402" style="fill:none;stroke:rgb(212,72,90);stroke-width:5;stroke-linecap:round"></path><path d="M-106.83879293894776,-44.04021289122168L-116.2973571481738,-45.9550318540283L-114.10616221465077,-42.5712874628772zM-116.2973571481738,-45.9550318540283L-122.73020062452065,-43.194176393862364L-114.10616221465077,-42.5712874628772z" style="fill:rgb(112,56,202)"></path><path d="M-110.37450187186973,-106.26195914033543L-114.10616221465077,-42.5712874628772" style="fill:none;stroke:rgb(112,56,202);stroke-width:5;stroke-linecap:round"></path><path d="M-107.41938158380226,-40.093391441871674L-106.83879293894776,-44.04021289122168L-114.10616221465077,-42.5712874628772zM-117.24538780848985,-39.56965464908442L-122.73020062452065,-43.194176393862364L-115.03720108647225,-26.680642104747246z" style="fill:rgb(112,56,202)"></path><path d="M-129.37921365445104,-0.36978856270734256L-136.04945216451355,2.7477975687093483L-140.80185018440272,12.307914965580876z" style="fill:rgb(212,72,90)"></path><path d="M-107.41938158380226,-40.093391441871674L-117.24538780848985,-39.56965464908442L-115.03720108647225,-26.680642104747246z" style="fill:rgb(112,56,202)"></path><path d="M-126.29013472995933,15.453471486206636L-123.34474438046847,7.484917400095414L-140.80185018440272,12.307914965580876z" style="fill:rgb(212,72,90)"></path><path d="M-122.73020062452065,-43.194176393862364L-117.24538780848985,-39.56965464908442L-114.10616221465077,-42.5712874628772z" style="fill:rgb(112,56,202)"></path><path d="M-112.67278150456781,-41.53399582468614L-122.1340303849953,-43.45004145058791L-119.94459950189581,-40.0638176760562z" style="fill:rgb(197,147,42)"></path><path d="M-123.34474438046847,7.484917400095414L-129.37921365445104,-0.36978856270734256L-140.80185018440272,12.307914965580876z" style="fill:rgb(212,72,90)"></path><path d="M-122.1340303849953,-43.45004145058791L-128.57199801010336,-40.68698680212551L-119.94459950189581,-40.0638176760562z" style="fill:rgb(197,147,42)"></path><path d="M-117.24538780848985,-39.56965464908442L-107.41938158380226,-40.093391441871674L-114.10616221465077,-42.5712874628772z" style="fill:rgb(112,56,202)"></path><path d="M-116.22086663769723,-103.77585382039501L-119.94459950189581,-40.0638176760562" style="fill:none;stroke:rgb(197,147,42);stroke-width:5;stroke-linecap:round"></path><path d="M-113.25683160655498,-37.584214295741276L-112.67278150456781,-41.53399582468614L-119.94459950189581,-40.0638176760562zM-123.08766851850947,-37.05987536887997L-128.57199801010336,-40.68698680212551L-120.87365974447383,-24.167854696408245zM-113.25683160655498,-37.584214295741276L-123.08766851850947,-37.05987536887997L-120.87365974447383,-24.167854696408245zM-128.57199801010336,-40.68698680212551L-123.08766851850947,-37.05987536887997L-119.94459950189581,-40.0638176760562zM-123.08766851850947,-37.05987536887997L-113.25683160655498,-37.584214295741276L-119.94459950189581,-40.0638176760562z" style="fill:rgb(197,147,42)"></path><path d="M-195.81113235300148,-304.9161450821412L236.53496417775554,-481.8744823740089L-190.56592731617832,-105.59066641244662z" style="fill:rgb(0,0,0); fill-opacity: 0.2"></path><path d="M-127.28008768236431,-36.39637664125576L-133.95727804334646,-33.261096530709324L-138.71201114959658,-23.726767216313206zM-124.1885995071641,-20.551634965810006L-121.23982746190951,-28.539329405680846L-138.71201114959658,-23.726767216313206zM-121.23982746190951,-28.539329405680846L-127.28008768236431,-36.39637664125576L-138.71201114959658,-23.726767216313206z" style="fill:rgb(212,72,90)"></path><path d="M-58.737686355214194,-161.3501670942855L-190.56592731617832,-105.59066641244662L-57.966294076150525,-128.54800002698192z" style="fill:rgb(0,0,0); fill-opacity: 0.2"></path><path d="M-133.12838011766178,-32.74649653947147L-142.59903540663026,-34.666846108737225L-140.41580636117402,-31.27192180153117zM-142.59903540663026,-34.666846108737225L-149.0549858507622,-31.896073572489485L-140.41580636117402,-31.27192180153117z" style="fill:rgb(112,56,202)"></path><path d="M-136.71992878585218,-95.05884256611954L-140.41580636117402,-31.27192180153114" style="fill:none;stroke:rgb(112,56,202);stroke-width:5;stroke-linecap:round"></path><path d="M-133.72458738462075,-28.78632740493704L-133.12838011766178,-32.74649653947147L-140.41580636117402,-31.27192180153117zM-143.57236782088245,-28.259874748892567L-149.0549858507622,-31.896073572489485L-141.33791419824706,-15.35732010245743z" style="fill:rgb(112,56,202)"></path><path d="M-137.03115977154863,-31.069905496228767L-146.50360853269947,-32.99107674261436L-144.32156568424517,-29.594491178341805z" style="fill:rgb(197,147,42)"></path><path d="M-125.17712568794663,-72.4888010717989L-131.86128218122866,-69.33576750012165L-136.61835097631388,-59.827336535103214z" style="fill:rgb(212,72,90)"></path><path d="M-133.72458738462075,-28.78632740493704L-143.57236782088245,-28.259874748892567L-141.33791419824706,-15.35732010245743z" style="fill:rgb(112,56,202)"></path><path d="M-146.50360853269947,-32.99107674261436L-152.96299281733573,-30.21883046659032L-144.32156568424517,-29.594491178341805z" style="fill:rgb(197,147,42)"></path><path d="M-149.0549858507622,-31.896073572489485L-143.57236782088245,-28.259874748892567L-140.41580636117402,-31.27192180153117z" style="fill:rgb(112,56,202)"></path><path d="M-122.08322461039066,-56.622525644912905L-119.13106342223415,-64.6294171191769L-136.61835097631388,-59.827336535103214zM-119.13106342223415,-64.6294171191769L-125.17712568794663,-72.4888010717989L-136.61835097631388,-59.827336535103214z" style="fill:rgb(212,72,90)"></path><path d="M-143.57236782088245,-28.259874748892567L-133.72458738462075,-28.78632740493704L-140.41580636117402,-31.27192180153117z" style="fill:rgb(112,56,202)"></path><path d="M-140.63101318356732,-93.39569493210094L-144.32156568424517,-29.594491178341766" style="fill:none;stroke:rgb(197,147,42);stroke-width:5;stroke-linecap:round"></path><path d="M-137.62969013053274,-27.10775293746556L-137.03115977154863,-31.069905496228767L-144.32156568424517,-29.594491178341805zM-147.48070429016087,-26.58089655911831L-152.96299281733573,-30.21883046659032L-145.24234444060932,-13.676334469792092zM-137.62969013053274,-27.10775293746556L-147.48070429016087,-26.58089655911831L-145.24234444060932,-13.676334469792092zM-152.96299281733573,-30.21883046659032L-147.48070429016087,-26.58089655911831L-144.32156568424517,-29.594491178341805zM-147.48070429016087,-26.58089655911831L-137.62969013053274,-27.10775293746556L-144.32156568424517,-29.594491178341805z" style="fill:rgb(197,147,42)"></path><path d="M-123.07031714644239,-108.64724248715052L-129.76145409691765,-105.47639573462189L-134.5208591748997,-95.99397386183755zM-119.97399950692692,-92.7593810055699L-117.01844170481762,-100.78552640996921L-134.5208591748997,-95.99397386183755z" style="fill:rgb(212,72,90)"></path><path d="M-238.6197970905455,457.4904698464629L-195.81113235300145,-304.91614508214116L-372.4207538459606,-368.5958962108691z" style="fill:rgb(0,0,0); fill-opacity: 0.2"></path><path d="M-117.01844170481762,-100.78552640996921L-123.07031714644239,-108.64724248715052L-134.5208591748997,-95.99397386183755z" style="fill:rgb(212,72,90)"></path><path d="M-159.51248200165676,-21.412177714002045L-168.9952542639174,-23.338085316120882L-166.82006259905427,-19.93192249990198zM-168.9952542639174,-23.338085316120882L-175.47443640119917,-20.55734217401001L-166.82006259905427,-19.93192249990198z" style="fill:rgb(112,56,202)"></path><path d="M-161.4706337828955,-20.570977331483626L-170.95430463002614,-22.49729773596308L-168.77971118766123,-19.090300095315538zM-170.95430463002614,-22.49729773596308L-177.4352126197879,-19.71581389041988L-168.77971118766123,-19.090300095315538z" style="fill:rgb(197,147,42)"></path><path d="M-163.16024975572154,-83.81537328956286L-166.82006259905427,-19.931922499901948" style="fill:none;stroke:rgb(112,56,202);stroke-width:5;stroke-linecap:round"></path><path d="M-160.12441657097395,-17.438590328310806L-159.51248200165676,-21.412177714002045L-166.82006259905427,-19.93192249990198zM-169.9940644403698,-16.909405640191853L-175.47443640119917,-20.55734217401001L-167.7331691052101,-3.993294747941354zM-160.12441657097395,-17.438590328310806L-169.9940644403698,-16.909405640191853L-167.7331691052101,-3.993294747941354z" style="fill:rgb(112,56,202)"></path><path d="M-165.1225810872725,-82.98091246505699L-168.7797111876612,-19.090300095315502" style="fill:none;stroke:rgb(197,147,42);stroke-width:5;stroke-linecap:round"></path><path d="M-162.08373768484782,-16.596393180292296L-161.4706337828955,-20.570977331483626L-168.77971118766123,-19.090300095315538zM-171.9550090885548,-16.06700547287338L-177.4352126197879,-19.71581389041988L-169.6921481160524,-3.149889854651081z" style="fill:rgb(197,147,42)"></path><path d="M-175.47443640119917,-20.55734217401001L-169.9940644403698,-16.909405640191853L-166.82006259905427,-19.93192249990198z" style="fill:rgb(112,56,202)"></path><path d="M-162.08373768484782,-16.596393180292296L-171.9550090885548,-16.06700547287338L-169.6921481160524,-3.149889854651081z" style="fill:rgb(197,147,42)"></path><path d="M-169.9940644403698,-16.909405640191853L-160.12441657097395,-17.438590328310806L-166.82006259905427,-19.93192249990198z" style="fill:rgb(112,56,202)"></path><path d="M-177.4352126197879,-19.71581389041988L-171.9550090885548,-16.06700547287338L-168.77971118766123,-19.090300095315538zM-171.9550090885548,-16.06700547287338L-162.08373768484782,-16.596393180292296L-168.77971118766123,-19.090300095315538z" style="fill:rgb(197,147,42)"></path><path d="M-195.81113235300145,-304.91614508214116L-372.4207538459606,-368.5958962108691M-195.81113235300145,-304.91614508214116L-372.4207538459606,-368.5958962108691" style="fill:none;stroke:rgb(0,0,0);stroke-width:1;stroke-linecap:round"></path><path d="M-57.966294076150525,-128.54800002698192L-189.69597840734656,-72.53133289664989L-190.56592731617832,-105.59066641244662z" style="fill:rgb(0,0,0); fill-opacity: 0.2"></path><path d="M-185.99160919896028,-10.03703706324316L-195.48652437284656,-11.96853031359462L-193.31944219928715,-8.551069979271734z" style="fill:rgb(197,147,42)"></path><path d="M-185.99160919896036,-10.03703706324309L-195.48652437284656,-11.968530313594584L-193.31944219928715,-8.551069979271698z" style="fill:rgb(112,56,202)"></path><path d="M-195.48652437284656,-11.96853031359462L-201.98906382790736,-9.177762649891973L-193.31944219928715,-8.551069979271734z" style="fill:rgb(197,147,42)"></path><path d="M-195.48652437284656,-11.968530313594584L-201.98906382790747,-9.177762649891939L-193.31944219928715,-8.551069979271698z" style="fill:rgb(112,56,202)"></path><path d="M-189.69597840734656,-72.53133289664991L-193.31944219928712,-8.551069979271697" style="fill:none;stroke:rgb(197,147,42);stroke-width:5;stroke-linecap:round"></path><path d="M-189.69597840734656,-72.53133289664989L-193.31944219928712,-8.551069979271663" style="fill:none;stroke:rgb(112,56,202);stroke-width:5;stroke-linecap:round"></path><path d="M-186.61938062247935,-6.049960356925819L-185.99160919896028,-10.03703706324316L-193.31944219928715,-8.551069979271734z" style="fill:rgb(197,147,42)"></path><path d="M-186.61938062247935,-6.049960356925784L-185.99160919896036,-10.03703706324309L-193.31944219928715,-8.551069979271698z" style="fill:rgb(112,56,202)"></path><path d="M-196.51098973115268,-5.518027345856021L-201.98906382790736,-9.177762649891973L-194.2234764918821,7.411653825283125z" style="fill:rgb(197,147,42)"></path><path d="M-196.51098973115276,-5.518027345855951L-201.98906382790747,-9.177762649891939L-194.2234764918821,7.4116538252831585z" style="fill:rgb(112,56,202)"></path><path d="M-186.61938062247935,-6.049960356925819L-196.51098973115268,-5.518027345856021L-194.2234764918821,7.411653825283125z" style="fill:rgb(197,147,42)"></path><path d="M-186.61938062247935,-6.049960356925784L-196.51098973115276,-5.518027345855951L-194.2234764918821,7.4116538252831585z" style="fill:rgb(112,56,202)"></path><path d="M-201.98906382790736,-9.177762649891973L-196.51098973115268,-5.518027345856021L-193.31944219928715,-8.551069979271734z" style="fill:rgb(197,147,42)"></path><path d="M-201.98906382790747,-9.177762649891939L-196.51098973115276,-5.518027345855951L-193.31944219928715,-8.551069979271698z" style="fill:rgb(112,56,202)"></path><path d="M-196.51098973115268,-5.518027345856021L-186.61938062247935,-6.049960356925819L-193.31944219928715,-8.551069979271734z" style="fill:rgb(197,147,42)"></path><path d="M-196.51098973115276,-5.518027345855951L-186.61938062247935,-6.049960356925784L-193.31944219928715,-8.551069979271698z" style="fill:rgb(112,56,202)"></path><path d="M-58.737686355214194,-161.3501670942855L-190.56592731617832,-105.59066641244662L-195.81113235300148,-304.9161450821412z" style="fill:rgb(0,0,0); fill-opacity: 0.2"></path><path d="M-189.69597840734656,-72.53133289664989L-190.56592731617832,-105.59066641244662M-189.69597840734656,-72.53133289664989L-190.56592731617832,-105.59066641244662" style="fill:none;stroke:rgb(0,0,0);stroke-width:1;stroke-linecap:round"></path><path d="M-195.81113235300148,-304.9161450821412L-195.81113235300148,-304.9161450821412L-58.737686355214194,-161.3501670942855z" style="fill:rgb(0,0,0); fill-opacity: 0.2"></path><path d="M-190.56592731617832,-105.59066641244662L-195.81113235300148,-304.9161450821412M-190.56592731617832,-105.59066641244662L-195.81113235300148,-304.9161450821412M-195.81113235300148,-304.9161450821412L-195.81113235300148,-304.9161450821412" style="fill:none;stroke:rgb(0,0,0);stroke-width:1;stroke-linecap:round"></path></svg>