<svg viewBox="-1163.5 -590 2327 1180" width="2327" height="1180" style="background-color: rgb(255, 255, 255);">
    <path d="M-145.92535752663125,250.51508740574562L-121.64209589040026,-575.3587958890241" style="fill:none;stroke:rgb(0,0,0);stroke-width:1;stroke-linecap:round">
    </path>
    <path d="M-8.647871851981163,294.62640779891166L-145.92535752663125,250.51508740574562" style="fill:none;stroke:rgb(160,0,0);stroke-width:3;stroke-linecap:round">
    </path>
    <path d="M18.54547430245516,-537.7487136408191L-8.647871851981163,294.62640779891166" style="fill:none;stroke:rgb(50,34,0);stroke-width:5;stroke-linecap:round">
    </path>
    <path d="M-8.647871851981163,294.62640779891166L44.79287495279022,311.7985019174059" style="fill:none;stroke:rgb(197,147,42);stroke-width:5;stroke-linecap:round">
    </path>
    <path d="M-7.376704124662492,255.7165809100817L46.11751861158435,272.772994507966" style="fill:none;stroke:rgb(197,147,42);stroke-width:5;stroke-linecap:round">
    </path>
    <path d="M-6.103202477410935,216.735313865394L47.44460260058558,233.67559219762464" style="fill:none;stroke:rgb(197,147,42);stroke-width:5;stroke-linecap:round">
    </path>
    <path d="M-4.827360476550554,177.68240973315207L48.77413366957382,194.50609613019623" style="fill:none;stroke:rgb(197,147,42);stroke-width:5;stroke-linecap:round">
    </path>
    <path d="M50.60809559453831,307.2759911971242L45.082432570419144,303.26780547144693L58.20949063320508,316.10965774869334z" style="fill:rgb(197,147,42)">
    </path>
    <path d="M18.54547430245516,-537.7487136408191L-8.647871851981163,294.62640779891166L-145.92535752663125,250.51508740574562z" style="fill:rgb(0,0,0); fill-opacity: 0.2">
    </path>
    <path d="M-3.549171664736927,138.55767085717875L50.10611859324445,155.2643067154559" style="fill:none;stroke:rgb(197,147,42);stroke-width:5;stroke-linecap:round">
    </path>
    <path d="M39.151399062734285,311.05119406334944L41.01810504881162,319.86680340446657L58.20949063320508,316.10965774869334z" style="fill:rgb(197,147,42)">
    </path>
    <path d="M45.082432570419144,303.26780547144693L39.151399062734285,311.05119406334944L58.20949063320508,316.10965774869334z" style="fill:rgb(197,147,42)">
    </path>
    <path d="M51.93757117096095,268.2615730747487L46.407609475942735,264.2265880074179L59.54761176734027,277.0551246484882z" style="fill:rgb(197,147,42)">
    </path>
    <path d="M-2.2686295608482125,99.36089885348149L51.44056417132349,115.95002362574914" style="fill:none;stroke:rgb(197,147,42);stroke-width:5;stroke-linecap:round">
    </path>
    <path d="M40.47153129220577,272.00487716201343L42.33942969850696,280.8441483853661L59.54761176734027,277.0551246484882z" style="fill:rgb(197,147,42)">
    </path>
    <path d="M46.407609475942735,264.2265880074179L40.47153129220577,272.00487716201343L59.54761176734027,277.0551246484882z" style="fill:rgb(197,147,42)">
    </path>
    <path d="M53.269495021265975,229.17530859233398L47.73522818606456,225.1134322052484L60.888200146858495,237.9285822854282z" style="fill:rgb(197,147,42)">
    </path>
    <path d="M-0.9857276598756026,60.09189460689932L52.777477228683196,76.56304579258286" style="fill:none;stroke:rgb(197,147,42);stroke-width:5;stroke-linecap:round">
    </path>
    <path d="M41.79409679578074,232.88658990071585L43.66318884949056,241.74959528736622L60.888200146858495,237.9285822854282z" style="fill:rgb(197,147,42)">
    </path>
    <path d="M47.73522818606456,225.1134322052484L41.79409679578074,232.88658990071585L60.888200146858495,237.9285822854282z" style="fill:rgb(197,147,42)">
    </path>
    <path d="M54.603873914553986,190.01699910575147L49.06529545600501,185.9281390484707L62.23126260176581,198.72983131829744z" style="fill:rgb(197,147,42)">
    </path>
    <path d="M0.2995405671868476,20.75045826773126L54.11686461545859,37.103171403197685" style="fill:none;stroke:rgb(197,147,42);stroke-width:5;stroke-linecap:round">
    </path>
    <path d="M43.11910230719889,193.6961331117304L44.989389236210535,202.58294522214237L62.23126260176581,198.72983131829744z" style="fill:rgb(197,147,42)">
    </path>
    <path d="M49.06529545600501,185.9281390484707L43.11910230719889,193.6961331117304L62.23126260176581,198.72983131829744z" style="fill:rgb(197,147,42)">
    </path>
    <path d="M-121.64209589040026,-575.3587958890241L-145.92535752663125,250.51508740574562L18.54547430245516,-537.7487136408191z" style="fill:rgb(0,0,0); fill-opacity: 0.2">
    </path>
    <path d="M55.94071464490246,150.78644523790257L50.39781806592508,146.67050878583748L63.57680598730109,159.45867166942634z" style="fill:rgb(197,147,42)">
    </path>
    <path d="M1.5871816734528683,-18.663610751653966L55.45873320716415,-2.4298021028789214" style="fill:none;stroke:rgb(197,147,42);stroke-width:5;stroke-linecap:round">
    </path>
    <path d="M44.44655458506909,154.4333068917612L46.31803761797686,163.34399856712577L63.57680598730109,159.45867166942634z" style="fill:rgb(197,147,42)">
    </path>
    <path d="M50.39781806592508,146.67050878583748L44.44655458506909,154.4333068917612L63.57680598730109,159.45867166942634z" style="fill:rgb(197,147,42)">
    </path>
    <path d="M57.28002403148137,111.48344687533557L51.73280282104161,107.3403409279278L64.92483718405312,120.11490252128732z" style="fill:rgb(197,147,42)">
    </path>
    <path d="M2.877202236255592,-58.150513780227136L56.803089904811856,-42.03607803729887" style="fill:none;stroke:rgb(197,147,42);stroke-width:5;stroke-linecap:round">
    </path>
    <path d="M45.77646041298427,115.09791059854372L47.649140779076184,124.0325549621118L64.92483718405312,120.11490252128732z" style="fill:rgb(197,147,42)">
    </path>
    <path d="M51.73280282104161,107.3403409279278L45.77646041298427,115.09791059854372L64.92483718405312,120.11490252128732z" style="fill:rgb(197,147,42)">
    </path>
    <path d="M58.6218089186689,72.10780316484308L53.07025655174313,67.93743424373375L66.2753630980774,80.6983223130718z" style="fill:rgb(197,147,42)">
    </path>
    <path d="M4.169608857259236,-97.71045289172632L58.14994163502914,-81.71586046637847" style="fill:none;stroke:rgb(197,147,42);stroke-width:5;stroke-linecap:round">
    </path>
    <path d="M47.108826599637034,75.68974284742731L48.98270552888729,84.64841330584966L66.2753630980774,80.6983223130718z" style="fill:rgb(197,147,42)">
    </path>
    <path d="M53.07025655174313,67.93743424373375L47.108826599637034,75.68974284742731L66.2753630980774,80.6983223130718z" style="fill:rgb(197,147,42)">
    </path>
    <path d="M59.96607617616822,32.65931251004014L54.41018611370632,28.461586757228964L67.62839066101456,41.20872873724831z" style="fill:rgb(197,147,42)">
    </path>
    <path d="M5.464408162571961,-137.3436309081042L59.49929535017804,-121.46935421460354" style="fill:none;stroke:rgb(197,147,42);stroke-width:5;stroke-linecap:round">
    </path>
    <path d="M48.44365997893576,36.20860150793803L50.318738701997255,45.19137175261319L67.62839066101456,41.20872873724831z" style="fill:rgb(197,147,42)">
    </path>
    <path d="M54.41018611370632,28.461586757228964L48.44365997893576,36.20860150793803L67.62839066101456,41.20872873724831z" style="fill:rgb(197,147,42)">
    </path>
    <path d="M18.54547430245516,-537.7487136408191L-121.64209589040026,-575.3587958890241" style="fill:none;stroke:rgb(0,0,0);stroke-width:1;stroke-linecap:round">
    </path>
    <path d="M-121.64209589040026,-575.3587958890241L-632.9325915276765,-444.34584225505716" style="fill:none;stroke:rgb(0,0,0);stroke-width:1;stroke-linecap:round">
    </path>
    <path d="M18.54547430245516,-537.7487136408191L-121.64209589040026,-575.3587958890241" style="fill:none;stroke:rgb(0,0,0);stroke-width:1;stroke-linecap:round">
    </path>
    <path d="M61.31283269912457,-6.8622274320757235L55.75259838801331,-11.087404256082712L68.98392683020847,1.64591873610112z" style="fill:rgb(197,147,42)">
    </path>
    <path d="M6.761606802858993,-177.05025140299395L60.85115802847478,-161.29676486815345" style="fill:none;stroke:rgb(197,147,42);stroke-width:5;stroke-linecap:round">
    </path>
    <path d="M49.78096741012152,-3.345716299676849L51.657247158318164,5.661227708752843L68.98392683020847,1.64591873610112z" style="fill:rgb(197,147,42)">
    </path>
    <path d="M55.75259838801331,-11.087404256082712L49.78096741012152,-3.345716299676849L68.98392683020847,1.64591873610112z" style="fill:rgb(197,147,42)">
    </path>
    <path d="M62.662085408243165,-46.45701975458455L57.09750028126916,-50.70974227263757L70.34197858882592,-37.9903115017502z" style="fill:rgb(197,147,42)">
    </path>
    <path d="M8.061211453456522,-216.8305187051951L62.205536674110064,-201.1982987784453" style="fill:none;stroke:rgb(197,147,42);stroke-width:5;stroke-linecap:round">
    </path>
    <path d="M51.12075577788554,-42.97341420792427L52.99823778320459,-33.94222217077211L70.34197858882592,-37.9903115017502z" style="fill:rgb(197,147,42)">
    </path>
    <path d="M57.09750028126916,-50.70974227263757L51.12075577788554,-42.97341420792427L70.34197858882592,-37.9903115017502z" style="fill:rgb(197,147,42)">
    </path>
    <path d="M64.01384124990798,-86.12526830412268L58.44489872572071,-90.40563152430133L71.7025529459762,-77.70016654485033z" style="fill:rgb(197,147,42)">
    </path>
    <path d="M9.363228814486208,-256.684637902178L63.56243831737006,-241.17416306569757" style="fill:none;stroke:rgb(197,147,42);stroke-width:5;stroke-linecap:round">
    </path>
    <path d="M52.46303199248737,-82.67469660555957L54.34171748757147,-73.6191819858799L71.7025529459762,-77.70016654485033z" style="fill:rgb(197,147,42)">
    </path>
    <path d="M58.44489872572071,-90.40563152430133L52.46303199248737,-82.67469660555957L71.7025529459762,-77.70016654485033z" style="fill:rgb(197,147,42)">
    </path>
    <path d="M65.36810719630053,-125.86717768438058L59.79480067937524,-130.1752770018784L73.06565693683194,-117.48385172242808z" style="fill:rgb(197,147,42)">
    </path>
    <path d="M10.66766561097031,-296.6128148436088L64.92187001475796,-281.22456562251404" style="fill:none;stroke:rgb(197,147,42);stroke-width:5;stroke-linecap:round">
    </path>
    <path d="M53.80780298987358,-122.44976864110065L55.68769320801318,-113.36985659487289L73.06565693683194,-117.48385172242808z" style="fill:rgb(197,147,42)">
    </path>
    <path d="M59.79480067937524,-130.1752770018784L53.80780298987358,-122.44976864110065L73.06565693683194,-117.48385172242808z" style="fill:rgb(197,147,42)">
    </path>
    <path d="M66.72489024552021,-165.6829532596213L61.1472131261207,-170.01888445864054L74.43129762275018,-157.3415731279351z" style="fill:rgb(197,147,42)">
    </path>
    <path d="M11.974528592947488,-336.61525614489307L66.28383884911644,-321.3497151174872" style="fill:none;stroke:rgb(197,147,42);stroke-width:5;stroke-linecap:round">
    </path>
    <path d="M55.15507573179745,-162.29883622636132L57.03617190692243,-153.19445161796278L74.43129762275018,-157.3415731279351z" style="fill:rgb(197,147,42)">
    </path>
    <path d="M61.1472131261207,-170.01888445864054L55.15507573179745,-162.29883622636132L74.43129762275018,-157.3415731279351z" style="fill:rgb(197,147,42)">
    </path>
    <path d="M68.08419742170442,-205.57280115821735L62.5021430758457,-209.93666041387482L75.79948209139444,-197.27353762260472z" style="fill:rgb(197,147,42)">
    </path>
    <path d="M13.283824535589222,-376.6921691907401L67.64835192975055,-361.54982099882307" style="fill:none;stroke:rgb(197,147,42);stroke-width:5;stroke-linecap:round">
    </path>
    <path d="M56.504857205938826,-202.22210604000483L58.38716057261087,-193.09317344081657L75.79948209139444,-197.27353762260472z" style="fill:rgb(197,147,42)">
    </path>
    <path d="M62.5021430758457,-209.93666041387482L56.504857205938826,-202.22210604000483L75.79948209139444,-197.27353762260472z" style="fill:rgb(197,147,42)">
    </path>
    <path d="M69.44603577515015,-245.53692827620796L63.85959756456106,-249.92881215645195L77.17021745685715,-237.27995283903056z" style="fill:rgb(197,147,42)">
    </path>
    <path d="M14.595560239316896,-416.84376213874623L69.01541639255147,-401.8250934979842" style="fill:none;stroke:rgb(197,147,42);stroke-width:5;stroke-linecap:round">
    </path>
    <path d="M57.85715442602522,-242.21978553111697L59.740666219429244,-233.06622921812107L77.17021745685715,-237.27995283903056z" style="fill:rgb(197,147,42)">
    </path>
    <path d="M63.85959756456106,-249.92881215645195L57.85715442602522,-242.21978553111697L77.17021745685715,-237.27995283903056z" style="fill:rgb(197,147,42)">
    </path>
    <path d="M70.8104123824355,-285.5755422808762L65.21958365452117,-289.99554774841494L78.54351085978328,-277.3610271847656z" style="fill:rgb(197,147,42)">
    </path>
    <path d="M15.909742529919548,-457.0702439229994L70.38503940012092,-442.175743633356" style="fill:none;stroke:rgb(197,147,42);stroke-width:5;stroke-linecap:round">
    </path>
    <path d="M59.21197443195298,-282.29208292279924L61.09669588788931,-273.1138268771693L78.54351085978328,-277.3610271847656z" style="fill:rgb(197,147,42)">
    </path>
    <path d="M65.21958365452117,-289.99554774841494L59.21197443195298,-282.29208292279924L78.54351085978328,-277.3610271847656z" style="fill:rgb(197,147,42)">
    </path>
    <path d="M72.17733434654262,-325.6888516143459L66.58210843434694,-330.13707602858614L79.91936946749398,-317.5169698459406z" style="fill:rgb(197,147,42)">
    </path>
    <path d="M17.226378258672234,-497.3718242577026L71.75722814189618,-482.60198321393057" style="fill:none;stroke:rgb(197,147,42);stroke-width:5;stroke-linecap:round">
    </path>
    <path d="M60.56932428990981,-322.4392072157819L62.45525664478545,-313.23617512146427L79.91936946749398,-317.5169698459406z" style="fill:rgb(197,147,42)">
    </path>
    <path d="M66.58210843434694,-330.13707602858614L60.56932428990981,-322.4392072157819L79.91936946749398,-317.5169698459406z" style="fill:rgb(197,147,42)">
    </path>
    <path d="M73.5468087969807,-365.87706549719866L67.94717901914842,-370.3536066161967L81.2978004741114,-357.74799079090394z" style="fill:rgb(197,147,42)">
    </path>
    <path d="M18.545474302455137,-537.7487136408188L73.131989834276,-523.1040248430146" style="fill:none;stroke:rgb(197,147,42);stroke-width:5;stroke-linecap:round">
    </path>
    <path d="M-491.84610940721655,-404.0061191819867L18.54547430245516,-537.7487136408191" style="fill:none;stroke:rgb(22,55,11);stroke-width:5;stroke-linecap:round">
    </path>
    <path d="M18.54547430245516,-537.7487136408191L73.13198983427601,-523.1040248430149" style="fill:none;stroke:rgb(109,213,75);stroke-width:5;stroke-linecap:round">
    </path>
    <path d="M61.92921109249719,-362.6613681920575L63.816355583317836,-353.4334834343454L81.2978004741114,-357.74799079090394z" style="fill:rgb(197,147,42)">
    </path>
    <path d="M67.94717901914842,-370.3536066161967L61.92921109249719,-362.6613681920575L81.2978004741114,-357.74799079090394z" style="fill:rgb(197,147,42)">
    </path>
    <path d="M74.91884288991008,-406.1403939321119L69.3148025506491,-410.64534991453496L82.67881110068427,-398.05430077388047z" style="fill:rgb(197,147,42)">
    </path>
    <path d="M63.29164195885438,-402.9587764185358L65.17999982321557,-393.7059620826339L82.67881110068427,-398.05430077388047z" style="fill:rgb(197,147,42)">
    </path>
    <path d="M69.3148025506491,-410.64534991453496L63.29164195885438,-402.9587764185358L82.67881110068427,-398.05430077388047z" style="fill:rgb(197,147,42)">
    </path>
    <path d="M76.29344380826673,-446.4790477075165L70.68498619731032,-451.0125171146158L84.06240859531366,-438.43611133865255z" style="fill:rgb(197,147,42)">
    </path>
    <path d="M64.65662403478224,-443.331643250717L66.54619651086098,-434.05382212029974L84.06240859531366,-438.43611133865255z" style="fill:rgb(197,147,42)">
    </path>
    <path d="M70.68498619731032,-451.0125171146158L64.65662403478224,-443.331643250717L84.06240859531366,-438.43611133865255z" style="fill:rgb(197,147,42)">
    </path>
    <path d="M-8.771090306103913,-530.590703322747L45.839192897833954,-515.8896593414445" style="fill:none;stroke:rgb(109,213,75);stroke-width:5;stroke-linecap:round">
    </path>
    <path d="M77.6706187618879,-486.8932384012747L72.05773715445629,-491.45532019887014L85.44860023328005,-478.89363482226014z" style="fill:rgb(197,147,42)">
    </path>
    <path d="M66.02416449286847,-483.78018083638716L67.91495281941445,-474.4772753921473L85.44860023328005,-478.89363482226014z" style="fill:rgb(197,147,42)">
    </path>
    <path d="M72.05773715445629,-491.45532019887014L66.02416449286847,-483.78018083638716L85.44860023328005,-478.89363482226014z" style="fill:rgb(197,147,42)">
    </path>
    <path d="M79.05037498763775,-527.3831783843799L73.43306264440052,-531.9739719448569L86.83739331717068,-519.4270843587235z" style="fill:rgb(197,147,42)">
    </path>
    <path d="M79.05037498763781,-527.3831783843804L73.43306264440052,-531.9739719448571L86.83739331717068,-519.4270843587238z" style="fill:rgb(109,213,75)">
    </path>
    <path d="M67.39427053261299,-524.3046021193348L69.28627594893993,-514.9765345375242L86.83739331717068,-519.4270843587235z" style="fill:rgb(197,147,42)">
    </path>
    <path d="M67.39427053261304,-524.3046021193353L69.28627594893993,-514.9765345375245L86.83739331717068,-519.4270843587238z" style="fill:rgb(109,213,75)">
    </path>
    <path d="M73.43306264440052,-531.9739719448569L67.39427053261299,-524.3046021193348L86.83739331717068,-519.4270843587235z" style="fill:rgb(197,147,42)">
    </path>
    <path d="M73.43306264440052,-531.9739719448571L67.39427053261304,-524.3046021193353L86.83739331717068,-519.4270843587238z" style="fill:rgb(109,213,75)">
    </path>
    <path d="M-36.20561337814909,-523.4017832650778L18.42813264879297,-508.6440330363549" style="fill:none;stroke:rgb(109,213,75);stroke-width:5;stroke-linecap:round">
    </path>
    <path d="M51.78125612707472,-520.1809383549823L46.135306105793845,-524.7773031012462L59.550691118815976,-512.1985351324115z" style="fill:rgb(109,213,75)">
    </path>
    <path d="M40.074695718742255,-517.0890358109148L41.98189844509698,-507.74373305349013L59.550691118815976,-512.1985351324115z" style="fill:rgb(109,213,75)">
    </path>
    <path d="M46.135306105793845,-524.7773031012462L40.074695718742255,-517.0890358109148L59.550691118815976,-512.1985351324115z" style="fill:rgb(109,213,75)">
    </path>
    <path d="M-63.758860619753484,-516.1817528228164L-9.101961257802104,-501.3669423007571" style="fill:none;stroke:rgb(109,213,75);stroke-width:5;stroke-linecap:round">
    </path>
    <path d="M24.394023795883633,-512.9475025406923L18.719240395301345,-517.5494437116276L32.14564972868478,-504.9386365452659z" style="fill:rgb(109,213,75)">
    </path>
    <path d="M12.63667910957933,-509.8421870014507L14.559193261601504,-500.4795871223293L32.14564972868478,-504.9386365452659z" style="fill:rgb(109,213,75)">
    </path>
    <path d="M18.719240395301345,-517.5494437116276L12.63667910957933,-509.8421870014507L32.14564972868478,-504.9386365452659z" style="fill:rgb(109,213,75)">
    </path>
    <path d="M-91.43160437861826,-508.9304096106009L-36.75186587197441,-494.0581817352963" style="fill:none;stroke:rgb(109,213,75);stroke-width:5;stroke-linecap:round">
    </path>
    <path d="M-3.1120910665799726,-505.6826678194591L-8.815905289861423,-510.2901905647092L4.621497639245697,-497.64718421640885z" style="fill:rgb(109,213,75)">
    </path>
    <path d="M-632.9325915276765,-444.34584225505716L-648.0303723601917,411.21762017045097" style="fill:none;stroke:rgb(0,0,0);stroke-width:1;stroke-linecap:round">
    </path>
    <path d="M-509.9032285413373,458.5304303751123L-648.0303723601917,411.21762017045097" style="fill:none;stroke:rgb(160,0,0);stroke-width:3;stroke-linecap:round">
    </path>
    <path d="M-491.84610940721655,-404.0061191819867L18.54547430245516,-537.7487136408191L-121.64209589040026,-575.3587958890241z" style="fill:rgb(0,0,0); fill-opacity: 0.2">
    </path>
    <path d="M-14.92055121032379,-502.56385181489L-12.982610458399218,-493.1838925476784L4.621497639245697,-497.64718421640885z" style="fill:rgb(109,213,75)">
    </path>
    <path d="M-8.815905289861423,-510.2901905647092L-14.92055121032379,-502.56385181489L4.621497639245697,-497.64718421640885z" style="fill:rgb(109,213,75)">
    </path>
    <path d="M-119.22462371623968,-501.6475494837921L-64.52236502192493,-486.71754414892683" style="fill:none;stroke:rgb(109,213,75);stroke-width:5;stroke-linecap:round">
    </path>
    <path d="M-30.737864212162012,-498.3862293019708L-36.47090846291985,-502.9993386800852L-23.0225433780544,-490.3239719844887z" style="fill:rgb(109,213,75)">
    </path>
    <path d="M-42.59777387871253,-495.25382459970484L-40.64429028208945,-485.85644335563904L-23.0225433780544,-490.3239719844887z" style="fill:rgb(109,213,75)">
    </path>
    <path d="M-36.47090846291985,-502.9993386800852L-42.59777387871253,-495.25382459970484L-23.0225433780544,-490.3239719844887z" style="fill:rgb(109,213,75)">
    </path>
    <path d="M-147.1387044810194,-494.3329665193154L-92.41424938810137,-479.3448205393339" style="fill:none;stroke:rgb(109,213,75);stroke-width:5;stroke-linecap:round">
    </path>
    <path d="M-58.48407815683915,-491.05798031239306L-64.24655342072418,-495.6766812889431L-50.78725834613802,-482.9687918882501z" style="fill:rgb(109,213,75)">
    </path>
    <path d="M-70.3957743289664,-487.9118979095255L-68.42663056016114,-478.4970317753934L-50.78725834613802,-482.9687918882501z" style="fill:rgb(109,213,75)">
    </path>
    <path d="M-64.24655342072418,-495.6766812889431L-70.3957743289664,-487.9118979095255L-50.78725834613802,-482.9687918882501z" style="fill:rgb(109,213,75)">
    </path>
    <path d="M-175.1746393823323,-486.98645299625264L-120.42831657824043,-471.9398000730965" style="fill:none;stroke:rgb(109,213,75);stroke-width:5;stroke-linecap:round">
    </path>
    <path d="M-86.35152225460445,-483.6977123688547L-92.14363131789318,-488.32200981451615L-78.67343915660764,-475.58143414684866z" style="fill:rgb(109,213,75)">
    </path>
    <path d="M-98.3153448643981,-480.53786248351486L-96.33042250095002,-471.1054482195654L-78.67343915660764,-475.58143414684866z" style="fill:rgb(109,213,75)">
    </path>
    <path d="M-92.14363131789318,-488.32200981451615L-98.3153448643981,-480.53786248351486L-78.67343915660764,-475.58143414684866z" style="fill:rgb(109,213,75)">
    </path>
    <path d="M-203.33322806556603,-479.60779937617843L-148.56537120339797,-464.502270065591" style="fill:none;stroke:rgb(109,213,75);stroke-width:5;stroke-linecap:round">
    </path>
    <path d="M-114.3409927723233,-476.30521516367713L-120.16294024193245,-480.93511385228L-106.68188464503368,-468.16168713990606z" style="fill:rgb(109,213,75)">
    </path>
    <path d="M-126.35728473352945,-473.1315072264877L-124.35646424554582,-463.6814812643256L-106.68188464503368,-468.16168713990606z" style="fill:rgb(109,213,75)">
    </path>
    <path d="M-120.16294024193245,-480.93511385228L-126.35728473352945,-473.1315072264877L-106.68188464503368,-468.16168713990606z" style="fill:rgb(109,213,75)">
    </path>
    <path d="M-509.9032285413373,458.5304303751123L-491.84610940721655,-404.0061191819867" style="fill:none;stroke:rgb(0,44,41);stroke-width:5;stroke-linecap:round">
    </path>
    <path d="M-509.9032285413373,458.5304303751119L-456.1061571325185,476.95758783860117" style="fill:none;stroke:rgb(43,180,168);stroke-width:5;stroke-linecap:round">
    </path>
    <path d="M-231.61527718814787,-472.1967942832381L-176.82622495498347,-457.0320159606284" style="fill:none;stroke:rgb(109,213,75);stroke-width:5;stroke-linecap:round">
    </path>
    <path d="M-648.0303723601917,411.21762017045097L-632.9325915276765,-444.34584225505716L-509.9032285413373,458.5304303751123z" style="fill:rgb(0,0,0); fill-opacity: 0.2">
    </path>
    <path d="M-509.0597615311056,418.2404417414465L-455.2082568148137,436.5436869183481" style="fill:none;stroke:rgb(43,180,168);stroke-width:5;stroke-linecap:round">
    </path>
    <path d="M-632.9325915276765,-444.34584225505716L-121.64209589040026,-575.3587958890241L-491.84610940721655,-404.0061191819867z" style="fill:rgb(0,0,0); fill-opacity: 0.2">
    </path>
    <path d="M-142.45329296557495,-468.8802765433425L-148.3052852893422,-473.51578114988723L-134.81340066723473,-460.7093373873023z" style="fill:rgb(109,213,75)">
    </path>
    <path d="M-508.21468466888945,377.8735551172574L-454.3086367267091,396.0523802669956" style="fill:none;stroke:rgb(43,180,168);stroke-width:5;stroke-linecap:round">
    </path>
    <path d="M-154.5224002063595,-465.6926191887667L-152.50556094389222,-456.22491762923187L-134.81340066723473,-460.7093373873023z" style="fill:rgb(109,213,75)">
    </path>
    <path d="M-148.3052852893422,-473.51578114988723L-154.5224002063595,-465.6926191887667L-134.81340066723473,-460.7093373873023z" style="fill:rgb(109,213,75)">
    </path>
    <path d="M-260.02160049657397,-464.7532244839633L-205.21169668281289,-449.52882130982204" style="fill:none;stroke:rgb(109,213,75);stroke-width:5;stroke-linecap:round">
    </path>
    <path d="M-507.36799334140983,337.4295501395101L-453.40729192259084,355.4834452857394" style="fill:none;stroke:rgb(43,180,168);stroke-width:5;stroke-linecap:round">
    </path>
    <path d="M-449.85752855835165,472.1890840336378L-455.9098881408068,468.1236500079187L-442.5978332878497,481.58460570472084z" style="fill:rgb(43,180,168)">
    </path>
    <path d="M-506.51968291774455,296.9082056023862L-452.50421743786444,314.836658521441" style="fill:none;stroke:rgb(43,180,168);stroke-width:5;stroke-linecap:round">
    </path>
    <path d="M-170.68923315549475,-461.4226824881994L-176.57147864272983,-466.0637975868385L-163.06880017656573,-453.2241695287021z" style="fill:rgb(109,213,75)">
    </path>
    <path d="M-462.2393299078224,476.26912681157035L-460.09135037471987,485.3654373900728L-442.5978332878497,481.58460570472084z" style="fill:rgb(43,180,168)">
    </path>
    <path d="M-455.9098881408068,468.1236500079187L-462.2393299078224,476.26912681157035L-442.5978332878497,481.58460570472084z" style="fill:rgb(43,180,168)">
    </path>
    <path d="M-182.81150465163947,-458.2209835457729L-180.77852483189093,-448.73554215680497L-163.06880017656573,-453.2241695287021z" style="fill:rgb(109,213,75)">
    </path>
    <path d="M-176.57147864272983,-466.0637975868385L-182.81150465163947,-458.2209835457729L-163.06880017656573,-453.2241695287021z" style="fill:rgb(109,213,75)">
    </path>
    <path d="M-288.5530189044559,-457.2768748668208L-233.72261247419678,-441.9924677516822" style="fill:none;stroke:rgb(109,213,75);stroke-width:5;stroke-linecap:round">
    </path>
    <path d="M-448.95401708078526,431.7870404031333L-455.011612044966,427.6928355616805L-441.6862082803828,441.1396099278083z" style="fill:rgb(43,180,168)">
    </path>
    <path d="M-505.669748749243,256.30929945325L-451.5994082888623,274.111795662525" style="fill:none;stroke:rgb(43,180,168);stroke-width:5;stroke-linecap:round">
    </path>
    <path d="M-461.34681931515155,435.83290346894387L-459.19715393997024,444.95465764211167L-441.6862082803828,441.1396099278083z" style="fill:rgb(43,180,168)">
    </path>
    <path d="M-455.011612044966,427.6928355616805L-461.34681931515155,435.83290346894387L-441.6862082803828,441.1396099278083z" style="fill:rgb(43,180,168)">
    </path>
    <path d="M-448.04877578930336,391.3076452181422L-454.1116150984897,387.1845667636495L-440.77283567894864,400.61708070233107z" style="fill:rgb(43,180,168)">
    </path>
    <path d="M-504.8181861694421,215.6326087885933L-450.6928594727535,233.3086315348534" style="fill:none;stroke:rgb(43,180,168);stroke-width:5;stroke-linecap:round">
    </path>
    <path d="M-460.45259835794576,395.3191900854263L-458.30124462008763,404.466468701778L-440.77283567894864,400.61708070233107z" style="fill:rgb(43,180,168)">
    </path>
    <path d="M-454.1116150984897,387.1845667636495L-460.45259835794576,395.3191900854263L-440.77283567894864,400.61708070233107z" style="fill:rgb(43,180,168)">
    </path>
    <path d="M-199.0496308066325,-453.93221709189817L-204.962339648943,-458.57894715388323L-191.44890330222944,-445.7059663028078z" style="fill:rgb(109,213,75)">
    </path>
    <path d="M-211.22541861517072,-450.7163835773458L-209.17617530952634,-441.2131377918338L-191.44890330222944,-445.7059663028078z" style="fill:rgb(109,213,75)">
    </path>
    <path d="M-204.962339648943,-458.57894715388323L-211.22541861517072,-450.7163835773458L-191.44890330222944,-445.7059663028078z" style="fill:rgb(109,213,75)">
    </path>
    <path d="M-447.14179971143454,350.7506761261962L-453.2098923516199,346.59862082848485L-439.85771045349384,360.0167948658294z" style="fill:rgb(43,180,168)">
    </path>
    <path d="M-503.9649904939799,174.87790984995502L-449.78456596745,192.42694009757446" style="fill:none;stroke:rgb(43,180,168);stroke-width:5;stroke-linecap:round">
    </path>
    <path d="M-317.21036057160063,-449.76752842148966L-262.35980573407903,-434.4227349904333" style="fill:none;stroke:rgb(109,213,75);stroke-width:5;stroke-linecap:round">
    </path>
    <path d="M-459.556662114999,354.72776370007983L-457.4036174886578,363.9006479331397L-439.85771045349384,360.0167948658294z" style="fill:rgb(43,180,168)">
    </path>
    <path d="M-453.2098923516199,346.59862082848485L-459.556662114999,354.72776370007983L-439.85771045349384,360.0167948658294z" style="fill:rgb(43,180,168)">
    </path>
    <path d="M-446.23308385563075,310.1159099217859L-452.30643883559753,305.93477411561656L-438.9408275546434,319.33852839859117z" style="fill:rgb(43,180,168)">
    </path>
    <path d="M-503.1101570205104,134.04497801981893L-448.8745227315154,151.4664944389496" style="fill:none;stroke:rgb(43,180,168);stroke-width:5;stroke-linecap:round">
    </path>
    <path d="M-458.6590056462071,314.0584004957822L-456.5042676003559,323.25697184568276L-438.9408275546434,319.33852839859117z" style="fill:rgb(43,180,168)">
    </path>
    <path d="M-452.30643883559753,305.93477411561656L-458.6590056462071,314.0584004957822L-438.9408275546434,319.33852839859117z" style="fill:rgb(43,180,168)">
    </path>
    <path d="M-227.5353106058426,-446.4086625405558L-233.47869489823856,-451.06101193214795L-219.9545374286271,-438.15450852634024z" style="fill:rgb(109,213,75)">
    </path>
    <path d="M-445.322623211176,269.4031225422661L-451.40124956257097,265.1928021251371L-438.02218191360606,278.5820564195307z" style="fill:rgb(43,180,168)">
    </path>
    <path d="M-502.25368102861734,93.13358781748688L-447.9627247040705,110.42706677215475" style="fill:none;stroke:rgb(43,180,168);stroke-width:5;stroke-linecap:round">
    </path>
    <path d="M-239.7649698991417,-443.1786006467891L-237.6993390200259,-433.657485560406L-219.9545374286271,-438.15450852634024z" style="fill:rgb(109,213,75)">
    </path>
    <path d="M-233.47869489823856,-451.06101193214795L-239.7649698991417,-443.1786006467891L-219.9545374286271,-438.15450852634024z" style="fill:rgb(109,213,75)">
    </path>
    <path d="M-457.75962399247754,273.31087579511404L-455.6031899908567,282.53521609020873L-438.02218191360606,278.5820564195307z" style="fill:rgb(43,180,168)">
    </path>
    <path d="M-451.40124956257097,265.1928021251371L-457.75962399247754,273.31087579511404L-438.02218191360606,278.5820564195307z" style="fill:rgb(43,180,168)">
    </path>
    <path d="M-345.99446098414006,-442.2249662178653L-291.12411726624293,-426.81940077454766" style="fill:none;stroke:rgb(109,213,75);stroke-width:5;stroke-linecap:round">
    </path>
    <path d="M-444.410412748094,228.61208906373753L-450.4943195255044,224.37247949367006L-437.1017684420826,237.74715318204616z" style="fill:rgb(43,180,168)">
    </path>
    <path d="M-501.39555777972623,52.143512894928385L-447.04916680470023,69.30842843105782" style="fill:none;stroke:rgb(43,180,168);stroke-width:5;stroke-linecap:round">
    </path>
    <path d="M-456.85851217563777,232.4849640562201L-454.70037967674307,241.73515545470525L-437.1017684420826,237.74715318204616z" style="fill:rgb(43,180,168)">
    </path>
    <path d="M-450.4943195255044,224.37247949367006L-456.85851217563777,232.4849640562201L-437.1017684420826,237.74715318204616z" style="fill:rgb(43,180,168)">
    </path>
    <path d="M-509.9032285413373,458.5304303751123L-491.84610940721655,-404.0061191819867L-632.9325915276765,-444.34584225505716z" style="fill:rgb(0,0,0); fill-opacity: 0.2">
    </path>
    <path d="M-443.49644741705526,187.7425836969046L-449.5856436980856,183.47357999021497L-436.17958203217097,196.83359206985062z" style="fill:rgb(43,180,168)">
    </path>
    <path d="M-500.53578251701845,11.074526032606165L-446.1338439333593,28.110349865971767" style="fill:none;stroke:rgb(43,180,168);stroke-width:5;stroke-linecap:round">
    </path>
    <path d="M-256.14710454222194,-438.8517990916419L-262.121378304504,-443.5097720719878L-248.58653727576413,-430.5695750727373z" style="fill:rgb(109,213,75)">
    </path>
    <path d="M-455.9556651983436,191.58043886864897L-453.7958316554137,200.85656386019488L-436.17958203217097,196.83359206985062z" style="fill:rgb(43,180,168)">
    </path>
    <path d="M-449.5856436980856,183.47357999021497L-455.9556651983436,191.58043886864897L-436.17958203217097,196.83359206985062z" style="fill:rgb(43,180,168)">
    </path>
    <path d="M-268.43099364251884,-435.6074141796383L-266.3488499300721,-426.0683645486607L-248.58653727576413,-430.5695750727373z" style="fill:rgb(109,213,75)">
    </path>
    <path d="M-262.121378304504,-443.5097720719878L-268.43099364251884,-435.6074141796383L-248.58653727576413,-430.5695750727373z" style="fill:rgb(109,213,75)">
    </path>
    <path d="M-491.84610940721655,-404.0061191819867L-632.9325915276765,-444.34584225505716" style="fill:none;stroke:rgb(0,0,0);stroke-width:1;stroke-linecap:round">
    </path>
    <path d="M-491.84610940721655,-404.0061191819867L-632.9325915276765,-444.34584225505716" style="fill:none;stroke:rgb(0,0,0);stroke-width:1;stroke-linecap:round">
    </path>
    <path d="M-374.906163035726,-434.64896738478234L-320.01639535560093,-419.1822408749945" style="fill:none;stroke:rgb(109,213,75);stroke-width:5;stroke-linecap:round">
    </path>
    <path d="M-442.5807221492846,146.7943797829097L-448.675217034633,142.4958765119677L-435.25561755627206,155.8411455927802z" style="fill:rgb(43,180,168)">
    </path>
    <path d="M-499.6743504653418,-30.073600864722266L-445.21675097027634,-13.167399360617232" style="fill:none;stroke:rgb(43,180,168);stroke-width:5;stroke-linecap:round">
    </path>
    <path d="M-455.0510780439866,150.59707294916726L-452.88954090499095,159.89921435655933L-435.25561755627206,155.8411455927802z" style="fill:rgb(43,180,168)">
    </path>
    <path d="M-448.675217034633,142.4958765119677L-455.0510780439866,150.59707294916726L-435.25561755627206,155.8411455927802z" style="fill:rgb(43,180,168)">
    </path>
    <path d="M-441.6632318564671,105.76724978914251L-447.763034470002,101.43914108011728L-434.3298698669949,114.76958538257782z" style="fill:rgb(43,180,168)">
    </path>
    <path d="M-498.8112568311236,-71.30109677222705L-444.2978827758598,-54.525050578345706" style="fill:none;stroke:rgb(43,180,168);stroke-width:5;stroke-linecap:round">
    </path>
    <path d="M-454.14474567660164,109.53463813754983L-451.9815023842282,118.86287911833936L-434.3298698669949,114.76958538257782z" style="fill:rgb(43,180,168)">
    </path>
    <path d="M-447.763034470002,101.43914108011728L-454.14474567660164,109.53463813754983L-434.3298698669949,114.76958538257782z" style="fill:rgb(43,180,168)">
    </path>
    <path d="M-284.8858519881118,-431.26140505258513L-290.8912311865465,-435.92500577155425L-277.345744980728,-422.95094285056973z" style="fill:rgb(109,213,75)">
    </path>
    <path d="M-297.2243324025093,-428.0026016421444L-295.1255494110835,-418.4455518812569L-277.345744980728,-422.95094285056973z" style="fill:rgb(109,213,75)">
    </path>
    <path d="M-290.8912311865465,-435.92500577155425L-297.2243324025093,-428.0026016421444L-277.345744980728,-422.95094285056973z" style="fill:rgb(109,213,75)">
    </path>
    <path d="M-440.7439714306537,64.66096530502632L-446.84909091949146,60.303144835617736L-433.4023337970605,73.61868218865227z" style="fill:rgb(43,180,168)">
    </path>
    <path d="M-497.94649680228054,-112.60819154925383L-443.37723419060086,-95.96283601329498" style="fill:none;stroke:rgb(43,180,168);stroke-width:5;stroke-linecap:round">
    </path>
    <path d="M-403.9463171098079,-427.039309088455L-349.0374958515854,-411.5110290631964" style="fill:none;stroke:rgb(109,213,75);stroke-width:5;stroke-linecap:round">
    </path>
    <path d="M-453.23666304077284,68.39290539234615L-451.07171103241586,77.74732944051061L-433.4023337970605,73.61868218865227z" style="fill:rgb(43,180,168)">
    </path>
    <path d="M-446.84909091949146,60.303144835617736L-453.23666304077284,68.39290539234615L-433.4023337970605,73.61868218865227z" style="fill:rgb(43,180,168)">
    </path>
    <path d="M-439.8229357441667,23.475297037778603L-445.93338127874887,19.087658034935775L-432.47300415920614,32.388205873812836z" style="fill:rgb(43,180,168)">
    </path>
    <path d="M-497.08006554813005,-153.99511594359532L-442.4548000349776,-137.48098879233748" style="fill:none;stroke:rgb(43,180,168);stroke-width:5;stroke-linecap:round">
    </path>
    <path d="M-452.3268250615401,27.171644786621297L-450.1601617692878,36.552335734234596L-432.47300415920614,32.388205873812836z" style="fill:rgb(43,180,168)">
    </path>
    <path d="M-445.93338127874887,19.087658034935775L-452.3268250615401,27.171644786621297L-432.47300415920614,32.388205873812836z" style="fill:rgb(43,180,168)">
    </path>
    <path d="M-313.75239978118105,-423.63725675909376L-319.78910235046885,-428.30648925507944L-306.2330101802538,-415.2983867816686z" style="fill:rgb(109,213,75)">
    </path>
    <path d="M-438.900119649504,-17.789985191851855L-445.0159004236757,-22.207549954226298L-431.5418757460887,-8.922074590020967z" style="fill:rgb(43,180,168)">
    </path>
    <path d="M-496.2119582192998,-195.46210159578766L-441.5305751093572,-179.0797429475082" style="fill:none;stroke:rgb(43,180,168);stroke-width:5;stroke-linecap:round">
    </path>
    <path d="M-326.1458362371112,-420.36393851947196L-324.0302863215801,-410.7888226995556L-306.2330101802538,-415.2983867816686z" style="fill:rgb(109,213,75)">
    </path>
    <path d="M-319.78910235046885,-428.30648925507944L-326.1458362371112,-420.36393851947196L-306.2330101802538,-415.2983867816686z" style="fill:rgb(109,213,75)">
    </path>
    <path d="M-451.41522664430397,-14.1293744963269L-449.2468494949265,-4.722332477414531L-431.5418757460887,-8.922074590020967z" style="fill:rgb(43,180,168)">
    </path>
    <path d="M-445.0159004236757,-22.207549954226298L-451.41522664430397,-14.1293744963269L-431.5418757460887,-8.922074590020967z" style="fill:rgb(43,180,168)">
    </path>
    <path d="M-433.11578116300865,-419.3957665106294L-378.18828225265656,-403.80553708869195" style="fill:none;stroke:rgb(109,213,75);stroke-width:5;stroke-linecap:round">
    </path>
    <path d="M-437.9755179792441,-59.13511245387351L-444.0966432103316,-63.582710657232134L-430.608943330187,-50.3123911261341z" style="fill:rgb(43,180,168)">
    </path>
    <path d="M-495.34216994763773,-237.00938104343263L-440.6045541938988,-220.75933342040292" style="fill:none;stroke:rgb(43,180,168);stroke-width:5;stroke-linecap:round">
    </path>
    <path d="M-450.5018626747314,-55.51038416727648L-448.33176908966766,-46.076906563748004L-430.608943330187,-50.3123911261341z" style="fill:rgb(43,180,168)">
    </path>
    <path d="M-444.0966432103316,-63.582710657232134L-450.5018626747314,-55.51038416727648L-430.608943330187,-50.3123911261341z" style="fill:rgb(43,180,168)">
    </path>
    <path d="M-437.04912554594836,-100.56031671336451L-443.17560447483805,-105.03805649683883L-429.6742016637043,-91.78297655735679z" style="fill:rgb(43,180,168)">
    </path>
    <path d="M-494.4706958461203,-278.637187725544L-439.6767320484549,-262.51999606660047" style="fill:none;stroke:rgb(43,180,168);stroke-width:5;stroke-linecap:round">
    </path>
    <path d="M-342.7476023076055,-415.9791285531864L-348.81584817314564,-420.6539967508684L-335.2491900943962,-407.61167977896z" style="fill:rgb(109,213,75)">
    </path>
    <path d="M-449.58672801865924,-96.97161683541403L-447.41491541400546,-87.51161879078619L-429.6742016637043,-91.78297655735679z" style="fill:rgb(43,180,168)">
    </path>
    <path d="M-443.17560447483805,-105.03805649683883L-449.58672801865924,-96.97161683541403L-429.6742016637043,-91.78297655735679z" style="fill:rgb(43,180,168)">
    </path>
    <path d="M-355.1963627887686,-412.6911982936031L-353.06391709065053,-403.09795013950975L-335.2491900943962,-407.61167977896z" style="fill:rgb(109,213,75)">
    </path>
    <path d="M-348.81584817314564,-420.6539967508684L-355.1963627887686,-412.6911982936031L-335.2491900943962,-407.61167977896z" style="fill:rgb(109,213,75)">
    </path>
    <path d="M-462.41542080961733,-411.71811282644296L-407.46962579194695,-396.06553465649597" style="fill:none;stroke:rgb(109,213,75);stroke-width:5;stroke-linecap:round">
    </path>
    <path d="M-436.1209371420651,-142.0658308348115L-442.2527790332825,-146.57382079754873L-428.73764547847014,-133.33406461042975z" style="fill:rgb(43,180,168)">
    </path>
    <path d="M-493.5975310087624,-320.34575598691964L-438.74710341247277,-304.3619676601118" style="fill:none;stroke:rgb(43,180,168);stroke-width:5;stroke-linecap:round">
    </path>
    <path d="M-448.66981752199865,-138.51330601269376L-446.49628330849544,-129.02670232560666L-428.73764547847014,-133.33406461042975z" style="fill:rgb(43,180,168)">
    </path>
    <path d="M-442.2527790332825,-146.57382079754873L-448.66981752199865,-138.51330601269376L-428.73764547847014,-133.33406461042975z" style="fill:rgb(43,180,168)">
    </path>
    <path d="M-435.19094753983137,-183.65188858647252L-441.3281616816197,-188.19023778998653L-427.79926948584057,-174.9658899203948z" style="fill:rgb(43,180,168)">
    </path>
    <path d="M-492.72267051052364,-362.13532108253906L-437.8156630048948,-346.2854858978555" style="fill:none;stroke:rgb(43,180,168);stroke-width:5;stroke-linecap:round">
    </path>
    <path d="M-447.75112601063785,-180.13568611822092L-445.5758675936583,-170.62239124071772L-427.79926948584057,-174.9658899203948z" style="fill:rgb(43,180,168)">
    </path>
    <path d="M-441.3281616816197,-188.19023778998653L-447.75112601063785,-180.13568611822092L-427.79926948584057,-174.9658899203948z" style="fill:rgb(43,180,168)">
    </path>
    <path d="M-371.8723215863635,-408.28679276092834L-377.97233268681936,-412.9673004689955L-364.39514961132295,-399.89059272400175z" style="fill:rgb(109,213,75)">
    </path>
    <path d="M-384.37677736914924,-404.98415242094796L-382.22730580253875,-395.3727053092575L-364.39514961132295,-399.89059272400175z" style="fill:rgb(109,213,75)">
    </path>
    <path d="M-377.97233268681936,-412.9673004689955L-384.37677736914924,-404.98415242094796L-364.39514961132295,-399.89059272400175z" style="fill:rgb(109,213,75)">
    </path>
    <path d="M-434.2591514911749,-225.31872464476604L-440.40174719557535,-229.88754261530306L-426.8590683765996,-216.67868803501204z" style="fill:rgb(43,180,168)">
    </path>
    <path d="M-491.84610940721655,-404.0061191819867L-436.8824055240587,-388.2907894041576" style="fill:none;stroke:rgb(109,213,75);stroke-width:5;stroke-linecap:round">
    </path>
    <path d="M-491.84610940721655,-404.0061191819867L-436.8824055240587,-388.2907894041576" style="fill:none;stroke:rgb(43,180,168);stroke-width:5;stroke-linecap:round">
    </path>
    <path d="M-446.83064829034515,-221.83899248266164L-444.65366306988204,-212.2989205184582L-426.8590683765996,-216.67868803501204z" style="fill:rgb(43,180,168)">
    </path>
    <path d="M-440.40174719557535,-229.88754261530306L-446.83064829034515,-221.83899248266164L-426.8590683765996,-216.67868803501204z" style="fill:rgb(43,180,168)">
    </path>
    <path d="M-433.325543727616,-267.066574598685L-439.4735303305467,-271.66597132960305L-425.917036820858,-258.47269541920184z" style="fill:rgb(43,180,168)">
    </path>
    <path d="M-445.908379146671,-263.6234613526773L-443.7296645173246,-254.05652605542176L-425.917036820858,-258.47269541920184z" style="fill:rgb(43,180,168)">
    </path>
    <path d="M-439.4735303305467,-271.66597132960305L-445.908379146671,-263.6234613526773L-425.917036820858,-258.47269541920184z" style="fill:rgb(43,180,168)">
    </path>
    <path d="M-401.1274273546624,-400.5600196698684L-407.2594276648344,-405.24617057870347L-393.6717613732497,-392.13489444421896z" style="fill:rgb(109,213,75)">
    </path>
    <path d="M-413.6879530450601,-397.24257030965117L-411.52132428236763,-387.6128572664147L-393.6717613732497,-392.13489444421896z" style="fill:rgb(109,213,75)">
    </path>
    <path d="M-432.3901189601672,-308.89567495423756L-438.543505821504,-313.5257609084002L-424.9731694679539,-300.3481494595129z" style="fill:rgb(43,180,168)">
    </path>
    <path d="M-407.2594276648344,-405.24617057870347L-413.6879530450601,-397.24257030965117L-393.6717613732497,-392.13489444421896z" style="fill:rgb(109,213,75)">
    </path>
    <path d="M-444.98431334484934,-305.4893298953866L-442.803866695815,-295.89544466690774L-424.9731694679539,-300.3481494595129z" style="fill:rgb(43,180,168)">
    </path>
    <path d="M-438.543505821504,-313.5257609084002L-444.98431334484934,-305.4893298953866L-424.9731694679539,-300.3481494595129z" style="fill:rgb(43,180,168)">
    </path>
    <path d="M-431.45287187923435,-350.80626313891287L-437.6116683828908,-355.4671492510979L-424.0274609463499,-342.30528846861745z" style="fill:rgb(43,180,168)">
    </path>
    <path d="M-444.05844562969895,-347.4368362028523L-441.87626434475413,-337.8159140913985L-424.0274609463499,-342.30528846861745z" style="fill:rgb(43,180,168)">
    </path>
    <path d="M-437.6116683828908,-355.4671492510979L-444.05844562969895,-347.4368362028523L-424.0274609463499,-342.30528846861745z" style="fill:rgb(43,180,168)">
    </path>
    <path d="M-430.51379715451543,-392.79857750617293L-436.6780127085245,-397.49037518549545L-423.0799058635326,-384.34435168983146z" style="fill:rgb(43,180,168)">
    </path>
    <path d="M-430.5137971545153,-392.7985775061731L-436.6780127085243,-397.49037518549557L-423.07990586353236,-384.34435168983157z" style="fill:rgb(109,213,75)">
    </path>
    <path d="M-443.1307707255235,-389.46621929659455L-440.9468521830158,-379.8181729950613L-423.0799058635326,-384.34435168983146z" style="fill:rgb(43,180,168)">
    </path>
    <path d="M-443.13077072552346,-389.46621929659455L-440.94685218301555,-379.8181729950613L-423.07990586353236,-384.34435168983157z" style="fill:rgb(109,213,75)">
    </path>
    <path d="M-436.6780127085245,-397.49037518549545L-443.1307707255235,-389.46621929659455L-423.0799058635326,-384.34435168983146z" style="fill:rgb(43,180,168)">
    </path>
    <path d="M-436.6780127085243,-397.49037518549557L-443.13077072552346,-389.46621929659455L-423.07990586353236,-384.34435168983157z" style="fill:rgb(109,213,75)">
    </path>
</svg>