<svg viewBox="-1163.5 -664 2327 1328" width="2327" height="1328" style="background-color: rgb(255, 255, 255);">
    <path d="M-206.08193300170979,93.44549521471308L-214.64785139447844,-651.4793756482011" style="fill:none;stroke:rgb(0,0,0);stroke-width:1;stroke-linecap:round">
    </path>
    <path d="M-25.097551727696384,166.97106285948115L-206.08193300170979,93.44549521471308" style="fill:none;stroke:rgb(160,0,0);stroke-width:4;stroke-linecap:round">
    </path>
    <path d="M-25.097551727696384,166.97106285948115L-20.38362733751045,-612.1083758546596" style="fill:none;stroke:rgb(0,0,0);stroke-width:1;stroke-linecap:round">
    </path>
    <path d="M-230.890768979951,281.0948705879029L-25.097551727696384,166.97106285948115" style="fill:none;stroke:rgb(160,0,0);stroke-width:4;stroke-linecap:round">
    </path>
    <path d="M-20.38362733751045,-612.1083758546596L-25.097551727696384,166.97106285948115L-206.08193300170979,93.44549521471308z" style="fill:rgb(0,0,0); fill-opacity: 0.2">
    </path>
    <path d="M164.37666101763458,178.17914188821305L167.68207117002908,193.76761822165233L173.86759084612464,185.84175920841z" style="fill:rgb(197,147,42)">
    </path>
    <path d="M167.68207117002908,193.76761822165233L179.5478697004727,198.43622914573322L173.86759084612464,185.84175920841z" style="fill:rgb(197,147,42)">
    </path>
    <path d="M183.60431672015648,185.6759599911694L179.5478697004727,198.43622914573322L193.76661091011326,178.79710512306548z" style="fill:rgb(197,147,42)">
    </path>
    <path d="M174.19136733658786,173.1353029459677L164.37666101763458,178.17914188821305L173.86759084612464,185.84175920841z" style="fill:rgb(197,147,42)">
    </path>
    <path d="M174.19136733658786,173.1353029459677L183.60431672015648,185.6759599911694L193.76661091011326,178.79710512306548z" style="fill:rgb(197,147,42)">
    </path>
    <path d="M92.37113473454815,214.69314689691709L173.86759084612464,185.84175920841" style="fill:none;stroke:rgb(197,147,42);stroke-width:5;stroke-linecap:round">
    </path>
    <path d="M179.5478697004727,198.43622914573322L183.60431672015648,185.6759599911694L173.86759084612464,185.84175920841z" style="fill:rgb(197,147,42)">
    </path>
    <path d="M183.60431672015648,185.6759599911694L174.19136733658786,173.1353029459677L173.86759084612464,185.84175920841z" style="fill:rgb(197,147,42)">
    </path>
    <path d="M165.87835747736415,116.9767617866242L169.20277389812438,132.68736013075159L175.42907679564607,124.56197668427505z" style="fill:rgb(197,147,42)">
    </path>
    <path d="M-214.64785139447844,-651.4793756482011L-206.08193300170979,93.44549521471308L-20.38362733751045,-612.1083758546596z" style="fill:rgb(0,0,0); fill-opacity: 0.2">
    </path>
    <path d="M169.20277389812438,132.68736013075159L181.14408684219572,137.20273007716034L175.42907679564607,124.56197668427505z" style="fill:rgb(197,147,42)">
    </path>
    <path d="M185.22855986579304,124.22412631389315L181.14408684219572,137.20273007716034L195.43922997696086,117.76287774990652z" style="fill:rgb(197,147,42)">
    </path>
    <path d="M175.75674034920382,111.70297445677947L165.87835747736415,116.9767617866242L175.42907679564607,124.56197668427505z" style="fill:rgb(197,147,42)">
    </path>
    <path d="M175.75674034920382,111.70297445677947L185.22855986579304,124.22412631389315L195.43922997696086,117.76287774990652z" style="fill:rgb(197,147,42)">
    </path>
    <path d="M93.46582552071457,152.41165126453495L175.42907679564607,124.56197668427505" style="fill:none;stroke:rgb(197,147,42);stroke-width:5;stroke-linecap:round">
    </path>
    <path d="M181.14408684219572,137.20273007716034L185.22855986579304,124.22412631389315L175.42907679564607,124.56197668427505z" style="fill:rgb(197,147,42)">
    </path>
    <path d="M185.22855986579304,124.22412631389315L175.75674034920382,111.70297445677947L175.42907679564607,124.56197668427505z" style="fill:rgb(197,147,42)">
    </path>
    <path d="M-20.38362733751045,-612.1083758546596L-214.64785139447844,-651.4793756482011" style="fill:none;stroke:rgb(0,0,0);stroke-width:1;stroke-linecap:round">
    </path>
    <path d="M-214.64785139447844,-651.4793756482011L-925.7032034546347,-548.6530417973316" style="fill:none;stroke:rgb(0,0,0);stroke-width:1;stroke-linecap:round">
    </path>
    <path d="M-20.38362733751045,-612.1083758546596L-214.64785139447844,-651.4793756482011" style="fill:none;stroke:rgb(0,0,0);stroke-width:1;stroke-linecap:round">
    </path>
    <path d="M167.39808895041753,55.039355819169366L170.7417311590333,70.87389392824225L177.00935380299828,62.54474792335696z" style="fill:rgb(197,147,42)">
    </path>
    <path d="M170.7417311590333,70.87389392824225L182.75952217051392,75.23198995271478L177.00935380299828,62.54474792335696z" style="fill:rgb(197,147,42)">
    </path>
    <path d="M186.87240418564826,62.03069917433821L182.75952217051392,75.23198995271478L197.13188248984287,55.997625647585544z" style="fill:rgb(197,147,42)">
    </path>
    <path d="M177.34097484072677,49.53043608875018L167.39808895041753,55.039355819169366L177.00935380299828,62.54474792335696z" style="fill:rgb(197,147,42)">
    </path>
    <path d="M177.34097484072677,49.53043608875018L186.87240418564826,62.03069917433821L197.13188248984287,55.997625647585544z" style="fill:rgb(197,147,42)">
    </path>
    <path d="M94.5739446160422,89.36616347204476L177.00935380299825,62.54474792335696" style="fill:none;stroke:rgb(197,147,42);stroke-width:5;stroke-linecap:round">
    </path>
    <path d="M182.75952217051392,75.23198995271478L186.87240418564826,62.03069917433821L177.00935380299828,62.54474792335696z" style="fill:rgb(197,147,42)">
    </path>
    <path d="M186.87240418564826,62.03069917433821L177.34097484072677,49.53043608875018L177.00935380299828,62.54474792335696z" style="fill:rgb(197,147,42)">
    </path>
    <path d="M94.5739446160422,89.36616347204476L92.37113473454815,214.69314689691709" style="fill:none;stroke:rgb(104,70,1);stroke-width:5;stroke-linecap:round">
    </path>
    <path d="M92.37113473454815,214.69314689691709L-230.890768979951,281.0948705879029" style="fill:none;stroke:rgb(160,0,0);stroke-width:4;stroke-linecap:round">
    </path>
    <path d="M105.73226274580257,191.81728188718623L90.67613206204881,188.6199974121058L92.73455472660868,194.01667740044476z" style="fill:rgb(109,213,75)">
    </path>
    <path d="M105.73226274580257,191.81728188718623L90.67613206204881,188.6199974121058L92.73455472660874,194.01667740044476z" style="fill:rgb(43,180,168)">
    </path>
    <path d="M105.73226274580257,191.81728188718623L90.67613206204881,188.6199974121058L92.73455472660868,194.01667740044476z" style="fill:rgb(74,87,214)">
    </path>
    <path d="M90.67613206204881,188.6199974121058L78.45045585609319,192.87316769054672L92.73455472660868,194.01667740044476z" style="fill:rgb(109,213,75)">
    </path>
    <path d="M90.67613206204881,188.6199974121058L78.45045585609324,192.87316769054672L92.73455472660874,194.01667740044476z" style="fill:rgb(43,180,168)">
    </path>
    <path d="M90.67613206204881,188.6199974121058L78.45045585609319,192.87316769054672L92.73455472660868,194.01667740044476z" style="fill:rgb(74,87,214)">
    </path>
    <path d="M85.94538788299948,198.7394074866524L78.45045585609319,192.87316769054672L92.28050899387311,219.8492208708265z" style="fill:rgb(109,213,75)">
    </path>
    <path d="M85.94538788299955,198.7394074866524L78.45045585609324,192.87316769054672L92.28050899387318,219.84922087082646z" style="fill:rgb(43,180,168)">
    </path>
    <path d="M85.94538788299948,198.7394074866524L78.45045585609319,192.87316769054672L92.28050899387311,219.8492208708265z" style="fill:rgb(74,87,214)">
    </path>
    <path d="M94.5739446160422,89.36616347204476L92.73455472660868,194.01667740044473" style="fill:none;stroke:rgb(109,213,75);stroke-width:5;stroke-linecap:round">
    </path>
    <path d="M94.57394461604225,89.36616347204473L92.73455472660874,194.01667740044473" style="fill:none;stroke:rgb(43,180,168);stroke-width:5;stroke-linecap:round">
    </path>
    <path d="M94.5739446160422,89.36616347204476L92.73455472660868,194.01667740044473" style="fill:none;stroke:rgb(74,87,214);stroke-width:5;stroke-linecap:round">
    </path>
    <path d="M102.87103266353294,198.08121044618622L105.73226274580257,191.81728188718623L92.73455472660868,194.01667740044476z" style="fill:rgb(109,213,75)">
    </path>
    <path d="M102.87103266353301,198.0812104461862L105.73226274580257,191.81728188718623L92.73455472660874,194.01667740044476z" style="fill:rgb(43,180,168)">
    </path>
    <path d="M102.87103266353294,198.08121044618622L105.73226274580257,191.81728188718623L92.73455472660868,194.01667740044476z" style="fill:rgb(74,87,214)">
    </path>
    <path d="M78.45045585609319,192.87316769054672L85.94538788299948,198.7394074866524L92.73455472660868,194.01667740044476z" style="fill:rgb(109,213,75)">
    </path>
    <path d="M78.45045585609324,192.87316769054672L85.94538788299955,198.7394074866524L92.73455472660874,194.01667740044476z" style="fill:rgb(43,180,168)">
    </path>
    <path d="M78.45045585609319,192.87316769054672L85.94538788299948,198.7394074866524L92.73455472660868,194.01667740044476z" style="fill:rgb(74,87,214)">
    </path>
    <path d="M102.87103266353294,198.08121044618622L85.94538788299948,198.7394074866524L92.28050899387311,219.8492208708265z" style="fill:rgb(109,213,75)">
    </path>
    <path d="M102.87103266353301,198.0812104461862L85.94538788299955,198.7394074866524L92.28050899387318,219.84922087082646z" style="fill:rgb(43,180,168)">
    </path>
    <path d="M102.87103266353294,198.08121044618622L85.94538788299948,198.7394074866524L92.28050899387311,219.8492208708265z" style="fill:rgb(74,87,214)">
    </path>
    <path d="M85.94538788299948,198.7394074866524L102.87103266353294,198.08121044618622L92.73455472660868,194.01667740044476z" style="fill:rgb(109,213,75)">
    </path>
    <path d="M85.94538788299955,198.7394074866524L102.87103266353301,198.0812104461862L92.73455472660874,194.01667740044476z" style="fill:rgb(43,180,168)">
    </path>
    <path d="M85.94538788299948,198.7394074866524L102.87103266353294,198.08121044618622L92.73455472660868,194.01667740044476z" style="fill:rgb(74,87,214)">
    </path>
    <path d="M56.86270307546672,208.91352535030123L41.73533919981334,205.64592891056932L43.644896993122266,211.1634128671671z" style="fill:rgb(74,87,214)">
    </path>
    <path d="M41.73533919981334,205.64592891056932L29.23262249801266,209.99547834898505L43.644896993122266,211.1634128671671z" style="fill:rgb(74,87,214)">
    </path>
    <path d="M55.45023416085208,209.40765528744882L40.320844032984695,206.1380152950937L42.22604219423846,211.65901069826694z" style="fill:rgb(109,213,75)">
    </path>
    <path d="M55.45023416085208,209.40765528744882L40.32084403298473,206.1380152950937L42.226042194238524,211.65901069826694z" style="fill:rgb(43,180,168)">
    </path>
    <path d="M40.320844032984695,206.1380152950937L27.810073977509024,210.490366401402L42.22604219423846,211.65901069826694z" style="fill:rgb(109,213,75)">
    </path>
    <path d="M40.32084403298473,206.1380152950937L27.810073977509056,210.490366401402L42.226042194238524,211.65901069826694z" style="fill:rgb(43,180,168)">
    </path>
    <path d="M94.5739446160422,89.36616347204476L-237.5466477388341,-189.09439915117653" style="fill:none;stroke:rgb(0,0,0);stroke-width:1;stroke-linecap:round">
    </path>
    <path d="M-173.03613923874568,176.43652965182713L94.5739446160422,89.36616347204476" style="fill:none;stroke:rgb(45,114,23);stroke-width:5;stroke-linecap:round">
    </path>
    <path d="M94.5739446160422,89.36616347204476L-237.5466477388341,-189.09439915117653" style="fill:none;stroke:rgb(0,0,0);stroke-width:1;stroke-linecap:round">
    </path>
    <path d="M94.5739446160422,89.36616347204476L-173.03613923874568,176.43652965182713" style="fill:none;stroke:rgb(1,93,85);stroke-width:5;stroke-linecap:round">
    </path>
    <path d="M94.5739446160422,89.36616347204476L37.97932207870005,-255.97591446250857" style="fill:none;stroke:rgb(0,0,0);stroke-width:1;stroke-linecap:round">
    </path>
    <path d="M-585.7001269454281,310.70204013358835L94.5739446160422,89.36616347204476" style="fill:none;stroke:rgb(22,31,115);stroke-width:5;stroke-linecap:round">
    </path>
    <path d="M94.5739446160422,89.36616347204476L37.97932207870005,-255.97591446250857" style="fill:none;stroke:rgb(0,0,0);stroke-width:1;stroke-linecap:round">
    </path>
    <path d="M56.86270307546672,208.91352535030123L53.76869438510957,215.31846301837925L43.311002471347365,237.24311712908036z" style="fill:rgb(74,87,214)">
    </path>
    <path d="M55.45023416085208,209.40765528744882L52.3494307593693,215.81669195087312L41.89566193072011,237.74584399487892z" style="fill:rgb(109,213,75)">
    </path>
    <path d="M55.45023416085208,209.40765528744882L52.34943075936936,215.81669195087312L41.89566193072017,237.7458439948789z" style="fill:rgb(43,180,168)">
    </path>
    <path d="M36.62613913982509,215.99296756820664L29.23262249801266,209.99547834898505L43.311002471347365,237.24311712908036z" style="fill:rgb(74,87,214)">
    </path>
    <path d="M44.99773560209342,105.4964176480879L43.64489699312228,211.1634128671671" style="fill:none;stroke:rgb(74,87,214);stroke-width:5;stroke-linecap:round">
    </path>
    <path d="M35.20059745952428,216.49167080592034L27.810073977509024,210.490366401402L41.89566193072011,237.74584399487892z" style="fill:rgb(109,213,75)">
    </path>
    <path d="M35.20059745952428,216.49167080592034L27.810073977509056,210.490366401402L41.89566193072017,237.7458439948789z" style="fill:rgb(43,180,168)">
    </path>
    <path d="M43.564647670349025,105.96269115014519L42.226042194238474,211.65901069826694" style="fill:none;stroke:rgb(109,213,75);stroke-width:5;stroke-linecap:round">
    </path>
    <path d="M43.56464767034908,105.96269115014518L42.22604219423853,211.65901069826694" style="fill:none;stroke:rgb(43,180,168);stroke-width:5;stroke-linecap:round">
    </path>
    <path d="M53.76869438510957,215.31846301837925L56.86270307546672,208.91352535030123L43.644896993122266,211.1634128671671z" style="fill:rgb(74,87,214)">
    </path>
    <path d="M52.3494307593693,215.81669195087312L55.45023416085208,209.40765528744882L42.22604219423846,211.65901069826694z" style="fill:rgb(109,213,75)">
    </path>
    <path d="M52.34943075936936,215.81669195087312L55.45023416085208,209.40765528744882L42.226042194238524,211.65901069826694z" style="fill:rgb(43,180,168)">
    </path>
    <path d="M29.23262249801266,209.99547834898505L36.62613913982509,215.99296756820664L43.644896993122266,211.1634128671671z" style="fill:rgb(74,87,214)">
    </path>
    <path d="M53.76869438510957,215.31846301837925L36.62613913982509,215.99296756820664L43.311002471347365,237.24311712908036z" style="fill:rgb(74,87,214)">
    </path>
    <path d="M27.810073977509024,210.490366401402L35.20059745952428,216.49167080592034L42.22604219423846,211.65901069826694z" style="fill:rgb(109,213,75)">
    </path>
    <path d="M27.810073977509056,210.490366401402L35.20059745952428,216.49167080592034L42.226042194238524,211.65901069826694z" style="fill:rgb(43,180,168)">
    </path>
    <path d="M52.3494307593693,215.81669195087312L35.20059745952428,216.49167080592034L41.89566193072011,237.74584399487892z" style="fill:rgb(109,213,75)">
    </path>
    <path d="M52.34943075936936,215.81669195087312L35.20059745952428,216.49167080592034L41.89566193072017,237.7458439948789z" style="fill:rgb(43,180,168)">
    </path>
    <path d="M36.62613913982509,215.99296756820664L53.76869438510957,215.31846301837925L43.644896993122266,211.1634128671671z" style="fill:rgb(74,87,214)">
    </path>
    <path d="M35.20059745952428,216.49167080592034L52.3494307593693,215.81669195087312L42.22604219423846,211.65901069826694z" style="fill:rgb(109,213,75)">
    </path>
    <path d="M35.20059745952428,216.49167080592034L52.34943075936936,215.81669195087312L42.226042194238524,211.65901069826694z" style="fill:rgb(43,180,168)">
    </path>
    <path d="M94.5739446160422,89.36616347204476L92.37113473454815,214.69314689691709L-230.890768979951,281.0948705879029z" style="fill:rgb(0,0,0); fill-opacity: 0.2">
    </path>
    <path d="M6.878722159772523,226.3996314817038L-8.319232085878713,223.0593309429824L-6.56590047162331,228.70175600199542z" style="fill:rgb(74,87,214)">
    </path>
    <path d="M-8.319232085878713,223.0593309429824L-21.108513937221637,227.50857305739714L-6.56590047162331,228.70175600199542z" style="fill:rgb(74,87,214)">
    </path>
    <path d="M3.988044578785762,227.41088936966705L-11.213921925695846,224.06635980458577L-9.469747894127202,229.71605322646826z" style="fill:rgb(109,213,75)">
    </path>
    <path d="M3.9880445787857934,227.41088936966705L-11.213921925695784,224.06635980458577L-9.46974789412717,229.71605322646826z" style="fill:rgb(43,180,168)">
    </path>
    <path d="M-11.213921925695846,224.06635980458577L-24.019875636305866,228.5214018645518L-9.469747894127202,229.71605322646826z" style="fill:rgb(109,213,75)">
    </path>
    <path d="M-11.213921925695784,224.06635980458577L-24.019875636305837,228.52140186455176L-9.46974789412717,229.71605322646826z" style="fill:rgb(43,180,168)">
    </path>
    <path d="M6.878722159772523,226.3996314817038L3.5419825415974433,232.95042410765012L-6.774013325482628,255.0332406309852z" style="fill:rgb(74,87,214)">
    </path>
    <path d="M-13.823036785679458,233.64181482515224L-21.108513937221637,227.50857305739714L-6.774013325482628,255.0332406309852z" style="fill:rgb(74,87,214)">
    </path>
    <path d="M-5.722566621974209,121.99891719438737L-6.565900471623295,228.70175600199542" style="fill:none;stroke:rgb(74,87,214);stroke-width:5;stroke-linecap:round">
    </path>
    <path d="M3.988044578785762,227.41088936966705L0.6371236578070832,233.97016752562243L-9.670497118404837,256.0620673884006z" style="fill:rgb(109,213,75)">
    </path>
    <path d="M3.9880445787857934,227.41088936966705L0.6371236578071149,233.97016752562243L-9.670497118404805,256.0620673884005z" style="fill:rgb(43,180,168)">
    </path>
    <path d="M3.5419825415974433,232.95042410765012L6.878722159772523,226.3996314817038L-6.56590047162331,228.70175600199542z" style="fill:rgb(74,87,214)">
    </path>
    <path d="M-16.740780016137073,234.66254120302952L-24.019875636305866,228.5214018645518L-9.670497118404837,256.0620673884006z" style="fill:rgb(109,213,75)">
    </path>
    <path d="M-16.74078001613704,234.6625412030295L-24.019875636305837,228.52140186455176L-9.670497118404805,256.0620673884005z" style="fill:rgb(43,180,168)">
    </path>
    <path d="M-8.656246688454893,122.95342755499622L-9.469747894127188,229.71605322646826" style="fill:none;stroke:rgb(109,213,75);stroke-width:5;stroke-linecap:round">
    </path>
    <path d="M-8.656246688454859,122.95342755499621L-9.469747894127156,229.71605322646826" style="fill:none;stroke:rgb(43,180,168);stroke-width:5;stroke-linecap:round">
    </path>
    <path d="M-21.108513937221637,227.50857305739714L-13.823036785679458,233.64181482515224L-6.56590047162331,228.70175600199542z" style="fill:rgb(74,87,214)">
    </path>
    <path d="M0.6371236578070832,233.97016752562243L3.988044578785762,227.41088936966705L-9.469747894127202,229.71605322646826z" style="fill:rgb(109,213,75)">
    </path>
    <path d="M0.6371236578071149,233.97016752562243L3.9880445787857934,227.41088936966705L-9.46974789412717,229.71605322646826z" style="fill:rgb(43,180,168)">
    </path>
    <path d="M3.5419825415974433,232.95042410765012L-13.823036785679458,233.64181482515224L-6.774013325482628,255.0332406309852z" style="fill:rgb(74,87,214)">
    </path>
    <path d="M-24.019875636305866,228.5214018645518L-16.740780016137073,234.66254120302952L-9.469747894127202,229.71605322646826z" style="fill:rgb(109,213,75)">
    </path>
    <path d="M-24.019875636305837,228.52140186455176L-16.74078001613704,234.6625412030295L-9.46974789412717,229.71605322646826z" style="fill:rgb(43,180,168)">
    </path>
    <path d="M0.6371236578070832,233.97016752562243L-16.740780016137073,234.66254120302952L-9.670497118404837,256.0620673884006z" style="fill:rgb(109,213,75)">
    </path>
    <path d="M0.6371236578071149,233.97016752562243L-16.74078001613704,234.6625412030295L-9.670497118404805,256.0620673884005z" style="fill:rgb(43,180,168)">
    </path>
    <path d="M-13.823036785679458,233.64181482515224L3.5419825415974433,232.95042410765012L-6.56590047162331,228.70175600199542z" style="fill:rgb(74,87,214)">
    </path>
    <path d="M-16.740780016137073,234.66254120302952L0.6371236578070832,233.97016752562243L-9.469747894127202,229.71605322646826z" style="fill:rgb(109,213,75)">
    </path>
    <path d="M-16.74078001613704,234.6625412030295L0.6371236578071149,233.97016752562243L-9.46974789412717,229.71605322646826z" style="fill:rgb(43,180,168)">
    </path>
    <path d="M37.97932207870005,-255.97591446250857L-20.38362733751045,-612.1083758546596" style="fill:none;stroke:rgb(0,0,0);stroke-width:1;stroke-linecap:round">
    </path>
    <path d="M37.97932207870005,-255.97591446250857L-20.38362733751045,-612.1083758546596" style="fill:none;stroke:rgb(0,0,0);stroke-width:1;stroke-linecap:round">
    </path>
    <path d="M-44.258239543609974,244.2890897281567L-59.52603990659856,240.8735826381835L-57.936689241567485,246.64527743653656z" style="fill:rgb(74,87,214)">
    </path>
    <path d="M-59.52603990659856,240.8735826381835L-72.61185322830026,245.42598459546556L-57.936689241567485,246.64527743653656z" style="fill:rgb(74,87,214)">
    </path>
    <path d="M-237.5466477388341,-189.09439915117653L-230.890768979951,281.0948705879029L-25.097551727696384,166.97106285948115z" style="fill:rgb(0,0,0); fill-opacity: 0.2">
    </path>
    <path d="M-20.38362733751045,-612.1083758546596L-25.097551727696384,166.97106285948115L-237.5466477388341,-189.09439915117653z" style="fill:rgb(0,0,0); fill-opacity: 0.2">
    </path>
    <path d="M-48.69634842475537,245.84169201186285L-63.970097477943334,242.41961847781397L-62.39517649892793,248.20260142520158z" style="fill:rgb(109,213,75)">
    </path>
    <path d="M-48.69634842475531,245.8416920118628L-63.970097477943305,242.41961847781397L-62.39517649892787,248.20260142520155z" style="fill:rgb(43,180,168)">
    </path>
    <path d="M-44.258239543609974,244.2890897281567L-47.84816998592176,250.99080812800995L-58.01309394023789,273.2332862485858z" style="fill:rgb(74,87,214)">
    </path>
    <path d="M-63.970097477943334,242.41961847781397L-77.081806447862,246.98102922933214L-62.39517649892793,248.20260142520158z" style="fill:rgb(109,213,75)">
    </path>
    <path d="M-63.970097477943305,242.41961847781397L-77.08180644786196,246.98102922933214L-62.39517649892787,248.20260142520155z" style="fill:rgb(43,180,168)">
    </path>
    <path d="M-65.44142060802118,251.69969099494597L-72.61185322830026,245.42598459546556L-58.01309394023789,273.2332862485858z" style="fill:rgb(74,87,214)">
    </path>
    <path d="M-57.62702852834678,138.88669825051804L-57.93668924156747,246.64527743653656" style="fill:none;stroke:rgb(74,87,214);stroke-width:5;stroke-linecap:round">
    </path>
    <path d="M-47.84816998592176,250.99080812800995L-44.258239543609974,244.2890897281567L-57.936689241567485,246.64527743653656z" style="fill:rgb(74,87,214)">
    </path>
    <path d="M-48.69634842475537,245.84169201186285L-52.30848483714786,252.55659045809242L-62.46000612956511,274.812822878287z" style="fill:rgb(109,213,75)">
    </path>
    <path d="M-48.69634842475531,245.8416920118628L-52.30848483714779,252.55659045809236L-62.460006129565045,274.812822878287z" style="fill:rgb(43,180,168)">
    </path>
    <path d="M-72.61185322830026,245.42598459546556L-65.44142060802118,251.69969099494597L-57.936689241567485,246.64527743653656z" style="fill:rgb(74,87,214)">
    </path>
    <path d="M-69.92157367449352,253.26700177272085L-77.081806447862,246.98102922933214L-62.46000612956511,274.812822878287z" style="fill:rgb(109,213,75)">
    </path>
    <path d="M-69.92157367449346,253.26700177272085L-77.08180644786196,246.98102922933214L-62.460006129565045,274.812822878287z" style="fill:rgb(43,180,168)">
    </path>
    <path d="M-62.132424960594896,140.35258664863156L-62.395176498927846,248.2026014252015" style="fill:none;stroke:rgb(43,180,168);stroke-width:5;stroke-linecap:round">
    </path>
    <path d="M-62.13242496059496,140.3525866486316L-62.39517649892791,248.20260142520152" style="fill:none;stroke:rgb(109,213,75);stroke-width:5;stroke-linecap:round">
    </path>
    <path d="M-47.84816998592176,250.99080812800995L-65.44142060802118,251.69969099494597L-58.01309394023789,273.2332862485858z" style="fill:rgb(74,87,214)">
    </path>
    <path d="M-52.30848483714786,252.55659045809242L-48.69634842475537,245.84169201186285L-62.39517649892793,248.20260142520158z" style="fill:rgb(109,213,75)">
    </path>
    <path d="M-52.30848483714779,252.55659045809236L-48.69634842475531,245.8416920118628L-62.39517649892787,248.20260142520155z" style="fill:rgb(43,180,168)">
    </path>
    <path d="M-20.38362733751045,-612.1083758546596L-20.38362733751045,-612.1083758546596L37.97932207870005,-255.97591446250857z" style="fill:rgb(0,0,0); fill-opacity: 0.2">
    </path>
    <path d="M-77.081806447862,246.98102922933214L-69.92157367449352,253.26700177272085L-62.39517649892793,248.20260142520158z" style="fill:rgb(109,213,75)">
    </path>
    <path d="M-77.08180644786196,246.98102922933214L-69.92157367449346,253.26700177272085L-62.39517649892787,248.20260142520155z" style="fill:rgb(43,180,168)">
    </path>
    <path d="M-65.44142060802118,251.69969099494597L-47.84816998592176,250.99080812800995L-57.936689241567485,246.64527743653656z" style="fill:rgb(74,87,214)">
    </path>
    <path d="M-52.30848483714786,252.55659045809242L-69.92157367449352,253.26700177272085L-62.46000612956511,274.812822878287z" style="fill:rgb(109,213,75)">
    </path>
    <path d="M-52.30848483714779,252.55659045809236L-69.92157367449346,253.26700177272085L-62.460006129565045,274.812822878287z" style="fill:rgb(43,180,168)">
    </path>
    <path d="M-69.92157367449352,253.26700177272085L-52.30848483714786,252.55659045809242L-62.39517649892793,248.20260142520158z" style="fill:rgb(109,213,75)">
    </path>
    <path d="M-69.92157367449346,253.26700177272085L-52.30848483714779,252.55659045809236L-62.39517649892787,248.20260142520155z" style="fill:rgb(43,180,168)">
    </path>
    <path d="M-230.890768979951,281.0948705879029L-237.5466477388341,-189.09439915117653" style="fill:none;stroke:rgb(0,0,0);stroke-width:1;stroke-linecap:round">
    </path>
    <path d="M-237.5466477388341,-189.09439915117653L-20.38362733751045,-612.1083758546596" style="fill:none;stroke:rgb(0,0,0);stroke-width:1;stroke-linecap:round">
    </path>
    <path d="M-20.38362733751045,-612.1083758546596L-20.38362733751045,-612.1083758546596" style="fill:none;stroke:rgb(0,0,0);stroke-width:1;stroke-linecap:round">
    </path>
    <path d="M-237.5466477388341,-189.09439915117653L-20.38362733751045,-612.1083758546596" style="fill:none;stroke:rgb(0,0,0);stroke-width:1;stroke-linecap:round">
    </path>
    <path d="M-20.38362733751045,-612.1083758546596L-744.0083122790021,-496.5210937758736" style="fill:none;stroke:rgb(0,0,0);stroke-width:1;stroke-linecap:round">
    </path>
    <path d="M37.97932207870005,-255.97591446250857L-237.5466477388341,-189.09439915117653L94.5739446160422,89.36616347204476z" style="fill:rgb(0,0,0); fill-opacity: 0.2">
    </path>
    <path d="M-96.58854123981558,262.5960191200262L-111.92533357143927,259.10268626175537L-110.50813700025574,265.0081821590507z" style="fill:rgb(74,87,214)">
    </path>
    <path d="M-111.92533357143927,259.10268626175537L-125.31811225206842,263.76187789014494L-110.50813700025574,265.0081821590507z" style="fill:rgb(74,87,214)">
    </path>
    <path d="M-96.58854123981558,262.5960191200262L-100.4426614084537,269.45397229374976L-110.44659242851165,291.85758732751987z" style="fill:rgb(74,87,214)">
    </path>
    <path d="M-102.64700824937574,264.7154780983228L-117.99162574301873,261.21307861387186L-116.59464403551975,267.1341641045069z" style="fill:rgb(109,213,75)">
    </path>
    <path d="M-102.6470082493757,264.7154780983228L-117.9916257430187,261.2130786138718L-116.5946440355197,267.1341641045069z" style="fill:rgb(43,180,168)">
    </path>
    <path d="M-117.99162574301873,261.21307861387186L-131.42017248006968,265.8847135322626L-116.59464403551975,267.1341641045069z" style="fill:rgb(109,213,75)">
    </path>
    <path d="M-117.9916257430187,261.2130786138718L-131.42017248006962,265.8847135322626L-116.5946440355197,267.1341641045069z" style="fill:rgb(43,180,168)">
    </path>
    <path d="M-118.27013512396209,270.18098223842236L-125.31811225206842,263.76187789014494L-110.44659242851165,291.85758732751987z" style="fill:rgb(74,87,214)">
    </path>
    <path d="M-110.75760953887905,156.17341285145915L-110.50813700025573,265.0081821590507" style="fill:none;stroke:rgb(74,87,214);stroke-width:5;stroke-linecap:round">
    </path>
    <path d="M-100.4426614084537,269.45397229374976L-96.58854123981558,262.5960191200262L-110.50813700025574,265.0081821590507z" style="fill:rgb(74,87,214)">
    </path>
    <path d="M-237.5466477388341,-189.09439915117653L-230.890768979951,281.0948705879029L94.5739446160422,89.36616347204476z" style="fill:rgb(0,0,0); fill-opacity: 0.2">
    </path>
    <path d="M-102.64700824937574,264.7154780983228L-106.53204721948318,271.5916358941891L-116.51692163155242,294.013759278376z" style="fill:rgb(109,213,75)">
    </path>
    <path d="M-102.6470082493757,264.7154780983228L-106.53204721948315,271.5916358941891L-116.51692163155239,294.013759278376z" style="fill:rgb(43,180,168)">
    </path>
    <path d="M-125.31811225206842,263.76187789014494L-118.27013512396209,270.18098223842236L-110.50813700025574,265.0081821590507z" style="fill:rgb(74,87,214)">
    </path>
    <path d="M-100.4426614084537,269.45397229374976L-118.27013512396209,270.18098223842236L-110.44659242851165,291.85758732751987z" style="fill:rgb(74,87,214)">
    </path>
    <path d="M-124.38668128949763,272.32075929196617L-131.42017248006962,265.8847135322626L-116.51692163155239,294.013759278376z" style="fill:rgb(43,180,168)">
    </path>
    <path d="M-124.38668128949766,272.32075929196617L-131.42017248006968,265.8847135322626L-116.51692163155242,294.013759278376z" style="fill:rgb(109,213,75)">
    </path>
    <path d="M-116.90969946540699,158.17507405554292L-116.59464403551972,267.1341641045069" style="fill:none;stroke:rgb(109,213,75);stroke-width:5;stroke-linecap:round">
    </path>
    <path d="M-116.90969946540694,158.17507405554292L-116.59464403551969,267.1341641045069" style="fill:none;stroke:rgb(43,180,168);stroke-width:5;stroke-linecap:round">
    </path>
    <path d="M-106.53204721948318,271.5916358941891L-102.64700824937574,264.7154780983228L-116.59464403551975,267.1341641045069z" style="fill:rgb(109,213,75)">
    </path>
    <path d="M-106.53204721948315,271.5916358941891L-102.6470082493757,264.7154780983228L-116.5946440355197,267.1341641045069z" style="fill:rgb(43,180,168)">
    </path>
    <path d="M-118.27013512396209,270.18098223842236L-100.4426614084537,269.45397229374976L-110.50813700025574,265.0081821590507z" style="fill:rgb(74,87,214)">
    </path>
    <path d="M-131.42017248006962,265.8847135322626L-124.38668128949763,272.32075929196617L-116.5946440355197,267.1341641045069z" style="fill:rgb(43,180,168)">
    </path>
    <path d="M-131.42017248006968,265.8847135322626L-124.38668128949766,272.32075929196617L-116.59464403551975,267.1341641045069z" style="fill:rgb(109,213,75)">
    </path>
    <path d="M-106.53204721948318,271.5916358941891L-124.38668128949766,272.32075929196617L-116.51692163155242,294.013759278376z" style="fill:rgb(109,213,75)">
    </path>
    <path d="M-106.53204721948315,271.5916358941891L-124.38668128949763,272.32075929196617L-116.51692163155239,294.013759278376z" style="fill:rgb(43,180,168)">
    </path>
    <path d="M-124.38668128949766,272.32075929196617L-106.53204721948318,271.5916358941891L-116.59464403551975,267.1341641045069z" style="fill:rgb(109,213,75)">
    </path>
    <path d="M-124.38668128949763,272.32075929196617L-106.53204721948315,271.5916358941891L-116.5946440355197,267.1341641045069z" style="fill:rgb(43,180,168)">
    </path>
    <path d="M37.97932207870005,-255.97591446250857L-237.5466477388341,-189.09439915117653L-20.38362733751045,-612.1083758546596z" style="fill:rgb(0,0,0); fill-opacity: 0.2">
    </path>
    <path d="M-925.7032034546347,-548.6530417973316L-861.396726916527,293.44027962255694" style="fill:none;stroke:rgb(0,0,0);stroke-width:1;stroke-linecap:round">
    </path>
    <path d="M-690.7668484085556,389.31901556516834L-861.396726916527,293.44027962255694" style="fill:none;stroke:rgb(160,0,0);stroke-width:4;stroke-linecap:round">
    </path>
    <path d="M-150.15444802933263,281.3352054350605L-165.5592590974807,277.7613039218856L-164.3228349127421,283.80534701884005z" style="fill:rgb(74,87,214)">
    </path>
    <path d="M-173.03613923874568,176.43652965182713L94.5739446160422,89.36616347204476L-237.5466477388341,-189.09439915117653z" style="fill:rgb(0,0,0); fill-opacity: 0.2">
    </path>
    <path d="M94.5739446160422,89.36616347204476L-173.03613923874568,176.43652965182713L-237.5466477388341,-189.09439915117653z" style="fill:rgb(0,0,0); fill-opacity: 0.2">
    </path>
    <path d="M-165.5592590974807,277.7613039218856L-179.2699323382662,282.53108736312527L-164.3228349127421,283.80534701884005z" style="fill:rgb(74,87,214)">
    </path>
    <path d="M-150.15444802933263,281.3352054350605L-154.28432958111924,288.35495472635745L-164.11676534627156,310.92115333394145z" style="fill:rgb(74,87,214)">
    </path>
    <path d="M-157.9101421821239,284.04841251848876L-173.3245833709713,280.462769742351L-172.11471460557794,286.52700583762714z" style="fill:rgb(109,213,75)">
    </path>
    <path d="M-157.91014218212382,284.04841251848876L-173.32458337097125,280.462769742351L-172.1147146055779,286.52700583762714z" style="fill:rgb(43,180,168)">
    </path>
    <path d="M-172.35225447482216,289.1007573634842L-179.2699323382662,282.53108736312527L-164.11676534627156,310.92115333394145z" style="fill:rgb(74,87,214)">
    </path>
    <path d="M-165.15827515232655,173.8733657349873L-164.3228349127421,283.80534701884005" style="fill:none;stroke:rgb(74,87,214);stroke-width:5;stroke-linecap:round">
    </path>
    <path d="M-173.3245833709713,280.462769742351L-187.081592527355,285.24867290864535L-172.11471460557794,286.52700583762714z" style="fill:rgb(109,213,75)">
    </path>
    <path d="M-173.32458337097125,280.462769742351L-187.08159252735499,285.24867290864535L-172.1147146055779,286.52700583762714z" style="fill:rgb(43,180,168)">
    </path>
    <path d="M-154.28432958111924,288.35495472635745L-150.15444802933263,281.3352054350605L-164.3228349127421,283.80534701884005z" style="fill:rgb(74,87,214)">
    </path>
    <path d="M-179.2699323382662,282.53108736312527L-172.35225447482216,289.1007573634842L-164.3228349127421,283.80534701884005z" style="fill:rgb(74,87,214)">
    </path>
    <path d="M-154.28432958111924,288.35495472635745L-172.35225447482216,289.1007573634842L-164.11676534627156,310.92115333394145z" style="fill:rgb(74,87,214)">
    </path>
    <path d="M-157.9101421821239,284.04841251848876L-162.08039787969116,291.0917449291084L-171.8874413349402,313.6812859471062z" style="fill:rgb(109,213,75)">
    </path>
    <path d="M-157.91014218212382,284.04841251848876L-162.0803978796911,291.09174492910836L-171.88744133494015,313.6812859471062z" style="fill:rgb(43,180,168)">
    </path>
    <path d="M-180.1831956992057,291.84028844623856L-187.081592527355,285.24867290864535L-171.8874413349402,313.6812859471062z" style="fill:rgb(109,213,75)">
    </path>
    <path d="M-180.18319569920567,291.84028844623856L-187.08159252735499,285.24867290864535L-171.88744133494015,313.6812859471062z" style="fill:rgb(43,180,168)">
    </path>
    <path d="M-173.03613923874573,176.43652965182716L-172.11471460557794,286.52700583762714" style="fill:none;stroke:rgb(109,213,75);stroke-width:5;stroke-linecap:round">
    </path>
    <path d="M-173.03613923874568,176.43652965182713L-172.1147146055779,286.52700583762714" style="fill:none;stroke:rgb(43,180,168);stroke-width:5;stroke-linecap:round">
    </path>
    <path d="M-172.35225447482216,289.1007573634842L-154.28432958111924,288.35495472635745L-164.3228349127421,283.80534701884005z" style="fill:rgb(74,87,214)">
    </path>
    <path d="M-162.08039787969116,291.0917449291084L-157.9101421821239,284.04841251848876L-172.11471460557794,286.52700583762714z" style="fill:rgb(109,213,75)">
    </path>
    <path d="M-162.0803978796911,291.09174492910836L-157.91014218212382,284.04841251848876L-172.1147146055779,286.52700583762714z" style="fill:rgb(43,180,168)">
    </path>
    <path d="M-187.081592527355,285.24867290864535L-180.1831956992057,291.84028844623856L-172.11471460557794,286.52700583762714z" style="fill:rgb(109,213,75)">
    </path>
    <path d="M-187.08159252735499,285.24867290864535L-180.18319569920567,291.84028844623856L-172.1147146055779,286.52700583762714z" style="fill:rgb(43,180,168)">
    </path>
    <path d="M-162.08039787969116,291.0917449291084L-180.1831956992057,291.84028844623856L-171.8874413349402,313.6812859471062z" style="fill:rgb(109,213,75)">
    </path>
    <path d="M-162.0803978796911,291.09174492910836L-180.18319569920567,291.84028844623856L-171.88744133494015,313.6812859471062z" style="fill:rgb(43,180,168)">
    </path>
    <path d="M-325.9218632565549,313.76054732580496L-690.7668484085556,389.31901556516834" style="fill:none;stroke:rgb(160,0,0);stroke-width:4;stroke-linecap:round">
    </path>
    <path d="M-337.2153862595413,-164.9006860654433L-325.9218632565549,313.76054732580496" style="fill:none;stroke:rgb(0,0,0);stroke-width:1;stroke-linecap:round">
    </path>
    <path d="M-578.7269816974268,452.2754033289902L-325.9218632565549,313.76054732580496" style="fill:none;stroke:rgb(160,0,0);stroke-width:4;stroke-linecap:round">
    </path>
    <path d="M-180.1831956992057,291.84028844623856L-162.08039787969116,291.0917449291084L-172.11471460557794,286.52700583762714z" style="fill:rgb(109,213,75)">
    </path>
    <path d="M-180.18319569920567,291.84028844623856L-162.0803978796911,291.09174492910836L-172.1147146055779,286.52700583762714z" style="fill:rgb(43,180,168)">
    </path>
    <path d="M-585.7001269454281,310.70204013358835L94.5739446160422,89.36616347204476L37.97932207870005,-255.97591446250857z" style="fill:rgb(0,0,0); fill-opacity: 0.2">
    </path>
    <path d="M-205.0002447554309,300.52214102611424L-220.47197226727675,296.86479690074907L-219.42541270628445,303.0523609232748z" style="fill:rgb(74,87,214)">
    </path>
    <path d="M-220.47197226727675,296.86479690074907L-234.51199432634033,301.74915695775564L-219.42541270628445,303.0523609232748z" style="fill:rgb(74,87,214)">
    </path>
    <path d="M-205.0002447554309,300.52214102611424L-209.4180683701453,307.70951530485775L-219.06788632714986,330.43971019700643z" style="fill:rgb(74,87,214)">
    </path>
    <path d="M-227.73292127916278,308.4748088021218L-234.51199432634033,301.74915695775564L-219.06788632714986,330.43971019700643z" style="fill:rgb(74,87,214)">
    </path>
    <path d="M-220.8751182826273,192.00155382063957L-219.4254127062845,303.0523609232749" style="fill:none;stroke:rgb(74,87,214);stroke-width:5;stroke-linecap:round">
    </path>
    <path d="M-209.4180683701453,307.70951530485775L-205.0002447554309,300.52214102611424L-219.42541270628445,303.0523609232748z" style="fill:rgb(74,87,214)">
    </path>
    <path d="M-173.03613923874568,176.43652965182713L-237.5466477388341,-189.09439915117653" style="fill:none;stroke:rgb(0,0,0);stroke-width:1;stroke-linecap:round">
    </path>
    <path d="M-173.03613923874568,176.43652965182713L-237.5466477388341,-189.09439915117653" style="fill:none;stroke:rgb(0,0,0);stroke-width:1;stroke-linecap:round">
    </path>
    <path d="M-234.51199432634033,301.74915695775564L-227.73292127916278,308.4748088021218L-219.42541270628445,303.0523609232748z" style="fill:rgb(74,87,214)">
    </path>
    <path d="M-209.4180683701453,307.70951530485775L-227.73292127916278,308.4748088021218L-219.06788632714986,330.43971019700643z" style="fill:rgb(74,87,214)">
    </path>
    <path d="M-227.73292127916278,308.4748088021218L-209.4180683701453,307.70951530485775L-219.42541270628445,303.0523609232748z" style="fill:rgb(74,87,214)">
    </path>
    <path d="M-744.0083122790021,-496.5210937758736L-20.38362733751045,-612.1083758546596L-214.64785139447844,-651.4793756482011z" style="fill:rgb(0,0,0); fill-opacity: 0.2">
    </path>
    <path d="M-253.06474713367984,317.3367479130022L-268.5928485262462,313.60548896794813L-267.7166486168615,319.92021223352964z" style="fill:rgb(167,41,160)">
    </path>
    <path d="M-253.06474713367965,317.3367479130022L-268.5928485262459,313.605488967948L-267.71664861686133,319.9202122335295z" style="fill:rgb(214,94,68)">
    </path>
    <path d="M-268.5928485262462,313.60548896794813L-282.92470750788397,318.59137568935625L-267.7166486168615,319.92021223352964z" style="fill:rgb(167,41,160)">
    </path>
    <path d="M-268.5928485262459,313.605488967948L-282.9247075078838,318.5913756893562L-267.71664861686133,319.9202122335295z" style="fill:rgb(214,94,68)">
    </path>
    <path d="M-253.06474713367984,317.3367479130022L-257.7395631590705,324.67265473051356L-267.2234981634436,347.54451226700354z" style="fill:rgb(167,41,160)">
    </path>
    <path d="M-253.06474713367965,317.3367479130022L-257.73956315907037,324.6726547305135L-267.2234981634435,347.54451226700354z" style="fill:rgb(214,94,68)">
    </path>
    <path d="M-261.1723581109864,320.17306753829234L-276.709759870763,316.42926783315494L-275.8626621133489,322.7655679557256z" style="fill:rgb(74,87,214)">
    </path>
    <path d="M-276.271421942499,325.4552365013441L-282.92470750788397,318.59137568935625L-267.2234981634436,347.54451226700354z" style="fill:rgb(167,41,160)">
    </path>
    <path d="M-276.27142194249876,325.45523650134396L-282.9247075078838,318.5913756893562L-267.2234981634435,347.54451226700354z" style="fill:rgb(214,94,68)">
    </path>
    <path d="M-269.71656884036014,207.89274492807607L-267.7166486168615,319.92021223352964" style="fill:none;stroke:rgb(167,41,160);stroke-width:5;stroke-linecap:round">
    </path>
    <path d="M-269.71656884035997,207.892744928076L-267.7166486168614,319.92021223352964" style="fill:none;stroke:rgb(214,94,68);stroke-width:5;stroke-linecap:round">
    </path>
    <path d="M-276.709759870763,316.42926783315494L-291.091141976804,321.43238307241836L-275.8626621133489,322.7655679557256z" style="fill:rgb(74,87,214)">
    </path>
    <path d="M-257.7395631590705,324.67265473051356L-253.06474713367984,317.3367479130022L-267.7166486168615,319.92021223352964z" style="fill:rgb(167,41,160)">
    </path>
    <path d="M-257.73956315907037,324.6726547305135L-253.06474713367965,317.3367479130022L-267.71664861686133,319.9202122335295z" style="fill:rgb(214,94,68)">
    </path>
    <path d="M-282.92470750788397,318.59137568935625L-276.271421942499,325.4552365013441L-267.7166486168615,319.92021223352964z" style="fill:rgb(167,41,160)">
    </path>
    <path d="M-282.9247075078838,318.5913756893562L-276.27142194249876,325.45523650134396L-267.71664861686133,319.9202122335295z" style="fill:rgb(214,94,68)">
    </path>
    <path d="M-237.5466477388341,-189.09439915117653L-237.5466477388341,-189.09439915117653L-173.03613923874568,176.43652965182713z" style="fill:rgb(0,0,0); fill-opacity: 0.2">
    </path>
    <path d="M-257.7395631590705,324.67265473051356L-276.271421942499,325.4552365013441L-267.2234981634436,347.54451226700354z" style="fill:rgb(167,41,160)">
    </path>
    <path d="M-257.73956315907037,324.6726547305135L-276.27142194249876,325.45523650134396L-267.2234981634435,347.54451226700354z" style="fill:rgb(214,94,68)">
    </path>
    <path d="M-261.1723581109864,320.17306753829234L-265.8909524991824,327.5341794927983L-275.3463678902125,350.42974357481216z" style="fill:rgb(74,87,214)">
    </path>
    <path d="M-284.45947230529316,328.31969657495404L-291.091141976804,321.43238307241836L-275.3463678902125,350.42974357481216z" style="fill:rgb(74,87,214)">
    </path>
    <path d="M-277.95648951205453,210.57370858924398L-275.86266211334896,322.76556795572566" style="fill:none;stroke:rgb(74,87,214);stroke-width:5;stroke-linecap:round">
    </path>
    <path d="M-276.271421942499,325.4552365013441L-257.7395631590705,324.67265473051356L-267.7166486168615,319.92021223352964z" style="fill:rgb(167,41,160)">
    </path>
    <path d="M-276.27142194249876,325.45523650134396L-257.73956315907037,324.6726547305135L-267.71664861686133,319.9202122335295z" style="fill:rgb(214,94,68)">
    </path>
    <path d="M-265.8909524991824,327.5341794927983L-261.1723581109864,320.17306753829234L-275.8626621133489,322.7655679557256z" style="fill:rgb(74,87,214)">
    </path>
    <path d="M-663.442655417508,-85.71187452941334L37.97932207870005,-255.97591446250857L-20.38362733751045,-612.1083758546596z" style="fill:rgb(0,0,0); fill-opacity: 0.2">
    </path>
    <path d="M-291.091141976804,321.43238307241836L-284.45947230529316,328.31969657495404L-275.8626621133489,322.7655679557256z" style="fill:rgb(74,87,214)">
    </path>
    <path d="M-265.8909524991824,327.5341794927983L-284.45947230529316,328.31969657495404L-275.3463678902125,350.42974357481216z" style="fill:rgb(74,87,214)">
    </path>
    <path d="M-284.45947230529316,328.31969657495404L-265.8909524991824,327.5341794927983L-275.8626621133489,322.7655679557256z" style="fill:rgb(74,87,214)">
    </path>
    <path d="M-312.0714762972862,337.9793199874842L-327.6658877519806,334.1563108987367L-327.0039024158461,340.6289094291541z" style="fill:rgb(167,41,160)">
    </path>
    <path d="M-312.0714762972861,337.9793199874842L-327.6658877519804,334.15631089873654L-327.0039024158458,340.628909429154z" style="fill:rgb(214,94,68)">
    </path>
    <path d="M-327.6658877519806,334.1563108987367L-342.36012203514224,339.2682637645542L-327.0039024158461,340.6289094291541z" style="fill:rgb(167,41,160)">
    </path>
    <path d="M-327.6658877519804,334.15631089873654L-342.3601220351421,339.26826376455415L-327.0039024158458,340.628909429154z" style="fill:rgb(214,94,68)">
    </path>
    <path d="M-269.71656884035997,207.892744928076L-585.7001269454281,310.70204013358835" style="fill:none;stroke:rgb(84,0,79);stroke-width:5;stroke-linecap:round">
    </path>
    <path d="M-269.71656884035997,207.892744928076L-337.2153862595413,-164.9006860654433" style="fill:none;stroke:rgb(0,0,0);stroke-width:1;stroke-linecap:round">
    </path>
    <path d="M-585.7001269454281,310.70204013358835L-269.71656884035997,207.892744928076" style="fill:none;stroke:rgb(115,35,18);stroke-width:5;stroke-linecap:round">
    </path>
    <path d="M-269.71656884035997,207.892744928076L-337.2153862595413,-164.9006860654433" style="fill:none;stroke:rgb(0,0,0);stroke-width:1;stroke-linecap:round">
    </path>
    <path d="M-312.0714762972862,337.9793199874842L-317.0677342032463,345.4996602212908L-326.3405557737112,368.54280365663004z" style="fill:rgb(167,41,160)">
    </path>
    <path d="M-312.0714762972861,337.9793199874842L-317.06773420324606,345.4996602212907L-326.3405557737109,368.54280365663004z" style="fill:rgb(214,94,68)">
    </path>
    <path d="M-318.7194877123288,340.30502176306464L-334.3211698312589,336.47160597586605L-333.6836693945339,342.9621136650593z" style="fill:rgb(74,87,214)">
    </path>
    <path d="M-334.3211698312589,336.47160597586605L-349.05651445356466,341.5978606495868L-333.6836693945339,342.9621136650593z" style="fill:rgb(74,87,214)">
    </path>
    <path d="M-335.8667796071937,346.30373095842606L-342.36012203514224,339.2682637645542L-326.3405557737112,368.54280365663004z" style="fill:rgb(167,41,160)">
    </path>
    <path d="M-335.86677960719356,346.30373095842606L-342.3601220351421,339.26826376455415L-326.3405557737109,368.54280365663004z" style="fill:rgb(214,94,68)">
    </path>
    <path d="M-329.69450342946874,227.40733366163985L-327.0039024158461,340.6289094291541" style="fill:none;stroke:rgb(167,41,160);stroke-width:5;stroke-linecap:round">
    </path>
    <path d="M-329.6945034294685,227.40733366163985L-327.0039024158458,340.628909429154" style="fill:none;stroke:rgb(214,94,68);stroke-width:5;stroke-linecap:round">
    </path>
    <path d="M-317.0677342032463,345.4996602212908L-312.0714762972862,337.9793199874842L-327.0039024158461,340.6289094291541z" style="fill:rgb(167,41,160)">
    </path>
    <path d="M-317.06773420324606,345.4996602212907L-312.0714762972861,337.9793199874842L-327.0039024158458,340.628909429154z" style="fill:rgb(214,94,68)">
    </path>
    <path d="M-318.7194877123288,340.30502176306464L-323.7523716046496,347.8462853980423L-333.00089218254743,370.9085452939707z" style="fill:rgb(74,87,214)">
    </path>
    <path d="M-342.36012203514224,339.2682637645542L-335.8667796071937,346.30373095842606L-327.0039024158461,340.6289094291541z" style="fill:rgb(167,41,160)">
    </path>
    <path d="M-342.3601220351421,339.26826376455415L-335.86677960719356,346.30373095842606L-327.0039024158458,340.628909429154z" style="fill:rgb(214,94,68)">
    </path>
    <path d="M-317.06773420324606,345.4996602212907L-335.86677960719356,346.30373095842606L-326.3405557737109,368.54280365663004z" style="fill:rgb(214,94,68)">
    </path>
    <path d="M-317.0677342032463,345.4996602212908L-335.8667796071937,346.30373095842606L-326.3405557737112,368.54280365663004z" style="fill:rgb(167,41,160)">
    </path>
    <path d="M-342.5815734189191,348.6527955005312L-349.05651445356466,341.5978606495868L-333.00089218254743,370.9085452939707z" style="fill:rgb(74,87,214)">
    </path>
    <path d="M-336.45313703286496,229.60634161472586L-333.6836693945339,342.9621136650593" style="fill:none;stroke:rgb(74,87,214);stroke-width:5;stroke-linecap:round">
    </path>
    <path d="M-323.7523716046496,347.8462853980423L-318.7194877123288,340.30502176306464L-333.6836693945339,342.9621136650593z" style="fill:rgb(74,87,214)">
    </path>
    <path d="M-335.8667796071937,346.30373095842606L-317.0677342032463,345.4996602212908L-327.0039024158461,340.6289094291541z" style="fill:rgb(167,41,160)">
    </path>
    <path d="M-335.86677960719356,346.30373095842606L-317.06773420324606,345.4996602212907L-327.0039024158458,340.628909429154z" style="fill:rgb(214,94,68)">
    </path>
    <path d="M-349.05651445356466,341.5978606495868L-342.5815734189191,348.6527955005312L-333.6836693945339,342.9621136650593z" style="fill:rgb(74,87,214)">
    </path>
    <path d="M-323.7523716046496,347.8462853980423L-342.5815734189191,348.6527955005312L-333.00089218254743,370.9085452939707z" style="fill:rgb(74,87,214)">
    </path>
    <path d="M-342.5815734189191,348.6527955005312L-323.7523716046496,347.8462853980423L-333.6836693945339,342.9621136650593z" style="fill:rgb(74,87,214)">
    </path>
    <path d="M-861.396726916527,293.44027962255694L-925.7032034546347,-548.6530417973316L-690.7668484085556,389.31901556516834z" style="fill:rgb(0,0,0); fill-opacity: 0.2">
    </path>
    <path d="M-372.58069104905644,359.1475129103705L-388.2397843762194,355.2292636280153L-387.803272941317,361.8657803114771z" style="fill:rgb(167,41,160)">
    </path>
    <path d="M-372.5806910490563,359.14751291037044L-388.2397843762193,355.2292636280153L-387.8032729413168,361.8657803114771z" style="fill:rgb(214,94,68)">
    </path>
    <path d="M-388.2397843762194,355.2292636280153L-403.31031353087104,360.47212509441977L-387.803272941317,361.8657803114771z" style="fill:rgb(167,41,160)">
    </path>
    <path d="M-388.2397843762193,355.2292636280153L-403.31031353087087,360.47212509441977L-387.8032729413168,361.8657803114771z" style="fill:rgb(214,94,68)">
    </path>
    <path d="M-325.9218632565549,313.76054732580496L-337.2153862595413,-164.9006860654433L-578.7269816974268,452.2754033289902z" style="fill:rgb(0,0,0); fill-opacity: 0.2">
    </path>
    <path d="M-377.692746917882,360.9358849014433L-393.35715098444035,357.0095358350748L-392.93995773027723,363.65999480224457z" style="fill:rgb(74,87,214)">
    </path>
    <path d="M-372.58069104905644,359.1475129103705L-377.9133797819199,366.85937133750474L-386.96116533710114,390.0751544752499z" style="fill:rgb(167,41,160)">
    </path>
    <path d="M-372.5806910490563,359.14751291037044L-377.91337978191956,366.85937133750457L-386.96116533710097,390.0751544752499z" style="fill:rgb(214,94,68)">
    </path>
    <path d="M-393.35715098444035,357.0095358350748L-408.4596886647234,362.2635326945307L-392.93995773027723,363.65999480224457z" style="fill:rgb(74,87,214)">
    </path>
    <path d="M-396.9873057802437,367.6857815252217L-403.31031353087104,360.47212509441977L-386.96116533710114,390.0751544752499z" style="fill:rgb(167,41,160)">
    </path>
    <path d="M-396.98730578024356,367.68578152522167L-403.31031353087087,360.47212509441977L-386.96116533710097,390.0751544752499z" style="fill:rgb(214,94,68)">
    </path>
    <path d="M-391.21955579450344,247.4252969666427L-387.8032729413168,361.8657803114771" style="fill:none;stroke:rgb(214,94,68);stroke-width:5;stroke-linecap:round">
    </path>
    <path d="M-391.2195557945036,247.4252969666427L-387.803272941317,361.8657803114771" style="fill:none;stroke:rgb(167,41,160);stroke-width:5;stroke-linecap:round">
    </path>
    <path d="M-377.9133797819199,366.85937133750474L-372.58069104905644,359.1475129103705L-387.803272941317,361.8657803114771z" style="fill:rgb(167,41,160)">
    </path>
    <path d="M-377.91337978191956,366.85937133750457L-372.5806910490563,359.14751291037044L-387.8032729413168,361.8657803114771z" style="fill:rgb(214,94,68)">
    </path>
    <path d="M-377.692746917882,360.9358849014433L-383.0541743024743,368.66403434703557L-392.0825514307535,391.89426323777076z" style="fill:rgb(74,87,214)">
    </path>
    <path d="M-403.31031353087087,360.47212509441977L-396.98730578024356,367.68578152522167L-387.8032729413168,361.8657803114771z" style="fill:rgb(214,94,68)">
    </path>
    <path d="M-403.31031353087104,360.47212509441977L-396.9873057802437,367.6857815252217L-387.803272941317,361.8657803114771z" style="fill:rgb(167,41,160)">
    </path>
    <path d="M-402.151364614514,369.49234593226964L-408.4596886647234,362.2635326945307L-392.0825514307535,391.89426323777076z" style="fill:rgb(74,87,214)">
    </path>
    <path d="M-396.4183571287544,249.1167935251759L-392.9399577302773,363.6599948022447" style="fill:none;stroke:rgb(74,87,214);stroke-width:5;stroke-linecap:round">
    </path>
    <path d="M-377.9133797819199,366.85937133750474L-396.9873057802437,367.6857815252217L-386.96116533710114,390.0751544752499z" style="fill:rgb(167,41,160)">
    </path>
    <path d="M-377.91337978191956,366.85937133750457L-396.98730578024356,367.68578152522167L-386.96116533710097,390.0751544752499z" style="fill:rgb(214,94,68)">
    </path>
    <path d="M-383.0541743024743,368.66403434703557L-377.692746917882,360.9358849014433L-392.93995773027723,363.65999480224457z" style="fill:rgb(74,87,214)">
    </path>
    <path d="M-744.0083122790021,-496.5210937758736L-690.7668484085556,389.31901556516834" style="fill:none;stroke:rgb(0,0,0);stroke-width:1;stroke-linecap:round">
    </path>
    <path d="M-408.4596886647234,362.2635326945307L-402.151364614514,369.49234593226964L-392.93995773027723,363.65999480224457z" style="fill:rgb(74,87,214)">
    </path>
    <path d="M-396.9873057802437,367.6857815252217L-377.9133797819199,366.85937133750474L-387.803272941317,361.8657803114771z" style="fill:rgb(167,41,160)">
    </path>
    <path d="M-396.98730578024356,367.68578152522167L-377.91337978191956,366.85937133750457L-387.8032729413168,361.8657803114771z" style="fill:rgb(214,94,68)">
    </path>
    <path d="M-383.0541743024743,368.66403434703557L-402.151364614514,369.49234593226964L-392.0825514307535,391.89426323777076z" style="fill:rgb(74,87,214)">
    </path>
    <path d="M-337.2153862595413,-164.9006860654433L-744.0083122790021,-496.5210937758736" style="fill:none;stroke:rgb(0,0,0);stroke-width:1;stroke-linecap:round">
    </path>
    <path d="M-337.2153862595413,-164.9006860654433L-744.0083122790021,-496.5210937758736" style="fill:none;stroke:rgb(0,0,0);stroke-width:1;stroke-linecap:round">
    </path>
    <path d="M-585.7001269454281,310.70204013358835L-337.2153862595413,-164.9006860654433" style="fill:none;stroke:rgb(0,0,0);stroke-width:1;stroke-linecap:round">
    </path>
    <path d="M-585.7001269454281,310.70204013358835L-337.2153862595413,-164.9006860654433" style="fill:none;stroke:rgb(0,0,0);stroke-width:1;stroke-linecap:round">
    </path>
    <path d="M-925.7032034546347,-548.6530417973316L-214.64785139447844,-651.4793756482011L-744.0083122790021,-496.5210937758736z" style="fill:rgb(0,0,0); fill-opacity: 0.2">
    </path>
    <path d="M-402.151364614514,369.49234593226964L-383.0541743024743,368.66403434703557L-392.93995773027723,363.65999480224457z" style="fill:rgb(74,87,214)">
    </path>
    <path d="M-434.6505180071855,380.86166136081636L-450.3724723522866,376.84450170300414L-450.1733570742411,383.6512924344299z" style="fill:rgb(167,41,160)">
    </path>
    <path d="M-434.6505180071854,380.8616613608163L-450.37247235228637,376.844501703004L-450.1733570742408,383.65129243442976z" style="fill:rgb(214,94,68)">
    </path>
    <path d="M-450.3724723522866,376.84450170300414L-465.8339380905191,382.22336545100273L-450.1733570742411,383.6512924344299z" style="fill:rgb(167,41,160)">
    </path>
    <path d="M-450.37247235228637,376.844501703004L-465.8339380905189,382.22336545100273L-450.1733570742408,383.65129243442976z" style="fill:rgb(214,94,68)">
    </path>
    <path d="M-438.1458142474352,382.0844355356221L-453.87120335616146,378.0616694463058L-453.6856403495181,384.8781128073144z" style="fill:rgb(74,87,214)">
    </path>
    <path d="M-453.87120335616146,378.0616694463058L-469.35483232846354,383.44824352515496L-453.6856403495181,384.8781128073144z" style="fill:rgb(74,87,214)">
    </path>
    <path d="M-434.6505180071855,380.86166136081636L-440.3354742307051,388.7724908716066L-449.14342650838614,412.1622016342702z" style="fill:rgb(167,41,160)">
    </path>
    <path d="M-434.6505180071854,380.8616613608163L-440.3354742307049,388.7724908716065L-449.14342650838586,412.1622016342702z" style="fill:rgb(214,94,68)">
    </path>
    <path d="M-459.6923076856,389.62213589715986L-465.8339380905191,382.22336545100273L-449.14342650838614,412.1622016342702z" style="fill:rgb(167,41,160)">
    </path>
    <path d="M-459.6923076855998,389.62213589715975L-465.8339380905189,382.22336545100273L-449.14342650838586,412.1622016342702z" style="fill:rgb(214,94,68)">
    </path>
    <path d="M-454.35236942805045,267.9663659796314L-450.17335707424087,383.6512924344299" style="fill:none;stroke:rgb(214,94,68);stroke-width:5;stroke-linecap:round">
    </path>
    <path d="M-454.3523694280507,267.9663659796314L-450.1733570742411,383.6512924344299" style="fill:none;stroke:rgb(167,41,160);stroke-width:5;stroke-linecap:round">
    </path>
    <path d="M-438.1458142474352,382.0844355356221L-443.85082314948704,390.00654528361525L-452.64499895300986,413.4059549854404z" style="fill:rgb(74,87,214)">
    </path>
    <path d="M-440.3354742307051,388.7724908716066L-434.6505180071855,380.86166136081636L-450.1733570742411,383.6512924344299z" style="fill:rgb(167,41,160)">
    </path>
    <path d="M-440.3354742307049,388.7724908716065L-434.6505180071854,380.8616613608163L-450.1733570742408,383.65129243442976z" style="fill:rgb(214,94,68)">
    </path>
    <path d="M-585.7001269454281,310.70204013358835L-269.71656884035997,207.892744928076L-337.2153862595413,-164.9006860654433z" style="fill:rgb(0,0,0); fill-opacity: 0.2">
    </path>
    <path d="M-463.2236160205666,390.8575083344229L-469.35483232846354,383.44824352515496L-452.64499895300986,413.4059549854404z" style="fill:rgb(74,87,214)">
    </path>
    <path d="M-457.9081561340095,269.12328669833283L-453.6856403495181,384.8781128073144" style="fill:none;stroke:rgb(74,87,214);stroke-width:5;stroke-linecap:round">
    </path>
    <path d="M-465.8339380905191,382.22336545100273L-459.6923076856,389.62213589715986L-450.1733570742411,383.6512924344299z" style="fill:rgb(167,41,160)">
    </path>
    <path d="M-465.8339380905189,382.22336545100273L-459.6923076855998,389.62213589715975L-450.1733570742408,383.65129243442976z" style="fill:rgb(214,94,68)">
    </path>
    <path d="M-443.85082314948704,390.00654528361525L-438.1458142474352,382.0844355356221L-453.6856403495181,384.8781128073144z" style="fill:rgb(74,87,214)">
    </path>
    <path d="M-440.3354742307051,388.7724908716066L-459.6923076856,389.62213589715986L-449.14342650838614,412.1622016342702z" style="fill:rgb(167,41,160)">
    </path>
    <path d="M-440.3354742307049,388.7724908716065L-459.6923076855998,389.62213589715975L-449.14342650838586,412.1622016342702z" style="fill:rgb(214,94,68)">
    </path>
    <path d="M-469.35483232846354,383.44824352515496L-463.2236160205666,390.8575083344229L-453.6856403495181,384.8781128073144z" style="fill:rgb(74,87,214)">
    </path>
    <path d="M-443.85082314948704,390.00654528361525L-463.2236160205666,390.8575083344229L-452.64499895300986,413.4059549854404z" style="fill:rgb(74,87,214)">
    </path>
    <path d="M-459.6923076856,389.62213589715986L-440.3354742307051,388.7724908716066L-450.1733570742411,383.6512924344299z" style="fill:rgb(167,41,160)">
    </path>
    <path d="M-459.6923076855998,389.62213589715975L-440.3354742307049,388.7724908716065L-450.1733570742408,383.65129243442976z" style="fill:rgb(214,94,68)">
    </path>
    <path d="M-663.442655417508,-85.71187452941334L37.97932207870005,-255.97591446250857L-585.7001269454281,310.70204013358835z" style="fill:rgb(0,0,0); fill-opacity: 0.2">
    </path>
    <path d="M-463.2236160205666,390.8575083344229L-443.85082314948704,390.00654528361525L-453.6856403495181,384.8781128073144z" style="fill:rgb(74,87,214)">
    </path>
    <path d="M-690.7668484085556,389.31901556516834L-744.0083122790021,-496.5210937758736L-325.9218632565549,313.76054732580496z" style="fill:rgb(0,0,0); fill-opacity: 0.2">
    </path>
    <path d="M-325.9218632565549,313.76054732580496L-337.2153862595413,-164.9006860654433L-744.0083122790021,-496.5210937758736z" style="fill:rgb(0,0,0); fill-opacity: 0.2">
    </path>
    <path d="M-337.2153862595413,-164.9006860654433L-337.2153862595413,-164.9006860654433L-585.7001269454281,310.70204013358835z" style="fill:rgb(0,0,0); fill-opacity: 0.2">
    </path>
    <path d="M-337.2153862595413,-164.9006860654433L-663.442655417508,-85.71187452941334L-269.71656884035997,207.892744928076z" style="fill:rgb(0,0,0); fill-opacity: 0.2">
    </path>
    <path d="M-498.34212128417124,403.1431626373756L-514.1249062104482,399.02323049444067L-514.1758189431351,406.00698472389354z" style="fill:rgb(167,41,160)">
    </path>
    <path d="M-498.342121284171,403.14316263737555L-514.1249062104481,399.02323049444067L-514.175818943135,406.00698472389337z" style="fill:rgb(214,94,68)">
    </path>
    <path d="M-514.1249062104482,399.02323049444067L-529.992719831787,404.5434579355406L-514.1758189431351,406.00698472389354z" style="fill:rgb(167,41,160)">
    </path>
    <path d="M-514.1249062104481,399.02323049444067L-529.9927198317868,404.5434579355406L-514.175818943135,406.00698472389337z" style="fill:rgb(214,94,68)">
    </path>
    <path d="M-500.13509634487247,403.7704066389141L-515.9195398707875,399.6475626308607L-515.9775853518873,406.63633138080894z" style="fill:rgb(74,87,214)">
    </path>
    <path d="M-515.9195398707875,399.6475626308607L-531.79886871882,405.17179608513317L-515.9775853518873,406.63633138080894z" style="fill:rgb(74,87,214)">
    </path>
    <path d="M-498.34212128417124,403.1431626373756L-504.3960879230734,411.2608084723645L-512.9484714205189,434.8256591768606z" style="fill:rgb(167,41,160)">
    </path>
    <path d="M-498.342121284171,403.14316263737555L-504.39608792307325,411.26080847236443L-512.9484714205188,434.82565917686054z" style="fill:rgb(214,94,68)">
    </path>
    <path d="M-500.13509634487247,403.7704066389141L-506.19956147293624,411.89391333409196L-514.7446116698819,435.4636455357455z" style="fill:rgb(74,87,214)">
    </path>
    <path d="M-524.0442078637504,412.1346316139475L-529.992719831787,404.5434579355406L-512.9484714205189,434.8256591768606z" style="fill:rgb(167,41,160)">
    </path>
    <path d="M-524.0442078637502,412.13463161394736L-529.9927198317868,404.5434579355406L-512.9484714205188,434.82565917686054z" style="fill:rgb(214,94,68)">
    </path>
    <path d="M-519.1567992316917,289.0513167101757L-514.1758189431351,406.00698472389354" style="fill:none;stroke:rgb(167,41,160);stroke-width:5;stroke-linecap:round">
    </path>
    <path d="M-519.1567992316915,289.0513167101756L-514.175818943135,406.00698472389337" style="fill:none;stroke:rgb(214,94,68);stroke-width:5;stroke-linecap:round">
    </path>
    <path d="M-525.8558958598156,412.76842204031647L-531.79886871882,405.17179608513317L-514.7446116698819,435.4636455357455z" style="fill:rgb(74,87,214)">
    </path>
    <path d="M-520.9814249048525,289.64498202806914L-515.9775853518873,406.636331380809" style="fill:none;stroke:rgb(74,87,214);stroke-width:5;stroke-linecap:round">
    </path>
    <path d="M-504.3960879230734,411.2608084723645L-498.34212128417124,403.1431626373756L-514.1758189431351,406.00698472389354z" style="fill:rgb(167,41,160)">
    </path>
    <path d="M-504.39608792307325,411.26080847236443L-498.342121284171,403.14316263737555L-514.175818943135,406.00698472389337z" style="fill:rgb(214,94,68)">
    </path>
    <path d="M-744.0083122790021,-496.5210937758736L-925.7032034546347,-548.6530417973316" style="fill:none;stroke:rgb(0,0,0);stroke-width:1;stroke-linecap:round">
    </path>
    <path d="M-744.0083122790021,-496.5210937758736L-925.7032034546347,-548.6530417973316" style="fill:none;stroke:rgb(0,0,0);stroke-width:1;stroke-linecap:round">
    </path>
    <path d="M-506.19956147293624,411.89391333409196L-500.13509634487247,403.7704066389141L-515.9775853518873,406.63633138080894z" style="fill:rgb(74,87,214)">
    </path>
    <path d="M-529.992719831787,404.5434579355406L-524.0442078637504,412.1346316139475L-514.1758189431351,406.00698472389354z" style="fill:rgb(167,41,160)">
    </path>
    <path d="M-529.9927198317868,404.5434579355406L-524.0442078637502,412.13463161394736L-514.175818943135,406.00698472389337z" style="fill:rgb(214,94,68)">
    </path>
    <path d="M-504.3960879230734,411.2608084723645L-524.0442078637504,412.1346316139475L-512.9484714205189,434.8256591768606z" style="fill:rgb(167,41,160)">
    </path>
    <path d="M-504.39608792307325,411.26080847236443L-524.0442078637502,412.13463161394736L-512.9484714205188,434.82565917686054z" style="fill:rgb(214,94,68)">
    </path>
    <path d="M-531.79886871882,405.17179608513317L-525.8558958598156,412.76842204031647L-515.9775853518873,406.63633138080894z" style="fill:rgb(74,87,214)">
    </path>
    <path d="M-506.19956147293624,411.89391333409196L-525.8558958598156,412.76842204031647L-514.7446116698819,435.4636455357455z" style="fill:rgb(74,87,214)">
    </path>
    <path d="M-524.0442078637504,412.1346316139475L-504.3960879230734,411.2608084723645L-514.1758189431351,406.00698472389354z" style="fill:rgb(167,41,160)">
    </path>
    <path d="M-524.0442078637502,412.13463161394736L-504.39608792307325,411.26080847236443L-514.175818943135,406.00698472389337z" style="fill:rgb(214,94,68)">
    </path>
    <path d="M-525.8558958598156,412.76842204031647L-506.19956147293624,411.89391333409196L-515.9775853518873,406.63633138080894z" style="fill:rgb(74,87,214)">
    </path>
    <path d="M-578.7269816974268,452.2754033289902L-585.7001269454281,310.70204013358835L-337.2153862595413,-164.9006860654433z" style="fill:rgb(0,0,0); fill-opacity: 0.2">
    </path>
    <path d="M-744.0083122790021,-496.5210937758736L-20.38362733751045,-612.1083758546596L-663.442655417508,-85.71187452941334z" style="fill:rgb(0,0,0); fill-opacity: 0.2">
    </path>
    <path d="M-269.71656884035997,207.892744928076L-585.7001269454281,310.70204013358835L-663.442655417508,-85.71187452941334z" style="fill:rgb(0,0,0); fill-opacity: 0.2">
    </path>
    <path d="M-578.7269816974268,452.2754033289902L-585.7001269454281,310.70204013358835" style="fill:none;stroke:rgb(80,97,2);stroke-width:5;stroke-linecap:round">
    </path>
    <path d="M-578.7269816974268,452.2754033289902L-691.8895600370839,492.3372363863508" style="fill:none;stroke:rgb(162,186,45);stroke-width:5;stroke-linecap:round">
    </path>
    <path d="M-563.7199035242635,426.0145469877772L-579.5612605174064,421.78777558621323L-579.8755932786466,428.9555385082866z" style="fill:rgb(74,87,214)">
    </path>
    <path d="M-563.7199035242637,426.01454698777724L-579.5612605174067,421.7877755862134L-579.875593278647,428.95553850828674z" style="fill:rgb(167,41,160)">
    </path>
    <path d="M-563.7199035242635,426.0145469877772L-579.5612605174065,421.7877755862134L-579.8755932786466,428.9555385082866z" style="fill:rgb(214,94,68)">
    </path>
    <path d="M-579.5612605174064,421.78777558621323L-595.8516541445091,427.45501368672393L-579.8755932786466,428.9555385082866z" style="fill:rgb(74,87,214)">
    </path>
    <path d="M-579.5612605174067,421.7877755862134L-595.8516541445096,427.45501368672404L-579.875593278647,428.95553850828674z" style="fill:rgb(167,41,160)">
    </path>
    <path d="M-579.5612605174065,421.7877755862134L-595.8516541445093,427.45501368672393L-579.8755932786466,428.9555385082866z" style="fill:rgb(214,94,68)">
    </path>
    <path d="M-563.7199035242635,426.0145469877772L-570.1605931422758,434.34727291568464L-578.4406651484828,458.08838948241635z" style="fill:rgb(74,87,214)">
    </path>
    <path d="M-563.7199035242637,426.01454698777724L-570.1605931422762,434.34727291568475L-578.440665148483,458.08838948241646z" style="fill:rgb(167,41,160)">
    </path>
    <path d="M-563.7199035242635,426.0145469877772L-570.1605931422758,434.34727291568464L-578.4406651484828,458.08838948241635z" style="fill:rgb(214,94,68)">
    </path>
    <path d="M-690.7668484085556,389.31901556516834L-744.0083122790021,-496.5210937758736L-925.7032034546347,-548.6530417973316z" style="fill:rgb(0,0,0); fill-opacity: 0.2">
    </path>
    <path d="M-590.1087514471192,435.24626857159393L-595.8516541445096,427.45501368672404L-578.440665148483,458.08838948241646z" style="fill:rgb(167,41,160)">
    </path>
    <path d="M-590.1087514471186,435.2462685715937L-595.8516541445091,427.45501368672393L-578.4406651484828,458.08838948241635z" style="fill:rgb(74,87,214)">
    </path>
    <path d="M-590.108751447119,435.24626857159376L-595.8516541445093,427.45501368672393L-578.4406651484828,458.08838948241635z" style="fill:rgb(214,94,68)">
    </path>
    <path d="M-585.7001269454278,310.7020401335883L-579.8755932786468,428.9555385082867" style="fill:none;stroke:rgb(74,87,214);stroke-width:5;stroke-linecap:round">
    </path>
    <path d="M-585.7001269454281,310.70204013358835L-579.8755932786471,428.95553850828685" style="fill:none;stroke:rgb(167,41,160);stroke-width:5;stroke-linecap:round">
    </path>
    <path d="M-585.7001269454278,310.7020401335883L-579.8755932786468,428.9555385082867" style="fill:none;stroke:rgb(214,94,68);stroke-width:5;stroke-linecap:round">
    </path>
    <path d="M-570.1605931422758,434.34727291568464L-563.7199035242635,426.0145469877772L-579.8755932786466,428.9555385082866z" style="fill:rgb(74,87,214)">
    </path>
    <path d="M-570.1605931422762,434.34727291568475L-563.7199035242637,426.01454698777724L-579.875593278647,428.95553850828674z" style="fill:rgb(167,41,160)">
    </path>
    <path d="M-570.1605931422758,434.34727291568464L-563.7199035242635,426.0145469877772L-579.8755932786466,428.9555385082866z" style="fill:rgb(214,94,68)">
    </path>
    <path d="M-595.8516541445091,427.45501368672393L-590.1087514471186,435.2462685715937L-579.8755932786466,428.9555385082866z" style="fill:rgb(74,87,214)">
    </path>
    <path d="M-595.8516541445096,427.45501368672404L-590.1087514471192,435.24626857159393L-579.875593278647,428.95553850828674z" style="fill:rgb(167,41,160)">
    </path>
    <path d="M-595.8516541445093,427.45501368672393L-590.108751447119,435.24626857159376L-579.8755932786466,428.9555385082866z" style="fill:rgb(214,94,68)">
    </path>
    <path d="M-570.1605931422758,434.34727291568464L-590.1087514471186,435.2462685715937L-578.4406651484828,458.08838948241635z" style="fill:rgb(74,87,214)">
    </path>
    <path d="M-570.1605931422762,434.34727291568475L-590.1087514471192,435.24626857159393L-578.440665148483,458.08838948241646z" style="fill:rgb(167,41,160)">
    </path>
    <path d="M-570.1605931422758,434.34727291568464L-590.108751447119,435.24626857159376L-578.4406651484828,458.08838948241635z" style="fill:rgb(214,94,68)">
    </path>
    <path d="M-590.1087514471186,435.2462685715937L-570.1605931422758,434.34727291568464L-579.8755932786466,428.9555385082866z" style="fill:rgb(74,87,214)">
    </path>
    <path d="M-590.1087514471192,435.24626857159393L-570.1605931422762,434.34727291568475L-579.875593278647,428.95553850828674z" style="fill:rgb(167,41,160)">
    </path>
    <path d="M-590.108751447119,435.24626857159376L-570.1605931422758,434.34727291568464L-579.8755932786466,428.9555385082866z" style="fill:rgb(214,94,68)">
    </path>
    <path d="M-582.188996819123,381.98730423162124L-696.2453431491094,420.7416493764808" style="fill:none;stroke:rgb(162,186,45);stroke-width:5;stroke-linecap:round">
    </path>
    <path d="M-585.7001269454281,310.70204013358835L-663.442655417508,-85.71187452941334" style="fill:none;stroke:rgb(0,0,0);stroke-width:1;stroke-linecap:round">
    </path>
    <path d="M-585.7001269454281,310.70204013358835L-663.442655417508,-85.71187452941334" style="fill:none;stroke:rgb(0,0,0);stroke-width:1;stroke-linecap:round">
    </path>
    <path d="M-585.7001269454281,310.70204013358835L-700.6643343831172,348.1071165603785" style="fill:none;stroke:rgb(162,186,45);stroke-width:5;stroke-linecap:round">
    </path>
    <path d="M-337.2153862595413,-164.9006860654433L-663.442655417508,-85.71187452941334L-744.0083122790021,-496.5210937758736z" style="fill:rgb(0,0,0); fill-opacity: 0.2">
    </path>
    <path d="M-744.0083122790021,-496.5210937758736L-744.0083122790021,-496.5210937758736L-337.2153862595413,-164.9006860654433z" style="fill:rgb(0,0,0); fill-opacity: 0.2">
    </path>
    <path d="M-692.7918692678845,477.50606656404216L-701.222164400273,482.3873879744457L-720.9819939103104,502.63654421551036z" style="fill:rgb(162,186,45)">
    </path>
    <path d="M-685.5473822878275,507.6625884446513L-683.0619293956186,493.1612738489641L-720.9819939103104,502.63654421551036z" style="fill:rgb(162,186,45)">
    </path>
    <path d="M-683.0619293956186,493.1612738489641L-692.7918692678845,477.50606656404216L-720.9819939103104,502.63654421551036z" style="fill:rgb(162,186,45)">
    </path>
    <path d="M-697.1607084094476,405.6958788555801L-705.6344739045278,410.8935033678834L-725.5734060743893,430.7068105411921z" style="fill:rgb(162,186,45)">
    </path>
    <path d="M-663.442655417508,-85.71187452941334L-744.0083122790021,-496.5210937758736" style="fill:none;stroke:rgb(0,0,0);stroke-width:1;stroke-linecap:round">
    </path>
    <path d="M-663.442655417508,-85.71187452941334L-744.0083122790021,-496.5210937758736" style="fill:none;stroke:rgb(0,0,0);stroke-width:1;stroke-linecap:round">
    </path>
    <path d="M-689.8599438370389,436.1365355651347L-687.3685617150365,421.3308095858768L-725.5734060743893,430.7068105411921z" style="fill:rgb(162,186,45)">
    </path>
    <path d="M-687.3685617150365,421.3308095858768L-697.1607084094476,405.6958788555801L-725.5734060743893,430.7068105411921z" style="fill:rgb(162,186,45)">
    </path>
    <path d="M-701.5930411096306,332.8420536463926L-710.1106557863217,338.3646767689437L-730.2318288181013,357.7272793374646z" style="fill:rgb(162,186,45)">
    </path>
    <path d="M-694.2351223371439,363.5719483274037L-691.7379006646111,348.4544593445013L-730.2318288181013,357.7272793374646z" style="fill:rgb(162,186,45)">
    </path>
    <path d="M-691.7379006646111,348.4544593445013L-701.5930411096306,332.8420536463926L-730.2318288181013,357.7272793374646z" style="fill:rgb(162,186,45)">
    </path>
    <path d="M-744.0083122790021,-496.5210937758736L-744.0083122790021,-496.5210937758736" style="fill:none;stroke:rgb(0,0,0);stroke-width:1;stroke-linecap:round">
    </path>
</svg>