<svg viewBox="-1163.5 -590 2327 1180" width="2327" height="1180" style="background-color: rgb(255, 255, 255);">
    <path d="M-56.831967302494704,172.97291597337681L-40.20043234809145,-571.8203143143849" style="fill:none;stroke:rgb(0,0,0);stroke-width:1;stroke-linecap:round">
    </path>
    <path d="M56.51129610486847,201.99839459860084L-56.831967302494704,172.97291597337681" style="fill:none;stroke:rgb(160,0,0);stroke-width:4;stroke-linecap:round">
    </path>
    <path d="M56.51129610486847,201.99839459860084L85.05418182832598,-552.561562151331" style="fill:none;stroke:rgb(0,0,0);stroke-width:1;stroke-linecap:round">
    </path>
    <path d="M-32.193184384949404,282.5618251680638L56.51129610486847,201.99839459860084" style="fill:none;stroke:rgb(160,0,0);stroke-width:4;stroke-linecap:round">
    </path>
    <path d="M56.51129610486847,201.99839459860084L-32.193184384949404,282.5618251680638" style="fill:none;stroke:rgb(160,0,0);stroke-width:4;stroke-linecap:round">
    </path>
    <path d="M56.51129610486847,201.99839459860084L70.08646744347382,-156.87494418622603" style="fill:none;stroke:rgb(0,0,0);stroke-width:1;stroke-linecap:round">
    </path>
    <path d="M173.42797791597638,231.9389710988887L56.51129610486847,201.99839459860084" style="fill:none;stroke:rgb(160,0,0);stroke-width:4;stroke-linecap:round">
    </path>
    <path d="M193.02623578686618,-131.3872047680336L173.42797791597638,231.9389710988887" style="fill:none;stroke:rgb(50,34,0);stroke-width:5;stroke-linecap:round">
    </path>
    <path d="M173.42797791597638,231.9389710988887L233.27957991970442,247.2660522364851" style="fill:none;stroke:rgb(197,147,42);stroke-width:5;stroke-linecap:round">
    </path>
    <path d="M175.3040637365388,197.15878342743406L235.45706040061987,212.28157971977262" style="fill:none;stroke:rgb(197,147,42);stroke-width:5;stroke-linecap:round">
    </path>
    <path d="M236.50527956516146,241.8321276147968L233.73150954777833,240.00512852607204L248.391366464147,251.13594996263592z" style="fill:rgb(197,147,42)">
    </path>
    <path d="M230.32116999594342,248.2277878973714L231.00289457707527,255.11581205829185L248.391366464147,251.13594996263592z" style="fill:rgb(197,147,42)">
    </path>
    <path d="M177.19804828899188,162.04677657829887L237.65548168571297,176.96066194228692" style="fill:none;stroke:rgb(197,147,42);stroke-width:5;stroke-linecap:round">
    </path>
    <path d="M233.73150954777833,240.00512852607204L230.32116999594342,248.2277878973714L248.391366464147,251.13594996263592z" style="fill:rgb(197,147,42)">
    </path>
    <path d="M193.02623578686618,-131.3872047680336L173.42797791597638,231.9389710988887L56.51129610486847,201.99839459860084z" style="fill:rgb(0,0,0); fill-opacity: 0.2">
    </path>
    <path d="M85.05418182832598,-552.561562151331L56.51129610486847,201.99839459860084L-56.831967302494704,172.97291597337681z" style="fill:rgb(0,0,0); fill-opacity: 0.2">
    </path>
    <path d="M238.69466532156991,206.87802853836638L235.91332795014958,204.95096082941186L250.64566286689862,216.10007844470815z" style="fill:rgb(197,147,42)">
    </path>
    <path d="M232.48932601196518,213.1697712291104L233.1703050669963,220.15559644897735L250.64566286689862,216.10007844470815z" style="fill:rgb(197,147,42)">
    </path>
    <path d="M179.1101889444044,126.59817922707143L239.875147315759,141.29842206861937" style="fill:none;stroke:rgb(197,147,42);stroke-width:5;stroke-linecap:round">
    </path>
    <path d="M235.91332795014958,204.95096082941186L232.48932601196518,213.1697712291104L250.64566286689862,216.10007844470815z" style="fill:rgb(197,147,42)">
    </path>
    <path d="M70.08646744347382,-156.87494418622603L56.51129610486847,201.99839459860084L-32.193184384949404,282.5618251680638z" style="fill:rgb(0,0,0); fill-opacity: 0.2">
    </path>
    <path d="M240.90507230692074,171.58832020851474L238.11614991516888,169.55933956352263L252.92168237118236,180.7265903678736z" style="fill:rgb(197,147,42)">
    </path>
    <path d="M234.67837996570432,177.77384518374814L235.35856749379383,184.85904020992743L252.92168237118236,180.7265903678736z" style="fill:rgb(197,147,42)">
    </path>
    <path d="M181.04074803202806,90.80812813108561L242.11636672652142,105.28988855158143" style="fill:none;stroke:rgb(197,147,42);stroke-width:5;stroke-linecap:round">
    </path>
    <path d="M238.11614991516888,169.55933956352263L234.67837996570432,177.77384518374814L252.92168237118236,180.7265903678736z" style="fill:rgb(197,147,42)">
    </path>
    <path d="M70.08646744347382,-156.87494418622603L56.51129610486847,201.99839459860084L193.02623578686618,-131.3872047680336z" style="fill:rgb(0,0,0); fill-opacity: 0.2">
    </path>
    <path d="M236.88863545986842,142.03510065479168L237.56798422630771,149.22126614788195L255.21974049305157,145.01058203806147z" style="fill:rgb(197,147,42)">
    </path>
    <path d="M182.989992959273,54.6716659052347L244.37945539255645,68.92999282177097" style="fill:none;stroke:rgb(197,147,42);stroke-width:5;stroke-linecap:round">
    </path>
    <path d="M240.34028020007852,133.82536834863652L236.88863545986842,142.03510065479168L255.21974049305157,145.01058203806147z" style="fill:rgb(197,147,42)">
    </path>
    <path d="M239.1204020067203,105.94853298114023L239.7988635078748,113.23730231425637L257.54015888854815,108.94705433459677z" style="fill:rgb(197,147,42)">
    </path>
    <path d="M184.95819633518354,18.18373873288618L246.66473497524763,32.21356690917193" style="fill:none;stroke:rgb(197,147,42);stroke-width:5;stroke-linecap:round">
    </path>
    <path d="M242.58602948672663,97.74405561735774L239.1204020067203,105.94853298114023L257.54015888854815,108.94705433459677z" style="fill:rgb(197,147,42)">
    </path>
    <path d="M70.08646744347382,-156.87494418622603L-17.216457463654848,-292.284728839412" style="fill:none;stroke:rgb(0,0,0);stroke-width:1;stroke-linecap:round">
    </path>
    <path d="M70.08646744347382,-156.87494418622603L-17.216457463654848,-292.284728839412" style="fill:none;stroke:rgb(0,0,0);stroke-width:1;stroke-linecap:round">
    </path>
    <path d="M70.08646744347382,-156.87494418622603L77.38319967310476,-349.77141614600674" style="fill:none;stroke:rgb(0,0,0);stroke-width:1;stroke-linecap:round">
    </path>
    <path d="M70.08646744347382,-156.87494418622603L77.38319967310476,-349.77141614600674" style="fill:none;stroke:rgb(0,0,0);stroke-width:1;stroke-linecap:round">
    </path>
    <path d="M193.02623578686618,-131.3872047680336L70.08646744347382,-156.87494418622603" style="fill:none;stroke:rgb(0,0,0);stroke-width:1;stroke-linecap:round">
    </path>
    <path d="M70.08646744347382,-156.87494418622603L-22.46492285622539,-90.83468834646013" style="fill:none;stroke:rgb(0,0,0);stroke-width:1;stroke-linecap:round">
    </path>
    <path d="M193.02623578686618,-131.3872047680336L70.08646744347382,-156.87494418622603" style="fill:none;stroke:rgb(0,0,0);stroke-width:1;stroke-linecap:round">
    </path>
    <path d="M-22.46492285622539,-90.83468834646013L70.08646744347382,-156.87494418622603" style="fill:none;stroke:rgb(0,0,0);stroke-width:1;stroke-linecap:round">
    </path>
    <path d="M193.02623578686618,-131.3872047680336L70.08646744347382,-156.87494418622603" style="fill:none;stroke:rgb(0,0,0);stroke-width:1;stroke-linecap:round">
    </path>
    <path d="M70.08646744347382,-156.87494418622603L-281.0101738668623,93.65086576146604" style="fill:none;stroke:rgb(0,0,0);stroke-width:1;stroke-linecap:round">
    </path>
    <path d="M193.02623578686618,-131.3872047680336L70.08646744347382,-156.87494418622603" style="fill:none;stroke:rgb(0,0,0);stroke-width:1;stroke-linecap:round">
    </path>
    <path d="M-32.193184384949404,282.5618251680638L-17.216457463654848,-292.284728839412" style="fill:none;stroke:rgb(0,0,0);stroke-width:1;stroke-linecap:round">
    </path>
    <path d="M241.3739951725668,69.5090396107813L242.05151959968936,76.90207969274786L259.88326550378883,72.53091037758264z" style="fill:rgb(197,147,42)">
    </path>
    <path d="M186.9456360975347,-18.660805990320412L248.972533475217,-4.864659005554891" style="fill:none;stroke:rgb(197,147,42);stroke-width:5;stroke-linecap:round">
    </path>
    <path d="M244.8537145262408,61.3103122902582L241.3739951725668,69.5090396107813L259.88326550378883,72.53091037758264z" style="fill:rgb(197,147,42)">
    </path>
    <path d="M243.6497367265069,32.71141769560272L244.3262729283822,40.210429818891576L262.24939472947636,35.75695312652398z" style="fill:rgb(197,147,42)">
    </path>
    <path d="M188.95259564367385,-55.867222082100234L251.30318538926412,-42.31005911252731" style="fill:none;stroke:rgb(197,147,42);stroke-width:5;stroke-linecap:round">
    </path>
    <path d="M247.1436582879627,24.518949383025767L243.6497367265069,32.71141769560272L262.24939472947636,35.75695312652398z" style="fill:rgb(197,147,42)">
    </path>
    <path d="M-40.20043234809145,-571.8203143143849L-56.831967302494704,172.97291597337681L85.05418182832598,-552.561562151331z" style="fill:rgb(0,0,0); fill-opacity: 0.2">
    </path>
    <path d="M-17.216457463654848,-292.284728839412L-32.193184384949404,282.5618251680638L56.51129610486847,201.99839459860084z" style="fill:rgb(0,0,0); fill-opacity: 0.2">
    </path>
    <path d="M245.9479547935874,-4.449638385059848L246.62345023796397,3.1570823292193255L264.63888755998664,-1.3801170921844341z" style="fill:rgb(197,147,42)">
    </path>
    <path d="M190.97936396523542,-93.44086707097381L253.65703187198963,-80.12811456937841" style="fill:none;stroke:rgb(197,147,42);stroke-width:5;stroke-linecap:round">
    </path>
    <path d="M249.45619011278933,-12.635324457196276L245.9479547935874,-4.449638385059848L264.63888755998664,-1.3801170921844341z" style="fill:rgb(197,147,42)">
    </path>
    <path d="M248.26898401251938,-41.97953957461658L248.94338474628486,-34.2633375624197L267.05209175719244,-38.88570513137433z" style="fill:rgb(197,147,42)">
    </path>
    <path d="M193.02623578686618,-131.3872047680336L256.0344209022701,-118.32441617590791" style="fill:none;stroke:rgb(197,147,42);stroke-width:5;stroke-linecap:round">
    </path>
    <path d="M105.3655935099051,-62.8482748736903L193.02623578686618,-131.3872047680336" style="fill:none;stroke:rgb(22,55,11);stroke-width:5;stroke-linecap:round">
    </path>
    <path d="M193.02623578686618,-131.3872047680336L256.0344209022701,-118.32441617590791" style="fill:none;stroke:rgb(109,213,75);stroke-width:5;stroke-linecap:round">
    </path>
    <path d="M193.02623578686618,-131.3872047680336L105.3655935099051,-62.8482748736903" style="fill:none;stroke:rgb(0,44,41);stroke-width:5;stroke-linecap:round">
    </path>
    <path d="M193.02623578686618,-131.3872047680336L256.0344209022701,-118.32441617590791" style="fill:none;stroke:rgb(43,180,168);stroke-width:5;stroke-linecap:round">
    </path>
    <path d="M-140.31892359250392,129.24424756762906L193.02623578686618,-131.3872047680336" style="fill:none;stroke:rgb(10,15,55);stroke-width:5;stroke-linecap:round">
    </path>
    <path d="M193.02623578686618,-131.3872047680336L256.0344209022701,-118.32441617590791" style="fill:none;stroke:rgb(74,87,214);stroke-width:5;stroke-linecap:round">
    </path>
    <path d="M251.7916458710752,-50.15790548873618L248.26898401251938,-41.97953957461658L267.05209175719244,-38.88570513137433z" style="fill:rgb(197,147,42)">
    </path>
    <path d="M250.6131656981137,-79.8838047657322L251.28641630616667,-72.05631166391568L269.48936201918855,-76.7653236453962z" style="fill:rgb(197,147,42)">
    </path>
    <path d="M254.15036812525256,-88.05429748814161L250.6131656981137,-79.8838047657322L269.48936201918855,-76.7653236453962z" style="fill:rgb(197,147,42)">
    </path>
    <path d="M70.08646744347382,-156.87494418622603L-22.46492285622539,-90.83468834646013L193.02623578686618,-131.3872047680336z" style="fill:rgb(0,0,0); fill-opacity: 0.2">
    </path>
    <path d="M77.38319967310476,-349.77141614600674L85.05418182832598,-552.561562151331" style="fill:none;stroke:rgb(0,0,0);stroke-width:1;stroke-linecap:round">
    </path>
    <path d="M77.38319967310476,-349.77141614600674L85.05418182832598,-552.561562151331" style="fill:none;stroke:rgb(0,0,0);stroke-width:1;stroke-linecap:round">
    </path>
    <path d="M177.46354603486714,-119.2192571672206L240.93736496775236,-105.93030150693161" style="fill:none;stroke:rgb(74,87,214);stroke-width:5;stroke-linecap:round">
    </path>
    <path d="M252.9808480086027,-118.16806350582749L253.6528915713719,-110.22743148197029L271.9510601540894,-115.02459579125735z" style="fill:rgb(197,147,42)">
    </path>
    <path d="M252.9808480086027,-118.16806350582749L253.6528915713719,-110.22743148197029L271.9510601540894,-115.02459579125735z" style="fill:rgb(109,213,75)">
    </path>
    <path d="M252.9808480086027,-118.16806350582752L253.6528915713719,-110.22743148197029L271.9510601540894,-115.0245957912574z" style="fill:rgb(43,180,168)">
    </path>
    <path d="M252.9808480086027,-118.16806350582749L253.6528915713719,-110.22743148197029L271.9510601540894,-115.02459579125735z" style="fill:rgb(74,87,214)">
    </path>
    <path d="M-17.216457463654848,-292.284728839412L-32.193184384949404,282.5618251680638L70.08646744347382,-156.87494418622603z" style="fill:rgb(0,0,0); fill-opacity: 0.2">
    </path>
    <path d="M176.20589426105815,-118.2359412284182L239.71723868055275,-104.92862375070042" style="fill:none;stroke:rgb(109,213,75);stroke-width:5;stroke-linecap:round">
    </path>
    <path d="M176.2058942610582,-118.23594122841826L239.7172386805528,-104.92862375070047" style="fill:none;stroke:rgb(43,180,168);stroke-width:5;stroke-linecap:round">
    </path>
    <path d="M256.5327062973376,-126.33011444140509L252.9808480086027,-118.16806350582749L271.9510601540894,-115.02459579125735z" style="fill:rgb(197,147,42)">
    </path>
    <path d="M256.5327062973376,-126.33011444140509L252.9808480086027,-118.16806350582749L271.9510601540894,-115.02459579125735z" style="fill:rgb(109,213,75)">
    </path>
    <path d="M256.5327062973376,-126.33011444140509L252.9808480086027,-118.16806350582752L271.9510601540894,-115.0245957912574z" style="fill:rgb(43,180,168)">
    </path>
    <path d="M256.5327062973376,-126.33011444140509L252.9808480086027,-118.16806350582749L271.9510601540894,-115.02459579125735z" style="fill:rgb(74,87,214)">
    </path>
    <path d="M85.05418182832598,-552.561562151331L56.51129610486847,201.99839459860084L-17.216457463654848,-292.284728839412z" style="fill:rgb(0,0,0); fill-opacity: 0.2">
    </path>
    <path d="M105.3655935099051,-62.8482748736903L193.02623578686618,-131.3872047680336L70.08646744347382,-156.87494418622603z" style="fill:rgb(0,0,0); fill-opacity: 0.2">
    </path>
    <path d="M85.05418182832598,-552.561562151331L-40.20043234809145,-571.8203143143849" style="fill:none;stroke:rgb(0,0,0);stroke-width:1;stroke-linecap:round">
    </path>
    <path d="M-40.20043234809145,-571.8203143143849L-428.1491379439104,-396.3014646793683" style="fill:none;stroke:rgb(0,0,0);stroke-width:1;stroke-linecap:round">
    </path>
    <path d="M85.05418182832598,-552.561562151331L-40.20043234809145,-571.8203143143849" style="fill:none;stroke:rgb(0,0,0);stroke-width:1;stroke-linecap:round">
    </path>
    <path d="M77.38319967310476,-349.77141614600674L-17.216457463654848,-292.284728839412L70.08646744347382,-156.87494418622603z" style="fill:rgb(0,0,0); fill-opacity: 0.2">
    </path>
    <path d="M161.605791385132,-106.82060817277272L225.55163906981429,-93.29919966352604" style="fill:none;stroke:rgb(74,87,214);stroke-width:5;stroke-linecap:round">
    </path>
    <path d="M237.81922317700918,-105.74325189883209L238.5272088297344,-97.75162910262941L256.97320254078085,-102.57301911765391z" style="fill:rgb(74,87,214)">
    </path>
    <path d="M241.42447956607137,-113.99884425066587L237.81922317700918,-105.74325189883209L256.97320254078085,-102.57301911765391z" style="fill:rgb(74,87,214)">
    </path>
    <path d="M236.59384922404854,-104.73906925463886L237.30476397848332,-96.7433453349242L255.7626838289689,-101.56667582450066z" style="fill:rgb(109,213,75)">
    </path>
    <path d="M236.59384922404854,-104.73906925463886L237.30476397848332,-96.74334533492426L255.76268382896893,-101.56667582450066z" style="fill:rgb(43,180,168)">
    </path>
    <path d="M159.0406070777621,-104.81497619424569L223.06258030540008,-91.25577610612662" style="fill:none;stroke:rgb(109,213,75);stroke-width:5;stroke-linecap:round">
    </path>
    <path d="M159.0406070777621,-104.81497619424572L223.06258030540008,-91.25577610612665" style="fill:none;stroke:rgb(43,180,168);stroke-width:5;stroke-linecap:round">
    </path>
    <path d="M240.20343743394085,-113.00223487264951L236.59384922404854,-104.73906925463886L255.7626838289689,-101.56667582450066z" style="fill:rgb(109,213,75)">
    </path>
    <path d="M240.20343743394088,-113.00223487264951L236.59384922404854,-104.73906925463886L255.76268382896893,-101.56667582450066z" style="fill:rgb(43,180,168)">
    </path>
    <path d="M-22.46492285622539,-90.83468834646013L70.08646744347382,-156.87494418622603L105.3655935099051,-62.8482748736903z" style="fill:rgb(0,0,0); fill-opacity: 0.2">
    </path>
    <path d="M85.05418182832598,-552.561562151331L85.05418182832598,-552.561562151331L77.38319967310476,-349.77141614600674z" style="fill:rgb(0,0,0); fill-opacity: 0.2">
    </path>
    <path d="M-22.46492285622539,-90.83468834646013L70.08646744347382,-156.87494418622603L-17.216457463654848,-292.284728839412z" style="fill:rgb(0,0,0); fill-opacity: 0.2">
    </path>
    <path d="M70.08646744347382,-156.87494418622603L-22.46492285622539,-90.83468834646013L-17.216457463654848,-292.284728839412z" style="fill:rgb(0,0,0); fill-opacity: 0.2">
    </path>
    <path d="M145.44449998503896,-94.18463392593398L209.86888382543347,-80.42424790687721" style="fill:none;stroke:rgb(74,87,214);stroke-width:5;stroke-linecap:round">
    </path>
    <path d="M193.02623578686618,-131.3872047680336L105.3655935099051,-62.8482748736903L-22.46492285622539,-90.83468834646013z" style="fill:rgb(0,0,0); fill-opacity: 0.2">
    </path>
    <path d="M222.367003913421,-93.08030083701708L223.11219145690475,-85.0371808557326L241.70834418138475,-89.88284945648503z" style="fill:rgb(74,87,214)">
    </path>
    <path d="M226.0270622217356,-101.43153791552561L222.367003913421,-93.08030083701708L241.70834418138475,-89.88284945648503z" style="fill:rgb(74,87,214)">
    </path>
    <path d="M219.86712259693294,-91.03167117217481L220.6183828740682,-82.98026457745266L239.2387811552443,-87.82982196989965z" style="fill:rgb(109,213,75)">
    </path>
    <path d="M219.86712259693294,-91.03167117217481L220.61838287406826,-82.98026457745266L239.2387811552443,-87.82982196989965z" style="fill:rgb(43,180,168)">
    </path>
    <path d="M141.51965326943682,-91.11592729888477L206.0598667247576,-77.2971882386455" style="fill:none;stroke:rgb(109,213,75);stroke-width:5;stroke-linecap:round">
    </path>
    <path d="M141.51965326943682,-91.11592729888477L206.0598667247576,-77.2971882386455" style="fill:none;stroke:rgb(43,180,168);stroke-width:5;stroke-linecap:round">
    </path>
    <path d="M223.5360829194575,-99.39841123810008L219.86712259693294,-91.03167117217481L239.2387811552443,-87.82982196989965z" style="fill:rgb(43,180,168)">
    </path>
    <path d="M223.5360829194575,-99.39841123810008L219.86712259693294,-91.03167117217481L239.2387811552443,-87.82982196989965z" style="fill:rgb(109,213,75)">
    </path>
    <path d="M-17.216457463654848,-292.284728839412L85.05418182832598,-552.561562151331" style="fill:none;stroke:rgb(0,0,0);stroke-width:1;stroke-linecap:round">
    </path>
    <path d="M85.05418182832598,-552.561562151331L85.05418182832598,-552.561562151331" style="fill:none;stroke:rgb(0,0,0);stroke-width:1;stroke-linecap:round">
    </path>
    <path d="M-17.216457463654848,-292.284728839412L85.05418182832598,-552.561562151331" style="fill:none;stroke:rgb(0,0,0);stroke-width:1;stroke-linecap:round">
    </path>
    <path d="M85.05418182832598,-552.561562151331L-284.68701021133546,-369.3763386989464" style="fill:none;stroke:rgb(0,0,0);stroke-width:1;stroke-linecap:round">
    </path>
    <path d="M-22.46492285622539,-90.83468834646013L-17.216457463654848,-292.284728839412" style="fill:none;stroke:rgb(0,0,0);stroke-width:1;stroke-linecap:round">
    </path>
    <path d="M-22.46492285622539,-90.83468834646013L-17.216457463654848,-292.284728839412" style="fill:none;stroke:rgb(0,0,0);stroke-width:1;stroke-linecap:round">
    </path>
    <path d="M105.3655935099051,-62.8482748736903L-22.46492285622539,-90.83468834646013" style="fill:none;stroke:rgb(0,0,0);stroke-width:1;stroke-linecap:round">
    </path>
    <path d="M105.3655935099051,-62.8482748736903L-22.46492285622539,-90.83468834646013" style="fill:none;stroke:rgb(0,0,0);stroke-width:1;stroke-linecap:round">
    </path>
    <path d="M77.38319967310476,-349.77141614600674L-17.216457463654848,-292.284728839412L85.05418182832598,-552.561562151331z" style="fill:rgb(0,0,0); fill-opacity: 0.2">
    </path>
    <path d="M128.97087252483382,-81.30445454014732L193.88041394128305,-67.29831593807805" style="fill:none;stroke:rgb(74,87,214);stroke-width:5;stroke-linecap:round">
    </path>
    <path d="M206.61575488736966,-80.17229764492201L207.39945739134427,-72.07717313975371L226.14815615808016,-76.94716270942259z" style="fill:rgb(74,87,214)">
    </path>
    <path d="M210.33207081699268,-88.62135290203969L206.61575488736966,-80.17229764492201L226.14815615808016,-76.94716270942259z" style="fill:rgb(74,87,214)">
    </path>
    <path d="M202.78999284386117,-77.03712096222664L203.5831404858162,-68.92943982129385L222.36881153160886,-73.80527148522883z" style="fill:rgb(109,213,75)">
    </path>
    <path d="M202.78999284386117,-77.03712096222664L203.5831404858162,-68.92943982129385L222.36881153160886,-73.80527148522883z" style="fill:rgb(43,180,168)">
    </path>
    <path d="M123.63186293836364,-77.1300611721845L188.6980720475894,-63.04380830673096" style="fill:none;stroke:rgb(109,213,75);stroke-width:5;stroke-linecap:round">
    </path>
    <path d="M123.63186293836364,-77.1300611721845L188.6980720475894,-63.04380830673096" style="fill:none;stroke:rgb(43,180,168);stroke-width:5;stroke-linecap:round">
    </path>
    <path d="M206.52003319553074,-85.50998406149738L202.78999284386117,-77.03712096222664L222.36881153160886,-73.80527148522883z" style="fill:rgb(109,213,75)">
    </path>
    <path d="M206.52003319553074,-85.50998406149738L202.78999284386117,-77.03712096222664L222.36881153160886,-73.80527148522883z" style="fill:rgb(43,180,168)">
    </path>
    <path d="M112.1757662620154,-68.17292161025578L177.5772021744192,-53.91399273045728" style="fill:none;stroke:rgb(74,87,214);stroke-width:5;stroke-linecap:round">
    </path>
    <path d="M190.55671109922474,-67.012059486251L191.38029764191344,-58.864422698621894L210.28398412538024,-63.75876423961213z" style="fill:rgb(74,87,214)">
    </path>
    <path d="M194.33079470181008,-75.56117961482022L190.55671109922474,-67.012059486251L210.28398412538024,-63.75876423961213z" style="fill:rgb(74,87,214)">
    </path>
    <path d="M185.351332680471,-62.74629991796482L186.18798080350876,-54.58175196743292L205.14178817206692,-59.483890700523226z" style="fill:rgb(109,213,75)">
    </path>
    <path d="M185.351332680471,-62.74629991796482L186.1879808035088,-54.58175196743292L205.14178817206698,-59.483890700523226z" style="fill:rgb(43,180,168)">
    </path>
    <path d="M105.3655935099051,-62.848274873690265L170.96569970006513,-48.48619805599961" style="fill:none;stroke:rgb(109,213,75);stroke-width:5;stroke-linecap:round">
    </path>
    <path d="M105.3655935099051,-62.8482748736903L170.96569970006513,-48.48619805599965" style="fill:none;stroke:rgb(43,180,168);stroke-width:5;stroke-linecap:round">
    </path>
    <path d="M189.1442300891647,-71.32792770922767L185.351332680471,-62.74629991796482L205.14178817206692,-59.483890700523226z" style="fill:rgb(109,213,75)">
    </path>
    <path d="M189.14423008916472,-71.32792770922772L185.351332680471,-62.74629991796482L205.14178817206698,-59.483890700523226z" style="fill:rgb(43,180,168)">
    </path>
    <path d="M-17.216457463654848,-292.284728839412L-17.216457463654848,-292.284728839412L-22.46492285622539,-90.83468834646013z" style="fill:rgb(0,0,0); fill-opacity: 0.2">
    </path>
    <path d="M-165.07658135068118,403.2495544255728L-277.7391617055307,505.572277247182" style="fill:none;stroke:rgb(160,0,0);stroke-width:4;stroke-linecap:round">
    </path>
    <path d="M-160.25658236065587,-205.36154982236164L-165.07658135068118,403.2495544255728" style="fill:none;stroke:rgb(0,0,0);stroke-width:1;stroke-linecap:round">
    </path>
    <path d="M-277.7391617055307,505.572277247182L-165.07658135068118,403.2495544255728" style="fill:none;stroke:rgb(160,0,0);stroke-width:4;stroke-linecap:round">
    </path>
    <path d="M-281.0101738668623,93.65086576146604L70.08646744347382,-156.87494418622603L77.38319967310476,-349.77141614600674z" style="fill:rgb(0,0,0); fill-opacity: 0.2">
    </path>
    <path d="M95.04967810122542,-54.78260498323254L160.9498623363255,-40.263572576539055" style="fill:none;stroke:rgb(74,87,214);stroke-width:5;stroke-linecap:round">
    </path>
    <path d="M174.18076161614357,-53.59212003563397L175.0456601916782,-45.39146334543277L194.10683225945306,-50.31017552822406z" style="fill:rgb(74,87,214)">
    </path>
    <path d="M178.01417990292342,-62.243628239522494L174.18076161614357,-53.59212003563397L194.10683225945306,-50.31017552822406z" style="fill:rgb(74,87,214)">
    </path>
    <path d="M-140.31892359250392,129.24424756762906L193.02623578686618,-131.3872047680336L70.08646744347382,-156.87494418622603z" style="fill:rgb(0,0,0); fill-opacity: 0.2">
    </path>
    <path d="M167.53953864284412,-48.14969910780893L168.42137565053244,-39.92769246966526L187.5462542446186,-44.85615518139668z" style="fill:rgb(109,213,75)">
    </path>
    <path d="M167.53953864284415,-48.14969910780898L168.42137565053238,-39.92769246966525L187.5462542446186,-44.85615518139668z" style="fill:rgb(43,180,168)">
    </path>
    <path d="M171.39714284786058,-56.8428308303037L167.53953864284412,-48.14969910780893L187.5462542446186,-44.85615518139668z" style="fill:rgb(109,213,75)">
    </path>
    <path d="M171.39714284786058,-56.8428308303037L167.53953864284415,-48.14969910780898L187.5462542446186,-44.85615518139668z" style="fill:rgb(43,180,168)">
    </path>
    <path d="M77.5827266638465,-41.12577873899847L143.98863127307618,-26.339040294435463" style="fill:none;stroke:rgb(74,87,214);stroke-width:5;stroke-linecap:round">
    </path>
    <path d="M157.47843233557336,-39.90471535347519L158.3861329412744,-31.650531893978727L177.60734624799935,-36.593620033390444z" style="fill:rgb(74,87,214)">
    </path>
    <path d="M161.37281204074762,-48.66101479970057L157.47843233557336,-39.90471535347519L177.60734624799935,-36.593620033390444z" style="fill:rgb(74,87,214)">
    </path>
    <path d="M59.76463327622419,-27.194406325747636L126.68334974892853,-12.132055533995533" style="fill:none;stroke:rgb(74,87,214);stroke-width:5;stroke-linecap:round">
    </path>
    <path d="M140.4398677077859,-25.941768907739668L141.39192562429952,-17.633553242397166L160.77579525310497,-22.601008195341507z" style="fill:rgb(74,87,214)">
    </path>
    <path d="M144.39689821601024,-34.80534637275498L140.4398677077859,-25.941768907739668L160.77579525310497,-22.601008195341507z" style="fill:rgb(74,87,214)">
    </path>
    <path d="M-282.79328576879465,-130.89796966137854L77.38319967310476,-349.77141614600674L85.05418182832598,-552.561562151331z" style="fill:rgb(0,0,0); fill-opacity: 0.2">
    </path>
    <path d="M41.58470179965319,-12.980124789686515L109.02344215469451,2.366063881858295" style="fill:none;stroke:rgb(74,87,214);stroke-width:5;stroke-linecap:round">
    </path>
    <path d="M123.0548113433562,-11.694875681960426L124.05285062171741,-3.3321245487151754L143.60205277398785,-8.323921526989187z" style="fill:rgb(74,87,214)">
    </path>
    <path d="M127.076247792879,-20.66830540520314L123.0548113433562,-11.694875681960426L143.60205277398785,-8.323921526989187z" style="fill:rgb(74,87,214)">
    </path>
    <path d="M-428.1491379439104,-396.3014646793683L-405.7787751145144,465.74782604153353" style="fill:none;stroke:rgb(0,0,0);stroke-width:1;stroke-linecap:round">
    </path>
    <path d="M-277.7391617055307,505.572277247182L-405.7787751145144,465.74782604153353" style="fill:none;stroke:rgb(160,0,0);stroke-width:4;stroke-linecap:round">
    </path>
    <path d="M-284.68701021133546,-369.3763386989464L85.05418182832598,-552.561562151331L-40.20043234809145,-571.8203143143849z" style="fill:rgb(0,0,0); fill-opacity: 0.2">
    </path>
    <path d="M23.03179721896042,1.5257719658377655L90.9978949557276,17.16435965052117" style="fill:none;stroke:rgb(74,87,214);stroke-width:5;stroke-linecap:round">
    </path>
    <path d="M105.31258542540382,2.844714696239187L106.3583025962764,11.262501566869995L126.07557633055693,6.246404275786187z" style="fill:rgb(74,87,214)">
    </path>
    <path d="M-165.07658135068118,403.2495544255728L-160.25658236065587,-205.36154982236164L-277.7391617055307,505.572277247182z" style="fill:rgb(0,0,0); fill-opacity: 0.2">
    </path>
    <path d="M109.40025199934573,-6.2412330626000205L105.31258542540382,2.844714696239187L126.07557633055693,6.246404275786187z" style="fill:rgb(74,87,214)">
    </path>
    <path d="M-161.95185165890604,8.696528144213964L-160.25658236065587,-205.36154982236164" style="fill:none;stroke:rgb(0,0,0);stroke-width:1;stroke-linecap:round">
    </path>
    <path d="M-161.95185165890604,8.696528144213964L-160.25658236065587,-205.36154982236164" style="fill:none;stroke:rgb(0,0,0);stroke-width:1;stroke-linecap:round">
    </path>
    <path d="M-281.0101738668623,93.65086576146604L-161.95185165890604,8.696528144213964" style="fill:none;stroke:rgb(0,0,0);stroke-width:1;stroke-linecap:round">
    </path>
    <path d="M-27.035889500192862,40.67202484377132L-161.95185165890604,8.696528144213964" style="fill:none;stroke:rgb(0,0,0);stroke-width:1;stroke-linecap:round">
    </path>
    <path d="M-161.95185165890604,8.696528144213964L-281.0101738668623,93.65086576146604" style="fill:none;stroke:rgb(0,0,0);stroke-width:1;stroke-linecap:round">
    </path>
    <path d="M-27.035889500192862,40.67202484377132L-161.95185165890604,8.696528144213964" style="fill:none;stroke:rgb(0,0,0);stroke-width:1;stroke-linecap:round">
    </path>
    <path d="M-284.68701021133546,-369.3763386989464L-277.7391617055307,505.572277247182" style="fill:none;stroke:rgb(0,0,0);stroke-width:1;stroke-linecap:round">
    </path>
    <path d="M-281.0101738668623,93.65086576146604L-277.7391617055307,505.572277247182" style="fill:none;stroke:rgb(0,0,0);stroke-width:1;stroke-linecap:round">
    </path>
    <path d="M-144.89645973243793,546.8906439768235L-277.7391617055307,505.572277247182" style="fill:none;stroke:rgb(160,0,0);stroke-width:4;stroke-linecap:round">
    </path>
    <path d="M4.0943228996229815,16.332350962237886L72.59523378723601,32.27225179359209" style="fill:none;stroke:rgb(74,87,214);stroke-width:5;stroke-linecap:round">
    </path>
    <path d="M87.20206883976134,17.686115877270993L88.29723686139405,26.15943486353416L108.18538588213436,21.119097275348903z" style="fill:rgb(74,87,214)">
    </path>
    <path d="M91.35786225906072,8.484888455926324L87.20206883976134,17.686115877270993L108.18538588213436,21.119097275348903z" style="fill:rgb(74,87,214)">
    </path>
    <path d="M-281.0101738668623,93.65086576146604L70.08646744347382,-156.87494418622603L-140.31892359250392,129.24424756762906z" style="fill:rgb(0,0,0); fill-opacity: 0.2">
    </path>
    <path d="M76.67237157005269,26.31510560020649L72.93756716162044,23.51945471442773L89.92004088851021,36.30366836219408z" style="fill:rgb(74,87,214)">
    </path>
    <path d="M-15.239803584187264,31.44905904493131L53.80349909682584,47.69955865342878" style="fill:none;stroke:rgb(74,87,214);stroke-width:5;stroke-linecap:round">
    </path>
    <path d="M68.71167392894614,32.83882383948736L69.85814639180016,41.368166441659135L89.92004088851021,36.30366836219408z" style="fill:rgb(74,87,214)">
    </path>
    <path d="M72.93756716162044,23.51945471442773L68.71167392894614,32.83882383948736L89.92004088851021,36.30366836219408z" style="fill:rgb(74,87,214)">
    </path>
    <path d="M-27.035889500192862,40.67202484377132L-140.31892359250392,129.24424756762906" style="fill:none;stroke:rgb(40,0,38);stroke-width:5;stroke-linecap:round">
    </path>
    <path d="M-27.035889500192912,40.67202484377137L42.33653727431088,57.11350269321184" style="fill:none;stroke:rgb(167,41,160);stroke-width:5;stroke-linecap:round">
    </path>
    <path d="M-140.31892359250392,129.24424756762906L-27.035889500192862,40.67202484377132" style="fill:none;stroke:rgb(55,17,8);stroke-width:5;stroke-linecap:round">
    </path>
    <path d="M-27.035889500192862,40.67202484377132L42.33653727431093,57.11350269321179" style="fill:none;stroke:rgb(214,94,68);stroke-width:5;stroke-linecap:round">
    </path>
    <path d="M-282.79328576879465,-130.89796966137854L77.38319967310476,-349.77141614600674L-281.0101738668623,93.65086576146604z" style="fill:rgb(0,0,0); fill-opacity: 0.2">
    </path>
    <path d="M-144.89645973243793,546.8906439768235L-140.31892359250392,129.24424756762906" style="fill:none;stroke:rgb(38,46,1);stroke-width:5;stroke-linecap:round">
    </path>
    <path d="M-144.89645973243793,546.8906439768235L-76.58869350344519,568.1365633507295" style="fill:none;stroke:rgb(162,186,45);stroke-width:5;stroke-linecap:round">
    </path>
    <path d="M57.9592785990295,41.65031256724997L54.12736797043941,38.87225903050626L71.26761591262728,51.81003153722349z" style="fill:rgb(74,87,214)">
    </path>
    <path d="M-34.98317615650495,46.88574298270836L34.61022022562496,63.456518171569655" style="fill:none;stroke:rgb(74,87,214);stroke-width:5;stroke-linecap:round">
    </path>
    <path d="M49.82932176783245,48.31273715053996L51.02903737538637,56.89858890789248L71.26761591262728,51.81003153722349z" style="fill:rgb(74,87,214)">
    </path>
    <path d="M54.12736797043941,38.87225903050626L49.82932176783245,48.31273715053996L71.26761591262728,51.81003153722349z" style="fill:rgb(74,87,214)">
    </path>
    <path d="M-277.7391617055307,505.572277247182L-284.68701021133546,-369.3763386989464L-165.07658135068118,403.2495544255728z" style="fill:rgb(0,0,0); fill-opacity: 0.2">
    </path>
    <path d="M-144.4619991908078,507.25122354476093L-75.76021025073761,528.2410052945772" style="fill:none;stroke:rgb(162,186,45);stroke-width:5;stroke-linecap:round">
    </path>
    <path d="M-161.95185165890604,8.696528144213964L-281.0101738668623,93.65086576146604L-27.035889500192862,40.67202484377132z" style="fill:rgb(0,0,0); fill-opacity: 0.2">
    </path>
    <path d="M-277.7391617055307,505.572277247182L-281.0101738668623,93.65086576146604L-144.89645973243793,546.8906439768235z" style="fill:rgb(0,0,0); fill-opacity: 0.2">
    </path>
    <path d="M-160.25658236065587,-205.36154982236164L-284.68701021133546,-369.3763386989464" style="fill:none;stroke:rgb(0,0,0);stroke-width:1;stroke-linecap:round">
    </path>
    <path d="M-160.25658236065587,-205.36154982236164L-284.68701021133546,-369.3763386989464" style="fill:none;stroke:rgb(0,0,0);stroke-width:1;stroke-linecap:round">
    </path>
    <path d="M-281.0101738668623,93.65086576146604L-160.25658236065587,-205.36154982236164" style="fill:none;stroke:rgb(0,0,0);stroke-width:1;stroke-linecap:round">
    </path>
    <path d="M-281.0101738668623,93.65086576146604L-160.25658236065587,-205.36154982236164" style="fill:none;stroke:rgb(0,0,0);stroke-width:1;stroke-linecap:round">
    </path>
    <path d="M-405.7787751145144,465.74782604153353L-428.1491379439104,-396.3014646793683L-277.7391617055307,505.572277247182z" style="fill:rgb(0,0,0); fill-opacity: 0.2">
    </path>
    <path d="M46.54066959075829,51.0077572552412L42.648911621933664,48.24092612319072L59.88521110296991,61.27259219686739z" style="fill:rgb(167,41,160)">
    </path>
    <path d="M46.54066959075834,51.00775725524115L42.648911621933706,48.24092612319066L59.88521110296996,61.27259219686734z" style="fill:rgb(214,94,68)">
    </path>
    <path d="M-281.0101738668623,93.65086576146604L-161.95185165890604,8.696528144213964L-160.25658236065587,-205.36154982236164z" style="fill:rgb(0,0,0); fill-opacity: 0.2">
    </path>
    <path d="M-277.7391617055307,505.572277247182L-281.0101738668623,93.65086576146604L-160.25658236065587,-205.36154982236164z" style="fill:rgb(0,0,0); fill-opacity: 0.2">
    </path>
    <path d="M-72.15441958178103,561.0506919965977L-76.41686924213326,559.8623770346854L-59.309190160111406,573.5110464457101z" style="fill:rgb(162,186,45)">
    </path>
    <path d="M38.306553202608654,57.755539634056326L39.539182461194486,66.37552702204191L59.88521110296991,61.27259219686739z" style="fill:rgb(167,41,160)">
    </path>
    <path d="M38.306553202608704,57.75553963405628L39.539182461194535,66.37552702204187L59.88521110296996,61.27259219686734z" style="fill:rgb(214,94,68)">
    </path>
    <path d="M-48.64910930090849,57.570679909884255L21.32281310494438,74.36497927957632" style="fill:none;stroke:rgb(167,41,160);stroke-width:5;stroke-linecap:round">
    </path>
    <path d="M-48.64910930090844,57.570679909884205L21.322813104944426,74.36497927957626" style="fill:none;stroke:rgb(214,94,68);stroke-width:5;stroke-linecap:round">
    </path>
    <path d="M42.648911621933664,48.24092612319072L38.306553202608654,57.755539634056326L59.88521110296991,61.27259219686739z" style="fill:rgb(167,41,160)">
    </path>
    <path d="M42.648911621933706,48.24092612319066L38.306553202608704,57.75553963405628L59.88521110296996,61.27259219686734z" style="fill:rgb(214,94,68)">
    </path>
    <path d="M-80.93687654671784,570.1335859145285L-79.4418232930222,577.6362201346736L-59.309190160111406,573.5110464457101z" style="fill:rgb(162,186,45)">
    </path>
    <path d="M-144.02259787198304,467.1610152373595L-74.92221509287631,487.8874020539909" style="fill:none;stroke:rgb(162,186,45);stroke-width:5;stroke-linecap:round">
    </path>
    <path d="M-76.41686924213326,559.8623770346854L-80.93687654671784,570.1335859145285L-59.309190160111406,573.5110464457101z" style="fill:rgb(162,186,45)">
    </path>
    <path d="M-140.31892359250392,129.24424756762906L-27.035889500192862,40.67202484377132L-161.95185165890604,8.696528144213964z" style="fill:rgb(0,0,0); fill-opacity: 0.2">
    </path>
    <path d="M38.84708797877115,57.31257637415204L34.91475255870381,54.553513748677645L52.21567465556751,67.64852549729964z" style="fill:rgb(74,87,214)">
    </path>
    <path d="M-165.07658135068118,403.2495544255728L-160.25658236065587,-205.36154982236164L-284.68701021133546,-369.3763386989464z" style="fill:rgb(0,0,0); fill-opacity: 0.2">
    </path>
    <path d="M-55.148927596350305,62.65267085708429L15.00238780994985,79.55381054592634" style="fill:none;stroke:rgb(74,87,214);stroke-width:5;stroke-linecap:round">
    </path>
    <path d="M30.542415850169686,64.11817853103469L31.7974031971118,72.76101783346157L52.21567465556751,67.64852549729964z" style="fill:rgb(74,87,214)">
    </path>
    <path d="M34.91475255870381,54.553513748677645L30.542415850169686,64.11817853103469L52.21567465556751,67.64852549729964z" style="fill:rgb(74,87,214)">
    </path>
    <path d="M-71.3022657664326,521.1913687141562L-75.58641774447416,519.8720382687515L-58.37986716012383,533.5510505472145z" style="fill:rgb(162,186,45)">
    </path>
    <path d="M-80.13106942544493,530.1431049719342L-78.62925617353639,537.7767869039742L-58.37986716012383,533.5510505472145z" style="fill:rgb(162,186,45)">
    </path>
    <path d="M-143.5781710126451,426.61228539759594L-74.07454327326101,447.06781978542256" style="fill:none;stroke:rgb(162,186,45);stroke-width:5;stroke-linecap:round">
    </path>
    <path d="M-75.58641774447416,519.8720382687515L-80.13106942544493,530.1431049719342L-58.37986716012383,533.5510505472145z" style="fill:rgb(162,186,45)">
    </path>
    <path d="M-160.25658236065587,-205.36154982236164L-160.25658236065587,-205.36154982236164L-281.0101738668623,93.65086576146604z" style="fill:rgb(0,0,0); fill-opacity: 0.2">
    </path>
    <path d="M-160.25658236065587,-205.36154982236164L-282.79328576879465,-130.89796966137854L-161.95185165890604,8.696528144213964z" style="fill:rgb(0,0,0); fill-opacity: 0.2">
    </path>
    <path d="M25.616271323674656,68.15510850195652L21.61367618078432,65.40979553218762L39.02555307333585,78.61389948171885z" style="fill:rgb(167,41,160)">
    </path>
    <path d="M25.616271323674702,68.15510850195645L21.613676180784367,65.40979553218756L39.02555307333591,78.61389948171879z" style="fill:rgb(214,94,68)">
    </path>
    <path d="M-70.44034717449759,480.8752999712889L-74.74642032760023,479.42201637344846L-57.43984889962883,493.1311687252924z" style="fill:rgb(162,186,45)">
    </path>
    <path d="M17.189555826419067,75.06072407298532L18.483334941758308,83.74258390595372L39.02555307333591,78.61389948171879z" style="fill:rgb(214,94,68)">
    </path>
    <path d="M17.189555826419014,75.06072407298537L18.483334941758212,83.74258390595377L39.02555307333585,78.61389948171885z" style="fill:rgb(167,41,160)">
    </path>
    <path d="M-70.76579388440668,74.86297728291048L-0.1851505702637992,92.02220789705927" style="fill:none;stroke:rgb(167,41,160);stroke-width:5;stroke-linecap:round">
    </path>
    <path d="M-70.76579388440659,74.86297728291044L-0.18515057026370035,92.02220789705922" style="fill:none;stroke:rgb(214,94,68);stroke-width:5;stroke-linecap:round">
    </path>
    <path d="M21.613676180784367,65.40979553218756L17.189555826419067,75.06072407298532L39.02555307333591,78.61389948171879z" style="fill:rgb(214,94,68)">
    </path>
    <path d="M21.61367618078432,65.40979553218762L17.189555826419014,75.06072407298537L39.02555307333585,78.61389948171885z" style="fill:rgb(167,41,160)">
    </path>
    <path d="M-79.3159859417585,489.69225803787555L-77.80735562178809,497.45951417773296L-57.43984889962883,493.1311687252924z" style="fill:rgb(162,186,45)">
    </path>
    <path d="M-143.12863189940617,385.59712244752444L-73.21702620817555,405.7741403507998" style="fill:none;stroke:rgb(162,186,45);stroke-width:5;stroke-linecap:round">
    </path>
    <path d="M-74.74642032760023,479.42201637344846L-79.3159859417585,489.69225803787555L-57.43984889962883,493.1311687252924z" style="fill:rgb(162,186,45)">
    </path>
    <path d="M19.32289464914715,73.31247259857525L15.286667654433861,70.57387289383298L32.751242305043625,83.82993662283765z" style="fill:rgb(74,87,214)">
    </path>
    <path d="M-75.75075866926001,78.76055483927101L-5.03357562483113,96.00258237211514" style="fill:none;stroke:rgb(74,87,214);stroke-width:5;stroke-linecap:round">
    </path>
    <path d="M10.837814065490432,80.26591781919736L12.150196736379906,88.96621460355227L32.751242305043625,83.82993662283765z" style="fill:rgb(74,87,214)">
    </path>
    <path d="M15.286667654433861,70.57387289383298L10.837814065490432,80.26591781919736L32.751242305043625,83.82993662283765z" style="fill:rgb(74,87,214)">
    </path>
    <path d="M-281.0101738668623,93.65086576146604L-161.95185165890604,8.696528144213964L-140.31892359250392,129.24424756762906z" style="fill:rgb(0,0,0); fill-opacity: 0.2">
    </path>
    <path d="M-428.1491379439104,-396.3014646793683L-40.20043234809145,-571.8203143143849L-284.68701021133546,-369.3763386989464z" style="fill:rgb(0,0,0); fill-opacity: 0.2">
    </path>
    <path d="M-69.56849499786081,440.09458980236633L-73.89671144662424,438.50433954531695L-56.48894967790143,452.2434160272341z" style="fill:rgb(162,186,45)">
    </path>
    <path d="M-284.68701021133546,-369.3763386989464L85.05418182832598,-552.561562151331L-282.79328576879465,-130.89796966137854z" style="fill:rgb(0,0,0); fill-opacity: 0.2">
    </path>
    <path d="M-78.49146498563171,448.7730495669075L-76.97595989824094,456.6764680313581L-56.48894967790143,452.2434160272341z" style="fill:rgb(162,186,45)">
    </path>
    <path d="M-142.67389181240523,344.1074317421063L-72.349491375014,363.9980559350681" style="fill:none;stroke:rgb(162,186,45);stroke-width:5;stroke-linecap:round">
    </path>
    <path d="M-73.89671144662424,438.50433954531695L-78.49146498563171,448.7730495669075L-56.48894967790143,452.2434160272341z" style="fill:rgb(162,186,45)">
    </path>
    <path d="M-161.95185165890604,8.696528144213964L-281.0101738668623,93.65086576146604L-282.79328576879465,-130.89796966137854z" style="fill:rgb(0,0,0); fill-opacity: 0.2">
    </path>
    <path d="M-27.035889500192862,40.67202484377132L-140.31892359250392,129.24424756762906L-281.0101738668623,93.65086576146604z" style="fill:rgb(0,0,0); fill-opacity: 0.2">
    </path>
    <path d="M-144.89645973243793,546.8906439768235L-140.31892359250392,129.24424756762906L-281.0101738668623,93.65086576146604z" style="fill:rgb(0,0,0); fill-opacity: 0.2">
    </path>
    <path d="M4.200695412737707,85.70497529421733L0.08309627598077522,82.98296297876718L17.674088678209518,96.3640612787839z" style="fill:rgb(167,41,160)">
    </path>
    <path d="M4.2006954127378044,85.70497529421728L0.08309627598087416,82.98296297876713L17.674088678209618,96.36406127878384z" style="fill:rgb(214,94,68)">
    </path>
    <path d="M-68.6865365148387,398.84115918538765L-73.03712170657394,397.11085058030136L-55.52697947011993,410.87962156832384z" style="fill:rgb(162,186,45)">
    </path>
    <path d="M-4.425456540685384,92.77402720026768L-3.0679715846958655,101.51829994027898L17.674088678209518,96.3640612787839z" style="fill:rgb(167,41,160)">
    </path>
    <path d="M-4.4254565406852855,92.77402720026762L-3.0679715846958158,101.51829994027892L17.674088678209618,96.36406127878384z" style="fill:rgb(214,94,68)">
    </path>
    <path d="M-93.4037423474435,92.56283348243122L-22.20499789892443,110.09967372672338" style="fill:none;stroke:rgb(214,94,68);stroke-width:5;stroke-linecap:round">
    </path>
    <path d="M-93.40374234744354,92.56283348243126L-22.204997898924482,110.09967372672342" style="fill:none;stroke:rgb(167,41,160);stroke-width:5;stroke-linecap:round">
    </path>
    <path d="M0.08309627598077522,82.98296297876718L-4.425456540685384,92.77402720026768L17.674088678209518,96.3640612787839z" style="fill:rgb(167,41,160)">
    </path>
    <path d="M0.08309627598087416,82.98296297876713L-4.4254565406852855,92.77402720026762L17.674088678209618,96.36406127878384z" style="fill:rgb(214,94,68)">
    </path>
    <path d="M-77.65734169447708,407.37729778203897L-76.13490350458935,415.41953015867864L-55.52697947011993,410.87962156832384z" style="fill:rgb(162,186,45)">
    </path>
    <path d="M-142.21385996693567,302.1349302433831L-71.47176219656677,321.73106347398715" style="fill:none;stroke:rgb(162,186,45);stroke-width:5;stroke-linecap:round">
    </path>
    <path d="M-73.03712170657394,397.11085058030136L-77.65734169447708,407.37729778203897L-55.52697947011993,410.87962156832384z" style="fill:rgb(162,186,45)">
    </path>
    <path d="M-0.6267689027934751,89.66103774307717L-4.7705107347226505,86.94445631039615L12.860776068196994,100.36552347484182z" style="fill:rgb(74,87,214)">
    </path>
    <path d="M-96.80296916936312,95.22057546094L-25.511847017917567,112.81447238359897" style="fill:none;stroke:rgb(74,87,214);stroke-width:5;stroke-linecap:round">
    </path>
    <path d="M-9.29820116459837,96.76719644390712L-7.926199151059712,105.52541076410813L12.860776068196994,100.36552347484182z" style="fill:rgb(74,87,214)">
    </path>
    <path d="M-4.7705107347226505,86.94445631039615L-9.29820116459837,96.76719644390712L12.860776068196994,100.36552347484182z" style="fill:rgb(74,87,214)">
    </path>
    <path d="M-281.0101738668623,93.65086576146604L-282.79328576879465,-130.89796966137854" style="fill:none;stroke:rgb(0,0,0);stroke-width:1;stroke-linecap:round">
    </path>
    <path d="M-281.0101738668623,93.65086576146604L-282.79328576879465,-130.89796966137854" style="fill:none;stroke:rgb(0,0,0);stroke-width:1;stroke-linecap:round">
    </path>
    <path d="M-140.31892359250392,129.24424756762906L-281.0101738668623,93.65086576146604" style="fill:none;stroke:rgb(0,0,0);stroke-width:1;stroke-linecap:round">
    </path>
    <path d="M-140.31892359250392,129.24424756762906L-281.0101738668623,93.65086576146604" style="fill:none;stroke:rgb(0,0,0);stroke-width:1;stroke-linecap:round">
    </path>
    <path d="M-140.31892359250392,129.24424756762906L-281.0101738668623,93.65086576146604" style="fill:none;stroke:rgb(0,0,0);stroke-width:1;stroke-linecap:round">
    </path>
    <path d="M-140.31892359250392,129.24424756762906L-281.0101738668623,93.65086576146604" style="fill:none;stroke:rgb(0,0,0);stroke-width:1;stroke-linecap:round">
    </path>
    <path d="M-67.79429497610529,357.1067407061884L-72.16747774981052,355.23320145239086L-54.553743800769,369.03142308829763z" style="fill:rgb(162,186,45)">
    </path>
    <path d="M-76.81344734325111,365.49662922086446L-75.28401707392993,373.68039248444086L-54.553743800769,369.03142308829763z" style="fill:rgb(162,186,45)">
    </path>
    <path d="M-141.7484434530224,259.6711410076324L-70.58365792120283,278.96445888432777" style="fill:none;stroke:rgb(162,186,45);stroke-width:5;stroke-linecap:round">
    </path>
    <path d="M-72.16747774981052,355.23320145239086L-76.81344734325111,365.49662922086446L-54.553743800769,369.03142308829763z" style="fill:rgb(162,186,45)">
    </path>
    <path d="M-17.723558337974843,103.67169888105435L-21.9605333522422,100.97487942040107L-4.186782478571807,114.53770936571479z" style="fill:rgb(167,41,160)">
    </path>
    <path d="M-17.723558337974794,103.6716988810543L-21.960533352242148,100.97487942040101L-4.1867824785717564,114.53770936571472z" style="fill:rgb(214,94,68)">
    </path>
    <path d="M-66.89158948660467,314.8828730349191L-71.2876021394734,312.8628477009088L-53.56904361256901,326.6902613154311z" style="fill:rgb(162,186,45)">
    </path>
    <path d="M-26.55631160510501,110.91005865674806L-25.132433069390803,119.71727090850334L-4.186782478571807,114.53770936571479z" style="fill:rgb(167,41,160)">
    </path>
    <path d="M-26.556311605104963,110.91005865674802L-25.132433069390746,119.71727090850325L-4.1867824785717564,114.53770936571472z" style="fill:rgb(214,94,68)">
    </path>
    <path d="M-116.5816027988433,110.68482884222195L-44.75522299490653,128.61255973993653" style="fill:none;stroke:rgb(167,41,160);stroke-width:5;stroke-linecap:round">
    </path>
    <path d="M-116.58160279884325,110.6848288422219L-44.75522299490648,128.61255973993647" style="fill:none;stroke:rgb(214,94,68);stroke-width:5;stroke-linecap:round">
    </path>
    <path d="M-21.9605333522422,100.97487942040107L-26.55631160510501,110.91005865674806L-4.186782478571807,114.53770936571479z" style="fill:rgb(167,41,160)">
    </path>
    <path d="M-21.960533352242148,100.97487942040101L-26.556311605104963,110.91005865674802L-4.1867824785717564,114.53770936571472z" style="fill:rgb(214,94,68)">
    </path>
    <path d="M-75.95960923067425,323.12247308890295L-74.4231272570592,331.4505515867917L-53.56904361256901,326.6902613154311z" style="fill:rgb(162,186,45)">
    </path>
    <path d="M-141.27754717286555,216.70738747780246L-69.68499349877855,235.68933108825195" style="fill:none;stroke:rgb(162,186,45);stroke-width:5;stroke-linecap:round">
    </path>
    <path d="M-21.015963622736102,106.36979462286382L-25.27100885778092,103.6768754021095L-7.469866251931933,117.26704291830063z" style="fill:rgb(74,87,214)">
    </path>
    <path d="M-71.2876021394734,312.8628477009088L-75.95960923067425,323.12247308890295L-53.56904361256901,326.6902613154311z" style="fill:rgb(162,186,45)">
    </path>
    <path d="M-118.32049101980115,112.04440749433564L-46.447236226332244,130.00163891555036" style="fill:none;stroke:rgb(74,87,214);stroke-width:5;stroke-linecap:round">
    </path>
    <path d="M-29.879954733346462,113.63375352296282L-28.44600310702369,122.45033398180286L-7.469866251931933,117.26704291830063z" style="fill:rgb(74,87,214)">
    </path>
    <path d="M-25.27100885778092,103.6768754021095L-29.879954733346462,113.63375352296282L-7.469866251931933,117.26704291830063z" style="fill:rgb(74,87,214)">
    </path>
    <path d="M-65.97823488328419,272.1608952070412L-70.3973132387866,269.9910426185225L-52.57267513074602,283.8473741302763z" style="fill:rgb(162,186,45)">
    </path>
    <path d="M-75.095650561405,280.2460554121479L-73.55205660473753,288.72130292188336L-52.57267513074602,283.8473741302763z" style="fill:rgb(162,186,45)">
    </path>
    <path d="M-140.80107377606058,173.2347875731501L-68.77557945209264,191.89655582325236" style="fill:none;stroke:rgb(162,186,45);stroke-width:5;stroke-linecap:round">
    </path>
    <path d="M-70.3973132387866,269.9910426185225L-75.095650561405,280.2460554121479L-52.57267513074602,283.8473741302763z" style="fill:rgb(162,186,45)">
    </path>
    <path d="M-277.7391617055307,505.572277247182L-284.68701021133546,-369.3763386989464L-428.1491379439104,-396.3014646793683z" style="fill:rgb(0,0,0); fill-opacity: 0.2">
    </path>
    <path d="M-40.17483147046181,122.07030998684242L-44.53577193141556,119.40069281940701L-26.57551075879427,133.1501821240322z" style="fill:rgb(214,94,68)">
    </path>
    <path d="M-40.17483147046186,122.07030998684246L-44.53577193141562,119.40069281940706L-26.57551075879432,133.15018212403228z" style="fill:rgb(167,41,160)">
    </path>
    <path d="M-65.05404160847492,228.9319407007248L-69.49642508605446,226.60883123167102L-51.56442972244786,240.49379052069094z" style="fill:rgb(162,186,45)">
    </path>
    <path d="M-41.85937693947229,123.4507794502642L-46.22968887119887,120.78326059765665L-28.25545978948433,134.54677799931926z" style="fill:rgb(74,87,214)">
    </path>
    <path d="M-49.22169826656948,129.48413382325546L-47.72859832860276,138.35479604506045L-26.57551075879427,133.1501821240322z" style="fill:rgb(214,94,68)">
    </path>
    <path d="M-49.221698266569526,129.48413382325546L-47.72859832860285,138.3547960450605L-26.57551075879432,133.15018212403228z" style="fill:rgb(167,41,160)">
    </path>
    <path d="M-74.22139032399903,236.85839298044672L-72.67062344575095,245.48373484236032L-51.56442972244786,240.49379052069094z" style="fill:rgb(162,186,45)">
    </path>
    <path d="M-140.31892359250384,129.24424756762903L-67.85522174370126,147.57678922862576" style="fill:none;stroke:rgb(74,87,214);stroke-width:5;stroke-linecap:round">
    </path>
    <path d="M-140.31892359250392,129.24424756762906L-67.8552217437013,147.5767892286258" style="fill:none;stroke:rgb(167,41,160);stroke-width:5;stroke-linecap:round">
    </path>
    <path d="M-140.31892359250384,129.24424756762903L-67.85522174370126,147.57678922862576" style="fill:none;stroke:rgb(214,94,68);stroke-width:5;stroke-linecap:round">
    </path>
    <path d="M-140.31892359250392,129.24424756762906L-67.8552217437013,147.5767892286258" style="fill:none;stroke:rgb(162,186,45);stroke-width:5;stroke-linecap:round">
    </path>
    <path d="M-44.53577193141562,119.40069281940706L-49.221698266569526,129.48413382325546L-26.57551075879432,133.15018212403228z" style="fill:rgb(167,41,160)">
    </path>
    <path d="M-44.53577193141556,119.40069281940701L-49.22169826656948,129.48413382325546L-26.57551075879427,133.1501821240322z" style="fill:rgb(214,94,68)">
    </path>
    <path d="M-69.49642508605446,226.60883123167102L-74.22139032399903,236.85839298044672L-51.56442972244786,240.49379052069094z" style="fill:rgb(162,186,45)">
    </path>
    <path d="M-50.92241283438883,130.8778537139096L-49.424068853495235,139.7532357432784L-28.25545978948433,134.54677799931926z" style="fill:rgb(74,87,214)">
    </path>
    <path d="M-46.22968887119887,120.78326059765665L-50.92241283438883,130.8778537139096L-28.25545978948433,134.54677799931926z" style="fill:rgb(74,87,214)">
    </path>
    <path d="M-160.25658236065587,-205.36154982236164L-282.79328576879465,-130.89796966137854L-284.68701021133546,-369.3763386989464z" style="fill:rgb(0,0,0); fill-opacity: 0.2">
    </path>
    <path d="M-64.11881557873747,185.18693130213714L-68.58474726516609,182.70704406470986L-50.54409375110276,196.62032431939872z" style="fill:rgb(162,186,45)">
    </path>
    <path d="M-73.33664316447695,192.95028707292988L-71.77864176059542,201.7287224010967L-50.54409375110276,196.62032431939872z" style="fill:rgb(162,186,45)">
    </path>
    <path d="M-68.58474726516609,182.70704406470986L-73.33664316447695,192.95028707292988L-50.54409375110276,196.62032431939872z" style="fill:rgb(162,186,45)">
    </path>
    <path d="M-282.79328576879465,-130.89796966137854L-284.68701021133546,-369.3763386989464" style="fill:none;stroke:rgb(0,0,0);stroke-width:1;stroke-linecap:round">
    </path>
    <path d="M-282.79328576879465,-130.89796966137854L-284.68701021133546,-369.3763386989464" style="fill:none;stroke:rgb(0,0,0);stroke-width:1;stroke-linecap:round">
    </path>
    <path d="M-63.172358048982474,140.91657074971056L-67.66208477141873,138.2762906786496L-49.511448425506856,152.2175677148995z" style="fill:rgb(74,87,214)">
    </path>
    <path d="M-63.172358048982574,140.91657074971062L-67.66208477141879,138.27629067864964L-49.511448425506906,152.21756771489953z" style="fill:rgb(167,41,160)">
    </path>
    <path d="M-63.172358048982474,140.91657074971056L-67.66208477141873,138.2762906786496L-49.511448425506856,152.2175677148995z" style="fill:rgb(214,94,68)">
    </path>
    <path d="M-63.172358048982574,140.91657074971062L-67.66208477141879,138.27629067864964L-49.511448425506906,152.21756771489953z" style="fill:rgb(162,186,45)">
    </path>
    <path d="M-284.68701021133546,-369.3763386989464L-284.68701021133546,-369.3763386989464L-160.25658236065587,-205.36154982236164z" style="fill:rgb(0,0,0); fill-opacity: 0.2">
    </path>
    <path d="M-72.44121925531444,148.51231695628383L-70.87592105059852,157.4469209311324L-49.511448425506906,152.21756771489953z" style="fill:rgb(167,41,160)">
    </path>
    <path d="M-72.44121925531444,148.51231695628383L-70.87592105059852,157.4469209311324L-49.511448425506906,152.21756771489953z" style="fill:rgb(162,186,45)">
    </path>
    <path d="M-72.44121925531438,148.5123169562837L-70.87592105059845,157.4469209311323L-49.511448425506856,152.2175677148995z" style="fill:rgb(74,87,214)">
    </path>
    <path d="M-72.44121925531438,148.5123169562837L-70.87592105059845,157.4469209311323L-49.511448425506856,152.2175677148995z" style="fill:rgb(214,94,68)">
    </path>
    <path d="M-67.66208477141873,138.2762906786496L-72.44121925531438,148.5123169562837L-49.511448425506856,152.2175677148995z" style="fill:rgb(74,87,214)">
    </path>
    <path d="M-67.66208477141879,138.27629067864964L-72.44121925531444,148.51231695628383L-49.511448425506906,152.21756771489953z" style="fill:rgb(167,41,160)">
    </path>
    <path d="M-67.66208477141873,138.2762906786496L-72.44121925531438,148.5123169562837L-49.511448425506856,152.2175677148995z" style="fill:rgb(214,94,68)">
    </path>
    <path d="M-67.66208477141879,138.27629067864964L-72.44121925531444,148.51231695628383L-49.511448425506906,152.21756771489953z" style="fill:rgb(162,186,45)">
    </path>
    <path d="M-284.68701021133546,-369.3763386989464L-428.1491379439104,-396.3014646793683" style="fill:none;stroke:rgb(0,0,0);stroke-width:1;stroke-linecap:round">
    </path>
    <path d="M-284.68701021133546,-369.3763386989464L-428.1491379439104,-396.3014646793683" style="fill:none;stroke:rgb(0,0,0);stroke-width:1;stroke-linecap:round">
    </path>
    <path d="M-284.68701021133546,-369.3763386989464L-284.68701021133546,-369.3763386989464" style="fill:none;stroke:rgb(0,0,0);stroke-width:1;stroke-linecap:round">
    </path>
</svg>