<svg viewBox="-1163.5 -590 2327 1180" width="2327" height="1180" style="background-color: rgb(255, 255, 255);">
    <path d="M-145.92535752663125,250.51508740574562L-121.64209589040026,-575.3587958890241" style="fill:none;stroke:rgb(0,0,0);stroke-width:1;stroke-linecap:round">
    </path>
    <path d="M-8.647871851981163,294.62640779891166L-145.92535752663125,250.51508740574562" style="fill:none;stroke:rgb(160,0,0);stroke-width:3;stroke-linecap:round">
    </path>
    <path d="M-8.647871851981316,294.62640779891154L18.545474302455005,-537.7487136408192" style="fill:none;stroke:rgb(0,0,0);stroke-width:1;stroke-linecap:round">
    </path>
    <path d="M-96.85331157030214,351.80530681506L-8.647871851981316,294.62640779891154" style="fill:none;stroke:rgb(160,0,0);stroke-width:3;stroke-linecap:round">
    </path>
    <path d="M18.54547430245516,-537.7487136408191L-8.647871851981163,294.62640779891166L-145.92535752663125,250.51508740574562z" style="fill:rgb(0,0,0); fill-opacity: 0.2">
    </path>
    <path d="M-121.64209589040026,-575.3587958890241L-145.92535752663125,250.51508740574562L18.54547430245516,-537.7487136408191z" style="fill:rgb(0,0,0); fill-opacity: 0.2">
    </path>
    <path d="M18.54547430245516,-537.7487136408191L-121.64209589040026,-575.3587958890241" style="fill:none;stroke:rgb(0,0,0);stroke-width:1;stroke-linecap:round">
    </path>
    <path d="M-121.64209589040026,-575.3587958890241L-632.9325915276765,-444.34584225505716" style="fill:none;stroke:rgb(0,0,0);stroke-width:1;stroke-linecap:round">
    </path>
    <path d="M18.54547430245516,-537.7487136408191L-121.64209589040026,-575.3587958890241" style="fill:none;stroke:rgb(0,0,0);stroke-width:1;stroke-linecap:round">
    </path>
    <path d="M-76.94427806423873,-298.14353012934083L-96.85331157030214,351.80530681506" style="fill:none;stroke:rgb(50,34,0);stroke-width:5;stroke-linecap:round">
    </path>
    <path d="M-96.85331157030214,351.80530681506L-146.23932654793396,368.06327366059674" style="fill:none;stroke:rgb(197,147,42);stroke-width:5;stroke-linecap:round">
    </path>
    <path d="M-76.94427806423873,-298.14353012934083L-96.85331157030214,351.80530681506L-8.647871851981316,294.62640779891154z" style="fill:rgb(0,0,0); fill-opacity: 0.2">
    </path>
    <path d="M-95.62663946987448,311.7594600519671L-145.0547766962543,327.87813299036065" style="fill:none;stroke:rgb(197,147,42);stroke-width:5;stroke-linecap:round">
    </path>
    <path d="M-94.39764619541184,271.6378364128177L-143.86797670814914,287.61665779637235" style="fill:none;stroke:rgb(197,147,42);stroke-width:5;stroke-linecap:round">
    </path>
    <path d="M61.83808256748114,-266.1844540209113L52.03272062449544,-267.71678678753784L53.94395253807609,-265.13425578523z" style="fill:rgb(109,213,75)">
    </path>
    <path d="M61.83808256748114,-266.1844540209113L52.03272062449544,-267.71678678753784L53.94395253807609,-265.13425578523z" style="fill:rgb(43,180,168)">
    </path>
    <path d="M-93.16632515230184,231.44022061038424L-142.67892016608255,247.27863036759305" style="fill:none;stroke:rgb(197,147,42);stroke-width:5;stroke-linecap:round">
    </path>
    <path d="M52.03272062449544,-267.71678678753784L44.865862906088594,-265.68077685349556L53.94395253807609,-265.13425578523z" style="fill:rgb(109,213,75)">
    </path>
    <path d="M52.03272062449544,-267.71678678753784L44.865862906088594,-265.68077685349556L53.94395253807609,-265.13425578523z" style="fill:rgb(43,180,168)">
    </path>
    <path d="M18.545474302455005,-537.7487136408192L-8.647871851981316,294.62640779891154L-76.94427806423873,-298.14353012934083z" style="fill:rgb(0,0,0); fill-opacity: 0.2">
    </path>
    <path d="M56.30853808799015,-335.2993173650177L53.9439525380761,-265.1342557852299" style="fill:none;stroke:rgb(109,213,75);stroke-width:5;stroke-linecap:round">
    </path>
    <path d="M56.30853808799015,-335.2993173650177L53.9439525380761,-265.1342557852299" style="fill:none;stroke:rgb(43,180,168);stroke-width:5;stroke-linecap:round">
    </path>
    <path d="M60.739724937672484,-263.19854251841366L61.83808256748114,-266.1844540209113L53.94395253807609,-265.13425578523z" style="fill:rgb(109,213,75)">
    </path>
    <path d="M60.739724937672484,-263.19854251841366L61.83808256748114,-266.1844540209113L53.94395253807609,-265.13425578523z" style="fill:rgb(43,180,168)">
    </path>
    <path d="M50.2432829525782,-262.8865619209853L44.865862906088594,-265.68077685349556L53.35400991944949,-247.62871018719434z" style="fill:rgb(109,213,75)">
    </path>
    <path d="M50.2432829525782,-262.8865619209853L44.865862906088594,-265.68077685349556L53.35400991944949,-247.62871018719434z" style="fill:rgb(43,180,168)">
    </path>
    <path d="M44.865862906088594,-265.68077685349556L50.2432829525782,-262.8865619209853L53.94395253807609,-265.13425578523z" style="fill:rgb(109,213,75)">
    </path>
    <path d="M44.865862906088594,-265.68077685349556L50.2432829525782,-262.8865619209853L53.94395253807609,-265.13425578523z" style="fill:rgb(43,180,168)">
    </path>
    <path d="M60.739724937672484,-263.19854251841366L50.2432829525782,-262.8865619209853L53.35400991944949,-247.62871018719434z" style="fill:rgb(109,213,75)">
    </path>
    <path d="M60.739724937672484,-263.19854251841366L50.2432829525782,-262.8865619209853L53.35400991944949,-247.62871018719434z" style="fill:rgb(43,180,168)">
    </path>
    <path d="M50.2432829525782,-262.8865619209853L60.739724937672484,-263.19854251841366L53.94395253807609,-265.13425578523z" style="fill:rgb(109,213,75)">
    </path>
    <path d="M50.2432829525782,-262.8865619209853L60.739724937672484,-263.19854251841366L53.94395253807609,-265.13425578523z" style="fill:rgb(43,180,168)">
    </path>
    <path d="M-91.9326697209275,191.16639654113914L-141.48760062809134,206.8638321642952" style="fill:none;stroke:rgb(197,147,42);stroke-width:5;stroke-linecap:round">
    </path>
    <path d="M-145.9847742407833,359.4277398700378L-152.5422882320484,363.29777114054L-158.64545863171074,372.14739513082964z" style="fill:rgb(197,147,42)">
    </path>
    <path d="M-142.49950919865157,376.3462106422463L-139.7738701849014,367.49418183794245L-158.64545863171074,372.14739513082964z" style="fill:rgb(197,147,42)">
    </path>
    <path d="M-139.7738701849014,367.49418183794245L-145.9847742407833,359.4277398700378L-158.64545863171074,372.14739513082964z" style="fill:rgb(197,147,42)">
    </path>
    <path d="M-90.69667325654848,150.81614728138146L-140.29401162766823,166.37204381411493" style="fill:none;stroke:rgb(197,147,42);stroke-width:5;stroke-linecap:round">
    </path>
    <path d="M56.30853808799015,-335.2993173650177L-76.94427806423873,-298.14353012934083" style="fill:none;stroke:rgb(22,55,11);stroke-width:5;stroke-linecap:round">
    </path>
    <path d="M56.30853808799015,-335.2993173650177L18.545474302455005,-537.7487136408192" style="fill:none;stroke:rgb(0,0,0);stroke-width:1;stroke-linecap:round">
    </path>
    <path d="M-451.6984883074897,-193.64826988984842L56.30853808799015,-335.2993173650177" style="fill:none;stroke:rgb(0,44,41);stroke-width:5;stroke-linecap:round">
    </path>
    <path d="M56.30853808799015,-335.2993173650177L18.545474302455005,-537.7487136408192" style="fill:none;stroke:rgb(0,0,0);stroke-width:1;stroke-linecap:round">
    </path>
    <path d="M34.7126063975118,-258.4691940303296L24.89442634290174,-260.00715462777333L26.792650375137793,-257.4142165535368z" style="fill:rgb(43,180,168)">
    </path>
    <path d="M24.89442634290174,-260.00715462777333L17.69676588429722,-257.9623940407251L26.792650375137793,-257.4142165535368z" style="fill:rgb(43,180,168)">
    </path>
    <path d="M-144.7997410292326,319.2262015071363L-151.3641246313212,323.12193524852347L-157.47154688373416,331.92728128592626z" style="fill:rgb(197,147,42)">
    </path>
    <path d="M29.117905184104213,-327.7175686248934L26.79265037513779,-257.4142165535368" style="fill:none;stroke:rgb(43,180,168);stroke-width:5;stroke-linecap:round">
    </path>
    <path d="M33.591386763790545,-255.4710363425505L34.7126063975118,-258.4691940303296L26.792650375137793,-257.4142165535368z" style="fill:rgb(43,180,168)">
    </path>
    <path d="M23.067949102241883,-255.15712098242145L17.69676588429722,-257.9623940407251L26.212522960112672,-239.8742455587511z" style="fill:rgb(43,180,168)">
    </path>
    <path d="M-141.31130781604998,336.16545057506926L-138.58262515569734,327.2895941116583L-157.47154688373416,331.92728128592626z" style="fill:rgb(197,147,42)">
    </path>
    <path d="M-138.58262515569734,327.2895941116583L-144.7997410292326,319.2262015071363L-157.47154688373416,331.92728128592626z" style="fill:rgb(197,147,42)">
    </path>
    <path d="M28.86541073743881,-256.8060846179608L19.04447221611963,-258.34525966853215L20.93988265166832,-255.7500755054199z" style="fill:rgb(109,213,75)">
    </path>
    <path d="M17.69676588429722,-257.9623940407251L23.067949102241883,-255.15712098242145L26.792650375137793,-257.4142165535368z" style="fill:rgb(43,180,168)">
    </path>
    <path d="M33.591386763790545,-255.4710363425505L23.067949102241883,-255.15712098242145L26.212522960112672,-239.8742455587511z" style="fill:rgb(43,180,168)">
    </path>
    <path d="M19.04447221611963,-258.34525966853215L11.840163233590436,-256.2986103233573L20.93988265166832,-255.7500755054199z" style="fill:rgb(109,213,75)">
    </path>
    <path d="M23.067949102241883,-255.15712098242145L33.591386763790545,-255.4710363425505L26.792650375137793,-257.4142165535368z" style="fill:rgb(43,180,168)">
    </path>
    <path d="M-89.45832908918193,110.3892550833426L-139.09814667364523,125.80304510808358" style="fill:none;stroke:rgb(197,147,42);stroke-width:5;stroke-linecap:round">
    </path>
    <path d="M23.25663430318015,-326.0832306793937L20.939882651668313,-255.7500755054199" style="fill:none;stroke:rgb(109,213,75);stroke-width:5;stroke-linecap:round">
    </path>
    <path d="M27.739251429024165,-253.80528385148634L28.86541073743881,-256.8060846179608L20.93988265166832,-255.7500755054199z" style="fill:rgb(109,213,75)">
    </path>
    <path d="M17.209992042410214,-253.49095072066942L11.840163233590436,-256.2986103233573L20.361877233634367,-238.2026855072514z" style="fill:rgb(109,213,75)">
    </path>
    <path d="M18.545474302455005,-537.7487136408192L18.545474302455005,-537.7487136408192L56.30853808799015,-335.2993173650177z" style="fill:rgb(0,0,0); fill-opacity: 0.2">
    </path>
    <path d="M11.840163233590436,-256.2986103233573L17.209992042410214,-253.49095072066942L20.93988265166832,-255.7500755054199z" style="fill:rgb(109,213,75)">
    </path>
    <path d="M27.739251429024165,-253.80528385148634L17.209992042410214,-253.49095072066942L20.361877233634367,-238.2026855072514z" style="fill:rgb(109,213,75)">
    </path>
    <path d="M-143.612456303197,278.9482818706507L-150.18372379599015,282.869808788508L-156.29540304914815,291.6306925461295z" style="fill:rgb(197,147,42)">
    </path>
    <path d="M17.209992042410214,-253.49095072066942L27.739251429024165,-253.80528385148634L20.93988265166832,-255.7500755054199z" style="fill:rgb(109,213,75)">
    </path>
    <path d="M-140.1208491650557,295.90835769005315L-137.38911620643609,287.00859895422906L-156.29540304914815,291.6306925461295z" style="fill:rgb(197,147,42)">
    </path>
    <path d="M-137.38911620643609,287.00859895422906L-143.612456303197,278.9482818706507L-156.29540304914815,291.6306925461295z" style="fill:rgb(197,147,42)">
    </path>
    <path d="M-76.94427806423873,-298.14353012934083L18.545474302455005,-537.7487136408192" style="fill:none;stroke:rgb(0,0,0);stroke-width:1;stroke-linecap:round">
    </path>
    <path d="M18.545474302455005,-537.7487136408192L18.545474302455005,-537.7487136408192" style="fill:none;stroke:rgb(0,0,0);stroke-width:1;stroke-linecap:round">
    </path>
    <path d="M-76.94427806423873,-298.14353012934083L18.545474302455005,-537.7487136408192" style="fill:none;stroke:rgb(0,0,0);stroke-width:1;stroke-linecap:round">
    </path>
    <path d="M18.545474302455005,-537.7487136408192L-491.8461094072167,-404.0061191819869" style="fill:none;stroke:rgb(0,0,0);stroke-width:1;stroke-linecap:round">
    </path>
    <path d="M-88.21763052348238,69.88550137126936L-137.89999925007572,85.1566149966353" style="fill:none;stroke:rgb(197,147,42);stroke-width:5;stroke-linecap:round">
    </path>
    <path d="M-142.42291363989733,238.59376307166156L-149.00107934751577,242.54117424981928L-155.11702075572967,251.25741058877477z" style="fill:rgb(197,147,42)">
    </path>
    <path d="M7.470418702708299,-250.72073794938805L-2.360599134260988,-252.26436067198495L-0.475512733509187,-249.66094977790826z" style="fill:rgb(43,180,168)">
    </path>
    <path d="M-2.360599134260988,-252.26436067198495L-9.58926134325421,-250.21079289575493L-0.475512733509187,-249.66094977790826z" style="fill:rgb(43,180,168)">
    </path>
    <path d="M-138.92812680723355,255.5747142621378L-136.19333687722627,246.6509783439554L-155.11702075572967,251.25741058877477z" style="fill:rgb(197,147,42)">
    </path>
    <path d="M-136.19333687722627,246.6509783439554L-142.42291363989733,238.59376307166156L-155.11702075572967,251.25741058877477z" style="fill:rgb(197,147,42)">
    </path>
    <path d="M1.8100501901817612,-320.1031340537113L-0.4755127335091726,-249.66094977790826" style="fill:none;stroke:rgb(43,180,168);stroke-width:5;stroke-linecap:round">
    </path>
    <path d="M6.326150218775947,-247.71025620055755L7.470418702708299,-250.72073794938805L-0.475512733509187,-249.66094977790826z" style="fill:rgb(43,180,168)">
    </path>
    <path d="M-4.224418548028407,-247.39439228925679L-9.58926134325421,-250.21079289575493L-1.0457349187053748,-232.08641886852757z" style="fill:rgb(43,180,168)">
    </path>
    <path d="M-9.58926134325421,-250.21079289575493L-4.224418548028407,-247.39439228925679L-0.475512733509187,-249.66094977790826z" style="fill:rgb(43,180,168)">
    </path>
    <path d="M-86.97457083862115,29.30466673748451L-136.6995628161162,44.432531585592415" style="fill:none;stroke:rgb(197,147,42);stroke-width:5;stroke-linecap:round">
    </path>
    <path d="M6.326150218775947,-247.71025620055755L-4.224418548028407,-247.39439228925679L-1.0457349187053748,-232.08641886852757z" style="fill:rgb(43,180,168)">
    </path>
    <path d="M-4.224418548028407,-247.39439228925679L6.326150218775947,-247.71025620055755L-0.475512733509187,-249.66094977790826z" style="fill:rgb(43,180,168)">
    </path>
    <path d="M-141.23110659210178,198.1624263917134L-147.81618488308763,202.13581329414203L-153.9363936069769,210.80721625937423z" style="fill:rgb(197,147,42)">
    </path>
    <path d="M-4.2797927242607905,-247.37864229232687L-14.116336829941464,-248.9247103439301L-12.236939829953394,-246.3167757835874z" style="fill:rgb(109,213,75)">
    </path>
    <path d="M-14.116336829941464,-248.9247103439301L-21.35839140448248,-246.86733797294363L-12.236939829953394,-246.3167757835874z" style="fill:rgb(109,213,75)">
    </path>
    <path d="M-137.73313427963924,215.16430173744857L-134.99528068357642,206.2165134288746L-153.9363936069769,210.80721625937423z" style="fill:rgb(197,147,42)">
    </path>
    <path d="M-134.99528068357642,206.2165134288746L-141.23110659210178,198.1624263917134L-153.9363936069769,210.80721625937423z" style="fill:rgb(197,147,42)">
    </path>
    <path d="M-9.968556341490071,-316.8188252423795L-12.236939829953402,-246.3167757835874" style="fill:none;stroke:rgb(109,213,75);stroke-width:5;stroke-linecap:round">
    </path>
    <path d="M-5.43403010284835,-244.3628370884719L-4.2797927242607905,-247.37864229232687L-12.236939829953394,-246.3167757835874z" style="fill:rgb(109,213,75)">
    </path>
    <path d="M-15.996307131459629,-244.04613102990663L-21.35839140448248,-246.86733797294363L-12.802874865949457,-228.72734255892266z" style="fill:rgb(109,213,75)">
    </path>
    <path d="M-21.35839140448248,-246.86733797294363L-15.996307131459629,-244.04613102990663L-12.236939829953394,-246.3167757835874z" style="fill:rgb(109,213,75)">
    </path>
    <path d="M-5.43403010284835,-244.3628370884719L-15.996307131459629,-244.04613102990663L-12.802874865949457,-228.72734255892266z" style="fill:rgb(109,213,75)">
    </path>
    <path d="M-85.7291432881649,-11.353469061574865L-135.49683080590734,3.630572132127517" style="fill:none;stroke:rgb(197,147,42);stroke-width:5;stroke-linecap:round">
    </path>
    <path d="M-15.996307131459629,-244.04613102990663L-5.43403010284835,-244.3628370884719L-12.236939829953394,-246.3167757835874z" style="fill:rgb(109,213,75)">
    </path>
    <path d="M56.30853808799015,-335.2993173650177L-76.94427806423873,-298.14353012934083L18.545474302455005,-537.7487136408192z" style="fill:rgb(0,0,0); fill-opacity: 0.2">
    </path>
    <path d="M-140.03702868800977,157.6540522788635L-146.6290339755093,161.65350675157993L-152.7535151819939,170.2798895676519z" style="fill:rgb(197,147,42)">
    </path>
    <path d="M-136.53586509470244,174.6769007293484L-133.79494111627716,165.70498452280455L-152.7535151819939,170.2798895676519z" style="fill:rgb(197,147,42)">
    </path>
    <path d="M-133.79494111627716,165.70498452280455L-140.03702868800977,157.6540522788635L-152.7535151819939,170.2798895676519z" style="fill:rgb(197,147,42)">
    </path>
    <path d="M-19.88923539479352,-242.93887106926658L-29.73311058217204,-244.48819049847975L-27.861292880507282,-241.87424047547435z" style="fill:rgb(43,180,168)">
    </path>
    <path d="M-29.73311058217204,-244.48819049847975L-36.992975269796446,-242.42575850881684L-27.861292880507282,-241.87424047547435z" style="fill:rgb(43,180,168)">
    </path>
    <path d="M-84.48134109995374,-52.089127109341604L-134.29179662845408,-37.24948695929735" style="fill:none;stroke:rgb(197,147,42);stroke-width:5;stroke-linecap:round">
    </path>
    <path d="M-25.615786569104653,-312.4558018260434L-27.861292880507285,-241.87424047547435" style="fill:none;stroke:rgb(43,180,168);stroke-width:5;stroke-linecap:round">
    </path>
    <path d="M-21.056741357679815,-239.9159867165555L-19.88923539479352,-242.93887106926658L-27.861292880507282,-241.87424047547435z" style="fill:rgb(43,180,168)">
    </path>
    <path d="M-31.634577659632516,-239.59816034095414L-36.992975269796446,-242.42575850881684L-28.42151891749209,-224.26501435179887z" style="fill:rgb(43,180,168)">
    </path>
    <path d="M-36.992975269796446,-242.42575850881684L-31.634577659632516,-239.59816034095414L-27.861292880507282,-241.87424047547435z" style="fill:rgb(43,180,168)">
    </path>
    <path d="M-21.056741357679815,-239.9159867165555L-31.634577659632516,-239.59816034095414L-28.42151891749209,-224.26501435179887z" style="fill:rgb(43,180,168)">
    </path>
    <path d="M-138.8406734311344,117.06842034370703L-145.43962017308158,121.09403461669231L-151.56837903537377,129.6752096835548z" style="fill:rgb(197,147,42)">
    </path>
    <path d="M-31.634577659632516,-239.59816034095414L-21.056741357679815,-239.9159867165555L-27.861292880507282,-241.87424047547435z" style="fill:rgb(43,180,168)">
    </path>
    <path d="M-135.33631274010955,134.11229101446813L-132.59231164128394,125.11617110136532L-151.56837903537377,129.6752096835548z" style="fill:rgb(197,147,42)">
    </path>
    <path d="M-132.59231164128394,125.11617110136532L-138.8406734311344,117.06842034370703L-151.56837903537377,129.6752096835548z" style="fill:rgb(197,147,42)">
    </path>
    <path d="M-83.23115747597829,-92.90252933312603L-133.08445366750541,-78.2078701410154" style="fill:none;stroke:rgb(197,147,42);stroke-width:5;stroke-linecap:round">
    </path>
    <path d="M-37.59888554414646,-237.9017408678152L-47.45106405437959,-239.45475315429167L-45.58787481946363,-236.8339699502776z" style="fill:rgb(109,213,75)">
    </path>
    <path d="M-47.45106405437959,-239.45475315429167L-54.731161641067864,-237.3865732643484L-45.58787481946363,-236.8339699502776z" style="fill:rgb(109,213,75)">
    </path>
    <path d="M-137.64203430018495,76.40530935538098L-144.24793699948623,80.45717604450931L-150.3809786970821,88.99295493324283z" style="fill:rgb(197,147,42)">
    </path>
    <path d="M-43.3684002087677,-307.5057200617755L-45.587874819463636,-236.83396995027772" style="fill:none;stroke:rgb(109,213,75);stroke-width:5;stroke-linecap:round">
    </path>
    <path d="M-38.78148059325388,-234.87081485258364L-37.59888554414646,-237.9017408678152L-45.58787481946363,-236.8339699502776z" style="fill:rgb(109,213,75)">
    </path>
    <path d="M-49.37697730553324,-234.5517152475229L-54.731161641067864,-237.3865732643484L-46.14160468579514,-219.20229326694624z" style="fill:rgb(109,213,75)">
    </path>
    <path d="M-134.13447067868546,93.47025152871333L-131.38738569959804,84.44985179797756L-150.3809786970821,88.99295493324283z" style="fill:rgb(197,147,42)">
    </path>
    <path d="M-131.38738569959804,84.44985179797756L-137.64203430018495,76.40530935538098L-150.3809786970821,88.99295493324283z" style="fill:rgb(197,147,42)">
    </path>
    <path d="M-54.731161641067864,-237.3865732643484L-49.37697730553324,-234.5517152475229L-45.58787481946363,-236.8339699502776z" style="fill:rgb(109,213,75)">
    </path>
    <path d="M-38.78148059325388,-234.87081485258364L-49.37697730553324,-234.5517152475229L-46.14160468579514,-219.20229326694624z" style="fill:rgb(109,213,75)">
    </path>
    <path d="M-49.37697730553324,-234.5517152475229L-38.78148059325388,-234.87081485258364L-45.58787481946363,-236.8339699502776z" style="fill:rgb(109,213,75)">
    </path>
    <path d="M-47.36711729688431,-235.1233768255256L-57.223869297159,-236.67842783299298L-55.3654526951757,-234.0538718047653z" style="fill:rgb(43,180,168)">
    </path>
    <path d="M-81.97858559225644,-133.79389850814601L-131.87479528143325,-119.24480272626288" style="fill:none;stroke:rgb(197,147,42);stroke-width:5;stroke-linecap:round">
    </path>
    <path d="M-57.223869297159,-236.67842783299298L-64.51513892828845,-234.6070741122915L-55.3654526951757,-234.0538718047653z" style="fill:rgb(43,180,168)">
    </path>
    <path d="M-53.160371347546445,-304.77535828214354L-55.365452695175705,-234.05387180476527" style="fill:none;stroke:rgb(43,180,168);stroke-width:5;stroke-linecap:round">
    </path>
    <path d="M-136.44110474894822,35.66449723754389L-143.05397795366787,39.74270934652297L-149.19130767233878,48.23290279505402z" style="fill:rgb(197,147,42)">
    </path>
    <path d="M-48.558051170291264,-232.08801065186458L-47.36711729688431,-235.1233768255256L-55.3654526951757,-234.0538718047653z" style="fill:rgb(43,180,168)">
    </path>
    <path d="M-59.16329244811399,-231.76820777279073L-64.51513892828845,-234.6070741122915L-55.915590763016716,-216.40981437924714z" style="fill:rgb(43,180,168)">
    </path>
    <path d="M-64.51513892828845,-234.6070741122915L-59.16329244811399,-231.76820777279073L-55.3654526951757,-234.0538718047653z" style="fill:rgb(43,180,168)">
    </path>
    <path d="M-48.558051170291264,-232.08801065186458L-59.16329244811399,-231.76820777279073L-55.915590763016716,-216.40981437924714z" style="fill:rgb(43,180,168)">
    </path>
    <path d="M-132.93033234827496,52.75056036324857L-130.18015670714757,43.70580439983816L-149.19130767233878,48.23290279505402z" style="fill:rgb(197,147,42)">
    </path>
    <path d="M-130.18015670714757,43.70580439983816L-136.44110474894822,35.66449723754389L-149.19130767233878,48.23290279505402z" style="fill:rgb(197,147,42)">
    </path>
    <path d="M-59.16329244811399,-231.76820777279073L-48.558051170291264,-232.08801065186458L-55.3654526951757,-234.0538718047653z" style="fill:rgb(43,180,168)">
    </path>
    <path d="M-80.72361859870895,-174.76345826158027L-130.6628148031105,-160.36051089331033" style="fill:none;stroke:rgb(197,147,42);stroke-width:5;stroke-linecap:round">
    </path>
    <path d="M-135.23787820616946,-5.154238935666676L-141.8577365097161,-1.049588013343782L-147.99935944149988,7.394829895447847z" style="fill:rgb(197,147,42)">
    </path>
    <path d="M-131.7238911616232,11.952994760458525L-128.97061805466745,2.8838058438727865L-147.99935944149988,7.394829895447847z" style="fill:rgb(197,147,42)">
    </path>
    <path d="M-128.97061805466745,2.8838058438727865L-135.23787820616946,-5.154238935666676L-147.99935944149988,7.394829895447847z" style="fill:rgb(197,147,42)">
    </path>
    <path d="M-71.09323973226972,-228.3749901055892L-80.96108127508747,-229.934998384212L-79.11429654077774,-227.3012672668634z" style="fill:rgb(109,213,75)">
    </path>
    <path d="M-79.46624961903484,-215.81143307664476L-129.44850553978887,-201.55522168961812" style="fill:none;stroke:rgb(197,147,42);stroke-width:5;stroke-linecap:round">
    </path>
    <path d="M-80.96108127508747,-229.934998384212L-88.27952242702091,-227.85592559213327L-79.11429654077774,-227.3012672668634z" style="fill:rgb(109,213,75)">
    </path>
    <path d="M-74.96399500011343,-227.2740367780163L-84.83364316727726,-228.83485452863616L-82.98876141430301,-226.1996250455831z" style="fill:rgb(43,180,168)">
    </path>
    <path d="M-76.94427806423873,-298.14353012934083L-79.11429654077776,-227.30126726686348" style="fill:none;stroke:rgb(109,213,75);stroke-width:5;stroke-linecap:round">
    </path>
    <path d="M-72.30447530569285,-225.32882568865682L-71.09323973226972,-228.3749901055892L-79.11429654077774,-227.3012672668634z" style="fill:rgb(109,213,75)">
    </path>
    <path d="M-82.9333955658346,-225.0073116909301L-88.27952242702091,-227.85592559213327L-79.65568482085088,-209.62714547377428z" style="fill:rgb(109,213,75)">
    </path>
    <path d="M-84.83364316727726,-228.83485452863616L-92.15652196223873,-226.7545210605898L-82.98876141430301,-226.1996250455831z" style="fill:rgb(43,180,168)">
    </path>
    <path d="M-134.03234807543245,-46.05112294370024L-140.6592061167465,-41.91993942279153L-146.80512745993835,-33.52148799507525z" style="fill:rgb(197,147,42)">
    </path>
    <path d="M-282.76694765670493,406.0986468642085L-280.5821834695315,416.65206529616523L-276.4453181462748,410.9273252641698z" style="fill:rgb(167,41,160)">
    </path>
    <path d="M-88.27952242702091,-227.85592559213327L-82.9333955658346,-225.0073116909301L-79.11429654077774,-227.3012672668634z" style="fill:rgb(109,213,75)">
    </path>
    <path d="M-72.30447530569285,-225.32882568865682L-82.9333955658346,-225.0073116909301L-79.65568482085088,-209.62714547377428z" style="fill:rgb(109,213,75)">
    </path>
    <path d="M-269.97611029100847,410.3728139305521L-272.6789629014823,419.2979839922095L-263.81090659527393,406.76805377401064z" style="fill:rgb(167,41,160)">
    </path>
    <path d="M-280.5821834695315,416.65206529616523L-272.6789629014823,419.2979839922095L-276.4453181462748,410.9273252641698z" style="fill:rgb(167,41,160)">
    </path>
    <path d="M-276.21500418425035,402.21305923098004L-269.97611029100847,410.3728139305521L-263.81090659527393,406.76805377401064z" style="fill:rgb(167,41,160)">
    </path>
    <path d="M-80.8244770487619,-297.06158790804966L-82.98876141430303,-226.1996250455831" style="fill:none;stroke:rgb(43,180,168);stroke-width:5;stroke-linecap:round">
    </path>
    <path d="M-130.51514050625565,-28.922668890113684L-127.75876310757876,-38.01636778733472L-146.80512745993835,-33.52148799507525z" style="fill:rgb(197,147,42)">
    </path>
    <path d="M-276.21500418425035,402.21305923098004L-282.76694765670493,406.0986468642085L-276.4453181462748,410.9273252641698z" style="fill:rgb(167,41,160)">
    </path>
    <path d="M-76.17854903908585,-224.22610888482154L-74.96399500011343,-227.2740367780163L-82.98876141430301,-226.1996250455831z" style="fill:rgb(43,180,168)">
    </path>
    <path d="M-82.9333955658346,-225.0073116909301L-72.30447530569285,-225.32882568865682L-79.11429654077774,-227.3012672668634z" style="fill:rgb(109,213,75)">
    </path>
    <path d="M-86.81133375418426,-223.9043153356571L-92.15652196223873,-226.7545210605898L-83.5287187789812,-208.5205994367765z" style="fill:rgb(43,180,168)">
    </path>
    <path d="M-127.75876310757876,-38.01636778733472L-134.03234807543245,-46.05112294370024L-146.80512745993835,-33.52148799507525z" style="fill:rgb(197,147,42)">
    </path>
    <path d="M-327.23024014844117,427.64581487177117L-276.4453181462747,410.9273252641697" style="fill:none;stroke:rgb(167,41,160);stroke-width:5;stroke-linecap:round">
    </path>
    <path d="M-92.15652196223873,-226.7545210605898L-86.81133375418426,-223.9043153356571L-82.98876141430301,-226.1996250455831z" style="fill:rgb(43,180,168)">
    </path>
    <path d="M-76.17854903908585,-224.22610888482154L-86.81133375418426,-223.9043153356571L-83.5287187789812,-208.5205994367765z" style="fill:rgb(43,180,168)">
    </path>
    <path d="M-272.6789629014823,419.2979839922095L-269.97611029100847,410.3728139305521L-276.4453181462748,410.9273252641698z" style="fill:rgb(167,41,160)">
    </path>
    <path d="M-269.97611029100847,410.3728139305521L-276.21500418425035,402.21305923098004L-276.4453181462748,410.9273252641698z" style="fill:rgb(167,41,160)">
    </path>
    <path d="M-86.81133375418426,-223.9043153356571L-76.17854903908585,-224.22610888482154L-82.98876141430301,-226.1996250455831z" style="fill:rgb(43,180,168)">
    </path>
    <path d="M-78.20647175058552,-256.9380482966934L-128.2318607729753,-242.82916303601618" style="fill:none;stroke:rgb(197,147,42);stroke-width:5;stroke-linecap:round">
    </path>
    <path d="M-132.82450773503896,-87.02637942368277L-139.45838019878101,-82.8685691252224L-145.6086051579243,-74.51627596607803z" style="fill:rgb(197,147,42)">
    </path>
    <path d="M-281.7016116865755,365.556288386944L-279.51483235783076,376.12279037967636L-275.37355245294646,370.37550072512704z" style="fill:rgb(167,41,160)">
    </path>
    <path d="M-268.8976314552985,369.80118461590575L-271.6034930468416,378.75063652774264L-262.7280871629889,366.2517742284333z" style="fill:rgb(167,41,160)">
    </path>
    <path d="M-279.51483235783076,376.12279037967636L-271.6034930468416,378.75063652774264L-275.37355245294646,370.37550072512704z" style="fill:rgb(167,41,160)">
    </path>
    <path d="M-275.142796716002,361.6445194908891L-268.8976314552985,369.80118461590575L-262.7280871629889,366.2517742284333z" style="fill:rgb(167,41,160)">
    </path>
    <path d="M-129.3040737443571,-69.87665505585248L-126.54458520586753,-78.99494126963678L-145.6086051579243,-74.51627596607803z" style="fill:rgb(197,147,42)">
    </path>
    <path d="M-275.142796716002,361.6445194908891L-281.7016116865755,365.556288386944L-275.37355245294646,370.37550072512704z" style="fill:rgb(167,41,160)">
    </path>
    <path d="M-126.54458520586753,-78.99494126963678L-132.82450773503896,-87.02637942368277L-145.6086051579243,-74.51627596607803z" style="fill:rgb(197,147,42)">
    </path>
    <path d="M-326.20314390427546,386.9511923487811L-275.37355245294646,370.375500725127" style="fill:none;stroke:rgb(167,41,160);stroke-width:5;stroke-linecap:round">
    </path>
    <path d="M-271.6034930468416,378.75063652774264L-268.8976314552985,369.80118461590575L-275.37355245294646,370.37550072512704z" style="fill:rgb(167,41,160)">
    </path>
    <path d="M-268.8976314552985,369.80118461590575L-275.142796716002,361.6445194908891L-275.37355245294646,370.37550072512704z" style="fill:rgb(167,41,160)">
    </path>
    <path d="M-76.94427806423873,-298.14353012934083L-127.0128737583084,-284.18256373090674" style="fill:none;stroke:rgb(197,147,42);stroke-width:5;stroke-linecap:round">
    </path>
    <path d="M-131.61435053788756,-128.08023387453002L-138.2552521546278,-123.89570222384086L-144.4097859405047,-115.58975997131385z" style="fill:rgb(197,147,42)">
    </path>
    <path d="M-280.63423219179816,324.9361616645833L-278.4454340062844,335.51577801989475L-274.2997301860944,329.7458627150922z" style="fill:rgb(167,41,160)">
    </path>
    <path d="M-267.8170821799603,329.1516667916872L-270.5259593302117,338.125477371172L-261.6431919738068,325.6578252726051z" style="fill:rgb(167,41,160)">
    </path>
    <path d="M-102.6806431672412,-219.3906305905292L-112.56320674380856,-220.9572505455865L-110.7319949538621,-218.3112795786104z" style="fill:rgb(43,180,168)">
    </path>
    <path d="M-278.4454340062844,335.51577801989475L-270.5259593302117,338.125477371172L-274.2997301860944,329.7458627150922z" style="fill:rgb(167,41,160)">
    </path>
    <path d="M-274.0685314019292,320.9981181404429L-267.8170821799603,329.1516667916872L-261.6431919738068,325.6578252726051z" style="fill:rgb(167,41,160)">
    </path>
    <path d="M-128.0906842126505,-110.90918906517803L-125.32807766396263,-120.05214024143928L-144.4097859405047,-115.58975997131385z" style="fill:rgb(197,147,42)">
    </path>
    <path d="M-274.0685314019292,320.9981181404429L-280.63423219179816,324.9361616645833L-274.2997301860944,329.7458627150922z" style="fill:rgb(167,41,160)">
    </path>
    <path d="M-112.56320674380856,-220.9572505455865L-119.91790069744893,-218.86787880977081L-110.7319949538621,-218.3112795786104z" style="fill:rgb(43,180,168)">
    </path>
    <path d="M-125.32807766396263,-120.05214024143928L-131.61435053788756,-128.08023387453002L-144.4097859405047,-115.58975997131385z" style="fill:rgb(197,147,42)">
    </path>
    <path d="M-325.17406907178366,346.1781760963733L-274.2997301860943,329.74586271509213" style="fill:none;stroke:rgb(167,41,160);stroke-width:5;stroke-linecap:round">
    </path>
    <path d="M-270.5259593302117,338.125477371172L-267.8170821799603,329.1516667916872L-274.2997301860944,329.7458627150922z" style="fill:rgb(167,41,160)">
    </path>
    <path d="M-108.60888329849014,-289.31427331542494L-110.73199495386214,-218.3112795786105" style="fill:none;stroke:rgb(43,180,168);stroke-width:5;stroke-linecap:round">
    </path>
    <path d="M-103.9190114712351,-216.33006039033341L-102.6806431672412,-219.3906305905292L-110.7319949538621,-218.3112795786104z" style="fill:rgb(43,180,168)">
    </path>
    <path d="M-267.8170821799603,329.1516667916872L-274.0685314019292,320.9981181404429L-274.2997301860944,329.7458627150922z" style="fill:rgb(167,41,160)">
    </path>
    <path d="M-114.57947911567268,-216.00626187559172L-119.91790069744893,-218.86787880977081L-111.26167795759123,-200.59714810506492z" style="fill:rgb(43,180,168)">
    </path>
    <path d="M-119.91790069744893,-218.86787880977081L-114.57947911567268,-216.00626187559172L-110.7319949538621,-218.3112795786104z" style="fill:rgb(43,180,168)">
    </path>
    <path d="M-103.9190114712351,-216.33006039033341L-114.57947911567268,-216.00626187559172L-111.26167795759123,-200.59714810506492z" style="fill:rgb(43,180,168)">
    </path>
    <path d="M-114.57947911567268,-216.00626187559172L-103.9190114712351,-216.33006039033341L-110.7319949538621,-218.3112795786104z" style="fill:rgb(43,180,168)">
    </path>
    <path d="M-130.40186981135162,-169.21291266108358L-137.0498153577601,-165.0015646857791L-143.2086631873819,-156.742166832878z" style="fill:rgb(197,147,42)">
    </path>
    <path d="M-279.5648032869027,284.2380427200467L-277.37398251915556,294.8308043448965L-273.2238454206037,289.03818704867234z" style="fill:rgb(167,41,160)">
    </path>
    <path d="M-632.9325915276765,-444.34584225505716L-648.0303723601917,411.21762017045097" style="fill:none;stroke:rgb(0,0,0);stroke-width:1;stroke-linecap:round">
    </path>
    <path d="M-509.9032285413373,458.5304303751123L-648.0303723601917,411.21762017045097" style="fill:none;stroke:rgb(160,0,0);stroke-width:3;stroke-linecap:round">
    </path>
    <path d="M-266.73445649708947,288.42403594945654L-269.4463558049583,297.4222823225833L-260.5562150531848,284.9859833547192z" style="fill:rgb(167,41,160)">
    </path>
    <path d="M-277.37398251915556,294.8308043448965L-269.4463558049583,297.4222823225833L-273.2238454206037,289.03818704867234z" style="fill:rgb(167,41,160)">
    </path>
    <path d="M-272.9922023120267,280.2736308092173L-266.73445649708947,288.42403594945654L-260.5562150531848,284.9859833547192z" style="fill:rgb(167,41,160)">
    </path>
    <path d="M-126.87496522227441,-152.02049711167913L-124.10923377061319,-161.18819120784377L-143.2086631873819,-156.742166832878z" style="fill:rgb(197,147,42)">
    </path>
    <path d="M-272.9922023120267,280.2736308092173L-279.5648032869027,284.2380427200467L-273.2238454206037,289.03818704867234z" style="fill:rgb(167,41,160)">
    </path>
    <path d="M-491.84610940721655,-404.0061191819867L18.54547430245516,-537.7487136408191L-121.64209589040026,-575.3587958890241z" style="fill:rgb(0,0,0); fill-opacity: 0.2">
    </path>
    <path d="M-124.10923377061319,-161.18819120784377L-130.40186981135162,-169.21291266108358L-143.2086631873819,-156.742166832878z" style="fill:rgb(197,147,42)">
    </path>
    <path d="M-324.1430099281537,305.32653937075986L-273.2238454206037,289.0381870486722" style="fill:none;stroke:rgb(167,41,160);stroke-width:5;stroke-linecap:round">
    </path>
    <path d="M-269.4463558049583,297.4222823225833L-266.73445649708947,288.42403594945654L-273.2238454206037,289.03818704867234z" style="fill:rgb(167,41,160)">
    </path>
    <path d="M-266.73445649708947,288.42403594945654L-272.9922023120267,280.2736308092173L-273.2238454206037,289.03818704867234z" style="fill:rgb(167,41,160)">
    </path>
    <path d="M-129.18705885715667,-210.4246430182715L-135.8420631561948,-206.18638334624498L-142.005230252792,-197.97372424538332z" style="fill:rgb(197,147,42)">
    </path>
    <path d="M-278.4933190637967,243.4617067153378L-276.30047197804686,254.06764462230916L-272.14589220857715,248.25224867845733z" style="fill:rgb(167,41,160)">
    </path>
    <path d="M-265.6497484158236,247.61806671710326L-268.36467650157937,256.6408263199135L-259.46715040363006,244.2360240642282z" style="fill:rgb(167,41,160)">
    </path>
    <path d="M-276.30047197804686,254.06764462230916L-268.36467650157937,256.6408263199135L-272.14589220857715,248.25224867845733z" style="fill:rgb(167,41,160)">
    </path>
    <path d="M-271.91380349348344,239.47083226388102L-265.6497484158236,247.61806671710326L-259.46715040363006,244.2360240642282z" style="fill:rgb(167,41,160)">
    </path>
    <path d="M-125.65691005866027,-193.2108062582696L-122.88804678876501,-202.40332154481163L-142.005230252792,-197.97372424538332z" style="fill:rgb(197,147,42)">
    </path>
    <path d="M-271.91380349348344,239.47083226388102L-278.4933190637967,243.4617067153378L-272.14589220857715,248.25224867845733z" style="fill:rgb(167,41,160)">
    </path>
    <path d="M-122.88804678876501,-202.40332154481163L-129.18705885715667,-210.4246430182715L-142.005230252792,-197.97372424538332z" style="fill:rgb(197,147,42)">
    </path>
    <path d="M-323.1099607284814,264.3960545528725L-272.14589220857704,248.25224867845725" style="fill:none;stroke:rgb(167,41,160);stroke-width:5;stroke-linecap:round">
    </path>
    <path d="M-327.23024014844117,427.64581487177117L-310.55602419046744,-233.0039812217588" style="fill:none;stroke:rgb(40,0,38);stroke-width:5;stroke-linecap:round">
    </path>
    <path d="M-327.23024014844117,427.64581487177117L-509.9032285413375,458.53043037511225" style="fill:none;stroke:rgb(160,0,0);stroke-width:3;stroke-linecap:round">
    </path>
    <path d="M-130.51784319972438,-211.47293601017708L-140.41334131369177,-213.04539393050933L-138.59593598166083,-210.38861286475333z" style="fill:rgb(43,180,168)">
    </path>
    <path d="M-268.36467650157937,256.6408263199135L-265.6497484158236,247.61806671710326L-272.14589220857715,248.25224867845733z" style="fill:rgb(167,41,160)">
    </path>
    <path d="M-140.41334131369177,-213.04539393050933L-147.80005821469396,-210.94692489689484L-138.59593598166083,-210.38861286475333z" style="fill:rgb(43,180,168)">
    </path>
    <path d="M-265.6497484158236,247.61806671710326L-271.91380349348344,239.47083226388102L-272.14589220857715,248.25224867845733z" style="fill:rgb(167,41,160)">
    </path>
    <path d="M-136.51437651782993,-281.533195221136L-138.59593598166083,-210.38861286475333" style="fill:none;stroke:rgb(43,180,168);stroke-width:5;stroke-linecap:round">
    </path>
    <path d="M-131.78022173382348,-208.39964221916503L-130.51784319972438,-211.47293601017708L-138.59593598166083,-210.38861286475333z" style="fill:rgb(43,180,168)">
    </path>
    <path d="M-142.468512840416,-208.07382431304998L-147.80005821469396,-210.94692489689484L-139.11525003206074,-192.63923703884888z" style="fill:rgb(43,180,168)">
    </path>
    <path d="M-132.4488514597235,-236.80412442760465L-124.43651198140873,-234.48034444136832L-140.79948046538223,-239.28466078015887z" style="fill:rgb(197,147,42)">
    </path>
    <path d="M-147.80005821469396,-210.94692489689484L-142.468512840416,-208.07382431304998L-138.59593598166083,-210.38861286475333z" style="fill:rgb(43,180,168)">
    </path>
    <path d="M-131.78022173382348,-208.39964221916503L-142.468512840416,-208.07382431304998L-139.11525003206074,-192.63923703884888z" style="fill:rgb(43,180,168)">
    </path>
    <path d="M-127.96991095125715,-251.71565305529344L-134.6319888723697,-247.450385912695L-140.79948046538223,-239.28466078015887z" style="fill:rgb(197,147,42)">
    </path>
    <path d="M-277.4197735916563,202.6069279474047L-275.22489644179217,213.2260732551742L-271.06586457922486,207.3878216908728z" style="fill:rgb(167,41,160)">
    </path>
    <path d="M-142.468512840416,-208.07382431304998L-131.78022173382348,-208.39964221916503L-138.59593598166083,-210.38861286475333z" style="fill:rgb(43,180,168)">
    </path>
    <path d="M-451.6984883074897,-193.64826988984842L56.30853808799015,-335.2993173650177L18.545474302455005,-537.7487136408192z" style="fill:rgb(0,0,0); fill-opacity: 0.2">
    </path>
    <path d="M-264.5629519222314,206.73353285468923L-267.28091542759574,215.7808834348032L-258.37599200458897,203.40772212771654z" style="fill:rgb(167,41,160)">
    </path>
    <path d="M-275.22489644179217,213.2260732551742L-267.28091542759574,215.7808834348032L-271.06586457922486,207.3878216908728z" style="fill:rgb(167,41,160)">
    </path>
    <path d="M-270.8333289705721,198.5894964040438L-264.5629519222314,206.73353285468923L-258.37599200458897,203.40772212771654z" style="fill:rgb(167,41,160)">
    </path>
    <path d="M-124.43651198140873,-234.48034444136832L-121.66450995543667,-243.6977595033549L-140.79948046538223,-239.28466078015887z" style="fill:rgb(197,147,42)">
    </path>
    <path d="M-270.8333289705721,198.5894964040438L-277.4197735916563,202.6069279474047L-271.06586457922486,207.3878216908728z" style="fill:rgb(167,41,160)">
    </path>
    <path d="M-121.66450995543667,-243.6977595033549L-127.96991095125715,-251.71565305529344L-140.79948046538223,-239.28466078015887z" style="fill:rgb(197,147,42)">
    </path>
    <path d="M-322.0749157056654,223.3864931441351L-271.06586457922486,207.3878216908728" style="fill:none;stroke:rgb(167,41,160);stroke-width:5;stroke-linecap:round">
    </path>
    <path d="M-267.28091542759574,215.7808834348032L-264.5629519222314,206.73353285468923L-271.06586457922486,207.3878216908728z" style="fill:rgb(167,41,160)">
    </path>
    <path d="M-264.5629519222314,206.73353285468923L-270.8333289705721,198.5894964040438L-271.06586457922486,207.3878216908728z" style="fill:rgb(167,41,160)">
    </path>
    <path d="M-131.23443708408965,-278.1342520547735L-123.21376422416544,-275.8293404751043L-139.5914071280876,-280.67520588947485z" style="fill:rgb(197,147,42)">
    </path>
    <path d="M-126.75041934371218,-293.0861717598283L-133.41958580302102,-288.7938009690307L-139.5914071280876,-280.67520588947485z" style="fill:rgb(197,147,42)">
    </path>
    <path d="M-276.34416091681743,161.67347984397438L-274.14724994634616,172.30586377778494L-269.9837565387545,166.44467930200926z" style="fill:rgb(167,41,160)">
    </path>
    <path d="M-263.4740609792021,165.77020725026725L-266.1950665674401,174.84222686842406L-257.2827338123364,162.50085140474988z" style="fill:rgb(167,41,160)">
    </path>
    <path d="M-274.14724994634616,172.30586377778494L-266.1950665674401,174.84222686842406L-269.9837565387545,166.44467930200926z" style="fill:rgb(167,41,160)">
    </path>
    <path d="M-269.75077274453906,157.62939625807988L-263.4740609792021,165.77020725026725L-257.2827338123364,162.50085140474988z" style="fill:rgb(167,41,160)">
    </path>
    <path d="M-123.21376422416544,-275.8293404751043L-120.43861648159441,-285.0717342137483L-139.5914071280876,-280.67520588947485z" style="fill:rgb(197,147,42)">
    </path>
    <path d="M-269.75077274453906,157.62939625807988L-276.34416091681743,161.67347984397438L-269.9837565387545,166.44467930200926z" style="fill:rgb(167,41,160)">
    </path>
    <path d="M-120.43861648159441,-285.0717342137483L-126.75041934371218,-293.0861717598283L-139.5914071280876,-280.67520588947485z" style="fill:rgb(197,147,42)">
    </path>
    <path d="M-321.0378690702982,182.2976257622116L-269.98375653875445,166.4446793020092" style="fill:none;stroke:rgb(167,41,160);stroke-width:5;stroke-linecap:round">
    </path>
    <path d="M-266.1950665674401,174.84222686842406L-263.4740609792021,165.77020725026725L-269.9837565387545,166.44467930200926z" style="fill:rgb(167,41,160)">
    </path>
    <path d="M-263.4740609792021,165.77020725026725L-269.75077274453906,157.62939625807988L-269.9837565387545,166.44467930200926z" style="fill:rgb(167,41,160)">
    </path>
    <path d="M-158.47638331115,-203.52072884650846L-168.3848349729008,-205.09906079571294L-166.58137399094338,-202.43140042421396z" style="fill:rgb(43,180,168)">
    </path>
    <path d="M-168.3848349729008,-205.09906079571294L-175.80378442335257,-202.9914349191057L-166.58137399094338,-202.43140042421396z" style="fill:rgb(43,180,168)">
    </path>
    <path d="M-164.54174999743856,-273.71813242656424L-166.58137399094335,-202.4314004242139" style="fill:none;stroke:rgb(43,180,168);stroke-width:5;stroke-linecap:round">
    </path>
    <path d="M-275.2664750626649,120.66113495936474L-273.0675265046749,131.30678885150058L-268.89956207026034,125.42259385342625z" style="fill:rgb(167,41,160)">
    </path>
    <path d="M-159.76296992756986,-200.43462947695488L-158.47638331115,-203.52072884650846L-166.58137399094338,-202.43140042421396z" style="fill:rgb(43,180,168)">
    </path>
    <path d="M-170.47922608010205,-200.10677762190062L-175.80378442335257,-202.9914349191057L-167.09022355006476,-184.64664094593763z" style="fill:rgb(43,180,168)">
    </path>
    <path d="M-262.3830695263329,124.72786191567587L-265.1071238823454,133.82462894728266L-256.18736975986405,121.51518488369942z" style="fill:rgb(167,41,160)">
    </path>
    <path d="M-273.0675265046749,131.30678885150058L-265.1071238823454,133.82462894728266L-268.89956207026034,125.42259385342625z" style="fill:rgb(167,41,160)">
    </path>
    <path d="M-268.6661287934936,116.59030397892737L-262.3830695263329,124.72786191567587L-256.18736975986405,121.51518488369942z" style="fill:rgb(167,41,160)">
    </path>
    <path d="M-175.80378442335257,-202.9914349191057L-170.47922608010205,-200.10677762190062L-166.58137399094338,-202.43140042421396z" style="fill:rgb(43,180,168)">
    </path>
    <path d="M-159.76296992756986,-200.43462947695488L-170.47922608010205,-200.10677762190062L-167.09022355006476,-184.64664094593763z" style="fill:rgb(43,180,168)">
    </path>
    <path d="M-268.6661287934936,116.59030397892737L-275.2664750626649,120.66113495936474L-268.89956207026034,125.42259385342625z" style="fill:rgb(167,41,160)">
    </path>
    <path d="M-319.99881501055995,141.1292221367298L-268.89956207026034,125.42259385342622" style="fill:none;stroke:rgb(167,41,160);stroke-width:5;stroke-linecap:round">
    </path>
    <path d="M-170.47922608010205,-200.10677762190062L-159.76296992756986,-200.43462947695488L-166.58137399094338,-202.43140042421396z" style="fill:rgb(43,180,168)">
    </path>
    <path d="M-265.1071238823454,133.82462894728266L-262.3830695263329,124.72786191567587L-268.89956207026034,125.42259385342625z" style="fill:rgb(167,41,160)">
    </path>
    <path d="M-262.3830695263329,124.72786191567587L-268.6661287934936,116.59030397892737L-268.89956207026034,125.42259385342625z" style="fill:rgb(167,41,160)">
    </path>
    <path d="M-274.18671002952254,79.56966497027192L-271.98572010664424,90.2286202605365L-267.8132751336118,84.32133680793338z" style="fill:rgb(167,41,160)">
    </path>
    <path d="M-261.2899714798175,83.60626798230973L-264.0170813102335,92.72786111899981L-255.0898937567683,80.45049467754279z" style="fill:rgb(167,41,160)">
    </path>
    <path d="M-271.98572010664424,90.2286202605365L-264.0170813102335,92.72786111899981L-267.8132751336118,84.32133680793338z" style="fill:rgb(167,41,160)">
    </path>
    <path d="M-267.5793910722956,75.47199083986358L-261.2899714798175,83.60626798230973L-255.0898937567683,80.45049467754279z" style="fill:rgb(167,41,160)">
    </path>
    <path d="M-267.5793910722956,75.47199083986358L-274.18671002952254,79.56966497027192L-267.8132751336118,84.32133680793338z" style="fill:rgb(167,41,160)">
    </path>
    <path d="M-318.957747692108,99.8810511049787L-267.8132751336117,84.32133680793335" style="fill:none;stroke:rgb(167,41,160);stroke-width:5;stroke-linecap:round">
    </path>
    <path d="M-264.0170813102335,92.72786111899981L-261.2899714798175,83.60626798230973L-267.8132751336118,84.32133680793338z" style="fill:rgb(167,41,160)">
    </path>
    <path d="M-261.2899714798175,83.60626798230973L-267.5793910722956,75.47199083986358L-267.8132751336118,84.32133680793338z" style="fill:rgb(167,41,160)">
    </path>
    <path d="M-186.55705860163104,-195.53378295034696L-196.47848270078384,-197.11802529802955L-194.68910537495594,-194.43941581528915z" style="fill:rgb(43,180,168)">
    </path>
    <path d="M-273.1048597945413,38.39884067153337L-270.90182471890915,49.071128907729666L-266.72488966534087,43.140678745346094z" style="fill:rgb(167,41,160)">
    </path>
    <path d="M-196.47848270078384,-197.11802529802955L-203.9298761360034,-195.0011825124389L-194.68910537495594,-194.43941581528915z" style="fill:rgb(43,180,168)">
    </path>
    <path d="M-260.19476073233176,42.40519569686536L-262.92493276560197,51.551693948065825L-253.99029968913734,39.30655201964043z" style="fill:rgb(167,41,160)">
    </path>
    <path d="M-270.90182471890915,49.071128907729666L-262.92493276560197,51.551693948065825L-266.72488966534087,43.140678745346094z" style="fill:rgb(167,41,160)">
    </path>
    <path d="M-266.49055351244385,34.27422723025597L-260.19476073233176,42.40519569686536L-253.99029968913734,39.30655201964043z" style="fill:rgb(167,41,160)">
    </path>
    <path d="M-266.49055351244385,34.27422723025597L-273.1048597945413,38.39884067153337L-266.72488966534087,43.140678745346094z" style="fill:rgb(167,41,160)">
    </path>
    <path d="M-192.69180397270475,-265.86886179664424L-194.68910537495594,-194.43941581528915" style="fill:none;stroke:rgb(43,180,168);stroke-width:5;stroke-linecap:round">
    </path>
    <path d="M-317.9146612579695,58.55288060758275L-266.7248896653408,43.140678745346065" style="fill:none;stroke:rgb(167,41,160);stroke-width:5;stroke-linecap:round">
    </path>
    <path d="M-187.8680530615155,-192.43479530295542L-186.55705860163104,-195.53378295034696L-194.68910537495594,-194.43941581528915z" style="fill:rgb(43,180,168)">
    </path>
    <path d="M-198.61241690508226,-192.10489480814672L-203.9298761360034,-195.0011825124389L-195.18739394815447,-176.61913256595264z" style="fill:rgb(43,180,168)">
    </path>
    <path d="M-203.9298761360034,-195.0011825124389L-198.61241690508226,-192.10489480814672L-194.68910537495594,-194.43941581528915z" style="fill:rgb(43,180,168)">
    </path>
    <path d="M-262.92493276560197,51.551693948065825L-260.19476073233176,42.40519569686536L-266.72488966534087,43.140678745346094z" style="fill:rgb(167,41,160)">
    </path>
    <path d="M-187.8680530615155,-192.43479530295542L-198.61241690508226,-192.10489480814672L-195.18739394815447,-176.61913256595264z" style="fill:rgb(43,180,168)">
    </path>
    <path d="M-260.19476073233176,42.40519569686536L-266.49055351244385,34.27422723025597L-266.72488966534087,43.140678745346094z" style="fill:rgb(167,41,160)">
    </path>
    <path d="M-198.61241690508226,-192.10489480814672L-187.8680530615155,-192.43479530295542L-194.68910537495594,-194.43941581528915z" style="fill:rgb(43,180,168)">
    </path>
    <path d="M-272.02091831158737,-2.85156802813417L-269.81583428480036,7.834084810279438L-265.63439957852984,1.880389358216918z" style="fill:rgb(167,41,160)">
    </path>
    <path d="M-259.0974311529214,1.1244144170620611L-261.83067213941155,10.295897111570595L-252.8885814194374,-1.9168727405127322z" style="fill:rgb(167,41,160)">
    </path>
    <path d="M-269.81583428480036,7.834084810279438L-261.83067213941155,10.295897111570595L-265.63439957852984,1.880389358216918z" style="fill:rgb(167,41,160)">
    </path>
    <path d="M-265.39961002196276,-7.0032173487122815L-259.0974311529214,1.1244144170620611L-252.8885814194374,-1.9168727405127322z" style="fill:rgb(167,41,160)">
    </path>
    <path d="M-265.39961002196276,-7.0032173487122815L-272.02091831158737,-2.85156802813417L-265.63439957852984,1.880389358216918z" style="fill:rgb(167,41,160)">
    </path>
    <path d="M-316.8695498284302,17.144477684149575L-265.63439957852984,1.8803893582168918" style="fill:none;stroke:rgb(167,41,160);stroke-width:5;stroke-linecap:round">
    </path>
    <path d="M-261.83067213941155,10.295897111570595L-259.0974311529214,1.1244144170620611L-265.63439957852984,1.880389358216918z" style="fill:rgb(167,41,160)">
    </path>
    <path d="M-259.0974311529214,1.1244144170620611L-265.39961002196276,-7.0032173487122815L-265.63439957852984,1.880389358216918z" style="fill:rgb(167,41,160)">
    </path>
    <path d="M-270.9348795111298,-44.181792110420595L-268.72774272421304,-33.482742904535996L-264.5417987626977,-39.459762552457846z" style="fill:rgb(167,41,160)">
    </path>
    <path d="M-257.9979765868862,-40.23630739266153L-260.7342932989714,-31.03976060509102L-251.7847327863989,-43.22001014155992z" style="fill:rgb(167,41,160)">
    </path>
    <path d="M-268.72774272421304,-33.482742904535996L-260.7342932989714,-31.03976060509102L-264.5417987626977,-39.459762552457846z" style="fill:rgb(167,41,160)">
    </path>
    <path d="M-264.30655448528887,-48.36057428834072L-257.9979765868862,-40.23630739266153L-251.7847327863989,-43.22001014155992z" style="fill:rgb(167,41,160)">
    </path>
    <path d="M-214.7606711331797,-187.51187019235346L-224.69508643537867,-189.10205961741914L-222.91993350249305,-186.41243061289z" style="fill:rgb(43,180,168)">
    </path>
    <path d="M-264.30655448528887,-48.36057428834072L-270.9348795111298,-44.181792110420595L-264.5417987626977,-39.459762552457846z" style="fill:rgb(167,41,160)">
    </path>
    <path d="M-315.822407500925,-24.34439153110724L-264.5417987626977,-39.45976255245787" style="fill:none;stroke:rgb(167,41,160);stroke-width:5;stroke-linecap:round">
    </path>
    <path d="M-224.69508643537867,-189.10205961741914L-232.17913714400083,-186.97593933035176L-222.91993350249305,-186.41243061289z" style="fill:rgb(43,180,168)">
    </path>
    <path d="M-260.7342932989714,-31.03976060509102L-257.9979765868862,-40.23630739266153L-264.5417987626977,-39.459762552457846z" style="fill:rgb(167,41,160)">
    </path>
    <path d="M-257.9979765868862,-40.23630739266153L-264.30655448528887,-48.36057428834072L-264.5417987626977,-39.459762552457846z" style="fill:rgb(167,41,160)">
    </path>
    <path d="M-220.96534569991096,-257.98515823862726L-222.9199335024931,-186.41243061289" style="fill:none;stroke:rgb(43,180,168);stroke-width:5;stroke-linecap:round">
    </path>
    <path d="M-216.096275128694,-184.39991084849504L-214.7606711331797,-187.51187019235346L-222.91993350249305,-186.41243061289z" style="fill:rgb(43,180,168)">
    </path>
    <path d="M-226.86889038016696,-184.06794688836757L-232.17913714400083,-186.97593933035176L-223.40756362715,-168.55648264878752z" style="fill:rgb(43,180,168)">
    </path>
    <path d="M-232.17913714400083,-186.97593933035176L-226.86889038016696,-184.06794688836757L-222.91993350249305,-186.41243061289z" style="fill:rgb(43,180,168)">
    </path>
    <path d="M-216.096275128694,-184.39991084849504L-226.86889038016696,-184.06794688836757L-223.40756362715,-168.55648264878752z" style="fill:rgb(43,180,168)">
    </path>
    <path d="M-226.86889038016696,-184.06794688836757L-216.096275128694,-184.39991084849504L-222.91993350249305,-186.41243061289z" style="fill:rgb(43,180,168)">
    </path>
    <path d="M-269.846737300127,-85.59206345173428L-267.63754393349177,-74.87958600366815L-263.4470810836855,-80.88000908155638z" style="fill:rgb(167,41,160)">
    </path>
    <path d="M-256.89639085566625,-81.6772021654768L-259.6357900878254,-72.45551131253816L-250.67874760490136,-84.60309161457998z" style="fill:rgb(167,41,160)">
    </path>
    <path d="M-267.63754393349177,-74.87958600366815L-259.6357900878254,-72.45551131253816L-263.4470810836855,-80.88000908155638z" style="fill:rgb(167,41,160)">
    </path>
    <path d="M-263.21138076315657,-89.79807587673538L-256.89639085566625,-81.6772021654768L-250.67874760490136,-84.60309161457998z" style="fill:rgb(167,41,160)">
    </path>
    <path d="M-263.21138076315657,-89.79807587673538L-269.846737300127,-85.59206345173428L-263.4470810836855,-80.88000908155638z" style="fill:rgb(167,41,160)">
    </path>
    <path d="M-314.77322834992555,-65.9139618137707L-263.4470810836854,-80.8800090815564" style="fill:none;stroke:rgb(167,41,160);stroke-width:5;stroke-linecap:round">
    </path>
    <path d="M-491.8461094072167,-404.0061191819869L-509.9032285413375,458.53043037511225" style="fill:none;stroke:rgb(0,0,0);stroke-width:1;stroke-linecap:round">
    </path>
    <path d="M-259.6357900878254,-72.45551131253816L-256.89639085566625,-81.6772021654768L-263.4470810836855,-80.88000908155638z" style="fill:rgb(167,41,160)">
    </path>
    <path d="M-256.89639085566625,-81.6772021654768L-263.21138076315657,-89.79807587673538L-263.4470810836855,-80.88000908155638z" style="fill:rgb(167,41,160)">
    </path>
    <path d="M-268.7564855619127,-127.08261482753788L-266.54523178531787,-116.35667715263202L-262.3502403835423,-122.380583224175z" style="fill:rgb(167,41,160)">
    </path>
    <path d="M-648.0303723601917,411.21762017045097L-632.9325915276765,-444.34584225505716L-509.9032285413373,458.5304303751123z" style="fill:rgb(0,0,0); fill-opacity: 0.2">
    </path>
    <path d="M-255.79266775672494,-123.19850323651845L-258.535156325636,-113.95158802174876L-249.57061966585803,-126.06634948741005z" style="fill:rgb(167,41,160)">
    </path>
    <path d="M-266.54523178531787,-116.35667715263202L-258.535156325636,-113.95158802174876L-262.3502403835423,-122.380583224175z" style="fill:rgb(167,41,160)">
    </path>
    <path d="M-262.1140826924831,-131.31595530315772L-255.79266775672494,-123.19850323651845L-249.57061966585803,-126.06634948741005z" style="fill:rgb(167,41,160)">
    </path>
    <path d="M-262.1140826924831,-131.31595530315772L-268.7564855619127,-127.08261482753788L-262.3502403835423,-122.380583224175z" style="fill:rgb(167,41,160)">
    </path>
    <path d="M-313.7220064268302,-107.564468853649L-262.35024038354226,-122.380583224175" style="fill:none;stroke:rgb(167,41,160);stroke-width:5;stroke-linecap:round">
    </path>
    <path d="M-243.08803000607227,-179.45476044130567L-253.0354551497189,-181.0509339352923L-251.27466879443773,-178.35021438677893z" style="fill:rgb(43,180,168)">
    </path>
    <path d="M-258.535156325636,-113.95158802174876L-255.79266775672494,-123.19850323651845L-262.3502403835423,-122.380583224175z" style="fill:rgb(167,41,160)">
    </path>
    <path d="M-255.79266775672494,-123.19850323651845L-262.1140826924831,-131.31595530315772L-262.3502403835423,-122.380583224175z" style="fill:rgb(167,41,160)">
    </path>
    <path d="M-253.0354551497189,-181.0509339352923L-260.55237829404615,-178.91547502197025L-251.27466879443773,-178.35021438677893z" style="fill:rgb(43,180,168)">
    </path>
    <path d="M-632.9325915276765,-444.34584225505716L-121.64209589040026,-575.3587958890241L-491.84610940721655,-404.0061191819867z" style="fill:rgb(0,0,0); fill-opacity: 0.2">
    </path>
    <path d="M-249.36318953340026,-250.0667946805641L-251.27466879443776,-178.35021438677902" style="fill:none;stroke:rgb(43,180,168);stroke-width:5;stroke-linecap:round">
    </path>
    <path d="M-244.44844718279802,-176.32974525515482L-243.08803000607227,-179.45476044130567L-251.27466879443773,-178.35021438677893z" style="fill:rgb(43,180,168)">
    </path>
    <path d="M-255.24945864142046,-175.99570286787605L-260.55237829404615,-178.91547502197025L-251.75154202852508,-160.45845993278405z" style="fill:rgb(43,180,168)">
    </path>
    <path d="M-260.55237829404615,-178.91547502197025L-255.24945864142046,-175.99570286787605L-251.27466879443773,-178.35021438677893z" style="fill:rgb(43,180,168)">
    </path>
    <path d="M-244.44844718279802,-176.32974525515482L-255.24945864142046,-175.99570286787605L-251.75154202852508,-160.45845993278405z" style="fill:rgb(43,180,168)">
    </path>
    <path d="M-267.6641181560816,-168.6536799167102L-265.4508001285934,-157.91424991986526L-261.25127048040923,-163.96171887999705z" style="fill:rgb(167,41,160)">
    </path>
    <path d="M-254.6868010634337,-164.80044484726437L-257.4323858080694,-155.52822464842973L-248.46034273609953,-167.61001698899344z" style="fill:rgb(167,41,160)">
    </path>
    <path d="M-255.24945864142046,-175.99570286787605L-244.44844718279802,-176.32974525515482L-251.27466879443773,-178.35021438677893z" style="fill:rgb(43,180,168)">
    </path>
    <path d="M-265.4508001285934,-157.91424991986526L-257.4323858080694,-155.52822464842973L-261.25127048040923,-163.96171887999705z" style="fill:rgb(167,41,160)">
    </path>
    <path d="M-261.01465408625296,-172.9144466623992L-254.6868010634337,-164.80044484726437L-248.46034273609953,-167.61001698899344z" style="fill:rgb(167,41,160)">
    </path>
    <path d="M-261.01465408625296,-172.9144466623992L-267.6641181560816,-168.6536799167102L-261.25127048040923,-163.96171887999705z" style="fill:rgb(167,41,160)">
    </path>
    <path d="M-312.6687357598499,-149.29614925923013L-261.2512704804092,-163.96171887999708" style="fill:none;stroke:rgb(167,41,160);stroke-width:5;stroke-linecap:round">
    </path>
    <path d="M-257.4323858080694,-155.52822464842973L-254.6868010634337,-164.80044484726437L-261.25127048040923,-163.96171887999705z" style="fill:rgb(167,41,160)">
    </path>
    <path d="M-254.6868010634337,-164.80044484726437L-261.01465408625296,-172.9144466623992L-261.25127048040923,-163.96171887999705z" style="fill:rgb(167,41,160)">
    </path>
    <path d="M-266.5696289183738,-210.30549330593348L-264.3542427883266,-199.55253878111193L-260.1501651684035,-205.62365085768684z" style="fill:rgb(167,41,160)">
    </path>
    <path d="M-253.5787845249539,-206.48326214994057L-256.3274723066779,-197.18565601741173L-247.34791055825713,-209.23432825375252z" style="fill:rgb(167,41,160)">
    </path>
    <path d="M-264.3542427883266,-199.55253878111193L-256.3274723066779,-197.18565601741173L-260.1501651684035,-205.62365085768684z" style="fill:rgb(167,41,160)">
    </path>
    <path d="M-259.91308873340165,-214.59378495918057L-253.5787845249539,-206.48326214994057L-247.34791055825713,-209.23432825375252z" style="fill:rgb(167,41,160)">
    </path>
    <path d="M-259.91308873340165,-214.59378495918057L-266.5696289183738,-210.30549330593348L-260.1501651684035,-205.62365085768684z" style="fill:rgb(167,41,160)">
    </path>
    <path d="M-311.61341035389626,-191.1092405621618L-260.15016516840336,-205.6236508576868" style="fill:none;stroke:rgb(167,41,160);stroke-width:5;stroke-linecap:round">
    </path>
    <path d="M-256.3274723066779,-197.18565601741173L-253.5787845249539,-206.48326214994057L-260.1501651684035,-205.62365085768684z" style="fill:rgb(167,41,160)">
    </path>
    <path d="M-253.5787845249539,-206.48326214994057L-259.91308873340165,-214.59378495918057L-260.1501651684035,-205.62365085768684z" style="fill:rgb(167,41,160)">
    </path>
    <path d="M-271.5399514362221,-171.3622215420906L-281.5004049291465,-172.96441641254594L-279.75412880131177,-170.2525346795193z" style="fill:rgb(43,180,168)">
    </path>
    <path d="M-281.5004049291465,-172.96441641254594L-289.05041756576867,-170.81955721004965L-279.75412880131177,-170.2525346795193z" style="fill:rgb(43,180,168)">
    </path>
    <path d="M-265.4730116605592,-252.03829049410515L-263.2555535655149,-241.27177912383283L-259.04691821750134,-247.36661487930985z" style="fill:rgb(167,41,160)">
    </path>
    <path d="M-277.88615700376306,-242.1135420495035L-279.75412880131177,-170.25253467951927" style="fill:none;stroke:rgb(43,180,168);stroke-width:5;stroke-linecap:round">
    </path>
    <path d="M-272.9253874158584,-168.22406563265892L-271.5399514362221,-171.3622215420906L-279.75412880131177,-170.2525346795193z" style="fill:rgb(43,180,168)">
    </path>
    <path d="M-283.75494097396876,-167.8879297185875L-289.05041756576867,-170.81955721004965L-280.2201457117995,-152.32483112262136z" style="fill:rgb(43,180,168)">
    </path>
    <path d="M-252.46861186611997,-248.24719121195128L-255.2204095687833,-238.92411786707046L-246.2333168506449,-250.93951832598677z" style="fill:rgb(167,41,160)">
    </path>
    <path d="M-263.2555535655149,-241.27177912383283L-255.2204095687833,-238.92411786707046L-259.04691821750134,-247.36661487930985z" style="fill:rgb(167,41,160)">
    </path>
    <path d="M-258.80938039869864,-256.35420611257746L-252.46861186611997,-248.24719121195128L-246.2333168506449,-250.93951832598677z" style="fill:rgb(167,41,160)">
    </path>
    <path d="M-258.80938039869864,-256.35420611257746L-265.4730116605592,-252.03829049410515L-259.04691821750134,-247.36661487930985z" style="fill:rgb(167,41,160)">
    </path>
    <path d="M-289.05041756576867,-170.81955721004965L-283.75494097396876,-167.8879297185875L-279.75412880131177,-170.2525346795193z" style="fill:rgb(43,180,168)">
    </path>
    <path d="M-272.9253874158584,-168.22406563265892L-283.75494097396876,-167.8879297185875L-280.2201457117995,-152.32483112262136z" style="fill:rgb(43,180,168)">
    </path>
    <path d="M-310.55602419046744,-233.0039812217588L-259.04691821750134,-247.36661487930985" style="fill:none;stroke:rgb(167,41,160);stroke-width:5;stroke-linecap:round">
    </path>
    <path d="M-283.75494097396876,-167.8879297185875L-272.9253874158584,-168.22406563265892L-279.75412880131177,-170.2525346795193z" style="fill:rgb(43,180,168)">
    </path>
    <path d="M-255.2204095687833,-238.92411786707046L-252.46861186611997,-248.24719121195128L-259.04691821750134,-247.36661487930985z" style="fill:rgb(167,41,160)">
    </path>
    <path d="M-252.46861186611997,-248.24719121195128L-258.80938039869864,-256.35420611257746L-259.04691821750134,-247.36661487930985z" style="fill:rgb(167,41,160)">
    </path>
    <path d="M-509.9032285413375,458.53043037511225L-491.8461094072167,-404.0061191819869L-327.23024014844117,427.64581487177117z" style="fill:rgb(0,0,0); fill-opacity: 0.2">
    </path>
    <path d="M-300.1172588335749,-163.2340192934073L-310.0907590496465,-164.84227316731045L-308.3591382818523,-162.1191569841333z" style="fill:rgb(43,180,168)">
    </path>
    <path d="M-310.0907590496465,-164.84227316731045L-317.67408015033317,-162.6879514686425L-308.3591382818523,-162.1191569841333z" style="fill:rgb(43,180,168)">
    </path>
    <path d="M-304.1281348655761,-162.09321161936023L-314.10346308134376,-163.70231677471688L-312.3739057307348,-160.97762196583122z" style="fill:rgb(74,87,214)">
    </path>
    <path d="M-306.5350768970602,-234.1251692494027L-308.3591382818524,-162.1191569841333" style="fill:none;stroke:rgb(43,180,168);stroke-width:5;stroke-linecap:round">
    </path>
    <path d="M-301.5279212369501,-160.08263703647108L-300.1172588335749,-163.2340192934073L-308.3591382818523,-162.1191569841333z" style="fill:rgb(43,180,168)">
    </path>
    <path d="M-312.3861638908385,-159.74439235659628L-317.67408015033317,-162.6879514686425L-308.8141984329546,-144.15536086691156z" style="fill:rgb(43,180,168)">
    </path>
    <path d="M-314.10346308134376,-163.70231677471688L-321.69146495091024,-161.54666533122725L-312.3739057307348,-160.97762196583122z" style="fill:rgb(74,87,214)">
    </path>
    <path d="M-317.67408015033317,-162.6879514686425L-312.3861638908385,-159.74439235659628L-308.3591382818523,-162.1191569841333z" style="fill:rgb(43,180,168)">
    </path>
    <path d="M-301.5279212369501,-160.08263703647108L-312.3861638908385,-159.74439235659628L-308.8141984329546,-144.15536086691156z" style="fill:rgb(43,180,168)">
    </path>
    <path d="M-310.5560241904673,-233.00398122175892L-312.3739057307348,-160.97762196583122" style="fill:none;stroke:rgb(74,87,214);stroke-width:5;stroke-linecap:round">
    </path>
    <path d="M-305.5423456512554,-158.93997079828765L-304.1281348655761,-162.09321161936023L-312.3739057307348,-160.97762196583122z" style="fill:rgb(74,87,214)">
    </path>
    <path d="M-312.3861638908385,-159.74439235659628L-301.5279212369501,-160.08263703647108L-308.3591382818523,-162.1191569841333z" style="fill:rgb(43,180,168)">
    </path>
    <path d="M-316.4046165721879,-158.60142966712337L-321.69146495091024,-161.54666533122725L-312.8274238631354,-143.00876139390084z" style="fill:rgb(74,87,214)">
    </path>
    <path d="M-321.69146495091024,-161.54666533122725L-316.4046165721879,-158.60142966712337L-312.3739057307348,-160.97762196583122z" style="fill:rgb(74,87,214)">
    </path>
    <path d="M-305.5423456512554,-158.93997079828765L-316.4046165721879,-158.60142966712337L-312.8274238631354,-143.00876139390084z" style="fill:rgb(74,87,214)">
    </path>
    <path d="M-316.4046165721879,-158.60142966712337L-305.5423456512554,-158.93997079828765L-312.3739057307348,-160.97762196583122z" style="fill:rgb(74,87,214)">
    </path>
    <path d="M-491.8461094072167,-404.0061191819869L18.545474302455005,-537.7487136408192L-451.6984883074897,-193.64826988984842z" style="fill:rgb(0,0,0); fill-opacity: 0.2">
    </path>
    <path d="M-327.23024014844117,427.64581487177117L-310.55602419046744,-233.0039812217588L-491.8461094072167,-404.0061191819869z" style="fill:rgb(0,0,0); fill-opacity: 0.2">
    </path>
    <path d="M-328.82078288154287,-155.0699174251732L-338.80734805721875,-156.68426825240044L-337.09052928262935,-153.94984472146464z" style="fill:rgb(43,180,168)">
    </path>
    <path d="M-338.80734805721875,-156.68426825240044L-346.4241985300892,-154.52042130047218L-337.09052928262935,-153.94984472146464z" style="fill:rgb(43,180,168)">
    </path>
    <path d="M-310.55602419046744,-233.0039812217588L-451.6984883074897,-193.64826988984842" style="fill:none;stroke:rgb(10,15,55);stroke-width:5;stroke-linecap:round">
    </path>
    <path d="M-310.55602419046744,-233.0039812217588L-491.8461094072167,-404.0061191819869" style="fill:none;stroke:rgb(0,0,0);stroke-width:1;stroke-linecap:round">
    </path>
    <path d="M-310.55602419046744,-233.0039812217588L-491.8461094072167,-404.0061191819869" style="fill:none;stroke:rgb(0,0,0);stroke-width:1;stroke-linecap:round">
    </path>
    <path d="M-335.31078533509657,-226.10144313874326L-337.0905292826294,-153.94984472146476" style="fill:none;stroke:rgb(43,180,168);stroke-width:5;stroke-linecap:round">
    </path>
    <path d="M-330.25688135194315,-151.9052224450941L-328.82078288154287,-155.0699174251732L-337.09052928262935,-153.94984472146464z" style="fill:rgb(43,180,168)">
    </path>
    <path d="M-341.14396121283977,-151.564853619454L-346.4241985300892,-154.52042130047218L-337.5345312238877,-135.94981173549988z" style="fill:rgb(43,180,168)">
    </path>
    <path d="M-346.4241985300892,-154.52042130047218L-341.14396121283977,-151.564853619454L-337.09052928262935,-153.94984472146464z" style="fill:rgb(43,180,168)">
    </path>
    <path d="M-330.25688135194315,-151.9052224450941L-341.14396121283977,-151.564853619454L-337.5345312238877,-135.94981173549988z" style="fill:rgb(43,180,168)">
    </path>
    <path d="M-341.14396121283977,-151.564853619454L-330.25688135194315,-151.9052224450941L-337.09052928262935,-153.94984472146464z" style="fill:rgb(43,180,168)">
    </path>
    <path d="M-339.041048598599,-152.16298201560375L-349.0322561945311,-153.77950645019956L-347.32072768080553,-151.04105115760655z" style="fill:rgb(74,87,214)">
    </path>
    <path d="M-349.0322561945311,-153.77950645019956L-356.6610630946694,-151.61226283467764L-347.32072768080553,-151.04105115760655z" style="fill:rgb(74,87,214)">
    </path>
    <path d="M-339.041048598599,-152.16298201560375L-340.4862276802072,-148.9935401012094L-347.76077936398343,-133.02811921353677z" style="fill:rgb(74,87,214)">
    </path>
    <path d="M-345.55681509507343,-223.2444731116543L-347.32072768080565,-151.04105115760657" style="fill:none;stroke:rgb(74,87,214);stroke-width:5;stroke-linecap:round">
    </path>
    <path d="M-340.4862276802072,-148.9935401012094L-339.041048598599,-152.16298201560375L-347.32072768080553,-151.04105115760655z" style="fill:rgb(74,87,214)">
    </path>
    <path d="M-351.3835805844561,-148.6524134778841L-356.6610630946694,-151.61226283467764L-347.76077936398343,-133.02811921353677z" style="fill:rgb(74,87,214)">
    </path>
    <path d="M-356.6610630946694,-151.61226283467764L-351.3835805844561,-148.6524134778841L-347.32072768080553,-151.04105115760655z" style="fill:rgb(74,87,214)">
    </path>
    <path d="M-340.4862276802072,-148.9935401012094L-351.3835805844561,-148.6524134778841L-347.76077936398343,-133.02811921353677z" style="fill:rgb(74,87,214)">
    </path>
    <path d="M-351.3835805844561,-148.6524134778841L-340.4862276802072,-148.9935401012094L-347.32072768080553,-151.04105115760655z" style="fill:rgb(74,87,214)">
    </path>
    <path d="M-357.651361617494,-146.86967757563067L-367.65100984830383,-148.49016363246713L-365.9491412187209,-145.74435921723932z" style="fill:rgb(43,180,168)">
    </path>
    <path d="M-367.65100984830383,-148.49016363246713L-375.3016125592783,-146.3167281140044L-365.9491412187209,-145.74435921723932z" style="fill:rgb(43,180,168)">
    </path>
    <path d="M-357.651361617494,-146.86967757563067L-359.1131078443126,-143.69158273706893L-366.3819824729218,-127.70794419646224z" style="fill:rgb(43,180,168)">
    </path>
    <path d="M-364.21412585676455,-218.0421285078498L-365.949141218721,-145.74435921723938" style="fill:none;stroke:rgb(43,180,168);stroke-width:5;stroke-linecap:round">
    </path>
    <path d="M-359.1131078443126,-143.69158273706893L-357.651361617494,-146.86967757563067L-365.9491412187209,-145.74435921723932z" style="fill:rgb(43,180,168)">
    </path>
    <path d="M-370.0291741495124,-143.34907424314696L-375.3016125592783,-146.3167281140044L-366.3819824729218,-127.70794419646224z" style="fill:rgb(43,180,168)">
    </path>
    <path d="M-375.3016125592783,-146.3167281140044L-370.0291741495124,-143.34907424314696L-365.9491412187209,-145.74435921723932z" style="fill:rgb(43,180,168)">
    </path>
    <path d="M-359.1131078443126,-143.69158273706893L-370.0291741495124,-143.34907424314696L-366.3819824729218,-127.70794419646224z" style="fill:rgb(43,180,168)">
    </path>
    <path d="M-509.9032285413373,458.5304303751123L-491.84610940721655,-404.0061191819867L-632.9325915276765,-444.34584225505716z" style="fill:rgb(0,0,0); fill-opacity: 0.2">
    </path>
    <path d="M-370.0291741495124,-143.34907424314696L-359.1131078443126,-143.69158273706893L-365.9491412187209,-145.74435921723932z" style="fill:rgb(43,180,168)">
    </path>
    <path d="M-491.84610940721655,-404.0061191819867L-632.9325915276765,-444.34584225505716" style="fill:none;stroke:rgb(0,0,0);stroke-width:1;stroke-linecap:round">
    </path>
    <path d="M-491.84610940721655,-404.0061191819867L-632.9325915276765,-444.34584225505716" style="fill:none;stroke:rgb(0,0,0);stroke-width:1;stroke-linecap:round">
    </path>
    <path d="M-374.1419658911705,-142.1792788310709L-384.1490795050091,-143.80327922184165L-382.45579933698093,-141.05095455132764z" style="fill:rgb(74,87,214)">
    </path>
    <path d="M-384.1490795050091,-143.80327922184165L-391.81902147094206,-141.62434967562515L-382.45579933698093,-141.05095455132764z" style="fill:rgb(74,87,214)">
    </path>
    <path d="M-374.1419658911705,-142.1792788310709L-375.6184268520636,-138.9935067903912L-382.88223274837253,-122.99373648510372z" style="fill:rgb(74,87,214)">
    </path>
    <path d="M-380.7464648346706,-213.43230421063242L-382.45579933698093,-141.05095455132758" style="fill:none;stroke:rgb(74,87,214);stroke-width:5;stroke-linecap:round">
    </path>
    <path d="M-375.6184268520636,-138.9935067903912L-374.1419658911705,-142.1792788310709L-382.45579933698093,-141.05095455132764z" style="fill:rgb(74,87,214)">
    </path>
    <path d="M-386.5510826422306,-138.64977168479987L-391.81902147094206,-141.62434967562515L-382.88223274837253,-122.99373648510372z" style="fill:rgb(74,87,214)">
    </path>
    <path d="M-391.81902147094206,-141.62434967562515L-386.5510826422306,-138.64977168479987L-382.45579933698093,-141.05095455132764z" style="fill:rgb(74,87,214)">
    </path>
    <path d="M-375.6184268520636,-138.9935067903912L-386.5510826422306,-138.64977168479987L-382.88223274837253,-122.99373648510372z" style="fill:rgb(74,87,214)">
    </path>
    <path d="M-386.5510826422306,-138.64977168479987L-375.6184268520636,-138.9935067903912L-382.45579933698093,-141.05095455132764z" style="fill:rgb(74,87,214)">
    </path>
    <path d="M-386.609840514312,-138.63305926814914L-396.62258975127867,-140.25971916084643L-394.9358209554621,-137.5024596788215z" style="fill:rgb(43,180,168)">
    </path>
    <path d="M-396.62258975127867,-140.25971916084643L-404.3071695458149,-138.07663120021456L-394.9358209554621,-137.5024596788215z" style="fill:rgb(43,180,168)">
    </path>
    <path d="M-386.609840514312,-138.63305926814914L-388.09744825702467,-135.4414766676657L-395.35739800638567,-119.42951659279721z" style="fill:rgb(43,180,168)">
    </path>
    <path d="M-393.2459495004706,-209.94698805590673L-394.93582095546213,-137.5024596788215" style="fill:none;stroke:rgb(43,180,168);stroke-width:5;stroke-linecap:round">
    </path>
    <path d="M-388.09744825702467,-135.4414766676657L-386.609840514312,-138.63305926814914L-394.9358209554621,-137.5024596788215z" style="fill:rgb(43,180,168)">
    </path>
    <path d="M-399.04265138114926,-135.09681283876577L-404.3071695458149,-138.07663120021456L-395.35739800638567,-119.42951659279721z" style="fill:rgb(43,180,168)">
    </path>
    <path d="M-404.3071695458149,-138.07663120021456L-399.04265138114926,-135.09681283876577L-394.9358209554621,-137.5024596788215z" style="fill:rgb(43,180,168)">
    </path>
    <path d="M-388.09744825702467,-135.4414766676657L-399.04265138114926,-135.09681283876577L-395.35739800638567,-119.42951659279721z" style="fill:rgb(43,180,168)">
    </path>
    <path d="M-399.04265138114926,-135.09681283876577L-388.09744825702467,-135.4414766676657L-394.9358209554621,-137.5024596788215z" style="fill:rgb(43,180,168)">
    </path>
    <path d="M-409.43240942176124,-132.14166897252454L-419.45545542904273,-133.77320259122314L-417.78064588761663,-131.00689848403903z" style="fill:rgb(74,87,214)">
    </path>
    <path d="M-419.45545542904273,-133.77320259122314L-427.1668660647571,-131.58249234181096L-417.78064588761663,-131.00689848403903z" style="fill:rgb(74,87,214)">
    </path>
    <path d="M-409.43240942176124,-132.14166897252454L-410.94046957834763,-128.9394363878773L-418.1933073307978,-112.90517798969154z" style="fill:rgb(74,87,214)">
    </path>
    <path d="M-416.12650612384317,-203.56704714148228L-417.7806458876167,-131.00689848403914" style="fill:none;stroke:rgb(74,87,214);stroke-width:5;stroke-linecap:round">
    </path>
    <path d="M-410.94046957834763,-128.9394363878773L-409.43240942176124,-132.14166897252454L-417.78064588761663,-131.00689848403903z" style="fill:rgb(74,87,214)">
    </path>
    <path d="M-421.9086512064,-128.59306954994878L-427.1668660647571,-131.58249234181096L-418.1933073307978,-112.90517798969154z" style="fill:rgb(74,87,214)">
    </path>
    <path d="M-415.6970725630451,-130.35981988771738L-425.7229406090392,-131.99269255609832L-424.0514228912856,-129.22390317165937z" style="fill:rgb(43,180,168)">
    </path>
    <path d="M-427.1668660647571,-131.58249234181096L-421.9086512064,-128.59306954994878L-417.78064588761663,-131.00689848403903z" style="fill:rgb(74,87,214)">
    </path>
    <path d="M-410.94046957834763,-128.9394363878773L-421.9086512064,-128.59306954994878L-418.1933073307978,-112.90517798969154z" style="fill:rgb(74,87,214)">
    </path>
    <path d="M-425.7229406090392,-131.99269255609832L-433.4417243341597,-129.7998877090444L-424.0514228912856,-129.22390317165937z" style="fill:rgb(43,180,168)">
    </path>
    <path d="M-421.9086512064,-128.59306954994878L-410.94046957834763,-128.9394363878773L-417.78064588761663,-131.00689848403903z" style="fill:rgb(74,87,214)">
    </path>
    <path d="M-415.6970725630451,-130.35981988771738L-417.21075767551685,-127.15466084526487L-424.4616311712835,-111.11428511880727z" style="fill:rgb(43,180,168)">
    </path>
    <path d="M-422.407114887665,-201.81578236766683L-424.0514228912856,-129.22390317165937" style="fill:none;stroke:rgb(43,180,168);stroke-width:5;stroke-linecap:round">
    </path>
    <path d="M-417.21075767551685,-127.15466084526487L-415.6970725630451,-130.35981988771738L-424.0514228912856,-129.22390317165937z" style="fill:rgb(43,180,168)">
    </path>
    <path d="M-428.1852491419152,-126.80782586886417L-433.4417243341597,-129.7998877090444L-424.4616311712835,-111.11428511880727z" style="fill:rgb(43,180,168)">
    </path>
    <path d="M-433.4417243341597,-129.7998877090444L-428.1852491419152,-126.80782586886417L-424.0514228912856,-129.22390317165937z" style="fill:rgb(43,180,168)">
    </path>
    <path d="M-417.21075767551685,-127.15466084526487L-428.1852491419152,-126.80782586886417L-424.4616311712835,-111.11428511880727z" style="fill:rgb(43,180,168)">
    </path>
    <path d="M-428.1852491419152,-126.80782586886417L-417.21075767551685,-127.15466084526487L-424.0514228912856,-129.22390317165937z" style="fill:rgb(43,180,168)">
    </path>
    <path d="M-310.55602419046744,-233.0039812217588L-451.6984883074897,-193.64826988984842L-491.8461094072167,-404.0061191819869z" style="fill:rgb(0,0,0); fill-opacity: 0.2">
    </path>
    <path d="M-491.8461094072167,-404.0061191819869L-491.8461094072167,-404.0061191819869L-310.55602419046744,-233.0039812217588z" style="fill:rgb(0,0,0); fill-opacity: 0.2">
    </path>
    <path d="M-444.91391835665837,-122.0497146571218L-454.95292286268665,-123.68883937823284L-453.2968090416695,-120.90844459541607z" style="fill:rgb(43,180,168)">
    </path>
    <path d="M-444.9139183566584,-122.0497146571218L-454.95292286268665,-123.68883937823279L-453.2968090416697,-120.90844459541607z" style="fill:rgb(74,87,214)">
    </path>
    <path d="M-454.95292286268665,-123.68883937823284L-462.7061393893009,-121.48625262554424L-453.2968090416695,-120.90844459541607z" style="fill:rgb(43,180,168)">
    </path>
    <path d="M-454.95292286268665,-123.68883937823279L-462.70613938930103,-121.48625262554425L-453.2968090416697,-120.90844459541607z" style="fill:rgb(74,87,214)">
    </path>
    <path d="M-444.91391835665837,-122.0497146571218L-446.45389881178727,-118.83088970742152L-453.6955429190691,-102.76200379616408z" style="fill:rgb(43,180,168)">
    </path>
    <path d="M-444.9139183566584,-122.0497146571218L-446.45389881178727,-118.83088970742152L-453.6955429190691,-102.76200379616408z" style="fill:rgb(74,87,214)">
    </path>
    <path d="M-451.6984883074896,-193.64826988984842L-453.29680904166963,-120.90844459541607" style="fill:none;stroke:rgb(43,180,168);stroke-width:5;stroke-linecap:round">
    </path>
    <path d="M-451.6984883074897,-193.64826988984842L-453.2968090416697,-120.90844459541607" style="fill:none;stroke:rgb(74,87,214);stroke-width:5;stroke-linecap:round">
    </path>
    <path d="M-446.45389881178727,-118.83088970742152L-444.91391835665837,-122.0497146571218L-453.2968090416695,-120.90844459541607z" style="fill:rgb(43,180,168)">
    </path>
    <path d="M-446.45389881178727,-118.83088970742152L-444.9139183566584,-122.0497146571218L-453.2968090416697,-120.90844459541607z" style="fill:rgb(74,87,214)">
    </path>
    <path d="M-457.4578313040787,-118.48186762350122L-462.7061393893009,-121.48625262554424L-453.6955429190691,-102.76200379616408z" style="fill:rgb(43,180,168)">
    </path>
    <path d="M-457.45783130407875,-118.48186762350117L-462.70613938930103,-121.48625262554425L-453.6955429190691,-102.76200379616408z" style="fill:rgb(74,87,214)">
    </path>
    <path d="M-462.7061393893009,-121.48625262554424L-457.4578313040787,-118.48186762350122L-453.2968090416695,-120.90844459541607z" style="fill:rgb(43,180,168)">
    </path>
    <path d="M-462.70613938930103,-121.48625262554425L-457.45783130407875,-118.48186762350117L-453.2968090416697,-120.90844459541607z" style="fill:rgb(74,87,214)">
    </path>
    <path d="M-446.45389881178727,-118.83088970742152L-457.4578313040787,-118.48186762350122L-453.6955429190691,-102.76200379616408z" style="fill:rgb(43,180,168)">
    </path>
    <path d="M-446.45389881178727,-118.83088970742152L-457.45783130407875,-118.48186762350117L-453.6955429190691,-102.76200379616408z" style="fill:rgb(74,87,214)">
    </path>
    <path d="M-457.4578313040787,-118.48186762350122L-446.45389881178727,-118.83088970742152L-453.2968090416695,-120.90844459541607z" style="fill:rgb(43,180,168)">
    </path>
    <path d="M-457.45783130407875,-118.48186762350117L-446.45389881178727,-118.83088970742152L-453.2968090416697,-120.90844459541607z" style="fill:rgb(74,87,214)">
    </path>
    <path d="M-451.6984883074897,-193.64826988984842L-491.8461094072167,-404.0061191819869" style="fill:none;stroke:rgb(0,0,0);stroke-width:1;stroke-linecap:round">
    </path>
    <path d="M-451.6984883074897,-193.64826988984842L-491.8461094072167,-404.0061191819869" style="fill:none;stroke:rgb(0,0,0);stroke-width:1;stroke-linecap:round">
    </path>
    <path d="M-491.8461094072167,-404.0061191819869L-491.8461094072167,-404.0061191819869" style="fill:none;stroke:rgb(0,0,0);stroke-width:1;stroke-linecap:round">
    </path>
</svg>