<svg viewBox="-812 -590 1624 1180" width="1624" height="1180" style="background-color: rgb(255, 255, 255);"><path d="M15.83518316242262,197.08841355138054L61.873176476061026,-542.3929551490996M186.9086801934662,261.88127362653L15.83518316242262,197.08841355138054" style="fill:none;stroke:rgb(0,0,0);stroke-width:1;stroke-linecap:round"></path><path d="M253.40036612240033,250.06996447326662L255.1932943826928,259.45251561310516L259.4556333423895,254.7610140520433zM265.83592242598877,254.76039763624868L262.87703755408336,262.35349098928845L269.7121383140863,250.02741748820932zM255.1932943826928,259.45251561310516L262.87703755408336,262.35349098928845L259.4556333423895,254.7610140520433zM259.9763129054267,247.1667290136621L265.83592242598877,254.76039763624868L269.7121383140863,250.02741748820932zM259.9763129054267,247.1667290136621L253.40036612240033,250.06996447326662L259.4556333423895,254.7610140520433z" style="fill:rgb(128,207,62)"></path><path d="M218.28180194345921,273.7636184838346L259.4556333423895,254.76101405204332" style="fill:none;stroke:rgb(128,207,62);stroke-width:5;stroke-linecap:round"></path><path d="M262.87703755408336,262.35349098928845L265.83592242598877,254.76039763624868L259.4556333423895,254.7610140520433zM265.83592242598877,254.76039763624868L259.9763129054267,247.1667290136621L259.4556333423895,254.7610140520433zM255.89532853932315,213.59359001782073L257.68963438103896,222.9891071560127L261.9567360662152,218.2815968761343zM268.3437708860292,218.2691983642636L265.38133776273736,225.88092939255944L272.2209791337402,213.5698155844813zM257.68963438103896,222.9891071560127L265.38133776273736,225.88092939255944L261.9567360662152,218.2815968761343zM262.47838502723926,210.67317284488666L268.3437708860292,218.2691983642636L272.2209791337402,213.5698155844813zM262.47838502723926,210.67317284488666L255.89532853932315,213.59359001782073L261.9567360662152,218.2815968761343z" style="fill:rgb(128,207,62)"></path><path d="M220.75170274572716,237.19668918680668L261.9567360662152,218.2815968761343" style="fill:none;stroke:rgb(128,207,62);stroke-width:5;stroke-linecap:round"></path><path d="M265.38133776273736,225.88092939255944L268.3437708860292,218.2691983642636L261.9567360662152,218.2815968761343zM268.3437708860292,218.2691983642636L262.47838502723926,210.67317284488666L261.9567360662152,218.2815968761343z" style="fill:rgb(128,207,62)"></path><path d="M186.90868019346615,261.88127362653L236.53496417775554,-481.8744823740089M77.57372846027035,325.3988251789118L186.90868019346615,261.88127362653" style="fill:none;stroke:rgb(0,0,0);stroke-width:1;stroke-linecap:round"></path><path d="M258.39493683074613,177.04929283263937L260.1906222783097,186.4578080121272L264.4624970450456,181.73423749776865zM270.8562916747858,181.71001297550805L267.89030220830733,189.3404379735075L274.7344892592899,177.04436095204048zM260.1906222783097,186.4578080121272L267.89030220830733,189.3404379735075L264.4624970450456,181.73423749776865zM264.98511811380746,174.1116349510318L270.8562916747858,181.71001297550805L274.7344892592899,177.04436095204048zM264.98511811380746,174.1116349510318L258.39493683074613,177.04929283263937L264.4624970450456,181.73423749776865z" style="fill:rgb(128,207,62)"></path><path d="M223.22621697377542,200.56145803159504L264.4624970450456,181.73423749776867" style="fill:none;stroke:rgb(128,207,62);stroke-width:5;stroke-linecap:round"></path><path d="M267.89030220830733,189.3404379735075L270.8562916747858,181.71001297550805L264.4624970450456,181.73423749776865zM270.8562916747858,181.71001297550805L264.98511811380746,174.1116349510318L264.4624970450456,181.73423749776865zM260.89920398540085,140.43688302234426L262.69627106738335,149.85842839775606L266.9729293048745,145.11874592848253zM273.3734978618346,145.08265129720598L270.403943933589,152.73182677720104L277.2526817382304,140.45086398923124zM262.69627106738335,149.85842839775606L270.403943933589,152.73182677720104L266.9729293048745,145.11874592848253zM267.49652520123414,137.48192519619326L273.3734978618346,145.08265129720598L277.2526817382304,140.45086398923124zM267.49652520123414,137.48192519619326L260.89920398540085,140.43688302234426L266.9729293048745,145.11874592848253z" style="fill:rgb(128,207,62)"></path><path d="M225.7053575655285,163.85773347197568L266.9729293048745,145.11874592848255" style="fill:none;stroke:rgb(128,207,62);stroke-width:5;stroke-linecap:round"></path><path d="M243.1899769034122,-95.0023950508991L218.28180194345921,273.7636184838346" style="fill:none;stroke:rgb(58,110,14);stroke-width:5;stroke-linecap:round"></path><path d="M218.28180194345921,273.7636184838346L77.57372846027035,325.3988251789118" style="fill:none;stroke:rgb(0,0,0);stroke-width:1;stroke-linecap:round"></path><path d="M270.403943933589,152.73182677720104L273.3734978618346,145.08265129720598L266.9729293048745,145.11874592848253zM273.3734978618346,145.08265129720598L267.49652520123414,137.48192519619326L266.9729293048745,145.11874592848253zM263.4081430404817,103.75616998302861L265.20659378961074,113.19077782117739L269.4880459203077,108.43493147079202zM275.89540256554204,108.38692244664371L272.9222760300532,116.05490513980935L279.7755696667135,103.78913438733106zM265.20659378961074,113.19077782117739L272.9222760300532,116.05490513980935L269.4880459203077,108.43493147079202zM270.0126193742809,100.78385273475847L275.89540256554204,108.38692244664371L279.7755696667135,103.78913438733106zM270.0126193742809,100.78385273475847L263.4081430404817,103.75616998302861L269.4880459203077,108.43493147079202z" style="fill:rgb(128,207,62)"></path><path d="M228.18913750733384,127.08532324482296L269.4880459203077,108.43493147079202" style="fill:none;stroke:rgb(128,207,62);stroke-width:5;stroke-linecap:round"></path><path d="M272.9222760300532,116.05490513980935L275.89540256554204,108.38692244664371L269.4880459203077,108.43493147079202zM275.89540256554204,108.38692244664371L270.0126193742809,100.78385273475847L269.4880459203077,108.43493147079202zM265.92176708187213,67.00696239894944L267.72160353504165,76.45466507933526L272.0078600147897,71.68260271488248zM278.4220189532926,71.62263482785352L275.44531163807255,79.30948168529261L282.30316618977514,67.05898112725174zM267.72160353504165,76.45466507933526L275.44531163807255,79.30948168529261L272.0078600147897,71.68260271488248zM272.53341376659586,64.01722600809207L278.4220189532926,71.62263482785352L282.30316618977514,67.05898112725174zM272.53341376659586,64.01722600809207L265.92176708187213,67.00696239894944L272.0078600147897,71.68260271488248z" style="fill:rgb(128,207,62)"></path><path d="M230.6775698341885,90.24403436675262L272.0078600147897,71.68260271488248" style="fill:none;stroke:rgb(128,207,62);stroke-width:5;stroke-linecap:round"></path><path d="M275.44531163807255,79.30948168529261L278.4220189532926,71.62263482785352L272.0078600147897,71.68260271488248zM278.4220189532926,71.62263482785352L272.53341376659586,64.01722600809207L272.0078600147897,71.68260271488248zM268.44008924437253,30.189068239201557L270.24131344265254,39.649898254516074L274.5323847608321,34.86156753527931z" style="fill:rgb(128,207,62)"></path><path d="M236.53496417775563,-481.8744823740089L186.9086801934662,261.88127362653L15.83518316242262,197.08841355138054z" style="fill:rgb(0,0,0); fill-opacity: 0.2"></path><path d="M280.95336024171803,34.78959612827949L277.97306394715065,42.495364322073364L284.83548450156354,30.26021247622176zM270.24131344265254,39.649898254516074L277.97306394715065,42.495364322073364L274.5323847608321,34.86156753527931zM275.0589215609417,27.181852741202967L280.95336024171803,34.78959612827949L284.83548450156354,30.26021247622176zM275.0589215609417,27.181852741202967L268.44008924437253,30.189068239201557L274.5323847608321,34.86156753527931z" style="fill:rgb(128,207,62)"></path><path d="M233.17066762996714,53.33367313074559L274.5323847608321,34.86156753527931" style="fill:none;stroke:rgb(128,207,62);stroke-width:5;stroke-linecap:round"></path><path d="M277.97306394715065,42.495364322073364L280.95336024171803,34.78959612827949L274.5323847608321,34.86156753527931zM280.95336024171803,34.78959612827949L275.0589215609417,27.181852741202967L274.5323847608321,34.86156753527931zM270.9631227119284,-6.697705245627379L272.76573670057536,2.776284711006627L277.0616333802433,-2.0283669124998234zM283.48943969692806,-2.1123866845759482L280.50554619615144,5.612360239689055L287.3725378455689,-6.607364015550049zM272.76573670057536,2.776284711006627L280.50554619615144,5.612360239689055L277.0616333802433,-2.0283669124998234zM277.589155989426,-9.722460060607606L283.48943969692806,-2.1123866845759482L287.3725378455689,-6.607364015550049zM277.589155989426,-9.722460060607606L270.9631227119284,-6.697705245627379L277.0616333802433,-2.0283669124998234z" style="fill:rgb(128,207,62)"></path><path d="M235.6684440276515,16.35404510275318L277.0616333802433,-2.0283669124998025" style="fill:none;stroke:rgb(128,207,62);stroke-width:5;stroke-linecap:round"></path><path d="M280.50554619615144,5.612360239689055L283.48943969692806,-2.1123866845759482L277.0616333802433,-2.0283669124998234zM283.48943969692806,-2.1123866845759482L277.589155989426,-9.722460060607606L277.0616333802433,-2.0283669124998234zM273.49088071786105,-43.6535515268203L275.2948865463272,-34.16636890826674L279.5956191443589,-38.987394195311566zM286.030270634742,-39.08350736652404L283.0427716735305,-31.33972409457387L289.9143395148541,-43.543941518229154zM275.2948865463272,-34.16636890826674L283.0427716735305,-31.33972409457387L279.5956191443589,-38.987394195311566zM280.1241303337318,-46.695906115116465L286.030270634742,-39.08350736652404L289.9143395148541,-43.543941518229154zM280.1241303337318,-46.695906115116465L273.49088071786105,-43.6535515268203L279.5956191443589,-38.987394195311566z" style="fill:rgb(128,207,62)"></path><path d="M238.17091220956084,-20.695044881717028L279.5956191443589,-38.987394195311545" style="fill:none;stroke:rgb(128,207,62);stroke-width:5;stroke-linecap:round"></path><path d="M283.0427716735305,-31.33972409457387L286.030270634742,-39.08350736652404L279.5956191443589,-38.987394195311566zM286.030270634742,-39.08350736652404L280.1241303337318,-46.695906115116465L279.5956191443589,-38.987394195311566zM276.0233765450986,-80.67866480091354L277.82877626704203,-71.178256685118L282.1343553742744,-76.01570860577264zM288.57586642092156,-76.1239604000809L285.5847537175674,-68.3610829390652L292.46090285228695,-80.54971392572938zM277.82877626704203,-71.178256685118L285.5847537175674,-68.3610829390652L282.1343553742744,-76.01570860577264zM282.6638579253502,-83.73867986656813L288.57586642092156,-76.1239604000809L292.46090285228695,-80.54971392572938zM282.6638579253502,-83.73867986656813L276.0233765450986,-80.67866480091354L282.1343553742744,-76.01570860577264z" style="fill:rgb(128,207,62)"></path><path d="M240.6780854075839,-57.81379272103465L282.1343553742744,-76.01570860577262" style="fill:none;stroke:rgb(128,207,62);stroke-width:5;stroke-linecap:round"></path><path d="M285.5847537175674,-68.3610829390652L288.57586642092156,-76.1239604000809L282.1343553742744,-76.01570860577264zM288.57586642092156,-76.1239604000809L282.6638579253502,-83.73867986656813L282.1343553742744,-76.01570860577264z" style="fill:rgb(128,207,62)"></path><path d="M243.1899769034122,-95.0023950508991L218.28180194345921,273.7636184838346L77.57372846027035,325.3988251789118z" style="fill:rgb(0,0,0); fill-opacity: 0.2"></path><path d="M278.56062352640873,-117.77323999309816L280.36741919970353,-108.25957342950015L284.67785544107784,-113.1135051656643zM291.1262404714057,-113.23394099787768L288.13150571659963,-105.45191128117489L295.01224125077374,-117.62487585910533zM280.36741919970353,-108.25957342950015L288.13150571659963,-105.45191128117489L284.67785544107784,-113.1135051656643z" style="fill:rgb(128,207,62)"></path><path d="M61.873176476061026,-542.3929551490996L15.83518316242262,197.08841355138054L236.53496417775563,-481.8744823740089z" style="fill:rgb(0,0,0); fill-opacity: 0.2"></path><path d="M285.20835214581433,-120.85097648908373L291.1262404714057,-113.23394099787768L295.01224125077374,-117.62487585910533zM285.20835214581433,-120.85097648908373L278.56062352640873,-117.77323999309816L284.67785544107784,-113.1135051656643z" style="fill:rgb(128,207,62)"></path><path d="M243.1899769034122,-95.0023950508991L284.67785544107784,-113.11350516566425" style="fill:none;stroke:rgb(128,207,62);stroke-width:5;stroke-linecap:round"></path><path d="M288.13150571659963,-105.45191128117489L291.1262404714057,-113.23394099787768L284.67785544107784,-113.1135051656643zM291.1262404714057,-113.23394099787768L285.20835214581433,-120.85097648908373L284.67785544107784,-113.1135051656643z" style="fill:rgb(128,207,62)"></path><path d="M245.98458291651866,-34.49169089852452L236.71938228497294,-36.35621598508489L239.00611317447473,-33.06021137130623z" style="fill:rgb(186,45,138)"></path><path d="M245.98458291651872,-34.49169089852452L236.71938228497294,-36.35621598508492L239.00611317447473,-33.06021137130623z" style="fill:rgb(41,170,178)"></path><path d="M245.98458291651866,-34.49169089852452L236.71938228497294,-36.35621598508489L239.00611317447473,-33.06021137130623z" style="fill:rgb(197,147,42)"></path><path d="M236.71938228497294,-36.35621598508489L230.6120420712794,-33.66629130725605L239.00611317447473,-33.06021137130623z" style="fill:rgb(186,45,138)"></path><path d="M236.71938228497294,-36.35621598508492L230.6120420712794,-33.66629130725608L239.00611317447473,-33.06021137130623z" style="fill:rgb(41,170,178)"></path><path d="M236.71938228497294,-36.35621598508489L230.6120420712794,-33.66629130725605L239.00611317447473,-33.06021137130623z" style="fill:rgb(197,147,42)"></path><path d="M243.1899769034122,-95.0023950508991L239.0061131744747,-33.06021137130619" style="fill:none;stroke:rgb(186,45,138);stroke-width:5;stroke-linecap:round"></path><path d="M243.1899769034122,-95.0023950508991L239.0061131744747,-33.06021137130619" style="fill:none;stroke:rgb(41,170,178);stroke-width:5;stroke-linecap:round"></path><path d="M243.1899769034122,-95.0023950508991L239.0061131744747,-33.06021137130619" style="fill:none;stroke:rgb(197,147,42);stroke-width:5;stroke-linecap:round"></path><path d="M245.60974098725694,-30.647017185945273L245.98458291651866,-34.49169089852452L239.00611317447473,-33.06021137130623z" style="fill:rgb(186,45,138)"></path><path d="M245.60974098725694,-30.647017185945273L245.98458291651872,-34.49169089852452L239.00611317447473,-33.06021137130623z" style="fill:rgb(41,170,178)"></path><path d="M245.60974098725694,-30.647017185945273L245.98458291651866,-34.49169089852452L239.00611317447473,-33.06021137130623z" style="fill:rgb(197,147,42)"></path><path d="M236.10471035926068,-30.136079256795L230.6120420712794,-33.66629130725605L237.96219367175374,-17.60496288005698z" style="fill:rgb(186,45,138)"></path><path d="M236.10471035926068,-30.136079256795L230.6120420712794,-33.66629130725608L237.96219367175374,-17.60496288005698z" style="fill:rgb(41,170,178)"></path><path d="M236.10471035926068,-30.136079256795L230.6120420712794,-33.66629130725605L237.96219367175374,-17.60496288005698z" style="fill:rgb(197,147,42)"></path><path d="M245.60974098725694,-30.647017185945273L236.10471035926068,-30.136079256795L237.96219367175374,-17.60496288005698z" style="fill:rgb(186,45,138)"></path><path d="M245.60974098725694,-30.647017185945273L236.10471035926068,-30.136079256795L237.96219367175374,-17.60496288005698z" style="fill:rgb(41,170,178)"></path><path d="M245.60974098725694,-30.647017185945273L236.10471035926068,-30.136079256795L237.96219367175374,-17.60496288005698z" style="fill:rgb(197,147,42)"></path><path d="M230.6120420712794,-33.66629130725605L236.10471035926068,-30.136079256795L239.00611317447473,-33.06021137130623z" style="fill:rgb(186,45,138)"></path><path d="M230.6120420712794,-33.66629130725608L236.10471035926068,-30.136079256795L239.00611317447473,-33.06021137130623z" style="fill:rgb(41,170,178)"></path><path d="M230.6120420712794,-33.66629130725605L236.10471035926068,-30.136079256795L239.00611317447473,-33.06021137130623z" style="fill:rgb(197,147,42)"></path><path d="M236.10471035926068,-30.136079256795L245.60974098725694,-30.647017185945273L239.00611317447473,-33.06021137130623z" style="fill:rgb(186,45,138)"></path><path d="M236.10471035926068,-30.136079256795L245.60974098725694,-30.647017185945273L239.00611317447473,-33.06021137130623z" style="fill:rgb(41,170,178)"></path><path d="M236.10471035926068,-30.136079256795L245.60974098725694,-30.647017185945273L239.00611317447473,-33.06021137130623zM222.87810425225922,-24.30503647700691L213.60210364229636,-26.174412429134915L215.88235878014677,-22.86859988129742zM213.60210364229636,-26.174412429134915L207.4750078693477,-23.47578658770533L215.88235878014677,-22.86859988129742z" style="fill:rgb(197,147,42)"></path><path d="M221.02635935526177,-23.488681652171625L211.7494938215453,-25.358446607539918L214.0292285743884,-22.051847429449825z" style="fill:rgb(186,45,138)"></path><path d="M221.02635935526177,-23.488681652171625L211.7494938215453,-25.358446607539918L214.0292285743884,-22.051847429449825z" style="fill:rgb(41,170,178)"></path><path d="M243.1899769034122,-95.0023950508991L113.40728636864677,-234.16246932938503" style="fill:none;stroke:rgb(0,0,0);stroke-width:1;stroke-linecap:round"></path><path d="M117.2651198435203,-40.031183391396254L243.1899769034122,-95.0023950508991" style="fill:none;stroke:rgb(97,2,64);stroke-width:5;stroke-linecap:round"></path><path d="M243.1899769034122,-95.0023950508991L113.40728636864677,-234.16246932938503" style="fill:none;stroke:rgb(0,0,0);stroke-width:1;stroke-linecap:round"></path><path d="M243.1899769034122,-95.0023950508991L117.2651198435203,-40.031183391396254" style="fill:none;stroke:rgb(0,86,91);stroke-width:5;stroke-linecap:round"></path><path d="M243.1899769034122,-95.0023950508991L239.8759469225199,-287.6550238304579" style="fill:none;stroke:rgb(0,0,0);stroke-width:1;stroke-linecap:round"></path><path d="M-185.36430501069677,92.07860459226193L243.1899769034122,-95.0023950508991" style="fill:none;stroke:rgb(104,70,1);stroke-width:5;stroke-linecap:round"></path><path d="M243.1899769034122,-95.0023950508991L239.8759469225199,-287.6550238304579" style="fill:none;stroke:rgb(0,0,0);stroke-width:1;stroke-linecap:round"></path><path d="M211.7494938215453,-25.358446607539918L205.62081346440735,-22.659122849838173L214.0292285743884,-22.051847429449825z" style="fill:rgb(186,45,138)"></path><path d="M211.7494938215453,-25.358446607539918L205.62081346440735,-22.659122849838173L214.0292285743884,-22.051847429449825z" style="fill:rgb(41,170,178)"></path><path d="M220.0366731088793,-84.8950564902471L215.8823587801467,-22.868599881297378" style="fill:none;stroke:rgb(197,147,42);stroke-width:5;stroke-linecap:round"></path><path d="M222.4901953373043,-20.448652930249164L222.87810425225922,-24.30503647700691L215.88235878014677,-22.86859988129742zM212.96626303164706,-19.935331224102868L207.4750078693477,-23.47578658770533L214.8458154573896,-7.392373398477299zM222.4901953373043,-20.448652930249164L212.96626303164706,-19.935331224102868L214.8458154573896,-7.392373398477299z" style="fill:rgb(197,147,42)"></path><path d="M218.1811697431233,-84.08505542583947L214.02922857438833,-22.051847429449783" style="fill:none;stroke:rgb(186,45,138);stroke-width:5;stroke-linecap:round"></path><path d="M218.18116974312335,-84.08505542583947L214.02922857438836,-22.051847429449783" style="fill:none;stroke:rgb(41,170,178);stroke-width:5;stroke-linecap:round"></path><path d="M220.63740151550945,-19.631358915416047L221.02635935526177,-23.488681652171625L214.0292285743884,-22.051847429449825z" style="fill:rgb(186,45,138)"></path><path d="M220.6374015155095,-19.63135891541608L221.02635935526177,-23.488681652171625L214.0292285743884,-22.051847429449825z" style="fill:rgb(41,170,178)"></path><path d="M211.11195394098345,-19.11784595636773L205.62081346440735,-22.659122849838173L212.9932776419524,-6.573940336311563z" style="fill:rgb(186,45,138)"></path><path d="M211.11195394098348,-19.11784595636773L205.62081346440735,-22.659122849838173L212.99327764195243,-6.573940336311596z" style="fill:rgb(41,170,178)"></path><path d="M207.4750078693477,-23.47578658770533L212.96626303164706,-19.935331224102868L215.88235878014677,-22.86859988129742z" style="fill:rgb(197,147,42)"></path><path d="M220.63740151550945,-19.631358915416047L211.11195394098345,-19.11784595636773L212.9932776419524,-6.573940336311563z" style="fill:rgb(186,45,138)"></path><path d="M220.6374015155095,-19.63135891541608L211.11195394098348,-19.11784595636773L212.99327764195243,-6.573940336311596z" style="fill:rgb(41,170,178)"></path><path d="M212.96626303164706,-19.935331224102868L222.4901953373043,-20.448652930249164L215.88235878014677,-22.86859988129742z" style="fill:rgb(197,147,42)"></path><path d="M113.40728636864677,-234.16246932938503L77.57372846027035,325.3988251789118L186.90868019346615,261.88127362653z" style="fill:rgb(0,0,0); fill-opacity: 0.2"></path><path d="M205.62081346440735,-22.659122849838173L211.11195394098345,-19.11784595636773L214.0292285743884,-22.051847429449825z" style="fill:rgb(186,45,138)"></path><path d="M205.62081346440735,-22.659122849838173L211.11195394098348,-19.11784595636773L214.0292285743884,-22.051847429449825z" style="fill:rgb(41,170,178)"></path><path d="M211.11195394098345,-19.11784595636773L220.63740151550945,-19.631358915416047L214.0292285743884,-22.051847429449825z" style="fill:rgb(186,45,138)"></path><path d="M211.11195394098348,-19.11784595636773L220.6374015155095,-19.63135891541608L214.0292285743884,-22.051847429449825z" style="fill:rgb(41,170,178)"></path><path d="M236.53496417775563,-481.8744823740089L61.873176476061026,-542.3929551490996M61.873176476061026,-542.3929551490996L-372.4207538459606,-368.5958962108691M236.53496417775563,-481.8744823740089L61.873176476061026,-542.3929551490996" style="fill:none;stroke:rgb(0,0,0);stroke-width:1;stroke-linecap:round"></path><path d="M199.69682446103565,-14.085405450018818L190.41000243771015,-15.959653929019861L192.68372787816958,-12.643987163950012zM190.41000243771015,-15.959653929019861L184.26305509457237,-13.252284636811865L192.68372787816958,-12.643987163950012z" style="fill:rgb(197,147,42)"></path><path d="M196.80827916578195,-74.75493809131173L192.68372787816952,-12.643987163949978" style="fill:none;stroke:rgb(197,147,42);stroke-width:5;stroke-linecap:round"></path><path d="M199.2957658323727,-10.217256328610397L199.69682446103565,-14.085405450018818L192.68372787816958,-12.643987163950012zM189.75285916240466,-9.701538070286958L184.26305509457237,-13.252284636811865L191.65461400461453,2.8532722569756452z" style="fill:rgb(197,147,42)"></path><path d="M195.98085387443854,-12.447193554723004L186.69229843324612,-14.322223657156341L188.96497408774374,-11.004975902512532z" style="fill:rgb(186,45,138)"></path><path d="M195.98085387443857,-12.447193554723004L186.69229843324615,-14.322223657156373L188.96497408774374,-11.004975902512532z" style="fill:rgb(41,170,178)"></path><path d="M199.2957658323727,-10.217256328610397L189.75285916240466,-9.701538070286958L191.65461400461453,2.8532722569756452z" style="fill:rgb(197,147,42)"></path><path d="M186.69229843324612,-14.322223657156341L180.54216588749753,-11.613451470266412L188.96497408774374,-11.004975902512532z" style="fill:rgb(186,45,138)"></path><path d="M186.69229843324615,-14.322223657156373L180.54216588749756,-11.613451470266446L188.96497408774374,-11.004975902512532z" style="fill:rgb(41,170,178)"></path><path d="M184.26305509457237,-13.252284636811865L189.75285916240466,-9.701538070286958L192.68372787816958,-12.643987163950012zM189.75285916240466,-9.701538070286958L199.2957658323727,-10.217256328610397L192.68372787816958,-12.643987163950012z" style="fill:rgb(197,147,42)"></path><path d="M193.08474335518716,-73.12946652084496L188.96497408774366,-11.004975902512495" style="fill:none;stroke:rgb(186,45,138);stroke-width:5;stroke-linecap:round"></path><path d="M193.0847433551872,-73.12946652084496L188.96497408774368,-11.004975902512495" style="fill:none;stroke:rgb(41,170,178);stroke-width:5;stroke-linecap:round"></path><path d="M195.5776835744442,-8.577156744773037L195.98085387443854,-12.447193554723004L188.96497408774374,-11.004975902512532z" style="fill:rgb(186,45,138)"></path><path d="M195.57768357444422,-8.577156744773037L195.98085387443857,-12.447193554723004L188.96497408774374,-11.004975902512532z" style="fill:rgb(41,170,178)"></path><path d="M186.03173423353925,-8.061053846774467L180.54216588749753,-11.613451470266412L187.9370538962759,4.4956539011714485z" style="fill:rgb(186,45,138)"></path><path d="M186.03173423353928,-8.061053846774467L180.54216588749756,-11.613451470266446L187.9370538962759,4.4956539011714485z" style="fill:rgb(41,170,178)"></path><path d="M195.5776835744442,-8.577156744773037L186.03173423353925,-8.061053846774467L187.9370538962759,4.4956539011714485z" style="fill:rgb(186,45,138)"></path><path d="M195.57768357444422,-8.577156744773037L186.03173423353928,-8.061053846774467L187.9370538962759,4.4956539011714485z" style="fill:rgb(41,170,178)"></path><path d="M180.54216588749753,-11.613451470266412L186.03173423353925,-8.061053846774467L188.96497408774374,-11.004975902512532z" style="fill:rgb(186,45,138)"></path><path d="M180.54216588749756,-11.613451470266446L186.03173423353928,-8.061053846774467L188.96497408774374,-11.004975902512532z" style="fill:rgb(41,170,178)"></path><path d="M186.03173423353925,-8.061053846774467L195.5776835744442,-8.577156744773037L188.96497408774374,-11.004975902512532z" style="fill:rgb(186,45,138)"></path><path d="M186.03173423353928,-8.061053846774467L195.57768357444422,-8.577156744773037L188.96497408774374,-11.004975902512532z" style="fill:rgb(41,170,178)"></path><path d="M176.44037973061165,-3.8326374283646687L167.1427148206113,-5.711780229918233L169.40985619487356,-2.3862126685310243zM167.1427148206113,-5.711780229918233L160.97581927319717,-2.9956249252917773L169.40985619487356,-2.3862126685310243z" style="fill:rgb(197,147,42)"></path><path d="M173.5044291853893,-64.58188012910031L169.40985619487356,-2.386212668530991" style="fill:none;stroke:rgb(197,147,42);stroke-width:5;stroke-linecap:round"></path><path d="M176.02608806080775,0.04733336619533925L176.44037973061165,-3.8326374283646687L169.40985619487356,-2.3862126685310243zM166.4641339302708,0.5654610386846779L160.97581927319717,-2.9956249252917773L168.3882254420447,13.132134841115237zM176.02608806080775,0.04733336619533925L166.4641339302708,0.5654610386846779L168.3882254420447,13.132134841115237zM160.97581927319717,-2.9956249252917773L166.4641339302708,0.5654610386846779L169.40985619487356,-2.3862126685310243z" style="fill:rgb(197,147,42)"></path><path d="M170.84760781895514,-1.3670244048390452L161.54733741667735,-3.247345102027178L163.81289047762868,0.08060561453506689z" style="fill:rgb(186,45,138)"></path><path d="M170.84760781895514,-1.3670244048390452L161.54733741667735,-3.247345102027178L163.8128904776287,0.08060561453506689z" style="fill:rgb(41,170,178)"></path><path d="M236.53496417775554,-481.8744823740089L186.90868019346615,261.88127362653L113.40728636864677,-234.16246932938503z" style="fill:rgb(0,0,0); fill-opacity: 0.2"></path><path d="M161.54733741667735,-3.247345102027178L155.37563985139485,-0.5290747905539643L163.81289047762868,0.08060561453506689z" style="fill:rgb(186,45,138)"></path><path d="M161.54733741667735,-3.247345102027178L155.3756398513949,-0.5290747905539643L163.8128904776287,0.08060561453506689z" style="fill:rgb(41,170,178)"></path><path d="M166.4641339302708,0.5654610386846779L176.02608806080775,0.04733336619533925L169.40985619487356,-2.3862126685310243z" style="fill:rgb(197,147,42)"></path><path d="M167.9002364660321,-62.135426971643845L163.81289047762863,0.08060561453510046" style="fill:none;stroke:rgb(186,45,138);stroke-width:5;stroke-linecap:round"></path><path d="M167.90023646603214,-62.135426971643845L163.81289047762866,0.08060561453510046" style="fill:none;stroke:rgb(41,170,178);stroke-width:5;stroke-linecap:round"></path><path d="M170.43012775309248,2.515791978772566L170.84760781895514,-1.3670244048390452L163.81289047762868,0.08060561453506689z" style="fill:rgb(186,45,138)"></path><path d="M170.43012775309248,2.515791978772533L170.84760781895514,-1.3670244048390452L163.8128904776287,0.08060561453506689z" style="fill:rgb(41,170,178)"></path><path d="M160.86359130951476,3.034499834235447L155.37563985139485,-0.5290747905539643L162.79306370511097,15.60402249464224z" style="fill:rgb(186,45,138)"></path><path d="M160.86359130951482,3.0344998342354126L155.3756398513949,-0.5290747905539643L162.793063705111,15.604022494642205z" style="fill:rgb(41,170,178)"></path><path d="M170.43012775309248,2.515791978772566L160.86359130951476,3.034499834235447L162.79306370511097,15.60402249464224z" style="fill:rgb(186,45,138)"></path><path d="M170.43012775309248,2.515791978772533L160.86359130951482,3.0344998342354126L162.793063705111,15.604022494642205z" style="fill:rgb(41,170,178)"></path><path d="M155.37563985139485,-0.5290747905539643L160.86359130951476,3.034499834235447L163.81289047762868,0.08060561453506689z" style="fill:rgb(186,45,138)"></path><path d="M155.3756398513949,-0.5290747905539643L160.86359130951482,3.0344998342354126L163.8128904776287,0.08060561453506689z" style="fill:rgb(41,170,178)"></path><path d="M113.40728636864677,-234.16246932938503L77.57372846027035,325.3988251789118L243.1899769034122,-95.0023950508991z" style="fill:rgb(0,0,0); fill-opacity: 0.2"></path><path d="M160.86359130951476,3.034499834235447L170.43012775309248,2.515791978772566L163.81289047762868,0.08060561453506689z" style="fill:rgb(186,45,138)"></path><path d="M160.86359130951482,3.0344998342354126L170.43012775309248,2.515791978772533L163.8128904776287,0.08060561453506689z" style="fill:rgb(41,170,178)"></path><path d="M239.8759469225199,-287.6550238304579L236.53496417775554,-481.8744823740089M239.8759469225199,-287.6550238304579L236.53496417775554,-481.8744823740089" style="fill:none;stroke:rgb(0,0,0);stroke-width:1;stroke-linecap:round"></path><path d="M153.10840388560874,6.453429018959067L143.79987457743397,4.56936996373788L146.06037708983285,7.904885198821588zM143.79987457743397,4.56936996373788L137.61293356343924,7.294354119115566L146.06037708983285,7.904885198821588z" style="fill:rgb(197,147,42)"></path><path d="M150.1247548979685,-54.3757218392181L146.06037708983283,7.90488519882162" style="fill:none;stroke:rgb(197,147,42);stroke-width:5;stroke-linecap:round"></path><path d="M152.6807952426365,10.345277946091734L153.10840388560874,6.453429018959067L146.06037708983285,7.904885198821588zM143.09972014263843,10.865827982268012L137.61293356343924,7.294354119115566L145.04628353508483,23.444376152798604zM152.6807952426365,10.345277946091734L143.09972014263843,10.865827982268012L145.04628353508483,23.444376152798604zM137.61293356343924,7.294354119115566L143.09972014263843,10.865827982268012L146.06037708983285,7.904885198821588zM143.09972014263843,10.865827982268012L152.6807952426365,10.345277946091734L146.06037708983285,7.904885198821588z" style="fill:rgb(197,147,42)"></path><path d="M145.62615931451512,9.75202941802811L136.3141488494837,7.866392507516242L138.57251528300444,11.205100947730813z" style="fill:rgb(186,45,138)"></path><path d="M145.62615931451515,9.75202941802811L136.3141488494837,7.866392507516242L138.57251528300446,11.205100947730813z" style="fill:rgb(41,170,178)"></path><path d="M136.3141488494837,7.866392507516242L130.12077264108683,10.594210988086777L138.57251528300444,11.205100947730813z" style="fill:rgb(186,45,138)"></path><path d="M136.3141488494837,7.866392507516242L130.12077264108686,10.594210988086777L138.57251528300446,11.205100947730813z" style="fill:rgb(41,170,178)"></path><path d="M142.62718455854687,-51.10273399803016L138.57251528300444,11.205100947730847" style="fill:none;stroke:rgb(186,45,138);stroke-width:5;stroke-linecap:round"></path><path d="M142.6271845585469,-51.10273399803016L138.57251528300446,11.205100947730847" style="fill:none;stroke:rgb(41,170,178);stroke-width:5;stroke-linecap:round"></path><path d="M145.1942714142298,13.64769133115738L145.62615931451512,9.75202941802811L138.57251528300444,11.205100947730813z" style="fill:rgb(186,45,138)"></path><path d="M145.1942714142298,13.64769133115738L145.62615931451515,9.75202941802811L138.57251528300446,11.205100947730813z" style="fill:rgb(41,170,178)"></path><path d="M135.60706201111807,14.169019273047853L130.12077264108683,10.594210988086777L137.560845119548,26.75136952860443z" style="fill:rgb(186,45,138)"></path><path d="M135.6070620111181,14.169019273047853L130.12077264108686,10.594210988086777L137.56084511954802,26.75136952860443z" style="fill:rgb(41,170,178)"></path><path d="M145.1942714142298,13.64769133115738L135.60706201111807,14.169019273047853L137.560845119548,26.75136952860443z" style="fill:rgb(186,45,138)"></path><path d="M145.1942714142298,13.64769133115738L135.6070620111181,14.169019273047853L137.56084511954802,26.75136952860443z" style="fill:rgb(41,170,178)"></path><path d="M130.12077264108683,10.594210988086777L135.60706201111807,14.169019273047853L138.57251528300444,11.205100947730813z" style="fill:rgb(186,45,138)"></path><path d="M130.12077264108686,10.594210988086777L135.6070620111181,14.169019273047853L138.57251528300446,11.205100947730813z" style="fill:rgb(41,170,178)"></path><path d="M239.8759469225199,-287.6550238304579L113.40728636864677,-234.16246932938503L243.1899769034122,-95.0023950508991z" style="fill:rgb(0,0,0); fill-opacity: 0.2"></path><path d="M135.60706201111807,14.169019273047853L145.1942714142298,13.64769133115738L138.57251528300444,11.205100947730813z" style="fill:rgb(186,45,138)"></path><path d="M135.6070620111181,14.169019273047853L145.1942714142298,13.64769133115738L138.57251528300446,11.205100947730813z" style="fill:rgb(41,170,178)"></path><path d="M129.7005283682876,16.77295637323644L120.38111311243587,14.883958996725173L122.63492153661204,18.22946908358456zM120.38111311243587,14.883958996725173L114.17402873622588,17.617815120131727L122.63492153661204,18.22946908358456z" style="fill:rgb(197,147,42)"></path><path d="M126.6688856333849,-44.13630140939948L122.63492153661197,18.22946908358459" style="fill:none;stroke:rgb(197,147,42);stroke-width:5;stroke-linecap:round"></path><path d="M129.25951821029653,20.676740256202557L129.7005283682876,16.77295637323644L122.63492153661204,18.22946908358456zM119.65924821625755,21.199725693850805L114.17402873622588,17.617815120131727L121.62841966671147,33.79015904341626zM129.25951821029653,20.676740256202557L119.65924821625755,21.199725693850805L121.62841966671147,33.79015904341626zM114.17402873622588,17.617815120131727L119.65924821625755,21.199725693850805L122.63492153661204,18.22946908358456z" style="fill:rgb(197,147,42)"></path><path d="M236.53496417775554,-481.8744823740089L236.53496417775554,-481.8744823740089L239.8759469225199,-287.6550238304579z" style="fill:rgb(0,0,0); fill-opacity: 0.2"></path><path d="M119.65924821625755,21.199725693850805L129.25951821029653,20.676740256202557L122.63492153661204,18.22946908358456z" style="fill:rgb(197,147,42)"></path><path d="M120.31604323932659,20.910172966107577L110.99226756206664,19.019194051362497L113.24338279036135,22.368715356613194z" style="fill:rgb(186,45,138)"></path><path d="M120.3160432393266,20.910172966107577L110.99226756206664,19.019194051362497L113.24338279036137,22.368715356613194z" style="fill:rgb(41,170,178)"></path><path d="M110.99226756206664,19.019194051362497L104.7770982873448,21.756611097734478L113.24338279036135,22.368715356613194z" style="fill:rgb(186,45,138)"></path><path d="M110.99226756206664,19.019194051362497L104.77709828734483,21.756611097734478L113.24338279036137,22.368715356613194z" style="fill:rgb(41,170,178)"></path><path d="M117.26511984352027,-40.031183391396254L113.24338279036132,22.368715356613226" style="fill:none;stroke:rgb(186,45,138);stroke-width:5;stroke-linecap:round"></path><path d="M117.2651198435203,-40.031183391396254L113.24338279036135,22.368715356613226" style="fill:none;stroke:rgb(41,170,178);stroke-width:5;stroke-linecap:round"></path><path d="M119.86964866600496,24.81874682398077L120.31604323932659,20.910172966107577L113.24338279036135,22.368715356613194z" style="fill:rgb(186,45,138)"></path><path d="M119.86964866600498,24.81874682398077L120.3160432393266,20.910172966107577L113.24338279036137,22.368715356613194z" style="fill:rgb(41,170,178)"></path><path d="M110.26167992176715,25.34271009270933L104.7770982873448,21.756611097734478L112.23993294309076,37.937900522313704z" style="fill:rgb(186,45,138)"></path><path d="M110.26167992176717,25.342710092709297L104.77709828734483,21.756611097734478L112.23993294309078,37.937900522313704z" style="fill:rgb(41,170,178)"></path><path d="M117.2651198435203,-40.031183391396254L243.1899769034122,-95.0023950508991L113.40728636864677,-234.16246932938503zM243.1899769034122,-95.0023950508991L117.2651198435203,-40.031183391396254L113.40728636864677,-234.16246932938503z" style="fill:rgb(0,0,0); fill-opacity: 0.2"></path><path d="M119.86964866600496,24.81874682398077L110.26167992176715,25.34271009270933L112.23993294309076,37.937900522313704z" style="fill:rgb(186,45,138)"></path><path d="M119.86964866600498,24.81874682398077L110.26167992176717,25.342710092709297L112.23993294309078,37.937900522313704z" style="fill:rgb(41,170,178)"></path><path d="M104.7770982873448,21.756611097734478L110.26167992176715,25.34271009270933L113.24338279036135,22.368715356613194z" style="fill:rgb(186,45,138)"></path><path d="M104.77709828734483,21.756611097734478L110.26167992176717,25.342710092709297L113.24338279036137,22.368715356613194z" style="fill:rgb(41,170,178)"></path><path d="M110.26167992176715,25.34271009270933L119.86964866600496,24.81874682398077L113.24338279036135,22.368715356613194z" style="fill:rgb(186,45,138)"></path><path d="M110.26167992176717,25.342710092709297L119.86964866600498,24.81874682398077L113.24338279036137,22.368715356613194z" style="fill:rgb(41,170,178)"></path><path d="M106.21638221914205,27.12610817458756L96.88605942829713,25.232150271574252L99.13311810332537,28.587702691417935zM96.88605942829713,25.232150271574252L90.65873315574333,27.974921761506337L99.13311810332537,28.587702691417935z" style="fill:rgb(197,147,42)"></path><path d="M113.40728636864677,-234.16246932938503L236.53496417775554,-481.8744823740089M236.53496417775554,-481.8744823740089L236.53496417775554,-481.8744823740089M113.40728636864677,-234.16246932938503L236.53496417775554,-481.8744823740089M236.53496417775554,-481.8744823740089L-195.81113235300148,-304.9161450821412" style="fill:none;stroke:rgb(0,0,0);stroke-width:1;stroke-linecap:round"></path><path d="M103.1364483015131,-33.86345597095636L99.13311810332536,28.587702691417967" style="fill:none;stroke:rgb(197,147,42);stroke-width:5;stroke-linecap:round"></path><path d="M105.76188538917646,31.041884203435483L106.21638221914205,27.12610817458756L99.13311810332537,28.587702691417935zM96.14234615774764,31.567318169343796L90.65873315574333,27.974921761506337L98.13426281806892,44.169647425464696zM105.76188538917646,31.041884203435483L96.14234615774764,31.567318169343796L98.13426281806892,44.169647425464696zM90.65873315574333,27.974921761506337L96.14234615774764,31.567318169343796L99.13311810332537,28.587702691417935z" style="fill:rgb(197,147,42)"></path><path d="M239.8759469225199,-287.6550238304579L113.40728636864677,-234.16246932938503L236.53496417775554,-481.8744823740089z" style="fill:rgb(0,0,0); fill-opacity: 0.2"></path><path d="M96.14234615774764,31.567318169343796L105.76188538917646,31.041884203435483L99.13311810332537,28.587702691417935z" style="fill:rgb(197,147,42)"></path><path d="M117.2651198435203,-40.031183391396254L113.40728636864677,-234.16246932938503M117.2651198435203,-40.031183391396254L113.40728636864677,-234.16246932938503" style="fill:none;stroke:rgb(0,0,0);stroke-width:1;stroke-linecap:round"></path><path d="M82.65559205730247,37.51304903060759L73.31434010652897,35.61410825719838L75.55459293300528,38.979750796817314zM73.31434010652897,35.61410825719838L67.06667275979514,38.365838795668125L75.55459293300528,38.979750796817314z" style="fill:rgb(197,147,42)"></path><path d="M79.52706737245511,-23.557021590142995L75.55459293300528,38.97975079681735" style="fill:none;stroke:rgb(197,147,42);stroke-width:5;stroke-linecap:round"></path><path d="M82.18752277796582,41.44087476515017L82.65559205730247,37.51304903060759L75.55459293300528,38.979750796817314zM72.54863954391959,41.968770475856175L67.06667275979514,38.365838795668125L74.56343954887488,54.58300628120303zM82.18752277796582,41.44087476515017L72.54863954391959,41.968770475856175L74.56343954887488,54.58300628120303zM67.06667275979514,38.365838795668125L72.54863954391959,41.968770475856175L75.55459293300528,38.979750796817314zM72.54863954391959,41.968770475856175L82.18752277796582,41.44087476515017L75.55459293300528,38.979750796817314z" style="fill:rgb(197,147,42)"></path><path d="M-92.53762525814363,403.75241234446787L-238.61979709054555,457.4904698464628M-206.8982192021393,469.99329834647614L-92.53762525814363,403.75241234446787M-372.4207538459606,-368.5958962108691L-411.5493988822459,389.33152890779525M-238.6197970905455,457.4904698464629L-411.5493988822459,389.33152890779525" style="fill:none;stroke:rgb(0,0,0);stroke-width:1;stroke-linecap:round"></path><path d="M59.01778206074744,47.93394462509069L49.665579287690534,46.02999849760698L51.89896972377805,49.405779251851264z" style="fill:rgb(197,147,42)"></path><path d="M-185.36430501069677,92.07860459226193L243.1899769034122,-95.0023950508991L239.8759469225199,-287.6550238304579z" style="fill:rgb(0,0,0); fill-opacity: 0.2"></path><path d="M49.665579287690534,46.02999849760698L43.397471039967414,48.790732052460974L51.89896972377805,49.405779251851264z" style="fill:rgb(197,147,42)"></path><path d="M55.840364856564655,-13.21683325943557L51.898969723778045,49.4057792518513" style="fill:none;stroke:rgb(197,147,42);stroke-width:5;stroke-linecap:round"></path><path d="M58.536053928812215,51.87387799791106L59.01778206074744,47.93394462509069L51.89896972377805,49.405779251851264zM48.87775150190425,52.40424876045577L43.397471039967414,48.790732052460974L50.915573977634175,65.03040167139423z" style="fill:rgb(197,147,42)"></path><path d="M113.40728636864677,-234.16246932938503L113.40728636864677,-234.16246932938503L117.2651198435203,-40.031183391396254z" style="fill:rgb(0,0,0); fill-opacity: 0.2"></path><path d="M58.536053928812215,51.87387799791106L48.87775150190425,52.40424876045577L50.915573977634175,65.03040167139423zM43.397471039967414,48.790732052460974L48.87775150190425,52.40424876045577L51.89896972377805,49.405779251851264zM48.87775150190425,52.40424876045577L58.536053928812215,51.87387799791106L51.89896972377805,49.405779251851264zM35.30257394632092,58.38896172683979L25.939398651411164,56.47998762070437L28.165869708845058,59.86595499498447zM25.939398651411164,56.47998762070437L19.650749021599733,59.24976844796547L28.165869708845058,59.86595499498447z" style="fill:rgb(197,147,42)"></path><path d="M32.0759602842746,-2.842724888726133L28.165869708845047,59.865954994984506" style="fill:none;stroke:rgb(197,147,42);stroke-width:5;stroke-linecap:round"></path><path d="M34.80709992728314,62.341061046326466L35.30257394632092,58.38896172683979L28.165869708845058,59.86595499498447zM25.129302689085602,62.87392025901584L19.650749021599733,59.24976844796547L27.190287761657938,75.51200074413251zM34.80709992728314,62.341061046326466L25.129302689085602,62.87392025901584L27.190287761657938,75.51200074413251zM19.650749021599733,59.24976844796547L25.129302689085602,62.87392025901584L28.165869708845058,59.86595499498447zM25.129302689085602,62.87392025901584L34.80709992728314,62.341061046326466L28.165869708845058,59.86595499498447zM11.509586949552604,68.87826819856255L2.135417396216399,66.96424334717547L4.354911636267077,70.3604460599877zM2.135417396216399,66.96424334717547L-4.1738747564415375,69.74311599340759L4.354911636267077,70.3604460599877z" style="fill:rgb(197,147,42)"></path><path d="M8.233470685725923,7.565470703570209L4.354911636267067,70.36044605998772" style="fill:none;stroke:rgb(197,147,42);stroke-width:5;stroke-linecap:round"></path><path d="M11.000279372131203,72.84259215197477L11.509586949552604,68.87826819856255L4.354911636267077,70.3604460599877zM1.3029112728365226,73.37795330514858L-4.1738747564415375,69.74311599340759L3.3872000768866473,86.02797174375743zM11.000279372131203,72.84259215197477L1.3029112728365226,73.37795330514858L3.3872000768866473,86.02797174375743zM-4.1738747564415375,69.74311599340759L1.3029112728365226,73.37795330514858L4.354911636267077,70.3604460599877zM1.3029112728365226,73.37795330514858L11.000279372131203,72.84259215197477L4.354911636267077,70.3604460599877z" style="fill:rgb(197,147,42)"></path><path d="M-190.56592731617832,-105.59066641244662L239.8759469225199,-287.6550238304579L236.53496417775554,-481.8744823740089zM-195.81113235300145,-304.91614508214116L236.53496417775563,-481.8744823740089L61.873176476061026,-542.3929551490996z" style="fill:rgb(0,0,0); fill-opacity: 0.2"></path><path d="M-12.361562195720333,79.40203300585556L-21.746747780844917,77.48293449945872L-19.534288251451287,80.88942158493568zM-21.746747780844917,77.48293449945872L-28.076784262188927,80.27094380415512L-19.534288251451287,80.88942158493568z" style="fill:rgb(197,147,42)"></path><path d="M-15.687489429805124,18.007921799496135L-19.534288251451294,80.88942158493572" style="fill:none;stroke:rgb(197,147,42);stroke-width:5;stroke-linecap:round"></path><path d="M-12.88479164514111,83.37864066241823L-12.361562195720333,79.40203300585556L-19.534288251451287,80.88942158493568zM-22.601807089945446,83.91651733922698L-28.076784262188927,80.27094380415512L-20.494072402486427,96.57848401985592zM-12.88479164514111,83.37864066241823L-22.601807089945446,83.91651733922698L-20.494072402486427,96.57848401985592zM-28.076784262188927,80.27094380415512L-22.601807089945446,83.91651733922698L-19.534288251451287,80.88942158493568zM-22.601807089945446,83.91651733922698L-12.88479164514111,83.37864066241823L-19.534288251451287,80.88942158493568zM-36.31125927793277,89.96042622627687L-45.7074827047748,88.03623101080788L-43.50211623797796,91.4530518212937zM-45.7074827047748,88.03623101080788L-52.05836599120151,90.83342210880281L-43.50211623797796,91.4530518212937z" style="fill:rgb(197,147,42)"></path><path d="M-39.68730809468253,28.48479779062138L-43.50211623797797,91.45305182129373" style="fill:none;stroke:rgb(197,147,42);stroke-width:5;stroke-linecap:round"></path><path d="M-36.84849956091758,93.94937704030625L-36.31125927793277,89.96042622627687L-43.50211623797796,91.4530518212937zM-46.58523927350437,94.48978291749589L-52.05836599120151,90.83342210880281L-44.45391552459197,107.16370803635287zM-36.84849956091758,93.94937704030625L-46.58523927350437,94.48978291749589L-44.45391552459197,107.16370803635287zM-52.05836599120151,90.83342210880281L-46.58523927350437,94.48978291749589L-43.50211623797796,91.4530518212937zM-46.58523927350437,94.48978291749589L-36.84849956091758,93.94937704030625L-43.50211623797796,91.4530518212937z" style="fill:rgb(197,147,42)"></path><path d="M-92.53762525814363,403.75241234446787L-58.737686355214194,-161.3501670942855L-206.8982192021393,469.99329834647614z" style="fill:rgb(0,0,0); fill-opacity: 0.2"></path><path d="M-195.81113235300148,-304.9161450821412L-238.61979709054555,457.4904698464628" style="fill:none;stroke:rgb(0,0,0);stroke-width:1;stroke-linecap:round"></path><path d="M-50.71894197647288,96.31215496856764L-60.121798592238385,94.38489060124186L-57.92071616429397,97.80793546920721z" style="fill:rgb(112,56,202)"></path><path d="M-50.718941976472784,96.31215496856764L-60.121798592238285,94.38489060124182L-57.92071616429388,97.80793546920718z" style="fill:rgb(81,214,102)"></path><path d="M-60.121798592238385,94.38489060124186L-66.48523943140567,97.18761256370937L-57.92071616429397,97.80793546920721z" style="fill:rgb(112,56,202)"></path><path d="M-60.121798592238285,94.38489060124182L-66.48523943140557,97.18761256370934L-57.92071616429388,97.80793546920718z" style="fill:rgb(81,214,102)"></path><path d="M-54.12521377757132,34.787518220445165L-57.92071616429397,97.80793546920722" style="fill:none;stroke:rgb(112,56,202);stroke-width:5;stroke-linecap:round"></path><path d="M-54.125213777571226,34.787518220445136L-57.92071616429387,97.8079354692072" style="fill:none;stroke:rgb(81,214,102);stroke-width:5;stroke-linecap:round"></path><path d="M-51.26463173281581,100.30854037652772L-50.71894197647288,96.31215496856764L-57.92071616429397,97.80793546920721z" style="fill:rgb(112,56,202)"></path><path d="M-51.2646317328157,100.30854037652769L-50.718941976472784,96.31215496856764L-57.92071616429388,97.80793546920718z" style="fill:rgb(81,214,102)"></path><path d="M-61.013243112142014,100.85047037801598L-66.48523943140567,97.18761256370937L-58.86769677070072,113.53157541500359z" style="fill:rgb(112,56,202)"></path><path d="M-61.01324311214192,100.85047037801594L-66.48523943140557,97.18761256370934L-58.86769677070062,113.53157541500356z" style="fill:rgb(81,214,102)"></path><path d="M-51.26463173281581,100.30854037652772L-61.013243112142014,100.85047037801598L-58.86769677070072,113.53157541500359z" style="fill:rgb(112,56,202)"></path><path d="M-51.2646317328157,100.30854037652769L-61.01324311214192,100.85047037801594L-58.86769677070062,113.53157541500356z" style="fill:rgb(81,214,102)"></path><path d="M-66.48523943140567,97.18761256370937L-61.013243112142014,100.85047037801598L-57.92071616429397,97.80793546920721z" style="fill:rgb(112,56,202)"></path><path d="M-66.48523943140557,97.18761256370934L-61.01324311214192,100.85047037801594L-57.92071616429388,97.80793546920718z" style="fill:rgb(81,214,102)"></path><path d="M-61.013243112142014,100.85047037801598L-51.26463173281581,100.30854037652772L-57.92071616429397,97.80793546920721z" style="fill:rgb(112,56,202)"></path><path d="M-61.01324311214192,100.85047037801594L-51.2646317328157,100.30854037652769L-57.92071616429388,97.80793546920718z" style="fill:rgb(81,214,102)"></path><path d="M-60.33989262857467,100.55361905850826L-69.7471757434032,98.62430393444308L-67.54896115397428,102.05150814309422zM-69.7471757434032,98.62430393444308L-76.11900898739644,101.43072225834744L-67.54896115397428,102.05150814309422z" style="fill:rgb(197,147,42)"></path><path d="M-63.76637590389242,38.99626918720234L-67.54896115397429,102.05150814309427" style="fill:none;stroke:rgb(197,147,42);stroke-width:5;stroke-linecap:round"></path><path d="M-60.89123336030922,104.55497287256843L-60.33989262857467,100.55361905850826L-67.54896115397428,102.05150814309422zM-70.6477747040969,105.09792172127254L-76.11900898739644,101.43072225834744L-68.49271768066548,117.78381538069212zM-60.89123336030922,104.55497287256843L-70.6477747040969,105.09792172127254L-68.49271768066548,117.78381538069212zM-76.11900898739644,101.43072225834744L-70.6477747040969,105.09792172127254L-67.54896115397428,102.05150814309422zM-70.6477747040969,105.09792172127254L-60.89123336030922,104.55497287256843L-67.54896115397428,102.05150814309422z" style="fill:rgb(197,147,42)"></path><path d="M-206.8982192021393,469.99329834647614L-185.36430501069677,92.07860459226193" style="fill:none;stroke:rgb(114,20,32);stroke-width:5;stroke-linecap:round"></path><path d="M-206.8982192021393,469.9932983464761L-250.80840593094229,490.258789329062" style="fill:none;stroke:rgb(212,72,90);stroke-width:5;stroke-linecap:round"></path><path d="M-411.5493988822459,389.33152890779525L-372.4207538459606,-368.5958962108691L-238.6197970905455,457.4904698464629z" style="fill:rgb(0,0,0); fill-opacity: 0.2"></path><path d="M-76.72465106127981,107.77695561096098L-86.13946726096228,105.84414562270882L-83.94614978128531,109.27843908035314z" style="fill:rgb(112,56,202)"></path><path d="M-76.72465106127973,107.77695561096094L-86.13946726096223,105.8441456227088L-83.94614978128527,109.27843908035311z" style="fill:rgb(81,214,102)"></path><path d="M-54.125213777571226,34.787518220445136L-185.36430501069677,92.07860459226193" style="fill:none;stroke:rgb(47,10,107);stroke-width:5;stroke-linecap:round"></path><path d="M-54.125213777571226,34.787518220445136L-58.737686355214194,-161.3501670942855" style="fill:none;stroke:rgb(0,0,0);stroke-width:1;stroke-linecap:round"></path><path d="M-185.36430501069677,92.07860459226193L-54.125213777571226,34.787518220445136" style="fill:none;stroke:rgb(26,115,41);stroke-width:5;stroke-linecap:round"></path><path d="M-54.125213777571226,34.787518220445136L-58.737686355214194,-161.3501670942855" style="fill:none;stroke:rgb(0,0,0);stroke-width:1;stroke-linecap:round"></path><path d="M-86.13946726096228,105.84414562270882L-92.52560574440794,108.65686456444008L-83.94614978128531,109.27843908035314z" style="fill:rgb(112,56,202)"></path><path d="M-86.13946726096223,105.8441456227088L-92.52560574440786,108.65686456444004L-83.94614978128527,109.27843908035311z" style="fill:rgb(81,214,102)"></path><path d="M-80.18560964741232,46.16391816831336L-83.94614978128533,109.27843908035317" style="fill:none;stroke:rgb(112,56,202);stroke-width:5;stroke-linecap:round"></path><path d="M-80.18560964741228,46.16391816831333L-83.94614978128527,109.27843908035314" style="fill:none;stroke:rgb(81,214,102);stroke-width:5;stroke-linecap:round"></path><path d="M-77.28563162257117,111.78677784672199L-76.72465106127981,107.77695561096098L-83.94614978128531,109.27843908035314z" style="fill:rgb(112,56,202)"></path><path d="M-77.28563162257112,111.78677784672196L-76.72465106127973,107.77695561096094L-83.94614978128527,109.27843908035311zM-87.05568249221989,112.33146383066664L-92.52560574440786,108.65686456444004L-84.88440393524837,125.0255018194824z" style="fill:rgb(81,214,102)"></path><path d="M-87.05568249221993,112.33146383066664L-92.52560574440794,108.65686456444008L-84.88440393524841,125.02550181948244z" style="fill:rgb(112,56,202)"></path><path d="M-204.76344812854262,432.5286112793086L-248.70958778009214,452.702003246776" style="fill:none;stroke:rgb(212,72,90);stroke-width:5;stroke-linecap:round"></path><path d="M-77.28563162257112,111.78677784672196L-87.05568249221989,112.33146383066664L-84.88440393524837,125.0255018194824z" style="fill:rgb(81,214,102)"></path><path d="M-77.28563162257117,111.78677784672199L-87.05568249221993,112.33146383066664L-84.88440393524841,125.02550181948244z" style="fill:rgb(112,56,202)"></path><path d="M-92.52560574440786,108.65686456444004L-87.05568249221989,112.33146383066664L-83.94614978128527,109.27843908035311z" style="fill:rgb(81,214,102)"></path><path d="M-92.52560574440794,108.65686456444008L-87.05568249221993,112.33146383066664L-83.94614978128531,109.27843908035314z" style="fill:rgb(112,56,202)"></path><path d="M-87.05568249221989,112.33146383066664L-77.28563162257112,111.78677784672196L-83.94614978128527,109.27843908035311z" style="fill:rgb(81,214,102)"></path><path d="M-87.05568249221993,112.33146383066664L-77.28563162257117,111.78677784672199L-83.94614978128531,109.27843908035314z" style="fill:rgb(112,56,202)"></path><path d="M-84.44785314317993,111.18178383160853L-93.86621782837135,109.24732545279264L-91.67521439812188,112.68496305620431zM-93.86621782837135,109.24732545279264L-100.25910486408682,112.06301673545383L-91.67521439812188,112.68496305620431z" style="fill:rgb(197,147,42)"></path><path d="M-87.92508603623293,49.54250762743208L-91.6752143981219,112.68496305620434" style="fill:none;stroke:rgb(197,147,42);stroke-width:5;stroke-linecap:round"></path><path d="M-85.01338459820143,115.19560087969879L-84.44785314317993,111.18178383160853L-91.67521439812188,112.68496305620431zM-94.7898053810697,115.7411065662395L-100.25910486408682,112.06301673545383L-92.61086982603362,128.4389787731077zM-85.01338459820143,115.19560087969879L-94.7898053810697,115.7411065662395L-92.61086982603362,128.4389787731077zM-100.25910486408682,112.06301673545383L-94.7898053810697,115.7411065662395L-91.67521439812188,112.68496305620431zM-94.7898053810697,115.7411065662395L-85.01338459820143,115.19560087969879L-91.67521439812188,112.68496305620431z" style="fill:rgb(197,147,42)"></path><path d="M-202.62457103538455,394.991864617619L-246.60672072192597,415.0727649866414" style="fill:none;stroke:rgb(212,72,90);stroke-width:5;stroke-linecap:round"></path><path d="M-102.8231991526512,119.2826849855272L-112.25000048833054,117.34430202828945L-110.06451747656004,120.78990264998568z" style="fill:rgb(112,56,202)"></path><path d="M-102.82319915265116,119.28268498552717L-112.25000048833046,117.34430202828942L-110.06451747655996,120.78990264998568z" style="fill:rgb(81,214,102)"></path><path d="M-238.61979709054555,457.4904698464628L-195.81113235300148,-304.9161450821412L-92.53762525814363,403.75241234446787z" style="fill:rgb(0,0,0); fill-opacity: 0.2"></path><path d="M-112.25000048833054,117.34430202828945L-118.65895827272894,120.16707153190463L-110.06451747656004,120.78990264998568z" style="fill:rgb(112,56,202)"></path><path d="M-112.25000048833046,117.34430202828942L-118.6589582727289,120.1670715319046L-110.06451747655996,120.78990264998568z" style="fill:rgb(81,214,102)"></path><path d="M-190.56592731617832,-105.59066641244662L239.8759469225199,-287.6550238304579L-185.36430501069677,92.07860459226193z" style="fill:rgb(0,0,0); fill-opacity: 0.2"></path><path d="M-106.33921395006276,57.58100730660866L-110.06451747656004,120.78990264998569" style="fill:none;stroke:rgb(112,56,202);stroke-width:5;stroke-linecap:round"></path><path d="M-106.33921395006266,57.58100730660866L-110.06451747655996,120.78990264998569" style="fill:none;stroke:rgb(81,214,102);stroke-width:5;stroke-linecap:round"></path><path d="M-103.39957634202456,123.30601461868874L-102.8231991526512,119.2826849855272L-110.06451747656004,120.78990264998568z" style="fill:rgb(112,56,202)"></path><path d="M-103.39957634202447,123.30601461868868L-102.82319915265116,119.28268498552717L-110.06451747655996,120.78990264998568z" style="fill:rgb(81,214,102)"></path><path d="M-113.1911578119139,123.8534728348178L-118.65895827272894,120.16707153190463L-110.99397677728248,136.5604553707012z" style="fill:rgb(112,56,202)"></path><path d="M-113.19115781191381,123.85347283481775L-118.6589582727289,120.1670715319046L-110.99397677728238,136.5604553707012z" style="fill:rgb(81,214,102)"></path><path d="M-103.39957634202456,123.30601461868874L-113.1911578119139,123.8534728348178L-110.99397677728248,136.5604553707012z" style="fill:rgb(112,56,202)"></path><path d="M-103.39957634202447,123.30601461868868L-113.19115781191381,123.85347283481775L-110.99397677728238,136.5604553707012z" style="fill:rgb(81,214,102)"></path><path d="M-118.65895827272894,120.16707153190463L-113.1911578119139,123.8534728348178L-110.06451747656004,120.78990264998568z" style="fill:rgb(112,56,202)"></path><path d="M-118.6589582727289,120.1670715319046L-113.19115781191381,123.85347283481775L-110.06451747655996,120.78990264998568z" style="fill:rgb(81,214,102)"></path><path d="M-108.63553430252347,121.84509401435817L-118.0650024763228,119.90546888682681L-115.88126995835827,123.35359020768492z" style="fill:rgb(197,147,42)"></path><path d="M-200.48157606498194,357.38285026209763L-244.49979302878748,377.37086469099324" style="fill:none;stroke:rgb(212,72,90);stroke-width:5;stroke-linecap:round"></path><path d="M-118.0650024763228,119.90546888682681L-124.47904782522849,122.73047916381292L-115.88126995835827,123.35359020768492z" style="fill:rgb(197,147,42)"></path><path d="M-113.1911578119139,123.8534728348178L-103.39957634202456,123.30601461868874L-110.06451747656004,120.78990264998568z" style="fill:rgb(112,56,202)"></path><path d="M-113.19115781191381,123.85347283481775L-103.39957634202447,123.30601461868868L-110.06451747655996,120.78990264998568z" style="fill:rgb(81,214,102)"></path><path d="M-112.16383427571469,60.12368588678262L-115.88126995835829,123.35359020768495" style="fill:none;stroke:rgb(197,147,42);stroke-width:5;stroke-linecap:round"></path><path d="M-109.21534742051024,125.87143492513239L-108.63553430252347,121.84509401435817L-115.88126995835827,123.35359020768492zM-119.0117258981465,126.41951141182855L-124.47904782522849,122.73047916381292L-116.80876550130888,139.12937207598767zM-109.21534742051024,125.87143492513239L-119.0117258981465,126.41951141182855L-116.80876550130888,139.12937207598767z" style="fill:rgb(197,147,42)"></path><path d="M-372.4207538459606,-368.5958962108691L61.873176476061026,-542.3929551490996L-195.81113235300145,-304.91614508214116z" style="fill:rgb(0,0,0); fill-opacity: 0.2"></path><path d="M-124.47904782522849,122.73047916381292L-119.0117258981465,126.41951141182855L-115.88126995835827,123.35359020768492z" style="fill:rgb(197,147,42)"></path><path d="M-250.3714854677461,482.44042337649705L-256.97272562070987,485.35073663239683L-261.82682875613466,495.3440272895689z" style="fill:rgb(212,72,90)"></path><path d="M-119.0117258981465,126.41951141182855L-109.21534742051024,125.87143492513239L-115.88126995835827,123.35359020768492z" style="fill:rgb(197,147,42)"></path><path d="M-247.2678030902699,498.1238632943978L-244.37066268978538,490.3368525194054L-261.82682875613466,495.3440272895689zM-244.37066268978538,490.3368525194054L-250.3714854677461,482.44042337649705L-261.82682875613466,495.3440272895689z" style="fill:rgb(212,72,90)"></path><path d="M-198.3344513139496,319.70135931137537L-242.38879292768442,339.59609169091294" style="fill:none;stroke:rgb(212,72,90);stroke-width:5;stroke-linecap:round"></path><path d="M-248.2718247594376,444.86856035664323L-254.8802877456037,447.7971195228023L-259.73707175615004,457.76414882834234z" style="fill:rgb(212,72,90)"></path><path d="M-129.01508428508333,130.82956265429385L-138.4538963538024,128.8855791927332L-136.27631792716593,132.34254596606155z" style="fill:rgb(112,56,202)"></path><path d="M-129.01508428508322,130.8295626542938L-138.45389635380235,128.88557919273316L-136.27631792716582,132.34254596606155z" style="fill:rgb(81,214,102)"></path><path d="M-138.4538963538024,128.8855791927332L-144.88579596680438,131.71845322446632L-136.27631792716593,132.34254596606155z" style="fill:rgb(112,56,202)"></path><path d="M-138.45389635380235,128.88557919273316L-144.88579596680424,131.71845322446623L-136.27631792716582,132.34254596606155z" style="fill:rgb(81,214,102)"></path><path d="M-245.16556064353264,460.5744342253741L-242.26493671811104,452.76757838526026L-259.73707175615004,457.76414882834234zM-242.26493671811104,452.76757838526026L-248.2718247594376,444.86856035664323L-259.73707175615004,457.76414882834234z" style="fill:rgb(212,72,90)"></path><path d="M-132.5865276397122,69.03900432177184L-136.27631792716585,132.34254596606158" style="fill:none;stroke:rgb(81,214,102);stroke-width:5;stroke-linecap:round"></path><path d="M-132.58652763971227,69.03900432177184L-136.27631792716596,132.34254596606158" style="fill:none;stroke:rgb(112,56,202);stroke-width:5;stroke-linecap:round"></path><path d="M-129.60696476885764,134.8664707545517L-129.01508428508333,130.82956265429385L-136.27631792716593,132.34254596606155z" style="fill:rgb(112,56,202)"></path><path d="M-129.60696476885755,134.86647075455164L-129.01508428508322,130.8295626542938L-136.27631792716582,132.34254596606155z" style="fill:rgb(81,214,102)"></path><path d="M-139.42016851607465,135.41671757426175L-144.88579596680438,131.71845322446632L-137.19691340671577,148.1366561287407z" style="fill:rgb(112,56,202)"></path><path d="M-139.4201685160746,135.41671757426172L-144.88579596680424,131.71845322446623L-137.19691340671565,148.1366561287407z" style="fill:rgb(81,214,102)"></path><path d="M-132.90333219402888,132.54372422469712L-142.34392581030536,130.59890870548358L-140.16752443332334,134.05756439524356z" style="fill:rgb(197,147,42)"></path><path d="M-92.53762525814363,403.75241234446787L-58.737686355214194,-161.3501670942855L-195.81113235300148,-304.9161450821412z" style="fill:rgb(0,0,0); fill-opacity: 0.2"></path><path d="M-129.60696476885764,134.8664707545517L-139.42016851607465,135.41671757426175L-137.19691340671577,148.1366561287407z" style="fill:rgb(112,56,202)"></path><path d="M-129.60696476885755,134.86647075455164L-139.4201685160746,135.41671757426172L-137.19691340671565,148.1366561287407z" style="fill:rgb(81,214,102)"></path><path d="M-142.34392581030536,130.59890870548358L-148.77923468687777,133.4332843175922L-140.16752443332334,134.05756439524356z" style="fill:rgb(197,147,42)"></path><path d="M-144.88579596680438,131.71845322446632L-139.42016851607465,135.41671757426175L-136.27631792716593,132.34254596606155z" style="fill:rgb(112,56,202)"></path><path d="M-144.88579596680424,131.71845322446623L-139.4201685160746,135.41671757426172L-136.27631792716582,132.34254596606155z" style="fill:rgb(81,214,102)"></path><path d="M-139.42016851607465,135.41671757426175L-129.60696476885764,134.8664707545517L-136.27631792716593,132.34254596606155z" style="fill:rgb(112,56,202)"></path><path d="M-139.4201685160746,135.41671757426172L-129.60696476885755,134.86647075455164L-136.27631792716582,132.34254596606155z" style="fill:rgb(81,214,102)"></path><path d="M-136.4830190331743,70.73997788744012L-140.16752443332336,134.05756439524362" style="fill:none;stroke:rgb(197,147,42);stroke-width:5;stroke-linecap:round"></path><path d="M-133.49751858564966,136.58265002471464L-132.90333219402888,132.54372422469712L-140.16752443332334,134.05756439524356zM-143.3139334649267,137.1333113706988L-148.77923468687777,133.4332843175922L-141.0868008537946,149.85517030333062z" style="fill:rgb(197,147,42)"></path><path d="M-196.18318483298003,281.94718205815605L-240.2737086000694,301.74823450230514" style="fill:none;stroke:rgb(212,72,90);stroke-width:5;stroke-linecap:round"></path><path d="M-58.737686355214194,-161.3501670942855L-195.81113235300148,-304.9161450821412M-58.737686355214194,-161.3501670942855L-195.81113235300148,-304.9161450821412M-185.36430501069677,92.07860459226193L-58.737686355214194,-161.3501670942855M-185.36430501069677,92.07860459226193L-58.737686355214194,-161.3501670942855" style="fill:none;stroke:rgb(0,0,0);stroke-width:1;stroke-linecap:round"></path><path d="M-133.49751858564966,136.58265002471464L-143.3139334649267,137.1333113706988L-141.0868008537946,149.85517030333062z" style="fill:rgb(197,147,42)"></path><path d="M-206.8982192021393,469.99329834647614L-185.36430501069677,92.07860459226193L-58.737686355214194,-161.3501670942855z" style="fill:rgb(0,0,0); fill-opacity: 0.2"></path><path d="M-148.77923468687777,133.4332843175922L-143.3139334649267,137.1333113706988L-140.16752443332334,134.05756439524356zM-143.3139334649267,137.1333113706988L-133.49751858564966,136.58265002471464L-140.16752443332334,134.05756439524356z" style="fill:rgb(197,147,42)"></path><path d="M-185.36430501069677,92.07860459226193L-54.125213777571226,34.787518220445136L-58.737686355214194,-161.3501670942855z" style="fill:rgb(0,0,0); fill-opacity: 0.2"></path><path d="M-246.1681127042792,407.2242015053018L-252.7838141212545,410.17107159763674L-257.6432803209572,420.1117195467171zM-243.05926265953542,422.95256674235253L-240.1551471528008,415.1258037143265L-257.6432803209572,420.1117195467171zM-240.1551471528008,415.1258037143265L-246.1681127042792,407.2242015053018L-257.6432803209572,420.1117195467171z" style="fill:rgb(212,72,90)"></path><path d="M-194.0277646266214,244.12010798532592L-238.1545281816191,263.8270808219502" style="fill:none;stroke:rgb(212,72,90);stroke-width:5;stroke-linecap:round"></path><path d="M-155.30080806172595,142.41780975255452L-164.75165650515183,140.46819806242243L-162.58205338436025,143.93659039184197z" style="fill:rgb(112,56,202)"></path><path d="M-155.30080806172583,142.41780975255446L-164.75165650515174,140.4681980624224L-162.5820533843602,143.93659039184197z" style="fill:rgb(81,214,102)"></path><path d="M-164.75165650515183,140.46819806242243L-171.2066213531928,143.31123097556065L-162.58205338436025,143.93659039184197z" style="fill:rgb(112,56,202)"></path><path d="M-164.75165650515174,140.4681980624224L-171.20662135319276,143.31123097556062L-162.5820533843602,143.93659039184197z" style="fill:rgb(81,214,102)"></path><path d="M-244.06033756518767,369.50713679611874L-250.68329306058115,372.47238310531316L-255.54544275609058,382.3865291443581z" style="fill:rgb(212,72,90)"></path><path d="M-157.25164553338928,143.27785023925662L-166.70338658138562,141.32782053518903L-164.53437705401984,144.7970615767807zM-166.70338658138562,141.32782053518903L-173.1600648988631,144.17160813098133L-164.53437705401984,144.7970615767807z" style="fill:rgb(197,147,42)"></path><path d="M-240.9488973913488,385.2580510262911L-238.04128221971462,377.4113184384845L-255.54544275609058,382.3865291443581z" style="fill:rgb(212,72,90)"></path><path d="M-158.92805526687044,80.53812947018038L-162.58205338436028,143.936590391842" style="fill:none;stroke:rgb(112,56,202);stroke-width:5;stroke-linecap:round"></path><path d="M-158.9280552668704,80.53812947018038L-162.58205338436022,143.936590391842" style="fill:none;stroke:rgb(81,214,102);stroke-width:5;stroke-linecap:round"></path><path d="M-155.9082993574263,146.4683678941571L-155.30080806172595,142.41780975255452L-162.58205338436025,143.93659039184197z" style="fill:rgb(112,56,202)"></path><path d="M-155.90829935742624,146.46836789415704L-155.30080806172583,142.41780975255446L-162.5820533843602,143.93659039184197z" style="fill:rgb(81,214,102)"></path><path d="M-165.74321763085476,147.02141981163285L-171.2066213531928,143.31123097556065L-163.4937155021695,159.7543257303021z" style="fill:rgb(112,56,202)"></path><path d="M-165.74321763085467,147.02141981163282L-171.20662135319276,143.31123097556062L-163.49371550216944,159.7543257303021z" style="fill:rgb(81,214,102)"></path><path d="M-238.04128221971462,377.4113184384845L-244.06033756518767,369.50713679611874L-255.54544275609058,382.3865291443581z" style="fill:rgb(212,72,90)"></path><path d="M-155.9082993574263,146.4683678941571L-165.74321763085476,147.02141981163285L-163.4937155021695,159.7543257303021z" style="fill:rgb(112,56,202)"></path><path d="M-155.90829935742624,146.46836789415704L-165.74321763085467,147.02141981163282L-163.49371550216944,159.7543257303021z" style="fill:rgb(81,214,102)"></path><path d="M-160.88304136810362,81.39155870783411L-164.53437705401987,144.79706157678075" style="fill:none;stroke:rgb(197,147,42);stroke-width:5;stroke-linecap:round"></path><path d="M-157.86029748621323,147.32942235626527L-157.25164553338928,143.27785023925662L-164.53437705401984,144.7970615767807zM-167.696827928598,147.8826827183089L-173.1600648988631,144.17160813098133L-165.4453746591034,160.6165496302964z" style="fill:rgb(197,147,42)"></path><path d="M-171.2066213531928,143.31123097556065L-165.74321763085476,147.02141981163285L-162.58205338436025,143.93659039184197z" style="fill:rgb(112,56,202)"></path><path d="M-171.20662135319276,143.31123097556062L-165.74321763085467,147.02141981163282L-162.5820533843602,143.93659039184197z" style="fill:rgb(81,214,102)"></path><path d="M-58.737686355214194,-161.3501670942855L-58.737686355214194,-161.3501670942855L-185.36430501069677,92.07860459226193zM-58.737686355214194,-161.3501670942855L-190.56592731617832,-105.59066641244662L-54.125213777571226,34.787518220445136z" style="fill:rgb(0,0,0); fill-opacity: 0.2"></path><path d="M-157.86029748621323,147.32942235626527L-167.696827928598,147.8826827183089L-165.4453746591034,160.6165496302964z" style="fill:rgb(197,147,42)"></path><path d="M-165.74321763085476,147.02141981163285L-155.9082993574263,146.4683678941571L-162.58205338436025,143.93659039184197z" style="fill:rgb(112,56,202)"></path><path d="M-165.74321763085467,147.02141981163282L-155.90829935742624,146.46836789415704L-162.5820533843602,143.93659039184197z" style="fill:rgb(81,214,102)"></path><path d="M-173.1600648988631,144.17160813098133L-167.696827928598,147.8826827183089L-164.53437705401984,144.7970615767807zM-167.696827928598,147.8826827183089L-157.86029748621323,147.32942235626527L-164.53437705401984,144.7970615767807z" style="fill:rgb(197,147,42)"></path><path d="M-191.86817865305494,206.21992576204127L-236.03123976201272,225.832417523535" style="fill:none;stroke:rgb(212,72,90);stroke-width:5;stroke-linecap:round"></path><path d="M-195.81113235300148,-304.9161450821412L236.53496417775554,-481.8744823740089L-190.56592731617832,-105.59066641244662z" style="fill:rgb(0,0,0); fill-opacity: 0.2"></path><path d="M-241.9484875596983,331.71715539067185L-248.57871283133315,334.70084348357153L-253.44354732184306,344.5883665073578zM-238.83445304663238,347.4906764470401L-235.92333009918153,339.62391167727515L-253.44354732184306,344.5883665073578zM-235.92333009918153,339.62391167727515L-241.9484875596983,331.71715539067185L-253.44354732184306,344.5883665073578z" style="fill:rgb(212,72,90)"></path><path d="M-189.70441482387068,168.24642323979245L-233.90383138470855,187.76403065366043" style="fill:none;stroke:rgb(212,72,90);stroke-width:5;stroke-linecap:round"></path><path d="M-181.68087568640354,154.04764900298568L-191.14378619047966,152.09238116947225L-188.98222970568935,155.57225888003154z" style="fill:rgb(197,147,42)"></path><path d="M-181.68087568640362,154.04764900298574L-191.14378619047966,152.09238116947228L-188.98222970568935,155.57225888003154z" style="fill:rgb(112,56,202)"></path><path d="M-181.68087568640354,154.04764900298568L-191.14378619047966,152.09238116947225L-188.98222970568935,155.57225888003154z" style="fill:rgb(81,214,102)"></path><path d="M-191.14378619047966,152.09238116947225L-197.62194056667238,154.9456277078319L-188.98222970568935,155.57225888003154z" style="fill:rgb(197,147,42)"></path><path d="M-191.14378619047966,152.09238116947228L-197.6219405666725,154.94562770783193L-188.98222970568935,155.57225888003154z" style="fill:rgb(112,56,202)"></path><path d="M-191.14378619047966,152.09238116947225L-197.62194056667238,154.9456277078319L-188.98222970568935,155.57225888003154z" style="fill:rgb(81,214,102)"></path><path d="M-185.36430501069677,92.07860459226193L-188.9822297056894,155.5722588800316" style="fill:none;stroke:rgb(197,147,42);stroke-width:5;stroke-linecap:round"></path><path d="M-185.36430501069677,92.07860459226193L-188.9822297056894,155.5722588800316" style="fill:none;stroke:rgb(112,56,202);stroke-width:5;stroke-linecap:round"></path><path d="M-185.36430501069677,92.07860459226193L-188.9822297056894,155.5722588800316" style="fill:none;stroke:rgb(81,214,102);stroke-width:5;stroke-linecap:round"></path><path d="M-182.30408617087141,158.11192926923817L-181.68087568640354,154.04764900298568L-188.98222970568935,155.57225888003154z" style="fill:rgb(197,147,42)"></path><path d="M-182.30408617087141,158.11192926923823L-181.68087568640362,154.04764900298574L-188.98222970568935,155.57225888003154z" style="fill:rgb(112,56,202)"></path><path d="M-182.30408617087141,158.11192926923817L-181.68087568640354,154.04764900298568L-188.98222970568935,155.57225888003154z" style="fill:rgb(81,214,102)"></path><path d="M-192.16081179586584,158.66780290258455L-197.62194056667238,154.9456277078319L-189.88488834299054,171.41368740285185z" style="fill:rgb(197,147,42)"></path><path d="M-192.16081179586592,158.66780290258458L-197.6219405666725,154.94562770783193L-189.88488834299054,171.41368740285185z" style="fill:rgb(112,56,202)"></path><path d="M-192.16081179586584,158.66780290258455L-197.62194056667238,154.9456277078319L-189.88488834299054,171.41368740285185z" style="fill:rgb(81,214,102)"></path><path d="M-239.83255085974514,293.8540456345406L-246.47006165587172,296.8562413555596L-251.33758223304702,306.7170197042981z" style="fill:rgb(212,72,90)"></path><path d="M-54.125213777571226,34.787518220445136L-185.36430501069677,92.07860459226193L-190.56592731617832,-105.59066641244662z" style="fill:rgb(0,0,0); fill-opacity: 0.2"></path><path d="M-182.30408617087141,158.11192926923817L-192.16081179586584,158.66780290258455L-189.88488834299054,171.41368740285185z" style="fill:rgb(197,147,42)"></path><path d="M-182.30408617087141,158.11192926923823L-192.16081179586592,158.66780290258458L-189.88488834299054,171.41368740285185z" style="fill:rgb(112,56,202)"></path><path d="M-182.30408617087141,158.11192926923817L-192.16081179586584,158.66780290258455L-189.88488834299054,171.41368740285185z" style="fill:rgb(81,214,102)"></path><path d="M-236.71591778741572,309.6502315594168L-233.80127892577931,301.7633717339695L-251.33758223304702,306.7170197042981z" style="fill:rgb(212,72,90)"></path><path d="M-197.62194056667238,154.9456277078319L-192.16081179586584,158.66780290258455L-188.98222970568935,155.57225888003154z" style="fill:rgb(197,147,42)"></path><path d="M-197.6219405666725,154.94562770783193L-192.16081179586592,158.66780290258458L-188.98222970568935,155.57225888003154z" style="fill:rgb(112,56,202)"></path><path d="M-197.62194056667238,154.9456277078319L-192.16081179586584,158.66780290258455L-188.98222970568935,155.57225888003154z" style="fill:rgb(81,214,102)"></path><path d="M-233.80127892577931,301.7633717339695L-239.83255085974514,293.8540456345406L-251.33758223304702,306.7170197042981z" style="fill:rgb(212,72,90)"></path><path d="M-192.16081179586584,158.66780290258455L-182.30408617087141,158.11192926923817L-188.98222970568935,155.57225888003154z" style="fill:rgb(197,147,42)"></path><path d="M-192.16081179586592,158.66780290258458L-182.30408617087141,158.11192926923823L-188.98222970568935,155.57225888003154z" style="fill:rgb(112,56,202)"></path><path d="M-192.16081179586584,158.66780290258455L-182.30408617087141,158.11192926923817L-188.98222970568935,155.57225888003154z" style="fill:rgb(81,214,102)"></path><path d="M-187.5364610038415,130.19938744844578L-231.77229104671963,149.62170542782454" style="fill:none;stroke:rgb(212,72,90);stroke-width:5;stroke-linecap:round"></path><path d="M-237.71251559144048,255.9175950533559L-244.35732771095059,258.93836452588965L-249.22753565885426,268.7722759822895z" style="fill:rgb(212,72,90)"></path><path d="M-238.6197970905455,457.4904698464629L-195.81113235300145,-304.91614508214116L-372.4207538459606,-368.5958962108691z" style="fill:rgb(0,0,0); fill-opacity: 0.2"></path><path d="M-234.59327972987685,271.73650409926125L-231.67511678811286,263.8294860916157L-249.22753565885426,268.7722759822895zM-231.67511678811286,263.8294860916157L-237.71251559144048,255.9175950533559L-249.22753565885426,268.7722759822895z" style="fill:rgb(212,72,90)"></path><path d="M-185.36430501069677,92.07860459226193L-190.56592731617832,-105.59066641244662M-185.36430501069677,92.07860459226193L-190.56592731617832,-105.59066641244662" style="fill:none;stroke:rgb(0,0,0);stroke-width:1;stroke-linecap:round"></path><path d="M-185.36430501069677,92.07860459226193L-229.63660669838822,111.40522622638412" style="fill:none;stroke:rgb(212,72,90);stroke-width:5;stroke-linecap:round"></path><path d="M-235.5883698348526,217.9075903488252L-242.24049912749476,220.9469999766725L-247.1133957225143,230.75392176298735zM-232.46652694412035,233.74928097946596L-229.5448317285916,225.82204140906254L-247.1133957225143,230.75392176298735zM-229.5448317285916,225.82204140906254L-235.5883698348526,217.9075903488252L-247.1133957225143,230.75392176298735z" style="fill:rgb(212,72,90)"></path><path d="M-195.81113235300145,-304.91614508214116L-372.4207538459606,-368.5958962108691M-195.81113235300145,-304.91614508214116L-372.4207538459606,-368.5958962108691" style="fill:none;stroke:rgb(0,0,0);stroke-width:1;stroke-linecap:round"></path><path d="M-233.4601016237822,179.8238173947347L-240.11956399037817,182.88193386352816L-244.99515050115141,192.66174263858437zM-230.33564745395378,195.68834828598452L-227.41041174320486,187.74082351695964L-244.99515050115141,192.66174263858437zM-227.41041174320486,187.74082351695964L-233.4601016237822,179.8238173947347L-244.99515050115141,192.66174263858437zM-231.327698945538,141.66606123292885L-237.99451033820026,144.7429515115741L-242.87278802554084,154.49552336778zM-228.200629236663,157.55349127381612L-225.27184478129692,149.5856174137353L-242.87278802554084,154.49552336778zM-225.27184478129692,149.5856174137353L-231.327698945538,141.66606123292885L-242.87278802554084,154.49552336778z" style="fill:rgb(212,72,90)"></path><path d="M-58.737686355214194,-161.3501670942855L-190.56592731617832,-105.59066641244662L-195.81113235300148,-304.9161450821412z" style="fill:rgb(0,0,0); fill-opacity: 0.2"></path><path d="M-229.19114974071053,103.43410606926551L-235.8653261630612,106.52983741138927L-240.74629627988313,116.25504787172672zM-226.0614602227857,119.34449436296683L-223.12911874533958,111.35620726154971L-240.74629627988313,116.25504787172672zM-223.12911874533958,111.35620726154971L-229.19114974071053,103.43410606926551L-240.74629627988313,116.25504787172672z" style="fill:rgb(212,72,90)"></path><path d="M-195.81113235300148,-304.9161450821412L-195.81113235300148,-304.9161450821412L-58.737686355214194,-161.3501670942855z" style="fill:rgb(0,0,0); fill-opacity: 0.2"></path><path d="M-190.56592731617832,-105.59066641244662L-195.81113235300148,-304.9161450821412M-190.56592731617832,-105.59066641244662L-195.81113235300148,-304.9161450821412M-195.81113235300148,-304.9161450821412L-195.81113235300148,-304.9161450821412" style="fill:none;stroke:rgb(0,0,0);stroke-width:1;stroke-linecap:round"></path></svg>