<svg viewBox="-1163.5 -686.5 2327 1373" width="2327" height="1373" style="background-color: rgb(255, 255, 255);">
    <path d="M-206.08193300170979,96.61194648328393L-214.64785139447844,-673.55510750375" style="fill:none;stroke:rgb(0,0,0);stroke-width:1;stroke-linecap:round">
    </path>
    <path d="M-25.097551727696384,172.62896785095455L-206.08193300170979,96.61194648328393" style="fill:none;stroke:rgb(160,0,0);stroke-width:4;stroke-linecap:round">
    </path>
    <path d="M-20.38362733751045,-632.8500000364817L-25.097551727696384,172.62896785095455" style="fill:none;stroke:rgb(104,70,1);stroke-width:5;stroke-linecap:round">
    </path>
    <path d="M-25.097551727696384,172.62896785095455L52.42267702689723,205.1889978611838" style="fill:none;stroke:rgb(197,147,42);stroke-width:5;stroke-linecap:round">
    </path>
    <path d="M-24.730277857472103,109.87204740984836L53.26517981261527,141.35115135924792" style="fill:none;stroke:rgb(197,147,42);stroke-width:5;stroke-linecap:round">
    </path>
    <path d="M-20.38362733751045,-632.8500000364817L-25.097551727696384,172.62896785095455L-206.08193300170979,96.61194648328393z" style="fill:rgb(0,0,0); fill-opacity: 0.2">
    </path>
    <path d="M-24.358634338893925,46.36847522917794L54.11791155918844,76.73823936908877" style="fill:none;stroke:rgb(197,147,42);stroke-width:5;stroke-linecap:round">
    </path>
    <path d="M-214.64785139447844,-673.55510750375L-206.08193300170979,96.61194648328393L-20.38362733751045,-632.8500000364817z" style="fill:rgb(0,0,0); fill-opacity: 0.2">
    </path>
    <path d="M-23.982542723319263,-17.895153388814798L54.9810596915655,11.3360603885674" style="fill:none;stroke:rgb(197,147,42);stroke-width:5;stroke-linecap:round">
    </path>
    <path d="M-20.38362733751045,-632.8500000364817L-214.64785139447844,-673.55510750375" style="fill:none;stroke:rgb(0,0,0);stroke-width:1;stroke-linecap:round">
    </path>
    <path d="M-214.64785139447844,-673.55510750375L-925.7032034546347,-567.2444475811268" style="fill:none;stroke:rgb(0,0,0);stroke-width:1;stroke-linecap:round">
    </path>
    <path d="M-20.38362733751045,-632.8500000364817L-214.64785139447844,-673.55510750375" style="fill:none;stroke:rgb(0,0,0);stroke-width:1;stroke-linecap:round">
    </path>
    <path d="M62.32159118026611,197.5784318352621L52.59736398243718,191.9526747976987L72.29536004038859,213.53591795801995z" style="fill:rgb(197,147,42)">
    </path>
    <path d="M42.58725810577856,204.64201490082434L46.183235300940446,218.07649294265562L72.29536004038859,213.53591795801995z" style="fill:rgb(197,147,42)">
    </path>
    <path d="M52.59736398243718,191.9526747976987L42.58725810577856,204.64201490082434L72.29536004038859,213.53591795801995z" style="fill:rgb(197,147,42)">
    </path>
    <path d="M-23.601922672940397,-82.9325659478074L55.85481624174269,-54.869936168146566" style="fill:none;stroke:rgb(197,147,42);stroke-width:5;stroke-linecap:round">
    </path>
    <path d="M63.22213697443871,133.81408178945054L53.44198256775198,127.95451061827072L73.26269604002388,149.42218409445076z" style="fill:rgb(197,147,42)">
    </path>
    <path d="M43.37249512069325,140.6312573809412L46.98839600439254,154.2921362134796L73.26269604002388,149.42218409445076z" style="fill:rgb(197,147,42)">
    </path>
    <path d="M53.44198256775198,127.95451061827072L43.37249512069325,140.6312573809412L73.26269604002388,149.42218409445076z" style="fill:rgb(197,147,42)">
    </path>
    <path d="M-23.21669190357273,-148.75782253333577L56.73937799119467,-121.89466076282224" style="fill:none;stroke:rgb(197,147,42);stroke-width:5;stroke-linecap:round">
    </path>
    <path d="M64.1335958766992,69.27701452181452L54.29686878770261,63.178350573510116L74.24183705675131,84.52602951627284z" style="fill:rgb(197,147,42)">
    </path>
    <path d="M44.167291306478845,75.84125772513217L47.80333603656884,89.73306682229287L74.24183705675131,84.52602951627284z" style="fill:rgb(197,147,42)">
    </path>
    <path d="M54.29686878770261,63.178350573510116L44.167291306478845,75.84125772513217L74.24183705675131,84.52602951627284z" style="fill:rgb(197,147,42)">
    </path>
    <path d="M-22.826766125350737,-215.38532594616711L57.634946618622834,-189.75339492828962" style="fill:none;stroke:rgb(197,147,42);stroke-width:5;stroke-linecap:round">
    </path>
    <path d="M65.05616746926137,3.953098346620966L55.162211015548,-2.390078693762304L75.2330005134554,18.83304372604448z" style="fill:rgb(197,147,42)">
    </path>
    <path d="M44.97182228657933,10.257699504763643L48.62823465286965,24.385084261857585L75.2330005134554,18.83304372604448z" style="fill:rgb(197,147,42)">
    </path>
    <path d="M55.162211015548,-2.390078693762304L44.97182228657933,10.257699504763643L75.2330005134554,18.83304372604448z" style="fill:rgb(197,147,42)">
    </path>
    <path d="M-22.432058981242886,-282.829832208446L58.54172885325317,-258.4618028840901" style="fill:none;stroke:rgb(197,147,42);stroke-width:5;stroke-linecap:round">
    </path>
    <path d="M65.990056230882,-62.17214512813054L56.03820226084006,-68.76540184041917L76.23640920528132,-47.67153983992991z" style="fill:rgb(197,147,42)">
    </path>
    <path d="M45.78626801307715,-56.134086569689046L49.46327551663723,-41.76636116963363L76.23640920528132,-47.67153983992991z" style="fill:rgb(197,147,42)">
    </path>
    <path d="M56.03820226084006,-68.76540184041917L45.78626801307715,-56.134086569689046L76.23640920528132,-47.67153983992991z" style="fill:rgb(197,147,42)">
    </path>
    <path d="M-22.032481983290154,-351.1064614587119L59.45993663392926,-328.0359435912034" style="fill:none;stroke:rgb(197,147,42);stroke-width:5;stroke-linecap:round">
    </path>
    <path d="M66.93547168795192,-129.1135516989236L56.925040312944205,-135.96260569779218L77.25229146659446,-115.00285487742225z" style="fill:rgb(197,147,42)">
    </path>
    <path d="M46.610812900881584,-123.34913358736611L50.308646835484694,-108.73617916844465L77.25229146659446,-115.00285487742225z" style="fill:rgb(197,147,42)">
    </path>
    <path d="M56.925040312944205,-135.96260569779218L46.610812900881584,-123.34913358736611L77.25229146659446,-115.00285487742225z" style="fill:rgb(197,147,42)">
    </path>
    <path d="M-21.627944446470465,-420.2307092526844L60.389787274256754,-398.4922832653347" style="fill:none;stroke:rgb(197,147,42);stroke-width:5;stroke-linecap:round">
    </path>
    <path d="M67.89262857121653,-196.88632566353544L57.82292788992391,-203.99705055291952L78.28088134420456,-183.17641369536966z" style="fill:rgb(197,147,42)">
    </path>
    <path d="M47.44564596694,-191.40284978520893L51.16454150271585,-176.5396506285003L78.28088134420456,-183.17641369536966z" style="fill:rgb(197,147,42)">
    </path>
    <path d="M57.82292788992391,-203.99705055291952L47.44564596694,-191.40284978520893L78.28088134420456,-183.17641369536966z" style="fill:rgb(197,147,42)">
    </path>
    <path d="M-21.218353420084018,-490.21845828755727L61.33150363407034,-469.8477083692441" style="fill:none;stroke:rgb(197,147,42);stroke-width:5;stroke-linecap:round">
    </path>
    <path d="M52.03115724405956,-245.19243926558997L64.72665391881618,-248.4450739199451L79.32241877713186,-252.20811913052253z" style="fill:rgb(197,147,42)">
    </path>
    <path d="M68.86174697837211,-265.50605133387535L58.73207279302552,-272.8844818541111L79.32241877713186,-252.20811913052253z" style="fill:rgb(197,147,42)">
    </path>
    <path d="M48.290960974692545,-260.3110303235997L52.03115724405956,-245.19243926558997L79.32241877713186,-252.20811913052253z" style="fill:rgb(197,147,42)">
    </path>
    <path d="M58.73207279302552,-272.8844818541111L48.290960974692545,-260.3110303235997L79.32241877713186,-252.20811913052253z" style="fill:rgb(197,147,42)">
    </path>
    <path d="M-20.803613616551637,-561.0859905684341L62.28531429750679,-542.1195391056506" style="fill:none;stroke:rgb(197,147,42);stroke-width:5;stroke-linecap:round">
    </path>
    <path d="M52.908696769952776,-314.7106036811448L65.68142005698259,-317.78131124543506L80.3771497832044,-322.114276914877z" style="fill:rgb(197,147,42)">
    </path>
    <path d="M69.84305254279585,-334.9887049831626L59.65268806700998,-342.64104235956927L80.3771497832044,-322.114276914877z" style="fill:rgb(197,147,42)">
    </path>
    <path d="M49.14695658400294,-330.08986950835896L52.908696769952776,-314.7106036811448L80.3771497832044,-322.114276914877z" style="fill:rgb(197,147,42)">
    </path>
    <path d="M59.65268806700998,-342.64104235956927L49.14695658400294,-330.08986950835896L80.3771497832044,-322.114276914877z" style="fill:rgb(197,147,42)">
    </path>
    <path d="M-20.38362733751045,-632.8500000364813L63.25145375798361,-615.325543433358" style="fill:none;stroke:rgb(197,147,42);stroke-width:5;stroke-linecap:round">
    </path>
    <path d="M-744.0083122790021,-513.3459802366525L-20.38362733751045,-632.8500000364817" style="fill:none;stroke:rgb(45,114,23);stroke-width:5;stroke-linecap:round">
    </path>
    <path d="M-20.38362733751045,-632.8500000364817L63.25145375798361,-615.3255434333583" style="fill:none;stroke:rgb(109,213,75);stroke-width:5;stroke-linecap:round">
    </path>
    <path d="M53.79736793361887,-385.11060988510354L66.64826197797173,-387.9945060898596L81.4453266527922,-392.91160851609203z" style="fill:rgb(197,147,42)">
    </path>
    <path d="M70.83677660868253,-405.35066724668155L60.58499216659224,-413.2832847487538L81.4453266527922,-392.91160851609203z" style="fill:rgb(197,147,42)">
    </path>
    <path d="M50.01383650680798,-400.75597347896485L53.79736793361887,-385.11060988510354L81.4453266527922,-392.91160851609203z" style="fill:rgb(197,147,42)">
    </path>
    <path d="M60.58499216659224,-413.2832847487538L50.01383650680798,-400.75597347896485L81.4453266527922,-392.91160851609203z" style="fill:rgb(197,147,42)">
    </path>
    <path d="M54.69738389519989,-456.40934429838L67.62741023968775,-459.1014018387661L82.52720814999748,-464.6172644721314z" style="fill:rgb(197,147,42)">
    </path>
    <path d="M71.84315641287183,-476.608735996333L61.52920912926022,-484.82818471718554L82.52720814999748,-464.6172644721314z" style="fill:rgb(197,147,42)">
    </path>
    <path d="M-925.7032034546347,-567.2444475811268L-861.396726916527,303.3836625916948" style="fill:none;stroke:rgb(0,0,0);stroke-width:1;stroke-linecap:round">
    </path>
    <path d="M-690.7668484085556,402.51130148416877L-861.396726916527,303.3836625916948" style="fill:none;stroke:rgb(160,0,0);stroke-width:4;stroke-linecap:round">
    </path>
    <path d="M50.89180966874294,-472.326373383876L54.69738389519989,-456.40934429838L82.52720814999748,-464.6172644721314z" style="fill:rgb(197,147,42)">
    </path>
    <path d="M-72.87988698195687,-624.180431152891L10.602833587271965,-606.2539173463327" style="fill:none;stroke:rgb(109,213,75);stroke-width:5;stroke-linecap:round">
    </path>
    <path d="M61.52920912926022,-484.82818471718554L50.89180966874294,-472.326373383876L82.52720814999748,-464.6172644721314z" style="fill:rgb(197,147,42)">
    </path>
    <path d="M55.60896329221529,-528.6241272564989L68.61910130688894,-531.1191708403754L83.62305972163928,-537.2488382424666z" style="fill:rgb(197,147,42)">
    </path>
    <path d="M72.86243527366786,-548.7801397102354L62.48556875476163,-557.29315457645L83.62305972163928,-537.2488382424666z" style="fill:rgb(197,147,42)">
    </path>
    <path d="M51.78109037701135,-544.8185390649165L55.60896329221529,-528.6241272564989L83.62305972163928,-537.2488382424666z" style="fill:rgb(197,147,42)">
    </path>
    <path d="M62.48556875476163,-557.29315457645L51.78109037701135,-544.8185390649165L83.62305972163928,-537.2488382424666z" style="fill:rgb(197,147,42)">
    </path>
    <path d="M56.53233041663328,-601.7727270370826L69.62357774157259,-604.0654282315751L84.73315371438571,-610.8243805993379z" style="fill:rgb(197,147,42)">
    </path>
    <path d="M56.53233041663328,-601.7727270370829L69.62357774157259,-604.0654282315754L84.73315371438571,-610.8243805993383z" style="fill:rgb(109,213,75)">
    </path>
    <path d="M73.8948627869653,-621.8825513597282L63.45430679155978,-630.6960573822848L84.73315371438571,-610.8243805993379z" style="fill:rgb(197,147,42)">
    </path>
    <path d="M73.8948627869653,-621.8825513597282L63.45430679155978,-630.6960573822852L84.73315371438571,-610.8243805993383z" style="fill:rgb(109,213,75)">
    </path>
    <path d="M-126.62638201260879,-615.3043903820683L-43.327652411939006,-596.9614192316607" style="fill:none;stroke:rgb(109,213,75);stroke-width:5;stroke-linecap:round">
    </path>
    <path d="M52.68189849478337,-618.2503932738156L56.53233041663328,-601.7727270370826L84.73315371438571,-610.8243805993379z" style="fill:rgb(197,147,42)">
    </path>
    <path d="M52.68189849478337,-618.2503932738158L56.53233041663328,-601.7727270370829L84.73315371438571,-610.8243805993383z" style="fill:rgb(109,213,75)">
    </path>
    <path d="M63.45430679155978,-630.6960573822848L52.68189849478337,-618.2503932738156L84.73315371438571,-610.8243805993379z" style="fill:rgb(197,147,42)">
    </path>
    <path d="M63.45430679155978,-630.6960573822852L52.68189849478337,-618.2503932738158L84.73315371438571,-610.8243805993383z" style="fill:rgb(109,213,75)">
    </path>
    <path d="M3.7811370494778727,-592.5342854247714L17.188834332927822,-594.8824072510696L32.052316121049685,-601.6480007906254z" style="fill:rgb(109,213,75)">
    </path>
    <path d="M21.48065946968938,-612.9080077847093L10.736290992780477,-621.7971721464032L32.052316121049685,-601.6480007906254z" style="fill:rgb(109,213,75)">
    </path>
    <path d="M-181.66831353152745,-606.2144129242241L-98.58739665668284,-587.439883133895" style="fill:none;stroke:rgb(109,213,75);stroke-width:5;stroke-linecap:round">
    </path>
    <path d="M-0.24586620115284524,-609.1879159197917L3.7811370494778727,-592.5342854247714L32.052316121049685,-601.6480007906254z" style="fill:rgb(109,213,75)">
    </path>
    <path d="M-744.0083122790021,-513.3459802366525L-20.38362733751045,-632.8500000364817L-214.64785139447844,-673.55510750375z" style="fill:rgb(0,0,0); fill-opacity: 0.2">
    </path>
    <path d="M10.736290992780477,-621.7971721464032L-0.24586620115284524,-609.1879159197917L32.052316121049685,-601.6480007906254z" style="fill:rgb(109,213,75)">
    </path>
    <path d="M-50.25495602697098,-583.0708162787816L-36.519194399288494,-585.476392791805L-21.91837310727378,-592.2469440587604z" style="fill:rgb(109,213,75)">
    </path>
    <path d="M-32.20708533918879,-603.7154039724342L-43.26705300404052,-612.68132145855L-21.91837310727378,-592.2469440587604z" style="fill:rgb(109,213,75)">
    </path>
    <path d="M-238.0530881588846,-596.9026697461685L-155.22615693516389,-577.6807355320573" style="fill:none;stroke:rgb(109,213,75);stroke-width:5;stroke-linecap:round">
    </path>
    <path d="M-54.46605053059845,-599.9041459468966L-50.25495602697098,-583.0708162787816L-21.91837310727378,-592.2469440587604z" style="fill:rgb(109,213,75)">
    </path>
    <path d="M-43.26705300404052,-612.68132145855L-54.46605053059845,-599.9041459468966L-21.91837310727378,-592.2469440587604z" style="fill:rgb(109,213,75)">
    </path>
    <path d="M-861.396726916527,303.3836625916948L-925.7032034546347,-567.2444475811268L-690.7668484085556,402.51130148416877z" style="fill:rgb(0,0,0); fill-opacity: 0.2">
    </path>
    <path d="M-105.62347348376622,-573.3739964907512L-91.54745773000667,-575.839162515906L-77.22687269322934,-582.6128565605962z" style="fill:rgb(109,213,75)">
    </path>
    <path d="M-87.21535855608089,-594.2966946584111L-98.60331206647366,-603.3404725795026L-77.22687269322934,-582.6128565605962z" style="fill:rgb(109,213,75)">
    </path>
    <path d="M-295.83045421270367,-587.3609450917147L-213.29620584191585,-567.6749695911979" style="fill:none;stroke:rgb(109,213,75);stroke-width:5;stroke-linecap:round">
    </path>
    <path d="M-110.02657814022787,-590.3908777004L-105.62347348376622,-573.3739964907512L-77.22687269322934,-582.6128565605962z" style="fill:rgb(109,213,75)">
    </path>
    <path d="M-98.60331206647366,-603.3404725795026L-110.02657814022787,-590.3908777004L-77.22687269322934,-582.6128565605962z" style="fill:rgb(109,213,75)">
    </path>
    <path d="M-690.7668484085556,402.51130148416877L-744.0083122790021,-513.3459802366525" style="fill:none;stroke:rgb(1,93,85);stroke-width:5;stroke-linecap:round">
    </path>
    <path d="M-690.7668484085556,402.5113014841686L-616.9444792449821,445.3984981265301" style="fill:none;stroke:rgb(43,180,168);stroke-width:5;stroke-linecap:round">
    </path>
    <path d="M-925.7032034546347,-567.2444475811268L-214.64785139447844,-673.55510750375L-744.0083122790021,-513.3459802366525z" style="fill:rgb(0,0,0); fill-opacity: 0.2">
    </path>
    <path d="M-162.37431297947086,-563.4350873653858L-147.9452418426409,-565.9620848171722L-133.92354877140994,-572.7369651102528z" style="fill:rgb(109,213,75)">
    </path>
    <path d="M-143.59348730127851,-584.643433880239L-155.32245150061166,-593.7661912858188L-133.92354877140994,-572.7369651102528z" style="fill:rgb(109,213,75)">
    </path>
    <path d="M-355.0526481048656,-577.5806123049049L-272.8524916868307,-557.4131174369484" style="fill:none;stroke:rgb(109,213,75);stroke-width:5;stroke-linecap:round">
    </path>
    <path d="M-694.8717134916308,331.8995958037223L-620.6318712321655,373.42728401979315" style="fill:none;stroke:rgb(43,180,168);stroke-width:5;stroke-linecap:round">
    </path>
    <path d="M-166.97777171023796,-580.6394947546459L-162.37431297947086,-563.4350873653858L-133.92354877140994,-572.7369651102528z" style="fill:rgb(109,213,75)">
    </path>
    <path d="M-155.32245150061166,-593.7661912858188L-166.97777171023796,-580.6394947546459L-133.92354877140994,-572.7369651102528z" style="fill:rgb(109,213,75)">
    </path>
    <path d="M-699.032795786978,260.32084415056863L-624.3709571267116,300.4470984536258" style="fill:none;stroke:rgb(43,180,168);stroke-width:5;stroke-linecap:round">
    </path>
    <path d="M-220.55989514148243,-553.2449083538756L-205.76431706125857,-555.8360930359581L-192.06132786595884,-562.6100505322256z" style="fill:rgb(109,213,75)">
    </path>
    <path d="M-201.3932864295036,-574.74674971691L-213.4769655271809,-583.949616469228L-192.06132786595884,-562.6100505322256z" style="fill:rgb(109,213,75)">
    </path>
    <path d="M-415.7745518588676,-567.552607816517L-333.95281191919173,-546.8852202736746" style="fill:none;stroke:rgb(109,213,75);stroke-width:5;stroke-linecap:round">
    </path>
    <path d="M-225.37250497487184,-570.6409438835631L-220.55989514148243,-553.2449083538756L-192.06132786595884,-562.6100505322256z" style="fill:rgb(109,213,75)">
    </path>
    <path d="M-213.4769655271809,-583.949616469228L-225.37250497487184,-570.6409438835631L-192.06132786595884,-562.6100505322256z" style="fill:rgb(109,213,75)">
    </path>
    <path d="M-703.251258121579,187.75504362692644L-628.1628316550405,226.43657435073774" style="fill:none;stroke:rgb(43,180,168);stroke-width:5;stroke-linecap:round">
    </path>
    <path d="M-744.0083122790021,-513.3459802366525L-925.7032034546347,-567.2444475811268" style="fill:none;stroke:rgb(0,0,0);stroke-width:1;stroke-linecap:round">
    </path>
    <path d="M-744.0083122790021,-513.3459802366525L-925.7032034546347,-567.2444475811268" style="fill:none;stroke:rgb(0,0,0);stroke-width:1;stroke-linecap:round">
    </path>
    <path d="M-604.1057746323227,436.11525179330255L-617.708475829982,430.48666830561973L-597.9477815688247,456.4346531297325z" style="fill:rgb(43,180,168)">
    </path>
    <path d="M-630.322836688859,445.4992220988789L-624.4280256835982,460.35743637927135L-597.9477815688247,456.4346531297325z" style="fill:rgb(43,180,168)">
    </path>
    <path d="M-617.708475829982,430.48666830561973L-630.322836688859,445.4992220988789L-597.9477815688247,456.4346531297325z" style="fill:rgb(43,180,168)">
    </path>
    <path d="M-707.52829561512,114.18163583738364L-632.0086206741477,151.3737370213858" style="fill:none;stroke:rgb(43,180,168);stroke-width:5;stroke-linecap:round">
    </path>
    <path d="M-280.2353250682186,-542.7938087696338L-265.05909635607674,-545.4516576997302L-251.69586168337784,-552.2224189564248z" style="fill:rgb(109,213,75)">
    </path>
    <path d="M-260.66921736367493,-564.5973170927347L-273.12203932822433,-573.8814327828935L-251.69586168337784,-552.2224189564248z" style="fill:rgb(109,213,75)">
    </path>
    <path d="M-607.6960428648142,364.2347147251761L-621.4065486003655,358.3069846526096L-601.5239351056863,384.11572825354756z" style="fill:rgb(43,180,168)">
    </path>
    <path d="M-478.0538627477189,-557.2674031289754L-396.65800021723425,-536.0807961479912" style="fill:none;stroke:rgb(109,213,75);stroke-width:5;stroke-linecap:round">
    </path>
    <path d="M-285.2663664511017,-560.3857070264688L-280.2353250682186,-542.7938087696338L-251.69586168337784,-552.2224189564248z" style="fill:rgb(109,213,75)">
    </path>
    <path d="M-634.1149435519441,373.30804140005176L-628.1691511525181,388.458784683025L-601.5239351056863,384.11572825354756z" style="fill:rgb(43,180,168)">
    </path>
    <path d="M-273.12203932822433,-573.8814327828935L-285.2663664511017,-560.3857070264688L-251.69586168337784,-552.2224189564248z" style="fill:rgb(109,213,75)">
    </path>
    <path d="M-621.4065486003655,358.3069846526096L-634.1149435519441,373.30804140005176L-601.5239351056863,384.11572825354756z" style="fill:rgb(43,180,168)">
    </path>
    <path d="M-711.8651368088217,39.57948747077566L-635.909482286097,75.235982410495" style="fill:none;stroke:rgb(43,180,168);stroke-width:5;stroke-linecap:round">
    </path>
    <path d="M-690.7668484085556,402.51130148416877L-744.0083122790021,-513.3459802366525L-925.7032034546347,-567.2444475811268z" style="fill:rgb(0,0,0); fill-opacity: 0.2">
    </path>
    <path d="M-611.3365341515168,291.348665011161L-625.1565408322165,285.11392713249313L-605.1505212146548,310.77692843185866z" style="fill:rgb(43,180,168)">
    </path>
    <path d="M-637.96037647546,300.101680643398L-631.9627470193967,315.55173300165853L-605.1505212146548,310.77692843185866z" style="fill:rgb(43,180,168)">
    </path>
    <path d="M-625.1565408322165,285.11392713249313L-637.96037647546,300.101680643398L-605.1505212146548,310.77692843185866z" style="fill:rgb(43,180,168)">
    </path>
    <path d="M-716.263044841957,-36.07312993821341L-639.8666080007366,-1.999945596478815" style="fill:none;stroke:rgb(43,180,168);stroke-width:5;stroke-linecap:round">
    </path>
    <path d="M-341.4585663980288,-532.0716373031948L-325.88680614234664,-534.7987566106531L-312.88570479906195,-541.5638708672783z" style="fill:rgb(109,213,75)">
    </path>
    <path d="M-321.4785592553017,-554.1853284706594L-334.31572371580893,-563.5518411570549L-312.88570479906195,-541.5638708672783z" style="fill:rgb(109,213,75)">
    </path>
    <path d="M-541.9512761541184,-546.7149746176489L-461.03212851624266,-524.9888051382878" style="fill:none;stroke:rgb(109,213,75);stroke-width:5;stroke-linecap:round">
    </path>
    <path d="M-615.0283097452937,217.4358553736628L-628.9595536478791,210.88600383112794L-608.8286143068574,236.3965263375845z" style="fill:rgb(43,180,168)">
    </path>
    <path d="M-346.71783594116226,-549.8637710666849L-341.4585663980288,-532.0716373031948L-312.88570479906195,-541.5638708672783z" style="fill:rgb(109,213,75)">
    </path>
    <path d="M-334.31572371580893,-563.5518411570549L-346.71783594116226,-549.8637710666849L-312.88570479906195,-541.5638708672783z" style="fill:rgb(109,213,75)">
    </path>
    <path d="M-641.8602682616136,225.85857442168492L-635.809924949369,241.61491684873658L-608.8286143068574,236.3965263375845z" style="fill:rgb(43,180,168)">
    </path>
    <path d="M-628.9595536478791,210.88600383112794L-641.8602682616136,225.85857442168492L-608.8286143068574,236.3965263375845z" style="fill:rgb(43,180,168)">
    </path>
    <path d="M-720.7233186784204,-112.7985611084384L-643.8812239490945,-80.35797885680674" style="fill:none;stroke:rgb(43,180,168);stroke-width:5;stroke-linecap:round">
    </path>
    <path d="M-618.772461011257,142.47443565963184L-632.8167195285984,135.60111076542518L-612.5593195305767,160.95217306014285z" style="fill:rgb(43,180,168)">
    </path>
    <path d="M-645.8157840268237,150.5565421548356L-639.7118282340083,166.62636392652982L-612.5593195305767,160.95217306014285z" style="fill:rgb(43,180,168)">
    </path>
    <path d="M-632.8167195285984,135.60111076542518L-645.8157840268237,150.5565421548356L-612.5593195305767,160.95217306014285z" style="fill:rgb(43,180,168)">
    </path>
    <path d="M-725.2472943858514,-190.61978901570816L-647.9545921500453,-159.86274969352837" style="fill:none;stroke:rgb(43,180,168);stroke-width:5;stroke-linecap:round">
    </path>
    <path d="M-404.29062910062953,-521.0677091338559L-388.3076704995535,-523.866842582844L-375.6925064300811,-530.6236676991794z" style="fill:rgb(109,213,75)">
    </path>
    <path d="M-383.88159360220266,-543.5004622413742L-397.1191235848475,-552.9505269878914L-375.6925064300811,-530.6236676991794z" style="fill:rgb(109,213,75)">
    </path>
    <path d="M-607.5306828711032,-535.8847709473564L-527.1427253855501,-513.5976117272575" style="fill:none;stroke:rgb(109,213,75);stroke-width:5;stroke-linecap:round">
    </path>
    <path d="M-409.78847498695006,-539.0645952212676L-404.29062910062953,-521.0677091338559L-375.6925064300811,-530.6236676991794z" style="fill:rgb(109,213,75)">
    </path>
    <path d="M-397.1191235848475,-552.9505269878914L-409.78847498695006,-539.0645952212676L-375.6925064300811,-530.6236676991794z" style="fill:rgb(109,213,75)">
    </path>
    <path d="M-622.5701105024121,66.44193130513045L-636.7292034388629,59.236509938189286L-616.3437738783437,84.42087571721191z" style="fill:rgb(43,180,168)">
    </path>
    <path d="M-649.8281223622386,74.17276599691824L-643.6696329240838,90.56347235618739L-616.3437738783437,84.42087571721191z" style="fill:rgb(43,180,168)">
    </path>
    <path d="M-636.7292034388629,59.236509938189286L-649.8281223622386,74.17276599691824L-616.3437738783437,84.42087571721191z" style="fill:rgb(43,180,168)">
    </path>
    <path d="M-729.836346469956,-269.56045784574457L-652.0880118329969,-240.53961671193008" style="fill:none;stroke:rgb(43,180,168);stroke-width:5;stroke-linecap:round">
    </path>
    <path d="M-626.4224130817444,-10.684779129867898L-640.6982039994747,-18.231193558048492L-620.183147342229,6.778974091811447z" style="fill:rgb(43,180,168)">
    </path>
    <path d="M-653.8985165446277,-3.3162322158790833L-647.6845490113535,13.402987965487782L-620.183147342229,6.778974091811447z" style="fill:rgb(43,180,168)">
    </path>
    <path d="M-640.6982039994747,-18.231193558048492L-653.8985165446277,-3.3162322158790833L-620.183147342229,6.778974091811447z" style="fill:rgb(43,180,168)">
    </path>
    <path d="M-734.4918892668292,-349.64489694483495L-656.2828208195147,-322.41469176629647" style="fill:none;stroke:rgb(43,180,168);stroke-width:5;stroke-linecap:round">
    </path>
    <path d="M-468.7957722699655,-509.770770414082L-452.38511005748967,-512.6448086109832L-440.18121761446895,-519.390495748299z" style="fill:rgb(109,213,75)">
    </path>
    <path d="M-447.9418035743548,-532.5318485940417L-461.5966014360321,-542.0666257825259L-440.18121761446895,-519.390495748299z" style="fill:rgb(109,213,75)">
    </path>
    <path d="M-674.8593821913371,-524.7656778814357L-595.0610123190615,-501.89494408783287" style="fill:none;stroke:rgb(109,213,75);stroke-width:5;stroke-linecap:round">
    </path>
    <path d="M-474.5431325801148,-527.9770758186075L-468.7957722699655,-509.770770414082L-440.18121761446895,-519.390495748299z" style="fill:rgb(109,213,75)">
    </path>
    <path d="M-461.5966014360321,-542.0666257825259L-474.5431325801148,-527.9770758186075L-440.18121761446895,-519.390495748299z" style="fill:rgb(109,213,75)">
    </path>
    <path d="M-651.7578216618896,-64.87901941377305L-634.6718853900476,-69.25650143307833L-624.0786441197957,-71.99788375516054z" style="fill:rgb(43,180,168)">
    </path>
    <path d="M-630.3305570930999,-88.92948740361888L-644.7249547118209,-96.82607543663485L-624.0786441197957,-71.99788375516054z" style="fill:rgb(43,180,168)">
    </path>
    <path d="M-658.0282358002199,-81.93461502520728L-651.7578216618896,-64.87901941377305L-624.0786441197957,-71.99788375516054z" style="fill:rgb(43,180,168)">
    </path>
    <path d="M-644.7249547118209,-96.82607543663485L-658.0282358002199,-81.93461502520728L-624.0786441197957,-71.99788375516054z" style="fill:rgb(43,180,168)">
    </path>
    <path d="M-739.2153783962377,-430.8981458191454L-660.54039696696,-405.51486813717736" style="fill:none;stroke:rgb(43,180,168);stroke-width:5;stroke-linecap:round">
    </path>
    <path d="M-655.8907325035772,-144.3071806895076L-638.6661706032071,-148.4481607554237L-628.0315038733305,-151.93476694974095z" style="fill:rgb(43,180,168)">
    </path>
    <path d="M-634.2957655833554,-168.31668006161337L-648.8107252359821,-176.57291716310866L-628.0315038733305,-151.93476694974095z" style="fill:rgb(43,180,168)">
    </path>
    <path d="M-662.2185866242065,-161.70725447024242L-655.8907325035772,-144.3071806895076L-628.0315038733305,-151.93476694974095z" style="fill:rgb(43,180,168)">
    </path>
    <path d="M-535.0417233354539,-498.16895987851933L-518.1859569298654,-501.1209502284808L-506.4203152606189,-507.8524271458289z" style="fill:rgb(109,213,75)">
    </path>
    <path d="M-648.8107252359821,-176.57291716310866L-662.2185866242065,-161.70725447024242L-628.0315038733305,-151.93476694974095z" style="fill:rgb(43,180,168)">
    </path>
    <path d="M-513.7260894333322,-521.2680326314269L-527.8159973938418,-530.8886860196334L-506.4203152606189,-507.8524271458289z" style="fill:rgb(109,213,75)">
    </path>
    <path d="M-744.0083122790018,-513.3459802366525L-664.8621596774258,-489.86784998304336" style="fill:none;stroke:rgb(109,213,75);stroke-width:5;stroke-linecap:round">
    </path>
    <path d="M-744.0083122790021,-513.3459802366525L-664.8621596774262,-489.86784998304336" style="fill:none;stroke:rgb(43,180,168);stroke-width:5;stroke-linecap:round">
    </path>
    <path d="M-541.0501675728024,-516.5895082164794L-535.0417233354539,-498.16895987851933L-506.4203152606189,-507.8524271458289z" style="fill:rgb(109,213,75)">
    </path>
    <path d="M-527.8159973938418,-530.8886860196334L-541.0501675728024,-516.5895082164794L-506.4203152606189,-507.8524271458289z" style="fill:rgb(109,213,75)">
    </path>
    <path d="M-660.0846009705814,-224.9068533479236L-642.719168238994,-228.80386669000924L-632.0430030451116,-233.0574884030029z" style="fill:rgb(43,180,168)">
    </path>
    <path d="M-638.3192975785214,-248.87156398531502L-652.9568227254504,-257.4972320065222L-632.0430030451116,-233.0574884030029z" style="fill:rgb(43,180,168)">
    </path>
    <path d="M-666.4709141587939,-242.65975832195966L-660.0846009705814,-224.9068533479236L-632.0430030451116,-233.0574884030029z" style="fill:rgb(43,180,168)">
    </path>
    <path d="M-652.9568227254504,-257.4972320065222L-666.4709141587939,-242.65975832195966L-632.0430030451116,-233.0574884030029z" style="fill:rgb(43,180,168)">
    </path>
    <path d="M-664.340785707747,-306.70414844390774L-646.8321824122748,-310.3494749318387L-636.114456231651,-315.39263260172464z" style="fill:rgb(43,180,168)">
    </path>
    <path d="M-642.4024494165668,-330.6200930766227L-657.1645932214121,-339.6252922532983L-636.114456231651,-315.39263260172464z" style="fill:rgb(43,180,168)">
    </path>
    <path d="M-603.0999152636253,-486.24976730231145L-585.7806872266822,-489.28292478703355L-574.4820446914772,-495.99687760964576z" style="fill:rgb(109,213,75)">
    </path>
    <path d="M-581.305001581973,-509.69693446631476L-595.8488673006854,-519.4046289587698L-574.4820446914772,-495.99687760964576z" style="fill:rgb(109,213,75)">
    </path>
    <path d="M-670.786603632855,-324.81849749011906L-664.340785707747,-306.70414844390774L-636.114456231651,-315.39263260172464z" style="fill:rgb(43,180,168)">
    </path>
    <path d="M-657.1645932214121,-339.6252922532983L-670.786603632855,-324.81849749011906L-636.114456231651,-315.39263260172464z" style="fill:rgb(43,180,168)">
    </path>
    <path d="M-609.3816893925765,-504.88954558599187L-603.0999152636253,-486.24976730231145L-574.4820446914772,-495.99687760964576z" style="fill:rgb(109,213,75)">
    </path>
    <path d="M-595.8488673006854,-519.4046289587698L-609.3816893925765,-504.88954558599187L-574.4820446914772,-495.99687760964576z" style="fill:rgb(109,213,75)">
    </path>
    <path d="M-668.6606860380693,-389.7259588035591L-651.0065561485131,-393.11161262676865L-640.2472176200178,-398.96758465448033z" style="fill:rgb(43,180,168)">
    </path>
    <path d="M-646.5465561399411,-413.5889961374034L-661.4354231097168,-422.98415764460316L-640.2472176200178,-398.96758465448033z" style="fill:rgb(43,180,168)">
    </path>
    <path d="M-675.1670818664203,-408.21063466458463L-668.6606860380693,-389.7259588035591L-640.2472176200178,-398.96758465448033z" style="fill:rgb(43,180,168)">
    </path>
    <path d="M-661.4354231097168,-422.98415764460316L-675.1670818664203,-408.21063466458463L-640.2472176200178,-398.96758465448033z" style="fill:rgb(43,180,168)">
    </path>
    <path d="M-673.045743496567,-473.9999885028588L-655.2436728458841,-477.1177073597554L-644.4426824895354,-483.8105606598181z" style="fill:rgb(109,213,75)">
    </path>
    <path d="M-673.0457434965674,-473.99998850285874L-655.2436728458844,-477.1177073597553L-644.4426824895357,-483.81056065981795z" style="fill:rgb(43,180,168)">
    </path>
    <path d="M-650.752992950924,-497.80580600700375L-665.7707406438403,-507.6017051018931L-644.4426824895354,-483.8105606598181z" style="fill:rgb(109,213,75)">
    </path>
    <path d="M-650.7529929509242,-497.8058060070037L-665.7707406438407,-507.6017051018929L-644.4426824895357,-483.81056065981795z" style="fill:rgb(43,180,168)">
    </path>
    <path d="M-679.6138188434386,-492.864154256322L-673.045743496567,-473.9999885028588L-644.4426824895354,-483.8105606598181z" style="fill:rgb(109,213,75)">
    </path>
    <path d="M-679.6138188434389,-492.864154256322L-673.0457434965674,-473.99998850285874L-644.4426824895357,-483.81056065981795z" style="fill:rgb(43,180,168)">
    </path>
    <path d="M-665.7707406438403,-507.6017051018931L-679.6138188434386,-492.864154256322L-644.4426824895354,-483.8105606598181z" style="fill:rgb(109,213,75)">
    </path>
    <path d="M-665.7707406438407,-507.6017051018929L-679.6138188434389,-492.864154256322L-644.4426824895357,-483.81056065981795z" style="fill:rgb(43,180,168)">
    </path>
</svg>