<svg viewBox="-1163.5 -590 2327 1180" width="2327" height="1180" style="background-color: rgb(255, 255, 255);">
    <path d="M-145.92535752663125,250.51508740574562L-121.64209589040026,-575.3587958890241" style="fill:none;stroke:rgb(0,0,0);stroke-width:1;stroke-linecap:round">
    </path>
    <path d="M-8.647871851981163,294.62640779891166L-145.92535752663125,250.51508740574562" style="fill:none;stroke:rgb(160,0,0);stroke-width:3;stroke-linecap:round">
    </path>
    <path d="M-8.64787185198145,294.62640779891154L18.545474302454867,-537.7487136408192" style="fill:none;stroke:rgb(0,0,0);stroke-width:1;stroke-linecap:round">
    </path>
    <path d="M-106.7972466030911,358.25143144046535L-8.64787185198145,294.62640779891154" style="fill:none;stroke:rgb(160,0,0);stroke-width:3;stroke-linecap:round">
    </path>
    <path d="M18.54547430245516,-537.7487136408191L-8.647871851981163,294.62640779891166L-145.92535752663125,250.51508740574562z" style="fill:rgb(0,0,0); fill-opacity: 0.2">
    </path>
    <path d="M87.80598126605301,325.619886424596L-106.79724660309081,358.25143144046547" style="fill:none;stroke:rgb(160,0,0);stroke-width:3;stroke-linecap:round">
    </path>
    <path d="M87.80598126605295,325.619886424596L102.29622788906906,-88.75735008127702" style="fill:none;stroke:rgb(0,0,0);stroke-width:1;stroke-linecap:round">
    </path>
    <path d="M214.96734165079616,366.48059626347145L87.80598126605295,325.619886424596" style="fill:none;stroke:rgb(160,0,0);stroke-width:3;stroke-linecap:round">
    </path>
    <path d="M-121.64209589040026,-575.3587958890241L-145.92535752663125,250.51508740574562L18.54547430245516,-537.7487136408191z" style="fill:rgb(0,0,0); fill-opacity: 0.2">
    </path>
    <path d="M18.54547430245516,-537.7487136408191L-121.64209589040026,-575.3587958890241" style="fill:none;stroke:rgb(0,0,0);stroke-width:1;stroke-linecap:round">
    </path>
    <path d="M-121.64209589040026,-575.3587958890241L-632.9325915276765,-444.34584225505716" style="fill:none;stroke:rgb(0,0,0);stroke-width:1;stroke-linecap:round">
    </path>
    <path d="M18.54547430245516,-537.7487136408191L-121.64209589040026,-575.3587958890241" style="fill:none;stroke:rgb(0,0,0);stroke-width:1;stroke-linecap:round">
    </path>
    <path d="M102.2962278890691,-88.75735008127702L87.80598126605301,325.619886424596L-106.79724660309081,358.25143144046547z" style="fill:rgb(0,0,0); fill-opacity: 0.2">
    </path>
    <path d="M230.82742971501239,-50.83528409801781L214.96734165079616,366.48059626347145" style="fill:none;stroke:rgb(50,34,0);stroke-width:5;stroke-linecap:round">
    </path>
    <path d="M214.96734165079616,366.48059626347145L269.9312611854463,384.14213087522364" style="fill:none;stroke:rgb(197,147,42);stroke-width:5;stroke-linecap:round">
    </path>
    <path d="M-106.79724660309081,358.25143144046547L-87.65916547454023,-271.25747690772135" style="fill:none;stroke:rgb(0,0,0);stroke-width:1;stroke-linecap:round">
    </path>
    <path d="M-87.65916547454052,-271.2574769077214L-106.7972466030911,358.25143144046535L-8.64787185198145,294.62640779891154z" style="fill:rgb(0,0,0); fill-opacity: 0.2">
    </path>
    <path d="M230.82742971501239,-50.83528409801781L214.96734165079616,366.48059626347145L87.80598126605295,325.619886424596z" style="fill:rgb(0,0,0); fill-opacity: 0.2">
    </path>
    <path d="M216.53940893965571,325.115842046368L271.5625837530834,342.6529166719784" style="fill:none;stroke:rgb(197,147,42);stroke-width:5;stroke-linecap:round">
    </path>
    <path d="M102.29622788906906,-88.75735008127702L87.80598126605295,325.619886424596L230.82742971501239,-50.83528409801781z" style="fill:rgb(0,0,0); fill-opacity: 0.2">
    </path>
    <path d="M102.2962278890691,-88.75735008127702L-87.65916547454023,-271.25747690772135" style="fill:none;stroke:rgb(0,0,0);stroke-width:1;stroke-linecap:round">
    </path>
    <path d="M102.2962278890691,-88.75735008127702L-87.65916547454023,-271.25747690772135" style="fill:none;stroke:rgb(0,0,0);stroke-width:1;stroke-linecap:round">
    </path>
    <path d="M102.2962278890691,-88.75735008127702L60.49682182730053,-312.84574952765666" style="fill:none;stroke:rgb(0,0,0);stroke-width:1;stroke-linecap:round">
    </path>
    <path d="M102.2962278890691,-88.75735008127702L60.49682182730053,-312.84574952765666" style="fill:none;stroke:rgb(0,0,0);stroke-width:1;stroke-linecap:round">
    </path>
    <path d="M230.82742971501239,-50.83528409801781L102.29622788906906,-88.75735008127702" style="fill:none;stroke:rgb(0,0,0);stroke-width:1;stroke-linecap:round">
    </path>
    <path d="M102.29622788906906,-88.75735008127702L-45.09916983461639,-44.62291525961114" style="fill:none;stroke:rgb(0,0,0);stroke-width:1;stroke-linecap:round">
    </path>
    <path d="M230.82742971501239,-50.83528409801781L102.29622788906906,-88.75735008127702" style="fill:none;stroke:rgb(0,0,0);stroke-width:1;stroke-linecap:round">
    </path>
    <path d="M-45.09916983461639,-44.62291525961114L102.29622788906906,-88.75735008127702" style="fill:none;stroke:rgb(0,0,0);stroke-width:1;stroke-linecap:round">
    </path>
    <path d="M230.82742971501239,-50.83528409801781L102.29622788906906,-88.75735008127702" style="fill:none;stroke:rgb(0,0,0);stroke-width:1;stroke-linecap:round">
    </path>
    <path d="M102.29622788906906,-88.75735008127702L-402.8140224341554,62.48723261890175" style="fill:none;stroke:rgb(0,0,0);stroke-width:1;stroke-linecap:round">
    </path>
    <path d="M230.82742971501239,-50.83528409801781L102.29622788906906,-88.75735008127702" style="fill:none;stroke:rgb(0,0,0);stroke-width:1;stroke-linecap:round">
    </path>
    <path d="M218.11455011238866,283.6702067805855L273.19710701014316,301.0822997518845" style="fill:none;stroke:rgb(197,147,42);stroke-width:5;stroke-linecap:round">
    </path>
    <path d="M18.545474302454867,-537.7487136408192L-8.64787185198145,294.62640779891154L-87.65916547454052,-271.2574769077214z" style="fill:rgb(0,0,0); fill-opacity: 0.2">
    </path>
    <path d="M219.69277419342637,242.14345301230622L274.83484038560647,259.4300403089086" style="fill:none;stroke:rgb(197,147,42);stroke-width:5;stroke-linecap:round">
    </path>
    <path d="M60.49682182730026,-312.8457495276568L18.545474302454867,-537.7487136408192" style="fill:none;stroke:rgb(0,0,0);stroke-width:1;stroke-linecap:round">
    </path>
    <path d="M60.49682182730026,-312.8457495276568L18.545474302454867,-537.7487136408192" style="fill:none;stroke:rgb(0,0,0);stroke-width:1;stroke-linecap:round">
    </path>
    <path d="M275.7397407504694,379.5268952260883L270.27085657107034,375.5052457023554L283.7311017817702,388.5764282177738z" style="fill:rgb(197,147,42)">
    </path>
    <path d="M221.27409024256022,200.5353423572999L276.47579334552614,217.69589759415783" style="fill:none;stroke:rgb(197,147,42);stroke-width:5;stroke-linecap:round">
    </path>
    <path d="M264.32739353726237,383.4220186346585L266.12971158151447,392.33340550658784L283.7311017817702,388.5764282177738z" style="fill:rgb(197,147,42)">
    </path>
    <path d="M270.27085657107034,375.5052457023554L264.32739353726237,383.4220186346585L283.7311017817702,388.5764282177738z" style="fill:rgb(197,147,42)">
    </path>
    <path d="M277.3761071297214,338.04960271358084L271.9028451732599,333.9990923291607L285.37735942352367,347.05598415563543z" style="fill:rgb(197,147,42)">
    </path>
    <path d="M18.545474302454867,-537.7487136408192L18.545474302454867,-537.7487136408192L60.49682182730026,-312.8457495276568z" style="fill:rgb(0,0,0); fill-opacity: 0.2">
    </path>
    <path d="M222.8585073551155,158.84563549636255L278.1199753932101,175.8796299112424" style="fill:none;stroke:rgb(197,147,42);stroke-width:5;stroke-linecap:round">
    </path>
    <path d="M265.9540742508896,341.9104019495839L267.75750190464936,350.84728857916593L285.37735942352367,347.05598415563543z" style="fill:rgb(197,147,42)">
    </path>
    <path d="M271.9028451732599,333.9990923291607L265.9540742508896,341.9104019495839L285.37735942352367,347.05598415563543z" style="fill:rgb(197,147,42)">
    </path>
    <path d="M-87.65916547454052,-271.2574769077214L18.545474302454867,-537.7487136408192" style="fill:none;stroke:rgb(0,0,0);stroke-width:1;stroke-linecap:round">
    </path>
    <path d="M18.545474302454867,-537.7487136408192L18.545474302454867,-537.7487136408192" style="fill:none;stroke:rgb(0,0,0);stroke-width:1;stroke-linecap:round">
    </path>
    <path d="M-87.65916547454052,-271.2574769077214L18.545474302454867,-537.7487136408192" style="fill:none;stroke:rgb(0,0,0);stroke-width:1;stroke-linecap:round">
    </path>
    <path d="M18.545474302454867,-537.7487136408192L-491.8461094072169,-404.0061191819869" style="fill:none;stroke:rgb(0,0,0);stroke-width:1;stroke-linecap:round">
    </path>
    <path d="M279.0156828207905,296.4909631588156L273.538036426195,292.4114863570528L287.02684983025773,305.4540061743002z" style="fill:rgb(197,147,42)">
    </path>
    <path d="M-87.65916547454023,-271.25747690772135L-106.79724660309081,358.25143144046547L102.2962278890691,-88.75735008127702z" style="fill:rgb(0,0,0); fill-opacity: 0.2">
    </path>
    <path d="M224.44603466212553,117.07409217072775L279.76739606940447,133.9809946116091" style="fill:none;stroke:rgb(197,147,42);stroke-width:5;stroke-linecap:round">
    </path>
    <path d="M267.58394821716774,300.3172959599946L269.3884863668607,309.2797653272796L287.02684983025773,305.4540061743002z" style="fill:rgb(197,147,42)">
    </path>
    <path d="M273.538036426195,292.4114863570528L267.58394821716774,300.3172959599946L287.02684983025773,305.4540061743002z" style="fill:rgb(197,147,42)">
    </path>
    <path d="M280.6584772743037,254.8507370149334L275.1764397665646,250.74218778395007L288.6795825336278,263.7702538748388z" style="fill:rgb(197,147,42)">
    </path>
    <path d="M226.03668133050704,75.22047117745156L281.4180649524783,91.99974808984818" style="fill:none;stroke:rgb(197,147,42);stroke-width:5;stroke-linecap:round">
    </path>
    <path d="M269.21702484809805,258.64246047899235L271.0226743789528,267.6305959057061L288.6795825336278,263.7702538748388z" style="fill:rgb(197,147,42)">
    </path>
    <path d="M60.49682182730053,-312.84574952765666L-87.65916547454023,-271.25747690772135L102.2962278890691,-88.75735008127702z" style="fill:rgb(0,0,0); fill-opacity: 0.2">
    </path>
    <path d="M275.1764397665646,250.74218778395007L269.21702484809805,258.64246047899235L288.6795825336278,263.7702538748388z" style="fill:rgb(197,147,42)">
    </path>
    <path d="M282.30449997803134,213.12868379360998L276.8180646681681,208.9909556639483L290.3355671027982,222.00448591231867z" style="fill:rgb(197,147,42)">
    </path>
    <path d="M227.6304565632367,33.28453036476976L283.071991658609,49.93564577897214" style="fill:none;stroke:rgb(197,147,42);stroke-width:5;stroke-linecap:round">
    </path>
    <path d="M270.8533135927072,216.88565437482694L272.66007538873555,225.89953952609747L290.3355671027982,222.00448591231867z" style="fill:rgb(197,147,42)">
    </path>
    <path d="M276.8180646681681,208.9909556639483L270.8533135927072,216.88565437482694L290.3355671027982,222.00448591231867z" style="fill:rgb(197,147,42)">
    </path>
    <path d="M60.49682182730026,-312.8457495276568L-87.65916547454052,-271.2574769077214L18.545474302454867,-537.7487136408192z" style="fill:rgb(0,0,0); fill-opacity: 0.2">
    </path>
    <path d="M102.29622788906906,-88.75735008127702L-45.09916983461639,-44.62291525961114L230.82742971501239,-50.83528409801781z" style="fill:rgb(0,0,0); fill-opacity: 0.2">
    </path>
    <path d="M283.9537604570684,171.32456206042536L278.4629206420978,167.1575481026758L291.99481314462577,180.15645999114645z" style="fill:rgb(197,147,42)">
    </path>
    <path d="M229.22736959952843,-8.73397337257248L284.7291858419692,7.788442145666119" style="fill:none;stroke:rgb(197,147,42);stroke-width:5;stroke-linecap:round">
    </path>
    <path d="M272.4928239372291,175.046635566246L274.30069888120624,184.0863544523396L291.99481314462577,180.15645999114645z" style="fill:rgb(197,147,42)">
    </path>
    <path d="M278.4629206420978,167.1575481026758L272.4928239372291,175.046635566246L291.99481314462577,180.15645999114645z" style="fill:rgb(197,147,42)">
    </path>
    <path d="M285.60626827401967,129.43812943020728L280.11101723692286,125.24172225262228L293.6573303038466,138.22593286038241z" style="fill:rgb(197,147,42)">
    </path>
    <path d="M230.82742971501239,-50.83528409801781L286.38965719491466,-34.442109314488945" style="fill:none;stroke:rgb(197,147,42);stroke-width:5;stroke-linecap:round">
    </path>
    <path d="M83.74589507429194,-5.8933820667796795L230.82742971501239,-50.83528409801781" style="fill:none;stroke:rgb(22,55,11);stroke-width:5;stroke-linecap:round">
    </path>
    <path d="M230.82742971501239,-50.83528409801781L286.38965719491466,-34.442109314488945" style="fill:none;stroke:rgb(109,213,75);stroke-width:5;stroke-linecap:round">
    </path>
    <path d="M230.82742971501239,-50.83528409801781L83.74589507429194,-5.8933820667796795" style="fill:none;stroke:rgb(0,44,41);stroke-width:5;stroke-linecap:round">
    </path>
    <path d="M230.82742971501239,-50.83528409801781L286.38965719491466,-34.442109314488945" style="fill:none;stroke:rgb(43,180,168);stroke-width:5;stroke-linecap:round">
    </path>
    <path d="M-273.3227039500426,103.21169380139308L230.82742971501239,-50.83528409801781" style="fill:none;stroke:rgb(10,15,55);stroke-width:5;stroke-linecap:round">
    </path>
    <path d="M230.82742971501239,-50.83528409801781L286.38965719491466,-34.442109314488945" style="fill:none;stroke:rgb(74,87,214);stroke-width:5;stroke-linecap:round">
    </path>
    <path d="M274.13556540528816,133.1251610178165L275.9445543787327,142.19079799588528L293.6573303038466,138.22593286038241z" style="fill:rgb(197,147,42)">
    </path>
    <path d="M280.11101723692286,125.24172225262228L274.13556540528816,133.1251610178165L293.6573303038466,138.22593286038241z" style="fill:rgb(197,147,42)">
    </path>
    <path d="M-45.09916983461635,-44.62291525961114L102.2962278890691,-88.75735008127702L-87.65916547454023,-271.25747690772135z" style="fill:rgb(0,0,0); fill-opacity: 0.2">
    </path>
    <path d="M102.2962278890691,-88.75735008127702L-45.09916983461635,-44.62291525961114L-87.65916547454023,-271.25747690772135z" style="fill:rgb(0,0,0); fill-opacity: 0.2">
    </path>
    <path d="M287.2620330291836,87.4691425623467L281.7623640388736,83.2432343084395L295.3231282632623,96.21266030902734z" style="fill:rgb(197,147,42)">
    </path>
    <path d="M275.7815475580841,91.12098673521919L277.5916514412378,100.21262651105837L295.3231282632623,96.21266030902734z" style="fill:rgb(197,147,42)">
    </path>
    <path d="M281.7623640388736,83.2432343084395L275.7815475580841,91.12098673521919L295.3231282632623,96.21266030902734z" style="fill:rgb(197,147,42)">
    </path>
    <path d="M83.74589507429194,-5.8933820667796795L230.82742971501239,-50.83528409801781L102.29622788906906,-88.75735008127702z" style="fill:rgb(0,0,0); fill-opacity: 0.2">
    </path>
    <path d="M288.92106436073857,45.417357156085274L283.4169706720276,41.16183950221435L296.99221674392794,54.11639716128134z" style="fill:rgb(197,147,42)">
    </path>
    <path d="M277.430779994577,49.03386776051457L279.24199966638446,58.15159539033104L296.99221674392794,54.11639716128134z" style="fill:rgb(197,147,42)">
    </path>
    <path d="M283.4169706720276,41.16183950221435L277.430779994577,49.03386776051457L296.99221674392794,54.11639716128134z" style="fill:rgb(197,147,42)">
    </path>
    <path d="M203.84944852667542,-42.59195300599133L259.4388411677889,-26.134615223875464" style="fill:none;stroke:rgb(74,87,214);stroke-width:5;stroke-linecap:round">
    </path>
    <path d="M201.6861651510629,-41.930945016306744L257.27771861749375,-25.46845681154396" style="fill:none;stroke:rgb(109,213,75);stroke-width:5;stroke-linecap:round">
    </path>
    <path d="M201.6861651510629,-41.930945016306744L257.27771861749375,-25.46845681154396" style="fill:none;stroke:rgb(43,180,168);stroke-width:5;stroke-linecap:round">
    </path>
    <path d="M-45.09916983461639,-44.62291525961114L102.29622788906906,-88.75735008127702L83.74589507429194,-5.8933820667796795z" style="fill:rgb(0,0,0); fill-opacity: 0.2">
    </path>
    <path d="M290.5833719449302,3.2825279457747834L285.07484679849694,-1.0027079012864712L298.664605505342,11.936897271774505z" style="fill:rgb(197,147,42)">
    </path>
    <path d="M279.08327235167434,6.863558167381179L280.89560868976224,16.00745905957211L298.664605505342,11.936897271774505z" style="fill:rgb(197,147,42)">
    </path>
    <path d="M285.07484679849694,-1.0027079012864712L279.08327235167434,6.863558167381179L298.664605505342,11.936897271774505z" style="fill:rgb(197,147,42)">
    </path>
    <path d="M-45.09916983461635,-44.62291525961114L-87.65916547454023,-271.25747690772135" style="fill:none;stroke:rgb(0,0,0);stroke-width:1;stroke-linecap:round">
    </path>
    <path d="M-45.09916983461635,-44.62291525961114L-87.65916547454023,-271.25747690772135" style="fill:none;stroke:rgb(0,0,0);stroke-width:1;stroke-linecap:round">
    </path>
    <path d="M83.74589507429194,-5.8933820667796795L-45.09916983461639,-44.62291525961114" style="fill:none;stroke:rgb(0,0,0);stroke-width:1;stroke-linecap:round">
    </path>
    <path d="M83.74589507429194,-5.8933820667796795L-45.09916983461639,-44.62291525961114" style="fill:none;stroke:rgb(0,0,0);stroke-width:1;stroke-linecap:round">
    </path>
    <path d="M292.24896549625885,-38.935591303890625L286.7360021186157,-43.250654609399426L300.34030434563556,-30.326086479230423z" style="fill:rgb(197,147,42)">
    </path>
    <path d="M292.24896549625885,-38.935591303890625L286.7360021186157,-43.250654609399426L300.34030434563556,-30.326086479230423z" style="fill:rgb(109,213,75)">
    </path>
    <path d="M292.24896549625885,-38.935591303890625L286.7360021186157,-43.250654609399426L300.34030434563556,-30.326086479230423z" style="fill:rgb(43,180,168)">
    </path>
    <path d="M292.24896549625885,-38.935591303890625L286.7360021186157,-43.250654609399426L300.34030434563556,-30.326086479230423z" style="fill:rgb(74,87,214)">
    </path>
    <path d="M280.7390343044183,-35.39018894367424L282.55248818507465,-26.220029026731723L300.34030434563556,-30.326086479230423z" style="fill:rgb(197,147,42)">
    </path>
    <path d="M280.7390343044183,-35.39018894367424L282.55248818507465,-26.220029026731723L300.34030434563556,-30.326086479230423z" style="fill:rgb(109,213,75)">
    </path>
    <path d="M280.7390343044183,-35.39018894367428L282.55248818507465,-26.220029026731723L300.34030434563556,-30.326086479230423z" style="fill:rgb(43,180,168)">
    </path>
    <path d="M280.7390343044183,-35.39018894367424L282.55248818507465,-26.220029026731723L300.34030434563556,-30.326086479230423z" style="fill:rgb(74,87,214)">
    </path>
    <path d="M286.7360021186157,-43.250654609399426L280.7390343044183,-35.39018894367424L300.34030434563556,-30.326086479230423z" style="fill:rgb(197,147,42)">
    </path>
    <path d="M286.7360021186157,-43.250654609399426L280.7390343044183,-35.39018894367424L300.34030434563556,-30.326086479230423z" style="fill:rgb(109,213,75)">
    </path>
    <path d="M286.7360021186157,-43.250654609399426L280.7390343044183,-35.39018894367428L300.34030434563556,-30.326086479230423z" style="fill:rgb(43,180,168)">
    </path>
    <path d="M286.7360021186157,-43.250654609399426L280.7390343044183,-35.39018894367424L300.34030434563556,-30.326086479230423z" style="fill:rgb(74,87,214)">
    </path>
    <path d="M176.75445470017053,-34.31286779612937L232.37072436970973,-17.790963583875" style="fill:none;stroke:rgb(74,87,214);stroke-width:5;stroke-linecap:round">
    </path>
    <path d="M172.40834603142366,-32.98488063251257L228.02888898428435,-16.45260812292961" style="fill:none;stroke:rgb(109,213,75);stroke-width:5;stroke-linecap:round">
    </path>
    <path d="M172.40834603142372,-32.98488063251257L228.02888898428438,-16.45260812292961" style="fill:none;stroke:rgb(43,180,168);stroke-width:5;stroke-linecap:round">
    </path>
    <path d="M-87.65916547454023,-271.25747690772135L-87.65916547454023,-271.25747690772135L-45.09916983461635,-44.62291525961114z" style="fill:rgb(0,0,0); fill-opacity: 0.2">
    </path>
    <path d="M230.82742971501239,-50.83528409801781L83.74589507429194,-5.8933820667796795L-45.09916983461639,-44.62291525961114z" style="fill:rgb(0,0,0); fill-opacity: 0.2">
    </path>
    <path d="M-632.9325915276765,-444.34584225505716L-648.0303723601917,411.21762017045097" style="fill:none;stroke:rgb(0,0,0);stroke-width:1;stroke-linecap:round">
    </path>
    <path d="M-509.9032285413373,458.5304303751123L-648.0303723601917,411.21762017045097" style="fill:none;stroke:rgb(160,0,0);stroke-width:3;stroke-linecap:round">
    </path>
    <path d="M-402.8140224341554,62.48723261890175L102.2962278890691,-88.75735008127702L60.49682182730053,-312.84574952765666z" style="fill:rgb(0,0,0); fill-opacity: 0.2">
    </path>
    <path d="M265.32166729735417,-30.641179721628202L259.7803734192632,-34.960576642689134L273.3964396493466,-22.00244356441656z" style="fill:rgb(74,87,214)">
    </path>
    <path d="M-491.84610940721655,-404.0061191819867L18.54547430245516,-537.7487136408191L-121.64209589040026,-575.3587958890241z" style="fill:rgb(0,0,0); fill-opacity: 0.2">
    </path>
    <path d="M263.1624326114956,-29.97607098866453L257.61886390748947,-34.29581446710609L271.23587012525223,-21.334988861317964z" style="fill:rgb(109,213,75)">
    </path>
    <path d="M263.1624326114956,-29.97607098866453L257.61886390748947,-34.29581446710613L271.23587012525235,-21.334988861317964z" style="fill:rgb(43,180,168)">
    </path>
    <path d="M253.76169156646483,-27.080362149634958L255.5900998563213,-17.893680342154514L273.3964396493466,-22.00244356441656z" style="fill:rgb(74,87,214)">
    </path>
    <path d="M259.7803734192632,-34.960576642689134L253.76169156646483,-27.080362149634958L273.3964396493466,-22.00244356441656z" style="fill:rgb(74,87,214)">
    </path>
    <path d="M-307.1080442757053,424.24374493203976L-509.9032285413376,458.53043037511225" style="fill:none;stroke:rgb(160,0,0);stroke-width:3;stroke-linecap:round">
    </path>
    <path d="M-290.69014811754516,-214.26546456840148L-307.108044275705,424.2437449320399" style="fill:none;stroke:rgb(0,0,0);stroke-width:1;stroke-linecap:round">
    </path>
    <path d="M-412.7958432060504,491.79270717904495L-307.108044275705,424.2437449320399" style="fill:none;stroke:rgb(160,0,0);stroke-width:3;stroke-linecap:round">
    </path>
    <path d="M251.5984392245292,-26.414015858678965L253.42804874222062,-17.226009836471484L271.23587012525223,-21.334988861317964z" style="fill:rgb(109,213,75)">
    </path>
    <path d="M251.59843922452924,-26.414015858678965L253.42804874222062,-17.226009836471484L271.23587012525235,-21.334988861317964z" style="fill:rgb(43,180,168)">
    </path>
    <path d="M257.61886390748947,-34.29581446710609L251.5984392245292,-26.414015858678965L271.23587012525223,-21.334988861317964z" style="fill:rgb(109,213,75)">
    </path>
    <path d="M257.61886390748947,-34.29581446710613L251.59843922452924,-26.414015858678965L271.23587012525235,-21.334988861317964z" style="fill:rgb(43,180,168)">
    </path>
    <path d="M149.54168529579184,-25.997795346296016L205.18453932041655,-9.410917821401116" style="fill:none;stroke:rgb(74,87,214);stroke-width:5;stroke-linecap:round">
    </path>
    <path d="M142.99301026988937,-23.996796973744093L198.64220047982147,-7.394264922938576" style="fill:none;stroke:rgb(109,213,75);stroke-width:5;stroke-linecap:round">
    </path>
    <path d="M142.9930102698894,-23.996796973744093L198.64220047982153,-7.394264922938576" style="fill:none;stroke:rgb(43,180,168);stroke-width:5;stroke-linecap:round">
    </path>
    <path d="M-447.2460595928454,-170.31928294408107L60.49682182730026,-312.8457495276568L18.545474302454867,-537.7487136408192z" style="fill:rgb(0,0,0); fill-opacity: 0.2">
    </path>
    <path d="M238.27721775179552,-22.310682027815044L232.7073987245122,-26.63440946204199L246.33520253310218,-13.642541333325335z" style="fill:rgb(74,87,214)">
    </path>
    <path d="M226.66687038456428,-18.734348488315366L228.51034625520893,-9.531087680626666L246.33520253310218,-13.642541333325335z" style="fill:rgb(74,87,214)">
    </path>
    <path d="M232.7073987245122,-26.63440946204199L226.66687038456428,-18.734348488315366L246.33520253310218,-13.642541333325335z" style="fill:rgb(74,87,214)">
    </path>
    <path d="M233.93918307908882,-20.974437865189838L228.36478184845637,-25.298857882682267L241.99446117195598,-12.301576275676398z" style="fill:rgb(109,213,75)">
    </path>
    <path d="M233.93918307908882,-20.974437865189838L228.36478184845643,-25.298857882682313L241.994461171956,-12.301576275676398z" style="fill:rgb(43,180,168)">
    </path>
    <path d="M222.32074570496923,-17.395612362094706L224.16664296125091,-8.18969359613934L241.99446117195598,-12.301576275676398z" style="fill:rgb(109,213,75)">
    </path>
    <path d="M222.32074570496923,-17.395612362094706L224.16664296125091,-8.18969359613934L241.994461171956,-12.301576275676398z" style="fill:rgb(43,180,168)">
    </path>
    <path d="M122.21037072674734,-17.646500503286703L177.87951182967964,-0.9942392950430889" style="fill:none;stroke:rgb(74,87,214);stroke-width:5;stroke-linecap:round">
    </path>
    <path d="M228.36478184845637,-25.298857882682267L222.32074570496923,-17.395612362094706L241.99446117195598,-12.301576275676398z" style="fill:rgb(109,213,75)">
    </path>
    <path d="M228.36478184845643,-25.298857882682313L222.32074570496923,-17.395612362094706L241.994461171956,-12.301576275676398z" style="fill:rgb(43,180,168)">
    </path>
    <path d="M113.4391867212255,-14.966397299053552L169.1166761438558,1.7068739329841698" style="fill:none;stroke:rgb(109,213,75);stroke-width:5;stroke-linecap:round">
    </path>
    <path d="M113.4391867212255,-14.966397299053552L169.1166761438558,1.7068739329841698" style="fill:none;stroke:rgb(43,180,168);stroke-width:5;stroke-linecap:round">
    </path>
    <path d="M211.11485066546925,-13.943862211794555L205.51631009898054,-18.271916892510454L219.15582437907608,-5.246142340423398z" style="fill:rgb(74,87,214)">
    </path>
    <path d="M199.4538017077821,-10.35191106907265L201.3124593867642,-1.132013874956008L219.15582437907608,-5.246142340423398z" style="fill:rgb(74,87,214)">
    </path>
    <path d="M205.51631009898054,-18.271916892510454L199.4538017077821,-10.35191106907265L219.15582437907608,-5.246142340423398z" style="fill:rgb(74,87,214)">
    </path>
    <path d="M204.57825070584954,-11.930394317125074L198.97278755192033,-16.259487032421227L212.61510823489616,-3.2255492961445764z" style="fill:rgb(109,213,75)">
    </path>
    <path d="M204.57825070584954,-11.930394317125074L198.97278755192033,-16.259487032421227L212.61510823489616,-3.2255492961445764z" style="fill:rgb(43,180,168)">
    </path>
    <path d="M-273.3227039500426,103.21169380139308L230.82742971501239,-50.83528409801781L102.29622788906906,-88.75735008127702z" style="fill:rgb(0,0,0); fill-opacity: 0.2">
    </path>
    <path d="M94.7597346866101,-9.258746060660197L150.4548609238095,7.459312727587544" style="fill:none;stroke:rgb(74,87,214);stroke-width:5;stroke-linecap:round">
    </path>
    <path d="M192.90498394906908,-8.334679727600559L194.76730237751062,0.8892187691948703L212.61510823489616,-3.2255492961445764z" style="fill:rgb(109,213,75)">
    </path>
    <path d="M192.90498394906913,-8.334679727600559L194.76730237751065,0.8892187691948703L212.61510823489616,-3.2255492961445764z" style="fill:rgb(43,180,168)">
    </path>
    <path d="M198.97278755192033,-16.259487032421227L192.90498394906908,-8.334679727600559L212.61510823489616,-3.2255492961445764z" style="fill:rgb(109,213,75)">
    </path>
    <path d="M198.97278755192033,-16.259487032421227L192.90498394906913,-8.334679727600559L212.61510823489616,-3.2255492961445764z" style="fill:rgb(43,180,168)">
    </path>
    <path d="M83.7458950742919,-5.8933820667796795L139.45132976308747,10.851112441613783" style="fill:none;stroke:rgb(109,213,75);stroke-width:5;stroke-linecap:round">
    </path>
    <path d="M83.74589507429194,-5.8933820667796795L139.4513297630875,10.851112441613783" style="fill:none;stroke:rgb(43,180,168);stroke-width:5;stroke-linecap:round">
    </path>
    <path d="M183.83379314823966,-5.540482200335395L178.20633289194282,-9.872860693874651L191.8575298436625,3.1869929375863673z" style="fill:rgb(74,87,214)">
    </path>
    <path d="M172.12170975790434,-1.9328109290612205L173.99566454073278,7.303780315819L191.8575298436625,3.1869929375863673z" style="fill:rgb(74,87,214)">
    </path>
    <path d="M178.20633289194282,-9.872860693874651L172.12170975790434,-1.9328109290612205L191.8575298436625,3.1869929375863673z" style="fill:rgb(74,87,214)">
    </path>
    <path d="M67.18899407581715,-0.8342927362801819L122.90979877119764,15.949981092808393" style="fill:none;stroke:rgb(74,87,214);stroke-width:5;stroke-linecap:round">
    </path>
    <path d="M175.07866017281796,-2.8436399171189053L169.44190347617246,-7.1774012779267125L183.09683289687635,5.893394335155424z" style="fill:rgb(109,213,75)">
    </path>
    <path d="M175.07866017281796,-2.8436399171189053L169.44190347617248,-7.1774012779267125L183.09683289687638,5.893394335155424z" style="fill:rgb(43,180,168)">
    </path>
    <path d="M163.35017499177488,0.7690835952606159L165.22904937431866,10.011029160730295L183.09683289687635,5.893394335155424z" style="fill:rgb(109,213,75)">
    </path>
    <path d="M163.3501749917749,0.7690835952606159L165.22904937431875,10.011029160730295L183.09683289687638,5.893394335155424z" style="fill:rgb(43,180,168)">
    </path>
    <path d="M169.44190347617246,-7.1774012779267125L163.35017499177488,0.7690835952606159L183.09683289687635,5.893394335155424z" style="fill:rgb(109,213,75)">
    </path>
    <path d="M169.44190347617248,-7.1774012779267125L163.3501749917749,0.7690835952606159L183.09683289687638,5.893394335155424z" style="fill:rgb(43,180,168)">
    </path>
    <path d="M156.43326554063992,2.899698164949869L150.77668566376508,-1.4370005380173296L164.43953678374785,11.657106124541619z" style="fill:rgb(74,87,214)">
    </path>
    <path d="M144.66981195571782,6.523192989475327L146.55918021802097,15.776536229144916L164.43953678374785,11.657106124541619z" style="fill:rgb(74,87,214)">
    </path>
    <path d="M-491.8461094072169,-404.0061191819869L-509.9032285413376,458.53043037511225" style="fill:none;stroke:rgb(0,0,0);stroke-width:1;stroke-linecap:round">
    </path>
    <path d="M150.77668566376508,-1.4370005380173296L144.66981195571782,6.523192989475327L164.43953678374785,11.657106124541619z" style="fill:rgb(74,87,214)">
    </path>
    <path d="M39.49735892720194,7.627100850439332L95.24353060687483,24.4780107841213" style="fill:none;stroke:rgb(74,87,214);stroke-width:5;stroke-linecap:round">
    </path>
    <path d="M145.43942692726674,6.286128606456124L139.77114281901666,1.9477028672171592L153.43864746573814,15.055559741372429z" style="fill:rgb(109,213,75)">
    </path>
    <path d="M145.43942692726677,6.286128606456124L139.77114281901666,1.9477028672171592L153.43864746573814,15.055559741372429z" style="fill:rgb(43,180,168)">
    </path>
    <path d="M-648.0303723601917,411.21762017045097L-632.9325915276765,-444.34584225505716L-509.9032285413373,458.5304303751123z" style="fill:rgb(0,0,0); fill-opacity: 0.2">
    </path>
    <path d="M133.65533059104436,9.91598201453529L135.55089707460294,19.17604233939941L153.43864746573814,15.055559741372429z" style="fill:rgb(109,213,75)">
    </path>
    <path d="M133.65533059104436,9.91598201453529L135.55089707460294,19.17604233939941L153.43864746573814,15.055559741372429z" style="fill:rgb(43,180,168)">
    </path>
    <path d="M139.77114281901666,1.9477028672171592L133.65533059104436,9.91598201453529L153.43864746573814,15.055559741372429z" style="fill:rgb(109,213,75)">
    </path>
    <path d="M139.77114281901666,1.9477028672171592L133.65533059104436,9.91598201453529L153.43864746573814,15.055559741372429z" style="fill:rgb(43,180,168)">
    </path>
    <path d="M-632.9325915276765,-444.34584225505716L-121.64209589040026,-575.3587958890241L-491.84610940721655,-404.0061191819867z" style="fill:rgb(0,0,0); fill-opacity: 0.2">
    </path>
    <path d="M-307.108044275705,424.2437449320399L-290.69014811754516,-214.26546456840148L-412.7958432060504,491.79270717904495z" style="fill:rgb(0,0,0); fill-opacity: 0.2">
    </path>
    <path d="M128.9124813395982,11.376921150483227L123.22658011137042,7.0359060139985L136.90105618200982,20.164440967897132z" style="fill:rgb(74,87,214)">
    </path>
    <path d="M117.09731884631826,15.016343862211532L119.00221805616853,24.28649732196819L136.90105618200982,20.164440967897132z" style="fill:rgb(74,87,214)">
    </path>
    <path d="M123.22658011137042,7.0359060139985L117.09731884631826,15.016343862211532L136.90105618200982,20.164440967897132z" style="fill:rgb(74,87,214)">
    </path>
    <path d="M11.684032330544794,16.12567820158784L67.45525465607106,33.04364894577433" style="fill:none;stroke:rgb(74,87,214);stroke-width:5;stroke-linecap:round">
    </path>
    <path d="M-509.9032285413376,458.53043037511225L-491.8461094072169,-404.0061191819869L-307.1080442757053,424.24374493203976z" style="fill:rgb(0,0,0); fill-opacity: 0.2">
    </path>
    <path d="M101.2706471231842,19.89143115390158L95.55522099272049,15.546103535155053L109.24129207123002,28.709243362106967z" style="fill:rgb(74,87,214)">
    </path>
    <path d="M89.40343402343282,23.546887006050806L91.32398275383805,32.83390919405408L109.24129207123002,28.709243362106967z" style="fill:rgb(74,87,214)">
    </path>
    <path d="M95.55522099272049,15.546103535155053L89.40343402343282,23.546887006050806L109.24129207123002,28.709243362106967z" style="fill:rgb(74,87,214)">
    </path>
    <path d="M-247.07768601989952,15.855280095356298L-290.69014811754516,-214.26546456840148" style="fill:none;stroke:rgb(0,0,0);stroke-width:1;stroke-linecap:round">
    </path>
    <path d="M-247.07768601989952,15.855280095356298L-290.69014811754516,-214.26546456840148" style="fill:none;stroke:rgb(0,0,0);stroke-width:1;stroke-linecap:round">
    </path>
    <path d="M-402.8140224341554,62.48723261890175L-247.07768601989955,15.855280095356251" style="fill:none;stroke:rgb(0,0,0);stroke-width:1;stroke-linecap:round">
    </path>
    <path d="M-117.8476180513882,55.70507717664945L-247.07768601989955,15.855280095356251" style="fill:none;stroke:rgb(0,0,0);stroke-width:1;stroke-linecap:round">
    </path>
    <path d="M-247.07768601989955,15.855280095356251L-402.8140224341554,62.48723261890175" style="fill:none;stroke:rgb(0,0,0);stroke-width:1;stroke-linecap:round">
    </path>
    <path d="M-117.8476180513882,55.70507717664945L-247.07768601989955,15.855280095356251" style="fill:none;stroke:rgb(0,0,0);stroke-width:1;stroke-linecap:round">
    </path>
    <path d="M-447.24605959284514,-170.31928294408098L60.49682182730053,-312.84574952765666L-402.8140224341554,62.48723261890175z" style="fill:rgb(0,0,0); fill-opacity: 0.2">
    </path>
    <path d="M-16.25178964387374,24.661684964117498L39.54416205676194,41.64714490663692" style="fill:none;stroke:rgb(74,87,214);stroke-width:5;stroke-linecap:round">
    </path>
    <path d="M-307.1080442757053,424.24374493203976L-290.6901481175454,-214.2654645684016L-491.8461094072169,-404.0061191819869z" style="fill:rgb(0,0,0); fill-opacity: 0.2">
    </path>
    <path d="M73.50696247435965,28.44347472754383L67.76180605029785,24.09383875601258L81.45944145760423,37.29176137231554z" style="fill:rgb(74,87,214)">
    </path>
    <path d="M-402.8140224341554,62.48723261890175L-412.7958432060504,491.79270717904495" style="fill:none;stroke:rgb(0,0,0);stroke-width:1;stroke-linecap:round">
    </path>
    <path d="M-284.7015033877175,535.6689723399619L-412.7958432060504,491.79270717904495" style="fill:none;stroke:rgb(160,0,0);stroke-width:3;stroke-linecap:round">
    </path>
    <path d="M-402.8140224341554,62.48723261890175L102.29622788906906,-88.75735008127702L-273.3227039500426,103.21169380139308z" style="fill:rgb(0,0,0); fill-opacity: 0.2">
    </path>
    <path d="M-290.6901481175454,-214.2654645684016L-491.8461094072169,-404.0061191819869" style="fill:none;stroke:rgb(0,0,0);stroke-width:1;stroke-linecap:round">
    </path>
    <path d="M-290.6901481175454,-214.2654645684016L-491.8461094072169,-404.0061191819869" style="fill:none;stroke:rgb(0,0,0);stroke-width:1;stroke-linecap:round">
    </path>
    <path d="M-402.8140224341554,62.48723261890175L-290.69014811754516,-214.26546456840148" style="fill:none;stroke:rgb(0,0,0);stroke-width:1;stroke-linecap:round">
    </path>
    <path d="M-402.8140224341554,62.48723261890175L-290.69014811754516,-214.26546456840148" style="fill:none;stroke:rgb(0,0,0);stroke-width:1;stroke-linecap:round">
    </path>
    <path d="M-491.8461094072169,-404.0061191819869L18.545474302454867,-537.7487136408192L-447.2460595928454,-170.31928294408107z" style="fill:rgb(0,0,0); fill-opacity: 0.2">
    </path>
    <path d="M61.58735405274019,32.115069902745454L63.5236719943043,41.41901961161412L81.45944145760423,37.29176137231554z" style="fill:rgb(74,87,214)">
    </path>
    <path d="M67.76180605029785,24.09383875601258L61.58735405274019,32.115069902745454L81.45944145760423,37.29176137231554z" style="fill:rgb(74,87,214)">
    </path>
    <path d="M-44.310918022731514,33.23536895351091L11.509436781185839,50.288750204391555" style="fill:none;stroke:rgb(74,87,214);stroke-width:5;stroke-linecap:round">
    </path>
    <path d="M45.62061990371885,37.03330060224927L39.84552593357316,32.67936058855401L53.55469424303483,45.91224525836379z" style="fill:rgb(74,87,214)">
    </path>
    <path d="M33.64826839417357,40.72114222282927L35.60047636792984,50.04207853124674L53.55469424303483,45.91224525836379z" style="fill:rgb(74,87,214)">
    </path>
    <path d="M39.84552593357316,32.67936058855401L33.64826839417357,40.72114222282927L53.55469424303483,45.91224525836379z" style="fill:rgb(74,87,214)">
    </path>
    <path d="M-402.8140224341554,62.48723261890175L-247.07768601989952,15.855280095356298L-290.69014811754516,-214.26546456840148z" style="fill:rgb(0,0,0); fill-opacity: 0.2">
    </path>
    <path d="M-72.4941710081514,41.846980177763626L-16.64974444368401,58.96871861004838" style="fill:none;stroke:rgb(74,87,214);stroke-width:5;stroke-linecap:round">
    </path>
    <path d="M-412.7958432060504,491.79270717904495L-402.8140224341554,62.48723261890175L-290.69014811754516,-214.26546456840148z" style="fill:rgb(0,0,0); fill-opacity: 0.2">
    </path>
    <path d="M-290.69014811754516,-214.26546456840148L-290.69014811754516,-214.26546456840148L-402.8140224341554,62.48723261890175z" style="fill:rgb(0,0,0); fill-opacity: 0.2">
    </path>
    <path d="M-290.69014811754516,-214.26546456840148L-447.24605959284514,-170.31928294408098L-247.07768601989952,15.855280095356298z" style="fill:rgb(0,0,0); fill-opacity: 0.2">
    </path>
    <path d="M-509.9032285413373,458.5304303751123L-491.84610940721655,-404.0061191819867L-632.9325915276765,-444.34584225505716z" style="fill:rgb(0,0,0); fill-opacity: 0.2">
    </path>
    <path d="M17.61080477120256,45.66115971147185L11.80556412044238,41.3029201503466L25.526233146389647,54.57094749911395z" style="fill:rgb(74,87,214)">
    </path>
    <path d="M-491.84610940721655,-404.0061191819867L-632.9325915276765,-444.34584225505716" style="fill:none;stroke:rgb(0,0,0);stroke-width:1;stroke-linecap:round">
    </path>
    <path d="M-491.84610940721655,-404.0061191819867L-632.9325915276765,-444.34584225505716" style="fill:none;stroke:rgb(0,0,0);stroke-width:1;stroke-linecap:round">
    </path>
    <path d="M5.585359323190812,49.365355849869125L7.553579293609671,58.703338124195994L25.526233146389647,54.57094749911395z" style="fill:rgb(74,87,214)">
    </path>
    <path d="M11.80556412044238,41.3029201503466L5.585359323190812,49.365355849869125L25.526233146389647,54.57094749911395z" style="fill:rgb(74,87,214)">
    </path>
    <path d="M-247.07768601989955,15.855280095356251L-402.8140224341554,62.48723261890175L-117.8476180513882,55.70507717664945z" style="fill:rgb(0,0,0); fill-opacity: 0.2">
    </path>
    <path d="M-100.802374057232,50.49677086168508L-44.934212216729165,67.68730615278629" style="fill:none;stroke:rgb(74,87,214);stroke-width:5;stroke-linecap:round">
    </path>
    <path d="M-412.7958432060504,491.79270717904495L-402.8140224341554,62.48723261890175L-284.7015033877175,535.6689723399619z" style="fill:rgb(0,0,0); fill-opacity: 0.2">
    </path>
    <path d="M-117.8476180513882,55.70507717664945L-273.3227039500426,103.21169380139308" style="fill:none;stroke:rgb(40,0,38);stroke-width:5;stroke-linecap:round">
    </path>
    <path d="M-117.84761805138828,55.7050771766495L-61.96537872372052,72.93710322648828" style="fill:none;stroke:rgb(167,41,160);stroke-width:5;stroke-linecap:round">
    </path>
    <path d="M-273.3227039500426,103.21169380139308L-117.8476180513882,55.70507717664945" style="fill:none;stroke:rgb(55,17,8);stroke-width:5;stroke-linecap:round">
    </path>
    <path d="M-117.8476180513882,55.70507717664945L-61.96537872372043,72.93710322648823" style="fill:none;stroke:rgb(214,94,68);stroke-width:5;stroke-linecap:round">
    </path>
    <path d="M-10.52330479322981,54.32730521571561L-16.358903162383143,49.96477078902575L-2.6267663762885176,63.26812281709921z" style="fill:rgb(74,87,214)">
    </path>
    <path d="M-247.07768601989952,15.855280095356298L-402.8140224341554,62.48723261890175L-447.24605959284514,-170.31928294408098z" style="fill:rgb(0,0,0); fill-opacity: 0.2">
    </path>
    <path d="M-22.60219814900481,58.047964905038896L-20.617843060829987,67.40305280093366L-2.6267663762885176,63.26812281709921z" style="fill:rgb(74,87,214)">
    </path>
    <path d="M-16.358903162383143,49.96477078902575L-22.60219814900481,58.047964905038896L-2.6267663762885176,63.26812281709921z" style="fill:rgb(74,87,214)">
    </path>
    <path d="M-129.23635996263832,59.184995471523976L-73.34480454435355,76.444771145127" style="fill:none;stroke:rgb(74,87,214);stroke-width:5;stroke-linecap:round">
    </path>
    <path d="M-273.3227039500426,103.21169380139308L-117.8476180513882,55.70507717664945L-247.07768601989955,15.855280095356251z" style="fill:rgb(0,0,0); fill-opacity: 0.2">
    </path>
    <path d="M-284.7015033877175,535.6689723399619L-273.3227039500426,103.21169380139308" style="fill:none;stroke:rgb(38,46,1);stroke-width:5;stroke-linecap:round">
    </path>
    <path d="M-284.7015033877175,535.6689723399619L-229.30916706536763,554.6425572759474" style="fill:none;stroke:rgb(162,186,45);stroke-width:5;stroke-linecap:round">
    </path>
    <path d="M-290.6901481175454,-214.2654645684016L-447.2460595928454,-170.31928294408107L-491.8461094072169,-404.0061191819869z" style="fill:rgb(0,0,0); fill-opacity: 0.2">
    </path>
    <path d="M-148.6437459761697,65.11507257490138L-92.73648079772116,82.42218703189641" style="fill:none;stroke:rgb(167,41,160);stroke-width:5;stroke-linecap:round">
    </path>
    <path d="M-148.64374597616964,65.11507257490138L-92.73648079772107,82.42218703189641" style="fill:none;stroke:rgb(214,94,68);stroke-width:5;stroke-linecap:round">
    </path>
    <path d="M-38.78253796998712,63.031992527296104L-44.648707020048974,58.665168107105124L-30.905136212638688,72.00402820350212z" style="fill:rgb(74,87,214)">
    </path>
    <path d="M-402.8140224341554,62.48723261890175L-247.07768601989955,15.855280095356251L-273.3227039500426,103.21169380139308z" style="fill:rgb(0,0,0); fill-opacity: 0.2">
    </path>
    <path d="M-50.9152363563089,66.76922577202238L-48.914621859295806,76.1414792360695L-30.905136212638688,72.00402820350212z" style="fill:rgb(74,87,214)">
    </path>
    <path d="M-44.648707020048974,58.665168107105124L-50.9152363563089,66.76922577202238L-30.905136212638688,72.00402820350212z" style="fill:rgb(74,87,214)">
    </path>
    <path d="M-283.5740265557839,492.81862024227826L-228.12120042123695,511.65878161812617" style="fill:none;stroke:rgb(162,186,45);stroke-width:5;stroke-linecap:round">
    </path>
    <path d="M-491.8461094072169,-404.0061191819869L-491.8461094072169,-404.0061191819869L-290.6901481175454,-214.2654645684016z" style="fill:rgb(0,0,0); fill-opacity: 0.2">
    </path>
    <path d="M-157.7969689342691,67.91191073992208L-101.882366923246,85.24137420844605" style="fill:none;stroke:rgb(74,87,214);stroke-width:5;stroke-linecap:round">
    </path>
    <path d="M-402.8140224341554,62.48723261890175L-447.24605959284514,-170.31928294408098" style="fill:none;stroke:rgb(0,0,0);stroke-width:1;stroke-linecap:round">
    </path>
    <path d="M-402.8140224341554,62.48723261890175L-447.24605959284514,-170.31928294408098" style="fill:none;stroke:rgb(0,0,0);stroke-width:1;stroke-linecap:round">
    </path>
    <path d="M-273.3227039500426,103.21169380139308L-402.8140224341554,62.48723261890175" style="fill:none;stroke:rgb(0,0,0);stroke-width:1;stroke-linecap:round">
    </path>
    <path d="M-273.3227039500426,103.21169380139308L-402.8140224341554,62.48723261890175" style="fill:none;stroke:rgb(0,0,0);stroke-width:1;stroke-linecap:round">
    </path>
    <path d="M-273.3227039500426,103.21169380139308L-402.8140224341554,62.48723261890175" style="fill:none;stroke:rgb(0,0,0);stroke-width:1;stroke-linecap:round">
    </path>
    <path d="M-273.3227039500426,103.21169380139308L-402.8140224341554,62.48723261890175" style="fill:none;stroke:rgb(0,0,0);stroke-width:1;stroke-linecap:round">
    </path>
    <path d="M-55.79848491404374,68.27341208500303L-61.68309940349397,63.90401608758969L-47.93268470794248,77.26426963461003z" style="fill:rgb(167,41,160)">
    </path>
    <path d="M-55.798484914043655,68.27341208500303L-61.68309940349387,63.90401608758969L-47.932684707942386,77.26426963460999z" style="fill:rgb(214,94,68)">
    </path>
    <path d="M-282.4442567276545,449.8811216138927L-226.93080913811775,468.58727610791647" style="fill:none;stroke:rgb(162,186,45);stroke-width:5;stroke-linecap:round">
    </path>
    <path d="M-67.96363906264361,72.02064267326386L-65.95320876882518,81.40322437420039L-47.93268470794248,77.26426963461003z" style="fill:rgb(167,41,160)">
    </path>
    <path d="M-67.96363906264352,72.02064267326377L-65.95320876882509,81.40322437420039L-47.932684707942386,77.26426963460999z" style="fill:rgb(214,94,68)">
    </path>
    <path d="M-61.68309940349397,63.90401608758969L-67.96363906264361,72.02064267326386L-47.93268470794248,77.26426963461003z" style="fill:rgb(167,41,160)">
    </path>
    <path d="M-61.68309940349387,63.90401608758969L-67.96363906264352,72.02064267326377L-47.932684707942386,77.26426963460999z" style="fill:rgb(214,94,68)">
    </path>
    <path d="M-67.1677313313077,71.77547933543315L-73.06468597130944,67.40436998711938L-59.30971567592088,80.77892294346795z" style="fill:rgb(74,87,214)">
    </path>
    <path d="M-179.58823857270121,74.57040194766596L-123.65635651059893,91.95312978734778" style="fill:none;stroke:rgb(167,41,160);stroke-width:5;stroke-linecap:round">
    </path>
    <path d="M-179.5882385727011,74.57040194766593L-123.65635651059883,91.95312978734773" style="fill:none;stroke:rgb(214,94,68);stroke-width:5;stroke-linecap:round">
    </path>
    <path d="M-281.3121869011673,406.856210333947L-225.73798578539774,425.4277718861077" style="fill:none;stroke:rgb(162,186,45);stroke-width:5;stroke-linecap:round">
    </path>
    <path d="M-79.3545950596429,75.52939712224882L-77.33759567917059,84.91887639359457L-59.30971567592088,80.77892294346795z" style="fill:rgb(74,87,214)">
    </path>
    <path d="M-73.06468597130944,67.40436998711938L-79.3545950596429,75.52939712224882L-59.30971567592088,80.77892294346795z" style="fill:rgb(74,87,214)">
    </path>
    <path d="M-117.8476180513882,55.70507717664945L-273.3227039500426,103.21169380139308L-402.8140224341554,62.48723261890175z" style="fill:rgb(0,0,0); fill-opacity: 0.2">
    </path>
    <path d="M-186.48504868201792,76.67777569120281L-130.54775242425507,94.0773782988271" style="fill:none;stroke:rgb(74,87,214);stroke-width:5;stroke-linecap:round">
    </path>
    <path d="M-447.2460595928454,-170.31928294408107L-491.8461094072169,-404.0061191819869" style="fill:none;stroke:rgb(0,0,0);stroke-width:1;stroke-linecap:round">
    </path>
    <path d="M-447.2460595928454,-170.31928294408107L-491.8461094072169,-404.0061191819869" style="fill:none;stroke:rgb(0,0,0);stroke-width:1;stroke-linecap:round">
    </path>
    <path d="M-223.06184555348713,549.7717798889033L-229.06187359811707,545.6948254768602L-215.39937840957276,559.407089231532z" style="fill:rgb(162,186,45)">
    </path>
    <path d="M-284.7015033877175,535.6689723399619L-273.3227039500426,103.21169380139308L-402.8140224341554,62.48723261890175z" style="fill:rgb(0,0,0); fill-opacity: 0.2">
    </path>
    <path d="M-280.17781004562136,363.743619196935L-224.54272290207072,382.1799989937617" style="fill:none;stroke:rgb(162,186,45);stroke-width:5;stroke-linecap:round">
    </path>
    <path d="M-235.40957245618466,553.9861557050953L-233.3251140305427,563.1839874332682L-215.39937840957276,559.407089231532z" style="fill:rgb(162,186,45)">
    </path>
    <path d="M-229.06187359811707,545.6948254768602L-235.40957245618466,553.9861557050953L-215.39937840957276,559.407089231532z" style="fill:rgb(162,186,45)">
    </path>
    <path d="M-86.54204166016217,77.74334520905187L-92.4600542609682,73.36932510308715L-78.69735245033348,86.76825547951465z" style="fill:rgb(167,41,160)">
    </path>
    <path d="M-86.54204166016207,77.74334520905187L-92.4600542609681,73.3693251030871L-78.6973524503334,86.76825547951465z" style="fill:rgb(214,94,68)">
    </path>
    <path d="M-98.7659452748021,81.50867238643102L-96.73773189210486,90.90989976539736L-78.69735245033348,86.76825547951465z" style="fill:rgb(167,41,160)">
    </path>
    <path d="M-98.76594527480204,81.50867238643102L-96.73773189210476,90.90989976539731L-78.6973524503334,86.76825547951465z" style="fill:rgb(214,94,68)">
    </path>
    <path d="M-92.4600542609682,73.36932510308715L-98.7659452748021,81.50867238643102L-78.69735245033348,86.76825547951465z" style="fill:rgb(167,41,160)">
    </path>
    <path d="M-92.4600542609681,73.3693251030871L-98.76594527480204,81.50867238643102L-78.6973524503334,86.76825547951465z" style="fill:rgb(214,94,68)">
    </path>
    <path d="M-221.86800238646464,506.8007608520974L-227.87340243213973,502.6927948840384L-214.19615889928681,516.389830470395z" style="fill:rgb(162,186,45)">
    </path>
    <path d="M-95.67972892381263,80.55802563167953L-101.60768603137596,76.18263661710348L-87.84135158805493,89.5930686417572z" style="fill:rgb(74,87,214)">
    </path>
    <path d="M-279.0411191016307,320.5430799071713L-223.34501299658137,338.84368636658496" style="fill:none;stroke:rgb(162,186,45);stroke-width:5;stroke-linecap:round">
    </path>
    <path d="M-234.22718207969044,510.9783281926415L-232.14109510278934,520.2036058363992L-214.19615889928681,516.389830470395z" style="fill:rgb(162,186,45)">
    </path>
    <path d="M-227.87340243213973,502.6927948840384L-234.22718207969044,510.9783281926415L-214.19615889928681,516.389830470395z" style="fill:rgb(162,186,45)">
    </path>
    <path d="M-107.92112152997943,84.32873994046751L-105.8876105941526,93.73550555246298L-87.84135158805493,89.5930686417572z" style="fill:rgb(74,87,214)">
    </path>
    <path d="M-210.68217058130597,84.07139369017258L-154.72608742411578,101.53026488044489" style="fill:none;stroke:rgb(167,41,160);stroke-width:5;stroke-linecap:round">
    </path>
    <path d="M-210.68217058130588,84.07139369017258L-154.72608742411566,101.53026488044489" style="fill:none;stroke:rgb(214,94,68);stroke-width:5;stroke-linecap:round">
    </path>
    <path d="M-101.60768603137596,76.18263661710348L-107.92112152997943,84.32873994046751L-87.84135158805493,89.5930686417572z" style="fill:rgb(74,87,214)">
    </path>
    <path d="M-491.8461094072169,-404.0061191819869L-491.8461094072169,-404.0061191819869" style="fill:none;stroke:rgb(0,0,0);stroke-width:1;stroke-linecap:round">
    </path>
    <path d="M-215.30145449964428,85.48285166699847L-159.34182177739305,102.95304873326404" style="fill:none;stroke:rgb(74,87,214);stroke-width:5;stroke-linecap:round">
    </path>
    <path d="M-220.67172359200572,463.74207419208255L-226.6825050816284,459.6029785169058L-212.9904814259598,473.2846951154524z" style="fill:rgb(162,186,45)">
    </path>
    <path d="M-277.90210698097843,277.2543230732254L-222.14484854666824,295.418561829264" style="fill:none;stroke:rgb(162,186,45);stroke-width:5;stroke-linecap:round">
    </path>
    <path d="M-233.04237713126113,467.88267393923496L-230.95465929423446,477.1354904569958L-212.9904814259598,473.2846951154524z" style="fill:rgb(162,186,45)">
    </path>
    <path d="M-226.6825050816284,459.6029785169058L-233.04237713126113,467.88267393923496L-212.9904814259598,473.2846951154524z" style="fill:rgb(162,186,45)">
    </path>
    <path d="M-117.43417747150365,87.259045120038L-123.38584272636501,82.88040720099L-109.61089566956709,96.31823273366882z" style="fill:rgb(167,41,160)">
    </path>
    <path d="M-117.43417747150355,87.25904512003794L-123.38584272636491,82.88040720099L-109.610895669567,96.31823273366878z" style="fill:rgb(214,94,68)">
    </path>
    <path d="M-219.47300170890605,420.59545135134255L-225.48917410965157,416.4251072876046L-211.78233845012005,430.0914136170512z" style="fill:rgb(162,186,45)">
    </path>
    <path d="M-129.71725716240223,91.04260029521657L-127.67111198161567,100.46254419278853L-109.61089566956709,96.31823273366882z" style="fill:rgb(167,41,160)">
    </path>
    <path d="M-129.71725716240215,91.04260029521653L-127.67111198161557,100.46254419278853L-109.610895669567,96.31823273366878z" style="fill:rgb(214,94,68)">
    </path>
    <path d="M-123.38584272636501,82.88040720099L-129.71725716240223,91.04260029521657L-109.61089566956709,96.31823273366882z" style="fill:rgb(167,41,160)">
    </path>
    <path d="M-123.38584272636491,82.88040720099L-129.71725716240215,91.04260029521653L-109.610895669567,96.31823273366878z" style="fill:rgb(214,94,68)">
    </path>
    <path d="M-276.7607665664687,233.87707820232214L-220.94222199920668,251.9043520897684" style="fill:none;stroke:rgb(162,186,45);stroke-width:5;stroke-linecap:round">
    </path>
    <path d="M-231.8551502071026,424.6989236420229L-229.76579919712393,433.9793723904909L-211.78233845012005,430.0914136170512z" style="fill:rgb(162,186,45)">
    </path>
    <path d="M-225.48917410965157,416.4251072876046L-231.8551502071026,424.6989236420229L-211.78233845012005,430.0914136170512z" style="fill:rgb(162,186,45)">
    </path>
    <path d="M-124.31938235216776,89.3798937356913L-130.27856079587858,85.00023051641476L-116.50089836377626,98.44672924874378z" style="fill:rgb(74,87,214)">
    </path>
    <path d="M-136.61567063248435,93.16751755066595L-134.56552025820824,102.59163033251778L-116.50089836377626,98.44672924874378z" style="fill:rgb(74,87,214)">
    </path>
    <path d="M-130.27856079587858,85.00023051641476L-136.61567063248435,93.16751755066595L-116.50089836377626,98.44672924874378z" style="fill:rgb(74,87,214)">
    </path>
    <path d="M-241.9266271478626,93.6183793771489L-185.94676560922005,111.15392893821041" style="fill:none;stroke:rgb(167,41,160);stroke-width:5;stroke-linecap:round">
    </path>
    <path d="M-241.9266271478625,93.6183793771489L-185.94676560921997,111.15392893821041" style="fill:none;stroke:rgb(214,94,68);stroke-width:5;stroke-linecap:round">
    </path>
    <path d="M-218.27182924545488,377.36062267432237L-224.2934020488516,373.1589110073795L-210.57172240142935,386.8097153220005z" style="fill:rgb(162,186,45)">
    </path>
    <path d="M-244.24704934977365,94.32740235222276L-188.26544345798794,111.86865321621697" style="fill:none;stroke:rgb(74,87,214);stroke-width:5;stroke-linecap:round">
    </path>
    <path d="M-275.6170907117794,190.41107369470805L-219.73712577005023,208.30078273361752" style="fill:none;stroke:rgb(162,186,45);stroke-width:5;stroke-linecap:round">
    </path>
    <path d="M-230.6654938731201,381.42680689600974L-228.57450737339968,390.7349816322684L-210.57172240142935,386.8097153220005z" style="fill:rgb(162,186,45)">
    </path>
    <path d="M-224.2934020488516,373.1589110073795L-230.6654938731201,381.42680689600974L-210.57172240142935,386.8097153220005z" style="fill:rgb(162,186,45)">
    </path>
    <path d="M-217.0681986792792,334.0373174018098L-223.09518140128873,329.80411838094244L-209.35862567852456,343.43932846791824z" style="fill:rgb(162,186,45)">
    </path>
    <path d="M-148.47597204807215,96.82084439779004L-154.461547028268,92.43759521565494L-140.67439763746637,105.91453604720284z" style="fill:rgb(167,41,160)">
    </path>
    <path d="M-148.47597204807207,96.82084439779004L-154.4615470282679,92.4375952156549L-140.67439763746626,105.91453604720284z" style="fill:rgb(214,94,68)">
    </path>
    <path d="M-274.47107224131213,146.85603683798223L-218.52955224387128,164.60757821811146" style="fill:none;stroke:rgb(162,186,45);stroke-width:5;stroke-linecap:round">
    </path>
    <path d="M-229.47340066476306,338.0660521884126L-227.38077635454445,347.4020470720312L-209.35862567852456,343.43932846791824z" style="fill:rgb(162,186,45)">
    </path>
    <path d="M-223.09518140128873,329.80411838094244L-229.47340066476306,338.0660521884126L-209.35862567852456,343.43932846791824z" style="fill:rgb(162,186,45)">
    </path>
    <path d="M-160.81865856591793,100.62276025483726L-158.75443133928394,110.06149188578695L-140.67439763746637,105.91453604720284z" style="fill:rgb(167,41,160)">
    </path>
    <path d="M-160.81865856591784,100.62276025483722L-158.75443133928385,110.06149188578695L-140.67439763746626,105.91453604720284z" style="fill:rgb(214,94,68)">
    </path>
    <path d="M-154.461547028268,92.43759521565494L-160.81865856591793,100.62276025483726L-140.67439763746637,105.91453604720284z" style="fill:rgb(167,41,160)">
    </path>
    <path d="M-154.4615470282679,92.4375952156549L-160.81865856591784,100.62276025483722L-140.67439763746626,105.91453604720284z" style="fill:rgb(214,94,68)">
    </path>
    <path d="M-153.0875508638719,98.24134832134531L-159.07817152595845,93.85741656190298L-145.28921809592543,107.34017108676281z" style="fill:rgb(74,87,214)">
    </path>
    <path d="M-165.43910491179233,102.04599564233712L-163.37218599065517,111.48751672076575L-145.28921809592543,107.34017108676281z" style="fill:rgb(74,87,214)">
    </path>
    <path d="M-159.07817152595845,93.85741656190298L-165.43910491179233,102.04599564233712L-145.28921809592543,107.34017108676281z" style="fill:rgb(74,87,214)">
    </path>
    <path d="M-215.86210245718652,290.62526366528385L-221.89450463828493,286.36045700080183L-208.14304064885897,299.979980177543z" style="fill:rgb(162,186,45)">
    </path>
    <path d="M-273.32270395004247,103.21169380139304L-217.31949377400036,120.82446186652746" style="fill:none;stroke:rgb(74,87,214);stroke-width:5;stroke-linecap:round">
    </path>
    <path d="M-273.3227039500426,103.21169380139308L-217.31949377400048,120.8244618665275" style="fill:none;stroke:rgb(167,41,160);stroke-width:5;stroke-linecap:round">
    </path>
    <path d="M-273.32270395004247,103.21169380139304L-217.31949377400036,120.82446186652746" style="fill:none;stroke:rgb(214,94,68);stroke-width:5;stroke-linecap:round">
    </path>
    <path d="M-273.3227039500426,103.21169380139308L-217.31949377400048,120.8244618665275" style="fill:none;stroke:rgb(162,186,45);stroke-width:5;stroke-linecap:round">
    </path>
    <path d="M-228.27886308686902,294.6163868929824L-226.18459864142562,303.9802964881372L-208.14304064885897,299.979980177543z" style="fill:rgb(162,186,45)">
    </path>
    <path d="M-221.89450463828493,286.36045700080183L-228.27886308686902,294.6163868929824L-208.14304064885897,299.979980177543z" style="fill:rgb(162,186,45)">
    </path>
    <path d="M-214.65353299500708,247.12418848122786L-220.69136420026564,242.8276533415574L-206.92495964854163,256.4313964530111z" style="fill:rgb(162,186,45)">
    </path>
    <path d="M-227.08187361350664,251.07753726429073L-224.9859667041385,260.46945654189716L-206.92495964854163,256.4313964530111z" style="fill:rgb(162,186,45)">
    </path>
    <path d="M-220.69136420026564,242.8276533415574L-227.08187361350664,251.07753726429073L-206.92495964854163,256.4313964530111z" style="fill:rgb(162,186,45)">
    </path>
    <path d="M-179.66851557661377,106.42907885236615L-185.68825991317544,102.04122521617417L-171.88895216111055,115.55750332485508z" style="fill:rgb(167,41,160)">
    </path>
    <path d="M-179.66851557661366,106.4290788523661L-185.68825991317533,102.04122521617413L-171.88895216111047,115.55750332485508z" style="fill:rgb(214,94,68)">
    </path>
    <path d="M-181.98510143518922,107.14265644320872L-188.0073872345098,102.75446201443333L-174.20718064189106,116.27366287681515z" style="fill:rgb(74,87,214)">
    </path>
    <path d="M-192.0712438629187,110.24948936625003L-189.9887827847238,119.707080321809L-171.88895216111047,115.55750332485508z" style="fill:rgb(214,94,68)">
    </path>
    <path d="M-192.07124386291878,110.24948936625003L-189.9887827847239,119.70708032180904L-171.88895216111055,115.55750332485508z" style="fill:rgb(167,41,160)">
    </path>
    <path d="M-185.68825991317544,102.04122521617417L-192.07124386291878,110.24948936625003L-171.88895216111055,115.55750332485508z" style="fill:rgb(167,41,160)">
    </path>
    <path d="M-185.68825991317533,102.04122521617413L-192.0712438629187,110.24948936625003L-171.88895216111047,115.55750332485508z" style="fill:rgb(214,94,68)">
    </path>
    <path d="M-213.44248267743464,203.5338177454074L-219.48575249660155,199.20543275415966L-205.70437498217666,212.7933021700984z" style="fill:rgb(162,186,45)">
    </path>
    <path d="M-194.39229467843418,110.96444229710197L-192.30847686239468,120.42343309800718L-174.20718064189106,116.27366287681515z" style="fill:rgb(74,87,214)">
    </path>
    <path d="M-188.0073872345098,102.75446201443333L-194.39229467843418,110.96444229710197L-174.20718064189106,116.27366287681515z" style="fill:rgb(74,87,214)">
    </path>
    <path d="M-225.8824246878174,207.44922843198069L-223.78487298184797,216.86925277184082L-205.70437498217666,212.7933021700984z" style="fill:rgb(162,186,45)">
    </path>
    <path d="M-219.48575249660155,199.20543275415966L-225.8824246878174,207.44922843198069L-205.70437498217666,212.7933021700984z" style="fill:rgb(162,186,45)">
    </path>
    <path d="M-212.2289438578667,159.85387622711275L-218.27766190544878,155.49351946013377L-204.4812789227012,169.06542107242652z" style="fill:rgb(162,186,45)">
    </path>
    <path d="M-224.68050872185688,163.73118439498205L-222.5813098826298,173.17940958794455L-204.4812789227012,169.06542107242652z" style="fill:rgb(162,186,45)">
    </path>
    <path d="M-218.27766190544878,155.49351946013377L-224.68050872185688,163.73118439498205L-204.4812789227012,169.06542107242652z" style="fill:rgb(162,186,45)">
    </path>
    <path d="M-211.01290885824343,116.08408756336681L-217.06708477358808,111.69163654576842L-203.25566371122216,125.24747576563323z" style="fill:rgb(74,87,214)">
    </path>
    <path d="M-211.01290885824352,116.08408756336686L-217.0670847735882,111.69163654576842L-203.25566371122227,125.24747576563327z" style="fill:rgb(167,41,160)">
    </path>
    <path d="M-211.01290885824343,116.08408756336681L-217.06708477358808,111.69163654576842L-203.25566371122216,125.24747576563323z" style="fill:rgb(214,94,68)">
    </path>
    <path d="M-211.01290885824352,116.08408756336686L-217.0670847735882,111.69163654576842L-203.25566371122227,125.24747576563327z" style="fill:rgb(162,186,45)">
    </path>
    <path d="M-223.47611809643425,119.92312801569169L-221.37526978331024,129.3996502658256L-203.25566371122216,125.24747576563323z" style="fill:rgb(74,87,214)">
    </path>
    <path d="M-223.47611809643433,119.92312801569174L-221.37526978331033,129.3996502658256L-203.25566371122227,125.24747576563327z" style="fill:rgb(167,41,160)">
    </path>
    <path d="M-223.47611809643425,119.92312801569169L-221.37526978331024,129.3996502658256L-203.25566371122216,125.24747576563323z" style="fill:rgb(214,94,68)">
    </path>
    <path d="M-223.47611809643433,119.92312801569174L-221.37526978331033,129.3996502658256L-203.25566371122227,125.24747576563327z" style="fill:rgb(162,186,45)">
    </path>
    <path d="M-217.06708477358808,111.69163654576842L-223.47611809643425,119.92312801569169L-203.25566371122216,125.24747576563323z" style="fill:rgb(74,87,214)">
    </path>
    <path d="M-217.0670847735882,111.69163654576842L-223.47611809643433,119.92312801569174L-203.25566371122227,125.24747576563327z" style="fill:rgb(167,41,160)">
    </path>
    <path d="M-217.06708477358808,111.69163654576842L-223.47611809643425,119.92312801569169L-203.25566371122216,125.24747576563323z" style="fill:rgb(214,94,68)">
    </path>
    <path d="M-217.0670847735882,111.69163654576842L-223.47611809643433,119.92312801569174L-203.25566371122227,125.24747576563327z" style="fill:rgb(162,186,45)">
    </path>
</svg>