<svg viewBox="-1163.5 -590 2327 1180" width="2327" height="1180" style="background-color: rgb(255, 255, 255);">
    <path d="M-145.92535752663125,250.51508740574562L-121.64209589040026,-575.3587958890241" style="fill:none;stroke:rgb(0,0,0);stroke-width:1;stroke-linecap:round">
    </path>
    <path d="M-8.647871851981163,294.62640779891166L-145.92535752663125,250.51508740574562" style="fill:none;stroke:rgb(160,0,0);stroke-width:3;stroke-linecap:round">
    </path>
    <path d="M-8.64787185198145,294.62640779891154L18.545474302454867,-537.7487136408192" style="fill:none;stroke:rgb(0,0,0);stroke-width:1;stroke-linecap:round">
    </path>
    <path d="M-106.7972466030911,358.25143144046535L-8.64787185198145,294.62640779891154" style="fill:none;stroke:rgb(160,0,0);stroke-width:3;stroke-linecap:round">
    </path>
    <path d="M129.46467711405526,305.02143321657974L131.56663597098583,315.32436826909117L135.77155043693267,309.6979030466432z" style="fill:rgb(197,147,42)">
    </path>
    <path d="M142.27359009673603,309.1100538891878L139.48103030007786,317.85542618549084L147.70598068557666,305.736315530246z" style="fill:rgb(197,147,42)">
    </path>
    <path d="M131.56663597098583,315.32436826909117L139.48103030007786,317.85542618549084L135.77155043693267,309.6979030466432z" style="fill:rgb(197,147,42)">
    </path>
    <path d="M136.07906937439833,301.17622075502305L142.27359009673603,309.1100538891878L147.70598068557666,305.736315530246z" style="fill:rgb(197,147,42)">
    </path>
    <path d="M136.07906937439833,301.17622075502305L129.46467711405526,305.02143321657974L135.77155043693267,309.6979030466432z" style="fill:rgb(197,147,42)">
    </path>
    <path d="M87.80598126605301,325.619886424596L135.77155043693267,309.6979030466432" style="fill:none;stroke:rgb(197,147,42);stroke-width:5;stroke-linecap:round">
    </path>
    <path d="M139.48103030007786,317.85542618549084L142.27359009673603,309.1100538891878L135.77155043693267,309.6979030466432z" style="fill:rgb(197,147,42)">
    </path>
    <path d="M142.27359009673603,309.1100538891878L136.07906937439833,301.17622075502305L135.77155043693267,309.6979030466432z" style="fill:rgb(197,147,42)">
    </path>
    <path d="M130.9353094017788,264.09546677338517L133.03919119689587,274.41126994459415L137.24876932195014,268.7625703577233z" style="fill:rgb(197,147,42)">
    </path>
    <path d="M143.75777302448384,268.1551735878954L140.96195618737025,276.9244752632355L149.1933037562469,264.83609055503297z" style="fill:rgb(197,147,42)">
    </path>
    <path d="M133.03919119689587,274.41126994459415L140.96195618737025,276.9244752632355L137.24876932195014,268.7625703577233z" style="fill:rgb(197,147,42)">
    </path>
    <path d="M137.556882282119,260.2244270546527L143.75777302448384,268.1551735878954L149.1933037562469,264.83609055503297z" style="fill:rgb(197,147,42)">
    </path>
    <path d="M137.556882282119,260.2244270546527L130.9353094017788,264.09546677338517L137.24876932195014,268.7625703577233z" style="fill:rgb(197,147,42)">
    </path>
    <path d="M89.24236954062464,284.5435252520401L137.24876932195016,268.7625703577233" style="fill:none;stroke:rgb(197,147,42);stroke-width:5;stroke-linecap:round">
    </path>
    <path d="M140.96195618737025,276.9244752632355L143.75777302448384,268.1551735878954L137.24876932195014,268.7625703577233z" style="fill:rgb(197,147,42)">
    </path>
    <path d="M143.75777302448384,268.1551735878954L137.556882282119,260.2244270546527L137.24876932195014,268.7625703577233z" style="fill:rgb(197,147,42)">
    </path>
    <path d="M18.54547430245516,-537.7487136408191L-8.647871851981163,294.62640779891166L-145.92535752663125,250.51508740574562z" style="fill:rgb(0,0,0); fill-opacity: 0.2">
    </path>
    <path d="M132.40878257694422,223.09044177484054L134.514590821227,233.4191435807871L138.72884278679464,227.748134175006z" style="fill:rgb(197,147,42)">
    </path>
    <path d="M145.24482532045295,227.12111528916927L142.44574406234082,235.9144225586409L150.68349819627468,223.85690516091123z" style="fill:rgb(197,147,42)">
    </path>
    <path d="M134.514590821227,233.4191435807871L142.44574406234082,235.9144225586409L138.72884278679464,227.748134175006z" style="fill:rgb(197,147,42)">
    </path>
    <path d="M139.03755149250733,219.19348211870806L145.24482532045295,227.12111528916927L150.68349819627468,223.85690516091123z" style="fill:rgb(197,147,42)">
    </path>
    <path d="M139.03755149250733,219.19348211870806L132.40878257694422,223.09044177484054L138.72884278679464,227.748134175006z" style="fill:rgb(197,147,42)">
    </path>
    <path d="M90.68154411292079,243.3874843900188L138.72884278679464,227.748134175006" style="fill:none;stroke:rgb(197,147,42);stroke-width:5;stroke-linecap:round">
    </path>
    <path d="M142.44574406234082,235.9144225586409L145.24482532045295,227.12111528916927L138.72884278679464,227.748134175006z" style="fill:rgb(197,147,42)">
    </path>
    <path d="M145.24482532045295,227.12111528916927L139.03755149250733,219.19348211870806L138.72884278679464,227.748134175006z" style="fill:rgb(197,147,42)">
    </path>
    <path d="M133.8851048793179,182.0061289179444L135.9928430933377,192.3477599796035L140.2117791137596,186.6543649871852z" style="fill:rgb(197,147,42)">
    </path>
    <path d="M146.73475531371142,186.00764915881734L143.9324022294862,194.8250385457444L152.17657232872892,182.79853046997627z" style="fill:rgb(197,147,42)">
    </path>
    <path d="M135.9928430933377,192.3477599796035L143.9324022294862,194.8250385457444L140.2117791137596,186.6543649871852z" style="fill:rgb(197,147,42)">
    </path>
    <path d="M140.52108529452562,178.08315625108406L146.73475531371142,186.00764915881734L152.17657232872892,182.79853046997627z" style="fill:rgb(197,147,42)">
    </path>
    <path d="M140.52108529452562,178.08315625108406L133.8851048793179,182.0061289179444L140.2117791137596,186.6543649871852z" style="fill:rgb(197,147,42)">
    </path>
    <path d="M92.12351309807893,202.15153177014366L140.21177911375963,186.6543649871852" style="fill:none;stroke:rgb(197,147,42);stroke-width:5;stroke-linecap:round">
    </path>
    <path d="M143.9324022294862,194.8250385457444L146.73475531371142,186.00764915881734L140.2117791137596,186.6543649871852z" style="fill:rgb(197,147,42)">
    </path>
    <path d="M146.73475531371142,186.00764915881734L140.52108529452562,178.08315625108406L140.2117791137596,186.6543649871852z" style="fill:rgb(197,147,42)">
    </path>
    <path d="M135.36428458056199,140.8422980120706L137.47395629451714,151.196889055822L141.69758661720985,145.4810323942217z" style="fill:rgb(197,147,42)">
    </path>
    <path d="M148.2275713655948,144.81454447225016L145.42193902546293,153.65609280971736L153.67253450887694,141.66073671888856z" style="fill:rgb(197,147,42)">
    </path>
    <path d="M137.47395629451714,151.196889055822L145.42193902546293,153.65609280971736L141.69758661720985,145.4810323942217z" style="fill:rgb(197,147,42)">
    </path>
    <path d="M142.00749200923957,136.89321886604742L148.2275713655948,144.81454447225016L153.67253450887694,141.66073671888856z" style="fill:rgb(197,147,42)">
    </path>
    <path d="M102.2962278890691,-88.75735008127702L87.80598126605301,325.619886424596" style="fill:none;stroke:rgb(50,34,0);stroke-width:5;stroke-linecap:round">
    </path>
    <path d="M87.80598126605301,325.619886424596L-106.79724660309081,358.25143144046547" style="fill:none;stroke:rgb(160,0,0);stroke-width:3;stroke-linecap:round">
    </path>
    <path d="M142.00749200923957,136.89321886604742L135.36428458056199,140.8422980120706L141.69758661720985,145.4810323942217z" style="fill:rgb(197,147,42)">
    </path>
    <path d="M93.56828464278085,160.83543442194662L141.69758661720985,145.4810323942217" style="fill:none;stroke:rgb(197,147,42);stroke-width:5;stroke-linecap:round">
    </path>
    <path d="M145.42193902546293,153.65609280971736L148.2275713655948,144.81454447225016L141.69758661720985,145.4810323942217z" style="fill:rgb(197,147,42)">
    </path>
    <path d="M148.2275713655948,144.81454447225016L142.00749200923957,136.89321886604742L141.69758661720985,145.4810323942217z" style="fill:rgb(197,147,42)">
    </path>
    <path d="M136.84632998438886,99.59871797466892L138.95793873813957,109.96629983276945L143.18627364373697,104.2279051030367z" style="fill:rgb(197,147,42)">
    </path>
    <path d="M149.72328186986252,103.54156961016479L146.9143628192437,112.40735404255788L155.17139312434063,100.44329325458719z" style="fill:rgb(197,147,42)">
    </path>
    <path d="M138.95793873813957,109.96629983276945L146.9143628192437,112.40735404255788L143.18627364373697,104.2279051030367z" style="fill:rgb(197,147,42)">
    </path>
    <path d="M143.4967799899745,95.62343848392534L149.72328186986252,103.54156961016479L155.17139312434063,100.44329325458719z" style="fill:rgb(197,147,42)">
    </path>
    <path d="M143.4967799899745,95.62343848392534L136.84632998438886,99.59871797466892L143.18627364373697,104.2279051030367z" style="fill:rgb(197,147,42)">
    </path>
    <path d="M95.01586692540658,119.4389584684925L143.186273643737,104.2279051030367" style="fill:none;stroke:rgb(197,147,42);stroke-width:5;stroke-linecap:round">
    </path>
    <path d="M-121.64209589040026,-575.3587958890241L-145.92535752663125,250.51508740574562L18.54547430245516,-537.7487136408191z" style="fill:rgb(0,0,0); fill-opacity: 0.2">
    </path>
    <path d="M146.9143628192437,112.40735404255788L149.72328186986252,103.54156961016479L143.18627364373697,104.2279051030367z" style="fill:rgb(197,147,42)">
    </path>
    <path d="M149.72328186986252,103.54156961016479L143.4967799899745,95.62343848392534L143.18627364373697,104.2279051030367z" style="fill:rgb(197,147,42)">
    </path>
    <path d="M138.33124942671694,58.275156826941114L140.44479876982058,68.6557604379999L144.67784857231564,62.894750923181256z" style="fill:rgb(197,147,42)">
    </path>
    <path d="M151.22189525285543,62.1884920542035L148.40968201227386,71.07859003875902L156.67315659525286,59.14596852997915z" style="fill:rgb(197,147,42)">
    </path>
    <path d="M140.44479876982058,68.6557604379999L148.40968201227386,71.07859003875902L144.67784857231564,62.894750923181256z" style="fill:rgb(197,147,42)">
    </path>
    <path d="M144.9889576224712,54.27358272676917L151.22189525285543,62.1884920542035L156.67315659525286,59.14596852997915z" style="fill:rgb(197,147,42)">
    </path>
    <path d="M144.9889576224712,54.27358272676917L138.33124942671694,58.275156826941114L144.67784857231564,62.894750923181256z" style="fill:rgb(197,147,42)">
    </path>
    <path d="M96.46626815618828,77.96186912196595L144.67784857231567,62.894750923181256" style="fill:none;stroke:rgb(197,147,42);stroke-width:5;stroke-linecap:round">
    </path>
    <path d="M148.40968201227386,71.07859003875902L151.22189525285543,62.1884920542035L144.67784857231564,62.894750923181256z" style="fill:rgb(197,147,42)">
    </path>
    <path d="M151.22189525285543,62.1884920542035L144.9889576224712,54.27358272676917L144.67784857231564,62.894750923181256z" style="fill:rgb(197,147,42)">
    </path>
    <path d="M139.81905127582635,16.87138168949168L141.9345447675727,27.265038098947617L146.17231981446085,21.48133676247986z" style="fill:rgb(197,147,42)">
    </path>
    <path d="M152.72341997365368,20.755078382587648L149.90790503862902,29.669567690951297L158.17783337441557,17.768530099603655z" style="fill:rgb(197,147,42)">
    </path>
    <path d="M141.9345447675727,27.265038098947617L149.90790503862902,29.669567690951297L146.17231981446085,21.48133676247986z" style="fill:rgb(197,147,42)">
    </path>
    <path d="M146.48403332504378,12.843418313993102L152.72341997365368,20.755078382587648L158.17783337441557,17.768530099603655z" style="fill:rgb(197,147,42)">
    </path>
    <path d="M146.48403332504378,12.843418313993102L139.81905127582635,16.87138168949168L146.17231981446085,21.48133676247986z" style="fill:rgb(197,147,42)">
    </path>
    <path d="M97.91949657736579,36.403930679232786L146.17231981446085,21.481336762479877" style="fill:none;stroke:rgb(197,147,42);stroke-width:5;stroke-linecap:round">
    </path>
    <path d="M149.90790503862902,29.669567690951297L152.72341997365368,20.755078382587648L146.17231981446085,21.48133676247986z" style="fill:rgb(197,147,42)">
    </path>
    <path d="M152.72341997365368,20.755078382587648L146.48403332504378,12.843418313993102L146.17231981446085,21.48133676247986z" style="fill:rgb(197,147,42)">
    </path>
    <path d="M141.30974393251674,-24.61284122204687L143.42718514196352,-14.20610086144476L147.66969581438596,-20.012571377350973z" style="fill:rgb(197,147,42)">
    </path>
    <path d="M154.22786452423625,-20.758905734274464L151.40904036517387,-11.819947014479553L159.685431947458,-23.689255384729087z" style="fill:rgb(197,147,42)">
    </path>
    <path d="M143.42718514196352,-14.20610086144476L151.40904036517387,-11.819947014479553L147.66969581438596,-20.012571377350973z" style="fill:rgb(197,147,42)">
    </path>
    <path d="M147.98201554873788,-28.667288942012778L154.22786452423625,-20.758905734274464L159.685431947458,-23.689255384729087z" style="fill:rgb(197,147,42)">
    </path>
    <path d="M147.98201554873788,-28.667288942012778L141.30974393251674,-24.61284122204687L147.66969581438596,-20.012571377350973z" style="fill:rgb(197,147,42)">
    </path>
    <path d="M99.37556046334254,-5.235093482624913L147.66969581438596,-20.012571377350994" style="fill:none;stroke:rgb(197,147,42);stroke-width:5;stroke-linecap:round">
    </path>
    <path d="M151.40904036517387,-11.819947014479553L154.22786452423625,-20.758905734274464L147.66969581438596,-20.012571377350973z" style="fill:rgb(197,147,42)">
    </path>
    <path d="M154.22786452423625,-20.758905734274464L147.98201554873788,-28.667288942012778L147.66969581438596,-20.012571377350973z" style="fill:rgb(197,147,42)">
    </path>
    <path d="M18.54547430245516,-537.7487136408191L-121.64209589040026,-575.3587958890241" style="fill:none;stroke:rgb(0,0,0);stroke-width:1;stroke-linecap:round">
    </path>
    <path d="M-121.64209589040026,-575.3587958890241L-632.9325915276765,-444.34584225505716" style="fill:none;stroke:rgb(0,0,0);stroke-width:1;stroke-linecap:round">
    </path>
    <path d="M18.54547430245516,-537.7487136408191L-121.64209589040026,-575.3587958890241" style="fill:none;stroke:rgb(0,0,0);stroke-width:1;stroke-linecap:round">
    </path>
    <path d="M142.80333583026493,-66.17774660141447L144.92272833627337,-55.757891029124124L149.16998504916168,-61.587208405110566z" style="fill:rgb(197,147,42)">
    </path>
    <path d="M155.73523742964068,-62.35369553820536L152.91309649172135,-53.390189001801645L161.1959608329963,-65.22762217832472z" style="fill:rgb(197,147,42)">
    </path>
    <path d="M144.92272833627337,-55.757891029124124L152.91309649172135,-53.390189001801645L149.16998504916168,-61.587208405110566z" style="fill:rgb(197,147,42)">
    </path>
    <path d="M149.48291277748947,-70.25877414029563L155.73523742964068,-62.35369553820536L161.1959608329963,-65.22762217832472z" style="fill:rgb(197,147,42)">
    </path>
    <path d="M149.48291277748947,-70.25877414029563L142.80333583026493,-66.17774660141447L149.16998504916168,-61.587208405110566z" style="fill:rgb(197,147,42)">
    </path>
    <path d="M100.83446812084269,-46.955440910799965L149.1699850491617,-61.58720840511059" style="fill:none;stroke:rgb(197,147,42);stroke-width:5;stroke-linecap:round">
    </path>
    <path d="M152.91309649172135,-53.390189001801645L155.73523742964068,-62.35369553820536L149.16998504916168,-61.587208405110566z" style="fill:rgb(197,147,42)">
    </path>
    <path d="M155.73523742964068,-62.35369553820536L149.48291277748947,-70.25877414029563L149.16998504916168,-61.587208405110566z" style="fill:rgb(197,147,42)">
    </path>
    <path d="M144.29983543538418,-107.82357005614891L146.4211828266549,-97.39056790334963L150.67319602887645,-103.24281014454627z" style="fill:rgb(197,147,42)">
    </path>
    <path d="M157.24554724812458,-104.02952718770135L154.42008195119342,-95.04139411037012L162.7094285827943,-106.84680544801661z" style="fill:rgb(197,147,42)">
    </path>
    <path d="M146.4211828266549,-97.39056790334963L154.42008195119342,-95.04139411037012L150.67319602887645,-103.24281014454627z" style="fill:rgb(197,147,42)">
    </path>
    <path d="M150.9867335282859,-111.93127329577739L157.24554724812458,-104.02952718770135L162.7094285827943,-106.84680544801661z" style="fill:rgb(197,147,42)">
    </path>
    <path d="M150.9867335282859,-111.93127329577739L144.29983543538418,-107.82357005614891L150.67319602887645,-103.24281014454627z" style="fill:rgb(197,147,42)">
    </path>
    <path d="M102.2962278890691,-88.75735008127702L150.67319602887645,-103.24281014454628" style="fill:none;stroke:rgb(197,147,42);stroke-width:5;stroke-linecap:round">
    </path>
    <path d="M154.42008195119342,-95.04139411037012L157.24554724812458,-104.02952718770135L150.67319602887645,-103.24281014454627z" style="fill:rgb(197,147,42)">
    </path>
    <path d="M102.2962278890691,-88.75735008127702L87.80598126605301,325.619886424596L-106.79724660309081,358.25143144046547z" style="fill:rgb(0,0,0); fill-opacity: 0.2">
    </path>
    <path d="M157.24554724812458,-104.02952718770135L150.9867335282859,-111.93127329577739L150.67319602887645,-103.24281014454627z" style="fill:rgb(197,147,42)">
    </path>
    <path d="M107.72502711708432,-20.261059268790447L97.92529755096338,-21.864605742096455L99.86154663008618,-19.13282828276614z" style="fill:rgb(109,213,75)">
    </path>
    <path d="M107.72502711708438,-20.261059268790447L97.92529755096338,-21.864605742096455L99.86154663008618,-19.13282828276614z" style="fill:rgb(43,180,168)">
    </path>
    <path d="M107.72502711708432,-20.261059268790447L97.92529755096338,-21.864605742096455L99.86154663008618,-19.13282828276614z" style="fill:rgb(74,87,214)">
    </path>
    <path d="M97.92529755096338,-21.864605742096455L90.79864988702595,-19.693586351773895L99.86154663008618,-19.13282828276614z" style="fill:rgb(109,213,75)">
    </path>
    <path d="M97.92529755096338,-21.864605742096455L90.79864988702599,-19.69358635177394L99.86154663008618,-19.13282828276614z" style="fill:rgb(43,180,168)">
    </path>
    <path d="M97.92529755096338,-21.864605742096455L90.79864988702595,-19.693586351773895L99.86154663008618,-19.13282828276614z" style="fill:rgb(74,87,214)">
    </path>
    <path d="M102.2962278890691,-88.75735008127702L99.8615466300862,-19.132828282766173" style="fill:none;stroke:rgb(109,213,75);stroke-width:5;stroke-linecap:round">
    </path>
    <path d="M102.2962278890691,-88.75735008127702L99.8615466300862,-19.132828282766173" style="fill:none;stroke:rgb(43,180,168);stroke-width:5;stroke-linecap:round">
    </path>
    <path d="M102.2962278890691,-88.75735008127702L99.8615466300862,-19.132828282766173" style="fill:none;stroke:rgb(74,87,214);stroke-width:5;stroke-linecap:round">
    </path>
    <path d="M106.66339453071303,-17.095978754307726L107.72502711708432,-20.261059268790447L99.86154663008618,-19.13282828276614z" style="fill:rgb(109,213,75)">
    </path>
    <path d="M106.66339453071309,-17.095978754307726L107.72502711708438,-20.261059268790447L99.86154663008618,-19.13282828276614z" style="fill:rgb(43,180,168)">
    </path>
    <path d="M106.66339453071303,-17.095978754307726L107.72502711708432,-20.261059268790447L99.86154663008618,-19.13282828276614z" style="fill:rgb(74,87,214)">
    </path>
    <path d="M96.19532318357118,-16.744516679146017L90.79864988702595,-19.693586351773895L99.25411330468854,-1.762071987973448z" style="fill:rgb(109,213,75)">
    </path>
    <path d="M96.19532318357118,-16.744516679146017L90.79864988702599,-19.69358635177394L99.25411330468854,-1.762071987973448z" style="fill:rgb(43,180,168)">
    </path>
    <path d="M96.19532318357118,-16.744516679146017L90.79864988702595,-19.693586351773895L99.25411330468854,-1.762071987973448z" style="fill:rgb(74,87,214)">
    </path>
    <path d="M90.79864988702595,-19.693586351773895L96.19532318357118,-16.744516679146017L99.86154663008618,-19.13282828276614z" style="fill:rgb(109,213,75)">
    </path>
    <path d="M90.79864988702599,-19.69358635177394L96.19532318357118,-16.744516679146017L99.86154663008618,-19.13282828276614z" style="fill:rgb(43,180,168)">
    </path>
    <path d="M90.79864988702595,-19.693586351773895L96.19532318357118,-16.744516679146017L99.86154663008618,-19.13282828276614z" style="fill:rgb(74,87,214)">
    </path>
    <path d="M106.66339453071303,-17.095978754307726L96.19532318357118,-16.744516679146017L99.25411330468854,-1.762071987973448z" style="fill:rgb(109,213,75)">
    </path>
    <path d="M106.66339453071303,-17.095978754307726L96.19532318357118,-16.744516679146017L99.25411330468854,-1.762071987973448z" style="fill:rgb(43,180,168)">
    </path>
    <path d="M106.66339453071303,-17.095978754307726L96.19532318357118,-16.744516679146017L99.25411330468854,-1.762071987973448z" style="fill:rgb(74,87,214)">
    </path>
    <path d="M96.19532318357118,-16.744516679146017L106.66339453071303,-17.095978754307726L99.86154663008618,-19.13282828276614z" style="fill:rgb(109,213,75)">
    </path>
    <path d="M96.19532318357118,-16.744516679146017L106.66339453071303,-17.095978754307726L99.86154663008618,-19.13282828276614z" style="fill:rgb(43,180,168)">
    </path>
    <path d="M96.19532318357118,-16.744516679146017L106.66339453071303,-17.095978754307726L99.86154663008618,-19.13282828276614z" style="fill:rgb(74,87,214)">
    </path>
    <path d="M-106.79724660309081,358.25143144046547L-87.65916547454023,-271.25747690772135" style="fill:none;stroke:rgb(0,0,0);stroke-width:1;stroke-linecap:round">
    </path>
    <path d="M-87.65916547454052,-271.2574769077214L-106.7972466030911,358.25143144046535L-8.64787185198145,294.62640779891154z" style="fill:rgb(0,0,0); fill-opacity: 0.2">
    </path>
    <path d="M102.2962278890691,-88.75735008127702L-87.65916547454023,-271.25747690772135" style="fill:none;stroke:rgb(0,0,0);stroke-width:1;stroke-linecap:round">
    </path>
    <path d="M-45.09916983461635,-44.62291525961114L102.2962278890691,-88.75735008127702" style="fill:none;stroke:rgb(22,55,11);stroke-width:5;stroke-linecap:round">
    </path>
    <path d="M102.2962278890691,-88.75735008127702L-87.65916547454023,-271.25747690772135" style="fill:none;stroke:rgb(0,0,0);stroke-width:1;stroke-linecap:round">
    </path>
    <path d="M102.2962278890691,-88.75735008127702L-45.09916983461635,-44.62291525961114" style="fill:none;stroke:rgb(0,44,41);stroke-width:5;stroke-linecap:round">
    </path>
    <path d="M102.2962278890691,-88.75735008127702L60.49682182730053,-312.84574952765666" style="fill:none;stroke:rgb(0,0,0);stroke-width:1;stroke-linecap:round">
    </path>
    <path d="M-402.8140224341554,62.48723261890175L102.2962278890691,-88.75735008127702" style="fill:none;stroke:rgb(10,15,55);stroke-width:5;stroke-linecap:round">
    </path>
    <path d="M102.2962278890691,-88.75735008127702L60.49682182730053,-312.84574952765666" style="fill:none;stroke:rgb(0,0,0);stroke-width:1;stroke-linecap:round">
    </path>
    <path d="M80.75190507513364,-12.034297074100321L70.9393488881223,-13.643767477600688L72.8627654964237,-10.900962134220453z" style="fill:rgb(74,87,214)">
    </path>
    <path d="M70.9393488881223,-13.643767477600688L63.782132395317184,-11.463435781781808L72.8627654964237,-10.900962134220453z" style="fill:rgb(74,87,214)">
    </path>
    <path d="M78.5890615671856,-11.374633013835272L68.77547838793382,-12.984578889138797L70.69786287840101,-10.240888315036836z" style="fill:rgb(109,213,75)">
    </path>
    <path d="M78.58906156718565,-11.374633013835272L68.77547838793386,-12.984578889138797L70.69786287840101,-10.240888315036836z" style="fill:rgb(43,180,168)">
    </path>
    <path d="M68.77547838793382,-12.984578889138797L61.61580789630049,-10.803499621769992L70.69786287840101,-10.240888315036836z" style="fill:rgb(109,213,75)">
    </path>
    <path d="M68.77547838793386,-12.984578889138797L61.61580789630049,-10.803499621769992L70.69786287840101,-10.240888315036836z" style="fill:rgb(43,180,168)">
    </path>
    <path d="M18.545474302454867,-537.7487136408192L-8.64787185198145,294.62640779891154L-87.65916547454052,-271.2574769077214z" style="fill:rgb(0,0,0); fill-opacity: 0.2">
    </path>
    <path d="M75.2585940105781,-80.66150239151857L72.8627654964237,-10.900962134220489" style="fill:none;stroke:rgb(74,87,214);stroke-width:5;stroke-linecap:round">
    </path>
    <path d="M79.66764973433524,-8.856224804930152L80.75190507513364,-12.034297074100321L72.8627654964237,-10.900962134220453z" style="fill:rgb(74,87,214)">
    </path>
    <path d="M69.17272230225865,-8.502663511877177L63.782132395317184,-11.463435781781808L72.26502822496793,6.503653739714794z" style="fill:rgb(74,87,214)">
    </path>
    <path d="M73.09056780098311,-80.01233279113247L70.69786287840101,-10.240888315036868" style="fill:none;stroke:rgb(109,213,75);stroke-width:5;stroke-linecap:round">
    </path>
    <path d="M73.09056780098311,-80.01233279113251L70.69786287840101,-10.240888315036914" style="fill:none;stroke:rgb(43,180,168);stroke-width:5;stroke-linecap:round">
    </path>
    <path d="M63.782132395317184,-11.463435781781808L69.17272230225865,-8.502663511877177L72.8627654964237,-10.900962134220453z" style="fill:rgb(74,87,214)">
    </path>
    <path d="M79.66764973433524,-8.856224804930152L69.17272230225865,-8.502663511877177L72.26502822496793,6.503653739714794z" style="fill:rgb(74,87,214)">
    </path>
    <path d="M77.50298844698169,-8.195517848108958L78.5890615671856,-11.374633013835272L70.69786287840101,-10.240888315036836z" style="fill:rgb(109,213,75)">
    </path>
    <path d="M77.50298844698169,-8.195517848108958L78.58906156718565,-11.374633013835272L70.69786287840101,-10.240888315036836z" style="fill:rgb(43,180,168)">
    </path>
    <path d="M67.00590673455656,-7.841787979281672L61.61580789630049,-10.803499621769992L70.10090512325738,7.166441972322743z" style="fill:rgb(109,213,75)">
    </path>
    <path d="M67.0059067345566,-7.841787979281672L61.61580789630049,-10.803499621769992L70.10090512325738,7.166441972322743z" style="fill:rgb(43,180,168)">
    </path>
    <path d="M69.17272230225865,-8.502663511877177L79.66764973433524,-8.856224804930152L72.8627654964237,-10.900962134220453z" style="fill:rgb(74,87,214)">
    </path>
    <path d="M61.61580789630049,-10.803499621769992L67.00590673455656,-7.841787979281672L70.69786287840101,-10.240888315036836z" style="fill:rgb(109,213,75)">
    </path>
    <path d="M61.61580789630049,-10.803499621769992L67.0059067345566,-7.841787979281672L70.69786287840101,-10.240888315036836z" style="fill:rgb(43,180,168)">
    </path>
    <path d="M77.50298844698169,-8.195517848108958L67.00590673455656,-7.841787979281672L70.10090512325738,7.166441972322743z" style="fill:rgb(109,213,75)">
    </path>
    <path d="M77.50298844698169,-8.195517848108958L67.0059067345566,-7.841787979281672L70.10090512325738,7.166441972322743z" style="fill:rgb(43,180,168)">
    </path>
    <path d="M67.00590673455656,-7.841787979281672L77.50298844698169,-8.195517848108958L70.69786287840101,-10.240888315036836z" style="fill:rgb(109,213,75)">
    </path>
    <path d="M67.0059067345566,-7.841787979281672L77.50298844698169,-8.195517848108958L70.69786287840101,-10.240888315036836z" style="fill:rgb(43,180,168)">
    </path>
    <path d="M60.49682182730026,-312.8457495276568L18.545474302454867,-537.7487136408192" style="fill:none;stroke:rgb(0,0,0);stroke-width:1;stroke-linecap:round">
    </path>
    <path d="M60.49682182730026,-312.8457495276568L18.545474302454867,-537.7487136408192" style="fill:none;stroke:rgb(0,0,0);stroke-width:1;stroke-linecap:round">
    </path>
    <path d="M53.66295876050559,-3.772208648126796L43.83755601553916,-5.387639124767937L45.7480119748762,-2.633736271868801z" style="fill:rgb(74,87,214)">
    </path>
    <path d="M43.83755601553916,-5.387639124767937L36.649573589682966,-3.197935078811297L45.7480119748762,-2.633736271868801z" style="fill:rgb(74,87,214)">
    </path>
    <path d="M48.10463083276103,-72.53082235313703L45.74801197487621,-2.633736271868881" style="fill:none;stroke:rgb(74,87,214);stroke-width:5;stroke-linecap:round">
    </path>
    <path d="M49.317928993456185,-2.4469810171996103L39.490468955603596,-4.063368479777731L41.398839229520554,-1.3076835245456442z" style="fill:rgb(109,213,75)">
    </path>
    <path d="M49.317928993456185,-2.4469810171996103L39.49046895560362,-4.063368479777731L41.3988392295206,-1.3076835245456442z" style="fill:rgb(43,180,168)">
    </path>
    <path d="M52.55589589117882,-0.5810620898908604L53.66295876050559,-3.772208648126796L45.7480119748762,-2.633736271868801z" style="fill:rgb(74,87,214)">
    </path>
    <path d="M42.033977961525,-0.22538676184169662L36.649573589682966,-3.197935078811297L45.160059729546816,14.804870130674448z" style="fill:rgb(74,87,214)">
    </path>
    <path d="M39.490468955603596,-4.063368479777731L32.29754557598082,-1.872159251168631L41.398839229520554,-1.3076835245456442z" style="fill:rgb(109,213,75)">
    </path>
    <path d="M39.49046895560362,-4.063368479777731L32.29754557598084,-1.872159251168631L41.3988392295206,-1.3076835245456442z" style="fill:rgb(43,180,168)">
    </path>
    <path d="M36.649573589682966,-3.197935078811297L42.033977961525,-0.22538676184169662L45.7480119748762,-2.633736271868801z" style="fill:rgb(74,87,214)">
    </path>
    <path d="M52.55589589117882,-0.5810620898908604L42.033977961525,-0.22538676184169662L45.160059729546816,14.804870130674448z" style="fill:rgb(74,87,214)">
    </path>
    <path d="M42.033977961525,-0.22538676184169662L52.55589589117882,-0.5810620898908604L45.7480119748762,-2.633736271868801z" style="fill:rgb(74,87,214)">
    </path>
    <path d="M43.74915118531828,-71.22666607969956L41.39883922952057,-1.3076835245456784" style="fill:none;stroke:rgb(109,213,75);stroke-width:5;stroke-linecap:round">
    </path>
    <path d="M43.749151185318325,-71.22666607969956L41.39883922952061,-1.3076835245456784" style="fill:none;stroke:rgb(43,180,168);stroke-width:5;stroke-linecap:round">
    </path>
    <path d="M18.545474302454867,-537.7487136408192L18.545474302454867,-537.7487136408192L60.49682182730026,-312.8457495276568z" style="fill:rgb(0,0,0); fill-opacity: 0.2">
    </path>
    <path d="M48.20719965521219,0.7462651335371904L49.317928993456185,-2.4469810171996103L41.398839229520554,-1.3076835245456442z" style="fill:rgb(109,213,75)">
    </path>
    <path d="M48.207199655212236,0.7462651335371904L49.317928993456185,-2.4469810171996103L41.3988392295206,-1.3076835245456442z" style="fill:rgb(43,180,168)">
    </path>
    <path d="M37.68095070635048,1.1022800910954285L32.29754557598082,-1.872159251168631L40.8124609036853,16.136373564838355z" style="fill:rgb(109,213,75)">
    </path>
    <path d="M37.68095070635048,1.1022800910954285L32.29754557598084,-1.872159251168631L40.81246090368534,16.136373564838355z" style="fill:rgb(43,180,168)">
    </path>
    <path d="M32.29754557598082,-1.872159251168631L37.68095070635048,1.1022800910954285L41.398839229520554,-1.3076835245456442z" style="fill:rgb(109,213,75)">
    </path>
    <path d="M32.29754557598084,-1.872159251168631L37.68095070635048,1.1022800910954285L41.3988392295206,-1.3076835245456442z" style="fill:rgb(43,180,168)">
    </path>
    <path d="M48.20719965521219,0.7462651335371904L37.68095070635048,1.1022800910954285L40.8124609036853,16.136373564838355z" style="fill:rgb(109,213,75)">
    </path>
    <path d="M48.207199655212236,0.7462651335371904L37.68095070635048,1.1022800910954285L40.81246090368534,16.136373564838355z" style="fill:rgb(43,180,168)">
    </path>
    <path d="M37.68095070635048,1.1022800910954285L48.20719965521219,0.7462651335371904L41.398839229520554,-1.3076835245456442z" style="fill:rgb(109,213,75)">
    </path>
    <path d="M37.68095070635048,1.1022800910954285L48.207199655212236,0.7462651335371904L41.3988392295206,-1.3076835245456442z" style="fill:rgb(43,180,168)">
    </path>
    <path d="M-87.65916547454052,-271.2574769077214L18.545474302454867,-537.7487136408192" style="fill:none;stroke:rgb(0,0,0);stroke-width:1;stroke-linecap:round">
    </path>
    <path d="M18.545474302454867,-537.7487136408192L18.545474302454867,-537.7487136408192" style="fill:none;stroke:rgb(0,0,0);stroke-width:1;stroke-linecap:round">
    </path>
    <path d="M-87.65916547454052,-271.2574769077214L18.545474302454867,-537.7487136408192" style="fill:none;stroke:rgb(0,0,0);stroke-width:1;stroke-linecap:round">
    </path>
    <path d="M18.545474302454867,-537.7487136408192L-491.8461094072169,-404.0061191819869" style="fill:none;stroke:rgb(0,0,0);stroke-width:1;stroke-linecap:round">
    </path>
    <path d="M-87.65916547454023,-271.25747690772135L-106.79724660309081,358.25143144046547L102.2962278890691,-88.75735008127702z" style="fill:rgb(0,0,0); fill-opacity: 0.2">
    </path>
    <path d="M26.45744053298923,4.525434038284927L16.61917139156427,2.904007043026265L18.51653722369014,5.669077624413745z" style="fill:rgb(74,87,214)">
    </path>
    <path d="M16.61917139156427,2.904007043026265L9.400224230285193,5.10314400108819L18.51653722369014,5.669077624413745z" style="fill:rgb(74,87,214)">
    </path>
    <path d="M20.83358597762831,-64.36508468245414L18.516537223690158,5.669077624413711" style="fill:none;stroke:rgb(74,87,214);stroke-width:5;stroke-linecap:round">
    </path>
    <path d="M25.32738360102701,7.729738125873411L26.45744053298923,4.525434038284927L18.51653722369014,5.669077624413745z" style="fill:rgb(74,87,214)">
    </path>
    <path d="M14.778339769822965,8.087542439268695L9.400224230285193,5.10314400108819L17.93845985727213,23.141806256833192z" style="fill:rgb(74,87,214)">
    </path>
    <path d="M9.400224230285193,5.10314400108819L14.778339769822965,8.087542439268695L18.51653722369014,5.669077624413745z" style="fill:rgb(74,87,214)">
    </path>
    <path d="M19.910686612549522,6.522184268638196L10.06932659520827,4.899312651923937L11.963531384619534,7.667074003243204z" style="fill:rgb(109,213,75)">
    </path>
    <path d="M19.910686612549544,6.522184268638196L10.06932659520827,4.899312651923937L11.963531384619557,7.667074003243204z" style="fill:rgb(43,180,168)">
    </path>
    <path d="M25.32738360102701,7.729738125873411L14.778339769822965,8.087542439268695L17.93845985727213,23.141806256833192z" style="fill:rgb(74,87,214)">
    </path>
    <path d="M10.06932659520827,4.899312651923937L2.84291812531304,7.100722578490415L11.963531384619534,7.667074003243204z" style="fill:rgb(109,213,75)">
    </path>
    <path d="M10.06932659520827,4.899312651923937L2.842918125313085,7.100722578490415L11.963531384619557,7.667074003243204z" style="fill:rgb(43,180,168)">
    </path>
    <path d="M60.49682182730053,-312.84574952765666L-87.65916547454023,-271.25747690772135L102.2962278890691,-88.75735008127702z" style="fill:rgb(0,0,0); fill-opacity: 0.2">
    </path>
    <path d="M14.778339769822965,8.087542439268695L25.32738360102701,7.729738125873411L18.51653722369014,5.669077624413745z" style="fill:rgb(74,87,214)">
    </path>
    <path d="M14.271029282408072,-62.400065860959785L11.963531384619548,7.667074003243216" style="fill:none;stroke:rgb(109,213,75);stroke-width:5;stroke-linecap:round">
    </path>
    <path d="M14.271029282408094,-62.400065860959785L11.963531384619571,7.667074003243216" style="fill:none;stroke:rgb(43,180,168);stroke-width:5;stroke-linecap:round">
    </path>
    <path d="M18.775083151931874,9.729658628536665L19.910686612549522,6.522184268638196L11.963531384619534,7.667074003243204z" style="fill:rgb(109,213,75)">
    </path>
    <path d="M18.775083151931895,9.729658628536665L19.910686612549544,6.522184268638196L11.963531384619557,7.667074003243204z" style="fill:rgb(43,180,168)">
    </path>
    <path d="M8.219508845239526,10.087976137963533L2.84291812531304,7.100722578490415L11.387837457992859,25.148011652020056z" style="fill:rgb(109,213,75)">
    </path>
    <path d="M8.219508845239549,10.087976137963533L2.842918125313085,7.100722578490415L11.387837457992859,25.148011652020056z" style="fill:rgb(43,180,168)">
    </path>
    <path d="M2.84291812531304,7.100722578490415L8.219508845239526,10.087976137963533L11.963531384619534,7.667074003243204z" style="fill:rgb(109,213,75)">
    </path>
    <path d="M2.842918125313085,7.100722578490415L8.219508845239549,10.087976137963533L11.963531384619557,7.667074003243204z" style="fill:rgb(43,180,168)">
    </path>
    <path d="M18.775083151931874,9.729658628536665L8.219508845239526,10.087976137963533L11.387837457992859,25.148011652020056z" style="fill:rgb(109,213,75)">
    </path>
    <path d="M18.775083151931895,9.729658628536665L8.219508845239549,10.087976137963533L11.387837457992859,25.148011652020056z" style="fill:rgb(43,180,168)">
    </path>
    <path d="M8.219508845239526,10.087976137963533L18.775083151931874,9.729658628536665L11.963531384619534,7.667074003243204z" style="fill:rgb(109,213,75)">
    </path>
    <path d="M8.219508845239549,10.087976137963533L18.775083151931895,9.729658628536665L11.963531384619557,7.667074003243204z" style="fill:rgb(43,180,168)">
    </path>
    <path d="M60.49682182730026,-312.8457495276568L-87.65916547454052,-271.2574769077214L18.545474302454867,-537.7487136408192z" style="fill:rgb(0,0,0); fill-opacity: 0.2">
    </path>
    <path d="M-0.8654036961443259,12.858860981078195L-10.716558971156212,11.231400715987238L-8.832414059892136,14.007709844697406z" style="fill:rgb(74,87,214)">
    </path>
    <path d="M-10.716558971156212,11.231400715987238L-17.966671386746768,13.440031671031363L-8.832414059892136,14.007709844697406z" style="fill:rgb(74,87,214)">
    </path>
    <path d="M-6.5552994349913885,-56.16406214885098L-8.832414059892121,14.007709844697418" style="fill:none;stroke:rgb(74,87,214);stroke-width:5;stroke-linecap:round">
    </path>
    <path d="M-2.018643004942632,16.076406551800925L-0.8654036961443259,12.858860981078195L-8.832414059892136,14.007709844697406z" style="fill:rgb(74,87,214)">
    </path>
    <path d="M-12.594949142621664,16.436354935611945L-17.966671386746768,13.440031671031363L-9.400525803769797,31.514693165740297z" style="fill:rgb(74,87,214)">
    </path>
    <path d="M-17.966671386746768,13.440031671031363L-12.594949142621664,16.436354935611945L-8.832414059892136,14.007709844697406z" style="fill:rgb(74,87,214)">
    </path>
    <path d="M-2.018643004942632,16.076406551800925L-12.594949142621664,16.436354935611945L-9.400525803769797,31.514693165740297z" style="fill:rgb(74,87,214)">
    </path>
    <path d="M-12.594949142621664,16.436354935611945L-2.018643004942632,16.076406551800925L-8.832414059892136,14.007709844697406z" style="fill:rgb(74,87,214)">
    </path>
    <path d="M-9.633617147136814,15.533153071604806L-19.48890013643315,13.903754347935722L-17.609013760404693,16.68367486757418z" style="fill:rgb(109,213,75)">
    </path>
    <path d="M-9.63361714713679,15.533153071604806L-19.48890013643313,13.903754347935722L-17.60901376040467,16.68367486757418z" style="fill:rgb(43,180,168)">
    </path>
    <path d="M-19.48890013643315,13.903754347935722L-26.749028065860355,16.11543636931132L-17.609013760404693,16.68367486757418z" style="fill:rgb(109,213,75)">
    </path>
    <path d="M-19.48890013643313,13.903754347935722L-26.749028065860333,16.11543636931132L-17.60901376040467,16.68367486757418z" style="fill:rgb(43,180,168)">
    </path>
    <path d="M-15.344755528834602,-53.53224539552994L-17.60901376040468,16.683674867574144" style="fill:none;stroke:rgb(109,213,75);stroke-width:5;stroke-linecap:round">
    </path>
    <path d="M-15.344755528834579,-53.53224539552994L-17.609013760404657,16.683674867574144" style="fill:none;stroke:rgb(43,180,168);stroke-width:5;stroke-linecap:round">
    </path>
    <path d="M-10.794314881975678,18.754953765542844L-9.633617147136814,15.533153071604806L-17.609013760404693,16.68367486757418z" style="fill:rgb(109,213,75)">
    </path>
    <path d="M-10.794314881975655,18.7549537655428L-9.63361714713679,15.533153071604806L-17.60901376040467,16.68367486757418z" style="fill:rgb(43,180,168)">
    </path>
    <path d="M-21.37937393124809,19.115591460059246L-26.749028065860355,16.11543636931132L-18.173917193110295,34.201647788757164z" style="fill:rgb(109,213,75)">
    </path>
    <path d="M-21.379373931248065,19.115591460059246L-26.749028065860333,16.11543636931132L-18.173917193110253,34.201647788757164z" style="fill:rgb(43,180,168)">
    </path>
    <path d="M-26.749028065860355,16.11543636931132L-21.37937393124809,19.115591460059246L-17.609013760404693,16.68367486757418z" style="fill:rgb(109,213,75)">
    </path>
    <path d="M-26.749028065860333,16.11543636931132L-21.379373931248065,19.115591460059246L-17.60901376040467,16.68367486757418z" style="fill:rgb(43,180,168)">
    </path>
    <path d="M-10.794314881975678,18.754953765542844L-21.37937393124809,19.115591460059246L-18.173917193110295,34.201647788757164z" style="fill:rgb(109,213,75)">
    </path>
    <path d="M-10.794314881975655,18.7549537655428L-21.379373931248065,19.115591460059246L-18.173917193110253,34.201647788757164z" style="fill:rgb(43,180,168)">
    </path>
    <path d="M-21.37937393124809,19.115591460059246L-10.794314881975678,18.754953765542844L-17.609013760404693,16.68367486757418z" style="fill:rgb(109,213,75)">
    </path>
    <path d="M-21.379373931248065,19.115591460059246L-10.794314881975655,18.7549537655428L-17.60901376040467,16.68367486757418z" style="fill:rgb(43,180,168)">
    </path>
    <path d="M-45.09916983461635,-44.62291525961114L102.2962278890691,-88.75735008127702L-87.65916547454023,-271.25747690772135z" style="fill:rgb(0,0,0); fill-opacity: 0.2">
    </path>
    <path d="M102.2962278890691,-88.75735008127702L-45.09916983461635,-44.62291525961114L-87.65916547454023,-271.25747690772135z" style="fill:rgb(0,0,0); fill-opacity: 0.2">
    </path>
    <path d="M-28.30633453381661,21.228304164235247L-38.17039557530319,19.594773569110615L-36.299603709464606,22.38239267028939z" style="fill:rgb(74,87,214)">
    </path>
    <path d="M-38.17039557530319,19.594773569110615L-45.451875499176865,21.812960134579168L-36.299603709464606,22.38239267028939z" style="fill:rgb(74,87,214)">
    </path>
    <path d="M-34.06279085784409,-47.927525553690145L-36.29960370946459,22.382392670289356" style="fill:none;stroke:rgb(74,87,214);stroke-width:5;stroke-linecap:round">
    </path>
    <path d="M-29.482946334103023,24.45917589305348L-28.30633453381661,21.228304164235247L-36.299603709464606,22.38239267028939z" style="fill:rgb(74,87,214)">
    </path>
    <path d="M-40.086652193870606,24.821283568563928L-45.451875499176865,21.812960134579168L-36.857658185946065,39.92376390191087z" style="fill:rgb(74,87,214)">
    </path>
    <path d="M-45.451875499176865,21.812960134579168L-40.086652193870606,24.821283568563928L-36.299603709464606,22.38239267028939z" style="fill:rgb(74,87,214)">
    </path>
    <path d="M-29.482946334103023,24.45917589305348L-40.086652193870606,24.821283568563928L-36.857658185946065,39.92376390191087z" style="fill:rgb(74,87,214)">
    </path>
    <path d="M-40.086652193870606,24.821283568563928L-29.482946334103023,24.45917589305348L-36.299603709464606,22.38239267028939z" style="fill:rgb(74,87,214)">
    </path>
    <path d="M-39.31594274810116,24.58621833133685L-49.18517156948192,22.950249157503755L-47.31975821780448,25.742412383765977z" style="fill:rgb(109,213,75)">
    </path>
    <path d="M-39.315942748101136,24.58621833133685L-49.1851715694819,22.950249157503755L-47.319758217804456,25.742412383765977z" style="fill:rgb(43,180,168)">
    </path>
    <path d="M-49.18517156948192,22.950249157503755L-56.47925552001488,25.172275338393728L-47.31975821780448,25.742412383765977z" style="fill:rgb(109,213,75)">
    </path>
    <path d="M-49.1851715694819,22.950249157503755L-56.47925552001485,25.172275338393728L-47.319758217804456,25.742412383765977z" style="fill:rgb(43,180,168)">
    </path>
    <path d="M-45.09916983461637,-44.62291525961114L-47.31975821780446,25.742412383765945" style="fill:none;stroke:rgb(109,213,75);stroke-width:5;stroke-linecap:round">
    </path>
    <path d="M-45.09916983461635,-44.62291525961114L-47.31975821780444,25.742412383765945" style="fill:none;stroke:rgb(43,180,168);stroke-width:5;stroke-linecap:round">
    </path>
    <path d="M-40.501957184308544,27.82244439540641L-39.31594274810116,24.58621833133685L-47.31975821780448,25.742412383765977z" style="fill:rgb(109,213,75)">
    </path>
    <path d="M-40.50195718430852,27.82244439540636L-39.315942748101136,24.58621833133685L-47.319758217804456,25.742412383765977z" style="fill:rgb(43,180,168)">
    </path>
    <path d="M-51.11666163755117,28.185420080355854L-56.47925552001488,25.172275338393728L-47.87376392289246,43.29757625382457z" style="fill:rgb(109,213,75)">
    </path>
    <path d="M-51.11666163755114,28.185420080355854L-56.47925552001485,25.172275338393728L-47.87376392289241,43.29757625382457z" style="fill:rgb(43,180,168)">
    </path>
    <path d="M-56.47925552001488,25.172275338393728L-51.11666163755117,28.185420080355854L-47.31975821780448,25.742412383765977z" style="fill:rgb(109,213,75)">
    </path>
    <path d="M-56.47925552001485,25.172275338393728L-51.11666163755114,28.185420080355854L-47.319758217804456,25.742412383765977z" style="fill:rgb(43,180,168)">
    </path>
    <path d="M-40.501957184308544,27.82244439540641L-51.11666163755117,28.185420080355854L-47.87376392289246,43.29757625382457z" style="fill:rgb(109,213,75)">
    </path>
    <path d="M-40.50195718430852,27.82244439540636L-51.11666163755114,28.185420080355854L-47.87376392289241,43.29757625382457z" style="fill:rgb(43,180,168)">
    </path>
    <path d="M-51.11666163755117,28.185420080355854L-40.501957184308544,27.82244439540641L-47.31975821780448,25.742412383765977z" style="fill:rgb(109,213,75)">
    </path>
    <path d="M-51.11666163755114,28.185420080355854L-40.50195718430852,27.82244439540636L-47.319758217804456,25.742412383765977z" style="fill:rgb(43,180,168)">
    </path>
    <path d="M-55.86611917572172,29.63399758130435L-65.74310550941208,27.99435928366748L-63.88580016019796,30.793360395302322z" style="fill:rgb(74,87,214)">
    </path>
    <path d="M-65.74310550941208,27.99435928366748L-73.05615694943117,30.222163607297528L-63.88580016019796,30.793360395302322z" style="fill:rgb(74,87,214)">
    </path>
    <path d="M-61.689660387560494,-39.65524370896332L-63.885800160197945,30.79336039530224" style="fill:none;stroke:rgb(74,87,214);stroke-width:5;stroke-linecap:round">
    </path>
    <path d="M-57.06629540323193,32.87828087214304L-55.86611917572172,29.63399758130435L-63.88580016019796,30.793360395302322z" style="fill:rgb(74,87,214)">
    </path>
    <path d="M-67.6975394212447,33.2425631983648L-73.05615694943117,30.222163607297528L-64.43370481267623,48.36925352844747z" style="fill:rgb(74,87,214)">
    </path>
    <path d="M-73.05615694943117,30.222163607297528L-67.6975394212447,33.2425631983648L-63.88580016019796,30.793360395302322z" style="fill:rgb(74,87,214)">
    </path>
    <path d="M-57.06629540323193,32.87828087214304L-67.6975394212447,33.2425631983648L-64.43370481267623,48.36925352844747z" style="fill:rgb(74,87,214)">
    </path>
    <path d="M-67.6975394212447,33.2425631983648L-57.06629540323193,32.87828087214304L-63.88580016019796,30.793360395302322z" style="fill:rgb(74,87,214)">
    </path>
    <path d="M-45.09916983461635,-44.62291525961114L-87.65916547454023,-271.25747690772135" style="fill:none;stroke:rgb(0,0,0);stroke-width:1;stroke-linecap:round">
    </path>
    <path d="M-45.09916983461635,-44.62291525961114L-87.65916547454023,-271.25747690772135" style="fill:none;stroke:rgb(0,0,0);stroke-width:1;stroke-linecap:round">
    </path>
    <path d="M-87.65916547454023,-271.25747690772135L-87.65916547454023,-271.25747690772135L-45.09916983461635,-44.62291525961114z" style="fill:rgb(0,0,0); fill-opacity: 0.2">
    </path>
    <path d="M-83.54553147782542,38.07617725720656L-93.4354625193182,36.430393568969045L-91.59177852050126,39.240849348503815z" style="fill:rgb(74,87,214)">
    </path>
    <path d="M-93.4354625193182,36.430393568969045L-100.78029125628856,38.667878338596445L-91.59177852050126,39.240849348503815z" style="fill:rgb(74,87,214)">
    </path>
    <path d="M-89.43668683689619,-31.346983415660656L-91.59177852050124,39.24084934850379" style="fill:none;stroke:rgb(74,87,214);stroke-width:5;stroke-linecap:round">
    </path>
    <path d="M-84.7694659102898,41.333958250840084L-83.54553147782542,38.07617725720656L-91.59177852050126,39.240849348503815z" style="fill:rgb(74,87,214)">
    </path>
    <path d="M-95.42838755322052,41.7004307260473L-100.78029125628856,38.667878338596445L-92.12943986994996,56.85139914894338z" style="fill:rgb(74,87,214)">
    </path>
    <path d="M-100.78029125628856,38.667878338596445L-95.42838755322052,41.7004307260473L-91.59177852050126,39.240849348503815z" style="fill:rgb(74,87,214)">
    </path>
    <path d="M-84.7694659102898,41.333958250840084L-95.42838755322052,41.7004307260473L-92.12943986994996,56.85139914894338z" style="fill:rgb(74,87,214)">
    </path>
    <path d="M-95.42838755322052,41.7004307260473L-84.7694659102898,41.333958250840084L-91.59177852050126,39.240849348503815z" style="fill:rgb(74,87,214)">
    </path>
    <path d="M-632.9325915276765,-444.34584225505716L-648.0303723601917,411.21762017045097" style="fill:none;stroke:rgb(0,0,0);stroke-width:1;stroke-linecap:round">
    </path>
    <path d="M-509.9032285413373,458.5304303751123L-648.0303723601917,411.21762017045097" style="fill:none;stroke:rgb(160,0,0);stroke-width:3;stroke-linecap:round">
    </path>
    <path d="M-402.8140224341554,62.48723261890175L102.2962278890691,-88.75735008127702L60.49682182730053,-312.84574952765666z" style="fill:rgb(0,0,0); fill-opacity: 0.2">
    </path>
    <path d="M-491.84610940721655,-404.0061191819867L18.54547430245516,-537.7487136408191L-121.64209589040026,-575.3587958890241z" style="fill:rgb(0,0,0); fill-opacity: 0.2">
    </path>
    <path d="M-307.1080442757053,424.24374493203976L-509.9032285413376,458.53043037511225" style="fill:none;stroke:rgb(160,0,0);stroke-width:3;stroke-linecap:round">
    </path>
    <path d="M-290.69014811754516,-214.26546456840148L-307.108044275705,424.2437449320399" style="fill:none;stroke:rgb(0,0,0);stroke-width:1;stroke-linecap:round">
    </path>
    <path d="M-412.7958432060504,491.79270717904495L-307.108044275705,424.2437449320399" style="fill:none;stroke:rgb(160,0,0);stroke-width:3;stroke-linecap:round">
    </path>
    <path d="M-111.34535202879714,46.55508127032777L-121.24824708053434,44.90311418441512L-119.41832064461913,47.72509791545132z" style="fill:rgb(74,87,214)">
    </path>
    <path d="M-121.24824708053434,44.90311418441512L-128.62506068750727,47.15034263385487L-119.41832064461913,47.72509791545132z" style="fill:rgb(74,87,214)">
    </path>
    <path d="M-117.30465580791649,-23.00250944185717L-119.41832064461909,47.72509791545132" style="fill:none;stroke:rgb(74,87,214);stroke-width:5;stroke-linecap:round">
    </path>
    <path d="M-112.59324030713478,49.826446852368L-111.34535202879714,46.55508127032777L-119.41832064461913,47.72509791545132z" style="fill:rgb(74,87,214)">
    </path>
    <path d="M-123.27998008226625,50.19512511565148L-128.62506068750727,47.15034263385487L-119.94564427877843,65.37043992967178z" style="fill:rgb(74,87,214)">
    </path>
    <path d="M-447.2460595928454,-170.31928294408107L60.49682182730026,-312.8457495276568L18.545474302454867,-537.7487136408192z" style="fill:rgb(0,0,0); fill-opacity: 0.2">
    </path>
    <path d="M-128.62506068750727,47.15034263385487L-123.27998008226625,50.19512511565148L-119.41832064461913,47.72509791545132z" style="fill:rgb(74,87,214)">
    </path>
    <path d="M-112.59324030713478,49.826446852368L-123.27998008226625,50.19512511565148L-119.94564427877843,65.37043992967178z" style="fill:rgb(74,87,214)">
    </path>
    <path d="M-123.27998008226625,50.19512511565148L-112.59324030713478,49.826446852368L-119.41832064461913,47.72509791545132z" style="fill:rgb(74,87,214)">
    </path>
    <path d="M-139.26636822338966,55.07094977489897L-149.18224647157493,53.412760961831495L-147.3662152061787,56.24634656091627z" style="fill:rgb(74,87,214)">
    </path>
    <path d="M-149.18224647157493,53.412760961831495L-156.59125433340137,55.669796876834226L-147.3662152061787,56.24634656091627z" style="fill:rgb(74,87,214)">
    </path>
    <path d="M-145.29435976614042,-14.62158450051182L-147.36621520617868,56.24634656091624" style="fill:none;stroke:rgb(74,87,214);stroke-width:5;stroke-linecap:round">
    </path>
    <path d="M-140.53840787318987,58.3559875838879L-139.26636822338966,55.07094977489897L-147.3662152061787,56.24634656091627z" style="fill:rgb(74,87,214)">
    </path>
    <path d="M-151.25310733863097,58.72688741673039L-156.59125433340137,55.669796876834226L-147.88310576859274,73.92661712206467z" style="fill:rgb(74,87,214)">
    </path>
    <path d="M-156.59125433340137,55.669796876834226L-151.25310733863097,58.72688741673039L-147.3662152061787,56.24634656091627z" style="fill:rgb(74,87,214)">
    </path>
    <path d="M-140.53840787318987,58.3559875838879L-151.25310733863097,58.72688741673039L-147.88310576859274,73.92661712206467z" style="fill:rgb(74,87,214)">
    </path>
    <path d="M-151.25310733863097,58.72688741673039L-140.53840787318987,58.3559875838879L-147.3662152061787,56.24634656091627z" style="fill:rgb(74,87,214)">
    </path>
    <path d="M-167.30937433678017,63.62402502367058L-177.23825484824022,61.959575828099084L-175.43625777270105,64.80483785160241z" style="fill:rgb(74,87,214)">
    </path>
    <path d="M-177.23825484824022,61.959575828099084L-184.67966818138208,64.22648355238665L-175.43625777270105,64.80483785160241z" style="fill:rgb(74,87,214)">
    </path>
    <path d="M-173.40659811565834,-6.2039692269749755L-175.43625777270105,64.80483785160236" style="fill:none;stroke:rgb(74,87,214);stroke-width:5;stroke-linecap:round">
    </path>
    <path d="M-168.605764790076,66.92282345927867L-167.30937433678017,63.62402502367058L-175.43625777270105,64.80483785160241z" style="fill:rgb(74,87,214)">
    </path>
    <path d="M-179.3485665651019,67.29596078715113L-184.67966818138208,64.22648355238665L-175.94261895160489,82.52017408548699z" style="fill:rgb(74,87,214)">
    </path>
    <path d="M-184.67966818138208,64.22648355238665L-179.3485665651019,67.29596078715113L-175.43625777270105,64.80483785160241z" style="fill:rgb(74,87,214)">
    </path>
    <path d="M-168.605764790076,66.92282345927867L-179.3485665651019,67.29596078715113L-175.94261895160489,82.52017408548699z" style="fill:rgb(74,87,214)">
    </path>
    <path d="M-179.3485665651019,67.29596078715113L-168.605764790076,66.92282345927867L-175.43625777270105,64.80483785160241z" style="fill:rgb(74,87,214)">
    </path>
    <path d="M-195.47517159988817,72.21455139088397L-205.417073318877,70.54380282808121L-203.62925088109174,73.40081647916277z" style="fill:rgb(74,87,214)">
    </path>
    <path d="M-205.417073318877,70.54380282808121L-212.89110519147872,72.8206472694608L-203.62925088109174,73.40081647916277z" style="fill:rgb(74,87,214)">
    </path>
    <path d="M-201.64217727523865,2.2505778437999338L-203.6292508810917,73.40081647916273" style="fill:none;stroke:rgb(74,87,214);stroke-width:5;stroke-linecap:round">
    </path>
    <path d="M-196.79611421722657,75.52719962221622L-195.47517159988817,72.21455139088397L-203.62925088109174,73.40081647916277z" style="fill:rgb(74,87,214)">
    </path>
    <path d="M-207.56716199274507,75.9025905161953L-212.89110519147872,72.8206472694608L-204.12498539814484,91.15135631030934z" style="fill:rgb(74,87,214)">
    </path>
    <path d="M-212.89110519147872,72.8206472694608L-207.56716199274507,75.9025905161953L-203.62925088109174,73.40081647916277z" style="fill:rgb(74,87,214)">
    </path>
    <path d="M-196.79611421722657,75.52719962221622L-207.56716199274507,75.9025905161953L-204.12498539814484,91.15135631030934z" style="fill:rgb(74,87,214)">
    </path>
    <path d="M-207.56716199274507,75.9025905161953L-196.79611421722657,75.52719962221622L-203.62925088109174,73.40081647916277z" style="fill:rgb(74,87,214)">
    </path>
    <path d="M-491.8461094072169,-404.0061191819869L-509.9032285413376,458.53043037511225" style="fill:none;stroke:rgb(0,0,0);stroke-width:1;stroke-linecap:round">
    </path>
    <path d="M-648.0303723601917,411.21762017045097L-632.9325915276765,-444.34584225505716L-509.9032285413373,458.5304303751123z" style="fill:rgb(0,0,0); fill-opacity: 0.2">
    </path>
    <path d="M-223.7645682756849,80.84277539554598L-233.71951002062875,79.16568814785175L-231.9460041141251,82.03452928351953z" style="fill:rgb(74,87,214)">
    </path>
    <path d="M-632.9325915276765,-444.34584225505716L-121.64209589040026,-575.3587958890241L-491.84610940721655,-404.0061191819867z" style="fill:rgb(0,0,0); fill-opacity: 0.2">
    </path>
    <path d="M-233.71951002062875,79.16568814785175L-241.22637537285345,81.45253478441131L-231.9460041141251,82.03452928351953z" style="fill:rgb(74,87,214)">
    </path>
    <path d="M-307.108044275705,424.2437449320399L-290.69014811754516,-214.26546456840148L-412.7958432060504,491.79270717904495z" style="fill:rgb(0,0,0); fill-opacity: 0.2">
    </path>
    <path d="M-230.0019107554378,10.742300300345402L-231.9460041141251,82.03452928351953" style="fill:none;stroke:rgb(74,87,214);stroke-width:5;stroke-linecap:round">
    </path>
    <path d="M-225.11026636849826,84.16936336955698L-223.7645682756849,80.84277539554598L-231.9460041141251,82.03452928351953z" style="fill:rgb(74,87,214)">
    </path>
    <path d="M-235.9097049176433,84.54702404796423L-241.22637537285345,81.45253478441131L-232.43101371298988,99.82041144128482z" style="fill:rgb(74,87,214)">
    </path>
    <path d="M-241.22637537285345,81.45253478441131L-235.9097049176433,84.54702404796423L-231.9460041141251,82.03452928351953z" style="fill:rgb(74,87,214)">
    </path>
    <path d="M-225.11026636849826,84.16936336955698L-235.9097049176433,84.54702404796423L-232.43101371298988,99.82041144128482z" style="fill:rgb(74,87,214)">
    </path>
    <path d="M-235.9097049176433,84.54702404796423L-225.11026636849826,84.16936336955698L-231.9460041141251,82.03452928351953z" style="fill:rgb(74,87,214)">
    </path>
    <path d="M-240.79787289605787,86.03790802734088L-250.76064763583605,84.3569985563881L-248.9958003648505,87.23297286884697z" style="fill:rgb(167,41,160)">
    </path>
    <path d="M-240.79787289605778,86.03790802734088L-250.76064763583594,84.35699855638806L-248.99580036485045,87.23297286884697z" style="fill:rgb(214,94,68)">
    </path>
    <path d="M-250.76064763583605,84.3569985563881L-258.2873170335788,86.64987817912203L-248.9958003648505,87.23297286884697z" style="fill:rgb(167,41,160)">
    </path>
    <path d="M-250.76064763583594,84.35699855638806L-258.2873170335787,86.64987817912203L-248.99580036485045,87.23297286884697z" style="fill:rgb(214,94,68)">
    </path>
    <path d="M-247.0776860198996,15.855280095356298L-248.9958003648505,87.23297286884694" style="fill:none;stroke:rgb(167,41,160);stroke-width:5;stroke-linecap:round">
    </path>
    <path d="M-247.07768601989952,15.855280095356298L-248.99580036485045,87.23297286884694" style="fill:none;stroke:rgb(214,94,68);stroke-width:5;stroke-linecap:round">
    </path>
    <path d="M-242.15852268369315,89.37290334827159L-240.79787289605787,86.03790802734088L-248.9958003648505,87.23297286884697z" style="fill:rgb(167,41,160)">
    </path>
    <path d="M-242.1585226836931,89.37290334827155L-240.79787289605778,86.03790802734088L-248.99580036485045,87.23297286884697z" style="fill:rgb(214,94,68)">
    </path>
    <path d="M-252.97506564233555,89.75193374400527L-258.2873170335788,86.64987817912203L-249.4743274385828,105.04012734979287z" style="fill:rgb(167,41,160)">
    </path>
    <path d="M-252.97506564233544,89.75193374400521L-258.2873170335787,86.64987817912203L-249.47432743858266,105.04012734979285z" style="fill:rgb(214,94,68)">
    </path>
    <path d="M-258.2873170335788,86.64987817912203L-252.97506564233555,89.75193374400527L-248.9958003648505,87.23297286884697z" style="fill:rgb(167,41,160)">
    </path>
    <path d="M-258.2873170335787,86.64987817912203L-252.97506564233544,89.75193374400521L-248.99580036485045,87.23297286884697z" style="fill:rgb(214,94,68)">
    </path>
    <path d="M-242.15852268369315,89.37290334827159L-252.97506564233555,89.75193374400527L-249.4743274385828,105.04012734979287z" style="fill:rgb(167,41,160)">
    </path>
    <path d="M-242.1585226836931,89.37290334827155L-252.97506564233544,89.75193374400521L-249.47432743858266,105.04012734979285z" style="fill:rgb(214,94,68)">
    </path>
    <path d="M-252.97506564233555,89.75193374400527L-242.15852268369315,89.37290334827159L-248.9958003648505,87.23297286884697z" style="fill:rgb(167,41,160)">
    </path>
    <path d="M-252.97506564233544,89.75193374400521L-242.1585226836931,89.37290334827155L-248.99580036485045,87.23297286884697z" style="fill:rgb(214,94,68)">
    </path>
    <path d="M-252.17837973650947,89.50894572500994L-262.1463801966927,87.82548013823038L-260.3873341779386,90.70622527649198z" style="fill:rgb(74,87,214)">
    </path>
    <path d="M-262.1463801966927,87.82548013823038L-269.6862958613266,90.1223950246151L-260.3873341779386,90.70622527649198z" style="fill:rgb(74,87,214)">
    </path>
    <path d="M-258.4866192367306,19.271443878074273L-260.3873341779386,90.70622527649194" style="fill:none;stroke:rgb(74,87,214);stroke-width:5;stroke-linecap:round">
    </path>
    <path d="M-253.54903858979276,92.84956417502995L-252.17837973650947,89.50894572500994L-260.3873341779386,90.70622527649198z" style="fill:rgb(74,87,214)">
    </path>
    <path d="M-264.37701377864823,93.22951100509309L-269.6862958613266,90.1223950246151L-260.86151961270053,108.52758930123407z" style="fill:rgb(74,87,214)">
    </path>
    <path d="M-269.6862958613266,90.1223950246151L-264.37701377864823,93.22951100509309L-260.3873341779386,90.70622527649198z" style="fill:rgb(74,87,214)">
    </path>
    <path d="M-253.54903858979276,92.84956417502995L-264.37701377864823,93.22951100509309L-260.86151961270053,108.52758930123407z" style="fill:rgb(74,87,214)">
    </path>
    <path d="M-509.9032285413376,458.53043037511225L-491.8461094072169,-404.0061191819869L-307.1080442757053,424.24374493203976z" style="fill:rgb(0,0,0); fill-opacity: 0.2">
    </path>
    <path d="M-264.37701377864823,93.22951100509309L-253.54903858979276,92.84956417502995L-260.3873341779386,90.70622527649198z" style="fill:rgb(74,87,214)">
    </path>
    <path d="M-247.07768601989952,15.855280095356298L-402.8140224341554,62.48723261890175" style="fill:none;stroke:rgb(40,0,38);stroke-width:5;stroke-linecap:round">
    </path>
    <path d="M-247.07768601989952,15.855280095356298L-290.69014811754516,-214.26546456840148" style="fill:none;stroke:rgb(0,0,0);stroke-width:1;stroke-linecap:round">
    </path>
    <path d="M-402.8140224341554,62.48723261890175L-247.07768601989952,15.855280095356298" style="fill:none;stroke:rgb(55,17,8);stroke-width:5;stroke-linecap:round">
    </path>
    <path d="M-247.07768601989952,15.855280095356298L-290.69014811754516,-214.26546456840148" style="fill:none;stroke:rgb(0,0,0);stroke-width:1;stroke-linecap:round">
    </path>
    <path d="M-447.24605959284514,-170.31928294408098L60.49682182730053,-312.84574952765666L-402.8140224341554,62.48723261890175z" style="fill:rgb(0,0,0); fill-opacity: 0.2">
    </path>
    <path d="M-271.571256688645,95.42374441638782L-281.5481476830297,93.73591873511968L-279.79901702788965,96.62480264291915z" style="fill:rgb(167,41,160)">
    </path>
    <path d="M-271.5712566886449,95.42374441638778L-281.5481476830296,93.73591873511968L-279.7990170278895,96.62480264291912z" style="fill:rgb(214,94,68)">
    </path>
    <path d="M-281.5481476830297,93.73591873511968L-289.1106623905348,96.0397180589833L-279.79901702788965,96.62480264291915z" style="fill:rgb(167,41,160)">
    </path>
    <path d="M-281.5481476830296,93.73591873511968L-289.11066239053474,96.03971805898325L-279.7990170278895,96.62480264291912z" style="fill:rgb(214,94,68)">
    </path>
    <path d="M-277.92802889558226,25.092762865512455L-279.7990170278896,96.62480264291908" style="fill:none;stroke:rgb(167,41,160);stroke-width:5;stroke-linecap:round">
    </path>
    <path d="M-277.92802889558214,25.092762865512455L-279.7990170278895,96.62480264291908" style="fill:none;stroke:rgb(214,94,68);stroke-width:5;stroke-linecap:round">
    </path>
    <path d="M-272.9590071356731,98.77395582228955L-271.571256688645,95.42374441638782L-279.79901702788965,96.62480264291915z" style="fill:rgb(167,41,160)">
    </path>
    <path d="M-272.95900713567306,98.7739558222895L-271.5712566886449,95.42374441638778L-279.7990170278895,96.62480264291912z" style="fill:rgb(214,94,68)">
    </path>
    <path d="M-283.8064711210325,99.15546666121149L-289.1106623905348,96.0397180589833L-280.26578483133534,114.47037445941166z" style="fill:rgb(167,41,160)">
    </path>
    <path d="M-283.80647112103236,99.15546666121149L-289.11066239053474,96.03971805898325L-280.2657848313352,114.47037445941164z" style="fill:rgb(214,94,68)">
    </path>
    <path d="M-289.1106623905348,96.0397180589833L-283.8064711210325,99.15546666121149L-279.79901702788965,96.62480264291915z" style="fill:rgb(167,41,160)">
    </path>
    <path d="M-289.11066239053474,96.03971805898325L-283.80647112103236,99.15546666121149L-279.7990170278895,96.62480264291912z" style="fill:rgb(214,94,68)">
    </path>
    <path d="M-272.9590071356731,98.77395582228955L-283.8064711210325,99.15546666121149L-280.26578483133534,114.47037445941166z" style="fill:rgb(167,41,160)">
    </path>
    <path d="M-272.95900713567306,98.7739558222895L-283.80647112103236,99.15546666121149L-280.2657848313352,114.47037445941164z" style="fill:rgb(214,94,68)">
    </path>
    <path d="M-283.8064711210325,99.15546666121149L-272.9590071356731,98.77395582228955L-279.79901702788965,96.62480264291915z" style="fill:rgb(167,41,160)">
    </path>
    <path d="M-283.80647112103236,99.15546666121149L-272.95900713567306,98.7739558222895L-279.7990170278895,96.62480264291912z" style="fill:rgb(214,94,68)">
    </path>
    <path d="M-280.7174285424073,98.21331325886908L-290.69850627459647,96.52342933862836L-288.95406498055183,99.4161556657365z" style="fill:rgb(74,87,214)">
    </path>
    <path d="M-290.69850627459647,96.52342933862836L-298.2716909979268,98.83047911240108L-288.95406498055183,99.4161556657365z" style="fill:rgb(74,87,214)">
    </path>
    <path d="M-287.0971306486745,27.83825648298413L-288.95406498055183,99.41615566573647" style="fill:none;stroke:rgb(74,87,214);stroke-width:5;stroke-linecap:round">
    </path>
    <path d="M-282.1132554377064,101.56805371324245L-280.7174285424073,98.21331325886908L-288.95406498055183,99.4161556657365z" style="fill:rgb(74,87,214)">
    </path>
    <path d="M-292.96991423616123,101.95030321277899L-298.2716909979268,98.83047911240108L-289.4173260039793,117.2731419150436z" style="fill:rgb(74,87,214)">
    </path>
    <path d="M-307.1080442757053,424.24374493203976L-290.6901481175454,-214.2654645684016L-491.8461094072169,-404.0061191819869z" style="fill:rgb(0,0,0); fill-opacity: 0.2">
    </path>
    <path d="M-298.2716909979268,98.83047911240108L-292.96991423616123,101.95030321277899L-288.95406498055183,99.4161556657365z" style="fill:rgb(74,87,214)">
    </path>
    <path d="M-282.1132554377064,101.56805371324245L-292.96991423616123,101.95030321277899L-289.4173260039793,117.2731419150436z" style="fill:rgb(74,87,214)">
    </path>
    <path d="M-292.96991423616123,101.95030321277899L-282.1132554377064,101.56805371324245L-288.95406498055183,99.4161556657365z" style="fill:rgb(74,87,214)">
    </path>
    <path d="M-412.7958432060504,491.79270717904495L-402.8140224341554,62.48723261890175" style="fill:none;stroke:rgb(38,46,1);stroke-width:5;stroke-linecap:round">
    </path>
    <path d="M-412.7958432060504,491.7927071790449L-465.05082196991606,509.13854332099703" style="fill:none;stroke:rgb(162,186,45);stroke-width:5;stroke-linecap:round">
    </path>
    <path d="M-290.6901481175454,-214.2654645684016L-491.8461094072169,-404.0061191819869" style="fill:none;stroke:rgb(0,0,0);stroke-width:1;stroke-linecap:round">
    </path>
    <path d="M-290.6901481175454,-214.2654645684016L-491.8461094072169,-404.0061191819869" style="fill:none;stroke:rgb(0,0,0);stroke-width:1;stroke-linecap:round">
    </path>
    <path d="M-402.8140224341554,62.48723261890175L-290.69014811754516,-214.26546456840148" style="fill:none;stroke:rgb(0,0,0);stroke-width:1;stroke-linecap:round">
    </path>
    <path d="M-402.8140224341554,62.48723261890175L-290.69014811754516,-214.26546456840148" style="fill:none;stroke:rgb(0,0,0);stroke-width:1;stroke-linecap:round">
    </path>
    <path d="M-491.8461094072169,-404.0061191819869L18.545474302454867,-537.7487136408192L-447.2460595928454,-170.31928294408107z" style="fill:rgb(0,0,0); fill-opacity: 0.2">
    </path>
    <path d="M-302.4913746900764,104.85433452137872L-312.4824034762318,103.15954570802022L-310.7491595611516,106.06142977622937z" style="fill:rgb(167,41,160)">
    </path>
    <path d="M-302.49137469007627,104.85433452137868L-312.48240347623175,103.15954570802018L-310.7491595611515,106.06142977622933z" style="fill:rgb(214,94,68)">
    </path>
    <path d="M-312.4824034762318,103.15954570802022L-320.0810201712853,105.47434292580141L-310.7491595611516,106.06142977622937z" style="fill:rgb(167,41,160)">
    </path>
    <path d="M-312.48240347623175,103.15954570802018L-320.0810201712851,105.47434292580137L-310.7491595611515,106.06142977622933z" style="fill:rgb(214,94,68)">
    </path>
    <path d="M-411.8067118116185,449.25141813040767L-464.1105991601499,466.44506920202355" style="fill:none;stroke:rgb(162,186,45);stroke-width:5;stroke-linecap:round">
    </path>
    <path d="M-308.92576998037345,34.374380912300076L-310.7491595611516,106.06142977622933" style="fill:none;stroke:rgb(167,41,160);stroke-width:5;stroke-linecap:round">
    </path>
    <path d="M-308.92576998037333,34.374380912300026L-310.74915956115143,106.06142977622926" style="fill:none;stroke:rgb(214,94,68);stroke-width:5;stroke-linecap:round">
    </path>
    <path d="M-303.9064691691452,108.21986940744573L-302.4913746900764,104.85433452137872L-310.7491595611516,106.06142977622937z" style="fill:rgb(167,41,160)">
    </path>
    <path d="M-303.90646916914517,108.21986940744573L-302.49137469007627,104.85433452137868L-310.7491595611515,106.06142977622933z" style="fill:rgb(214,94,68)">
    </path>
    <path d="M-314.78502648987535,108.60388007654193L-320.0810201712853,105.47434292580141L-311.20405036363024,123.94558329383382z" style="fill:rgb(167,41,160)">
    </path>
    <path d="M-314.7850264898752,108.60388007654187L-320.0810201712851,105.47434292580137L-311.20405036363013,123.94558329383376z" style="fill:rgb(214,94,68)">
    </path>
    <path d="M-320.0810201712853,105.47434292580141L-314.78502648987535,108.60388007654193L-310.7491595611516,106.06142977622937z" style="fill:rgb(167,41,160)">
    </path>
    <path d="M-320.0810201712851,105.47434292580137L-314.7850264898752,108.60388007654187L-310.7491595611515,106.06142977622933z" style="fill:rgb(214,94,68)">
    </path>
    <path d="M-309.38254452050694,106.95613109316615L-319.3767179455138,105.25978850121068L-317.64702771142635,108.16457387900444z" style="fill:rgb(74,87,214)">
    </path>
    <path d="M-303.9064691691452,108.21986940744573L-314.78502648987535,108.60388007654193L-311.20405036363024,123.94558329383382z" style="fill:rgb(167,41,160)">
    </path>
    <path d="M-303.90646916914517,108.21986940744573L-314.7850264898752,108.60388007654187L-311.20405036363013,123.94558329383376z" style="fill:rgb(214,94,68)">
    </path>
    <path d="M-319.3767179455138,105.25978850121068L-326.9833924084831,107.57704038929595L-317.64702771142635,108.16457387900444z" style="fill:rgb(74,87,214)">
    </path>
    <path d="M-314.78502648987535,108.60388007654193L-303.9064691691452,108.21986940744573L-310.7491595611516,106.06142977622937z" style="fill:rgb(167,41,160)">
    </path>
    <path d="M-314.7850264898752,108.60388007654187L-303.90646916914517,108.21986940744573L-310.7491595611515,106.06142977622933z" style="fill:rgb(214,94,68)">
    </path>
    <path d="M-315.8342802501266,36.44298821567607L-317.6470277114263,108.16457387900437" style="fill:none;stroke:rgb(74,87,214);stroke-width:5;stroke-linecap:round">
    </path>
    <path d="M-310.8037487592231,110.32508588400435L-309.38254452050694,106.95613109316615L-317.64702771142635,108.16457387900444z" style="fill:rgb(74,87,214)">
    </path>
    <path d="M-321.68923925195907,110.70965472312781L-326.9833924084831,107.57704038929595L-318.09926306306767,126.05732353398172z" style="fill:rgb(74,87,214)">
    </path>
    <path d="M-326.9833924084831,107.57704038929595L-321.68923925195907,110.70965472312781L-317.64702771142635,108.16457387900444z" style="fill:rgb(74,87,214)">
    </path>
    <path d="M-310.8037487592231,110.32508588400435L-321.68923925195907,110.70965472312781L-318.09926306306767,126.05732353398172z" style="fill:rgb(74,87,214)">
    </path>
    <path d="M-410.815585380881,406.62432509594504L-463.16847238680543,423.6651402354205" style="fill:none;stroke:rgb(162,186,45);stroke-width:5;stroke-linecap:round">
    </path>
    <path d="M-321.68923925195907,110.70965472312781L-310.8037487592231,110.32508588400435L-317.64702771142635,108.16457387900444z" style="fill:rgb(74,87,214)">
    </path>
    <path d="M-402.8140224341554,62.48723261890175L-247.07768601989952,15.855280095356298L-290.69014811754516,-214.26546456840148z" style="fill:rgb(0,0,0); fill-opacity: 0.2">
    </path>
    <path d="M-409.82245787188816,363.9111682190661L-462.224435860694,380.79849354671745" style="fill:none;stroke:rgb(162,186,45);stroke-width:5;stroke-linecap:round">
    </path>
    <path d="M-333.559278899522,114.32999920049929L-343.5644668401794,112.62819989669686L-341.84728169312723,115.54317554816605z" style="fill:rgb(167,41,160)">
    </path>
    <path d="M-333.55927889952187,114.32999920049929L-343.5644668401793,112.62819989669681L-341.84728169312706,115.543175548166z" style="fill:rgb(214,94,68)">
    </path>
    <path d="M-412.7958432060504,491.79270717904495L-402.8140224341554,62.48723261890175L-290.69014811754516,-214.26546456840148z" style="fill:rgb(0,0,0); fill-opacity: 0.2">
    </path>
    <path d="M-343.5644668401794,112.62819989669686L-351.1994446570887,114.95407394952386L-341.84728169312723,115.54317554816605z" style="fill:rgb(167,41,160)">
    </path>
    <path d="M-343.5644668401793,112.62819989669681L-351.1994446570886,114.95407394952386L-341.84728169312706,115.543175548166z" style="fill:rgb(214,94,68)">
    </path>
    <path d="M-290.69014811754516,-214.26546456840148L-290.69014811754516,-214.26546456840148L-402.8140224341554,62.48723261890175z" style="fill:rgb(0,0,0); fill-opacity: 0.2">
    </path>
    <path d="M-290.69014811754516,-214.26546456840148L-447.24605959284514,-170.31928294408098L-247.07768601989952,15.855280095356298z" style="fill:rgb(0,0,0); fill-opacity: 0.2">
    </path>
    <path d="M-340.0719681729731,43.70045130054177L-341.84728169312723,115.543175548166" style="fill:none;stroke:rgb(167,41,160);stroke-width:5;stroke-linecap:round">
    </path>
    <path d="M-340.07196817297296,43.70045130054172L-341.84728169312706,115.54317554816593" style="fill:none;stroke:rgb(214,94,68);stroke-width:5;stroke-linecap:round">
    </path>
    <path d="M-338.17456484545085,115.73765456492465L-348.18185224463156,114.03481261537861L-346.46706092208274,116.95173558872203z" style="fill:rgb(74,87,214)">
    </path>
    <path d="M-335.0019633491097,117.71096598247293L-333.559278899522,114.32999920049929L-341.84728169312723,115.54317554816605z" style="fill:rgb(167,41,160)">
    </path>
    <path d="M-335.00196334910953,117.71096598247293L-333.55927889952187,114.32999920049929L-341.84728169312706,115.543175548166z" style="fill:rgb(214,94,68)">
    </path>
    <path d="M-345.91178772825856,118.09749606214463L-351.1994446570887,114.95407394952386L-342.29017647666257,133.4660761755922z" style="fill:rgb(167,41,160)">
    </path>
    <path d="M-345.91178772825845,118.09749606214457L-351.1994446570886,114.95407394952386L-342.2901764766625,133.46607617559215z" style="fill:rgb(214,94,68)">
    </path>
    <path d="M-348.18185224463156,114.03481261537861L-355.8222390842729,116.3623344405928L-346.46706092208274,116.95173558872203z" style="fill:rgb(74,87,214)">
    </path>
    <path d="M-351.1994446570887,114.95407394952386L-345.91178772825856,118.09749606214463L-341.84728169312723,115.54317554816605z" style="fill:rgb(167,41,160)">
    </path>
    <path d="M-351.1994446570886,114.95407394952386L-345.91178772825845,118.09749606214457L-341.84728169312706,115.543175548166z" style="fill:rgb(214,94,68)">
    </path>
    <path d="M-335.0019633491097,117.71096598247293L-345.91178772825856,118.09749606214463L-342.29017647666257,133.4660761755922z" style="fill:rgb(167,41,160)">
    </path>
    <path d="M-335.00196334910953,117.71096598247293L-345.91178772825845,118.09749606214457L-342.2901764766625,133.46607617559215z" style="fill:rgb(214,94,68)">
    </path>
    <path d="M-345.91178772825856,118.09749606214463L-335.0019633491097,117.71096598247293L-341.84728169312723,115.54317554816605z" style="fill:rgb(167,41,160)">
    </path>
    <path d="M-345.91178772825845,118.09749606214457L-335.00196334910953,117.71096598247293L-341.84728169312706,115.543175548166z" style="fill:rgb(214,94,68)">
    </path>
    <path d="M-344.69891071052683,45.08589139569372L-346.46706092208274,116.95173558872196" style="fill:none;stroke:rgb(74,87,214);stroke-width:5;stroke-linecap:round">
    </path>
    <path d="M-339.62135777246493,119.12091683697506L-338.17456484545085,115.73765456492465L-346.46706092208274,116.95173558872203z" style="fill:rgb(74,87,214)">
    </path>
    <path d="M-350.53582917008123,119.50782183982446L-355.8222390842729,116.3623344405928L-346.90816831619674,134.88039066033824z" style="fill:rgb(74,87,214)">
    </path>
    <path d="M-408.82732321826916,321.11168659282197L-461.278483769133,337.84486519463496" style="fill:none;stroke:rgb(162,186,45);stroke-width:5;stroke-linecap:round">
    </path>
    <path d="M-509.9032285413373,458.5304303751123L-491.84610940721655,-404.0061191819867L-632.9325915276765,-444.34584225505716z" style="fill:rgb(0,0,0); fill-opacity: 0.2">
    </path>
    <path d="M-355.8222390842729,116.3623344405928L-350.53582917008123,119.50782183982446L-346.46706092208274,116.95173558872203z" style="fill:rgb(74,87,214)">
    </path>
    <path d="M-339.62135777246493,119.12091683697506L-350.53582917008123,119.50782183982446L-346.90816831619674,134.88039066033824z" style="fill:rgb(74,87,214)">
    </path>
    <path d="M-464.8550989444532,500.25118615917114L-471.44600181999493,504.16769922846896L-478.1797174632737,513.4966289109211z" style="fill:rgb(162,186,45)">
    </path>
    <path d="M-350.53582917008123,119.50782183982446L-339.62135777246493,119.12091683697506L-346.46706092208274,116.95173558872203z" style="fill:rgb(74,87,214)">
    </path>
    <path d="M-461.2175759947721,517.7040822050753L-458.5292697286065,508.61936770246194L-478.1797174632737,513.4966289109211z" style="fill:rgb(162,186,45)">
    </path>
    <path d="M-458.5292697286065,508.61936770246194L-464.8550989444532,500.25118615917114L-478.1797174632737,513.4966289109211z" style="fill:rgb(162,186,45)">
    </path>
    <path d="M-491.84610940721655,-404.0061191819867L-632.9325915276765,-444.34584225505716" style="fill:none;stroke:rgb(0,0,0);stroke-width:1;stroke-linecap:round">
    </path>
    <path d="M-491.84610940721655,-404.0061191819867L-632.9325915276765,-444.34584225505716" style="fill:none;stroke:rgb(0,0,0);stroke-width:1;stroke-linecap:round">
    </path>
    <path d="M-407.83017532910696,278.2256182545933L-460.33061027582676,294.8039901656677" style="fill:none;stroke:rgb(162,186,45);stroke-width:5;stroke-linecap:round">
    </path>
    <path d="M-463.9144799518623,457.53972223926934L-470.5125793551971,461.48436658854695L-477.251848804667,470.7649404866799z" style="fill:rgb(162,186,45)">
    </path>
    <path d="M-460.2733915043847,475.015455186693L-457.5819904563693,465.90462490558957L-477.251848804667,470.7649404866799z" style="fill:rgb(162,186,45)">
    </path>
    <path d="M-457.5819904563693,465.90462490558957L-463.9144799518623,457.53972223926934L-477.251848804667,470.7649404866799z" style="fill:rgb(162,186,45)">
    </path>
    <path d="M-364.77603139654013,123.85106238643864L-374.7953996751694,122.14220479211538L-373.09444725267906,125.07036431769788z" style="fill:rgb(167,41,160)">
    </path>
    <path d="M-364.7760313965401,123.85106238643864L-374.79539967516934,122.14220479211534L-373.0944472526789,125.07036431769788z" style="fill:rgb(214,94,68)">
    </path>
    <path d="M-374.7953996751694,122.14220479211538L-382.46700023422187,124.47923537843037L-373.09444725267906,125.07036431769788z" style="fill:rgb(167,41,160)">
    </path>
    <path d="M-374.79539967516934,122.14220479211534L-382.46700023422176,124.47923537843037L-373.0944472526789,125.07036431769788z" style="fill:rgb(214,94,68)">
    </path>
    <path d="M-367.0943341208969,124.55814127700698L-377.114753632587,122.84875893257824L-375.4150106077914,125.77789873689753z" style="fill:rgb(74,87,214)">
    </path>
    <path d="M-377.114753632587,122.84875893257824L-384.78907746374614,125.18661912024686L-375.4150106077914,125.77789873689753z" style="fill:rgb(74,87,214)">
    </path>
    <path d="M-371.3676925391687,53.07129413937983L-373.09444725267906,125.07036431769782" style="fill:none;stroke:rgb(167,41,160);stroke-width:5;stroke-linecap:round">
    </path>
    <path d="M-371.3676925391686,53.07129413937983L-373.0944472526789,125.07036431769782" style="fill:none;stroke:rgb(214,94,68);stroke-width:5;stroke-linecap:round">
    </path>
    <path d="M-406.83100808881505,235.2527001807456L-459.3808095207464,251.675602368634" style="fill:none;stroke:rgb(162,186,45);stroke-width:5;stroke-linecap:round">
    </path>
    <path d="M-366.24655435343357,127.24757051279543L-364.77603139654013,123.85106238643864L-373.09444725267906,125.07036431769788z" style="fill:rgb(167,41,160)">
    </path>
    <path d="M-366.24655435343345,127.24757051279538L-364.7760313965401,123.85106238643864L-373.0944472526789,125.07036431769788z" style="fill:rgb(214,94,68)">
    </path>
    <path d="M-377.18782094371824,127.63663977923609L-382.46700023422187,124.47923537843037L-373.5252256954065,143.03217851549607z" style="fill:rgb(167,41,160)">
    </path>
    <path d="M-377.1878209437181,127.63663977923605L-382.46700023422176,124.47923537843037L-373.52522569540645,143.03217851549607z" style="fill:rgb(214,94,68)">
    </path>
    <path d="M-373.69187219226615,53.76722058618627L-375.4150106077914,125.77789873689748" style="fill:none;stroke:rgb(74,87,214);stroke-width:5;stroke-linecap:round">
    </path>
    <path d="M-382.46700023422187,124.47923537843037L-377.18782094371824,127.63663977923609L-373.09444725267906,125.07036431769788z" style="fill:rgb(167,41,160)">
    </path>
    <path d="M-382.46700023422176,124.47923537843037L-377.1878209437181,127.63663977923605L-373.0944472526789,125.07036431769788z" style="fill:rgb(214,94,68)">
    </path>
    <path d="M-366.24655435343357,127.24757051279543L-377.18782094371824,127.63663977923609L-373.5252256954065,143.03217851549607z" style="fill:rgb(167,41,160)">
    </path>
    <path d="M-366.24655435343345,127.24757051279538L-377.1878209437181,127.63663977923605L-373.52522569540645,143.03217851549607z" style="fill:rgb(214,94,68)">
    </path>
    <path d="M-368.5669291485206,127.95580499663969L-367.0943341208969,124.55814127700698L-375.4150106077914,125.77789873689753z" style="fill:rgb(74,87,214)">
    </path>
    <path d="M-379.5105317987944,128.34506314313208L-384.78907746374614,125.18661912024686L-375.8448867211105,143.74260207239107z" style="fill:rgb(74,87,214)">
    </path>
    <path d="M-462.9719557915437,414.7417487939323L-469.5772673698133,418.71463037602757L-476.3220993218865,427.946633345609z" style="fill:rgb(162,186,45)">
    </path>
    <path d="M-377.18782094371824,127.63663977923609L-366.24655435343357,127.24757051279543L-373.09444725267906,125.07036431769788z" style="fill:rgb(167,41,160)">
    </path>
    <path d="M-377.1878209437181,127.63663977923605L-366.24655435343345,127.24757051279538L-373.0944472526789,125.07036431769788z" style="fill:rgb(214,94,68)">
    </path>
    <path d="M-384.78907746374614,125.18661912024686L-379.5105317987944,128.34506314313208L-375.4150106077914,125.77789873689753z" style="fill:rgb(74,87,214)">
    </path>
    <path d="M-368.5669291485206,127.95580499663969L-379.5105317987944,128.34506314313208L-375.8448867211105,143.74260207239107z" style="fill:rgb(74,87,214)">
    </path>
    <path d="M-459.3272948568242,432.2403753985519L-456.6327919981672,423.1033421228092L-476.3220993218865,427.946633345609z" style="fill:rgb(162,186,45)">
    </path>
    <path d="M-379.5105317987944,128.34506314313208L-368.5669291485206,127.95580499663969L-375.4150106077914,125.77789873689753z" style="fill:rgb(74,87,214)">
    </path>
    <path d="M-456.6327919981672,423.1033421228092L-462.9719557915437,414.7417487939323L-476.3220993218865,427.946633345609z" style="fill:rgb(162,186,45)">
    </path>
    <path d="M-247.07768601989952,15.855280095356298L-402.8140224341554,62.48723261890175L-447.24605959284514,-170.31928294408098z" style="fill:rgb(0,0,0); fill-opacity: 0.2">
    </path>
    <path d="M-405.8298153570121,192.19266828125177L-458.42907562000846,208.45943462919212" style="fill:none;stroke:rgb(162,186,45);stroke-width:5;stroke-linecap:round">
    </path>
    <path d="M-462.0275206694238,371.8570027268828L-468.6400601206156,375.8582279658713L-475.39046329037905,385.04144385148203z" style="fill:rgb(162,186,45)">
    </path>
    <path d="M-458.37928023746787,389.3785799489469L-455.6816685156852,380.2152560926723L-475.39046329037905,385.04144385148203z" style="fill:rgb(162,186,45)">
    </path>
    <path d="M-455.6816685156852,380.2152560926723L-462.0275206694238,371.8570027268828L-475.39046329037905,385.04144385148203z" style="fill:rgb(162,186,45)">
    </path>
    <path d="M-404.8265909683962,149.0452573942829L-457.4754026657546,165.1552186843239" style="fill:none;stroke:rgb(162,186,45);stroke-width:5;stroke-linecap:round">
    </path>
    <path d="M-396.14270446210725,133.41785112330342L-406.17627407799125,131.7018869914402L-404.49173029035285,134.64332356036104z" style="fill:rgb(74,87,214)">
    </path>
    <path d="M-396.1427044621075,133.41785112330348L-406.17627407799137,131.7018869914402L-404.4917302903529,134.64332356036104z" style="fill:rgb(167,41,160)">
    </path>
    <path d="M-396.14270446210725,133.41785112330342L-406.17627407799125,131.7018869914402L-404.49173029035285,134.64332356036104z" style="fill:rgb(214,94,68)">
    </path>
    <path d="M-406.17627407799125,131.7018869914402L-413.88476151533735,134.0501545761028L-404.49173029035285,134.64332356036104z" style="fill:rgb(74,87,214)">
    </path>
    <path d="M-406.17627407799137,131.7018869914402L-413.88476151533746,134.05015457610287L-404.4917302903529,134.64332356036104z" style="fill:rgb(167,41,160)">
    </path>
    <path d="M-406.17627407799125,131.7018869914402L-413.88476151533735,134.0501545761028L-404.49173029035285,134.64332356036104z" style="fill:rgb(214,94,68)">
    </path>
    <path d="M-461.081168767911,328.8852198739089L-467.7009518410766,332.91489566762243L-474.4569349623377,342.04910729710144z" style="fill:rgb(162,186,45)">
    </path>
    <path d="M-402.8140224341552,62.48723261890175L-404.49173029035285,134.64332356036098" style="fill:none;stroke:rgb(74,87,214);stroke-width:5;stroke-linecap:round">
    </path>
    <path d="M-402.8140224341554,62.48723261890175L-404.4917302903529,134.64332356036098" style="fill:none;stroke:rgb(167,41,160);stroke-width:5;stroke-linecap:round">
    </path>
    <path d="M-402.8140224341552,62.48723261890175L-404.49173029035285,134.64332356036098" style="fill:none;stroke:rgb(214,94,68);stroke-width:5;stroke-linecap:round">
    </path>
    <path d="M-397.64131709436515,136.8300110876179L-396.1427044621075,133.41785112330348L-404.4917302903529,134.64332356036104z" style="fill:rgb(167,41,160)">
    </path>
    <path d="M-397.641317094365,136.83001108761783L-396.14270446210725,133.41785112330342L-404.49173029035285,134.64332356036104z" style="fill:rgb(74,87,214)">
    </path>
    <path d="M-397.641317094365,136.83001108761783L-396.14270446210725,133.41785112330342L-404.49173029035285,134.64332356036104z" style="fill:rgb(214,94,68)">
    </path>
    <path d="M-408.6142024936518,137.2216395152252L-413.88476151533735,134.0501545761028L-404.91027074967496,152.64421884970685z" style="fill:rgb(74,87,214)">
    </path>
    <path d="M-408.6142024936519,137.2216395152252L-413.88476151533746,134.05015457610287L-404.910270749675,152.64421884970685z" style="fill:rgb(167,41,160)">
    </path>
    <path d="M-408.6142024936518,137.2216395152252L-413.88476151533735,134.0501545761028L-404.91027074967496,152.64421884970685z" style="fill:rgb(214,94,68)">
    </path>
    <path d="M-457.42934180809334,346.4298048791979L-454.72861414690425,337.2401024848304L-474.4569349623377,342.04910729710144z" style="fill:rgb(162,186,45)">
    </path>
    <path d="M-454.72861414690425,337.2401024848304L-461.081168767911,328.8852198739089L-474.4569349623377,342.04910729710144z" style="fill:rgb(162,186,45)">
    </path>
    <path d="M-413.88476151533735,134.0501545761028L-408.6142024936518,137.2216395152252L-404.49173029035285,134.64332356036104z" style="fill:rgb(74,87,214)">
    </path>
    <path d="M-413.88476151533746,134.05015457610287L-408.6142024936519,137.2216395152252L-404.4917302903529,134.64332356036104z" style="fill:rgb(167,41,160)">
    </path>
    <path d="M-413.88476151533735,134.0501545761028L-408.6142024936518,137.2216395152252L-404.49173029035285,134.64332356036104z" style="fill:rgb(214,94,68)">
    </path>
    <path d="M-397.641317094365,136.83001108761783L-408.6142024936518,137.2216395152252L-404.91027074967496,152.64421884970685z" style="fill:rgb(74,87,214)">
    </path>
    <path d="M-397.64131709436515,136.8300110876179L-408.6142024936519,137.2216395152252L-404.910270749675,152.64421884970685z" style="fill:rgb(167,41,160)">
    </path>
    <path d="M-397.641317094365,136.83001108761783L-408.6142024936518,137.2216395152252L-404.91027074967496,152.64421884970685z" style="fill:rgb(214,94,68)">
    </path>
    <path d="M-290.6901481175454,-214.2654645684016L-447.2460595928454,-170.31928294408107L-491.8461094072169,-404.0061191819869z" style="fill:rgb(0,0,0); fill-opacity: 0.2">
    </path>
    <path d="M-408.6142024936518,137.2216395152252L-397.641317094365,136.83001108761783L-404.49173029035285,134.64332356036104z" style="fill:rgb(74,87,214)">
    </path>
    <path d="M-408.6142024936519,137.2216395152252L-397.64131709436515,136.8300110876179L-404.4917302903529,134.64332356036104z" style="fill:rgb(167,41,160)">
    </path>
    <path d="M-408.6142024936518,137.2216395152252L-397.641317094365,136.83001108761783L-404.49173029035285,134.64332356036104z" style="fill:rgb(214,94,68)">
    </path>
    <path d="M-403.82132873261844,105.81020128076469L-456.51978472602826,121.76268517678305" style="fill:none;stroke:rgb(162,186,45);stroke-width:5;stroke-linecap:round">
    </path>
    <path d="M-491.8461094072169,-404.0061191819869L-491.8461094072169,-404.0061191819869L-290.6901481175454,-214.2654645684016z" style="fill:rgb(0,0,0); fill-opacity: 0.2">
    </path>
    <path d="M-460.13289424577454,285.82613499743996L-466.7599367412521,289.88436871999994L-473.5215085665819,298.9693578988536z" style="fill:rgb(162,186,45)">
    </path>
    <path d="M-456.4774737067592,303.3937851582323L-453.7736230059789,294.17761589460457L-473.5215085665819,298.9693578988536z" style="fill:rgb(162,186,45)">
    </path>
    <path d="M-453.7736230059789,294.17761589460457L-460.13289424577454,285.82613499743996L-473.5215085665819,298.9693578988536z" style="fill:rgb(162,186,45)">
    </path>
    <path d="M-402.8140224341554,62.48723261890175L-447.24605959284514,-170.31928294408098" style="fill:none;stroke:rgb(0,0,0);stroke-width:1;stroke-linecap:round">
    </path>
    <path d="M-402.8140224341554,62.48723261890175L-447.24605959284514,-170.31928294408098" style="fill:none;stroke:rgb(0,0,0);stroke-width:1;stroke-linecap:round">
    </path>
    <path d="M-402.8140224341554,62.48723261890175L-455.56221584465237,78.28156364951107" style="fill:none;stroke:rgb(162,186,45);stroke-width:5;stroke-linecap:round">
    </path>
    <path d="M-459.182691238026,242.6794817810891L-465.81700900766106,246.76638128545662L-472.58417830843894,255.8019287912327z" style="fill:rgb(162,186,45)">
    </path>
    <path d="M-455.52367004768473,260.2702546771325L-452.81668918311806,251.027529837522L-472.58417830843894,255.8019287912327z" style="fill:rgb(162,186,45)">
    </path>
    <path d="M-452.81668918311806,251.027529837522L-459.182691238026,242.6794817810891L-472.58417830843894,255.8019287912327z" style="fill:rgb(162,186,45)">
    </path>
    <path d="M-458.2305538557975,199.4449928241632L-464.87216280316653,203.5606664447047L-471.6449383696248,212.54655202132966z" style="fill:rgb(162,186,45)">
    </path>
    <path d="M-454.56792492112737,217.05894624365163L-451.8578067444621,207.7895767438184L-471.6449383696248,212.54655202132966z" style="fill:rgb(162,186,45)">
    </path>
    <path d="M-451.8578067444621,207.7895767438184L-458.2305538557975,199.4449928241632L-471.6449383696248,212.54655202132966z" style="fill:rgb(162,186,45)">
    </path>
    <path d="M-447.2460595928454,-170.31928294408107L-491.8461094072169,-404.0061191819869" style="fill:none;stroke:rgb(0,0,0);stroke-width:1;stroke-linecap:round">
    </path>
    <path d="M-447.2460595928454,-170.31928294408107L-491.8461094072169,-404.0061191819869" style="fill:none;stroke:rgb(0,0,0);stroke-width:1;stroke-linecap:round">
    </path>
    <path d="M-457.2764761862198,156.12239963613882L-463.9253922668551,160.26695619120815L-470.7037829081234,169.20295854328828z" style="fill:rgb(162,186,45)">
    </path>
    <path d="M-453.6102323932622,173.75959157669504L-450.89696973196,164.4634879529084L-470.7037829081234,169.20295854328828z" style="fill:rgb(162,186,45)">
    </path>
    <path d="M-450.89696973196,164.4634879529084L-457.2764761862198,156.12239963613882L-470.7037829081234,169.20295854328828z" style="fill:rgb(162,186,45)">
    </path>
    <path d="M-456.32045229230107,112.71143263110373L-462.9766915139153,116.88498142564069L-469.7607060580651,125.77087821272671z" style="fill:rgb(162,186,45)">
    </path>
    <path d="M-452.6505865060583,130.3719213007677L-449.9341721632469,121.04899370781997L-469.7607060580651,125.77087821272671z" style="fill:rgb(162,186,45)">
    </path>
    <path d="M-449.9341721632469,121.04899370781997L-456.32045229230107,112.71143263110373L-469.7607060580651,125.77087821272671z" style="fill:rgb(162,186,45)">
    </path>
    <path d="M-491.8461094072169,-404.0061191819869L-491.8461094072169,-404.0061191819869" style="fill:none;stroke:rgb(0,0,0);stroke-width:1;stroke-linecap:round">
    </path>
    <path d="M-455.3624762128025,69.21182112216573L-462.0260546355163,73.41447195031081L-468.8157019296057,82.25003978112531z" style="fill:rgb(162,186,45)">
    </path>
    <path d="M-451.6889812771548,86.89566494038854L-448.969408031519,77.54582314959684L-468.8157019296057,82.25003978112531z" style="fill:rgb(162,186,45)">
    </path>
    <path d="M-448.969408031519,77.54582314959684L-455.3624762128025,69.21182112216573L-468.8157019296057,82.25003978112531z" style="fill:rgb(162,186,45)">
    </path>
</svg>