<svg viewBox="-1163.5 -590 2327 1180" width="2327" height="1180" style="background-color: rgb(255, 255, 255);">
    <path d="M-145.92535752663125,250.51508740574562L-121.64209589040026,-575.3587958890241" style="fill:none;stroke:rgb(0,0,0);stroke-width:1;stroke-linecap:round">
    </path>
    <path d="M-8.647871851981163,294.62640779891166L-145.92535752663125,250.51508740574562" style="fill:none;stroke:rgb(160,0,0);stroke-width:3;stroke-linecap:round">
    </path>
    <path d="M-8.647871851981163,294.62640779891166L18.54547430245516,-537.7487136408191" style="fill:none;stroke:rgb(0,0,0);stroke-width:1;stroke-linecap:round">
    </path>
    <path d="M-24.80913994695759,305.10289903716824L-8.647871851981163,294.62640779891166" style="fill:none;stroke:rgb(160,0,0);stroke-width:3;stroke-linecap:round">
    </path>
    <path d="M0.9893681706539039,-493.69650984722693L-24.80913994695759,305.10289903716824" style="fill:none;stroke:rgb(50,34,0);stroke-width:5;stroke-linecap:round">
    </path>
    <path d="M-24.80913994695759,305.10289903716824L-73.39475305665424,321.00959399142164" style="fill:none;stroke:rgb(197,147,42);stroke-width:5;stroke-linecap:round">
    </path>
    <path d="M-23.54188846587177,265.8649815039372L-72.16777802064044,281.6364647900817" style="fill:none;stroke:rgb(197,147,42);stroke-width:5;stroke-linecap:round">
    </path>
    <path d="M18.54547430245516,-537.7487136408191L-8.647871851981163,294.62640779891166L-145.92535752663125,250.51508740574562z" style="fill:rgb(0,0,0); fill-opacity: 0.2">
    </path>
    <path d="M-22.272290037810983,226.55439543314083L-70.93852193556631,242.1901376533881" style="fill:none;stroke:rgb(197,147,42);stroke-width:5;stroke-linecap:round">
    </path>
    <path d="M-21.00033813692133,187.17093876471264L-69.7069784345225,202.67040826981253" style="fill:none;stroke:rgb(197,147,42);stroke-width:5;stroke-linecap:round">
    </path>
    <path d="M-19.72602621313226,147.71440868876766L-68.47314112688234,163.07707156674743" style="fill:none;stroke:rgb(197,147,42);stroke-width:5;stroke-linecap:round">
    </path>
    <path d="M-73.12821307226885,312.45643444497824L-79.65546985511084,316.3107614133285L-85.59919374367676,325.00526889743617z" style="fill:rgb(197,147,42)">
    </path>
    <path d="M-69.68848155905242,329.20039814966236L-66.96421990251014,320.42467585038537L-85.59919374367676,325.00526889743617z" style="fill:rgb(197,147,42)">
    </path>
    <path d="M-66.96421990251014,320.42467585038537L-73.12821307226885,312.45643444497824L-85.59919374367676,325.00526889743617z" style="fill:rgb(197,147,42)">
    </path>
    <path d="M-18.449347692044217,108.18460164212128L-67.23700359819124,123.40992170695873" style="fill:none;stroke:rgb(197,147,42);stroke-width:5;stroke-linecap:round">
    </path>
    <path d="M-121.64209589040026,-575.3587958890241L-145.92535752663125,250.51508740574562L18.54547430245516,-537.7487136408191z" style="fill:rgb(0,0,0); fill-opacity: 0.2">
    </path>
    <path d="M-71.90074269643812,273.0674099906481L-78.43472466013377,276.94667146845967L-84.38238992508813,285.59819277617356z" style="fill:rgb(197,147,42)">
    </path>
    <path d="M-68.45795918212318,289.83150324306683L-65.73069906086297,281.03267593354497L-84.38238992508813,285.59819277617356z" style="fill:rgb(197,147,42)">
    </path>
    <path d="M-65.73069906086297,281.03267593354497L-71.90074269643812,273.0674099906481L-84.38238992508813,285.59819277617356z" style="fill:rgb(197,147,42)">
    </path>
    <path d="M0.9893681706539039,-493.69650984722693L-24.80913994695759,305.10289903716824L-8.647871851981163,294.62640779891166z" style="fill:rgb(0,0,0); fill-opacity: 0.2">
    </path>
    <path d="M-17.170295974815616,68.58131330478872L-65.99855941005566,83.66875208501885" style="fill:none;stroke:rgb(197,147,42);stroke-width:5;stroke-linecap:round">
    </path>
    <path d="M-70.67098988944834,233.60514324997825L-77.21171077107003,237.509425324859L-83.16332180078756,246.1177854685773z" style="fill:rgb(197,147,42)">
    </path>
    <path d="M-67.22514896517268,250.38941199721808L-64.49488393252452,241.56740887917354L-83.16332180078756,246.1177854685773z" style="fill:rgb(197,147,42)">
    </path>
    <path d="M-64.49488393252452,241.56740887917354L-70.67098988944834,233.60514324997825L-83.16332180078756,246.1177854685773z" style="fill:rgb(197,147,42)">
    </path>
    <path d="M-15.888864438049046,28.904338596464537L-64.75780210003127,43.85335532371981" style="fill:none;stroke:rgb(197,147,42);stroke-width:5;stroke-linecap:round">
    </path>
    <path d="M-69.43894827924353,194.06942974628902L-75.98642185765509,197.9988188571256L-81.94198304454342,206.5638420950381z" style="fill:rgb(197,147,42)">
    </path>
    <path d="M-65.99004452178842,210.87392008750788L-63.25676811064987,202.028670087215L-81.94198304454342,206.5638420950381z" style="fill:rgb(197,147,42)">
    </path>
    <path d="M-63.25676811064987,202.028670087215L-69.43894827924353,194.06942974628902L-81.94198304454342,206.5638420950381z" style="fill:rgb(197,147,42)">
    </path>
    <path d="M-14.605046433676975,-10.846528327017346L-63.51472518151038,3.963523270465861" style="fill:none;stroke:rgb(197,147,42);stroke-width:5;stroke-linecap:round">
    </path>
    <path d="M-68.20461147002649,154.4600642410521L-74.75885156605169,158.41464717973224L-80.71836730653568,166.93615701201884z" style="fill:rgb(197,147,42)">
    </path>
    <path d="M-64.75263944176588,171.2848224281346L-62.01634516451694,162.41625419510336L-80.71836730653568,166.93615701201884z" style="fill:rgb(197,147,42)">
    </path>
    <path d="M-62.01634516451694,162.41625419510336L-68.20461147002649,154.4600642410521L-80.71836730653568,166.93615701201884z" style="fill:rgb(197,147,42)">
    </path>
    <path d="M18.54547430245516,-537.7487136408191L-121.64209589040026,-575.3587958890241" style="fill:none;stroke:rgb(0,0,0);stroke-width:1;stroke-linecap:round">
    </path>
    <path d="M-121.64209589040026,-575.3587958890241L-632.9325915276765,-444.34584225505716" style="fill:none;stroke:rgb(0,0,0);stroke-width:1;stroke-linecap:round">
    </path>
    <path d="M18.54547430245516,-537.7487136408191L-121.64209589040026,-575.3587958890241" style="fill:none;stroke:rgb(0,0,0);stroke-width:1;stroke-linecap:round">
    </path>
    <path d="M-13.318835288846884,-50.67149407724324L-62.26932214360922,-36.00095300635364" style="fill:none;stroke:rgb(197,147,42);stroke-width:5;stroke-linecap:round">
    </path>
    <path d="M-66.96797304214803,114.77684073033899L-73.52899351873988,118.75670464348379L-79.49246821324589,127.23452380849128z" style="fill:rgb(197,147,42)">
    </path>
    <path d="M-63.512927290997595,131.62191316855524L-60.77360863941503,122.72995507420731L-79.49246821324589,127.23452380849128z" style="fill:rgb(197,147,42)">
    </path>
    <path d="M-60.77360863941503,122.72995507420731L-66.96797304214803,114.77684073033899L-79.49246821324589,127.23452380849128z" style="fill:rgb(197,147,42)">
    </path>
    <path d="M-12.030224305805504,-90.5707660367995L-61.02158645105402,-76.0402832210122" style="fill:none;stroke:rgb(197,147,42);stroke-width:5;stroke-linecap:round">
    </path>
    <path d="M-65.72902655199563,75.01955244124952L-72.29684131440676,79.02478483195571L-78.26427936734648,87.45873530235178z" style="fill:rgb(197,147,42)">
    </path>
    <path d="M-62.27090161136172,91.88498568991753L-59.528552056532924,82.96956582625484L-78.26427936734648,87.45873530235178z" style="fill:rgb(197,147,42)">
    </path>
    <path d="M-59.528552056532924,82.96956582625484L-65.72902655199563,75.01955244124952L-78.26427936734648,87.45873530235178z" style="fill:rgb(197,147,42)">
    </path>
    <path d="M-10.739206761782624,-130.54455236287208L-59.77151154406677,-116.15467787411431" style="fill:none;stroke:rgb(197,147,42);stroke-width:5;stroke-linecap:round">
    </path>
    <path d="M-64.48776553188165,35.18799182832077L-71.06238852783527,39.218680557913075L-77.03379434758945,47.608583536817804z" style="fill:rgb(197,147,42)">
    </path>
    <path d="M-61.02655592060981,52.073832601472134L-58.28116891284629,43.13487877973771L-77.03379434758945,47.608583536817804z" style="fill:rgb(197,147,42)">
    </path>
    <path d="M-58.28116891284629,43.13487877973771L-64.48776553188165,35.18799182832077L-77.03379434758945,47.608583536817804z" style="fill:rgb(197,147,42)">
    </path>
    <path d="M18.54547430245516,-537.7487136408191L-8.647871851981163,294.62640779891166L0.9893681706539039,-493.69650984722693z" style="fill:rgb(0,0,0); fill-opacity: 0.2">
    </path>
    <path d="M-9.445775908874245,-170.59306199086652L-58.519090838250285,-156.34434825628426" style="fill:none;stroke:rgb(197,147,42);stroke-width:5;stroke-linecap:round">
    </path>
    <path d="M-63.24418348993071,-4.718049430084806L-69.82562870979258,-0.6618161402910685L-75.80100670869457,7.68385977680333z" style="fill:rgb(197,147,42)">
    </path>
    <path d="M-59.779883712254055,12.188245736964241L-57.0314526810045,3.225685486295871L-75.80100670869457,7.68385977680333z" style="fill:rgb(197,147,42)">
    </path>
    <path d="M-57.0314526810045,3.225685486295871L-63.24418348993071,-4.718049430084806L-75.80100670869457,7.68385977680333z" style="fill:rgb(197,147,42)">
    </path>
    <path d="M-8.149924973924868,-210.71650463804852L-57.264317724472534,-196.6095064518765" style="fill:none;stroke:rgb(197,147,42);stroke-width:5;stroke-linecap:round">
    </path>
    <path d="M-61.998273909966514,-44.69878043541097L-68.58655538691775,-40.61691400233713L-74.56590998123677,-32.31564549472538z" style="fill:rgb(197,147,42)">
    </path>
    <path d="M-58.530878455453895,-27.771983848993802L-55.779396809216685,-36.75822328291855L-74.56590998123677,-32.31564549472538z" style="fill:rgb(197,147,42)">
    </path>
    <path d="M-55.779396809216685,-36.75822328291855L-61.998273909966514,-44.69878043541097L-74.56590998123677,-32.31564549472538z" style="fill:rgb(197,147,42)">
    </path>
    <path d="M-6.851647158409437,-250.91509080720374L-56.00718556875053,-236.9503653427052" style="fill:none;stroke:rgb(197,147,42);stroke-width:5;stroke-linecap:round">
    </path>
    <path d="M-60.75003025139798,-84.75441107255993L-67.34516206160885,-80.64682254958097L-73.32849767153293,-72.39014258041497z" style="fill:rgb(197,147,42)">
    </path>
    <path d="M-57.279533594901984,-67.807065884572L-54.52499472113732,-76.81705754089754L-73.32849767153293,-72.39014258041497z" style="fill:rgb(197,147,42)">
    </path>
    <path d="M-54.52499472113732,-76.81705754089754L-60.75003025139798,-84.75441107255993L-73.32849767153293,-72.39014258041497z" style="fill:rgb(197,147,42)">
    </path>
    <path d="M-5.550935638314284,-291.1890317903201L-54.747687712133185,-277.367138611797" style="fill:none;stroke:rgb(197,147,42);stroke-width:5;stroke-linecap:round">
    </path>
    <path d="M-59.49944594910496,-124.88515201356523L-66.10144221190924,-120.75175208871609L-72.0887632615282,-112.53984257221052z" style="fill:rgb(197,147,42)">
    </path>
    <path d="M-56.02584255070953,-107.91721088439152L-53.26823981575104,-116.95102808845404L-72.0887632615282,-112.53984257221052z" style="fill:rgb(197,147,42)">
    </path>
    <path d="M-53.26823981575104,-116.95102808845404L-59.49944594910496,-124.88515201356523L-72.0887632615282,-112.53984257221052z" style="fill:rgb(197,147,42)">
    </path>
    <path d="M31.1450834416703,-430.67844276282716L21.33598491341686,-432.16297680289205L23.23041918609991,-429.680617536911z" style="fill:rgb(43,180,168)">
    </path>
    <path d="M21.33598491341686,-432.16297680289205L14.14217364205342,-430.21758162095887L23.23041918609991,-429.680617536911z" style="fill:rgb(43,180,168)">
    </path>
    <path d="M-4.2477835640176735,-331.5385396722894L-53.48581747058393,-317.86004074716345" style="fill:none;stroke:rgb(197,147,42);stroke-width:5;stroke-linecap:round">
    </path>
    <path d="M25.547952195030103,-500.2081308682565L23.230419186099894,-429.680617536911" style="fill:none;stroke:rgb(43,180,168);stroke-width:5;stroke-linecap:round">
    </path>
    <path d="M30.022084183825918,-427.8127863124703L31.1450834416703,-430.67844276282716L23.23041918609991,-429.680617536911z" style="fill:rgb(43,180,168)">
    </path>
    <path d="M19.506648848855264,-427.5273035313608L14.14217364205342,-430.21758162095887L22.652217317921362,-412.084691261412z" style="fill:rgb(43,180,168)">
    </path>
    <path d="M14.14217364205342,-430.21758162095887L19.506648848855264,-427.5273035313608L23.23041918609991,-429.680617536911z" style="fill:rgb(43,180,168)">
    </path>
    <path d="M-58.246514413322984,-165.0912147212849L-64.85538929139355,-160.9319137154569L-70.84670020868148,-152.76495735506205z" style="fill:rgb(197,147,42)">
    </path>
    <path d="M30.022084183825918,-427.8127863124703L19.506648848855264,-427.5273035313608L22.652217317921362,-412.084691261412z" style="fill:rgb(43,180,168)">
    </path>
    <path d="M19.506648848855264,-427.5273035313608L30.022084183825918,-427.8127863124703L23.23041918609991,-429.680617536911z" style="fill:rgb(43,180,168)">
    </path>
    <path d="M-54.76979871829082,-148.10263015321416L-52.00912546725689,-157.16034651791983L-70.84670020868148,-152.76495735506205z" style="fill:rgb(197,147,42)">
    </path>
    <path d="M-52.00912546725689,-157.16034651791983L-58.246514413322984,-165.0912147212849L-70.84670020868148,-152.76495735506205z" style="fill:rgb(197,147,42)">
    </path>
    <path d="M18.907130749547125,-427.3649823027078L9.092269144724785,-428.85195504170287L10.980812901630744,-426.3651085427489z" style="fill:rgb(109,213,75)">
    </path>
    <path d="M9.092269144724785,-428.85195504170287L1.8845506246899306,-426.90279897509566L10.980812901630744,-426.3651085427489z" style="fill:rgb(109,213,75)">
    </path>
    <path d="M-2.942184060169506,-371.9638273346295L-52.22156813486241,-358.4292870455949" style="fill:none;stroke:rgb(197,147,42);stroke-width:5;stroke-linecap:round">
    </path>
    <path d="M13.280547291220207,-496.9554721821595L10.980812901630737,-426.3651085427489" style="fill:none;stroke:rgb(109,213,75);stroke-width:5;stroke-linecap:round">
    </path>
    <path d="M17.77379441362292,-424.4940502614258L18.907130749547125,-427.3649823027078L10.980812901630744,-426.3651085427489z" style="fill:rgb(109,213,75)">
    </path>
    <path d="M7.246185668707446,-424.2077482926551L1.8845506246899306,-426.90279897509566L10.407052747828033,-408.75353649247944z" style="fill:rgb(109,213,75)">
    </path>
    <path d="M-61.456943284071244,-190.68080426029462L-53.51139546824747,-188.36353578965364L-69.60230194585021,-193.0656996106516z" style="fill:rgb(197,147,42)">
    </path>
    <path d="M-56.99122902952753,-205.37281145311587L-63.60699672905266,-201.18751931824244L-69.60230194585021,-193.0656996106516z" style="fill:rgb(197,147,42)">
    </path>
    <path d="M1.8845506246899306,-426.90279897509566L7.246185668707446,-424.2077482926551L10.980812901630744,-426.3651085427489z" style="fill:rgb(109,213,75)">
    </path>
    <path d="M17.77379441362292,-424.4940502614258L7.246185668707446,-424.2077482926551L10.407052747828033,-408.75353649247944z" style="fill:rgb(109,213,75)">
    </path>
    <path d="M7.246185668707446,-424.2077482926551L17.77379441362292,-424.4940502614258L10.980812901630744,-426.3651085427489z" style="fill:rgb(109,213,75)">
    </path>
    <path d="M-53.51139546824747,-188.36353578965364L-50.74764502495186,-197.4452252168641L-69.60230194585021,-193.0656996106516z" style="fill:rgb(197,147,42)">
    </path>
    <path d="M-50.74764502495186,-197.4452252168641L-56.99122902952753,-205.37281145311587L-69.60230194585021,-193.0656996106516z" style="fill:rgb(197,147,42)">
    </path>
    <path d="M25.547952195030103,-500.2081308682565L0.9893681706539039,-493.69650984722693" style="fill:none;stroke:rgb(22,55,11);stroke-width:5;stroke-linecap:round">
    </path>
    <path d="M25.547952195030103,-500.2081308682565L18.54547430245516,-537.7487136408191" style="fill:none;stroke:rgb(0,0,0);stroke-width:1;stroke-linecap:round">
    </path>
    <path d="M-484.40105979631363,-364.99696792660944L25.547952195030103,-500.2081308682565" style="fill:none;stroke:rgb(0,44,41);stroke-width:5;stroke-linecap:round">
    </path>
    <path d="M25.547952195030103,-500.2081308682565L18.54547430245516,-537.7487136408191" style="fill:none;stroke:rgb(0,0,0);stroke-width:1;stroke-linecap:round">
    </path>
    <path d="M-1.6341302255705028,-412.4651084592294L-50.95493297040562,-399.075093616477" style="fill:none;stroke:rgb(197,147,42);stroke-width:5;stroke-linecap:round">
    </path>
    <path d="M3.9174808358772313,-423.30649200212457L-5.904429903747614,-424.7964544213386L-4.023121451072857,-422.30410624284z" style="fill:rgb(43,180,168)">
    </path>
    <path d="M18.54547430245516,-537.7487136408191L18.54547430245516,-537.7487136408191L25.547952195030103,-500.2081308682565z" style="fill:rgb(0,0,0); fill-opacity: 0.2">
    </path>
    <path d="M-5.904429903747614,-424.7964544213386L-13.129201008287776,-422.8426868887802L-4.023121451072857,-422.30410624284z" style="fill:rgb(43,180,168)">
    </path>
    <path d="M0.9893681706539039,-493.69650984722693L18.54547430245516,-537.7487136408191" style="fill:none;stroke:rgb(0,0,0);stroke-width:1;stroke-linecap:round">
    </path>
    <path d="M18.54547430245516,-537.7487136408191L18.54547430245516,-537.7487136408191" style="fill:none;stroke:rgb(0,0,0);stroke-width:1;stroke-linecap:round">
    </path>
    <path d="M0.9893681706539039,-493.69650984722693L18.54547430245516,-537.7487136408191" style="fill:none;stroke:rgb(0,0,0);stroke-width:1;stroke-linecap:round">
    </path>
    <path d="M18.54547430245516,-537.7487136408191L-491.84610940721655,-404.0061191819867" style="fill:none;stroke:rgb(0,0,0);stroke-width:1;stroke-linecap:round">
    </path>
    <path d="M-60.204275121700796,-230.9992627837833L-52.250626146251626,-228.70014068990662L-68.35556188117492,-233.44228282114253z" style="fill:rgb(197,147,42)">
    </path>
    <path d="M-55.73358315831771,-245.73015526472935L-62.35625792917822,-241.5187815819605L-68.35556188117492,-233.44228282114253z" style="fill:rgb(197,147,42)">
    </path>
    <path d="M-1.7452405183265916,-492.971438100184L-4.023121451072866,-422.30410624284" style="fill:none;stroke:rgb(43,180,168);stroke-width:5;stroke-linecap:round">
    </path>
    <path d="M2.771458780619323,-420.42909155704876L3.9174808358772313,-423.30649200212457L-4.023121451072857,-422.30410624284z" style="fill:rgb(43,180,168)">
    </path>
    <path d="M-7.771065864876863,-420.14178477506243L-13.129201008287776,-422.8426868887802L-4.591428017405943,-404.67337403799706z" style="fill:rgb(43,180,168)">
    </path>
    <path d="M-52.250626146251626,-228.70014068990662L-49.48379181311375,-237.80587737183225L-68.35556188117492,-233.44228282114253z" style="fill:rgb(197,147,42)">
    </path>
    <path d="M-13.129201008287776,-422.8426868887802L-7.771065864876863,-420.14178477506243L-4.023121451072857,-422.30410624284z" style="fill:rgb(43,180,168)">
    </path>
    <path d="M-49.48379181311375,-237.80587737183225L-55.73358315831771,-245.73015526472935L-68.35556188117492,-233.44228282114253z" style="fill:rgb(197,147,42)">
    </path>
    <path d="M2.771458780619323,-420.42909155704876L-7.771065864876863,-420.14178477506243L-4.591428017405943,-404.67337403799706z" style="fill:rgb(43,180,168)">
    </path>
    <path d="M25.547952195030103,-500.2081308682565L0.9893681706539039,-493.69650984722693L18.54547430245516,-537.7487136408191z" style="fill:rgb(0,0,0); fill-opacity: 0.2">
    </path>
    <path d="M-7.771065864876863,-420.14178477506243L2.771458780619323,-420.42909155704876L-4.023121451072857,-422.30410624284z" style="fill:rgb(43,180,168)">
    </path>
    <path d="M-0.3236151330504723,-453.04259753211306L-49.68590521720821,-439.7976773856273" style="fill:none;stroke:rgb(197,147,42);stroke-width:5;stroke-linecap:round">
    </path>
    <path d="M-58.949250643235146,-271.3935618495676L-50.9874840729287,-269.1126585515054L-67.10647339796257,-273.8949212729475z" style="fill:rgb(197,147,42)">
    </path>
    <path d="M-54.47357013529914,-286.1634600138268L-61.10316627124661,-281.92591399169424L-67.10647339796257,-273.8949212729475z" style="fill:rgb(197,147,42)">
    </path>
    <path d="M-50.9874840729287,-269.1126585515054L-48.21755913088348,-278.2425169721076L-67.10647339796257,-273.8949212729475z" style="fill:rgb(197,147,42)">
    </path>
    <path d="M-48.21755913088348,-278.2425169721076L-54.47357013529914,-286.1634600138268L-67.10647339796257,-273.8949212729475z" style="fill:rgb(197,147,42)">
    </path>
    <path d="M0.9893681706539039,-493.6965098472268L-48.414478089702286,-480.59725609915506" style="fill:none;stroke:rgb(197,147,42);stroke-width:5;stroke-linecap:round">
    </path>
    <path d="M-57.69186319393618,-311.8639156474813L-49.72196254373945,-309.60130387709194L-65.8550298545696,-314.423830060521z" style="fill:rgb(197,147,42)">
    </path>
    <path d="M-53.21118327096626,-326.6729403639179L-59.847715109801946,-322.40913083648803L-65.8550298545696,-314.423830060521z" style="fill:rgb(197,147,42)">
    </path>
    <path d="M-23.42742917099795,-415.9027799293021L-33.26217161227262,-417.39820377217364L-31.39411978831284,-414.8958035546654z" style="fill:rgb(43,180,168)">
    </path>
    <path d="M-33.26217161227262,-417.39820377217364L-40.518102842552835,-415.4360097246295L-31.39411978831284,-414.8958035546654z" style="fill:rgb(43,180,168)">
    </path>
    <path d="M-49.72196254373945,-309.60130387709194L-46.948940252146656,-318.7553588134922L-65.8550298545696,-314.423830060521z" style="fill:rgb(197,147,42)">
    </path>
    <path d="M-46.948940252146656,-318.7553588134922L-53.21118327096626,-326.6729403639179L-65.8550298545696,-314.423830060521z" style="fill:rgb(197,147,42)">
    </path>
    <path d="M-29.15625492616902,-485.7035053297651L-31.39411978831284,-414.89580355466535" style="fill:none;stroke:rgb(43,180,168);stroke-width:5;stroke-linecap:round">
    </path>
    <path d="M-24.596662264945625,-413.01356076317217L-23.42742917099795,-415.9027799293021L-31.39411978831284,-414.8958035546654z" style="fill:rgb(43,180,168)">
    </path>
    <path d="M-35.1664123326636,-412.72441688715514L-40.518102842552835,-415.4360097246295L-31.952440316871307,-397.2301284954431z" style="fill:rgb(43,180,168)">
    </path>
    <path d="M-40.518102842552835,-415.4360097246295L-35.1664123326636,-412.72441688715514L-31.39411978831284,-414.8958035546654z" style="fill:rgb(43,180,168)">
    </path>
    <path d="M-24.596662264945625,-413.01356076317217L-35.1664123326636,-412.72441688715514L-31.952440316871307,-397.2301284954431z" style="fill:rgb(43,180,168)">
    </path>
    <path d="M-35.1664123326636,-412.72441688715514L-24.596662264945625,-413.01356076317217L-31.39411978831284,-414.8958035546654z" style="fill:rgb(43,180,168)">
    </path>
    <path d="M-56.43210609398292,-352.4105391746747L-48.45405482886137,-350.16629197821277L-64.60122458428418,-355.0292250901705z" style="fill:rgb(197,147,42)">
    </path>
    <path d="M-51.94641585058388,-367.25881178811875L-58.589897774338795,-362.9686472131364L-64.60122458428418,-355.0292250901705z" style="fill:rgb(197,147,42)">
    </path>
    <path d="M-48.45405482886137,-350.16629197821277L-45.677928425414386,-359.3446185021109L-64.60122458428418,-355.0292250901705z" style="fill:rgb(197,147,42)">
    </path>
    <path d="M-45.677928425414386,-359.3446185021109L-51.94641585058388,-367.25881178811875L-64.60122458428418,-355.0292250901705z" style="fill:rgb(197,147,42)">
    </path>
    <path d="M-55.169972638353215,-393.0336482394224L-47.18375417306933,-390.8078389791359L-63.345050895207905,-395.71132308389116z" style="fill:rgb(197,147,42)">
    </path>
    <path d="M-50.67926113406825,-407.9212905729731L-57.32970756918381,-403.6046790299926L-63.345050895207905,-395.71132308389116z" style="fill:rgb(197,147,42)">
    </path>
    <path d="M-47.18375417306933,-390.8078389791359L-44.404516873703635,-400.0105124582355L-63.345050895207905,-395.71132308389116z" style="fill:rgb(197,147,42)">
    </path>
    <path d="M-44.404516873703635,-400.0105124582355L-50.67926113406825,-407.9212905729731L-63.345050895207905,-395.71132308389116z" style="fill:rgb(197,147,42)">
    </path>
    <path d="M-50.890406326400615,-408.4671008405802L-60.73799985412795,-409.9680194282916L-58.88333679676111,-407.45550350603946z" style="fill:rgb(43,180,168)">
    </path>
    <path d="M-60.73799985412795,-409.9680194282916L-68.02529323415044,-407.9973442331747L-58.88333679676111,-407.45550350603946z" style="fill:rgb(43,180,168)">
    </path>
    <path d="M-56.68585561364905,-478.4041298299719L-58.883336796761114,-407.45550350603946" style="fill:none;stroke:rgb(43,180,168);stroke-width:5;stroke-linecap:round">
    </path>
    <path d="M-52.083040497889016,-405.565987586366L-50.890406326400615,-408.4671008405802L-58.88333679676111,-407.45550350603946z" style="fill:rgb(43,180,168)">
    </path>
    <path d="M-62.68015310718817,-405.2749934043336L-68.02529323415044,-407.9973442331747L-59.431579651668414,-389.75474786521175z" style="fill:rgb(43,180,168)">
    </path>
    <path d="M-68.02529323415044,-407.9973442331747L-62.68015310718817,-405.2749934043336L-58.88333679676111,-407.45550350603946z" style="fill:rgb(43,180,168)">
    </path>
    <path d="M-52.083040497889016,-405.565987586366L-62.68015310718817,-405.2749934043336L-59.431579651668414,-389.75474786521175z" style="fill:rgb(43,180,168)">
    </path>
    <path d="M-53.905456096704995,-433.73345946495203L-45.91105379561562,-431.52616182068846L-62.08650207013667,-436.4703415832208z" style="fill:rgb(197,147,42)">
    </path>
    <path d="M-49.409712355867214,-448.6605938222936L-56.067137773377176,-444.31744301080073L-62.08650207013667,-436.4703415832208z" style="fill:rgb(197,147,42)">
    </path>
    <path d="M-62.68015310718817,-405.2749934043336L-52.083040497889016,-405.565987586366L-58.88333679676111,-407.45550350603946z" style="fill:rgb(43,180,168)">
    </path>
    <path d="M-45.91105379561562,-431.52616182068846L-43.12869879441668,-440.753257920132L-62.08650207013667,-436.4703415832208z" style="fill:rgb(197,147,42)">
    </path>
    <path d="M-43.12869879441668,-440.753257920132L-49.409712355867214,-448.6605938222936L-62.08650207013667,-436.4703415832208z" style="fill:rgb(197,147,42)">
    </path>
    <path d="M-52.63854971325638,-474.51019029329456L-44.63594689010941,-472.32147826411784L-60.82557136644086,-477.30649895311785z" style="fill:rgb(197,147,42)">
    </path>
    <path d="M-48.13776272483989,-489.4769394610265L-54.80218164055289,-485.1071566985479L-60.82557136644086,-477.30649895311785z" style="fill:rgb(197,147,42)">
    </path>
    <path d="M-44.63594689010941,-472.32147826411784L-41.85046735922005,-481.573072947928L-60.82557136644086,-477.30649895311785z" style="fill:rgb(197,147,42)">
    </path>
    <path d="M-41.85046735922005,-481.573072947928L-48.13776272483989,-489.4769394610265L-60.82557136644086,-477.30649895311785z" style="fill:rgb(197,147,42)">
    </path>
    <path d="M-78.4722169526951,-400.9992472520015L-88.33268084328076,-402.5056941853465L-86.49154003523915,-399.98299834757717z" style="fill:rgb(43,180,168)">
    </path>
    <path d="M-88.33268084328076,-402.5056941853465L-95.65154014723657,-400.5264827367728L-86.49154003523915,-399.98299834757717z" style="fill:rgb(43,180,168)">
    </path>
    <path d="M-84.33481379579817,-471.07310711588775L-86.49154003523917,-399.98299834757717" style="fill:none;stroke:rgb(43,180,168);stroke-width:5;stroke-linecap:round">
    </path>
    <path d="M-79.68844405872677,-398.0861638950733L-78.4722169526951,-400.9992472520015L-86.49154003523915,-399.98299834757717z" style="fill:rgb(43,180,168)">
    </path>
    <path d="M-90.3130573464458,-397.7933060748853L-95.65154014723657,-400.5264827367728L-87.02961267017398,-382.2470235895181z" style="fill:rgb(43,180,168)">
    </path>
    <path d="M-95.65154014723657,-400.5264827367728L-90.3130573464458,-397.7933060748853L-86.49154003523915,-399.98299834757717z" style="fill:rgb(43,180,168)">
    </path>
    <path d="M-79.68844405872677,-398.0861638950733L-90.3130573464458,-397.7933060748853L-87.02961267017398,-382.2470235895181z" style="fill:rgb(43,180,168)">
    </path>
    <path d="M-90.3130573464458,-397.7933060748853L-79.68844405872677,-398.0861638950733L-86.49154003523915,-399.98299834757717z" style="fill:rgb(43,180,168)">
    </path>
    <path d="M-106.17363401844396,-393.4990098801319L-116.04698743692114,-395.0110190424906L-114.21950372168978,-392.4780785275187z" style="fill:rgb(43,180,168)">
    </path>
    <path d="M-116.04698743692114,-395.0110190424906L-123.39761820818417,-393.02321575614246L-114.21950372168978,-392.4780785275187z" style="fill:rgb(43,180,168)">
    </path>
    <path d="M-112.1039073895448,-463.71023092561165L-114.21950372168978,-392.4780785275187" style="fill:none;stroke:rgb(43,180,168);stroke-width:5;stroke-linecap:round">
    </path>
    <path d="M-107.41364775502724,-390.57387975126505L-106.17363401844396,-393.4990098801319L-114.21950372168978,-392.4780785275187z" style="fill:rgb(43,180,168)">
    </path>
    <path d="M-118.06590088541854,-390.27914483928475L-123.39761820818417,-393.02321575614246L-114.74731266924553,-374.70674530193565z" style="fill:rgb(43,180,168)">
    </path>
    <path d="M-123.39761820818417,-393.02321575614246L-118.06590088541854,-390.27914483928475L-114.21950372168978,-392.4780785275187z" style="fill:rgb(43,180,168)">
    </path>
    <path d="M-107.41364775502724,-390.57387975126505L-118.06590088541854,-390.27914483928475L-114.74731266924553,-374.70674530193565z" style="fill:rgb(43,180,168)">
    </path>
    <path d="M-118.06590088541854,-390.27914483928475L-107.41364775502724,-390.57387975126505L-114.21950372168978,-392.4780785275187z" style="fill:rgb(43,180,168)">
    </path>
    <path d="M-632.9325915276765,-444.34584225505716L-648.0303723601917,411.21762017045097" style="fill:none;stroke:rgb(0,0,0);stroke-width:1;stroke-linecap:round">
    </path>
    <path d="M-509.9032285413373,458.5304303751123L-648.0303723601917,411.21762017045097" style="fill:none;stroke:rgb(160,0,0);stroke-width:3;stroke-linecap:round">
    </path>
    <path d="M-491.84610940721655,-404.0061191819867L18.54547430245516,-537.7487136408191L-121.64209589040026,-575.3587958890241z" style="fill:rgb(0,0,0); fill-opacity: 0.2">
    </path>
    <path d="M-133.99543721061633,-385.9661776225091L-143.88169920761607,-387.48378318286217L-142.06800880554994,-384.9405326721411z" style="fill:rgb(43,180,168)">
    </path>
    <path d="M-143.88169920761607,-387.48378318286217L-151.26430877798518,-385.4873319907854L-142.06800880554994,-384.9405326721411z" style="fill:rgb(43,180,168)">
    </path>
    <path d="M-139.99392108667266,-456.31529320091386L-142.0680088055499,-384.94053267214105" style="fill:none;stroke:rgb(43,180,168);stroke-width:5;stroke-linecap:round">
    </path>
    <path d="M-135.25943313390178,-383.02892339079966L-133.99543721061633,-385.9661776225091L-142.06800880554994,-384.9405326721411z" style="fill:rgb(43,180,168)">
    </path>
    <path d="M-145.93946630868606,-382.73229781053345L-151.26430877798518,-385.4873319907854L-142.58545966644863,-367.133700807747z" style="fill:rgb(43,180,168)">
    </path>
    <path d="M-151.26430877798518,-385.4873319907854L-145.93946630868606,-382.73229781053345L-142.06800880554994,-384.9405326721411z" style="fill:rgb(43,180,168)">
    </path>
    <path d="M-135.25943313390178,-383.02892339079966L-145.93946630868606,-382.73229781053345L-142.58545966644863,-367.133700807747z" style="fill:rgb(43,180,168)">
    </path>
    <path d="M-145.93946630868606,-382.73229781053345L-135.25943313390178,-383.02892339079966L-142.06800880554994,-384.9405326721411z" style="fill:rgb(43,180,168)">
    </path>
    <path d="M-161.9384130077397,-378.4005375378375L-171.8376025164057,-379.92377395381834L-170.03784304106944,-377.37014756591424z" style="fill:rgb(43,180,168)">
    </path>
    <path d="M-171.8376025164057,-379.92377395381834L-179.2524000255983,-377.9186182991499L-170.03784304106944,-377.37014756591424z" style="fill:rgb(43,180,168)">
    </path>
    <path d="M-484.40105979631363,-364.99696792660944L25.547952195030103,-500.2081308682565L18.54547430245516,-537.7487136408191z" style="fill:rgb(0,0,0); fill-opacity: 0.2">
    </path>
    <path d="M-168.0056464277343,-448.8880840676384L-170.03784304106944,-377.37014756591424" style="fill:none;stroke:rgb(43,180,168);stroke-width:5;stroke-linecap:round">
    </path>
    <path d="M-163.22658855544296,-375.4510812035231L-161.9384130077397,-378.4005375378375L-170.03784304106944,-377.37014756591424z" style="fill:rgb(43,180,168)">
    </path>
    <path d="M-173.9345430239855,-375.1525512542441L-179.2524000255983,-377.9186182991499L-170.54484047322785,-359.52767606403927z" style="fill:rgb(43,180,168)">
    </path>
    <path d="M-179.2524000255983,-377.9186182991499L-173.9345430239855,-375.1525512542441L-170.03784304106944,-377.37014756591424z" style="fill:rgb(43,180,168)">
    </path>
    <path d="M-163.22658855544296,-375.4510812035231L-173.9345430239855,-375.1525512542441L-170.54484047322785,-359.52767606403927z" style="fill:rgb(43,180,168)">
    </path>
    <path d="M-173.9345430239855,-375.1525512542441L-163.22658855544296,-375.4510812035231L-170.03784304106944,-377.37014756591424z" style="fill:rgb(43,180,168)">
    </path>
    <path d="M-430.47986278849305,430.9836787330331L-428.27037379214556,441.60210480529037L-424.16980504186046,435.8516509783994z" style="fill:rgb(167,41,160)">
    </path>
    <path d="M-417.7301726999905,435.3055338192583L-420.39257345434277,444.27754555670094L-411.3106488906914,431.64162539317255z" style="fill:rgb(167,41,160)">
    </path>
    <path d="M-428.27037379214556,441.60210480529037L-420.39257345434277,444.27754555670094L-424.16980504186046,435.8516509783994z" style="fill:rgb(167,41,160)">
    </path>
    <path d="M-423.9686520887167,427.08732327866073L-417.7301726999905,435.3055338192583L-411.3106488906914,431.64162539317255z" style="fill:rgb(167,41,160)">
    </path>
    <path d="M-423.9686520887167,427.08732327866073L-430.47986278849305,430.9836787330331L-424.16980504186046,435.8516509783994z" style="fill:rgb(167,41,160)">
    </path>
    <path d="M-475.859705036381,452.77467445805166L-424.16980504186046,435.8516509783993" style="fill:none;stroke:rgb(167,41,160);stroke-width:5;stroke-linecap:round">
    </path>
    <path d="M-420.39257345434277,444.27754555670094L-417.7301726999905,435.3055338192583L-424.16980504186046,435.8516509783994z" style="fill:rgb(167,41,160)">
    </path>
    <path d="M-417.7301726999905,435.3055338192583L-423.9686520887167,427.08732327866073L-424.16980504186046,435.8516509783994z" style="fill:rgb(167,41,160)">
    </path>
    <path d="M-429.5602110721692,390.64713105914655L-427.3486824995499,401.27866091116255L-423.24381046542993,395.5056367181849z" style="fill:rgb(167,41,160)">
    </path>
    <path d="M-416.7975875369687,394.93970152181674L-419.46289277913434,403.9360207228006L-410.37330433293874,391.3311738094052z" style="fill:rgb(167,41,160)">
    </path>
    <path d="M-427.3486824995499,401.27866091116255L-419.46289277913434,403.9360207228006L-423.24381046542993,395.5056367181849z" style="fill:rgb(167,41,160)">
    </path>
    <path d="M-423.04227340484334,386.72457327855165L-416.7975875369687,394.93970152181674L-410.37330433293874,391.3311738094052z" style="fill:rgb(167,41,160)">
    </path>
    <path d="M-423.04227340484334,386.72457327855165L-429.5602110721692,390.64713105914655L-423.24381046542993,395.5056367181849z" style="fill:rgb(167,41,160)">
    </path>
    <path d="M-474.9795767808202,412.28578781074293L-423.24381046542993,395.5056367181849" style="fill:none;stroke:rgb(167,41,160);stroke-width:5;stroke-linecap:round">
    </path>
    <path d="M-419.46289277913434,403.9360207228006L-416.7975875369687,394.93970152181674L-423.24381046542993,395.5056367181849z" style="fill:rgb(167,41,160)">
    </path>
    <path d="M-190.00335475400982,-370.80187482592237L-199.91549058685695,-372.3307768469093L-198.1298010615902,-369.7667081313956z" style="fill:rgb(43,180,168)">
    </path>
    <path d="M-416.7975875369687,394.93970152181674L-423.04227340484334,386.72457327855165L-423.24381046542993,395.5056367181849z" style="fill:rgb(167,41,160)">
    </path>
    <path d="M-199.91549058685695,-372.3307768469093L-207.36268700225799,-370.3168596785368L-198.1298010615902,-369.7667081313956z" style="fill:rgb(43,180,168)">
    </path>
    <path d="M-196.13988187693417,-441.42839181584714L-198.1298010615902,-369.7667081313956" style="fill:none;stroke:rgb(43,180,168);stroke-width:5;stroke-linecap:round">
    </path>
    <path d="M-191.31590926712516,-367.8401377131107L-190.00335475400982,-370.80187482592237L-198.1298010615902,-369.7667081313956z" style="fill:rgb(43,180,168)">
    </path>
    <path d="M-202.05192733673562,-367.53968956846205L-207.36268700225799,-370.3168596785368L-198.62624876903578,-351.8884551595374z" style="fill:rgb(43,180,168)">
    </path>
    <path d="M-428.63880321227225,350.23355773772477L-426.4252312986302,360.8782220783475L-422.31604701405047,355.08255175395516z" style="fill:rgb(167,41,160)">
    </path>
    <path d="M-207.36268700225799,-370.3168596785368L-202.05192733673562,-367.53968956846205L-198.1298010615902,-369.7667081313956z" style="fill:rgb(43,180,168)">
    </path>
    <path d="M-191.31590926712516,-367.8401377131107L-202.05192733673562,-367.53968956846205L-198.62624876903578,-351.8884551595374z" style="fill:rgb(43,180,168)">
    </path>
    <path d="M-415.86322005652147,354.4967237483901L-418.5314360311616,363.51742697110177L-409.43417097706936,350.94379506018475z" style="fill:rgb(167,41,160)">
    </path>
    <path d="M-426.4252312986302,360.8782220783475L-418.5314360311616,363.51742697110177L-422.31604701405047,355.08255175395516z" style="fill:rgb(167,41,160)">
    </path>
    <path d="M-422.11412474477277,346.28470459254265L-415.86322005652147,354.4967237483901L-409.43417097706936,350.94379506018475z" style="fill:rgb(167,41,160)">
    </path>
    <path d="M-202.05192733673562,-367.53968956846205L-191.31590926712516,-367.8401377131107L-198.1298010615902,-369.7667081313956z" style="fill:rgb(43,180,168)">
    </path>
    <path d="M-422.11412474477277,346.28470459254265L-428.63880321227225,350.23355773772477L-422.31604701405047,355.08255175395516z" style="fill:rgb(167,41,160)">
    </path>
    <path d="M-474.0977606305882,371.7192522803461L-422.3160470140504,355.0825517539551" style="fill:none;stroke:rgb(167,41,160);stroke-width:5;stroke-linecap:round">
    </path>
    <path d="M-418.5314360311616,363.51742697110177L-415.86322005652147,354.4967237483901L-422.31604701405047,355.08255175395516z" style="fill:rgb(167,41,160)">
    </path>
    <path d="M-415.86322005652147,354.4967237483901L-422.11412474477277,346.28470459254265L-422.31604701405047,355.08255175395516z" style="fill:rgb(167,41,160)">
    </path>
    <path d="M-427.7156341737642,309.74273792858037L-425.5000151439274,320.4005675710204L-421.38650961440385,314.58217503888767z" style="fill:rgb(167,41,160)">
    </path>
    <path d="M-414.9270651443266,313.97637913167495L-417.5981981160129,323.02154324041146L-408.49324369766555,310.4792687272103z" style="fill:rgb(167,41,160)">
    </path>
    <path d="M-425.5000151439274,320.4005675710204L-417.5981981160129,323.02154324041146L-421.38650961440385,314.58217503888767z" style="fill:rgb(167,41,160)">
    </path>
    <path d="M-421.1842010309735,305.76749599021497L-414.9270651443266,313.97637913167495L-408.49324369766555,310.4792687272103z" style="fill:rgb(167,41,160)">
    </path>
    <path d="M-421.1842010309735,305.76749599021497L-427.7156341737642,309.74273792858037L-421.38650961440385,314.58217503888767z" style="fill:rgb(167,41,160)">
    </path>
    <path d="M-473.214251725502,331.07484428195L-421.38650961440385,314.58217503888767" style="fill:none;stroke:rgb(167,41,160);stroke-width:5;stroke-linecap:round">
    </path>
    <path d="M-417.5981981160129,323.02154324041146L-414.9270651443266,313.97637913167495L-421.38650961440385,314.58217503888767z" style="fill:rgb(167,41,160)">
    </path>
    <path d="M-414.9270651443266,313.97637913167495L-421.1842010309735,305.76749599021497L-421.38650961440385,314.58217503888767z" style="fill:rgb(167,41,160)">
    </path>
    <path d="M-218.19106273437288,-363.16997280734034L-228.11616358008777,-364.70457547758934L-226.3446844548,-362.1299974088619z" style="fill:rgb(43,180,168)">
    </path>
    <path d="M-228.11616358008777,-364.70457547758934L-235.59597171675878,-362.6818392447403L-226.3446844548,-362.1299974088619z" style="fill:rgb(43,180,168)">
    </path>
    <path d="M-426.79069890234024,269.17444994649054L-424.57302897067757,279.84547580878314L-420.45519317375266,274.00428468003753z" style="fill:rgb(167,41,160)">
    </path>
    <path d="M-224.3974328979965,-433.9360028797046L-226.3446844548,-362.1299974088619" style="fill:none;stroke:rgb(43,180,168);stroke-width:5;stroke-linecap:round">
    </path>
    <path d="M-413.9891176664766,273.3784454566122L-416.66317391977526,282.44814762328434L-407.5505173497102,269.9373735492937z" style="fill:rgb(167,41,160)">
    </path>
    <path d="M-424.57302897067757,279.84547580878314L-416.66317391977526,282.44814762328434L-420.45519317375266,274.00428468003753z" style="fill:rgb(167,41,160)">
    </path>
    <path d="M-219.52819747918238,-360.19587555664316L-218.19106273437288,-363.16997280734034L-226.3446844548,-362.1299974088619z" style="fill:rgb(43,180,168)">
    </path>
    <path d="M-420.2524971664739,265.1727253941487L-413.9891176664766,273.3784454566122L-407.5505173497102,269.9373735492937z" style="fill:rgb(167,41,160)">
    </path>
    <path d="M-230.29242252553993,-359.8934952632232L-235.59597171675878,-362.6818392447403L-226.83048517643454,-344.2158202941742z" style="fill:rgb(43,180,168)">
    </path>
    <path d="M-420.2524971664739,265.1727253941487L-426.79069890234024,269.17444994649054L-420.45519317375266,274.00428468003753z" style="fill:rgb(167,41,160)">
    </path>
    <path d="M-472.3290451867009,290.35233937142084L-420.45519317375266,274.0042846800375" style="fill:none;stroke:rgb(167,41,160);stroke-width:5;stroke-linecap:round">
    </path>
    <path d="M-235.59597171675878,-362.6818392447403L-230.29242252553993,-359.8934952632232L-226.3446844548,-362.1299974088619z" style="fill:rgb(43,180,168)">
    </path>
    <path d="M-219.52819747918238,-360.19587555664316L-230.29242252553993,-359.8934952632232L-226.83048517643454,-344.2158202941742z" style="fill:rgb(43,180,168)">
    </path>
    <path d="M-475.859705036381,452.77467445805183L-457.93080742443834,-372.01546099630656" style="fill:none;stroke:rgb(40,0,38);stroke-width:5;stroke-linecap:round">
    </path>
    <path d="M-475.859705036381,452.77467445805183L-509.9032285413373,458.5304303751123" style="fill:none;stroke:rgb(160,0,0);stroke-width:3;stroke-linecap:round">
    </path>
    <path d="M-416.66317391977526,282.44814762328434L-413.9891176664766,273.3784454566122L-420.45519317375266,274.00428468003753z" style="fill:rgb(167,41,160)">
    </path>
    <path d="M-230.29242252553993,-359.8934952632232L-219.52819747918238,-360.19587555664316L-226.3446844548,-362.1299974088619z" style="fill:rgb(43,180,168)">
    </path>
    <path d="M-413.9891176664766,273.3784454566122L-420.2524971664739,265.1727253941487L-420.45519317375266,274.00428468003753z" style="fill:rgb(167,41,160)">
    </path>
    <path d="M-425.86399232433746,228.52847125715172L-423.64426769471953,239.21272436262066L-419.5220925798468,233.34865793428452z" style="fill:rgb(167,41,160)">
    </path>
    <path d="M-413.0493724693833,232.70269965632468L-415.7263583089393,241.79701736196887L-406.60598676849236,229.31788741832708z" style="fill:rgb(167,41,160)">
    </path>
    <path d="M-423.64426769471953,239.21272436262066L-415.7263583089393,241.79701736196887L-419.5220925798468,233.34865793428452z" style="fill:rgb(167,41,160)">
    </path>
    <path d="M-419.3190080347696,224.50016987586446L-413.0493724693833,232.70269965632468L-406.60598676849236,229.31788741832708z" style="fill:rgb(167,41,160)">
    </path>
    <path d="M-419.3190080347696,224.50016987586446L-425.86399232433746,228.52847125715172L-419.5220925798468,233.34865793428452z" style="fill:rgb(167,41,160)">
    </path>
    <path d="M-471.4421361165579,249.55151224127164L-419.52209257984674,233.34865793428446" style="fill:none;stroke:rgb(167,41,160);stroke-width:5;stroke-linecap:round">
    </path>
    <path d="M-415.7263583089393,241.79701736196887L-413.0493724693833,232.70269965632468L-419.5220925798468,233.34865793428452z" style="fill:rgb(167,41,160)">
    </path>
    <path d="M-413.0493724693833,232.70269965632468L-419.3190080347696,224.50016987586446L-419.5220925798468,233.34865793428452z" style="fill:rgb(167,41,160)">
    </path>
    <path d="M-491.84610940721655,-404.0061191819867L-509.9032285413373,458.5304303751123" style="fill:none;stroke:rgb(0,0,0);stroke-width:1;stroke-linecap:round">
    </path>
    <path d="M-424.9355093466413,187.80457847311024L-422.71372621240204,198.50208995083494L-418.58720270082927,192.6150712042579z" style="fill:rgb(167,41,160)">
    </path>
    <path d="M-246.5023442505956,-355.50461290284494L-256.4404286707787,-357.0449515646614L-254.68330183897712,-354.4597965356729z" style="fill:rgb(43,180,168)">
    </path>
    <path d="M-412.10782437968487,191.94891780803152L-414.787746130307,201.06792884433153L-405.6596467695135,188.620587375227z" style="fill:rgb(167,41,160)">
    </path>
    <path d="M-422.71372621240204,198.50208995083494L-414.787746130307,201.06792884433153L-418.58720270082927,192.6150712042579z" style="fill:rgb(167,41,160)">
    </path>
    <path d="M-256.4404286707787,-357.0449515646614L-263.9530632117297,-355.01333821142146L-254.68330183897712,-354.4597965356729z" style="fill:rgb(43,180,168)">
    </path>
    <path d="M-418.3837284997295,183.74960565174328L-412.10782437968487,191.94891780803152L-405.6596467695135,188.620587375227z" style="fill:rgb(167,41,160)">
    </path>
    <path d="M-418.3837284997295,183.74960565174328L-424.9355093466413,187.80457847311024L-418.58720270082927,192.6150712042579z" style="fill:rgb(167,41,160)">
    </path>
    <path d="M-470.55351959858757,208.67213671650615L-418.5872027008292,192.61507120425787" style="fill:none;stroke:rgb(167,41,160);stroke-width:5;stroke-linecap:round">
    </path>
    <path d="M-246.5023442505956,-355.50461290284494L-247.86426244097825,-352.5180754639131L-255.1583573371853,-336.509551758391z" style="fill:rgb(43,180,168)">
    </path>
    <path d="M-252.77911203103332,-426.4107018170961L-254.68330183897706,-354.45979653567287" style="fill:none;stroke:rgb(43,180,168);stroke-width:5;stroke-linecap:round">
    </path>
    <path d="M-247.86426244097825,-352.5180754639131L-246.5023442505956,-355.50461290284494L-254.68330183897712,-354.4597965356729z" style="fill:rgb(43,180,168)">
    </path>
    <path d="M-258.65683891868366,-352.21374893984216L-263.9530632117297,-355.01333821142146L-255.1583573371853,-336.509551758391z" style="fill:rgb(43,180,168)">
    </path>
    <path d="M-414.787746130307,201.06792884433153L-412.10782437968487,191.94891780803152L-418.58720270082927,192.6150712042579z" style="fill:rgb(167,41,160)">
    </path>
    <path d="M-412.10782437968487,191.94891780803152L-418.3837284997295,183.74960565174328L-418.58720270082927,192.6150712042579z" style="fill:rgb(167,41,160)">
    </path>
    <path d="M-648.0303723601917,411.21762017045097L-632.9325915276765,-444.34584225505716L-509.9032285413373,458.5304303751123z" style="fill:rgb(0,0,0); fill-opacity: 0.2">
    </path>
    <path d="M-263.9530632117297,-355.01333821142146L-258.65683891868366,-352.21374893984216L-254.68330183897712,-354.4597965356729z" style="fill:rgb(43,180,168)">
    </path>
    <path d="M-247.86426244097825,-352.5180754639131L-258.65683891868366,-352.21374893984216L-255.1583573371853,-336.509551758391z" style="fill:rgb(43,180,168)">
    </path>
    <path d="M-258.65683891868366,-352.21374893984216L-247.86426244097825,-352.5180754639131L-254.68330183897712,-354.4597965356729z" style="fill:rgb(43,180,168)">
    </path>
    <path d="M-424.00524485659275,147.00254734966984L-421.7813994004901,157.7133484349549L-417.650518385144,151.80330003423686z" style="fill:rgb(167,41,160)">
    </path>
    <path d="M-411.16446820415,151.11687512893943L-413.84733221089596,160.26065759975594L-404.7114921483918,147.84524960585446z" style="fill:rgb(167,41,160)">
    </path>
    <path d="M-421.7813994004901,157.7133484349549L-413.84733221089596,160.26065759975594L-417.650518385144,151.80330003423686z" style="fill:rgb(167,41,160)">
    </path>
    <path d="M-417.4466534055016,142.92080807892162L-411.16446820415,151.11687512893943L-404.7114921483918,147.84524960585446z" style="fill:rgb(167,41,160)">
    </path>
    <path d="M-632.9325915276765,-444.34584225505716L-121.64209589040026,-575.3587958890241L-491.84610940721655,-404.0061191819867z" style="fill:rgb(0,0,0); fill-opacity: 0.2">
    </path>
    <path d="M-417.4466534055016,142.92080807892162L-424.00524485659275,147.00254734966984L-417.650518385144,151.80330003423686z" style="fill:rgb(167,41,160)">
    </path>
    <path d="M-469.66319069735687,167.7139857504399L-417.650518385144,151.80330003423686" style="fill:none;stroke:rgb(167,41,160);stroke-width:5;stroke-linecap:round">
    </path>
    <path d="M-413.84733221089596,160.26065759975594L-411.16446820415,151.11687512893943L-417.650518385144,151.80330003423686z" style="fill:rgb(167,41,160)">
    </path>
    <path d="M-411.16446820415,151.11687512893943L-417.4466534055016,142.92080807892162L-417.650518385144,151.80330003423686z" style="fill:rgb(167,41,160)">
    </path>
    <path d="M-423.0731937218939,106.12215278077598L-420.8472821160712,116.84627481562295L-416.712034461439,110.91311910602802z" style="fill:rgb(167,41,160)">
    </path>
    <path d="M-410.2192987295831,110.20634597210977L-412.9051113578449,119.37497829501967L-403.7615176807682,106.99164943691264z" style="fill:rgb(167,41,160)">
    </path>
    <path d="M-420.8472821160712,116.84627481562295L-412.9051113578449,119.37497829501967L-416.712034461439,110.91311910602802z" style="fill:rgb(167,41,160)">
    </path>
    <path d="M-416.50777757641856,102.01355165116435L-410.2192987295831,110.20634597210977L-403.7615176807682,106.99164943691264z" style="fill:rgb(167,41,160)">
    </path>
    <path d="M-416.50777757641856,102.01355165116435L-423.0731937218939,106.12215278077598L-416.712034461439,110.91311910602802z" style="fill:rgb(167,41,160)">
    </path>
    <path d="M-468.77114445839226,126.67683142049677L-416.712034461439,110.91311910602802" style="fill:none;stroke:rgb(167,41,160);stroke-width:5;stroke-linecap:round">
    </path>
    <path d="M-274.938013698337,-347.8055746124977L-284.8891001241856,-349.35168490945125L-283.1464689402397,-346.7558847253625z" style="fill:rgb(43,180,168)">
    </path>
    <path d="M-284.8891001241856,-349.35168490945125L-292.43477764091455,-347.3111358692089L-283.1464689402397,-346.7558847253625z" style="fill:rgb(43,180,168)">
    </path>
    <path d="M-412.9051113578449,119.37497829501967L-410.2192987295831,110.20634597210977L-416.712034461439,110.91311910602802z" style="fill:rgb(167,41,160)">
    </path>
    <path d="M-410.2192987295831,110.20634597210977L-416.50777757641856,102.01355165116435L-416.712034461439,110.91311910602802z" style="fill:rgb(167,41,160)">
    </path>
    <path d="M-274.938013698337,-347.8055746124977L-276.32492051838307,-344.8065162364597L-283.6106799893403,-328.7694279121656z" style="fill:rgb(43,180,168)">
    </path>
    <path d="M-281.2857389704269,-418.8522712889778L-283.1464689402397,-346.7558847253625" style="fill:none;stroke:rgb(43,180,168);stroke-width:5;stroke-linecap:round">
    </path>
    <path d="M-276.32492051838307,-344.8065162364597L-274.938013698337,-347.8055746124977L-283.1464689402397,-346.7558847253625z" style="fill:rgb(43,180,168)">
    </path>
    <path d="M-287.1459939716401,-344.5002292699271L-292.43477764091455,-347.3111358692089L-283.6106799893403,-328.7694279121656z" style="fill:rgb(43,180,168)">
    </path>
    <path d="M-292.43477764091455,-347.3111358692089L-287.1459939716401,-344.5002292699271L-283.1464689402397,-346.7558847253625z" style="fill:rgb(43,180,168)">
    </path>
    <path d="M-276.32492051838307,-344.8065162364597L-287.1459939716401,-344.5002292699271L-283.6106799893403,-328.7694279121656z" style="fill:rgb(43,180,168)">
    </path>
    <path d="M-422.1393507905143,65.1631687948758L-419.91136919646016,75.90064322845787L-415.7717457384728,69.94430223481871z" style="fill:rgb(167,41,160)">
    </path>
    <path d="M-287.1459939716401,-344.5002292699271L-276.32492051838307,-344.8065162364597L-283.1464689402397,-346.7558847253625z" style="fill:rgb(43,180,168)">
    </path>
    <path d="M-409.27231072272764,69.21710382230177L-411.961078358318,78.41066473014604L-402.80971812220884,66.05956133181981z" style="fill:rgb(167,41,160)">
    </path>
    <path d="M-419.91136919646016,75.90064322845787L-411.961078358318,78.41066473014604L-415.7717457384728,69.94430223481871z" style="fill:rgb(167,41,160)">
    </path>
    <path d="M-415.5670958169022,61.02760999471211L-409.27231072272764,69.21710382230177L-402.80971812220884,66.05956133181981z" style="fill:rgb(167,41,160)">
    </path>
    <path d="M-415.5670958169022,61.02760999471211L-422.1393507905143,65.1631687948758L-415.7717457384728,69.94430223481871z" style="fill:rgb(167,41,160)">
    </path>
    <path d="M-467.8773759080895,85.56044492398125L-415.77174573847276,69.9443022348187" style="fill:none;stroke:rgb(167,41,160);stroke-width:5;stroke-linecap:round">
    </path>
    <path d="M-411.961078358318,78.41066473014604L-409.27231072272764,69.21710382230177L-415.7717457384728,69.94430223481871z" style="fill:rgb(167,41,160)">
    </path>
    <path d="M-409.27231072272764,69.21710382230177L-415.5670958169022,61.02760999471211L-415.7717457384728,69.94430223481871z" style="fill:rgb(167,41,160)">
    </path>
    <path d="M-421.20371089059563,24.125368550754814L-418.9736554591052,34.87622693989376L-414.829647005018,28.896622365006422z" style="fill:rgb(167,41,160)">
    </path>
    <path d="M-408.32349893016976,28.14892129179234L-411.0152279794086,37.36748983423304L-401.8560882081095,25.048758886559202z" style="fill:rgb(167,41,160)">
    </path>
    <path d="M-418.9736554591052,34.87622693989376L-411.0152279794086,37.36748983423304L-414.829647005018,28.896622365006422z" style="fill:rgb(167,41,160)">
    </path>
    <path d="M-414.6246029113677,19.962755864106317L-408.32349893016976,28.14892129179234L-401.8560882081095,25.048758886559202z" style="fill:rgb(167,41,160)">
    </path>
    <path d="M-414.6246029113677,19.962755864106317L-421.20371089059563,24.125368550754814L-414.829647005018,28.896622365006422z" style="fill:rgb(167,41,160)">
    </path>
    <path d="M-466.9818800536197,44.364596573825885L-414.829647005018,28.896622365006397" style="fill:none;stroke:rgb(167,41,160);stroke-width:5;stroke-linecap:round">
    </path>
    <path d="M-411.0152279794086,37.36748983423304L-408.32349893016976,28.14892129179234L-414.829647005018,28.896622365006422z" style="fill:rgb(167,41,160)">
    </path>
    <path d="M-408.32349893016976,28.14892129179234L-414.6246029113677,19.962755864106317L-414.829647005018,28.896622365006422z" style="fill:rgb(167,41,160)">
    </path>
    <path d="M-303.49889264523955,-340.07263549452506L-313.4629993741691,-341.62455337470584L-311.7350086708163,-339.01803924645424z" style="fill:rgb(43,180,168)">
    </path>
    <path d="M-313.4629993741691,-341.62455337470584L-321.04193834747326,-339.5750095645252L-311.7350086708163,-339.01803924645424z" style="fill:rgb(43,180,168)">
    </path>
    <path d="M-303.49889264523955,-340.07263549452506L-304.91099527217415,-337.06097472632547L-312.1882750453535,-320.99522516376305z" style="fill:rgb(43,180,168)">
    </path>
    <path d="M-309.91814064374404,-411.26049203845304L-311.7350086708163,-339.01803924645424" style="fill:none;stroke:rgb(43,180,168);stroke-width:5;stroke-linecap:round">
    </path>
    <path d="M-420.2662688303561,-16.991475666651176L-418.03413570149075,-6.2272016570050885L-413.88573302976494,-12.230148433995513z" style="fill:rgb(167,41,160)">
    </path>
    <path d="M-304.91099527217415,-337.06097472632547L-303.49889264523955,-340.07263549452506L-311.7350086708163,-339.01803924645424z" style="fill:rgb(43,180,168)">
    </path>
    <path d="M-315.76071234560175,-336.75271297411734L-321.04193834747326,-339.5750095645252L-312.1882750453535,-320.99522516376305z" style="fill:rgb(43,180,168)">
    </path>
    <path d="M-407.37285807824156,-12.998429883829079L-410.067554968043,-3.754774338742292L-400.90062265359836,-16.0409851744951z" style="fill:rgb(167,41,160)">
    </path>
    <path d="M-418.03413570149075,-6.2272016570050885L-410.067554968043,-3.754774338742292L-413.88573302976494,-12.230148433995513z" style="fill:rgb(167,41,160)">
    </path>
    <path d="M-413.68029362412693,-21.1812388620114L-407.37285807824156,-12.998429883829079L-400.90062265359836,-16.0409851744951z" style="fill:rgb(167,41,160)">
    </path>
    <path d="M-321.04193834747326,-339.5750095645252L-315.76071234560175,-336.75271297411734L-311.7350086708163,-339.01803924645424z" style="fill:rgb(43,180,168)">
    </path>
    <path d="M-304.91099527217415,-337.06097472632547L-315.76071234560175,-336.75271297411734L-312.1882750453535,-320.99522516376305z" style="fill:rgb(43,180,168)">
    </path>
    <path d="M-413.68029362412693,-21.1812388620114L-420.2662688303561,-16.991475666651176L-413.88573302976494,-12.230148433995513z" style="fill:rgb(167,41,160)">
    </path>
    <path d="M-466.0846518828368,3.089055794314595L-413.88573302976494,-12.230148433995494" style="fill:none;stroke:rgb(167,41,160);stroke-width:5;stroke-linecap:round">
    </path>
    <path d="M-315.76071234560175,-336.75271297411734L-304.91099527217415,-337.06097472632547L-311.7350086708163,-339.01803924645424z" style="fill:rgb(43,180,168)">
    </path>
    <path d="M-410.067554968043,-3.754774338742292L-407.37285807824156,-12.998429883829079L-413.88573302976494,-12.230148433995513z" style="fill:rgb(167,41,160)">
    </path>
    <path d="M-407.37285807824156,-12.998429883829079L-413.68029362412693,-21.1812388620114L-413.88573302976494,-12.230148433995513z" style="fill:rgb(167,41,160)">
    </path>
    <path d="M-419.32701939799483,-58.187592450467704L-417.09280470104255,-47.40987104675323L-412.9399985612254,-53.43623897197702z" style="fill:rgb(167,41,160)">
    </path>
    <path d="M-406.42038287292274,-54.22517884988952L-409.11805405088234,-44.95635661414393L-399.9433161534384,-57.20989900277681z" style="fill:rgb(167,41,160)">
    </path>
    <path d="M-417.09280470104255,-47.40987104675323L-409.11805405088234,-44.95635661414393L-412.9399985612254,-53.43623897197702z" style="fill:rgb(167,41,160)">
    </path>
    <path d="M-412.73416269929197,-62.40460318512257L-406.42038287292274,-54.22517884988952L-399.9433161534384,-57.20989900277681z" style="fill:rgb(167,41,160)">
    </path>
    <path d="M-412.73416269929197,-62.40460318512257L-419.32701939799483,-58.187592450467704L-412.9399985612254,-53.43623897197702z" style="fill:rgb(167,41,160)">
    </path>
    <path d="M-465.18568636418485,-38.26640888321946L-412.93999856122537,-53.436238971977" style="fill:none;stroke:rgb(167,41,160);stroke-width:5;stroke-linecap:round">
    </path>
    <path d="M-509.9032285413373,458.5304303751123L-491.84610940721655,-404.0061191819867L-475.859705036381,452.77467445805183z" style="fill:rgb(0,0,0); fill-opacity: 0.2">
    </path>
    <path d="M-409.11805405088234,-44.95635661414393L-406.42038287292274,-54.22517884988952L-412.9399985612254,-53.43623897197702z" style="fill:rgb(167,41,160)">
    </path>
    <path d="M-406.42038287292274,-54.22517884988952L-412.73416269929197,-62.40460318512257L-412.9399985612254,-53.43623897197702z" style="fill:rgb(167,41,160)">
    </path>
    <path d="M-332.1858099100534,-332.3055711438958L-342.16295510225746,-333.86333286321286L-340.4497512083522,-331.2460354009955z" style="fill:rgb(43,180,168)">
    </path>
    <path d="M-418.3859573615946,-99.46321127611813L-416.14965721503006,-88.67201059567816L-411.9924383276347,-94.72187894217464z" style="fill:rgb(167,41,160)">
    </path>
    <path d="M-342.16295510225746,-333.86333286321286L-349.7753759433201,-331.80473467813096L-340.4497512083522,-331.2460354009955z" style="fill:rgb(43,180,168)">
    </path>
    <path d="M-405.4660679997427,-95.5315556368862L-408.1667199342257,-86.23748670092125L-398.9841633819289,-98.45821162975025z" style="fill:rgb(167,41,160)">
    </path>
    <path d="M-416.14965721503006,-88.67201059567816L-408.1667199342257,-86.23748670092125L-411.9924383276347,-94.72187894217464z" style="fill:rgb(167,41,160)">
    </path>
    <path d="M-332.1858099100534,-332.3055711438958L-333.623317537475,-329.2812258145327L-340.8919716712248,-313.18671794820534z" style="fill:rgb(43,180,168)">
    </path>
    <path d="M-411.7862048606776,-103.7075669910813L-405.4660679997427,-95.5315556368862L-398.9841633819289,-98.45821162975025z" style="fill:rgb(167,41,160)">
    </path>
    <path d="M-411.7862048606776,-103.7075669910813L-418.3859573615946,-99.46321127611813L-411.9924383276347,-94.72187894217464z" style="fill:rgb(167,41,160)">
    </path>
    <path d="M-464.28497844660257,-79.70202982472055L-411.99243832763466,-94.72187894217461" style="fill:none;stroke:rgb(167,41,160);stroke-width:5;stroke-linecap:round">
    </path>
    <path d="M-338.6771512916961,-403.6351428695702L-340.4497512083522,-331.2460354009955" style="fill:none;stroke:rgb(43,180,168);stroke-width:5;stroke-linecap:round">
    </path>
    <path d="M-491.84610940721655,-404.0061191819867L18.54547430245516,-537.7487136408191L-484.40105979631363,-364.99696792660944z" style="fill:rgb(0,0,0); fill-opacity: 0.2">
    </path>
    <path d="M-333.623317537475,-329.2812258145327L-332.1858099100534,-332.3055711438958L-340.4497512083522,-331.2460354009955z" style="fill:rgb(43,180,168)">
    </path>
    <path d="M-344.5018259870517,-328.970974800539L-349.7753759433201,-331.80473467813096L-340.8919716712248,-313.18671794820534z" style="fill:rgb(43,180,168)">
    </path>
    <path d="M-349.7753759433201,-331.80473467813096L-344.5018259870517,-328.970974800539L-340.4497512083522,-331.2460354009955z" style="fill:rgb(43,180,168)">
    </path>
    <path d="M-408.1667199342257,-86.23748670092125L-405.4660679997427,-95.5315556368862L-411.9924383276347,-94.72187894217464z" style="fill:rgb(167,41,160)">
    </path>
    <path d="M-333.623317537475,-329.2812258145327L-344.5018259870517,-328.970974800539L-340.8919716712248,-313.18671794820534z" style="fill:rgb(43,180,168)">
    </path>
    <path d="M-405.4660679997427,-95.5315556368862L-411.7862048606776,-103.7075669910813L-411.9924383276347,-94.72187894217464z" style="fill:rgb(167,41,160)">
    </path>
    <path d="M-344.5018259870517,-328.970974800539L-333.623317537475,-329.2812258145327L-340.4497512083522,-331.2460354009955z" style="fill:rgb(43,180,168)">
    </path>
    <path d="M-417.44307746902575,-140.8185625055842L-415.2046879804696,-130.01385055617826L-411.04304703685386,-136.0872989255393z" style="fill:rgb(167,41,160)">
    </path>
    <path d="M-404.5099081236816,-136.91779116476448L-407.21354730391135,-127.59839519587788L-398.02315899280694,-139.78615297115735z" style="fill:rgb(167,41,160)">
    </path>
    <path d="M-415.2046879804696,-130.01385055617826L-407.21354730391135,-127.59839519587788L-411.04304703685386,-136.0872989255393z" style="fill:rgb(167,41,160)">
    </path>
    <path d="M-410.8364148117025,-145.09036105438705L-404.5099081236816,-136.91779116476448L-398.02315899280694,-139.78615297115735z" style="fill:rgb(167,41,160)">
    </path>
    <path d="M-410.8364148117025,-145.09036105438705L-417.44307746902575,-140.8185625055842L-411.04304703685386,-136.0872989255393z" style="fill:rgb(167,41,160)">
    </path>
    <path d="M-463.3825230594301,-121.2180402977625L-411.0430470368539,-136.0872989255393" style="fill:none;stroke:rgb(167,41,160);stroke-width:5;stroke-linecap:round">
    </path>
    <path d="M-407.21354730391135,-127.59839519587788L-404.5099081236816,-136.91779116476448L-411.04304703685386,-136.0872989255393z" style="fill:rgb(167,41,160)">
    </path>
    <path d="M-404.5099081236816,-136.91779116476448L-410.8364148117025,-145.09036105438705L-411.04304703685386,-136.0872989255393z" style="fill:rgb(167,41,160)">
    </path>
    <path d="M-416.4983744478473,-182.25387739169184L-414.2578917140261,-171.43562207100564L-410.09181937627153,-177.5327303950291z" style="fill:rgb(167,41,160)">
    </path>
    <path d="M-403.55189788907103,-178.38411724722155L-406.25853082521763,-169.03931358796552L-397.06029761914823,-181.19395383128946z" style="fill:rgb(167,41,160)">
    </path>
    <path d="M-414.2578917140261,-171.43562207100564L-406.25853082521763,-169.03931358796552L-410.09181937627153,-177.5327303950291z" style="fill:rgb(167,41,160)">
    </path>
    <path d="M-409.8847872352914,-186.55321704248294L-403.55189788907103,-178.38411724722155L-397.06029761914823,-181.19395383128946z" style="fill:rgb(167,41,160)">
    </path>
    <path d="M-360.9996016428107,-324.5041551706133L-370.9898033177572,-326.06779729613623L-369.29153407626995,-323.43964650280776z" style="fill:rgb(43,180,168)">
    </path>
    <path d="M-409.8847872352914,-186.55321704248294L-416.4983744478473,-182.25387739169184L-410.09181937627153,-177.5327303950291z" style="fill:rgb(167,41,160)">
    </path>
    <path d="M-462.47831511231277,-162.81467447592595L-410.0918193762715,-177.53273039502906" style="fill:none;stroke:rgb(167,41,160);stroke-width:5;stroke-linecap:round">
    </path>
    <path d="M-370.9898033177572,-326.06779729613623L-378.63592838951524,-324.0000846033849L-369.29153407626995,-323.43964650280776z" style="fill:rgb(43,180,168)">
    </path>
    <path d="M-360.9996016428107,-324.5041551706133L-362.46272550424845,-321.4670423892721L-369.7226063666946,-305.34367870545594z" style="fill:rgb(43,180,168)">
    </path>
    <path d="M-406.25853082521763,-169.03931358796552L-403.55189788907103,-178.38411724722155L-410.09181937627153,-177.5327303950291z" style="fill:rgb(167,41,160)">
    </path>
    <path d="M-403.55189788907103,-178.38411724722155L-409.8847872352914,-186.55321704248294L-410.09181937627153,-177.5327303950291z" style="fill:rgb(167,41,160)">
    </path>
    <path d="M-367.56361254916345,-395.9760006258407L-369.29153407626995,-323.43964650280776" style="fill:none;stroke:rgb(43,180,168);stroke-width:5;stroke-linecap:round">
    </path>
    <path d="M-362.46272550424845,-321.4670423892721L-360.9996016428107,-324.5041551706133L-369.29153407626995,-323.43964650280776z" style="fill:rgb(43,180,168)">
    </path>
    <path d="M-373.3701742083924,-321.15478750297433L-378.63592838951524,-324.0000846033849L-369.7226063666946,-305.34367870545594z" style="fill:rgb(43,180,168)">
    </path>
    <path d="M-378.63592838951524,-324.0000846033849L-373.3701742083924,-321.15478750297433L-369.29153407626995,-323.43964650280776z" style="fill:rgb(43,180,168)">
    </path>
    <path d="M-362.46272550424845,-321.4670423892721L-373.3701742083924,-321.15478750297433L-369.7226063666946,-305.34367870545594z" style="fill:rgb(43,180,168)">
    </path>
    <path d="M-373.3701742083924,-321.15478750297433L-362.46272550424845,-321.4670423892721L-369.29153407626995,-323.43964650280776z" style="fill:rgb(43,180,168)">
    </path>
    <path d="M-415.55184300520955,-223.7693880824219L-413.3092631119149,-212.93755717757386L-409.1387500127041,-219.0584057199267z" style="fill:rgb(167,41,160)">
    </path>
    <path d="M-402.59203191949393,-219.93076659603423L-405.30166514276345,-210.56047426260244L-396.09557387326686,-222.68184590728407z" style="fill:rgb(167,41,160)">
    </path>
    <path d="M-413.3092631119149,-212.93755717757386L-405.30166514276345,-210.56047426260244L-409.1387500127041,-219.0584057199267z" style="fill:rgb(167,41,160)">
    </path>
    <path d="M-408.93131679377564,-228.0963675200787L-402.59203191949393,-219.93076659603423L-396.09557387326686,-222.68184590728407z" style="fill:rgb(167,41,160)">
    </path>
    <path d="M-408.93131679377564,-228.0963675200787L-415.55184300520955,-223.7693880824219L-409.1387500127041,-219.0584057199267z" style="fill:rgb(167,41,160)">
    </path>
    <path d="M-461.5723494951063,-204.49216744320134L-409.13875001270407,-219.05840571992667" style="fill:none;stroke:rgb(167,41,160);stroke-width:5;stroke-linecap:round">
    </path>
    <path d="M-405.30166514276345,-210.56047426260244L-402.59203191949393,-219.93076659603423L-409.1387500127041,-219.0584057199267z" style="fill:rgb(167,41,160)">
    </path>
    <path d="M-402.59203191949393,-219.93076659603423L-408.93131679377564,-228.0963675200787L-409.1387500127041,-219.0584057199267z" style="fill:rgb(167,41,160)">
    </path>
    <path d="M-509.9032285413373,458.5304303751123L-491.84610940721655,-404.0061191819867L-632.9325915276765,-444.34584225505716z" style="fill:rgb(0,0,0); fill-opacity: 0.2">
    </path>
    <path d="M-414.60347782775483,-265.365327625245L-412.35879684980273,-254.51988881229113L-408.1838335922965,-260.6645581701825z" style="fill:rgb(167,41,160)">
    </path>
    <path d="M-401.63030481768396,-261.5579728254125L-404.3429448804087,-252.1621105060177L-395.128982346615,-264.2500617934465z" style="fill:rgb(167,41,160)">
    </path>
    <path d="M-412.35879684980273,-254.51988881229113L-404.3429448804087,-252.1621105060177L-408.1838335922965,-260.6645581701825z" style="fill:rgb(167,41,160)">
    </path>
    <path d="M-407.9759981287932,-269.72004595349915L-401.63030481768396,-261.5579728254125L-395.128982346615,-264.2500617934465z" style="fill:rgb(167,41,160)">
    </path>
    <path d="M-407.9759981287932,-269.72004595349915L-414.60347782775483,-265.365327625245L-408.1838335922965,-260.6645581701825z" style="fill:rgb(167,41,160)">
    </path>
    <path d="M-460.6646210777797,-246.25075519841792L-408.1838335922965,-260.6645581701825" style="fill:none;stroke:rgb(167,41,160);stroke-width:5;stroke-linecap:round">
    </path>
    <path d="M-491.84610940721655,-404.0061191819867L-632.9325915276765,-444.34584225505716" style="fill:none;stroke:rgb(0,0,0);stroke-width:1;stroke-linecap:round">
    </path>
    <path d="M-491.84610940721655,-404.0061191819867L-632.9325915276765,-444.34584225505716" style="fill:none;stroke:rgb(0,0,0);stroke-width:1;stroke-linecap:round">
    </path>
    <path d="M-404.3429448804087,-252.1621105060177L-401.63030481768396,-261.5579728254125L-408.1838335922965,-260.6645581701825z" style="fill:rgb(167,41,160)">
    </path>
    <path d="M-389.9411114060655,-316.66815917771925L-399.94438743892994,-318.23771859106483L-398.26120222519654,-315.5986438554465z" style="fill:rgb(43,180,168)">
    </path>
    <path d="M-401.63030481768396,-261.5579728254125L-407.9759981287932,-269.72004595349915L-408.1838335922965,-260.6645581701825z" style="fill:rgb(167,41,160)">
    </path>
    <path d="M-399.94438743892994,-318.23771859106483L-407.624441077725,-316.16083072421543L-398.26120222519654,-315.5986438554465z" style="fill:rgb(43,180,168)">
    </path>
    <path d="M-389.9411114060655,-316.66815917771925L-391.4300647988625,-313.618195323803L-398.6810230465046,-297.46587785831315z" style="fill:rgb(43,180,168)">
    </path>
    <path d="M-396.5783735272981,-388.28284016846914L-398.26120222519654,-315.5986438554465" style="fill:none;stroke:rgb(43,180,168);stroke-width:5;stroke-linecap:round">
    </path>
    <path d="M-391.4300647988625,-313.618195323803L-389.9411114060655,-316.66815917771925L-398.26120222519654,-315.5986438554465z" style="fill:rgb(43,180,168)">
    </path>
    <path d="M-402.36660376964704,-313.3039218187415L-407.624441077725,-316.16083072421543L-398.6810230465046,-297.46587785831315z" style="fill:rgb(43,180,168)">
    </path>
    <path d="M-413.65327358151796,-307.0419299714828L-411.40648758270765,-296.1828508149177L-407.2270647404222,-302.351421920782z" style="fill:rgb(167,41,160)">
    </path>
    <path d="M-407.624441077725,-316.16083072421543L-402.36660376964704,-313.3039218187415L-398.26120222519654,-315.5986438554465z" style="fill:rgb(43,180,168)">
    </path>
    <path d="M-391.4300647988625,-313.618195323803L-402.36660376964704,-313.3039218187415L-398.6810230465046,-297.46587785831315z" style="fill:rgb(43,180,168)">
    </path>
    <path d="M-400.66671116542443,-303.2659704563781L-403.3823646411529,-293.84445650961965L-394.1605176096818,-305.89883498559595z" style="fill:rgb(167,41,160)">
    </path>
    <path d="M-411.40648758270765,-296.1828508149177L-403.3823646411529,-293.84445650961965L-407.2270647404222,-302.351421920782z" style="fill:rgb(167,41,160)">
    </path>
    <path d="M-407.0188258611883,-311.4244867150569L-400.66671116542443,-303.2659704563781L-394.1605176096818,-305.89883498559595z" style="fill:rgb(167,41,160)">
    </path>
    <path d="M-402.36660376964704,-313.3039218187415L-391.4300647988625,-313.618195323803L-398.26120222519654,-315.5986438554465z" style="fill:rgb(43,180,168)">
    </path>
    <path d="M-407.0188258611883,-311.4244867150569L-413.65327358151796,-307.0419299714828L-407.2270647404222,-302.351421920782z" style="fill:rgb(167,41,160)">
    </path>
    <path d="M-459.7551247103191,-288.0906746596973L-407.22706474042224,-302.351421920782" style="fill:none;stroke:rgb(167,41,160);stroke-width:5;stroke-linecap:round">
    </path>
    <path d="M-403.3823646411529,-293.84445650961965L-400.66671116542443,-303.2659704563781L-407.2270647404222,-302.351421920782z" style="fill:rgb(167,41,160)">
    </path>
    <path d="M-400.66671116542443,-303.2659704563781L-407.0188258611883,-311.4244867150569L-407.2270647404222,-302.351421920782z" style="fill:rgb(167,41,160)">
    </path>
    <path d="M-475.859705036381,452.77467445805183L-457.93080742443834,-372.01546099630656L-491.84610940721655,-404.0061191819867z" style="fill:rgb(0,0,0); fill-opacity: 0.2">
    </path>
    <path d="M-412.7012249118265,-348.7994299806936L-410.4523299448996,-337.92667793294976L-406.2684380615817,-344.1192320561399z" style="fill:rgb(167,41,160)">
    </path>
    <path d="M-399.70124552344663,-345.05499492116843L-402.4199190070341,-335.6077473743907L-393.1901742118916,-347.6283998854383z" style="fill:rgb(167,41,160)">
    </path>
    <path d="M-410.4523299448996,-337.92667793294976L-402.4199190070341,-335.6077473743907L-406.2684380615817,-344.1192320561399z" style="fill:rgb(167,41,160)">
    </path>
    <path d="M-406.0597945909108,-353.2099250874527L-399.70124552344663,-345.05499492116843L-393.1901742118916,-347.6283998854383z" style="fill:rgb(167,41,160)">
    </path>
    <path d="M-406.0597945909108,-353.2099250874527L-412.7012249118265,-348.7994299806936L-406.2684380615817,-344.1192320561399z" style="fill:rgb(167,41,160)">
    </path>
    <path d="M-458.84385522262954,-330.01216366893505L-406.2684380615817,-344.1192320561399" style="fill:none;stroke:rgb(167,41,160);stroke-width:5;stroke-linecap:round">
    </path>
    <path d="M-402.4199190070341,-335.6077473743907L-399.70124552344663,-345.05499492116843L-406.2684380615817,-344.1192320561399z" style="fill:rgb(167,41,160)">
    </path>
    <path d="M-399.70124552344663,-345.05499492116843L-406.0597945909108,-353.2099250874527L-406.2684380615817,-344.1192320561399z" style="fill:rgb(167,41,160)">
    </path>
    <path d="M-419.01119025721704,-308.79735273900496L-429.0275583752493,-310.37286663976687L-427.35960811547824,-307.7227967298677z" style="fill:rgb(43,180,168)">
    </path>
    <path d="M-429.0275583752493,-310.37286663976687L-436.741766912768,-308.286742392797L-427.35960811547824,-307.7227967298677z" style="fill:rgb(43,180,168)">
    </path>
    <path d="M-411.74732644320056,-390.6380634250849L-409.4963185497988,-379.75160582602786L-405.3079481393019,-385.9682245745185z" style="fill:rgb(167,41,160)">
    </path>
    <path d="M-419.01119025721704,-308.79735273900496L-420.5261885667424,-305.7344534540583L-427.7680731227415,-289.5530837900095z" style="fill:rgb(43,180,168)">
    </path>
    <path d="M-398.7339024313273,-386.9252825676667L-401.4556025390273,-377.4522191153079L-392.2179466815018,-389.43899180496277z" style="fill:rgb(167,41,160)">
    </path>
    <path d="M-425.72229089672385,-380.55543435429297L-427.35960811547824,-307.7227967298677" style="fill:none;stroke:rgb(43,180,168);stroke-width:5;stroke-linecap:round">
    </path>
    <path d="M-409.4963185497988,-379.75160582602786L-401.4556025390273,-377.4522191153079L-405.3079481393019,-385.9682245745185z" style="fill:rgb(167,41,160)">
    </path>
    <path d="M-405.0988988969143,-395.07659726819844L-398.7339024313273,-386.9252825676667L-392.2179466815018,-389.43899180496277z" style="fill:rgb(167,41,160)">
    </path>
    <path d="M-420.5261885667424,-305.7344534540583L-419.01119025721704,-308.79735273900496L-427.35960811547824,-307.7227967298677z" style="fill:rgb(43,180,168)">
    </path>
    <path d="M-431.49196896125164,-305.41814644627794L-436.741766912768,-308.286742392797L-427.7680731227415,-289.5530837900095z" style="fill:rgb(43,180,168)">
    </path>
    <path d="M-405.0988988969143,-395.07659726819844L-411.74732644320056,-390.6380634250849L-405.3079481393019,-385.9682245745185z" style="fill:rgb(167,41,160)">
    </path>
    <path d="M-457.93080742443834,-372.01546099630656L-405.30794813930186,-385.96822457451844" style="fill:none;stroke:rgb(167,41,160);stroke-width:5;stroke-linecap:round">
    </path>
    <path d="M-436.741766912768,-308.286742392797L-431.49196896125164,-305.41814644627794L-427.35960811547824,-307.7227967298677z" style="fill:rgb(43,180,168)">
    </path>
    <path d="M-420.5261885667424,-305.7344534540583L-431.49196896125164,-305.41814644627794L-427.7680731227415,-289.5530837900095z" style="fill:rgb(43,180,168)">
    </path>
    <path d="M-401.4556025390273,-377.4522191153079L-398.7339024313273,-386.9252825676667L-405.3079481393019,-385.9682245745185z" style="fill:rgb(167,41,160)">
    </path>
    <path d="M-431.49196896125164,-305.41814644627794L-420.5261885667424,-305.7344534540583L-427.35960811547824,-307.7227967298677z" style="fill:rgb(43,180,168)">
    </path>
    <path d="M-398.7339024313273,-386.9252825676667L-405.0988988969143,-395.07659726819844L-405.3079481393019,-385.9682245745185z" style="fill:rgb(167,41,160)">
    </path>
    <path d="M-448.21069683193275,-300.89150337642417L-458.2401746107572,-302.47300928564886L-456.58761180079745,-299.81187234179646z" style="fill:rgb(43,180,168)">
    </path>
    <path d="M-458.2401746107572,-302.47300928564886L-465.98876639626536,-300.37758690693016L-456.58761180079745,-299.81187234179646z" style="fill:rgb(43,180,168)">
    </path>
    <path d="M-448.21069683193275,-300.89150337642417L-449.7519575561288,-297.81558355594956L-456.98461558828006,-281.6050628215123z" style="fill:rgb(43,180,168)">
    </path>
    <path d="M-454.99622897184975,-372.79355401342724L-456.58761180079745,-299.81187234179646" style="fill:none;stroke:rgb(43,180,168);stroke-width:5;stroke-linecap:round">
    </path>
    <path d="M-449.7519575561288,-297.81558355594956L-448.21069683193275,-300.89150337642417L-456.58761180079745,-299.81187234179646z" style="fill:rgb(43,180,168)">
    </path>
    <path d="M-460.7471316879529,-297.4972280224248L-465.98876639626536,-300.37758690693016L-456.98461558828006,-281.6050628215123z" style="fill:rgb(43,180,168)">
    </path>
    <path d="M-465.98876639626536,-300.37758690693016L-460.7471316879529,-297.4972280224248L-456.58761180079745,-299.81187234179646z" style="fill:rgb(43,180,168)">
    </path>
    <path d="M-449.7519575561288,-297.81558355594956L-460.7471316879529,-297.4972280224248L-456.98461558828006,-281.6050628215123z" style="fill:rgb(43,180,168)">
    </path>
    <path d="M-460.7471316879529,-297.4972280224248L-449.7519575561288,-297.81558355594956L-456.58761180079745,-299.81187234179646z" style="fill:rgb(43,180,168)">
    </path>
    <path d="M-464.32590757115304,-296.5282642845403L-474.3626030988781,-298.1130819093631L-472.7185689624821,-295.4458272369984z" style="fill:rgb(74,87,214)">
    </path>
    <path d="M-474.3626030988781,-298.1130819093631L-482.13020374288556,-296.01251903691383L-472.7185689624821,-295.4458272369984z" style="fill:rgb(74,87,214)">
    </path>
    <path d="M-464.32590757115304,-296.5282642845403L-465.8817061053207,-293.44514662076926L-473.10922376146146,-277.21855048794623z" style="fill:rgb(74,87,214)">
    </path>
    <path d="M-471.15263187374165,-368.50974136951584L-472.71856896248204,-295.4458272369984" style="fill:none;stroke:rgb(74,87,214);stroke-width:5;stroke-linecap:round">
    </path>
    <path d="M-465.8817061053207,-293.44514662076926L-464.32590757115304,-296.5282642845403L-472.7185689624821,-295.4458272369984z" style="fill:rgb(74,87,214)">
    </path>
    <path d="M-476.89311213909014,-293.1256579436208L-482.13020374288556,-296.01251903691383L-473.10922376146146,-277.21855048794623z" style="fill:rgb(74,87,214)">
    </path>
    <path d="M-482.13020374288556,-296.01251903691383L-476.89311213909014,-293.1256579436208L-472.7185689624821,-295.4458272369984z" style="fill:rgb(74,87,214)">
    </path>
    <path d="M-465.8817061053207,-293.44514662076926L-476.89311213909014,-293.1256579436208L-473.10922376146146,-277.21855048794623z" style="fill:rgb(74,87,214)">
    </path>
    <path d="M-476.89311213909014,-293.1256579436208L-465.8817061053207,-293.44514662076926L-472.7185689624821,-295.4458272369984z" style="fill:rgb(74,87,214)">
    </path>
    <path d="M-477.54049742868693,-292.9503765372036L-487.5831022885354,-294.5379123009123L-485.94608101290754,-291.8656358287916z" style="fill:rgb(43,180,168)">
    </path>
    <path d="M-457.93080742443834,-372.01546099630656L-484.40105979631363,-364.99696792660944" style="fill:none;stroke:rgb(10,15,55);stroke-width:5;stroke-linecap:round">
    </path>
    <path d="M-457.93080742443834,-372.01546099630656L-491.84610940721655,-404.0061191819867" style="fill:none;stroke:rgb(0,0,0);stroke-width:1;stroke-linecap:round">
    </path>
    <path d="M-457.93080742443834,-372.01546099630656L-491.84610940721655,-404.0061191819867" style="fill:none;stroke:rgb(0,0,0);stroke-width:1;stroke-linecap:round">
    </path>
    <path d="M-487.5831022885354,-294.5379123009123L-495.36630771140955,-292.43312948711656L-485.94608101290754,-291.8656358287916z" style="fill:rgb(43,180,168)">
    </path>
    <path d="M-477.54049742868693,-292.9503765372036L-479.10824020295775,-289.86135032236825L-486.3315171013446,-273.62157918852z" style="fill:rgb(43,180,168)">
    </path>
    <path d="M-484.4010597963134,-364.99696792660944L-485.9460810129075,-291.8656358287916" style="fill:none;stroke:rgb(43,180,168);stroke-width:5;stroke-linecap:round">
    </path>
    <path d="M-479.10824020295775,-289.86135032236825L-477.54049742868693,-292.9503765372036L-485.94608101290754,-291.8656358287916z" style="fill:rgb(43,180,168)">
    </path>
    <path d="M-490.1329615538307,-289.5409310994066L-495.36630771140955,-292.43312948711656L-486.3315171013446,-273.62157918852z" style="fill:rgb(43,180,168)">
    </path>
    <path d="M-495.36630771140955,-292.43312948711656L-490.1329615538307,-289.5409310994066L-485.94608101290754,-291.8656358287916z" style="fill:rgb(43,180,168)">
    </path>
    <path d="M-479.10824020295775,-289.86135032236825L-490.1329615538307,-289.5409310994066L-486.3315171013446,-273.62157918852z" style="fill:rgb(43,180,168)">
    </path>
    <path d="M-490.1329615538307,-289.5409310994066L-479.10824020295775,-289.86135032236825L-485.94608101290754,-291.8656358287916z" style="fill:rgb(43,180,168)">
    </path>
    <path d="M-457.93080742443834,-372.01546099630656L-484.40105979631363,-364.99696792660944L-491.84610940721655,-404.0061191819867z" style="fill:rgb(0,0,0); fill-opacity: 0.2">
    </path>
    <path d="M-491.84610940721655,-404.0061191819867L-491.84610940721655,-404.0061191819867L-457.93080742443834,-372.01546099630656z" style="fill:rgb(0,0,0); fill-opacity: 0.2">
    </path>
    <path d="M-484.40105979631363,-364.99696792660944L-491.84610940721655,-404.0061191819867" style="fill:none;stroke:rgb(0,0,0);stroke-width:1;stroke-linecap:round">
    </path>
    <path d="M-484.40105979631363,-364.99696792660944L-491.84610940721655,-404.0061191819867" style="fill:none;stroke:rgb(0,0,0);stroke-width:1;stroke-linecap:round">
    </path>
    <path d="M-491.84610940721655,-404.0061191819867L-491.84610940721655,-404.0061191819867" style="fill:none;stroke:rgb(0,0,0);stroke-width:1;stroke-linecap:round">
    </path>
</svg>