<svg viewBox="-1163.5 -664 2327 1328" width="2327" height="1328" style="background-color: rgb(255, 255, 255);">
    <path d="M-206.08193300170979,93.44549521471308L-214.64785139447844,-651.4793756482011" style="fill:none;stroke:rgb(0,0,0);stroke-width:1;stroke-linecap:round">
    </path>
    <path d="M-25.097551727696384,166.97106285948115L-206.08193300170979,93.44549521471308" style="fill:none;stroke:rgb(160,0,0);stroke-width:4;stroke-linecap:round">
    </path>
    <path d="M-25.097551727696384,166.97106285948115L-20.38362733751045,-612.1083758546596" style="fill:none;stroke:rgb(0,0,0);stroke-width:1;stroke-linecap:round">
    </path>
    <path d="M-57.35829604146625,184.8614434580191L-25.097551727696384,166.97106285948115" style="fill:none;stroke:rgb(160,0,0);stroke-width:4;stroke-linecap:round">
    </path>
    <path d="M-20.38362733751045,-612.1083758546596L-25.097551727696384,166.97106285948115L-206.08193300170979,93.44549521471308z" style="fill:rgb(0,0,0); fill-opacity: 0.2">
    </path>
    <path d="M-55.234642581512354,-544.2217415498205L-57.35829604146625,184.8614434580191" style="fill:none;stroke:rgb(104,70,1);stroke-width:5;stroke-linecap:round">
    </path>
    <path d="M-57.35829604146625,184.8614434580191L-143.31817002221607,213.70986627157592" style="fill:none;stroke:rgb(197,147,42);stroke-width:5;stroke-linecap:round">
    </path>
    <path d="M-214.64785139447844,-651.4793756482011L-206.08193300170979,93.44549521471308L-20.38362733751045,-612.1083758546596z" style="fill:rgb(0,0,0); fill-opacity: 0.2">
    </path>
    <path d="M-57.19216092040846,127.82467852128438L-143.63652451465688,155.74057641304927" style="fill:none;stroke:rgb(197,147,42);stroke-width:5;stroke-linecap:round">
    </path>
    <path d="M-20.38362733751045,-612.1083758546596L-214.64785139447844,-651.4793756482011" style="fill:none;stroke:rgb(0,0,0);stroke-width:1;stroke-linecap:round">
    </path>
    <path d="M-214.64785139447844,-651.4793756482011L-925.7032034546347,-548.6530417973316" style="fill:none;stroke:rgb(0,0,0);stroke-width:1;stroke-linecap:round">
    </path>
    <path d="M-20.38362733751045,-612.1083758546596L-214.64785139447844,-651.4793756482011" style="fill:none;stroke:rgb(0,0,0);stroke-width:1;stroke-linecap:round">
    </path>
    <path d="M-57.024165899381074,70.14938106538015L-143.95851190654056,97.10977052182815" style="fill:none;stroke:rgb(197,147,42);stroke-width:5;stroke-linecap:round">
    </path>
    <path d="M-56.854279569913004,11.824768074811685L-144.2841947399154,37.80606029270624" style="fill:none;stroke:rgb(197,147,42);stroke-width:5;stroke-linecap:round">
    </path>
    <path d="M-55.234642581512354,-544.2217415498205L-57.35829604146625,184.8614434580191L-25.097551727696384,166.97106285948115z" style="fill:rgb(0,0,0); fill-opacity: 0.2">
    </path>
    <path d="M-143.38913095969784,200.78856234405632L-152.34925732852523,205.84016968413587L-165.32396162861147,221.09508394593513z" style="fill:rgb(197,147,42)">
    </path>
    <path d="M-137.67874779243098,226.5654322683616L-134.28697066483124,213.61965042493244L-165.32396162861147,221.09508394593513z" style="fill:rgb(197,147,42)">
    </path>
    <path d="M-134.28697066483124,213.61965042493244L-143.38913095969784,200.78856234405632L-165.32396162861147,221.09508394593513z" style="fill:rgb(197,147,42)">
    </path>
    <path d="M-56.68246981232884,-47.1601876333569L-144.61363700070237,-22.182205494864984" style="fill:none;stroke:rgb(197,147,42);stroke-width:5;stroke-linecap:round">
    </path>
    <path d="M-143.70829342705096,142.67214802835852L-152.71809153661417,147.9450609095574L-165.7693029825129,162.88802198474448z" style="fill:rgb(197,147,42)">
    </path>
    <path d="M-137.96524625266963,168.64107018768942L-134.5548478771539,155.48489218756015L-165.7693029825129,162.88802198474448z" style="fill:rgb(197,147,42)">
    </path>
    <path d="M-134.5548478771539,155.48489218756015L-143.70829342705096,142.67214802835852L-165.7693029825129,162.88802198474448z" style="fill:rgb(197,147,42)">
    </path>
    <path d="M-56.5087037755041,-106.81676435991835L-144.94690416060456,-82.86694860804242" style="fill:none;stroke:rgb(197,147,42);stroke-width:5;stroke-linecap:round">
    </path>
    <path d="M-144.03110267246052,83.89169051796728L-153.09112602277406,89.39064356091413L-166.21975102170828,104.0135053964036z" style="fill:rgb(197,147,42)">
    </path>
    <path d="M-138.25501567807333,110.05538318953614L-134.82579071619352,96.6848311180002L-166.21975102170828,104.0135053964036z" style="fill:rgb(197,147,42)">
    </path>
    <path d="M-134.82579071619352,96.6848311180002L-144.03110267246052,83.89169051796728L-166.21975102170828,104.0135053964036z" style="fill:rgb(197,147,42)">
    </path>
    <path d="M-56.33294785592458,-167.1564987127162L-145.2840632204845,-144.26036925921198" style="fill:none;stroke:rgb(197,147,42);stroke-width:5;stroke-linecap:round">
    </path>
    <path d="M-144.35762155766238,24.435743295656916L-153.46843294693238,30.16559085029895L-166.67539408949293,44.45998752435598z" style="fill:rgb(197,147,42)">
    </path>
    <path d="M-138.5481124073767,50.79698068822962L-135.09985211004172,37.20798075279504L-166.67539408949293,44.45998752435598z" style="fill:rgb(197,147,42)">
    </path>
    <path d="M-135.09985211004172,37.20798075279504L-144.35762155766238,24.435743295656916L-166.67539408949293,44.45998752435598z" style="fill:rgb(197,147,42)">
    </path>
    <path d="M-56.15516767602236,-228.1911930442423L-145.62518275527037,-206.3749542829552" style="fill:none;stroke:rgb(197,147,42);stroke-width:5;stroke-linecap:round">
    </path>
    <path d="M-20.38362733751045,-612.1083758546596L-25.097551727696384,166.97106285948115L-55.234642581512354,-544.2217415498205z" style="fill:rgb(0,0,0); fill-opacity: 0.2">
    </path>
    <path d="M-144.68791439752312,-35.70740475695287L-153.85008613146056,-29.7416849604521L-167.13632257871186,-15.784346168453414z" style="fill:rgb(197,147,42)">
    </path>
    <path d="M-138.84459408061457,-9.145790999303557L-135.37708621224837,-22.957411320672154L-167.13632257871186,-15.784346168453414z" style="fill:rgb(197,147,42)">
    </path>
    <path d="M-135.37708621224837,-22.957411320672154L-144.68791439752312,-35.70740475695287L-167.13632257871186,-15.784346168453414z" style="fill:rgb(197,147,42)">
    </path>
    <path d="M-55.97532806175895,-289.93292314770923L-145.97033296045376,-269.223485602873" style="fill:none;stroke:rgb(197,147,42);stroke-width:5;stroke-linecap:round">
    </path>
    <path d="M2.1952136511812745,-438.9989289550957L-13.07359223620929,-440.99800825949114L-11.327950008811849,-437.7000543219482z" style="fill:rgb(43,180,168)">
    </path>
    <path d="M-13.07359223620929,-440.99800825949114L-25.944480848483035,-438.44422437206634L-11.327950008811849,-437.7000543219482z" style="fill:rgb(43,180,168)">
    </path>
    <path d="M2.1952136511812745,-438.9989289550957L-1.1788195455091637,-435.18766806908866L-11.524810062251921,-409.50013993135394z" style="fill:rgb(43,180,168)">
    </path>
    <path d="M-18.63880749149846,-434.8415317397216L-25.944480848483035,-438.44422437206634L-11.524810062251921,-409.50013993135394z" style="fill:rgb(43,180,168)">
    </path>
    <path d="M-10.53016054341394,-551.982227026877L-11.327950008811866,-437.7000543219482" style="fill:none;stroke:rgb(43,180,168);stroke-width:5;stroke-linecap:round">
    </path>
    <path d="M-1.1788195455091637,-435.18766806908866L2.1952136511812745,-438.9989289550957L-11.327950008811849,-437.7000543219482z" style="fill:rgb(43,180,168)">
    </path>
    <path d="M-145.02204700227313,-96.54973704958967L-154.2361611093266,-90.34304011811493L-167.6026289915429,-76.73158591337605z" style="fill:rgb(197,147,42)">
    </path>
    <path d="M-25.944480848483035,-438.44422437206634L-18.63880749149846,-434.8415317397216L-11.327950008811849,-437.7000543219482z" style="fill:rgb(43,180,168)">
    </path>
    <path d="M-1.1788195455091637,-435.18766806908866L-18.63880749149846,-434.8415317397216L-11.524810062251921,-409.50013993135394z" style="fill:rgb(43,180,168)">
    </path>
    <path d="M-18.63880749149846,-434.8415317397216L-1.1788195455091637,-435.18766806908866L-11.327950008811849,-437.7000543219482z" style="fill:rgb(43,180,168)">
    </path>
    <path d="M-139.14451967691215,-69.78485629386847L-135.65754843749485,-83.82337120597917L-167.6026289915429,-76.73158591337605z" style="fill:rgb(197,147,42)">
    </path>
    <path d="M-135.65754843749485,-83.82337120597917L-145.02204700227313,-96.54973704958967L-167.6026289915429,-76.73158591337605z" style="fill:rgb(197,147,42)">
    </path>
    <path d="M-55.793393019424656,-352.39404622213874L-146.31958570024568,-332.8190490003252" style="fill:none;stroke:rgb(197,147,42);stroke-width:5;stroke-linecap:round">
    </path>
    <path d="M-19.716265001118963,-434.6265267332707L-35.015325487313476,-436.6444281356288L-33.33989603982194,-433.3145242909511z" style="fill:rgb(109,213,75)">
    </path>
    <path d="M-35.015325487313476,-436.6444281356288L-48.013530985377095,-434.0653826037813L-33.33989603982194,-433.3145242909511z" style="fill:rgb(109,213,75)">
    </path>
    <path d="M-19.716265001118963,-434.6265267332707L-23.19883850648128,-430.77805052922554L-33.48033566470627,-404.9869788114889z" style="fill:rgb(109,213,75)">
    </path>
    <path d="M-40.75698539663195,-430.42788299653296L-48.013530985377095,-434.0653826037813L-33.48033566470627,-404.9869788114889z" style="fill:rgb(109,213,75)">
    </path>
    <path d="M-32.77071751168842,-548.1213721084183L-33.33989603982195,-433.31452429095106" style="fill:none;stroke:rgb(109,213,75);stroke-width:5;stroke-linecap:round">
    </path>
    <path d="M-23.19883850648128,-430.77805052922554L-19.716265001118963,-434.6265267332707L-33.33989603982194,-433.3145242909511z" style="fill:rgb(109,213,75)">
    </path>
    <path d="M-48.013530985377095,-434.0653826037813L-40.75698539663195,-430.42788299653296L-33.33989603982194,-433.3145242909511z" style="fill:rgb(109,213,75)">
    </path>
    <path d="M-23.19883850648128,-430.77805052922554L-40.75698539663195,-430.42788299653296L-33.48033566470627,-404.9869788114889z" style="fill:rgb(109,213,75)">
    </path>
    <path d="M-145.36008672122097,-158.10351724329215L-154.62673517393023,-151.6506072006741L-168.07440800138497,-138.3941057249675z" style="fill:rgb(197,147,42)">
    </path>
    <path d="M-40.75698539663195,-430.42788299653296L-23.19883850648128,-430.77805052922554L-33.33989603982194,-433.3145242909511z" style="fill:rgb(109,213,75)">
    </path>
    <path d="M-139.44794955359902,-131.13241826213775L-135.9412954985205,-145.402206711488L-168.07440800138497,-138.3941057249675z" style="fill:rgb(197,147,42)">
    </path>
    <path d="M-135.9412954985205,-145.402206711488L-145.36008672122097,-158.10351724329215L-168.07440800138497,-138.3941057249675z" style="fill:rgb(197,147,42)">
    </path>
    <path d="M-55.60932571162257,-415.5872091175005L-146.67301455746022,-397.17504319772166" style="fill:none;stroke:rgb(197,147,42);stroke-width:5;stroke-linecap:round">
    </path>
    <path d="M-49.270331959543135,-428.7290576448751L-64.60949886036718,-430.77248522644317L-63.029998169386815,-427.39924381874096z" style="fill:rgb(43,180,168)">
    </path>
    <path d="M-64.60949886036718,-430.77248522644317L-77.78041993647545,-428.1591702456396L-63.029998169386815,-427.39924381874096z" style="fill:rgb(43,180,168)">
    </path>
    <path d="M-10.53016054341394,-551.982227026877L-55.234642581512354,-544.2217415498205" style="fill:none;stroke:rgb(45,114,23);stroke-width:5;stroke-linecap:round">
    </path>
    <path d="M-10.53016054341394,-551.982227026877L-20.38362733751045,-612.1083758546596" style="fill:none;stroke:rgb(0,0,0);stroke-width:1;stroke-linecap:round">
    </path>
    <path d="M-730.3781458415343,-427.02004021899864L-10.53016054341394,-551.982227026877" style="fill:none;stroke:rgb(1,93,85);stroke-width:5;stroke-linecap:round">
    </path>
    <path d="M-10.53016054341394,-551.982227026877L-20.38362733751045,-612.1083758546596" style="fill:none;stroke:rgb(0,0,0);stroke-width:1;stroke-linecap:round">
    </path>
    <path d="M-49.270331959543135,-428.7290576448751L-52.90073997186643,-424.8300980819012L-63.09344466732769,-398.89973068047533z" style="fill:rgb(43,180,168)">
    </path>
    <path d="M-70.5914708717721,-424.4744568198465L-77.78041993647545,-428.1591702456396L-63.09344466732769,-398.89973068047533z" style="fill:rgb(43,180,168)">
    </path>
    <path d="M-62.77283754460062,-542.9131467542381L-63.02999816938683,-427.3992438187409" style="fill:none;stroke:rgb(43,180,168);stroke-width:5;stroke-linecap:round">
    </path>
    <path d="M-52.90073997186643,-424.8300980819012L-49.270331959543135,-428.7290576448751L-63.029998169386815,-427.39924381874096z" style="fill:rgb(43,180,168)">
    </path>
    <path d="M-20.38362733751045,-612.1083758546596L-20.38362733751045,-612.1083758546596L-10.53016054341394,-551.982227026877z" style="fill:rgb(0,0,0); fill-opacity: 0.2">
    </path>
    <path d="M-145.70210248801004,-220.3812974912509L-155.0218874306915,-213.67680321500188L-168.5517565169379,-200.78457177637156z" style="fill:rgb(197,147,42)">
    </path>
    <path d="M-77.78041993647545,-428.1591702456396L-70.5914708717721,-424.4744568198465L-63.029998169386815,-427.39924381874096z" style="fill:rgb(43,180,168)">
    </path>
    <path d="M-52.90073997186643,-424.8300980819012L-70.5914708717721,-424.4744568198465L-63.09344466732769,-398.89973068047533z" style="fill:rgb(43,180,168)">
    </path>
    <path d="M-55.234642581512354,-544.2217415498205L-20.38362733751045,-612.1083758546596" style="fill:none;stroke:rgb(0,0,0);stroke-width:1;stroke-linecap:round">
    </path>
    <path d="M-20.38362733751045,-612.1083758546596L-20.38362733751045,-612.1083758546596" style="fill:none;stroke:rgb(0,0,0);stroke-width:1;stroke-linecap:round">
    </path>
    <path d="M-55.234642581512354,-544.2217415498205L-20.38362733751045,-612.1083758546596" style="fill:none;stroke:rgb(0,0,0);stroke-width:1;stroke-linecap:round">
    </path>
    <path d="M-20.38362733751045,-612.1083758546596L-744.0083122790021,-496.5210937758736" style="fill:none;stroke:rgb(0,0,0);stroke-width:1;stroke-linecap:round">
    </path>
    <path d="M-70.5914708717721,-424.4744568198465L-52.90073997186643,-424.8300980819012L-63.029998169386815,-427.39924381874096z" style="fill:rgb(43,180,168)">
    </path>
    <path d="M-139.7549454867025,-193.20096680360808L-136.22838544435456,-207.7065156474056L-168.5517565169379,-200.78457177637156z" style="fill:rgb(197,147,42)">
    </path>
    <path d="M-136.22838544435456,-207.7065156474056L-145.70210248801004,-220.3812974912509L-168.5517565169379,-200.78457177637156z" style="fill:rgb(197,147,42)">
    </path>
    <path d="M-55.423088432402814,-479.5253568714577L-147.03069488519782,-462.3051892696074" style="fill:none;stroke:rgb(197,147,42);stroke-width:5;stroke-linecap:round">
    </path>
    <path d="M-10.53016054341394,-551.982227026877L-55.234642581512354,-544.2217415498205L-20.38362733751045,-612.1083758546596z" style="fill:rgb(0,0,0); fill-opacity: 0.2">
    </path>
    <path d="M-146.048164867482,-283.395926972158L-155.42169885046357,-276.4343379809717L-169.0347737485653,-263.9159510730881z" style="fill:rgb(197,147,42)">
    </path>
    <path d="M-140.0655707128771,-256.0032871279142L-136.51887769990708,-270.7491944178306L-169.0347737485653,-263.9159510730881z" style="fill:rgb(197,147,42)">
    </path>
    <path d="M-136.51887769990708,-270.7491944178306L-146.048164867482,-283.395926972158L-169.0347737485653,-263.9159510730881z" style="fill:rgb(197,147,42)">
    </path>
    <path d="M-55.234642581512354,-544.2217415498209L-147.3927038604054,-528.2235403954264" style="fill:none;stroke:rgb(197,147,42);stroke-width:5;stroke-linecap:round">
    </path>
    <path d="M-101.94340271334877,-418.21822652987356L-117.35205426161092,-420.3075443647175L-115.94701527674485,-416.85637008335317z" style="fill:rgb(43,180,168)">
    </path>
    <path d="M-117.35205426161092,-420.3075443647175L-130.83362246300874,-417.6325921771027L-115.94701527674485,-416.85637008335317z" style="fill:rgb(43,180,168)">
    </path>
    <path d="M-101.94340271334877,-418.21822652987356L-105.84137994714335,-414.2284734865586L-115.87069530713183,-388.05087923807054z" style="fill:rgb(43,180,168)">
    </path>
    <path d="M-123.76894517131853,-413.8629727448559L-130.83362246300874,-417.6325921771027L-115.87069530713183,-388.05087923807054z" style="fill:rgb(43,180,168)">
    </path>
    <path d="M-116.25640272037431,-533.6286541958845L-115.9470152767449,-416.85637008335317" style="fill:none;stroke:rgb(43,180,168);stroke-width:5;stroke-linecap:round">
    </path>
    <path d="M-925.7032034546347,-548.6530417973316L-861.396726916527,293.44027962255694" style="fill:none;stroke:rgb(0,0,0);stroke-width:1;stroke-linecap:round">
    </path>
    <path d="M-690.7668484085556,389.31901556516834L-861.396726916527,293.44027962255694" style="fill:none;stroke:rgb(160,0,0);stroke-width:4;stroke-linecap:round">
    </path>
    <path d="M-105.84137994714335,-414.2284734865586L-101.94340271334877,-418.21822652987356L-115.94701527674485,-416.85637008335317z" style="fill:rgb(43,180,168)">
    </path>
    <path d="M-130.83362246300874,-417.6325921771027L-123.76894517131853,-413.8629727448559L-115.94701527674485,-416.85637008335317z" style="fill:rgb(43,180,168)">
    </path>
    <path d="M-146.39834610421332,-347.1605607282497L-155.82625232484602,-339.936222813897L-169.52356127703612,-327.80152043760097z" style="fill:rgb(197,147,42)">
    </path>
    <path d="M-105.84137994714335,-414.2284734865586L-123.76894517131853,-413.8629727448559L-115.87069530713183,-388.05087923807054z" style="fill:rgb(43,180,168)">
    </path>
    <path d="M-123.76894517131853,-413.8629727448559L-105.84137994714335,-414.2284734865586L-115.94701527674485,-416.85637008335317z" style="fill:rgb(43,180,168)">
    </path>
    <path d="M-140.37988997282994,-319.55246853458607L-136.8128331069759,-334.54344692009494L-169.52356127703612,-327.80152043760097z" style="fill:rgb(197,147,42)">
    </path>
    <path d="M-136.8128331069759,-334.54344692009494L-146.39834610421332,-347.1605607282497L-169.52356127703612,-327.80152043760097z" style="fill:rgb(197,147,42)">
    </path>
    <path d="M-152.5006309667119,-387.0563527334897L-140.69796955630468,-383.8619135079133L-170.01822312474363,-392.45487581794043z" style="fill:rgb(197,147,42)">
    </path>
    <path d="M-146.75272017279534,-411.688668820811L-156.23563272347863,-404.19577951775267L-170.01822312474363,-392.45487581794043z" style="fill:rgb(197,147,42)">
    </path>
    <path d="M-140.69796955630468,-383.8619135079133L-137.11031396672905,-399.10279376429753L-170.01822312474363,-392.45487581794043z" style="fill:rgb(197,147,42)">
    </path>
    <path d="M-137.11031396672905,-399.10279376429753L-146.75272017279534,-411.688668820811L-170.01822312474363,-392.45487581794043z" style="fill:rgb(197,147,42)">
    </path>
    <path d="M-155.86700094570384,-407.45785455948624L-171.3441386908722,-409.5946775675923L-170.12233714105213,-406.0627991450933z" style="fill:rgb(43,180,168)">
    </path>
    <path d="M-171.3441386908722,-409.5946775675923L-185.14747535455587,-406.8558815274495L-170.12233714105213,-406.0627991450933z" style="fill:rgb(43,180,168)">
    </path>
    <path d="M-155.86700094570384,-407.45785455948624L-160.0443278961804,-403.3740654857309L-169.899555369899,-376.94474791600106z" style="fill:rgb(43,180,168)">
    </path>
    <path d="M-178.21506037411316,-402.9983333081444L-185.14747535455587,-406.8558815274495L-169.899555369899,-376.94474791600106z" style="fill:rgb(43,180,168)">
    </path>
    <path d="M-171.02559852107802,-524.1209822752214L-170.1223371410522,-406.0627991450933" style="fill:none;stroke:rgb(43,180,168);stroke-width:5;stroke-linecap:round">
    </path>
    <path d="M-160.0443278961804,-403.3740654857309L-155.86700094570384,-407.45785455948624L-170.12233714105213,-406.0627991450933z" style="fill:rgb(43,180,168)">
    </path>
    <path d="M-152.8923079684156,-451.95098442108247L-141.01987734868956,-448.9453471401894L-170.51886582950914,-457.8899419338921z" style="fill:rgb(197,147,42)">
    </path>
    <path d="M-185.14747535455587,-406.8558815274495L-178.21506037411316,-402.9983333081444L-170.12233714105213,-406.0627991450933z" style="fill:rgb(43,180,168)">
    </path>
    <path d="M-147.11136282993098,-476.9940458165271L-156.64992695339743,-469.22664970223667L-170.51886582950914,-457.8899419338921z" style="fill:rgb(197,147,42)">
    </path>
    <path d="M-160.0443278961804,-403.3740654857309L-178.21506037411316,-402.9983333081444L-169.899555369899,-376.94474791600106z" style="fill:rgb(43,180,168)">
    </path>
    <path d="M-178.21506037411316,-402.9983333081444L-160.0443278961804,-403.3740654857309L-170.12233714105213,-406.0627991450933z" style="fill:rgb(43,180,168)">
    </path>
    <path d="M-141.01987734868956,-448.9453471401894L-137.41138408372493,-464.4410818265561L-170.51886582950914,-457.8899419338921z" style="fill:rgb(197,147,42)">
    </path>
    <path d="M-137.41138408372493,-464.4410818265561L-147.11136282993098,-476.9940458165271L-170.51886582950914,-457.8899419338921z" style="fill:rgb(197,147,42)">
    </path>
    <path d="M-153.28871224559236,-517.6288502515424L-141.34568287931856,-514.8168268972535L-171.02559852107802,-524.1209822752216z" style="fill:rgb(197,147,42)">
    </path>
    <path d="M-141.34568287931856,-514.8168268972535L-137.71610881153526,-530.572494150148L-171.02559852107802,-524.1209822752216z" style="fill:rgb(197,147,42)">
    </path>
    <path d="M-137.71610881153526,-530.572494150148L-147.47435166842595,-543.0908206187123L-171.02559852107802,-524.1209822752216z" style="fill:rgb(197,147,42)">
    </path>
    <path d="M-211.08619538469628,-396.4389483376054L-226.63068851532861,-398.6249687629988L-225.60138532052986,-395.00948148115435z" style="fill:rgb(43,180,168)">
    </path>
    <path d="M-226.63068851532861,-398.6249687629988L-240.7674522503941,-395.82001562149514L-225.60138532052986,-395.00948148115435z" style="fill:rgb(43,180,168)">
    </path>
    <path d="M-211.08619538469628,-396.4389483376054L-215.55527595465364,-392.25772400360427L-225.22508188481893,-365.5720748256656z" style="fill:rgb(43,180,168)">
    </path>
    <path d="M-233.97576299145751,-391.8713699532999L-240.7674522503941,-395.82001562149514L-225.22508188481893,-365.5720748256656z" style="fill:rgb(43,180,168)">
    </path>
    <path d="M-227.12734459039677,-514.381985965245L-225.60138532052997,-395.0094814811544" style="fill:none;stroke:rgb(43,180,168);stroke-width:5;stroke-linecap:round">
    </path>
    <path d="M-215.55527595465364,-392.25772400360427L-211.08619538469628,-396.4389483376054L-225.60138532052986,-395.00948148115435z" style="fill:rgb(43,180,168)">
    </path>
    <path d="M-240.7674522503941,-395.82001562149514L-233.97576299145751,-391.8713699532999L-225.60138532052986,-395.00948148115435z" style="fill:rgb(43,180,168)">
    </path>
    <path d="M-215.55527595465364,-392.25772400360427L-233.97576299145751,-391.8713699532999L-225.22508188481893,-365.5720748256656z" style="fill:rgb(43,180,168)">
    </path>
    <path d="M-531.6723628472644,332.24203337379765L-527.6605955131251,349.3677056157166L-522.7320153998776,341.04242884866227z" style="fill:rgb(167,41,160)">
    </path>
    <path d="M-233.97576299145751,-391.8713699532999L-215.55527595465364,-392.25772400360427L-225.60138532052986,-395.00948148115435z" style="fill:rgb(43,180,168)">
    </path>
    <path d="M-527.6605955131251,349.3677056157166L-516.8231913675835,355.02891998154917L-522.7320153998776,341.04242884866227z" style="fill:rgb(167,41,160)">
    </path>
    <path d="M-744.0083122790021,-496.5210937758736L-20.38362733751045,-612.1083758546596L-214.64785139447844,-651.4793756482011z" style="fill:rgb(0,0,0); fill-opacity: 0.2">
    </path>
    <path d="M-514.1136816051379,341.33491745247966L-516.8231913675835,355.02891998154917L-497.1880444001045,332.4697862700597z" style="fill:rgb(167,41,160)">
    </path>
    <path d="M-523.3284283633333,327.22453800088743L-531.6723628472644,332.24203337379765L-522.7320153998776,341.04242884866227z" style="fill:rgb(167,41,160)">
    </path>
    <path d="M-523.3284283633333,327.22453800088743L-514.1136816051379,341.33491745247966L-497.1880444001045,332.4697862700597z" style="fill:rgb(167,41,160)">
    </path>
    <path d="M-627.6065738663349,376.2386833906708L-522.7320153998777,341.0424288486624" style="fill:none;stroke:rgb(167,41,160);stroke-width:5;stroke-linecap:round">
    </path>
    <path d="M-516.8231913675835,355.02891998154917L-514.1136816051379,341.33491745247966L-522.7320153998776,341.04242884866227z" style="fill:rgb(167,41,160)">
    </path>
    <path d="M-514.1136816051379,341.33491745247966L-523.3284283633333,327.22453800088743L-522.7320153998776,341.04242884866227z" style="fill:rgb(167,41,160)">
    </path>
    <path d="M-534.3979335957829,270.3113341815921L-530.360146652466,287.5744968976379L-525.4087002348911,279.0281180432601z" style="fill:rgb(167,41,160)">
    </path>
    <path d="M-530.360146652466,287.5744968976379L-519.4649451619315,293.0681147890551L-525.4087002348911,279.0281180432601z" style="fill:rgb(167,41,160)">
    </path>
    <path d="M-516.7454891206833,279.1312032723117L-519.4649451619315,293.0681147890551L-499.6946931255828,270.7241689249473z" style="fill:rgb(167,41,160)">
    </path>
    <path d="M-526.0124717291876,265.0397423432283L-534.3979335957829,270.3113341815921L-525.4087002348911,279.0281180432601z" style="fill:rgb(167,41,160)">
    </path>
    <path d="M-526.0124717291876,265.0397423432283L-516.7454891206833,279.1312032723117L-499.6946931255828,270.7241689249473z" style="fill:rgb(167,41,160)">
    </path>
    <path d="M-630.9984181795345,313.1267181370554L-525.4087002348912,279.0281180432601" style="fill:none;stroke:rgb(167,41,160);stroke-width:5;stroke-linecap:round">
    </path>
    <path d="M-267.64824678079583,-385.1520770533926L-283.2588209526205,-387.38906916431813L-282.4317941332677,-383.686926711531z" style="fill:rgb(43,180,168)">
    </path>
    <path d="M-519.4649451619315,293.0681147890551L-516.7454891206833,279.1312032723117L-525.4087002348911,279.0281180432601z" style="fill:rgb(167,41,160)">
    </path>
    <path d="M-283.2588209526205,-387.38906916431813L-297.7412404810575,-384.51553255338206L-282.4317941332677,-383.686926711531z" style="fill:rgb(43,180,168)">
    </path>
    <path d="M-516.7454891206833,279.1312032723117L-526.0124717291876,265.0397423432283L-525.4087002348911,279.0281180432601z" style="fill:rgb(167,41,160)">
    </path>
    <path d="M-267.64824678079583,-385.1520770533926L-272.4221484335036,-380.8698519602453L-281.8945208417995,-353.9231481173647z" style="fill:rgb(43,180,168)">
    </path>
    <path d="M-291.09924538067906,-380.47246596875306L-297.7412404810575,-384.51553255338206L-281.8945208417995,-353.9231481173647z" style="fill:rgb(43,180,168)">
    </path>
    <path d="M-284.6108718255681,-504.4031190163261L-282.43179413326783,-383.686926711531" style="fill:none;stroke:rgb(43,180,168);stroke-width:5;stroke-linecap:round">
    </path>
    <path d="M-272.4221484335036,-380.8698519602453L-267.64824678079583,-385.1520770533926L-282.4317941332677,-383.686926711531z" style="fill:rgb(43,180,168)">
    </path>
    <path d="M-297.7412404810575,-384.51553255338206L-291.09924538067906,-380.47246596875306L-282.4317941332677,-383.686926711531z" style="fill:rgb(43,180,168)">
    </path>
    <path d="M-272.4221484335036,-380.8698519602453L-291.09924538067906,-380.47246596875306L-281.8945208417995,-353.9231481173647z" style="fill:rgb(43,180,168)">
    </path>
    <path d="M-537.1571381358108,207.61640451553495L-533.0929928944729,225.01915732071365L-528.1184894994232,216.24683297389404z" style="fill:rgb(167,41,160)">
    </path>
    <path d="M-291.09924538067906,-380.47246596875306L-272.4221484335036,-380.8698519602453L-282.4317941332677,-383.686926711531z" style="fill:rgb(43,180,168)">
    </path>
    <path d="M-533.0929928944729,225.01915732071365L-522.1393885969538,230.34059300776752L-528.1184894994232,216.24683297389404z" style="fill:rgb(167,41,160)">
    </path>
    <path d="M-519.4099470175445,216.15578562400074L-522.1393885969538,230.34059300776752L-502.2321818138809,208.2188789045762z" style="fill:rgb(167,41,160)">
    </path>
    <path d="M-528.7297565535782,202.08479768844572L-537.1571381358108,207.61640451553495L-528.1184894994232,216.24683297389404z" style="fill:rgb(167,41,160)">
    </path>
    <path d="M-528.7297565535782,202.08479768844572L-519.4099470175445,216.15578562400074L-502.2321818138809,208.2188789045762z" style="fill:rgb(167,41,160)">
    </path>
    <path d="M-634.4331093693199,249.21750208516318L-528.1184894994232,216.24683297389404" style="fill:none;stroke:rgb(167,41,160);stroke-width:5;stroke-linecap:round">
    </path>
    <path d="M-522.1393885969538,230.34059300776752L-519.4099470175445,216.15578562400074L-528.1184894994232,216.24683297389404z" style="fill:rgb(167,41,160)">
    </path>
    <path d="M-730.3781458415343,-427.02004021899864L-10.53016054341394,-551.982227026877L-20.38362733751045,-612.1083758546596z" style="fill:rgb(0,0,0); fill-opacity: 0.2">
    </path>
    <path d="M-519.4099470175445,216.15578562400074L-528.7297565535782,202.08479768844572L-528.1184894994232,216.24683297389404z" style="fill:rgb(167,41,160)">
    </path>
    <path d="M-539.950602898537,144.14301054164596L-535.8597540324918,161.68749970432535L-530.8620011532204,152.6842565467824z" style="fill:rgb(167,41,160)">
    </path>
    <path d="M-535.8597540324918,161.68749970432535L-524.8471322133041,166.83203476026839L-530.8620011532204,152.6842565467824z" style="fill:rgb(167,41,160)">
    </path>
    <path d="M-522.1076666824184,152.39421416376626L-524.8471322133041,166.83203476026839L-504.8010831362015,144.93980975016606z" style="fill:rgb(167,41,160)">
    </path>
    <path d="M-531.4809042197935,138.3453076250356L-539.950602898537,144.14301054164596L-530.8620011532204,152.6842565467824z" style="fill:rgb(167,41,160)">
    </path>
    <path d="M-531.4809042197935,138.3453076250356L-522.1076666824184,152.39421416376626L-504.8010831362015,144.93980975016606z" style="fill:rgb(167,41,160)">
    </path>
    <path d="M-637.91146447972,184.49583251647798L-530.8620011532205,152.6842565467824" style="fill:none;stroke:rgb(167,41,160);stroke-width:5;stroke-linecap:round">
    </path>
    <path d="M-861.396726916527,293.44027962255694L-925.7032034546347,-548.6530417973316L-690.7668484085556,389.31901556516834z" style="fill:rgb(0,0,0); fill-opacity: 0.2">
    </path>
    <path d="M-325.6027428148772,-373.58734556058806L-341.27796799698996,-375.87717069735896L-340.6635470647431,-372.08517642199183z" style="fill:rgb(43,180,168)">
    </path>
    <path d="M-341.27796799698996,-375.87717069735896L-356.1188774331356,-372.9325041296895L-340.6635470647431,-372.08517642199183z" style="fill:rgb(43,180,168)">
    </path>
    <path d="M-524.8471322133041,166.83203476026839L-522.1076666824184,152.39421416376626L-530.8620011532204,152.6842565467824z" style="fill:rgb(167,41,160)">
    </path>
    <path d="M-522.1076666824184,152.39421416376626L-531.4809042197935,138.3453076250356L-530.8620011532204,152.6842565467824z" style="fill:rgb(167,41,160)">
    </path>
    <path d="M-325.6027428148772,-373.58734556058806L-330.69523981347027,-369.2003776375132L-339.9574417559394,-341.9877783193304z" style="fill:rgb(43,180,168)">
    </path>
    <path d="M-627.6065738663349,376.23868339067064L-671.3272560131734,-437.2709938600608" style="fill:none;stroke:rgb(84,0,79);stroke-width:5;stroke-linecap:round">
    </path>
    <path d="M-627.6065738663349,376.23868339067064L-690.7668484085556,389.31901556516834" style="fill:none;stroke:rgb(160,0,0);stroke-width:4;stroke-linecap:round">
    </path>
    <path d="M-349.6360846626933,-368.79152876698976L-356.1188774331356,-372.9325041296895L-339.9574417559394,-341.9877783193304z" style="fill:rgb(43,180,168)">
    </path>
    <path d="M-343.52786646677566,-494.17540894297724L-340.6635470647432,-372.08517642199183" style="fill:none;stroke:rgb(43,180,168);stroke-width:5;stroke-linecap:round">
    </path>
    <path d="M-330.69523981347027,-369.2003776375132L-325.6027428148772,-373.58734556058806L-340.6635470647431,-372.08517642199183z" style="fill:rgb(43,180,168)">
    </path>
    <path d="M-356.1188774331356,-372.9325041296895L-349.6360846626933,-368.79152876698976L-340.6635470647431,-372.08517642199183z" style="fill:rgb(43,180,168)">
    </path>
    <path d="M-330.69523981347027,-369.2003776375132L-349.6360846626933,-368.79152876698976L-339.9574417559394,-341.9877783193304z" style="fill:rgb(43,180,168)">
    </path>
    <path d="M-542.7789699687536,79.8765627431691L-538.6610653393149,97.56498254056648L-533.6398686329227,88.32571309442966z" style="fill:rgb(167,41,160)">
    </path>
    <path d="M-349.6360846626933,-368.79152876698976L-330.69523981347027,-369.2003776375132L-340.6635470647431,-372.08517642199183z" style="fill:rgb(43,180,168)">
    </path>
    <path d="M-538.6610653393149,97.56498254056648L-527.58880185088,102.52776133423208L-533.6398686329227,88.32571309442966z" style="fill:rgb(167,41,160)">
    </path>
    <path d="M-524.8392748623731,87.83167549995493L-527.58880185088,102.52776133423208L-507.40198403072776,80.87250356814815z" style="fill:rgb(167,41,160)">
    </path>
    <path d="M-534.2665516956027,73.80651467511977L-542.7789699687536,79.8765627431691L-533.6398686329227,88.32571309442966z" style="fill:rgb(167,41,160)">
    </path>
    <path d="M-534.2665516956027,73.80651467511977L-524.8392748623731,87.83167549995493L-507.40198403072776,80.87250356814815z" style="fill:rgb(167,41,160)">
    </path>
    <path d="M-641.4343214611905,118.94611770710706L-533.6398686329227,88.32571309442966" style="fill:none;stroke:rgb(167,41,160);stroke-width:5;stroke-linecap:round">
    </path>
    <path d="M-527.58880185088,102.52776133423208L-524.8392748623731,87.83167549995493L-533.6398686329227,88.32571309442966z" style="fill:rgb(167,41,160)">
    </path>
    <path d="M-524.8392748623731,87.83167549995493L-534.2665516956027,73.80651467511977L-533.6398686329227,88.32571309442966z" style="fill:rgb(167,41,160)">
    </path>
    <path d="M-744.0083122790021,-496.5210937758736L-690.7668484085556,389.31901556516834" style="fill:none;stroke:rgb(0,0,0);stroke-width:1;stroke-linecap:round">
    </path>
    <path d="M-925.7032034546347,-548.6530417973316L-214.64785139447844,-651.4793756482011L-744.0083122790021,-496.5210937758736z" style="fill:rgb(0,0,0); fill-opacity: 0.2">
    </path>
    <path d="M-545.64289757688,14.802104740737525L-541.4975780534688,32.63669886300995L-536.4527413396407,23.15615707923214z" style="fill:rgb(167,41,160)">
    </path>
    <path d="M-541.4975780534688,32.63669886300995L-530.365039131065,37.41272387172913L-536.4527413396407,23.15615707923214z" style="fill:rgb(167,41,160)">
    </path>
    <path d="M-527.6054141502857,22.452981719537817L-530.365039131065,37.41272387172913L-510.0354861497015,16.00214001743855z" style="fill:rgb(167,41,160)">
    </path>
    <path d="M-537.0873520249193,8.45328890345628L-545.64289757688,14.802104740737525L-536.4527413396407,23.15615707923214z" style="fill:rgb(167,41,160)">
    </path>
    <path d="M-537.0873520249193,8.45328890345628L-527.6054141502857,22.452981719537817L-510.0354861497015,16.00214001743855z" style="fill:rgb(167,41,160)">
    </path>
    <path d="M-645.002539843607,52.55236440539612L-536.4527413396407,23.156157079232134" style="fill:none;stroke:rgb(167,41,160);stroke-width:5;stroke-linecap:round">
    </path>
    <path d="M-385.0017430939099,-361.7343654438415L-400.7400203374349,-364.0789774447635L-400.3491233920572,-360.1937749515333z" style="fill:rgb(43,180,168)">
    </path>
    <path d="M-400.7400203374349,-364.0789774447635L-415.9528971199986,-361.06050678752837L-400.3491233920572,-360.1937749515333z" style="fill:rgb(43,180,168)">
    </path>
    <path d="M-530.365039131065,37.41272387172913L-527.6054141502857,22.452981719537817L-536.4527413396407,23.15615707923214z" style="fill:rgb(167,41,160)">
    </path>
    <path d="M-527.6054141502857,22.452981719537817L-537.0873520249193,8.45328890345628L-536.4527413396407,23.15615707923214z" style="fill:rgb(167,41,160)">
    </path>
    <path d="M-385.0017430939099,-361.7343654438415L-390.42736310488027,-357.23872496928L-399.46588228224925,-329.75526861083483z" style="fill:rgb(43,180,168)">
    </path>
    <path d="M-409.63939208007696,-356.8179600803746L-415.9528971199986,-361.06050678752837L-399.46588228224925,-329.75526861083483z" style="fill:rgb(43,180,168)">
    </path>
    <path d="M-403.9326251021213,-483.6894301157272L-400.34912339205727,-360.1937749515333" style="fill:none;stroke:rgb(43,180,168);stroke-width:5;stroke-linecap:round">
    </path>
    <path d="M-390.42736310488027,-357.23872496928L-385.0017430939099,-361.7343654438415L-400.3491233920572,-360.1937749515333z" style="fill:rgb(43,180,168)">
    </path>
    <path d="M-415.9528971199986,-361.06050678752837L-409.63939208007696,-356.8179600803746L-400.3491233920572,-360.1937749515333z" style="fill:rgb(43,180,168)">
    </path>
    <path d="M-390.42736310488027,-357.23872496928L-409.63939208007696,-356.8179600803746L-399.46588228224925,-329.75526861083483z" style="fill:rgb(43,180,168)">
    </path>
    <path d="M-548.5430606096636,-51.09569831181477L-544.3699598839514,-33.11263530680466L-539.3012851450858,-42.83983863267697z" style="fill:rgb(167,41,160)">
    </path>
    <path d="M-409.63939208007696,-356.8179600803746L-390.42736310488027,-357.23872496928L-400.3491233920572,-360.1937749515333z" style="fill:rgb(43,180,168)">
    </path>
    <path d="M-544.3699598839514,-33.11263530680466L-533.1765019573255,-28.52850837200799L-539.3012851450858,-42.83983863267697z" style="fill:rgb(167,41,160)">
    </path>
    <path d="M-530.4067434888069,-43.757441523279894L-533.1765019573255,-28.52850837200799L-512.7022063234173,-49.686475120020354z" style="fill:rgb(167,41,160)">
    </path>
    <path d="M-539.9439748381943,-57.729883907527686L-548.5430606096636,-51.09569831181477L-539.3012851450858,-42.83983863267697z" style="fill:rgb(167,41,160)">
    </path>
    <path d="M-539.9439748381943,-57.729883907527686L-530.4067434888069,-43.757441523279894L-512.7022063234173,-49.686475120020354z" style="fill:rgb(167,41,160)">
    </path>
    <path d="M-648.6170014354259,-14.701835177316406L-539.3012851450859,-42.83983863267699" style="fill:none;stroke:rgb(167,41,160);stroke-width:5;stroke-linecap:round">
    </path>
    <path d="M-533.1765019573255,-28.52850837200799L-530.4067434888069,-43.757441523279894L-539.3012851450858,-42.83983863267697z" style="fill:rgb(167,41,160)">
    </path>
    <path d="M-530.4067434888069,-43.757441523279894L-539.9439748381943,-57.729883907527686L-539.3012851450858,-42.83983863267697z" style="fill:rgb(167,41,160)">
    </path>
    <path d="M-551.4801511403883,-117.83257177490707L-547.2788955342381,-99.69869295397228L-542.1861829170768,-109.67809494654193z" style="fill:rgb(167,41,160)">
    </path>
    <path d="M-547.2788955342381,-99.69869295397228L-536.0238650349869,-95.31176021959928L-542.1861829170768,-109.67809494654193z" style="fill:rgb(167,41,160)">
    </path>
    <path d="M-533.2439386936834,-110.81556737596009L-536.0238650349869,-95.31176021959928L-515.4027770418863,-116.20892180396518z" style="fill:rgb(167,41,160)">
    </path>
    <path d="M-542.8371068823789,-124.75891453609111L-551.4801511403883,-117.83257177490707L-542.1861829170768,-109.67809494654193z" style="fill:rgb(167,41,160)">
    </path>
    <path d="M-542.8371068823789,-124.75891453609111L-533.2439386936834,-110.81556737596009L-515.4027770418863,-116.20892180396518z" style="fill:rgb(167,41,160)">
    </path>
    <path d="M-652.2786110502038,-82.83331688503444L-542.186182917077,-109.67809494654193" style="fill:none;stroke:rgb(167,41,160);stroke-width:5;stroke-linecap:round">
    </path>
    <path d="M-445.8999351254351,-349.58222389424253L-461.6994821485661,-351.9836749331019L-461.5436559289246,-348.0017379641999z" style="fill:rgb(43,180,168)">
    </path>
    <path d="M-461.6994821485661,-351.9836749331019L-477.2984878608577,-348.8885903085711L-461.5436559289246,-348.0017379641999z" style="fill:rgb(43,180,168)">
    </path>
    <path d="M-536.0238650349869,-95.31176021959928L-533.2439386936834,-110.81556737596009L-542.1861829170768,-109.67809494654193z" style="fill:rgb(167,41,160)">
    </path>
    <path d="M-533.2439386936834,-110.81556737596009L-542.8371068823789,-124.75891453609111L-542.1861829170768,-109.67809494654193z" style="fill:rgb(167,41,160)">
    </path>
    <path d="M-445.8999351254351,-349.58222389424253L-451.67400949253323,-344.9737815717536L-460.47450376738675,-317.21438284709285z" style="fill:rgb(43,180,168)">
    </path>
    <path d="M-471.16497372271175,-344.54062388859296L-477.2984878608577,-348.8885903085711L-460.47450376738675,-317.21438284709285z" style="fill:rgb(43,180,168)">
    </path>
    <path d="M-465.8822215652446,-472.93527478848614L-461.54365592892464,-348.0017379642" style="fill:none;stroke:rgb(43,180,168);stroke-width:5;stroke-linecap:round">
    </path>
    <path d="M-451.67400949253323,-344.9737815717536L-445.8999351254351,-349.58222389424253L-461.5436559289246,-348.0017379641999z" style="fill:rgb(43,180,168)">
    </path>
    <path d="M-477.2984878608577,-348.8885903085711L-471.16497372271175,-344.54062388859296L-461.5436559289246,-348.0017379641999z" style="fill:rgb(43,180,168)">
    </path>
    <path d="M-451.67400949253323,-344.9737815717536L-471.16497372271175,-344.54062388859296L-460.47450376738675,-317.21438284709285z" style="fill:rgb(43,180,168)">
    </path>
    <path d="M-471.16497372271175,-344.54062388859296L-451.67400949253323,-344.9737815717536L-461.5436559289246,-348.0017379641999z" style="fill:rgb(43,180,168)">
    </path>
    <path d="M-554.4548789794663,-185.42464403381106L-550.2250872464223,-167.13754852568465L-545.1081350652958,-177.37483918323846z" style="fill:rgb(167,41,160)">
    </path>
    <path d="M-550.2250872464223,-167.13754852568465L-538.9078204110459,-162.9532632325425L-545.1081350652958,-177.37483918323846z" style="fill:rgb(167,41,160)">
    </path>
    <path d="M-536.1176929973093,-178.73778063467626L-538.9078204110459,-162.9532632325425L-518.1378469549605,-183.58117805522323z" style="fill:rgb(167,41,160)">
    </path>
    <path d="M-545.767452571338,-192.65012307333558L-554.4548789794663,-185.42464403381106L-545.1081350652958,-177.37483918323846z" style="fill:rgb(167,41,160)">
    </path>
    <path d="M-545.767452571338,-192.65012307333558L-536.1176929973093,-178.73778063467626L-518.1378469549605,-183.58117805522323z" style="fill:rgb(167,41,160)">
    </path>
    <path d="M-655.9882972617349,-151.85935866792178L-545.1081350652959,-177.37483918323846" style="fill:none;stroke:rgb(167,41,160);stroke-width:5;stroke-linecap:round">
    </path>
    <path d="M-538.9078204110459,-162.9532632325425L-536.1176929973093,-178.73778063467626L-545.1081350652958,-177.37483918323846z" style="fill:rgb(167,41,160)">
    </path>
    <path d="M-536.1176929973093,-178.73778063467626L-545.767452571338,-192.65012307333558L-545.1081350652958,-177.37483918323846z" style="fill:rgb(167,41,160)">
    </path>
    <path d="M-744.0083122790021,-496.5210937758736L-925.7032034546347,-548.6530417973316" style="fill:none;stroke:rgb(0,0,0);stroke-width:1;stroke-linecap:round">
    </path>
    <path d="M-744.0083122790021,-496.5210937758736L-925.7032034546347,-548.6530417973316" style="fill:none;stroke:rgb(0,0,0);stroke-width:1;stroke-linecap:round">
    </path>
    <path d="M-557.4679722463329,-253.88845949330258L-553.2092553663963,-235.4456908683453L-548.0678601082087,-245.94671821389628z" style="fill:rgb(167,41,160)">
    </path>
    <path d="M-690.7668484085556,389.31901556516834L-744.0083122790021,-496.5210937758736L-627.6065738663349,376.23868339067064z" style="fill:rgb(0,0,0); fill-opacity: 0.2">
    </path>
    <path d="M-553.2092553663963,-235.4456908683453L-541.8290780349328,-231.46966886352698L-548.0678601082087,-245.94671821389628z" style="fill:rgb(167,41,160)">
    </path>
    <path d="M-539.0287176134266,-247.5408910912059L-541.8290780349328,-231.46966886352698L-520.908081391746,-251.81963275029278z" style="fill:rgb(167,41,160)">
    </path>
    <path d="M-548.7357345576406,-261.4202521706298L-557.4679722463329,-253.88845949330258L-548.0678601082087,-245.94671821389628z" style="fill:rgb(167,41,160)">
    </path>
    <path d="M-548.7357345576406,-261.4202521706298L-539.0287176134266,-247.5408910912059L-520.908081391746,-251.81963275029278z" style="fill:rgb(167,41,160)">
    </path>
    <path d="M-659.747013189128,-221.79769519023566L-548.0678601082088,-245.94671821389628" style="fill:none;stroke:rgb(167,41,160);stroke-width:5;stroke-linecap:round">
    </path>
    <path d="M-508.35480225306816,-337.1194501980463L-524.2136377246973,-339.57989707008437L-524.3051008880503,-335.49751860670824z" style="fill:rgb(43,180,168)">
    </path>
    <path d="M-524.2136377246973,-339.57989707008437L-540.213662062916,-336.4052441316398L-524.3051008880503,-335.49751860670824z" style="fill:rgb(43,180,168)">
    </path>
    <path d="M-541.8290780349328,-231.46966886352698L-539.0287176134266,-247.5408910912059L-548.0678601082087,-245.94671821389628z" style="fill:rgb(167,41,160)">
    </path>
    <path d="M-539.0287176134266,-247.5408910912059L-548.7357345576406,-261.4202521706298L-548.0678601082087,-245.94671821389628z" style="fill:rgb(167,41,160)">
    </path>
    <path d="M-508.35480225306816,-337.1194501980463L-514.4935202800267,-332.39386431077804L-523.0407587157389,-304.353311135063z" style="fill:rgb(43,180,168)">
    </path>
    <path d="M-534.2715036433443,-331.947811873705L-540.213662062916,-336.4052441316398L-523.0407587157389,-304.353311135063z" style="fill:rgb(43,180,168)">
    </path>
    <path d="M-529.4366868039156,-461.9025218742156L-524.3051008880504,-335.49751860670824" style="fill:none;stroke:rgb(43,180,168);stroke-width:5;stroke-linecap:round">
    </path>
    <path d="M-514.4935202800267,-332.39386431077804L-508.35480225306816,-337.1194501980463L-524.3051008880503,-335.49751860670824z" style="fill:rgb(43,180,168)">
    </path>
    <path d="M-540.213662062916,-336.4052441316398L-534.2715036433443,-331.947811873705L-524.3051008880503,-335.49751860670824z" style="fill:rgb(43,180,168)">
    </path>
    <path d="M-514.4935202800267,-332.39386431077804L-534.2715036433443,-331.947811873705L-523.0407587157389,-304.353311135063z" style="fill:rgb(43,180,168)">
    </path>
    <path d="M-534.2715036433443,-331.947811873705L-514.4935202800267,-332.39386431077804L-524.3051008880503,-335.49751860670824z" style="fill:rgb(43,180,168)">
    </path>
    <path d="M-560.5201779636114,-323.2409920783579L-556.2321389310317,-304.6400366682077L-551.066095262118,-315.4108121072192z" style="fill:rgb(167,41,160)">
    </path>
    <path d="M-556.2321389310317,-304.6400366682077L-544.7883663411715,-300.8780621224215L-551.066095262118,-315.4108121072192z" style="fill:rgb(167,41,160)">
    </path>
    <path d="M-541.9777423239404,-317.24214740250926L-544.7883663411715,-300.8780621224215L-523.7141629001802,-320.9410989126124z" style="fill:rgb(167,41,160)">
    </path>
    <path d="M-551.742694326702,-331.0864808048907L-560.5201779636114,-323.2409920783579L-551.066095262118,-315.4108121072192z" style="fill:rgb(167,41,160)">
    </path>
    <path d="M-551.742694326702,-331.0864808048907L-541.9777423239404,-317.24214740250926L-523.7141629001802,-320.9410989126124z" style="fill:rgb(167,41,160)">
    </path>
    <path d="M-663.5557373132218,-292.66653302131743L-551.0660952621181,-315.4108121072192" style="fill:none;stroke:rgb(167,41,160);stroke-width:5;stroke-linecap:round">
    </path>
    <path d="M-544.7883663411715,-300.8780621224215L-541.9777423239404,-317.24214740250926L-551.066095262118,-315.4108121072192z" style="fill:rgb(167,41,160)">
    </path>
    <path d="M-744.0083122790021,-496.5210937758736L-20.38362733751045,-612.1083758546596L-730.3781458415343,-427.02004021899864z" style="fill:rgb(0,0,0); fill-opacity: 0.2">
    </path>
    <path d="M-541.9777423239404,-317.24214740250926L-551.742694326702,-331.0864808048907L-551.066095262118,-315.4108121072192z" style="fill:rgb(167,41,160)">
    </path>
    <path d="M-690.7668484085556,389.31901556516834L-744.0083122790021,-496.5210937758736L-925.7032034546347,-548.6530417973316z" style="fill:rgb(0,0,0); fill-opacity: 0.2">
    </path>
    <path d="M-563.6122626745697,-393.49965926403394L-559.2944962783608,-374.73794441855034L-554.1035970533553,-385.7846483130066z" style="fill:rgb(167,41,160)">
    </path>
    <path d="M-559.2944962783608,-374.73794441855034L-547.7864328549473,-371.1959757794953L-554.1035970533553,-385.7846483130066z" style="fill:rgb(167,41,160)">
    </path>
    <path d="M-544.9655160888643,-387.8592515070292L-547.7864328549473,-371.1959757794953L-526.5567918076925,-390.9628275231606z" style="fill:rgb(167,41,160)">
    </path>
    <path d="M-554.7890928143036,-401.66643858549287L-563.6122626745697,-393.49965926403394L-554.1035970533553,-385.7846483130066z" style="fill:rgb(167,41,160)">
    </path>
    <path d="M-554.7890928143036,-401.66643858549287L-544.9655160888643,-387.8592515070292L-526.5567918076925,-390.9628275231606z" style="fill:rgb(167,41,160)">
    </path>
    <path d="M-667.4154743258022,-364.48456643697494L-554.1035970533553,-385.7846483130065" style="fill:none;stroke:rgb(167,41,160);stroke-width:5;stroke-linecap:round">
    </path>
    <path d="M-572.4268046369921,-324.3339796222922L-588.3427310279868,-326.8556905194251L-588.6944209609231,-322.6689710327111z" style="fill:rgb(43,180,168)">
    </path>
    <path d="M-588.3427310279868,-326.8556905194251L-604.7594392044975,-323.5983610460158L-588.6944209609231,-322.6689710327111z" style="fill:rgb(43,180,168)">
    </path>
    <path d="M-547.7864328549473,-371.1959757794953L-544.9655160888643,-387.8592515070292L-554.1035970533553,-385.7846483130066z" style="fill:rgb(167,41,160)">
    </path>
    <path d="M-544.9655160888643,-387.8592515070292L-554.7890928143036,-401.66643858549287L-554.1035970533553,-385.7846483130066z" style="fill:rgb(167,41,160)">
    </path>
    <path d="M-572.4268046369921,-324.3339796222922L-578.9472722534057,-319.48668218184656L-587.2250712482784,-291.1596327384616z" style="fill:rgb(43,180,168)">
    </path>
    <path d="M-599.0207104918557,-319.0272061775614L-604.7594392044975,-323.5983610460158L-587.2250712482784,-291.1596327384616z" style="fill:rgb(43,180,168)">
    </path>
    <path d="M-594.6592029111201,-450.5802032620535L-588.6944209609231,-322.66897103271117" style="fill:none;stroke:rgb(43,180,168);stroke-width:5;stroke-linecap:round">
    </path>
    <path d="M-578.9472722534057,-319.48668218184656L-572.4268046369921,-324.3339796222922L-588.6944209609231,-322.6689710327111z" style="fill:rgb(43,180,168)">
    </path>
    <path d="M-604.7594392044975,-323.5983610460158L-599.0207104918557,-319.0272061775614L-588.6944209609231,-322.6689710327111z" style="fill:rgb(43,180,168)">
    </path>
    <path d="M-578.9472722534057,-319.48668218184656L-599.0207104918557,-319.0272061775614L-587.2250712482784,-291.1596327384616z" style="fill:rgb(43,180,168)">
    </path>
    <path d="M-599.0207104918557,-319.0272061775614L-578.9472722534057,-319.48668218184656L-588.6944209609231,-322.6689710327111z" style="fill:rgb(43,180,168)">
    </path>
    <path d="M-566.7450130849362,-464.6823366588946L-562.3971056818197,-445.7572289376104L-557.1811419546882,-457.0862164066135z" style="fill:rgb(167,41,160)">
    </path>
    <path d="M-562.3971056818197,-445.7572289376104L-550.8240448216367,-442.44140513067384L-557.1811419546882,-457.0862164066135z" style="fill:rgb(167,41,160)">
    </path>
    <path d="M-547.99280768047,-459.4103736130248L-550.8240448216367,-442.44140513067384L-529.4366868039156,-461.9025218742156z" style="fill:rgb(167,41,160)">
    </path>
    <path d="M-557.8757110485717,-473.1782206278343L-566.7450130849362,-464.6823366588946L-557.1811419546882,-457.0862164066135z" style="fill:rgb(167,41,160)">
    </path>
    <path d="M-557.8757110485717,-473.1782206278343L-547.99280768047,-459.4103736130248L-529.4366868039156,-461.9025218742156z" style="fill:rgb(167,41,160)">
    </path>
    <path d="M-671.3272560131734,-437.2709938600608L-557.1811419546883,-457.0862164066135" style="fill:none;stroke:rgb(167,41,160);stroke-width:5;stroke-linecap:round">
    </path>
    <path d="M-550.8240448216367,-442.44140513067384L-547.99280768047,-459.4103736130248L-557.1811419546882,-457.0862164066135z" style="fill:rgb(167,41,160)">
    </path>
    <path d="M-547.99280768047,-459.4103736130248L-557.8757110485717,-473.1782206278343L-557.1811419546882,-457.0862164066135z" style="fill:rgb(167,41,160)">
    </path>
    <path d="M-627.6065738663349,376.23868339067064L-671.3272560131734,-437.2709938600608L-744.0083122790021,-496.5210937758736z" style="fill:rgb(0,0,0); fill-opacity: 0.2">
    </path>
    <path d="M-638.1795744771533,-311.21311445831145L-654.1501593335494,-313.79847627865047L-654.7757828306851,-309.5033110515009z" style="fill:rgb(43,180,168)">
    </path>
    <path d="M-654.1501593335494,-313.79847627865047L-671.0000432323529,-310.4551980247537L-654.7757828306851,-309.5033110515009z" style="fill:rgb(43,180,168)">
    </path>
    <path d="M-638.1795744771533,-311.21311445831145L-645.0998777020977,-306.2392962549222L-653.0910317456468,-277.6202760670793z" style="fill:rgb(43,180,168)">
    </path>
    <path d="M-665.4775789161114,-305.76583921256895L-671.0000432323529,-310.4551980247537L-653.0910317456468,-277.6202760670793z" style="fill:rgb(43,180,168)">
    </path>
    <path d="M-661.6163126369261,-438.9567674470506L-654.7757828306852,-309.5033110515009" style="fill:none;stroke:rgb(43,180,168);stroke-width:5;stroke-linecap:round">
    </path>
    <path d="M-645.0998777020977,-306.2392962549222L-638.1795744771533,-311.21311445831145L-654.7757828306851,-309.5033110515009z" style="fill:rgb(43,180,168)">
    </path>
    <path d="M-671.0000432323529,-310.4551980247537L-665.4775789161114,-305.76583921256895L-654.7757828306851,-309.5033110515009z" style="fill:rgb(43,180,168)">
    </path>
    <path d="M-645.0998777020977,-306.2392962549222L-665.4775789161114,-305.76583921256895L-653.0910317456468,-277.6202760670793z" style="fill:rgb(43,180,168)">
    </path>
    <path d="M-665.4775789161114,-305.76583921256895L-645.0998777020977,-306.2392962549222L-654.7757828306851,-309.5033110515009z" style="fill:rgb(43,180,168)">
    </path>
    <path d="M-676.532860074894,-303.5597746804299L-692.5334888320456,-306.1826285021809L-693.3221147008755,-301.8235677083474z" style="fill:rgb(74,87,214)">
    </path>
    <path d="M-692.5334888320456,-306.1826285021809L-709.6386432282917,-302.78870062315383L-693.3221147008755,-301.8235677083474z" style="fill:rgb(74,87,214)">
    </path>
    <path d="M-676.532860074894,-303.5597746804299L-683.6901616681793,-298.51140131774116L-691.5093747682868,-269.72303073763754z" style="fill:rgb(74,87,214)">
    </path>
    <path d="M-704.2458329057704,-298.0296931235477L-709.6386432282917,-302.78870062315383L-691.5093747682868,-269.72303073763754z" style="fill:rgb(74,87,214)">
    </path>
    <path d="M-700.683149095579,-432.17495043117435L-693.3221147008757,-301.82356770834735" style="fill:none;stroke:rgb(74,87,214);stroke-width:5;stroke-linecap:round">
    </path>
    <path d="M-683.6901616681793,-298.51140131774116L-676.532860074894,-303.5597746804299L-693.3221147008755,-301.8235677083474z" style="fill:rgb(74,87,214)">
    </path>
    <path d="M-709.6386432282917,-302.78870062315383L-704.2458329057704,-298.0296931235477L-693.3221147008755,-301.8235677083474z" style="fill:rgb(74,87,214)">
    </path>
    <path d="M-683.6901616681793,-298.51140131774116L-704.2458329057704,-298.0296931235477L-691.5093747682868,-269.72303073763754z" style="fill:rgb(74,87,214)">
    </path>
    <path d="M-704.2458329057704,-298.0296931235477L-683.6901616681793,-298.51140131774116L-693.3221147008755,-301.8235677083474z" style="fill:rgb(74,87,214)">
    </path>
    <path d="M-705.6801268042124,-297.74348195871437L-721.7026822799246,-300.39500820024347L-722.6167704632214,-295.98707363315293z" style="fill:rgb(43,180,168)">
    </path>
    <path d="M-721.7026822799246,-300.39500820024347L-739.0031157154565,-296.9623339316624L-722.6167704632214,-295.98707363315293z" style="fill:rgb(43,180,168)">
    </path>
    <path d="M-705.6801268042124,-297.74348195871437L-713.0194004673565,-292.63807640966974L-720.7056069934363,-263.7214754794766z" style="fill:rgb(43,180,168)">
    </path>
    <path d="M-733.7105671106729,-292.1500502501775L-739.0031157154565,-296.9623339316624L-720.7056069934363,-263.7214754794766z" style="fill:rgb(43,180,168)">
    </path>
    <path d="M-730.378145841534,-427.0200402189988L-722.6167704632217,-295.98707363315305" style="fill:none;stroke:rgb(43,180,168);stroke-width:5;stroke-linecap:round">
    </path>
    <path d="M-713.0194004673565,-292.63807640966974L-705.6801268042124,-297.74348195871437L-722.6167704632214,-295.98707363315293z" style="fill:rgb(43,180,168)">
    </path>
    <path d="M-671.3272560131734,-437.2709938600608L-730.3781458415343,-427.02004021899864" style="fill:none;stroke:rgb(22,31,115);stroke-width:5;stroke-linecap:round">
    </path>
    <path d="M-671.3272560131734,-437.2709938600608L-744.0083122790021,-496.5210937758736" style="fill:none;stroke:rgb(0,0,0);stroke-width:1;stroke-linecap:round">
    </path>
    <path d="M-671.3272560131734,-437.2709938600608L-744.0083122790021,-496.5210937758736" style="fill:none;stroke:rgb(0,0,0);stroke-width:1;stroke-linecap:round">
    </path>
    <path d="M-739.0031157154565,-296.9623339316624L-733.7105671106729,-292.1500502501775L-722.6167704632214,-295.98707363315293z" style="fill:rgb(43,180,168)">
    </path>
    <path d="M-713.0194004673565,-292.63807640966974L-733.7105671106729,-292.1500502501775L-720.7056069934363,-263.7214754794766z" style="fill:rgb(43,180,168)">
    </path>
    <path d="M-733.7105671106729,-292.1500502501775L-713.0194004673565,-292.63807640966974L-722.6167704632214,-295.98707363315293z" style="fill:rgb(43,180,168)">
    </path>
    <path d="M-671.3272560131734,-437.2709938600608L-730.3781458415343,-427.02004021899864L-744.0083122790021,-496.5210937758736z" style="fill:rgb(0,0,0); fill-opacity: 0.2">
    </path>
    <path d="M-744.0083122790021,-496.5210937758736L-744.0083122790021,-496.5210937758736L-671.3272560131734,-437.2709938600608z" style="fill:rgb(0,0,0); fill-opacity: 0.2">
    </path>
    <path d="M-730.3781458415343,-427.02004021899864L-744.0083122790021,-496.5210937758736" style="fill:none;stroke:rgb(0,0,0);stroke-width:1;stroke-linecap:round">
    </path>
    <path d="M-730.3781458415343,-427.02004021899864L-744.0083122790021,-496.5210937758736" style="fill:none;stroke:rgb(0,0,0);stroke-width:1;stroke-linecap:round">
    </path>
    <path d="M-744.0083122790021,-496.5210937758736L-744.0083122790021,-496.5210937758736" style="fill:none;stroke:rgb(0,0,0);stroke-width:1;stroke-linecap:round">
    </path>
</svg>