<svg viewBox="-812 -590 1624 1180" width="1624" height="1180" style="background-color: rgb(255, 255, 255);"><path d="M15.83518316242262,197.08841355138054L61.873176476061026,-542.3929551490996M186.9086801934662,261.88127362653L15.83518316242262,197.08841355138054M186.90868019346615,261.88127362653L236.53496417775554,-481.8744823740089M128.85102523717248,295.6095556922287L186.90868019346615,261.88127362653" style="fill:none;stroke:rgb(0,0,0);stroke-width:1;stroke-linecap:round"></path><path d="M236.53496417775563,-481.8744823740089L186.9086801934662,261.88127362653L15.83518316242262,197.08841355138054z" style="fill:rgb(0,0,0); fill-opacity: 0.2"></path><path d="M171.01227294012892,-350.05393612983136L128.85102523717248,295.6095556922287" style="fill:none;stroke:rgb(58,110,14);stroke-width:5;stroke-linecap:round"></path><path d="M128.85102523717248,295.6095556922287L87.02811681342777,314.8553575359197M131.15740997748503,260.2892436510145L89.30337553208082,279.44988649315974M133.46795804333505,224.90517383576568L91.58275332698483,243.9803181968745M135.7826807179254,189.45717345386777L93.86626139389591,208.44647842906522" style="fill:none;stroke:rgb(128,207,62);stroke-width:5;stroke-linecap:round"></path><path d="M61.873176476061026,-542.3929551490996L15.83518316242262,197.08841355138054L236.53496417775563,-481.8744823740089z" style="fill:rgb(0,0,0); fill-opacity: 0.2"></path><path d="M87.52001167394835,307.2009448322275L80.95086717097428,310.107621917193L76.53444435651191,319.6842694487924zM90.48090427810672,322.5200270141758L93.4126382619796,314.874309067854L76.53444435651191,319.6842694487924zM93.4126382619796,314.874309067854L87.52001167394835,307.2009448322275L76.53444435651191,319.6842694487924z" style="fill:rgb(128,207,62)"></path><path d="M138.10158932526795,153.94506908775165L96.15391096918084,172.84819233978837" style="fill:none;stroke:rgb(128,207,62);stroke-width:5;stroke-linecap:round"></path><path d="M171.01227294012892,-350.05393612983136L128.85102523717248,295.6095556922287L186.90868019346615,261.88127362653z" style="fill:rgb(0,0,0); fill-opacity: 0.2"></path><path d="M89.79616059187903,271.78162133194814L83.22016463973519,274.7051140887709L78.80185896241505,284.25744712521083zM92.75929872655323,287.1212836293959L95.69441459430394,279.45731255364575L78.80185896241505,284.25744712521083zM95.69441459430394,279.45731255364575L89.79616059187903,271.78162133194814L78.80185896241505,284.25744712521083z" style="fill:rgb(128,207,62)"></path><path d="M140.42469523036848,118.36868669206582L98.44571333000133,137.18528444428813" style="fill:none;stroke:rgb(128,207,62);stroke-width:5;stroke-linecap:round"></path><path d="M92.0764310047861,236.29816294017564L85.49356954991774,239.23852751832197L81.07338142860267,248.76644225819402zM95.04181795190077,251.65845480096553L97.98032315015303,243.97617699824494L81.07338142860267,248.76644225819402zM97.98032315015303,243.97617699824494L92.0764310047861,236.29816294017564L81.07338142860267,248.76644225819402z" style="fill:rgb(128,207,62)"></path><path d="M142.7520098394116,82.7278515908328L100.74167979449919,101.45757862011246" style="fill:none;stroke:rgb(128,207,62);stroke-width:5;stroke-linecap:round"></path><path d="M94.36083411719613,200.75039530243478L87.77109306336209,203.70768807392082L83.34902292847184,213.2110802709578zM97.32847316546477,216.13136634197943L100.27037516468589,208.43072801313545L83.34902292847184,213.2110802709578zM100.27037516468589,208.43072801313545L94.36083411719613,200.75039530243478L83.34902292847184,213.2110802709578z" style="fill:rgb(128,207,62)"></path><path d="M145.08354459994837,47.022388474590464L103.04182172198288,65.66489810421389" style="fill:none;stroke:rgb(128,207,62);stroke-width:5;stroke-linecap:round"></path><path d="M236.53496417775563,-481.8744823740089L61.873176476061026,-542.3929551490996M61.873176476061026,-542.3929551490996L-372.4207538459606,-368.5958962108691M236.53496417775563,-481.8744823740089L61.873176476061026,-542.3929551490996" style="fill:none;stroke:rgb(0,0,0);stroke-width:1;stroke-linecap:round"></path><path d="M96.64938117428598,165.13814343168644L90.05274638238785,168.1124209921398L85.6287946759785,177.5911859530106zM99.61927561922796,180.5398434336972L102.5645819138284,172.8207905770314L85.6287946759785,177.5911859530106zM102.5645819138284,172.8207905770314L96.64938117428598,165.13814343168644L85.6287946759785,177.5911859530106z" style="fill:rgb(128,207,62)"></path><path d="M147.41931100108323,11.252121397517552L105.34615051311464,29.8070654900344" style="fill:none;stroke:rgb(128,207,62);stroke-width:5;stroke-linecap:round"></path><path d="M98.94208346206754,129.46123170545675L92.33854074997744,132.452550875183L87.91270792582192,141.90658345727573zM101.91423660602484,144.8837106226752L104.86295471445837,137.14618903300433L87.91270792582192,141.90658345727573zM104.86295471445837,137.14618903300433L98.94208346206754,129.46123170545675L87.91270792582192,141.90658345727573z" style="fill:rgb(128,207,62)"></path><path d="M149.75932057366313,-24.58312622545623L107.654677610099,-6.116097275425585" style="fill:none;stroke:rgb(128,207,62);stroke-width:5;stroke-linecap:round"></path><path d="M236.53496417775554,-481.8744823740089L186.90868019346615,261.88127362653L171.01227294012892,-350.05393612983136z" style="fill:rgb(0,0,0); fill-opacity: 0.2"></path><path d="M101.23895230757309,93.71948386294949L94.62848744996087,96.7279016880058L90.20077397362978,106.15709629719717zM104.21336745972734,109.162791817884L107.16550492459163,101.40674708559506L90.20077397362978,106.15709629719717zM107.16550492459163,101.40674708559506L101.23895230757309,93.71948386294949L90.20077397362978,106.15709629719717z" style="fill:rgb(128,207,62)"></path><path d="M152.10358489046712,-60.4835316215561L109.96741449687198,-42.104768894554326" style="fill:none;stroke:rgb(128,207,62);stroke-width:5;stroke-linecap:round"></path><path d="M103.53999907904182,57.91272300214385L96.92259780720147,60.93829675541804L92.49300415614441,70.34254734383045zM106.51667955543135,73.37691028780928L109.47224394356907,65.6022877979094L92.49300415614441,70.34254734383045zM109.47224394356907,65.6022877979094L103.53999907904182,57.91272300214385L92.49300415614441,70.34254734383045z" style="fill:rgb(128,207,62)"></path><path d="M241.14033976717423,-316.70493039151023L231.82098886532845,-318.52937995058556L234.11914250176767,-315.3384890432335z" style="fill:rgb(186,45,138)"></path><path d="M241.14033976717423,-316.70493039151023L231.82098886532845,-318.52937995058556L234.11914250176767,-315.3384890432335z" style="fill:rgb(41,170,178)"></path><path d="M231.82098886532845,-318.52937995058556L225.6752567903143,-315.9446346199729L234.11914250176767,-315.3384890432335z" style="fill:rgb(186,45,138)"></path><path d="M231.82098886532845,-318.52937995058556L225.6752567903143,-315.9446346199729L234.11914250176767,-315.3384890432335z" style="fill:rgb(41,170,178)"></path><path d="M154.45211556639717,-96.44927266308382L112.28437269929182,-78.15912872209205" style="fill:none;stroke:rgb(128,207,62);stroke-width:5;stroke-linecap:round"></path><path d="M238.32019572453794,-378.0946274991817L234.11914250176764,-315.33848904323344" style="fill:none;stroke:rgb(186,45,138);stroke-width:5;stroke-linecap:round"></path><path d="M238.32019572453794,-378.0946274991817L234.11914250176764,-315.33848904323344" style="fill:none;stroke:rgb(41,170,178);stroke-width:5;stroke-linecap:round"></path><path d="M240.76064625271673,-312.99025573716165L241.14033976717423,-316.70493039151023L234.11914250176767,-315.3384890432335z" style="fill:rgb(186,45,138)"></path><path d="M240.76064625271673,-312.99025573716165L241.14033976717423,-316.70493039151023L234.11914250176767,-315.3384890432335z" style="fill:rgb(41,170,178)"></path><path d="M231.19836970807094,-312.51958727317697L225.6752567903143,-315.9446346199729L233.07094623814922,-299.68033230003766z" style="fill:rgb(186,45,138)"></path><path d="M231.19836970807094,-312.51958727317697L225.6752567903143,-315.9446346199729L233.07094623814922,-299.68033230003766z" style="fill:rgb(41,170,178)"></path><path d="M240.76064625271673,-312.99025573716165L231.19836970807094,-312.51958727317697L233.07094623814922,-299.68033230003766z" style="fill:rgb(186,45,138)"></path><path d="M240.76064625271673,-312.99025573716165L231.19836970807094,-312.51958727317697L233.07094623814922,-299.68033230003766z" style="fill:rgb(41,170,178)"></path><path d="M225.6752567903143,-315.9446346199729L231.19836970807094,-312.51958727317697L234.11914250176767,-315.3384890432335z" style="fill:rgb(186,45,138)"></path><path d="M225.6752567903143,-315.9446346199729L231.19836970807094,-312.51958727317697L234.11914250176767,-315.3384890432335z" style="fill:rgb(41,170,178)"></path><path d="M231.19836970807094,-312.51958727317697L240.76064625271673,-312.99025573716165L234.11914250176767,-315.3384890432335z" style="fill:rgb(186,45,138)"></path><path d="M231.19836970807094,-312.51958727317697L240.76064625271673,-312.99025573716165L234.11914250176767,-315.3384890432335z" style="fill:rgb(41,170,178)"></path><path d="M105.84523518610759,22.040771576875734L99.22088318778252,25.083558759171492L94.78940985141001,34.46275882291688zM108.82418430964438,37.52588865753726L111.78318321224482,29.73263358869851L94.78940985141001,34.46275882291688zM111.78318321224482,29.73263358869851L105.84523518610759,22.040771576875734L94.78940985141001,34.46275882291688z" style="fill:rgb(128,207,62)"></path><path d="M156.80492425867013,-132.48052787035544L114.60556378533008,-114.27935676811032" style="fill:none;stroke:rgb(128,207,62);stroke-width:5;stroke-linecap:round"></path><path d="M108.15467207998718,-13.896548606096818L101.52335499919491,-10.836490264968539L97.09000247896095,-1.4824476880575663zM111.13589318047418,1.6095489058240935L114.09833421317536,-6.202393770577164L97.09000247896095,-1.4824476880575663z" style="fill:rgb(128,207,62)"></path><path d="M217.8885032620927,-306.91643642838005L208.55822651027538,-308.7456282932633L210.84982003152888,-305.5452181923015z" style="fill:rgb(41,170,178)"></path><path d="M114.09833421317536,-6.202393770577164L108.15467207998718,-13.896548606096818L97.09000247896095,-1.4824476880575663z" style="fill:rgb(128,207,62)"></path><path d="M208.55822651027538,-308.7456282932633L202.39249630492046,-306.15247223576097L210.84982003152888,-305.5452181923015z" style="fill:rgb(41,170,178)"></path><path d="M238.32019572453794,-378.0946274991817L171.01227294012892,-350.05393612983136" style="fill:none;stroke:rgb(97,2,64);stroke-width:5;stroke-linecap:round"></path><path d="M238.32019572453794,-378.0946274991817L236.53496417775554,-481.8744823740089" style="fill:none;stroke:rgb(0,0,0);stroke-width:1;stroke-linecap:round"></path><path d="M-193.00823278743997,-198.40185371575257L238.32019572453794,-378.0946274991817" style="fill:none;stroke:rgb(0,86,91);stroke-width:5;stroke-linecap:round"></path><path d="M238.32019572453794,-378.0946274991817L236.53496417775554,-481.8744823740089" style="fill:none;stroke:rgb(0,0,0);stroke-width:1;stroke-linecap:round"></path><path d="M215.02094568504128,-368.38808698407036L210.8498200315288,-305.54521819230143" style="fill:none;stroke:rgb(41,170,178);stroke-width:5;stroke-linecap:round"></path><path d="M217.4955782248676,-303.19040967137687L217.8885032620927,-306.91643642838005L210.84982003152888,-305.5452181923015zM207.91417197801306,-302.71746997086444L202.39249630492046,-306.15247223576097L209.80909427081556,-289.86547179731036z" style="fill:rgb(41,170,178)"></path><path d="M159.1620226670102,-168.5774764146548L116.93099936526444,-150.46563370100804" style="fill:none;stroke:rgb(128,207,62);stroke-width:5;stroke-linecap:round"></path><path d="M217.4955782248676,-303.19040967137687L207.91417197801306,-302.71746997086444L209.80909427081556,-289.86547179731036zM202.39249630492046,-306.15247223576097L207.91417197801306,-302.71746997086444L210.84982003152888,-305.5452181923015zM207.91417197801306,-302.71746997086444L217.4955782248676,-303.19040967137687L210.84982003152888,-305.5452181923015z" style="fill:rgb(41,170,178)"></path><path d="M207.63372886881947,-302.59940980470327L198.2986378373972,-304.43069500418574L200.58732752541448,-301.2260821776375z" style="fill:rgb(186,45,138)"></path><path d="M110.46832125367015,-49.89941639004415L103.83002469052606,-46.82202893016752L99.39479350001095,-37.49325126281995z" style="fill:rgb(128,207,62)"></path><path d="M198.2986378373972,-304.43069500418574L192.12407751893707,-301.8338252160263L200.58732752541448,-301.2260821776375z" style="fill:rgb(186,45,138)"></path><path d="M113.45181766781818,-34.3722876378507L116.4177084708098,-42.20297315869968L99.39479350001095,-37.49325126281995zM116.4177084708098,-42.20297315869968L110.46832125367015,-49.89941639004415L99.39479350001095,-37.49325126281995z" style="fill:rgb(128,207,62)"></path><path d="M204.7452162079982,-364.1071859111964L200.58732752541448,-301.2260821776375" style="fill:none;stroke:rgb(186,45,138);stroke-width:5;stroke-linecap:round"></path><path d="M207.23495530519395,-298.8683709379633L207.63372886881947,-302.59940980470327L200.58732752541448,-301.2260821776375zM197.6451085693526,-298.39442799692375L192.12407751893707,-301.8338252160263L199.54990595040465,-285.53681806941955zM207.23495530519395,-298.8683709379633L197.6451085693526,-298.39442799692375L199.54990595040465,-285.53681806941955zM192.12407751893707,-301.8338252160263L197.6451085693526,-298.39442799692375L200.58732752541448,-301.2260821776375zM197.6451085693526,-298.39442799692375L207.23495530519395,-298.8683709379633L200.58732752541448,-301.2260821776375z" style="fill:rgb(186,45,138)"></path><path d="M161.52342253384336,-204.74029812120347L119.26069109187218,-186.71814085052353" style="fill:none;stroke:rgb(128,207,62);stroke-width:5;stroke-linecap:round"></path><path d="M194.56094647856577,-297.09606595139735L185.21972207141258,-298.93002135896677L187.50470052767497,-295.7200469334036z" style="fill:rgb(41,170,178)"></path><path d="M236.53496417775554,-481.8744823740089L236.53496417775554,-481.8744823740089L238.32019572453794,-378.0946274991817z" style="fill:rgb(0,0,0); fill-opacity: 0.2"></path><path d="M112.78619424210962,-85.96801127123179L106.14090375264942,-82.87323650148234L101.70379441764362,-73.56983162928412z" style="fill:rgb(128,207,62)"></path><path d="M185.21972207141258,-298.93002135896677L179.03389596619186,-296.3284134550923L187.50470052767497,-295.7200469334036z" style="fill:rgb(41,170,178)"></path><path d="M115.77196931355448,-70.41980029624696L118.74131755168085,-78.26928410766182L101.70379441764362,-73.56983162928412zM118.74131755168085,-78.26928410766182L112.78619424210962,-85.96801127123179L101.70379441764362,-73.56983162928412z" style="fill:rgb(128,207,62)"></path><path d="M191.64568100468873,-358.64987853158084L187.5047005276749,-295.72004693340364" style="fill:none;stroke:rgb(41,170,178);stroke-width:5;stroke-linecap:round"></path><path d="M194.15470566170305,-293.35863278225247L194.56094647856577,-297.09606595139735L187.50470052767497,-295.7200469334036zM184.55409570773656,-292.8834095300949L179.03389596619186,-296.3284134550923L186.4714995271743,-280.01865318632093zM194.15470566170305,-293.35863278225247L184.55409570773656,-292.8834095300949L186.4714995271743,-280.01865318632093zM179.03389596619186,-296.3284134550923L184.55409570773656,-292.8834095300949L187.50470052767497,-295.7200469334036zM184.55409570773656,-292.8834095300949L194.15470566170305,-293.35863278225247L187.50470052767497,-295.7200469334036z" style="fill:rgb(41,170,178)"></path><path d="M163.8891356444921,-240.9691734721472L121.59465066062481,-223.03706021076349" style="fill:none;stroke:rgb(128,207,62);stroke-width:5;stroke-linecap:round"></path><path d="M171.01227294012892,-350.05393612983136L236.53496417775554,-481.8744823740089M236.53496417775554,-481.8744823740089L236.53496417775554,-481.8744823740089M171.01227294012892,-350.05393612983136L236.53496417775554,-481.8744823740089M236.53496417775554,-481.8744823740089L-195.81113235300148,-304.9161450821412" style="fill:none;stroke:rgb(0,0,0);stroke-width:1;stroke-linecap:round"></path><path d="M238.32019572453794,-378.0946274991817L171.01227294012892,-350.05393612983136L236.53496417775554,-481.8744823740089z" style="fill:rgb(0,0,0); fill-opacity: 0.2"></path><path d="M115.10830262241346,-122.10251340190334L108.45600371841554,-118.99029289883796L104.0170167770036,-109.71236917254066zM118.09635970173353,-106.53316904734292L121.06917306459736,-114.40150680565141L104.0170167770036,-109.71236917254066zM121.06917306459736,-114.40150680565141L115.10830262241346,-122.10251340190334L104.0170167770036,-109.71236917254066z" style="fill:rgb(128,207,62)"></path><path d="M166.25917382737134,-277.2642836095578L123.93288980988379,-259.4225744432484" style="fill:none;stroke:rgb(128,207,62);stroke-width:5;stroke-linecap:round"></path><path d="M173.9697665487659,-288.4276478506368L164.6188901363917,-290.26581284794713L166.8980015368532,-287.0473842540818zM164.6188901363917,-290.26581284794713L158.415298257534,-287.6567330920796L166.8980015368532,-287.0473842540818z" style="fill:rgb(186,45,138)"></path><path d="M171.15729893543516,-287.2436629964267L161.80510502838874,-289.0824033158546L164.08341303638602,-285.8628191446228z" style="fill:rgb(41,170,178)"></path><path d="M171.01227294012892,-350.05393612983136L166.8980015368532,-287.04738425408186" style="fill:none;stroke:rgb(186,45,138);stroke-width:5;stroke-linecap:round"></path><path d="M173.55173766099213,-284.6801318355298L173.9697665487659,-288.4276478506368L166.8980015368532,-287.0473842540818zM163.93416689482382,-284.2028888038606L158.415298257534,-287.6567330920796L165.871467534201,-271.32689293237894z" style="fill:rgb(186,45,138)"></path><path d="M161.80510502838874,-289.0824033158546L155.5990846154188,-286.47230217764724L164.08341303638602,-285.8628191446228z" style="fill:rgb(41,170,178)"></path><path d="M173.55173766099213,-284.6801318355298L163.93416689482382,-284.2028888038606L165.871467534201,-271.32689293237894zM158.415298257534,-287.6567330920796L163.93416689482382,-284.2028888038606L166.8980015368532,-287.0473842540818z" style="fill:rgb(186,45,138)"></path><path d="M117.43465801403755,-158.30310359328004L110.77533616284377,-155.17337870002066L106.33447216548916,-145.92104493786348z" style="fill:rgb(128,207,62)"></path><path d="M168.194029074908,-348.8798469118153L164.08341303638596,-285.8628191446229" style="fill:none;stroke:rgb(41,170,178);stroke-width:5;stroke-linecap:round"></path><path d="M170.73765746795263,-283.4947687548996L171.15729893543516,-287.2436629964267L164.08341303638602,-285.8628191446228zM161.11776938243128,-283.017249551589L155.5990846154188,-286.47230217764724L163.05779146556833,-270.1397201246303z" style="fill:rgb(41,170,178)"></path><path d="M163.93416689482382,-284.2028888038606L173.55173766099213,-284.6801318355298L166.8980015368532,-287.0473842540818z" style="fill:rgb(186,45,138)"></path><path d="M120.4250004587707,-142.71257452733056L123.40128666083763,-150.5998221000521L106.33447216548916,-145.92104493786348z" style="fill:rgb(128,207,62)"></path><path d="M170.73765746795263,-283.4947687548996L161.11776938243128,-283.017249551589L163.05779146556833,-270.1397201246303zM155.5990846154188,-286.47230217764724L161.11776938243128,-283.017249551589L164.08341303638602,-285.8628191446228z" style="fill:rgb(41,170,178)"></path><path d="M123.40128666083763,-150.5998221000521L117.43465801403755,-158.30310359328004L106.33447216548916,-145.92104493786348z" style="fill:rgb(128,207,62)"></path><path d="M161.11776938243128,-283.017249551589L170.73765746795263,-283.4947687548996L164.08341303638602,-285.8628191446228z" style="fill:rgb(41,170,178)"></path><path d="M168.63354895418607,-313.625810338453L126.27542032109731,-295.87486687997483" style="fill:none;stroke:rgb(128,207,62);stroke-width:5;stroke-linecap:round"></path><path d="M119.76527207897945,-194.56996331857644L113.09891270331515,-191.42267514368743L108.6561722129455,-182.1960406337327zM122.75790325364042,-178.95819803362727L125.73767003434352,-186.86441150046073L108.6561722129455,-182.1960406337327zM125.73767003434352,-186.86441150046073L119.76527207897945,-194.56996331857644L108.6561722129455,-182.1960406337327z" style="fill:rgb(128,207,62)"></path><path d="M171.01227294012892,-350.0539361298311L128.6222540189983,-332.39412152649453" style="fill:none;stroke:rgb(128,207,62);stroke-width:5;stroke-linecap:round"></path><path d="M147.6771877306939,-277.35907058021013L138.31400244018926,-279.20261731401274L140.585584179269,-275.9733776836214zM138.31400244018926,-279.20261731401274L132.08768866800972,-276.5839812828392L140.585584179269,-275.9733776836214z" style="fill:rgb(41,170,178)"></path><path d="M144.66561484787115,-339.07783587867436L140.585584179269,-275.9733776836215" style="fill:none;stroke:rgb(41,170,178);stroke-width:5;stroke-linecap:round"></path><path d="M147.24406012216215,-273.5986602524581L147.6771877306939,-277.35907058021013L140.585584179269,-275.9733776836214zM137.60481905798557,-273.1188326133863L132.08768866800972,-276.5839812828392L139.56759712342108,-260.22851524834215zM147.24406012216215,-273.5986602524581L137.60481905798557,-273.1188326133863L139.56759712342108,-260.22851524834215zM132.08768866800972,-276.5839812828392L137.60481905798557,-273.1188326133863L140.585584179269,-275.9733776836214z" style="fill:rgb(41,170,178)"></path><path d="M-123.26823435682792,403.9773557623265L-121.38801857484647,413.56408294766345L-117.14757323913153,408.81163700450566z" style="fill:rgb(112,56,202)"></path><path d="M-372.4207538459606,-368.5958962108691L-411.5493988822459,389.33152890779525M-238.6197970905455,457.4904698464629L-411.5493988822459,389.33152890779525" style="fill:none;stroke:rgb(0,0,0);stroke-width:1;stroke-linecap:round"></path><path d="M122.100156521973,-230.90327471603297L115.4267449997666,-227.73836413239187L110.98212859185954,-218.53753863487424z" style="fill:rgb(128,207,62)"></path><path d="M-110.74029986618403,408.86189181292906L-113.64721599871417,416.5850999484788L-106.37116871306561,403.8526192337959zM-121.38801857484647,413.56408294766345L-113.64721599871417,416.5850999484788L-117.14757323913153,408.81163700450566z" style="fill:rgb(112,56,202)"></path><path d="M137.60481905798557,-273.1188326133863L147.24406012216215,-273.5986602524581L140.585584179269,-275.9733776836214z" style="fill:rgb(41,170,178)"></path><path d="M-116.68921421170596,401.0677332681125L-110.74029986618403,408.86189181292906L-106.37116871306561,403.8526192337959z" style="fill:rgb(112,56,202)"></path><path d="M125.09507979807086,-215.27022152790423L128.07833492191628,-223.19545718172066L110.98212859185954,-218.53753863487424z" style="fill:rgb(128,207,62)"></path><path d="M-116.68921421170596,401.0677332681125L-123.26823435682792,403.9773557623265L-117.14757323913153,408.81163700450566z" style="fill:rgb(112,56,202)"></path><path d="M-160.41218989483446,428.7208750365067L-117.14757323913152,408.81163700450566" style="fill:none;stroke:rgb(112,56,202);stroke-width:5;stroke-linecap:round"></path><path d="M128.07833492191628,-223.19545718172066L122.100156521973,-230.90327471603297L110.98212859185954,-218.53753863487424z" style="fill:rgb(128,207,62)"></path><path d="M-113.64721599871417,416.5850999484788L-110.74029986618403,408.86189181292906L-117.14757323913153,408.81163700450566zM-110.74029986618403,408.86189181292906L-116.68921421170596,401.0677332681125L-117.14757323913153,408.81163700450566zM-121.15412741293643,368.1605973786333L-119.27243928501197,377.76037568153976L-115.02741322667214,372.99186678104036z" style="fill:rgb(112,56,202)"></path><path d="M124.43932309068467,-267.3032205919647L117.75884475488567,-264.12062823562735L113.31235301755522,-254.9457219853164z" style="fill:rgb(128,207,62)"></path><path d="M-108.61356048547563,373.0303248896219L-111.52383320890375,380.77224984098746L-104.2426921102583,368.05465601505557zM-119.27243928501197,377.76037568153976L-111.52383320890375,380.77224984098746L-115.02741322667214,372.99186678104036zM-114.56821295894017,365.23375042187337L-108.61356048547563,373.0303248896219L-104.2426921102583,368.05465601505557z" style="fill:rgb(112,56,202)"></path><path d="M127.43654184674003,-251.64882763913135L130.42329310341282,-259.5931419869732L113.31235301755522,-254.9457219853164z" style="fill:rgb(128,207,62)"></path><path d="M-114.56821295894017,365.23375042187337L-121.15412741293643,368.1605973786333L-115.02741322667214,372.99186678104036z" style="fill:rgb(112,56,202)"></path><path d="M-158.3255653190966,392.8136220541195L-115.02741322667211,372.99186678104036" style="fill:none;stroke:rgb(112,56,202);stroke-width:5;stroke-linecap:round"></path><path d="M130.42329310341282,-259.5931419869732L124.43932309068467,-267.3032205919647L113.31235301755522,-254.9457219853164z" style="fill:rgb(128,207,62)"></path><path d="M-111.52383320890375,380.77224984098746L-108.61356048547563,373.0303248896219L-115.02741322667214,372.99186678104036z" style="fill:rgb(112,56,202)"></path><path d="M124.12023752168044,-267.44213069202993L114.74603892533584,-269.29050547712797L117.01083813351654,-266.05156437928997z" style="fill:rgb(41,170,178)"></path><path d="M-108.61356048547563,373.0303248896219L-114.56821295894017,365.23375042187337L-115.02741322667214,372.99186678104036z" style="fill:rgb(112,56,202)"></path><path d="M114.74603892533584,-269.29050547712797L108.49933209363964,-266.66329262146553L117.01083813351654,-266.05156437928997z" style="fill:rgb(41,170,178)"></path><path d="M121.06006081650095,-329.24368816152776L117.01083813351653,-266.0515643792901" style="fill:none;stroke:rgb(41,170,178);stroke-width:5;stroke-linecap:round"></path><path d="M123.673537656834,-263.67014890773135L124.12023752168044,-267.44213069202993L117.01083813351654,-266.05156437928997zM114.01486834109775,-263.18800026247374L108.49933209363964,-266.66329262146553L116.00054109743286,-250.28488016374718zM123.673537656834,-263.67014890773135L114.01486834109775,-263.18800026247374L116.00054109743286,-250.28488016374718zM108.49933209363964,-266.66329262146553L114.01486834109775,-263.18800026247374L117.01083813351654,-266.05156437928997zM114.01486834109775,-263.18800026247374L123.673537656834,-263.67014890773135L117.01083813351654,-266.05156437928997z" style="fill:rgb(41,170,178)"></path><path d="M-119.03613979510655,332.27809342742273L-117.15297708105682,341.89095463140364L-112.90336061943634,337.10633178055605z" style="fill:rgb(112,56,202)"></path><path d="M126.78278357591033,-303.76998442382785L120.09522371430678,-300.56965069288594L115.64685724839055,-291.4207744014627z" style="fill:rgb(128,207,62)"></path><path d="M-106.48291513817271,337.13294976024014L-109.39655188451682,344.8936472770403L-102.11031052105854,332.19101645340265zM-117.15297708105682,341.89095463140364L-109.39655188451682,344.8936472770403L-112.90336061943634,337.10633178055605zM-112.44331679333992,329.33396363538895L-106.48291513817271,337.13294976024014L-102.11031052105854,332.19101645340265z" style="fill:rgb(112,56,202)"></path><path d="M129.78230119747295,-288.0941996666392L132.77255640194346,-296.05764943072404L115.64685724839055,-291.4207744014627z" style="fill:rgb(128,207,62)"></path><path d="M-112.44331679333992,329.33396363538895L-119.03613979510655,332.27809342742273L-112.90336061943634,337.10633178055605z" style="fill:rgb(112,56,202)"></path><path d="M-156.2350983936936,356.8402487820172L-112.90336061943631,337.10633178055605" style="fill:none;stroke:rgb(112,56,202);stroke-width:5;stroke-linecap:round"></path><path d="M132.77255640194346,-296.05764943072404L126.78278357591033,-303.76998442382785L115.64685724839055,-291.4207744014627z" style="fill:rgb(128,207,62)"></path><path d="M-109.39655188451682,344.8936472770403L-106.48291513817271,337.13294976024014L-112.90336061943634,337.10633178055605zM-106.48291513817271,337.13294976024014L-112.44331679333992,329.33396363538895L-112.90336061943634,337.10633178055605zM-116.91426080842177,296.3296627176541L-115.02962126316649,305.9556387153957L-110.7754046874203,301.15485072132526z" style="fill:rgb(112,56,202)"></path><path d="M129.1305498117734,-340.3037503633019L122.43589366680847,-337.085615416735L117.9856530859551,-327.96288027518233z" style="fill:rgb(128,207,62)"></path><path d="M-104.34835305384551,301.1695849632573L-107.2653612791136,308.9491110078106L-99.97401318923829,296.26151964430994zM-115.02962126316649,305.9556387153957L-107.2653612791136,308.9491110078106L-110.7754046874203,301.15485072132526zM-110.31451497637704,293.3681914829126L-104.34835305384551,301.1695849632573L-99.97401318923829,296.26151964430994z" style="fill:rgb(112,56,202)"></path><path d="M100.48607050507844,-257.4926842852887L91.10083664189123,-259.3459088940775L93.35879661187009,-256.0972200233154z" style="fill:rgb(41,170,178)"></path><path d="M132.13236969143946,-324.6065215831975L135.12613668407045,-332.5891637019279L117.9856530859551,-327.96288027518233z" style="fill:rgb(128,207,62)"></path><path d="M-110.31451497637704,293.3681914829126L-116.91426080842177,296.3296627176541L-110.7754046874203,301.15485072132526z" style="fill:rgb(112,56,202)"></path><path d="M-154.14077849578263,320.8005724191792L-110.7754046874203,301.1548507213253" style="fill:none;stroke:rgb(112,56,202);stroke-width:5;stroke-linecap:round"></path><path d="M91.10083664189123,-259.3459088940775L84.83363639620299,-256.7100770072765L93.35879661187009,-256.0972200233154z" style="fill:rgb(41,170,178)"></path><path d="M135.12613668407045,-332.5891637019279L129.1305498117734,-340.3037503633019L117.9856530859551,-327.96288027518233z" style="fill:rgb(128,207,62)"></path><path d="M-107.2653612791136,308.9491110078106L-104.34835305384551,301.1695849632573L-110.7754046874203,301.15485072132526zM-104.34835305384551,301.1695849632573L-110.31451497637704,293.3681914829126L-110.7754046874203,301.15485072132526z" style="fill:rgb(112,56,202)"></path><path d="M-160.41218989483448,428.7208750365069L-122.2562782892301,-227.87733948014449" style="fill:none;stroke:rgb(47,10,107);stroke-width:5;stroke-linecap:round"></path><path d="M-160.41218989483448,428.7208750365069L-238.61979709054555,457.4904698464628" style="fill:none;stroke:rgb(0,0,0);stroke-width:1;stroke-linecap:round"></path><path d="M97.37698699428081,-319.3772454568029L93.35879661187003,-256.09722002331546" style="fill:none;stroke:rgb(41,170,178);stroke-width:5;stroke-linecap:round"></path><path d="M100.02571163837119,-253.70907531473821L100.48607050507844,-257.4926842852887L93.35879661187009,-256.0972200233154zM90.34753836919143,-253.22459300632917L84.83363639620299,-256.7100770072765L92.35624552358215,-240.30865543888498zM100.02571163837119,-253.70907531473821L90.34753836919143,-253.22459300632917L92.35624552358215,-240.30865543888498zM84.83363639620299,-256.7100770072765L90.34753836919143,-253.22459300632917L93.35879661187009,-256.0972200233154zM90.34753836919143,-253.22459300632917L100.02571163837119,-253.70907531473821L93.35879661187009,-256.0972200233154z" style="fill:rgb(41,170,178)"></path><path d="M-114.78847971863019,260.3151233918715L-112.9023610921773,269.9542461857218L-108.64353466114756,265.13724165473326zM-102.20986342242959,265.1400483693776L-105.13025060672065,272.9384591177007L-97.83378931902952,260.26598401824157zM-112.9023610921773,269.9542461857218L-105.13025060672065,272.9384591177007L-108.64353466114756,265.13724165473326zM-108.1817967300112,257.3362518711473L-102.20986342242959,265.1400483693776L-97.83378931902952,260.26598401824157zM-108.1817967300112,257.3362518711473L-114.78847971863019,260.3151233918715L-108.64353466114756,265.13724165473326z" style="fill:rgb(112,56,202)"></path><path d="M-152.04259496332656,284.6944094901163L-108.64353466114754,265.13724165473326" style="fill:none;stroke:rgb(112,56,202);stroke-width:5;stroke-linecap:round"></path><path d="M-105.13025060672065,272.9384591177007L-102.20986342242959,265.1400483693776L-108.64353466114756,265.13724165473326zM-102.20986342242959,265.1400483693776L-108.1817967300112,257.3362518711473L-108.64353466114756,265.13724165473326z" style="fill:rgb(112,56,202)"></path><path d="M76.77430639671921,-247.5105712690064L67.37801526726714,-249.36866761043754L69.62907884238635,-246.11018436166464z" style="fill:rgb(41,170,178)"></path><path d="M-112.65878575196322,224.2342929231375L-110.77118578939574,233.88659462558974L-106.50773973148684,229.05332196220763z" style="fill:rgb(112,56,202)"></path><path d="M67.37801526726714,-249.36866761043754L61.09022059356918,-246.72417420846065L69.62907884238635,-246.11018436166464z" style="fill:rgb(41,170,178)"></path><path d="M-100.0674353940434,229.0441571784596L-102.99120904164904,236.8615090212737L-95.68962807494216,224.20422733759386z" style="fill:rgb(112,56,202)"></path><path d="M-195.81113235300145,-304.91614508214116L236.53496417775563,-481.8744823740089L61.873176476061026,-542.3929551490996z" style="fill:rgb(0,0,0); fill-opacity: 0.2"></path><path d="M-110.77118578939574,233.88659462558974L-102.99120904164904,236.8615090212737L-106.50773973148684,229.05332196220763zM-106.04515123650812,221.2379620361729L-100.0674353940434,229.0441571784596L-95.68962807494216,224.20422733759386z" style="fill:rgb(112,56,202)"></path><path d="M73.61601089486548,-309.47834841949077L69.62907884238633,-246.11018436166466" style="fill:none;stroke:rgb(41,170,178);stroke-width:5;stroke-linecap:round"></path><path d="M-106.04515123650812,221.2379620361729L-112.65878575196322,224.2342929231375L-106.50773973148684,229.05332196220763z" style="fill:rgb(112,56,202)"></path><path d="M-149.94053709491303,248.52157584175734L-106.50773973148682,229.05332196220763" style="fill:none;stroke:rgb(112,56,202);stroke-width:5;stroke-linecap:round"></path><path d="M76.30020114682436,-243.71527902018178L76.77430639671921,-247.5105712690064L69.62907884238635,-246.11018436166464zM66.6024477901332,-243.2284503043841L61.09022059356918,-246.72417420846065L68.63433005693092,-230.2996805950236zM76.30020114682436,-243.71527902018178L66.6024477901332,-243.2284503043841L68.63433005693092,-230.2996805950236z" style="fill:rgb(41,170,178)"></path><path d="M-102.99120904164904,236.8615090212737L-100.0674353940434,229.0441571784596L-106.50773973148684,229.05332196220763z" style="fill:rgb(112,56,202)"></path><path d="M61.09022059356918,-246.72417420846065L66.6024477901332,-243.2284503043841L69.62907884238635,-246.11018436166464z" style="fill:rgb(41,170,178)"></path><path d="M-100.0674353940434,229.0441571784596L-106.04515123650812,221.2379620361729L-106.50773973148684,229.05332196220763z" style="fill:rgb(112,56,202)"></path><path d="M66.6024477901332,-243.2284503043841L76.30020114682436,-243.71527902018178L69.62907884238635,-246.11018436166464z" style="fill:rgb(41,170,178)"></path><path d="M-110.52516809495359,188.086988111949L-108.63608453641635,197.75250094612835L-104.36800904946979,192.90290835213273zM-97.92105807880456,192.88172791642563L-100.84822571831138,200.71807746016717L-93.5415185815812,188.07606669362005zM-108.63608453641635,197.75250094612835L-100.84822571831138,200.71807746016717L-104.36800904946979,192.90290835213273zM-103.9045676382567,185.07313854035547L-97.92105807880456,192.88172791642563L-93.5415185815812,188.07606669362005z" style="fill:rgb(112,56,202)"></path><path d="M-193.00823278743997,-198.40185371575257L238.32019572453794,-378.0946274991817L236.53496417775554,-481.8744823740089z" style="fill:rgb(0,0,0); fill-opacity: 0.2"></path><path d="M-103.9045676382567,185.07313854035547L-110.52516809495359,188.086988111949L-104.36800904946979,192.90290835213273z" style="fill:rgb(112,56,202)"></path><path d="M-147.83459414957227,212.28188664031845L-104.36800904946976,192.90290835213273" style="fill:none;stroke:rgb(112,56,202);stroke-width:5;stroke-linecap:round"></path><path d="M-100.84822571831138,200.71807746016717L-97.92105807880456,192.88172791642563L-104.36800904946979,192.90290835213273zM-97.92105807880456,192.88172791642563L-103.9045676382567,185.07313854035547L-104.36800904946979,192.90290835213273z" style="fill:rgb(112,56,202)"></path><path d="M52.9845624111852,-237.4956304992345L43.577191977832996,-239.35862061990656L45.821301548003625,-236.0902960859848zM43.577191977832996,-239.35862061990656L37.268701197137936,-236.70542293904637L45.821301548003625,-236.0902960859848z" style="fill:rgb(41,170,178)"></path><path d="M49.77674751148984,-299.54683665456764L45.8213015480036,-236.0902960859848" style="fill:none;stroke:rgb(41,170,178);stroke-width:5;stroke-linecap:round"></path><path d="M52.496622755438686,-233.68859851483413L52.9845624111852,-237.4956304992345L45.821301548003625,-236.0902960859848zM42.779212741749944,-233.19941055940012L37.268701197137936,-236.70542293904637L44.83441185122971,-220.25779409805375z" style="fill:rgb(41,170,178)"></path><path d="M-108.38761589425255,151.8730250831371L-106.49704647493853,161.55178138328927L-102.22433172610715,156.68581685674593zM-95.7707205466456,156.65257643215287L-98.70128973103783,164.50798049999048L-91.38944992346305,151.88131850333787zM-106.49704647493853,161.55178138328927L-98.70128973103783,164.50798049999048L-102.22433172610715,156.68581685674593z" style="fill:rgb(112,56,202)"></path><path d="M52.496622755438686,-233.68859851483413L42.779212741749944,-233.19941055940012L44.83441185122971,-220.25779409805375z" style="fill:rgb(41,170,178)"></path><path d="M-101.76003503758503,148.84159726924062L-95.7707205466456,156.65257643215287L-91.38944992346305,151.88131850333787z" style="fill:rgb(112,56,202)"></path><path d="M37.268701197137936,-236.70542293904637L42.779212741749944,-233.19941055940012L45.821301548003625,-236.0902960859848z" style="fill:rgb(41,170,178)"></path><path d="M-101.76003503758503,148.84159726924062L-108.38761589425255,151.8730250831371L-102.22433172610715,156.68581685674593z" style="fill:rgb(112,56,202)"></path><path d="M-145.72475534659443,175.97515636815456L-102.22433172610714,156.68581685674593" style="fill:none;stroke:rgb(112,56,202);stroke-width:5;stroke-linecap:round"></path><path d="M42.779212741749944,-233.19941055940012L52.496622755438686,-233.68859851483413L45.821301548003625,-236.0902960859848z" style="fill:rgb(41,170,178)"></path><path d="M-98.70128973103783,164.50798049999048L-95.7707205466456,156.65257643215287L-102.22433172610715,156.68581685674593zM-95.7707205466456,156.65257643215287L-101.76003503758503,148.84159726924062L-102.22433172610715,156.68581685674593zM-106.2461182564457,115.59221928274914L-104.35406070658254,125.28425149473155L-100.07669683220404,120.4018628290168zM-93.61641182712833,120.35651789434746L-96.55039013389111,128.23103352720454L-89.23341114483041,115.61979850642zM-104.35406070658254,125.28425149473155L-96.55039013389111,128.23103352720454L-100.07669683220404,120.4018628290168zM-99.6115424965754,112.54315342842855L-93.61641182712833,120.35651789434746L-89.23341114483041,115.61979850642z" style="fill:rgb(112,56,202)"></path><path d="M-195.81113235300148,-304.9161450821412L-238.61979709054555,457.4904698464628" style="fill:none;stroke:rgb(0,0,0);stroke-width:1;stroke-linecap:round"></path><path d="M-99.6115424965754,112.54315342842855L-106.2461182564457,115.59221928274914L-100.07669683220404,120.4018628290168z" style="fill:rgb(112,56,202)"></path><path d="M-143.61100986534544,139.60119882059416L-100.076696832204,120.40186282901679" style="fill:none;stroke:rgb(112,56,202);stroke-width:5;stroke-linecap:round"></path><path d="M-96.55039013389111,128.23103352720454L-93.61641182712833,120.35651789434746L-100.07669683220404,120.4018628290168zM-93.61641182712833,120.35651789434746L-99.6115424965754,112.54315342842855L-100.07669683220404,120.4018628290168z" style="fill:rgb(112,56,202)"></path><path d="M29.11645324121154,-227.44769977038382L19.697981428323086,-229.31560585564455L21.935078925906016,-226.03739282491873zM19.697981428323086,-229.31560585564455L13.368692191193238,-226.6536608502186L21.935078925906016,-226.03739282491873z" style="fill:rgb(41,170,178)"></path><path d="M25.858809296174055,-289.58254870833173L21.935078925905994,-226.0373928249187" style="fill:none;stroke:rgb(41,170,178);stroke-width:5;stroke-linecap:round"></path><path d="M28.6145905099983,-223.62887122483562L29.11645324121154,-227.44769977038382L21.935078925906016,-226.03739282491873zM18.877446831143622,-223.13731110876148L13.368692191193238,-226.6536608502186L20.956105538321893,-210.18283334979967zM28.6145905099983,-223.62887122483562L18.877446831143622,-223.13731110876148L20.956105538321893,-210.18283334979967zM13.368692191193238,-226.6536608502186L18.877446831143622,-223.13731110876148L21.935078925906016,-226.03739282491873z" style="fill:rgb(41,170,178)"></path><path d="M-104.10066424786788,79.24438547491343L-102.20711629270451,88.94972615668976L-97.92509339817411,84.05086093950926z" style="fill:rgb(112,56,202)"></path><path d="M18.877446831143622,-223.13731110876148L28.6145905099983,-223.62887122483562L21.935078925906016,-226.03739282491873z" style="fill:rgb(41,170,178)"></path><path d="M-91.45812090925723,83.99336678840147L-94.3955159404804,91.88705124598427L-87.07339124946651,79.29132176206723zM-102.20711629270451,88.94972615668976L-94.3955159404804,91.88705124598427L-97.92509339817411,84.05086093950926zM-97.45907903687855,76.17762154043285L-91.45812090925723,83.99336678840147L-87.07339124946651,79.29132176206723zM-97.45907903687855,76.17762154043285L-104.10066424786788,79.24438547491343L-97.92509339817411,84.05086093950926z" style="fill:rgb(112,56,202)"></path><path d="M-141.49334684508213,103.15982710275576L-97.92509339817407,84.05086093950925" style="fill:none;stroke:rgb(112,56,202);stroke-width:5;stroke-linecap:round"></path><path d="M-94.3955159404804,91.88705124598427L-91.45812090925723,83.99336678840147L-97.92509339817411,84.05086093950926zM-91.45812090925723,83.99336678840147L-97.45907903687855,76.17762154043285L-97.92509339817411,84.05086093950926z" style="fill:rgb(112,56,202)"></path><path d="M-411.5493988822459,389.33152890779525L-372.4207538459606,-368.5958962108691L-238.6197970905455,457.4904698464629z" style="fill:rgb(0,0,0); fill-opacity: 0.2"></path><path d="M-101.95124289441715,42.8293377386869L-100.05620225421018,52.5480195608235L-95.76951041385303,47.632625173226zM-89.29583674129186,47.562936913231944L-92.23665612377444,55.47584767506368L-84.90937920050808,42.8957026458643zM-100.05620225421018,52.5480195608235L-92.23665612377444,55.47584767506368L-95.76951041385303,47.632625173226zM-95.30263363952649,39.74481544152082L-89.29583674129186,47.562936913231944L-84.90937920050808,42.8957026458643zM-95.30263363952649,39.74481544152082L-101.95124289441715,42.8293377386869L-95.76951041385303,47.632625173226z" style="fill:rgb(112,56,202)"></path><path d="M-139.3717553847662,66.65085362634684L-95.769510413853,47.63262517322599" style="fill:none;stroke:rgb(112,56,202);stroke-width:5;stroke-linecap:round"></path><path d="M5.169591036884081,-217.36661580646805L-4.2600042689598965,-219.23946018152674L-2.0299773733160533,-215.95131113533404z" style="fill:rgb(41,170,178)"></path><path d="M-92.23665612377444,55.47584767506368L-89.29583674129186,47.562936913231944L-95.76951041385303,47.632625173226z" style="fill:rgb(112,56,202)"></path><path d="M-4.2600042689598965,-219.23946018152674L-10.610194987947828,-216.56872452154974L-2.0299773733160533,-215.95131113533404z" style="fill:rgb(41,170,178)"></path><path d="M-89.29583674129186,47.562936913231944L-95.30263363952649,39.74481544152082L-95.76951041385303,47.632625173226z" style="fill:rgb(112,56,202)"></path><path d="M1.8618061387227987,-279.58532205965423L-2.0299773733160666,-215.95131113533407" style="fill:none;stroke:rgb(41,170,178);stroke-width:5;stroke-linecap:round"></path><path d="M4.653715907966747,-213.5359335029084L5.169591036884081,-217.36661580646805L-2.0299773733160533,-215.95131113533404zM-5.103238886198856,-213.0419882156803L-10.610194987947828,-216.56872452154974L-3.0009767926561093,-200.07463467924234zM4.653715907966747,-213.5359335029084L-5.103238886198856,-213.0419882156803L-3.0009767926561093,-200.07463467924234zM-10.610194987947828,-216.56872452154974L-5.103238886198856,-213.0419882156803L-2.0299773733160533,-215.95131113533404zM-5.103238886198856,-213.0419882156803L4.653715907966747,-213.5359335029084L-2.0299773733160533,-215.95131113533404z" style="fill:rgb(41,170,178)"></path><path d="M-99.79784318136772,6.3468894648851295L-97.90130757136782,16.07894521105059L-93.60993682831047,11.146968826435836zM-87.12954823055836,11.06504137810295L-90.07379961591327,18.99723614456372L-82.74136392025746,6.432754846618467zM-97.90130757136782,16.07894521105059L-90.07379961591327,18.99723614456372L-93.60993682831047,11.146968826435836zM-93.14219524474449,3.2445482785371227L-87.12954823055836,11.06504137810295L-82.74136392025746,6.432754846618467zM-93.14219524474449,3.2445482785371227L-99.79784318136772,6.3468894648851295L-93.60993682831047,11.146968826435836z" style="fill:rgb(112,56,202)"></path><path d="M-137.24622454287712,30.07409010644525L-93.60993682831044,11.146968826435824" style="fill:none;stroke:rgb(112,56,202);stroke-width:5;stroke-linecap:round"></path><path d="M-90.07379961591327,18.99723614456372L-87.12954823055836,11.06504137810295L-93.60993682831047,11.146968826435836zM-87.12954823055836,11.06504137810295L-93.14219524474449,3.2445482785371227L-93.60993682831047,11.146968826435836zM-97.64045405318178,-30.20314664710531L-95.74242118362001,-20.457684079638074L-91.44636154966129,-25.40629549651708zM-84.95924424325955,-25.50050740057042L-87.90693530801919,-17.54897070719795L-80.56933428999345,-30.097708636819767z" style="fill:rgb(112,56,202)"></path><path d="M-18.856414615369175,-207.252214252259L-28.29715556514759,-209.13001938331038L-26.074258266712896,-205.8318864934653z" style="fill:rgb(41,170,178)"></path><path d="M-95.74242118362001,-20.457684079638074L-87.90693530801919,-17.54897070719795L-91.44636154966129,-25.40629549651708zM-90.97775275176213,-33.323367494290856L-84.95924424325955,-25.50050740057042L-80.56933428999345,-30.097708636819767z" style="fill:rgb(112,56,202)"></path><path d="M-28.29715556514759,-209.13001938331038L-34.66835147299254,-206.45044945214258L-26.074258266712896,-205.8318864934653z" style="fill:rgb(41,170,178)"></path><path d="M-90.97775275176213,-33.323367494290856L-97.64045405318178,-30.20314664710531L-91.44636154966129,-25.40629549651708z" style="fill:rgb(112,56,202)"></path><path d="M-135.11674333722397,-6.570652441737738L-91.44636154966123,-25.406295496517092" style="fill:none;stroke:rgb(112,56,202);stroke-width:5;stroke-linecap:round"></path><path d="M-87.90693530801919,-17.54897070719795L-84.95924424325955,-25.50050740057042L-91.44636154966129,-25.40629549651708z" style="fill:rgb(112,56,202)"></path><path d="M-22.21465465448492,-269.5549931111432L-26.07425826671291,-205.83188649346533" style="fill:none;stroke:rgb(41,170,178);stroke-width:5;stroke-linecap:round"></path><path d="M-19.386392122580336,-203.40962061948207L-18.856414615369175,-207.252214252259L-26.074258266712896,-205.8318864934653zM-29.163235927503028,-202.91327706031558L-34.66835147299254,-206.45044945214258L-27.03722561628114,-189.93303333365677z" style="fill:rgb(41,170,178)"></path><path d="M-84.95924424325955,-25.50050740057042L-90.97775275176213,-33.323367494290856L-91.44636154966129,-25.40629549651708z" style="fill:rgb(112,56,202)"></path><path d="M-19.386392122580336,-203.40962061948207L-29.163235927503028,-202.91327706031558L-27.03722561628114,-189.93303333365677zM-34.66835147299254,-206.45044945214258L-29.163235927503028,-202.91327706031558L-26.074258266712896,-205.8318864934653zM-29.163235927503028,-202.91327706031558L-19.386392122580336,-203.40962061948207L-26.074258266712896,-205.8318864934653z" style="fill:rgb(41,170,178)"></path><path d="M-95.47906441332024,-66.82095859253221L-93.57953198939441,-57.06205619238109L-89.27877344487567,-62.02735588642148zM-82.78491360428433,-62.1338977024357L-85.73605205000658,-54.162960936914615L-78.39327914978135,-66.6958754987534z" style="fill:rgb(112,56,202)"></path><path d="M-372.4207538459606,-368.5958962108691L61.873176476061026,-542.3929551490996L-195.81113235300145,-304.91614508214116z" style="fill:rgb(0,0,0); fill-opacity: 0.2"></path><path d="M-93.57953198939441,-57.06205619238109L-85.73605205000658,-54.162960936914615L-89.27877344487567,-62.02735588642148zM-88.80929501862296,-69.95912011856504L-82.78491360428433,-62.1338977024357L-78.39327914978135,-66.6958754987534zM-88.80929501862296,-69.95912011856504L-95.47906441332024,-66.82095859253221L-89.27877344487567,-62.02735588642148z" style="fill:rgb(112,56,202)"></path><path d="M-132.9833007447566,-43.283563706112204L-89.27877344487565,-62.02735588642151" style="fill:none;stroke:rgb(112,56,202);stroke-width:5;stroke-linecap:round"></path><path d="M-85.73605205000658,-54.162960936914615L-82.78491360428433,-62.1338977024357L-89.27877344487567,-62.02735588642148zM-82.78491360428433,-62.1338977024357L-88.80929501862296,-69.95912011856504L-89.27877344487567,-62.02735588642148z" style="fill:rgb(112,56,202)"></path><path d="M-238.61979709054555,457.4904698464628L-195.81113235300148,-304.9161450821412L-160.41218989483448,428.7208750365069z" style="fill:rgb(0,0,0); fill-opacity: 0.2"></path><path d="M-42.96195671399493,-197.104329664355L-52.41386549601741,-198.98711815971356L-50.19815726023078,-195.67895328596822zM-52.41386549601741,-198.98711815971356L-58.80617098693945,-196.29867005168674L-50.19815726023078,-195.67895328596822z" style="fill:rgb(41,170,178)"></path><path d="M-93.31366312405252,-103.50673506450089L-91.4126288459135,-93.73435970566702L-87.10716133958826,-98.7164011324252zM-80.60654509701588,-98.83531850643467L-83.56113865039057,-90.84492329951625L-76.21318729828177,-103.36193412985354zM-91.4126288459135,-93.73435970566702L-83.56113865039057,-90.84492329951625L-87.10716133958826,-98.7164011324252z" style="fill:rgb(112,56,202)"></path><path d="M-46.37096838191608,-259.49139718021956L-50.1981572602308,-195.6789532859682" style="fill:none;stroke:rgb(41,170,178);stroke-width:5;stroke-linecap:round"></path><path d="M-43.50612724423104,-193.24976675373202L-42.96195671399493,-197.104329664355L-50.19815726023078,-195.67895328596822z" style="fill:rgb(41,170,178)"></path><path d="M-86.63681086199357,-106.66289853494679L-80.60654509701588,-98.83531850643467L-76.21318729828177,-103.36193412985354z" style="fill:rgb(112,56,202)"></path><path d="M-53.3029384040139,-192.751011730803L-58.80617098693945,-196.29867005168674L-51.15303399205756,-179.75786346966083z" style="fill:rgb(41,170,178)"></path><path d="M-86.63681086199357,-106.66289853494679L-93.31366312405252,-103.50673506450089L-87.10716133958826,-98.7164011324252z" style="fill:rgb(112,56,202)"></path><path d="M-130.845885701375,-80.06483408098252L-87.10716133958823,-98.71640113242522" style="fill:none;stroke:rgb(112,56,202);stroke-width:5;stroke-linecap:round"></path><path d="M-43.50612724423104,-193.24976675373202L-53.3029384040139,-192.751011730803L-51.15303399205756,-179.75786346966083zM-58.80617098693945,-196.29867005168674L-53.3029384040139,-192.751011730803L-50.19815726023078,-195.67895328596822z" style="fill:rgb(41,170,178)"></path><path d="M-83.56113865039057,-90.84492329951625L-80.60654509701588,-98.83531850643467L-87.10716133958826,-98.7164011324252z" style="fill:rgb(112,56,202)"></path><path d="M-53.3029384040139,-192.751011730803L-43.50612724423104,-193.24976675373202L-50.19815726023078,-195.67895328596822z" style="fill:rgb(41,170,178)"></path><path d="M-80.60654509701588,-98.83531850643467L-86.63681086199357,-106.66289853494679L-87.10716133958826,-98.7164011324252zM-91.14423900626532,-140.26066545721528L-89.24170056900323,-130.4747838985729L-84.93151401790593,-135.47362072527935zM-78.42412746313869,-135.60495949405288L-81.38218387609479,-127.595047251413L-74.02904749255842,-140.09607362039196zM-89.24170056900323,-130.4747838985729L-81.38218387609479,-127.595047251413L-84.93151401790593,-135.47362072527935zM-84.46028905697118,-143.43489238640495L-78.42412746313869,-135.60495949405288L-74.02904749255842,-140.09607362039196zM-84.46028905697118,-143.43489238640495L-91.14423900626532,-140.26066545721528L-84.93151401790593,-135.47362072527935z" style="fill:rgb(112,56,202)"></path><path d="M-128.70448710173832,-116.91465467033886L-84.93151401790588,-135.47362072527937" style="fill:none;stroke:rgb(112,56,202);stroke-width:5;stroke-linecap:round"></path><path d="M-81.38218387609479,-127.595047251413L-78.42412746313869,-135.60495949405288L-84.93151401790593,-135.47362072527935zM-78.42412746313869,-135.60495949405288L-84.46028905697118,-143.43489238640495L-84.93151401790593,-135.47362072527935z" style="fill:rgb(112,56,202)"></path><path d="M-67.1474308637428,-186.9227955021605L-76.61052970341446,-188.81059011340562L-74.40207047017932,-185.49234480088475zM-76.61052970341446,-188.81059011340562L-83.0240498645568,-186.11321963142515L-74.40207047017932,-185.49234480088475z" style="fill:rgb(41,170,178)"></path><path d="M-70.607532968518,-249.39436849010437L-74.40207047017934,-185.49234480088472" style="fill:none;stroke:rgb(41,170,178);stroke-width:5;stroke-linecap:round"></path><path d="M-67.70588573172535,-183.05620498452797L-67.1474308637428,-186.9227955021605L-74.40207047017932,-185.49234480088475zM-77.52274304251529,-182.55502521419587L-83.0240498645568,-186.11321963142515L-75.3487975858431,-169.5489581441751z" style="fill:rgb(41,170,178)"></path><path d="M-88.97078083927008,-177.08293986923735L-87.06673593290047,-167.2835187540204L-82.75182022221485,-172.29920486060053z" style="fill:rgb(112,56,202)"></path><path d="M-67.70588573172535,-183.05620498452797L-77.52274304251529,-182.55502521419587L-75.3487975858431,-169.5489581441751zM-83.0240498645568,-186.11321963142515L-77.52274304251529,-182.55502521419587L-74.40207047017932,-185.49234480088475z" style="fill:rgb(41,170,178)"></path><path d="M-76.23764940244465,-172.4430110525875L-79.19917645225789,-164.41352295375705L-71.8408484478849,-176.89848376349158zM-87.06673593290047,-167.2835187540204L-79.19917645225789,-164.41352295375705L-82.75182022221485,-172.29920486060053zM-82.27971833689024,-180.2752920214822L-76.23764940244465,-172.4430110525875L-71.8408484478849,-176.89848376349158z" style="fill:rgb(112,56,202)"></path><path d="M-77.52274304251529,-182.55502521419587L-67.70588573172535,-183.05620498452797L-74.40207047017932,-185.49234480088475z" style="fill:rgb(41,170,178)"></path><path d="M-82.27971833689024,-180.2752920214822L-88.97078083927008,-177.08293986923735L-82.75182022221485,-172.29920486060053z" style="fill:rgb(112,56,202)"></path><path d="M-126.55909379907267,-153.83321729116676L-82.75182022221482,-172.29920486060053" style="fill:none;stroke:rgb(112,56,202);stroke-width:5;stroke-linecap:round"></path><path d="M-79.19917645225789,-164.41352295375705L-76.23764940244465,-172.4430110525875L-82.75182022221485,-172.29920486060053zM-76.23764940244465,-172.4430110525875L-82.27971833689024,-180.2752920214822L-82.75182022221485,-172.29920486060053zM-86.79327736060965,-213.97374910676444L-84.88772367005971,-204.16075496205096L-80.56806865298627,-209.19334444215133zM-74.04709957263805,-209.34966427843318L-77.01210506203923,-201.3005412757224L-69.64857883755026,-213.76935505839512zM-84.88772367005971,-204.16075496205096L-77.01210506203923,-201.3005412757224L-80.56806865298627,-209.19334444215133zM-80.0950873931283,-217.18428849757925L-74.04709957263805,-209.34966427843318L-69.64857883755026,-213.76935505839512zM-80.0950873931283,-217.18428849757925L-86.79327736060965,-213.97374910676444L-80.56806865298627,-209.19334444215133z" style="fill:rgb(112,56,202)"></path><path d="M-124.40969460497719,-190.82071447677532L-80.56806865298623,-209.19334444215133" style="fill:none;stroke:rgb(112,56,202);stroke-width:5;stroke-linecap:round"></path><path d="M-77.01210506203923,-201.3005412757224L-74.04709957263805,-209.34966427843318L-80.56806865298627,-209.19334444215133zM-74.04709957263805,-209.34966427843318L-80.0950873931283,-217.18428849757925L-80.56806865298627,-209.19334444215133z" style="fill:rgb(112,56,202)"></path><path d="M-91.4132352973069,-176.70744411877493L-100.88754645688738,-178.60026774190789L-98.68639664491248,-175.2718932185187zM-100.88754645688738,-178.60026774190789L-107.32238707407501,-175.89393039503042L-98.68639664491248,-175.2718932185187z" style="fill:rgb(41,170,178)"></path><path d="M-195.81113235300148,-304.9161450821412L236.53496417775554,-481.8744823740089L-193.00823278743997,-198.40185371575257z" style="fill:rgb(0,0,0); fill-opacity: 0.2"></path><path d="M-94.92474898756853,-239.26374016071597L-98.68639664491249,-175.27189321851873" style="fill:none;stroke:rgb(41,170,178);stroke-width:5;stroke-linecap:round"></path><path d="M-91.98606649365725,-172.82876728129244L-91.4132352973069,-176.70744411877493L-98.68639664491248,-175.2718932185187zM-101.82304920706329,-172.32514938731615L-107.32238707407501,-175.89393039503042L-99.62491469148782,-159.3061493052928zM-91.98606649365725,-172.82876728129244L-101.82304920706329,-172.32514938731615L-99.62491469148782,-159.3061493052928zM-107.32238707407501,-175.89393039503042L-101.82304920706329,-172.32514938731615L-98.68639664491248,-175.2718932185187zM-101.82304920706329,-172.32514938731615L-91.98606649365725,-172.82876728129244L-98.68639664491248,-175.2718932185187z" style="fill:rgb(41,170,178)"></path><path d="M-84.61171726586376,-250.93328468692494L-82.70465247095832,-241.1066839231181L-78.38024796858124,-246.15623108513935z" style="fill:rgb(112,56,202)"></path><path d="M-160.41218989483448,428.7208750365069L-122.2562782892301,-227.87733948014449L-195.81113235300148,-304.9161450821412z" style="fill:rgb(0,0,0); fill-opacity: 0.2"></path><path d="M-71.85246658913944,-246.32511098038654L-74.82095834642314,-238.25629379780324L-67.45222729266365,-250.70887871375203zM-82.70465247095832,-241.1066839231181L-74.82095834642314,-238.25629379780324L-78.38024796858124,-246.15623108513935zM-77.90638487491013,-254.1620735842576L-71.85246658913944,-246.32511098038654L-67.45222729266365,-250.70887871375203zM-77.90638487491013,-254.1620735842576L-84.61171726586376,-250.93328468692494L-78.38024796858124,-246.15623108513935z" style="fill:rgb(112,56,202)"></path><path d="M-122.2562782892301,-227.87733948014449L-78.38024796858122,-246.15623108513935" style="fill:none;stroke:rgb(112,56,202);stroke-width:5;stroke-linecap:round"></path><path d="M-74.82095834642314,-238.25629379780324L-71.85246658913944,-246.32511098038654L-78.38024796858124,-246.15623108513935zM-71.85246658913944,-246.32511098038654L-77.90638487491013,-254.1620735842576L-78.38024796858124,-246.15623108513935z" style="fill:rgb(112,56,202)"></path><path d="M-115.75977089718346,-166.4581067517913L-125.24531667553995,-168.35598242840322L-123.0515371867262,-165.0174296022191zM-125.24531667553995,-168.35598242840322L-131.70158423909587,-165.64063342939082L-123.0515371867262,-165.0174296022191z" style="fill:rgb(41,170,178)"></path><path d="M-238.6197970905455,457.4904698464629L-195.81113235300145,-304.91614508214116L-372.4207538459606,-368.5958962108691z" style="fill:rgb(0,0,0); fill-opacity: 0.2"></path><path d="M-118.68679943947602,-165.22589435386402L-128.1736948722985,-167.12437783224573L-125.98080393798158,-163.78460029546272z" style="fill:rgb(197,147,42)"></path><path d="M-119.3230196827449,-229.0993441994758L-123.05153718672621,-165.01742960221907" style="fill:none;stroke:rgb(41,170,178);stroke-width:5;stroke-linecap:round"></path><path d="M-116.34707109439383,-162.56728449476802L-115.75977089718346,-166.4581067517913L-123.0515371867262,-165.0174296022191zM-126.2042589209374,-162.061215007513L-131.70158423909587,-165.64063342939082L-123.98178625268932,-149.02926778305857z" style="fill:rgb(41,170,178)"></path><path d="M-128.1736948722985,-167.12437783224573L-134.6325408592408,-164.40794441111294L-125.98080393798158,-163.78460029546272z" style="fill:rgb(197,147,42)"></path><path d="M-116.34707109439383,-162.56728449476802L-126.2042589209374,-162.061215007513L-123.98178625268932,-149.02926778305857zM-131.70158423909587,-165.64063342939082L-126.2042589209374,-162.061215007513L-123.0515371867262,-165.0174296022191z" style="fill:rgb(41,170,178)"></path><path d="M-122.25627828923005,-227.87733948014454L-125.98080393798159,-163.7846002954628" style="fill:none;stroke:rgb(197,147,42);stroke-width:5;stroke-linecap:round"></path><path d="M-119.27584217698475,-161.33361065650732L-118.68679943947602,-165.22589435386402L-125.98080393798158,-163.78460029546272zM-129.13545999557348,-160.8272460684348L-134.6325408592408,-164.40794441111294L-126.91005667828594,-147.79374424082928z" style="fill:rgb(197,147,42)"></path><path d="M-126.2042589209374,-162.061215007513L-116.34707109439383,-162.56728449476802L-123.0515371867262,-165.0174296022191z" style="fill:rgb(41,170,178)"></path><path d="M-119.27584217698475,-161.33361065650732L-129.13545999557348,-160.8272460684348L-126.91005667828594,-147.79374424082928zM-134.6325408592408,-164.40794441111294L-129.13545999557348,-160.8272460684348L-125.98080393798158,-163.78460029546272zM-129.13545999557348,-160.8272460684348L-119.27584217698475,-161.33361065650732L-125.98080393798158,-163.78460029546272z" style="fill:rgb(197,147,42)"></path><path d="M-195.81113235300145,-304.91614508214116L-372.4207538459606,-368.5958962108691M-195.81113235300145,-304.91614508214116L-372.4207538459606,-368.5958962108691" style="fill:none;stroke:rgb(0,0,0);stroke-width:1;stroke-linecap:round"></path><path d="M-140.1874412177469,-156.17461351400277L-149.68424395010078,-158.0775644324541L-147.49789617397474,-154.72878388907282zM-149.68424395010078,-158.0775644324541L-156.16204566072048,-155.35315869530334L-147.49789617397474,-154.72878388907282z" style="fill:rgb(41,170,178)"></path><path d="M-143.80275099041296,-218.90101149202297L-147.49789617397477,-154.7287838890728" style="fill:none;stroke:rgb(41,170,178);stroke-width:5;stroke-linecap:round"></path><path d="M-140.78930377621307,-152.27158634769194L-140.1874412177469,-156.17461351400277L-147.49789617397474,-154.72878388907282zM-150.66677688881063,-151.7630517033302L-156.16204566072048,-155.35315869530334L-148.41981588506584,-138.71814328015486zM-140.78930377621307,-152.27158634769194L-150.66677688881063,-151.7630517033302L-148.41981588506584,-138.71814328015486zM-156.16204566072048,-155.35315869530334L-150.66677688881063,-151.7630517033302L-147.49789617397474,-154.72878388907282z" style="fill:rgb(41,170,178)"></path><path d="M-122.2562782892301,-227.87733948014449L-193.00823278743997,-198.40185371575257" style="fill:none;stroke:rgb(104,70,1);stroke-width:5;stroke-linecap:round"></path><path d="M-122.2562782892301,-227.87733948014449L-195.81113235300148,-304.9161450821412M-122.2562782892301,-227.87733948014449L-195.81113235300148,-304.9161450821412" style="fill:none;stroke:rgb(0,0,0);stroke-width:1;stroke-linecap:round"></path><path d="M-150.66677688881063,-151.7630517033302L-140.78930377621307,-152.27158634769194L-147.49789617397474,-154.72878388907282z" style="fill:rgb(41,170,178)"></path><path d="M-153.9025275555984,-150.40087431742242L-163.40564395168013,-152.30667755508054L-161.2234849328451,-148.95214778477518zM-163.40564395168013,-152.30667755508054L-169.8955518766673,-149.57718023881844L-161.2234849328451,-148.95214778477518z" style="fill:rgb(197,147,42)"></path><path d="M-157.54713472540647,-213.17505819512317L-161.22348493284514,-148.9521477847752" style="fill:none;stroke:rgb(197,147,42);stroke-width:5;stroke-linecap:round"></path><path d="M-154.51258607461554,-146.49098627032842L-153.9025275555984,-150.40087431742242L-161.2234849328451,-148.95214778477518zM-164.40145414044946,-145.98106517792917L-169.8955518766673,-149.57718023881844L-162.14071365986706,-132.92889237180202zM-154.51258607461554,-146.49098627032842L-164.40145414044946,-145.98106517792917L-162.14071365986706,-132.92889237180202zM-169.8955518766673,-149.57718023881844L-164.40145414044946,-145.98106517792917L-161.2234849328451,-148.95214778477518zM-164.40145414044946,-145.98106517792917L-154.51258607461554,-146.49098627032842L-161.2234849328451,-148.95214778477518z" style="fill:rgb(197,147,42)"></path><path d="M-164.69665250754716,-145.85679338401596L-174.20473456521458,-147.76484288062744L-172.0258803834092,-144.4057848805026zM-174.20473456521458,-147.76484288062744L-180.70417833989927,-145.03133501807426L-172.0258803834092,-144.4057848805026z" style="fill:rgb(41,170,178)"></path><path d="M-168.36435156214122,-208.66857179283468L-172.0258803834092,-144.40578488050267" style="fill:none;stroke:rgb(41,170,178);stroke-width:5;stroke-linecap:round"></path><path d="M-165.31317148166445,-141.94150142537794L-164.69665250754716,-145.85679338401596L-172.0258803834092,-144.4057848805026zM-175.21101051914238,-141.4304879650786L-180.70417833989927,-145.03133501807426L-172.9394098984513,-128.37260436249525zM-165.31317148166445,-141.94150142537794L-175.21101051914238,-141.4304879650786L-172.9394098984513,-128.37260436249525zM-180.70417833989927,-145.03133501807426L-175.21101051914238,-141.4304879650786L-172.0258803834092,-144.4057848805026zM-175.21101051914238,-141.4304879650786L-165.31317148166445,-141.94150142537794L-172.0258803834092,-144.4057848805026zM-189.28781373183048,-135.50447419677022L-198.8071975219566,-137.4176457570257L-196.63589931273927,-134.04826023277187z" style="fill:rgb(41,170,178)"></path><path d="M-189.2878137318306,-135.50447419677013L-198.8071975219566,-137.4176457570257L-196.63589931273927,-134.04826023277187z" style="fill:rgb(197,147,42)"></path><path d="M-198.8071975219566,-137.4176457570257L-205.32839200000606,-134.6749900780247L-196.63589931273927,-134.04826023277187z" style="fill:rgb(41,170,178)"></path><path d="M-198.8071975219566,-137.4176457570257L-205.32839200000615,-134.67499007802462L-196.63589931273927,-134.04826023277187z" style="fill:rgb(197,147,42)"></path><path d="M-193.00823278743997,-198.40185371575262L-196.6358993127393,-134.0482602327719" style="fill:none;stroke:rgb(41,170,178);stroke-width:5;stroke-linecap:round"></path><path d="M-193.00823278743997,-198.40185371575257L-196.6358993127393,-134.04826023277184" style="fill:none;stroke:rgb(197,147,42);stroke-width:5;stroke-linecap:round"></path><path d="M-189.9190838761528,-131.57685716620253L-189.28781373183048,-135.50447419677022L-196.63589931273927,-134.04826023277187z" style="fill:rgb(41,170,178)"></path><path d="M-189.9190838761528,-131.57685716620247L-189.2878137318306,-135.50447419677013L-196.63589931273927,-134.04826023277187z" style="fill:rgb(197,147,42)"></path><path d="M-199.83736994679572,-131.06335113531557L-205.32839200000606,-134.6749900780247L-197.54097731941314,-117.99247844972345z" style="fill:rgb(41,170,178)"></path><path d="M-199.8373699467958,-131.06335113531551L-205.32839200000615,-134.67499007802462L-197.54097731941314,-117.99247844972345z" style="fill:rgb(197,147,42)"></path><path d="M-189.9190838761528,-131.57685716620253L-199.83736994679572,-131.06335113531557L-197.54097731941314,-117.99247844972345z" style="fill:rgb(41,170,178)"></path><path d="M-189.9190838761528,-131.57685716620247L-199.8373699467958,-131.06335113531551L-197.54097731941314,-117.99247844972345z" style="fill:rgb(197,147,42)"></path><path d="M-205.32839200000606,-134.6749900780247L-199.83736994679572,-131.06335113531557L-196.63589931273927,-134.04826023277187z" style="fill:rgb(41,170,178)"></path><path d="M-205.32839200000615,-134.67499007802462L-199.8373699467958,-131.06335113531551L-196.63589931273927,-134.04826023277187z" style="fill:rgb(197,147,42)"></path><path d="M-199.83736994679572,-131.06335113531557L-189.9190838761528,-131.57685716620253L-196.63589931273927,-134.04826023277187z" style="fill:rgb(41,170,178)"></path><path d="M-199.8373699467958,-131.06335113531551L-189.9190838761528,-131.57685716620247L-196.63589931273927,-134.04826023277187z" style="fill:rgb(197,147,42)"></path><path d="M-122.2562782892301,-227.87733948014449L-193.00823278743997,-198.40185371575257L-195.81113235300148,-304.9161450821412zM-195.81113235300148,-304.9161450821412L-195.81113235300148,-304.9161450821412L-122.2562782892301,-227.87733948014449z" style="fill:rgb(0,0,0); fill-opacity: 0.2"></path><path d="M-193.00823278743997,-198.40185371575257L-195.81113235300148,-304.9161450821412M-193.00823278743997,-198.40185371575257L-195.81113235300148,-304.9161450821412M-195.81113235300148,-304.9161450821412L-195.81113235300148,-304.9161450821412" style="fill:none;stroke:rgb(0,0,0);stroke-width:1;stroke-linecap:round"></path></svg>