<svg viewBox="-812 -590 1624 1180" width="1624" height="1180" style="background-color: rgb(255, 255, 255);"><path d="M15.83518316242262,197.08841355138054L61.873176476061026,-542.3929551490996M186.9086801934662,261.88127362653L15.83518316242262,197.08841355138054M186.90868019346615,261.88127362653L236.53496417775554,-481.8744823740089M77.57372846027035,325.3988251789118L186.90868019346615,261.88127362653M218.28180194345921,273.7636184838346L77.57372846027035,325.3988251789118M218.28180194345921,273.7636184838346L243.1899769034122,-95.0023950508991M224.0425938386415,275.9454770981988L218.28180194345921,273.7636184838346" style="fill:none;stroke:rgb(0,0,0);stroke-width:1;stroke-linecap:round"></path><path d="M249.0111199027288,-92.8907710227557L224.0425938386415,275.9454770981988" style="fill:none;stroke:rgb(58,110,14);stroke-width:5;stroke-linecap:round"></path><path d="M224.0425938386415,275.9454770981988L276.54258295629376,295.8294714508112M226.51847395368108,239.37165892068342L279.07307544373674,259.19291825193056M228.99897979282807,202.72950932784022L281.60830621194856,222.48776406872696" style="fill:none;stroke:rgb(128,207,62);stroke-width:5;stroke-linecap:round"></path><path d="M236.53496417775563,-481.8744823740089L186.9086801934662,261.88127362653L15.83518316242262,197.08841355138054z" style="fill:rgb(0,0,0); fill-opacity: 0.2"></path><path d="M281.60493796899846,291.19563355933934L277.0693788018832,288.2025039266397L289.7040510046615,300.81428308114045zM271.80239452717467,295.7517833279233L273.08728546139935,303.4073748441275L289.7040510046615,300.81428308114045zM277.0693788018832,288.2025039266397L271.80239452717467,295.7517833279233L289.7040510046615,300.81428308114045z" style="fill:rgb(128,207,62)"></path><path d="M231.48412433166868,166.01883664369518L284.1482885818604,185.7138160403229" style="fill:none;stroke:rgb(128,207,62);stroke-width:5;stroke-linecap:round"></path><path d="M249.0111199027288,-92.8907710227557L224.0425938386415,275.9454770981988L218.28180194345921,273.7636184838346z" style="fill:rgb(0,0,0); fill-opacity: 0.2"></path><path d="M284.13944679322145,254.56513455573952L279.6008573350922,251.55167472482938L292.2482686912301,264.16201543264606zM274.3294742603057,259.10034892538494L275.6146846046607,266.77590078917L292.2482686912301,264.16201543264606zM279.6008573350922,251.55167472482938L274.3294742603057,259.10034892538494L292.2482686912301,264.16201543264606z" style="fill:rgb(128,207,62)"></path><path d="M233.97392059436493,129.2394484747113L286.6930359243832,148.8708805822321" style="fill:none;stroke:rgb(128,207,62);stroke-width:5;stroke-linecap:round"></path><path d="M286.6787000718989,217.86606536903219L282.137076920154,214.83220441885265L294.7972530111624,227.44107916245832zM276.861287798336,222.38025790807365L278.14681649628017,230.07583149505132L294.7972530111624,227.44107916245832zM282.137076920154,214.83220441885265L276.861287798336,222.38025790807365L294.7972530111624,227.44107916245832z" style="fill:rgb(128,207,62)"></path><path d="M236.46838165388206,92.39115170642776L289.2425616606422,111.95876338296263" style="fill:none;stroke:rgb(128,207,62);stroke-width:5;stroke-linecap:round"></path><path d="M289.2227111395295,181.09823327969073L284.67805088839293,178.04389999735926L297.35101737256656,190.65128111195884zM279.3978484550026,185.59131718055164L280.68369444236635,193.30697410644908L297.35101737256656,190.65128111195884zM284.67805088839293,178.04389999735926L279.3978484550026,185.59131718055164L297.35101737256656,190.65128111195884z" style="fill:rgb(128,207,62)"></path><path d="M243.1899769034122,-95.0023950508991L218.28180194345921,273.7636184838346L77.57372846027035,325.3988251789118z" style="fill:rgb(0,0,0); fill-opacity: 0.2"></path><path d="M238.96752063221732,55.47375250007996L291.79687926221294,74.97726940060069" style="fill:none;stroke:rgb(128,207,62);stroke-width:5;stroke-linecap:round"></path><path d="M243.1899769034122,-95.0023950508991L218.28180194345921,273.7636184838346L249.0111199027288,-92.8907710227557zM61.873176476061026,-542.3929551490996L15.83518316242262,197.08841355138054L236.53496417775563,-481.8744823740089z" style="fill:rgb(0,0,0); fill-opacity: 0.2"></path><path d="M291.77149338062827,144.2614448453158L287.2237926211617,141.1865677246842L299.90957523388573,153.7924273973992zM281.939169594016,148.73333292259886L283.22533179895504,156.46913504441338L299.90957523388573,153.7924273973992zM287.2237926211617,141.1865677246842L281.939169594016,148.73333292259886L299.90957523388573,153.7924273973992z" style="fill:rgb(128,207,62)"></path><path d="M241.47135070063015,18.487056289200563L294.35600225135875,37.9262028593755" style="fill:none;stroke:rgb(128,207,62);stroke-width:5;stroke-linecap:round"></path><path d="M294.3250602299616,107.35550589724265L289.77431555007666,104.2600131374466L302.47294010413447,116.86432340649483zM284.48526462929414,111.8061105858087L285.771741972243,119.56212000296931L302.47294010413447,116.86432340649483zM289.77431555007666,104.2600131374466L284.48526462929414,111.8061105858087L302.47294010413447,116.86432340649483z" style="fill:rgb(128,207,62)"></path><path d="M243.97988507987355,-18.569132223798462L296.91994420126923,0.8053672462046507" style="fill:none;stroke:rgb(128,207,62);stroke-width:5;stroke-linecap:round"></path><path d="M296.883425172783,70.38022153712966L292.32963315725374,67.2640410411299L305.04112554313645,79.8667737949998zM287.0361470251987,74.8094548901654L288.3229384188243,82.58573394570082L305.04112554313645,79.8667737949998zM292.32963315725374,67.2640410411299L287.0361470251987,74.8094548901654L305.04112554313645,79.8667737949998z" style="fill:rgb(128,207,62)"></path><path d="M246.49313704042663,-55.695009071063474L299.48871873629986,-36.38543469278049" style="fill:none;stroke:rgb(128,207,62);stroke-width:5;stroke-linecap:round"></path><path d="M299.4466017450706,33.3353961335274L294.88975897554604,30.198455506642198L307.61414516176353,42.799582483262505z" style="fill:rgb(128,207,62)"></path><path d="M243.1899769034122,-95.0023950508991L113.40728636864677,-234.16246932938503M243.1899769034122,-95.0023950508991L113.40728636864677,-234.16246932938503M243.1899769034122,-95.0023950508991L239.8759469225199,-287.6550238304579M243.1899769034122,-95.0023950508991L239.8759469225199,-287.6550238304579M249.0111199027288,-92.8907710227557L243.1899769034122,-95.0023950508991M243.1899769034122,-95.0023950508991L117.2651198435203,-40.031183391396254M249.0111199027288,-92.8907710227557L243.1899769034122,-95.0023950508991M117.2651198435203,-40.031183391396254L243.1899769034122,-95.0023950508991M249.0111199027288,-92.8907710227557L243.1899769034122,-95.0023950508991M243.1899769034122,-95.0023950508991L-185.36430501069677,92.07860459226193M249.0111199027288,-92.8907710227557L243.1899769034122,-95.0023950508991" style="fill:none;stroke:rgb(0,0,0);stroke-width:1;stroke-linecap:round"></path><path d="M289.59183029677246,37.74316982060149L290.8789346459268,45.53978110231485L307.61414516176353,42.799582483262505zM294.88975897554604,30.198455506642198L289.59183029677246,37.74316982060149L307.61414516176353,42.799582483262505z" style="fill:rgb(128,207,62)"></path><path d="M249.0111199027288,-92.8907710227557L302.0623395322141,-73.64640095572838" style="fill:none;stroke:rgb(128,207,62);stroke-width:5;stroke-linecap:round"></path><path d="M123.10626256773847,-37.88731158270636L249.0111199027288,-92.8907710227557" style="fill:none;stroke:rgb(97,2,64);stroke-width:5;stroke-linecap:round"></path><path d="M249.0111199027288,-92.8907710227557L302.0623395322141,-73.64640095572838" style="fill:none;stroke:rgb(186,45,138);stroke-width:5;stroke-linecap:round"></path><path d="M249.0111199027288,-92.8907710227557L123.10626256773847,-37.88731158270636" style="fill:none;stroke:rgb(0,86,91);stroke-width:5;stroke-linecap:round"></path><path d="M249.0111199027288,-92.8907710227557L302.0623395322141,-73.64640095572838" style="fill:none;stroke:rgb(41,170,178);stroke-width:5;stroke-linecap:round"></path><path d="M-179.4773297226798,94.30095103125028L249.0111199027288,-92.8907710227557" style="fill:none;stroke:rgb(104,70,1);stroke-width:5;stroke-linecap:round"></path><path d="M249.0111199027288,-92.8907710227557L302.0623395322141,-73.64640095572838" style="fill:none;stroke:rgb(197,147,42);stroke-width:5;stroke-linecap:round"></path><path d="M113.40728636864677,-234.16246932938503L77.57372846027035,325.3988251789118L186.90868019346615,261.88127362653z" style="fill:rgb(0,0,0); fill-opacity: 0.2"></path><path d="M236.53496417775563,-481.8744823740089L61.873176476061026,-542.3929551490996M61.873176476061026,-542.3929551490996L-372.4207538459606,-368.5958962108691M236.53496417775563,-481.8744823740089L61.873176476061026,-542.3929551490996" style="fill:none;stroke:rgb(0,0,0);stroke-width:1;stroke-linecap:round"></path><path d="M302.01460353376604,-3.779166681571482L297.45470658878304,-6.936940133142277L310.1920126221762,5.662552652761677zM292.152328009978,0.6070586235363415L293.4397442116509,8.424064965186705L310.1920126221762,5.662552652761677zM297.45470658878304,-6.936940133142277L292.152328009978,0.6070586235363415L310.1920126221762,5.662552652761677zM304.5874441770141,-40.96366401620208L300.0244896320102,-44.14234328686159L312.7747416380654,-31.54451325737731z" style="fill:rgb(128,207,62)"></path><path d="M225.86153432619994,-82.77752107939L278.94685403095474,-63.47919961256562" style="fill:none;stroke:rgb(197,147,42);stroke-width:5;stroke-linecap:round"></path><path d="M294.71765378193766,-36.599076196605495L296.0053807252092,-28.76161171411487L312.7747416380654,-31.54451325737731zM300.0244896320102,-44.14234328686159L294.71765378193766,-36.599076196605495L312.7747416380654,-31.54451325737731z" style="fill:rgb(128,207,62)"></path><path d="M224.00632813950278,-81.96704592852728L277.09437335503407,-62.66439760395635" style="fill:none;stroke:rgb(186,45,138);stroke-width:5;stroke-linecap:round"></path><path d="M224.00632813950278,-81.96704592852731L277.09437335503407,-62.664397603956395" style="fill:none;stroke:rgb(41,170,178);stroke-width:5;stroke-linecap:round"></path><path d="M307.1651373644047,-78.2182937219165L302.5991217917313,-81.41795210816434L315.3623459748956,-68.82181355388552z" style="fill:rgb(128,207,62)"></path><path d="M307.1651373644047,-78.2182937219165L302.5991217917313,-81.41795210816434L315.3623459748956,-68.82181355388552z" style="fill:rgb(186,45,138)"></path><path d="M307.16513736440476,-78.21829372191652L302.5991217917313,-81.41795210816437L315.3623459748956,-68.82181355388552z" style="fill:rgb(41,170,178)"></path><path d="M307.1651373644047,-78.2182937219165L302.5991217917313,-81.41795210816434L315.3623459748956,-68.82181355388552z" style="fill:rgb(197,147,42)"></path><path d="M297.28782128117496,-73.87543288089512L298.5758578471673,-66.01744692832162L315.3623459748956,-68.82181355388552z" style="fill:rgb(128,207,62)"></path><path d="M297.28782128117496,-73.87543288089512L298.5758578471673,-66.01744692832162L315.3623459748956,-68.82181355388552z" style="fill:rgb(186,45,138)"></path><path d="M297.28782128117496,-73.87543288089512L298.57585784716736,-66.01744692832162L315.3623459748956,-68.82181355388552z" style="fill:rgb(41,170,178)"></path><path d="M297.28782128117496,-73.87543288089512L298.5758578471673,-66.01744692832162L315.3623459748956,-68.82181355388552z" style="fill:rgb(197,147,42)"></path><path d="M302.5991217917313,-81.41795210816434L297.28782128117496,-73.87543288089512L315.3623459748956,-68.82181355388552z" style="fill:rgb(128,207,62)"></path><path d="M302.5991217917313,-81.41795210816434L297.28782128117496,-73.87543288089512L315.3623459748956,-68.82181355388552z" style="fill:rgb(186,45,138)"></path><path d="M302.5991217917313,-81.41795210816434L297.28782128117496,-73.87543288089512L315.3623459748956,-68.82181355388552z" style="fill:rgb(41,170,178)"></path><path d="M302.5991217917313,-81.41795210816434L297.28782128117496,-73.87543288089512L315.3623459748956,-68.82181355388552z" style="fill:rgb(197,147,42)"></path><path d="M243.1899769034122,-95.0023950508991L117.2651198435203,-40.031183391396254L249.0111199027288,-92.8907710227557zM123.10626256773847,-37.88731158270636L249.0111199027288,-92.8907710227557L243.1899769034122,-95.0023950508991zM236.53496417775554,-481.8744823740089L186.90868019346615,261.88127362653L113.40728636864677,-234.16246932938503z" style="fill:rgb(0,0,0); fill-opacity: 0.2"></path><path d="M202.63685211985353,-72.63146402659514L255.7562138014259,-53.27894193346023" style="fill:none;stroke:rgb(197,147,42);stroke-width:5;stroke-linecap:round"></path><path d="M198.9139095775404,-71.0050397292472L252.0387125099668,-51.643822302437435" style="fill:none;stroke:rgb(186,45,138);stroke-width:5;stroke-linecap:round"></path><path d="M198.91390957754044,-71.0050397292472L252.03871250996684,-51.643822302437435" style="fill:none;stroke:rgb(41,170,178);stroke-width:5;stroke-linecap:round"></path><path d="M113.40728636864677,-234.16246932938503L77.57372846027035,325.3988251789118L243.1899769034122,-95.0023950508991z" style="fill:rgb(0,0,0); fill-opacity: 0.2"></path><path d="M239.8759469225199,-287.6550238304579L236.53496417775554,-481.8744823740089M239.8759469225199,-287.6550238304579L236.53496417775554,-481.8744823740089" style="fill:none;stroke:rgb(0,0,0);stroke-width:1;stroke-linecap:round"></path><path d="M284.06455142189634,-68.06142223486329L279.4799567050637,-71.26136474846616L292.2554698554833,-58.6410645520884z" style="fill:rgb(197,147,42)"></path><path d="M282.2132657282267,-67.24744847146096L277.6271805078323,-70.44741306662097L290.40367731638423,-57.825176028406524z" style="fill:rgb(186,45,138)"></path><path d="M282.21326572822676,-67.24744847146096L277.62718050783235,-70.44741306662097L290.4036773163843,-57.82517602840655z" style="fill:rgb(41,170,178)"></path><path d="M274.15514564378634,-63.70445218865683L275.45343288030745,-55.83729986128846L292.2554698554833,-58.6410645520884zM279.4799567050637,-71.26136474846616L274.15514564378634,-63.70445218865683L292.2554698554833,-58.6410645520884z" style="fill:rgb(197,147,42)"></path><path d="M272.3012860213589,-62.88934671960537L273.6003958942365,-55.02146030008797L290.40367731638423,-57.825176028406524z" style="fill:rgb(186,45,138)"></path><path d="M272.3012860213589,-62.88934671960537L273.60039589423656,-55.021460300088L290.4036773163843,-57.82517602840655z" style="fill:rgb(41,170,178)"></path><path d="M277.6271805078323,-70.44741306662097L272.3012860213589,-62.88934671960537L290.40367731638423,-57.825176028406524z" style="fill:rgb(186,45,138)"></path><path d="M277.62718050783235,-70.44741306662097L272.3012860213589,-62.88934671960537L290.4036773163843,-57.82517602840655z" style="fill:rgb(41,170,178)"></path><path d="M179.33670727286943,-62.45243996695548L232.49005172414155,-43.045466443208454" style="fill:none;stroke:rgb(197,147,42);stroke-width:5;stroke-linecap:round"></path><path d="M173.73340278926392,-60.00455084323229L226.8948941709348,-40.58447148002361" style="fill:none;stroke:rgb(186,45,138);stroke-width:5;stroke-linecap:round"></path><path d="M173.73340278926392,-60.00455084323232L226.89489417093483,-40.584471480023645" style="fill:none;stroke:rgb(41,170,178);stroke-width:5;stroke-linecap:round"></path><path d="M239.8759469225199,-287.6550238304579L113.40728636864677,-234.16246932938503L243.1899769034122,-95.0023950508991z" style="fill:rgb(0,0,0); fill-opacity: 0.2"></path><path d="M260.888880738471,-57.87153746987716L256.2856101039902,-61.071749049897L269.07342471675645,-48.427196537820855z" style="fill:rgb(197,147,42)"></path><path d="M117.2651198435203,-40.031183391396254L243.1899769034122,-95.0023950508991L123.10626256773847,-37.88731158270636zM249.0111199027288,-92.8907710227557L123.10626256773847,-37.88731158270636L117.2651198435203,-40.031183391396254z" style="fill:rgb(0,0,0); fill-opacity: 0.2"></path><path d="M250.94722863024975,-53.50038934906758L252.25582645148594,-45.62405253160635L269.07342471675645,-48.427196537820855zM256.2856101039902,-61.071749049897L250.94722863024975,-53.50038934906758L269.07342471675645,-48.427196537820855z" style="fill:rgb(197,147,42)"></path><path d="M257.17378109904865,-56.238081518018554L252.56751329376635,-59.43833474089016L265.3572972951657,-46.78989341028445z" style="fill:rgb(186,45,138)"></path><path d="M257.17378109904865,-56.23808151801859L252.5675132937664,-59.43833474089016L265.3572972951657,-46.78989341028445z" style="fill:rgb(41,170,178)"></path><path d="M247.22695497415228,-51.86465848424481L248.5372080771797,-43.98685046517664L265.3572972951657,-46.78989341028445z" style="fill:rgb(186,45,138)"></path><path d="M247.22695497415233,-51.86465848424481L248.53720807717977,-43.98685046517664L265.3572972951657,-46.78989341028445z" style="fill:rgb(41,170,178)"></path><path d="M252.56751329376635,-59.43833474089016L247.22695497415228,-51.86465848424481L265.3572972951657,-46.78989341028445z" style="fill:rgb(186,45,138)"></path><path d="M252.5675132937664,-59.43833474089016L247.22695497415233,-51.86465848424481L265.3572972951657,-46.78989341028445z" style="fill:rgb(41,170,178)"></path><path d="M155.9607313920406,-52.24028796227334L209.14799828461847,-32.77861061318201" style="fill:none;stroke:rgb(197,147,42);stroke-width:5;stroke-linecap:round"></path><path d="M236.53496417775554,-481.8744823740089L236.53496417775554,-481.8744823740089L239.8759469225199,-287.6550238304579zM117.2651198435203,-40.031183391396254L243.1899769034122,-95.0023950508991L113.40728636864677,-234.16246932938503zM243.1899769034122,-95.0023950508991L117.2651198435203,-40.031183391396254L113.40728636864677,-234.16246932938503z" style="fill:rgb(0,0,0); fill-opacity: 0.2"></path><path d="M148.46434310166842,-48.965376270985026L201.66245224924484,-29.48614013052608" style="fill:none;stroke:rgb(186,45,138);stroke-width:5;stroke-linecap:round"></path><path d="M148.46434310166842,-48.965376270985026L201.66245224924484,-29.48614013052608" style="fill:none;stroke:rgb(41,170,178);stroke-width:5;stroke-linecap:round"></path><path d="M237.63775864190475,-47.64847820842172L233.01571466563942,-50.848943642146914L245.8158431624231,-38.180047638512434zM227.66370254726274,-43.26308269464283L228.98267129021497,-35.377543240509475L245.8158431624231,-38.180047638512434zM233.01571466563942,-50.848943642146914L227.66370254726274,-43.26308269464283L245.8158431624231,-38.180047638512434z" style="fill:rgb(197,147,42)"></path><path d="M232.04622121475768,-45.18998961406639L227.419657066977,-48.39051369203191L240.2227427359903,-35.71576162732291z" style="fill:rgb(186,45,138)"></path><path d="M232.04622121475768,-45.18998961406639L227.41965706697704,-48.39051369203191L240.22274273599032,-35.71576162732291z" style="fill:rgb(41,170,178)"></path><path d="M222.0643645899209,-40.801164361192804L223.38583137953154,-32.91341357058686L240.2227427359903,-35.71576162732291z" style="fill:rgb(186,45,138)"></path><path d="M222.06436458992098,-40.801164361192804L223.38583137953154,-32.91341357058689L240.22274273599032,-35.71576162732291z" style="fill:rgb(41,170,178)"></path><path d="M113.40728636864677,-234.16246932938503L236.53496417775554,-481.8744823740089M236.53496417775554,-481.8744823740089L236.53496417775554,-481.8744823740089M113.40728636864677,-234.16246932938503L236.53496417775554,-481.8744823740089M236.53496417775554,-481.8744823740089L-195.81113235300148,-304.9161450821412" style="fill:none;stroke:rgb(0,0,0);stroke-width:1;stroke-linecap:round"></path><path d="M227.419657066977,-48.39051369203191L222.0643645899209,-40.801164361192804L240.2227427359903,-35.71576162732291z" style="fill:rgb(186,45,138)"></path><path d="M227.41965706697704,-48.39051369203191L222.06436458992098,-40.801164361192804L240.22274273599032,-35.71576162732291z" style="fill:rgb(41,170,178)"></path><path d="M239.8759469225199,-287.6550238304579L113.40728636864677,-234.16246932938503L236.53496417775554,-481.8744823740089z" style="fill:rgb(0,0,0); fill-opacity: 0.2"></path><path d="M132.50855368235773,-41.99484602508702L185.7296815538137,-22.4782108527237" style="fill:none;stroke:rgb(197,147,42);stroke-width:5;stroke-linecap:round"></path><path d="M117.2651198435203,-40.031183391396254L113.40728636864677,-234.16246932938503M117.2651198435203,-40.031183391396254L113.40728636864677,-234.16246932938503M123.10626256773847,-37.88731158270636L117.2651198435203,-40.031183391396254M123.10626256773847,-37.88731158270636L117.2651198435203,-40.031183391396254" style="fill:none;stroke:rgb(0,0,0);stroke-width:1;stroke-linecap:round"></path><path d="M123.10626256773845,-37.88731158270636L176.34091736478842,-18.348621800047525" style="fill:none;stroke:rgb(186,45,138);stroke-width:5;stroke-linecap:round"></path><path d="M123.10626256773847,-37.88731158270636L176.34091736478848,-18.348621800047525" style="fill:none;stroke:rgb(41,170,178);stroke-width:5;stroke-linecap:round"></path><path d="M214.3108160685826,-37.39208218051311L209.66990067034135,-40.59278610195752L222.48235539803483,-27.899454924979434zM204.30419730179764,-32.99236950278636L205.63359772989082,-25.09760923429022L222.48235539803483,-27.899454924979434zM209.66990067034135,-40.59278610195752L204.30419730179764,-32.99236950278636L222.48235539803483,-27.899454924979434z" style="fill:rgb(197,147,42)"></path><path d="M206.8301205555396,-34.10296807973444L202.1831454798383,-37.30374504671331L214.9995471966868,-24.602575167939797z" style="fill:rgb(186,45,138)"></path><path d="M206.8301205555396,-34.10296807973444L202.1831454798383,-37.30374504671331L214.9995471966868,-24.602575167939797z" style="fill:rgb(41,170,178)"></path><path d="M196.81304804997325,-29.698659099488513L198.14579952068718,-21.800944326210203L214.9995471966868,-24.602575167939797z" style="fill:rgb(186,45,138)"></path><path d="M196.81304804997325,-29.698659099488513L198.1457995206872,-21.800944326210203L214.9995471966868,-24.602575167939797z" style="fill:rgb(41,170,178)"></path><path d="M202.1831454798383,-37.30374504671331L196.81304804997325,-29.698659099488513L214.9995471966868,-24.602575167939797z" style="fill:rgb(186,45,138)"></path><path d="M202.1831454798383,-37.30374504671331L196.81304804997325,-29.698659099488513L214.9995471966868,-24.602575167939797z" style="fill:rgb(41,170,178)"></path><path d="M108.97980092740357,-31.71595111010581L162.23472716837014,-12.144102500458525" style="fill:none;stroke:rgb(197,147,42);stroke-width:5;stroke-linecap:round"></path><path d="M-179.4773297226798,94.30095103125028L249.0111199027288,-92.8907710227557L243.1899769034122,-95.0023950508991z" style="fill:rgb(0,0,0); fill-opacity: 0.2"></path><path d="M-92.53762525814363,403.75241234446787L-238.61979709054555,457.4904698464628M-206.8982192021393,469.99329834647614L-92.53762525814363,403.75241234446787" style="fill:none;stroke:rgb(0,0,0);stroke-width:1;stroke-linecap:round"></path><path d="M190.90768154397114,-27.102186056134236L186.24779598204708,-30.303112944519736L199.0725892113874,-17.585254402789776zM180.86834038149314,-22.688085987168623L182.2082336882212,-14.784086695681989L199.0725892113874,-17.585254402789776zM186.24779598204708,-30.303112944519736L180.86834038149314,-22.688085987168623L199.0725892113874,-17.585254402789776z" style="fill:rgb(197,147,42)"></path><path d="M-372.4207538459606,-368.5958962108691L-411.5493988822459,389.33152890779525M-238.6197970905455,457.4904698464629L-411.5493988822459,389.33152890779525" style="fill:none;stroke:rgb(0,0,0);stroke-width:1;stroke-linecap:round"></path><path d="M-185.36430501069677,92.07860459226193L243.1899769034122,-95.0023950508991L239.8759469225199,-287.6550238304579z" style="fill:rgb(0,0,0); fill-opacity: 0.2"></path><path d="M181.52501031513043,-22.97681079016563L176.857508890827,-26.177822484544475L189.68724093930848,-13.450127068454286z" style="fill:rgb(186,45,138)"></path><path d="M181.52501031513046,-22.97681079016563L176.85750889082703,-26.177822484544475L189.68724093930848,-13.450127068454318z" style="fill:rgb(41,170,178)"></path><path d="M113.40728636864677,-234.16246932938503L113.40728636864677,-234.16246932938503L117.2651198435203,-40.031183391396254z" style="fill:rgb(0,0,0); fill-opacity: 0.2"></path><path d="M171.47253523769152,-18.556935998138318L172.8166429270877,-10.649235992143858L189.68724093930848,-13.450127068454286z" style="fill:rgb(186,45,138)"></path><path d="M171.47253523769155,-18.556935998138318L172.81664292708774,-10.649235992143858L189.68724093930848,-13.450127068454318z" style="fill:rgb(41,170,178)"></path><path d="M85.37409746955494,-21.403439105560828L138.66275831066795,-1.776119815519295" style="fill:none;stroke:rgb(197,147,42);stroke-width:5;stroke-linecap:round"></path><path d="M176.857508890827,-26.177822484544475L171.47253523769152,-18.556935998138318L189.68724093930848,-13.450127068454286z" style="fill:rgb(186,45,138)"></path><path d="M176.85750889082703,-26.177822484544475L171.47253523769155,-18.556935998138318L189.68724093930848,-13.450127068454318z" style="fill:rgb(41,170,178)"></path><path d="M167.42798116289964,-16.77862543656482L162.7490260285551,-19.97975961478694L175.5861699527289,-7.237281003542743zM157.35575683485203,-12.35006728902018L158.70620464746082,-4.436810735157343L175.5861699527289,-7.237281003542743zM162.7490260285551,-19.97975961478694L157.35575683485203,-12.35006728902018L175.5861699527289,-7.237281003542743z" style="fill:rgb(197,147,42)"></path><path d="M61.691065189990105,-11.057144824471125L115.01339568867922,8.625904031313913" style="fill:none;stroke:rgb(197,147,42);stroke-width:5;stroke-linecap:round"></path><path d="M143.8713385696474,-6.421234845626121L139.1732137815438,-9.62256047870313L152.02272051477357,3.1446314239369326zM133.7660692512451,-1.9781474683398903L135.12713363445206,5.944384617859558L152.02272051477357,3.1446314239369326zM139.1732137815438,-9.62256047870313L133.7660692512451,-1.9781474683398903L152.02272051477357,3.1446314239369326z" style="fill:rgb(197,147,42)"></path><path d="M37.93032348849936,-0.676901995823547L91.28625751562417,19.062136966562022" style="fill:none;stroke:rgb(197,147,42);stroke-width:5;stroke-linecap:round"></path><path d="M-190.56592731617832,-105.59066641244662L239.8759469225199,-287.6550238304579L236.53496417775554,-481.8744823740089zM-195.81113235300145,-304.91614508214116L236.53496417775563,-481.8744823740089L61.873176476061026,-542.3929551490996z" style="fill:rgb(0,0,0); fill-opacity: 0.2"></path><path d="M120.2373749378347,3.9701522791606703L115.51997973640695,0.7686511856557988L128.38186131251794,13.560650122491793zM110.09889774071772,8.42784050498387L111.47064120046922,16.359666423866745L128.38186131251794,13.560650122491793zM115.51997973640695,0.7686511856557988L110.09889774071772,8.42784050498387L128.38186131251794,13.560650122491793z" style="fill:rgb(197,147,42)"></path><path d="M14.091489263096818,9.737456744334368L67.48095948942616,29.532748023083624" style="fill:none;stroke:rgb(197,147,42);stroke-width:5;stroke-linecap:round"></path><path d="M96.5257089501155,14.395703595502905L91.78894189189013,11.194043197027948L104.6632102628583,24.010943435612134zM86.3538599135967,18.86806476013963L87.7363454008639,26.80920284224624L104.6632102628583,24.010943435612134zM91.78894189189013,11.194043197027948L86.3538599135967,18.86806476013963L104.6632102628583,24.010943435612134z" style="fill:rgb(197,147,42)"></path><path d="M-9.825823110569816,20.18609986188915L43.59711477196311,40.037907349200815" style="fill:none;stroke:rgb(197,147,42);stroke-width:5;stroke-linecap:round"></path><path d="M-92.53762525814363,403.75241234446787L-58.737686355214194,-161.3501670942855L-206.8982192021393,469.99329834647614z" style="fill:rgb(0,0,0); fill-opacity: 0.2"></path><path d="M-195.81113235300148,-304.9161450821412L-238.61979709054555,457.4904698464628" style="fill:none;stroke:rgb(0,0,0);stroke-width:1;stroke-linecap:round"></path><path d="M72.73595677766998,24.85558786535348L67.97971572952648,21.653784479999764L80.86638276400649,34.49568081650542zM62.53057085989626,29.34269453444758L63.92386177450925,37.29316314031398L80.86638276400649,34.49568081650542zM67.97971572952648,21.653784479999764L62.53057085989626,29.34269453444758L80.86638276400649,34.49568081650542z" style="fill:rgb(197,147,42)"></path><path d="M-33.82200180001233,30.6691969337455L19.634333968113786,50.577786217915836" style="fill:none;stroke:rgb(197,147,42);stroke-width:5;stroke-linecap:round"></path><path d="M-185.36430501069677,92.07860459226193L243.1899769034122,-95.0023950508991L-179.4773297226798,94.30095103125028z" style="fill:rgb(0,0,0); fill-opacity: 0.2"></path><path d="M-185.36430501069677,92.07860459226193L-206.8982192021393,469.99329834647614M-201.07317140426306,472.2891984393856L-206.8982192021393,469.99329834647614" style="fill:none;stroke:rgb(0,0,0);stroke-width:1;stroke-linecap:round"></path><path d="M-411.5493988822459,389.33152890779525L-372.4207538459606,-368.5958962108691L-238.6197970905455,457.4904698464629z" style="fill:rgb(0,0,0); fill-opacity: 0.2"></path><path d="M-201.07317140426306,472.2891984393856L-179.4773297226798,94.30095103125028" style="fill:none;stroke:rgb(114,20,32);stroke-width:5;stroke-linecap:round"></path><path d="M-201.07317140426306,472.2891984393856L-147.98371146349524,493.21402176100037" style="fill:none;stroke:rgb(212,72,90);stroke-width:5;stroke-linecap:round"></path><path d="M-54.125213777571226,34.787518220445136L-58.737686355214194,-161.3501670942855M-54.125213777571226,34.787518220445136L-58.737686355214194,-161.3501670942855M-185.36430501069677,92.07860459226193L-54.125213777571226,34.787518220445136M-48.257727282322676,36.97566403803947L-54.125213777571226,34.787518220445136M-54.125213777571226,34.787518220445136L-185.36430501069677,92.07860459226193M-48.257727282322676,36.97566403803947L-54.125213777571226,34.787518220445136" style="fill:none;stroke:rgb(0,0,0);stroke-width:1;stroke-linecap:round"></path><path d="M48.86773205949324,35.34997496401705L44.091914192867726,32.14804507412998L56.990991674701355,45.015032837255355zM38.628643128519414,39.8519001825043L40.03280332304075,47.81171770245965L56.990991674701355,45.015032837255355z" style="fill:rgb(197,147,42)"></path><path d="M-48.257727282322676,36.97566403803947L-179.4773297226798,94.30095103125028" style="fill:none;stroke:rgb(47,10,107);stroke-width:5;stroke-linecap:round"></path><path d="M-48.257727282322776,36.975664038039504L5.218613211343171,56.918450593445044" style="fill:none;stroke:rgb(112,56,202);stroke-width:5;stroke-linecap:round"></path><path d="M-179.4773297226798,94.30095103125028L-48.257727282322676,36.97566403803947" style="fill:none;stroke:rgb(26,115,41);stroke-width:5;stroke-linecap:round"></path><path d="M-48.257727282322676,36.97566403803947L5.218613211343265,56.918450593445" style="fill:none;stroke:rgb(81,214,102);stroke-width:5;stroke-linecap:round"></path><path d="M44.091914192867726,32.14804507412998L38.628643128519414,39.8519001825043L56.990991674701355,45.015032837255355z" style="fill:rgb(197,147,42)"></path><path d="M-198.9322658235855,434.8173017549086L-145.78676634233776,455.67646755055426" style="fill:none;stroke:rgb(212,72,90);stroke-width:5;stroke-linecap:round"></path><path d="M-57.89743753690171,41.18691865700019L-4.407774895404598,61.1525570362191" style="fill:none;stroke:rgb(197,147,42);stroke-width:5;stroke-linecap:round"></path><path d="M-196.78724138830412,397.27331347724595L-143.58558486435047,418.06652988700256" style="fill:none;stroke:rgb(212,72,90);stroke-width:5;stroke-linecap:round"></path><path d="M24.920645881479665,45.87903588934621L20.125147666510518,42.67699614316372L33.03664729321478,55.5691711980718z" style="fill:rgb(197,147,42)"></path><path d="M-238.61979709054555,457.4904698464628L-195.81113235300148,-304.9161450821412L-92.53762525814363,403.75241234446787z" style="fill:rgb(0,0,0); fill-opacity: 0.2"></path><path d="M14.647686706253483,50.395853185418126L16.062780489891026,58.36503803937697L33.03664729321478,55.5691711980718z" style="fill:rgb(197,147,42)"></path><path d="M-190.56592731617832,-105.59066641244662L239.8759469225199,-287.6550238304579L-185.36430501069677,92.07860459226193z" style="fill:rgb(0,0,0); fill-opacity: 0.2"></path><path d="M20.125147666510518,42.67699614316372L14.647686706253483,50.395853185418126L33.03664729321478,55.5691711980718z" style="fill:rgb(197,147,42)"></path><path d="M-142.6469491900448,488.38477625202364L-147.5263633131557,485.39965679526387L-134.6733682601343,498.4601964290254z" style="fill:rgb(212,72,90)"></path><path d="M-74.31420605597863,48.3588346615845L-20.80192234297598,68.36341998520949" style="fill:none;stroke:rgb(112,56,202);stroke-width:5;stroke-linecap:round"></path><path d="M-74.31420605597857,48.358834661584474L-20.80192234297593,68.36341998520946" style="fill:none;stroke:rgb(81,214,102);stroke-width:5;stroke-linecap:round"></path><path d="M-153.04153317469323,493.2161020907974L-151.56577629073257,501.0285462493536L-134.6733682601343,498.4601964290254zM-147.5263633131557,485.39965679526387L-153.04153317469323,493.2161020907974L-134.6733682601343,498.4601964290254z" style="fill:rgb(212,72,90)"></path><path d="M-194.63808620067456,359.65702536225365L-141.38015476429356,380.3839992033878" style="fill:none;stroke:rgb(212,72,90);stroke-width:5;stroke-linecap:round"></path><path d="M-372.4207538459606,-368.5958962108691L61.873176476061026,-542.3929551490996L-195.81113235300145,-304.91614508214116z" style="fill:rgb(0,0,0); fill-opacity: 0.2"></path><path d="M-82.05252363827613,51.73943685820708L-28.52960639140901,71.7623933544898" style="fill:none;stroke:rgb(197,147,42);stroke-width:5;stroke-linecap:round"></path><path d="M-206.8982192021393,469.99329834647614L-185.36430501069677,92.07860459226193L-201.07317140426306,472.2891984393856z" style="fill:rgb(0,0,0); fill-opacity: 0.2"></path><path d="M10.514377922529523,52.21318743992895L5.7070215102686,49.011089840754444L18.625980002219293,61.91842351066712z" style="fill:rgb(112,56,202)"></path><path d="M10.514377922529617,52.213187439928916L5.707021510268693,49.011089840754416L18.625980002219386,61.91842351066705z" style="fill:rgb(81,214,102)"></path><path d="M0.22101586921224625,56.73897547861545L1.6427008661825893,64.71378958676347L18.625980002219293,61.91842351066712z" style="fill:rgb(112,56,202)"></path><path d="M0.22101586921234054,56.73897547861545L1.6427008661826832,64.71378958676344L18.625980002219386,61.91842351066705z" style="fill:rgb(81,214,102)"></path><path d="M5.7070215102686,49.011089840754444L0.22101586921224625,56.73897547861545L18.625980002219293,61.91842351066712z" style="fill:rgb(112,56,202)"></path><path d="M5.707021510268693,49.011089840754416L0.22101586921234054,56.73897547861545L18.625980002219386,61.91842351066705z" style="fill:rgb(81,214,102)"></path><path d="M-140.4455065300515,450.8535313872242L-145.32853662678878,447.84703994100386L-132.462336524348,460.90619524939666z" style="fill:rgb(212,72,90)"></path><path d="M-54.125213777571226,34.787518220445136L-185.36430501069677,92.07860459226193L-48.257727282322676,36.97566403803947z" style="fill:rgb(0,0,0); fill-opacity: 0.2"></path><path d="M-150.84854740475865,455.6629251245333L-149.37215759594994,463.4963995043604L-132.462336524348,460.90619524939666z" style="fill:rgb(212,72,90)"></path><path d="M-179.4773297226798,94.30095103125028L-48.257727282322676,36.97566403803947L-54.125213777571226,34.787518220445136z" style="fill:rgb(0,0,0); fill-opacity: 0.2"></path><path d="M-145.32853662678878,447.84703994100386L-150.84854740475865,455.6629251245333L-132.462336524348,460.90619524939666z" style="fill:rgb(212,72,90)"></path><path d="M0.8943067552989404,56.442942771029365L-3.9209760450865034,53.24080998433856L9.002957336148496,66.1582687366328z" style="fill:rgb(197,147,42)"></path><path d="M-192.48478831708442,321.9682283629684L-139.1704637295339,342.6286651229782" style="fill:none;stroke:rgb(212,72,90);stroke-width:5;stroke-linecap:round"></path><path d="M-9.412691003443488,60.97472616013611L-7.986598860883457,68.95329679738573L9.002957336148496,66.1582687366328zM-3.9209760450865034,53.24080998433856L-9.412691003443488,60.97472616013611L9.002957336148496,66.1582687366328z" style="fill:rgb(197,147,42)"></path><path d="M-92.53762525814363,403.75241234446787L-58.737686355214194,-161.3501670942855L-195.81113235300148,-304.9161450821412z" style="fill:rgb(0,0,0); fill-opacity: 0.2"></path><path d="M-100.46390275259762,59.782728958173735L-46.91576111944986,79.84942821414487" style="fill:none;stroke:rgb(112,56,202);stroke-width:5;stroke-linecap:round"></path><path d="M-100.46390275259752,59.78272895817367L-46.91576111944977,79.8494282141448" style="fill:none;stroke:rgb(81,214,102);stroke-width:5;stroke-linecap:round"></path><path d="M-138.23982008123912,413.2499363857547L-143.12647103223082,410.2219960404417L-130.24703882391455,423.2797373796191zM-148.65133115091328,418.0373044091426L-147.17430871953675,425.8918756420062L-130.24703882391455,423.2797373796191z" style="fill:rgb(212,72,90)"></path><path d="M-58.737686355214194,-161.3501670942855L-195.81113235300148,-304.9161450821412M-58.737686355214194,-161.3501670942855L-195.81113235300148,-304.9161450821412M-185.36430501069677,92.07860459226193L-58.737686355214194,-161.3501670942855M-185.36430501069677,92.07860459226193L-58.737686355214194,-161.3501670942855" style="fill:none;stroke:rgb(0,0,0);stroke-width:1;stroke-linecap:round"></path><path d="M-206.8982192021393,469.99329834647614L-185.36430501069677,92.07860459226193L-58.737686355214194,-161.3501670942855z" style="fill:rgb(0,0,0); fill-opacity: 0.2"></path><path d="M-143.12647103223082,410.2219960404417L-148.65133115091328,418.0373044091426L-130.24703882391455,423.2797373796191z" style="fill:rgb(212,72,90)"></path><path d="M-106.28765602795964,62.32692450273441L-52.73155771383633,82.40746987599039" style="fill:none;stroke:rgb(197,147,42);stroke-width:5;stroke-linecap:round"></path><path d="M-185.36430501069677,92.07860459226193L-54.125213777571226,34.787518220445136L-58.737686355214194,-161.3501670942855z" style="fill:rgb(0,0,0); fill-opacity: 0.2"></path><path d="M-190.32733574783194,284.2067126257343L-136.95649939981578,304.8003164553512" style="fill:none;stroke:rgb(212,72,90);stroke-width:5;stroke-linecap:round"></path><path d="M-15.489074117870024,63.646391829263706L-20.31787034022663,60.44420546648624L-7.385475420032199,73.37891247753797z" style="fill:rgb(112,56,202)"></path><path d="M-15.489074117869928,63.646391829263635L-20.31787034022658,60.44420546648621L-7.385475420032153,73.3789124775379z" style="fill:rgb(81,214,102)"></path><path d="M-25.81931483859424,68.18839468979057L-24.385706578549673,76.1733582127967L-7.385475420032199,73.37891247753797z" style="fill:rgb(112,56,202)"></path><path d="M-25.819314838594195,68.18839468979054L-24.385706578549577,76.17335821279667L-7.385475420032153,73.3789124775379z" style="fill:rgb(81,214,102)"></path><path d="M-20.31787034022663,60.44420546648624L-25.81931483859424,68.18839468979057L-7.385475420032199,73.37891247753797z" style="fill:rgb(112,56,202)"></path><path d="M-20.31787034022658,60.44420546648621L-25.819314838594195,68.18839468979054L-7.385475420032153,73.3789124775379z" style="fill:rgb(81,214,102)"></path><path d="M-136.0298775604448,375.57378183839313L-140.9201542543873,372.52431535823905L-128.02746280078387,385.5806129202949z" style="fill:rgb(212,72,90)"></path><path d="M-23.211679402937655,67.04186887997061L-28.046851738996015,63.8396600377827L-15.110473082980027,76.7824994375195z" style="fill:rgb(197,147,42)"></path><path d="M-146.44987215981263,380.33903011562467L-144.97221741343873,388.21476510181907L-128.02746280078387,385.5806129202949zM-140.9201542543873,372.52431535823905L-146.44987215981263,380.33903011562467L-128.02746280078387,385.5806129202949z" style="fill:rgb(212,72,90)"></path><path d="M-33.55288520186688,71.58869286886414L-32.11572946598635,79.57666776784654L-15.110473082980027,76.7824994375195zM-28.046851738996015,63.8396600377827L-33.55288520186688,71.58869286886414L-15.110473082980027,76.7824994375195z" style="fill:rgb(197,147,42)"></path><path d="M-188.1657164569037,246.3722674863084L-134.73824936703056,266.8987411924568" style="fill:none;stroke:rgb(212,72,90);stroke-width:5;stroke-linecap:round"></path><path d="M-126.70731850393604,71.24756585486699L-73.12340586294798,91.37669640942937" style="fill:none;stroke:rgb(112,56,202);stroke-width:5;stroke-linecap:round"></path><path d="M-126.70731850393595,71.2475658548669L-73.12340586294788,91.3766964094293" style="fill:none;stroke:rgb(81,214,102);stroke-width:5;stroke-linecap:round"></path><path d="M-58.737686355214194,-161.3501670942855L-58.737686355214194,-161.3501670942855L-185.36430501069677,92.07860459226193zM-58.737686355214194,-161.3501670942855L-190.56592731617832,-105.59066641244662L-54.125213777571226,34.787518220445136z" style="fill:rgb(0,0,0); fill-opacity: 0.2"></path><path d="M-133.81566663705686,337.82485752698807L-138.70957397072257,334.7537873484681L-125.80359604912637,347.80861116050085z" style="fill:rgb(212,72,90)"></path><path d="M-130.6032332581941,72.94955570421469L-77.01402869954416,93.08796246645532" style="fill:none;stroke:rgb(197,147,42);stroke-width:5;stroke-linecap:round"></path><path d="M-201.07317140426306,472.2891984393856L-179.4773297226798,94.30095103125028L-185.36430501069677,92.07860459226193z" style="fill:rgb(0,0,0); fill-opacity: 0.2"></path><path d="M-144.24415813074512,342.5678916038532L-142.76587138227205,350.46485751353197L-125.80359604912637,347.80861116050085z" style="fill:rgb(212,72,90)"></path><path d="M-185.36430501069677,92.07860459226193L-54.125213777571226,34.787518220445136L-179.4773297226798,94.30095103125028zM-195.81113235300148,-304.9161450821412L236.53496417775554,-481.8744823740089L-190.56592731617832,-105.59066641244662z" style="fill:rgb(0,0,0); fill-opacity: 0.2"></path><path d="M-138.70957397072257,334.7537873484681L-144.24415813074512,342.5678916038532L-125.80359604912637,347.80861116050085z" style="fill:rgb(212,72,90)"></path><path d="M-48.257727282322676,36.97566403803947L-179.4773297226798,94.30095103125028L-185.36430501069677,92.07860459226193z" style="fill:rgb(0,0,0); fill-opacity: 0.2"></path><path d="M-41.58574080955049,75.12058086011908L-46.436099825758916,71.91832568043075L-33.49025511208922,84.88051954976218z" style="fill:rgb(112,56,202)"></path><path d="M-41.58574080955044,75.120580860119L-46.43609982575882,71.91832568043075L-33.49025511208913,84.88051954976216z" style="fill:rgb(81,214,102)"></path><path d="M-185.99991836175053,208.46468146594265L-132.51570117498477,228.9237265046563" style="fill:none;stroke:rgb(212,72,90);stroke-width:5;stroke-linecap:round"></path><path d="M-51.95305874454747,79.67888583962265L-50.50745076078423,87.67402035371396L-33.49025511208913,84.88051954976216z" style="fill:rgb(81,214,102)"></path><path d="M-51.95305874454757,79.67888583962265L-50.50745076078428,87.67402035371403L-33.49025511208922,84.88051954976218zM-46.436099825758916,71.91832568043075L-51.95305874454757,79.67888583962265L-33.49025511208922,84.88051954976218z" style="fill:rgb(112,56,202)"></path><path d="M-46.43609982575882,71.91832568043075L-51.95305874454747,79.67888583962265L-33.49025511208913,84.88051954976216z" style="fill:rgb(81,214,102)"></path><path d="M-47.39770929422362,77.67598863776347L-52.25287683542864,74.47372089600728L-39.30404147536513,87.44203844174505z" style="fill:rgb(197,147,42)"></path><path d="M-131.59717493278558,300.0029524205501L-136.4947178110306,296.91020065069324L-123.57542611510195,309.9635205738624z" style="fill:rgb(212,72,90)"></path><path d="M-57.773293716703755,82.23792822858059L-56.32500868447844,90.23532589666951L-39.30404147536513,87.44203844174505zM-52.25287683542864,74.47372089600728L-57.773293716703755,82.23792822858059L-39.30404147536513,87.44203844174505z" style="fill:rgb(197,147,42)"></path><path d="M-142.0341767154029,304.7236774186525L-140.55525828309433,312.64194169316636L-123.57542611510195,309.9635205738624zM-136.4947178110306,296.91020065069324L-142.0341767154029,304.7236774186525L-123.57542611510195,309.9635205738624z" style="fill:rgb(212,72,90)"></path><path d="M-183.82992933306264,170.48374226744423L-130.28884231916706,190.87505873673885" style="fill:none;stroke:rgb(212,72,90);stroke-width:5;stroke-linecap:round"></path><path d="M-54.125213777571226,34.787518220445136L-185.36430501069677,92.07860459226193L-190.56592731617832,-105.59066641244662z" style="fill:rgb(0,0,0); fill-opacity: 0.2"></path><path d="M-153.04495804025532,82.75356585078596L-99.42536293675293,102.94544729177747" style="fill:none;stroke:rgb(112,56,202);stroke-width:5;stroke-linecap:round"></path><path d="M-153.04495804025527,82.75356585078589L-99.42536293675289,102.94544729177741" style="fill:none;stroke:rgb(81,214,102);stroke-width:5;stroke-linecap:round"></path><path d="M-154.99965653148757,83.60750573408966L-101.37742185033042,103.80404816377627" style="fill:none;stroke:rgb(197,147,42);stroke-width:5;stroke-linecap:round"></path><path d="M-129.3743900214325,262.1078546713188L-134.27557335720428,258.99334308602744L-121.3429404966274,272.04512881460516zM-139.81991551765134,266.806175285852L-138.3403657251746,274.74580563909427L-121.3429404966274,272.04512881460516zM-134.27557335720428,258.99334308602744L-139.81991551765134,266.806175285852L-121.3429404966274,272.04512881460516z" style="fill:rgb(212,72,90)"></path><path d="M-67.77612427274123,86.63597530484492L-72.64816997808498,83.43367147179603L-59.6888622217664,96.42346641120507z" style="fill:rgb(112,56,202)"></path><path d="M-67.77612427274114,86.63597530484485L-72.64816997808488,83.43367147179603L-59.688862221766314,96.42346641120501z" style="fill:rgb(81,214,102)"></path><path d="M-181.65573719454306,132.42923677121195L-128.05766024651368,152.7525234039146" style="fill:none;stroke:rgb(212,72,90);stroke-width:5;stroke-linecap:round"></path><path d="M-78.18071939668417,91.21067032824027L-76.72303463453112,99.21599744588266L-59.6888622217664,96.42346641120507z" style="fill:rgb(112,56,202)"></path><path d="M-78.18071939668413,91.21067032824021L-76.72303463453102,99.21599744588259L-59.688862221766314,96.42346641120501z" style="fill:rgb(81,214,102)"></path><path d="M-72.64816997808498,83.43367147179603L-78.18071939668417,91.21067032824027L-59.6888622217664,96.42346641120507z" style="fill:rgb(112,56,202)"></path><path d="M-72.64816997808488,83.43367147179603L-78.18071939668413,91.21067032824021L-59.688862221766314,96.42346641120501z" style="fill:rgb(81,214,102)"></path><path d="M-238.6197970905455,457.4904698464629L-195.81113235300145,-304.91614508214116L-372.4207538459606,-368.5958962108691z" style="fill:rgb(0,0,0); fill-opacity: 0.2"></path><path d="M-71.66418225841852,88.34547762625864L-76.53945139955502,85.1431683134931L-63.57814799875629,98.1370620563788zM-82.07431702388678,92.922608320645L-80.6148365195904,100.92944729391742L-63.57814799875629,98.1370620563788zM-76.53945139955502,85.1431683134931L-82.07431702388678,92.922608320645L-63.57814799875629,98.1370620563788z" style="fill:rgb(197,147,42)"></path><path d="M-127.14729942865836,224.13935161080738L-132.0521281430032,221.00300165316705L-119.10612664314272,234.05322271358327z" style="fill:rgb(212,72,90)"></path><path d="M-185.36430501069677,92.07860459226193L-190.56592731617832,-105.59066641244662M-185.36430501069677,92.07860459226193L-190.56592731617832,-105.59066641244662M-179.4773297226798,94.30095103125028L-185.36430501069677,92.07860459226193M-179.4773297226798,94.30095103125028L-185.36430501069677,92.07860459226193M-179.4773297226798,94.30095103125028L-185.36430501069677,92.07860459226193M-179.4773297226798,94.30095103125028L-185.36430501069677,92.07860459226193" style="fill:none;stroke:rgb(0,0,0);stroke-width:1;stroke-linecap:round"></path><path d="M-137.60136209329738,228.81517210831643L-136.12118126976165,236.77623652807767L-119.10612664314272,234.05322271358327zM-132.0521281430032,221.00300165316705L-137.60136209329738,228.81517210831643L-119.10612664314272,234.05322271358327z" style="fill:rgb(212,72,90)"></path><path d="M-179.4773297226798,94.30095103125022L-125.82214235517247,114.55590518778418" style="fill:none;stroke:rgb(197,147,42);stroke-width:5;stroke-linecap:round"></path><path d="M-179.4773297226798,94.30095103125028L-125.82214235517247,114.55590518778423" style="fill:none;stroke:rgb(112,56,202);stroke-width:5;stroke-linecap:round"></path><path d="M-179.4773297226798,94.30095103125022L-125.82214235517247,114.55590518778418" style="fill:none;stroke:rgb(81,214,102);stroke-width:5;stroke-linecap:round"></path><path d="M-179.4773297226798,94.30095103125028L-125.82214235517247,114.55590518778423" style="fill:none;stroke:rgb(212,72,90);stroke-width:5;stroke-linecap:round"></path><path d="M-195.81113235300145,-304.91614508214116L-372.4207538459606,-368.5958962108691M-195.81113235300145,-304.91614508214116L-372.4207538459606,-368.5958962108691" style="fill:none;stroke:rgb(0,0,0);stroke-width:1;stroke-linecap:round"></path><path d="M-124.9158906317499,186.09722974582456L-129.82436965382027,182.93896252440354L-116.86497195537576,195.98758827428472z" style="fill:rgb(212,72,90)"></path><path d="M-94.06073024052618,98.19279752429186L-98.95458745017116,94.9904654206404L-85.98180352028038,108.0079763421807z" style="fill:rgb(112,56,202)"></path><path d="M-94.0607302405261,98.19279752429179L-98.95458745017112,94.9904654206404L-85.98180352028032,108.00797634218064z" style="fill:rgb(81,214,102)"></path><path d="M-135.37850394985637,190.75045396195463L-133.89769242985136,198.73302071128415L-116.86497195537576,195.98758827428472zM-129.82436965382027,182.93896252440354L-135.37850394985637,190.75045396195463L-116.86497195537576,195.98758827428472z" style="fill:rgb(212,72,90)"></path><path d="M-96.01150029622681,99.05051259722788L-100.90697816354673,95.84817921637337L-87.93319547952062,108.86774776426657z" style="fill:rgb(197,147,42)"></path><path d="M-104.50280396875321,102.7839711499259L-103.03296477392401,110.79951251950781L-85.98180352028038,108.0079763421807z" style="fill:rgb(112,56,202)"></path><path d="M-104.50280396875313,102.78397114992585L-103.03296477392396,110.79951251950774L-85.98180352028032,108.00797634218064z" style="fill:rgb(81,214,102)"></path><path d="M-98.95458745017116,94.9904654206404L-104.50280396875321,102.7839711499259L-85.98180352028038,108.0079763421807z" style="fill:rgb(112,56,202)"></path><path d="M-98.95458745017112,94.9904654206404L-104.50280396875313,102.78397114992585L-85.98180352028032,108.00797634218064z" style="fill:rgb(81,214,102)"></path><path d="M-106.45635826966708,103.64291040050348L-104.98561564075338,111.65920924350549L-87.93319547952062,108.86774776426657zM-100.90697816354673,95.84817921637337L-106.45635826966708,103.64291040050348L-87.93319547952062,108.86774776426657z" style="fill:rgb(197,147,42)"></path><path d="M-122.68015105938507,147.981274754473L-127.59228532644701,144.80101104161153L-114.61946378510582,157.84801066881363zM-133.15132854631747,152.61180609170364L-131.66988666995238,160.61594371027974L-114.61946378510582,157.84801066881363zM-127.59228532644701,144.80101104161153L-133.15132854631747,152.61180609170364L-114.61946378510582,157.84801066881363z" style="fill:rgb(212,72,90)"></path><path d="M-58.737686355214194,-161.3501670942855L-190.56592731617832,-105.59066641244662L-195.81113235300148,-304.9161450821412z" style="fill:rgb(0,0,0); fill-opacity: 0.2"></path><path d="M-120.44006809139671,109.79127148212416L-125.35586254883721,106.58893171221341L-112.36958943492566,119.63427423384879z" style="fill:rgb(197,147,42)"></path><path d="M-120.44006809139681,109.79127148212423L-125.35586254883721,106.58893171221341L-112.36958943492566,119.63427423384881z" style="fill:rgb(112,56,202)"></path><path d="M-120.44006809139671,109.79127148212416L-125.35586254883721,106.58893171221341L-112.36958943492566,119.63427423384879z" style="fill:rgb(81,214,102)"></path><path d="M-120.44006809139681,109.79127148212423L-125.35586254883721,106.58893171221341L-112.36958943492566,119.63427423384881z" style="fill:rgb(212,72,90)"></path><path d="M-130.91982329290795,114.39901290749037L-129.43775140585035,122.42479021299816L-112.36958943492566,119.63427423384879z" style="fill:rgb(197,147,42)"></path><path d="M-130.91982329290806,114.39901290749044L-129.43775140585043,122.42479021299823L-112.36958943492566,119.63427423384881z" style="fill:rgb(112,56,202)"></path><path d="M-130.91982329290795,114.39901290749037L-129.43775140585035,122.42479021299816L-112.36958943492566,119.63427423384879z" style="fill:rgb(81,214,102)"></path><path d="M-130.91982329290806,114.39901290749044L-129.43775140585043,122.42479021299823L-112.36958943492566,119.63427423384881z" style="fill:rgb(212,72,90)"></path><path d="M-125.35586254883721,106.58893171221341L-130.91982329290795,114.39901290749037L-112.36958943492566,119.63427423384879z" style="fill:rgb(197,147,42)"></path><path d="M-125.35586254883721,106.58893171221341L-130.91982329290806,114.39901290749044L-112.36958943492566,119.63427423384881z" style="fill:rgb(112,56,202)"></path><path d="M-125.35586254883721,106.58893171221341L-130.91982329290795,114.39901290749037L-112.36958943492566,119.63427423384879z" style="fill:rgb(81,214,102)"></path><path d="M-125.35586254883721,106.58893171221341L-130.91982329290806,114.39901290749044L-112.36958943492566,119.63427423384881z" style="fill:rgb(212,72,90)"></path><path d="M-195.81113235300148,-304.9161450821412L-195.81113235300148,-304.9161450821412L-58.737686355214194,-161.3501670942855z" style="fill:rgb(0,0,0); fill-opacity: 0.2"></path><path d="M-190.56592731617832,-105.59066641244662L-195.81113235300148,-304.9161450821412M-190.56592731617832,-105.59066641244662L-195.81113235300148,-304.9161450821412M-195.81113235300148,-304.9161450821412L-195.81113235300148,-304.9161450821412" style="fill:none;stroke:rgb(0,0,0);stroke-width:1;stroke-linecap:round"></path></svg>