<svg viewBox="-812 -675 1624 1350" width="1624" height="1350" style="background-color: rgb(255, 255, 255);">
    <path d="M11.00106202955353,167.20533937104088L-4.366605850340848,-411.3769299714748" style="fill:none;stroke:rgb(0,0,0);stroke-width:1;stroke-linecap:round">
    </path>
    <path d="M210.94165058371198,218.16143783096072L11.00106202955353,167.20533937104088" style="fill:none;stroke:rgb(160,0,0);stroke-width:4;stroke-linecap:round">
    </path>
    <path d="M210.94165058371198,218.16143783096072L205.97409529751351,-380.59308733997193" style="fill:none;stroke:rgb(0,0,0);stroke-width:1;stroke-linecap:round">
    </path>
    <path d="M188.9661952831739,236.59472434327063L210.94165058371198,218.16143783096072" style="fill:none;stroke:rgb(160,0,0);stroke-width:4;stroke-linecap:round">
    </path>
    <path d="M205.97409529751351,-380.59308733997193L210.94165058371198,218.16143783096072L11.00106202955353,167.20533937104088z" style="fill:rgb(0,0,0); fill-opacity: 0.2">
    </path>
    <path d="M-4.366605850340848,-411.3769299714748L11.00106202955353,167.20533937104088L205.97409529751351,-380.59308733997193z" style="fill:rgb(0,0,0); fill-opacity: 0.2">
    </path>
    <path d="M183.26062007959305,-315.46199809180456L188.9661952831739,236.59472434327063" style="fill:none;stroke:rgb(104,70,1);stroke-width:5;stroke-linecap:round">
    </path>
    <path d="M188.9661952831739,236.59472434327063L125.82675679361857,270.0400533099456" style="fill:none;stroke:rgb(197,147,42);stroke-width:5;stroke-linecap:round">
    </path>
    <path d="M205.97409529751351,-380.59308733997193L-4.366605850340848,-411.3769299714748" style="fill:none;stroke:rgb(0,0,0);stroke-width:1;stroke-linecap:round">
    </path>
    <path d="M-4.366605850340848,-411.3769299714748L-541.2802754254783,-249.34778081668756" style="fill:none;stroke:rgb(0,0,0);stroke-width:1;stroke-linecap:round">
    </path>
    <path d="M205.97409529751351,-380.59308733997193L-4.366605850340848,-411.3769299714748" style="fill:none;stroke:rgb(0,0,0);stroke-width:1;stroke-linecap:round">
    </path>
    <path d="M188.35966307125963,177.90823384699837L124.85943030950439,210.33575983687484" style="fill:none;stroke:rgb(197,147,42);stroke-width:5;stroke-linecap:round">
    </path>
    <path d="M187.7465365672071,118.583696672755L123.8813702744351,149.96898158048336" style="fill:none;stroke:rgb(197,147,42);stroke-width:5;stroke-linecap:round">
    </path>
    <path d="M183.26062007959305,-315.46199809180456L188.9661952831739,236.59472434327063L210.94165058371198,218.16143783096072z" style="fill:rgb(0,0,0); fill-opacity: 0.2">
    </path>
    <path d="M187.1267076423004,58.61065056520131L122.89239704089269,88.92863052827727" style="fill:none;stroke:rgb(197,147,42);stroke-width:5;stroke-linecap:round">
    </path>
    <path d="M125.62975915559582,257.881175219489L115.33888900012698,263.49408805436514L109.63781795351791,278.6154286709114z" style="fill:rgb(197,147,42)">
    </path>
    <path d="M186.50006579080284,-2.0215967253592715L121.89232692985162,27.203369839357073" style="fill:none;stroke:rgb(197,147,42);stroke-width:5;stroke-linecap:round">
    </path>
    <path d="M132.4423183868741,281.6014847059266L136.23319432499068,269.08801799743094L109.63781795351791,278.6154286709114z" style="fill:rgb(197,147,42)">
    </path>
    <path d="M136.23319432499068,269.08801799743094L125.62975915559582,257.881175219489L109.63781795351791,278.6154286709114z" style="fill:rgb(197,147,42)">
    </path>
    <path d="M205.97409529751351,-380.59308733997193L210.94165058371198,218.16143783096072L183.26062007959305,-315.46199809180456z" style="fill:rgb(0,0,0); fill-opacity: 0.2">
    </path>
    <path d="M124.66025159482602,198.0422636594835L114.31532018156169,203.8483022628932L108.57573012776487,218.6513216527796z" style="fill:rgb(197,147,42)">
    </path>
    <path d="M185.86649806427815,-63.323973797935004L120.88097211705075,-35.21839317497575" style="fill:none;stroke:rgb(197,147,42);stroke-width:5;stroke-linecap:round">
    </path>
    <path d="M131.51122937632985,221.9440987012242L135.32120179004662,209.24178677368025L108.57573012776487,218.6513216527796z" style="fill:rgb(197,147,42)">
    </path>
    <path d="M227.25013736656962,-225.51192568813482L211.80820372609458,-226.60226930484455L216.27190743341683,-223.2337114297939z" style="fill:rgb(43,180,168)">
    </path>
    <path d="M135.32120179004662,209.24178677368025L124.66025159482602,198.0422636594835L108.57573012776487,218.6513216527796z" style="fill:rgb(197,147,42)">
    </path>
    <path d="M211.80820372609458,-226.60226930484455L202.5082499835328,-223.03986337112246L216.27190743341683,-223.2337114297939z" style="fill:rgb(43,180,168)">
    </path>
    <path d="M215.4951822490228,-326.7734848440069L216.27190743341677,-223.2337114297939" style="fill:none;stroke:rgb(43,180,168);stroke-width:5;stroke-linecap:round">
    </path>
    <path d="M227.57006239693237,-221.26102839530643L227.25013736656962,-225.51192568813482L216.27190743341683,-223.2337114297939z" style="fill:rgb(43,180,168)">
    </path>
    <path d="M212.2296866737882,-219.72386648168882L202.5082499835328,-223.03986337112246L216.46389260175656,-197.64151842746404z" style="fill:rgb(43,180,168)">
    </path>
    <path d="M227.57006239693237,-221.26102839530643L212.2296866737882,-219.72386648168882L216.46389260175656,-197.64151842746404z" style="fill:rgb(43,180,168)">
    </path>
    <path d="M202.5082499835328,-223.03986337112246L212.2296866737882,-219.72386648168882L216.27190743341683,-223.2337114297939z" style="fill:rgb(43,180,168)">
    </path>
    <path d="M212.2296866737882,-219.72386648168882L227.57006239693237,-221.26102839530643L216.27190743341683,-223.2337114297939z" style="fill:rgb(43,180,168)">
    </path>
    <path d="M123.67997405958499,137.53861922274314L113.28041183082901,143.54173500332206L107.50179625940592,158.0184023675877z" style="fill:rgb(197,147,42)">
    </path>
    <path d="M185.2258890037214,-125.30765216768306L119.85814051539408,-98.34851430957943" style="fill:none;stroke:rgb(197,147,42);stroke-width:5;stroke-linecap:round">
    </path>
    <path d="M211.4527114430877,-219.42446277342344L195.9525585467443,-220.52866442104767L200.3888964682025,-217.1233635068272z" style="fill:rgb(109,213,75)">
    </path>
    <path d="M130.56980596876144,161.62455998565108L134.39906640100304,148.72996721619984L107.50179625940592,158.0184023675877z" style="fill:rgb(197,147,42)">
    </path>
    <path d="M134.39906640100304,148.72996721619984L123.67997405958499,137.53861922274314L107.50179625940592,158.0184023675877z" style="fill:rgb(197,147,42)">
    </path>
    <path d="M195.9525585467443,-220.52866442104767L186.55633635626106,-216.9293822512067L200.3888964682025,-217.1233635068272z" style="fill:rgb(109,213,75)">
    </path>
    <path d="M199.4620101505497,-321.1472562998L200.3888964682024,-217.12336350682722" style="fill:none;stroke:rgb(109,213,75);stroke-width:5;stroke-linecap:round">
    </path>
    <path d="M211.71289875558298,-215.1278804327313L211.4527114430877,-219.42446277342344L200.3888964682025,-217.1233635068272z" style="fill:rgb(109,213,75)">
    </path>
    <path d="M196.27641774668447,-213.57635020704018L186.55633635626106,-216.9293822512067L200.61798383058763,-191.41302689799494z" style="fill:rgb(109,213,75)">
    </path>
    <path d="M211.71289875558298,-215.1278804327313L196.27641774668447,-213.57635020704018L200.61798383058763,-191.41302689799494z" style="fill:rgb(109,213,75)">
    </path>
    <path d="M186.55633635626106,-216.9293822512067L196.27641774668447,-213.57635020704018L200.3888964682025,-217.1233635068272z" style="fill:rgb(109,213,75)">
    </path>
    <path d="M196.27641774668447,-213.57635020704018L211.71289875558298,-215.1278804327313L200.3888964682025,-217.1233635068272z" style="fill:rgb(109,213,75)">
    </path>
    <path d="M122.68874608679685,76.35910355978456L112.23397446206171,82.56334448418676L106.41581704896896,96.70541862451657z" style="fill:rgb(197,147,42)">
    </path>
    <path d="M184.57812056941424,-187.9840530529176L118.8236356533244,-162.19911997234487" style="fill:none;stroke:rgb(197,147,42);stroke-width:5;stroke-linecap:round">
    </path>
    <path d="M215.4951822490228,-326.7734848440069L183.26062007959305,-315.46199809180456" style="fill:none;stroke:rgb(45,114,23);stroke-width:5;stroke-linecap:round">
    </path>
    <path d="M215.4951822490228,-326.7734848440069L205.97409529751351,-380.59308733997193" style="fill:none;stroke:rgb(0,0,0);stroke-width:1;stroke-linecap:round">
    </path>
    <path d="M-307.0626031059218,-143.4018157878543L215.4951822490228,-326.7734848440069" style="fill:none;stroke:rgb(1,93,85);stroke-width:5;stroke-linecap:round">
    </path>
    <path d="M215.4951822490228,-326.7734848440069L205.97409529751351,-380.59308733997193" style="fill:none;stroke:rgb(0,0,0);stroke-width:1;stroke-linecap:round">
    </path>
    <path d="M129.61787514778607,100.63178293256615L133.46661800388227,87.54139358195984L106.41581704896896,96.70541862451657z" style="fill:rgb(197,147,42)">
    </path>
    <path d="M133.46661800388227,87.54139358195984L122.68874608679685,76.35910355978456L106.41581704896896,96.70541862451657z" style="fill:rgb(197,147,42)">
    </path>
    <path d="M190.13404014188453,-211.2094142227548L174.5556695340958,-212.33245113957662L178.9542561802499,-208.8772500935785z" style="fill:rgb(43,180,168)">
    </path>
    <path d="M174.5556695340958,-212.33245113957662L165.02874669047551,-208.68310326025315L178.9542561802499,-208.8772500935785z" style="fill:rgb(43,180,168)">
    </path>
    <path d="M205.97409529751351,-380.59308733997193L205.97409529751351,-380.59308733997193L215.4951822490228,-326.7734848440069z" style="fill:rgb(0,0,0); fill-opacity: 0.2">
    </path>
    <path d="M183.26062007959305,-315.46199809180456L205.97409529751351,-380.59308733997193" style="fill:none;stroke:rgb(0,0,0);stroke-width:1;stroke-linecap:round">
    </path>
    <path d="M205.97409529751351,-380.59308733997193L205.97409529751351,-380.59308733997193" style="fill:none;stroke:rgb(0,0,0);stroke-width:1;stroke-linecap:round">
    </path>
    <path d="M183.26062007959305,-315.46199809180456L205.97409529751351,-380.59308733997193" style="fill:none;stroke:rgb(0,0,0);stroke-width:1;stroke-linecap:round">
    </path>
    <path d="M205.97409529751351,-380.59308733997193L-320.00365458698536,-205.77686828475555" style="fill:none;stroke:rgb(0,0,0);stroke-width:1;stroke-linecap:round">
    </path>
    <path d="M177.82231657723352,-313.55363347068567L178.95425618024984,-208.8772500935785" style="fill:none;stroke:rgb(43,180,168);stroke-width:5;stroke-linecap:round">
    </path>
    <path d="M190.3126078126101,-206.85079168193118L190.13404014188453,-211.2094142227548L178.9542561802499,-208.8772500935785z" style="fill:rgb(43,180,168)">
    </path>
    <path d="M174.74615446248362,-205.2797656924881L165.02874669047551,-208.68310326025315L179.23400181836558,-183.007705830403z" style="fill:rgb(43,180,168)">
    </path>
    <path d="M190.3126078126101,-206.85079168193118L174.74615446248362,-205.2797656924881L179.23400181836558,-183.007705830403z" style="fill:rgb(43,180,168)">
    </path>
    <path d="M165.02874669047551,-208.68310326025315L174.74615446248362,-205.2797656924881L178.9542561802499,-208.8772500935785z" style="fill:rgb(43,180,168)">
    </path>
    <path d="M215.4951822490228,-326.7734848440069L183.26062007959305,-315.46199809180456L205.97409529751351,-380.59308733997193z" style="fill:rgb(0,0,0); fill-opacity: 0.2">
    </path>
    <path d="M174.74615446248362,-205.2797656924881L190.3126078126101,-206.85079168193118L178.9542561802499,-208.8772500935785z" style="fill:rgb(43,180,168)">
    </path>
    <path d="M121.68638315892335,14.492328075924052L111.17581434394923,20.901841521952047L105.31758870104537,34.70086439799356z" style="fill:rgb(197,147,42)">
    </path>
    <path d="M183.92307206841554,-251.36485439094866L117.77725654900928,-226.78261494956442" style="fill:none;stroke:rgb(197,147,42);stroke-width:5;stroke-linecap:round">
    </path>
    <path d="M128.65526001320632,38.95443306885973L132.52368261735725,25.66464897187891L105.31758870104537,34.70086439799356z" style="fill:rgb(197,147,42)">
    </path>
    <path d="M132.52368261735725,25.66464897187891L121.68638315892335,14.492328075924052L105.31758870104537,34.70086439799356z" style="fill:rgb(197,147,42)">
    </path>
    <path d="M120.67269658945632,-48.07335313623943L110.1057333801685,-41.45431742655977L104.2069027967934,-28.007027370629295z" style="fill:rgb(197,147,42)">
    </path>
    <path d="M183.26062007959305,-315.4619980918044L116.7187975801693,-292.111690440241" style="fill:none;stroke:rgb(197,147,42);stroke-width:5;stroke-linecap:round">
    </path>
    <path d="M127.68177967141746,-23.419079946981604L131.57008232452975,-36.91194177081756L104.2069027967934,-28.007027370629295z" style="fill:rgb(197,147,42)">
    </path>
    <path d="M131.57008232452975,-36.91194177081756L120.67269658945632,-48.07335313623943L104.2069027967934,-28.007027370629295z" style="fill:rgb(197,147,42)">
    </path>
    <path d="M152.1066677474511,-196.55574720660272L136.38977191321834,-197.7127633525072L140.71867757760518,-194.1676532287408z" style="fill:rgb(43,180,168)">
    </path>
    <path d="M136.38977191321834,-197.7127633525072L126.62746851714196,-193.97325146807526L140.71867757760518,-194.1676532287408z" style="fill:rgb(43,180,168)">
    </path>
    <path d="M139.21409542915492,-300.0055548665111L140.71867757760512,-194.1676532287408" style="fill:none;stroke:rgb(43,180,168);stroke-width:5;stroke-linecap:round">
    </path>
    <path d="M152.13678350985387,-192.0853528974355L152.1066677474511,-196.55574720660272L140.71867757760518,-194.1676532287408z" style="fill:rgb(43,180,168)">
    </path>
    <path d="M136.33769781348408,-190.47924967205597L126.62746851714196,-193.97325146807526L141.09046463206965,-168.01476969151167z" style="fill:rgb(43,180,168)">
    </path>
    <path d="M113.37552078479092,-89.20062231742442L126.69724912208159,-86.50060958593318L103.0835461620773,-91.430292217754z" style="fill:rgb(197,147,42)">
    </path>
    <path d="M119.64749340450706,-111.34985060522666L109.02352898575091,-104.51693746855712L103.0835461620773,-91.430292217754z" style="fill:rgb(197,147,42)">
    </path>
    <path d="M152.13678350985387,-192.0853528974355L136.33769781348408,-190.47924967205597L141.09046463206965,-168.01476969151167z" style="fill:rgb(43,180,168)">
    </path>
    <path d="M126.62746851714196,-193.97325146807526L136.33769781348408,-190.47924967205597L140.71867757760518,-194.1676532287408z" style="fill:rgb(43,180,168)">
    </path>
    <path d="M136.33769781348408,-190.47924967205597L152.13678350985387,-192.0853528974355L140.71867757760518,-194.1676532287408z" style="fill:rgb(43,180,168)">
    </path>
    <path d="M126.69724912208159,-86.50060958593318L130.60563516101647,-100.20031940457565L103.0835461620773,-91.430292217754z" style="fill:rgb(197,147,42)">
    </path>
    <path d="M130.60563516101647,-100.20031940457565L119.64749340450706,-111.34985060522666L103.0835461620773,-91.430292217754z" style="fill:rgb(197,147,42)">
    </path>
    <path d="M112.3063559748817,-152.86016941818934L125.70147914092163,-150.3022799581678L101.94730073106818,-155.5812418584639z" style="fill:rgb(197,147,42)">
    </path>
    <path d="M118.61057622033731,-175.3493470395982L107.92899395922349,-168.29809272592763L101.94730073106818,-155.5812418584639z" style="fill:rgb(197,147,42)">
    </path>
    <path d="M125.70147914092163,-150.3022799581678L129.63015499919337,-164.21269788552962L101.94730073106818,-155.5812418584639z" style="fill:rgb(197,147,42)">
    </path>
    <path d="M129.63015499919337,-164.21269788552962L118.61057622033731,-175.3493470395982L101.94730073106818,-155.5812418584639z" style="fill:rgb(197,147,42)">
    </path>
    <path d="M113.13404260457177,-181.53783154139447L97.2765029781826,-182.7301790087001L101.53088158393709,-179.09172912467892z" style="fill:rgb(43,180,168)">
    </path>
    <path d="M97.2765029781826,-182.7301790087001L87.26998674799272,-178.89711985796777L101.53088158393709,-179.09172912467892z" style="fill:rgb(43,180,168)">
    </path>
    <path d="M111.22494595248605,-217.24881335586437L124.69427615847736,-214.83649358146204L100.79794340512251,-220.47247215404911z" style="fill:rgb(197,147,42)">
    </path>
    <path d="M117.56174311666764,-240.08430514746826L106.82191635035423,-232.81013404202395L100.79794340512251,-220.47247215404911z" style="fill:rgb(197,147,42)">
    </path>
    <path d="M99.63524590674726,-286.1168713569611L101.53088158393705,-179.09172912467903" style="fill:none;stroke:rgb(43,180,168);stroke-width:5;stroke-linecap:round">
    </path>
    <path d="M113.00821003498133,-176.9514149427242L113.13404260457177,-181.53783154139447L101.53088158393709,-179.09172912467892z" style="fill:rgb(43,180,168)">
    </path>
    <path d="M96.96965463238152,-175.30896154723612L87.26998674799272,-178.89711985796777L101.99923099736952,-152.6493260879721z" style="fill:rgb(43,180,168)">
    </path>
    <path d="M113.00821003498133,-176.9514149427242L96.96965463238152,-175.30896154723612L101.99923099736952,-152.6493260879721z" style="fill:rgb(43,180,168)">
    </path>
    <path d="M124.69427615847736,-214.83649358146204L128.64345142844556,-228.9615722257073L100.79794340512251,-220.47247215404911z" style="fill:rgb(197,147,42)">
    </path>
    <path d="M87.26998674799272,-178.89711985796777L96.96965463238152,-175.30896154723612L101.53088158393709,-179.09172912467892z" style="fill:rgb(43,180,168)">
    </path>
    <path d="M128.64345142844556,-228.9615722257073L117.56174311666764,-240.08430514746826L100.79794340512251,-220.47247215404911z" style="fill:rgb(197,147,42)">
    </path>
    <path d="M96.96965463238152,-175.30896154723612L113.00821003498133,-176.9514149427242L101.53088158393709,-179.09172912467892z" style="fill:rgb(43,180,168)">
    </path>
    <path d="M110.131079138193,-282.3791518603332L123.67544213466168,-280.11593941872815L99.63524590674729,-286.11687135696087z" style="fill:rgb(197,147,42)">
    </path>
    <path d="M116.50078750559305,-305.5674757271554L105.70207932332464,-298.0656969549187L99.63524590674729,-286.11687135696087z" style="fill:rgb(197,147,42)">
    </path>
    <path d="M123.67544213466168,-280.11593941872815L127.64532963125892,-294.4597266240432L99.63524590674729,-286.11687135696087z" style="fill:rgb(197,147,42)">
    </path>
    <path d="M127.64532963125892,-294.4597266240432L116.50078750559305,-305.5674757271554L99.63524590674729,-286.11687135696087z" style="fill:rgb(197,147,42)">
    </path>
    <path d="M73.18047670361535,-166.1419150224239L57.18014530779738,-167.37101632470657L61.354848706837636,-163.6356207343191z" style="fill:rgb(43,180,168)">
    </path>
    <path d="M57.18014530779738,-167.37101632470657L46.920136480557616,-163.4408552359557L61.354848706837636,-163.6356207343191z" style="fill:rgb(43,180,168)">
    </path>
    <path d="M59.04869898054149,-271.8745749838834L61.35484870683763,-163.63562073431916" style="fill:none;stroke:rgb(43,180,168);stroke-width:5;stroke-linecap:round">
    </path>
    <path d="M72.89077024337402,-161.43500862400316L73.18047670361535,-166.1419150224239L61.354848706837636,-163.6356207343191z" style="fill:rgb(43,180,168)">
    </path>
    <path d="M56.605608938603424,-159.7548685931841L46.920136480557616,-163.4408552359557L61.92453760231338,-136.89731766979116z" style="fill:rgb(43,180,168)">
    </path>
    <path d="M72.89077024337402,-161.43500862400316L56.605608938603424,-159.7548685931841L61.92453760231338,-136.89731766979116z" style="fill:rgb(43,180,168)">
    </path>
    <path d="M46.920136480557616,-163.4408552359557L56.605608938603424,-159.7548685931841L61.354848706837636,-163.6356207343191z" style="fill:rgb(43,180,168)">
    </path>
    <path d="M56.605608938603424,-159.7548685931841L72.89077024337402,-161.43500862400316L61.354848706837636,-163.6356207343191z" style="fill:rgb(43,180,168)">
    </path>
    <path d="M-320.00365458698536,-205.77686828475555L205.97409529751351,-380.59308733997193L-4.366605850340848,-411.3769299714748z" style="fill:rgb(0,0,0); fill-opacity: 0.2">
    </path>
    <path d="M32.20846260340179,-150.35354433569444L16.063163157385542,-151.62089699679893L20.152719577558724,-147.7847631923657z" style="fill:rgb(43,180,168)">
    </path>
    <path d="M16.063163157385542,-151.62089699679893L5.539905786546697,-147.58989689317542L20.152719577558724,-147.7847631923657z" style="fill:rgb(43,180,168)">
    </path>
    <path d="M17.415473689451304,-257.26498686984837L20.152719577558695,-147.78476319236572" style="fill:none;stroke:rgb(43,180,168);stroke-width:5;stroke-linecap:round">
    </path>
    <path d="M31.74649810611192,-145.521449646011L32.20846260340179,-150.35354433569444L20.152719577558724,-147.7847631923657z" style="fill:rgb(43,180,168)">
    </path>
    <path d="M15.207278511853739,-143.80221893845734L5.539905786546697,-147.58989689317542L20.82879873959309,-120.743970764914z" style="fill:rgb(43,180,168)">
    </path>
    <path d="M31.74649810611192,-145.521449646011L15.207278511853739,-143.80221893845734L20.82879873959309,-120.743970764914z" style="fill:rgb(43,180,168)">
    </path>
    <path d="M5.539905786546697,-147.58989689317542L15.207278511853739,-143.80221893845734L20.152719577558724,-147.7847631923657z" style="fill:rgb(43,180,168)">
    </path>
    <path d="M15.207278511853739,-143.80221893845734L31.74649810611192,-145.521449646011L20.152719577558724,-147.7847631923657z" style="fill:rgb(43,180,168)">
    </path>
    <path d="M-541.2802754254783,-249.34778081668756L-492.39563022670825,408.7157822360047" style="fill:none;stroke:rgb(0,0,0);stroke-width:1;stroke-linecap:round">
    </path>
    <path d="M-282.38498148578583,478.3903306876653L-492.39563022670825,408.7157822360047" style="fill:none;stroke:rgb(160,0,0);stroke-width:4;stroke-linecap:round">
    </path>
    <path d="M-307.0626031059218,-143.4018157878543L215.4951822490228,-326.7734848440069L205.97409529751351,-380.59308733997193z" style="fill:rgb(0,0,0); fill-opacity: 0.2">
    </path>
    <path d="M-9.821444012561509,-134.15751980152368L-26.113914743215407,-135.46470130600525L-22.115324044710917,-131.5238380364964z" style="fill:rgb(43,180,168)">
    </path>
    <path d="M-26.113914743215407,-135.46470130600525L-36.910683728057705,-131.3289308536639L-22.115324044710917,-131.5238380364964z" style="fill:rgb(43,180,168)">
    </path>
    <path d="M-165.67910533992105,411.2790184038888L-160.94238639966184,427.11233059515564L-154.74334521337954,418.6596733813196z" style="fill:rgb(167,41,160)">
    </path>
    <path d="M-144.10679330760414,417.99139281548906L-147.62658725457447,431.2928359376389L-135.75704042625674,408.6025169564661z" style="fill:rgb(167,41,160)">
    </path>
    <path d="M-160.94238639966184,427.11233059515564L-147.62658725457447,431.2928359376389L-154.74334521337954,418.6596733813196z" style="fill:rgb(167,41,160)">
    </path>
    <path d="M-155.3011103553883,405.60242752438614L-144.10679330760414,417.99139281548906L-135.75704042625674,408.6025169564661z" style="fill:rgb(167,41,160)">
    </path>
    <path d="M-25.30544773548949,-242.2737133976006L-22.115324044710935,-131.5238380364965" style="fill:none;stroke:rgb(43,180,168);stroke-width:5;stroke-linecap:round">
    </path>
    <path d="M-10.464541132282136,-129.19529226007984L-9.821444012561509,-134.15751980152368L-22.115324044710917,-131.5238380364964z" style="fill:rgb(43,180,168)">
    </path>
    <path d="M-155.3011103553883,405.60242752438614L-165.67910533992105,411.2790184038888L-154.74334521337954,418.6596733813196z" style="fill:rgb(167,41,160)">
    </path>
    <path d="M-27.26560621035038,-127.43549489875745L-36.910683728057705,-131.3289308536639L-21.32751127133575,-104.17374916333047z" style="fill:rgb(43,180,168)">
    </path>
    <path d="M-232.84219707015745,460.02909089208265L-154.7433452133796,418.6596733813197" style="fill:none;stroke:rgb(167,41,160);stroke-width:5;stroke-linecap:round">
    </path>
    <path d="M-10.464541132282136,-129.19529226007984L-27.26560621035038,-127.43549489875745L-21.32751127133575,-104.17374916333047z" style="fill:rgb(43,180,168)">
    </path>
    <path d="M-36.910683728057705,-131.3289308536639L-27.26560621035038,-127.43549489875745L-22.115324044710917,-131.5238380364964z" style="fill:rgb(43,180,168)">
    </path>
    <path d="M-147.62658725457447,431.2928359376389L-144.10679330760414,417.99139281548906L-154.74334521337954,418.6596733813196z" style="fill:rgb(167,41,160)">
    </path>
    <path d="M-144.10679330760414,417.99139281548906L-155.3011103553883,405.60242752438614L-154.74334521337954,418.6596733813196z" style="fill:rgb(167,41,160)">
    </path>
    <path d="M-27.26560621035038,-127.43549489875745L-10.464541132282136,-129.19529226007984L-22.115324044710917,-131.5238380364964z" style="fill:rgb(43,180,168)">
    </path>
    <path d="M-168.47987676310132,347.20478629095186L-163.71316493093033,363.16942845945846L-157.483233127131,354.51907473893755z" style="fill:rgb(167,41,160)">
    </path>
    <path d="M-146.789429940729,353.68680014358716L-150.32453541386118,367.208408404859L-138.36825342926377,344.7576695599337z" style="fill:rgb(167,41,160)">
    </path>
    <path d="M-163.71316493093033,363.16942845945846L-150.32453541386118,367.208408404859L-157.483233127131,354.51907473893755z" style="fill:rgb(167,41,160)">
    </path>
    <path d="M-158.04772685034837,341.30431323161184L-146.789429940729,353.68680014358716L-138.36825342926377,344.7576695599337z" style="fill:rgb(167,41,160)">
    </path>
    <path d="M-158.04772685034837,341.30431323161184L-168.47987676310132,347.20478629095186L-157.483233127131,354.51907473893755z" style="fill:rgb(167,41,160)">
    </path>
    <path d="M-236.124708721425,394.6787463307573L-157.483233127131,354.51907473893755" style="fill:none;stroke:rgb(167,41,160);stroke-width:5;stroke-linecap:round">
    </path>
    <path d="M-150.32453541386118,367.208408404859L-146.789429940729,353.68680014358716L-157.483233127131,354.51907473893755z" style="fill:rgb(167,41,160)">
    </path>
    <path d="M-146.789429940729,353.68680014358716L-158.04772685034837,341.30431323161184L-157.483233127131,354.51907473893755z" style="fill:rgb(167,41,160)">
    </path>
    <path d="M-171.3144579641102,282.35707600898263L-166.51737206694068,298.45507455400656L-160.2562533583947,289.602850689042z" style="fill:rgb(167,41,160)">
    </path>
    <path d="M-52.95075099597523,-117.537846566755L-69.3926215752977,-118.88651970529159L-65.49118762498688,-114.8367238290518z" style="fill:rgb(43,180,168)">
    </path>
    <path d="M-149.50458797188793,288.60264782954926L-153.05511885119873,302.3487943274198L-141.01086649588768,280.1450823169959z" style="fill:rgb(167,41,160)">
    </path>
    <path d="M-166.51737206694068,298.45507455400656L-153.05511885119873,302.3487943274198L-160.2562533583947,289.602850689042z" style="fill:rgb(167,41,160)">
    </path>
    <path d="M-160.82759815633378,276.2277059661143L-149.50458797188793,288.60264782954926L-141.01086649588768,280.1450823169959z" style="fill:rgb(167,41,160)">
    </path>
    <path d="M-69.3926215752977,-118.88651970529159L-80.4737057528024,-114.64184052529153L-65.49118762498688,-114.8367238290518z" style="fill:rgb(43,180,168)">
    </path>
    <path d="M-160.82759815633378,276.2277059661143L-171.3144579641102,282.35707600898263L-160.2562533583947,289.602850689042z" style="fill:rgb(167,41,160)">
    </path>
    <path d="M-239.4478260571617,328.5199977931147L-160.25625335839473,289.6028506890419" style="fill:none;stroke:rgb(167,41,160);stroke-width:5;stroke-linecap:round">
    </path>
    <path d="M-69.15725466436321,-226.88559890952763L-65.49118762498689,-114.83672382905186" style="fill:none;stroke:rgb(43,180,168);stroke-width:5;stroke-linecap:round">
    </path>
    <path d="M-53.784380240149034,-112.440279259477L-52.95075099597523,-117.537846566755L-65.49118762498688,-114.8367238290518z" style="fill:rgb(43,180,168)">
    </path>
    <path d="M-70.8554327893132,-110.63836262901808L-80.4737057528024,-114.64184052529153L-64.58598488424435,-87.17030427628227z" style="fill:rgb(43,180,168)">
    </path>
    <path d="M-153.05511885119873,302.3487943274198L-149.50458797188793,288.60264782954926L-160.2562533583947,289.602850689042z" style="fill:rgb(167,41,160)">
    </path>
    <path d="M-149.50458797188793,288.60264782954926L-160.82759815633378,276.2277059661143L-160.2562533583947,289.602850689042z" style="fill:rgb(167,41,160)">
    </path>
    <path d="M-53.784380240149034,-112.440279259477L-70.8554327893132,-110.63836262901808L-64.58598488424435,-87.17030427628227z" style="fill:rgb(43,180,168)">
    </path>
    <path d="M-80.4737057528024,-114.64184052529153L-70.8554327893132,-110.63836262901808L-65.49118762498688,-114.8367238290518z" style="fill:rgb(43,180,168)">
    </path>
    <path d="M-70.8554327893132,-110.63836262901808L-53.784380240149034,-112.440279259477L-65.49118762498688,-114.8367238290518z" style="fill:rgb(43,180,168)">
    </path>
    <path d="M-174.18346486745207,216.72179683664362L-169.35561643816897,232.95522315175174L-163.06301054585958,223.89684667907653z" style="fill:rgb(167,41,160)">
    </path>
    <path d="M-152.25286238919747,222.72467361064122L-155.8189333205691,236.69984274665958L-143.68544943487498,214.75082325334623z" style="fill:rgb(167,41,160)">
    </path>
    <path d="M-541.2802754254783,-249.34778081668756L-4.366605850340848,-411.3769299714748L-320.00365458698536,-205.77686828475555z" style="fill:rgb(0,0,0); fill-opacity: 0.2">
    </path>
    <path d="M-169.35561643816897,232.95522315175174L-155.8189333205691,236.69984274665958L-163.06301054585958,223.89684667907653z" style="fill:rgb(167,41,160)">
    </path>
    <path d="M-163.64133190349625,210.35838114538925L-152.25286238919747,222.72467361064122L-143.68544943487498,214.75082325334623z" style="fill:rgb(167,41,160)">
    </path>
    <path d="M-163.64133190349625,210.35838114538925L-174.18346486745207,216.72179683664362L-163.06301054585958,223.89684667907653z" style="fill:rgb(167,41,160)">
    </path>
    <path d="M-242.81230722393641,261.5377516116243L-163.06301054585958,223.89684667907648" style="fill:none;stroke:rgb(167,41,160);stroke-width:5;stroke-linecap:round">
    </path>
    <path d="M-155.8189333205691,236.69984274665958L-152.25286238919747,222.72467361064122L-163.06301054585958,223.89684667907653z" style="fill:rgb(167,41,160)">
    </path>
    <path d="M-152.25286238919747,222.72467361064122L-163.64133190349625,210.35838114538925L-163.06301054585958,223.89684667907653z" style="fill:rgb(167,41,160)">
    </path>
    <path d="M-232.84219707015745,460.02909089208265L-263.91276122421607,-158.5436024899373" style="fill:none;stroke:rgb(84,0,79);stroke-width:5;stroke-linecap:round">
    </path>
    <path d="M-232.84219707015745,460.02909089208265L-282.38498148578583,478.3903306876653" style="fill:none;stroke:rgb(160,0,0);stroke-width:4;stroke-linecap:round">
    </path>
    <path d="M-177.08752844971602,150.28451370076368L-172.22852154032066,166.65548547191065L-165.90412413049754,157.38656163600137z" style="fill:rgb(167,41,160)">
    </path>
    <path d="M-155.03486278379614,156.0382651799371L-158.61658916530814,170.24705616263452L-146.3925859257693,148.5606212500268z" style="fill:rgb(167,41,160)">
    </path>
    <path d="M-172.22852154032066,166.65548547191065L-158.61658916530814,170.24705616263452L-165.90412413049754,157.38656163600137z" style="fill:rgb(167,41,160)">
    </path>
    <path d="M-166.48955061615058,143.68176551553628L-155.03486278379614,156.0382651799371L-146.3925859257693,148.5606212500268z" style="fill:rgb(167,41,160)">
    </path>
    <path d="M-492.39563022670825,408.7157822360047L-541.2802754254783,-249.34778081668756L-282.38498148578583,478.3903306876653z" style="fill:rgb(0,0,0); fill-opacity: 0.2">
    </path>
    <path d="M-97.22316646470728,-100.47768191613333L-113.81668885122409,-101.86960056304295L-110.01900243073791,-97.70644284464306z" style="fill:rgb(43,180,168)">
    </path>
    <path d="M-166.48955061615058,143.68176551553628L-177.08752844971602,150.28451370076368L-165.90412413049754,157.38656163600137z" style="fill:rgb(167,41,160)">
    </path>
    <path d="M-246.21892936027012,193.71653601482066L-165.90412413049762,157.38656163600137" style="fill:none;stroke:rgb(167,41,160);stroke-width:5;stroke-linecap:round">
    </path>
    <path d="M-113.81668885122409,-101.86960056304295L-125.19346836512123,-97.51165341955635L-110.01900243073791,-97.70644284464306z" style="fill:rgb(43,180,168)">
    </path>
    <path d="M-158.61658916530814,170.24705616263452L-155.03486278379614,156.0382651799371L-165.90412413049754,157.38656163600137z" style="fill:rgb(167,41,160)">
    </path>
    <path d="M-155.03486278379614,156.0382651799371L-166.48955061615058,143.68176551553628L-165.90412413049754,157.38656163600137z" style="fill:rgb(167,41,160)">
    </path>
    <path d="M-114.18545370971228,-211.0846746004011L-110.01900243073794,-97.70644284464314" style="fill:none;stroke:rgb(43,180,168);stroke-width:5;stroke-linecap:round">
    </path>
    <path d="M-98.25728960887521,-95.23928798173422L-97.22316646470728,-100.47768191613333L-110.01900243073791,-97.70644284464306z" style="fill:rgb(43,180,168)">
    </path>
    <path d="M-115.60684788707022,-93.39361775045458L-125.19346836512123,-97.51165341955635L-108.990418203293,-69.71642133447304z" style="fill:rgb(43,180,168)">
    </path>
    <path d="M-98.25728960887521,-95.23928798173422L-115.60684788707022,-93.39361775045458L-108.990418203293,-69.71642133447304z" style="fill:rgb(43,180,168)">
    </path>
    <path d="M-125.19346836512123,-97.51165341955635L-115.60684788707022,-93.39361775045458L-110.01900243073791,-97.70644284464306z" style="fill:rgb(43,180,168)">
    </path>
    <path d="M-115.60684788707022,-93.39361775045458L-98.25728960887521,-95.23928798173422L-110.01900243073791,-97.70644284464306z" style="fill:rgb(43,180,168)">
    </path>
    <path d="M-180.02729520220976,83.03043659250316L-175.13672619095593,99.54111914216368L-168.78022881132495,90.05713729694456z" style="fill:rgb(167,41,160)">
    </path>
    <path d="M-157.85121380061952,88.52844938093209L-161.4487117674536,102.97557986076056L-149.1328739435649,81.5598556605361z" style="fill:rgb(167,41,160)">
    </path>
    <path d="M-175.13672619095593,99.54111914216368L-161.4487117674536,102.97557986076056L-168.78022881132495,90.05713729694456z" style="fill:rgb(167,41,160)">
    </path>
    <path d="M-169.37289217194376,76.1829264021455L-157.85121380061952,88.52844938093209L-149.1328739435649,81.5598556605361z" style="fill:rgb(167,41,160)">
    </path>
    <path d="M-169.37289217194376,76.1829264021455L-180.02729520220976,83.03043659250316L-168.78022881132495,90.05713729694456z" style="fill:rgb(167,41,160)">
    </path>
    <path d="M-249.66848919508004,125.0404892130729L-168.78022881132495,90.05713729694455" style="fill:none;stroke:rgb(167,41,160);stroke-width:5;stroke-linecap:round">
    </path>
    <path d="M-161.4487117674536,102.97557986076056L-157.85121380061952,88.52844938093209L-168.78022881132495,90.05713729694456z" style="fill:rgb(167,41,160)">
    </path>
    <path d="M-157.85121380061952,88.52844938093209L-169.37289217194376,76.1829264021455L-168.78022881132495,90.05713729694456z" style="fill:rgb(167,41,160)">
    </path>
    <path d="M-320.00365458698536,-205.77686828475555L-282.38498148578583,478.3903306876653" style="fill:none;stroke:rgb(0,0,0);stroke-width:1;stroke-linecap:round">
    </path>
    <path d="M-183.0034276107619,14.944409590744197L-178.08088500304973,31.597017270015396L-171.69197501810763,21.893347143201844z" style="fill:rgb(167,41,160)">
    </path>
    <path d="M-160.70255560597744,20.179880999412884L-164.31594201380258,34.87019084152537L-151.9069261990573,13.733545544140574z" style="fill:rgb(167,41,160)">
    </path>
    <path d="M-178.08088500304973,31.597017270015396L-164.31594201380258,34.87019084152537L-171.69197501810763,21.893347143201844z" style="fill:rgb(167,41,160)">
    </path>
    <path d="M-172.29201027811578,7.8465605610578155L-160.70255560597744,20.179880999412884L-151.9069261990573,13.733545544140574z" style="fill:rgb(167,41,160)">
    </path>
    <path d="M-172.29201027811578,7.8465605610578155L-183.0034276107619,14.944409590744197L-171.69197501810763,21.893347143201844z" style="fill:rgb(167,41,160)">
    </path>
    <path d="M-253.16180366889782,55.493347030989504L-171.69197501810763,21.89334714320182" style="fill:none;stroke:rgb(167,41,160);stroke-width:5;stroke-linecap:round">
    </path>
    <path d="M-142.68474655160253,-82.95927833800421L-159.43219381057125,-84.3962937020411L-155.74527529955944,-80.11510345307939z" style="fill:rgb(43,180,168)">
    </path>
    <path d="M-164.31594201380258,34.87019084152537L-160.70255560597744,20.179880999412884L-171.69197501810763,21.893347143201844z" style="fill:rgb(167,41,160)">
    </path>
    <path d="M-160.70255560597744,20.179880999412884L-172.29201027811578,7.8465605610578155L-171.69197501810763,21.893347143201844z" style="fill:rgb(167,41,160)">
    </path>
    <path d="M-159.43219381057125,-84.3962937020411L-171.11666435184833,-79.9204835699813L-155.74527529955944,-80.11510345307939z" style="fill:rgb(43,180,168)">
    </path>
    <path d="M-160.43802624839782,-194.85410324110424L-155.74527529955947,-80.11510345307943" style="fill:none;stroke:rgb(43,180,168);stroke-width:5;stroke-linecap:round">
    </path>
    <path d="M-143.92992816171028,-77.57427194095168L-142.68474655160253,-82.95927833800421L-155.74527529955944,-80.11510345307939z" style="fill:rgb(43,180,168)">
    </path>
    <path d="M-161.56690980094493,-75.6831265720991L-171.11666435184833,-79.9204835699813L-154.5869588842457,-51.79396125309659z" style="fill:rgb(43,180,168)">
    </path>
    <path d="M-143.92992816171028,-77.57427194095168L-161.56690980094493,-75.6831265720991L-154.5869588842457,-51.79396125309659z" style="fill:rgb(43,180,168)">
    </path>
    <path d="M-171.11666435184833,-79.9204835699813L-161.56690980094493,-75.6831265720991L-155.74527529955944,-80.11510345307939z" style="fill:rgb(43,180,168)">
    </path>
    <path d="M-161.56690980094493,-75.6831265720991L-143.92992816171028,-77.57427194095168L-155.74527529955944,-80.11510345307939z" style="fill:rgb(43,180,168)">
    </path>
    <path d="M-186.0166046534413,-53.989100524403554L-181.0616688762259,-37.19230289369714L-174.64002940175004,-47.12041507972871z" style="fill:rgb(167,41,160)">
    </path>
    <path d="M-163.58954437266723,-49.023168865038286L-167.21893677941023,-34.0847136640558L-154.7153705955722,-54.933661501264055z" style="fill:rgb(167,41,160)">
    </path>
    <path d="M-181.0616688762259,-37.19230289369714L-167.21893677941023,-34.0847136640558L-174.64002940175004,-47.12041507972871z" style="fill:rgb(167,41,160)">
    </path>
    <path d="M-175.2475749655999,-61.34301738848482L-163.58954437266723,-49.023168865038286L-154.7153705955722,-54.933661501264055z" style="fill:rgb(167,41,160)">
    </path>
    <path d="M-175.2475749655999,-61.34301738848482L-186.0166046534413,-53.989100524403554L-174.64002940175004,-47.12041507972871z" style="fill:rgb(167,41,160)">
    </path>
    <path d="M-256.69971057887625,-14.941569933797458L-174.64002940175004,-47.12041507972871" style="fill:none;stroke:rgb(167,41,160);stroke-width:5;stroke-linecap:round">
    </path>
    <path d="M-320.00365458698536,-205.77686828475555L205.97409529751351,-380.59308733997193L-307.0626031059218,-143.4018157878543z" style="fill:rgb(0,0,0); fill-opacity: 0.2">
    </path>
    <path d="M-167.21893677941023,-34.0847136640558L-163.58954437266723,-49.023168865038286L-174.64002940175004,-47.12041507972871z" style="fill:rgb(167,41,160)">
    </path>
    <path d="M-163.58954437266723,-49.023168865038286L-175.2475749655999,-61.34301738848482L-174.64002940175004,-47.12041507972871z" style="fill:rgb(167,41,160)">
    </path>
    <path d="M-189.067522316978,-123.78601608595221L-184.07976550643804,-106.84271171702011L-177.6250753431432,-117.00014727425602z" style="fill:rgb(167,41,160)">
    </path>
    <path d="M-166.51285278339648,-119.09682486641547L-170.1583694292938,-103.90512811144093L-157.55885070278708,-124.45750092422533z" style="fill:rgb(167,41,160)">
    </path>
    <path d="M-184.07976550643804,-106.84271171702011L-170.1583694292938,-103.90512811144093L-177.6250753431432,-117.00014727425602z" style="fill:rgb(167,41,160)">
    </path>
    <path d="M-178.24027310174583,-131.401886966664L-166.51285278339648,-119.09682486641547L-157.55885070278708,-124.45750092422533z" style="fill:rgb(167,41,160)">
    </path>
    <path d="M-178.24027310174583,-131.401886966664L-189.067522316978,-123.78601608595221L-177.6250753431432,-117.00014727425602z" style="fill:rgb(167,41,160)">
    </path>
    <path d="M-260.2830692486559,-86.28136964676352L-177.62507534314324,-117.00014727425605" style="fill:none;stroke:rgb(167,41,160);stroke-width:5;stroke-linecap:round">
    </path>
    <path d="M-320.00365458698536,-205.77686828475555L-541.2802754254783,-249.34778081668756" style="fill:none;stroke:rgb(0,0,0);stroke-width:1;stroke-linecap:round">
    </path>
    <path d="M-320.00365458698536,-205.77686828475555L-541.2802754254783,-249.34778081668756" style="fill:none;stroke:rgb(0,0,0);stroke-width:1;stroke-linecap:round">
    </path>
    <path d="M-170.1583694292938,-103.90512811144093L-166.51285278339648,-119.09682486641547L-177.6250753431432,-117.00014727425602z" style="fill:rgb(167,41,160)">
    </path>
    <path d="M-282.38498148578583,478.3903306876653L-320.00365458698536,-205.77686828475555L-232.84219707015745,460.02909089208265z" style="fill:rgb(0,0,0); fill-opacity: 0.2">
    </path>
    <path d="M-166.51285278339648,-119.09682486641547L-178.24027310174583,-131.401886966664L-177.6250753431432,-117.00014727425602z" style="fill:rgb(167,41,160)">
    </path>
    <path d="M-189.3840552210382,-64.9639219397644L-206.28771883680275,-66.44798933390254L-202.71905066471612,-62.04383778657507z" style="fill:rgb(43,180,168)">
    </path>
    <path d="M-206.28771883680275,-66.44798933390254L-218.29253383195103,-61.849469238449856L-202.71905066471612,-62.04383778657507z" style="fill:rgb(43,180,168)">
    </path>
    <path d="M-207.96559897021936,-178.17611933111746L-202.71905066471615,-62.043837786575146" style="fill:none;stroke:rgb(43,180,168);stroke-width:5;stroke-linecap:round">
    </path>
    <path d="M-190.85150664260402,-59.42619767182508L-189.3840552210382,-64.9639219397644L-202.71905066471612,-62.04383778657507z" style="fill:rgb(43,180,168)">
    </path>
    <path d="M-208.78525352625195,-57.487762484672736L-218.29253383195103,-61.849469238449856L-201.42426610968505,-33.38379775098324z" style="fill:rgb(43,180,168)">
    </path>
    <path d="M-190.85150664260402,-59.42619767182508L-208.78525352625195,-57.487762484672736L-201.42426610968505,-33.38379775098324z" style="fill:rgb(43,180,168)">
    </path>
    <path d="M-192.15689413271173,-194.46266080111326L-187.13587991491178,-177.37047939358985L-180.64781348128926,-187.76225135404863z" style="fill:rgb(167,41,160)">
    </path>
    <path d="M-218.29253383195103,-61.849469238449856L-208.78525352625195,-57.487762484672736L-202.71905066471612,-62.04383778657507z" style="fill:rgb(43,180,168)">
    </path>
    <path d="M-169.47317055332508,-190.05761993798254L-173.1349303391491,-174.60745101113608L-160.43802624839793,-194.85410324110424z" style="fill:rgb(167,41,160)">
    </path>
    <path d="M-187.13587991491178,-177.37047939358985L-173.1349303391491,-174.60745101113608L-180.64781348128926,-187.76225135404863z" style="fill:rgb(167,41,160)">
    </path>
    <path d="M-181.27080892249123,-202.3465342911767L-169.47317055332508,-190.05761993798254L-160.43802624839793,-194.85410324110424z" style="fill:rgb(167,41,160)">
    </path>
    <path d="M-208.78525352625195,-57.487762484672736L-190.85150664260402,-59.42619767182508L-202.71905066471612,-62.04383778657507z" style="fill:rgb(43,180,168)">
    </path>
    <path d="M-181.27080892249123,-202.3465342911767L-192.15689413271173,-194.46266080111326L-180.64781348128926,-187.76225135404863z" style="fill:rgb(167,41,160)">
    </path>
    <path d="M-263.91276122421607,-158.5436024899373L-180.64781348128926,-187.7622513540487" style="fill:none;stroke:rgb(167,41,160);stroke-width:5;stroke-linecap:round">
    </path>
    <path d="M-173.1349303391491,-174.60745101113608L-169.47317055332508,-190.05761993798254L-180.64781348128926,-187.76225135404863z" style="fill:rgb(167,41,160)">
    </path>
    <path d="M-169.47317055332508,-190.05761993798254L-181.27080892249123,-202.3465342911767L-180.64781348128926,-187.76225135404863z" style="fill:rgb(167,41,160)">
    </path>
    <path d="M-282.38498148578583,478.3903306876653L-320.00365458698536,-205.77686828475555L-541.2802754254783,-249.34778081668756z" style="fill:rgb(0,0,0); fill-opacity: 0.2">
    </path>
    <path d="M-237.37233731903416,-46.471865763825754L-254.43452405392046,-48.00505194484286L-250.99208602520469,-43.472734234719034z" style="fill:rgb(43,180,168)">
    </path>
    <path d="M-254.43452405392046,-48.00505194484286L-266.7730403711377,-43.27870545339536L-250.99208602520469,-43.472734234719034z" style="fill:rgb(43,180,168)">
    </path>
    <path d="M-232.84219707015745,460.02909089208265L-263.91276122421607,-158.5436024899373L-320.00365458698536,-205.77686828475555z" style="fill:rgb(0,0,0); fill-opacity: 0.2">
    </path>
    <path d="M-256.8216287276969,-161.0319642325565L-250.99208602520474,-43.47273423471915" style="fill:none;stroke:rgb(43,180,168);stroke-width:5;stroke-linecap:round">
    </path>
    <path d="M-239.07396448636908,-40.77497632076099L-237.37233731903416,-46.471865763825754L-250.99208602520469,-43.472734234719034z" style="fill:rgb(43,180,168)">
    </path>
    <path d="M-257.31426956427924,-38.787337057780704L-266.7730403711377,-43.27870545339536L-249.55368380403502,-14.465749265624781z" style="fill:rgb(43,180,168)">
    </path>
    <path d="M-239.07396448636908,-40.77497632076099L-257.31426956427924,-38.787337057780704L-249.55368380403502,-14.465749265624781z" style="fill:rgb(43,180,168)">
    </path>
    <path d="M-266.7730403711377,-43.27870545339536L-257.31426956427924,-38.787337057780704L-250.99208602520469,-43.472734234719034z" style="fill:rgb(43,180,168)">
    </path>
    <path d="M-257.31426956427924,-38.787337057780704L-239.07396448636908,-40.77497632076099L-250.99208602520469,-43.472734234719034z" style="fill:rgb(43,180,168)">
    </path>
    <path d="M-265.39363636314806,-35.67399150384733L-282.54744806694424,-37.23621910001571L-279.18092885389365,-32.62821378413518z" style="fill:rgb(74,87,214)">
    </path>
    <path d="M-282.54744806694424,-37.23621910001571L-295.08293543810487,-32.43442160410488L-279.18092885389365,-32.62821378413518z" style="fill:rgb(74,87,214)">
    </path>
    <path d="M-285.35741752453373,-151.0184205323979L-279.18092885389365,-32.628213784135255" style="fill:none;stroke:rgb(74,87,214);stroke-width:5;stroke-linecap:round">
    </path>
    <path d="M-267.2347088091993,-29.88311598718951L-265.39363636314806,-35.67399150384733L-279.18092885389365,-32.62821378413518z" style="fill:rgb(74,87,214)">
    </path>
    <path d="M-285.65477029630136,-27.866459946143667L-295.08293543810487,-32.43442160410488L-277.6570797367503,-3.4192535395660553z" style="fill:rgb(74,87,214)">
    </path>
    <path d="M-267.2347088091993,-29.88311598718951L-285.65477029630136,-27.866459946143667L-277.6570797367503,-3.4192535395660553z" style="fill:rgb(74,87,214)">
    </path>
    <path d="M-295.08293543810487,-32.43442160410488L-285.65477029630136,-27.866459946143667L-279.18092885389365,-32.62821378413518z" style="fill:rgb(74,87,214)">
    </path>
    <path d="M-285.65477029630136,-27.866459946143667L-267.2347088091993,-29.88311598718951L-279.18092885389365,-32.62821378413518z" style="fill:rgb(74,87,214)">
    </path>
    <path d="M-286.70370615324185,-27.462257504558224L-303.92673439213786,-29.046748638990408L-300.6190421801209,-24.38076425947446z" style="fill:rgb(43,180,168)">
    </path>
    <path d="M-263.91276122421607,-158.5436024899373L-307.0626031059218,-143.4018157878543" style="fill:none;stroke:rgb(22,31,115);stroke-width:5;stroke-linecap:round">
    </path>
    <path d="M-263.91276122421607,-158.5436024899373L-320.00365458698536,-205.77686828475555" style="fill:none;stroke:rgb(0,0,0);stroke-width:1;stroke-linecap:round">
    </path>
    <path d="M-263.91276122421607,-158.5436024899373L-320.00365458698536,-205.77686828475555" style="fill:none;stroke:rgb(0,0,0);stroke-width:1;stroke-linecap:round">
    </path>
    <path d="M-303.92673439213786,-29.046748638990408L-316.61306191255215,-24.187170872594326L-300.6190421801209,-24.38076425947446z" style="fill:rgb(43,180,168)">
    </path>
    <path d="M-307.06260310592165,-143.40181578785436L-300.61904218012097,-24.380764259474542" style="fill:none;stroke:rgb(43,180,168);stroke-width:5;stroke-linecap:round">
    </path>
    <path d="M-288.6521616065711,-21.5993894671943L-286.70370615324185,-27.462257504558224L-300.6190421801209,-24.38076425947446z" style="fill:rgb(43,180,168)">
    </path>
    <path d="M-307.2092978297262,-19.56052531860352L-316.61306191255215,-24.187170872594326L-299.02942838464446,4.9814948454348915z" style="fill:rgb(43,180,168)">
    </path>
    <path d="M-288.6521616065711,-21.5993894671943L-307.2092978297262,-19.56052531860352L-299.02942838464446,4.9814948454348915z" style="fill:rgb(43,180,168)">
    </path>
    <path d="M-316.61306191255215,-24.187170872594326L-307.2092978297262,-19.56052531860352L-300.6190421801209,-24.38076425947446z" style="fill:rgb(43,180,168)">
    </path>
    <path d="M-307.2092978297262,-19.56052531860352L-288.6521616065711,-21.5993894671943L-300.6190421801209,-24.38076425947446z" style="fill:rgb(43,180,168)">
    </path>
    <path d="M-263.91276122421607,-158.5436024899373L-307.0626031059218,-143.4018157878543L-320.00365458698536,-205.77686828475555z" style="fill:rgb(0,0,0); fill-opacity: 0.2">
    </path>
    <path d="M-320.00365458698536,-205.77686828475555L-320.00365458698536,-205.77686828475555L-263.91276122421607,-158.5436024899373z" style="fill:rgb(0,0,0); fill-opacity: 0.2">
    </path>
    <path d="M-307.0626031059218,-143.4018157878543L-320.00365458698536,-205.77686828475555" style="fill:none;stroke:rgb(0,0,0);stroke-width:1;stroke-linecap:round">
    </path>
    <path d="M-307.0626031059218,-143.4018157878543L-320.00365458698536,-205.77686828475555" style="fill:none;stroke:rgb(0,0,0);stroke-width:1;stroke-linecap:round">
    </path>
    <path d="M-320.00365458698536,-205.77686828475555L-320.00365458698536,-205.77686828475555" style="fill:none;stroke:rgb(0,0,0);stroke-width:1;stroke-linecap:round">
    </path>
</svg>