<svg viewBox="-812 -675 1624 1350" width="1624" height="1350" style="background-color: rgb(255, 255, 255);">
    <path d="M73.73153720552452,224.6519007494008L93.57356871031428,-380.28310862359945" style="fill:none;stroke:rgb(0,0,0);stroke-width:1;stroke-linecap:round">
    </path>
    <path d="M241.59413778076072,270.64120320946336L73.73153720552452,224.6519007494008" style="fill:none;stroke:rgb(160,0,0);stroke-width:4;stroke-linecap:round">
    </path>
    <path d="M241.59413778076072,270.64120320946336L269.8203932017698,-352.6497185920931" style="fill:none;stroke:rgb(0,0,0);stroke-width:1;stroke-linecap:round">
    </path>
    <path d="M50.29877913837718,354.2572939755714L241.59413778076072,270.64120320946336" style="fill:none;stroke:rgb(160,0,0);stroke-width:4;stroke-linecap:round">
    </path>
    <path d="M241.59413778076072,270.64120320946336L50.29877913837718,354.2572939755714" style="fill:none;stroke:rgb(160,0,0);stroke-width:4;stroke-linecap:round">
    </path>
    <path d="M241.59413778076072,270.64120320946336L269.8203932017698,-352.6497185920931" style="fill:none;stroke:rgb(0,0,0);stroke-width:1;stroke-linecap:round">
    </path>
    <path d="M420.6806388512664,319.7055167374454L241.59413778076072,270.64120320946336" style="fill:none;stroke:rgb(160,0,0);stroke-width:4;stroke-linecap:round">
    </path>
    <path d="M269.8203932017698,-352.6497185920931L241.59413778076072,270.64120320946336L73.73153720552452,224.6519007494008z" style="fill:rgb(0,0,0); fill-opacity: 0.2">
    </path>
    <path d="M93.57356871031428,-380.28310862359945L73.73153720552452,224.6519007494008L269.8203932017698,-352.6497185920931z" style="fill:rgb(0,0,0); fill-opacity: 0.2">
    </path>
    <path d="M269.8203932017698,-352.6497185920931L93.57356871031428,-380.28310862359945" style="fill:none;stroke:rgb(0,0,0);stroke-width:1;stroke-linecap:round">
    </path>
    <path d="M93.57356871031428,-380.28310862359945L-429.16526970157446,-276.5001911839563" style="fill:none;stroke:rgb(0,0,0);stroke-width:1;stroke-linecap:round">
    </path>
    <path d="M269.8203932017698,-352.6497185920931L93.57356871031428,-380.28310862359945" style="fill:none;stroke:rgb(0,0,0);stroke-width:1;stroke-linecap:round">
    </path>
    <path d="M255.39031681981166,-34.00541116890071L269.8203932017698,-352.6497185920931" style="fill:none;stroke:rgb(0,0,0);stroke-width:1;stroke-linecap:round">
    </path>
    <path d="M255.39031681981166,-34.00541116890071L269.8203932017698,-352.6497185920931" style="fill:none;stroke:rgb(0,0,0);stroke-width:1;stroke-linecap:round">
    </path>
    <path d="M60.45148621378139,30.690607281136582L255.39031681981166,-34.00541116890071" style="fill:none;stroke:rgb(0,0,0);stroke-width:1;stroke-linecap:round">
    </path>
    <path d="M269.8203932017698,-352.6497185920931L255.39031681981166,-34.00541116890071" style="fill:none;stroke:rgb(0,0,0);stroke-width:1;stroke-linecap:round">
    </path>
    <path d="M255.39031681981166,-34.00541116890071L-245.32760820670543,132.17213291029236" style="fill:none;stroke:rgb(0,0,0);stroke-width:1;stroke-linecap:round">
    </path>
    <path d="M269.8203932017698,-352.6497185920931L255.39031681981166,-34.00541116890071" style="fill:none;stroke:rgb(0,0,0);stroke-width:1;stroke-linecap:round">
    </path>
    <path d="M458.4121468848837,-323.0807915984391L420.6806388512664,319.7055167374454" style="fill:none;stroke:rgb(104,70,1);stroke-width:5;stroke-linecap:round">
    </path>
    <path d="M420.6806388512664,319.7055167374454L514.7906154931599,345.48881906602816" style="fill:none;stroke:rgb(197,147,42);stroke-width:5;stroke-linecap:round">
    </path>
    <path d="M269.8203932017698,-352.6497185920931L241.59413778076072,270.64120320946336L50.29877913837718,354.2572939755714z" style="fill:rgb(0,0,0); fill-opacity: 0.2">
    </path>
    <path d="M269.8203932017698,-352.6497185920931L269.8203932017698,-352.6497185920931L255.39031681981166,-34.00541116890071z" style="fill:rgb(0,0,0); fill-opacity: 0.2">
    </path>
    <path d="M424.29892408412053,258.06514431288093L518.9072115094917,282.9152869673378" style="fill:none;stroke:rgb(197,147,42);stroke-width:5;stroke-linecap:round">
    </path>
    <path d="M458.4121468848837,-323.0807915984391L420.6806388512664,319.7055167374454L241.59413778076072,270.64120320946336z" style="fill:rgb(0,0,0); fill-opacity: 0.2">
    </path>
    <path d="M269.8203932017698,-352.6497185920931L241.59413778076072,270.64120320946336L458.4121468848837,-323.0807915984391z" style="fill:rgb(0,0,0); fill-opacity: 0.2">
    </path>
    <path d="M427.95036256708784,195.85997985216179L523.0621738505971,219.75857487110213" style="fill:none;stroke:rgb(197,147,42);stroke-width:5;stroke-linecap:round">
    </path>
    <path d="M60.45148621378139,30.690607281136582L269.8203932017698,-352.6497185920931" style="fill:none;stroke:rgb(0,0,0);stroke-width:1;stroke-linecap:round">
    </path>
    <path d="M269.8203932017698,-352.6497185920931L269.8203932017698,-352.6497185920931" style="fill:none;stroke:rgb(0,0,0);stroke-width:1;stroke-linecap:round">
    </path>
    <path d="M60.45148621378139,30.690607281136582L269.8203932017698,-352.6497185920931" style="fill:none;stroke:rgb(0,0,0);stroke-width:1;stroke-linecap:round">
    </path>
    <path d="M269.8203932017698,-352.6497185920931L-241.87043553622743,-239.71069205969906" style="fill:none;stroke:rgb(0,0,0);stroke-width:1;stroke-linecap:round">
    </path>
    <path d="M269.8203932017698,-352.6497185920931L60.45148621378139,30.690607281136582" style="fill:none;stroke:rgb(0,0,0);stroke-width:1;stroke-linecap:round">
    </path>
    <path d="M269.8203932017698,-352.6497185920931L60.45148621378139,30.690607281136582" style="fill:none;stroke:rgb(0,0,0);stroke-width:1;stroke-linecap:round">
    </path>
    <path d="M458.4121468848837,-323.0807915984391L269.8203932017698,-352.6497185920931" style="fill:none;stroke:rgb(0,0,0);stroke-width:1;stroke-linecap:round">
    </path>
    <path d="M269.8203932017698,-352.6497185920931L269.8203932017698,-352.6497185920931" style="fill:none;stroke:rgb(0,0,0);stroke-width:1;stroke-linecap:round">
    </path>
    <path d="M458.4121468848837,-323.0807915984391L269.8203932017698,-352.6497185920931" style="fill:none;stroke:rgb(0,0,0);stroke-width:1;stroke-linecap:round">
    </path>
    <path d="M458.4121468848837,-323.0807915984391L269.8203932017698,-352.6497185920931" style="fill:none;stroke:rgb(0,0,0);stroke-width:1;stroke-linecap:round">
    </path>
    <path d="M269.8203932017698,-352.6497185920931L-241.87043553622743,-239.71069205969906" style="fill:none;stroke:rgb(0,0,0);stroke-width:1;stroke-linecap:round">
    </path>
    <path d="M458.4121468848837,-323.0807915984391L269.8203932017698,-352.6497185920931" style="fill:none;stroke:rgb(0,0,0);stroke-width:1;stroke-linecap:round">
    </path>
    <path d="M269.8203932017698,-352.6497185920931L241.59413778076072,270.64120320946336L60.45148621378139,30.690607281136582z" style="fill:rgb(0,0,0); fill-opacity: 0.2">
    </path>
    <path d="M431.63541205707446,133.08222510159396L527.2560413839005,156.01049182586547" style="fill:none;stroke:rgb(197,147,42);stroke-width:5;stroke-linecap:round">
    </path>
    <path d="M435.3545387771346,69.72393757990372L531.4893631157184,91.6626927658984" style="fill:none;stroke:rgb(197,147,42);stroke-width:5;stroke-linecap:round">
    </path>
    <path d="M60.45148621378139,30.690607281136582L50.29877913837718,354.2572939755714L241.59413778076072,270.64120320946336z" style="fill:rgb(0,0,0); fill-opacity: 0.2">
    </path>
    <path d="M255.39031681981166,-34.00541116890071L60.45148621378139,30.690607281136582L269.8203932017698,-352.6497185920931z" style="fill:rgb(0,0,0); fill-opacity: 0.2">
    </path>
    <path d="M255.39031681981166,-34.00541116890071L60.45148621378139,30.690607281136582L269.8203932017698,-352.6497185920931z" style="fill:rgb(0,0,0); fill-opacity: 0.2">
    </path>
    <path d="M508.2844535514313,344.9369312219394L509.9235567044192,358.1353166742359L538.8202050450964,352.0722036800409z" style="fill:rgb(197,147,42)">
    </path>
    <path d="M515.6451019704799,332.50036044527485L508.2844535514313,344.9369312219394L538.8202050450964,352.0722036800409z" style="fill:rgb(197,147,42)">
    </path>
    <path d="M439.1082176131057,5.777027228412837L535.762698430841,26.706674869456624" style="fill:none;stroke:rgb(197,147,42);stroke-width:5;stroke-linecap:round">
    </path>
    <path d="M269.8203932017698,-352.6497185920931L269.8203932017698,-352.6497185920931L458.4121468848837,-323.0807915984391z" style="fill:rgb(0,0,0); fill-opacity: 0.2">
    </path>
    <path d="M512.3828759811747,282.1770163328958L514.0210354609936,295.56764302908977L543.0663886054999,289.26102066137236z" style="fill:rgb(197,147,42)">
    </path>
    <path d="M519.7696470245675,269.80600051524783L512.3828759811747,282.1770163328958L543.0663886054999,289.26102066137236z" style="fill:rgb(197,147,42)">
    </path>
    <path d="M269.8203932017698,-352.6497185920931L269.8203932017698,-352.6497185920931L60.45148621378139,30.690607281136582z" style="fill:rgb(0,0,0); fill-opacity: 0.2">
    </path>
    <path d="M442.896932315747,-58.76674703258426L540.0766173389414,-38.86622618671598" style="fill:none;stroke:rgb(197,147,42);stroke-width:5;stroke-linecap:round">
    </path>
    <path d="M516.5196080908332,218.8304580970249L518.1567347754196,232.41634917935826L547.3523167249692,225.8619208138732z" style="fill:rgb(197,147,42)">
    </path>
    <path d="M523.932669842939,206.5267666726545L516.5196080908332,218.8304580970249L547.3523167249692,225.8619208138732z" style="fill:rgb(197,147,42)">
    </path>
    <path d="M50.29877913837718,354.2572939755714L60.45148621378139,30.690607281136582" style="fill:none;stroke:rgb(0,0,0);stroke-width:1;stroke-linecap:round">
    </path>
    <path d="M446.72117570856915,-123.91578084432143L544.43170072804,-105.06484008010543" style="fill:none;stroke:rgb(197,147,42);stroke-width:5;stroke-linecap:round">
    </path>
    <path d="M60.45148621378139,30.690607281136582L50.29877913837718,354.2572939755714L269.8203932017698,-352.6497185920931z" style="fill:rgb(0,0,0); fill-opacity: 0.2">
    </path>
    <path d="M520.6951895477159,154.88899248714029L522.3311919254289,168.6732310025175L551.6785500448781,161.86661091436036z" style="fill:rgb(197,147,42)">
    </path>
    <path d="M528.1347113858604,142.6544361542219L520.6951895477159,154.88899248714029L551.6785500448781,161.86661091436036z" style="fill:rgb(197,147,42)">
    </path>
    <path d="M458.4121468848837,-323.0807915984391L458.4121468848837,-323.0807915984391L269.8203932017698,-352.6497185920931z" style="fill:rgb(0,0,0); fill-opacity: 0.2">
    </path>
    <path d="M450.5814499015331,-189.67862805013448L548.8285406252568,-171.89816580596604" style="fill:none;stroke:rgb(197,147,42);stroke-width:5;stroke-linecap:round">
    </path>
    <path d="M524.9101702033225,90.34419952362L526.5449543063917,104.3299298817369L556.0456598010455,97.26664102253261z" style="fill:rgb(197,147,42)">
    </path>
    <path d="M532.3763228018491,78.18063133209705L524.9101702033225,90.34419952362L556.0456598010455,97.26664102253261z" style="fill:rgb(197,147,42)">
    </path>
    <path d="M454.4782665108226,-256.06400443942243L553.2677404651026,-239.37537575541432" style="fill:none;stroke:rgb(197,147,42);stroke-width:5;stroke-linecap:round">
    </path>
    <path d="M529.1651103347186,25.187499578198832L530.7985796706046,39.37792905201727L560.4542280751785,32.053400761543244z" style="fill:rgb(197,147,42)">
    </path>
    <path d="M536.6580656686609,13.096816050769865L529.1651103347186,25.187499578198832L560.4542280751785,32.053400761543244z" style="fill:rgb(197,147,42)">
    </path>
    <path d="M458.4121468848837,-323.0807915984391L557.749915365561,-307.5058199119614" style="fill:none;stroke:rgb(197,147,42);stroke-width:5;stroke-linecap:round">
    </path>
    <path d="M458.4121468848837,-323.0807915984391L458.4121468848837,-323.0807915984391" style="fill:none;stroke:rgb(45,114,23);stroke-width:5;stroke-linecap:round">
    </path>
    <path d="M458.4121468848837,-323.0807915984391L557.749915365561,-307.5058199119614" style="fill:none;stroke:rgb(109,213,75);stroke-width:5;stroke-linecap:round">
    </path>
    <path d="M-38.98032570463283,-199.85788164326033L458.4121468848837,-323.0807915984391" style="fill:none;stroke:rgb(1,93,85);stroke-width:5;stroke-linecap:round">
    </path>
    <path d="M458.4121468848837,-323.0807915984391L557.749915365561,-307.5058199119614" style="fill:none;stroke:rgb(43,180,168);stroke-width:5;stroke-linecap:round">
    </path>
    <path d="M533.4605808928055,-40.5898504278646L535.0926363734003,-26.19145015786429L564.9048480535088,-33.78188450786255z" style="fill:rgb(197,147,42)">
    </path>
    <path d="M540.9805122411517,-52.60570814047174L533.4605808928055,-40.5898504278646L564.9048480535088,-33.78188450786255z" style="fill:rgb(197,147,42)">
    </path>
    <path d="M537.7971637577233,-106.99676093478232L539.4277036263093,-92.38705219108266L569.3981242928661,-100.2481576232147z" style="fill:rgb(197,147,42)">
    </path>
    <path d="M545.3442457062374,-118.93580586304633L537.7971637577233,-106.99676093478232L569.3981242928661,-100.2481576232147z" style="fill:rgb(197,147,42)">
    </path>
    <path d="M-245.32760820670543,132.17213291029236L255.39031681981166,-34.00541116890071L269.8203932017698,-352.6497185920931z" style="fill:rgb(0,0,0); fill-opacity: 0.2">
    </path>
    <path d="M-19.300140473049314,384.6793053654636L-248.60680455378198,484.9103144872908" style="fill:none;stroke:rgb(160,0,0);stroke-width:4;stroke-linecap:round">
    </path>
    <path d="M-10.619060267173962,54.277397927678464L-19.300140473049314,384.6793053654636" style="fill:none;stroke:rgb(0,0,0);stroke-width:1;stroke-linecap:round">
    </path>
    <path d="M-248.60680455378198,484.9103144872908L-19.300140473049314,384.6793053654636" style="fill:none;stroke:rgb(160,0,0);stroke-width:4;stroke-linecap:round">
    </path>
    <path d="M542.1754520016176,-174.04231376807056L543.8043717575104,-159.21789123978445L573.9346729944407,-167.35453366989938z" style="fill:rgb(197,147,42)">
    </path>
    <path d="M549.7498604451981,-185.90251189616947L542.1754520016176,-174.04231376807056L573.9346729944407,-167.35453366989938z" style="fill:rgb(197,147,42)">
    </path>
    <path d="M423.0772781664948,-314.3270094519261L523.1329308896405,-298.38124506988123" style="fill:none;stroke:rgb(43,180,168);stroke-width:5;stroke-linecap:round">
    </path>
    <path d="M-241.87043553622743,-239.71069205969906L269.8203932017698,-352.6497185920931L93.57356871031428,-380.28310862359945z" style="fill:rgb(0,0,0); fill-opacity: 0.2">
    </path>
    <path d="M546.5960501590274,-241.73576627903563L548.2232424798148,-226.69315533715414L578.5151222854907,-235.11030414830333z" style="fill:rgb(197,147,42)">
    </path>
    <path d="M554.1979623035711,-253.51503527929827L546.5960501590274,-241.73576627903563L578.5151222854907,-235.11030414830333z" style="fill:rgb(197,147,42)">
    </path>
    <path d="M-241.87043553622743,-239.71069205969906L269.8203932017698,-352.6497185920931L255.39031681981166,-34.00541116890071z" style="fill:rgb(0,0,0); fill-opacity: 0.2">
    </path>
    <path d="M552.6849291664396,-294.82221056842883L561.2833524036506,-297.12704882762955L583.1401125092707,-303.5249412625252z" style="fill:rgb(197,147,42)">
    </path>
    <path d="M552.6849291664396,-294.82221056842883L561.2833524036506,-297.12704882762955L583.1401125092707,-303.5249412625252z" style="fill:rgb(109,213,75)">
    </path>
    <path d="M552.6849291664396,-294.82221056842883L561.2833524036506,-297.12704882762955L583.1401125092707,-303.5249412625252z" style="fill:rgb(43,180,168)">
    </path>
    <path d="M551.0595745051497,-310.08655560587925L552.6849291664396,-294.82221056842883L583.1401125092707,-303.5249412625252z" style="fill:rgb(197,147,42)">
    </path>
    <path d="M551.0595745051497,-310.08655560587925L552.6849291664396,-294.82221056842883L583.1401125092707,-303.5249412625252z" style="fill:rgb(109,213,75)">
    </path>
    <path d="M551.0595745051497,-310.08655560587925L552.6849291664396,-294.82221056842883L583.1401125092707,-303.5249412625252z" style="fill:rgb(43,180,168)">
    </path>
    <path d="M558.6891688688878,-321.78276353384007L551.0595745051497,-310.08655560587925L583.1401125092707,-303.5249412625252z" style="fill:rgb(197,147,42)">
    </path>
    <path d="M558.6891688688878,-321.78276353384007L551.0595745051497,-310.08655560587925L583.1401125092707,-303.5249412625252z" style="fill:rgb(109,213,75)">
    </path>
    <path d="M558.6891688688878,-321.78276353384007L551.0595745051497,-310.08655560587925L583.1401125092707,-303.5249412625252z" style="fill:rgb(43,180,168)">
    </path>
    <path d="M386.78179823749394,-305.3352476108451L487.55761412357566,-289.004066633427" style="fill:none;stroke:rgb(43,180,168);stroke-width:5;stroke-linecap:round">
    </path>
    <path d="M517.9678014403199,-285.5161596768616L526.8024192608004,-287.88431074320346L548.7142925754221,-294.30437030157566z" style="fill:rgb(43,180,168)">
    </path>
    <path d="M-10.619060267173962,54.277397927678464L-241.87043553622743,-239.71069205969906" style="fill:none;stroke:rgb(0,0,0);stroke-width:1;stroke-linecap:round">
    </path>
    <path d="M-10.619060267173962,54.277397927678464L-241.87043553622743,-239.71069205969906" style="fill:none;stroke:rgb(0,0,0);stroke-width:1;stroke-linecap:round">
    </path>
    <path d="M-245.32760820670543,132.17213291029236L-10.619060267173962,54.277397927678464" style="fill:none;stroke:rgb(0,0,0);stroke-width:1;stroke-linecap:round">
    </path>
    <path d="M-241.87043553622743,-239.71069205969906L-10.619060267173962,54.277397927678464" style="fill:none;stroke:rgb(0,0,0);stroke-width:1;stroke-linecap:round">
    </path>
    <path d="M-241.87043553622743,-239.71069205969906L-10.619060267173962,54.277397927678464" style="fill:none;stroke:rgb(0,0,0);stroke-width:1;stroke-linecap:round">
    </path>
    <path d="M516.243375548806,-300.9689662641638L517.9678014403199,-285.5161596768616L548.7142925754221,-294.30437030157566z" style="fill:rgb(43,180,168)">
    </path>
    <path d="M524.0495999014482,-312.84397404840735L516.243375548806,-300.9689662641638L548.7142925754221,-294.30437030157566z" style="fill:rgb(43,180,168)">
    </path>
    <path d="M-19.300140473049314,384.6793053654636L-10.619060267173962,54.277397927678464L-248.60680455378198,484.9103144872908z" style="fill:rgb(0,0,0); fill-opacity: 0.2">
    </path>
    <path d="M349.48599462630483,-296.0956677954097L450.9836109605469,-279.36364779891915" style="fill:none;stroke:rgb(43,180,168);stroke-width:5;stroke-linecap:round">
    </path>
    <path d="M-429.16526970157446,-276.5001911839563L-426.3657749919835,423.4776661046083" style="fill:none;stroke:rgb(0,0,0);stroke-width:1;stroke-linecap:round">
    </path>
    <path d="M-248.60680455378198,484.9103144872908L-426.3657749919835,423.4776661046083" style="fill:none;stroke:rgb(160,0,0);stroke-width:4;stroke-linecap:round">
    </path>
    <path d="M482.28869844984746,-275.9522478574802L491.3693784643556,-278.3863567795001L513.3310483958272,-284.8273639611755z" style="fill:rgb(43,180,168)">
    </path>
    <path d="M480.46029209393583,-291.59817134393325L482.28869844984746,-275.9522478574802L513.3310483958272,-284.8273639611755z" style="fill:rgb(43,180,168)">
    </path>
    <path d="M488.4500785855197,-303.6574675094728L480.46029209393583,-291.59817134393325L513.3310483958272,-284.8273639611755z" style="fill:rgb(43,180,168)">
    </path>
    <path d="M-38.98032570463283,-199.85788164326033L458.4121468848837,-323.0807915984391L269.8203932017698,-352.6497185920931z" style="fill:rgb(0,0,0); fill-opacity: 0.2">
    </path>
    <path d="M311.14793527913093,-286.597881851448L413.36826936193506,-269.448746058541" style="fill:none;stroke:rgb(43,180,168);stroke-width:5;stroke-linecap:round">
    </path>
    <path d="M-429.16526970157446,-276.5001911839563L93.57356871031428,-380.28310862359945L-241.87043553622743,-239.71069205969906z" style="fill:rgb(0,0,0); fill-opacity: 0.2">
    </path>
    <path d="M-19.300140473049314,384.6793053654636L-10.619060267173962,54.277397927678464L-241.87043553622743,-239.71069205969906z" style="fill:rgb(0,0,0); fill-opacity: 0.2">
    </path>
    <path d="M445.6070754779472,-266.1196069531187L454.9442427094526,-268.62246819570043L476.94987602572735,-275.08307371258763z" style="fill:rgb(43,180,168)">
    </path>
    <path d="M443.66947981037987,-281.96347462215107L445.6070754779472,-266.1196069531187L476.94987602572735,-275.08307371258763z" style="fill:rgb(43,180,168)">
    </path>
    <path d="M451.85014007202085,-294.21280190582536L443.66947981037987,-281.96347462215107L476.94987602572735,-275.08307371258763z" style="fill:rgb(43,180,168)">
    </path>
    <path d="M-245.32760820670543,132.17213291029236L255.39031681981166,-34.00541116890071L-241.87043553622743,-239.71069205969906z" style="fill:rgb(0,0,0); fill-opacity: 0.2">
    </path>
    <path d="M271.72331129328705,-276.8309127895064L374.66647342781783,-259.2474694635387" style="fill:none;stroke:rgb(43,180,168);stroke-width:5;stroke-linecap:round">
    </path>
    <path d="M-241.87043553622743,-239.71069205969906L269.8203932017698,-352.6497185920931L-245.32760820670543,132.17213291029236z" style="fill:rgb(0,0,0); fill-opacity: 0.2">
    </path>
    <path d="M-426.3657749919835,423.4776661046083L-429.16526970157446,-276.5001911839563L-248.60680455378198,484.9103144872908z" style="fill:rgb(0,0,0); fill-opacity: 0.2">
    </path>
    <path d="M407.8800768705716,-256.0067493516478L417.48475367705163,-258.5813174974715L439.52795414255246,-265.0600303433386z" style="fill:rgb(43,180,168)">
    </path>
    <path d="M-248.60680455378198,484.9103144872908L-241.87043553622743,-239.71069205969906L-19.300140473049314,384.6793053654636z" style="fill:rgb(0,0,0); fill-opacity: 0.2">
    </path>
    <path d="M405.8277609824833,-272.0535688139365L407.8800768705716,-256.0067493516478L439.52795414255246,-265.0600303433386z" style="fill:rgb(43,180,168)">
    </path>
    <path d="M414.2070128153692,-284.4989399799783L405.8277609824833,-272.0535688139365L439.52795414255246,-265.0600303433386z" style="fill:rgb(43,180,168)">
    </path>
    <path d="M-241.87043553622743,-239.71069205969906L-248.60680455378198,484.9103144872908" style="fill:none;stroke:rgb(0,0,0);stroke-width:1;stroke-linecap:round">
    </path>
    <path d="M-241.87043553622743,-239.71069205969906L-248.60680455378198,484.9103144872908" style="fill:none;stroke:rgb(0,0,0);stroke-width:1;stroke-linecap:round">
    </path>
    <path d="M-56.8385702369475,551.1844973356307L-248.60680455378198,484.9103144872908" style="fill:none;stroke:rgb(160,0,0);stroke-width:4;stroke-linecap:round">
    </path>
    <path d="M-248.60680455378198,484.9103144872908L-241.87043553622743,-239.71069205969906L-10.619060267173962,54.277397927678464z" style="fill:rgb(0,0,0); fill-opacity: 0.2">
    </path>
    <path d="M231.16526608671933,-266.7831524636854L334.8304628790233,-248.74722904210014" style="fill:none;stroke:rgb(43,180,168);stroke-width:5;stroke-linecap:round">
    </path>
    <path d="M369.06236901040376,-245.6015232139759L378.94621848865125,-248.25092459806459L401.01997590898776,-254.74609892362042z" style="fill:rgb(43,180,168)">
    </path>
    <path d="M366.8894554655418,-261.85649130381273L369.06236901040376,-245.6015232139759L401.01997590898776,-254.74609892362042z" style="fill:rgb(43,180,168)">
    </path>
    <path d="M375.4754518308077,-274.5042061999873L366.8894554655418,-261.85649130381273L401.01997590898776,-254.74609892362042z" style="fill:rgb(43,180,168)">
    </path>
    <path d="M-10.619060267173962,54.277397927678464L-245.32760820670543,132.17213291029236L-241.87043553622743,-239.71069205969906z" style="fill:rgb(0,0,0); fill-opacity: 0.2">
    </path>
    <path d="M-10.619060267173962,54.277397927678464L-245.32760820670543,132.17213291029236L-241.87043553622743,-239.71069205969906z" style="fill:rgb(0,0,0); fill-opacity: 0.2">
    </path>
    <path d="M-241.87043553622743,-239.71069205969906L-429.16526970157446,-276.5001911839563" style="fill:none;stroke:rgb(0,0,0);stroke-width:1;stroke-linecap:round">
    </path>
    <path d="M-241.87043553622743,-239.71069205969906L-429.16526970157446,-276.5001911839563" style="fill:none;stroke:rgb(0,0,0);stroke-width:1;stroke-linecap:round">
    </path>
    <path d="M-241.87043553622743,-239.71069205969906L269.8203932017698,-352.6497185920931L-38.98032570463283,-199.85788164326033z" style="fill:rgb(0,0,0); fill-opacity: 0.2">
    </path>
    <path d="M189.42420961899603,-256.4423155471584L293.8096364321083,-237.93468697162555" style="fill:none;stroke:rgb(43,180,168);stroke-width:5;stroke-linecap:round">
    </path>
    <path d="M-241.87043553622743,-239.71069205969906L-241.87043553622743,-239.71069205969906L-10.619060267173962,54.277397927678464z" style="fill:rgb(0,0,0); fill-opacity: 0.2">
    </path>
    <path d="M-248.60680455378198,484.9103144872908L-241.87043553622743,-239.71069205969906L-429.16526970157446,-276.5001911839563z" style="fill:rgb(0,0,0); fill-opacity: 0.2">
    </path>
    <path d="M329.10595859160424,-234.8910637619417L339.2813318213723,-237.61860913562398L361.3779659815122,-244.1284297940739z" style="fill:rgb(43,180,168)">
    </path>
    <path d="M326.8061967304281,-251.35957597187908L329.10595859160424,-234.8910637619417L361.3779659815122,-244.1284297940739z" style="fill:rgb(43,180,168)">
    </path>
    <path d="M335.6075572756925,-264.216239944097L326.8061967304281,-251.35957597187908L361.3779659815122,-244.1284297940739z" style="fill:rgb(43,180,168)">
    </path>
    <path d="M-245.32760820670543,132.17213291029236L-241.87043553622743,-239.71069205969906" style="fill:none;stroke:rgb(0,0,0);stroke-width:1;stroke-linecap:round">
    </path>
    <path d="M-245.32760820670543,132.17213291029236L-241.87043553622743,-239.71069205969906" style="fill:none;stroke:rgb(0,0,0);stroke-width:1;stroke-linecap:round">
    </path>
    <path d="M-241.87043553622743,-239.71069205969906L-245.32760820670543,132.17213291029236" style="fill:none;stroke:rgb(0,0,0);stroke-width:1;stroke-linecap:round">
    </path>
    <path d="M-241.87043553622743,-239.71069205969906L-245.32760820670543,132.17213291029236" style="fill:none;stroke:rgb(0,0,0);stroke-width:1;stroke-linecap:round">
    </path>
    <path d="M-248.60680455378198,484.9103144872908L-241.87043553622743,-239.71069205969906L-56.8385702369475,551.1844973356307z" style="fill:rgb(0,0,0); fill-opacity: 0.2">
    </path>
    <path d="M146.44761611509884,-245.7953894207121L251.55033736523376,-226.79570005675527" style="fill:none;stroke:rgb(43,180,168);stroke-width:5;stroke-linecap:round">
    </path>
    <path d="M287.9599946639775,-223.86174021554118L298.4399821948082,-226.67093854768106L320.551081110433,-233.19340515873716z" style="fill:rgb(43,180,168)">
    </path>
    <path d="M-56.8385702369475,551.1844973356307L-38.98032570463283,-199.85788164326033" style="fill:none;stroke:rgb(84,0,79);stroke-width:5;stroke-linecap:round">
    </path>
    <path d="M-56.8385702369475,551.1844973356306L44.82695841105727,586.3196168667358" style="fill:none;stroke:rgb(167,41,160);stroke-width:5;stroke-linecap:round">
    </path>
    <path d="M285.52673143885465,-240.54940070702335L287.9599946639775,-223.86174021554118L320.551081110433,-233.19340515873716z" style="fill:rgb(43,180,168)">
    </path>
    <path d="M294.55257682528946,-253.621944503537L285.52673143885465,-240.54940070702335L320.551081110433,-233.19340515873716z" style="fill:rgb(43,180,168)">
    </path>
    <path d="M-241.87043553622743,-239.71069205969906L-241.87043553622743,-239.71069205969906L-245.32760820670543,132.17213291029236z" style="fill:rgb(0,0,0); fill-opacity: 0.2">
    </path>
    <path d="M-55.13921020349058,479.71658793615615L47.11864113331455,513.6002538781258" style="fill:none;stroke:rgb(167,41,160);stroke-width:5;stroke-linecap:round">
    </path>
    <path d="M102.17980355722705,-234.82857954453397L207.99561936421293,-215.31525800951525" style="fill:none;stroke:rgb(43,180,168);stroke-width:5;stroke-linecap:round">
    </path>
    <path d="M-53.42146726163429,407.47557101024785L49.435617994612414,440.0782607258755" style="fill:none;stroke:rgb(167,41,160);stroke-width:5;stroke-linecap:round">
    </path>
    <path d="M-241.87043553622743,-239.71069205969906L-241.87043553622743,-239.71069205969906" style="fill:none;stroke:rgb(0,0,0);stroke-width:1;stroke-linecap:round">
    </path>
    <path d="M-38.98032570463283,-199.85788164326033L-241.87043553622743,-239.71069205969906" style="fill:none;stroke:rgb(0,0,0);stroke-width:1;stroke-linecap:round">
    </path>
    <path d="M-241.87043553622743,-239.71069205969906L-241.87043553622743,-239.71069205969906" style="fill:none;stroke:rgb(0,0,0);stroke-width:1;stroke-linecap:round">
    </path>
    <path d="M-38.98032570463283,-199.85788164326033L-241.87043553622743,-239.71069205969906" style="fill:none;stroke:rgb(0,0,0);stroke-width:1;stroke-linecap:round">
    </path>
    <path d="M-38.98032570463283,-199.85788164326033L-241.87043553622743,-239.71069205969906" style="fill:none;stroke:rgb(0,0,0);stroke-width:1;stroke-linecap:round">
    </path>
    <path d="M-38.98032570463283,-199.85788164326033L-241.87043553622743,-239.71069205969906" style="fill:none;stroke:rgb(0,0,0);stroke-width:1;stroke-linecap:round">
    </path>
    <path d="M245.5705527297843,-212.49909791930222L256.3690407617768,-215.3936714557558L278.4853925888392,-221.9265808164304z" style="fill:rgb(43,180,168)">
    </path>
    <path d="M-51.685041502252346,334.4488336460789L51.7783100898133,365.74027528535174" style="fill:none;stroke:rgb(167,41,160);stroke-width:5;stroke-linecap:round">
    </path>
    <path d="M242.9967008029745,-229.4117301498565L245.5705527297843,-212.49909791930222L278.4853925888392,-221.9265808164304z" style="fill:rgb(43,180,168)">
    </path>
    <path d="M252.25669012871649,-242.70743146107503L242.9967008029745,-229.4117301498565L278.4853925888392,-221.9265808164304z" style="fill:rgb(43,180,168)">
    </path>
    <path d="M54.38367610940164,576.854033235392L45.30232684590516,571.2352906503302L70.88510756588384,595.3251883469583z" style="fill:rgb(167,41,160)">
    </path>
    <path d="M-49.92962645669794,260.62348706607895L54.14714791307872,290.5726371746484" style="fill:none;stroke:rgb(167,41,160);stroke-width:5;stroke-linecap:round">
    </path>
    <path d="M35.50534623218643,586.499770307382L38.604735912365875,601.5128351876833L70.88510756588384,595.3251883469583z" style="fill:rgb(167,41,160)">
    </path>
    <path d="M45.30232684590516,571.2352906503302L35.50534623218643,586.499770307382L70.88510756588384,595.3251883469583z" style="fill:rgb(167,41,160)">
    </path>
    <path d="M-56.8385702369475,551.1844973356307L-38.98032570463283,-199.85788164326033L-241.87043553622743,-239.71069205969906z" style="fill:rgb(0,0,0); fill-opacity: 0.2">
    </path>
    <path d="M56.56169299816349,-223.52724983103852L163.08499050007535,-203.47741596522167" style="fill:none;stroke:rgb(43,180,168);stroke-width:5;stroke-linecap:round">
    </path>
    <path d="M56.72135995723764,504.2829503268464L47.59924490883489,498.3498005469008L73.3321707981237,522.2862420023708z" style="fill:rgb(167,41,160)">
    </path>
    <path d="M-48.15490891648296,185.98635904340316L56.54257162159414,214.56137938610252" style="fill:none;stroke:rgb(167,41,160);stroke-width:5;stroke-linecap:round">
    </path>
    <path d="M-241.87043553622743,-239.71069205969906L-241.87043553622743,-239.71069205969906L-38.98032570463283,-199.85788164326033z" style="fill:rgb(0,0,0); fill-opacity: 0.2">
    </path>
    <path d="M37.75366041591958,513.5284943857389L40.864525135684296,528.804255529198L73.3321707981237,522.2862420023708z" style="fill:rgb(167,41,160)">
    </path>
    <path d="M47.59924490883489,498.3498005469008L37.75366041591958,513.5284943857389L73.3321707981237,522.2862420023708z" style="fill:rgb(167,41,160)">
    </path>
    <path d="M201.88039896571172,-200.78779514113592L213.01213073118132,-203.77169585832576L235.12364859312945,-210.3126225063234z" style="fill:rgb(43,180,168)">
    </path>
    <path d="M59.08477429054477,430.9130899462612L49.92154407647624,424.6589206970424L75.80638107079969,448.43702185541144z" style="fill:rgb(167,41,160)">
    </path>
    <path d="M199.15840176815914,-217.93145315178577L201.88039896571172,-200.78779514113592L235.12364859312945,-210.3126225063234z" style="fill:rgb(43,180,168)">
    </path>
    <path d="M208.66277342021306,-231.45795994862382L199.15840176815914,-217.93145315178577L235.12364859312945,-210.3126225063234z" style="fill:rgb(43,180,168)">
    </path>
    <path d="M-46.36056874697594,110.52398606685479L58.96503130822364,137.69221963445565" style="fill:none;stroke:rgb(167,41,160);stroke-width:5;stroke-linecap:round">
    </path>
    <path d="M40.026876846057355,439.7489912569697L43.149281546380344,455.2923581481736L75.80638107079969,448.43702185541144z" style="fill:rgb(167,41,160)">
    </path>
    <path d="M49.92154407647624,424.6589206970424L40.026876846057355,439.7489912569697L75.80638107079969,448.43702185541144z" style="fill:rgb(167,41,160)">
    </path>
    <path d="M61.47434627676814,356.73119110280436L52.269647380558766,350.149227515718L78.30819264624189,373.7639692691343z" style="fill:rgb(167,41,160)">
    </path>
    <path d="M-44.546278694885956,34.222605244470856L61.414987283448795,59.9505514104058" style="fill:none;stroke:rgb(167,41,160);stroke-width:5;stroke-linecap:round">
    </path>
    <path d="M9.530545508582582,-211.8758574767757L116.75413291769824,-191.2652205961473" style="fill:none;stroke:rgb(43,180,168);stroke-width:5;stroke-linecap:round">
    </path>
    <path d="M42.32541155112602,365.1477583009334L45.45942121632962,380.96375595753256L78.30819264624189,373.7639692691343z" style="fill:rgb(167,41,160)">
    </path>
    <path d="M52.269647380558766,350.149227515718L42.32541155112602,365.1477583009334L78.30819264624189,373.7639692691343z" style="fill:rgb(167,41,160)">
    </path>
    <path d="M-38.98032570463283,-199.85788164326033L-38.98032570463283,-199.85788164326033L-241.87043553622743,-239.71069205969906z" style="fill:rgb(0,0,0); fill-opacity: 0.2">
    </path>
    <path d="M63.890512591525386,281.7236976338313L54.64398730633435,274.8069974400137L80.83806997876786,298.25322140030227z" style="fill:rgb(167,41,160)">
    </path>
    <path d="M-42.71170418928933,-42.93185406445547L63.892910366962994,-18.6785652722208" style="fill:none;stroke:rgb(167,41,160);stroke-width:5;stroke-linecap:round">
    </path>
    <path d="M44.64968987870304,289.7109904384001L47.79536951402666,305.8047627520517L80.83806997876786,298.25322140030227z" style="fill:rgb(167,41,160)">
    </path>
    <path d="M54.64398730633435,274.8069974400137L44.64968987870304,289.7109904384001L80.83806997876786,298.25322140030227z" style="fill:rgb(167,41,160)">
    </path>
    <path d="M156.8287324022461,-188.71153396259083L168.30937531878078,-191.7889615681241L190.40501421277878,-198.33523627781528z" style="fill:rgb(43,180,168)">
    </path>
    <path d="M153.95052581270613,-206.09251437245842L156.8287324022461,-188.71153396259083L190.40501421277878,-198.33523627781528z" style="fill:rgb(43,180,168)">
    </path>
    <path d="M163.71014212095702,-219.857870225278L153.95052581270613,-206.09251437245842L190.40501421277878,-198.33523627781528z" style="fill:rgb(43,180,168)">
    </path>
    <path d="M66.33371968463598,205.87674994626997L57.045006058133986,198.61819850252493L83.39648800213375,221.89060261966438z" style="fill:rgb(167,41,160)">
    </path>
    <path d="M-40.85650313594493,-120.95377889960136L66.39928218930896,-98.21041344799002" style="fill:none;stroke:rgb(167,41,160);stroke-width:5;stroke-linecap:round">
    </path>
    <path d="M47.00014675782041,213.42457161449352L50.1575613656956,229.80138480714578L83.39648800213375,221.89060261966438z" style="fill:rgb(167,41,160)">
    </path>
    <path d="M57.045006058133986,198.61819850252493L47.00014675782041,213.42457161449352L83.39648800213375,221.89060261966438z" style="fill:rgb(167,41,160)">
    </path>
    <path d="M68.80442405513259,129.17617647916265L59.47315583392681,121.56848161908658L85.98393242676917,144.6616156402116z" style="fill:rgb(167,41,160)">
    </path>
    <path d="M-38.980325704632634,-199.85788164326033L68.9345955039655,-178.6606291029521" style="fill:none;stroke:rgb(43,180,168);stroke-width:5;stroke-linecap:round">
    </path>
    <path d="M-38.98032570463283,-199.85788164326033L-38.98032570463283,-199.85788164326033" style="fill:none;stroke:rgb(22,31,115);stroke-width:5;stroke-linecap:round">
    </path>
    <path d="M-38.98032570463283,-199.85788164326033L68.93459550396528,-178.6606291029521" style="fill:none;stroke:rgb(74,87,214);stroke-width:5;stroke-linecap:round">
    </path>
    <path d="M-38.98032570463283,-199.85788164326033L68.93459550396528,-178.6606291029521" style="fill:none;stroke:rgb(167,41,160);stroke-width:5;stroke-linecap:round">
    </path>
    <path d="M49.37722697028438,136.27406599273394L52.54644152525086,152.93931219289672L85.98393242676917,144.6616156402116z" style="fill:rgb(167,41,160)">
    </path>
    <path d="M59.47315583392681,121.56848161908658L49.37722697028438,136.27406599273394L85.98393242676917,144.6616156402116z" style="fill:rgb(167,41,160)">
    </path>
    <path d="M71.30309253561055,51.60748487632105L61.92889910923947,43.643171579484175L88.60090004718654,66.55143234174781z" style="fill:rgb(167,41,160)">
    </path>
    <path d="M110.35090261820592,-176.25298460585742L122.19712185628127,-179.42840625858977L144.26478668695748,-185.9770922198466z" style="fill:rgb(43,180,168)">
    </path>
    <path d="M51.78138543126755,58.24470884814589L54.96246485346002,75.20390979200546L88.60090004718654,66.55143234174781z" style="fill:rgb(167,41,160)">
    </path>
    <path d="M61.92889910923947,43.643171579484175L51.78138543126755,58.24470884814589L88.60090004718654,66.55143234174781z" style="fill:rgb(167,41,160)">
    </path>
    <path d="M107.30787287815318,-193.87783936446397L110.35090261820592,-176.25298460585742L144.26478668695748,-185.9770922198466z" style="fill:rgb(43,180,168)">
    </path>
    <path d="M117.33426899248772,-207.89051094640863L107.30787287815318,-193.87783936446397L144.26478668695748,-185.9770922198466z" style="fill:rgb(43,180,168)">
    </path>
    <path d="M54.213087479544825,-20.6786028526378L57.4060966066769,-3.4197919901754323L91.24789905997348,-12.455115720421018z" style="fill:rgb(167,41,160)">
    </path>
    <path d="M64.41270893081006,-35.17274227073532L54.213087479544825,-20.6786028526378L91.24789905997348,-12.455115720421018z" style="fill:rgb(167,41,160)">
    </path>
    <path d="M56.672809177762026,-100.51132019689845L59.87781273552969,-82.94710683591522L93.92544939279627,-92.37354713544003z" style="fill:rgb(167,41,160)">
    </path>
    <path d="M66.92506922036851,-114.89461566977934L56.672809177762026,-100.51132019689845L93.92544939279627,-92.37354713544003z" style="fill:rgb(167,41,160)">
    </path>
    <path d="M62.3781001939672,-163.39370245864262L74.60763938552032,-166.67187440290132L96.63408304486097,-173.21974079885445z" style="fill:rgb(43,180,168)">
    </path>
    <path d="M62.3781001939669,-163.39370245864262L74.60763938552012,-166.67187440290127L96.63408304486076,-173.21974079885445z" style="fill:rgb(74,87,214)">
    </path>
    <path d="M62.3781001939669,-163.39370245864262L74.60763938552012,-166.67187440290127L96.63408304486076,-173.21974079885445z" style="fill:rgb(167,41,160)">
    </path>
    <path d="M59.161037623144935,-181.26925241018913L62.3781001939672,-163.39370245864262L96.63408304486097,-173.21974079885445z" style="fill:rgb(43,180,168)">
    </path>
    <path d="M59.16103762314472,-181.26925241018904L62.3781001939669,-163.39370245864262L96.63408304486076,-173.21974079885445z" style="fill:rgb(74,87,214)">
    </path>
    <path d="M59.16103762314472,-181.26925241018904L62.3781001939669,-163.39370245864262L96.63408304486076,-173.21974079885445z" style="fill:rgb(167,41,160)">
    </path>
    <path d="M69.46647508895325,-195.53815941345584L59.161037623144935,-181.26925241018913L96.63408304486097,-173.21974079885445z" style="fill:rgb(43,180,168)">
    </path>
    <path d="M69.46647508895303,-195.53815941345576L59.16103762314472,-181.26925241018904L96.63408304486076,-173.21974079885445z" style="fill:rgb(74,87,214)">
    </path>
    <path d="M69.46647508895303,-195.53815941345576L59.16103762314472,-181.26925241018904L96.63408304486076,-173.21974079885445z" style="fill:rgb(167,41,160)">
    </path>
</svg>