<svg viewBox="-812 -675 1624 1350" width="1624" height="1350" style="background-color: rgb(255, 255, 255);">
    <path d="M11.00106202955353,167.20533937104088L-4.366605850340848,-411.3769299714748" style="fill:none;stroke:rgb(0,0,0);stroke-width:1;stroke-linecap:round">
    </path>
    <path d="M210.94165058371198,218.16143783096072L11.00106202955353,167.20533937104088" style="fill:none;stroke:rgb(160,0,0);stroke-width:4;stroke-linecap:round">
    </path>
    <path d="M210.94165058371198,218.16143783096072L205.97409529751351,-380.59308733997193" style="fill:none;stroke:rgb(0,0,0);stroke-width:1;stroke-linecap:round">
    </path>
    <path d="M70.99240268396302,335.552615780989L210.94165058371198,218.16143783096072" style="fill:none;stroke:rgb(160,0,0);stroke-width:4;stroke-linecap:round">
    </path>
    <path d="M205.97409529751351,-380.59308733997193L210.94165058371198,218.16143783096072L11.00106202955353,167.20533937104088z" style="fill:rgb(0,0,0); fill-opacity: 0.2">
    </path>
    <path d="M-4.366605850340848,-411.3769299714748L11.00106202955353,167.20533937104088L205.97409529751351,-380.59308733997193z" style="fill:rgb(0,0,0); fill-opacity: 0.2">
    </path>
    <path d="M205.97409529751351,-380.59308733997193L-4.366605850340848,-411.3769299714748" style="fill:none;stroke:rgb(0,0,0);stroke-width:1;stroke-linecap:round">
    </path>
    <path d="M-4.366605850340848,-411.3769299714748L-541.2802754254783,-249.34778081668756" style="fill:none;stroke:rgb(0,0,0);stroke-width:1;stroke-linecap:round">
    </path>
    <path d="M205.97409529751351,-380.59308733997193L-4.366605850340848,-411.3769299714748" style="fill:none;stroke:rgb(0,0,0);stroke-width:1;stroke-linecap:round">
    </path>
    <path d="M316.66484360419156,245.10564896890784L317.53662235633414,-364.26565637768084" style="fill:none;stroke:rgb(0,0,0);stroke-width:1;stroke-linecap:round">
    </path>
    <path d="M437.7459794384896,275.9639270395468L316.66484360419156,245.10564896890784" style="fill:none;stroke:rgb(160,0,0);stroke-width:4;stroke-linecap:round">
    </path>
    <path d="M316.6648436041918,245.10564896890796L70.9924026839633,335.5526157809891" style="fill:none;stroke:rgb(160,0,0);stroke-width:4;stroke-linecap:round">
    </path>
    <path d="M262.27699740946025,-62.33112560525069L205.97409529751351,-380.59308733997193" style="fill:none;stroke:rgb(0,0,0);stroke-width:1;stroke-linecap:round">
    </path>
    <path d="M262.27699740946025,-62.33112560525069L205.97409529751351,-380.59308733997193" style="fill:none;stroke:rgb(0,0,0);stroke-width:1;stroke-linecap:round">
    </path>
    <path d="M64.35748304619304,25.493789417954556L262.27699740946053,-62.33112560525063" style="fill:none;stroke:rgb(0,0,0);stroke-width:1;stroke-linecap:round">
    </path>
    <path d="M317.53662235633436,-364.26565637768084L262.27699740946053,-62.33112560525063" style="fill:none;stroke:rgb(0,0,0);stroke-width:1;stroke-linecap:round">
    </path>
    <path d="M262.27699740946053,-62.33112560525063L-243.66400803002978,162.1754166244474" style="fill:none;stroke:rgb(0,0,0);stroke-width:1;stroke-linecap:round">
    </path>
    <path d="M317.53662235633436,-364.26565637768084L262.27699740946053,-62.33112560525063" style="fill:none;stroke:rgb(0,0,0);stroke-width:1;stroke-linecap:round">
    </path>
    <path d="M445.5955409789389,-345.5239407851877L437.7459794384896,275.9639270395468" style="fill:none;stroke:rgb(104,70,1);stroke-width:5;stroke-linecap:round">
    </path>
    <path d="M437.7459794384896,275.9639270395468L533.0068875027443,300.24175999885455" style="fill:none;stroke:rgb(197,147,42);stroke-width:5;stroke-linecap:round">
    </path>
    <path d="M438.49233527554946,216.87131461494184L534.2948870925536,240.2975876827606" style="fill:none;stroke:rgb(197,147,42);stroke-width:5;stroke-linecap:round">
    </path>
    <path d="M205.97409529751351,-380.59308733997193L205.97409529751351,-380.59308733997193L262.27699740946025,-62.33112560525069z" style="fill:rgb(0,0,0); fill-opacity: 0.2">
    </path>
    <path d="M439.24689195266257,157.12940189848385L535.5972765813715,179.6837019656564" style="fill:none;stroke:rgb(197,147,42);stroke-width:5;stroke-linecap:round">
    </path>
    <path d="M205.97409529751351,-380.59308733997193L210.94165058371198,218.16143783096072L64.35748304619274,25.493789417954485z" style="fill:rgb(0,0,0); fill-opacity: 0.2">
    </path>
    <path d="M445.5955409789389,-345.5239407851877L437.7459794384896,275.9639270395468L316.66484360419156,245.10564896890784z" style="fill:rgb(0,0,0); fill-opacity: 0.2">
    </path>
    <path d="M64.35748304619274,25.493789417954485L205.97409529751351,-380.59308733997193" style="fill:none;stroke:rgb(0,0,0);stroke-width:1;stroke-linecap:round">
    </path>
    <path d="M205.97409529751351,-380.59308733997193L205.97409529751351,-380.59308733997193" style="fill:none;stroke:rgb(0,0,0);stroke-width:1;stroke-linecap:round">
    </path>
    <path d="M64.35748304619274,25.493789417954485L205.97409529751351,-380.59308733997193" style="fill:none;stroke:rgb(0,0,0);stroke-width:1;stroke-linecap:round">
    </path>
    <path d="M205.97409529751351,-380.59308733997193L-320.00365458698536,-205.77686828475555" style="fill:none;stroke:rgb(0,0,0);stroke-width:1;stroke-linecap:round">
    </path>
    <path d="M317.53662235633436,-364.26565637768084L316.6648436041918,245.10564896890796L70.9924026839633,335.5526157809891z" style="fill:rgb(0,0,0); fill-opacity: 0.2">
    </path>
    <path d="M440.0097853808162,96.72742815798149L536.9142984759634,118.3888164562742" style="fill:none;stroke:rgb(197,147,42);stroke-width:5;stroke-linecap:round">
    </path>
    <path d="M64.35748304619274,25.493789417954485L70.99240268396302,335.552615780989L210.94165058371198,218.16143783096072z" style="fill:rgb(0,0,0); fill-opacity: 0.2">
    </path>
    <path d="M539.9171648386292,292.18583856193874L533.274045842675,287.8080715946011L557.3183597016675,306.4376893998443z" style="fill:rgb(197,147,42)">
    </path>
    <path d="M526.2275770201777,300.64035962915887L528.5594033281094,312.91444089986715L557.3183597016675,306.4376893998443z" style="fill:rgb(197,147,42)">
    </path>
    <path d="M533.274045842675,287.8080715946011L526.2275770201777,300.64035962915887L557.3183597016675,306.4376893998443z" style="fill:rgb(197,147,42)">
    </path>
    <path d="M440.78115449091655,35.65439355958106L538.2462007630276,56.40138972440977" style="fill:none;stroke:rgb(197,147,42);stroke-width:5;stroke-linecap:round">
    </path>
    <path d="M541.2407193801046,232.32501684980946L534.5650235943947,227.72529407074447L558.7473758184765,246.27687181681384z" style="fill:rgb(197,147,42)">
    </path>
    <path d="M262.27699740946025,-62.33112560525069L64.35748304619274,25.493789417954485L205.97409529751351,-380.59308733997193z" style="fill:rgb(0,0,0); fill-opacity: 0.2">
    </path>
    <path d="M317.53662235633414,-364.26565637768084L316.66484360419156,245.10564896890784L445.5955409789389,-345.5239407851877z" style="fill:rgb(0,0,0); fill-opacity: 0.2">
    </path>
    <path d="M527.4814970546319,240.5267616486661L529.8234643549063,253.00428133937837L558.7473758184765,246.27687181681384z" style="fill:rgb(197,147,42)">
    </path>
    <path d="M534.5650235943947,227.72529407074447L527.4814970546319,240.5267616486661L558.7473758184765,246.27687181681384z" style="fill:rgb(197,147,42)">
    </path>
    <path d="M441.5611413181354,-26.10094751032917L539.593237064862,-6.290381943909089" style="fill:none;stroke:rgb(197,147,42);stroke-width:5;stroke-linecap:round">
    </path>
    <path d="M542.579029297764,171.79684905153312L535.8704413229502,166.9704724976976L560.1924245927468,185.44108789185432z" style="fill:rgb(197,147,42)">
    </path>
    <path d="M262.27699740946053,-62.33112560525063L64.35748304619304,25.493789417954556L317.53662235633436,-364.26565637768084z" style="fill:rgb(0,0,0); fill-opacity: 0.2">
    </path>
    <path d="M528.74946658061,179.73962352040311L531.1016564624618,192.42437934946827L560.1924245927468,185.44108789185432z" style="fill:rgb(197,147,42)">
    </path>
    <path d="M535.8704413229502,166.9704724976976L528.74946658061,179.73962352040311L560.1924245927468,185.44108789185432z" style="fill:rgb(197,147,42)">
    </path>
    <path d="M70.9924026839633,335.5526157809891L64.35748304619304,25.493789417954556" style="fill:none;stroke:rgb(0,0,0);stroke-width:1;stroke-linecap:round">
    </path>
    <path d="M442.34989108909946,-88.55009334829333L540.9556668003695,-69.69857203962759" style="fill:none;stroke:rgb(197,147,42);stroke-width:5;stroke-linecap:round">
    </path>
    <path d="M445.5955409789389,-345.5239407851877L317.53662235633414,-364.26565637768084" style="fill:none;stroke:rgb(0,0,0);stroke-width:1;stroke-linecap:round">
    </path>
    <path d="M317.53662235633414,-364.26565637768084L317.53662235633414,-364.26565637768084" style="fill:none;stroke:rgb(0,0,0);stroke-width:1;stroke-linecap:round">
    </path>
    <path d="M445.5955409789389,-345.5239407851877L317.53662235633414,-364.26565637768084" style="fill:none;stroke:rgb(0,0,0);stroke-width:1;stroke-linecap:round">
    </path>
    <path d="M445.5955409789389,-345.5239407851877L317.53662235633414,-364.26565637768084" style="fill:none;stroke:rgb(0,0,0);stroke-width:1;stroke-linecap:round">
    </path>
    <path d="M317.53662235633414,-364.26565637768084L-201.46584837489922,-182.43594610950396" style="fill:none;stroke:rgb(0,0,0);stroke-width:1;stroke-linecap:round">
    </path>
    <path d="M445.5955409789389,-345.5239407851877L317.53662235633414,-364.26565637768084" style="fill:none;stroke:rgb(0,0,0);stroke-width:1;stroke-linecap:round">
    </path>
    <path d="M317.53662235633436,-364.26565637768084L64.35748304619304,25.493789417954556" style="fill:none;stroke:rgb(0,0,0);stroke-width:1;stroke-linecap:round">
    </path>
    <path d="M317.53662235633436,-364.26565637768084L64.35748304619304,25.493789417954556" style="fill:none;stroke:rgb(0,0,0);stroke-width:1;stroke-linecap:round">
    </path>
    <path d="M543.9323427206402,110.59011295652188L537.1905426641782,105.53226793662742L561.6537773610133,123.91891450134982z" style="fill:rgb(197,147,42)">
    </path>
    <path d="M530.0317230537514,118.26756149384589L532.3942179421371,131.16344111350017L561.6537773610133,123.91891450134982z" style="fill:rgb(197,147,42)">
    </path>
    <path d="M537.1905426641782,105.53226793662742L530.0317230537514,118.26756149384589L561.6537773610133,123.91891450134982z" style="fill:rgb(197,147,42)">
    </path>
    <path d="M443.14755231203327,-151.70480207094351L542.3337553516116,-133.83553158223447" style="fill:none;stroke:rgb(197,147,42);stroke-width:5;stroke-linecap:round">
    </path>
    <path d="M317.53662235633414,-364.26565637768084L317.53662235633414,-364.26565637768084L445.5955409789389,-345.5239407851877z" style="fill:rgb(0,0,0); fill-opacity: 0.2">
    </path>
    <path d="M64.35748304619304,25.493789417954556L70.9924026839633,335.5526157809891L317.53662235633436,-364.26565637768084z" style="fill:rgb(0,0,0); fill-opacity: 0.2">
    </path>
    <path d="M531.328509311114,56.0989338303973L533.7013924732981,69.20991745039017L563.131711617343,61.69866929284949z" style="fill:rgb(197,147,42)">
    </path>
    <path d="M538.5255767658487,43.39908492042988L531.328509311114,56.0989338303973L563.131711617343,61.69866929284949z" style="fill:rgb(197,147,42)">
    </path>
    <path d="M317.53662235633436,-364.26565637768084L317.53662235633436,-364.26565637768084L64.35748304619304,25.493789417954556z" style="fill:rgb(0,0,0); fill-opacity: 0.2">
    </path>
    <path d="M443.9542768699775,-215.57709899544014L543.7277742361404,-198.71389714015018" style="fill:none;stroke:rgb(197,147,42);stroke-width:5;stroke-linecap:round">
    </path>
    <path d="M532.6400737244901,-6.77816654668406L535.0234292764671,6.551996556020058L564.6265111889998,-1.231596710349942z" style="fill:rgb(197,147,42)">
    </path>
    <path d="M539.8757984444278,-19.440935842043853L532.6400737244901,-6.77816654668406L564.6265111889998,-1.231596710349942z" style="fill:rgb(197,147,42)">
    </path>
    <path d="M445.5955409789389,-345.5239407851877L445.5955409789389,-345.5239407851877L317.53662235633414,-364.26565637768084z" style="fill:rgb(0,0,0); fill-opacity: 0.2">
    </path>
    <path d="M444.7702201172014,-280.17928427292844L545.1380012853414,-264.34659913087313" style="fill:none;stroke:rgb(197,147,42);stroke-width:5;stroke-linecap:round">
    </path>
    <path d="M-7.498221131703757,57.37907942414095L1.337371225986748,373.23891025469555" style="fill:none;stroke:rgb(0,0,0);stroke-width:1;stroke-linecap:round">
    </path>
    <path d="M-170.34654718736735,515.5609568714996L1.337371225986748,373.23891025469555" style="fill:none;stroke:rgb(160,0,0);stroke-width:4;stroke-linecap:round">
    </path>
    <path d="M1.3373712259864523,373.2389102546953L-282.38498148578583,478.3903306876653" style="fill:none;stroke:rgb(160,0,0);stroke-width:4;stroke-linecap:round">
    </path>
    <path d="M533.9666703589946,-70.37591965507734L536.3605832717267,-56.822403504349914L566.13846641816,-64.88410675924973z" style="fill:rgb(197,147,42)">
    </path>
    <path d="M541.241468347219,-82.9999250121801L533.9666703589946,-70.37591965507734L566.13846641816,-64.88410675924973z" style="fill:rgb(197,147,42)">
    </path>
    <path d="M-243.66400803003015,162.1754166244473L262.27699740946025,-62.33112560525069L205.97409529751351,-380.59308733997193z" style="fill:rgb(0,0,0); fill-opacity: 0.2">
    </path>
    <path d="M445.5955409789389,-345.5239407851877L546.5647208290322,-330.74687041233426" style="fill:none;stroke:rgb(197,147,42);stroke-width:5;stroke-linecap:round">
    </path>
    <path d="M445.5955409789389,-345.5239407851877L445.5955409789389,-345.5239407851877" style="fill:none;stroke:rgb(45,114,23);stroke-width:5;stroke-linecap:round">
    </path>
    <path d="M445.5955409789389,-345.5239407851877L546.5647208290322,-330.74687041233426" style="fill:none;stroke:rgb(109,213,75);stroke-width:5;stroke-linecap:round">
    </path>
    <path d="M-64.38215817464032,-155.44320981121493L445.5955409789389,-345.5239407851877" style="fill:none;stroke:rgb(1,93,85);stroke-width:5;stroke-linecap:round">
    </path>
    <path d="M445.5955409789389,-345.5239407851877L546.5647208290322,-330.74687041233426" style="fill:none;stroke:rgb(43,180,168);stroke-width:5;stroke-linecap:round">
    </path>
    <path d="M-320.00365458698536,-205.77686828475555L205.97409529751351,-380.59308733997193L-4.366605850340848,-411.3769299714748z" style="fill:rgb(0,0,0); fill-opacity: 0.2">
    </path>
    <path d="M535.308559137138,-134.70678631911403L537.71311524259,-120.92564256269266L567.667874349917,-129.27136629411245z" style="fill:rgb(197,147,42)">
    </path>
    <path d="M542.622853120104,-147.29029242829867L535.308559137138,-134.70678631911403L567.667874349917,-129.27136629411245z" style="fill:rgb(197,147,42)">
    </path>
    <path d="M536.666006008604,-199.78351630908105L539.0812920055574,-185.7703663843352L569.2150389268364,-194.4061711351061z" style="fill:rgb(197,147,42)">
    </path>
    <path d="M544.0202255811056,-212.32473518340515L536.666006008604,-199.78351630908105L569.2150389268364,-194.4061711351061z" style="fill:rgb(197,147,42)">
    </path>
    <path d="M-541.2802754254783,-249.34778081668756L-492.39563022670825,408.7157822360047" style="fill:none;stroke:rgb(0,0,0);stroke-width:1;stroke-linecap:round">
    </path>
    <path d="M-282.38498148578583,478.3903306876653L-492.39563022670825,408.7157822360047" style="fill:none;stroke:rgb(160,0,0);stroke-width:4;stroke-linecap:round">
    </path>
    <path d="M409.10003280645,-331.92120309252596L510.73912075295016,-316.70886870572656" style="fill:none;stroke:rgb(43,180,168);stroke-width:5;stroke-linecap:round">
    </path>
    <path d="M538.03928312597,-265.61915676528173L540.4653865855907,-251.36951498456497L570.7802711903267,-260.3016159598981z" style="fill:rgb(197,147,42)">
    </path>
    <path d="M545.4338649000138,-278.11624598504426L538.03928312597,-265.61915676528173L570.7802711903267,-260.3016159598981z" style="fill:rgb(197,147,42)">
    </path>
    <path d="M539.428669026609,-332.22706091854195L541.8656783977473,-317.736331237209L572.363889489106,-326.9711030799954z" style="fill:rgb(197,147,42)">
    </path>
    <path d="M539.428669026609,-332.22706091854195L541.8656783977473,-317.736331237209L572.363889489106,-326.9711030799954z" style="fill:rgb(109,213,75)">
    </path>
    <path d="M539.428669026609,-332.22706091854195L541.8656783977473,-317.736331237209L572.363889489106,-326.9711030799954z" style="fill:rgb(43,180,168)">
    </path>
    <path d="M546.8640567843203,-344.6781218088134L539.428669026609,-332.22706091854195L572.363889489106,-326.9711030799954z" style="fill:rgb(197,147,42)">
    </path>
    <path d="M546.8640567843203,-344.6781218088134L539.428669026609,-332.22706091854195L572.363889489106,-326.9711030799954z" style="fill:rgb(109,213,75)">
    </path>
    <path d="M546.8640567843203,-344.6781218088134L539.428669026609,-332.22706091854195L572.363889489106,-326.9711030799954z" style="fill:rgb(43,180,168)">
    </path>
    <path d="M-201.46584837489894,-182.43594610950396L317.53662235633436,-364.26565637768084L262.27699740946053,-62.33112560525063z" style="fill:rgb(0,0,0); fill-opacity: 0.2">
    </path>
    <path d="M-7.498221131704062,57.379079424140876L-320.00365458698536,-205.77686828475555" style="fill:none;stroke:rgb(0,0,0);stroke-width:1;stroke-linecap:round">
    </path>
    <path d="M-7.498221131704062,57.379079424140876L-320.00365458698536,-205.77686828475555" style="fill:none;stroke:rgb(0,0,0);stroke-width:1;stroke-linecap:round">
    </path>
    <path d="M-243.66400803002978,162.1754166244474L-7.498221131703757,57.37907942414095" style="fill:none;stroke:rgb(0,0,0);stroke-width:1;stroke-linecap:round">
    </path>
    <path d="M-201.46584837489894,-182.43594610950396L-7.498221131703757,57.37907942414095" style="fill:none;stroke:rgb(0,0,0);stroke-width:1;stroke-linecap:round">
    </path>
    <path d="M-201.46584837489894,-182.43594610950396L-7.498221131703757,57.37907942414095" style="fill:none;stroke:rgb(0,0,0);stroke-width:1;stroke-linecap:round">
    </path>
    <path d="M371.65509836490025,-317.9645918098455L473.96471176670667,-302.29908310514907" style="fill:none;stroke:rgb(43,180,168);stroke-width:5;stroke-linecap:round">
    </path>
    <path d="M1.337371225986748,373.23891025469555L-7.498221131703757,57.37907942414095L-170.34654718736735,515.5609568714996z" style="fill:rgb(0,0,0); fill-opacity: 0.2">
    </path>
    <path d="M503.4001080801872,-318.1655893991115L505.95540929901824,-303.51908710865115L536.716819983221,-312.82078337089365z" style="fill:rgb(43,180,168)">
    </path>
    <path d="M510.99810505357175,-330.80506619078676L503.4001080801872,-318.1655893991115L536.716819983221,-312.82078337089365z" style="fill:rgb(43,180,168)">
    </path>
    <path d="M-541.2802754254783,-249.34778081668756L-4.366605850340848,-411.3769299714748L-320.00365458698536,-205.77686828475555z" style="fill:rgb(0,0,0); fill-opacity: 0.2">
    </path>
    <path d="M333.2232005771889,-303.6401159821187L436.20329551524514,-287.50254586205506" style="fill:none;stroke:rgb(43,180,168);stroke-width:5;stroke-linecap:round">
    </path>
    <path d="M-492.39563022670825,408.7157822360047L-541.2802754254783,-249.34778081668756L-282.38498148578583,478.3903306876653z" style="fill:rgb(0,0,0); fill-opacity: 0.2">
    </path>
    <path d="M466.41441010195325,-303.73055993677485L469.09346439258206,-288.9250647595732L500.1213934716682,-298.29400761604734z" style="fill:rgb(43,180,168)">
    </path>
    <path d="M474.18108644088693,-316.564135105559L466.41441010195325,-303.73055993677485L500.1213934716682,-298.29400761604734z" style="fill:rgb(43,180,168)">
    </path>
    <path d="M1.3373712259864523,373.2389102546953L-7.498221131704062,57.379079424140876L-320.00365458698536,-205.77686828475555z" style="fill:rgb(0,0,0); fill-opacity: 0.2">
    </path>
    <path d="M-64.38215817464032,-155.44320981121493L445.5955409789389,-345.5239407851877L317.53662235633414,-364.26565637768084z" style="fill:rgb(0,0,0); fill-opacity: 0.2">
    </path>
    <path d="M293.7647971557864,-288.9330372650405L397.41459530210085,-272.30347484488203" style="fill:none;stroke:rgb(43,180,168);stroke-width:5;stroke-linecap:round">
    </path>
    <path d="M-320.00365458698536,-205.77686828475555L-282.38498148578583,478.3903306876653" style="fill:none;stroke:rgb(0,0,0);stroke-width:1;stroke-linecap:round">
    </path>
    <path d="M-282.38498148578583,478.3903306876653L-320.00365458698536,-205.77686828475555L1.3373712259864523,373.2389102546953z" style="fill:rgb(0,0,0); fill-opacity: 0.2">
    </path>
    <path d="M-320.00365458698536,-205.77686828475555L205.97409529751351,-380.59308733997193L-243.66400803003015,162.1754166244473z" style="fill:rgb(0,0,0); fill-opacity: 0.2">
    </path>
    <path d="M428.4329205985435,-288.90688619326994L431.24150440732166,-273.93908527901567L462.5392545199971,-283.37555039391185z" style="fill:rgb(43,180,168)">
    </path>
    <path d="M436.37466310267865,-301.9404993624715L428.4329205985435,-288.90688619326994L462.5392545199971,-283.37555039391185z" style="fill:rgb(43,180,168)">
    </path>
    <path d="M-243.66400803002978,162.1754166244474L262.27699740946053,-62.33112560525063L-201.46584837489894,-182.43594610950396z" style="fill:rgb(0,0,0); fill-opacity: 0.2">
    </path>
    <path d="M253.23820489378474,-273.82781934309844L357.55611278910783,-256.68521738787024" style="fill:none;stroke:rgb(43,180,168);stroke-width:5;stroke-linecap:round">
    </path>
    <path d="M-320.00365458698536,-205.77686828475555L-541.2802754254783,-249.34778081668756" style="fill:none;stroke:rgb(0,0,0);stroke-width:1;stroke-linecap:round">
    </path>
    <path d="M-320.00365458698536,-205.77686828475555L-541.2802754254783,-249.34778081668756" style="fill:none;stroke:rgb(0,0,0);stroke-width:1;stroke-linecap:round">
    </path>
    <path d="M389.4148752308605,-273.6786583854088L392.35910265650193,-258.54514332675006L423.9299510946421,-268.04935402525115z" style="fill:rgb(43,180,168)">
    </path>
    <path d="M397.5384085816628,-286.9185218889452L389.4148752308605,-273.6786583854088L423.9299510946421,-268.04935402525115z" style="fill:rgb(43,180,168)">
    </path>
    <path d="M-201.46584837489922,-182.43594610950396L-170.34654718736758,515.5609568714993" style="fill:none;stroke:rgb(0,0,0);stroke-width:1;stroke-linecap:round">
    </path>
    <path d="M-41.18057356136178,558.4139309547959L-170.34654718736758,515.5609568714993" style="fill:none;stroke:rgb(160,0,0);stroke-width:4;stroke-linecap:round">
    </path>
    <path d="M-7.498221131704062,57.379079424140876L-243.66400803003015,162.1754166244473L-320.00365458698536,-205.77686828475555z" style="fill:rgb(0,0,0); fill-opacity: 0.2">
    </path>
    <path d="M211.59945278327913,-258.30807318332484L316.58297267376275,-240.63018942901437" style="fill:none;stroke:rgb(43,180,168);stroke-width:5;stroke-linecap:round">
    </path>
    <path d="M-282.38498148578583,478.3903306876653L-320.00365458698536,-205.77686828475555L-541.2802754254783,-249.34778081668756z" style="fill:rgb(0,0,0); fill-opacity: 0.2">
    </path>
    <path d="M-170.34654718736735,515.5609568714996L-201.46584837489894,-182.43594610950396L-7.498221131703757,57.37907942414095z" style="fill:rgb(0,0,0); fill-opacity: 0.2">
    </path>
    <path d="M-320.00365458698536,-205.77686828475555L-320.00365458698536,-205.77686828475555L-7.498221131704062,57.379079424140876z" style="fill:rgb(0,0,0); fill-opacity: 0.2">
    </path>
    <path d="M349.3172538727051,-258.0290863260896L352.40360101339303,-242.72635011255L384.25078932175796,-252.29847091877906z" style="fill:rgb(43,180,168)">
    </path>
    <path d="M357.6296636105225,-271.4817019549125L349.3172538727051,-258.0290863260896L384.25078932175796,-252.29847091877906z" style="fill:rgb(43,180,168)">
    </path>
    <path d="M-7.498221131703757,57.37907942414095L-243.66400803002978,162.1754166244474L-201.46584837489894,-182.43594610950396z" style="fill:rgb(0,0,0); fill-opacity: 0.2">
    </path>
    <path d="M168.8021228730244,-242.3564977191874L274.4477541508297,-224.11980946951394" style="fill:none;stroke:rgb(43,180,168);stroke-width:5;stroke-linecap:round">
    </path>
    <path d="M-243.66400803003015,162.1754166244473L-320.00365458698536,-205.77686828475555" style="fill:none;stroke:rgb(0,0,0);stroke-width:1;stroke-linecap:round">
    </path>
    <path d="M-243.66400803003015,162.1754166244473L-320.00365458698536,-205.77686828475555" style="fill:none;stroke:rgb(0,0,0);stroke-width:1;stroke-linecap:round">
    </path>
    <path d="M-201.46584837489894,-182.43594610950396L-243.66400803002978,162.1754166244474" style="fill:none;stroke:rgb(0,0,0);stroke-width:1;stroke-linecap:round">
    </path>
    <path d="M-201.46584837489894,-182.43594610950396L-243.66400803002978,162.1754166244474" style="fill:none;stroke:rgb(0,0,0);stroke-width:1;stroke-linecap:round">
    </path>
    <path d="M-201.46584837489922,-182.43594610950396L317.53662235633414,-364.26565637768084L-64.38215817464032,-155.44320981121493z" style="fill:rgb(0,0,0); fill-opacity: 0.2">
    </path>
    <path d="M-41.18057356136178,558.4139309547959L-64.38215817464032,-155.44320981121493" style="fill:none;stroke:rgb(84,0,79);stroke-width:5;stroke-linecap:round">
    </path>
    <path d="M-41.18057356136178,558.4139309547959L61.08670019627024,592.3428110528502" style="fill:none;stroke:rgb(167,41,160);stroke-width:5;stroke-linecap:round">
    </path>
    <path d="M308.0946223854703,-241.94043767104807L311.32995379542575,-226.4648715883254L343.45667600258804,-236.10500105668334z" style="fill:rgb(43,180,168)">
    </path>
    <path d="M316.6033798020609,-255.61261471171022L308.0946223854703,-241.94043767104807L343.45667600258804,-236.10500105668334z" style="fill:rgb(43,180,168)">
    </path>
    <path d="M-170.34654718736758,515.5609568714993L-201.46584837489922,-182.43594610950396L-41.18057356136178,558.4139309547959z" style="fill:rgb(0,0,0); fill-opacity: 0.2">
    </path>
    <path d="M-43.36734317636178,491.132271926021L59.52319339089658,523.9653520091116" style="fill:none;stroke:rgb(167,41,160);stroke-width:5;stroke-linecap:round">
    </path>
    <path d="M124.7971776544985,-225.95481551329928L231.1003078274233,-207.13442683327673" style="fill:none;stroke:rgb(43,180,168);stroke-width:5;stroke-linecap:round">
    </path>
    <path d="M-45.582230214887936,422.9855071771554L57.939187030421486,454.6913778465721" style="fill:none;stroke:rgb(167,41,160);stroke-width:5;stroke-linecap:round">
    </path>
    <path d="M-320.00365458698536,-205.77686828475555L-320.00365458698536,-205.77686828475555" style="fill:none;stroke:rgb(0,0,0);stroke-width:1;stroke-linecap:round">
    </path>
    <path d="M265.6989608854736,-225.3939708938669L269.09055835575236,-209.74186137758363L301.49994766409446,-219.4500241352396z" style="fill:rgb(43,180,168)">
    </path>
    <path d="M274.4119500217605,-239.2928455796851L265.6989608854736,-225.3939708938669L301.49994766409446,-219.4500241352396z" style="fill:rgb(43,180,168)">
    </path>
    <path d="M-47.82578048552296,353.9568434864984L56.33427529170825,384.5031405421277" style="fill:none;stroke:rgb(167,41,160);stroke-width:5;stroke-linecap:round">
    </path>
    <path d="M70.35126454773247,582.1839633489114L60.76264048802996,578.170580173029L87.27797065813198,601.0322034895962z" style="fill:rgb(167,41,160)">
    </path>
    <path d="M79.53277262688255,-209.08370289596076L186.48755660543657,-189.65324364414084" style="fill:none;stroke:rgb(43,180,168);stroke-width:5;stroke-linecap:round">
    </path>
    <path d="M51.56737126582931,593.7846648150442L55.54269960105044,607.394735894879L87.27797065813198,601.0322034895962z" style="fill:rgb(167,41,160)">
    </path>
    <path d="M60.76264048802996,578.170580173029L51.56737126582931,593.7846648150442L87.27797065813198,601.0322034895962z" style="fill:rgb(167,41,160)">
    </path>
    <path d="M-201.46584837489894,-182.43594610950396L-201.46584837489894,-182.43594610950396L-243.66400803002978,162.1754166244474z" style="fill:rgb(0,0,0); fill-opacity: 0.2">
    </path>
    <path d="M-50.098554015658,284.02905015369555L54.70804156852934,313.382420491511" style="fill:none;stroke:rgb(167,41,160);stroke-width:5;stroke-linecap:round">
    </path>
    <path d="M68.85185925030521,513.9116345349272L59.194895889286435,509.6077880424185L85.87819716859224,532.3754155435514z" style="fill:rgb(167,41,160)">
    </path>
    <path d="M49.936405898760874,525.1869608196716L53.941945251019916,539.0666560526038L85.87819716859224,532.3754155435514z" style="fill:rgb(167,41,160)">
    </path>
    <path d="M59.194895889286435,509.6077880424185L49.936405898760874,525.1869608196716L85.87819716859224,532.3754155435514z" style="fill:rgb(167,41,160)">
    </path>
    <path d="M222.07947713922894,-208.3698624566136L225.63507104276596,-192.53738791191287L258.330184782349,-202.3135258196638z" style="fill:rgb(43,180,168)">
    </path>
    <path d="M231.00502409991327,-222.5029189651048L222.07947713922894,-208.3698624566136L258.330184782349,-202.3135258196638z" style="fill:rgb(43,180,168)">
    </path>
    <path d="M-52.401125517544116,213.18444466045685L53.06005811102552,241.3105107416229" style="fill:none;stroke:rgb(167,41,160);stroke-width:5;stroke-linecap:round">
    </path>
    <path d="M67.33284437241615,444.7464239047395L57.606568060911876,440.1448214218433L84.45998004297654,462.8139949405197z" style="fill:rgb(167,41,160)">
    </path>
    <path d="M-41.18057356136178,558.4139309547959L-64.38215817464032,-155.44320981121493L-201.46584837489922,-182.43594610950396z" style="fill:rgb(0,0,0); fill-opacity: 0.2">
    </path>
    <path d="M48.28398421196788,455.68681321696357L52.320187930172054,469.8420659700756L84.45998004297654,462.8139949405197z" style="fill:rgb(167,41,160)">
    </path>
    <path d="M57.606568060911876,440.1448214218433L48.28398421196788,455.68681321696357L84.45998004297654,462.8139949405197z" style="fill:rgb(167,41,160)">
    </path>
    <path d="M32.954052534730614,-191.72271401812748L140.55327886908364,-171.65422986948494" style="fill:none;stroke:rgb(43,180,168);stroke-width:5;stroke-linecap:round">
    </path>
    <path d="M-54.73408487279542,141.40487776355224L51.389885650602,168.26820058596164" style="fill:none;stroke:rgb(167,41,160);stroke-width:5;stroke-linecap:round">
    </path>
    <path d="M-64.38215817464032,-155.44320981121493L-201.46584837489922,-182.43594610950396" style="fill:none;stroke:rgb(0,0,0);stroke-width:1;stroke-linecap:round">
    </path>
    <path d="M-201.46584837489922,-182.43594610950396L-201.46584837489922,-182.43594610950396" style="fill:none;stroke:rgb(0,0,0);stroke-width:1;stroke-linecap:round">
    </path>
    <path d="M-64.38215817464032,-155.44320981121493L-201.46584837489922,-182.43594610950396" style="fill:none;stroke:rgb(0,0,0);stroke-width:1;stroke-linecap:round">
    </path>
    <path d="M-64.38215817464032,-155.44320981121493L-201.46584837489922,-182.43594610950396" style="fill:none;stroke:rgb(0,0,0);stroke-width:1;stroke-linecap:round">
    </path>
    <path d="M-64.38215817464032,-155.44320981121493L-201.46584837489922,-182.43594610950396" style="fill:none;stroke:rgb(0,0,0);stroke-width:1;stroke-linecap:round">
    </path>
    <path d="M65.79383269382332,374.670700182983L55.99724896233001,369.76383531203896L83.02295233946026,392.32994373495586z" style="fill:rgb(167,41,160)">
    </path>
    <path d="M46.609679995953876,385.2662958182547L50.67701154922354,399.70320490732126L83.02295233946026,392.32994373495586z" style="fill:rgb(167,41,160)">
    </path>
    <path d="M55.99724896233001,369.76383531203896L46.609679995953876,385.2662958182547L83.02295233946026,392.32994373495586z" style="fill:rgb(167,41,160)">
    </path>
    <path d="M177.18240356208074,-190.84712758108867L180.910207031617,-174.83035518222604L213.8940096563014,-184.67431750888244z" style="fill:rgb(43,180,168)">
    </path>
    <path d="M186.3293083834787,-205.2222207262265L177.18240356208074,-190.84712758108867L213.8940096563014,-184.67431750888244z" style="fill:rgb(43,180,168)">
    </path>
    <path d="M-57.0980376362024,68.67171799368823L49.69707300957008,94.23575849293132" style="fill:none;stroke:rgb(167,41,160);stroke-width:5;stroke-linecap:round">
    </path>
    <path d="M64.23442673175134,303.6663648109925L54.3665196959292,298.44650989873475L81.56673731734062,320.90478336105275z" style="fill:rgb(167,41,160)">
    </path>
    <path d="M-201.46584837489922,-182.43594610950396L-201.46584837489922,-182.43594610950396L-64.38215817464032,-155.44320981121493z" style="fill:rgb(0,0,0); fill-opacity: 0.2">
    </path>
    <path d="M44.913055677648856,313.9070044878488L49.01198895498418,328.631839862329L81.56673731734062,320.90478336105275z" style="fill:rgb(167,41,160)">
    </path>
    <path d="M54.3665196959292,298.44650989873475L44.913055677648856,313.9070044878488L81.56673731734062,320.90478336105275z" style="fill:rgb(167,41,160)">
    </path>
    <path d="M-14.997070405418171,-173.85019819123147L93.23787211541625,-153.11403070055982" style="fill:none;stroke:rgb(43,180,168);stroke-width:5;stroke-linecap:round">
    </path>
    <path d="M-59.4936055597587,-5.034164467545114L47.98115669480593,19.192914335160786" style="fill:none;stroke:rgb(167,41,160);stroke-width:5;stroke-linecap:round">
    </path>
    <path d="M62.654218398637674,231.71483636298328L52.71395014354284,226.17403465471216L80.09094810774965,248.51953848170822z" style="fill:rgb(167,41,160)">
    </path>
    <path d="M43.19366193914932,241.5900411073871L47.3246815601563,256.6092497690627L80.09094810774965,248.51953848170822z" style="fill:rgb(167,41,160)">
    </path>
    <path d="M52.71395014354284,226.17403465471216L43.19366193914932,241.5900411073871L80.09094810774965,248.51953848170822z" style="fill:rgb(167,41,160)">
    </path>
    <path d="M-64.38215817464032,-155.44320981121493L-64.38215817464032,-155.44320981121493L-201.46584837489922,-182.43594610950396z" style="fill:rgb(0,0,0); fill-opacity: 0.2">
    </path>
    <path d="M149.95949875480468,-180.22238735921496L140.32834744986587,-187.42891373954578L168.13486622824416,-166.50994893393525z" style="fill:rgb(43,180,168)">
    </path>
    <path d="M-61.92142713785451,-79.73241456196423L46.24166047465775,-56.88115911378424" style="fill:none;stroke:rgb(167,41,160);stroke-width:5;stroke-linecap:round">
    </path>
    <path d="M130.9507761143487,-172.80353395491122L134.85952235439183,-156.59841644227038L168.13486622824416,-166.50994893393525z" style="fill:rgb(43,180,168)">
    </path>
    <path d="M140.32834744986587,-187.42891373954578L130.9507761143487,-172.80353395491122L168.13486622824416,-166.50994893393525z" style="fill:rgb(43,180,168)">
    </path>
    <path d="M61.0527886460899,158.79703433438183L51.039098588225684,152.92709179879515L78.59518737099869,175.15472018178602z" style="fill:rgb(167,41,160)">
    </path>
    <path d="M41.451037321004506,168.29599689024056L45.61463895816953,183.61620905671637L78.59518737099869,175.15472018178602z" style="fill:rgb(167,41,160)">
    </path>
    <path d="M51.039098588225684,152.92709179879515L41.451037321004506,168.29599689024056L78.59518737099869,175.15472018178602z" style="fill:rgb(167,41,160)">
    </path>
    <path d="M-64.38215817464013,-155.44320981121498L44.47809493829011,-134.00786545077565" style="fill:none;stroke:rgb(43,180,168);stroke-width:5;stroke-linecap:round">
    </path>
    <path d="M-64.38215817464032,-155.44320981121493L-64.38215817464032,-155.44320981121493" style="fill:none;stroke:rgb(22,31,115);stroke-width:5;stroke-linecap:round">
    </path>
    <path d="M-64.38215817464032,-155.44320981121493L44.478094938289914,-134.00786545077557" style="fill:none;stroke:rgb(74,87,214);stroke-width:5;stroke-linecap:round">
    </path>
    <path d="M-64.38215817464032,-155.44320981121493L44.478094938289914,-134.00786545077557" style="fill:none;stroke:rgb(167,41,160);stroke-width:5;stroke-linecap:round">
    </path>
    <path d="M59.42970709440175,84.89336227259795L49.341511320627106,78.6858390812202L77.07904693991685,100.79030847440382z" style="fill:rgb(167,41,160)">
    </path>
    <path d="M39.68470780931326,94.00493501498015L43.88139852234072,109.63297053988025L77.07904693991685,100.79030847440382z" style="fill:rgb(167,41,160)">
    </path>
    <path d="M49.341511320627106,78.6858390812202L39.68470780931326,94.00493501498015L77.07904693991685,100.79030847440382z" style="fill:rgb(167,41,160)">
    </path>
    <path d="M102.9090169077547,-161.8592056753382L92.94228610275812,-169.09984583908195L120.99277994133406,-147.7966128319672z" style="fill:rgb(43,180,168)">
    </path>
    <path d="M57.78453164693943,9.983690218908333L47.62072222922478,3.4298918631618993L75.54210744851092,25.405734087261667z" style="fill:rgb(167,41,160)">
    </path>
    <path d="M83.32419318324993,-154.21550762631745L87.42317625420641,-137.81788012217433L120.99277994133406,-147.7966128319672z" style="fill:rgb(43,180,168)">
    </path>
    <path d="M92.94228610275812,-169.09984583908195L83.32419318324993,-154.21550762631745L120.99277994133406,-147.7966128319672z" style="fill:rgb(43,180,168)">
    </path>
    <path d="M37.89418640585537,18.69637254528389L42.124484988609254,34.63924760763409L75.54210744851092,25.405734087261667z" style="fill:rgb(167,41,160)">
    </path>
    <path d="M47.62072222922478,3.4298918631618993L37.89418640585537,18.69637254528389L75.54210744851092,25.405734087261667z" style="fill:rgb(167,41,160)">
    </path>
    <path d="M56.11680808867307,-65.95266357159275L45.87625237364119,-72.86169554358364L73.98393794523737,-51.02014050579504z" style="fill:rgb(167,41,160)">
    </path>
    <path d="M36.07897268043842,-57.65073839816114L40.343410021057664,-41.385804322177556L73.98393794523737,-51.02014050579504z" style="fill:rgb(167,41,160)">
    </path>
    <path d="M45.87625237364119,-72.86169554358364L36.07897268043842,-57.65073839816114L73.98393794523737,-51.02014050579504z" style="fill:rgb(167,41,160)">
    </path>
    <path d="M54.426069668086974,-142.93695166684606L44.10760954022249,-150.21044931263833L72.40409549013653,-128.50904084472157z" style="fill:rgb(74,87,214)">
    </path>
    <path d="M54.426069668086974,-142.93695166684606L44.10760954022249,-150.21044931263833L72.40409549013653,-128.50904084472157z" style="fill:rgb(167,41,160)">
    </path>
    <path d="M54.42606966808728,-142.93695166684603L44.10760954022269,-150.2104493126384L72.40409549013671,-128.50904084472162z" style="fill:rgb(43,180,168)">
    </path>
    <path d="M34.238552304595935,-135.05803025011565L38.53767175938282,-118.46360711910117L72.40409549013653,-128.50904084472157z" style="fill:rgb(74,87,214)">
    </path>
    <path d="M34.238552304595935,-135.05803025011565L38.53767175938282,-118.46360711910117L72.40409549013653,-128.50904084472157z" style="fill:rgb(167,41,160)">
    </path>
    <path d="M34.23855230459613,-135.0580302501158L38.53767175938302,-118.46360711910134L72.40409549013671,-128.50904084472162z" style="fill:rgb(43,180,168)">
    </path>
    <path d="M44.10760954022249,-150.21044931263833L34.238552304595935,-135.05803025011565L72.40409549013653,-128.50904084472157z" style="fill:rgb(74,87,214)">
    </path>
    <path d="M44.10760954022249,-150.21044931263833L34.238552304595935,-135.05803025011565L72.40409549013653,-128.50904084472157z" style="fill:rgb(167,41,160)">
    </path>
    <path d="M44.10760954022269,-150.2104493126384L34.23855230459613,-135.0580302501158L72.40409549013671,-128.50904084472162z" style="fill:rgb(43,180,168)">
    </path>
</svg>