<svg viewBox="-812 -675 1624 1350" width="1624" height="1350" style="background-color: rgb(255, 255, 255);">
    <path d="M58.14473521957955,332.50562585415435L69.78305394172797,-454.34873168920853" style="fill:none;stroke:rgb(0,0,0);stroke-width:1;stroke-linecap:round">
    </path>
    <path d="M185.5976932068577,373.69809295425983L58.14473521957955,332.50562585415435" style="fill:none;stroke:rgb(160,0,0);stroke-width:4;stroke-linecap:round">
    </path>
    <path d="M185.5976932068577,373.69809295425983L206.3798944469539,-431.97587954098196" style="fill:none;stroke:rgb(0,0,0);stroke-width:1;stroke-linecap:round">
    </path>
    <path d="M91.45066087159813,449.0730559862868L185.5976932068577,373.69809295425983" style="fill:none;stroke:rgb(160,0,0);stroke-width:4;stroke-linecap:round">
    </path>
    <path d="M251.81854305062353,395.10050072578156L91.4506608715982,449.0730559862868" style="fill:none;stroke:rgb(160,0,0);stroke-width:4;stroke-linecap:round">
    </path>
    <path d="M277.5392934117953,-420.32086097606765L251.8185430506235,395.10050072578156" style="fill:none;stroke:rgb(104,70,1);stroke-width:5;stroke-linecap:round">
    </path>
    <path d="M251.8185430506235,395.10050072578156L308.3370969686748,413.36715149309646" style="fill:none;stroke:rgb(197,147,42);stroke-width:5;stroke-linecap:round">
    </path>
    <path d="M206.3798944469539,-431.97587954098196L185.5976932068577,373.69809295425983L58.14473521957955,332.50562585415435z" style="fill:rgb(0,0,0); fill-opacity: 0.2">
    </path>
    <path d="M252.96659107454462,358.70409432940613L309.6768386612528,376.6272628781517" style="fill:none;stroke:rgb(197,147,42);stroke-width:5;stroke-linecap:round">
    </path>
    <path d="M254.12185573369837,322.0788999526803L311.0250951372502,339.65387239031435" style="fill:none;stroke:rgb(197,147,42);stroke-width:5;stroke-linecap:round">
    </path>
    <path d="M255.28440528833093,285.2227535505383L312.3819478295263,302.4447468870372" style="fill:none;stroke:rgb(197,147,42);stroke-width:5;stroke-linecap:round">
    </path>
    <path d="M313.19780183077944,408.3446090391443L308.62944197756013,405.3501411073728L322.6614160126188,417.9967344409318z" style="fill:rgb(197,147,42)">
    </path>
    <path d="M256.4543088622853,248.13346369941794L313.74747921266055,264.99762465855395" style="fill:none;stroke:rgb(197,147,42);stroke-width:5;stroke-linecap:round">
    </path>
    <path d="M303.6417468225079,413.44540809342266L305.14695327939256,421.4303408474849L322.6614160126188,417.9967344409318z" style="fill:rgb(197,147,42)">
    </path>
    <path d="M308.62944197756013,405.3501411073728L303.6417468225079,413.44540809342266L322.6614160126188,417.9967344409318z" style="fill:rgb(197,147,42)">
    </path>
    <path d="M314.551066268822,371.63965388512617L309.9710393729082,368.55936334458187L324.050361912006,381.16998823777345z" style="fill:rgb(197,147,42)">
    </path>
    <path d="M69.78305394172797,-454.34873168920853L58.14473521957955,332.50562585415435L206.3798944469539,-431.97587954098196z" style="fill:rgb(0,0,0); fill-opacity: 0.2">
    </path>
    <path d="M257.63163645670267,210.80881116291238L315.1217728196643,227.31021496961088" style="fill:none;stroke:rgb(197,147,42);stroke-width:5;stroke-linecap:round">
    </path>
    <path d="M304.9690219800027,376.6390208642841L306.4771586521299,384.7002795243691L324.050361912006,381.16998823777345z" style="fill:rgb(197,147,42)">
    </path>
    <path d="M309.9710393729082,368.55936334458187L304.9690219800027,376.6390208642841L324.050361912006,381.16998823777345z" style="fill:rgb(197,147,42)">
    </path>
    <path d="M315.91291949972026,334.70174259354604L311.32116927693596,331.53459762706905L325.448159794569,344.10853905737184z" style="fill:rgb(197,147,42)">
    </path>
    <path d="M258.8164589639837,173.2465484491254L316.5049132590139,189.38019759234692" style="fill:none;stroke:rgb(197,147,42);stroke-width:5;stroke-linecap:round">
    </path>
    <path d="M306.30474806336446,339.59828279376563L307.8158218298813,347.7366785515188L325.448159794569,344.10853905737184z" style="fill:rgb(197,147,42)">
    </path>
    <path d="M311.32116927693596,331.53459762706905L306.30474806336446,339.59828279376563L325.448159794569,344.10853905737184z" style="fill:rgb(197,147,42)">
    </path>
    <path d="M317.28344354979066,297.52865034256024L312.67991334896715,294.2736046019247L326.8548945535685,306.8101360254773z" style="fill:rgb(197,147,42)">
    </path>
    <path d="M260.00884818201877,135.44439935954713L317.89698623201485,151.2052223301242" style="fill:none;stroke:rgb(197,147,42);stroke-width:5;stroke-linecap:round">
    </path>
    <path d="M307.6490060425085,302.32094852223116L309.16302373542385,310.5373034630162L326.8548945535685,306.8101360254773z" style="fill:rgb(197,147,42)">
    </path>
    <path d="M312.67991334896715,294.2736046019247L307.6490060425085,302.32094852223116L326.8548945535685,306.8101360254773z" style="fill:rgb(197,147,42)">
    </path>
    <path d="M318.662721493197,260.1181238892946L314.04735429367446,256.7741162495202L328.27065217128325,269.2724993934267z" style="fill:rgb(197,147,42)">
    </path>
    <path d="M261.2088768286917,97.40005852925823L319.29807855050353,112.78290853210368" style="fill:none;stroke:rgb(197,147,42);stroke-width:5;stroke-linecap:round">
    </path>
    <path d="M309.0018779250488,264.80474391385496L310.51884632717736,273.0998911964433L328.27065217128325,269.2724993934267z" style="fill:rgb(197,147,42)">
    </path>
    <path d="M314.04735429367446,256.7741162495202L309.0018779250488,264.80474391385496L328.27065217128325,269.2724993934267z" style="fill:rgb(197,147,42)">
    </path>
    <path d="M206.3798944469539,-431.97587954098196L69.78305394172797,-454.34873168920853" style="fill:none;stroke:rgb(0,0,0);stroke-width:1;stroke-linecap:round">
    </path>
    <path d="M69.78305394172797,-454.34873168920853L-271.28620778716487,-376.94718859874115" style="fill:none;stroke:rgb(0,0,0);stroke-width:1;stroke-linecap:round">
    </path>
    <path d="M206.3798944469539,-431.97587954098196L69.78305394172797,-454.34873168920853" style="fill:none;stroke:rgb(0,0,0);stroke-width:1;stroke-linecap:round">
    </path>
    <path d="M320.0508374687358,222.4678811145587L315.42357587786006,219.03383542331974L329.6955197365288,231.49332007364995z" style="fill:rgb(197,147,42)">
    </path>
    <path d="M262.4166185566616,59.11119095826832L320.7082781548924,74.11084459835358" style="fill:none;stroke:rgb(197,147,42);stroke-width:5;stroke-linecap:round">
    </path>
    <path d="M310.36344677297427,227.04736559415147L311.8833726158254,235.42214963394497L329.6955197365288,231.49332007364995z" style="fill:rgb(197,147,42)">
    </path>
    <path d="M315.42357587786006,219.03383542331974L310.36344677297427,227.04736559415147L329.6955197365288,231.49332007364995z" style="fill:rgb(197,147,42)">
    </path>
    <path d="M321.447876696945,184.57561055878045L316.80866294756163,181.05043538079894L331.12958546251593,193.47025916617994z" style="fill:rgb(197,147,42)">
    </path>
    <path d="M263.632147968433,20.575431533788638L322.1276741325711,35.18658747527687" style="fill:none;stroke:rgb(197,147,42);stroke-width:5;stroke-linecap:round">
    </path>
    <path d="M311.7337967196491,189.04648047855633L313.2566866812562,197.50175713442349L331.12958546251593,193.47025916617994z" style="fill:rgb(197,147,42)">
    </path>
    <path d="M316.80866294756163,181.05043538079894L311.7337967196491,189.04648047855633L331.12958546251593,193.47025916617994z" style="fill:rgb(197,147,42)">
    </path>
    <path d="M91.4506608715982,449.0730559862868L102.49795351770886,-170.8455025980962" style="fill:none;stroke:rgb(0,0,0);stroke-width:1;stroke-linecap:round">
    </path>
    <path d="M322.853925497546,146.4389709489628L318.20270144548886,142.8215593052677L332.5729387050551,155.20094747596357z" style="fill:rgb(197,147,42)">
    </path>
    <path d="M277.53929341179537,-420.32086097606765L251.81854305062353,395.10050072578156L91.4506608715982,449.0730559862868z" style="fill:rgb(0,0,0); fill-opacity: 0.2">
    </path>
    <path d="M264.8555406317161,-18.20961545676671L323.55635673666586,-3.9923378588653837" style="fill:none;stroke:rgb(197,147,42);stroke-width:5;stroke-linecap:round">
    </path>
    <path d="M313.1130129871426,150.79972529185744L314.6388736898339,159.336362056667L332.5729387050551,155.20094747596357z" style="fill:rgb(197,147,42)">
    </path>
    <path d="M318.20270144548886,142.8215593052677L313.1130129871426,150.79972529185744L332.5729387050551,155.20094747596357z" style="fill:rgb(197,147,42)">
    </path>
    <path d="M102.49795351770878,-170.8455025980962L91.45066087159813,449.0730559862868L185.5976932068577,373.69809295425983z" style="fill:rgb(0,0,0); fill-opacity: 0.2">
    </path>
    <path d="M324.269071307221,108.05559071645754L319.6057784287995,104.34481981839383L334.0256699811162,116.68298502076439z" style="fill:rgb(197,147,42)">
    </path>
    <path d="M266.08687309508815,-57.24637682226134L324.99441740517057,-43.428438918562094" style="fill:none;stroke:rgb(197,147,42);stroke-width:5;stroke-linecap:round">
    </path>
    <path d="M314.5011819038961,112.30470607826776L316.03001991200426,120.92358227320416L334.0256699811162,116.68298502076439z" style="fill:rgb(197,147,42)">
    </path>
    <path d="M319.6057784287995,104.34481981839383L314.5011819038961,112.30470607826776L334.0256699811162,116.68298502076439z" style="fill:rgb(197,147,42)">
    </path>
    <path d="M325.69340269773966,69.4230675053503L321.01798208722323,65.61779848321187L335.48787098775205,77.91394052944129z" style="fill:rgb(197,147,42)">
    </path>
    <path d="M267.32622290395915,-96.53731097401503L326.4419487804543,-83.12425624602476" style="fill:none;stroke:rgb(197,147,42);stroke-width:5;stroke-linecap:round">
    </path>
    <path d="M315.89839092273576,73.55899770192622L317.4302127402441,82.26100467467465L335.48787098775205,77.91394052944129z" style="fill:rgb(197,147,42)">
    </path>
    <path d="M321.01798208722323,65.61779848321187L315.89839092273576,73.55899770192622L335.48787098775205,77.91394052944129z" style="fill:rgb(197,147,42)">
    </path>
    <path d="M206.3798944469539,-431.97587954098196L185.5976932068577,373.69809295425983L102.49795351770878,-170.8455025980962z" style="fill:rgb(0,0,0); fill-opacity: 0.2">
    </path>
    <path d="M102.49795351770886,-170.8455025980962L235.60977909071184,-213.1468366101343" style="fill:none;stroke:rgb(0,0,0);stroke-width:1;stroke-linecap:round">
    </path>
    <path d="M277.53929341179537,-420.32086097606765L235.60977909071184,-213.1468366101343" style="fill:none;stroke:rgb(0,0,0);stroke-width:1;stroke-linecap:round">
    </path>
    <path d="M235.60977909071184,-213.1468366101343L-94.04774994132556,-108.3856466471921" style="fill:none;stroke:rgb(0,0,0);stroke-width:1;stroke-linecap:round">
    </path>
    <path d="M277.53929341179537,-420.32086097606765L235.60977909071184,-213.1468366101343" style="fill:none;stroke:rgb(0,0,0);stroke-width:1;stroke-linecap:round">
    </path>
    <path d="M235.6097790907117,-213.14683661013436L206.3798944469539,-431.97587954098196" style="fill:none;stroke:rgb(0,0,0);stroke-width:1;stroke-linecap:round">
    </path>
    <path d="M235.6097790907117,-213.14683661013436L206.3798944469539,-431.97587954098196" style="fill:none;stroke:rgb(0,0,0);stroke-width:1;stroke-linecap:round">
    </path>
    <path d="M327.1270093944377,30.538967671240318L322.4394017615383,26.638045297403664L336.95963462139133,38.8913509303837z" style="fill:rgb(197,147,42)">
    </path>
    <path d="M268.57366861685125,-136.084908441902L327.89904472915646,-123.08236395676501" style="fill:none;stroke:rgb(197,147,42);stroke-width:5;stroke-linecap:round">
    </path>
    <path d="M317.30472863923785,34.560143337608686L318.8395407073626,43.34618466449919L336.95963462139133,38.8913509303837z" style="fill:rgb(197,147,42)">
    </path>
    <path d="M322.4394017615383,26.638045297403664L317.30472863923785,34.560143337608686L336.95963462139133,38.8913509303837z" style="fill:rgb(197,147,42)">
    </path>
    <path d="M46.74646271699894,471.8550464472204L-129.14596589552997,531.3321833718398" style="fill:none;stroke:rgb(160,0,0);stroke-width:4;stroke-linecap:round">
    </path>
    <path d="M55.523865644400914,-155.9177035653208L46.74646271699903,471.8550464472204" style="fill:none;stroke:rgb(0,0,0);stroke-width:1;stroke-linecap:round">
    </path>
    <path d="M-60.67382203400219,557.1924929400866L46.74646271699903,471.8550464472204" style="fill:none;stroke:rgb(160,0,0);stroke-width:4;stroke-linecap:round">
    </path>
    <path d="M269.8292898219982,-175.8916924005961L329.3658003624768,-163.305370296022" style="fill:none;stroke:rgb(197,147,42);stroke-width:5;stroke-linecap:round">
    </path>
    <path d="M318.7202848104553,-4.694346048576758L320.25809350516084,4.176645643626235L338.4410549975135,-0.38727917012206753z" style="fill:rgb(197,147,42)">
    </path>
    <path d="M323.87012796241345,-12.596921823375476L318.7202848104553,-4.694346048576758L338.4410549975135,-0.38727917012206753z" style="fill:rgb(197,147,42)">
    </path>
    <path d="M206.3798944469539,-431.97587954098196L206.3798944469539,-431.97587954098196L235.6097790907117,-213.14683661013436z" style="fill:rgb(0,0,0); fill-opacity: 0.2">
    </path>
    <path d="M271.093167154272,-215.9602192061967L330.8423120568714,-203.7959182062936" style="fill:none;stroke:rgb(197,147,42);stroke-width:5;stroke-linecap:round">
    </path>
    <path d="M320.1451503740141,-44.206992228739765L321.6859620034606,-35.250121514871935L339.93222747071036,-39.924478019829586z" style="fill:rgb(197,147,42)">
    </path>
    <path d="M325.3102523896193,-52.08961757235122L320.1451503740141,-44.206992228739765L339.93222747071036,-39.924478019829586z" style="fill:rgb(197,147,42)">
    </path>
    <path d="M102.49795351770878,-170.8455025980962L206.3798944469539,-431.97587954098196" style="fill:none;stroke:rgb(0,0,0);stroke-width:1;stroke-linecap:round">
    </path>
    <path d="M206.3798944469539,-431.97587954098196L206.3798944469539,-431.97587954098196" style="fill:none;stroke:rgb(0,0,0);stroke-width:1;stroke-linecap:round">
    </path>
    <path d="M102.49795351770878,-170.8455025980962L206.3798944469539,-431.97587954098196" style="fill:none;stroke:rgb(0,0,0);stroke-width:1;stroke-linecap:round">
    </path>
    <path d="M206.3798944469539,-431.97587954098196L-130.26231844679475,-349.7801320936835" style="fill:none;stroke:rgb(0,0,0);stroke-width:1;stroke-linecap:round">
    </path>
    <path d="M272.36538231244447,-256.29307894347556L332.3286774751616,-244.55668590623" style="fill:none;stroke:rgb(197,147,42);stroke-width:5;stroke-linecap:round">
    </path>
    <path d="M321.57941746758735,-83.98035025323975L323.12323826950785,-74.93665900158906L341.43324865514575,-79.72280726300721z" style="fill:rgb(197,147,42)">
    </path>
    <path d="M326.7598679516203,-91.8425897889027L321.57941746758735,-83.98035025323975L341.43324865514575,-79.72280726300721z" style="fill:rgb(197,147,42)">
    </path>
    <path d="M-271.28620778716487,-376.94718859874115L-260.4257574103468,481.75091050423856" style="fill:none;stroke:rgb(0,0,0);stroke-width:1;stroke-linecap:round">
    </path>
    <path d="M-129.14596589552997,531.3321833718398L-260.4257574103468,481.75091050423856" style="fill:none;stroke:rgb(160,0,0);stroke-width:4;stroke-linecap:round">
    </path>
    <path d="M273.6460180767919,-296.89289598398943L333.8249955880689,-285.5903874811561" style="fill:none;stroke:rgb(197,147,42);stroke-width:5;stroke-linecap:round">
    </path>
    <path d="M323.02317944875557,-124.0170090014436L324.5700155877612,-114.88554261719925L342.94421644542297,-119.78486249369877z" style="fill:rgb(197,147,42)">
    </path>
    <path d="M328.21906878555586,-131.85842000649134L323.02317944875557,-124.0170090014436L342.94421644542297,-119.78486249369877z" style="fill:rgb(197,147,42)">
    </path>
    <path d="M274.9351583270505,-337.76232955531196L335.33136669618114,-326.8997734854955" style="fill:none;stroke:rgb(197,147,42);stroke-width:5;stroke-linecap:round">
    </path>
    <path d="M324.4765309152642,-164.31959174345732L326.0263884800754,-155.0993823297444L344.46523003786695,-160.1132738200182z" style="fill:rgb(197,147,42)">
    </path>
    <path d="M329.68795027761803,-172.1397240114966L324.4765309152642,-164.31959174345732L344.46523003786695,-160.1132738200182z" style="fill:rgb(197,147,42)">
    </path>
    <path d="M235.6097790907117,-213.14683661013436L102.49795351770878,-170.8455025980962L206.3798944469539,-431.97587954098196z" style="fill:rgb(0,0,0); fill-opacity: 0.2">
    </path>
    <path d="M102.49795351770886,-170.8455025980962L91.4506608715982,449.0730559862868L277.53929341179537,-420.32086097606765z" style="fill:rgb(0,0,0); fill-opacity: 0.2">
    </path>
    <path d="M276.2328880607299,-378.9040743216437L336.8478924523657,-368.4876315573786" style="fill:none;stroke:rgb(197,147,42);stroke-width:5;stroke-linecap:round">
    </path>
    <path d="M325.93956772568464,-204.89075671308754L327.49245272628593,-195.58082284304538L345.9963899522328,-200.71070643973766z" style="fill:rgb(197,147,42)">
    </path>
    <path d="M331.1666090838367,-212.68915241320877L325.93956772568464,-204.89075671308754L345.9963899522328,-200.71070643973766z" style="fill:rgb(197,147,42)">
    </path>
    <path d="M235.60977909071184,-213.1468366101343L102.49795351770886,-170.8455025980962L277.53929341179537,-420.32086097606765z" style="fill:rgb(0,0,0); fill-opacity: 0.2">
    </path>
    <path d="M277.5392934117953,-420.32086097606725L338.37467588463636,-410.3567870457219" style="fill:none;stroke:rgb(197,147,42);stroke-width:5;stroke-linecap:round">
    </path>
    <path d="M277.5392934117953,-420.32086097606765L277.5392934117953,-420.32086097606765" style="fill:none;stroke:rgb(45,114,23);stroke-width:5;stroke-linecap:round">
    </path>
    <path d="M277.5392934117953,-420.32086097606765L338.37467588463636,-410.3567870457223" style="fill:none;stroke:rgb(109,213,75);stroke-width:5;stroke-linecap:round">
    </path>
    <path d="M-56.470775726585316,-335.5648170853387L277.5392934117953,-420.32086097606765" style="fill:none;stroke:rgb(1,93,85);stroke-width:5;stroke-linecap:round">
    </path>
    <path d="M277.5392934117953,-420.32086097606765L338.37467588463636,-410.3567870457223" style="fill:none;stroke:rgb(43,180,168);stroke-width:5;stroke-linecap:round">
    </path>
    <path d="M277.53929341179537,-420.32086097606765L102.49795351770886,-170.8455025980962" style="fill:none;stroke:rgb(0,0,0);stroke-width:1;stroke-linecap:round">
    </path>
    <path d="M277.53929341179537,-420.32086097606765L102.49795351770886,-170.8455025980962" style="fill:none;stroke:rgb(0,0,0);stroke-width:1;stroke-linecap:round">
    </path>
    <path d="M327.41238702049,-245.73319769229758L328.968305385207,-236.332544176501L347.5377980538511,-241.57986122743316z" style="fill:rgb(197,147,42)">
    </path>
    <path d="M332.65514315128166,-253.50939122524483L327.41238702049,-245.73319769229758L347.5377980538511,-241.57986122743316z" style="fill:rgb(197,147,42)">
    </path>
    <path d="M328.8950872435562,-286.84964460742594L330.4540448160518,-277.3572622565365L349.08955757621766,-282.72347533345885z" style="fill:rgb(197,147,42)">
    </path>
    <path d="M334.15365173968985,-294.6031624586495L328.8950872435562,-286.84964460742594L349.08955757621766,-282.72347533345885z" style="fill:rgb(197,147,42)">
    </path>
    <path d="M331.94977070028324,-318.6577295199801L338.17179898673714,-320.47826212398184L350.6517731440418,-324.14432279502915z" style="fill:rgb(197,147,42)">
    </path>
    <path d="M277.53929341179537,-420.32086097606765L277.53929341179537,-420.32086097606765L102.49795351770886,-170.8455025980962z" style="fill:rgb(0,0,0); fill-opacity: 0.2">
    </path>
    <path d="M330.38776816409563,-328.242864137444L331.94977070028324,-318.6577295199801L350.6517731440418,-324.14432279502915z" style="fill:rgb(197,147,42)">
    </path>
    <path d="M335.66223544352994,-335.97322472696135L330.38776816409563,-328.242864137444L350.6517731440418,-324.14432279502915z" style="fill:rgb(197,147,42)">
    </path>
    <path d="M252.26170284657414,-413.9065975350749L313.31098861102544,-403.7821826667798" style="fill:none;stroke:rgb(43,180,168);stroke-width:5;stroke-linecap:round">
    </path>
    <path d="M333.45558406390876,-360.236735529647L339.69538738207865,-361.9760780446597L352.2245507967609,-365.84521515969607z" style="fill:rgb(197,147,42)">
    </path>
    <path d="M331.8905308990364,-369.91566033454046L333.45558406390876,-360.236735529647L352.2245507967609,-365.84521515969607z" style="fill:rgb(197,147,42)">
    </path>
    <path d="M337.18099621451273,-377.6223738635233L331.8905308990364,-369.91566033454046L352.2245507967609,-365.84521515969607z" style="fill:rgb(197,147,42)">
    </path>
    <path d="M334.97158730022636,-402.09710760242035L341.2292642096409,-403.754118905164L353.8079980125336,-407.829002121515z" style="fill:rgb(197,147,42)">
    </path>
    <path d="M334.97158730022636,-402.0971076024207L341.2292642096409,-403.7541189051644L353.8079980125336,-407.8290021215153z" style="fill:rgb(109,213,75)">
    </path>
    <path d="M334.97158730022636,-402.0971076024207L341.2292642096409,-403.7541189051644L353.8079980125336,-407.8290021215153z" style="fill:rgb(43,180,168)">
    </path>
    <path d="M-130.26231844679475,-349.7801320936835L206.3798944469539,-431.97587954098196L69.78305394172797,-454.34873168920853z" style="fill:rgb(0,0,0); fill-opacity: 0.2">
    </path>
    <path d="M333.40347793585613,-411.8708752573214L334.97158730022636,-402.09710760242035L353.8079980125336,-407.829002121515z" style="fill:rgb(197,147,42)">
    </path>
    <path d="M333.40347793585613,-411.87087525732176L334.97158730022636,-402.0971076024207L353.8079980125336,-407.8290021215153z" style="fill:rgb(109,213,75)">
    </path>
    <path d="M333.40347793585613,-411.87087525732176L334.97158730022636,-402.0971076024207L353.8079980125336,-407.8290021215153z" style="fill:rgb(43,180,168)">
    </path>
    <path d="M338.71003738455846,-419.5534435513289L333.40347793585613,-411.8708752573214L353.8079980125336,-407.829002121515z" style="fill:rgb(197,147,42)">
    </path>
    <path d="M338.71003738455846,-419.55344355132905L333.40347793585613,-411.87087525732176L353.8079980125336,-407.8290021215153z" style="fill:rgb(109,213,75)">
    </path>
    <path d="M338.71003738455846,-419.55344355132905L333.40347793585613,-411.87087525732176L353.8079980125336,-407.8290021215153z" style="fill:rgb(43,180,168)">
    </path>
    <path d="M-94.04774994132563,-108.38564664719208L235.6097790907117,-213.14683661013436L206.3798944469539,-431.97587954098196z" style="fill:rgb(0,0,0); fill-opacity: 0.2">
    </path>
    <path d="M46.74646271699903,471.8550464472204L55.523865644400914,-155.9177035653208L-60.67382203400219,557.1924929400866z" style="fill:rgb(0,0,0); fill-opacity: 0.2">
    </path>
    <path d="M-130.26231844679475,-349.7801320936835L-129.14596589552997,531.3321833718398" style="fill:none;stroke:rgb(0,0,0);stroke-width:1;stroke-linecap:round">
    </path>
    <path d="M226.55841980120664,-407.38431336696965L287.8201572144031,-397.0955315809449" style="fill:none;stroke:rgb(43,180,168);stroke-width:5;stroke-linecap:round">
    </path>
    <path d="M309.86758292202495,-395.4496536668841L316.2313868048597,-397.1347670268334L328.80048482048005,-401.21340428122295z" style="fill:rgb(43,180,168)">
    </path>
    <path d="M-260.4257574103468,481.75091050423856L-271.28620778716487,-376.94718859874115L-129.14596589552997,531.3321833718398z" style="fill:rgb(0,0,0); fill-opacity: 0.2">
    </path>
    <path d="M308.24867417608476,-405.29622688830335L309.86758292202495,-395.4496536668841L328.80048482048005,-401.21340428122295z" style="fill:rgb(43,180,168)">
    </path>
    <path d="M313.63047288702904,-413.05169269098064L308.24867417608476,-405.29622688830335L328.80048482048005,-401.21340428122295z" style="fill:rgb(43,180,168)">
    </path>
    <path d="M200.41859951589987,-400.7512565818482L261.8911685404885,-390.2939448624354" style="fill:none;stroke:rgb(43,180,168);stroke-width:5;stroke-linecap:round">
    </path>
    <path d="M-56.47077572658522,-335.5648170853387L277.53929341179537,-420.32086097606765L235.60977909071184,-213.1468366101343z" style="fill:rgb(0,0,0); fill-opacity: 0.2">
    </path>
    <path d="M-129.14596589552997,531.3321833718398L-130.26231844679475,-349.7801320936835L46.74646271699894,471.8550464472204z" style="fill:rgb(0,0,0); fill-opacity: 0.2">
    </path>
    <path d="M284.33554847655023,-388.68885884308276L290.8082021946746,-390.40279526468703L303.3655052694519,-394.48472260490445z" style="fill:rgb(43,180,168)">
    </path>
    <path d="M-60.67382203400227,557.1924929400866L-56.470775726585316,-335.5648170853387" style="fill:none;stroke:rgb(84,0,79);stroke-width:5;stroke-linecap:round">
    </path>
    <path d="M-60.67382203400227,557.1924929400863L-2.0908665832373474,579.3178898963045" style="fill:none;stroke:rgb(167,41,160);stroke-width:5;stroke-linecap:round">
    </path>
    <path d="M282.66432763930067,-398.6093099941444L284.33554847655023,-388.68885884308276L303.3655052694519,-394.48472260490445z" style="fill:rgb(43,180,168)">
    </path>
    <path d="M288.1231718467486,-406.4390532848958L282.66432763930067,-398.6093099941444L303.3655052694519,-394.48472260490445z" style="fill:rgb(43,180,168)">
    </path>
    <path d="M55.52386564440083,-155.9177035653209L-130.26231844679475,-349.7801320936835" style="fill:none;stroke:rgb(0,0,0);stroke-width:1;stroke-linecap:round">
    </path>
    <path d="M55.52386564440083,-155.9177035653209L-130.26231844679475,-349.7801320936835" style="fill:none;stroke:rgb(0,0,0);stroke-width:1;stroke-linecap:round">
    </path>
    <path d="M-94.04774994132556,-108.3856466471921L55.523865644400914,-155.9177035653208" style="fill:none;stroke:rgb(0,0,0);stroke-width:1;stroke-linecap:round">
    </path>
    <path d="M-56.47077572658522,-335.5648170853387L55.523865644400914,-155.9177035653208" style="fill:none;stroke:rgb(0,0,0);stroke-width:1;stroke-linecap:round">
    </path>
    <path d="M-56.47077572658522,-335.5648170853387L55.523865644400914,-155.9177035653208" style="fill:none;stroke:rgb(0,0,0);stroke-width:1;stroke-linecap:round">
    </path>
    <path d="M-60.487506849617795,517.6178057579687L-1.6974173938625972,539.3388151773604" style="fill:none;stroke:rgb(167,41,160);stroke-width:5;stroke-linecap:round">
    </path>
    <path d="M173.83102570731145,-394.0045810146062L235.51262754667292,-383.37443341007815" style="fill:none;stroke:rgb(43,180,168);stroke-width:5;stroke-linecap:round">
    </path>
    <path d="M46.74646271699894,471.8550464472204L55.52386564440083,-155.9177035653209L-130.26231844679475,-349.7801320936835z" style="fill:rgb(0,0,0); fill-opacity: 0.2">
    </path>
    <path d="M-60.29989977746859,477.7687123092207L-1.301206746368637,499.0791437677568" style="fill:none;stroke:rgb(167,41,160);stroke-width:5;stroke-linecap:round">
    </path>
    <path d="M-271.28620778716487,-376.94718859874115L69.78305394172797,-454.34873168920853L-130.26231844679475,-349.7801320936835z" style="fill:rgb(0,0,0); fill-opacity: 0.2">
    </path>
    <path d="M258.3644427936382,-381.81179946716804L264.94876315784524,-383.555304832228L277.4920045210204,-387.64003259684256z" style="fill:rgb(43,180,168)">
    </path>
    <path d="M256.63934128714357,-391.8072241695842L258.3644427936382,-381.81179946716804L277.4920045210204,-387.64003259684256z" style="fill:rgb(43,180,168)">
    </path>
    <path d="M262.17709745933763,-399.7126640970919L256.63934128714357,-391.8072241695842L277.4920045210204,-387.64003259684256z" style="fill:rgb(43,180,168)">
    </path>
    <path d="M-60.11098733410964,437.64234861300093L-0.902205466063865,458.53591117498274" style="fill:none;stroke:rgb(167,41,160);stroke-width:5;stroke-linecap:round">
    </path>
    <path d="M146.78409452138362,-387.1413421529231L208.67274060448693,-376.33390356728006" style="fill:none;stroke:rgb(43,180,168);stroke-width:5;stroke-linecap:round">
    </path>
    <path d="M3.7449669987476097,573.5233073501827L-2.00503407166599,570.5962951234714L12.777632716376635,584.9333704847446z" style="fill:rgb(167,41,160)">
    </path>
    <path d="M-59.92075584780507,397.23581069413353L-0.5003839658317047,417.70611099928885" style="fill:none;stroke:rgb(167,41,160);stroke-width:5;stroke-linecap:round">
    </path>
    <path d="M-7.89416381754776,579.7360036363585L-5.757839058355885,588.2949543849883L12.777632716376635,584.9333704847446z" style="fill:rgb(167,41,160)">
    </path>
    <path d="M-2.00503407166599,570.5962951234714L-7.89416381754776,579.7360036363585L12.777632716376635,584.9333704847446z" style="fill:rgb(167,41,160)">
    </path>
    <path d="M4.158192325606946,533.5850423413532L-1.6109832856116073,530.5560910916317L13.22443716861505,544.8519509202528z" style="fill:rgb(167,41,160)">
    </path>
    <path d="M231.94284166229747,-374.81545044739886L238.64174351952292,-376.5892965973484L251.1685432320757,-380.67630804275535z" style="fill:rgb(43,180,168)">
    </path>
    <path d="M-59.7291914552299,356.5461538825315L-0.09571223881700382,376.58669419053945" style="fill:none;stroke:rgb(167,41,160);stroke-width:5;stroke-linecap:round">
    </path>
    <path d="M-7.5202603422162735,539.6781962524971L-5.377033493115242,548.3283958055029L13.22443716861505,544.8519509202528z" style="fill:rgb(167,41,160)">
    </path>
    <path d="M-1.6109832856116073,530.5560910916317L-7.5202603422162735,539.6781962524971L13.22443716861505,544.8519509202528z" style="fill:rgb(167,41,160)">
    </path>
    <path d="M230.16223251180062,-384.88696823403495L231.94284166229747,-374.81545044739886L251.1685432320757,-380.67630804275535z" style="fill:rgb(43,180,168)">
    </path>
    <path d="M235.7808299188352,-392.8695646003539L230.16223251180062,-384.88696823403495L251.1685432320757,-380.67630804275535z" style="fill:rgb(43,180,168)">
    </path>
    <path d="M4.574313467351837,493.3668965633688L-1.2141646943499673,490.2346454301823L13.674387164253966,504.48835456866334z" style="fill:rgb(167,41,160)">
    </path>
    <path d="M-59.536280098102125,315.5703920978414L0.31184014904375157,335.1745682891945" style="fill:none;stroke:rgb(167,41,160);stroke-width:5;stroke-linecap:round">
    </path>
    <path d="M-7.143727309309093,499.3386736190555L-4.9935539427567806,508.0811953641151L13.674387164253966,504.48835456866334z" style="fill:rgb(167,41,160)">
    </path>
    <path d="M-1.2141646943499673,490.2346454301823L-7.143727309309093,499.3386736190555L13.674387164253966,504.48835456866334z" style="fill:rgb(167,41,160)">
    </path>
    <path d="M119.26579764718203,-380.15849285234805L181.35929791824563,-369.169152510159" style="fill:none;stroke:rgb(43,180,168);stroke-width:5;stroke-linecap:round">
    </path>
    <path d="M-130.26231844679475,-349.7801320936835L206.3798944469539,-431.97587954098196L-94.04774994132563,-108.38564664719208z" style="fill:rgb(0,0,0); fill-opacity: 0.2">
    </path>
    <path d="M4.993360971106,452.8659176339741L-0.8145490335886574,449.62898454211347L14.127516037994337,463.8395910789884z" style="fill:rgb(167,41,160)">
    </path>
    <path d="M-59.342007519743674,274.30549711894656L0.7223040666523141,293.46659665102385" style="fill:none;stroke:rgb(167,41,160);stroke-width:5;stroke-linecap:round">
    </path>
    <path d="M-6.764536881536302,458.71445341339927L-4.607372143294001,467.5503866801432L14.127516037994337,463.8395910789884z" style="fill:rgb(167,41,160)">
    </path>
    <path d="M-0.8145490335886574,449.62898454211347L-6.764536881536302,458.71445341339927L14.127516037994337,463.8395910789884z" style="fill:rgb(167,41,160)">
    </path>
    <path d="M-94.04774994132556,-108.3856466471921L235.60977909071184,-213.1468366101343L-56.47077572658522,-335.5648170853387z" style="fill:rgb(0,0,0); fill-opacity: 0.2">
    </path>
    <path d="M-129.14596589552997,531.3321833718398L-130.26231844679475,-349.7801320936835L-271.28620778716487,-376.94718859874115z" style="fill:rgb(0,0,0); fill-opacity: 0.2">
    </path>
    <path d="M205.05892107479553,-367.69668082723325L211.8754216105842,-369.5016667024175L224.38328069109266,-373.59041654859044z" style="fill:rgb(43,180,168)">
    </path>
    <path d="M-60.67382203400219,557.1924929400866L-56.47077572658522,-335.5648170853387L55.523865644400914,-155.9177035653208z" style="fill:rgb(0,0,0); fill-opacity: 0.2">
    </path>
    <path d="M203.22111624338422,-377.8454358163999L205.05892107479553,-367.69668082723325L224.38328069109266,-373.59041654859044z" style="fill:rgb(43,180,168)">
    </path>
    <path d="M208.92254965854843,-385.9066906315096L203.22111624338422,-377.8454358163999L224.38328069109266,-373.59041654859044z" style="fill:rgb(43,180,168)">
    </path>
    <path d="M5.415365815153061,412.0791114992709L-0.4121066250235916,408.7360927619501L14.583857597223433,422.9026276970398z" style="fill:rgb(167,41,160)">
    </path>
    <path d="M-59.146359261568136,232.74839783794982L1.135710825542661,251.4595976551469" style="fill:none;stroke:rgb(167,41,160);stroke-width:5;stroke-linecap:round">
    </path>
    <path d="M-6.382660827291262,417.80251106813216L-4.218459430998708,426.73296141894997L14.583857597223433,422.9026276970398z" style="fill:rgb(167,41,160)">
    </path>
    <path d="M-0.4121066250235916,408.7360927619501L-6.382660827291262,417.80251106813216L14.583857597223433,422.9026276970398z" style="fill:rgb(167,41,160)">
    </path>
    <path d="M-130.26231844679475,-349.7801320936835L-271.28620778716487,-376.94718859874115" style="fill:none;stroke:rgb(0,0,0);stroke-width:1;stroke-linecap:round">
    </path>
    <path d="M-130.26231844679475,-349.7801320936835L-271.28620778716487,-376.94718859874115" style="fill:none;stroke:rgb(0,0,0);stroke-width:1;stroke-linecap:round">
    </path>
    <path d="M91.26370454011312,-373.05287882538966L153.5596550048096,-361.8768633893898" style="fill:none;stroke:rgb(43,180,168);stroke-width:5;stroke-linecap:round">
    </path>
    <path d="M5.840359416570522,371.0034416958915L-0.006807368991571722,367.55291160916545L15.043446130423032,381.67438851115804z" style="fill:rgb(167,41,160)">
    </path>
    <path d="M-58.949320659493715,190.89597949825347L1.552092187843219,209.15034389497606" style="fill:none;stroke:rgb(167,41,160);stroke-width:5;stroke-linecap:round">
    </path>
    <path d="M-5.998070513643908,376.5997790204389L-3.8267867353089304,385.6258685476095L15.043446130423032,381.67438851115804z" style="fill:rgb(167,41,160)">
    </path>
    <path d="M-0.006807368991571722,367.55291160916545L-5.998070513643908,376.5997790204389L15.043446130423032,381.67438851115804z" style="fill:rgb(167,41,160)">
    </path>
    <path d="M6.2683736390265645,329.6358285974418L0.40137926303417953,326.07633902563833L15.506316415757697,340.15175368178325z" style="fill:rgb(167,41,160)">
    </path>
    <path d="M177.700439583408,-360.45224911345656L184.63766285296944,-362.28920195294006L197.12395705900403,-366.3791148424463z" style="fill:rgb(43,180,168)">
    </path>
    <path d="M-58.75087684027942,148.7450829163373L1.971480374411588,166.53556135163362" style="fill:none;stroke:rgb(167,41,160);stroke-width:5;stroke-linecap:round">
    </path>
    <path d="M-5.610736899184098,335.1031459453644L-3.432324571585309,344.22601357467056L15.506316415757697,340.15175368178325z" style="fill:rgb(167,41,160)">
    </path>
    <path d="M0.40137926303417953,326.07633902563833L-5.610736899184098,335.1031459453644L15.506316415757697,340.15175368178325z" style="fill:rgb(167,41,160)">
    </path>
    <path d="M175.80368716133694,-370.6794107057116L177.700439583408,-360.45224911345656L197.12395705900403,-366.3791148424463z" style="fill:rgb(43,180,168)">
    </path>
    <path d="M181.59001970412993,-378.820869816553L175.80368716133694,-370.6794107057116L197.12395705900403,-366.3791148424463z" style="fill:rgb(43,180,168)">
    </path>
    <path d="M55.52386564440083,-155.9177035653209L-94.04774994132563,-108.38564664719208L-130.26231844679475,-349.7801320936835z" style="fill:rgb(0,0,0); fill-opacity: 0.2">
    </path>
    <path d="M6.699440800743606,287.97314864481757L0.8124842361094486,284.3032285967559L15.97250372984772,298.33155865446287z" style="fill:rgb(167,41,160)">
    </path>
    <path d="M-58.55101271778251,106.29250368682676L2.3939080731461257,123.61192854939617" style="fill:none;stroke:rgb(167,41,160);stroke-width:5;stroke-linecap:round">
    </path>
    <path d="M-5.220630526711274,293.30945597262667L-3.035043033712167,302.5302577736198L15.97250372984772,298.33155865446287z" style="fill:rgb(167,41,160)">
    </path>
    <path d="M0.8124842361094486,284.3032285967559L-5.220630526711274,293.30945597262667L15.97250372984772,298.33155865446287z" style="fill:rgb(167,41,160)">
    </path>
    <path d="M62.76494369923124,-365.8212338905764L125.26071317544104,-354.4536002102848" style="fill:none;stroke:rgb(43,180,168);stroke-width:5;stroke-linecap:round">
    </path>
    <path d="M7.133593682632948,246.012233559993L1.2265389596494611,242.23038875574875L16.442043856731342,256.21059335587967z" style="fill:rgb(167,41,160)">
    </path>
    <path d="M-130.26231844679475,-349.7801320936835L-130.26231844679475,-349.7801320936835L55.52386564440083,-155.9177035653209z" style="fill:rgb(0,0,0); fill-opacity: 0.2">
    </path>
    <path d="M-58.349712989135504,63.53499137043218L2.819408447478912,80.37607569270997" style="fill:none;stroke:rgb(167,41,160);stroke-width:5;stroke-linecap:round">
    </path>
    <path d="M-4.8277215157665525,251.21550788655045L-2.6349117865393636,260.5354173896337L16.442043856731342,256.21059335587967z" style="fill:rgb(167,41,160)">
    </path>
    <path d="M1.2265389596494611,242.23038875574875L-4.8277215157665525,251.21550788655045L16.442043856731342,256.21059335587967z" style="fill:rgb(167,41,160)">
    </path>
    <path d="M55.523865644400914,-155.9177035653208L-94.04774994132556,-108.3856466471921L-56.47077572658522,-335.5648170853387z" style="fill:rgb(0,0,0); fill-opacity: 0.2">
    </path>
    <path d="M149.85471971451992,-353.07879835469936L156.9159014166692,-354.948574960389L169.37787465872142,-359.0390438248206z" style="fill:rgb(43,180,168)">
    </path>
    <path d="M147.89720095392673,-363.38556195297343L149.85471971451992,-353.07879835469936L169.37787465872142,-359.0390438248206z" style="fill:rgb(43,180,168)">
    </path>
    <path d="M153.77056708352646,-371.60881675126757L147.89720095392673,-363.38556195297343L169.37787465872142,-359.0390438248206z" style="fill:rgb(43,180,168)">
    </path>
    <path d="M7.570865536604711,203.7498695428639L1.6435752954284737,199.85458197083875L16.914973097021004,213.78560137247032z" style="fill:rgb(167,41,160)">
    </path>
    <path d="M-58.14696213084019,20.469248664324567L3.248015145054713,36.82458378430511" style="fill:none;stroke:rgb(167,41,160);stroke-width:5;stroke-linecap:round">
    </path>
    <path d="M-4.431979555003305,208.8180543086943L-2.231900058160916,218.23826282919987L16.914973097021004,213.78560137247032z" style="fill:rgb(167,41,160)">
    </path>
    <path d="M1.6435752954284737,199.85458197083875L-4.431979555003305,208.8180543086943L16.914973097021004,213.78560137247032z" style="fill:rgb(167,41,160)">
    </path>
    <path d="M33.75618293938933,-358.4601749664571L96.44889895645537,-346.89580243450166" style="fill:none;stroke:rgb(43,180,168);stroke-width:5;stroke-linecap:round">
    </path>
    <path d="M-94.04774994132563,-108.38564664719208L-130.26231844679475,-349.7801320936835" style="fill:none;stroke:rgb(0,0,0);stroke-width:1;stroke-linecap:round">
    </path>
    <path d="M-94.04774994132563,-108.38564664719208L-130.26231844679475,-349.7801320936835" style="fill:none;stroke:rgb(0,0,0);stroke-width:1;stroke-linecap:round">
    </path>
    <path d="M-56.47077572658522,-335.5648170853387L-94.04774994132556,-108.3856466471921" style="fill:none;stroke:rgb(0,0,0);stroke-width:1;stroke-linecap:round">
    </path>
    <path d="M-56.47077572658522,-335.5648170853387L-94.04774994132556,-108.3856466471921" style="fill:none;stroke:rgb(0,0,0);stroke-width:1;stroke-linecap:round">
    </path>
    <path d="M8.011290094057518,161.18279645071965L2.0636255657528078,157.1725239147624L17.391328277258683,171.05327911119358z" style="fill:rgb(167,41,160)">
    </path>
    <path d="M-57.94274439477714,-22.90806944549337L3.6797623066007246,-7.046016276074175" style="fill:none;stroke:rgb(167,41,160);stroke-width:5;stroke-linecap:round">
    </path>
    <path d="M-4.033373894392084,166.1138008627342L-1.825976632026265,175.63551783217264L17.391328277258683,171.05327911119358z" style="fill:rgb(167,41,160)">
    </path>
    <path d="M2.0636255657528078,157.1725239147624L-4.033373894392084,166.1138008627342L17.391328277258683,171.05327911119358z" style="fill:rgb(167,41,160)">
    </path>
    <path d="M8.454901574552467,118.30770695990206L2.486722561811713,114.18088261622358L17.87114675947514,128.0102749419938z" style="fill:rgb(167,41,160)">
    </path>
    <path d="M121.50862838079382,-345.57285095464727L128.69712089010372,-347.4763390237889L141.1318782533091,-351.5667233513107z" style="fill:rgb(43,180,168)">
    </path>
    <path d="M-57.73704380412821,-66.60035655028243L4.1146845749920065,-51.23924461282476" style="fill:none;stroke:rgb(167,41,160);stroke-width:5;stroke-linecap:round">
    </path>
    <path d="M-3.6318733372557297,123.09940532115114L-1.4171098388799355,132.72385862581964L17.87114675947514,128.0102749419938z" style="fill:rgb(167,41,160)">
    </path>
    <path d="M2.486722561811713,114.18088261622358L-3.6318733372557297,123.09940532115114L17.87114675947514,128.0102749419938z" style="fill:rgb(167,41,160)">
    </path>
    <path d="M119.48845456586893,-355.9604387085295L121.50862838079382,-345.57285095464727L141.1318782533091,-351.5667233513107z" style="fill:rgb(43,180,168)">
    </path>
    <path d="M125.4510632344667,-364.26712792196577L119.48845456586893,-355.9604387085295L141.1318782533091,-351.5667233513107z" style="fill:rgb(43,180,168)">
    </path>
    <path d="M8.901734694676092,75.12124570920018L2.9128995522106513,70.87627759281469L18.35446645095854,84.65318832149256z" style="fill:rgb(167,41,160)">
    </path>
    <path d="M-57.52984414920978,-110.61105570359581L4.552817104517646,-95.75867331603637" style="fill:none;stroke:rgb(167,41,160);stroke-width:5;stroke-linecap:round">
    </path>
    <path d="M-3.2274462321303,79.77147673325959L-1.0052675485252232,89.49991306039834L18.35446645095854,84.65318832149256z" style="fill:rgb(167,41,160)">
    </path>
    <path d="M2.9128995522106513,70.87627759281469L-3.2274462321303,79.77147673325959L18.35446645095854,84.65318832149256z" style="fill:rgb(167,41,160)">
    </path>
    <path d="M4.223608594707418,-350.96619679441875L67.11014238073946,-339.1997792855647" style="fill:none;stroke:rgb(43,180,168);stroke-width:5;stroke-linecap:round">
    </path>
    <path d="M9.351824677097111,31.620008424514033L3.3421902916915354,27.255278964933265L18.841325814237656,40.97856889742591z" style="fill:rgb(167,41,160)">
    </path>
    <path d="M-130.26231844679475,-349.7801320936835L-130.26231844679475,-349.7801320936835" style="fill:none;stroke:rgb(0,0,0);stroke-width:1;stroke-linecap:round">
    </path>
    <path d="M-57.32112898321474,-154.94366032572887L4.994195570352882,-140.60792740397056" style="fill:none;stroke:rgb(167,41,160);stroke-width:5;stroke-linecap:round">
    </path>
    <path d="M-2.82006046444738,36.12657453409917L-0.5904171614074051,45.96025972579197L18.841325814237656,40.97856889742591z" style="fill:rgb(167,41,160)">
    </path>
    <path d="M3.3421902916915354,27.255278964933265L-2.82006046444738,36.12657453409917L18.841325814237656,40.97856889742591z" style="fill:rgb(167,41,160)">
    </path>
    <path d="M92.64855622781822,-337.93080320310384L99.96783390142504,-339.8689227335063L112.3723342484565,-343.95854673074393z" style="fill:rgb(43,180,168)">
    </path>
    <path d="M90.56376536975517,-348.40046477815355L92.64855622781822,-337.93080320310384L112.3723342484565,-343.95854673074393z" style="fill:rgb(43,180,168)">
    </path>
    <path d="M96.61790334584838,-356.792276349848L90.56376536975517,-348.40046477815355L112.3723342484565,-343.95854673074393z" style="fill:rgb(43,180,168)">
    </path>
    <path d="M9.805207259821954,-12.199458975691991L3.7746290300448817,-16.685593449795704L19.331763877285212,-3.017084406665479z" style="fill:rgb(167,41,160)">
    </path>
    <path d="M-57.11088161786063,-199.60171512808776L5.438856178242533,-185.7906858070112" style="fill:none;stroke:rgb(167,41,160);stroke-width:5;stroke-linecap:round">
    </path>
    <path d="M-2.409683448033162,-7.838792366303408L-0.1725256000118457,2.1014270487172126L19.331763877285212,-3.017084406665479z" style="fill:rgb(167,41,160)">
    </path>
    <path d="M3.7746290300448817,-16.685593449795704L-2.409683448033162,-7.838792366303408L19.331763877285212,-3.017084406665479z" style="fill:rgb(167,41,160)">
    </path>
    <path d="M-25.847096414796837,-343.3356663730296L37.22985407719115,-331.3617037390584" style="fill:none;stroke:rgb(43,180,168);stroke-width:5;stroke-linecap:round">
    </path>
    <path d="M-56.47077572658522,-335.5648170853387L-56.47077572658522,-335.5648170853387L-94.04774994132556,-108.3856466471921z" style="fill:rgb(0,0,0); fill-opacity: 0.2">
    </path>
    <path d="M10.26191870565414,-56.340661294640306L4.210250521218713,-60.94987106209101L19.8258202439471,-47.337324327006634z" style="fill:rgb(167,41,160)">
    </path>
    <path d="M-56.899085118941485,-244.58881705799004L5.886835674401245,-231.31068237364647" style="fill:none;stroke:rgb(167,41,160);stroke-width:5;stroke-linecap:round">
    </path>
    <path d="M-1.9962821164195892,-52.12816651380761L0.2484406999277674,-42.08010762999408L19.8258202439471,-47.337324327006634z" style="fill:rgb(167,41,160)">
    </path>
    <path d="M4.210250521218713,-60.94987106209101L-1.9962821164195892,-52.12816651380761L19.8258202439471,-47.337324327006634z" style="fill:rgb(167,41,160)">
    </path>
    <path d="M10.721995811862806,-100.807154991702L4.649090032629327,-105.54113745710028L20.32353510460319,-91.98575621594067z" style="fill:rgb(167,41,160)">
    </path>
    <path d="M63.26039584699704,-330.1489195068395L70.71406062370863,-332.122624279499L83.08510875016772,-336.2107749204625z" style="fill:rgb(43,180,168)">
    </path>
    <path d="M-56.685722301781155,-289.90861626442853L6.338171355636262,-277.17170689906226" style="fill:none;stroke:rgb(167,41,160);stroke-width:5;stroke-linecap:round">
    </path>
    <path d="M-1.579822913962683,-96.74514286168805L0.6725157984159683,-86.58791899855757L20.32353510460319,-91.98575621594067z" style="fill:rgb(167,41,160)">
    </path>
    <path d="M4.649090032629327,-105.54113745710028L-1.579822913962683,-96.74514286168805L20.32353510460319,-91.98575621594067z" style="fill:rgb(167,41,160)">
    </path>
    <path d="M61.10894919225439,-340.7019328798113L63.26039584699704,-330.1489195068395L83.08510875016772,-336.2107749204625z" style="fill:rgb(43,180,168)">
    </path>
    <path d="M67.25698456472642,-349.18060594127354L61.10894919225439,-340.7019328798113L83.08510875016772,-336.2107749204625z" style="fill:rgb(43,180,168)">
    </path>
    <path d="M11.185475920065755,-145.60254913759692L5.091183354679178,-150.46302936152802L20.82494924706599,-136.9660390196066z" style="fill:rgb(167,41,160)">
    </path>
    <path d="M-56.47077572658519,-335.56481708533875L6.792901079698688,-323.3776061769383" style="fill:none;stroke:rgb(43,180,168);stroke-width:5;stroke-linecap:round">
    </path>
    <path d="M-56.470775726585316,-335.5648170853387L-56.470775726585316,-335.5648170853387" style="fill:none;stroke:rgb(22,31,115);stroke-width:5;stroke-linecap:round">
    </path>
    <path d="M-56.470775726585316,-335.5648170853387L6.792901079698563,-323.3776061769382" style="fill:none;stroke:rgb(74,87,214);stroke-width:5;stroke-linecap:round">
    </path>
    <path d="M-56.470775726585316,-335.5648170853387L6.792901079698563,-323.3776061769382" style="fill:none;stroke:rgb(167,41,160);stroke-width:5;stroke-linecap:round">
    </path>
    <path d="M-1.1602717867630532,-141.69336974335846L1.0997342603818887,-131.42563473837015L20.82494924706599,-136.9660390196066z" style="fill:rgb(167,41,160)">
    </path>
    <path d="M5.091183354679178,-150.46302936152802L-1.1602717867630532,-141.69336974335846L20.82494924706599,-136.9660390196066z" style="fill:rgb(167,41,160)">
    </path>
    <path d="M11.652396926332631,-190.73050639086486L5.53656681048725,-195.71923763235694L21.330104067723074,-182.28188627749833z" style="fill:rgb(167,41,160)">
    </path>
    <path d="M-0.737594173383424,-186.97654986683983L1.5301311650706708,-176.5969365096643L21.330104067723074,-182.28188627749833z" style="fill:rgb(167,41,160)">
    </path>
    <path d="M5.53656681048725,-195.71923763235694L-0.737594173383424,-186.97654986683983L21.330104067723074,-182.28188627749833z" style="fill:rgb(167,41,160)">
    </path>
    <path d="M33.32951878139863,-322.2233263008192L40.92130609206307,-324.23360544496455L53.25554440347285,-328.31953039913344z" style="fill:rgb(43,180,168)">
    </path>
    <path d="M31.10929712094304,-332.8609985817192L33.32951878139863,-322.2233263008192L53.25554440347285,-328.31953039913344z" style="fill:rgb(43,180,168)">
    </path>
    <path d="M37.35368299555806,-341.428325524931L31.10929712094304,-332.8609985817192L53.25554440347285,-328.31953039913344z" style="fill:rgb(43,180,168)">
    </path>
    <path d="M1.9637421156452748,-222.10556095924375L9.64194714487522,-224.3521631848164L21.83904158292995,-227.93706714447734z" style="fill:rgb(167,41,160)">
    </path>
    <path d="M12.122797291513962,-236.19474399616834L5.985277265837505,-241.31350826772712L21.83904158292995,-227.93706714447734z" style="fill:rgb(167,41,160)">
    </path>
    <path d="M-0.3117549953578684,-232.59844133154616L1.9637421156452748,-222.10556095924375L21.83904158292995,-227.93706714447734z" style="fill:rgb(167,41,160)">
    </path>
    <path d="M5.985277265837505,-241.31350826772712L-0.3117549953578684,-232.59844133154616L21.83904158292995,-227.93706714447734z" style="fill:rgb(167,41,160)">
    </path>
    <path d="M2.4006032490042,-267.9553007508785L10.106498194651232,-270.1033156820791L22.35180444065973,-273.935407435832z" style="fill:rgb(167,41,160)">
    </path>
    <path d="M0.11728135251272635,-278.56285866796975L2.4006032490042,-267.9553007508785L22.35180444065973,-273.935407435832z" style="fill:rgb(167,41,160)">
    </path>
    <path d="M6.437352139351091,-287.249643440552L0.11728135251272635,-278.56285866796975L22.35180444065973,-273.935407435832z" style="fill:rgb(167,41,160)">
    </path>
    <path d="M2.840751245820995,-314.15000561895914L10.574536255331035,-316.1978852649132L22.868435932416677,-320.2807906959899z" style="fill:rgb(43,180,168)">
    </path>
    <path d="M2.8407512458208073,-314.150005618959L10.57453625533091,-316.1978852649132L22.868435932416553,-320.28079069598977z" style="fill:rgb(74,87,214)">
    </path>
    <path d="M2.8407512458208073,-314.150005618959L10.57453625533091,-316.1978852649132L22.868435932416553,-320.28079069598977z" style="fill:rgb(167,41,160)">
    </path>
    <path d="M0.5495510120847881,-324.87367390087473L2.840751245820995,-314.15000561895914L22.868435932416677,-320.2807906959899z" style="fill:rgb(43,180,168)">
    </path>
    <path d="M0.5495510120846001,-324.8736739008746L2.8407512458208073,-314.150005618959L22.868435932416553,-320.28079069598977z" style="fill:rgb(74,87,214)">
    </path>
    <path d="M0.5495510120846001,-324.8736739008746L2.8407512458208073,-314.150005618959L22.868435932416553,-320.28079069598977z" style="fill:rgb(167,41,160)">
    </path>
    <path d="M6.892829412888358,-333.5315025554739L0.5495510120847881,-324.87367390087473L22.868435932416677,-320.2807906959899z" style="fill:rgb(43,180,168)">
    </path>
    <path d="M6.892829412888233,-333.53150255547376L0.5495510120846001,-324.8736739008746L22.868435932416553,-320.28079069598977z" style="fill:rgb(74,87,214)">
    </path>
    <path d="M6.892829412888233,-333.53150255547376L0.5495510120846001,-324.8736739008746L22.868435932416553,-320.28079069598977z" style="fill:rgb(167,41,160)">
    </path>
</svg>