<svg viewBox="-812 -675 1624 1350" width="1624" height="1350" style="background-color: rgb(255, 255, 255);">
    <path d="M58.14473521957955,332.50562585415435L69.78305394172797,-454.34873168920853" style="fill:none;stroke:rgb(0,0,0);stroke-width:1;stroke-linecap:round">
    </path>
    <path d="M185.5976932068577,373.69809295425983L58.14473521957955,332.50562585415435" style="fill:none;stroke:rgb(160,0,0);stroke-width:4;stroke-linecap:round">
    </path>
    <path d="M185.5976932068577,373.69809295425983L206.3798944469539,-431.97587954098196" style="fill:none;stroke:rgb(0,0,0);stroke-width:1;stroke-linecap:round">
    </path>
    <path d="M170.50896156904315,385.77826756189336L185.5976932068577,373.69809295425983" style="fill:none;stroke:rgb(160,0,0);stroke-width:4;stroke-linecap:round">
    </path>
    <path d="M189.52427700263544,-389.60553395957L170.50896156904315,385.77826756189336" style="fill:none;stroke:rgb(104,70,1);stroke-width:5;stroke-linecap:round">
    </path>
    <path d="M170.50896156904315,385.77826756189336L128.6011425489177,406.82757629538787" style="fill:none;stroke:rgb(197,147,42);stroke-width:5;stroke-linecap:round">
    </path>
    <path d="M171.403076219498,349.31912918541656L129.37406288274585,369.946296416666" style="fill:none;stroke:rgb(197,147,42);stroke-width:5;stroke-linecap:round">
    </path>
    <path d="M172.30281646778005,312.6305969056756L130.15191172088728,332.82984411588967" style="fill:none;stroke:rgb(197,147,42);stroke-width:5;stroke-linecap:round">
    </path>
    <path d="M206.3798944469539,-431.97587954098196L185.5976932068577,373.69809295425983L58.14473521957955,332.50562585415435z" style="fill:rgb(0,0,0); fill-opacity: 0.2">
    </path>
    <path d="M173.20823557421446,275.7104989368021L130.93473635381451,295.47596284335276" style="fill:none;stroke:rgb(197,147,42);stroke-width:5;stroke-linecap:round">
    </path>
    <path d="M174.11938747357723,238.55663599097034L131.72258467896296,257.8823670870229" style="fill:none;stroke:rgb(197,147,42);stroke-width:5;stroke-linecap:round">
    </path>
    <path d="M128.76875182878058,398.82979891738097L122.1213463970397,402.18246226091236L117.94849347113127,412.1781505918031z" style="fill:rgb(197,147,42)">
    </path>
    <path d="M132.5076944026214,414.6429769529965L135.20152360164388,406.53782054747137L117.94849347113127,412.1781505918031z" style="fill:rgb(197,147,42)">
    </path>
    <path d="M135.20152360164388,406.53782054747137L128.76875182878058,398.82979891738097L117.94849347113127,412.1781505918031z" style="fill:rgb(197,147,42)">
    </path>
    <path d="M175.0363267858055,201.16678084168396L132.51550521050027,220.04674190638931" style="fill:none;stroke:rgb(197,147,42);stroke-width:5;stroke-linecap:round">
    </path>
    <path d="M129.54273958411218,361.8975851073153L122.87285145675469,365.3267235943904L118.6900452572021,375.18984131023586z" style="fill:rgb(197,147,42)">
    </path>
    <path d="M133.29322564897734,377.77736081493435L135.99662962707635,369.5994530837851L118.6900452572021,375.18984131023586z" style="fill:rgb(197,147,42)">
    </path>
    <path d="M135.99662962707635,369.5994530837851L129.54273958411218,361.8975851073153L118.6900452572021,375.18984131023586z" style="fill:rgb(197,147,42)">
    </path>
    <path d="M175.9591088269116,163.53867787871275L133.31354708928453,181.966742457278" style="fill:none;stroke:rgb(197,147,42);stroke-width:5;stroke-linecap:round">
    </path>
    <path d="M189.52427700263544,-389.60553395957L170.50896156904315,385.77826756189336L185.5976932068577,373.69809295425983z" style="fill:rgb(0,0,0); fill-opacity: 0.2">
    </path>
    <path d="M69.78305394172797,-454.34873168920853L58.14473521957955,332.50562585415435L206.3798944469539,-431.97587954098196z" style="fill:rgb(0,0,0); fill-opacity: 0.2">
    </path>
    <path d="M130.32166607314977,324.7297107613752L123.62914321568361,328.23623290188834L119.43634148736207,337.9648810372821z" style="fill:rgb(197,147,42)">
    </path>
    <path d="M134.08376706357808,340.67661343269066L136.79681336879563,332.4251893445303L119.43634148736207,337.9648810372821z" style="fill:rgb(197,147,42)">
    </path>
    <path d="M136.79681336879563,332.4251893445303L130.32166607314977,324.7297107613752L119.43634148736207,337.9648810372821z" style="fill:rgb(197,147,42)">
    </path>
    <path d="M176.88778962010738,125.67004265449559L134.11676009301638,143.63999350743015" style="fill:none;stroke:rgb(197,147,42);stroke-width:5;stroke-linecap:round">
    </path>
    <path d="M131.10557871749282,287.3239130729009L124.390267553144,290.90874014381325L120.18742784012585,300.500991346727z" style="fill:rgb(197,147,42)">
    </path>
    <path d="M134.8793667325293,303.33847808647135L137.60212362368065,295.01276236532226L120.18742784012585,300.500991346727z" style="fill:rgb(197,147,42)">
    </path>
    <path d="M137.60212362368065,295.01276236532226L131.10557871749282,287.3239130729009L120.18742784012585,300.500991346727z" style="fill:rgb(197,147,42)">
    </path>
    <path d="M177.82242590714208,87.55856142181634L134.92519464658918,105.06408894263252" style="fill:none;stroke:rgb(197,147,42);stroke-width:5;stroke-linecap:round">
    </path>
    <path d="M131.8945255478114,249.67790017232699L125.15627093665508,253.34196643365104L120.94335058227361,262.7958644699077z" style="fill:rgb(197,147,42)">
    </path>
    <path d="M135.68007335926637,265.7606690846942L138.41260981587058,257.3598760410434L120.94335058227361,262.7958644699077z" style="fill:rgb(197,147,42)">
    </path>
    <path d="M138.41260981587058,257.3598760410434L131.8945255478114,249.67790017232699L120.94335058227361,262.7958644699077z" style="fill:rgb(197,147,42)">
    </path>
    <path d="M178.7630751598587,49.201890662557176L135.73890183264112,66.23659126318543" style="fill:none;stroke:rgb(197,147,42);stroke-width:5;stroke-linecap:round">
    </path>
    <path d="M132.68855521365649,211.78935065908428L125.92720043139451,215.533603574186L121.70415657835149,224.84716282183257z" style="fill:rgb(197,147,42)">
    </path>
    <path d="M136.48593627449327,227.94087129756582L139.22832200687625,219.46420465609603L121.70415657835149,224.84716282183257z" style="fill:rgb(197,147,42)">
    </path>
    <path d="M139.22832200687625,219.46420465609603L132.68855521365649,211.78935065908428L121.70415657835149,224.84716282183257z" style="fill:rgb(197,147,42)">
    </path>
    <path d="M179.70979559197505,10.597656607326563L136.55793340231543,27.155031070485528" style="fill:none;stroke:rgb(197,147,42);stroke-width:5;stroke-linecap:round">
    </path>
    <path d="M206.3798944469539,-431.97587954098196L69.78305394172797,-454.34873168920853" style="fill:none;stroke:rgb(0,0,0);stroke-width:1;stroke-linecap:round">
    </path>
    <path d="M69.78305394172797,-454.34873168920853L-271.28620778716487,-376.94718859874115" style="fill:none;stroke:rgb(0,0,0);stroke-width:1;stroke-linecap:round">
    </path>
    <path d="M206.3798944469539,-431.97587954098196L69.78305394172797,-454.34873168920853" style="fill:none;stroke:rgb(0,0,0);stroke-width:1;stroke-linecap:round">
    </path>
    <path d="M133.48771699345986,173.65591312442416L126.70310370983795,177.48131358474257L122.46989330035665,186.65251851808802z" style="fill:rgb(197,147,42)">
    </path>
    <path d="M137.29700544631322,189.87673968162036L140.04931090588806,181.32339240553915L122.46989330035665,186.65251851808802z" style="fill:rgb(197,147,42)">
    </path>
    <path d="M140.04931090588806,181.32339240553915L133.48771699345986,173.65591312442416L122.46989330035665,186.65251851808802z" style="fill:rgb(197,147,42)">
    </path>
    <path d="M180.66264617109277,-28.256545254243463L137.38234178623148,-12.18309345650211" style="fill:none;stroke:rgb(197,147,42);stroke-width:5;stroke-linecap:round">
    </path>
    <path d="M134.29206080472878,135.27520566496113L127.48402906158624,139.18272821924853L123.24060883761163,148.2095328823221z" style="fill:rgb(197,147,42)">
    </path>
    <path d="M138.11333149055721,151.5658987950121L140.87562788028376,142.93505290690172L123.24060883761163,148.2095328823221z" style="fill:rgb(197,147,42)">
    </path>
    <path d="M140.87562788028376,142.93505290690172L134.29206080472878,135.27520566496113L123.24060883761163,148.2095328823221z" style="fill:rgb(197,147,42)">
    </path>
    <path d="M181.62168663094076,-67.3631506727443L138.2121801056734,-51.780317095117226" style="fill:none;stroke:rgb(197,147,42);stroke-width:5;stroke-linecap:round">
    </path>
    <path d="M206.3798944469539,-431.97587954098196L185.5976932068577,373.69809295425983L189.52427700263544,-389.60553395957z" style="fill:rgb(0,0,0); fill-opacity: 0.2">
    </path>
    <path d="M135.10163721444,96.6448153867216L128.2700254033835,100.63544847490874L124.01635190683149,109.51577594408923z" style="fill:rgb(197,147,42)">
    </path>
    <path d="M138.93496568131343,113.00594230335332L141.7073249663427,104.29676870246061L124.01635190683149,109.51577594408923z" style="fill:rgb(197,147,42)">
    </path>
    <path d="M141.7073249663427,104.29676870246061L135.10163721444,96.6448153867216L124.01635190683149,109.51577594408923z" style="fill:rgb(197,147,42)">
    </path>
    <path d="M182.58697748385805,-106.72462714799822L139.04750218400025,-91.63920812346065" style="fill:none;stroke:rgb(197,147,42);stroke-width:5;stroke-linecap:round">
    </path>
    <path d="M135.9164974496363,57.762297899481474L129.06114228933143,61.837044091276944L124.79717186238886,70.56878592683648z" style="fill:rgb(197,147,42)">
    </path>
    <path d="M139.76195996166274,74.19443247588046L142.54445488016867,65.40609075176454L124.79717186238886,70.56878592683648z" style="fill:rgb(197,147,42)">
    </path>
    <path d="M142.54445488016867,65.40609075176454L135.9164974496363,57.762297899481474L124.79717186238886,70.56878592683648z" style="fill:rgb(197,147,42)">
    </path>
    <path d="M183.55858003352125,-146.34347444805127L139.88836255828292,-131.7623688756809" style="fill:none;stroke:rgb(197,147,42);stroke-width:5;stroke-linecap:round">
    </path>
    <path d="M136.73669340823238,18.625176801170618L129.85742992130366,22.785053039505165L125.5831187067812,31.36606872580332z" style="fill:rgb(197,147,42)">
    </path>
    <path d="M140.5943669546256,35.128899671727694L143.3870710288288,26.260537914181022L125.5831187067812,31.36606872580332z" style="fill:rgb(197,147,42)">
    </path>
    <path d="M143.3870710288288,26.260537914181022L136.73669340823238,18.625176801170618L125.5831187067812,31.36606872580332z" style="fill:rgb(197,147,42)">
    </path>
    <path d="M184.5365563879231,-186.22222513837994L140.73481649117383,-172.152436308342" style="fill:none;stroke:rgb(197,147,42);stroke-width:5;stroke-linecap:round">
    </path>
    <path d="M133.04866737125468,-6.296816658341048L141.43223997432364,-4.193158183919915L126.37424310130474,-8.094902624396031z" style="fill:rgb(197,147,42)">
    </path>
    <path d="M137.56227767003287,-20.76905684788377L130.65893915956514,-16.52301899845458L126.37424310130474,-8.094902624396031z" style="fill:rgb(197,147,42)">
    </path>
    <path d="M141.43223997432364,-4.193158183919915L144.23522752171127,-13.14240357876424L126.37424310130474,-8.094902624396031z" style="fill:rgb(197,147,42)">
    </path>
    <path d="M144.23522752171127,-13.14240357876424L137.56227767003287,-20.76905684788377L126.37424310130474,-8.094902624396031z" style="fill:rgb(197,147,42)">
    </path>
    <path d="M216.77581208359518,-325.15817591407136L206.7202284011144,-326.11007635930235L209.4276927478468,-324.14619799939766z" style="fill:rgb(43,180,168)">
    </path>
    <path d="M206.7202284011144,-326.11007635930235L200.3949089291559,-324.34934786337385L209.4276927478468,-324.14619799939766z" style="fill:rgb(43,180,168)">
    </path>
    <path d="M185.52096947260628,-226.36344512154645L141.58691998301364,-212.8120825781315" style="fill:none;stroke:rgb(197,147,42);stroke-width:5;stroke-linecap:round">
    </path>
    <path d="M211.2937773130557,-395.1881775788059L209.4276927478468,-324.1461979993977" style="fill:none;stroke:rgb(43,180,168);stroke-width:5;stroke-linecap:round">
    </path>
    <path d="M216.6982832124515,-322.80233384686625L216.77581208359518,-325.15817591407136L209.4276927478468,-324.14619799939766z" style="fill:rgb(43,180,168)">
    </path>
    <path d="M206.55172539710725,-322.2997596520434L200.3949089291559,-324.34934786337385L208.96450598193616,-306.5126430261845z" style="fill:rgb(43,180,168)">
    </path>
    <path d="M200.3949089291559,-324.34934786337385L206.55172539710725,-322.2997596520434L209.4276927478468,-324.14619799939766z" style="fill:rgb(43,180,168)">
    </path>
    <path d="M216.6982832124515,-322.80233384686625L206.55172539710725,-322.2997596520434L208.96450598193616,-306.5126430261845z" style="fill:rgb(43,180,168)">
    </path>
    <path d="M133.8630804773758,-45.81868223651745L142.27563303736292,-43.77427613402663L127.17059637694038,-47.816688492748z" style="fill:rgb(197,147,42)">
    </path>
    <path d="M206.55172539710725,-322.2997596520434L216.6982832124515,-322.80233384686625L209.4276927478468,-324.14619799939766z" style="fill:rgb(43,180,168)">
    </path>
    <path d="M138.39330350796843,-60.42294506111066L131.46572153360106,-56.08969916092775L127.17059637694038,-47.816688492748z" style="fill:rgb(197,147,42)">
    </path>
    <path d="M142.27563303736292,-43.77427613402663L145.08897918210778,-52.8052806614904L127.17059637694038,-47.816688492748z" style="fill:rgb(197,147,42)">
    </path>
    <path d="M145.08897918210778,-52.8052806614904L138.39330350796843,-60.42294506111066L127.17059637694038,-47.816688492748z" style="fill:rgb(197,147,42)">
    </path>
    <path d="M206.02373941641355,-322.15214708188273L195.9435213777033,-323.1102507801339L198.6369265281803,-321.1329852297699z" style="fill:rgb(109,213,75)">
    </path>
    <path d="M195.9435213777033,-323.1102507801339L189.5740744521104,-321.3372388785354L198.6369265281803,-321.1329852297699z" style="fill:rgb(109,213,75)">
    </path>
    <path d="M186.51188304416047,-266.7697341875457L142.44472978418173,-253.7440156311754" style="fill:none;stroke:rgb(197,147,42);stroke-width:5;stroke-linecap:round">
    </path>
    <path d="M200.44719198508682,-392.40664288539364L198.63692652818037,-321.13298522977" style="fill:none;stroke:rgb(109,213,75);stroke-width:5;stroke-linecap:round">
    </path>
    <path d="M205.9174601466701,-319.78011824824347L206.02373941641355,-322.15214708188273L198.6369265281803,-321.1329852297699z" style="fill:rgb(109,213,75)">
    </path>
    <path d="M195.72821192212518,-319.2737576356427L189.5740744521104,-321.3372388785354L198.18760606025336,-303.44236804072165z" style="fill:rgb(109,213,75)">
    </path>
    <path d="M189.5740744521104,-321.3372388785354L195.72821192212518,-319.2737576356427L198.6369265281803,-321.1329852297699z" style="fill:rgb(109,213,75)">
    </path>
    <path d="M205.9174601466701,-319.78011824824347L195.72821192212518,-319.2737576356427L198.18760606025336,-303.44236804072165z" style="fill:rgb(109,213,75)">
    </path>
    <path d="M134.68286777270035,-85.60134664233125L143.1246008744419,-83.61702273449932L127.97223054545567,-87.80188320561608z" style="fill:rgb(197,147,42)">
    </path>
    <path d="M139.2298248995551,-100.3390634724849L132.27782925316012,-95.91754794811057L127.97223054545567,-87.80188320561608z" style="fill:rgb(197,147,42)">
    </path>
    <path d="M195.72821192212518,-319.2737576356427L205.9174601466701,-319.78011824824347L198.6369265281803,-321.1329852297699z" style="fill:rgb(109,213,75)">
    </path>
    <path d="M143.1246008744419,-83.61702273449932L145.94838155902704,-92.73067398314896L127.97223054545567,-87.80188320561608z" style="fill:rgb(197,147,42)">
    </path>
    <path d="M145.94838155902704,-92.73067398314896L139.2298248995551,-100.3390634724849L127.97223054545567,-87.80188320561608z" style="fill:rgb(197,147,42)">
    </path>
    <path d="M211.2937773130557,-395.1881775788059L189.52427700263544,-389.60553395957" style="fill:none;stroke:rgb(45,114,23);stroke-width:5;stroke-linecap:round">
    </path>
    <path d="M211.2937773130557,-395.1881775788059L206.3798944469539,-431.97587954098196" style="fill:none;stroke:rgb(0,0,0);stroke-width:1;stroke-linecap:round">
    </path>
    <path d="M-124.16855464192372,-309.1610928833404L211.2937773130557,-395.1881775788059" style="fill:none;stroke:rgb(1,93,85);stroke-width:5;stroke-linecap:round">
    </path>
    <path d="M211.2937773130557,-395.1881775788059L206.3798944469539,-431.97587954098196" style="fill:none;stroke:rgb(0,0,0);stroke-width:1;stroke-linecap:round">
    </path>
    <path d="M187.5093617039868,-307.4437265750895L143.3083034076952,-294.9509798042312" style="fill:none;stroke:rgb(197,147,42);stroke-width:5;stroke-linecap:round">
    </path>
    <path d="M206.3798944469539,-431.97587954098196L206.3798944469539,-431.97587954098196L211.2937773130557,-395.1881775788059z" style="fill:rgb(0,0,0); fill-opacity: 0.2">
    </path>
    <path d="M191.5706271541899,-318.11139386899634L181.45740857182525,-319.07786763717684L184.13165826035313,-317.08253518000095z" style="fill:rgb(43,180,168)">
    </path>
    <path d="M181.45740857182525,-319.07786763717684L175.02840309522614,-317.2882768989838L184.13165826035313,-317.08253518000095z" style="fill:rgb(43,180,168)">
    </path>
    <path d="M189.52427700263544,-389.60553395957L206.3798944469539,-431.97587954098196" style="fill:none;stroke:rgb(0,0,0);stroke-width:1;stroke-linecap:round">
    </path>
    <path d="M206.3798944469539,-431.97587954098196L206.3798944469539,-431.97587954098196" style="fill:none;stroke:rgb(0,0,0);stroke-width:1;stroke-linecap:round">
    </path>
    <path d="M189.52427700263544,-389.60553395957L206.3798944469539,-431.97587954098196" style="fill:none;stroke:rgb(0,0,0);stroke-width:1;stroke-linecap:round">
    </path>
    <path d="M206.3798944469539,-431.97587954098196L-130.26231844679475,-349.7801320936835" style="fill:none;stroke:rgb(0,0,0);stroke-width:1;stroke-linecap:round">
    </path>
    <path d="M135.50808262851834,-125.64739987947334L143.97919894219112,-123.72400060982022L128.77919831072907,-128.05311561157168z" style="fill:rgb(197,147,42)">
    </path>
    <path d="M140.07189653858094,-140.52002189420102L133.09531521951718,-136.00915977442455L128.77919831072907,-128.05311561157168z" style="fill:rgb(197,147,42)">
    </path>
    <path d="M185.86620377238987,-388.66744540051593L184.13165826035313,-317.08253518000106" style="fill:none;stroke:rgb(43,180,168);stroke-width:5;stroke-linecap:round">
    </path>
    <path d="M191.42538889892595,-315.7175189908361L191.5706271541899,-318.11139386899634L184.13165826035313,-317.08253518000095z" style="fill:rgb(43,180,168)">
    </path>
    <path d="M181.17867456059543,-315.2060462131503L175.02840309522614,-317.2882768989838L183.70114651194373,-299.3152614792507z" style="fill:rgb(43,180,168)">
    </path>
    <path d="M143.97919894219112,-123.72400060982022L146.81349093924229,-132.9211984673444L128.77919831072907,-128.05311561157168z" style="fill:rgb(197,147,42)">
    </path>
    <path d="M211.2937773130557,-395.1881775788059L189.52427700263544,-389.60553395957L206.3798944469539,-431.97587954098196z" style="fill:rgb(0,0,0); fill-opacity: 0.2">
    </path>
    <path d="M-271.28620778716487,-376.94718859874115L-260.4257574103468,481.75091050423856" style="fill:none;stroke:rgb(0,0,0);stroke-width:1;stroke-linecap:round">
    </path>
    <path d="M-129.14596589552997,531.3321833718398L-260.4257574103468,481.75091050423856" style="fill:none;stroke:rgb(160,0,0);stroke-width:4;stroke-linecap:round">
    </path>
    <path d="M146.81349093924229,-132.9211984673444L140.07189653858094,-140.52002189420102L128.77919831072907,-128.05311561157168z" style="fill:rgb(197,147,42)">
    </path>
    <path d="M175.02840309522614,-317.2882768989838L181.17867456059543,-315.2060462131503L184.13165826035313,-317.08253518000095z" style="fill:rgb(43,180,168)">
    </path>
    <path d="M191.42538889892595,-315.7175189908361L181.17867456059543,-315.2060462131503L183.70114651194373,-299.3152614792507z" style="fill:rgb(43,180,168)">
    </path>
    <path d="M181.17867456059543,-315.2060462131503L191.42538889892595,-315.7175189908361L184.13165826035313,-317.08253518000095z" style="fill:rgb(43,180,168)">
    </path>
    <path d="M188.5134709123374,-348.38809154408557L144.17769914206315,-336.43575643804206" style="fill:none;stroke:rgb(197,147,42);stroke-width:5;stroke-linecap:round">
    </path>
    <path d="M136.33877912517693,-165.95946636078187L144.8394834352488,-164.09784701977003L129.59155308030032,-168.57304965753647z" style="fill:rgb(197,147,42)">
    </path>
    <path d="M140.9195738470273,-180.96846488548368L133.91823303696083,-176.36716353188072L129.59155308030032,-168.57304965753647z" style="fill:rgb(197,147,42)">
    </path>
    <path d="M144.8394834352488,-164.09784701977003L147.68436435958037,-173.379503883043L129.59155308030032,-168.57304965753647z" style="fill:rgb(197,147,42)">
    </path>
    <path d="M147.68436435958037,-173.379503883043L140.9195738470273,-180.96846488548368L129.59155308030032,-168.57304965753647z" style="fill:rgb(197,147,42)">
    </path>
    <path d="M189.52427700263544,-389.60553395956975L145.05297606440138,-378.2011645031372" style="fill:none;stroke:rgb(197,147,42);stroke-width:5;stroke-linecap:round">
    </path>
    <path d="M137.17501206389488,-206.54020548157033L145.7055112985785,-204.74123443750278L130.4093489771532,-209.36438497650116z" style="fill:rgb(197,147,42)">
    </path>
    <path d="M141.77291298722758,-221.6870723327967L134.74663702450994,-216.9942231647114L130.4093489771532,-209.36438497650116z" style="fill:rgb(197,147,42)">
    </path>
    <path d="M165.95059206675285,-310.9486293920049L155.7791951753109,-311.93002913633717L158.4187653952194,-309.9024688577333z" style="fill:rgb(43,180,168)">
    </path>
    <path d="M145.7055112985785,-204.74123443750278L148.56105961945732,-214.10827542693067L130.4093489771532,-209.36438497650116z" style="fill:rgb(197,147,42)">
    </path>
    <path d="M148.56105961945732,-214.10827542693067L141.77291298722758,-221.6870723327967L130.4093489771532,-209.36438497650116z" style="fill:rgb(197,147,42)">
    </path>
    <path d="M155.7791951753109,-311.93002913633717L149.24393317428445,-310.1108606208845L158.4187653952194,-309.9024688577333z" style="fill:rgb(43,180,168)">
    </path>
    <path d="M-57.50929244072769,491.96082796703837L-55.018522501852686,502.2419867583234L-50.87023123523666,496.97181295425275z" style="fill:rgb(167,41,160)">
    </path>
    <path d="M-44.18415781300012,496.8102450832793L-46.789930064109896,505.2525740842578L-39.06115593016164,491.0403930482386z" style="fill:rgb(167,41,160)">
    </path>
    <path d="M-50.823826035073196,488.58742701415457L-44.18415781300012,496.8102450832793L-39.06115593016164,491.0403930482386z" style="fill:rgb(167,41,160)">
    </path>
    <path d="M-55.018522501852686,502.2419867583234L-46.789930064109896,505.2525740842578L-50.87023123523666,496.97181295425275z" style="fill:rgb(167,41,160)">
    </path>
    <path d="M-50.823826035073196,488.58742701415457L-57.50929244072769,491.96082796703837L-50.87023123523666,496.97181295425275z" style="fill:rgb(167,41,160)">
    </path>
    <path d="M160.0171510179083,-382.0386276800639L158.41876539521937,-309.90246885773337" style="fill:none;stroke:rgb(43,180,168);stroke-width:5;stroke-linecap:round">
    </path>
    <path d="M165.7354139239789,-308.5157828503048L165.95059206675285,-310.9486293920049L158.4187653952194,-309.9024688577333z" style="fill:rgb(43,180,168)">
    </path>
    <path d="M-98.95258019978077,521.1224423988504L-50.870231235236695,496.97181295425275" style="fill:none;stroke:rgb(167,41,160);stroke-width:5;stroke-linecap:round">
    </path>
    <path d="M155.38660516347605,-307.9951849541673L149.24393317428445,-310.1108606208845L158.022072029422,-291.99944518639506z" style="fill:rgb(43,180,168)">
    </path>
    <path d="M149.24393317428445,-310.1108606208845L155.38660516347605,-307.9951849541673L158.4187653952194,-309.9024688577333z" style="fill:rgb(43,180,168)">
    </path>
    <path d="M165.7354139239789,-308.5157828503048L155.38660516347605,-307.9951849541673L158.022072029422,-291.99944518639506z" style="fill:rgb(43,180,168)">
    </path>
    <path d="M-46.789930064109896,505.2525740842578L-44.18415781300012,496.8102450832793L-50.87023123523666,496.97181295425275z" style="fill:rgb(167,41,160)">
    </path>
    <path d="M-44.18415781300012,496.8102450832793L-50.823826035073196,488.58742701415457L-50.87023123523666,496.97181295425275z" style="fill:rgb(167,41,160)">
    </path>
    <path d="M155.38660516347605,-307.9951849541673L165.7354139239789,-308.5157828503048L158.4187653952194,-309.9024688577333z" style="fill:rgb(43,180,168)">
    </path>
    <path d="M138.0168369788136,-247.3923122044554L146.5773402400343,-245.65687113923673L131.23264085173605,-250.42985748709424z" style="fill:rgb(197,147,42)">
    </path>
    <path d="M142.6319708742715,-262.6785600417162L135.58058222786633,-257.89303825553344L131.23264085173605,-250.42985748709424z" style="fill:rgb(197,147,42)">
    </path>
    <path d="M146.5773402400343,-245.65687113923673L149.44363529366552,-255.11023431748967L131.23264085173605,-250.42985748709424z" style="fill:rgb(197,147,42)">
    </path>
    <path d="M149.44363529366552,-255.11023431748967L142.6319708742715,-262.6785600417162L131.23264085173605,-250.42985748709424z" style="fill:rgb(197,147,42)">
    </path>
    <path d="M-57.31778465524374,453.3191112127723L-54.81871726556762,463.6458862421687L-50.65620628347546,458.30227182404514z" style="fill:rgb(167,41,160)">
    </path>
    <path d="M-43.94729853657196,458.07792782094486L-46.56214239157112,466.6006778290624L-38.80836846252317,452.4875426010824z" style="fill:rgb(167,41,160)">
    </path>
    <path d="M-50.60948876181629,449.8614563469953L-43.94729853657196,458.07792782094486L-38.80836846252317,452.4875426010824z" style="fill:rgb(167,41,160)">
    </path>
    <path d="M-54.81871726556762,463.6458862421687L-46.56214239157112,466.6006778290624L-50.65620628347546,458.30227182404514z" style="fill:rgb(167,41,160)">
    </path>
    <path d="M-50.60948876181629,449.8614563469953L-57.31778465524374,453.3191112127723L-50.65620628347546,458.30227182404514z" style="fill:rgb(167,41,160)">
    </path>
    <path d="M-98.89927398932134,481.97919750735144L-50.656206283475484,458.30227182404514" style="fill:none;stroke:rgb(167,41,160);stroke-width:5;stroke-linecap:round">
    </path>
    <path d="M-46.56214239157112,466.6006778290624L-43.94729853657196,458.07792782094486L-50.65620628347546,458.30227182404514z" style="fill:rgb(167,41,160)">
    </path>
    <path d="M-43.94729853657196,458.07792782094486L-50.60948876181629,449.8614563469953L-50.65620628347546,458.30227182404514z" style="fill:rgb(167,41,160)">
    </path>
    <path d="M138.86431014929133,-288.5185176559574L147.45502874317893,-286.84750180583484L132.0614842942251,-291.77224000527895z" style="fill:rgb(197,147,42)">
    </path>
    <path d="M143.4968051886591,-303.9456803407437L136.420124431607,-299.06634462331306L132.0614842942251,-291.77224000527895z" style="fill:rgb(197,147,42)">
    </path>
    <path d="M147.45502874317893,-286.84750180583484L150.33215074542014,-296.38813840106985L132.0614842942251,-291.77224000527895z" style="fill:rgb(197,147,42)">
    </path>
    <path d="M150.33215074542014,-296.38813840106985L143.4968051886591,-303.9456803407437L132.0614842942251,-291.77224000527895z" style="fill:rgb(197,147,42)">
    </path>
    <path d="M-57.12498775425017,414.4172816058615L-54.61756744932112,424.7900550787678L-50.4407389737453,419.37212873903553z" style="fill:rgb(167,41,160)">
    </path>
    <path d="M-43.708840439408284,419.0841640452733L-46.332819206115765,427.6882297832941L-38.553883443840746,413.6757970744503z" style="fill:rgb(167,41,160)">
    </path>
    <path d="M-50.393705966915135,410.874312119386L-43.708840439408284,419.0841640452733L-38.553883443840746,413.6757970744503z" style="fill:rgb(167,41,160)">
    </path>
    <path d="M-54.61756744932112,424.7900550787678L-46.332819206115765,427.6882297832941L-50.4407389737453,419.37212873903553z" style="fill:rgb(167,41,160)">
    </path>
    <path d="M-50.393705966915135,410.874312119386L-57.12498775425017,414.4172816058615L-50.4407389737453,419.37212873903553z" style="fill:rgb(167,41,160)">
    </path>
    <path d="M-98.84560335471629,442.5683525847453L-50.44073897374532,419.37212873903553" style="fill:none;stroke:rgb(167,41,160);stroke-width:5;stroke-linecap:round">
    </path>
    <path d="M139.90537985670898,-303.666995304576L129.67525788020296,-304.66368528521843L132.27862430624813,-302.60309777270265z" style="fill:rgb(43,180,168)">
    </path>
    <path d="M-46.332819206115765,427.6882297832941L-43.708840439408284,419.0841640452733L-50.4407389737453,419.37212873903553z" style="fill:rgb(167,41,160)">
    </path>
    <path d="M129.67525788020296,-304.66368528521843L123.03108315841091,-302.8141996084159L132.27862430624813,-302.60309777270265z" style="fill:rgb(43,180,168)">
    </path>
    <path d="M-43.708840439408284,419.0841640452733L-50.393705966915135,410.874312119386L-50.4407389737453,419.37212873903553z" style="fill:rgb(167,41,160)">
    </path>
    <path d="M139.71748861244552,-329.9215897351501L148.33863608036205,-328.3159081365568L132.89593564703674,-333.39434286846733z" style="fill:rgb(197,147,42)">
    </path>
    <path d="M144.36747438921086,-345.49122269734096L137.26532017162373,-340.51691493341184L132.89593564703674,-333.39434286846733z" style="fill:rgb(197,147,42)">
    </path>
    <path d="M133.7360520175951,-375.2990145723446L132.27862430624813,-302.6030977727027" style="fill:none;stroke:rgb(43,180,168);stroke-width:5;stroke-linecap:round">
    </path>
    <path d="M139.61794770940918,-301.19420700135976L139.90537985670898,-303.666995304576L132.27862430624813,-302.60309777270265z" style="fill:rgb(43,180,168)">
    </path>
    <path d="M129.16505107837165,-300.6642497898984L123.03108315841091,-302.8141996084159L131.91693636538014,-284.5622465853242z" style="fill:rgb(43,180,168)">
    </path>
    <path d="M123.03108315841091,-302.8141996084159L129.16505107837165,-300.6642497898984L132.27862430624813,-302.60309777270265z" style="fill:rgb(43,180,168)">
    </path>
    <path d="M139.61794770940918,-301.19420700135976L129.16505107837165,-300.6642497898984L131.91693636538014,-284.5622465853242z" style="fill:rgb(43,180,168)">
    </path>
    <path d="M148.33863608036205,-328.3159081365568L151.2266661396687,-337.9447827702378L132.89593564703674,-333.39434286846733z" style="fill:rgb(197,147,42)">
    </path>
    <path d="M151.2266661396687,-337.9447827702378L144.36747438921086,-345.49122269734096L132.89593564703674,-333.39434286846733z" style="fill:rgb(197,147,42)">
    </path>
    <path d="M-56.930888677461766,375.25270389133914L-54.41505943485985,385.67186264900283L-50.22381467623102,380.1787404175229z" style="fill:rgb(167,41,160)">
    </path>
    <path d="M129.16505107837165,-300.6642497898984L139.61794770940918,-301.19420700135976L132.27862430624813,-302.60309777270265z" style="fill:rgb(43,180,168)">
    </path>
    <path d="M-43.46876727841923,379.8262976115732L-46.10194492893497,388.51258647421224L-38.297683717085825,374.60253983406056z" style="fill:rgb(167,41,160)">
    </path>
    <path d="M-50.17646297768108,371.62334330333545L-43.46876727841923,379.8262976115732L-38.297683717085825,374.60253983406056z" style="fill:rgb(167,41,160)">
    </path>
    <path d="M-54.41505943485985,385.67186264900283L-46.10194492893497,388.51258647421224L-50.22381467623102,380.1787404175229z" style="fill:rgb(167,41,160)">
    </path>
    <path d="M-50.17646297768108,371.62334330333545L-56.930888677461766,375.25270389133914L-50.22381467623102,380.1787404175229z" style="fill:rgb(167,41,160)">
    </path>
    <path d="M-98.79156454610788,402.8871540756991L-50.22381467623106,380.1787404175229" style="fill:none;stroke:rgb(167,41,160);stroke-width:5;stroke-linecap:round">
    </path>
    <path d="M-46.10194492893497,388.51258647421224L-43.46876727841923,379.8262976115732L-50.22381467623102,380.1787404175229z" style="fill:rgb(167,41,160)">
    </path>
    <path d="M-43.46876727841923,379.8262976115732L-50.17646297768108,371.62334330333545L-50.22381467623102,380.1787404175229z" style="fill:rgb(167,41,160)">
    </path>
    <path d="M140.5764301759486,-371.60433373464355L149.22822232606313,-370.0649094752694L133.73605201759517,-375.29901457234433z" style="fill:rgb(197,147,42)">
    </path>
    <path d="M145.24403772624032,-387.31801434647474L138.11622674781378,-382.2475593199965L133.73605201759517,-375.29901457234433z" style="fill:rgb(197,147,42)">
    </path>
    <path d="M149.22822232606313,-370.0649094752694L152.1272424566719,-379.78300039469474L133.73605201759517,-375.29901457234433z" style="fill:rgb(197,147,42)">
    </path>
    <path d="M152.1272424566719,-379.78300039469474L145.24403772624032,-387.31801434647474L133.73605201759517,-375.29901457234433z" style="fill:rgb(197,147,42)">
    </path>
    <path d="M-56.73547418757365,335.8227070958929L-54.211179419401915,346.2886426886284L-50.005418562592936,340.7194277088445z" style="fill:rgb(167,41,160)">
    </path>
    <path d="M-43.22706258974014,340.3016362730448L-45.86950376976149,349.07106854799L-38.039751893241885,335.2651188649178z" style="fill:rgb(167,41,160)">
    </path>
    <path d="M-49.957744922172175,332.10586287022454L-43.22706258974014,340.3016362730448L-38.039751893241885,335.2651188649178z" style="fill:rgb(167,41,160)">
    </path>
    <path d="M-54.211179419401915,346.2886426886284L-45.86950376976149,349.07106854799L-50.005418562592936,340.7194277088445z" style="fill:rgb(167,41,160)">
    </path>
    <path d="M-49.957744922172175,332.10586287022454L-56.73547418757365,335.8227070958929L-50.005418562592936,340.7194277088445z" style="fill:rgb(167,41,160)">
    </path>
    <path d="M-98.73715376201409,362.93281051675L-50.005418562592986,340.7194277088445" style="fill:none;stroke:rgb(167,41,160);stroke-width:5;stroke-linecap:round">
    </path>
    <path d="M-45.86950376976149,349.07106854799L-43.22706258974014,340.3016362730448L-50.005418562592936,340.7194277088445z" style="fill:rgb(167,41,160)">
    </path>
    <path d="M-98.95258019978077,521.1224423988506L-97.81267586961145,-315.91988276641257" style="fill:none;stroke:rgb(84,0,79);stroke-width:5;stroke-linecap:round">
    </path>
    <path d="M-98.95258019978077,521.1224423988506L-129.14596589552997,531.3321833718398" style="fill:none;stroke:rgb(160,0,0);stroke-width:4;stroke-linecap:round">
    </path>
    <path d="M-43.22706258974014,340.3016362730448L-49.957744922172175,332.10586287022454L-50.005418562592936,340.7194277088445z" style="fill:rgb(167,41,160)">
    </path>
    <path d="M113.42431792938798,-296.2635077980724L103.13492095491723,-297.2758643659653L105.70049697699635,-295.18142344198316z" style="fill:rgb(43,180,168)">
    </path>
    <path d="M103.13492095491723,-297.2758643659653L96.3790880399496,-295.3952972926579L105.70049697699635,-295.18142344198316z" style="fill:rgb(43,180,168)">
    </path>
    <path d="M-56.53873086725208,296.12458392064843L-54.00591341250076,306.63769268247506L-49.78553560258795,300.9914749828845z" style="fill:rgb(167,41,160)">
    </path>
    <path d="M-42.983709684967884,300.50745106531764L-45.63547972326966,309.3609601588549L-37.78007034736998,295.66084617128536z" style="fill:rgb(167,41,160)">
    </path>
    <path d="M-49.737536725799394,292.3191471776202L-42.983709684967884,300.50745106531764L-37.78007034736998,295.66084617128536z" style="fill:rgb(167,41,160)">
    </path>
    <path d="M-54.00591341250076,306.63769268247506L-45.63547972326966,309.3609601588549L-49.78553560258795,300.9914749828845z" style="fill:rgb(167,41,160)">
    </path>
    <path d="M107.01198352352247,-368.44580488305064L105.70049697699635,-295.18142344198327" style="fill:none;stroke:rgb(43,180,168);stroke-width:5;stroke-linecap:round">
    </path>
    <path d="M113.06223029792065,-293.7497750777569L113.42431792938798,-296.2635077980724L105.70049697699635,-295.18142344198316z" style="fill:rgb(43,180,168)">
    </path>
    <path d="M102.50319469149294,-293.21021636774174L96.3790880399496,-295.3952972926579L105.37504715642044,-277.0006194850079z" style="fill:rgb(43,180,168)">
    </path>
    <path d="M-49.737536725799394,292.3191471776202L-56.53873086725208,296.12458392064843L-49.78553560258795,300.9914749828845z" style="fill:rgb(167,41,160)">
    </path>
    <path d="M-98.68236714843738,322.70249188170277L-49.78553560258799,300.9914749828845" style="fill:none;stroke:rgb(167,41,160);stroke-width:5;stroke-linecap:round">
    </path>
    <path d="M96.3790880399496,-295.3952972926579L102.50319469149294,-293.21021636774174L105.70049697699635,-295.18142344198316z" style="fill:rgb(43,180,168)">
    </path>
    <path d="M113.06223029792065,-293.7497750777569L102.50319469149294,-293.21021636774174L105.37504715642044,-277.0006194850079z" style="fill:rgb(43,180,168)">
    </path>
    <path d="M-45.63547972326966,309.3609601588549L-42.983709684967884,300.50745106531764L-49.78553560258795,300.9914749828845z" style="fill:rgb(167,41,160)">
    </path>
    <path d="M-42.983709684967884,300.50745106531764L-49.737536725799394,292.3191471776202L-49.78553560258795,300.9914749828845z" style="fill:rgb(167,41,160)">
    </path>
    <path d="M102.50319469149294,-293.21021636774174L113.06223029792065,-293.7497750777569L105.70049697699635,-295.18142344198316z" style="fill:rgb(43,180,168)">
    </path>
    <path d="M-130.26231844679475,-349.7801320936835L206.3798944469539,-431.97587954098196L69.78305394172797,-454.34873168920853z" style="fill:rgb(0,0,0); fill-opacity: 0.2">
    </path>
    <path d="M-56.3406451160633,256.15559012152175L-53.79924723284486,266.71627324625797L-49.564150560621336,260.9921295070702z" style="fill:rgb(167,41,160)">
    </path>
    <path d="M-42.738691647319726,260.44097567835416L-45.39985656540156,269.37950834570336L-37.51862121459409,255.7869971644063z" style="fill:rgb(167,41,160)">
    </path>
    <path d="M-49.5158231078632,252.26043534351183L-42.738691647319726,260.44097567835416L-37.51862121459409,255.7869971644063z" style="fill:rgb(167,41,160)">
    </path>
    <path d="M-53.79924723284486,266.71627324625797L-45.39985656540156,269.37950834570336L-49.564150560621336,260.9921295070702z" style="fill:rgb(167,41,160)">
    </path>
    <path d="M-49.5158231078632,252.26043534351183L-56.3406451160633,256.15559012152175L-49.564150560621336,260.9921295070702z" style="fill:rgb(167,41,160)">
    </path>
    <path d="M-130.26231844679475,-349.7801320936835L-129.14596589552997,531.3321833718398" style="fill:none;stroke:rgb(0,0,0);stroke-width:1;stroke-linecap:round">
    </path>
    <path d="M-98.62720079795447,282.19332891341367L-49.564150560621364,260.9921295070702" style="fill:none;stroke:rgb(167,41,160);stroke-width:5;stroke-linecap:round">
    </path>
    <path d="M-45.39985656540156,269.37950834570336L-42.738691647319726,260.44097567835416L-49.564150560621336,260.9921295070702z" style="fill:rgb(167,41,160)">
    </path>
    <path d="M-42.738691647319726,260.44097567835416L-49.5158231078632,252.26043534351183L-49.564150560621336,260.9921295070702z" style="fill:rgb(167,41,160)">
    </path>
    <path d="M-56.14120314733967,215.91294387684545L-53.5911665049918,226.52160749568952L-49.341247992227764,220.71860081055732z" style="fill:rgb(167,41,160)">
    </path>
    <path d="M-42.49199132771341,220.09940581541557L-45.16261784961777,229.12392239589605L-37.2553863860043,215.64081003767816z" style="fill:rgb(167,41,160)">
    </path>
    <path d="M-49.29258857801886,211.92692860767167L-42.49199132771341,220.09940581541557L-37.2553863860043,215.64081003767816z" style="fill:rgb(167,41,160)">
    </path>
    <path d="M-53.5911665049918,226.52160749568952L-45.16261784961777,229.12392239589605L-49.341247992227764,220.71860081055732z" style="fill:rgb(167,41,160)">
    </path>
    <path d="M-49.29258857801886,211.92692860767167L-56.14120314733967,215.91294387684545L-49.341247992227764,220.71860081055732z" style="fill:rgb(167,41,160)">
    </path>
    <path d="M-98.57165074878752,241.40241244163357L-49.34124799222778,220.7186008105573" style="fill:none;stroke:rgb(167,41,160);stroke-width:5;stroke-linecap:round">
    </path>
    <path d="M86.49637347827795,-288.73508235702417L76.14714871016534,-289.7634944621808L78.67328251330773,-287.63434605270294z" style="fill:rgb(43,180,168)">
    </path>
    <path d="M76.14714871016534,-289.7634944621808L69.2768190710124,-287.85105585323674L78.67328251330773,-287.63434605270294z" style="fill:rgb(43,180,168)">
    </path>
    <path d="M-45.16261784961777,229.12392239589605L-42.49199132771341,220.09940581541557L-49.341247992227764,220.71860081055732z" style="fill:rgb(167,41,160)">
    </path>
    <path d="M-42.49199132771341,220.09940581541557L-49.29258857801886,211.92692860767167L-49.341247992227764,220.71860081055732z" style="fill:rgb(167,41,160)">
    </path>
    <path d="M79.83365093417636,-361.47610218671633L78.67328251330771,-287.63434605270305" style="fill:none;stroke:rgb(43,180,168);stroke-width:5;stroke-linecap:round">
    </path>
    <path d="M86.05713757265679,-286.1793686274745L86.49637347827795,-288.73508235702417L78.67328251330773,-287.63434605270294z" style="fill:rgb(43,180,168)">
    </path>
    <path d="M75.38985202264635,-285.6299579075908L69.2768190710124,-287.85105585323674L78.38535124252009,-269.31141490559344z" style="fill:rgb(43,180,168)">
    </path>
    <path d="M-124.16855464192372,-309.1610928833404L211.2937773130557,-395.1881775788059L206.3798944469539,-431.97587954098196z" style="fill:rgb(0,0,0); fill-opacity: 0.2">
    </path>
    <path d="M69.2768190710124,-287.85105585323674L75.38985202264635,-285.6299579075908L78.67328251330773,-287.63434605270294z" style="fill:rgb(43,180,168)">
    </path>
    <path d="M86.05713757265679,-286.1793686274745L75.38985202264635,-285.6299579075908L78.38535124252009,-269.31141490559344z" style="fill:rgb(43,180,168)">
    </path>
    <path d="M-260.4257574103468,481.75091050423856L-271.28620778716487,-376.94718859874115L-129.14596589552997,531.3321833718398z" style="fill:rgb(0,0,0); fill-opacity: 0.2">
    </path>
    <path d="M75.38985202264635,-285.6299579075908L86.05713757265679,-286.1793686274745L78.67328251330773,-287.63434605270294z" style="fill:rgb(43,180,168)">
    </path>
    <path d="M-55.94039098498089,175.3938251419604L-53.38165665603489,186.05088040259474L-49.11681224047956,180.16806003529496z" style="fill:rgb(167,41,160)">
    </path>
    <path d="M-42.243591340765846,179.47989853877914L-44.92374690307048,188.59137319591943L-36.9903475044755,175.21948512898086z" style="fill:rgb(167,41,160)">
    </path>
    <path d="M-49.06781743266875,171.31578967982549L-42.243591340765846,179.47989853877914L-36.9903475044755,175.21948512898086z" style="fill:rgb(167,41,160)">
    </path>
    <path d="M-53.38165665603489,186.05088040259474L-44.92374690307048,188.59137319591943L-49.11681224047956,180.16806003529496z" style="fill:rgb(167,41,160)">
    </path>
    <path d="M-49.06781743266875,171.31578967982549L-55.94039098498089,175.3938251419604L-49.11681224047956,180.16806003529496z" style="fill:rgb(167,41,160)">
    </path>
    <path d="M-98.51571298385555,200.32679268656605L-49.11681224047957,180.16806003529496" style="fill:none;stroke:rgb(167,41,160);stroke-width:5;stroke-linecap:round">
    </path>
    <path d="M-44.92374690307048,188.59137319591943L-42.243591340765846,179.47989853877914L-49.11681224047956,180.16806003529496z" style="fill:rgb(167,41,160)">
    </path>
    <path d="M-42.243591340765846,179.47989853877914L-49.06781743266875,171.31578967982549L-49.11681224047956,180.16806003529496z" style="fill:rgb(167,41,160)">
    </path>
    <path d="M-55.738194460189355,134.5953749904602L-53.17070291220114,145.3012381377135L-48.890827432320734,139.33763927365447z" style="fill:rgb(167,41,160)">
    </path>
    <path d="M-41.993474060709154,138.57957160188457L-44.68322682269759,147.77899256859942L-36.723485960400104,134.52018426984952z" style="fill:rgb(167,41,160)">
    </path>
    <path d="M-48.841493751279934,130.42414207431784L-41.993474060709154,138.57957160188457L-36.723485960400104,134.52018426984952z" style="fill:rgb(167,41,160)">
    </path>
    <path d="M-53.17070291220114,145.3012381377135L-44.68322682269759,147.77899256859942L-48.890827432320734,139.33763927365447z" style="fill:rgb(167,41,160)">
    </path>
    <path d="M-48.841493751279934,130.42414207431784L-55.738194460189355,134.5953749904602L-48.890827432320734,139.33763927365447z" style="fill:rgb(167,41,160)">
    </path>
    <path d="M-98.4593834298063,158.96347854779282L-48.89082743232077,139.33763927365445" style="fill:none;stroke:rgb(167,41,160);stroke-width:5;stroke-linecap:round">
    </path>
    <path d="M-44.68322682269759,147.77899256859942L-41.993474060709154,138.57957160188457L-48.890827432320734,139.33763927365447z" style="fill:rgb(167,41,160)">
    </path>
    <path d="M-41.993474060709154,138.57957160188457L-48.841493751279934,130.42414207431784L-48.890827432320734,139.33763927365447z" style="fill:rgb(167,41,160)">
    </path>
    <path d="M59.11013815877222,-281.0785294742659L48.70053019894723,-282.1233991999858L51.18550168396234,-279.95866014517594z" style="fill:rgb(43,180,168)">
    </path>
    <path d="M48.70053019894723,-282.1233991999858L41.71276826951491,-280.1782719053945L51.18550168396234,-279.95866014517594z" style="fill:rgb(43,180,168)">
    </path>
    <path d="M-55.534599208137514,93.51469494176395L-52.9582902953783,104.26978739986764L-48.66327747482473,98.22443089229478z" style="fill:rgb(167,41,160)">
    </path>
    <path d="M52.1893723782201,-354.38691074510484L51.18550168396233,-279.958660145176" style="fill:none;stroke:rgb(43,180,168);stroke-width:5;stroke-linecap:round">
    </path>
    <path d="M-41.74162161722143,97.39550276758112L-44.4410404712355,106.6838725965397L-36.45478288733223,93.54003012117344z" style="fill:rgb(167,41,160)">
    </path>
    <path d="M58.59116571998898,-278.4797627571273L59.11013815877222,-281.0785294742659L51.18550168396234,-279.95866014517594z" style="fill:rgb(43,180,168)">
    </path>
    <path d="M47.813457082862044,-277.9202408285915L41.71276826951491,-280.1782719053945L50.936419319433504,-261.4913767059658z" style="fill:rgb(43,180,168)">
    </path>
    <path d="M-48.61360139262512,89.24906943094142L-41.74162161722143,97.39550276758112L-36.45478288733223,93.54003012117344z" style="fill:rgb(167,41,160)">
    </path>
    <path d="M-52.9582902953783,104.26978739986764L-44.4410404712355,106.6838725965397L-48.66327747482473,98.22443089229478z" style="fill:rgb(167,41,160)">
    </path>
    <path d="M-48.61360139262512,89.24906943094142L-55.534599208137514,93.51469494176395L-48.66327747482473,98.22443089229478z" style="fill:rgb(167,41,160)">
    </path>
    <path d="M-98.4026579560271,117.30943687820447L-48.66327747482476,98.22443089229473" style="fill:none;stroke:rgb(167,41,160);stroke-width:5;stroke-linecap:round">
    </path>
    <path d="M41.71276826951491,-280.1782719053945L47.813457082862044,-277.9202408285915L51.18550168396234,-279.95866014517594z" style="fill:rgb(43,180,168)">
    </path>
    <path d="M58.59116571998898,-278.4797627571273L47.813457082862044,-277.9202408285915L50.936419319433504,-261.4913767059658z" style="fill:rgb(43,180,168)">
    </path>
    <path d="M47.813457082862044,-277.9202408285915L58.59116571998898,-278.4797627571273L51.18550168396234,-279.95866014517594z" style="fill:rgb(43,180,168)">
    </path>
    <path d="M-44.4410404712355,106.6838725965397L-41.74162161722143,97.39550276758112L-48.66327747482473,98.22443089229478z" style="fill:rgb(167,41,160)">
    </path>
    <path d="M-41.74162161722143,97.39550276758112L-48.61360139262512,89.24906943094142L-48.66327747482473,98.22443089229478z" style="fill:rgb(167,41,160)">
    </path>
    <path d="M-55.329590664565956,52.148846274686235L-52.74440361956982,62.95359473116272L-48.43414605137419,56.825486841931244z" style="fill:rgb(167,41,160)">
    </path>
    <path d="M-41.488015891170626,55.9247291121371L-44.1971704731487,65.30306493145046L-36.18421915754139,52.27610549509514z" style="fill:rgb(167,41,160)">
    </path>
    <path d="M-48.384123990945206,47.78761482159612L-41.488015891170626,55.9247291121371L-36.18421915754139,52.27610549509514z" style="fill:rgb(167,41,160)">
    </path>
    <path d="M-52.74440361956982,62.95359473116272L-44.1971704731487,65.30306493145046L-48.43414605137419,56.825486841931244z" style="fill:rgb(167,41,160)">
    </path>
    <path d="M-48.384123990945206,47.78761482159612L-55.329590664565956,52.148846274686235L-48.43414605137419,56.825486841931244z" style="fill:rgb(167,41,160)">
    </path>
    <path d="M-98.34553237363563,75.36159174256882L-48.43414605137421,56.825486841931216" style="fill:none;stroke:rgb(167,41,160);stroke-width:5;stroke-linecap:round">
    </path>
    <path d="M-44.1971704731487,65.30306493145046L-41.488015891170626,55.9247291121371L-48.43414605137419,56.825486841931244z" style="fill:rgb(167,41,160)">
    </path>
    <path d="M-41.488015891170626,55.9247291121371L-48.384123990945206,47.78761482159612L-48.43414605137419,56.825486841931244z" style="fill:rgb(167,41,160)">
    </path>
    <path d="M-55.123154062310405,10.494849326661782L-52.529027487275805,21.349685817883174L-48.20341661776079,15.13781795266244z" style="fill:rgb(167,41,160)">
    </path>
    <path d="M-41.23263851026914,14.164246314662353L-43.95159921047434,23.633580089022065L-35.9117753774737,10.725452662773634z" style="fill:rgb(167,41,160)">
    </path>
    <path d="M-48.15304495203155,6.036780042429987L-41.23263851026914,14.164246314662353L-35.9117753774737,10.725452662773634z" style="fill:rgb(167,41,160)">
    </path>
    <path d="M-52.529027487275805,21.349685817883174L-43.95159921047434,23.633580089022065L-48.20341661776079,15.13781795266244z" style="fill:rgb(167,41,160)">
    </path>
    <path d="M31.25381197268045,-273.29055014542166L20.783263129460146,-274.35229326998405L23.225280664214246,-272.151050073449z" style="fill:rgb(43,180,168)">
    </path>
    <path d="M-48.15304495203155,6.036780042429987L-55.123154062310405,10.494849326661782L-48.20341661776079,15.13781795266244z" style="fill:rgb(167,41,160)">
    </path>
    <path d="M-98.28800243444837,33.11682366035322L-48.203416617760816,15.137817952662415" style="fill:none;stroke:rgb(167,41,160);stroke-width:5;stroke-linecap:round">
    </path>
    <path d="M20.783263129460146,-274.35229326998405L13.675032126426222,-272.3736319647062L23.225280664214246,-272.151050073449z" style="fill:rgb(43,180,168)">
    </path>
    <path d="M-43.95159921047434,23.633580089022065L-41.23263851026914,14.164246314662353L-48.20341661776079,15.13781795266244z" style="fill:rgb(167,41,160)">
    </path>
    <path d="M-41.23263851026914,14.164246314662353L-48.15304495203155,6.036780042429987L-48.20341661776079,15.13781795266244z" style="fill:rgb(167,41,160)">
    </path>
    <path d="M24.0670619725755,-347.17513121385406L23.22528066421423,-272.1510500734491" style="fill:none;stroke:rgb(43,180,168);stroke-width:5;stroke-linecap:round">
    </path>
    <path d="M30.652414889966206,-270.64762155145877L31.25381197268045,-273.29055014542166L23.225280664214246,-272.151050073449z" style="fill:rgb(43,180,168)">
    </path>
    <path d="M19.762045423679748,-270.07772014990684L13.675032126426222,-272.3736319647062L23.01642980094295,-253.53713698619873z" style="fill:rgb(43,180,168)">
    </path>
    <path d="M-271.28620778716487,-376.94718859874115L69.78305394172797,-454.34873168920853L-130.26231844679475,-349.7801320936835z" style="fill:rgb(0,0,0); fill-opacity: 0.2">
    </path>
    <path d="M13.675032126426222,-272.3736319647062L19.762045423679748,-270.07772014990684L23.225280664214246,-272.151050073449z" style="fill:rgb(43,180,168)">
    </path>
    <path d="M30.652414889966206,-270.64762155145877L19.762045423679748,-270.07772014990684L23.01642980094295,-253.53713698619873z" style="fill:rgb(43,180,168)">
    </path>
    <path d="M19.762045423679748,-270.07772014990684L30.652414889966206,-270.64762155145877L23.225280664214246,-272.151050073449z" style="fill:rgb(43,180,168)">
    </path>
    <path d="M-129.14596589552997,531.3321833718398L-130.26231844679475,-349.7801320936835L-98.95258019978077,521.1224423988506z" style="fill:rgb(0,0,0); fill-opacity: 0.2">
    </path>
    <path d="M-54.915274427755875,-31.450317221724877L-52.312146285797915,-20.544955223268722L-47.971072398203226,-26.84160678549782z" style="fill:rgb(167,41,160)">
    </path>
    <path d="M-40.97547084463706,-27.888992068413L-43.704308818579364,-18.32761327100997L-35.6374318831179,-31.114927352332554z" style="fill:rgb(167,41,160)">
    </path>
    <path d="M-47.92034744922573,-36.00647510889303L-40.97547084463706,-27.888992068413L-35.6374318831179,-31.114927352332554z" style="fill:rgb(167,41,160)">
    </path>
    <path d="M-52.312146285797915,-20.544955223268722L-43.704308818579364,-18.32761327100997L-47.971072398203226,-26.84160678549782z" style="fill:rgb(167,41,160)">
    </path>
    <path d="M-47.92034744922573,-36.00647510889303L-54.915274427755875,-31.450317221724877L-47.971072398203226,-26.84160678549782z" style="fill:rgb(167,41,160)">
    </path>
    <path d="M-98.23006382992772,-9.428031167587653L-47.97107239820323,-26.841606785497845" style="fill:none;stroke:rgb(167,41,160);stroke-width:5;stroke-linecap:round">
    </path>
    <path d="M-43.704308818579364,-18.32761327100997L-40.97547084463706,-27.888992068413L-47.971072398203226,-26.84160678549782z" style="fill:rgb(167,41,160)">
    </path>
    <path d="M-40.97547084463706,-27.888992068413L-47.92034744922573,-36.00647510889303L-47.971072398203226,-26.84160678549782z" style="fill:rgb(167,41,160)">
    </path>
    <path d="M-54.70593657721606,-73.68971707726665L-52.09374418346658,-62.73338657394978L-47.737096381281155,-69.11586095724769z" style="fill:rgb(167,41,160)">
    </path>
    <path d="M-40.71649400227171,-70.23807534417213L-43.455281181828305,-60.58358907997259L-35.36116873527421,-73.24807549601805z" style="fill:rgb(167,41,160)">
    </path>
    <path d="M-47.686014419335244,-78.34523357116498L-40.71649400227171,-70.23807534417213L-35.36116873527421,-73.24807549601805z" style="fill:rgb(167,41,160)">
    </path>
    <path d="M-52.09374418346658,-62.73338657394978L-43.455281181828305,-60.58358907997259L-47.737096381281155,-69.11586095724769z" style="fill:rgb(167,41,160)">
    </path>
    <path d="M-47.686014419335244,-78.34523357116498L-54.70593657721606,-73.68971707726665L-47.737096381281155,-69.11586095724769z" style="fill:rgb(167,41,160)">
    </path>
    <path d="M-98.1717121901063,-52.27618164886333L-47.73709638128121,-69.11586095724773" style="fill:none;stroke:rgb(167,41,160);stroke-width:5;stroke-linecap:round">
    </path>
    <path d="M-43.455281181828305,-60.58358907997259L-40.71649400227171,-70.23807534417213L-47.737096381281155,-69.11586095724769z" style="fill:rgb(167,41,160)">
    </path>
    <path d="M-40.71649400227171,-70.23807534417213L-47.686014419335244,-78.34523357116498L-47.737096381281155,-69.11586095724769z" style="fill:rgb(167,41,160)">
    </path>
    <path d="M2.915186315677796,-265.3677311293669L-7.616863056723163,-266.44677771687077L-5.219666066150623,-264.2080852297565z" style="fill:rgb(43,180,168)">
    </path>
    <path d="M-7.616863056723163,-266.44677771687077L-14.848705534229216,-264.43370767595644L-5.219666066150623,-264.2080852297565z" style="fill:rgb(43,180,168)">
    </path>
    <path d="M-54.49512511323659,-116.22645708008855L-51.873805125788735,-105.21870945833918L-47.50147131578345,-111.68806147215705z" style="fill:rgb(167,41,160)">
    </path>
    <path d="M-4.545787795587739,-339.83755612445543L-5.2196660661506415,-264.20808522975653" style="fill:none;stroke:rgb(43,180,168);stroke-width:5;stroke-linecap:round">
    </path>
    <path d="M2.2285720056685636,-262.6794932542433L2.915186315677796,-265.3677311293669L-5.219666066150623,-264.2080852297565z" style="fill:rgb(43,180,168)">
    </path>
    <path d="M-8.776763171065092,-262.0989346517428L-14.848705534229216,-264.43370767595644L-5.386848156912898,-245.44521125125752z" style="fill:rgb(43,180,168)">
    </path>
    <path d="M-40.45568882442137,-112.8861364397354L-43.20449792915945,-103.13746461091063L-35.08296571472356,-115.67707542008293z" style="fill:rgb(167,41,160)">
    </path>
    <path d="M-47.45002855846242,-120.98262177322032L-40.45568882442137,-112.8861364397354L-35.08296571472356,-115.67707542008293z" style="fill:rgb(167,41,160)">
    </path>
    <path d="M-51.873805125788735,-105.21870945833918L-43.20449792915945,-103.13746461091063L-47.50147131578345,-111.68806147215705z" style="fill:rgb(167,41,160)">
    </path>
    <path d="M-14.848705534229216,-264.43370767595644L-8.776763171065092,-262.0989346517428L-5.219666066150623,-264.2080852297565z" style="fill:rgb(43,180,168)">
    </path>
    <path d="M2.2285720056685636,-262.6794932542433L-8.776763171065092,-262.0989346517428L-5.386848156912898,-245.44521125125752z" style="fill:rgb(43,180,168)">
    </path>
    <path d="M-47.45002855846242,-120.98262177322032L-54.49512511323659,-116.22645708008855L-47.50147131578345,-111.68806147215705z" style="fill:rgb(167,41,160)">
    </path>
    <path d="M-98.11294308248813,-95.43088260635116L-47.50147131578349,-111.6880614721571" style="fill:none;stroke:rgb(167,41,160);stroke-width:5;stroke-linecap:round">
    </path>
    <path d="M-8.776763171065092,-262.0989346517428L2.2285720056685636,-262.6794932542433L-5.219666066150623,-264.2080852297565z" style="fill:rgb(43,180,168)">
    </path>
    <path d="M-43.20449792915945,-103.13746461091063L-40.45568882442137,-112.8861364397354L-47.50147131578345,-111.68806147215705z" style="fill:rgb(167,41,160)">
    </path>
    <path d="M-40.45568882442137,-112.8861364397354L-47.45002855846242,-120.98262177322032L-47.50147131578345,-111.68806147215705z" style="fill:rgb(167,41,160)">
    </path>
    <path d="M-54.28282442081956,-159.06368796541096L-51.65231283151362,-148.0040689030669L-47.26417970646799,-154.56136933074498z" style="fill:rgb(167,41,160)">
    </path>
    <path d="M-40.1930358808605,-155.83635267486434L-42.95194042956709,-145.99240124517408L-34.802802317294564,-158.40505423465993z" style="fill:rgb(167,41,160)">
    </path>
    <path d="M-47.21237231774517,-163.9218104035262L-40.1930358808605,-155.83635267486434L-34.802802317294564,-158.40505423465993z" style="fill:rgb(167,41,160)">
    </path>
    <path d="M-51.65231283151362,-148.0040689030669L-42.95194042956709,-145.99240124517408L-47.26417970646799,-154.56136933074498z" style="fill:rgb(167,41,160)">
    </path>
    <path d="M-47.21237231774517,-163.9218104035262L-54.28282442081956,-159.06368796541096L-47.26417970646799,-154.56136933074498z" style="fill:rgb(167,41,160)">
    </path>
    <path d="M-98.05375201092639,-138.8954356023792L-47.26417970646802,-154.56136933074498" style="fill:none;stroke:rgb(167,41,160);stroke-width:5;stroke-linecap:round">
    </path>
    <path d="M-42.95194042956709,-145.99240124517408L-40.1930358808605,-155.83635267486434L-47.26417970646799,-154.56136933074498z" style="fill:rgb(167,41,160)">
    </path>
    <path d="M-40.1930358808605,-155.83635267486434L-47.21237231774517,-163.9218104035262L-47.26417970646799,-154.56136933074498z" style="fill:rgb(167,41,160)">
    </path>
    <path d="M-54.0690186635681,-202.2046051415144L-51.42925078861532,-191.09265451329955L-47.025203809731465,-197.73899040686936z" style="fill:rgb(167,41,160)">
    </path>
    <path d="M-39.92851546506431,-199.09194655104463L-42.697589787487544,-189.15160525533312L-34.52065774882606,-201.4351832765015z" style="fill:rgb(167,41,160)">
    </path>
    <path d="M-25.91837386347598,-257.3065399603622L-36.51248499217877,-258.40333498249447L-34.162053721984236,-256.1262150184333z" style="fill:rgb(43,180,168)">
    </path>
    <path d="M-46.97302789900659,-207.16601519617123L-39.92851546506431,-199.09194655104463L-34.52065774882606,-201.4351832765015z" style="fill:rgb(167,41,160)">
    </path>
    <path d="M-51.42925078861532,-191.09265451329955L-42.697589787487544,-189.15160525533312L-47.025203809731465,-197.73899040686936z" style="fill:rgb(167,41,160)">
    </path>
    <path d="M-46.97302789900659,-207.16601519617123L-54.0690186635681,-202.2046051415144L-47.025203809731465,-197.73899040686936z" style="fill:rgb(167,41,160)">
    </path>
    <path d="M-36.51248499217877,-258.40333498249447L-43.87119159446765,-256.3549507917406L-34.162053721984236,-256.1262150184333z" style="fill:rgb(43,180,168)">
    </path>
    <path d="M-97.99413441447672,-182.67318978072524L-47.0252038097315,-197.73899040686942" style="fill:none;stroke:rgb(167,41,160);stroke-width:5;stroke-linecap:round">
    </path>
    <path d="M-42.697589787487544,-189.15160525533312L-39.92851546506431,-199.09194655104463L-47.025203809731465,-197.73899040686936z" style="fill:rgb(167,41,160)">
    </path>
    <path d="M-33.662124616910006,-332.3708651277276L-34.162053721984265,-256.1262150184334" style="fill:none;stroke:rgb(43,180,168);stroke-width:5;stroke-linecap:round">
    </path>
    <path d="M-26.69310733070832,-254.5718051959729L-25.91837386347598,-257.3065399603622L-34.162053721984236,-256.1262150184333z" style="fill:rgb(43,180,168)">
    </path>
    <path d="M-39.92851546506431,-199.09194655104463L-46.97302789900659,-207.16601519617123L-47.025203809731465,-197.73899040686936z" style="fill:rgb(167,41,160)">
    </path>
    <path d="M-37.815782903559544,-253.98030178193233L-43.87119159446765,-256.3549507917406L-34.28607252084603,-237.21199332136462z" style="fill:rgb(43,180,168)">
    </path>
    <path d="M-129.14596589552997,531.3321833718398L-130.26231844679475,-349.7801320936835L-271.28620778716487,-376.94718859874115z" style="fill:rgb(0,0,0); fill-opacity: 0.2">
    </path>
    <path d="M-43.87119159446765,-256.3549507917406L-37.815782903559544,-253.98030178193233L-34.162053721984236,-256.1262150184333z" style="fill:rgb(43,180,168)">
    </path>
    <path d="M-26.69310733070832,-254.5718051959729L-37.815782903559544,-253.98030178193233L-34.28607252084603,-237.21199332136462z" style="fill:rgb(43,180,168)">
    </path>
    <path d="M-130.26231844679475,-349.7801320936835L206.3798944469539,-431.97587954098196L-124.16855464192372,-309.1610928833404z" style="fill:rgb(0,0,0); fill-opacity: 0.2">
    </path>
    <path d="M-37.815782903559544,-253.98030178193233L-26.69310733070832,-254.5718051959729L-34.162053721984236,-256.1262150184333z" style="fill:rgb(43,180,168)">
    </path>
    <path d="M-53.853691779748395,-245.6524494843082L-51.204602250189176,-234.48770126538673L-46.78452562918654,-241.22417624683663z" style="fill:rgb(167,41,160)">
    </path>
    <path d="M-39.66210758928001,-242.65618655746087L-42.44142683808665,-232.61832860483L-34.236510920022184,-244.77067889362385z" style="fill:rgb(167,41,160)">
    </path>
    <path d="M-46.73197725031176,-250.71849773366543L-39.66210758928001,-242.65618655746087L-34.236510920022184,-244.77067889362385z" style="fill:rgb(167,41,160)">
    </path>
    <path d="M-51.204602250189176,-234.48770126538673L-42.44142683808665,-232.61832860483L-46.78452562918654,-241.22417624683663z" style="fill:rgb(167,41,160)">
    </path>
    <path d="M-46.73197725031176,-250.71849773366543L-53.853691779748395,-245.6524494843082L-46.78452562918654,-241.22417624683663z" style="fill:rgb(167,41,160)">
    </path>
    <path d="M-97.93408566622563,-226.7675427268843L-46.78452562918655,-241.2241762468367" style="fill:none;stroke:rgb(167,41,160);stroke-width:5;stroke-linecap:round">
    </path>
    <path d="M-42.44142683808665,-232.61832860483L-39.66210758928001,-242.65618655746087L-46.78452562918654,-241.22417624683663z" style="fill:rgb(167,41,160)">
    </path>
    <path d="M-39.66210758928001,-242.65618655746087L-46.73197725031176,-250.71849773366543L-46.78452562918654,-241.22417624683663z" style="fill:rgb(167,41,160)">
    </path>
    <path d="M-130.26231844679475,-349.7801320936835L-271.28620778716487,-376.94718859874115" style="fill:none;stroke:rgb(0,0,0);stroke-width:1;stroke-linecap:round">
    </path>
    <path d="M-130.26231844679475,-349.7801320936835L-271.28620778716487,-376.94718859874115" style="fill:none;stroke:rgb(0,0,0);stroke-width:1;stroke-linecap:round">
    </path>
    <path d="M-53.63682747826749,-289.4105081489196L-50.978350230260695,-278.1924903164791L-46.54212691114406,-285.02022488564904z" style="fill:rgb(167,41,160)">
    </path>
    <path d="M-98.95258019978077,521.1224423988506L-97.81267586961145,-315.91988276641257L-130.26231844679475,-349.7801320936835z" style="fill:rgb(0,0,0); fill-opacity: 0.2">
    </path>
    <path d="M-39.393791979492086,-286.5323879942857L-42.18343214244591,-276.3958697647832L-33.95034044119758,-288.41480324671534z" style="fill:rgb(167,41,160)">
    </path>
    <path d="M-46.489202061429154,-294.5825662669689L-39.393791979492086,-286.5323879942857L-33.95034044119758,-288.41480324671534z" style="fill:rgb(167,41,160)">
    </path>
    <path d="M-50.978350230260695,-278.1924903164791L-42.18343214244591,-276.3958697647832L-46.54212691114406,-285.02022488564904z" style="fill:rgb(167,41,160)">
    </path>
    <path d="M-46.489202061429154,-294.5825662669689L-53.63682747826749,-289.4105081489196L-46.54212691114406,-285.02022488564904z" style="fill:rgb(167,41,160)">
    </path>
    <path d="M-97.87360107209356,-271.1819413470679L-46.542126911144116,-285.02022488564916" style="fill:none;stroke:rgb(167,41,160);stroke-width:5;stroke-linecap:round">
    </path>
    <path d="M-42.18343214244591,-276.3958697647832L-39.393791979492086,-286.5323879942857L-46.54212691114406,-285.02022488564904z" style="fill:rgb(167,41,160)">
    </path>
    <path d="M-39.393791979492086,-286.5323879942857L-46.489202061429154,-294.5825662669689L-46.54212691114406,-285.02022488564904z" style="fill:rgb(167,41,160)">
    </path>
    <path d="M-55.25994884672038,-249.10331969654533L-65.91668413141991,-250.21832368718546L-63.61504616457697,-247.90176356381616z" style="fill:rgb(43,180,168)">
    </path>
    <path d="M-65.91668413141991,-250.21832368718546L-73.40562263604927,-248.13368788533964L-63.61504616457697,-247.90176356381616z" style="fill:rgb(43,180,168)">
    </path>
    <path d="M-63.29535589573619,-324.7716199839657L-63.61504616457699,-247.9017635638162" style="fill:none;stroke:rgb(43,180,168);stroke-width:5;stroke-linecap:round">
    </path>
    <path d="M-56.125817890899924,-246.32085845266772L-55.25994884672038,-249.10331969654533L-63.61504616457697,-247.90176356381616z" style="fill:rgb(43,180,168)">
    </path>
    <path d="M-67.3682811467599,-245.71811229232682L-73.40562263604927,-248.13368788533964L-63.69434718938516,-228.8337499734079z" style="fill:rgb(43,180,168)">
    </path>
    <path d="M-53.41840923456464,-333.48211539872807L-50.75047749950414,-322.2103498315455L-46.29798913999825,-329.13048168081934z" style="fill:rgb(167,41,160)">
    </path>
    <path d="M-39.1235480702792,-330.7239138137195L-41.92358598264538,-320.4875745483782L-33.66212461691006,-332.3708651277276z" style="fill:rgb(167,41,160)">
    </path>
    <path d="M-73.40562263604927,-248.13368788533964L-67.3682811467599,-245.71811229232682L-63.61504616457697,-247.90176356381616z" style="fill:rgb(43,180,168)">
    </path>
    <path d="M-56.125817890899924,-246.32085845266772L-67.3682811467599,-245.71811229232682L-63.69434718938516,-228.8337499734079z" style="fill:rgb(43,180,168)">
    </path>
    <path d="M-46.24468375919414,-338.76157655318474L-39.1235480702792,-330.7239138137195L-33.66212461691006,-332.3708651277276z" style="fill:rgb(167,41,160)">
    </path>
    <path d="M-50.75047749950414,-322.2103498315455L-41.92358598264538,-320.4875745483782L-46.29798913999825,-329.13048168081934z" style="fill:rgb(167,41,160)">
    </path>
    <path d="M-46.24468375919414,-338.76157655318474L-53.41840923456464,-333.48211539872807L-46.29798913999825,-329.13048168081934z" style="fill:rgb(167,41,160)">
    </path>
    <path d="M-97.81267586961145,-315.91988276641257L-46.29798913999828,-329.1304816808194" style="fill:none;stroke:rgb(167,41,160);stroke-width:5;stroke-linecap:round">
    </path>
    <path d="M-67.3682811467599,-245.71811229232682L-56.125817890899924,-246.32085845266772L-63.61504616457697,-247.90176356381616z" style="fill:rgb(43,180,168)">
    </path>
    <path d="M-41.92358598264538,-320.4875745483782L-39.1235480702792,-330.7239138137195L-46.29798913999825,-329.13048168081934z" style="fill:rgb(167,41,160)">
    </path>
    <path d="M-39.1235480702792,-330.7239138137195L-46.24468375919414,-338.76157655318474L-46.29798913999825,-329.13048168081934z" style="fill:rgb(167,41,160)">
    </path>
    <path d="M-85.12308393214957,-240.75428338837898L-95.84300649738472,-241.88797313308427L-93.59227586543338,-239.5309241355595z" style="fill:rgb(43,180,168)">
    </path>
    <path d="M-95.84300649738472,-241.88797313308427L-103.46566494824944,-239.76611478131755L-93.59227586543338,-239.5309241355595z" style="fill:rgb(43,180,168)">
    </path>
    <path d="M-93.45936933577416,-317.03625928388703L-93.59227586543338,-239.53092413555956" style="fill:none;stroke:rgb(43,180,168);stroke-width:5;stroke-linecap:round">
    </path>
    <path d="M-86.08322489259403,-237.92282221903565L-85.12308393214957,-240.75428338837898L-93.59227586543338,-239.5309241355595z" style="fill:rgb(43,180,168)">
    </path>
    <path d="M-97.44799865591133,-237.3085245881267L-103.46566494824944,-239.76611478131755L-93.62524180471979,-220.3066152966636z" style="fill:rgb(43,180,168)">
    </path>
    <path d="M-103.46566494824944,-239.76611478131755L-97.44799865591133,-237.3085245881267L-93.59227586543338,-239.5309241355595z" style="fill:rgb(43,180,168)">
    </path>
    <path d="M-86.08322489259403,-237.92282221903565L-97.44799865591133,-237.3085245881267L-93.62524180471979,-220.3066152966636z" style="fill:rgb(43,180,168)">
    </path>
    <path d="M-97.44799865591133,-237.3085245881267L-86.08322489259403,-237.92282221903565L-93.59227586543338,-239.5309241355595z" style="fill:rgb(43,180,168)">
    </path>
    <path d="M-102.42728146975094,-235.91643320581025L-113.18356399578872,-237.06102109404787L-110.96290715653396,-234.68035032482808z" style="fill:rgb(74,87,214)">
    </path>
    <path d="M-113.18356399578872,-237.06102109404787L-120.88424804097643,-234.91744338281708L-110.96290715653396,-234.68035032482808z" style="fill:rgb(74,87,214)">
    </path>
    <path d="M-110.93977516707207,-312.55352542761017L-110.96290715653396,-234.6803503248281" style="fill:none;stroke:rgb(74,87,214);stroke-width:5;stroke-linecap:round">
    </path>
    <path d="M-103.44274835993045,-233.05638277489305L-102.42728146975094,-235.91643320581025L-110.96290715653396,-234.68035032482808z" style="fill:rgb(74,87,214)">
    </path>
    <path d="M-114.87857666352406,-232.435341372715L-120.88424804097643,-234.91744338281708L-110.96864454947371,-215.36558253241856z" style="fill:rgb(74,87,214)">
    </path>
    <path d="M-120.88424804097643,-234.91744338281708L-114.87857666352406,-232.435341372715L-110.96290715653396,-234.68035032482808z" style="fill:rgb(74,87,214)">
    </path>
    <path d="M-103.44274835993045,-233.05638277489305L-114.87857666352406,-232.435341372715L-110.96864454947371,-215.36558253241856z" style="fill:rgb(74,87,214)">
    </path>
    <path d="M-114.87857666352406,-232.435341372715L-103.44274835993045,-233.05638277489305L-110.96290715653396,-234.68035032482808z" style="fill:rgb(74,87,214)">
    </path>
    <path d="M-97.81267586961145,-315.91988276641257L-124.16855464192372,-309.1610928833404" style="fill:none;stroke:rgb(22,31,115);stroke-width:5;stroke-linecap:round">
    </path>
    <path d="M-97.81267586961145,-315.91988276641257L-130.26231844679475,-349.7801320936835" style="fill:none;stroke:rgb(0,0,0);stroke-width:1;stroke-linecap:round">
    </path>
    <path d="M-97.81267586961145,-315.91988276641257L-130.26231844679475,-349.7801320936835" style="fill:none;stroke:rgb(0,0,0);stroke-width:1;stroke-linecap:round">
    </path>
    <path d="M-115.521810284016,-232.255508249476L-126.30548348924779,-233.40837751203773L-124.10786494563366,-231.00975327360618z" style="fill:rgb(43,180,168)">
    </path>
    <path d="M-126.30548348924779,-233.40837751203773L-134.06547561342853,-231.24829068609986L-124.10786494563366,-231.00975327360618z" style="fill:rgb(43,180,168)">
    </path>
    <path d="M-124.16855464192359,-309.1610928833404L-124.10786494563366,-231.0097532736062" style="fill:none;stroke:rgb(43,180,168);stroke-width:5;stroke-linecap:round">
    </path>
    <path d="M-116.57948515457761,-229.37372787799566L-115.521810284016,-232.255508249476L-124.10786494563366,-231.00975327360618z" style="fill:rgb(43,180,168)">
    </path>
    <path d="M-128.06917087152956,-228.7475587720643L-134.06547561342853,-231.24829068609986L-124.09281263025404,-211.62658474490485z" style="fill:rgb(43,180,168)">
    </path>
    <path d="M-134.06547561342853,-231.24829068609986L-128.06917087152956,-228.7475587720643L-124.10786494563366,-231.00975327360618z" style="fill:rgb(43,180,168)">
    </path>
    <path d="M-116.57948515457761,-229.37372787799566L-128.06917087152956,-228.7475587720643L-124.09281263025404,-211.62658474490485z" style="fill:rgb(43,180,168)">
    </path>
    <path d="M-128.06917087152956,-228.7475587720643L-116.57948515457761,-229.37372787799566L-124.10786494563366,-231.00975327360618z" style="fill:rgb(43,180,168)">
    </path>
    <path d="M-97.81267586961145,-315.91988276641257L-124.16855464192372,-309.1610928833404L-130.26231844679475,-349.7801320936835z" style="fill:rgb(0,0,0); fill-opacity: 0.2">
    </path>
    <path d="M-130.26231844679475,-349.7801320936835L-130.26231844679475,-349.7801320936835L-97.81267586961145,-315.91988276641257z" style="fill:rgb(0,0,0); fill-opacity: 0.2">
    </path>
    <path d="M-124.16855464192372,-309.1610928833404L-130.26231844679475,-349.7801320936835" style="fill:none;stroke:rgb(0,0,0);stroke-width:1;stroke-linecap:round">
    </path>
    <path d="M-124.16855464192372,-309.1610928833404L-130.26231844679475,-349.7801320936835" style="fill:none;stroke:rgb(0,0,0);stroke-width:1;stroke-linecap:round">
    </path>
    <path d="M-130.26231844679475,-349.7801320936835L-130.26231844679475,-349.7801320936835" style="fill:none;stroke:rgb(0,0,0);stroke-width:1;stroke-linecap:round">
    </path>
</svg>