<svg viewBox="-812 -675 1624 1350" width="1624" height="1350" style="background-color: rgb(255, 255, 255);">
    <path d="M58.14473521957955,332.50562585415435L69.78305394172797,-454.34873168920853" style="fill:none;stroke:rgb(0,0,0);stroke-width:1;stroke-linecap:round">
    </path>
    <path d="M185.5976932068577,373.69809295425983L58.14473521957955,332.50562585415435" style="fill:none;stroke:rgb(160,0,0);stroke-width:4;stroke-linecap:round">
    </path>
    <path d="M206.3798944469539,-431.97587954098196L185.5976932068577,373.69809295425983" style="fill:none;stroke:rgb(104,70,1);stroke-width:5;stroke-linecap:round">
    </path>
    <path d="M185.5976932068577,373.69809295425983L240.6619948877913,391.4947331515674" style="fill:none;stroke:rgb(197,147,42);stroke-width:5;stroke-linecap:round">
    </path>
    <path d="M186.52610979577375,337.7057034724723L241.7726649487582,355.16627474277993" style="fill:none;stroke:rgb(197,147,42);stroke-width:5;stroke-linecap:round">
    </path>
    <path d="M187.4602867857157,301.48999764781246L242.89030144285354,318.60995408663763" style="fill:none;stroke:rgb(197,147,42);stroke-width:5;stroke-linecap:round">
    </path>
    <path d="M188.40027795450442,265.048890648652L244.0149701194006,281.82362061508155" style="fill:none;stroke:rgb(197,147,42);stroke-width:5;stroke-linecap:round">
    </path>
    <path d="M245.55160938000947,386.5672580631402L240.9043619942478,383.5672453619889L254.61526559849395,396.0043942356739z" style="fill:rgb(197,147,42)">
    </path>
    <path d="M189.3461377514605,228.3802716109865L245.14673755772486,244.80509661184303" style="fill:none;stroke:rgb(197,147,42);stroke-width:5;stroke-linecap:round">
    </path>
    <path d="M235.90692167833575,391.5328748521895L237.48490228564344,399.4436931859738L254.61526559849395,396.0043942356739z" style="fill:rgb(197,147,42)">
    </path>
    <path d="M240.9043619942478,383.5672453619889L235.90692167833575,391.5328748521895L254.61526559849395,396.0043942356739z" style="fill:rgb(197,147,42)">
    </path>
    <path d="M246.67602881937893,350.2730126265578L242.01655038588694,347.1891244885213L255.77270738620572,359.5909621841865z" style="fill:rgb(197,147,42)">
    </path>
    <path d="M206.3798944469539,-431.97587954098196L185.5976932068577,373.69809295425983L58.14473521957955,332.50562585415435z" style="fill:rgb(0,0,0); fill-opacity: 0.2">
    </path>
    <path d="M190.2979213079185,191.48200323084535L246.28567118029287,207.55217678269824" style="fill:none;stroke:rgb(197,147,42);stroke-width:5;stroke-linecap:round">
    </path>
    <path d="M237.00469053613153,355.13939988268163L238.5861046734118,363.12475020358403L255.77270738620572,359.5909621841865z" style="fill:rgb(197,147,42)">
    </path>
    <path d="M242.01655038588694,347.1891244885213L237.00469053613153,355.13939988268163L255.77270738620572,359.5909621841865z" style="fill:rgb(197,147,42)">
    </path>
    <path d="M247.8074912731114,313.7514313018243L243.13571952305378,310.58267322921L256.93742884076244,322.94850984258244z" style="fill:rgb(197,147,42)">
    </path>
    <path d="M191.2556844479385,154.35192134901826L247.43183926610112,170.06262781753267" style="fill:none;stroke:rgb(197,147,42);stroke-width:5;stroke-linecap:round">
    </path>
    <path d="M238.1093572914428,318.5172442954027L239.69421703730578,326.5779081249858L256.93742884076244,322.94850984258244z" style="fill:rgb(197,147,42)">
    </path>
    <path d="M243.13571952305378,310.58267322921L238.1093572914428,318.5172442954027L256.93742884076244,322.94850984258244z" style="fill:rgb(197,147,42)">
    </path>
    <path d="M248.9460631219849,277.0003714363223L244.2619353355244,273.7457351136374L258.10949885641725,286.07486977899885z" style="fill:rgb(197,147,42)">
    </path>
    <path d="M192.2194836992204,116.98783452793074L248.5853109643208,132.33418794403332" style="fill:none;stroke:rgb(197,147,42);stroke-width:5;stroke-linecap:round">
    </path>
    <path d="M239.22098716421536,281.6642459043427L240.8093046215292,289.8010151200119L258.10949885641725,286.07486977899885z" style="fill:rgb(197,147,42)">
    </path>
    <path d="M244.2619353355244,273.7457351136374L239.22098716421536,281.6642459043427L258.10949885641725,286.07486977899885z" style="fill:rgb(197,147,42)">
    </path>
    <path d="M250.09181158359664,240.01766336642413L245.39526458593028,236.6761264298603L259.2889871995218,248.96784712512445z" style="fill:rgb(197,147,42)">
    </path>
    <path d="M193.1893763042259,79.38752362049499L249.74615630820475,94.36456647282358" style="fill:none;stroke:rgb(197,147,42);stroke-width:5;stroke-linecap:round">
    </path>
    <path d="M240.33964619920474,244.57821517921718L241.93143349426282,252.79189218276946L259.2889871995218,248.96784712512445z" style="fill:rgb(197,147,42)">
    </path>
    <path d="M245.39526458593028,236.6761264298603L240.33964619920474,244.57821517921718L259.2889871995218,248.96784712512445z" style="fill:rgb(197,147,42)">
    </path>
    <path d="M251.24480472559014,202.80110999050802L246.5357748829509,199.37163579288773L260.4759645223691,211.6252191406907z" style="fill:rgb(197,147,42)">
    </path>
    <path d="M69.78305394172797,-454.34873168920853L58.14473521957955,332.50562585415435L206.3798944469539,-431.97587954098196z" style="fill:rgb(0,0,0); fill-opacity: 0.2">
    </path>
    <path d="M194.1654202315109,41.54874133075592L250.9144462292612,56.151443333844604" style="fill:none;stroke:rgb(197,147,42);stroke-width:5;stroke-linecap:round">
    </path>
    <path d="M241.46540127905655,207.25693481183148L243.06067056071333,215.5483327012746L260.4759645223691,211.6252191406907z" style="fill:rgb(197,147,42)">
    </path>
    <path d="M246.5357748829509,199.37163579288773L241.46540127905655,207.25693481183148L260.4759645223691,211.6252191406907z" style="fill:rgb(197,147,42)">
    </path>
    <path d="M252.4051114791364,165.34848633385053L247.6835346947585,161.83002370492983L261.67050237730126,174.04473476964117z" style="fill:rgb(197,147,42)">
    </path>
    <path d="M195.14767418727516,3.46921176615245L252.09025257170225,17.69246860378996" style="fill:none;stroke:rgb(197,147,42);stroke-width:5;stroke-linecap:round">
    </path>
    <path d="M242.59832013763594,169.69815927416653L244.19708357641082,178.0681020188818L261.67050237730126,174.04473476964117z" style="fill:rgb(197,147,42)">
    </path>
    <path d="M247.6835346947585,161.83002370492983L242.59832013763594,169.69815927416653L261.67050237730126,174.04473476964117z" style="fill:rgb(197,147,42)">
    </path>
    <path d="M253.57280165267056,127.65753910521114L248.83861336271963,124.04902210723498L262.8726732310875,136.22411418779217z" style="fill:rgb(197,147,42)">
    </path>
    <path d="M196.1361976271329,-34.8533700187953L253.27364810717054,-21.014737975610856" style="fill:none;stroke:rgb(197,147,42);stroke-width:5;stroke-linecap:round">
    </path>
    <path d="M243.73847137361292,131.8996143680017L245.34074116076062,140.34893698732645L262.8726732310875,136.22411418779217z" style="fill:rgb(197,147,42)">
    </path>
    <path d="M248.83861336271963,124.04902210723498L243.73847137361292,131.8996143680017L262.8726732310875,136.22411418779217z" style="fill:rgb(197,147,42)">
    </path>
    <path d="M254.74794594589184,89.72598624492602L250.0010811153599,86.02633392332545L264.08255047957886,98.16104834179563z" style="fill:rgb(197,147,42)">
    </path>
    <path d="M197.13105076810905,-73.4213384875643L254.46470654975337,-59.972587488666655" style="fill:none;stroke:rgb(197,147,42);stroke-width:5;stroke-linecap:round">
    </path>
    <path d="M244.8859244643088,93.85899676588407L246.49171281085555,102.38854551119151L264.08255047957886,98.16104834179563z" style="fill:rgb(197,147,42)">
    </path>
    <path d="M250.0010811153599,86.02633392332545L244.8859244643088,93.85899676588407L264.08255047957886,98.16104834179563z" style="fill:rgb(197,147,42)">
    </path>
    <path d="M206.3798944469539,-431.97587954098196L69.78305394172797,-454.34873168920853" style="fill:none;stroke:rgb(0,0,0);stroke-width:1;stroke-linecap:round">
    </path>
    <path d="M69.78305394172797,-454.34873168920853L-271.28620778716487,-376.94718859874115" style="fill:none;stroke:rgb(0,0,0);stroke-width:1;stroke-linecap:round">
    </path>
    <path d="M206.3798944469539,-431.97587954098196L69.78305394172797,-454.34873168920853" style="fill:none;stroke:rgb(0,0,0);stroke-width:1;stroke-linecap:round">
    </path>
    <path d="M255.93061596403396,51.55151646431956L251.17100908259755,47.75963259343942L265.30020846264546,59.85319847920565z" style="fill:rgb(197,147,42)">
    </path>
    <path d="M198.1322946008674,-112.23705809566925L255.66350257128894,-99.18352234636919" style="fill:none;stroke:rgb(197,147,42);stroke-width:5;stroke-linecap:round">
    </path>
    <path d="M246.0407497798086,55.57397354325066L247.65006891555316,64.18460608360641L265.30020846264546,59.85319847920565z" style="fill:rgb(197,147,42)">
    </path>
    <path d="M251.17100908259755,47.75963259343942L246.0407497798086,55.57397354325066L265.30020846264546,59.85319847920565z" style="fill:rgb(197,147,42)">
    </path>
    <path d="M257.1208842324084,13.13178877623817L252.34846931025152,9.246561599980955L266.5257224794033,21.298195669450433z" style="fill:rgb(197,147,42)">
    </path>
    <path d="M199.1399909021746,-151.30292377386877L256.87011181697164,-138.65001679682746" style="fill:none;stroke:rgb(197,147,42);stroke-width:5;stroke-linecap:round">
    </path>
    <path d="M247.2030185973475,17.042181701503022L248.81588076982578,25.734767312980765L266.5257224794033,21.298195669450433z" style="fill:rgb(197,147,42)">
    </path>
    <path d="M252.34846931025152,9.246561599980955L247.2030185973475,17.042181701503022L266.5257224794033,21.298195669450433z" style="fill:rgb(197,147,42)">
    </path>
    <path d="M258.3188242112308,-25.53556798349336L253.53353477483145,-29.515266016225546L267.75916880373563,-17.506359684497987z" style="fill:rgb(197,147,42)">
    </path>
    <path d="M200.15420224760604,-190.62136142074263L258.08461092126373,-178.37457744571375" style="fill:none;stroke:rgb(197,147,42);stroke-width:5;stroke-linecap:round">
    </path>
    <path d="M248.37280311597561,-21.738772318170028L249.98922058938805,-12.963352559430268L267.75916880373563,-17.506359684497987z" style="fill:rgb(197,147,42)">
    </path>
    <path d="M253.53353477483145,-29.515266016225546L248.37280311597561,-21.738772318170028L267.75916880373563,-17.506359684497987z" style="fill:rgb(197,147,42)">
    </path>
    <path d="M201.1749920244993,-230.1948284048549L259.3070775241201,-218.3597437869539" style="fill:none;stroke:rgb(197,147,42);stroke-width:5;stroke-linecap:round">
    </path>
    <path d="M249.55017647150825,-60.77131313043177L251.17016152560825,-51.9121661513361L269.00062470011835,-56.56289834396706z" style="fill:rgb(197,147,42)">
    </path>
    <path d="M254.7262793986145,-68.52826814908458L249.55017647150825,-60.77131313043177L269.00062470011835,-56.56289834396706z" style="fill:rgb(197,147,42)">
    </path>
    <path d="M202.20242444515998,-270.02581407672005L260.5375902875334,-258.6080887438954" style="fill:none;stroke:rgb(197,147,42);stroke-width:5;stroke-linecap:round">
    </path>
    <path d="M250.73521275176878,-100.05789691111396L252.35877768071174,-91.11411744081077L270.25016843975305,-95.87388274215672z" style="fill:rgb(197,147,42)">
    </path>
    <path d="M255.92677806501644,-107.79489412999725L250.73521275176878,-100.05789691111396L270.25016843975305,-95.87388274215672z" style="fill:rgb(197,147,42)">
    </path>
    <path d="M203.23656456032649,-310.1168402907963L261.7762289124073,-299.1222192211974" style="fill:none;stroke:rgb(197,147,42);stroke-width:5;stroke-linecap:round">
    </path>
    <path d="M251.92798701212885,-139.60101191243356L253.5551441232803,-130.57168227749992L271.50787931701757,-135.4418075016661z" style="fill:rgb(197,147,42)">
    </path>
    <path d="M257.13510663426354,-147.31762524046542L251.92798701212885,-139.60101191243356L271.50787931701757,-135.4418075016661z" style="fill:rgb(197,147,42)">
    </path>
    <path d="M204.2774782728994,-350.4704619377359L263.02307415576416,-339.9047766676892" style="fill:none;stroke:rgb(197,147,42);stroke-width:5;stroke-linecap:round">
    </path>
    <path d="M253.1285752913551,-179.40317898833294L254.75933690405628,-170.28736890386165L272.77383766623984,-175.26919996219976z" style="fill:rgb(197,147,42)">
    </path>
    <path d="M258.3513419593723,-187.09897523476022L253.1285752913551,-179.40317898833294L272.77383766623984,-175.26919996219976z" style="fill:rgb(197,147,42)">
    </path>
    <path d="M205.32523235194142,-391.08926748712895L264.278207848297,-380.9584376504549" style="fill:none;stroke:rgb(197,147,42);stroke-width:5;stroke-linecap:round">
    </path>
    <path d="M254.33705462776823,-219.46695213018072L255.97143307205866,-210.26371848666872L274.0481248788023,-215.3586207186909z" style="fill:rgb(197,147,42)">
    </path>
    <path d="M259.57556190244327,-227.14149087288226L254.33705462776823,-219.46695213018072L274.0481248788023,-215.3586207186909z" style="fill:rgb(197,147,42)">
    </path>
    <path d="M206.3798944469539,-431.97587954098157L265.5417129122718,-422.2859144404043" style="fill:none;stroke:rgb(197,147,42);stroke-width:5;stroke-linecap:round">
    </path>
    <path d="M-130.26231844679475,-349.7801320936835L206.3798944469539,-431.97587954098196" style="fill:none;stroke:rgb(45,114,23);stroke-width:5;stroke-linecap:round">
    </path>
    <path d="M206.3798944469539,-431.97587954098196L265.5417129122718,-422.2859144404047" style="fill:none;stroke:rgb(109,213,75);stroke-width:5;stroke-linecap:round">
    </path>
    <path d="M255.55350307572073,-259.7949190130689L257.191510691016,-250.50330565901277L275.3308234205857,-255.71266417007953z" style="fill:rgb(197,147,42)">
    </path>
    <path d="M260.80784535127765,-267.4477524640558L255.55350307572073,-259.7949190130689L275.3308234205857,-255.71266417007953z" style="fill:rgb(197,147,42)">
    </path>
    <path d="M-271.28620778716487,-376.94718859874115L-260.4257574103468,481.75091050423856" style="fill:none;stroke:rgb(0,0,0);stroke-width:1;stroke-linecap:round">
    </path>
    <path d="M-129.14596589552997,531.3321833718398L-260.4257574103468,481.75091050423856" style="fill:none;stroke:rgb(160,0,0);stroke-width:4;stroke-linecap:round">
    </path>
    <path d="M256.77799972240297,-300.3897015529549L258.41964885612606,-291.0087390730482L276.6220168497594,-296.333959078995z" style="fill:rgb(197,147,42)">
    </path>
    <path d="M262.0482722363228,-308.0203744209954L256.77799972240297,-300.3897015529549L276.6220168497594,-296.333959078995z" style="fill:rgb(197,147,42)">
    </path>
    <path d="M259.6559277111488,-331.7826619637295L265.9412102385936,-333.5509515459302L277.9217898349255,-337.2251691425938z" style="fill:rgb(197,147,42)">
    </path>
    <path d="M258.0106247049837,-341.25395647489614L259.6559277111488,-331.7826619637295L277.9217898349255,-337.2251691425938z" style="fill:rgb(197,147,42)">
    </path>
    <path d="M263.2969235479547,-348.8620058251991L258.0106247049837,-341.25395647489614L277.9217898349255,-337.2251691425938z" style="fill:rgb(197,147,42)">
    </path>
    <path d="M180.86732963215897,-425.74664192926394L240.22335460371932,-415.90303746739346" style="fill:none;stroke:rgb(109,213,75);stroke-width:5;stroke-linecap:round">
    </path>
    <path d="M260.9004284658396,-372.82775272379564L267.2039906825719,-374.51690998565095L279.2302281736275,-378.38899357481563z" style="fill:rgb(197,147,42)">
    </path>
    <path d="M259.2514592280915,-382.39037589264143L260.9004284658396,-372.82775272379564L279.2302281736275,-378.38899357481563z" style="fill:rgb(197,147,42)">
    </path>
    <path d="M264.5538813541059,-389.9753310035225L259.2514592280915,-382.39037589264143L279.2302281736275,-378.38899357481563z" style="fill:rgb(197,147,42)">
    </path>
    <path d="M262.1532334137323,-414.14672549026375L268.4751797869993,-415.755654431947L280.5474188112281,-419.8281677003231z" style="fill:rgb(197,147,42)">
    </path>
    <path d="M262.1532334137323,-414.1467254902641L268.4751797869993,-415.75565443194733L280.5474188112281,-419.8281677003234z" style="fill:rgb(109,213,75)">
    </path>
    <path d="M260.5005855816495,-423.8016878998385L262.1532334137323,-414.14672549026375L280.5474188112281,-419.8281677003231z" style="fill:rgb(197,147,42)">
    </path>
    <path d="M260.5005855816495,-423.8016878998389L262.1532334137323,-414.1467254902641L280.5474188112281,-419.8281677003234z" style="fill:rgb(109,213,75)">
    </path>
    <path d="M265.81922881824573,-431.3630701162979L260.5005855816495,-423.8016878998385L280.5474188112281,-419.8281677003231z" style="fill:rgb(197,147,42)">
    </path>
    <path d="M265.81922881824573,-431.36307011629805L260.5005855816495,-423.8016878998389L280.5474188112281,-419.8281677003234z" style="fill:rgb(109,213,75)">
    </path>
    <path d="M154.93113008800256,-419.4139681711246L214.47962385004172,-409.41292210428384" style="fill:none;stroke:rgb(109,213,75);stroke-width:5;stroke-linecap:round">
    </path>
    <path d="M236.79513062341087,-407.6931140426803L243.22278254959804,-409.32894494039857L255.28012303609808,-413.40602266572284z" style="fill:rgb(109,213,75)">
    </path>
    <path d="M235.09131827880145,-417.4191514171028L236.79513062341087,-407.6931140426803L255.28012303609808,-413.40602266572284z" style="fill:rgb(109,213,75)">
    </path>
    <path d="M240.48454676853805,-425.0511674529296L235.09131827880145,-417.4191514171028L255.28012303609808,-413.40602266572284z" style="fill:rgb(109,213,75)">
    </path>
    <path d="M128.56065582938473,-412.9752603703565L188.2997098442358,-402.81284289588496" style="fill:none;stroke:rgb(109,213,75);stroke-width:5;stroke-linecap:round">
    </path>
    <path d="M-130.26231844679475,-349.7801320936835L206.3798944469539,-431.97587954098196L69.78305394172797,-454.34873168920853z" style="fill:rgb(0,0,0); fill-opacity: 0.2">
    </path>
    <path d="M211.0107924354186,-401.13102611858244L217.5468234115244,-402.79443937461116L229.58705626842635,-406.8756601515011z" style="fill:rgb(109,213,75)">
    </path>
    <path d="M-129.14596589553,531.3321833718395L-72.22229922630684,552.8309061926523" style="fill:none;stroke:rgb(43,180,168);stroke-width:5;stroke-linecap:round">
    </path>
    <path d="M-129.14596589552997,531.3321833718398L-130.26231844679475,-349.7801320936835" style="fill:none;stroke:rgb(1,93,85);stroke-width:5;stroke-linecap:round">
    </path>
    <path d="M209.25432085799747,-410.9291736984555L211.0107924354186,-401.13102611858244L229.58705626842635,-406.8756601515011z" style="fill:rgb(109,213,75)">
    </path>
    <path d="M214.7239020593214,-418.6331401166809L209.25432085799747,-410.9291736984555L229.58705626842635,-406.8756601515011z" style="fill:rgb(109,213,75)">
    </path>
    <path d="M-129.19550450846393,492.23245461883647L-72.07623495381708,513.3361508967437" style="fill:none;stroke:rgb(43,180,168);stroke-width:5;stroke-linecap:round">
    </path>
    <path d="M101.74490755200075,-406.4278328981105L161.67243230820034,-396.09998124160745" style="fill:none;stroke:rgb(109,213,75);stroke-width:5;stroke-linecap:round">
    </path>
    <path d="M-260.4257574103468,481.75091050423856L-271.28620778716487,-376.94718859874115L-129.14596589552997,531.3321833718398z" style="fill:rgb(0,0,0); fill-opacity: 0.2">
    </path>
    <path d="M-129.24538171271985,452.8654832430713L-71.92916032743187,473.5682029906022" style="fill:none;stroke:rgb(43,180,168);stroke-width:5;stroke-linecap:round">
    </path>
    <path d="M184.78938110535645,-394.4577035230103L191.43655555159512,-396.1494026794908L203.4573652730295,-400.2343216095703z" style="fill:rgb(109,213,75)">
    </path>
    <path d="M182.97870126924943,-404.3290187773067L184.78938110535645,-394.4577035230103L203.4573652730295,-400.2343216095703z" style="fill:rgb(109,213,75)">
    </path>
    <path d="M188.52646077915097,-412.10628893831154L182.97870126924943,-404.3290187773067L203.4573652730295,-400.2343216095703z" style="fill:rgb(109,213,75)">
    </path>
    <path d="M-129.29560099155694,413.2285199853504L-71.78106482755787,433.5242180499379" style="fill:none;stroke:rgb(43,180,168);stroke-width:5;stroke-linecap:round">
    </path>
    <path d="M74.47251133513778,-399.7689086578774L134.58622557287055,-389.2714213819914" style="fill:none;stroke:rgb(109,213,75);stroke-width:5;stroke-linecap:round">
    </path>
    <path d="M-66.36489504420062,547.1590656010513L-72.19043347203669,544.2146296332513L-57.77804656163503,558.2861588592809z" style="fill:rgb(43,180,168)">
    </path>
    <path d="M-129.3461658761774,373.3187777460368L-71.6319377880561,393.2013120255384" style="fill:none;stroke:rgb(43,180,168);stroke-width:5;stroke-linecap:round">
    </path>
    <path d="M-78.08034103858711,553.1908228875866L-75.86918249315586,561.6668112569262L-57.77804656163503,558.2861588592809z" style="fill:rgb(43,180,168)">
    </path>
    <path d="M-72.19043347203669,544.2146296332513L-78.08034103858711,553.1908228875866L-57.77804656163503,558.2861588592809z" style="fill:rgb(43,180,168)">
    </path>
    <path d="M-66.19889241142997,507.7042268852664L-72.0441490761772,504.6603545213435L-57.58160845009851,518.6914398873275z" style="fill:rgb(43,180,168)">
    </path>
    <path d="M158.11968832450125,-387.67029375275877L164.88086548269686,-389.391006483836L176.87982477695633,-393.47915393164436z" style="fill:rgb(109,213,75)">
    </path>
    <path d="M-129.39707994655433,333.1334309317646L-71.48176839368105,352.59656055085196" style="fill:none;stroke:rgb(43,180,168);stroke-width:5;stroke-linecap:round">
    </path>
    <path d="M-77.9542186612315,513.619227289368L-75.73562566151608,522.1841306179315L-57.58160845009851,518.6914398873275z" style="fill:rgb(43,180,168)">
    </path>
    <path d="M-72.0441490761772,504.6603545213435L-77.9542186612315,513.619227289368L-57.58160845009851,518.6914398873275z" style="fill:rgb(43,180,168)">
    </path>
    <path d="M156.25319447848983,-397.61585699745035L158.11968832450125,-387.67029375275877L176.87982477695633,-393.47915393164436z" style="fill:rgb(109,213,75)">
    </path>
    <path d="M161.8810184763177,-405.4678224318875L156.25319447848983,-397.61585699745035L176.87982477695633,-393.47915393164436z" style="fill:rgb(109,213,75)">
    </path>
    <path d="M-66.03174324141116,467.97688380342737L-71.89685203765536,464.8322679326825L-57.383807437175676,478.82200997993033z" style="fill:rgb(43,180,168)">
    </path>
    <path d="M-129.44834683227648,292.6696147885701L-71.33054567746618,311.70699823499933" style="fill:none;stroke:rgb(43,180,168);stroke-width:5;stroke-linecap:round">
    </path>
    <path d="M-77.82722214101621,473.77336451935435L-75.60114456053857,482.42821325539217L-57.383807437175676,478.82200997993033z" style="fill:rgb(43,180,168)">
    </path>
    <path d="M-71.89685203765536,464.8322679326825L-77.82722214101621,473.77336451935435L-57.383807437175676,478.82200997993033z" style="fill:rgb(43,180,168)">
    </path>
    <path d="M46.73170255626883,-392.9956151580173L107.02912182804516,-382.32414617590854" style="fill:none;stroke:rgb(109,213,75);stroke-width:5;stroke-linecap:round">
    </path>
    <path d="M-271.28620778716487,-376.94718859874115L69.78305394172797,-454.34873168920853L-130.26231844679475,-349.7801320936835z" style="fill:rgb(0,0,0); fill-opacity: 0.2">
    </path>
    <path d="M-65.86343561472776,427.97420339651694L-71.74853180503717,424.7275168334667L-57.18462928963296,438.6750002391954z" style="fill:rgb(43,180,168)">
    </path>
    <path d="M-129.49997021341096,251.92442472111375L-71.17825851805388,270.52961794085854" style="fill:none;stroke:rgb(43,180,168);stroke-width:5;stroke-linecap:round">
    </path>
    <path d="M-77.69934235842965,433.6503732801793L-75.4657295624115,442.3962129515637L-57.18462928963296,438.6750002391954z" style="fill:rgb(43,180,168)">
    </path>
    <path d="M-71.74853180503717,424.7275168334667L-77.69934235842965,433.6503732801793L-57.18462928963296,438.6750002391954z" style="fill:rgb(43,180,168)">
    </path>
    <path d="M130.99011924532948,-380.76584593089L137.86825727961815,-382.5163250863374L149.84282139035236,-386.6072053624325z" style="fill:rgb(109,213,75)">
    </path>
    <path d="M129.06614636426914,-390.786760968087L130.99011924532948,-380.76584593089L149.84282139035236,-386.6072053624325z" style="fill:rgb(109,213,75)">
    </path>
    <path d="M134.77598418075567,-398.7148528139866L129.06614636426914,-390.786760968087L149.84282139035236,-386.6072053624325z" style="fill:rgb(109,213,75)">
    </path>
    <path d="M-65.69395744616948,387.69331330032554L-71.59917767978712,384.34320841473203L-56.984059575354536,398.2475016798699z" style="fill:rgb(43,180,168)">
    </path>
    <path d="M-129.55195382138373,210.8949155976486L-71.02489563696916,229.06137004784924" style="fill:none;stroke:rgb(43,180,168);stroke-width:5;stroke-linecap:round">
    </path>
    <path d="M-77.57057006666484,393.24735233486956L-75.32937090513717,402.08524382013513L-56.984059575354536,398.2475016798699z" style="fill:rgb(43,180,168)">
    </path>
    <path d="M-71.59917767978712,384.34320841473203L-77.57057006666484,393.24735233486956L-56.984059575354536,398.2475016798699z" style="fill:rgb(43,180,168)">
    </path>
    <path d="M18.510308969650083,-386.10498038017187L78.98873349094275,-375.25503265559297" style="fill:none;stroke:rgb(109,213,75);stroke-width:5;stroke-linecap:round">
    </path>
    <path d="M-65.52329648183964,347.1313010579252L-71.4487788136962,343.6764093967792L-56.782083659856454,357.53656452670816z" style="fill:rgb(43,180,168)">
    </path>
    <path d="M-129.60430143987855,169.57810104038958L-70.87044559583504,187.2991616990406" style="fill:none;stroke:rgb(43,180,168);stroke-width:5;stroke-linecap:round">
    </path>
    <path d="M-77.44089588939079,352.5613598075291L-75.19205869018661,361.4923796127224L-56.782083659856454,357.53656452670816z" style="fill:rgb(43,180,168)">
    </path>
    <path d="M-71.4487788136962,343.6764093967792L-77.44089588939079,352.5613598075291L-56.782083659856454,357.53656452670816z" style="fill:rgb(43,180,168)">
    </path>
    <path d="M-65.35144029620159,306.2852134176982L-71.29732420625476,302.72414531895123L-56.578686702727175,316.5391974970065z" style="fill:rgb(43,180,168)">
    </path>
    <path d="M103.38867567349145,-373.74130652910793L110.3868359856886,-375.522331232583L122.33433668614256,-379.6154211990314z" style="fill:rgb(109,213,75)">
    </path>
    <path d="M-129.65701690575546,127.970952700922L-70.71489679352892,145.23985603218983" style="fill:none;stroke:rgb(43,180,168);stroke-width:5;stroke-linecap:round">
    </path>
    <path d="M-77.31031031847631,311.58941246927964L-75.05378288010382,320.6146530107612L-56.578686702727175,316.5391974970065z" style="fill:rgb(43,180,168)">
    </path>
    <path d="M-71.29732420625476,302.72414531895123L-77.31031031847631,311.58941246927964L-56.578686702727175,316.5391974970065z" style="fill:rgb(43,180,168)">
    </path>
    <path d="M101.40549677288986,-383.8387013074541L103.38867567349145,-373.74130652910793L122.33433668614256,-379.6154211990314z" style="fill:rgb(109,213,75)">
    </path>
    <path d="M107.19936359196605,-391.8443918151248L101.40549677288986,-383.8387013074541L122.33433668614256,-379.6154211990314z" style="fill:rgb(109,213,75)">
    </path>
    <path d="M-65.17837628906304,265.1520556165639L-71.14480270197086,261.48339981440205L-56.3738536539926,275.2523670679408z" style="fill:rgb(43,180,168)">
    </path>
    <path d="M-129.71010410998764,86.07039952028157L-70.55823746327754,102.88027139431162" style="fill:none;stroke:rgb(43,180,168);stroke-width:5;stroke-linecap:round">
    </path>
    <path d="M-77.17880371166636,270.3284850090916L-74.91453329606028,279.4490549024404L-56.3738536539926,275.2523670679408z" style="fill:rgb(43,180,168)">
    </path>
    <path d="M-71.14480270197086,261.48339981440205L-77.17880371166636,270.3284850090916L-56.3738536539926,275.2523670679408z" style="fill:rgb(43,180,168)">
    </path>
    <path d="M-10.204267102210668,-379.09392843106923L50.45223463891289,-368.0608473457399" style="fill:none;stroke:rgb(109,213,75);stroke-width:5;stroke-linecap:round">
    </path>
    <path d="M-129.14596589552997,531.3321833718398L-130.26231844679475,-349.7801320936835L-271.28620778716487,-376.94718859874115z" style="fill:rgb(0,0,0); fill-opacity: 0.2">
    </path>
    <path d="M-65.00409168249637,223.72879064804118L-70.99120298763083,219.95111386948574L-56.167569250403915,233.6729967283301z" style="fill:rgb(43,180,168)">
    </path>
    <path d="M-129.76356699861927,43.873326973325874L-70.4004556696899,60.21718053936456" style="fill:none;stroke:rgb(43,180,168);stroke-width:5;stroke-linecap:round">
    </path>
    <path d="M-77.04636629020848,228.77550928913158L-74.77429961535684,237.9925336443045L-56.167569250403915,233.6729967283301z" style="fill:rgb(43,180,168)">
    </path>
    <path d="M-70.99120298763083,219.95111386948574L-77.04636629020848,228.77550928913158L-56.167569250403915,233.6729967283301z" style="fill:rgb(43,180,168)">
    </path>
    <path d="M75.30293837504662,-366.5935148649675L82.42429014790483,-368.40589167026747L94.34192938674006,-372.5006392633515z" style="fill:rgb(109,213,75)">
    </path>
    <path d="M73.25876168021436,-376.76854216206345L75.30293837504662,-366.5935148649675L94.34192938674006,-372.5006392633515z" style="fill:rgb(109,213,75)">
    </path>
    <path d="M-130.26231844679475,-349.7801320936835L-271.28620778716487,-376.94718859874115" style="fill:none;stroke:rgb(0,0,0);stroke-width:1;stroke-linecap:round">
    </path>
    <path d="M-130.26231844679475,-349.7801320936835L-271.28620778716487,-376.94718859874115" style="fill:none;stroke:rgb(0,0,0);stroke-width:1;stroke-linecap:round">
    </path>
    <path d="M79.13874138172685,-384.8533462706384L73.25876168021436,-376.76854216206345L94.34192938674006,-372.5006392633515z" style="fill:rgb(109,213,75)">
    </path>
    <path d="M-64.82857351769384,182.01233851476817L-70.83651358950226,178.12418506738172L-55.959818011646306,191.79796621443938z" style="fill:rgb(43,180,168)">
    </path>
    <path d="M-129.81740957374308,1.3765762970059983L-70.24153930572615,17.247309808629392" style="fill:none;stroke:rgb(43,180,168);stroke-width:5;stroke-linecap:round">
    </path>
    <path d="M-76.91298813642894,186.9273735842418L-74.63307136887308,196.24199430714606L-55.959818011646306,191.79796621443938z" style="fill:rgb(43,180,168)">
    </path>
    <path d="M-70.83651358950226,178.12418506738172L-76.91298813642894,186.9273735842418L-55.959818011646306,191.79796621443938z" style="fill:rgb(43,180,168)">
    </path>
    <path d="M-39.42506751895325,-371.9592749643617L21.406341447835075,-360.738241331935" style="fill:none;stroke:rgb(109,213,75);stroke-width:5;stroke-linecap:round">
    </path>
    <path d="M-64.65180865175545,139.9995754650946L-70.6807228704767,135.9994668155665L-55.75058423646634,149.624110729421z" style="fill:rgb(43,180,168)">
    </path>
    <path d="M-129.8716358944991,-41.42305629786144L-70.08147608960056,-26.032661706656583" style="fill:none;stroke:rgb(43,180,168);stroke-width:5;stroke-linecap:round">
    </path>
    <path d="M-76.77865919125689,144.78092180515517L-74.49083793846181,154.19429790579633L-55.75058423646634,149.624110729421z" style="fill:rgb(43,180,168)">
    </path>
    <path d="M-70.6807228704767,135.9994668155665L-76.77865919125689,144.78092180515517L-55.75058423646634,149.624110729421z" style="fill:rgb(43,180,168)">
    </path>
    <path d="M-64.47378375440847,97.6873332133485L-70.52381902715163,93.57376755672492L-55.53985199871635,107.1482201459866z" style="fill:rgb(43,180,168)">
    </path>
    <path d="M46.720048444146826,-359.3191983599691L53.96787342666822,-361.1637624688872L65.85271660231065,-365.25958513347945z" style="fill:rgb(109,213,75)">
    </path>
    <path d="M-129.92625007809457,-84.5288204317374L-69.92025356161737,-69.62610302086121" style="fill:none;stroke:rgb(43,180,168);stroke-width:5;stroke-linecap:round">
    </path>
    <path d="M-76.64336925169567,102.33295270503884L-74.34758855428798,111.84626061241073L-55.53985199871635,107.1482201459866z" style="fill:rgb(43,180,168)">
    </path>
    <path d="M-70.52381902715163,93.57376755672492L-76.64336925169567,102.33295270503884L-55.53985199871635,107.1482201459866z" style="fill:rgb(43,180,168)">
    </path>
    <path d="M44.61301440471596,-369.57303648761956L46.720048444146826,-359.3191983599691L65.85271660231065,-365.25958513347945z" style="fill:rgb(109,213,75)">
    </path>
    <path d="M50.58126255672914,-377.7385134773581L44.61301440471596,-369.57303648761956L65.85271660231065,-365.25958513347945z" style="fill:rgb(109,213,75)">
    </path>
    <path d="M-64.29448530465616,55.072398143368495L-70.3657900868491,50.84384996268736L-55.32760514331332,64.36703819188686z" style="fill:rgb(43,180,168)">
    </path>
    <path d="M-129.98125630084627,-127.944012378841L-69.75785908093779,-113.5364321281754" style="fill:none;stroke:rgb(43,180,168);stroke-width:5;stroke-linecap:round">
    </path>
    <path d="M-76.50710796823914,59.58021906894785L-74.2033122921101,69.19465295283624L-55.32760514331332,64.36703819188686z" style="fill:rgb(43,180,168)">
    </path>
    <path d="M-70.3657900868491,50.84384996268736L-76.50710796823914,59.58021906894785L-55.32760514331332,64.36703819188686z" style="fill:rgb(43,180,168)">
    </path>
    <path d="M-69.16559807326588,-364.6977223581754L-8.162708426477757,-353.2837450626087" style="fill:none;stroke:rgb(109,213,75);stroke-width:5;stroke-linecap:round">
    </path>
    <path d="M-64.11389958735471,12.151510494882334L-70.20662390457049,7.806430110964644L-55.113827282110485,21.277261617764406z" style="fill:rgb(43,180,168)">
    </path>
    <path d="M-130.0366587992451,-171.67197590740685L-69.59427982227609,-157.76711689596615" style="fill:none;stroke:rgb(43,180,168);stroke-width:5;stroke-linecap:round">
    </path>
    <path d="M-76.36986484223274,16.519426885756808L-74.05799807050336,26.236198985634427L-55.113827282110485,21.277261617764406z" style="fill:rgb(43,180,168)">
    </path>
    <path d="M-70.20662390457049,7.806430110964644L-76.36986484223274,16.519426885756808L-55.113827282110485,21.277261617764406z" style="fill:rgb(43,180,168)">
    </path>
    <path d="M17.62668767243838,-351.91496754359093L25.004385222423,-353.79258408924056L36.853354061151684,-357.88886711886727z" style="fill:rgb(109,213,75)">
    </path>
    <path d="M15.454865812373793,-362.24882107670123L17.62668767243838,-351.91496754359093L36.853354061151684,-357.88886711886727z" style="fill:rgb(109,213,75)">
    </path>
    <path d="M21.513612822360386,-370.4965763014248L15.454865812373793,-362.24882107670123L36.853354061151684,-357.88886711886727z" style="fill:rgb(109,213,75)">
    </path>
    <path d="M-63.932012689715954,-31.07863646770274L-70.04630815988499,-35.54182335655988L-54.89850178967921,-22.12446065306499z" style="fill:rgb(43,180,168)">
    </path>
    <path d="M-130.09246187104338,-215.71610313816834L-69.42950277252292,-202.32167597775376" style="fill:none;stroke:rgb(43,180,168);stroke-width:5;stroke-linecap:round">
    </path>
    <path d="M-76.23162922317685,-26.85276549787301L-73.91163464802214,-17.032424536679432L-54.89850178967921,-22.12446065306499z" style="fill:rgb(43,180,168)">
    </path>
    <path d="M-70.04630815988499,-35.54182335655988L-76.23162922317685,-26.85276549787301L-54.89850178967921,-22.12446065306499z" style="fill:rgb(43,180,168)">
    </path>
    <path d="M-99.43984930512858,-357.30585463303163L-38.26917759110739,-345.6937628675675" style="fill:none;stroke:rgb(109,213,75);stroke-width:5;stroke-linecap:round">
    </path>
    <path d="M-63.7488104977342,-74.6213973045419L-69.88483035375054,-79.20429009323198L-54.68161179899884,-65.841528393365z" style="fill:rgb(43,180,168)">
    </path>
    <path d="M-130.14866987636674,-260.0798354215284L-69.26351472729463,-247.20367974631762" style="fill:none;stroke:rgb(43,180,168);stroke-width:5;stroke-linecap:round">
    </path>
    <path d="M-76.09239030597168,-70.53974824194819L-73.76421062030133,-60.614589024629815L-54.68161179899884,-65.841528393365z" style="fill:rgb(43,180,168)">
    </path>
    <path d="M-69.88483035375054,-79.20429009323198L-76.09239030597168,-70.53974824194819L-54.68161179899884,-65.841528393365z" style="fill:rgb(43,180,168)">
    </path>
    <path d="M-63.564278692535375,-118.48017526808415L-69.72217780526539,-123.18439892599028L-54.46314019705245,-109.87739095973551z" style="fill:rgb(43,180,168)">
    </path>
    <path d="M-11.990942142779447,-344.3773107872367L-4.4798497426720685,-346.2888761869832L7.330015268445488,-350.3849709631484z" style="fill:rgb(109,213,75)">
    </path>
    <path d="M-130.20528723884937,-304.76666423389736L-69.0963022874058,-292.4167512474523" style="fill:none;stroke:rgb(43,180,168);stroke-width:5;stroke-linecap:round">
    </path>
    <path d="M-75.95213712810185,-114.54496089648758L-73.61571441709395,-104.51371492747398L-54.46314019705245,-109.87739095973551z" style="fill:rgb(43,180,168)">
    </path>
    <path d="M-69.72217780526539,-123.18439892599028L-75.95213712810185,-114.54496089648758L-54.46314019705245,-109.87739095973551z" style="fill:rgb(43,180,168)">
    </path>
    <path d="M-14.229556550274273,-354.7924113172072L-11.990942142779447,-344.3773107872367L7.330015268445488,-350.3849709631484z" style="fill:rgb(109,213,75)">
    </path>
    <path d="M-8.078002115382942,-363.12409802155344L-14.229556550274273,-354.7924113172072L7.330015268445488,-350.3849709631484z" style="fill:rgb(109,213,75)">
    </path>
    <path d="M-63.37840274664638,-162.65842318976715L-69.55833764834843,-167.48562875296872L-54.24306962032571,-154.23554819986225z" style="fill:rgb(43,180,168)">
    </path>
    <path d="M-130.2623184467946,-349.7801320936834L-68.92785185526364,-337.96456717490554" style="fill:none;stroke:rgb(109,213,75);stroke-width:5;stroke-linecap:round">
    </path>
    <path d="M-130.26231844679475,-349.7801320936835L-68.92785185526378,-337.96456717490554" style="fill:none;stroke:rgb(43,180,168);stroke-width:5;stroke-linecap:round">
    </path>
    <path d="M-75.81085856675921,-158.87189330424238L-73.4661342992442,-148.73327262806924L-54.24306962032571,-154.23554819986225z" style="fill:rgb(43,180,168)">
    </path>
    <path d="M-69.55833764834843,-167.48562875296872L-75.81085856675921,-158.87189330424238L-54.24306962032571,-154.23554819986225z" style="fill:rgb(43,180,168)">
    </path>
    <path d="M-63.19116792018251,-207.1596443861573L-69.39329682834658,-212.1115094608335L-54.021382450206666,-198.91955137975995z" style="fill:rgb(43,180,168)">
    </path>
    <path d="M-75.66854333590248,-203.52408652328668L-73.31545835559392,-193.27678335740868L-54.021382450206666,-198.91955137975995z" style="fill:rgb(43,180,168)">
    </path>
    <path d="M-69.39329682834658,-212.1115094608335L-75.66854333590248,-203.52408652328668L-54.021382450206666,-198.91955137975995z" style="fill:rgb(43,180,168)">
    </path>
    <path d="M-42.14714101918196,-336.7025887509082L-34.49900295439131,-338.64903213335526L-22.73163047499855,-342.7442542571998z" style="fill:rgb(109,213,75)">
    </path>
    <path d="M-44.45463046324704,-347.20019566440413L-42.14714101918196,-336.7025887509082L-22.73163047499855,-342.7442542571998z" style="fill:rgb(109,213,75)">
    </path>
    <path d="M-38.20787837745585,-355.617516890896L-44.45463046324704,-347.20019566440413L-22.73163047499855,-342.7442542571998z" style="fill:rgb(109,213,75)">
    </path>
    <path d="M-73.16367449982064,-238.14782012933054L-65.43114365031118,-240.32327583645701L-53.7980608082837,-243.9330041315241z" style="fill:rgb(43,180,168)">
    </path>
    <path d="M-63.002559256951045,-251.98739358503792L-69.22704209856742,-257.06562286236175L-53.7980608082837,-243.9330041315241z" style="fill:rgb(43,180,168)">
    </path>
    <path d="M-75.52517998325176,-248.5051337699933L-73.16367449982064,-238.14782012933054L-53.7980608082837,-243.9330041315241z" style="fill:rgb(43,180,168)">
    </path>
    <path d="M-69.22704209856742,-257.06562286236175L-75.52517998325176,-248.5051337699933L-53.7980608082837,-243.9330041315241z" style="fill:rgb(43,180,168)">
    </path>
    <path d="M-73.010770467206,-283.35000869592113L-65.25012313521239,-285.4296191363065L-53.573086551539156,-289.279563422125z" style="fill:rgb(43,180,168)">
    </path>
    <path d="M-62.81256158046877,-297.14527787195664L-69.05956001673475,-302.3516036547836L-53.573086551539156,-289.279563422125z" style="fill:rgb(43,180,168)">
    </path>
    <path d="M-75.38075688721626,-293.81868138292L-73.010770467206,-283.35000869592113L-53.573086551539156,-289.279563422125z" style="fill:rgb(43,180,168)">
    </path>
    <path d="M-69.05956001673475,-302.3516036547836L-75.38075688721626,-293.81868138292L-53.573086551539156,-289.279563422125z" style="fill:rgb(43,180,168)">
    </path>
    <path d="M-72.85673381133168,-328.8870285241511L-65.06776481862278,-330.8693132349539L-53.3464412674357,-334.96294054378654z" style="fill:rgb(109,213,75)">
    </path>
    <path d="M-72.85673381133186,-328.887028524151L-65.0677648186229,-330.86931323495384L-53.34644126743582,-334.9629405437865z" style="fill:rgb(43,180,168)">
    </path>
    <path d="M-75.23526225375407,-339.4684298081508L-72.85673381133186,-328.887028524151L-53.34644126743582,-334.9629405437865z" style="fill:rgb(43,180,168)">
    </path>
    <path d="M-75.23526225375387,-339.46842980815074L-72.85673381133168,-328.8870285241511L-53.3464412674357,-334.96294054378654z" style="fill:rgb(109,213,75)">
    </path>
    <path d="M-68.89083694136565,-347.9731403994294L-75.23526225375387,-339.46842980815074L-53.3464412674357,-334.96294054378654z" style="fill:rgb(109,213,75)">
    </path>
    <path d="M-68.89083694136578,-347.9731403994294L-75.23526225375407,-339.4684298081508L-53.34644126743582,-334.9629405437865z" style="fill:rgb(43,180,168)">
    </path>
</svg>