<svg viewBox="-812 -675 1624 1350" width="1624" height="1350" style="background-color: rgb(255, 255, 255);">
    <path d="M58.14473521957955,332.50562585415435L69.78305394172797,-454.34873168920853" style="fill:none;stroke:rgb(0,0,0);stroke-width:1;stroke-linecap:round">
    </path>
    <path d="M185.5976932068577,373.69809295425983L58.14473521957955,332.50562585415435" style="fill:none;stroke:rgb(160,0,0);stroke-width:4;stroke-linecap:round">
    </path>
    <path d="M185.5976932068577,373.69809295425983L206.3798944469539,-431.97587954098196" style="fill:none;stroke:rgb(0,0,0);stroke-width:1;stroke-linecap:round">
    </path>
    <path d="M91.45066087159813,449.0730559862868L185.5976932068577,373.69809295425983" style="fill:none;stroke:rgb(160,0,0);stroke-width:4;stroke-linecap:round">
    </path>
    <path d="M206.3798944469539,-431.97587954098196L185.5976932068577,373.69809295425983L58.14473521957955,332.50562585415435z" style="fill:rgb(0,0,0); fill-opacity: 0.2">
    </path>
    <path d="M176.55077459522764,406.11633829558974L178.8496884350584,415.89226356744007L183.10369302033791,410.775544870192z" style="fill:rgb(197,147,42)">
    </path>
    <path d="M189.80092510714007,410.49118299631715L187.0320371756693,418.60841174520505L193.5256403662276,405.4362714133522z" style="fill:rgb(197,147,42)">
    </path>
    <path d="M183.30929719642197,402.7636174307336L189.80092510714007,410.49118299631715L193.5256403662276,405.4362714133522z" style="fill:rgb(197,147,42)">
    </path>
    <path d="M178.8496884350584,415.89226356744007L187.0320371756693,418.60841174520505L183.10369302033791,410.775544870192z" style="fill:rgb(197,147,42)">
    </path>
    <path d="M183.30929719642197,402.7636174307336L176.55077459522764,406.11633829558974L183.10369302033791,410.775544870192z" style="fill:rgb(197,147,42)">
    </path>
    <path d="M140.70820122850108,432.49520209942403L183.10369302033791,410.7755448701921" style="fill:none;stroke:rgb(197,147,42);stroke-width:5;stroke-linecap:round">
    </path>
    <path d="M187.0320371756693,418.60841174520505L189.80092510714007,410.49118299631715L183.10369302033791,410.775544870192z" style="fill:rgb(197,147,42)">
    </path>
    <path d="M189.80092510714007,410.49118299631715L183.30929719642197,402.7636174307336L183.10369302033791,410.775544870192z" style="fill:rgb(197,147,42)">
    </path>
    <path d="M177.48890899076588,368.7215761441646L179.7949717670143,378.5392162383548L184.0639931771294,373.3548303552836z" style="fill:rgb(197,147,42)">
    </path>
    <path d="M190.78432695761572,373.0124399585294L188.00525164732701,381.2036349292411L194.516229497126,368.12372523393645z" style="fill:rgb(197,147,42)">
    </path>
    <path d="M184.27092638181347,365.2911136919318L190.78432695761572,373.0124399585294L194.516229497126,368.12372523393645z" style="fill:rgb(197,147,42)">
    </path>
    <path d="M179.7949717670143,378.5392162383548L188.00525164732701,381.2036349292411L184.0639931771294,373.3548303552836z" style="fill:rgb(197,147,42)">
    </path>
    <path d="M184.27092638181347,365.2911136919318L177.48890899076588,368.7215761441646L184.0639931771294,373.3548303552836z" style="fill:rgb(197,147,42)">
    </path>
    <path d="M141.54296806208077,394.6356305050769L184.06399317712936,373.3548303552836" style="fill:none;stroke:rgb(197,147,42);stroke-width:5;stroke-linecap:round">
    </path>
    <path d="M188.00525164732701,381.2036349292411L190.78432695761572,373.0124399585294L184.0639931771294,373.3548303552836z" style="fill:rgb(197,147,42)">
    </path>
    <path d="M190.78432695761572,373.0124399585294L184.27092638181347,365.2911136919318L184.0639931771294,373.3548303552836z" style="fill:rgb(197,147,42)">
    </path>
    <path d="M69.78305394172797,-454.34873168920853L58.14473521957955,332.50562585415435L206.3798944469539,-431.97587954098196z" style="fill:rgb(0,0,0); fill-opacity: 0.2">
    </path>
    <path d="M178.43310855429738,331.0850517083656L180.74636480953905,340.9447425555714L185.0305086325902,335.69191977752155z" style="fill:rgb(197,147,42)">
    </path>
    <path d="M191.77410337179214,335.29075388092264L188.98476657867806,343.55670461522675L195.51320842158842,330.57049453659295z" style="fill:rgb(197,147,42)">
    </path>
    <path d="M185.2387837939396,327.575910112958L191.77410337179214,335.29075388092264L195.51320842158842,330.57049453659295z" style="fill:rgb(197,147,42)">
    </path>
    <path d="M180.74636480953905,340.9447425555714L188.98476657867806,343.55670461522675L185.0305086325902,335.69191977752155z" style="fill:rgb(197,147,42)">
    </path>
    <path d="M185.2387837939396,327.575910112958L178.43310855429738,331.0850517083656L185.0305086325902,335.69191977752155z" style="fill:rgb(197,147,42)">
    </path>
    <path d="M142.38321156885524,356.52767278351985L185.03050863259026,335.69191977752166" style="fill:none;stroke:rgb(197,147,42);stroke-width:5;stroke-linecap:round">
    </path>
    <path d="M188.98476657867806,343.55670461522675L191.77410337179214,335.29075388092264L185.0305086325902,335.69191977752155z" style="fill:rgb(197,147,42)">
    </path>
    <path d="M191.77410337179214,335.29075388092264L185.2387837939396,327.575910112958L185.0305086325902,335.69191977752155z" style="fill:rgb(197,147,42)">
    </path>
    <path d="M179.38343229479142,293.2044128450608L181.7039269886065,303.10649429063784L186.00329992303466,297.7844541743327z" style="fill:rgb(197,147,42)">
    </path>
    <path d="M192.77031653257856,297.32375489071694L189.97064335090303,305.66526166298075L196.5166391656938,292.77424298341754z" style="fill:rgb(197,147,42)">
    </path>
    <path d="M186.21293013733603,289.6156411760276L192.77031653257856,297.32375489071694L196.5166391656938,292.77424298341754z" style="fill:rgb(197,147,42)">
    </path>
    <path d="M181.7039269886065,303.10649429063784L189.97064335090303,305.66526166298075L186.00329992303466,297.7844541743327z" style="fill:rgb(197,147,42)">
    </path>
    <path d="M186.21293013733603,289.6156411760276L179.38343229479142,293.2044128450608L186.00329992303466,297.7844541743327z" style="fill:rgb(197,147,42)">
    </path>
    <path d="M143.22898582260208,318.1688765013632L186.0032999230346,297.7844541743327" style="fill:none;stroke:rgb(197,147,42);stroke-width:5;stroke-linecap:round">
    </path>
    <path d="M189.97064335090303,305.66526166298075L192.77031653257856,297.32375489071694L186.00329992303466,297.7844541743327z" style="fill:rgb(197,147,42)">
    </path>
    <path d="M192.77031653257856,297.32375489071694L186.21293013733603,289.6156411760276L186.00329992303466,297.7844541743327z" style="fill:rgb(197,147,42)">
    </path>
    <path d="M180.33993998918478,255.07727679935078L182.6677185033714,265.0220926627189L186.98242837349326,259.63004384865076z" style="fill:rgb(197,147,42)">
    </path>
    <path d="M193.77302943430257,259.1090421909093L190.9629441451083,267.5269161877732L197.52658456091444,254.73260389973132z" style="fill:rgb(197,147,42)">
    </path>
    <path d="M187.19342690800013,251.4079105218943L193.77302943430257,259.1090421909093L197.52658456091444,254.73260389973132z" style="fill:rgb(197,147,42)">
    </path>
    <path d="M182.6677185033714,265.0220926627189L190.9629441451083,267.5269161877732L186.98242837349326,259.63004384865076z" style="fill:rgb(197,147,42)">
    </path>
    <path d="M187.19342690800013,251.4079105218943L180.33993998918478,255.07727679935078L186.98242837349326,259.63004384865076z" style="fill:rgb(197,147,42)">
    </path>
    <path d="M144.08034561131078,279.5567568332346L186.98242837349326,259.6300438486508" style="fill:none;stroke:rgb(197,147,42);stroke-width:5;stroke-linecap:round">
    </path>
    <path d="M155.6826111866019,-246.6462336721679L140.70820122850108,432.49520209942403" style="fill:none;stroke:rgb(104,70,1);stroke-width:5;stroke-linecap:round">
    </path>
    <path d="M140.70820122850108,432.49520209942403L91.45066087159813,449.0730559862868" style="fill:none;stroke:rgb(160,0,0);stroke-width:4;stroke-linecap:round">
    </path>
    <path d="M190.9629441451083,267.5269161877732L193.77302943430257,259.1090421909093L186.98242837349326,259.63004384865076z" style="fill:rgb(197,147,42)">
    </path>
    <path d="M193.77302943430257,259.1090421909093L187.19342690800013,251.4079105218943L186.98242837349326,259.63004384865076z" style="fill:rgb(197,147,42)">
    </path>
    <path d="M181.30269219491527,216.7012297049501L183.63780033878493,226.68912784008518L187.96795611060054,221.2262678667391z" style="fill:rgb(197,147,42)">
    </path>
    <path d="M194.78230589598846,220.64418355421378L191.96173195539944,229.13924705785539L198.54310825723098,216.4431797800821z" style="fill:rgb(197,147,42)">
    </path>
    <path d="M188.18033640633178,212.95029044557003L194.78230589598846,220.64418355421378L198.54310825723098,216.4431797800821z" style="fill:rgb(197,147,42)">
    </path>
    <path d="M183.63780033878493,226.68912784008518L191.96173195539944,229.13924705785539L187.96795611060054,221.2262678667391z" style="fill:rgb(197,147,42)">
    </path>
    <path d="M188.18033640633178,212.95029044557003L181.30269219491527,216.7012297049501L187.96795611060054,221.2262678667391z" style="fill:rgb(197,147,42)">
    </path>
    <path d="M144.9373464490133,240.68879602521173L187.96795611060054,221.2262678667392" style="fill:none;stroke:rgb(197,147,42);stroke-width:5;stroke-linecap:round">
    </path>
    <path d="M206.3798944469539,-431.97587954098196L69.78305394172797,-454.34873168920853" style="fill:none;stroke:rgb(0,0,0);stroke-width:1;stroke-linecap:round">
    </path>
    <path d="M69.78305394172797,-454.34873168920853L-271.28620778716487,-376.94718859874115" style="fill:none;stroke:rgb(0,0,0);stroke-width:1;stroke-linecap:round">
    </path>
    <path d="M206.3798944469539,-431.97587954098196L69.78305394172797,-454.34873168920853" style="fill:none;stroke:rgb(0,0,0);stroke-width:1;stroke-linecap:round">
    </path>
    <path d="M191.96173195539944,229.13924705785539L194.78230589598846,220.64418355421378L187.96795611060054,221.2262678667391z" style="fill:rgb(197,147,42)">
    </path>
    <path d="M194.78230589598846,220.64418355421378L188.18033640633178,212.95029044557003L187.96795611060054,221.2262678667391z" style="fill:rgb(197,147,42)">
    </path>
    <path d="M182.27175026270262,178.073826074752L184.61423427845818,188.10515843180912L188.95994607573482,182.57067354613324z" style="fill:rgb(197,147,42)">
    </path>
    <path d="M195.79821057489735,181.9267148070316L192.9670706022117,190.4998013821037L199.56627473650443,177.90354178456215z" style="fill:rgb(197,147,42)">
    </path>
    <path d="M189.1737217503293,174.24032138211862L195.79821057489735,181.9267148070316L199.56627473650443,177.90354178456215z" style="fill:rgb(197,147,42)">
    </path>
    <path d="M184.61423427845818,188.10515843180912L192.9670706022117,190.4998013821037L188.95994607573482,182.57067354613324z" style="fill:rgb(197,147,42)">
    </path>
    <path d="M189.1737217503293,174.24032138211862L182.27175026270262,178.073826074752L188.95994607573482,182.57067354613324z" style="fill:rgb(197,147,42)">
    </path>
    <path d="M145.80004458785092,201.56244284755365L188.95994607573482,182.57067354613324" style="fill:none;stroke:rgb(197,147,42);stroke-width:5;stroke-linecap:round">
    </path>
    <path d="M192.9670706022117,190.4998013821037L195.79821057489735,181.9267148070316L188.95994607573482,182.57067354613324z" style="fill:rgb(197,147,42)">
    </path>
    <path d="M195.79821057489735,181.9267148070316L189.1737217503293,174.24032138211862L188.95994607573482,182.57067354613324z" style="fill:rgb(197,147,42)">
    </path>
    <path d="M183.24717634958049,139.19258828134952L185.5970829177792,149.26771096944336L189.95846203841865,143.6607759334782z" style="fill:rgb(197,147,42)">
    </path>
    <path d="M196.82080898033504,142.954139303221L193.97902474590404,151.60609398754852L200.5961493261109,139.11122922521875z" style="fill:rgb(197,147,42)">
    </path>
    <path d="M190.17364688904556,135.27551138229288L196.82080898033504,142.954139303221L200.5961493261109,139.11122922521875z" style="fill:rgb(197,147,42)">
    </path>
    <path d="M185.5970829177792,149.26771096944336L193.97902474590404,151.60609398754852L189.95846203841865,143.6607759334782z" style="fill:rgb(197,147,42)">
    </path>
    <path d="M190.17364688904556,135.27551138229288L183.24717634958049,139.19258828134952L189.95846203841865,143.6607759334782z" style="fill:rgb(197,147,42)">
    </path>
    <path d="M146.66849703038267,162.17511203648132L189.9584620384187,143.6607759334782" style="fill:none;stroke:rgb(197,147,42);stroke-width:5;stroke-linecap:round">
    </path>
    <path d="M193.97902474590404,151.60609398754852L196.82080898033504,142.954139303221L189.95846203841865,143.6607759334782z" style="fill:rgb(197,147,42)">
    </path>
    <path d="M196.82080898033504,142.954139303221L190.17364688904556,135.27551138229288L189.95846203841865,143.6607759334782z" style="fill:rgb(197,147,42)">
    </path>
    <path d="M91.45066087159813,449.0730559862868L102.49795351770878,-170.8455025980962" style="fill:none;stroke:rgb(0,0,0);stroke-width:1;stroke-linecap:round">
    </path>
    <path d="M184.22903343218655,100.05500602728193L186.5864096772896,110.17427937845L190.96356860998387,104.4940572720264z" style="fill:rgb(197,147,42)">
    </path>
    <path d="M197.85016748773333,103.7239273874309L194.99765990062232,112.45560688655573L201.63279821284593,100.0637490423296z" style="fill:rgb(197,147,42)">
    </path>
    <path d="M191.18017661631112,96.05333557778258L197.85016748773333,103.7239273874309L201.63279821284593,100.0637490423296z" style="fill:rgb(197,147,42)">
    </path>
    <path d="M186.5864096772896,110.17427937845L194.99765990062232,112.45560688655573L190.96356860998387,104.4940572720264z" style="fill:rgb(197,147,42)">
    </path>
    <path d="M191.18017661631112,96.05333557778258L184.22903343218655,100.05500602728193L190.96356860998387,104.4940572720264z" style="fill:rgb(197,147,42)">
    </path>
    <path d="M147.5427615421401,122.52418372475006L190.96356860998387,104.4940572720264" style="fill:none;stroke:rgb(197,147,42);stroke-width:5;stroke-linecap:round">
    </path>
    <path d="M102.49795351770878,-170.8455025980962L91.45066087159813,449.0730559862868L185.5976932068577,373.69809295425983z" style="fill:rgb(0,0,0); fill-opacity: 0.2">
    </path>
    <path d="M194.99765990062232,112.45560688655573L197.85016748773333,103.7239273874309L190.96356860998387,104.4940572720264z" style="fill:rgb(197,147,42)">
    </path>
    <path d="M197.85016748773333,103.7239273874309L191.18017661631112,96.05333557778258L190.96356860998387,104.4940572720264z" style="fill:rgb(197,147,42)">
    </path>
    <path d="M185.21738532031668,60.658535804769045L187.58227881632607,70.82232443914354L191.97533125750803,65.06796645855607z" style="fill:rgb(197,147,42)">
    </path>
    <path d="M198.88635335301186,64.23351584775543L196.02304244843805,73.0457887334192L202.67628845710362,60.75857527031007z" style="fill:rgb(197,147,42)">
    </path>
    <path d="M192.1933765847299,56.57123563583016L198.88635335301186,64.23351584775543L202.67628845710362,60.75857527031007z" style="fill:rgb(197,147,42)">
    </path>
    <path d="M187.58227881632607,70.82232443914354L196.02304244843805,73.0457887334192L191.97533125750803,65.06796645855607z" style="fill:rgb(197,147,42)">
    </path>
    <path d="M192.1933765847299,56.57123563583016L185.21738532031668,60.658535804769045L191.97533125750803,65.06796645855607z" style="fill:rgb(197,147,42)">
    </path>
    <path d="M148.4228966644362,82.60700286075176L191.975331257508,65.0679664585561" style="fill:none;stroke:rgb(197,147,42);stroke-width:5;stroke-linecap:round">
    </path>
    <path d="M196.02304244843805,73.0457887334192L198.88635335301186,64.23351584775543L191.97533125750803,65.06796645855607z" style="fill:rgb(197,147,42)">
    </path>
    <path d="M198.88635335301186,64.23351584775543L192.1933765847299,56.57123563583016L191.97533125750803,65.06796645855607z" style="fill:rgb(197,147,42)">
    </path>
    <path d="M186.21229667074817,21.0006003446879L188.5847554469338,31.2092732369039L192.99381631802927,25.379918489464625z" style="fill:rgb(197,147,42)">
    </path>
    <path d="M199.92943472722675,24.48030735746232L197.05523965376852,33.37405427011925L203.72668800733774,21.193148493010355z" style="fill:rgb(197,147,42)">
    </path>
    <path d="M193.21331331995412,16.826619202967915L199.92943472722675,24.48030735746232L203.72668800733774,21.193148493010355z" style="fill:rgb(197,147,42)">
    </path>
    <path d="M188.5847554469338,31.2092732369039L197.05523965376852,33.37405427011925L192.99381631802927,25.379918489464625z" style="fill:rgb(197,147,42)">
    </path>
    <path d="M193.21331331995412,16.826619202967915L186.21229667074817,21.0006003446879L192.99381631802927,25.379918489464625z" style="fill:rgb(197,147,42)">
    </path>
    <path d="M149.30896172743192,42.42087861587473L192.99381631802925,25.37991848946465" style="fill:none;stroke:rgb(197,147,42);stroke-width:5;stroke-linecap:round">
    </path>
    <path d="M206.3798944469539,-431.97587954098196L185.5976932068577,373.69809295425983L102.49795351770878,-170.8455025980962z" style="fill:rgb(0,0,0); fill-opacity: 0.2">
    </path>
    <path d="M197.05523965376852,33.37405427011925L199.92943472722675,24.48030735746232L192.99381631802927,25.379918489464625z" style="fill:rgb(197,147,42)">
    </path>
    <path d="M199.92943472722675,24.48030735746232L193.21331331995412,16.826619202967915L192.99381631802927,25.379918489464625z" style="fill:rgb(197,147,42)">
    </path>
    <path d="M235.6097790907117,-213.14683661013436L206.3798944469539,-431.97587954098196" style="fill:none;stroke:rgb(0,0,0);stroke-width:1;stroke-linecap:round">
    </path>
    <path d="M235.6097790907117,-213.14683661013436L206.3798944469539,-431.97587954098196" style="fill:none;stroke:rgb(0,0,0);stroke-width:1;stroke-linecap:round">
    </path>
    <path d="M102.49795351770878,-170.8455025980962L235.6097790907117,-213.14683661013436" style="fill:none;stroke:rgb(0,0,0);stroke-width:1;stroke-linecap:round">
    </path>
    <path d="M247.9762856459924,-274.2498322419467L235.6097790907117,-213.14683661013436" style="fill:none;stroke:rgb(0,0,0);stroke-width:1;stroke-linecap:round">
    </path>
    <path d="M235.6097790907117,-213.14683661013436L-94.04774994132563,-108.38564664719208" style="fill:none;stroke:rgb(0,0,0);stroke-width:1;stroke-linecap:round">
    </path>
    <path d="M247.9762856459924,-274.2498322419467L235.6097790907117,-213.14683661013436" style="fill:none;stroke:rgb(0,0,0);stroke-width:1;stroke-linecap:round">
    </path>
    <path d="M187.2138330013398,-18.92141194545791L189.59390554805753,-8.667481398589873L194.01909101304497,-14.572706104215259z" style="fill:rgb(197,147,42)">
    </path>
    <path d="M200.97948067151196,-15.538330094462319L198.0943196780859,-6.562216239006L204.78406571481096,-18.635124711842497z" style="fill:rgb(197,147,42)">
    </path>
    <path d="M194.2400542352451,-23.183140662377436L200.97948067151196,-15.538330094462319L204.78406571481096,-18.635124711842497z" style="fill:rgb(197,147,42)">
    </path>
    <path d="M189.59390554805753,-8.667481398589873L198.0943196780859,-6.562216239006L194.01909101304497,-14.572706104215259z" style="fill:rgb(197,147,42)">
    </path>
    <path d="M194.2400542352451,-23.183140662377436L187.2138330013398,-18.92141194545791L194.01909101304497,-14.572706104215259z" style="fill:rgb(197,147,42)">
    </path>
    <path d="M150.20101686346874,1.9630837798451792L194.01909101304497,-14.572706104215282" style="fill:none;stroke:rgb(197,147,42);stroke-width:5;stroke-linecap:round">
    </path>
    <path d="M155.6826111866019,-246.6462336721679L140.70820122850108,432.49520209942403L91.45066087159813,449.0730559862868z" style="fill:rgb(0,0,0); fill-opacity: 0.2">
    </path>
    <path d="M198.0943196780859,-6.562216239006L200.97948067151196,-15.538330094462319L194.01909101304497,-14.572706104215259z" style="fill:rgb(197,147,42)">
    </path>
    <path d="M200.97948067151196,-15.538330094462319L194.2400542352451,-23.183140662377436L194.01909101304497,-14.572706104215259z" style="fill:rgb(197,147,42)">
    </path>
    <path d="M46.74646271699894,471.8550464472204L-129.14596589552997,531.3321833718398" style="fill:none;stroke:rgb(160,0,0);stroke-width:4;stroke-linecap:round">
    </path>
    <path d="M55.52386564440083,-155.9177035653209L46.74646271699894,471.8550464472204" style="fill:none;stroke:rgb(0,0,0);stroke-width:1;stroke-linecap:round">
    </path>
    <path d="M15.632427217212598,496.57283923463336L46.74646271699894,471.8550464472204" style="fill:none;stroke:rgb(160,0,0);stroke-width:4;stroke-linecap:round">
    </path>
    <path d="M188.22206070541444,-59.110147554833176L190.60979598001728,-48.81058146536261L195.05122346330123,-54.79256183313721z" style="fill:rgb(197,147,42)">
    </path>
    <path d="M202.0365611723222,-55.82506378421348L199.14035159492173,-46.76567758393625L205.8484913486388,-58.72887233931257z" style="fill:rgb(197,147,42)">
    </path>
    <path d="M195.27366764632617,-63.460706068674284L202.0365611723222,-55.82506378421348L205.8484913486388,-58.72887233931257z" style="fill:rgb(197,147,42)">
    </path>
    <path d="M190.60979598001728,-48.81058146536261L199.14035159492173,-46.76567758393625L195.05122346330123,-54.79256183313721z" style="fill:rgb(197,147,42)">
    </path>
    <path d="M195.27366764632617,-63.460706068674284L188.22206070541444,-59.110147554833176L195.05122346330123,-54.79256183313721z" style="fill:rgb(197,147,42)">
    </path>
    <path d="M151.09912302067178,-38.76914585623648L195.05122346330126,-54.79256183313724" style="fill:none;stroke:rgb(197,147,42);stroke-width:5;stroke-linecap:round">
    </path>
    <path d="M199.14035159492173,-46.76567758393625L202.0365611723222,-55.82506378421348L195.05122346330123,-54.79256183313721z" style="fill:rgb(197,147,42)">
    </path>
    <path d="M202.0365611723222,-55.82506378421348L195.27366764632617,-63.460706068674284L195.05122346330123,-54.79256183313721z" style="fill:rgb(197,147,42)">
    </path>
    <path d="M206.3798944469539,-431.97587954098196L206.3798944469539,-431.97587954098196L235.6097790907117,-213.14683661013436z" style="fill:rgb(0,0,0); fill-opacity: 0.2">
    </path>
    <path d="M247.9762856459924,-274.2498322419467L155.6826111866019,-246.6462336721679" style="fill:none;stroke:rgb(45,114,23);stroke-width:5;stroke-linecap:round">
    </path>
    <path d="M247.9762856459924,-274.2498322419467L250.07346249246902,-345.31248153285924" style="fill:none;stroke:rgb(109,213,75);stroke-width:5;stroke-linecap:round">
    </path>
    <path d="M-82.9855668242104,-175.26430402443506L247.9762856459924,-274.2498322419467" style="fill:none;stroke:rgb(1,93,85);stroke-width:5;stroke-linecap:round">
    </path>
    <path d="M247.9762856459924,-274.2498322419467L250.07346249246902,-345.31248153285924" style="fill:none;stroke:rgb(43,180,168);stroke-width:5;stroke-linecap:round">
    </path>
    <path d="M189.23704706643034,-99.56828845409653L191.63249449927469,-89.22270437264659L196.09028270388077,-95.28233883756535z" style="fill:rgb(197,147,42)">
    </path>
    <path d="M203.10074715698184,-96.38259684578136L200.19340540517288,-87.23902019725838L206.92003561113577,-99.09075753529122z" style="fill:rgb(197,147,42)">
    </path>
    <path d="M196.3142227865349,-104.00877488173619L203.10074715698184,-96.38259684578136L206.92003561113577,-99.09075753529122z" style="fill:rgb(197,147,42)">
    </path>
    <path d="M191.63249449927469,-89.22270437264659L200.19340540517288,-87.23902019725838L196.09028270388077,-95.28233883756535z" style="fill:rgb(197,147,42)">
    </path>
    <path d="M196.3142227865349,-104.00877488173619L189.23704706643034,-99.56828845409653L196.09028270388077,-95.28233883756535z" style="fill:rgb(197,147,42)">
    </path>
    <path d="M152.00334197683134,-79.77861212945687L196.09028270388075,-95.28233883756538" style="fill:none;stroke:rgb(197,147,42);stroke-width:5;stroke-linecap:round">
    </path>
    <path d="M200.19340540517288,-87.23902019725838L203.10074715698184,-96.38259684578136L196.09028270388077,-95.28233883756535z" style="fill:rgb(197,147,42)">
    </path>
    <path d="M203.10074715698184,-96.38259684578136L196.3142227865349,-104.00877488173619L196.09028270388077,-95.28233883756535z" style="fill:rgb(197,147,42)">
    </path>
    <path d="M102.49795351770878,-170.8455025980962L206.3798944469539,-431.97587954098196" style="fill:none;stroke:rgb(0,0,0);stroke-width:1;stroke-linecap:round">
    </path>
    <path d="M206.3798944469539,-431.97587954098196L206.3798944469539,-431.97587954098196" style="fill:none;stroke:rgb(0,0,0);stroke-width:1;stroke-linecap:round">
    </path>
    <path d="M102.49795351770878,-170.8455025980962L206.3798944469539,-431.97587954098196" style="fill:none;stroke:rgb(0,0,0);stroke-width:1;stroke-linecap:round">
    </path>
    <path d="M206.3798944469539,-431.97587954098196L-130.26231844679475,-349.7801320936835" style="fill:none;stroke:rgb(0,0,0);stroke-width:1;stroke-linecap:round">
    </path>
    <path d="M-271.28620778716487,-376.94718859874115L-260.4257574103468,481.75091050423856" style="fill:none;stroke:rgb(0,0,0);stroke-width:1;stroke-linecap:round">
    </path>
    <path d="M-129.14596589552997,531.3321833718398L-260.4257574103468,481.75091050423856" style="fill:none;stroke:rgb(160,0,0);stroke-width:4;stroke-linecap:round">
    </path>
    <path d="M190.2588602729493,-140.29855269202545L192.6620697734976,-129.90656353615435L197.13633869959475,-136.0447634871763z" style="fill:rgb(197,147,42)">
    </path>
    <path d="M204.17211050954947,-137.21366887555538L201.25355205271765,-127.98497075434261L207.99877015347008,-139.723479186171z" style="fill:rgb(197,147,42)">
    </path>
    <path d="M197.3617898222821,-144.83008132710927L204.17211050954947,-137.21366887555538L207.99877015347008,-139.723479186171z" style="fill:rgb(197,147,42)">
    </path>
    <path d="M192.6620697734976,-129.90656353615435L201.25355205271765,-127.98497075434261L197.13633869959475,-136.0447634871763z" style="fill:rgb(197,147,42)">
    </path>
    <path d="M197.3617898222821,-144.83008132710927L190.2588602729493,-140.29855269202545L197.13633869959475,-136.0447634871763z" style="fill:rgb(197,147,42)">
    </path>
    <path d="M152.9137363535684,-121.06815514755043L197.13633869959475,-136.04476348717634" style="fill:none;stroke:rgb(197,147,42);stroke-width:5;stroke-linecap:round">
    </path>
    <path d="M201.25355205271765,-127.98497075434261L204.17211050954947,-137.21366887555538L197.13633869959475,-136.0447634871763z" style="fill:rgb(197,147,42)">
    </path>
    <path d="M204.17211050954947,-137.21366887555538L197.3617898222821,-144.83008132710927L197.13633869959475,-136.0447634871763z" style="fill:rgb(197,147,42)">
    </path>
    <path d="M242.69178234961507,-346.6356917378349L242.68256939790018,-344.3136968932534L250.60155289831138,-363.2067775562634z" style="fill:rgb(109,213,75)">
    </path>
    <path d="M242.69178234961507,-346.6356917378349L242.68256939790018,-344.3136968932534L250.60155289831138,-363.2067775562635z" style="fill:rgb(43,180,168)">
    </path>
    <path d="M252.90975382332255,-343.3665701527003L259.2055909165348,-345.11001680838245L250.60155289831138,-363.2067775562634z" style="fill:rgb(109,213,75)">
    </path>
    <path d="M252.90975382332255,-343.3665701527003L259.2055909165348,-345.11001680838245L250.60155289831138,-363.2067775562635z" style="fill:rgb(43,180,168)">
    </path>
    <path d="M242.68256939790018,-344.3136968932534L252.90975382332255,-343.3665701527003L250.60155289831138,-363.2067775562634z" style="fill:rgb(109,213,75)">
    </path>
    <path d="M242.68256939790018,-344.3136968932534L252.90975382332255,-343.3665701527003L250.60155289831138,-363.2067775562635z" style="fill:rgb(43,180,168)">
    </path>
    <path d="M191.28756943390718,-181.3036950042208L193.6985913969293,-170.86490898540146L198.18946236068732,-177.08259899301729z" style="fill:rgb(197,147,42)">
    </path>
    <path d="M205.25072408700402,-178.3210565492028L202.32086344034764,-169.00629278568735L209.08476759163503,-180.62977252042802z" style="fill:rgb(197,147,42)">
    </path>
    <path d="M222.88626582699163,-266.74579863132016L224.8544355443479,-338.35136414777395" style="fill:none;stroke:rgb(43,180,168);stroke-width:5;stroke-linecap:round">
    </path>
    <path d="M198.41643986882343,-185.92739660467808L205.25072408700402,-178.3210565492028L209.08476759163503,-180.62977252042802z" style="fill:rgb(197,147,42)">
    </path>
    <path d="M193.6985913969293,-170.86490898540146L202.32086344034764,-169.00629278568735L198.18946236068732,-177.08259899301729z" style="fill:rgb(197,147,42)">
    </path>
    <path d="M198.41643986882343,-185.92739660467808L191.28756943390718,-181.3036950042208L198.18946236068732,-177.08259899301729z" style="fill:rgb(197,147,42)">
    </path>
    <path d="M153.8303696307913,-162.6406539445668L198.18946236068732,-177.0825989930173" style="fill:none;stroke:rgb(197,147,42);stroke-width:5;stroke-linecap:round">
    </path>
    <path d="M202.32086344034764,-169.00629278568735L205.25072408700402,-178.3210565492028L198.18946236068732,-177.08259899301729z" style="fill:rgb(197,147,42)">
    </path>
    <path d="M205.25072408700402,-178.3210565492028L198.41643986882343,-185.92739660467808L198.18946236068732,-177.08259899301729z" style="fill:rgb(197,147,42)">
    </path>
    <path d="M235.6097790907117,-213.14683661013436L102.49795351770878,-170.8455025980962L247.9762856459924,-274.2498322419467z" style="fill:rgb(0,0,0); fill-opacity: 0.2">
    </path>
    <path d="M217.81875570786409,-265.2301853902606L219.7605787736627,-336.94532516789985" style="fill:none;stroke:rgb(109,213,75);stroke-width:5;stroke-linecap:round">
    </path>
    <path d="M235.6097790907117,-213.14683661013436L102.49795351770878,-170.8455025980962L206.3798944469539,-431.97587954098196z" style="fill:rgb(0,0,0); fill-opacity: 0.2">
    </path>
    <path d="M192.32324459419485,-222.58650743417843L194.74212990607,-212.10052798336272L199.24972555885918,-218.398646031912z" style="fill:rgb(197,147,42)">
    </path>
    <path d="M15.632427217212598,496.57283923463336L23.591275915520843,-207.13977545900693" style="fill:none;stroke:rgb(84,0,79);stroke-width:5;stroke-linecap:round">
    </path>
    <path d="M15.632427217212598,496.5728392346332L-31.468254908890582,520.7030150576898" style="fill:none;stroke:rgb(167,41,160);stroke-width:5;stroke-linecap:round">
    </path>
    <path d="M206.3366617357605,-219.70757425111492L203.39541244602435,-210.3057873017214L210.17810152274336,-221.81240972239812z" style="fill:rgb(197,147,42)">
    </path>
    <path d="M199.47824500635298,-227.30352951578075L206.3366617357605,-219.70757425111492L210.17810152274336,-221.81240972239812z" style="fill:rgb(197,147,42)">
    </path>
    <path d="M194.74212990607,-212.10052798336272L203.39541244602435,-210.3057873017214L199.24972555885918,-218.398646031912z" style="fill:rgb(197,147,42)">
    </path>
    <path d="M199.47824500635298,-227.30352951578075L192.32324459419485,-222.58650743417843L199.24972555885918,-218.398646031912z" style="fill:rgb(197,147,42)">
    </path>
    <path d="M154.75330616145106,-204.49902715006638L199.2497255588592,-218.39864603191205" style="fill:none;stroke:rgb(197,147,42);stroke-width:5;stroke-linecap:round">
    </path>
    <path d="M203.39541244602435,-210.3057873017214L206.3366617357605,-219.70757425111492L199.24972555885918,-218.398646031912z" style="fill:rgb(197,147,42)">
    </path>
    <path d="M206.3366617357605,-219.70757425111492L199.47824500635298,-227.30352951578075L199.24972555885918,-218.398646031912z" style="fill:rgb(197,147,42)">
    </path>
    <path d="M217.448418752018,-339.69556226777075L217.37128019347634,-337.335720047215L225.3500701019322,-356.38344363378326z" style="fill:rgb(43,180,168)">
    </path>
    <path d="M193.36595675055702,-264.1498199670186L195.79275679567797,-253.61624565875584L200.31720114361823,-259.9957433836082z" style="fill:rgb(197,147,42)">
    </path>
    <path d="M16.07513153920988,457.4294118649055L-31.181600337606476,481.08032489162315" style="fill:none;stroke:rgb(167,41,160);stroke-width:5;stroke-linecap:round">
    </path>
    <path d="M207.42999830852406,-261.3760747167176L204.47727293946735,-251.88629343035979L211.2788465416538,-263.2742005585339z" style="fill:rgb(197,147,42)">
    </path>
    <path d="M200.54727829642502,-268.96132710313066L207.42999830852406,-261.3760747167176L211.2788465416538,-263.2742005585339z" style="fill:rgb(197,147,42)">
    </path>
    <path d="M195.79275679567797,-253.61624565875584L204.47727293946735,-251.88629343035979L200.31720114361823,-259.9957433836082z" style="fill:rgb(197,147,42)">
    </path>
    <path d="M227.65826136004804,-336.37391303113264L234.05860504453878,-338.14629970930326L225.3500701019322,-356.38344363378326z" style="fill:rgb(43,180,168)">
    </path>
    <path d="M200.54727829642502,-268.96132710313066L193.36595675055702,-264.1498199670186L200.31720114361823,-259.9957433836082z" style="fill:rgb(197,147,42)">
    </path>
    <path d="M155.6826111866019,-246.6462336721678L200.31720114361823,-259.9957433836083" style="fill:none;stroke:rgb(197,147,42);stroke-width:5;stroke-linecap:round">
    </path>
    <path d="M217.37128019347634,-337.335720047215L227.65826136004804,-336.37391303113264L225.3500701019322,-356.38344363378326z" style="fill:rgb(43,180,168)">
    </path>
    <path d="M212.3497190145978,-338.2937825021753L212.25872567210462,-335.92625856992277L220.24958445282095,-355.00521499543595z" style="fill:rgb(109,213,75)">
    </path>
    <path d="M204.47727293946735,-251.88629343035979L207.42999830852406,-261.3760747167176L200.31720114361823,-259.9957433836082z" style="fill:rgb(197,147,42)">
    </path>
    <path d="M207.42999830852406,-261.3760747167176L200.54727829642502,-268.96132710313066L200.31720114361823,-259.9957433836082z" style="fill:rgb(197,147,42)">
    </path>
    <path d="M102.49795351770878,-170.8455025980962L91.45066087159813,449.0730559862868L155.6826111866019,-246.6462336721679z" style="fill:rgb(0,0,0); fill-opacity: 0.2">
    </path>
    <path d="M197.3809633422772,-259.117560452347L199.21553606293247,-331.27435085611586" style="fill:none;stroke:rgb(43,180,168);stroke-width:5;stroke-linecap:round">
    </path>
    <path d="M222.55773571696727,-334.9614726768169L228.97929280237724,-336.7397337815874L220.24958445282095,-355.00521499543595z" style="fill:rgb(109,213,75)">
    </path>
    <path d="M212.25872567210462,-335.92625856992277L222.55773571696727,-334.9614726768169L220.24958445282095,-355.00521499543595z" style="fill:rgb(109,213,75)">
    </path>
    <path d="M16.520855917779244,418.01895442746L-30.892962058909266,441.1834377230192" style="fill:none;stroke:rgb(167,41,160);stroke-width:5;stroke-linecap:round">
    </path>
    <path d="M46.74646271699894,471.8550464472204L55.52386564440083,-155.9177035653209L15.632427217212598,496.57283923463336z" style="fill:rgb(0,0,0); fill-opacity: 0.2">
    </path>
    <path d="M187.06024598914172,-256.03079485939776L188.8400553147072,-328.41044418899236" style="fill:none;stroke:rgb(109,213,75);stroke-width:5;stroke-linecap:round">
    </path>
    <path d="M16.96963136218972,378.33872511696615L-30.602319409820232,401.0094974215897" style="fill:none;stroke:rgb(167,41,160);stroke-width:5;stroke-linecap:round">
    </path>
    <path d="M247.9762856459924,-274.2498322419467L155.6826111866019,-246.6462336721679L102.49795351770878,-170.8455025980962z" style="fill:rgb(0,0,0); fill-opacity: 0.2">
    </path>
    <path d="M191.785391053048,-332.6400550198519L191.6380572019098,-330.2414218169332L199.677555456004,-349.4463405150685z" style="fill:rgb(43,180,168)">
    </path>
    <path d="M201.98541563027933,-329.26457453225896L208.49288977599528,-331.06662783642065L199.677555456004,-349.4463405150685z" style="fill:rgb(43,180,168)">
    </path>
    <path d="M191.6380572019098,-330.2414218169332L201.98541563027933,-329.26457453225896L199.677555456004,-349.4463405150685z" style="fill:rgb(43,180,168)">
    </path>
    <path d="M171.44998169624031,-251.36200827534L173.14619031646677,-324.0785230287047" style="fill:none;stroke:rgb(43,180,168);stroke-width:5;stroke-linecap:round">
    </path>
    <path d="M17.421489307696685,338.3859444628506L-30.309651439383867,360.5556080515901" style="fill:none;stroke:rgb(167,41,160);stroke-width:5;stroke-linecap:round">
    </path>
    <path d="M181.40032199913324,-329.7848997030467L181.22425536797428,-327.3704788361335L189.2882940356315,-346.6390043894724z" style="fill:rgb(109,213,75)">
    </path>
    <path d="M-31.406891692163725,512.2211139560616L-38.2208543385611,515.5957378348634L-43.45495867423412,526.8439297183787z" style="fill:rgb(167,41,160)">
    </path>
    <path d="M191.59592815969677,-326.38751197224315L198.1470088903947,-328.2016408357986L189.2882940356315,-346.6390043894724z" style="fill:rgb(109,213,75)">
    </path>
    <path d="M181.22425536797428,-327.3704788361335L191.59592815969677,-326.38751197224315L189.2882940356315,-346.6390043894724z" style="fill:rgb(109,213,75)">
    </path>
    <path d="M-27.326843111075657,529.1036395784764L-24.658821381029046,520.5778149094515L-43.45495867423412,526.8439297183787z" style="fill:rgb(167,41,160)">
    </path>
    <path d="M-24.658821381029046,520.5778149094515L-31.406891692163725,512.2211139560616L-43.45495867423412,526.8439297183787z" style="fill:rgb(167,41,160)">
    </path>
    <path d="M17.87646162288199,298.1577946802913L-30.014936903633426,319.81883317594156" style="fill:none;stroke:rgb(167,41,160);stroke-width:5;stroke-linecap:round">
    </path>
    <path d="M155.6826111866019,-246.6462336721679L102.49795351770878,-170.8455025980962" style="fill:none;stroke:rgb(0,0,0);stroke-width:1;stroke-linecap:round">
    </path>
    <path d="M155.6826111866019,-246.6462336721679L157.2934363889092,-319.70274432821753" style="fill:none;stroke:rgb(109,213,75);stroke-width:5;stroke-linecap:round">
    </path>
    <path d="M155.6826111866019,-246.6462336721679L102.49795351770878,-170.8455025980962" style="fill:none;stroke:rgb(0,0,0);stroke-width:1;stroke-linecap:round">
    </path>
    <path d="M-130.26231844679475,-349.7801320936835L206.3798944469539,-431.97587954098196L69.78305394172797,-454.34873168920853z" style="fill:rgb(0,0,0); fill-opacity: 0.2">
    </path>
    <path d="M-31.11981305243842,472.5398071337876L-37.95779205501325,476.00182134283597L-43.20875183106637,487.0996390217764z" style="fill:rgb(167,41,160)">
    </path>
    <path d="M-27.025827998452304,489.49935772303627L-24.348180713725448,480.8900442671477L-43.20875183106637,487.0996390217764z" style="fill:rgb(167,41,160)">
    </path>
    <path d="M165.69214632945966,-325.46626869079824L165.47226142909562,-323.02786917699285L173.57339029197206,-342.3925988747041z" style="fill:rgb(43,180,168)">
    </path>
    <path d="M-24.348180713725448,480.8900442671477L-31.11981305243842,472.5398071337876L-43.20875183106637,487.0996390217764z" style="fill:rgb(167,41,160)">
    </path>
    <path d="M-94.04774994132563,-108.38564664719208L235.6097790907117,-213.14683661013436L206.3798944469539,-431.97587954098196z" style="fill:rgb(0,0,0); fill-opacity: 0.2">
    </path>
    <path d="M175.88058168248023,-322.0356096194759L182.49789873763677,-323.8680806822738L173.57339029197206,-342.3925988747041z" style="fill:rgb(43,180,168)">
    </path>
    <path d="M18.3345806171464,257.6514190077452L-29.718154260450564,278.7961951457035" style="fill:none;stroke:rgb(167,41,160);stroke-width:5;stroke-linecap:round">
    </path>
    <path d="M165.47226142909562,-323.02786917699285L175.88058168248023,-322.0356096194759L173.57339029197206,-342.3925988747041z" style="fill:rgb(43,180,168)">
    </path>
    <path d="M-130.26231844679475,-349.7801320936835L-129.14596589552997,531.3321833718398" style="fill:none;stroke:rgb(0,0,0);stroke-width:1;stroke-linecap:round">
    </path>
    <path d="M145.08257444146685,-243.47592800548475L146.63546652715337,-316.7608632061978" style="fill:none;stroke:rgb(43,180,168);stroke-width:5;stroke-linecap:round">
    </path>
    <path d="M-82.9855668242104,-175.26430402443506L247.9762856459924,-274.2498322419467L235.6097790907117,-213.14683661013436z" style="fill:rgb(0,0,0); fill-opacity: 0.2">
    </path>
    <path d="M-30.830746294088375,432.5836935713735L-37.6929114649628,436.1342286899747L-42.960835022867506,447.07931478198094z" style="fill:rgb(167,41,160)">
    </path>
    <path d="M-26.7227292431557,449.6209329151078L-24.035386830806956,440.9271765868107L-42.960835022867506,447.07931478198094z" style="fill:rgb(167,41,160)">
    </path>
    <path d="M-24.035386830806956,440.9271765868107L-30.830746294088375,432.5836935713735L-42.960835022867506,447.07931478198094z" style="fill:rgb(167,41,160)">
    </path>
    <path d="M18.795879048358014,216.86392103068206L-29.419281664316365,237.4846743745357" style="fill:none;stroke:rgb(167,41,160);stroke-width:5;stroke-linecap:round">
    </path>
    <path d="M149.82517216759243,-321.1039793882742L149.56058861443162,-318.6412382319734L157.69914721071956,-338.103137452441z" style="fill:rgb(109,213,75)">
    </path>
    <path d="M160.0057681511666,-317.6395475627579L166.69033118131077,-319.4906404177758L157.69914721071956,-338.103137452441z" style="fill:rgb(109,213,75)">
    </path>
    <path d="M-30.539670692740813,392.3499086523618L-37.42619365061996,395.99011253009866L-42.711190373389925,406.780071300235z" style="fill:rgb(167,41,160)">
    </path>
    <path d="M149.56058861443162,-318.6412382319734L160.0057681511666,-317.6395475627579L157.69914721071956,-338.103137452441z" style="fill:rgb(109,213,75)">
    </path>
    <path d="M-26.417525135419083,409.46550882062246L-23.720417266790204,400.68634165521763L-42.711190373389925,406.780071300235z" style="fill:rgb(167,41,160)">
    </path>
    <path d="M-260.4257574103468,481.75091050423856L-271.28620778716487,-376.94718859874115L-129.14596589552997,531.3321833718398z" style="fill:rgb(0,0,0); fill-opacity: 0.2">
    </path>
    <path d="M-23.720417266790204,400.68634165521763L-30.539670692740813,392.3499086523618L-42.711190373389925,406.780071300235z" style="fill:rgb(167,41,160)">
    </path>
    <path d="M19.26039013066049,175.79236399119057L-29.118296960951035,195.88120859777754" style="fill:none;stroke:rgb(167,41,160);stroke-width:5;stroke-linecap:round">
    </path>
    <path d="M139.1577748471263,-318.1712038797165L138.86289316840734,-315.6920296584613L147.02659583524303,-335.21925208115726z" style="fill:rgb(43,180,168)">
    </path>
    <path d="M149.33276362701966,-314.6839733050049L156.06272838774638,-316.5476388321192L147.02659583524303,-335.21925208115726z" style="fill:rgb(43,180,168)">
    </path>
    <path d="M-30.24656523497429,351.8355478066875L-37.15761943085231,355.566585880913L-42.45979975633979,366.19898251371586z" style="fill:rgb(167,41,160)">
    </path>
    <path d="M138.86289316840734,-315.6920296584613L149.33276362701966,-314.6839733050049L147.02659583524303,-335.21925208115726z" style="fill:rgb(43,180,168)">
    </path>
    <path d="M-26.110193662828415,369.03018928648856L-23.403249242577562,360.1646291914677L-42.45979975633979,366.19898251371586z" style="fill:rgb(167,41,160)">
    </path>
    <path d="M118.26763032931207,-235.45599644160862L119.672059586639,-309.31825088016086" style="fill:none;stroke:rgb(43,180,168);stroke-width:5;stroke-linecap:round">
    </path>
    <path d="M-23.403249242577562,360.1646291914677L-30.24656523497429,351.8355478066875L-42.45979975633979,366.19898251371586z" style="fill:rgb(167,41,160)">
    </path>
    <path d="M19.728147542444994,134.4337700831082L-28.815177681839668,153.9826921157651" style="fill:none;stroke:rgb(167,41,160);stroke-width:5;stroke-linecap:round">
    </path>
    <path d="M-29.951408613261805,311.0376658116859L-36.887169356586504,314.86072143191313L-42.20664479098982,325.3330812873125z" style="fill:rgb(167,41,160)">
    </path>
    <path d="M15.632427217212598,496.57283923463336L23.591275915520843,-207.13977545900693L55.52386564440083,-155.9177035653209z" style="fill:rgb(0,0,0); fill-opacity: 0.2">
    </path>
    <path d="M-25.80071250503013,328.31203764428784L-23.083859659965565,319.3590881453616L-42.20664479098982,325.3330812873125z" style="fill:rgb(167,41,160)">
    </path>
    <path d="M-23.083859659965565,319.3590881453616L-29.951408613261805,311.0376658116859L-42.20664479098982,325.3330812873125z" style="fill:rgb(167,41,160)">
    </path>
    <path d="M20.19918543448983,92.78511973232105L-28.509901038640972,111.78597502098994" style="fill:none;stroke:rgb(167,41,160);stroke-width:5;stroke-linecap:round">
    </path>
    <path d="M-129.14596589552997,531.3321833718398L-130.26231844679475,-349.7801320936835L46.74646271699894,471.8550464472204z" style="fill:rgb(0,0,0); fill-opacity: 0.2">
    </path>
    <path d="M-29.654179220807347,269.9532760783743L-36.614823706113285,273.86955083773665L-41.95170683769924,284.1793586904379z" style="fill:rgb(167,41,160)">
    </path>
    <path d="M112.17099485206039,-310.7517589067128L111.79857658267265,-308.2307670983503L120.02581780952003,-327.9232320366356z" style="fill:rgb(43,180,168)">
    </path>
    <path d="M-25.489059028327308,287.3080759993102L-22.762225096037284,278.266725980985L-41.95170683769924,284.1793586904379z" style="fill:rgb(167,41,160)">
    </path>
    <path d="M-22.762225096037284,278.266725980985L-29.654179220807347,269.9532760783743L-41.95170683769924,284.1793586904379z" style="fill:rgb(167,41,160)">
    </path>
    <path d="M122.33058919285686,-307.20651637332156L129.1761027670046,-309.1021797411274L120.02581780952003,-327.9232320366356z" style="fill:rgb(43,180,168)">
    </path>
    <path d="M111.79857658267265,-308.2307670983503L122.33058919285686,-307.20651637332156L120.02581780952003,-327.9232320366356z" style="fill:rgb(43,180,168)">
    </path>
    <path d="M20.673538438272015,50.843350861869226L-28.202443917476263,69.28786240869896" style="fill:none;stroke:rgb(167,41,160);stroke-width:5;stroke-linecap:round">
    </path>
    <path d="M55.52386564440083,-155.9177035653209L-130.26231844679475,-349.7801320936835" style="fill:none;stroke:rgb(0,0,0);stroke-width:1;stroke-linecap:round">
    </path>
    <path d="M55.52386564440083,-155.9177035653209L-130.26231844679475,-349.7801320936835" style="fill:none;stroke:rgb(0,0,0);stroke-width:1;stroke-linecap:round">
    </path>
    <path d="M-94.04774994132563,-108.38564664719208L55.52386564440083,-155.9177035653209" style="fill:none;stroke:rgb(0,0,0);stroke-width:1;stroke-linecap:round">
    </path>
    <path d="M23.591275915520843,-207.13977545900693L55.52386564440083,-155.9177035653209" style="fill:none;stroke:rgb(0,0,0);stroke-width:1;stroke-linecap:round">
    </path>
    <path d="M23.591275915520843,-207.13977545900693L55.52386564440083,-155.9177035653209" style="fill:none;stroke:rgb(0,0,0);stroke-width:1;stroke-linecap:round">
    </path>
    <path d="M90.99365769788184,-227.29877660686913L92.24427498178748,-301.7474580561565" style="fill:none;stroke:rgb(43,180,168);stroke-width:5;stroke-linecap:round">
    </path>
    <path d="M-29.354855146273184,228.5793499226436L-36.34056248029348,232.5900639966051L-41.69496699333886,242.73476325850766z" style="fill:rgb(167,41,160)">
    </path>
    <path d="M-25.175210280161817,246.01528450456325L-22.43832179743635,236.88450794513247L-41.69496699333886,242.73476325850766z" style="fill:rgb(167,41,160)">
    </path>
    <path d="M46.74646271699894,471.8550464472204L55.52386564440083,-155.9177035653209L-130.26231844679475,-349.7801320936835z" style="fill:rgb(0,0,0); fill-opacity: 0.2">
    </path>
    <path d="M-22.43832179743635,236.88450794513247L-29.354855146273184,228.5793499226436L-41.69496699333886,242.73476325850766z" style="fill:rgb(167,41,160)">
    </path>
    <path d="M21.151241674454834,8.605358141479643L-27.89278287309574,26.48511357051782" style="fill:none;stroke:rgb(167,41,160);stroke-width:5;stroke-linecap:round">
    </path>
    <path d="M-271.28620778716487,-376.94718859874115L69.78305394172797,-454.34873168920853L-130.26231844679475,-349.7801320936835z" style="fill:rgb(0,0,0); fill-opacity: 0.2">
    </path>
    <path d="M-29.053414168395477,186.91281582098708L-36.06436539766232,191.01920831348525L-41.43640608661869,200.99620023870256z" style="fill:rgb(167,41,160)">
    </path>
    <path d="M-24.859142983479266,204.43060061938704L-22.11212567451909,195.2093563201957L-41.43640608661869,200.99620023870256z" style="fill:rgb(167,41,160)">
    </path>
    <path d="M-22.11212567451909,195.2093563201957L-29.053414168395477,186.91281582098708L-41.43640608661869,200.99620023870256z" style="fill:rgb(167,41,160)">
    </path>
    <path d="M21.632330761555995,-33.93200777885727L-27.58089412291868,-16.625558829328515" style="fill:none;stroke:rgb(167,41,160);stroke-width:5;stroke-linecap:round">
    </path>
    <path d="M84.72013657681086,-303.20472541578954L84.26754348851027,-300.64083716917844L92.55931024446942,-320.5013648016729z" style="fill:rgb(43,180,168)">
    </path>
    <path d="M94.862293484462,-299.5999808831129L101.82635746134133,-301.52847329336566L92.55931024446942,-320.5013648016729z" style="fill:rgb(43,180,168)">
    </path>
    <path d="M84.26754348851027,-300.64083716917844L94.862293484462,-299.5999808831129L92.55931024446942,-320.5013648016729z" style="fill:rgb(43,180,168)">
    </path>
    <path d="M-28.749833750484964,144.9505586503822L-35.78621188943005,149.1538879475932L-41.176004673315845,158.9605308196256z" style="fill:rgb(167,41,160)">
    </path>
    <path d="M63.2487680513341,-219.0007128375791L64.34001188272315,-294.04514458559805" style="fill:none;stroke:rgb(43,180,168);stroke-width:5;stroke-linecap:round">
    </path>
    <path d="M-24.54083353097425,162.55091835229058L-21.783612295382294,153.23814966112897L-41.176004673315845,158.9605308196256z" style="fill:rgb(167,41,160)">
    </path>
    <path d="M-21.783612295382294,153.23814966112897L-28.749833750484964,144.9505586503822L-41.176004673315845,158.9605308196256z" style="fill:rgb(167,41,160)">
    </path>
    <path d="M22.11684182480068,-76.77194105166681L-27.26675354094465,-60.04748959563914" style="fill:none;stroke:rgb(167,41,160);stroke-width:5;stroke-linecap:round">
    </path>
    <path d="M-28.444091034810437,102.68941891192989L-35.506081094375524,106.99096304385111L-40.91374303140029,116.62457134444891z" style="fill:rgb(167,41,160)">
    </path>
    <path d="M-24.220257979212445,120.37308748761677L-21.45275687976304,110.96772201609531L-40.91374303140029,116.62457134444891z" style="fill:rgb(167,41,160)">
    </path>
    <path d="M-21.45275687976304,110.96772201609531L-28.444091034810437,102.68941891192989L-40.91374303140029,116.62457134444891z" style="fill:rgb(167,41,160)">
    </path>
    <path d="M22.60481150516419,-119.91768143153105L-26.950336651532357,-103.78406186215459" style="fill:none;stroke:rgb(167,41,160);stroke-width:5;stroke-linecap:round">
    </path>
    <path d="M-94.04774994132563,-108.38564664719208L235.6097790907117,-213.14683661013436L-82.9855668242104,-175.26430402443506z" style="fill:rgb(0,0,0); fill-opacity: 0.2">
    </path>
    <path d="M56.79312541460224,-295.52678374893077L56.25761629446694,-292.91888267524877L64.61491843820649,-312.95036599133397z" style="fill:rgb(43,180,168)">
    </path>
    <path d="M-28.136162836861562,60.126191937846L-35.223951853630815,64.52724894789445L-40.64960115605541,73.98509250713767z" style="fill:rgb(167,41,160)">
    </path>
    <path d="M66.91570189023209,-291.86099543426656L74.00142272887264,-293.82317712930194L64.61491843820649,-312.95036599133397z" style="fill:rgb(43,180,168)">
    </path>
    <path d="M-23.897392042626898,77.89391279563269L-21.119534292807675,68.39486213038485L-40.64960115605541,73.98509250713767z" style="fill:rgb(167,41,160)">
    </path>
    <path d="M-21.119534292807675,68.39486213038485L-28.136162836861562,60.126191937846L-40.64960115605541,73.98509250713767z" style="fill:rgb(167,41,160)">
    </path>
    <path d="M56.25761629446694,-292.91888267524877L66.91570189023209,-291.86099543426656L64.61491843820649,-312.95036599133397z" style="fill:rgb(43,180,168)">
    </path>
    <path d="M23.096276968608976,-163.37251509181488L-26.631618623042698,-147.83870797023707" style="fill:none;stroke:rgb(167,41,160);stroke-width:5;stroke-linecap:round">
    </path>
    <path d="M35.02065878120565,-210.55812561542524L35.94674534176133,-286.2078532521838" style="fill:none;stroke:rgb(43,180,168);stroke-width:5;stroke-linecap:round">
    </path>
    <path d="M-27.826025639488275,17.25762708138502L-34.939802705353706,21.759515404220174L-40.38355875459155,31.03881853132388z" style="fill:rgb(167,41,160)">
    </path>
    <path d="M-130.26231844679475,-349.7801320936835L206.3798944469539,-431.97587954098196L-94.04774994132563,-108.38564664719208z" style="fill:rgb(0,0,0); fill-opacity: 0.2">
    </path>
    <path d="M-23.57221108738517,35.110153225627755L-20.78391903870665,25.516312633184324L-40.38355875459155,31.03881853132388z" style="fill:rgb(167,41,160)">
    </path>
    <path d="M-20.78391903870665,25.516312633184324L-27.826025639488275,17.25762708138502L-40.38355875459155,31.03881853132388z" style="fill:rgb(167,41,160)">
    </path>
    <path d="M23.591275915520843,-207.13977545900693L-82.9855668242104,-175.26430402443506" style="fill:none;stroke:rgb(22,31,115);stroke-width:5;stroke-linecap:round">
    </path>
    <path d="M23.5912759155209,-207.13977545900693L24.449628297108188,-283.0343453487054" style="fill:none;stroke:rgb(74,87,214);stroke-width:5;stroke-linecap:round">
    </path>
    <path d="M23.591275915520843,-207.13977545900693L-26.310574261342726,-192.21491036679004" style="fill:none;stroke:rgb(167,41,160);stroke-width:5;stroke-linecap:round">
    </path>
    <path d="M55.52386564440083,-155.9177035653209L-94.04774994132563,-108.38564664719208L23.591275915520843,-207.13977545900693z" style="fill:rgb(0,0,0); fill-opacity: 0.2">
    </path>
    <path d="M-129.14596589552997,531.3321833718398L-130.26231844679475,-349.7801320936835L-271.28620778716487,-376.94718859874115z" style="fill:rgb(0,0,0); fill-opacity: 0.2">
    </path>
    <path d="M-27.51365558691374,-25.91957311073128L-34.65361187928529,-21.31551426295092L-40.11559524124897,-12.217573668607614z" style="fill:rgb(167,41,160)">
    </path>
    <path d="M-23.244690125123906,-7.981478918407774L-20.44588525419153,-17.671230793234646L-40.11559524124897,-12.217573668607614z" style="fill:rgb(167,41,160)">
    </path>
    <path d="M-20.44588525419153,-17.671230793234646L-27.51365558691374,-25.91957311073128L-40.11559524124897,-12.217573668607614z" style="fill:rgb(167,41,160)">
    </path>
    <path d="M28.37746421024676,-287.71449807736207L27.756190040985107,-285.06142860131297L36.18006102267987,-305.2668359290094z" style="fill:rgb(43,180,168)">
    </path>
    <path d="M38.478212090235274,-283.9860701854455L45.688805739645076,-285.982831727624L36.18006102267987,-305.2668359290094z" style="fill:rgb(43,180,168)">
    </path>
    <path d="M27.756190040985107,-285.06142860131297L38.478212090235274,-283.9860701854455L36.18006102267987,-305.2668359290094z" style="fill:rgb(43,180,168)">
    </path>
    <path d="M-31.72015860682915,-53.583044748243275L-22.914803806547845,-51.384318819963035L-39.84568973188801,-55.78745534467341z" style="fill:rgb(167,41,160)">
    </path>
    <path d="M6.296594977004972,-201.96720612729993L7.051507548212185,-278.23200459772823" style="fill:none;stroke:rgb(43,180,168);stroke-width:5;stroke-linecap:round">
    </path>
    <path d="M-27.19902847861726,-69.40875374382551L-34.36535729118993,-64.70116398653136L-39.84568973188801,-55.78745534467341z" style="fill:rgb(167,41,160)">
    </path>
    <path d="M-130.26231844679475,-349.7801320936835L-271.28620778716487,-376.94718859874115" style="fill:none;stroke:rgb(0,0,0);stroke-width:1;stroke-linecap:round">
    </path>
    <path d="M-130.26231844679475,-349.7801320936835L-271.28620778716487,-376.94718859874115" style="fill:none;stroke:rgb(0,0,0);stroke-width:1;stroke-linecap:round">
    </path>
    <path d="M-22.914803806547845,-51.384318819963035L-20.10540670189121,-61.171120262352595L-39.84568973188801,-55.78745534467341z" style="fill:rgb(167,41,160)">
    </path>
    <path d="M-20.10540670189121,-61.171120262352595L-27.19902847861726,-69.40875374382551L-39.84568973188801,-55.78745534467341z" style="fill:rgb(167,41,160)">
    </path>
    <path d="M16.871494792859437,-284.55117488841626L16.215091768809025,-281.87970538402925L24.665885074308353,-302.1555308238219z" style="fill:rgb(74,87,214)">
    </path>
    <path d="M26.962857159173335,-280.79723179170765L34.22432584510142,-282.8080816768598L24.665885074308353,-302.1555308238219z" style="fill:rgb(74,87,214)">
    </path>
    <path d="M16.215091768809025,-281.87970538402925L26.962857159173335,-280.79723179170765L24.665885074308353,-302.1555308238219z" style="fill:rgb(74,87,214)">
    </path>
    <path d="M-31.420337975543386,-97.22904938745774L-22.582526414889628,-95.10175001050023L-39.57382103856343,-99.67424679114852z" style="fill:rgb(167,41,160)">
    </path>
    <path d="M-26.882119763084393,-113.21330843917009L-34.075016537174385,-108.40080581159465L-39.57382103856343,-99.67424679114852z" style="fill:rgb(167,41,160)">
    </path>
    <path d="M-22.582526414889628,-95.10175001050023L-19.762456763543124,-104.98675655072405L-39.57382103856343,-99.67424679114852z" style="fill:rgb(167,41,160)">
    </path>
    <path d="M-19.762456763543124,-104.98675655072405L-26.882119763084393,-113.21330843917009L-39.57382103856343,-99.67424679114852z" style="fill:rgb(167,41,160)">
    </path>
    <path d="M-11.181367633671984,-196.73982010600756L-10.532148524386313,-273.3784511980621" style="fill:none;stroke:rgb(74,87,214);stroke-width:5;stroke-linecap:round">
    </path>
    <path d="M-0.5397853867359723,-279.76431127498495L-1.2497865134495796,-277.06487689828066L7.24171107635802,-297.4472545427766z" style="fill:rgb(43,180,168)">
    </path>
    <path d="M-31.118340262797467,-141.19197987364282L-22.247831859226707,-139.13720524872838L-39.29996766397973,-143.88141823960578z" style="fill:rgb(167,41,160)">
    </path>
    <path d="M-26.562904531420372,-157.33668021675624L-33.78256688788328,-152.41786076903404L-39.29996766397973,-143.88141823960578z" style="fill:rgb(167,41,160)">
    </path>
    <path d="M9.53677510742121,-275.9715916067787L16.875571873282208,-278.00385522617364L7.24171107635802,-297.4472545427766z" style="fill:rgb(43,180,168)">
    </path>
    <path d="M55.52386564440083,-155.9177035653209L-94.04774994132563,-108.38564664719208L-130.26231844679475,-349.7801320936835z" style="fill:rgb(0,0,0); fill-opacity: 0.2">
    </path>
    <path d="M-1.2497865134495796,-277.06487689828066L9.53677510742121,-275.9715916067787L7.24171107635802,-297.4472545427766z" style="fill:rgb(43,180,168)">
    </path>
    <path d="M-22.247831859226707,-139.13720524872838L-19.417008433056374,-149.12158998425437L-39.29996766397973,-143.88141823960578z" style="fill:rgb(167,41,160)">
    </path>
    <path d="M-19.417008433056374,-149.12158998425437L-26.562904531420372,-157.33668021675624L-39.29996766397973,-143.88141823960578z" style="fill:rgb(167,41,160)">
    </path>
    <path d="M-22.936609730430188,-193.22401053584838L-22.359131919885627,-270.11389147111913" style="fill:none;stroke:rgb(43,180,168);stroke-width:5;stroke-linecap:round">
    </path>
    <path d="M-30.814141669589734,-185.4753007160068L-21.910693667652108,-183.49416741913353L-39.02410779582482,-188.41249077362855z" style="fill:rgb(167,41,160)">
    </path>
    <path d="M-26.241357510823683,-201.782362397407L-33.487985282567536,-196.7557997683285L-39.02410779582482,-188.41249077362855z" style="fill:rgb(167,41,160)">
    </path>
    <path d="M-130.26231844679475,-349.7801320936835L-130.26231844679475,-349.7801320936835L55.52386564440083,-155.9177035653209z" style="fill:rgb(0,0,0); fill-opacity: 0.2">
    </path>
    <path d="M-21.910693667652108,-183.49416741913353L-19.069034309422552,-193.5791213439173L-39.02410779582482,-188.41249077362855z" style="fill:rgb(167,41,160)">
    </path>
    <path d="M-19.069034309422552,-193.5791213439173L-26.241357510823683,-201.782362397407L-39.02410779582482,-188.41249077362855z" style="fill:rgb(167,41,160)">
    </path>
    <path d="M-18.136451852726804,-274.926479619019L-18.901159834488535,-272.19863427664995L-10.368568150764647,-292.6886898040752z" style="fill:rgb(74,87,214)">
    </path>
    <path d="M-8.075584185361112,-271.0943674262516L-0.6582175185964819,-273.14838866563235L-10.368568150764647,-292.6886898040752z" style="fill:rgb(74,87,214)">
    </path>
    <path d="M-18.901159834488535,-272.19863427664995L-8.075584185361112,-271.0943674262516L-10.368568150764647,-292.6886898040752z" style="fill:rgb(74,87,214)">
    </path>
    <path d="M23.591275915520843,-207.13977545900693L-82.9855668242104,-175.26430402443506L-94.04774994132563,-108.38564664719208z" style="fill:rgb(0,0,0); fill-opacity: 0.2">
    </path>
    <path d="M-29.972022565247574,-271.67253951791406L-30.77383081960567,-268.9255009895355L-22.2136237753527,-289.48797598823126z" style="fill:rgb(43,180,168)">
    </path>
    <path d="M-46.69891674622023,-186.1170751169502L-46.26806600818487,-263.51439431037255" style="fill:none;stroke:rgb(74,87,214);stroke-width:5;stroke-linecap:round">
    </path>
    <path d="M-19.92212465756202,-267.81381695109235L-12.451674984289426,-269.8825379657055L-22.2136237753527,-289.48797598823126z" style="fill:rgb(43,180,168)">
    </path>
    <path d="M-30.77383081960567,-268.9255009895355L-19.92212465756202,-267.81381695109235L-22.2136237753527,-289.48797598823126z" style="fill:rgb(43,180,168)">
    </path>
    <path d="M-52.69261335335182,-184.32445394262356L-52.29908691028365,-261.8496732829602" style="fill:none;stroke:rgb(43,180,168);stroke-width:5;stroke-linecap:round">
    </path>
    <path d="M-94.04774994132563,-108.38564664719208L-130.26231844679475,-349.7801320936835" style="fill:none;stroke:rgb(0,0,0);stroke-width:1;stroke-linecap:round">
    </path>
    <path d="M-94.04774994132563,-108.38564664719208L-130.26231844679475,-349.7801320936835" style="fill:none;stroke:rgb(0,0,0);stroke-width:1;stroke-linecap:round">
    </path>
    <path d="M-82.9855668242104,-175.26430402443506L-94.04774994132563,-108.38564664719208" style="fill:none;stroke:rgb(0,0,0);stroke-width:1;stroke-linecap:round">
    </path>
    <path d="M-82.9855668242104,-175.26430402443506L-94.04774994132563,-108.38564664719208" style="fill:none;stroke:rgb(0,0,0);stroke-width:1;stroke-linecap:round">
    </path>
    <path d="M-53.89791448571988,-265.09462104944777L-54.77546925052088,-262.30857698044L-46.15949764169235,-283.01743741538127z" style="fill:rgb(74,87,214)">
    </path>
    <path d="M-43.87121092211024,-261.181822867321L-36.292871334883856,-263.2804208159908L-46.15949764169235,-283.01743741538127z" style="fill:rgb(74,87,214)">
    </path>
    <path d="M-54.77546925052088,-262.30857698044L-43.87121092211024,-261.181822867321L-46.15949764169235,-283.01743741538127z" style="fill:rgb(74,87,214)">
    </path>
    <path d="M-59.93312805464179,-263.4353665928906L-60.82994754217259,-260.63943998023524L-52.1999223358228,-281.38522298053z" style="fill:rgb(43,180,168)">
    </path>
    <path d="M-49.91249047212282,-259.5088684259067L-42.30681320809298,-261.6150367390079L-52.1999223358228,-281.38522298053z" style="fill:rgb(43,180,168)">
    </path>
    <path d="M-60.82994754217259,-260.63943998023524L-49.91249047212282,-259.5088684259067L-52.1999223358228,-281.38522298053z" style="fill:rgb(43,180,168)">
    </path>
    <path d="M-82.9855668242104,-175.26430402443506L-82.78277664507068,-253.43536994719332" style="fill:none;stroke:rgb(74,87,214);stroke-width:5;stroke-linecap:round">
    </path>
    <path d="M-82.98556682421027,-175.26430402443503L-82.78277664507056,-253.43536994719327" style="fill:none;stroke:rgb(43,180,168);stroke-width:5;stroke-linecap:round">
    </path>
    <path d="M-130.26231844679475,-349.7801320936835L-130.26231844679475,-349.7801320936835" style="fill:none;stroke:rgb(0,0,0);stroke-width:1;stroke-linecap:round">
    </path>
    <path d="M-90.43748595285895,-255.0488378960986L-91.43265071037047,-252.2026925506911L-82.73167195756041,-273.13508081713405z" style="fill:rgb(43,180,168)">
    </path>
    <path d="M-90.43748595285908,-255.0488378960986L-91.43265071037064,-252.20269255069098L-82.73167195756054,-273.13508081713394z" style="fill:rgb(74,87,214)">
    </path>
    <path d="M-80.44883546690397,-251.05272704713627L-72.7042253329721,-253.19736872665555L-82.73167195756041,-273.13508081713405z" style="fill:rgb(43,180,168)">
    </path>
    <path d="M-80.44883546690416,-251.05272704713627L-72.70422533297223,-253.19736872665547L-82.73167195756054,-273.13508081713394z" style="fill:rgb(74,87,214)">
    </path>
    <path d="M-91.43265071037047,-252.2026925506911L-80.44883546690397,-251.05272704713627L-82.73167195756041,-273.13508081713405z" style="fill:rgb(43,180,168)">
    </path>
    <path d="M-91.43265071037064,-252.20269255069098L-80.44883546690416,-251.05272704713627L-82.73167195756054,-273.13508081713394z" style="fill:rgb(74,87,214)">
    </path>
</svg>