<svg viewBox="-812 -697.5 1624 1395" width="1624" height="1395" style="background-color: rgb(255, 255, 255);">
    <path d="M11.001062029553534,172.77885068340893L-4.366605850340843,-425.0894943038573" style="fill:none;stroke:rgb(0,0,0);stroke-width:1;stroke-linecap:round">
    </path>
    <path d="M210.94165058371198,225.4334857586594L11.001062029553534,172.77885068340893" style="fill:none;stroke:rgb(160,0,0);stroke-width:4;stroke-linecap:round">
    </path>
    <path d="M205.97409529751351,-393.2795235846377L210.94165058371198,225.4334857586594" style="fill:none;stroke:rgb(104,70,1);stroke-width:5;stroke-linecap:round">
    </path>
    <path d="M210.94165058371198,225.4334857586594L298.76354443979756,248.56150496701034" style="fill:none;stroke:rgb(197,147,42);stroke-width:5;stroke-linecap:round">
    </path>
    <path d="M210.46835250909044,166.48382960102148L298.7508310472175,188.79082515716667" style="fill:none;stroke:rgb(197,147,42);stroke-width:5;stroke-linecap:round">
    </path>
    <path d="M205.97409529751351,-393.2795235846377L210.94165058371198,225.4334857586594L11.001062029553534,172.77885068340893z" style="fill:rgb(0,0,0); fill-opacity: 0.2">
    </path>
    <path d="M209.99006162435674,106.91231492512964L298.7379813814844,128.3794714316812" style="fill:none;stroke:rgb(197,147,42);stroke-width:5;stroke-linecap:round">
    </path>
    <path d="M-4.366605850340843,-425.0894943038573L11.001062029553534,172.77885068340893L205.97409529751351,-393.2795235846377z" style="fill:rgb(0,0,0); fill-opacity: 0.2">
    </path>
    <path d="M205.97409529751351,-393.2795235846377L-4.366605850340843,-425.0894943038573" style="fill:none;stroke:rgb(0,0,0);stroke-width:1;stroke-linecap:round">
    </path>
    <path d="M-4.366605850340843,-425.0894943038573L-541.2802754254783,-257.65937351057715" style="fill:none;stroke:rgb(0,0,0);stroke-width:1;stroke-linecap:round">
    </path>
    <path d="M205.97409529751351,-393.2795235846377L-4.366605850340843,-425.0894943038573" style="fill:none;stroke:rgb(0,0,0);stroke-width:1;stroke-linecap:round">
    </path>
    <path d="M209.50669850704557,46.709049599012914L298.72499323975154,67.31708733893832" style="fill:none;stroke:rgb(197,147,42);stroke-width:5;stroke-linecap:round">
    </path>
    <path d="M305.8744317369889,240.69638575092253L298.7609069472641,236.16161086155637L321.15806724311864,254.45913402982484z" style="fill:rgb(197,147,42)">
    </path>
    <path d="M291.6170256917106,248.78821811102236L294.3588720334942,261.09470124304653L321.15806724311864,254.45913402982484z" style="fill:rgb(197,147,42)">
    </path>
    <path d="M298.7609069472641,236.16161086155637L291.6170256917106,248.78821811102236L321.15806724311864,254.45913402982484z" style="fill:rgb(197,147,42)">
    </path>
    <path d="M209.0181820411755,-14.136069438111484L298.7118643714367,5.593092002910339" style="fill:none;stroke:rgb(197,147,42);stroke-width:5;stroke-linecap:round">
    </path>
    <path d="M305.89957387581364,181.0063582481991L298.74816534379494,176.2583005190346L321.26516487594637,194.47969063742303z" style="fill:rgb(197,147,42)">
    </path>
    <path d="M291.5660755859251,188.85452864768777L294.32265683043505,201.35601752939164L321.26516487594637,194.47969063742303z" style="fill:rgb(197,147,42)">
    </path>
    <path d="M298.74816534379494,176.2583005190346L291.5660755859251,188.85452864768777L321.26516487594637,194.47969063742303z" style="fill:rgb(197,147,42)">
    </path>
    <path d="M208.52442937186854,-75.63336182798248L298.69859247692193,-56.80332598905487" style="fill:none;stroke:rgb(197,147,42);stroke-width:5;stroke-linecap:round">
    </path>
    <path d="M305.9249849546003,120.6778395718355L298.73528701212007,115.71217687968768L321.3734151146073,133.85473665336096z" style="fill:rgb(197,147,42)">
    </path>
    <path d="M291.5145778442126,128.27664343464076L294.2860532138756,140.97662744685138L321.3734151146073,133.85473665336096z" style="fill:rgb(197,147,42)">
    </path>
    <path d="M298.73528701212007,115.71217687968768L291.5145778442126,128.27664343464076L321.3734151146073,133.85473665336096z" style="fill:rgb(197,147,42)">
    </path>
    <path d="M208.02535585850296,-137.79336962816708L298.6851752062105,-119.88321489929947" style="fill:none;stroke:rgb(197,147,42);stroke-width:5;stroke-linecap:round">
    </path>
    <path d="M305.95066931174034,59.70052993381334L298.7222697395533,54.51283723122503L321.48283666662536,72.57379503129464z" style="fill:rgb(197,147,42)">
    </path>
    <path d="M291.4625235894891,67.04412016981662L294.2490549014361,79.94616791434932L321.48283666662536,72.57379503129464z" style="fill:rgb(197,147,42)">
    </path>
    <path d="M298.7222697395533,54.51283723122503L291.4625235894891,67.04412016981662L321.48283666662536,72.57379503129464z" style="fill:rgb(197,147,42)">
    </path>
    <path d="M207.52087502634313,-200.62686333659033L298.67161015753993,-183.65786636151813" style="fill:none;stroke:rgb(197,147,42);stroke-width:5;stroke-linecap:round">
    </path>
    <path d="M305.97663137944227,-1.9360931855587962L298.7091112654052,-7.350346820240332L321.59344864657305,10.626160759395137z" style="fill:rgb(197,147,42)">
    </path>
    <path d="M291.4099037517667,5.146289634502117L294.21165547451716,18.25405114964866L321.59344864657305,10.626160759395137z" style="fill:rgb(197,147,42)">
    </path>
    <path d="M298.7091112654052,-7.350346820240332L291.4099037517667,5.146289634502117L321.59344864657305,10.626160759395137z" style="fill:rgb(197,147,42)">
    </path>
    <path d="M207.0108985165888,-264.14484811295347L298.65789487594895,-248.1388221191026" style="fill:none;stroke:rgb(197,147,42);stroke-width:5;stroke-linecap:round">
    </path>
    <path d="M306.0028756862816,-64.24278109105346L298.6958092796744,-69.88823550362589L321.7052705872035,-51.9991053738153z" style="fill:rgb(197,147,42)">
    </path>
    <path d="M291.35670906288584,-57.427750504104L294.1738483745873,-44.11054145404388L321.7052705872035,-51.9991053738153z" style="fill:rgb(197,147,42)">
    </path>
    <path d="M298.6958092796744,-69.88823550362589L291.35670906288584,-57.427750504104L321.7052705872035,-51.9991053738153z" style="fill:rgb(197,147,42)">
    </path>
    <path d="M206.4953360347826,-328.35857020458997L298.64402685179584,-313.3378809886147" style="fill:none;stroke:rgb(197,147,42);stroke-width:5;stroke-linecap:round">
    </path>
    <path d="M291.3029300510726,-120.68914209455937L294.1356268993486,-107.15866565281574L321.81832245094887,-115.31318321933428z" style="fill:rgb(197,147,42)">
    </path>
    <path d="M298.6823614216955,-133.11192723875388L291.3029300510726,-120.68914209455937L321.81832245094887,-115.31318321933428z" style="fill:rgb(197,147,42)">
    </path>
    <path d="M205.97409529751351,-393.2795235846377L298.63000351922784,-379.2671060572109" style="fill:none;stroke:rgb(197,147,42);stroke-width:5;stroke-linecap:round">
    </path>
    <path d="M-320.00365458698536,-212.63609722758073L205.97409529751351,-393.2795235846377" style="fill:none;stroke:rgb(45,114,23);stroke-width:5;stroke-linecap:round">
    </path>
    <path d="M205.97409529751351,-393.2795235846377L298.63000351922784,-379.2671060572109" style="fill:none;stroke:rgb(109,213,75);stroke-width:5;stroke-linecap:round">
    </path>
    <path d="M291.2485570353161,-184.64927311497135L294.0969841987759,-170.90162088589435L321.93262464180117,-179.3274999212211z" style="fill:rgb(197,147,42)">
    </path>
    <path d="M298.6687652787428,-197.03276520247678L291.2485570353161,-184.64927311497135L321.93262464180117,-179.3274999212211z" style="fill:rgb(197,147,42)">
    </path>
    <path d="M291.19358011955916,-249.31978450716022L294.05791327102406,-235.35095702671128L322.04819801758873,-244.0537367921256z" style="fill:rgb(197,147,42)">
    </path>
    <path d="M298.655018384587,-261.66234411321494L291.19358011955916,-249.31978450716022L322.04819801758873,-244.0537367921256z" style="fill:rgb(197,147,42)">
    </path>
    <path d="M168.07223427073797,-380.26239112477754L261.24134831684364,-365.8529376599667" style="fill:none;stroke:rgb(109,213,75);stroke-width:5;stroke-linecap:round">
    </path>
    <path d="M291.1379891866938,-314.7125772398084L294.0184069581986,-300.5184813596577L322.16506390266494,-309.50383641949406z" style="fill:rgb(197,147,42)">
    </path>
    <path d="M298.6411182180036,-327.0125172424294L291.1379891866938,-314.7125772398084L322.16506390266494,-309.50383641949406z" style="fill:rgb(197,147,42)">
    </path>
    <path d="M291.0817738923542,-380.8398196095947L293.97845794198355,-366.41626579138085L322.28324410102476,-375.6900100115306z" style="fill:rgb(197,147,42)">
    </path>
    <path d="M291.0817738923542,-380.8398196095947L293.97845794198355,-366.41626579138085L322.28324410102476,-375.6900100115306z" style="fill:rgb(109,213,75)">
    </path>
    <path d="M298.62706220123175,-393.0954036619335L291.0817738923542,-380.8398196095947L322.28324410102476,-375.6900100115306z" style="fill:rgb(197,147,42)">
    </path>
    <path d="M298.62706220123175,-393.0954036619335L291.0817738923542,-380.8398196095947L322.28324410102476,-375.6900100115306z" style="fill:rgb(109,213,75)">
    </path>
    <path d="M129.22650216726035,-366.92109266099L222.90553871071168,-352.09895258300253" style="fill:none;stroke:rgb(109,213,75);stroke-width:5;stroke-linecap:round">
    </path>
    <path d="M253.48915820820113,-367.40617583193244L256.50839604161797,-352.8329407582694L285.0317801836312,-362.17353033274253z" style="fill:rgb(109,213,75)">
    </path>
    <path d="M261.1941560741703,-379.8385398599261L253.48915820820113,-367.40617583193244L285.0317801836312,-362.17353033274253z" style="fill:rgb(109,213,75)">
    </path>
    <path d="M89.40119656724637,-353.24336644370567L183.58612205682584,-337.9920724766808" style="fill:none;stroke:rgb(109,213,75);stroke-width:5;stroke-linecap:round">
    </path>
    <path d="M-320.00365458698536,-212.63609722758073L205.97409529751351,-393.2795235846377L-4.366605850340843,-425.0894943038573z" style="fill:rgb(0,0,0); fill-opacity: 0.2">
    </path>
    <path d="M214.9414026467563,-353.63121478661367L218.08852129531047,-338.90529772959775L246.8325494308553,-348.3131589025032z" style="fill:rgb(109,213,75)">
    </path>
    <path d="M222.81183894194118,-366.24544214797527L214.9414026467563,-353.63121478661367L246.8325494308553,-348.3131589025032z" style="fill:rgb(109,213,75)">
    </path>
    <path d="M48.55879144078476,-339.2163244170663L143.2447508231243,-323.51853915018364" style="fill:none;stroke:rgb(109,213,75);stroke-width:5;stroke-linecap:round">
    </path>
    <path d="M-541.2802754254783,-257.65937351057715L-492.39563022670825,422.3396416438716" style="fill:none;stroke:rgb(0,0,0);stroke-width:1;stroke-linecap:round">
    </path>
    <path d="M-282.38498148578583,494.3366750439208L-492.39563022670825,422.3396416438716" style="fill:none;stroke:rgb(160,0,0);stroke-width:4;stroke-linecap:round">
    </path>
    <path d="M175.4016370317799,-339.5017609921079L178.68225549042714,-324.6200766858694L207.6489155837841,-334.0956024647353z" style="fill:rgb(109,213,75)">
    </path>
    <path d="M183.4435269919603,-352.30315436875986L175.4016370317799,-339.5017609921079L207.6489155837841,-334.0956024647353z" style="fill:rgb(109,213,75)">
    </path>
    <path d="M6.659819208798292,-324.82641171355885L101.84105784281338,-308.6638698153455" style="fill:none;stroke:rgb(109,213,75);stroke-width:5;stroke-linecap:round">
    </path>
    <path d="M134.83106877426553,-325.00395199664274L138.25111777362696,-309.9633278786189L167.44232948570323,-319.506873679384z" style="fill:rgb(109,213,75)">
    </path>
    <path d="M143.05073236850473,-337.99804604807576L134.83106877426553,-325.00395199664274L167.44232948570323,-319.506873679384z" style="fill:rgb(109,213,75)">
    </path>
    <path d="M-36.33725646901647,-310.0593629639116L59.332521581225066,-293.4128087475767" style="fill:none;stroke:rgb(109,213,75);stroke-width:5;stroke-linecap:round">
    </path>
    <path d="M-541.2802754254783,-257.65937351057715L-4.366605850340843,-425.0894943038573L-320.00365458698536,-212.63609722758073z" style="fill:rgb(0,0,0); fill-opacity: 0.2">
    </path>
    <path d="M93.18885592430219,-310.12319301354785L96.7545993120212,-294.9203663936527L126.1722025826181,-304.5322452228068z" style="fill:rgb(109,213,75)">
    </path>
    <path d="M101.59293766727886,-323.3157679470865L93.18885592430219,-310.12319301354785L126.1722025826181,-304.5322452228068z" style="fill:rgb(109,213,75)">
    </path>
    <path d="M-492.39563022670825,422.3396416438716L-541.2802754254783,-257.65937351057715L-282.38498148578583,494.3366750439208z" style="fill:rgb(0,0,0); fill-opacity: 0.2">
    </path>
    <path d="M-80.4761780411174,-294.9001551262405L15.674320470897042,-277.749275024723" style="fill:none;stroke:rgb(109,213,75);stroke-width:5;stroke-linecap:round">
    </path>
    <path d="M-282.38498148578583,494.3366750439208L-320.00365458698536,-212.63609722758073" style="fill:none;stroke:rgb(1,93,85);stroke-width:5;stroke-linecap:round">
    </path>
    <path d="M-282.38498148578583,494.3366750439208L-189.36574725685523,526.2260528148981" style="fill:none;stroke:rgb(43,180,168);stroke-width:5;stroke-linecap:round">
    </path>
    <path d="M50.431970028544576,-294.8441079136546L54.15002791382242,-279.4757230744889L83.79577025077124,-289.1562001969494z" style="fill:rgb(109,213,75)">
    </path>
    <path d="M59.027460370097344,-308.24120405186596L50.431970028544576,-294.8441079136546L83.79577025077124,-289.1562001969494z" style="fill:rgb(109,213,75)">
    </path>
    <path d="M-285.94055330980547,427.5163365733043L-192.41028112773768,458.3573635505296" style="fill:none;stroke:rgb(43,180,168);stroke-width:5;stroke-linecap:round">
    </path>
    <path d="M-125.80304250059893,-279.33295650656373L-29.180824734104686,-261.6563059675109" style="fill:none;stroke:rgb(109,213,75);stroke-width:5;stroke-linecap:round">
    </path>
    <path d="M-289.5397202181881,359.87670983149974L-195.49284480002652,389.64091469999795" style="fill:none;stroke:rgb(43,180,168);stroke-width:5;stroke-linecap:round">
    </path>
    <path d="M24.558455465787436,-285.59826078153407L15.309306266206894,-292.75841966255916L40.267943983731676,-273.3623784962792z" style="fill:rgb(109,213,75)">
    </path>
    <path d="M6.515047825248985,-279.1504862288227L10.392421657418717,-263.61309146122653L40.267943983731676,-273.3623784962792z" style="fill:rgb(109,213,75)">
    </path>
    <path d="M15.309306266206894,-292.75841966255916L6.515047825248985,-279.1504862288227L40.267943983731676,-273.3623784962792z" style="fill:rgb(109,213,75)">
    </path>
    <path d="M-320.00365458698536,-212.63609722758073L-541.2802754254783,-257.65937351057715" style="fill:none;stroke:rgb(0,0,0);stroke-width:1;stroke-linecap:round">
    </path>
    <path d="M-320.00365458698536,-212.63609722758073L-541.2802754254783,-257.65937351057715" style="fill:none;stroke:rgb(0,0,0);stroke-width:1;stroke-linecap:round">
    </path>
    <path d="M-293.1832889396162,291.4026338581071L-198.6141553072998,320.06072216486234" style="fill:none;stroke:rgb(43,180,168);stroke-width:5;stroke-linecap:round">
    </path>
    <path d="M-179.9391743861623,516.4213140106458L-189.99692371355195,512.155879636592L-165.56961061461027,534.3839784005544z" style="fill:rgb(43,180,168)">
    </path>
    <path d="M-172.3664619700901,-263.3410716070279L-75.28282175023413,-245.11599586338664" style="fill:none;stroke:rgb(109,213,75);stroke-width:5;stroke-linecap:round">
    </path>
    <path d="M-199.23560066959405,527.3730569952166L-194.8196245796395,540.9947442782767L-165.56961061461027,534.3839784005544z" style="fill:rgb(43,180,168)">
    </path>
    <path d="M-189.99692371355195,512.155879636592L-199.23560066959405,527.3730569952166L-165.56961061461027,534.3839784005544z" style="fill:rgb(43,180,168)">
    </path>
    <path d="M-296.87208623104004,222.07857129880503L-201.77494782290455,249.60039747530928" style="fill:none;stroke:rgb(43,180,168);stroke-width:5;stroke-linecap:round">
    </path>
    <path d="M-182.9180764711814,448.6538045737932L-193.04932220345523,444.11187243944767L-168.4800167847611,466.24821975093926z" style="fill:rgb(43,180,168)">
    </path>
    <path d="M-20.06808395375232,-269.65105884621863L-29.60898919793168,-276.850605207407L-4.458848634958591,-257.13351874278044z" style="fill:rgb(109,213,75)">
    </path>
    <path d="M-282.38498148578583,494.3366750439208L-320.00365458698536,-212.63609722758073L-541.2802754254783,-257.65937351057715z" style="fill:rgb(0,0,0); fill-opacity: 0.2">
    </path>
    <path d="M-202.35133487152987,459.29430002428796L-197.90010005312973,473.1716980650965L-168.4800167847611,466.24821975093926z" style="fill:rgb(43,180,168)">
    </path>
    <path d="M-193.04932220345523,444.11187243944767L-202.35133487152987,459.29430002428796L-168.4800167847611,466.24821975093926z" style="fill:rgb(43,180,168)">
    </path>
    <path d="M-38.60976929766923,-263.02522578260766L-34.565669526560754,-247.3152703622362L-4.458848634958591,-257.13351874278044z" style="fill:rgb(109,213,75)">
    </path>
    <path d="M-29.60898919793168,-276.850605207407L-38.60976929766923,-263.02522578260766L-4.458848634958591,-257.13351874278044z" style="fill:rgb(109,213,75)">
    </path>
    <path d="M-300.60695950309935,151.88859665171114L-204.9759762372404,178.2431349213496" style="fill:none;stroke:rgb(43,180,168);stroke-width:5;stroke-linecap:round">
    </path>
    <path d="M-185.93409922752215,380.0418311793168L-196.13989840855302,375.21680836488116L-171.4269487203599,397.25735339691664z" style="fill:rgb(43,180,168)">
    </path>
    <path d="M-205.50611358955453,390.36242081969465L-201.01908057289648,404.50088352669155L-171.4269487203599,397.25735339691664z" style="fill:rgb(43,180,168)">
    </path>
    <path d="M-196.13989840855302,375.21680836488116L-205.50611358955453,390.36242081969465L-171.4269487203599,397.25735339691664z" style="fill:rgb(43,180,168)">
    </path>
    <path d="M-220.21773761107713,-246.90688139795145L-122.68439199992984,-228.10942950839566" style="fill:none;stroke:rgb(109,213,75);stroke-width:5;stroke-linecap:round">
    </path>
    <path d="M-304.3887774691291,80.81638407053589L-208.2180137572314,105.97169818942108" style="fill:none;stroke:rgb(43,180,168);stroke-width:5;stroke-linecap:round">
    </path>
    <path d="M-188.98794085712672,310.5695103220329L-199.26937309499547,305.45462010802464L-174.41109836406412,327.39518021191856z" style="fill:rgb(43,180,168)">
    </path>
    <path d="M-208.7006753749676,320.5612820439181L-204.17729263221375,334.966305409307L-174.41109836406412,327.39518021191856z" style="fill:rgb(43,180,168)">
    </path>
    <path d="M-199.26937309499547,305.45462010802464L-208.7006753749676,320.5612820439181L-174.41109836406412,327.39518021191856z" style="fill:rgb(43,180,168)">
    </path>
    <path d="M-65.93211724657164,-253.26164102440154L-75.77753281638975,-260.5000153651593L-50.43483736758052,-240.45139535577138z" style="fill:rgb(109,213,75)">
    </path>
    <path d="M-84.99300927596688,-246.45027052124937L-80.7743354930569,-230.5641016334953L-50.43483736758052,-240.45139535577138z" style="fill:rgb(109,213,75)">
    </path>
    <path d="M-75.77753281638975,-260.5000153651593L-84.99300927596688,-246.45027052124937L-50.43483736758052,-240.45139535577138z" style="fill:rgb(109,213,75)">
    </path>
    <path d="M-308.21843081879183,8.84519470491232L-211.50185352898475,32.76840648207463" style="fill:none;stroke:rgb(43,180,168);stroke-width:5;stroke-linecap:round">
    </path>
    <path d="M-192.0803171823661,240.22055764686988L-202.4384852871874,234.80883335136258L-177.4331752471096,256.6450893017219z" style="fill:rgb(43,180,168)">
    </path>
    <path d="M-211.93577752413637,249.87433677992524L-207.375481116156,264.5515635256084L-177.4331752471096,256.6450893017219z" style="fill:rgb(43,180,168)">
    </path>
    <path d="M-202.4384852871874,234.80883335136258L-211.93577752413637,249.87433677992524L-177.4331752471096,256.6450893017219z" style="fill:rgb(43,180,168)">
    </path>
    <path d="M-269.4110481655868,-230.01177856448592L-171.44127173588095,-210.61661004853633" style="fill:none;stroke:rgb(109,213,75);stroke-width:5;stroke-linecap:round">
    </path>
    <path d="M-312.0968329174354,-64.04213644272063L-214.82830928469235,-41.384879902733736" style="fill:none;stroke:rgb(43,180,168);stroke-width:5;stroke-linecap:round">
    </path>
    <path d="M-195.21196220542453,168.97827522333617L-205.6479928496138,163.2625537946744L-180.49390705174253,184.99004483730658z" style="fill:rgb(43,180,168)">
    </path>
    <path d="M-215.21219667700055,178.28461545383882L-210.61440988731107,193.23983985901538L-180.49390705174253,184.99004483730658z" style="fill:rgb(43,180,168)">
    </path>
    <path d="M-205.6479928496138,163.2625537946744L-215.21219667700055,178.28461545383882L-180.49390705174253,184.99004483730658z" style="fill:rgb(43,180,168)">
    </path>
    <path d="M-113.08584168274488,-236.41135472914326L-123.24926007781376,-243.68790303237435L-97.71309749575798,-223.29675027422354z" style="fill:rgb(109,213,75)">
    </path>
    <path d="M-316.02492053232817,-137.86321416535733L-218.19821601488206,-116.50677455745209" style="fill:none;stroke:rgb(43,180,168);stroke-width:5;stroke-linecap:round">
    </path>
    <path d="M-132.68805810332353,-229.40654306987636L-128.2864920454773,-213.3404026924135L-97.71309749575798,-223.29675027422354z" style="fill:rgb(109,213,75)">
    </path>
    <path d="M-123.24926007781376,-243.68790303237435L-132.68805810332353,-229.40654306987636L-97.71309749575798,-223.29675027422354z" style="fill:rgb(109,213,75)">
    </path>
    <path d="M-198.38362868913103,96.82553833210366L-208.89867309105813,90.79845368582414L-183.59404019537206,112.41257237920422z" style="fill:rgb(43,180,168)">
    </path>
    <path d="M-218.53072943865675,105.77471225333815L-213.89486239401893,121.01388517205767L-183.59404019537206,112.41257237920422z" style="fill:rgb(43,180,168)">
    </path>
    <path d="M-208.89867309105813,90.79845368582414L-218.53072943865675,105.77471225333815L-183.59404019537206,112.41257237920422z" style="fill:rgb(43,180,168)">
    </path>
    <path d="M-320.0036545869852,-212.6360972275808L-221.61243066718478,-192.6163805418462" style="fill:none;stroke:rgb(109,213,75);stroke-width:5;stroke-linecap:round">
    </path>
    <path d="M-320.00365458698536,-212.63609722758073L-221.612430667185,-192.61638054184618" style="fill:none;stroke:rgb(43,180,168);stroke-width:5;stroke-linecap:round">
    </path>
    <path d="M-201.59608876020187,23.744781741742752L-212.19132339222338,17.39875782984058L-186.73434043742938,38.894744670278534z" style="fill:rgb(43,180,168)">
    </path>
    <path d="M-221.8921930250652,32.326771018956904L-217.2176423021549,47.85600509635869L-186.73434043742938,38.894744670278534z" style="fill:rgb(43,180,168)">
    </path>
    <path d="M-212.19132339222338,17.39875782984058L-221.8921930250652,32.326771018956904L-186.73434043742938,38.894744670278534z" style="fill:rgb(43,180,168)">
    </path>
    <path d="M-161.58443195676801,-219.08048339701983L-172.08013763441494,-226.39444761902658L-146.34975421375387,-205.64921879382896z" style="fill:rgb(109,213,75)">
    </path>
    <path d="M-204.85013453591054,-50.28201454749074L-215.5267618578209,-56.954770947440956L-189.9155935099684,-35.58183312732561z" style="fill:rgb(43,180,168)">
    </path>
    <path d="M-181.75136480860644,-211.87387148430224L-177.1580830782666,-195.6238932388438L-146.34975421375387,-205.64921879382896z" style="fill:rgb(109,213,75)">
    </path>
    <path d="M-172.08013763441494,-226.39444761902658L-181.75136480860644,-211.87387148430224L-146.34975421375387,-205.64921879382896z" style="fill:rgb(109,213,75)">
    </path>
    <path d="M-225.29742593398126,-42.077529415743335L-220.58357415152727,-26.25195431931666L-189.9155935099684,-35.58183312732561z" style="fill:rgb(43,180,168)">
    </path>
    <path d="M-215.5267618578209,-56.954770947440956L-225.29742593398126,-42.077529415743335L-189.9155935099684,-35.58183312732561z" style="fill:rgb(43,180,168)">
    </path>
    <path d="M-208.1465787752533,-125.27334011712117L-218.90582799424823,-132.2808469061453L-193.13860577310004,-111.03603877660183z" style="fill:rgb(43,180,168)">
    </path>
    <path d="M-228.74728864226537,-117.4569904604059L-223.99350403801552,-101.32862162774401L-193.13860577310004,-111.03603877660183z" style="fill:rgb(43,180,168)">
    </path>
    <path d="M-218.90582799424823,-132.2808469061453L-228.74728864226537,-117.4569904604059L-193.13860577310004,-111.03603877660183z" style="fill:rgb(43,180,168)">
    </path>
    <path d="M-211.4862555557345,-201.24816952674985L-222.32938341403266,-208.59867709581792L-196.40420489640707,-187.48724891835553z" style="fill:rgb(109,213,75)">
    </path>
    <path d="M-211.48625555573474,-201.24816952674976L-222.32938341403295,-208.5986770958179L-196.40420489640732,-187.48724891835548z" style="fill:rgb(43,180,168)">
    </path>
    <path d="M-232.24266433079234,-193.83090960713193L-227.44830032263383,-177.39311559474936L-196.40420489640707,-187.48724891835553z" style="fill:rgb(109,213,75)">
    </path>
    <path d="M-232.2426643307925,-193.83090960713187L-227.44830032263405,-177.3931155947493L-196.40420489640732,-187.48724891835548z" style="fill:rgb(43,180,168)">
    </path>
    <path d="M-222.32938341403266,-208.59867709581792L-232.24266433079234,-193.83090960713193L-196.40420489640707,-187.48724891835553z" style="fill:rgb(109,213,75)">
    </path>
    <path d="M-222.32938341403295,-208.5986770958179L-232.2426643307925,-193.83090960713187L-196.40420489640732,-187.48724891835548z" style="fill:rgb(43,180,168)">
    </path>
</svg>