<svg viewBox="-812 -675 1624 1350" width="1624" height="1350" style="background-color: rgb(255, 255, 255);">
    <path d="M58.14473521957955,332.50562585415435L69.78305394172797,-454.34873168920853" style="fill:none;stroke:rgb(0,0,0);stroke-width:1;stroke-linecap:round">
    </path>
    <path d="M185.5976932068577,373.69809295425983L58.14473521957955,332.50562585415435" style="fill:none;stroke:rgb(160,0,0);stroke-width:4;stroke-linecap:round">
    </path>
    <path d="M185.5976932068577,373.69809295425983L206.3798944469539,-431.97587954098196" style="fill:none;stroke:rgb(0,0,0);stroke-width:1;stroke-linecap:round">
    </path>
    <path d="M117.4275113777657,428.27575523209646L185.5976932068577,373.69809295425983" style="fill:none;stroke:rgb(160,0,0);stroke-width:4;stroke-linecap:round">
    </path>
    <path d="M206.3798944469539,-431.97587954098196L185.5976932068577,373.69809295425983L58.14473521957955,332.50562585415435z" style="fill:rgb(0,0,0); fill-opacity: 0.2">
    </path>
    <path d="M69.78305394172797,-454.34873168920853L58.14473521957955,332.50562585415435L206.3798944469539,-431.97587954098196z" style="fill:rgb(0,0,0); fill-opacity: 0.2">
    </path>
    <path d="M130.85653829330056,-242.1311164957117L117.4275113777657,428.27575523209646" style="fill:none;stroke:rgb(104,70,1);stroke-width:5;stroke-linecap:round">
    </path>
    <path d="M117.4275113777657,428.27575523209646L73.65178694013274,450.48076251577214" style="fill:none;stroke:rgb(197,147,42);stroke-width:5;stroke-linecap:round">
    </path>
    <path d="M118.17664706717873,390.8772365458279L74.26796147465778,412.6396039085734" style="fill:none;stroke:rgb(197,147,42);stroke-width:5;stroke-linecap:round">
    </path>
    <path d="M206.3798944469539,-431.97587954098196L69.78305394172797,-454.34873168920853" style="fill:none;stroke:rgb(0,0,0);stroke-width:1;stroke-linecap:round">
    </path>
    <path d="M69.78305394172797,-454.34873168920853L-271.28620778716487,-376.94718859874115" style="fill:none;stroke:rgb(0,0,0);stroke-width:1;stroke-linecap:round">
    </path>
    <path d="M206.3798944469539,-431.97587954098196L69.78305394172797,-454.34873168920853" style="fill:none;stroke:rgb(0,0,0);stroke-width:1;stroke-linecap:round">
    </path>
    <path d="M118.93063580634656,353.23644282914L74.88818289303917,374.54991381347173" style="fill:none;stroke:rgb(197,147,42);stroke-width:5;stroke-linecap:round">
    </path>
    <path d="M130.85653829330056,-242.1311164957117L117.4275113777657,428.27575523209646L185.5976932068577,373.69809295425983z" style="fill:rgb(0,0,0); fill-opacity: 0.2">
    </path>
    <path d="M119.68952490704675,315.35101217294016L75.51249119504851,336.2092357224233" style="fill:none;stroke:rgb(197,147,42);stroke-width:5;stroke-linecap:round">
    </path>
    <path d="M120.45336229804397,277.21855186676555L76.14092690934847,297.6150806465678" style="fill:none;stroke:rgb(197,147,42);stroke-width:5;stroke-linecap:round">
    </path>
    <path d="M73.7850545966026,442.29638902560083L67.05755364283583,445.6607308933254L62.519325888908625,456.12764516370754z" style="fill:rgb(197,147,42)">
    </path>
    <path d="M77.6505237073967,458.5197325817549L80.34613219055467,450.2511909382121L62.519325888908625,456.12764516370754z" style="fill:rgb(197,147,42)">
    </path>
    <path d="M80.34613219055467,450.2511909382121L73.7850545966026,442.29638902560083L62.519325888908625,456.12764516370754z" style="fill:rgb(197,147,42)">
    </path>
    <path d="M121.22219653518053,238.83663789504584L76.77353110226325,258.7649265776082" style="fill:none;stroke:rgb(197,147,42);stroke-width:5;stroke-linecap:round">
    </path>
    <path d="M74.40210327424604,404.4015466217904L67.65147719596251,407.84627577482195L63.1010664110692,418.1742280813461z" style="fill:rgb(197,147,42)">
    </path>
    <path d="M233.2101607665971,-202.29142653173733L223.19738438065994,-203.35490447161277L225.9246648027488,-201.13729694959414z" style="fill:rgb(109,213,75)">
    </path>
    <path d="M233.2101607665971,-202.29142653173733L223.19738438065994,-203.35490447161277L225.9246648027488,-201.13729694959414z" style="fill:rgb(43,180,168)">
    </path>
    <path d="M78.27994753547586,420.6952168004045L80.98521644658885,412.3500785385823L63.1010664110692,418.1742280813461z" style="fill:rgb(197,147,42)">
    </path>
    <path d="M223.19738438065994,-203.35490447161277L216.94236597760408,-201.35526586358014L225.9246648027488,-201.13729694959414z" style="fill:rgb(109,213,75)">
    </path>
    <path d="M223.19738438065994,-203.35490447161277L216.94236597760408,-201.35526586358014L225.9246648027488,-201.13729694959414z" style="fill:rgb(43,180,168)">
    </path>
    <path d="M80.98521644658885,412.3500785385823L74.40210327424604,404.4015466217904L63.1010664110692,418.1742280813461z" style="fill:rgb(197,147,42)">
    </path>
    <path d="M206.3798944469539,-431.97587954098196L185.5976932068577,373.69809295425983L130.85653829330056,-242.1311164957117z" style="fill:rgb(0,0,0); fill-opacity: 0.2">
    </path>
    <path d="M121.99607681166552,200.20281442344537L77.41034538672426,219.6562179384346" style="fill:none;stroke:rgb(197,147,42);stroke-width:5;stroke-linecap:round">
    </path>
    <path d="M227.8742621375921,-271.058655013017L225.9246648027488,-201.1372969495941" style="fill:none;stroke:rgb(109,213,75);stroke-width:5;stroke-linecap:round">
    </path>
    <path d="M227.8742621375921,-271.058655013017L225.9246648027488,-201.1372969495941" style="fill:none;stroke:rgb(43,180,168);stroke-width:5;stroke-linecap:round">
    </path>
    <path d="M233.17621050331164,-199.62691184659337L233.2101607665971,-202.29142653173733L225.9246648027488,-201.13729694959414z" style="fill:rgb(109,213,75)">
    </path>
    <path d="M233.17621050331164,-199.62691184659337L233.2101607665971,-202.29142653173733L225.9246648027488,-201.13729694959414z" style="fill:rgb(43,180,168)">
    </path>
    <path d="M223.09987330699937,-199.04527772777388L216.94236597760408,-201.35526586358014L225.44072879592025,-183.7811679641356z" style="fill:rgb(109,213,75)">
    </path>
    <path d="M223.09987330699937,-199.04527772777388L216.94236597760408,-201.35526586358014L225.44072879592025,-183.7811679641356z" style="fill:rgb(43,180,168)">
    </path>
    <path d="M216.94236597760408,-201.35526586358014L223.09987330699937,-199.04527772777388L225.9246648027488,-201.13729694959414z" style="fill:rgb(109,213,75)">
    </path>
    <path d="M216.94236597760408,-201.35526586358014L223.09987330699937,-199.04527772777388L225.9246648027488,-201.13729694959414z" style="fill:rgb(43,180,168)">
    </path>
    <path d="M233.17621050331164,-199.62691184659337L223.09987330699937,-199.04527772777388L225.44072879592025,-183.7811679641356z" style="fill:rgb(109,213,75)">
    </path>
    <path d="M233.17621050331164,-199.62691184659337L223.09987330699937,-199.04527772777388L225.44072879592025,-183.7811679641356z" style="fill:rgb(43,180,168)">
    </path>
    <path d="M223.09987330699937,-199.04527772777388L233.17621050331164,-199.62691184659337L225.9246648027488,-201.13729694959414z" style="fill:rgb(109,213,75)">
    </path>
    <path d="M223.09987330699937,-199.04527772777388L233.17621050331164,-199.62691184659337L225.9246648027488,-201.13729694959414z" style="fill:rgb(43,180,168)">
    </path>
    <path d="M40.18569532290175,459.22357476405585L42.59999311089567,469.3118776376189L46.80438114086165,464.0989687014844z" style="fill:rgb(167,41,160)">
    </path>
    <path d="M75.02320746469455,366.2576428000043L68.24929710246718,369.7837441502384L63.68664091352055,379.97067773936345z" style="fill:rgb(197,147,42)">
    </path>
    <path d="M53.51222407680379,463.888898943602L50.82945219213138,472.2082514797586L58.04483272066455,458.39730842269404z" style="fill:rgb(167,41,160)">
    </path>
    <path d="M46.91959305981095,455.85626357152495L53.51222407680379,463.888898943602L58.04483272066455,458.39730842269404z" style="fill:rgb(167,41,160)">
    </path>
    <path d="M42.59999311089567,469.3118776376189L50.82945219213138,472.2082514797586L46.80438114086165,464.0989687014844z" style="fill:rgb(167,41,160)">
    </path>
    <path d="M46.91959305981095,455.85626357152495L40.18569532290175,459.22357476405585L46.80438114086165,464.0989687014844z" style="fill:rgb(167,41,160)">
    </path>
    <path d="M1.0533387748390581,487.30594567386186L46.80438114086166,464.0989687014845" style="fill:none;stroke:rgb(167,41,160);stroke-width:5;stroke-linecap:round">
    </path>
    <path d="M78.91350632610201,382.62221510362485L81.62850464014242,374.1996501732727L63.68664091352055,379.97067773936345z" style="fill:rgb(197,147,42)">
    </path>
    <path d="M81.62850464014242,374.1996501732727L75.02320746469455,366.2576428000043L63.68664091352055,379.97067773936345z" style="fill:rgb(197,147,42)">
    </path>
    <path d="M50.82945219213138,472.2082514797586L53.51222407680379,463.888898943602L46.80438114086165,464.0989687014844z" style="fill:rgb(167,41,160)">
    </path>
    <path d="M53.51222407680379,463.888898943602L46.91959305981095,455.85626357152495L46.80438114086165,464.0989687014844z" style="fill:rgb(167,41,160)">
    </path>
    <path d="M122.77505296856711,161.31459327505968L78.05141193139477,180.2863650227437" style="fill:none;stroke:rgb(197,147,42);stroke-width:5;stroke-linecap:round">
    </path>
    <path d="M40.695976515253406,421.13895186074166L43.118087028737285,431.27126522315865L47.33708476578847,425.98729638513976z" style="fill:rgb(167,41,160)">
    </path>
    <path d="M75.64840728166666,327.8622140543642L68.85105183076489,331.4706867781764L64.27608742353493,341.5145131950217z" style="fill:rgb(197,147,42)">
    </path>
    <path d="M54.067941649889285,425.7164099695062L51.3755810045226,434.1135231366799L58.61266214789616,420.3988062286891z" style="fill:rgb(167,41,160)">
    </path>
    <path d="M47.45305870733126,417.69007321921725L54.067941649889285,425.7164099695062L58.61266214789616,420.3988062286891z" style="fill:rgb(167,41,160)">
    </path>
    <path d="M43.118087028737285,431.27126522315865L51.3755810045226,434.1135231366799L47.33708476578847,425.98729638513976z" style="fill:rgb(167,41,160)">
    </path>
    <path d="M47.45305870733126,417.69007321921725L40.695976515253406,421.13895186074166L47.33708476578847,425.98729638513976z" style="fill:rgb(167,41,160)">
    </path>
    <path d="M1.4404231080555885,448.73496004759636L47.33708476578848,425.98729638513987" style="fill:none;stroke:rgb(167,41,160);stroke-width:5;stroke-linecap:round">
    </path>
    <path d="M227.8742621375921,-271.058655013017L130.85653829330056,-242.1311164957117" style="fill:none;stroke:rgb(45,114,23);stroke-width:5;stroke-linecap:round">
    </path>
    <path d="M227.8742621375921,-271.058655013017L206.3798944469539,-431.97587954098196" style="fill:none;stroke:rgb(0,0,0);stroke-width:1;stroke-linecap:round">
    </path>
    <path d="M-103.62383105154196,-172.21667563889284L227.8742621375921,-271.058655013017" style="fill:none;stroke:rgb(1,93,85);stroke-width:5;stroke-linecap:round">
    </path>
    <path d="M227.8742621375921,-271.058655013017L206.3798944469539,-431.97587954098196" style="fill:none;stroke:rgb(0,0,0);stroke-width:1;stroke-linecap:round">
    </path>
    <path d="M79.55124096014454,344.29827080162755L82.2760383887557,335.79743769969184L64.27608742353493,341.5145131950217z" style="fill:rgb(197,147,42)">
    </path>
    <path d="M82.2760383887557,335.79743769969184L75.64840728166666,327.8622140543642L64.27608742353493,341.5145131950217z" style="fill:rgb(197,147,42)">
    </path>
    <path d="M51.3755810045226,434.1135231366799L54.067941649889285,425.7164099695062L47.33708476578847,425.98729638513976z" style="fill:rgb(167,41,160)">
    </path>
    <path d="M54.067941649889285,425.7164099695062L47.45305870733126,417.69007321921725L47.33708476578847,425.98729638513976z" style="fill:rgb(167,41,160)">
    </path>
    <path d="M123.55917550551304,122.16945339622961L78.69677346997815,140.6527434233957" style="fill:none;stroke:rgb(197,147,42);stroke-width:5;stroke-linecap:round">
    </path>
    <path d="M208.2862259888725,-194.28900311973337L198.21622932949623,-195.36879173865088L200.91126460353604,-193.1157761980742z" style="fill:rgb(43,180,168)">
    </path>
    <path d="M198.21622932949623,-195.36879173865088L191.8592814128425,-193.3365677443645L200.91126460353604,-193.1157761980742z" style="fill:rgb(43,180,168)">
    </path>
    <path d="M202.73241388227663,-263.56217132959074L200.91126460353604,-193.11577619807414" style="fill:none;stroke:rgb(43,180,168);stroke-width:5;stroke-linecap:round">
    </path>
    <path d="M41.20963330467411,382.8023926850812L43.63960725447429,392.9790790183618L47.87331632093133,387.6232223315864z" style="fill:rgb(167,41,160)">
    </path>
    <path d="M208.1860632842023,-191.58163991183977L208.2862259888725,-194.28900311973337L200.91126460353604,-193.1157761980742z" style="fill:rgb(43,180,168)">
    </path>
    <path d="M198.010920637619,-190.9898713878589L191.8592814128425,-193.3365677443645L200.45923867701225,-175.63033587678112z" style="fill:rgb(43,180,168)">
    </path>
    <path d="M76.27774336965925,289.21276428228373L69.4567803573372,292.9046220692037L64.86944447294994,302.8032205871608z" style="fill:rgb(197,147,42)">
    </path>
    <path d="M54.62734539250617,387.2907163594448L51.925327593641384,395.7664400038222L59.184239072540876,382.14952575190284z" style="fill:rgb(167,41,160)">
    </path>
    <path d="M47.99005987028058,379.27093845430505L54.62734539250617,387.2907163594448L59.184239072540876,382.14952575190284z" style="fill:rgb(167,41,160)">
    </path>
    <path d="M43.63960725447429,392.9790790183618L51.925327593641384,395.7664400038222L47.87331632093133,387.6232223315864z" style="fill:rgb(167,41,160)">
    </path>
    <path d="M191.8592814128425,-193.3365677443645L198.010920637619,-190.9898713878589L200.91126460353604,-193.1157761980742z" style="fill:rgb(43,180,168)">
    </path>
    <path d="M208.1860632842023,-191.58163991183977L198.010920637619,-190.9898713878589L200.45923867701225,-175.63033587678112z" style="fill:rgb(43,180,168)">
    </path>
    <path d="M47.99005987028058,379.27093845430505L41.20963330467411,382.8023926850812L47.87331632093133,387.6232223315864z" style="fill:rgb(167,41,160)">
    </path>
    <path d="M1.8301072212680916,409.90491956363763L47.87331632093133,387.6232223315864" style="fill:none;stroke:rgb(167,41,160);stroke-width:5;stroke-linecap:round">
    </path>
    <path d="M80.19319285915377,305.7208947130171L82.92785986112017,297.14094028903264L64.86944447294994,302.8032205871608z" style="fill:rgb(197,147,42)">
    </path>
    <path d="M201.8116994480084,-192.2102020301655L191.72690182467284,-193.2942479111742L194.4134174643592,-191.03198849820157z" style="fill:rgb(109,213,75)">
    </path>
    <path d="M82.92785986112017,297.14094028903264L76.27774336965925,289.21276428228373L64.86944447294994,302.8032205871608z" style="fill:rgb(197,147,42)">
    </path>
    <path d="M198.010920637619,-190.9898713878589L208.1860632842023,-191.58163991183977L200.91126460353604,-193.1157761980742z" style="fill:rgb(43,180,168)">
    </path>
    <path d="M191.72690182467284,-193.2942479111742L185.34334071822644,-191.25351606633276L194.4134174643592,-191.03198849820157z" style="fill:rgb(109,213,75)">
    </path>
    <path d="M51.925327593641384,395.7664400038222L54.62734539250617,387.2907163594448L47.87331632093133,387.6232223315864z" style="fill:rgb(167,41,160)">
    </path>
    <path d="M54.62734539250617,387.2907163594448L47.99005987028058,379.27093845430505L47.87331632093133,387.6232223315864z" style="fill:rgb(167,41,160)">
    </path>
    <path d="M124.34849559160365,82.76484031173341L79.3464733107138,100.75269344924159" style="fill:none;stroke:rgb(197,147,42);stroke-width:5;stroke-linecap:round">
    </path>
    <path d="M196.2008164661323,-261.6146608299805L194.4134174643592,-191.0319884982015" style="fill:none;stroke:rgb(109,213,75);stroke-width:5;stroke-linecap:round">
    </path>
    <path d="M201.6941624978994,-189.49165193612632L201.8116994480084,-192.2102020301655L194.4134174643592,-191.03198849820157z" style="fill:rgb(109,213,75)">
    </path>
    <path d="M191.4933078601726,-188.89723643492084L185.34334071822644,-191.25351606633276L193.96977535708297,-173.512987167556z" style="fill:rgb(109,213,75)">
    </path>
    <path d="M206.3798944469539,-431.97587954098196L206.3798944469539,-431.97587954098196L227.8742621375921,-271.058655013017z" style="fill:rgb(0,0,0); fill-opacity: 0.2">
    </path>
    <path d="M185.34334071822644,-191.25351606633276L191.4933078601726,-188.89723643492084L194.4134174643592,-191.03198849820157z" style="fill:rgb(109,213,75)">
    </path>
    <path d="M201.6941624978994,-189.49165193612632L191.4933078601726,-188.89723643492084L193.96977535708297,-173.512987167556z" style="fill:rgb(109,213,75)">
    </path>
    <path d="M191.4933078601726,-188.89723643492084L201.6941624978994,-189.49165193612632L194.4134174643592,-191.03198849820157z" style="fill:rgb(109,213,75)">
    </path>
    <path d="M41.7266992975449,344.2113890389163L44.16458788964558,354.43281514627046L48.41311096930183,349.0042308433279z" style="fill:rgb(167,41,160)">
    </path>
    <path d="M76.91125691275529,250.30676424353604L70.06652217514781,254.08303555004417L65.46675110656496,263.83425258840964z" style="fill:rgb(197,147,42)">
    </path>
    <path d="M55.19047210318757,348.6092904056952L52.47872802736221,357.1644861987645L59.75960071589727,343.64697618518795z" style="fill:rgb(167,41,160)">
    </path>
    <path d="M48.53063181267702,340.59633635289515L55.19047210318757,348.6092904056952L59.75960071589727,343.64697618518795z" style="fill:rgb(167,41,160)">
    </path>
    <path d="M44.16458788964558,354.43281514627046L52.47872802736221,357.1644861987645L48.41311096930183,349.0042308433279z" style="fill:rgb(167,41,160)">
    </path>
    <path d="M48.53063181267702,340.59633635289515L41.7266992975449,344.2113890389163L48.41311096930183,349.0042308433279z" style="fill:rgb(167,41,160)">
    </path>
    <path d="M2.2224173941367003,370.81320558747865L48.41311096930183,349.0042308433279" style="fill:none;stroke:rgb(167,41,160);stroke-width:5;stroke-linecap:round">
    </path>
    <path d="M80.83940399432917,266.8875646258501L83.58401178623274,258.2276238833871L65.46675110656496,263.83425258840964z" style="fill:rgb(197,147,42)">
    </path>
    <path d="M83.58401178623274,258.2276238833871L76.91125691275529,250.30676424353604L65.46675110656496,263.83425258840964z" style="fill:rgb(197,147,42)">
    </path>
    <path d="M52.47872802736221,357.1644861987645L55.19047210318757,348.6092904056952L48.41311096930183,349.0042308433279z" style="fill:rgb(167,41,160)">
    </path>
    <path d="M55.19047210318757,348.6092904056952L48.53063181267702,340.59633635289515L48.41311096930183,349.0042308433279z" style="fill:rgb(167,41,160)">
    </path>
    <path d="M125.14306507654284,43.09816556910843L80.00055534606518,60.583519530151136" style="fill:none;stroke:rgb(197,147,42);stroke-width:5;stroke-linecap:round">
    </path>
    <path d="M130.85653829330056,-242.1311164957117L206.3798944469539,-431.97587954098196" style="fill:none;stroke:rgb(0,0,0);stroke-width:1;stroke-linecap:round">
    </path>
    <path d="M206.3798944469539,-431.97587954098196L206.3798944469539,-431.97587954098196" style="fill:none;stroke:rgb(0,0,0);stroke-width:1;stroke-linecap:round">
    </path>
    <path d="M130.85653829330056,-242.1311164957117L206.3798944469539,-431.97587954098196" style="fill:none;stroke:rgb(0,0,0);stroke-width:1;stroke-linecap:round">
    </path>
    <path d="M206.3798944469539,-431.97587954098196L-130.26231844679475,-349.7801320936835" style="fill:none;stroke:rgb(0,0,0);stroke-width:1;stroke-linecap:round">
    </path>
    <path d="M-271.28620778716487,-376.94718859874115L-260.4257574103468,481.75091050423856" style="fill:none;stroke:rgb(0,0,0);stroke-width:1;stroke-linecap:round">
    </path>
    <path d="M-129.14596589552997,531.3321833718398L-260.4257574103468,481.75091050423856" style="fill:none;stroke:rgb(160,0,0);stroke-width:4;stroke-linecap:round">
    </path>
    <path d="M42.247208547831455,305.3633993187901L44.69306348983986,315.62993639169764L48.956504342763985,310.1277726793575z" style="fill:rgb(167,41,160)">
    </path>
    <path d="M77.54898964360831,211.14165100851392L70.68031730222586,215.00337931708256L66.0680468907057,224.6050278464195z" style="fill:rgb(197,147,42)">
    </path>
    <path d="M55.75735907190837,309.66957064318296L53.0358188546023,318.30511228437325L60.33878479382583,304.8886336258743z" style="fill:rgb(167,41,160)">
    </path>
    <path d="M182.95449685463876,-186.15564760832711L172.8267396662038,-187.25214035611293L175.48810503825663,-184.96285015051868z" style="fill:rgb(43,180,168)">
    </path>
    <path d="M49.07481026907802,301.6637103268966L55.75735907190837,309.66957064318296L60.33878479382583,304.8886336258743z" style="fill:rgb(167,41,160)">
    </path>
    <path d="M44.69306348983986,315.62993639169764L53.0358188546023,318.30511228437325L48.956504342763985,310.1277726793575z" style="fill:rgb(167,41,160)">
    </path>
    <path d="M172.8267396662038,-187.25214035611293L166.36535027241473,-185.1865279372844L175.48810503825663,-184.96285015051868z" style="fill:rgb(43,180,168)">
    </path>
    <path d="M49.07481026907802,301.6637103268966L42.247208547831455,305.3633993187901L48.956504342763985,310.1277726793575z" style="fill:rgb(167,41,160)">
    </path>
    <path d="M2.617380261713327,331.4571640716233L48.956504342763985,310.1277726793575" style="fill:none;stroke:rgb(167,41,160);stroke-width:5;stroke-linecap:round">
    </path>
    <path d="M81.48991689566678,227.79572474793216L84.24453746273272,219.05492064200203L66.0680468907057,224.6050278464195z" style="fill:rgb(197,147,42)">
    </path>
    <path d="M84.24453746273272,219.05492064200203L77.54898964360831,211.14165100851392L66.0680468907057,224.6050278464195z" style="fill:rgb(197,147,42)">
    </path>
    <path d="M177.17630519629267,-255.9421686221191L175.48810503825658,-184.96285015051862" style="fill:none;stroke:rgb(43,180,168);stroke-width:5;stroke-linecap:round">
    </path>
    <path d="M53.0358188546023,318.30511228437325L55.75735907190837,309.66957064318296L48.956504342763985,310.1277726793575z" style="fill:rgb(167,41,160)">
    </path>
    <path d="M182.78594781214105,-183.4043837174219L182.95449685463876,-186.15564760832711L175.48810503825663,-184.96285015051868z" style="fill:rgb(43,180,168)">
    </path>
    <path d="M1.053338774839058,487.30594567386186L8.006097404803022,-205.50109963020003" style="fill:none;stroke:rgb(84,0,79);stroke-width:5;stroke-linecap:round">
    </path>
    <path d="M1.053338774839058,487.30594567386186L-129.14596589552997,531.3321833718398" style="fill:none;stroke:rgb(160,0,0);stroke-width:4;stroke-linecap:round">
    </path>
    <path d="M55.75735907190837,309.66957064318296L49.07481026907802,301.6637103268966L48.956504342763985,310.1277726793575z" style="fill:rgb(167,41,160)">
    </path>
    <path d="M172.51010031028437,-182.80222511801097L166.36535027241473,-185.1865279372844L175.06910302833984,-167.3461730281108z" style="fill:rgb(43,180,168)">
    </path>
    <path d="M125.94293650199177,3.1668061718498173L80.65906406260449,20.142489609960425" style="fill:none;stroke:rgb(197,147,42);stroke-width:5;stroke-linecap:round">
    </path>
    <path d="M166.36535027241473,-185.1865279372844L172.51010031028437,-182.80222511801097L175.48810503825663,-184.96285015051868z" style="fill:rgb(43,180,168)">
    </path>
    <path d="M182.78594781214105,-183.4043837174219L172.51010031028437,-182.80222511801097L175.06910302833984,-167.3461730281108z" style="fill:rgb(43,180,168)">
    </path>
    <path d="M172.51010031028437,-182.80222511801097L182.78594781214105,-183.4043837174219L175.48810503825663,-184.96285015051868z" style="fill:rgb(43,180,168)">
    </path>
    <path d="M42.77119556456052,266.2558479579558L45.22506907227778,276.5678716445156L49.503532549874755,270.99126449421505z" style="fill:rgb(167,41,160)">
    </path>
    <path d="M78.19098385260624,171.71482739542873L71.29820629042118,175.6630714789347L66.67337192196109,185.11293041386597z" style="fill:rgb(197,147,42)">
    </path>
    <path d="M56.32804408831659,270.46896128406L53.596637113368246,279.18573470752574L60.921829524990464,265.871940524258z" style="fill:rgb(167,41,160)">
    </path>
    <path d="M49.62263145245482,262.47046956065134L56.32804408831659,270.46896128406L60.921829524990464,265.871940524258z" style="fill:rgb(167,41,160)">
    </path>
    <path d="M45.22506907227778,276.5678716445156L53.596637113368246,279.18573470752574L49.503532549874755,270.99126449421505z" style="fill:rgb(167,41,160)">
    </path>
    <path d="M227.8742621375921,-271.058655013017L130.85653829330056,-242.1311164957117L206.3798944469539,-431.97587954098196z" style="fill:rgb(0,0,0); fill-opacity: 0.2">
    </path>
    <path d="M49.62263145245482,262.47046956065134L42.77119556456052,266.2558479579558L49.503532549874755,270.99126449421505z" style="fill:rgb(167,41,160)">
    </path>
    <path d="M3.015022820469783,291.83410495492336L49.503532549874755,270.99126449421505" style="fill:none;stroke:rgb(167,41,160);stroke-width:5;stroke-linecap:round">
    </path>
    <path d="M82.14477466128996,188.44278514610073L84.90948076842652,179.62022837642633L66.67337192196109,185.11293041386597z" style="fill:rgb(197,147,42)">
    </path>
    <path d="M84.90948076842652,179.62022837642633L78.19098385260624,171.71482739542873L66.67337192196109,185.11293041386597z" style="fill:rgb(197,147,42)">
    </path>
    <path d="M169.76468038971234,-181.92074260555452L159.60700626714913,-183.02598343869553L162.2504822000624,-180.7176909377896z" style="fill:rgb(109,213,75)">
    </path>
    <path d="M53.596637113368246,279.18573470752574L56.32804408831659,270.46896128406L49.503532549874755,270.99126449421505z" style="fill:rgb(167,41,160)">
    </path>
    <path d="M159.60700626714913,-183.02598343869553L153.09089896208866,-180.94287849772272L162.2504822000624,-180.7176909377896z" style="fill:rgb(109,213,75)">
    </path>
    <path d="M56.32804408831659,270.46896128406L49.62263145245482,262.47046956065134L49.503532549874755,270.99126449421505z" style="fill:rgb(167,41,160)">
    </path>
    <path d="M126.7481631131505,-37.03189599877572L81.32204455109887,-20.573165472947615" style="fill:none;stroke:rgb(197,147,42);stroke-width:5;stroke-linecap:round">
    </path>
    <path d="M163.86850012123173,-251.97421278234427L162.2504822000624,-180.71769093778946" style="fill:none;stroke:rgb(109,213,75);stroke-width:5;stroke-linecap:round">
    </path>
    <path d="M169.56008842503053,-179.1464802162072L169.76468038971234,-181.92074260555452L162.2504822000624,-180.7176909377896z" style="fill:rgb(109,213,75)">
    </path>
    <path d="M159.23169267480304,-178.53887580804258L153.09089896208866,-180.94287849772272L161.84891137590287,-163.03275690246093z" style="fill:rgb(109,213,75)">
    </path>
    <path d="M153.09089896208866,-180.94287849772272L159.23169267480304,-178.53887580804258L162.2504822000624,-180.7176909377896z" style="fill:rgb(109,213,75)">
    </path>
    <path d="M169.56008842503053,-179.1464802162072L159.23169267480304,-178.53887580804258L161.84891137590287,-163.03275690246093z" style="fill:rgb(109,213,75)">
    </path>
    <path d="M43.29869531944659,226.88612485716408L45.760640123546565,237.24401533175137L50.05423218388249,231.59208826574962z" style="fill:rgb(167,41,160)">
    </path>
    <path d="M78.83728239722015,132.0236613961902L71.92023023433514,136.05949558782592L67.28276683609623,145.3553091669538z" style="fill:rgb(197,147,42)">
    </path>
    <path d="M159.23169267480304,-178.53887580804258L169.56008842503053,-179.1464802162072L162.2504822000624,-180.7176909377896z" style="fill:rgb(109,213,75)">
    </path>
    <path d="M56.90256545013091,231.0048316408806L54.16122033896449,239.80373522652891L61.508773639265264,226.5943051210263z" style="fill:rgb(167,41,160)">
    </path>
    <path d="M50.1741320622255,223.0139884362121L56.90256545013091,231.0048316408806L61.508773639265264,226.5943051210263z" style="fill:rgb(167,41,160)">
    </path>
    <path d="M45.760640123546565,237.24401533175137L54.16122033896449,239.80373522652891L50.05423218388249,231.59208826574962z" style="fill:rgb(167,41,160)">
    </path>
    <path d="M50.1741320622255,223.0139884362121L43.29869531944659,226.88612485716408L50.05423218388249,231.59208826574962z" style="fill:rgb(167,41,160)">
    </path>
    <path d="M3.4153724344488885,251.94130154964756L50.0542321838825,231.59208826574968" style="fill:none;stroke:rgb(167,41,160);stroke-width:5;stroke-linecap:round">
    </path>
    <path d="M82.80402096696751,148.82612117423383L85.57888617000371,139.92090997428608L67.28276683609623,145.3553091669538z" style="fill:rgb(197,147,42)">
    </path>
    <path d="M85.57888617000371,139.92090997428608L78.83728239722015,132.0236613961902L67.28276683609623,145.3553091669538z" style="fill:rgb(197,147,42)">
    </path>
    <path d="M54.16122033896449,239.80373522652891L56.90256545013091,231.0048316408806L50.05423218388249,231.59208826574962z" style="fill:rgb(167,41,160)">
    </path>
    <path d="M56.90256545013091,231.0048316408806L50.1741320622255,223.0139884362121L50.05423218388249,231.59208826574962z" style="fill:rgb(167,41,160)">
    </path>
    <path d="M127.55879887057316,-77.50063477356751L81.98954251680259,-61.56625261772434" style="fill:none;stroke:rgb(197,147,42);stroke-width:5;stroke-linecap:round">
    </path>
    <path d="M157.2048825881518,-177.88812011341605L147.0188211155718,-179.00172333070626L149.64503418725226,-176.67526319859135z" style="fill:rgb(43,180,168)">
    </path>
    <path d="M147.0188211155718,-179.00172333070626L140.4503950577092,-176.90189284373398L149.64503418725226,-176.67526319859135z" style="fill:rgb(43,180,168)">
    </path>
    <path d="M151.19561241942418,-248.19556870996954L149.64503418725226,-176.67526319859135" style="fill:none;stroke:rgb(43,180,168);stroke-width:5;stroke-linecap:round">
    </path>
    <path d="M156.9656922374733,-175.09186856088076L157.2048825881518,-177.88812011341605L149.64503418725226,-176.67526319859135z" style="fill:rgb(43,180,168)">
    </path>
    <path d="M146.5871863772062,-174.4790556339201L140.4503950577092,-176.90189284373398L149.26021226998554,-158.9253809163944z" style="fill:rgb(43,180,168)">
    </path>
    <path d="M43.82974325467232,187.25158480396294L46.29981260749054,197.6557268382256L50.60864033088693,191.92759071132124z" style="fill:rgb(167,41,160)">
    </path>
    <path d="M79.48792871154139,92.06548559069859L72.54643078043146,96.19000005951577L67.89627281714579,105.32947721215237z" style="fill:rgb(197,147,42)">
    </path>
    <path d="M140.4503950577092,-176.90189284373398L146.5871863772062,-174.4790556339201L149.64503418725226,-176.67526319859135z" style="fill:rgb(43,180,168)">
    </path>
    <path d="M57.48096197170795,191.2745155381047L54.72960657236779,200.1564603269675L62.09965638631061,187.05310087335675z" style="fill:rgb(167,41,160)">
    </path>
    <path d="M156.9656922374733,-175.09186856088076L146.5871863772062,-174.4790556339201L149.26021226998554,-158.9253809163944z" style="fill:rgb(43,180,168)">
    </path>
    <path d="M50.72934929245071,183.29160594700232L57.48096197170795,191.2745155381047L62.09965638631061,187.05310087335675z" style="fill:rgb(167,41,160)">
    </path>
    <path d="M46.29981260749054,197.6557268382256L54.72960657236779,200.1564603269675L50.60864033088693,191.92759071132124z" style="fill:rgb(167,41,160)">
    </path>
    <path d="M50.72934929245071,183.29160594700232L43.82974325467232,187.25158480396294L50.60864033088693,191.92759071132124z" style="fill:rgb(167,41,160)">
    </path>
    <path d="M146.5871863772062,-174.4790556339201L156.9656922374733,-175.09186856088076L149.64503418725226,-176.67526319859135z" style="fill:rgb(43,180,168)">
    </path>
    <path d="M3.8184568415416873,211.77598991599024L50.60864033088693,191.9275907113213" style="fill:none;stroke:rgb(167,41,160);stroke-width:5;stroke-linecap:round">
    </path>
    <path d="M83.46770007582423,108.94307288972183L86.25279873294954,99.95429281142L67.89627281714579,105.32947721215237z" style="fill:rgb(197,147,42)">
    </path>
    <path d="M86.25279873294954,99.95429281142L79.48792871154139,92.06548559069859L67.89627281714579,105.32947721215237z" style="fill:rgb(197,147,42)">
    </path>
    <path d="M54.72960657236779,200.1564603269675L57.48096197170795,191.2745155381047L50.60864033088693,191.92759071132124z" style="fill:rgb(167,41,160)">
    </path>
    <path d="M57.48096197170795,191.2745155381047L50.72934929245071,183.29160594700232L50.60864033088693,191.92759071132124z" style="fill:rgb(167,41,160)">
    </path>
    <path d="M128.3748984622221,-118.24214029715591L82.66160428996066,-102.83961710610184" style="fill:none;stroke:rgb(197,147,42);stroke-width:5;stroke-linecap:round">
    </path>
    <path d="M44.364375290826885,147.34954688024092L46.842622973261534,157.80032991546446L51.16679457816456,151.99508269216895z" style="fill:rgb(167,41,160)">
    </path>
    <path d="M80.14296681601176,51.83759654927708L73.1768501363312,56.05189758149877L68.5139316066921,65.03271128088475z" style="fill:rgb(197,147,42)">
    </path>
    <path d="M58.06327299278363,151.27531071165274L55.301834368771544,160.2412206257082L62.69451754432249,147.24566586942396z" style="fill:rgb(167,41,160)">
    </path>
    <path d="M51.288320840195254,143.30062509958114L58.06327299278363,151.27531071165274L62.69451754432249,147.24566586942396z" style="fill:rgb(167,41,160)">
    </path>
    <path d="M46.842622973261534,157.80032991546446L55.301834368771544,160.2412206257082L51.16679457816456,151.99508269216895z" style="fill:rgb(167,41,160)">
    </path>
    <path d="M51.288320840195254,143.30062509958114L44.364375290826885,147.34954688024092L51.16679457816456,151.99508269216895z" style="fill:rgb(167,41,160)">
    </path>
    <path d="M4.224304159893731,171.33536822371735L51.166794578164556,151.99508269216898" style="fill:none;stroke:rgb(167,41,160);stroke-width:5;stroke-linecap:round">
    </path>
    <path d="M84.13585684824751,68.79094445812692L86.9312641316585,59.71766815210161L68.5139316066921,65.03271128088475z" style="fill:rgb(197,147,42)">
    </path>
    <path d="M86.9312641316585,59.71766815210161L80.14296681601176,51.83759654927708L68.5139316066921,65.03271128088475z" style="fill:rgb(197,147,42)">
    </path>
    <path d="M55.301834368771544,160.2412206257082L58.06327299278363,151.27531071165274L51.16679457816456,151.99508269216895z" style="fill:rgb(167,41,160)">
    </path>
    <path d="M137.04879925341643,-171.41652906606882L126.8173865792627,-172.54361788105462L129.4154313206126,-170.1878533343833z" style="fill:rgb(109,213,75)">
    </path>
    <path d="M58.06327299278363,151.27531071165274L51.288320840195254,143.30062509958114L51.16679457816456,151.99508269216895z" style="fill:rgb(167,41,160)">
    </path>
    <path d="M129.19651731576624,-159.259179641976L83.33827683652811,-144.39614326071552" style="fill:none;stroke:rgb(197,147,42);stroke-width:5;stroke-linecap:round">
    </path>
    <path d="M126.8173865792627,-172.54361788105462L120.16456158456643,-170.416806278809L129.4154313206126,-170.1878533343833z" style="fill:rgb(109,213,75)">
    </path>
    <path d="M130.85653829330056,-242.1311164957117L129.41543132061258,-170.18785333438322" style="fill:none;stroke:rgb(109,213,75);stroke-width:5;stroke-linecap:round">
    </path>
    <path d="M136.75352011571155,-168.5848072104269L137.04879925341643,-171.41652906606882L129.4154313206126,-170.1878533343833z" style="fill:rgb(109,213,75)">
    </path>
    <path d="M126.29445054557804,-167.96358904484168L120.16456158456643,-170.416806278809L129.05779473439222,-152.33384004723646z" style="fill:rgb(109,213,75)">
    </path>
    <path d="M120.16456158456643,-170.416806278809L126.29445054557804,-167.96358904484168L129.4154313206126,-170.1878533343833z" style="fill:rgb(109,213,75)">
    </path>
    <path d="M136.75352011571155,-168.5848072104269L126.29445054557804,-167.96358904484168L129.05779473439222,-152.33384004723646z" style="fill:rgb(109,213,75)">
    </path>
    <path d="M44.902627835005106,107.17729385773328L47.38910816353263,117.67511207860629L51.72873302266347,111.7918386056637z" style="fill:rgb(167,41,160)">
    </path>
    <path d="M131.02695671960393,-169.48307296831607L120.7820439226294,-170.61420642112768L123.37156198219878,-168.24965129341933z" style="fill:rgb(43,180,168)">
    </path>
    <path d="M80.80244132735177,11.337254222962398L73.81153108029615,15.642464509203025L69.13578551333225,24.46225111188254z" style="fill:rgb(197,147,42)">
    </path>
    <path d="M58.6495383873926,111.00447819622826L55.8779428063037,120.05529026277814L63.29339742895906,107.16930223104056z" style="fill:rgb(167,41,160)">
    </path>
    <path d="M120.7820439226294,-170.61420642112768L114.10389931501382,-168.4793005060805L123.37156198219878,-168.24965129341933z" style="fill:rgb(43,180,168)">
    </path>
    <path d="M51.85108491406023,103.03831230323121L58.6495383873926,111.00447819622826L63.29339742895906,107.16930223104056z" style="fill:rgb(167,41,160)">
    </path>
    <path d="M47.38910816353263,117.67511207860629L55.8779428063037,120.05529026277814L51.72873302266347,111.7918386056637z" style="fill:rgb(167,41,160)">
    </path>
    <path d="M126.29445054557804,-167.96358904484168L136.75352011571155,-168.5848072104269L129.4154313206126,-170.1878533343833z" style="fill:rgb(109,213,75)">
    </path>
    <path d="M51.85108491406023,103.03831230323121L44.902627835005106,107.17729385773328L51.72873302266347,111.7918386056637z" style="fill:rgb(167,41,160)">
    </path>
    <path d="M4.632942894443561,130.61659610064126L51.728733022663484,111.79183860566373" style="fill:none;stroke:rgb(167,41,160);stroke-width:5;stroke-linecap:round">
    </path>
    <path d="M84.80853675199545,28.367003545753672L87.61432865975313,19.208290537062723L69.13578551333225,24.46225111188254z" style="fill:rgb(197,147,42)">
    </path>
    <path d="M87.61432865975313,19.208290537062723L80.80244132735177,11.337254222962398L69.13578551333225,24.46225111188254z" style="fill:rgb(197,147,42)">
    </path>
    <path d="M124.77966598760418,-240.31919027520055L123.37156198219881,-168.24965129341933" style="fill:none;stroke:rgb(43,180,168);stroke-width:5;stroke-linecap:round">
    </path>
    <path d="M130.7147854017512,-166.6407105034456L131.02695671960393,-169.48307296831607L123.37156198219878,-168.24965129341933z" style="fill:rgb(43,180,168)">
    </path>
    <path d="M120.231611542566,-166.01697005335416L114.10389931501382,-168.4793005060805L123.02212057812434,-150.36455133196927z" style="fill:rgb(43,180,168)">
    </path>
    <path d="M55.8779428063037,120.05529026277814L58.6495383873926,111.00447819622826L51.72873302266347,111.7918386056637z" style="fill:rgb(167,41,160)">
    </path>
    <path d="M58.6495383873926,111.00447819622826L51.85108491406023,103.03831230323121L51.72873302266347,111.7918386056637z" style="fill:rgb(167,41,160)">
    </path>
    <path d="M130.02371161113047,-200.55455743474084L84.01960776911132,-186.23875511702278" style="fill:none;stroke:rgb(197,147,42);stroke-width:5;stroke-linecap:round">
    </path>
    <path d="M114.10389931501382,-168.4793005060805L120.231611542566,-166.01697005335416L123.37156198219878,-168.24965129341933z" style="fill:rgb(43,180,168)">
    </path>
    <path d="M130.7147854017512,-166.6407105034456L120.231611542566,-166.01697005335416L123.02212057812434,-150.36455133196927z" style="fill:rgb(43,180,168)">
    </path>
    <path d="M120.231611542566,-166.01697005335416L130.7147854017512,-166.6407105034456L123.37156198219878,-168.24965129341933z" style="fill:rgb(43,180,168)">
    </path>
    <path d="M76.93240481480792,-14.487930310252477L85.48578587251092,-12.33151930015952L69.76187742233878,-16.38470117908773z" style="fill:rgb(197,147,42)">
    </path>
    <path d="M45.44453778907208,66.73207158120647L47.93930562287947,77.27732399101794L52.294494279671355,71.3150957651578z" style="fill:rgb(167,41,160)">
    </path>
    <path d="M81.4663974686908,-29.438318678634694L74.45051697090535,-25.041059750097023L69.76187742233878,-16.38470117908773z" style="fill:rgb(197,147,42)">
    </path>
    <path d="M59.23979857296991,70.45924170011607L56.45797149492294,79.59590628082867L63.89633690244892,66.82127550414967z" style="fill:rgb(167,41,160)">
    </path>
    <path d="M52.41768024288918,62.50189674708028L59.23979857296991,70.45924170011607L63.89633690244892,66.82127550414967z" style="fill:rgb(167,41,160)">
    </path>
    <path d="M47.93930562287947,77.27732399101794L56.45797149492294,79.59590628082867L52.294494279671355,71.3150957651578z" style="fill:rgb(167,41,160)">
    </path>
    <path d="M52.41768024288918,62.50189674708028L45.44453778907208,66.73207158120647L52.294494279671355,71.3150957651578z" style="fill:rgb(167,41,160)">
    </path>
    <path d="M5.044401943596527,89.6167939676046L52.294494279671355,71.31509576515784" style="fill:none;stroke:rgb(167,41,160);stroke-width:5;stroke-linecap:round">
    </path>
    <path d="M85.48578587251092,-12.33151930015952L88.30203924061387,-21.576622840969417L69.76187742233878,-16.38470117908773z" style="fill:rgb(197,147,42)">
    </path>
    <path d="M88.30203924061387,-21.576622840969417L81.4663974686908,-29.438318678634694L69.76187742233878,-16.38470117908773z" style="fill:rgb(197,147,42)">
    </path>
    <path d="M56.45797149492294,79.59590628082867L59.23979857296991,70.45924170011607L52.294494279671355,71.3150957651578z" style="fill:rgb(167,41,160)">
    </path>
    <path d="M59.23979857296991,70.45924170011607L52.41768024288918,62.50189674708028L52.294494279671355,71.3150957651578z" style="fill:rgb(167,41,160)">
    </path>
    <path d="M130.85653829330056,-242.13111649571164L84.70564535813548,-228.37041710914716" style="fill:none;stroke:rgb(197,147,42);stroke-width:5;stroke-linecap:round">
    </path>
    <path d="M77.58399526581604,-55.400494783827725L86.16765092344623,-53.30743128392227L70.3922508055185,-57.510981742427205z" style="fill:rgb(197,147,42)">
    </path>
    <path d="M45.990142558096686,26.01108833902507L48.493253306332754,36.60417883632752L52.86411749166122,30.56205376713537z" style="fill:rgb(167,41,160)">
    </path>
    <path d="M82.13488107990489,-70.49193732219642L75.093851756929,-66.00147336594733L70.3922508055185,-57.510981742427205z" style="fill:rgb(197,147,42)">
    </path>
    <path d="M59.834094519639464,29.636786967156137L57.04196058549689,38.860267991889025L64.50337738288492,26.198814036880872z" style="fill:rgb(167,41,160)">
    </path>
    <path d="M52.98814608465291,21.688569764457654L59.834094519639464,29.636786967156137L64.50337738288492,26.198814036880872z" style="fill:rgb(167,41,160)">
    </path>
    <path d="M48.493253306332754,36.60417883632752L57.04196058549689,38.860267991889025L52.86411749166122,30.56205376713537z" style="fill:rgb(167,41,160)">
    </path>
    <path d="M52.98814608465291,21.688569764457654L45.990142558096686,26.01108833902507L52.86411749166122,30.56205376713537z" style="fill:rgb(167,41,160)">
    </path>
    <path d="M5.458710606037348,48.3330423596487L52.86411749166122,30.562053767135392" style="fill:none;stroke:rgb(167,41,160);stroke-width:5;stroke-linecap:round">
    </path>
    <path d="M86.16765092344623,-53.30743128392227L88.9944434381242,-62.63989277452149L70.3922508055185,-57.510981742427205z" style="fill:rgb(197,147,42)">
    </path>
    <path d="M88.9944434381242,-62.63989277452149L82.13488107990489,-70.49193732219642L70.3922508055185,-57.510981742427205z" style="fill:rgb(197,147,42)">
    </path>
    <path d="M57.04196058549689,38.860267991889025L59.834094519639464,29.636786967156137L52.86411749166122,30.56205376713537z" style="fill:rgb(167,41,160)">
    </path>
    <path d="M104.4099430084564,-160.9370462041117L94.10562879893523,-162.08614364529595L96.65684600870662,-159.68253739264415z" style="fill:rgb(43,180,168)">
    </path>
    <path d="M59.834094519639464,29.636786967156137L52.98814608465291,21.688569764457654L52.86411749166122,30.56205376713537z" style="fill:rgb(167,41,160)">
    </path>
    <path d="M-130.26231844679475,-349.7801320936835L206.3798944469539,-431.97587954098196L69.78305394172797,-454.34873168920853z" style="fill:rgb(0,0,0); fill-opacity: 0.2">
    </path>
    <path d="M94.10562879893523,-162.08614364529595L87.31499340618714,-159.91527605875487L96.65684600870662,-159.68253739264415z" style="fill:rgb(43,180,168)">
    </path>
    <path d="M97.9174358232487,-232.30974450643305L96.65684600870662,-159.68253739264412" style="fill:none;stroke:rgb(43,180,168);stroke-width:5;stroke-linecap:round">
    </path>
    <path d="M104.02236257058263,-158.0474117768993L104.4099430084564,-160.9370462041117L96.65684600870662,-159.68253739264415z" style="fill:rgb(43,180,168)">
    </path>
    <path d="M93.43245279966382,-157.4124612846231L87.31499340618714,-159.91527605875487L96.34403178850101,-141.66016175789932z" style="fill:rgb(43,180,168)">
    </path>
    <path d="M78.24003423824766,-96.59237645622092L86.85417925740428,-94.56357800684984L71.0269497312743,-98.91946565114917z" style="fill:rgb(197,147,42)">
    </path>
    <path d="M46.53948005895811,-14.988485779199245L49.05098968810635,-4.347148322427646L53.43764233731869,-10.470126154642386z" style="fill:rgb(167,41,160)">
    </path>
    <path d="M87.31499340618714,-159.91527605875487L93.43245279966382,-157.4124612846231L96.65684600870662,-159.68253739264415z" style="fill:rgb(43,180,168)">
    </path>
    <path d="M104.02236257058263,-158.0474117768993L93.43245279966382,-157.4124612846231L96.34403178850101,-141.66016175789932z" style="fill:rgb(43,180,168)">
    </path>
    <path d="M82.80793862816657,-111.82645539859581L75.74157998740485,-107.24161272626118L71.0269497312743,-98.91946565114917z" style="fill:rgb(197,147,42)">
    </path>
    <path d="M60.43246775969364,-11.465738874413908L57.62995077906703,-2.154463668896293L65.11456085370864,-14.700891655128377z" style="fill:rgb(167,41,160)">
    </path>
    <path d="M53.56252223551664,-19.4045158158208L60.43246775969364,-11.465738874413908L65.11456085370864,-14.700891655128377z" style="fill:rgb(167,41,160)">
    </path>
    <path d="M49.05098968810635,-4.347148322427646L57.62995077906703,-2.154463668896293L53.43764233731869,-10.470126154642386z" style="fill:rgb(167,41,160)">
    </path>
    <path d="M93.43245279966382,-157.4124612846231L104.02236257058263,-158.0474117768993L96.65684600870662,-159.68253739264415z" style="fill:rgb(43,180,168)">
    </path>
    <path d="M-130.26231844679475,-349.7801320936835L-129.14596589552997,531.3321833718398" style="fill:none;stroke:rgb(0,0,0);stroke-width:1;stroke-linecap:round">
    </path>
    <path d="M53.56252223551664,-19.4045158158208L46.53948005895811,-14.988485779199245L53.43764233731869,-10.470126154642386z" style="fill:rgb(167,41,160)">
    </path>
    <path d="M5.875898587684636,6.762381233027354L53.43764233731871,-10.470126154642365" style="fill:none;stroke:rgb(167,41,160);stroke-width:5;stroke-linecap:round">
    </path>
    <path d="M86.85417925740428,-94.56357800684984L89.69158946763662,-103.9843786917163L71.0269497312743,-98.91946565114917z" style="fill:rgb(197,147,42)">
    </path>
    <path d="M89.69158946763662,-103.9843786917163L82.80793862816657,-111.82645539859581L71.0269497312743,-98.91946565114917z" style="fill:rgb(197,147,42)">
    </path>
    <path d="M57.62995077906703,-2.154463668896293L60.43246775969364,-11.465738874413908L53.43764233731869,-10.470126154642386z" style="fill:rgb(167,41,160)">
    </path>
    <path d="M-103.62383105154196,-172.21667563889284L227.8742621375921,-271.058655013017L206.3798944469539,-431.97587954098196z" style="fill:rgb(0,0,0); fill-opacity: 0.2">
    </path>
    <path d="M60.43246775969364,-11.465738874413908L53.56252223551664,-19.4045158158208L53.43764233731869,-10.470126154642386z" style="fill:rgb(167,41,160)">
    </path>
    <path d="M78.90056744439082,-138.06644554587308L87.54541887690029,-136.10284412601L71.6660188748749,-140.61306757088275z" style="fill:rgb(197,147,42)">
    </path>
    <path d="M47.09258872912988,-56.269519538188156L49.61255377050514,-45.57952119684789L54.015109040755654,-51.78432178830773z" style="fill:rgb(167,41,160)">
    </path>
    <path d="M83.48561721871197,-153.44476578414032L76.39374682192154,-148.76435309205348L71.6660188748749,-140.61306757088275z" style="fill:rgb(197,147,42)">
    </path>
    <path d="M61.0349603972686,-52.851227976565106L58.221983336304596,-43.451166802859376L65.72992987338947,-55.8806895364502z" style="fill:rgb(167,41,160)">
    </path>
    <path d="M54.14084903909469,-60.78024633155378L61.0349603972686,-52.851227976565106L65.72992987338947,-55.8806895364502z" style="fill:rgb(167,41,160)">
    </path>
    <path d="M49.61255377050514,-45.57952119684789L58.221983336304596,-43.451166802859376L54.015109040755654,-51.78432178830773z" style="fill:rgb(167,41,160)">
    </path>
    <path d="M54.14084903909469,-60.78024633155378L47.09258872912988,-56.269519538188156L54.015109040755654,-51.78432178830773z" style="fill:rgb(167,41,160)">
    </path>
    <path d="M6.29599600879095,-35.09819074227664L54.015109040755654,-51.78432178830775" style="fill:none;stroke:rgb(167,41,160);stroke-width:5;stroke-linecap:round">
    </path>
    <path d="M87.54541887690029,-136.10284412601L90.39352620716471,-145.61297932002017L71.6660188748749,-140.61306757088275z" style="fill:rgb(197,147,42)">
    </path>
    <path d="M90.39352620716471,-145.61297932002017L83.48561721871197,-153.44476578414032L71.6660188748749,-140.61306757088275z" style="fill:rgb(197,147,42)">
    </path>
    <path d="M58.221983336304596,-43.451166802859376L61.0349603972686,-52.851227976565106L54.015109040755654,-51.78432178830773z" style="fill:rgb(167,41,160)">
    </path>
    <path d="M61.0349603972686,-52.851227976565106L54.14084903909469,-60.78024633155378L54.015109040755654,-51.78432178830773z" style="fill:rgb(167,41,160)">
    </path>
    <path d="M-260.4257574103468,481.75091050423856L-271.28620778716487,-376.94718859874115L-129.14596589552997,531.3321833718398z" style="fill:rgb(0,0,0); fill-opacity: 0.2">
    </path>
    <path d="M77.34270065244871,-152.24646280065627L66.97843215642263,-153.41397255982653L69.48967658755883,-150.9703266761397z" style="fill:rgb(43,180,168)">
    </path>
    <path d="M79.56564122499549,-179.82561173158976L88.24141844555022,-177.92815402657808L72.3095035289372,-182.59474244376455z" style="fill:rgb(197,147,42)">
    </path>
    <path d="M47.649507535645085,-97.83492122612532L50.177985093016765,-87.09584294072954L54.596558380914274,-93.3834506166962z" style="fill:rgb(167,41,160)">
    </path>
    <path d="M66.97843215642263,-153.41397255982653L60.0724395564434,-151.2062269482454L69.48967658755883,-150.9703266761397z" style="fill:rgb(43,180,168)">
    </path>
    <path d="M84.16796460583055,-195.34980121548173L77.0503980411142,-190.5726092656833L72.3095035289372,-182.59474244376455z" style="fill:rgb(197,147,42)">
    </path>
    <path d="M61.641615118220265,-94.52261244985706L58.81810008716229,-85.03275922105054L66.34952758530325,-97.34346671293703z" style="fill:rgb(167,41,160)">
    </path>
    <path d="M54.723167395896475,-102.44154796296377L61.641615118220265,-94.52261244985706L66.34952758530325,-97.34346671293703z" style="fill:rgb(167,41,160)">
    </path>
    <path d="M50.177985093016765,-87.09584294072954L58.81810008716229,-85.03275922105054L54.596558380914274,-93.3834506166962z" style="fill:rgb(167,41,160)">
    </path>
    <path d="M54.723167395896475,-102.44154796296377L47.649507535645085,-97.83492122612532L54.596558380914274,-93.3834506166962z" style="fill:rgb(167,41,160)">
    </path>
    <path d="M6.719033411191913,-77.25171690488926L54.596558380914274,-93.38345061669624" style="fill:none;stroke:rgb(167,41,160);stroke-width:5;stroke-linecap:round">
    </path>
    <path d="M70.5975159788143,-224.16383052005716L69.48967658755883,-150.97032667613968" style="fill:none;stroke:rgb(43,180,168);stroke-width:5;stroke-linecap:round">
    </path>
    <path d="M88.24141844555022,-177.92815402657808L91.10030320880671,-187.52863336372428L72.3095035289372,-182.59474244376455z" style="fill:rgb(197,147,42)">
    </path>
    <path d="M76.87719044049422,-149.30835595672153L77.34270065244871,-152.24646280065627L69.48967658755883,-150.9703266761397z" style="fill:rgb(43,180,168)">
    </path>
    <path d="M66.17841633669855,-148.66190318021955L60.0724395564434,-151.2062269482454L69.21478458473989,-132.80857053729304z" style="fill:rgb(43,180,168)">
    </path>
    <path d="M91.10030320880671,-187.52863336372428L84.16796460583055,-195.34980121548173L72.3095035289372,-182.59474244376455z" style="fill:rgb(197,147,42)">
    </path>
    <path d="M58.81810008716229,-85.03275922105054L61.641615118220265,-94.52261244985706L54.596558380914274,-93.3834506166962z" style="fill:rgb(167,41,160)">
    </path>
    <path d="M60.0724395564434,-151.2062269482454L66.17841633669855,-148.66190318021955L69.48967658755883,-150.9703266761397z" style="fill:rgb(43,180,168)">
    </path>
    <path d="M76.87719044049422,-149.30835595672153L66.17841633669855,-148.66190318021955L69.21478458473989,-132.80857053729304z" style="fill:rgb(43,180,168)">
    </path>
    <path d="M61.641615118220265,-94.52261244985706L54.723167395896475,-102.44154796296377L54.596558380914274,-93.3834506166962z" style="fill:rgb(167,41,160)">
    </path>
    <path d="M66.17841633669855,-148.66190318021955L76.87719044049422,-149.30835595672153L69.48967658755883,-150.9703266761397z" style="fill:rgb(43,180,168)">
    </path>
    <path d="M80.23530256011146,-221.87282483301647L88.94222729949126,-220.04247250812972L72.95744961412697,-224.86748618655525z" style="fill:rgb(197,147,42)">
    </path>
    <path d="M48.210275984247815,-139.68763933766087L50.747323741591956,-128.89905683146333L55.182031701166494,-135.27047050412497z" style="fill:rgb(167,41,160)">
    </path>
    <path d="M84.8550292040827,-237.54453497852376L77.71158005737738,-232.66933627292656L72.95744961412697,-224.86748618655525z" style="fill:rgb(197,147,42)">
    </path>
    <path d="M62.252475200205566,-136.48286505592492L59.41834344072627,-126.9021991314624L66.9733977278154,-139.09215010646784z" style="fill:rgb(167,41,160)">
    </path>
    <path d="M55.30951877296883,-144.39138742254957L62.252475200205566,-136.48286505592492L66.9733977278154,-139.09215010646784z" style="fill:rgb(167,41,160)">
    </path>
    <path d="M50.747323741591956,-128.89905683146333L59.41834344072627,-126.9021991314624L55.182031701166494,-135.27047050412497z" style="fill:rgb(167,41,160)">
    </path>
    <path d="M55.30951877296883,-144.39138742254957L48.210275984247815,-139.68763933766087L55.182031701166494,-135.27047050412497z" style="fill:rgb(167,41,160)">
    </path>
    <path d="M7.145041765708058,-119.70128333960189L55.182031701166494,-135.2704705041249" style="fill:none;stroke:rgb(167,41,160);stroke-width:5;stroke-linecap:round">
    </path>
    <path d="M88.94222729949126,-220.04247250812972L91.81197071040623,-229.73432019548576L72.95744961412697,-224.86748618655525z" style="fill:rgb(197,147,42)">
    </path>
    <path d="M91.81197071040623,-229.73432019548576L84.8550292040827,-237.54453497852376L72.95744961412697,-224.86748618655525z" style="fill:rgb(197,147,42)">
    </path>
    <path d="M59.41834344072627,-126.9021991314624L62.252475200205566,-136.48286505592492L55.182031701166494,-135.27047050412497z" style="fill:rgb(167,41,160)">
    </path>
    <path d="M62.252475200205566,-136.48286505592492L55.30951877296883,-144.39138742254957L55.182031701166494,-135.27047050412497z" style="fill:rgb(167,41,160)">
    </path>
    <path d="M48.77493412873482,-181.83066327112752L51.32061035811783,-170.9921469656072L55.77157091911337,-177.44838039747845z" style="fill:rgb(167,41,160)">
    </path>
    <path d="M62.86758452297405,-178.73499991441784L60.02275639527365,-169.06248584057496L67.60158464457324,-181.12970714369993z" style="fill:rgb(167,41,160)">
    </path>
    <path d="M55.89994521373952,-186.63277265932072L62.86758452297405,-178.73499991441784L67.60158464457324,-181.12970714369993z" style="fill:rgb(167,41,160)">
    </path>
    <path d="M51.32061035811783,-170.9921469656072L60.02275639527365,-169.06248584057496L55.77157091911337,-177.44838039747845z" style="fill:rgb(167,41,160)">
    </path>
    <path d="M55.89994521373952,-186.63277265932072L48.77493412873482,-181.83066327112752L55.77157091911337,-177.44838039747845z" style="fill:rgb(167,41,160)">
    </path>
    <path d="M7.574052479703174,-162.4500196305212L55.77157091911338,-177.44838039747847" style="fill:none;stroke:rgb(167,41,160);stroke-width:5;stroke-linecap:round">
    </path>
    <path d="M49.813708739633526,-143.40762369452645L39.38893058630549,-144.59400929816303L41.8584610914619,-142.10930151656797z" style="fill:rgb(43,180,168)">
    </path>
    <path d="M60.02275639527365,-169.06248584057496L62.86758452297405,-178.73499991441784L55.77157091911337,-177.44838039747845z" style="fill:rgb(167,41,160)">
    </path>
    <path d="M39.38893058630549,-144.59400929816303L32.364616136041235,-142.34843790818158L41.8584610914619,-142.10930151656797z" style="fill:rgb(43,180,168)">
    </path>
    <path d="M62.86758452297405,-178.73499991441784L55.89994521373952,-186.63277265932072L55.77157091911337,-177.44838039747845z" style="fill:rgb(167,41,160)">
    </path>
    <path d="M42.8081084886632,-215.87793054538224L41.85846109146189,-142.10930151656802" style="fill:none;stroke:rgb(43,180,168);stroke-width:5;stroke-linecap:round">
    </path>
    <path d="M49.26765137634095,-140.41980288751583L49.813708739633526,-143.40762369452645L41.8584610914619,-142.10930151656797z" style="fill:rgb(43,180,168)">
    </path>
    <path d="M38.45782166736057,-139.76154544156736L32.364616136041235,-142.34843790818158L41.622836928796694,-123.80601179335146z" style="fill:rgb(43,180,168)">
    </path>
    <path d="M32.364616136041235,-142.34843790818158L38.45782166736057,-139.76154544156736L41.8584610914619,-142.10930151656797z" style="fill:rgb(43,180,168)">
    </path>
    <path d="M49.26765137634095,-140.41980288751583L38.45782166736057,-139.76154544156736L41.622836928796694,-123.80601179335146z" style="fill:rgb(43,180,168)">
    </path>
    <path d="M49.34352258049242,-224.26702404031795L51.89788615008914,-213.37813896898038L56.365218536589424,-219.92022104195323z" style="fill:rgb(167,41,160)">
    </path>
    <path d="M38.45782166736057,-139.76154544156736L49.26765137634095,-140.41980288751583L41.8584610914619,-142.10930151656797z" style="fill:rgb(43,180,168)">
    </path>
    <path d="M-129.14596589552997,531.3321833718398L-130.26231844679475,-349.7801320936835L1.053338774839058,487.30594567386186z" style="fill:rgb(0,0,0); fill-opacity: 0.2">
    </path>
    <path d="M63.48698757887511,-221.28207322474245L60.63138254854024,-211.51666046957186L68.23413329501265,-223.45914645916818z" style="fill:rgb(167,41,160)">
    </path>
    <path d="M56.49448934806647,-229.16875357776578L63.48698757887511,-221.28207322474245L68.23413329501265,-223.45914645916818z" style="fill:rgb(167,41,160)">
    </path>
    <path d="M51.89788615008914,-213.37813896898038L60.63138254854024,-211.51666046957186L56.365218536589424,-219.92022104195323z" style="fill:rgb(167,41,160)">
    </path>
    <path d="M56.49448934806647,-229.16875357776578L49.34352258049242,-224.26702404031795L56.365218536589424,-219.92022104195323z" style="fill:rgb(167,41,160)">
    </path>
    <path d="M8.006097404803022,-205.50109963020003L56.36521853658944,-219.92022104195328" style="fill:none;stroke:rgb(167,41,160);stroke-width:5;stroke-linecap:round">
    </path>
    <path d="M60.63138254854024,-211.51666046957186L63.48698757887511,-221.28207322474245L56.365218536589424,-219.92022104195323z" style="fill:rgb(167,41,160)">
    </path>
    <path d="M63.48698757887511,-221.28207322474245L56.49448934806647,-229.16875357776578L56.365218536589424,-219.92022104195323z" style="fill:rgb(167,41,160)">
    </path>
    <path d="M-271.28620778716487,-376.94718859874115L69.78305394172797,-454.34873168920853L-130.26231844679475,-349.7801320936835z" style="fill:rgb(0,0,0); fill-opacity: 0.2">
    </path>
    <path d="M21.811049897851913,-134.41670252929737L11.325204537626705,-135.62244335284592L13.751207451209497,-133.0956161899879z" style="fill:rgb(43,180,168)">
    </path>
    <path d="M11.325204537626705,-135.62244335284592L4.179501129687046,-133.3380656747427L13.751207451209497,-133.0956161899879z" style="fill:rgb(43,180,168)">
    </path>
    <path d="M14.53700638120478,-207.4484048594084L13.751207451209483,-133.09561618998794" style="fill:none;stroke:rgb(43,180,168);stroke-width:5;stroke-linecap:round">
    </path>
    <path d="M21.181726832793963,-131.37788334576055L21.811049897851913,-134.41670252929737L13.751207451209497,-133.0956161899879z" style="fill:rgb(43,180,168)">
    </path>
    <path d="M10.258584939389479,-130.70750825983626L4.179501129687046,-133.3380656747427L13.556249687922769,-114.6485900872579z" style="fill:rgb(43,180,168)">
    </path>
    <path d="M4.179501129687046,-133.3380656747427L10.258584939389479,-130.70750825983626L13.751207451209497,-133.0956161899879z" style="fill:rgb(43,180,168)">
    </path>
    <path d="M21.181726832793963,-131.37788334576055L10.258584939389479,-130.70750825983626L13.556249687922769,-114.6485900872579z" style="fill:rgb(43,180,168)">
    </path>
    <path d="M15.342657845324267,-132.33987106344742L4.842775783601358,-133.55010495588186L7.258567025309354,-131.01349822546766z" style="fill:rgb(74,87,214)">
    </path>
    <path d="M4.842775783601358,-133.55010495588186L-2.3311153789976906,-131.25671606168643L7.258567025309354,-131.01349822546766z" style="fill:rgb(74,87,214)">
    </path>
    <path d="M10.258584939389479,-130.70750825983626L21.181726832793963,-131.37788334576055L13.751207451209497,-133.0956161899879z" style="fill:rgb(43,180,168)">
    </path>
    <path d="M8.00609740480305,-205.50109963020003L7.258567025309344,-131.01349822546763" style="fill:none;stroke:rgb(74,87,214);stroke-width:5;stroke-linecap:round">
    </path>
    <path d="M14.69390996875863,-129.28921013882035L15.342657845324267,-132.33987106344742L7.258567025309354,-131.01349822546766z" style="fill:rgb(74,87,214)">
    </path>
    <path d="M3.7445442784297573,-128.6160202200506L-2.3311153789976906,-131.25671606168643L7.073106536272523,-112.53330349002688z" style="fill:rgb(74,87,214)">
    </path>
    <path d="M-2.3311153789976906,-131.25671606168643L3.7445442784297573,-128.6160202200506L7.258567025309354,-131.01349822546766z" style="fill:rgb(74,87,214)">
    </path>
    <path d="M14.69390996875863,-129.28921013882035L3.7445442784297573,-128.6160202200506L7.073106536272523,-112.53330349002688z" style="fill:rgb(74,87,214)">
    </path>
    <path d="M3.7445442784297573,-128.6160202200506L14.69390996875863,-129.28921013882035L7.258567025309354,-131.01349822546766z" style="fill:rgb(74,87,214)">
    </path>
    <path d="M1.053338774839058,487.30594567386186L8.006097404803022,-205.50109963020003L-130.26231844679475,-349.7801320936835z" style="fill:rgb(0,0,0); fill-opacity: 0.2">
    </path>
    <path d="M-6.67760690710265,-125.26974013248238L-17.22507885311676,-126.49533208639289L-14.844493198041082,-123.92529131070837z" style="fill:rgb(43,180,168)">
    </path>
    <path d="M-17.22507885311676,-126.49533208639289L-24.495345255745356,-124.17113342659754L-14.844493198041082,-123.92529131070837z" style="fill:rgb(43,180,168)">
    </path>
    <path d="M8.006097404803022,-205.50109963020003L-103.62383105154196,-172.21667563889284" style="fill:none;stroke:rgb(22,31,115);stroke-width:5;stroke-linecap:round">
    </path>
    <path d="M8.006097404803022,-205.50109963020003L-130.26231844679475,-349.7801320936835" style="fill:none;stroke:rgb(0,0,0);stroke-width:1;stroke-linecap:round">
    </path>
    <path d="M8.006097404803022,-205.50109963020003L-130.26231844679475,-349.7801320936835" style="fill:none;stroke:rgb(0,0,0);stroke-width:1;stroke-linecap:round">
    </path>
    <path d="M-14.228424200075432,-198.8714864558974L-14.844493198041091,-123.92529131070845" style="fill:none;stroke:rgb(43,180,168);stroke-width:5;stroke-linecap:round">
    </path>
    <path d="M-7.393020089794594,-122.17859342388297L-6.67760690710265,-125.26974013248238L-14.844493198041082,-123.92529131070837z" style="fill:rgb(43,180,168)">
    </path>
    <path d="M-18.431798629014185,-121.49577667673314L-24.495345255745356,-124.17113342659754L-14.997330590652657,-105.3322747979905z" style="fill:rgb(43,180,168)">
    </path>
    <path d="M-24.495345255745356,-124.17113342659754L-18.431798629014185,-121.49577667673314L-14.844493198041082,-123.92529131070837z" style="fill:rgb(43,180,168)">
    </path>
    <path d="M-7.393020089794594,-122.17859342388297L-18.431798629014185,-121.49577667673314L-14.997330590652657,-105.3322747979905z" style="fill:rgb(43,180,168)">
    </path>
    <path d="M-18.431798629014185,-121.49577667673314L-7.393020089794594,-122.17859342388297L-14.844493198041082,-123.92529131070837z" style="fill:rgb(43,180,168)">
    </path>
    <path d="M-20.69410899140477,-120.7694080045846L-31.271716131487324,-122.00482599913074L-28.913895784670085,-119.4133895336088z" style="fill:rgb(74,87,214)">
    </path>
    <path d="M-31.271716131487324,-122.00482599913074L-38.60366299047137,-119.66090899257084L-28.913895784670085,-119.4133895336088z" style="fill:rgb(74,87,214)">
    </path>
    <path d="M-28.382459190303653,-194.65121230256588L-28.913895784670085,-119.41338953360875" style="fill:none;stroke:rgb(74,87,214);stroke-width:5;stroke-linecap:round">
    </path>
    <path d="M-21.45238940154644,-117.65235160736103L-20.69410899140477,-120.7694080045846L-28.913895784670085,-119.4133895336088z" style="fill:rgb(74,87,214)">
    </path>
    <path d="M-32.54819400970785,-116.963371424713L-38.60366299047137,-119.66090899257084L-29.04573285213139,-100.74863437526575z" style="fill:rgb(74,87,214)">
    </path>
    <path d="M-38.60366299047137,-119.66090899257084L-32.54819400970785,-116.963371424713L-28.913895784670085,-119.4133895336088z" style="fill:rgb(74,87,214)">
    </path>
    <path d="M-21.45238940154644,-117.65235160736103L-32.54819400970785,-116.963371424713L-29.04573285213139,-100.74863437526575z" style="fill:rgb(74,87,214)">
    </path>
    <path d="M-130.26231844679475,-349.7801320936835L206.3798944469539,-431.97587954098196L-103.62383105154196,-172.21667563889284z" style="fill:rgb(0,0,0); fill-opacity: 0.2">
    </path>
    <path d="M-32.54819400970785,-116.963371424713L-21.45238940154644,-117.65235160736103L-28.913895784670085,-119.4133895336088z" style="fill:rgb(74,87,214)">
    </path>
    <path d="M-129.14596589552997,531.3321833718398L-130.26231844679475,-349.7801320936835L-271.28620778716487,-376.94718859874115z" style="fill:rgb(0,0,0); fill-opacity: 0.2">
    </path>
    <path d="M-35.6650244767953,-115.96263870239183L-46.27468383323752,-117.20859495417821L-43.941484783140446,-114.59420797346493z" style="fill:rgb(43,180,168)">
    </path>
    <path d="M-46.27468383323752,-117.20859495417821L-53.67279889804072,-114.84352493247847L-43.941484783140446,-114.59420797346493z" style="fill:rgb(43,180,168)">
    </path>
    <path d="M-43.501262821715905,-190.14327543233819L-43.94148478314046,-114.594207973465" style="fill:none;stroke:rgb(43,180,168);stroke-width:5;stroke-linecap:round">
    </path>
    <path d="M-36.46946300834423,-112.81778861853174L-35.6650244767953,-115.96263870239183L-43.941484783140446,-114.59420797346493z" style="fill:rgb(43,180,168)">
    </path>
    <path d="M-47.62627323855562,-112.12219464805001L-53.67279889804072,-114.84352493247847L-44.05068980953509,-95.85289420701977z" style="fill:rgb(43,180,168)">
    </path>
    <path d="M-53.67279889804072,-114.84352493247847L-47.62627323855562,-112.12219464805001L-43.941484783140446,-114.59420797346493z" style="fill:rgb(43,180,168)">
    </path>
    <path d="M-36.46946300834423,-112.81778861853174L-47.62627323855562,-112.12219464805001L-44.05068980953509,-95.85289420701977z" style="fill:rgb(43,180,168)">
    </path>
    <path d="M-47.62627323855562,-112.12219464805001L-36.46946300834423,-112.81778861853174L-43.941484783140446,-114.59420797346493z" style="fill:rgb(43,180,168)">
    </path>
    <path d="M-130.26231844679475,-349.7801320936835L-271.28620778716487,-376.94718859874115" style="fill:none;stroke:rgb(0,0,0);stroke-width:1;stroke-linecap:round">
    </path>
    <path d="M-130.26231844679475,-349.7801320936835L-271.28620778716487,-376.94718859874115" style="fill:none;stroke:rgb(0,0,0);stroke-width:1;stroke-linecap:round">
    </path>
    <path d="M-57.52920882858097,-108.94262110479023L-68.18542821914241,-110.2040479518251L-65.88875480242916,-107.55596125383357z" style="fill:rgb(74,87,214)">
    </path>
    <path d="M-68.18542821914241,-110.2040479518251L-75.68071234672301,-107.80791439091324L-65.88875480242916,-107.55596125383357z" style="fill:rgb(74,87,214)">
    </path>
    <path d="M-65.58326763127758,-183.55913781957454L-65.88875480242918,-107.55596125383363" style="fill:none;stroke:rgb(74,87,214);stroke-width:5;stroke-linecap:round">
    </path>
    <path d="M-58.40174906147087,-105.75695764778499L-57.52920882858097,-108.94262110479023L-65.88875480242916,-107.55596125383357z" style="fill:rgb(74,87,214)">
    </path>
    <path d="M-69.64783374364161,-105.05164768480476L-75.68071234672301,-107.80791439091324L-65.96453256322468,-88.70295832153698z" style="fill:rgb(74,87,214)">
    </path>
    <path d="M-75.68071234672301,-107.80791439091324L-69.64783374364161,-105.05164768480476L-65.88875480242916,-107.55596125383357z" style="fill:rgb(74,87,214)">
    </path>
    <path d="M-58.40174906147087,-105.75695764778499L-69.64783374364161,-105.05164768480476L-65.96453256322468,-88.70295832153698z" style="fill:rgb(74,87,214)">
    </path>
    <path d="M-65.16441644478665,-106.49115568697657L-75.83682506164139,-107.75800742152632L-73.55306552845727,-105.09810158480437z" style="fill:rgb(43,180,168)">
    </path>
    <path d="M-69.64783374364161,-105.05164768480476L-58.40174906147087,-105.75695764778499L-65.88875480242916,-107.55596125383357z" style="fill:rgb(74,87,214)">
    </path>
    <path d="M-75.83682506164139,-107.75800742152632L-83.36619103761544,-105.35097838829297L-73.55306552845727,-105.09810158480437z" style="fill:rgb(43,180,168)">
    </path>
    <path d="M-73.29505459043976,-181.2597330772364L-73.55306552845728,-105.09810158480443" style="fill:none;stroke:rgb(43,180,168);stroke-width:5;stroke-linecap:round">
    </path>
    <path d="M-66.06093159577702,-103.2911776047091L-65.16441644478665,-106.49115568697657L-73.55306552845727,-105.09810158480437z" style="fill:rgb(43,180,168)">
    </path>
    <path d="M-77.33824198142644,-102.58245879152776L-83.36619103761544,-105.35097838829297L-73.61706541137097,-86.20612926965447z" style="fill:rgb(43,180,168)">
    </path>
    <path d="M-83.36619103761544,-105.35097838829297L-77.33824198142644,-102.58245879152776L-73.55306552845727,-105.09810158480437z" style="fill:rgb(43,180,168)">
    </path>
    <path d="M-66.06093159577702,-103.2911776047091L-77.33824198142644,-102.58245879152776L-73.61706541137097,-86.20612926965447z" style="fill:rgb(43,180,168)">
    </path>
    <path d="M-77.33824198142644,-102.58245879152776L-66.06093159577702,-103.2911776047091L-73.55306552845727,-105.09810158480437z" style="fill:rgb(43,180,168)">
    </path>
    <path d="M8.006097404803022,-205.50109963020003L-103.62383105154196,-172.21667563889284L-130.26231844679475,-349.7801320936835z" style="fill:rgb(0,0,0); fill-opacity: 0.2">
    </path>
    <path d="M-95.18946736042567,-96.85089733544758L-105.92518765272405,-98.1391945559689L-103.69300822105167,-95.43255536426793z" style="fill:rgb(74,87,214)">
    </path>
    <path d="M-95.18946736042554,-96.85089733544766L-105.92518765272393,-98.1391945559689L-103.69300822105153,-95.43255536426793z" style="fill:rgb(43,180,168)">
    </path>
    <path d="M-105.92518765272393,-98.1391945559689L-113.58932858727694,-95.68907992438803L-103.69300822105153,-95.43255536426793z" style="fill:rgb(43,180,168)">
    </path>
    <path d="M-105.92518765272405,-98.1391945559689L-113.58932858727712,-95.68907992438791L-103.69300822105167,-95.43255536426793z" style="fill:rgb(74,87,214)">
    </path>
    <path d="M-103.62383105154184,-172.2166756388929L-103.69300822105153,-95.43255536426797" style="fill:none;stroke:rgb(43,180,168);stroke-width:5;stroke-linecap:round">
    </path>
    <path d="M-103.62383105154196,-172.21667563889284L-103.69300822105167,-95.43255536426787" style="fill:none;stroke:rgb(74,87,214);stroke-width:5;stroke-linecap:round">
    </path>
    <path d="M-96.18123195656173,-93.59431567611392L-95.18946736042567,-96.85089733544758L-103.69300822105167,-95.43255536426793z" style="fill:rgb(74,87,214)">
    </path>
    <path d="M-96.18123195656162,-93.59431567611392L-95.18946736042554,-96.85089733544766L-103.69300822105153,-95.43255536426793z" style="fill:rgb(43,180,168)">
    </path>
    <path d="M-107.58158735864374,-92.87211179927561L-113.58932858727694,-95.68907992438803L-103.7101664893315,-76.38750705349642z" style="fill:rgb(43,180,168)">
    </path>
    <path d="M-107.58158735864393,-92.87211179927561L-113.58932858727712,-95.68907992438791L-103.71016648933163,-76.38750705349632z" style="fill:rgb(74,87,214)">
    </path>
    <path d="M-113.58932858727694,-95.68907992438803L-107.58158735864374,-92.87211179927561L-103.69300822105153,-95.43255536426793z" style="fill:rgb(43,180,168)">
    </path>
    <path d="M-113.58932858727712,-95.68907992438791L-107.58158735864393,-92.87211179927561L-103.69300822105167,-95.43255536426793z" style="fill:rgb(74,87,214)">
    </path>
    <path d="M-96.18123195656162,-93.59431567611392L-107.58158735864374,-92.87211179927561L-103.7101664893315,-76.38750705349642z" style="fill:rgb(43,180,168)">
    </path>
    <path d="M-96.18123195656173,-93.59431567611392L-107.58158735864393,-92.87211179927561L-103.71016648933163,-76.38750705349632z" style="fill:rgb(74,87,214)">
    </path>
    <path d="M-130.26231844679475,-349.7801320936835L-130.26231844679475,-349.7801320936835L8.006097404803022,-205.50109963020003z" style="fill:rgb(0,0,0); fill-opacity: 0.2">
    </path>
    <path d="M-107.58158735864374,-92.87211179927561L-96.18123195656162,-93.59431567611392L-103.69300822105153,-95.43255536426793z" style="fill:rgb(43,180,168)">
    </path>
    <path d="M-107.58158735864393,-92.87211179927561L-96.18123195656173,-93.59431567611392L-103.69300822105167,-95.43255536426793z" style="fill:rgb(74,87,214)">
    </path>
    <path d="M-103.62383105154196,-172.21667563889284L-130.26231844679475,-349.7801320936835" style="fill:none;stroke:rgb(0,0,0);stroke-width:1;stroke-linecap:round">
    </path>
    <path d="M-103.62383105154196,-172.21667563889284L-130.26231844679475,-349.7801320936835" style="fill:none;stroke:rgb(0,0,0);stroke-width:1;stroke-linecap:round">
    </path>
    <path d="M-130.26231844679475,-349.7801320936835L-130.26231844679475,-349.7801320936835" style="fill:none;stroke:rgb(0,0,0);stroke-width:1;stroke-linecap:round">
    </path>
</svg>