<svg viewBox="-812 -675 1624 1350" width="1624" height="1350" style="background-color: rgb(255, 255, 255);">
    <path d="M11.00106202955353,167.20533937104088L-4.366605850340848,-411.3769299714748" style="fill:none;stroke:rgb(0,0,0);stroke-width:1;stroke-linecap:round">
    </path>
    <path d="M210.94165058371198,218.16143783096072L11.00106202955353,167.20533937104088" style="fill:none;stroke:rgb(160,0,0);stroke-width:4;stroke-linecap:round">
    </path>
    <path d="M210.94165058371198,218.16143783096072L205.97409529751351,-380.59308733997193" style="fill:none;stroke:rgb(0,0,0);stroke-width:1;stroke-linecap:round">
    </path>
    <path d="M70.99240268396302,335.552615780989L210.94165058371198,218.16143783096072" style="fill:none;stroke:rgb(160,0,0);stroke-width:4;stroke-linecap:round">
    </path>
    <path d="M205.97409529751351,-380.59308733997193L210.94165058371198,218.16143783096072L11.00106202955353,167.20533937104088z" style="fill:rgb(0,0,0); fill-opacity: 0.2">
    </path>
    <path d="M-4.366605850340848,-411.3769299714748L11.00106202955353,167.20533937104088L205.97409529751351,-380.59308733997193z" style="fill:rgb(0,0,0); fill-opacity: 0.2">
    </path>
    <path d="M205.97409529751351,-380.59308733997193L-4.366605850340848,-411.3769299714748" style="fill:none;stroke:rgb(0,0,0);stroke-width:1;stroke-linecap:round">
    </path>
    <path d="M-4.366605850340848,-411.3769299714748L-541.2802754254783,-249.34778081668756" style="fill:none;stroke:rgb(0,0,0);stroke-width:1;stroke-linecap:round">
    </path>
    <path d="M205.97409529751351,-380.59308733997193L-4.366605850340848,-411.3769299714748" style="fill:none;stroke:rgb(0,0,0);stroke-width:1;stroke-linecap:round">
    </path>
    <path d="M192.83074216644252,268.80466629754216L197.01538003632442,283.4911657309985L203.48960598545642,275.38911550403174z" style="fill:rgb(197,147,42)">
    </path>
    <path d="M214.1215706466656,274.44493092599305L210.15752587306767,287.0051783268118L219.19229673083393,266.8346360278371z" style="fill:rgb(197,147,42)">
    </path>
    <path d="M197.01538003632442,283.4911657309985L210.15752587306767,287.0051783268118L203.48960598545642,275.38911550403174z" style="fill:rgb(197,147,42)">
    </path>
    <path d="M203.37936849228953,263.180364549939L214.1215706466656,274.44493092599305L219.19229673083393,266.8346360278371z" style="fill:rgb(197,147,42)">
    </path>
    <path d="M203.37936849228953,263.180364549939L192.83074216644252,268.80466629754216L203.48960598545642,275.38911550403174z" style="fill:rgb(197,147,42)">
    </path>
    <path d="M262.27699740946025,-62.33112560525069L205.97409529751351,-380.59308733997193" style="fill:none;stroke:rgb(0,0,0);stroke-width:1;stroke-linecap:round">
    </path>
    <path d="M262.27699740946025,-62.33112560525069L205.97409529751351,-380.59308733997193" style="fill:none;stroke:rgb(0,0,0);stroke-width:1;stroke-linecap:round">
    </path>
    <path d="M64.35748304619293,25.49378941795452L262.27699740946036,-62.331125605250655" style="fill:none;stroke:rgb(0,0,0);stroke-width:1;stroke-linecap:round">
    </path>
    <path d="M276.61111970798925,-140.6517167131673L262.27699740946036,-62.331125605250655" style="fill:none;stroke:rgb(0,0,0);stroke-width:1;stroke-linecap:round">
    </path>
    <path d="M262.27699740946036,-62.331125605250655L-243.66400803002992,162.17541662444737" style="fill:none;stroke:rgb(0,0,0);stroke-width:1;stroke-linecap:round">
    </path>
    <path d="M276.61111970798925,-140.6517167131673L262.27699740946036,-62.331125605250655" style="fill:none;stroke:rgb(0,0,0);stroke-width:1;stroke-linecap:round">
    </path>
    <path d="M139.0382008021345,310.50081908355554L203.48960598545642,275.3891155040317" style="fill:none;stroke:rgb(197,147,42);stroke-width:5;stroke-linecap:round">
    </path>
    <path d="M210.15752587306767,287.0051783268118L214.1215706466656,274.44493092599305L203.48960598545642,275.38911550403174z" style="fill:rgb(197,147,42)">
    </path>
    <path d="M214.1215706466656,274.44493092599305L203.37936849228953,263.180364549939L203.48960598545642,275.38911550403174z" style="fill:rgb(197,147,42)">
    </path>
    <path d="M192.20937827815274,206.72286214222962L196.41833432831018,221.5260978819997L202.92849358764738,213.24617914631494z" style="fill:rgb(197,147,42)">
    </path>
    <path d="M213.62039552699645,212.15361434621096L209.63457624765593,224.91132747781143L218.72381740455424,204.96098464059583z" style="fill:rgb(197,147,42)">
    </path>
    <path d="M196.41833432831018,221.5260978819997L209.63457624765593,224.91132747781143L202.92849358764738,213.24617914631494z" style="fill:rgb(197,147,42)">
    </path>
    <path d="M202.81698496201943,200.89665086500824L213.62039552699645,212.15361434621096L218.72381740455424,204.96098464059583z" style="fill:rgb(197,147,42)">
    </path>
    <path d="M202.81698496201943,200.89665086500824L192.20937827815274,206.72286214222962L202.92849358764738,213.24617914631494z" style="fill:rgb(197,147,42)">
    </path>
    <path d="M138.08719621312264,247.25768577817541L202.92849358764738,213.24617914631494" style="fill:none;stroke:rgb(197,147,42);stroke-width:5;stroke-linecap:round">
    </path>
    <path d="M209.63457624765593,224.91132747781143L213.62039552699645,212.15361434621096L202.92849358764738,213.24617914631494z" style="fill:rgb(197,147,42)">
    </path>
    <path d="M213.62039552699645,212.15361434621096L202.81698496201943,200.89665086500824L202.92849358764738,213.24617914631494z" style="fill:rgb(197,147,42)">
    </path>
    <path d="M276.61111970798925,-140.6517167131673L133.1597462102874,-80.42462089575324" style="fill:none;stroke:rgb(45,114,23);stroke-width:5;stroke-linecap:round">
    </path>
    <path d="M276.61111970798925,-140.6517167131673L276.3855617396661,-243.8986988437817" style="fill:none;stroke:rgb(109,213,75);stroke-width:5;stroke-linecap:round">
    </path>
    <path d="M-232.769877280699,73.20847413191458L276.61111970798925,-140.6517167131673" style="fill:none;stroke:rgb(1,93,85);stroke-width:5;stroke-linecap:round">
    </path>
    <path d="M276.61111970798925,-140.6517167131673L276.3855617396661,-243.8986988437817" style="fill:none;stroke:rgb(43,180,168);stroke-width:5;stroke-linecap:round">
    </path>
    <path d="M191.58084435586343,143.92468444970706L195.8144028292571,158.84638037856075L202.3608960280052,150.38501414022278z" style="fill:rgb(197,147,42)">
    </path>
    <path d="M213.1134145807713,149.1406885607509L209.1055808047686,162.09960999242995L218.24995142345048,142.3758995058394z" style="fill:rgb(197,147,42)">
    </path>
    <path d="M195.8144028292571,158.84638037856075L209.1055808047686,162.09960999242995L202.3608960280052,150.38501414022278z" style="fill:rgb(197,147,42)">
    </path>
    <path d="M202.24809415661815,137.8922594942601L213.1134145807713,149.1406885607509L218.24995142345048,142.3758995058394z" style="fill:rgb(197,147,42)">
    </path>
    <path d="M202.24809415661815,137.8922594942601L191.58084435586343,143.92468444970706L202.3608960280052,150.38501414022278z" style="fill:rgb(197,147,42)">
    </path>
    <path d="M137.12496781931947,183.2681537794451L202.3608960280052,150.38501414022278" style="fill:none;stroke:rgb(197,147,42);stroke-width:5;stroke-linecap:round">
    </path>
    <path d="M205.97409529751351,-380.59308733997193L205.97409529751351,-380.59308733997193L262.27699740946025,-62.33112560525069z" style="fill:rgb(0,0,0); fill-opacity: 0.2">
    </path>
    <path d="M209.1055808047686,162.09960999242995L213.1134145807713,149.1406885607509L202.3608960280052,150.38501414022278z" style="fill:rgb(197,147,42)">
    </path>
    <path d="M213.1134145807713,149.1406885607509L202.24809415661815,137.8922594942601L202.3608960280052,150.38501414022278z" style="fill:rgb(197,147,42)">
    </path>
    <path d="M205.97409529751351,-380.59308733997193L210.94165058371198,218.16143783096072L64.35748304619274,25.493789417954485z" style="fill:rgb(0,0,0); fill-opacity: 0.2">
    </path>
    <path d="M190.94501557484364,80.39766171231152L195.20346572642865,95.43957831955849L201.7867002228245,86.79309651812817z" style="fill:rgb(197,147,42)">
    </path>
    <path d="M212.60052633447347,85.39354137340074L208.57043409134528,98.55750461377806L217.770605345308,79.06703939378409z" style="fill:rgb(197,147,42)">
    </path>
    <path d="M195.20346572642865,95.43957831955849L208.57043409134528,98.55750461377806L201.7867002228245,86.79309651812817z" style="fill:rgb(197,147,42)">
    </path>
    <path d="M201.67258247646376,74.1546093325427L212.60052633447347,85.39354137340074L217.770605345308,79.06703939378409z" style="fill:rgb(197,147,42)">
    </path>
    <path d="M201.67258247646376,74.1546093325427L190.94501557484364,80.39766171231152L201.7867002228245,86.79309651812817z" style="fill:rgb(197,147,42)">
    </path>
    <path d="M136.15131574537838,118.51893109767207L201.78670022282455,86.79309651812818" style="fill:none;stroke:rgb(197,147,42);stroke-width:5;stroke-linecap:round">
    </path>
    <path d="M64.35748304619274,25.493789417954485L205.97409529751351,-380.59308733997193" style="fill:none;stroke:rgb(0,0,0);stroke-width:1;stroke-linecap:round">
    </path>
    <path d="M205.97409529751351,-380.59308733997193L205.97409529751351,-380.59308733997193" style="fill:none;stroke:rgb(0,0,0);stroke-width:1;stroke-linecap:round">
    </path>
    <path d="M64.35748304619274,25.493789417954485L205.97409529751351,-380.59308733997193" style="fill:none;stroke:rgb(0,0,0);stroke-width:1;stroke-linecap:round">
    </path>
    <path d="M205.97409529751351,-380.59308733997193L-320.00365458698536,-205.77686828475555" style="fill:none;stroke:rgb(0,0,0);stroke-width:1;stroke-linecap:round">
    </path>
    <path d="M208.57043409134528,98.55750461377806L212.60052633447347,85.39354137340074L201.7867002228245,86.79309651812817z" style="fill:rgb(197,147,42)">
    </path>
    <path d="M212.60052633447347,85.39354137340074L201.67258247646376,74.1546093325427L201.7867002228245,86.79309651812817z" style="fill:rgb(197,147,42)">
    </path>
    <path d="M264.8554175518885,-245.84746433754327L265.3270159368322,-241.61891178253148L276.3285228076812,-270.0077192218535z" style="fill:rgb(109,213,75)">
    </path>
    <path d="M264.8554175518885,-245.84746433754327L265.3270159368322,-241.61891178253148L276.3285228076812,-270.0077192218535z" style="fill:rgb(43,180,168)">
    </path>
    <path d="M133.1597462102874,-80.42462089575324L139.0382008021345,310.50081908355554" style="fill:none;stroke:rgb(104,70,1);stroke-width:5;stroke-linecap:round">
    </path>
    <path d="M139.0382008021345,310.50081908355554L70.99240268396318,335.5526157809891" style="fill:none;stroke:rgb(160,0,0);stroke-width:4;stroke-linecap:round">
    </path>
    <path d="M281.1328416898539,-240.52868896081236L290.350333251463,-244.09822279553168L276.3285228076812,-270.0077192218535z" style="fill:rgb(109,213,75)">
    </path>
    <path d="M281.1328416898539,-240.52868896081236L290.350333251463,-244.09822279553168L276.3285228076812,-270.0077192218535z" style="fill:rgb(43,180,168)">
    </path>
    <path d="M265.3270159368322,-241.61891178253148L281.1328416898539,-240.52868896081236L276.3285228076812,-270.0077192218535z" style="fill:rgb(109,213,75)">
    </path>
    <path d="M265.3270159368322,-241.61891178253148L281.1328416898539,-240.52868896081236L276.3285228076812,-270.0077192218535z" style="fill:rgb(43,180,168)">
    </path>
    <path d="M64.35748304619274,25.493789417954485L70.99240268396302,335.552615780989L210.94165058371198,218.16143783096072z" style="fill:rgb(0,0,0); fill-opacity: 0.2">
    </path>
    <path d="M190.30176419598124,16.129031240261135L194.5854004112175,31.292966631229532L201.20579044386304,22.457609431162098z" style="fill:rgb(197,147,42)">
    </path>
    <path d="M239.8612868704099,-125.22254618927343L239.29096804569411,-229.59773173853097" style="fill:none;stroke:rgb(43,180,168);stroke-width:5;stroke-linecap:round">
    </path>
    <path d="M212.08162693600693,20.89926495305622L208.0290281875226,34.27219718237009L217.2856835540882,15.021775970361961z" style="fill:rgb(197,147,42)">
    </path>
    <path d="M194.5854004112175,31.292966631229532L208.0290281875226,34.27219718237009L201.20579044386304,22.457609431162098z" style="fill:rgb(197,147,42)">
    </path>
    <path d="M201.09033366226322,9.670824717374353L212.08162693600693,20.89926495305622L217.2856835540882,15.021775970361961z" style="fill:rgb(197,147,42)">
    </path>
    <path d="M201.09033366226322,9.670824717374353L190.30176419598124,16.129031240261135L201.20579044386304,22.457609431162098z" style="fill:rgb(197,147,42)">
    </path>
    <path d="M135.16603534172884,52.99640825061624L201.20579044386304,22.457609431162094" style="fill:none;stroke:rgb(197,147,42);stroke-width:5;stroke-linecap:round">
    </path>
    <path d="M208.0290281875226,34.27219718237009L212.08162693600693,20.89926495305622L201.20579044386304,22.457609431162098z" style="fill:rgb(197,147,42)">
    </path>
    <path d="M212.08162693600693,20.89926495305622L201.09033366226322,9.670824717374353L201.20579044386304,22.457609431162098z" style="fill:rgb(197,147,42)">
    </path>
    <path d="M262.27699740946036,-62.331125605250655L64.35748304619293,25.49378941795452L276.61111970798925,-140.6517167131673z" style="fill:rgb(0,0,0); fill-opacity: 0.2">
    </path>
    <path d="M230.26588703858494,-121.19398200764857L229.60418049750118,-225.86321367842953" style="fill:none;stroke:rgb(109,213,75);stroke-width:5;stroke-linecap:round">
    </path>
    <path d="M262.27699740946025,-62.33112560525069L64.35748304619274,25.493789417954485L205.97409529751351,-380.59308733997193z" style="fill:rgb(0,0,0); fill-opacity: 0.2">
    </path>
    <path d="M189.65095948022775,-48.89426938631201L193.96008139711356,-33.60647844659454L200.6180482405813,-42.63456546266118z" style="fill:rgb(197,147,42)">
    </path>
    <path d="M211.5566100845915,-44.35535287958863L207.4812526340791,-30.769427978886164L216.79508819634464,-49.7728146005519z" style="fill:rgb(197,147,42)">
    </path>
    <path d="M193.96008139711356,-33.60647844659454L207.4812526340791,-30.769427978886164L200.6180482405813,-42.63456546266118z" style="fill:rgb(197,147,42)">
    </path>
    <path d="M200.5012287167566,-55.57227324227933L211.5566100845915,-44.35535287958863L216.79508819634464,-49.7728146005519z" style="fill:rgb(197,147,42)">
    </path>
    <path d="M200.5012287167566,-55.57227324227933L189.65095948022775,-48.89426938631201L200.6180482405813,-42.63456546266118z" style="fill:rgb(197,147,42)">
    </path>
    <path d="M134.16891704117396,-13.313351272992964L200.6180482405813,-42.63456546266116" style="fill:none;stroke:rgb(197,147,42);stroke-width:5;stroke-linecap:round">
    </path>
    <path d="M207.4812526340791,-30.769427978886164L211.5566100845915,-44.35535287958863L200.6180482405813,-42.63456546266118z" style="fill:rgb(197,147,42)">
    </path>
    <path d="M211.5566100845915,-44.35535287958863L200.5012287167566,-55.57227324227933L200.6180482405813,-42.63456546266118z" style="fill:rgb(197,147,42)">
    </path>
    <path d="M227.69672780823421,-231.6003814265885L228.0267413317485,-227.2631282033739L239.1467259693866,-255.99576179847713z" style="fill:rgb(43,180,168)">
    </path>
    <path d="M243.97603206313875,-226.1394716486754L253.422393091707,-229.79763667991753L239.1467259693866,-255.99576179847713z" style="fill:rgb(43,180,168)">
    </path>
    <path d="M188.9924676000121,-114.6856111682291L193.327380234767,-99.27208817577663L200.02335235962326,-108.4968569159848z" style="fill:rgb(197,147,42)">
    </path>
    <path d="M228.0267413317485,-227.2631282033739L243.97603206313875,-226.1394716486754L239.1467259693866,-255.99576179847713z" style="fill:rgb(43,180,168)">
    </path>
    <path d="M211.02536695816462,-110.38383767535025L206.92699435730438,-96.58079698556568L216.29871911539342,-115.32996035140802z" style="fill:rgb(197,147,42)">
    </path>
    <path d="M202.20335968040953,-109.41211834980979L201.27112480572563,-214.94005595948775" style="fill:none;stroke:rgb(43,180,168);stroke-width:5;stroke-linecap:round">
    </path>
    <path d="M193.327380234767,-99.27208817577663L206.92699435730438,-96.58079698556568L200.02335235962326,-108.4968569159848z" style="fill:rgb(197,147,42)">
    </path>
    <path d="M199.90514582363917,-121.5881756453604L211.02536695816462,-110.38383767535025L216.29871911539342,-115.32996035140802z" style="fill:rgb(197,147,42)">
    </path>
    <path d="M199.90514582363917,-121.5881756453604L188.9924676000121,-114.6856111682291L200.02335235962326,-108.4968569159848z" style="fill:rgb(197,147,42)">
    </path>
    <path d="M70.99240268396318,335.5526157809891L64.35748304619293,25.49378941795452" style="fill:none;stroke:rgb(0,0,0);stroke-width:1;stroke-linecap:round">
    </path>
    <path d="M133.1597462102874,-80.42462089575316L200.0233523596232,-108.49685691598476" style="fill:none;stroke:rgb(197,147,42);stroke-width:5;stroke-linecap:round">
    </path>
    <path d="M217.99351401605446,-227.88005403201151L218.2859639153358,-223.51418817643616L229.43681897145072,-252.33658405535382z" style="fill:rgb(109,213,75)">
    </path>
    <path d="M206.92699435730438,-96.58079698556568L211.02536695816462,-110.38383767535025L200.02335235962326,-108.4968569159848z" style="fill:rgb(197,147,42)">
    </path>
    <path d="M211.02536695816462,-110.38383767535025L199.90514582363917,-121.5881756453604L200.02335235962326,-108.4968569159848z" style="fill:rgb(197,147,42)">
    </path>
    <path d="M234.27251237559042,-222.38172024645752L243.77910352943627,-226.06320978725955L229.43681897145072,-252.33658405535382z" style="fill:rgb(109,213,75)">
    </path>
    <path d="M218.2859639153358,-223.51418817643616L234.27251237559042,-222.38172024645752L229.43681897145072,-252.33658405535382z" style="fill:rgb(109,213,75)">
    </path>
    <path d="M133.1597462102874,-80.42462089575324L139.0382008021345,310.50081908355554L70.99240268396318,335.5526157809891z" style="fill:rgb(0,0,0); fill-opacity: 0.2">
    </path>
    <path d="M182.47177030618965,-101.12794305824278L181.34641151242067,-207.2585411883632" style="fill:none;stroke:rgb(109,213,75);stroke-width:5;stroke-linecap:round">
    </path>
    <path d="M276.61111970798925,-140.6517167131673L133.1597462102874,-80.42462089575324L64.35748304619293,25.49378941795452z" style="fill:rgb(0,0,0); fill-opacity: 0.2">
    </path>
    <path d="M189.61315366862183,-216.9986868551268L189.79432934490399,-212.54859223806693L201.03531483235486,-241.63347929450526z" style="fill:rgb(43,180,168)">
    </path>
    <path d="M205.88936301369804,-211.39016019934644L215.57322477254718,-215.14029894022983L201.03531483235486,-241.63347929450526z" style="fill:rgb(43,180,168)">
    </path>
    <path d="M189.79432934490399,-212.54859223806693L205.88936301369804,-211.39016019934644L201.03531483235486,-241.63347929450526z" style="fill:rgb(43,180,168)">
    </path>
    <path d="M163.60325834038048,-93.20612502061334L162.29097711767977,-199.912156895718" style="fill:none;stroke:rgb(43,180,168);stroke-width:5;stroke-linecap:round">
    </path>
    <path d="M169.65583539421584,-209.3468140335257L169.75750652075394,-204.83700579204603L181.06172911263403,-234.10643497456422z" style="fill:rgb(109,213,75)">
    </path>
    <path d="M64.35748304619293,25.49378941795452L70.99240268396318,335.5526157809891L133.1597462102874,-80.42462089575324z" style="fill:rgb(0,0,0); fill-opacity: 0.2">
    </path>
    <path d="M185.92839253412336,-203.66014395529183L195.7379007740452,-207.45894011695023L181.06172911263403,-234.10643497456422z" style="fill:rgb(109,213,75)">
    </path>
    <path d="M169.75750652075394,-204.83700579204603L185.92839253412336,-203.66014395529183L181.06172911263403,-234.10643497456422z" style="fill:rgb(109,213,75)">
    </path>
    <path d="M-7.498221131703889,57.37907942414091L1.3373712259866213,373.23891025469555" style="fill:none;stroke:rgb(0,0,0);stroke-width:1;stroke-linecap:round">
    </path>
    <path d="M-41.86571271392724,409.0532799598538L1.3373712259866213,373.23891025469555" style="fill:none;stroke:rgb(160,0,0);stroke-width:4;stroke-linecap:round">
    </path>
    <path d="M1.3373712259864523,373.2389102546953L-282.38498148578583,478.3903306876653" style="fill:none;stroke:rgb(160,0,0);stroke-width:4;stroke-linecap:round">
    </path>
    <path d="M133.1597462102874,-80.42462089575324L64.35748304619293,25.49378941795452" style="fill:none;stroke:rgb(0,0,0);stroke-width:1;stroke-linecap:round">
    </path>
    <path d="M133.1597462102874,-80.42462089575324L131.54124360257882,-188.05730464628766" style="fill:none;stroke:rgb(109,213,75);stroke-width:5;stroke-linecap:round">
    </path>
    <path d="M133.1597462102874,-80.42462089575324L64.35748304619293,25.49378941795452" style="fill:none;stroke:rgb(0,0,0);stroke-width:1;stroke-linecap:round">
    </path>
    <path d="M150.56972924948982,-202.0289742881771L150.59439655712717,-197.46168584456416L161.95898491962294,-226.90756722037221z" style="fill:rgb(43,180,168)">
    </path>
    <path d="M166.8374872706357,-196.2670661512105L176.7679205527436,-200.1126913255848L161.95898491962294,-226.90756722037221z" style="fill:rgb(43,180,168)">
    </path>
    <path d="M150.59439655712717,-197.46168584456416L166.8374872706357,-196.2670661512105L161.95898491962294,-226.90756722037221z" style="fill:rgb(43,180,168)">
    </path>
    <path d="M124.0251761458715,-76.5895329972796L122.31367659756471,-184.4998285006021" style="fill:none;stroke:rgb(43,180,168);stroke-width:5;stroke-linecap:round">
    </path>
    <path d="M-243.66400803003015,162.1754166244473L262.27699740946025,-62.33112560525069L205.97409529751351,-380.59308733997193z" style="fill:rgb(0,0,0); fill-opacity: 0.2">
    </path>
    <path d="M-320.00365458698536,-205.77686828475555L205.97409529751351,-380.59308733997193L-4.366605850340848,-411.3769299714748z" style="fill:rgb(0,0,0); fill-opacity: 0.2">
    </path>
    <path d="M-232.769877280699,73.20847413191458L276.61111970798925,-140.6517167131673L262.27699740946036,-62.331125605250655z" style="fill:rgb(0,0,0); fill-opacity: 0.2">
    </path>
    <path d="M119.77155376546457,-190.2205880761209L119.66996444177626,-185.55977736113914L131.13173318001103,-215.29031965340496z" style="fill:rgb(109,213,75)">
    </path>
    <path d="M136.02887410761394,-184.33622939902742L146.1560117057631,-188.25802960506306L131.13173318001103,-215.29031965340496z" style="fill:rgb(109,213,75)">
    </path>
    <path d="M119.66996444177626,-185.55977736113914L136.02887410761394,-184.33622939902742L131.13173318001103,-215.29031965340496z" style="fill:rgb(109,213,75)">
    </path>
    <path d="M110.5297036270476,-186.67715298513707L110.38974575232297,-181.9880929034895L121.88062112963658,-211.8040387527675z" style="fill:rgb(43,180,168)">
    </path>
    <path d="M-541.2802754254783,-249.34778081668756L-492.39563022670825,408.7157822360047" style="fill:none;stroke:rgb(0,0,0);stroke-width:1;stroke-linecap:round">
    </path>
    <path d="M-282.38498148578583,478.3903306876653L-492.39563022670825,408.7157822360047" style="fill:none;stroke:rgb(160,0,0);stroke-width:4;stroke-linecap:round">
    </path>
    <path d="M126.78324300275072,-180.75579834231792L136.96978646885344,-184.7006038588792L121.88062112963658,-211.8040387527675z" style="fill:rgb(43,180,168)">
    </path>
    <path d="M110.38974575232297,-181.9880929034895L126.78324300275072,-180.75579834231792L121.88062112963658,-211.8040387527675z" style="fill:rgb(43,180,168)">
    </path>
    <path d="M83.43146869887818,-59.546537532106804L81.30046519558012,-168.6881284998068" style="fill:none;stroke:rgb(43,180,168);stroke-width:5;stroke-linecap:round">
    </path>
    <path d="M1.3373712259866213,373.23891025469555L-7.498221131703889,57.37907942414091L-41.86571271392724,409.0532799598538z" style="fill:rgb(0,0,0); fill-opacity: 0.2">
    </path>
    <path d="M-41.86571271392724,409.0532799598538L-55.04618910362214,-1.4076228484082551" style="fill:none;stroke:rgb(84,0,79);stroke-width:5;stroke-linecap:round">
    </path>
    <path d="M-41.86571271392724,409.0532799598538L-117.10407871118777,450.04148180261427" style="fill:none;stroke:rgb(167,41,160);stroke-width:5;stroke-linecap:round">
    </path>
    <path d="M69.45442545476651,-170.92840356075902L69.14124818693638,-166.11275390710063L80.76118015410815,-196.3081804238141z" style="fill:rgb(43,180,168)">
    </path>
    <path d="M-43.99429885604302,342.76573740326654L-119.75857926093657,382.5067270161855" style="fill:none;stroke:rgb(167,41,160);stroke-width:5;stroke-linecap:round">
    </path>
    <path d="M85.68753586616883,-164.8412172325594L96.14022660394933,-168.8890900190955L80.76118015410815,-196.3081804238141z" style="fill:rgb(43,180,168)">
    </path>
    <path d="M69.14124818693638,-166.11275390710063L85.68753586616883,-164.8412172325594L80.76118015410815,-196.3081804238141z" style="fill:rgb(43,180,168)">
    </path>
    <path d="M41.78253448148608,-42.06051219374199L39.210549861827694,-152.46133007153344" style="fill:none;stroke:rgb(43,180,168);stroke-width:5;stroke-linecap:round">
    </path>
    <path d="M-7.498221131704062,57.379079424140876L-320.00365458698536,-205.77686828475555" style="fill:none;stroke:rgb(0,0,0);stroke-width:1;stroke-linecap:round">
    </path>
    <path d="M-7.498221131704062,57.379079424140876L-320.00365458698536,-205.77686828475555" style="fill:none;stroke:rgb(0,0,0);stroke-width:1;stroke-linecap:round">
    </path>
    <path d="M-243.66400803002992,162.17541662444737L-7.498221131703889,57.37907942414091" style="fill:none;stroke:rgb(0,0,0);stroke-width:1;stroke-linecap:round">
    </path>
    <path d="M-55.04618910362214,-1.4076228484082551L-7.498221131703889,57.37907942414091" style="fill:none;stroke:rgb(0,0,0);stroke-width:1;stroke-linecap:round">
    </path>
    <path d="M-55.04618910362214,-1.4076228484082551L-7.498221131703889,57.37907942414091" style="fill:none;stroke:rgb(0,0,0);stroke-width:1;stroke-linecap:round">
    </path>
    <path d="M-46.14946799141498,275.6503583490685L-122.44698937407878,314.1092585079941" style="fill:none;stroke:rgb(167,41,160);stroke-width:5;stroke-linecap:round">
    </path>
    <path d="M-41.86571271392724,409.0532799598538L-55.04618910362214,-1.4076228484082551L-7.498221131703889,57.37907942414091z" style="fill:rgb(0,0,0); fill-opacity: 0.2">
    </path>
    <path d="M-48.33172122436824,207.69153761520138L-125.16996298722302,244.83243908107156" style="fill:none;stroke:rgb(167,41,160);stroke-width:5;stroke-linecap:round">
    </path>
    <path d="M27.30321851385762,-154.76713026972502L26.807716568776513,-149.81981707255784L38.55956361234337,-180.40450431174858z" style="fill:rgb(43,180,168)">
    </path>
    <path d="M43.50921173003501,-148.50738561585825L54.23861824018106,-152.6624183933157L38.55956361234337,-180.40450431174858z" style="fill:rgb(43,180,168)">
    </path>
    <path d="M26.807716568776513,-149.81981707255784L43.50921173003501,-148.50738561585825L38.55956361234337,-180.40450431174858z" style="fill:rgb(43,180,168)">
    </path>
    <path d="M-541.2802754254783,-249.34778081668756L-4.366605850340848,-411.3769299714748L-320.00365458698536,-205.77686828475555z" style="fill:rgb(0,0,0); fill-opacity: 0.2">
    </path>
    <path d="M-0.9633140065355306,-24.11395476516508L-3.9990327903292973,-135.80286967059016" style="fill:none;stroke:rgb(43,180,168);stroke-width:5;stroke-linecap:round">
    </path>
    <path d="M-117.62533798890786,436.77980909197595L-128.30894114856957,442.4687641300982L-136.4479690322535,460.57960647338325z" style="fill:rgb(167,41,160)">
    </path>
    <path d="M-50.541572333664554,138.87327531758214L-127.92817096041604,174.65920097901514" style="fill:none;stroke:rgb(167,41,160);stroke-width:5;stroke-linecap:round">
    </path>
    <path d="M-109.84295506206101,462.91984971116585L-106.17383226811867,449.4399717794604L-136.4479690322535,460.57960647338325z" style="fill:rgb(167,41,160)">
    </path>
    <path d="M-106.17383226811867,449.4399717794604L-117.62533798890786,436.77980909197595L-136.4479690322535,460.57960647338325z" style="fill:rgb(167,41,160)">
    </path>
    <path d="M-492.39563022670825,408.7157822360047L-541.2802754254783,-249.34778081668756L-282.38498148578583,478.3903306876653z" style="fill:rgb(0,0,0); fill-opacity: 0.2">
    </path>
    <path d="M1.3373712259864523,373.2389102546953L-7.498221131704062,57.379079424140876L-320.00365458698536,-205.77686828475555z" style="fill:rgb(0,0,0); fill-opacity: 0.2">
    </path>
    <path d="M-120.2864802068481,369.0760796060593L-131.02976407039793,375.00474111496965L-139.24111715194377,392.7259930320718z" style="fill:rgb(167,41,160)">
    </path>
    <path d="M-52.77954817577062,69.17916431169017L-130.72230162816675,103.57203186705398" style="fill:none;stroke:rgb(167,41,160);stroke-width:5;stroke-linecap:round">
    </path>
    <path d="M-112.4521913657205,395.44563635854604L-108.76553237931033,381.7297538055432L-139.24111715194377,392.7259930320718z" style="fill:rgb(167,41,160)">
    </path>
    <path d="M-108.76553237931033,381.7297538055432L-120.2864802068481,369.0760796060593L-139.24111715194377,392.7259930320718z" style="fill:rgb(167,41,160)">
    </path>
    <path d="M-15.966752645551754,-138.17690949187855L-16.654232121559048,-133.09258554590653L-4.767518964492296,-164.07669640655175z" style="fill:rgb(43,180,168)">
    </path>
    <path d="M-243.66400803002992,162.17541662444737L262.27699740946036,-62.331125605250655L-232.769877280699,73.20847413191458z" style="fill:rgb(0,0,0); fill-opacity: 0.2">
    </path>
    <path d="M0.20491920927943186,-131.7375153850866L11.222177046277062,-136.00402046970027L-4.767518964492296,-164.07669640655175z" style="fill:rgb(43,180,168)">
    </path>
    <path d="M-16.654232121559048,-133.09258554590653L0.20491920927943186,-131.7375153850866L-4.767518964492296,-164.07669640655175z" style="fill:rgb(43,180,168)">
    </path>
    <path d="M-44.84998942761303,-5.688428809951192L-48.37356276709442,-118.6952906324133" style="fill:none;stroke:rgb(43,180,168);stroke-width:5;stroke-linecap:round">
    </path>
    <path d="M-320.00365458698536,-205.77686828475555L-282.38498148578583,478.3903306876653" style="fill:none;stroke:rgb(0,0,0);stroke-width:1;stroke-linecap:round">
    </path>
    <path d="M-122.98165973968884,300.5063861949847L-133.78528229893848,306.68043242973147L-142.07015128101852,324.0006050537931z" style="fill:rgb(167,41,160)">
    </path>
    <path d="M-55.04618910362214,-1.4076228484082551L-232.769877280699,73.20847413191458" style="fill:none;stroke:rgb(22,31,115);stroke-width:5;stroke-linecap:round">
    </path>
    <path d="M-55.0461891036221,-1.4076228484082551L-58.68480962218289,-114.72002665445241" style="fill:none;stroke:rgb(74,87,214);stroke-width:5;stroke-linecap:round">
    </path>
    <path d="M-55.04618910362214,-1.4076228484082551L-133.55306137214103,31.552960261779425" style="fill:none;stroke:rgb(167,41,160);stroke-width:5;stroke-linecap:round">
    </path>
    <path d="M-115.09476954995345,327.10921012001984L-111.39042449733662,313.15236836573644L-142.07015128101852,324.0006050537931z" style="fill:rgb(167,41,160)">
    </path>
    <path d="M-111.39042449733662,313.15236836573644L-122.98165973968884,300.5063861949847L-142.07015128101852,324.0006050537931z" style="fill:rgb(167,41,160)">
    </path>
    <path d="M-282.38498148578583,478.3903306876653L-320.00365458698536,-205.77686828475555L1.3373712259864523,373.2389102546953z" style="fill:rgb(0,0,0); fill-opacity: 0.2">
    </path>
    <path d="M-320.00365458698536,-205.77686828475555L205.97409529751351,-380.59308733997193L-243.66400803003015,162.1754166244473z" style="fill:rgb(0,0,0); fill-opacity: 0.2">
    </path>
    <path d="M-7.498221131703889,57.37907942414091L-243.66400803002992,162.17541662444737L-55.04618910362214,-1.4076228484082551z" style="fill:rgb(0,0,0); fill-opacity: 0.2">
    </path>
    <path d="M-125.7115338215452,231.05400776792268L-136.57616373246395,237.4792772375607L-144.935767479201,254.38653324288123z" style="fill:rgb(167,41,160)">
    </path>
    <path d="M-117.7713328083795,257.89393816572067L-114.04915036866973,243.69104932520614L-144.935767479201,254.38653324288123z" style="fill:rgb(167,41,160)">
    </path>
    <path d="M-114.04915036866973,243.69104932520614L-125.7115338215452,231.05400776792268L-144.935767479201,254.38653324288123z" style="fill:rgb(167,41,160)">
    </path>
    <path d="M-60.40062790545757,-121.14043406042155L-61.29032492708255,-115.91346032713525L-49.265698259388785,-147.30756078867088z" style="fill:rgb(43,180,168)">
    </path>
    <path d="M-44.27103896079211,-114.5139099759035L-32.954188640481256,-118.89643420723044L-49.265698259388785,-147.30756078867088z" style="fill:rgb(43,180,168)">
    </path>
    <path d="M-61.29032492708255,-115.91346032713525L-44.27103896079211,-114.5139099759035L-49.265698259388785,-147.30756078867088z" style="fill:rgb(43,180,168)">
    </path>
    <path d="M-89.92378008051045,13.23549950328731L-93.96079497026385,-101.12018215338718" style="fill:none;stroke:rgb(43,180,168);stroke-width:5;stroke-linecap:round">
    </path>
    <path d="M-70.72527719392923,-117.18184091695622L-71.66269796555636,-111.92143763778154L-59.6061099463089,-143.41077739954534z" style="fill:rgb(74,87,214)">
    </path>
    <path d="M-128.4767767170547,160.70178995021587L-139.4030935230328,167.38428688628383L-147.83867992477175,183.86642815172385z" style="fill:rgb(167,41,160)">
    </path>
    <path d="M-54.606458876544735,-110.5114510814502L-43.21941508441698,-114.92115819338544L-59.6061099463089,-143.41077739954534z" style="fill:rgb(74,87,214)">
    </path>
    <path d="M-71.66269796555636,-111.92143763778154L-54.606458876544735,-110.5114510814502L-59.6061099463089,-143.41077739954534z" style="fill:rgb(74,87,214)">
    </path>
    <path d="M-120.48254098536661,187.78275708149908L-116.74236839077724,173.32859552867762L-147.83867992477175,183.86642815172385z" style="fill:rgb(167,41,160)">
    </path>
    <path d="M-116.74236839077724,173.32859552867762L-128.4767767170547,160.70178995021587L-147.83867992477175,183.86642815172385z" style="fill:rgb(167,41,160)">
    </path>
    <path d="M-320.00365458698536,-205.77686828475555L-541.2802754254783,-249.34778081668756" style="fill:none;stroke:rgb(0,0,0);stroke-width:1;stroke-linecap:round">
    </path>
    <path d="M-320.00365458698536,-205.77686828475555L-541.2802754254783,-249.34778081668756" style="fill:none;stroke:rgb(0,0,0);stroke-width:1;stroke-linecap:round">
    </path>
    <path d="M-112.25958982309136,22.61303922790699L-116.55568912064595,-92.40924058985289" style="fill:none;stroke:rgb(74,87,214);stroke-width:5;stroke-linecap:round">
    </path>
    <path d="M-131.2780802766016,89.43213095758354L-142.26677463725636,96.37803100391095L-150.7796215079667,112.42248576541213z" style="fill:rgb(167,41,160)">
    </path>
    <path d="M-123.2290711183511,116.75815884465865L-119.47075415568904,102.04735659931315L-150.7796215079667,112.42248576541213z" style="fill:rgb(167,41,160)">
    </path>
    <path d="M-119.47075415568904,102.04735659931315L-131.2780802766016,89.43213095758354L-150.7796215079667,112.42248576541213z" style="fill:rgb(167,41,160)">
    </path>
    <path d="M-106.04600865789287,-103.63945303637729L-107.1487933942672,-98.26387850617999L-94.98310547124261,-130.07895921931666z" style="fill:rgb(43,180,168)">
    </path>
    <path d="M-89.9668667792313,-96.8179020747094L-78.33803548110208,-101.32124297819358L-94.98310547124261,-130.07895921931666z" style="fill:rgb(43,180,168)">
    </path>
    <path d="M-107.1487933942672,-98.26387850617999L-89.9668667792313,-96.8179020747094L-94.98310547124261,-130.07895921931666z" style="fill:rgb(43,180,168)">
    </path>
    <path d="M-136.23351275266182,32.67832977335914L-140.81113062950195,-83.05811319907481" style="fill:none;stroke:rgb(43,180,168);stroke-width:5;stroke-linecap:round">
    </path>
    <path d="M-7.498221131704062,57.379079424140876L-243.66400803003015,162.1754166244473L-320.00365458698536,-205.77686828475555z" style="fill:rgb(0,0,0); fill-opacity: 0.2">
    </path>
    <path d="M-134.11615451340512,17.226966914068775L-145.16792843907945,24.44262304832795L-153.75934444785028,40.03643251611818z" style="fill:rgb(167,41,160)">
    </path>
    <path d="M-282.38498148578583,478.3903306876653L-320.00365458698536,-205.77686828475555L-541.2802754254783,-249.34778081668756z" style="fill:rgb(0,0,0); fill-opacity: 0.2">
    </path>
    <path d="M-126.01161800149285,44.80217624796944L-122.23500101499829,29.829218177623925L-153.75934444785028,40.03643251611818z" style="fill:rgb(167,41,160)">
    </path>
    <path d="M-122.23500101499829,29.829218177623925L-134.11615451340512,17.226966914068775L-153.75934444785028,40.03643251611818z" style="fill:rgb(167,41,160)">
    </path>
    <path d="M-128.66866489972935,-94.96565798690266L-129.8790719783779,-89.51565979995686L-117.64370174851906,-121.53931516697503z" style="fill:rgb(74,87,214)">
    </path>
    <path d="M-112.61723671052678,-88.0463983203243L-100.83219660952959,-92.6102321033941L-117.64370174851906,-121.53931516697503z" style="fill:rgb(74,87,214)">
    </path>
    <path d="M-129.8790719783779,-89.51565979995686L-112.61723671052678,-88.0463983203243L-117.64370174851906,-121.53931516697503z" style="fill:rgb(74,87,214)">
    </path>
    <path d="M-55.04618910362214,-1.4076228484082551L-232.769877280699,73.20847413191458L-243.66400803002992,162.17541662444737z" style="fill:rgb(0,0,0); fill-opacity: 0.2">
    </path>
    <path d="M-320.00365458698536,-205.77686828475555L-320.00365458698536,-205.77686828475555L-7.498221131704062,57.379079424140876z" style="fill:rgb(0,0,0); fill-opacity: 0.2">
    </path>
    <path d="M-171.46550856165626,47.47024661381401L-176.46329661557687,-69.31324090840857" style="fill:none;stroke:rgb(74,87,214);stroke-width:5;stroke-linecap:round">
    </path>
    <path d="M-152.9531279087766,-85.65470648875426L-154.28054742033197,-80.12424635419427L-141.97054597619544,-112.37174569620001z" style="fill:rgb(43,180,168)">
    </path>
    <path d="M-136.93344925380174,-78.62978612976288L-124.97955590947895,-83.25900943460486L-141.97054597619544,-112.37174569620001z" style="fill:rgb(43,180,168)">
    </path>
    <path d="M-154.28054742033197,-80.12424635419427L-136.93344925380174,-78.62978612976288L-141.97054597619544,-112.37174569620001z" style="fill:rgb(43,180,168)">
    </path>
    <path d="M-183.83072915515967,52.66170144153875L-188.97780318462762,-64.48856084157924" style="fill:none;stroke:rgb(43,180,168);stroke-width:5;stroke-linecap:round">
    </path>
    <path d="M-243.66400803003015,162.1754166244473L-320.00365458698536,-205.77686828475555" style="fill:none;stroke:rgb(0,0,0);stroke-width:1;stroke-linecap:round">
    </path>
    <path d="M-243.66400803003015,162.1754166244473L-320.00365458698536,-205.77686828475555" style="fill:none;stroke:rgb(0,0,0);stroke-width:1;stroke-linecap:round">
    </path>
    <path d="M-232.769877280699,73.20847413191458L-243.66400803002992,162.17541662444737" style="fill:none;stroke:rgb(0,0,0);stroke-width:1;stroke-linecap:round">
    </path>
    <path d="M-232.769877280699,73.20847413191458L-243.66400803002992,162.17541662444737" style="fill:none;stroke:rgb(0,0,0);stroke-width:1;stroke-linecap:round">
    </path>
    <path d="M-188.64648390563033,-71.96944993731086L-190.14867858431208,-66.31965285372826L-177.7293031910584,-98.89606065099898z" style="fill:rgb(74,87,214)">
    </path>
    <path d="M-172.67723017383386,-64.78777341707915L-160.47295720570725,-69.51395786723045L-177.7293031910584,-98.89606065099898z" style="fill:rgb(74,87,214)">
    </path>
    <path d="M-190.14867858431208,-66.31965285372826L-172.67723017383386,-64.78777341707915L-177.7293031910584,-98.89606065099898z" style="fill:rgb(74,87,214)">
    </path>
    <path d="M-201.17503468558792,-67.16585479045436L-202.73936378528705,-61.473866763084686L-190.2816876658126,-94.16569547830356z" style="fill:rgb(43,180,168)">
    </path>
    <path d="M-185.22454141952312,-59.92874515251484L-172.9317633039474,-64.68920379931224L-190.2816876658126,-94.16569547830356z" style="fill:rgb(43,180,168)">
    </path>
    <path d="M-202.73936378528705,-61.473866763084686L-185.22454141952312,-59.92874515251484L-190.2816876658126,-94.16569547830356z" style="fill:rgb(43,180,168)">
    </path>
    <path d="M-232.7698772806988,73.20847413191451L-238.51708005914873,-45.38983247039977" style="fill:none;stroke:rgb(43,180,168);stroke-width:5;stroke-linecap:round">
    </path>
    <path d="M-232.769877280699,73.20847413191458L-238.5170800591489,-45.38983247039968" style="fill:none;stroke:rgb(74,87,214);stroke-width:5;stroke-linecap:round">
    </path>
    <path d="M-320.00365458698536,-205.77686828475555L-320.00365458698536,-205.77686828475555" style="fill:none;stroke:rgb(0,0,0);stroke-width:1;stroke-linecap:round">
    </path>
    <path d="M-250.76779417206913,-48.15140188425105L-252.58209083655288,-42.29086046839448L-239.97326542991172,-75.43942802654249z" style="fill:rgb(43,180,168)">
    </path>
    <path d="M-250.76779417206942,-48.15140188425099L-252.58209083655314,-42.2908604683944L-239.97326542991192,-75.4394280265424z" style="fill:rgb(74,87,214)">
    </path>
    <path d="M-234.8969735775289,-40.69277123751983L-222.25069299198603,-45.59012602561237L-239.97326542991172,-75.43942802654249z" style="fill:rgb(43,180,168)">
    </path>
    <path d="M-234.89697357752914,-40.69277123751975L-222.25069299198623,-45.59012602561229L-239.97326542991192,-75.4394280265424z" style="fill:rgb(74,87,214)">
    </path>
    <path d="M-252.58209083655288,-42.29086046839448L-234.8969735775289,-40.69277123751983L-239.97326542991172,-75.43942802654249z" style="fill:rgb(43,180,168)">
    </path>
    <path d="M-252.58209083655314,-42.2908604683944L-234.89697357752914,-40.69277123751975L-239.97326542991192,-75.4394280265424z" style="fill:rgb(74,87,214)">
    </path>
</svg>