<svg viewBox="-812 -675 1624 1350" width="1624" height="1350" style="background-color: rgb(255, 255, 255);">
    <path d="M11.00106202955353,167.20533937104088L-4.366605850340848,-411.3769299714748" style="fill:none;stroke:rgb(0,0,0);stroke-width:1;stroke-linecap:round">
    </path>
    <path d="M210.94165058371198,218.16143783096072L11.00106202955353,167.20533937104088" style="fill:none;stroke:rgb(160,0,0);stroke-width:4;stroke-linecap:round">
    </path>
    <path d="M210.94165058371198,218.16143783096072L205.97409529751351,-380.59308733997193" style="fill:none;stroke:rgb(0,0,0);stroke-width:1;stroke-linecap:round">
    </path>
    <path d="M70.99240268396302,335.552615780989L210.94165058371198,218.16143783096072" style="fill:none;stroke:rgb(160,0,0);stroke-width:4;stroke-linecap:round">
    </path>
    <path d="M205.97409529751351,-380.59308733997193L210.94165058371198,218.16143783096072L11.00106202955353,167.20533937104088z" style="fill:rgb(0,0,0); fill-opacity: 0.2">
    </path>
    <path d="M-4.366605850340848,-411.3769299714748L11.00106202955353,167.20533937104088L205.97409529751351,-380.59308733997193z" style="fill:rgb(0,0,0); fill-opacity: 0.2">
    </path>
    <path d="M205.97409529751351,-380.59308733997193L-4.366605850340848,-411.3769299714748" style="fill:none;stroke:rgb(0,0,0);stroke-width:1;stroke-linecap:round">
    </path>
    <path d="M-4.366605850340848,-411.3769299714748L-541.2802754254783,-249.34778081668756" style="fill:none;stroke:rgb(0,0,0);stroke-width:1;stroke-linecap:round">
    </path>
    <path d="M205.97409529751351,-380.59308733997193L-4.366605850340848,-411.3769299714748" style="fill:none;stroke:rgb(0,0,0);stroke-width:1;stroke-linecap:round">
    </path>
    <path d="M317.53662235633414,-364.26565637768084L316.66484360419156,245.10564896890784" style="fill:none;stroke:rgb(104,70,1);stroke-width:5;stroke-linecap:round">
    </path>
    <path d="M316.66484360419156,245.10564896890784L407.91614624972897,268.36160913100593" style="fill:none;stroke:rgb(197,147,42);stroke-width:5;stroke-linecap:round">
    </path>
    <path d="M316.6648436041918,245.10564896890796L70.9924026839633,335.5526157809891" style="fill:none;stroke:rgb(160,0,0);stroke-width:4;stroke-linecap:round">
    </path>
    <path d="M316.74782543658165,187.10154253785618L408.4964657696409,209.5365263799238" style="fill:none;stroke:rgb(197,147,42);stroke-width:5;stroke-linecap:round">
    </path>
    <path d="M316.8316996143472,128.4736887799672L409.08312823971846,150.06847961406646" style="fill:none;stroke:rgb(197,147,42);stroke-width:5;stroke-linecap:round">
    </path>
    <path d="M316.91648060905607,69.21197210318284L409.6762382250307,89.94686941598677" style="fill:none;stroke:rgb(197,147,42);stroke-width:5;stroke-linecap:round">
    </path>
    <path d="M262.27699740946025,-62.33112560525069L205.97409529751351,-380.59308733997193" style="fill:none;stroke:rgb(0,0,0);stroke-width:1;stroke-linecap:round">
    </path>
    <path d="M262.27699740946025,-62.33112560525069L205.97409529751351,-380.59308733997193" style="fill:none;stroke:rgb(0,0,0);stroke-width:1;stroke-linecap:round">
    </path>
    <path d="M64.35748304619304,25.493789417954556L262.27699740946053,-62.33112560525063" style="fill:none;stroke:rgb(0,0,0);stroke-width:1;stroke-linecap:round">
    </path>
    <path d="M317.53662235633436,-364.26565637768084L262.27699740946053,-62.33112560525063" style="fill:none;stroke:rgb(0,0,0);stroke-width:1;stroke-linecap:round">
    </path>
    <path d="M262.27699740946053,-62.33112560525063L-243.66400803002978,162.1754166244474" style="fill:none;stroke:rgb(0,0,0);stroke-width:1;stroke-linecap:round">
    </path>
    <path d="M317.53662235633436,-364.26565637768084L262.27699740946053,-62.33112560525063" style="fill:none;stroke:rgb(0,0,0);stroke-width:1;stroke-linecap:round">
    </path>
    <path d="M414.9385199281712,260.5443256020711L408.0365281485958,256.15889162866983L431.19409508842347,274.29413869664836z" style="fill:rgb(197,147,42)">
    </path>
    <path d="M400.93406408526636,268.6628088037038L403.4901102136525,280.74353592243153L431.19409508842347,274.29413869664836z" style="fill:rgb(197,147,42)">
    </path>
    <path d="M408.0365281485958,256.15889162866983L400.93406408526636,268.6628088037038L431.19409508842347,274.29413869664836z" style="fill:rgb(197,147,42)">
    </path>
    <path d="M317.0021832068995,9.30605699442646L410.27590260172013,29.160862102310414" style="fill:none;stroke:rgb(197,147,42);stroke-width:5;stroke-linecap:round">
    </path>
    <path d="M415.55571615049536,201.79975625439926L408.61816060513956,197.2007208056447L431.90383634921136,215.26025131831645z" style="fill:rgb(197,147,42)">
    </path>
    <path d="M401.4779530405617,209.67456763742538L404.04670344835074,221.95081630452333L431.90383634921136,215.26025131831645z" style="fill:rgb(197,147,42)">
    </path>
    <path d="M408.61816060513956,197.2007208056447L401.4779530405617,209.67456763742538L431.90383634921136,215.26025131831645z" style="fill:rgb(197,147,42)">
    </path>
    <path d="M317.08882251728915,-51.25461798963084L410.8822306212064,-32.30061678433993" style="fill:none;stroke:rgb(197,147,42);stroke-width:5;stroke-linecap:round">
    </path>
    <path d="M416.1796442164296,142.41445185441597L409.20615760874523,137.59739676144085L432.62136713306097,155.57845764995128z" style="fill:rgb(197,147,42)">
    </path>
    <path d="M205.97409529751351,-380.59308733997193L205.97409529751351,-380.59308733997193L262.27699740946025,-62.33112560525069z" style="fill:rgb(0,0,0); fill-opacity: 0.2">
    </path>
    <path d="M402.0278035020094,150.0397629415696L404.6093839396062,162.51510222369592L432.62136713306097,155.57845764995128z" style="fill:rgb(197,147,42)">
    </path>
    <path d="M409.20615760874523,137.59739676144085L402.0278035020094,150.0397629415696L432.62136713306097,155.57845764995128z" style="fill:rgb(197,147,42)">
    </path>
    <path d="M317.1764139817375,-112.4808464299256L411.4953339765412,-94.44888920159094" style="fill:none;stroke:rgb(197,147,42);stroke-width:5;stroke-linecap:round">
    </path>
    <path d="M205.97409529751351,-380.59308733997193L210.94165058371198,218.16143783096072L64.35748304619274,25.493789417954485z" style="fill:rgb(0,0,0); fill-opacity: 0.2">
    </path>
    <path d="M416.8104148676196,82.37787204227563L409.80062420076405,77.3382717994401L433.34681638444465,95.23803252469267z" style="fill:rgb(197,147,42)">
    </path>
    <path d="M64.35748304619274,25.493789417954485L205.97409529751351,-380.59308733997193" style="fill:none;stroke:rgb(0,0,0);stroke-width:1;stroke-linecap:round">
    </path>
    <path d="M205.97409529751351,-380.59308733997193L205.97409529751351,-380.59308733997193" style="fill:none;stroke:rgb(0,0,0);stroke-width:1;stroke-linecap:round">
    </path>
    <path d="M64.35748304619274,25.493789417954485L205.97409529751351,-380.59308733997193" style="fill:none;stroke:rgb(0,0,0);stroke-width:1;stroke-linecap:round">
    </path>
    <path d="M205.97409529751351,-380.59308733997193L-320.00365458698536,-205.77686828475555" style="fill:none;stroke:rgb(0,0,0);stroke-width:1;stroke-linecap:round">
    </path>
    <path d="M402.58371402484175,89.74770576990579L405.1782520976402,102.42578738861972L433.34681638444465,95.23803252469267z" style="fill:rgb(197,147,42)">
    </path>
    <path d="M409.80062420076405,77.3382717994401L402.58371402484175,89.74770576990579L433.34681638444465,95.23803252469267z" style="fill:rgb(197,147,42)">
    </path>
    <path d="M317.53662235633436,-364.26565637768084L316.6648436041918,245.10564896890796L70.9924026839633,335.5526157809891z" style="fill:rgb(0,0,0); fill-opacity: 0.2">
    </path>
    <path d="M317.2649733830321,-174.38366045814277L412.11532687100123,-157.29553156031744" style="fill:none;stroke:rgb(197,147,42);stroke-width:5;stroke-linecap:round">
    </path>
    <path d="M64.35748304619274,25.493789417954485L70.99240268396302,335.552615780989L210.94165058371198,218.16143783096072z" style="fill:rgb(0,0,0); fill-opacity: 0.2">
    </path>
    <path d="M417.4481412880991,21.679243992303252L410.40166774682325,16.412462618829846L434.0803159096151,34.22801274240827z" style="fill:rgb(197,147,42)">
    </path>
    <path d="M403.14578534873993,28.78747025868282L405.75341055325987,41.67203094841836L434.0803159096151,34.22801274240827z" style="fill:rgb(197,147,42)">
    </path>
    <path d="M410.40166774682325,16.412462618829846L403.14578534873993,28.78747025868282L434.0803159096151,34.22801274240827z" style="fill:rgb(197,147,42)">
    </path>
    <path d="M317.35451685471696,-236.9743373836439L412.742326089006,-220.85238191336057" style="fill:none;stroke:rgb(197,147,42);stroke-width:5;stroke-linecap:round">
    </path>
    <path d="M262.27699740946025,-62.33112560525069L64.35748304619274,25.493789417954485L205.97409529751351,-380.59308733997193z" style="fill:rgb(0,0,0); fill-opacity: 0.2">
    </path>
    <path d="M403.71412045869414,-32.85211297395977L406.3349642195846,-19.757249027525006L434.8220004564414,-27.46280957075945z" style="fill:rgb(197,147,42)">
    </path>
    <path d="M411.0093980014707,-45.191156238235905L403.71412045869414,-32.85211297395977L434.8220004564414,-27.46280957075945z" style="fill:rgb(197,147,42)">
    </path>
    <path d="M317.44506089089043,-300.26440654254526L413.37645106945376,-285.1315473893435" style="fill:none;stroke:rgb(197,147,42);stroke-width:5;stroke-linecap:round">
    </path>
    <path d="M262.27699740946053,-62.33112560525063L64.35748304619304,25.493789417954556L317.53662235633436,-364.26565637768084z" style="fill:rgb(0,0,0); fill-opacity: 0.2">
    </path>
    <path d="M404.28882464790837,-95.18246365048982L406.9230203558435,-81.87338228847165L435.57200779693176,-89.84589382639197z" style="fill:rgb(197,147,42)">
    </path>
    <path d="M411.6239271749892,-107.4839591594029L404.28882464790837,-95.18246365048982L435.57200779693176,-89.84589382639197z" style="fill:rgb(197,147,42)">
    </path>
    <path d="M70.9924026839633,335.5526157809891L64.35748304619304,25.493789417954556" style="fill:none;stroke:rgb(0,0,0);stroke-width:1;stroke-linecap:round">
    </path>
    <path d="M317.53662235633414,-364.26565637768084L414.0178239815717,-350.14541188138685" style="fill:none;stroke:rgb(197,147,42);stroke-width:5;stroke-linecap:round">
    </path>
    <path d="M317.53662235633414,-364.26565637768084L317.53662235633414,-364.26565637768084" style="fill:none;stroke:rgb(45,114,23);stroke-width:5;stroke-linecap:round">
    </path>
    <path d="M317.53662235633414,-364.26565637768084L414.0178239815717,-350.14541188138685" style="fill:none;stroke:rgb(109,213,75);stroke-width:5;stroke-linecap:round">
    </path>
    <path d="M-201.46584837489922,-182.43594610950396L317.53662235633414,-364.26565637768084" style="fill:none;stroke:rgb(1,93,85);stroke-width:5;stroke-linecap:round">
    </path>
    <path d="M317.53662235633414,-364.26565637768084L414.0178239815717,-350.14541188138685" style="fill:none;stroke:rgb(43,180,168);stroke-width:5;stroke-linecap:round">
    </path>
    <path d="M317.53662235633436,-364.26565637768084L64.35748304619304,25.493789417954556" style="fill:none;stroke:rgb(0,0,0);stroke-width:1;stroke-linecap:round">
    </path>
    <path d="M317.53662235633436,-364.26565637768084L64.35748304619304,25.493789417954556" style="fill:none;stroke:rgb(0,0,0);stroke-width:1;stroke-linecap:round">
    </path>
    <path d="M404.8700055828336,-158.2152588871438L407.51768863332506,-144.68795336854976L436.3304788125509,-152.9329580701711z" style="fill:rgb(197,147,42)">
    </path>
    <path d="M412.2453700024665,-170.47757646347054L404.8700055828336,-158.2152588871438L436.3304788125509,-152.9329580701711z" style="fill:rgb(197,147,42)">
    </path>
    <path d="M64.35748304619304,25.493789417954556L70.9924026839633,335.5526157809891L317.53662235633436,-364.26565637768084z" style="fill:rgb(0,0,0); fill-opacity: 0.2">
    </path>
    <path d="M405.4577733704097,-221.96244048689965L408.11908120356435,-208.21280878929048L437.0975575824412,-216.735986319861z" style="fill:rgb(197,147,42)">
    </path>
    <path d="M412.87384381520855,-234.18390163938506L405.4577733704097,-221.96244048689965L437.0975575824412,-216.735986319861z" style="fill:rgb(197,147,42)">
    </path>
    <path d="M317.53662235633436,-364.26565637768084L317.53662235633436,-364.26565637768084L64.35748304619304,25.493789417954556z" style="fill:rgb(0,0,0); fill-opacity: 0.2">
    </path>
    <path d="M280.2574258906837,-351.2050914003516L377.3222189612587,-336.6773922719188" style="fill:none;stroke:rgb(43,180,168);stroke-width:5;stroke-linecap:round">
    </path>
    <path d="M406.0522406276094,-286.4362224818303L408.727312768855,-272.4600645078856L437.87339147466605,-281.26723615454915z" style="fill:rgb(197,147,42)">
    </path>
    <path d="M413.50946861459187,-298.6150988323361L406.0522406276094,-286.4362224818303L437.87339147466605,-281.26723615454915z" style="fill:rgb(197,147,42)">
    </path>
    <path d="M-7.498221131703757,57.37907942414095L1.337371225986748,373.23891025469555" style="fill:none;stroke:rgb(0,0,0);stroke-width:1;stroke-linecap:round">
    </path>
    <path d="M-170.34654718736735,515.5609568714996L1.337371225986748,373.23891025469555" style="fill:none;stroke:rgb(160,0,0);stroke-width:4;stroke-linecap:round">
    </path>
    <path d="M1.3373712259864523,373.2389102546953L-282.38498148578583,478.3903306876653" style="fill:none;stroke:rgb(160,0,0);stroke-width:4;stroke-linecap:round">
    </path>
    <path d="M406.6535225533724,-351.6490989348408L409.3425006551824,-337.4421136210003L438.6581312405932,-346.53924656523907z" style="fill:rgb(197,147,42)">
    </path>
    <path d="M406.6535225533724,-351.6490989348408L409.3425006551824,-337.4421136210003L438.6581312405932,-346.53924656523907z" style="fill:rgb(109,213,75)">
    </path>
    <path d="M406.6535225533724,-351.6490989348408L409.3425006551824,-337.4421136210003L438.6581312405932,-346.53924656523907z" style="fill:rgb(43,180,168)">
    </path>
    <path d="M414.15236714845,-363.78361058685294L406.6535225533724,-351.6490989348408L438.6581312405932,-346.53924656523907z" style="fill:rgb(197,147,42)">
    </path>
    <path d="M414.15236714845,-363.78361058685294L406.6535225533724,-351.6490989348408L438.6581312405932,-346.53924656523907z" style="fill:rgb(109,213,75)">
    </path>
    <path d="M414.15236714845,-363.78361058685294L406.6535225533724,-351.6490989348408L438.6581312405932,-346.53924656523907z" style="fill:rgb(43,180,168)">
    </path>
    <path d="M-243.66400803003015,162.1754166244473L262.27699740946025,-62.33112560525069L205.97409529751351,-380.59308733997193z" style="fill:rgb(0,0,0); fill-opacity: 0.2">
    </path>
    <path d="M-320.00365458698536,-205.77686828475555L205.97409529751351,-380.59308733997193L-4.366605850340848,-411.3769299714748z" style="fill:rgb(0,0,0); fill-opacity: 0.2">
    </path>
    <path d="M242.03057801908582,-337.8125218752678L339.67736394747163,-322.8609789646409" style="fill:none;stroke:rgb(43,180,168);stroke-width:5;stroke-linecap:round">
    </path>
    <path d="M-541.2802754254783,-249.34778081668756L-492.39563022670825,408.7157822360047" style="fill:none;stroke:rgb(0,0,0);stroke-width:1;stroke-linecap:round">
    </path>
    <path d="M-282.38498148578583,478.3903306876653L-492.39563022670825,408.7157822360047" style="fill:none;stroke:rgb(160,0,0);stroke-width:4;stroke-linecap:round">
    </path>
    <path d="M369.75411101416734,-338.1601515589143L372.5639238544087,-323.80325575589626L402.11827875733275,-332.9661630518033z" style="fill:rgb(43,180,168)">
    </path>
    <path d="M377.41418088297996,-350.4736873038738L369.75411101416734,-338.1601515589143L402.11827875733275,-332.9661630518033z" style="fill:rgb(43,180,168)">
    </path>
    <path d="M202.81947906185042,-324.07512530248147L301.04594318220796,-308.682476331419" style="fill:none;stroke:rgb(43,180,168);stroke-width:5;stroke-linecap:round">
    </path>
    <path d="M-201.46584837489894,-182.43594610950396L317.53662235633436,-364.26565637768084L262.27699740946053,-62.33112560525063z" style="fill:rgb(0,0,0); fill-opacity: 0.2">
    </path>
    <path d="M331.89729233959883,-324.32121446966846L334.833340524503,-309.8113586253574L364.62902384456146,-319.0404147740662z" style="fill:rgb(43,180,168)">
    </path>
    <path d="M339.7244809397692,-336.8190389448682L331.89729233959883,-324.32121446966846L364.62902384456146,-319.0404147740662z" style="fill:rgb(43,180,168)">
    </path>
    <path d="M-7.498221131704062,57.379079424140876L-320.00365458698536,-205.77686828475555" style="fill:none;stroke:rgb(0,0,0);stroke-width:1;stroke-linecap:round">
    </path>
    <path d="M-7.498221131704062,57.379079424140876L-320.00365458698536,-205.77686828475555" style="fill:none;stroke:rgb(0,0,0);stroke-width:1;stroke-linecap:round">
    </path>
    <path d="M-243.66400803002978,162.1754166244474L-7.498221131703757,57.37907942414095" style="fill:none;stroke:rgb(0,0,0);stroke-width:1;stroke-linecap:round">
    </path>
    <path d="M-201.46584837489894,-182.43594610950396L-7.498221131703757,57.37907942414095" style="fill:none;stroke:rgb(0,0,0);stroke-width:1;stroke-linecap:round">
    </path>
    <path d="M-201.46584837489894,-182.43594610950396L-7.498221131703757,57.37907942414095" style="fill:none;stroke:rgb(0,0,0);stroke-width:1;stroke-linecap:round">
    </path>
    <path d="M162.58562004873212,-309.9794102724187L261.38865905600034,-294.1274613650668" style="fill:none;stroke:rgb(43,180,168);stroke-width:5;stroke-linecap:round">
    </path>
    <path d="M1.337371225986748,373.23891025469555L-7.498221131703757,57.37907942414095L-170.34654718736735,515.5609568714996z" style="fill:rgb(0,0,0); fill-opacity: 0.2">
    </path>
    <path d="M293.04531485731235,-310.11848716729867L296.11330222821033,-295.4525349624632L326.1528774744454,-304.74807606810094z" style="fill:rgb(43,180,168)">
    </path>
    <path d="M301.04581623129076,-322.806097308667L293.04531485731235,-310.11848716729867L326.1528774744454,-304.74807606810094z" style="fill:rgb(43,180,168)">
    </path>
    <path d="M-541.2802754254783,-249.34778081668756L-4.366605850340848,-411.3769299714748L-320.00365458698536,-205.77686828475555z" style="fill:rgb(0,0,0); fill-opacity: 0.2">
    </path>
    <path d="M121.28845657162499,-295.51117227085336L220.66409876653447,-279.18073474039664" style="fill:none;stroke:rgb(43,180,168);stroke-width:5;stroke-linecap:round">
    </path>
    <path d="M-492.39563022670825,408.7157822360047L-541.2802754254783,-249.34778081668756L-282.38498148578583,478.3903306876653z" style="fill:rgb(0,0,0); fill-opacity: 0.2">
    </path>
    <path d="M1.3373712259864523,373.2389102546953L-7.498221131704062,57.379079424140876L-320.00365458698536,-205.77686828475555z" style="fill:rgb(0,0,0); fill-opacity: 0.2">
    </path>
    <path d="M253.15841567042156,-295.5374339288423L256.36437032064464,-280.71215945762356L286.6503505222676,-290.0744783145444z" style="fill:rgb(43,180,168)">
    </path>
    <path d="M261.3387441340939,-308.42057267806916L253.15841567042156,-295.5374339288423L286.6503505222676,-290.0744783145444z" style="fill:rgb(43,180,168)">
    </path>
    <path d="M-320.00365458698536,-205.77686828475555L-282.38498148578583,478.3903306876653" style="fill:none;stroke:rgb(0,0,0);stroke-width:1;stroke-linecap:round">
    </path>
    <path d="M78.88527250182449,-280.6554459329864L178.82859006478108,-263.82626787017085" style="fill:none;stroke:rgb(43,180,168);stroke-width:5;stroke-linecap:round">
    </path>
    <path d="M-282.38498148578583,478.3903306876653L-320.00365458698536,-205.77686828475555L1.3373712259864523,373.2389102546953z" style="fill:rgb(0,0,0); fill-opacity: 0.2">
    </path>
    <path d="M-320.00365458698536,-205.77686828475555L205.97409529751351,-380.59308733997193L-243.66400803003015,162.1754166244473z" style="fill:rgb(0,0,0); fill-opacity: 0.2">
    </path>
    <path d="M-243.66400803002978,162.1754166244474L262.27699740946053,-62.33112560525063L-201.46584837489894,-182.43594610950396z" style="fill:rgb(0,0,0); fill-opacity: 0.2">
    </path>
    <path d="M212.19468491431277,-280.5627341859021L215.5449819563423,-265.5748190690339L246.0798185780228,-275.00415972154997z" style="fill:rgb(43,180,168)">
    </path>
    <path d="M220.56169632535688,-293.6474052135996L212.19468491431277,-280.5627341859021L246.0798185780228,-275.00415972154997z" style="fill:rgb(43,180,168)">
    </path>
    <path d="M35.33103260890022,-265.3964534092645L135.83604503232698,-248.04714556826286" style="fill:none;stroke:rgb(43,180,168);stroke-width:5;stroke-linecap:round">
    </path>
    <path d="M-320.00365458698536,-205.77686828475555L-541.2802754254783,-249.34778081668756" style="fill:none;stroke:rgb(0,0,0);stroke-width:1;stroke-linecap:round">
    </path>
    <path d="M-320.00365458698536,-205.77686828475555L-541.2802754254783,-249.34778081668756" style="fill:none;stroke:rgb(0,0,0);stroke-width:1;stroke-linecap:round">
    </path>
    <path d="M-170.34654718736758,515.5609568714993L-201.46584837489922,-182.43594610950396" style="fill:none;stroke:rgb(84,0,79);stroke-width:5;stroke-linecap:round">
    </path>
    <path d="M-170.34654718736758,515.5609568714992L-73.08716432973424,547.8283853277227" style="fill:none;stroke:rgb(167,41,160);stroke-width:5;stroke-linecap:round">
    </path>
    <path d="M170.10991886898728,-265.1782288284L173.61130512308847,-250.02425926385067L204.3973756427414,-259.52081097886463z" style="fill:rgb(43,180,168)">
    </path>
    <path d="M178.67083362551634,-278.4707123642647L170.10991886898728,-265.1782288284L204.3973756427414,-259.52081097886463z" style="fill:rgb(43,180,168)">
    </path>
    <path d="M-7.498221131704062,57.379079424140876L-243.66400803003015,162.1754166244473L-320.00365458698536,-205.77686828475555z" style="fill:rgb(0,0,0); fill-opacity: 0.2">
    </path>
    <path d="M-282.38498148578583,478.3903306876653L-320.00365458698536,-205.77686828475555L-541.2802754254783,-249.34778081668756z" style="fill:rgb(0,0,0); fill-opacity: 0.2">
    </path>
    <path d="M-170.34654718736735,515.5609568714996L-201.46584837489894,-182.43594610950396L-7.498221131703757,57.37907942414095z" style="fill:rgb(0,0,0); fill-opacity: 0.2">
    </path>
    <path d="M-173.28398966795237,449.6749737069896L-75.46315602239966,480.8902766107666" style="fill:none;stroke:rgb(167,41,160);stroke-width:5;stroke-linecap:round">
    </path>
    <path d="M-9.421776987782284,-249.71754846843305L91.63779071509242,-231.82550388885036" style="fill:none;stroke:rgb(43,180,168);stroke-width:5;stroke-linecap:round">
    </path>
    <path d="M-320.00365458698536,-205.77686828475555L-320.00365458698536,-205.77686828475555L-7.498221131704062,57.379079424140876z" style="fill:rgb(0,0,0); fill-opacity: 0.2">
    </path>
    <path d="M-176.25826249721234,382.9628965001979L-77.86951044756995,413.09676764320153" style="fill:none;stroke:rgb(167,41,160);stroke-width:5;stroke-linecap:round">
    </path>
    <path d="M-7.498221131703757,57.37907942414095L-243.66400803002978,162.1754166244474L-201.46584837489894,-182.43594610950396z" style="fill:rgb(0,0,0); fill-opacity: 0.2">
    </path>
    <path d="M126.85746084468354,-249.36686203873128L130.51708163959424,-234.04332579591818L161.55667562850817,-243.60721638146927z" style="fill:rgb(43,180,168)">
    </path>
    <path d="M135.61988878138368,-262.87373190925143L126.85746084468354,-249.36686203873128L161.55667562850817,-243.60721638146927z" style="fill:rgb(43,180,168)">
    </path>
    <path d="M-179.27006272648066,315.4090905918234L-80.3068133546685,344.4313562803801" style="fill:none;stroke:rgb(167,41,160);stroke-width:5;stroke-linecap:round">
    </path>
    <path d="M-243.66400803003015,162.1754166244473L-320.00365458698536,-205.77686828475555" style="fill:none;stroke:rgb(0,0,0);stroke-width:1;stroke-linecap:round">
    </path>
    <path d="M-243.66400803003015,162.1754166244473L-320.00365458698536,-205.77686828475555" style="fill:none;stroke:rgb(0,0,0);stroke-width:1;stroke-linecap:round">
    </path>
    <path d="M-201.46584837489894,-182.43594610950396L-243.66400803002978,162.1754166244474" style="fill:none;stroke:rgb(0,0,0);stroke-width:1;stroke-linecap:round">
    </path>
    <path d="M-201.46584837489894,-182.43594610950396L-243.66400803002978,162.1754166244474" style="fill:none;stroke:rgb(0,0,0);stroke-width:1;stroke-linecap:round">
    </path>
    <path d="M-63.72857667797995,538.0310645773747L-73.57968706733448,533.9526884316332L-48.19337726833132,556.0873159255456z" style="fill:rgb(167,41,160)">
    </path>
    <path d="M-55.4233217231558,-233.60115592152147L46.18238530496225,-215.14246266140444" style="fill:none;stroke:rgb(43,180,168);stroke-width:5;stroke-linecap:round">
    </path>
    <path d="M-82.80400111682935,549.0892245378898L-78.58494275157774,562.472660184753L-48.19337726833132,556.0873159255456z" style="fill:rgb(167,41,160)">
    </path>
    <path d="M-73.57968706733448,533.9526884316332L-82.80400111682935,549.0892245378898L-48.19337726833132,556.0873159255456z" style="fill:rgb(167,41,160)">
    </path>
    <path d="M-182.3201051086255,246.99752428226628L-82.77566565745515,274.87711315731315" style="fill:none;stroke:rgb(167,41,160);stroke-width:5;stroke-linecap:round">
    </path>
    <path d="M-66.03949939390515,471.194222957982L-75.9619567556389,466.8377116069713L-50.421949612389476,488.8810983410006z" style="fill:rgb(167,41,160)">
    </path>
    <path d="M-85.24966508442049,481.9399948727502L-80.99751400984614,495.5810961141673L-50.421949612389476,488.8810983410006z" style="fill:rgb(167,41,160)">
    </path>
    <path d="M-75.9619567556389,466.8377116069713L-85.24966508442049,481.9399948727502L-50.421949612389476,488.8810983410006z" style="fill:rgb(167,41,160)">
    </path>
    <path d="M82.38802863672039,-233.11061821616448L86.21345693477983,-217.61390158162493L117.50876045928977,-227.24518997595956z" style="fill:rgb(43,180,168)">
    </path>
    <path d="M91.3599960044628,-246.83876020115204L82.38802863672039,-233.11061821616448L117.50876045928977,-227.24518997595956z" style="fill:rgb(43,180,168)">
    </path>
    <path d="M-185.40912266355076,177.7117561476126L-85.27668392795519,204.416667773341" style="fill:none;stroke:rgb(167,41,160);stroke-width:5;stroke-linecap:round">
    </path>
    <path d="M-68.37988081722088,403.5053723351705L-78.3747099807274,398.8639311485967L-52.67913818005607,420.8119120691676z" style="fill:rgb(167,41,160)">
    </path>
    <path d="M-87.72668510157965,413.9298396668434L-83.44093700147502,427.83412904078943L-52.67913818005607,420.8119120691676z" style="fill:rgb(167,41,160)">
    </path>
    <path d="M-78.3747099807274,398.8639311485967L-87.72668510157965,413.9298396668434L-52.67913818005607,420.8119120691676z" style="fill:rgb(167,41,160)">
    </path>
    <path d="M-102.72660616893069,-217.02870590333546L-0.5845815901627869,-197.97805218581135" style="fill:none;stroke:rgb(43,180,168);stroke-width:5;stroke-linecap:round">
    </path>
    <path d="M-188.5378672655149,107.53492186624086L-87.81050090982144,133.03219402934297" style="fill:none;stroke:rgb(167,41,160);stroke-width:5;stroke-linecap:round">
    </path>
    <path d="M-70.75028785278066,334.9481166046277L-80.81853561145564,330.01475702902934L-54.96549770746541,351.86302814118903z" style="fill:rgb(167,41,160)">
    </path>
    <path d="M-320.00365458698536,-205.77686828475555L-320.00365458698536,-205.77686828475555" style="fill:none;stroke:rgb(0,0,0);stroke-width:1;stroke-linecap:round">
    </path>
    <path d="M-90.23566808653658,345.04209510529546L-85.91580732829236,359.2152451569145L-54.96549770746541,351.86302814118903z" style="fill:rgb(167,41,160)">
    </path>
    <path d="M-80.81853561145564,330.01475702902934L-90.23566808653658,345.04209510529546L-54.96549770746541,351.86302814118903z" style="fill:rgb(167,41,160)">
    </path>
    <path d="M55.44901876444383,-223.2627948669867L45.83950594414915,-230.34708513237356L72.20187343216178,-210.41550623175905z" style="fill:rgb(43,180,168)">
    </path>
    <path d="M36.64952720805116,-216.3904535010837L40.64879529181781,-200.71683818555454L72.20187343216178,-210.41550623175905z" style="fill:rgb(43,180,168)">
    </path>
    <path d="M45.83950594414915,-230.34708513237356L36.64952720805116,-216.3904535010837L72.20187343216178,-210.41550623175905z" style="fill:rgb(43,180,168)">
    </path>
    <path d="M-191.7071102532567,36.449720533880836L-90.3777660520263,60.70539519219008" style="fill:none;stroke:rgb(167,41,160);stroke-width:5;stroke-linecap:round">
    </path>
    <path d="M-73.15130204540966,265.50563624266016L-83.29403778235739,260.27316914536476L-57.28159736236068,282.0172823796056z" style="fill:rgb(167,41,160)">
    </path>
    <path d="M-92.77723672233547,275.2596645275292L-88.42273602244737,289.7075028298258L-57.28159736236068,282.0172823796056z" style="fill:rgb(167,41,160)">
    </path>
    <path d="M-83.29403778235739,260.27316914536476L-92.77723672233547,275.2596645275292L-57.28159736236068,282.0172823796056z" style="fill:rgb(167,41,160)">
    </path>
    <path d="M-151.38767776910115,-199.9805624948237L-48.720706218298574,-180.31113348923557" style="fill:none;stroke:rgb(43,180,168);stroke-width:5;stroke-linecap:round">
    </path>
    <path d="M-201.46584837489894,-182.43594610950396L-201.46584837489894,-182.43594610950396L-243.66400803002978,162.1754166244474z" style="fill:rgb(0,0,0); fill-opacity: 0.2">
    </path>
    <path d="M-194.9176430639675,-35.56159955620212L-92.9791460638294,-12.582511740198571" style="fill:none;stroke:rgb(167,41,160);stroke-width:5;stroke-linecap:round">
    </path>
    <path d="M-75.58352005556102,195.1606745491929L-85.80183639155102,189.6217032919149L-59.6280212164691,211.2570611531226z" style="fill:rgb(167,41,160)">
    </path>
    <path d="M-95.35202997204797,204.56500428134234L-90.96235004936189,219.29351865684004L-59.6280212164691,211.2570611531226z" style="fill:rgb(167,41,160)">
    </path>
    <path d="M-85.80183639155102,189.6217032919149L-95.35202997204797,204.56500428134234L-59.6280212164691,211.2570611531226z" style="fill:rgb(167,41,160)">
    </path>
    <path d="M8.932922884330655,-206.25837275597974L-0.9962153771037825,-213.3789132911093L25.581256343059312,-193.09782468150675z" style="fill:rgb(43,180,168)">
    </path>
    <path d="M-198.1702778922048,-108.51725569244662L-95.61532549201755,-86.85081230125849" style="fill:none;stroke:rgb(167,41,160);stroke-width:5;stroke-linecap:round">
    </path>
    <path d="M-10.413154897328745,-199.18622135188153L-6.231520912004181,-183.33188137119487L25.581256343059312,-193.09782468150675z" style="fill:rgb(43,180,168)">
    </path>
    <path d="M-0.9962153771037825,-213.3789132911093L-10.413154897328745,-199.18622135188153L25.581256343059312,-193.09782468150675z" style="fill:rgb(43,180,168)">
    </path>
    <path d="M-78.04755415363839,123.89552335089918L-88.34256761826084,118.04243658022149L-62.005368736553095,139.56428656815936z" style="fill:rgb(167,41,160)">
    </path>
    <path d="M-97.96070361432491,132.9401090185706L-93.53529283048313,147.95545297133057L-62.005368736553095,139.56428656815936z" style="fill:rgb(167,41,160)">
    </path>
    <path d="M-88.34256761826084,118.04243658022149L-97.96070361432491,132.9401090185706L-62.005368736553095,139.56428656815936z" style="fill:rgb(167,41,160)">
    </path>
    <path d="M-201.46584837489902,-182.43594610950413L-98.28700732146554,-162.11931147521733" style="fill:none;stroke:rgb(43,180,168);stroke-width:5;stroke-linecap:round">
    </path>
    <path d="M-201.46584837489922,-182.43594610950396L-201.46584837489922,-182.43594610950396" style="fill:none;stroke:rgb(22,31,115);stroke-width:5;stroke-linecap:round">
    </path>
    <path d="M-201.46584837489922,-182.43594610950396L-98.28700732146577,-162.11931147521722" style="fill:none;stroke:rgb(74,87,214);stroke-width:5;stroke-linecap:round">
    </path>
    <path d="M-201.46584837489922,-182.43594610950396L-98.28700732146577,-162.11931147521722" style="fill:none;stroke:rgb(167,41,160);stroke-width:5;stroke-linecap:round">
    </path>
    <path d="M-80.54403273384516,51.69200813958031L-90.91688446086225,45.516972280877795L-64.4142552950053,66.92040107103169z" style="fill:rgb(167,41,160)">
    </path>
    <path d="M-100.60393080022871,60.366496406444625L-96.14222478675354,75.67499477434417L-64.4142552950053,66.92040107103169z" style="fill:rgb(167,41,160)">
    </path>
    <path d="M-90.91688446086225,45.516972280877795L-100.60393080022871,60.366496406444625L-64.4142552950053,66.92040107103169z" style="fill:rgb(167,41,160)">
    </path>
    <path d="M-38.94151419663769,-188.75739549103983L-49.20500531228771,-195.9132907106706L-22.411071294876507,-175.27060790956438z" style="fill:rgb(43,180,168)">
    </path>
    <path d="M-83.07360084846607,-21.468527380404286L-93.5254572964055,-27.97357593977237L-66.85531270090054,-6.693648566783629z" style="fill:rgb(167,41,160)">
    </path>
    <path d="M-58.85836708287082,-181.4765915630144L-54.48530961068483,-165.43759010812937L-22.411071294876507,-175.27060790956438z" style="fill:rgb(43,180,168)">
    </path>
    <path d="M-49.20500531228771,-195.9132907106706L-58.85836708287082,-181.4765915630144L-22.411071294876507,-175.27060790956438z" style="fill:rgb(43,180,168)">
    </path>
    <path d="M-103.28240263234044,-13.174808772626156L-98.78382390376194,2.4333460650766434L-66.85531270090054,-6.693648566783629z" style="fill:rgb(167,41,160)">
    </path>
    <path d="M-93.5254572964055,-27.97357593977237L-103.28240263234044,-13.174808772626156L-66.85531270090054,-6.693648566783629z" style="fill:rgb(167,41,160)">
    </path>
    <path d="M-85.63692076353541,-95.60523736325388L-96.16897446262577,-102.44860041642893L-69.32918975246743,-81.29742790933119z" style="fill:rgb(167,41,160)">
    </path>
    <path d="M-105.99682876718757,-87.7032911615768L-101.46078631959182,-71.7887944579591L-69.32918975246743,-81.29742790933119z" style="fill:rgb(167,41,160)">
    </path>
    <path d="M-96.16897446262577,-102.44860041642893L-105.99682876718757,-87.7032911615768L-69.32918975246743,-81.29742790933119z" style="fill:rgb(167,41,160)">
    </path>
    <path d="M-88.234672536897,-170.7377905404699L-98.84814286350024,-177.9280165450254L-71.83655281199465,-156.91103219340758z" style="fill:rgb(43,180,168)">
    </path>
    <path d="M-88.23467253689732,-170.73779054046983L-98.84814286350043,-177.9280165450253L-71.83655281199485,-156.9110321934075z" style="fill:rgb(74,87,214)">
    </path>
    <path d="M-88.23467253689732,-170.73779054046983L-98.84814286350043,-177.9280165450253L-71.83655281199485,-156.9110321934075z" style="fill:rgb(167,41,160)">
    </path>
    <path d="M-108.7479380420955,-163.23896203980286L-104.1738269364373,-147.01124835475727L-71.83655281199465,-156.91103219340758z" style="fill:rgb(43,180,168)">
    </path>
    <path d="M-108.74793804209571,-163.2389620398028L-104.17382693643751,-147.01124835475719L-71.83655281199485,-156.9110321934075z" style="fill:rgb(74,87,214)">
    </path>
    <path d="M-108.74793804209571,-163.2389620398028L-104.17382693643751,-147.01124835475719L-71.83655281199485,-156.9110321934075z" style="fill:rgb(167,41,160)">
    </path>
    <path d="M-98.84814286350024,-177.9280165450254L-108.7479380420955,-163.23896203980286L-71.83655281199465,-156.91103219340758z" style="fill:rgb(43,180,168)">
    </path>
    <path d="M-98.84814286350043,-177.9280165450253L-108.74793804209571,-163.2389620398028L-71.83655281199485,-156.9110321934075z" style="fill:rgb(74,87,214)">
    </path>
    <path d="M-98.84814286350043,-177.9280165450253L-108.74793804209571,-163.2389620398028L-71.83655281199485,-156.9110321934075z" style="fill:rgb(167,41,160)">
    </path>
</svg>