<svg viewBox="-812 -675 1624 1350" width="1624" height="1350" style="background-color: rgb(255, 255, 255);">
    <path d="M44.75232895672461,357.69833851188025L32.60865402264681,-422.5080656291834" style="fill:none;stroke:rgb(0,0,0);stroke-width:1;stroke-linecap:round">
    </path>
    <path d="M159.7509329538765,380.53871623125946L44.75232895672461,357.69833851188025" style="fill:none;stroke:rgb(160,0,0);stroke-width:4;stroke-linecap:round">
    </path>
    <path d="M159.7509329538765,380.53871623125946L154.2616927169825,-412.70708930231905" style="fill:none;stroke:rgb(0,0,0);stroke-width:1;stroke-linecap:round">
    </path>
    <path d="M59.26442862012149,447.83838047812117L159.7509329538765,380.53871623125946" style="fill:none;stroke:rgb(160,0,0);stroke-width:4;stroke-linecap:round">
    </path>
    <path d="M159.7509329538765,380.53871623125946L59.26442862012149,447.83838047812117" style="fill:none;stroke:rgb(160,0,0);stroke-width:4;stroke-linecap:round">
    </path>
    <path d="M159.7509329538765,380.53871623125946L154.2616927169825,-412.70708930231905" style="fill:none;stroke:rgb(0,0,0);stroke-width:1;stroke-linecap:round">
    </path>
    <path d="M278.8275365854557,404.1890433652605L159.7509329538765,380.53871623125946" style="fill:none;stroke:rgb(160,0,0);stroke-width:4;stroke-linecap:round">
    </path>
    <path d="M154.2616927169825,-412.70708930231905L159.7509329538765,380.53871623125946L44.75232895672461,357.69833851188025z" style="fill:rgb(0,0,0); fill-opacity: 0.2">
    </path>
    <path d="M280.49160081279825,-402.5373775197973L278.8275365854557,404.1890433652605" style="fill:none;stroke:rgb(104,70,1);stroke-width:5;stroke-linecap:round">
    </path>
    <path d="M278.8275365854557,404.1890433652605L339.9634810677287,416.3315217577869" style="fill:none;stroke:rgb(197,147,42);stroke-width:5;stroke-linecap:round">
    </path>
    <path d="M278.90243098949213,367.88077261472733L340.2082309016727,379.7311908618486" style="fill:none;stroke:rgb(197,147,42);stroke-width:5;stroke-linecap:round">
    </path>
    <path d="M278.9777373544283,331.37278617006615L340.4543391045235,342.92772703353313" style="fill:none;stroke:rgb(197,147,42);stroke-width:5;stroke-linecap:round">
    </path>
    <path d="M279.05345908865974,294.66343166562706L340.70181701623176,305.919434476194" style="fill:none;stroke:rgb(197,147,42);stroke-width:5;stroke-linecap:round">
    </path>
    <path d="M32.60865402264681,-422.5080656291834L44.75232895672461,357.69833851188025L154.2616927169825,-412.70708930231905z" style="fill:rgb(0,0,0); fill-opacity: 0.2">
    </path>
    <path d="M336.37494975698326,416.5480625973364L337.69520374614314,424.45412995290167L355.4187370066859,419.40115800662517z" style="fill:rgb(197,147,42)">
    </path>
    <path d="M340.01690459326124,408.342471548397L336.37494975698326,416.5480625973364L355.4187370066859,419.40115800662517z" style="fill:rgb(197,147,42)">
    </path>
    <path d="M279.1295996382851,257.7510384573573L340.95067610332484,268.7045984646864" style="fill:none;stroke:rgb(197,147,42);stroke-width:5;stroke-linecap:round">
    </path>
    <path d="M336.6102254323388,379.8771774309529L337.9338181927875,387.8545429831738L355.7069028870739,382.72708595766403z" style="fill:rgb(197,147,42)">
    </path>
    <path d="M340.2619506077739,371.69784927687914L336.6102254323388,379.8771774309529L355.7069028870739,382.72708595766403z" style="fill:rgb(197,147,42)">
    </path>
    <path d="M279.20616248762957,220.6339173693573L341.20092796067775,231.2814850805285" style="fill:none;stroke:rgb(197,147,42);stroke-width:5;stroke-linecap:round">
    </path>
    <path d="M280.49160081279825,-402.5373775197973L278.8275365854557,404.1890433652605L159.7509329538765,380.53871623125946z" style="fill:rgb(0,0,0); fill-opacity: 0.2">
    </path>
    <path d="M336.8468094403751,343.0023709818899L338.17375774583144,351.05170617841037L355.9966717010285,345.8490130012091z" style="fill:rgb(197,147,42)">
    </path>
    <path d="M340.5083574610805,334.8497247216114L336.8468094403751,343.0023709818899L355.9966717010285,345.8490130012091z" style="fill:rgb(197,147,42)">
    </path>
    <path d="M279.28315115977637,183.3103604362069L341.45258431331405,193.64834094260326" style="fill:none;stroke:rgb(197,147,42);stroke-width:5;stroke-linecap:round">
    </path>
    <path d="M154.2616927169825,-412.70708930231905L159.7509329538765,380.53871623125946L59.26442862012149,447.83838047812117z" style="fill:rgb(0,0,0); fill-opacity: 0.2">
    </path>
    <path d="M337.0847127246825,305.92193754413887L338.4150334741529,314.0439217522235L356.28805686041915,308.76523224583553z" style="fill:rgb(197,147,42)">
    </path>
    <path d="M340.7561365206706,297.79639796774507L337.0847127246825,305.92193754413887L356.28805686041915,308.76523224583553z" style="fill:rgb(197,147,42)">
    </path>
    <path d="M279.3605692171066,145.77864064098037L341.7056570182365,155.8033929333126" style="fill:none;stroke:rgb(197,147,42);stroke-width:5;stroke-linecap:round">
    </path>
    <path d="M337.3239463512427,268.63415233526L338.65765657025486,276.829472956163L356.5810719271579,271.4740177046034z" style="fill:rgb(197,147,42)">
    </path>
    <path d="M341.00529928099513,260.536150114377L337.3239463512427,268.63415233526L356.5810719271579,271.4740177046034z" style="fill:rgb(197,147,42)">
    </path>
    <path d="M279.4384202618492,108.03701164886687L341.9601580662903,117.74484792009652" style="fill:none;stroke:rgb(197,147,42);stroke-width:5;stroke-linecap:round">
    </path>
    <path d="M154.2616927169825,-412.70708930231905L32.60865402264681,-422.5080656291834" style="fill:none;stroke:rgb(0,0,0);stroke-width:1;stroke-linecap:round">
    </path>
    <path d="M32.60865402264681,-422.5080656291834L-242.90527294585578,-341.4464930760927" style="fill:none;stroke:rgb(0,0,0);stroke-width:1;stroke-linecap:round">
    </path>
    <path d="M154.2616927169825,-412.70708930231905L32.60865402264681,-422.5080656291834" style="fill:none;stroke:rgb(0,0,0);stroke-width:1;stroke-linecap:round">
    </path>
    <path d="M337.5645215101456,231.13727122894974L338.9016383519956,239.40662381424823L356.8757306153042,233.9736240272746z" style="fill:rgb(197,147,42)">
    </path>
    <path d="M341.25585736524414,223.06724300874154L337.5645215101456,231.13727122894974L356.8757306153042,233.9736240272746z" style="fill:rgb(197,147,42)">
    </path>
    <path d="M279.51670793663976,70.083707536307L342.2160995840564,79.47089247222182" style="fill:none;stroke:rgb(197,147,42);stroke-width:5;stroke-linecap:round">
    </path>
    <path d="M155.69465938283412,-205.63019922264525L154.2616927169825,-412.70708930231905" style="fill:none;stroke:rgb(0,0,0);stroke-width:1;stroke-linecap:round">
    </path>
    <path d="M155.69465938283412,-205.63019922264525L154.2616927169825,-412.70708930231905" style="fill:none;stroke:rgb(0,0,0);stroke-width:1;stroke-linecap:round">
    </path>
    <path d="M50.367425396205995,-162.75173041837687L155.69465938283412,-205.63019922264525" style="fill:none;stroke:rgb(0,0,0);stroke-width:1;stroke-linecap:round">
    </path>
    <path d="M154.2616927169825,-412.70708930231905L155.69465938283412,-205.63019922264525" style="fill:none;stroke:rgb(0,0,0);stroke-width:1;stroke-linecap:round">
    </path>
    <path d="M155.69465938283412,-205.63019922264525L-106.49061330175446,-98.89519242305563" style="fill:none;stroke:rgb(0,0,0);stroke-width:1;stroke-linecap:round">
    </path>
    <path d="M154.2616927169825,-412.70708930231905L155.69465938283412,-205.63019922264525" style="fill:none;stroke:rgb(0,0,0);stroke-width:1;stroke-linecap:round">
    </path>
    <path d="M59.26442862012149,447.83838047812117L50.367425396205995,-162.75173041837687" style="fill:none;stroke:rgb(0,0,0);stroke-width:1;stroke-linecap:round">
    </path>
    <path d="M337.80644951733325,193.4295304830938L339.1469902643495,201.77361885302815L357.1720467932029,196.2622862280103z" style="fill:rgb(197,147,42)">
    </path>
    <path d="M341.50782252715413,185.38791897592577L337.80644951733325,193.4295304830938L357.1720467932029,196.2622862280103z" style="fill:rgb(197,147,42)">
    </path>
    <path d="M50.367425396205995,-162.75173041837687L59.26442862012149,447.83838047812117L159.7509329538765,380.53871623125946z" style="fill:rgb(0,0,0); fill-opacity: 0.2">
    </path>
    <path d="M279.5954359250881,31.916942515560848L342.47349383577745,40.9796925727494" style="fill:none;stroke:rgb(197,147,42);stroke-width:5;stroke-linecap:round">
    </path>
    <path d="M154.2616927169825,-412.70708930231905L159.7509329538765,380.53871623125946L280.49160081279825,-402.5373775197973z" style="fill:rgb(0,0,0); fill-opacity: 0.2">
    </path>
    <path d="M338.0497418163747,155.5091464632228L339.3937238811958,163.92868282707957L357.47003448566215,158.33821940846116z" style="fill:rgb(197,147,42)">
    </path>
    <path d="M341.76120665284583,147.4964005440177L338.0497418163747,155.5091464632228L357.47003448566215,158.33821940846116z" style="fill:rgb(197,147,42)">
    </path>
    <path d="M279.6746079523566,-6.465089345385566L342.73235322531696,2.2693933255824" style="fill:none;stroke:rgb(197,147,42);stroke-width:5;stroke-linecap:round">
    </path>
    <path d="M154.2616927169825,-412.70708930231905L159.7509329538765,380.53871623125946L50.367425396205995,-162.75173041837687z" style="fill:rgb(0,0,0); fill-opacity: 0.2">
    </path>
    <path d="M338.29440998027,117.37431536127343L339.641850907139,125.87002043985565L357.7697078761641,120.19961847615747z" style="fill:rgb(197,147,42)">
    </path>
    <path d="M342.01602176269364,109.3908901645978L338.29440998027,117.37431536127343L357.7697078761641,120.19961847615747z" style="fill:rgb(197,147,42)">
    </path>
    <path d="M279.7542277857474,-45.06421440766571L342.9926902981519,-36.66188134250194" style="fill:none;stroke:rgb(197,147,42);stroke-width:5;stroke-linecap:round">
    </path>
    <path d="M154.2616927169825,-412.70708930231905L154.2616927169825,-412.70708930231905L155.69465938283412,-205.63019922264525z" style="fill:rgb(0,0,0); fill-opacity: 0.2">
    </path>
    <path d="M338.5404657132858,79.02321290956634L339.8913831793598,87.59581605979159L358.07108130911666,81.84465785810691z" style="fill:rgb(197,147,42)">
    </path>
    <path d="M342.2722800132261,71.06956992848177L338.5404657132858,79.02321290956634L358.07108130911666,81.84465785810691z" style="fill:rgb(197,147,42)">
    </path>
    <path d="M279.83429923530025,-83.88227975122598L343.25451774339973,-75.81602898493885" style="fill:none;stroke:rgb(197,147,42);stroke-width:5;stroke-linecap:round">
    </path>
    <path d="M338.7879208528211,40.45399408990312L340.1423326694974,49.10423343157261L358.3741692921421,43.27149120950417z" style="fill:rgb(197,147,42)">
    </path>
    <path d="M342.5299936990597,32.53060127661993L338.7879208528211,40.45399408990312L358.3741692921421,43.27149120950417z" style="fill:rgb(197,147,42)">
    </path>
    <path d="M279.9148261544001,-122.92115346946173L343.5178483958791,-115.19496894368163" style="fill:none;stroke:rgb(197,147,42);stroke-width:5;stroke-linecap:round">
    </path>
    <path d="M50.367425396205995,-162.75173041837687L154.2616927169825,-412.70708930231905" style="fill:none;stroke:rgb(0,0,0);stroke-width:1;stroke-linecap:round">
    </path>
    <path d="M154.2616927169825,-412.70708930231905L154.2616927169825,-412.70708930231905" style="fill:none;stroke:rgb(0,0,0);stroke-width:1;stroke-linecap:round">
    </path>
    <path d="M50.367425396205995,-162.75173041837687L154.2616927169825,-412.70708930231905" style="fill:none;stroke:rgb(0,0,0);stroke-width:1;stroke-linecap:round">
    </path>
    <path d="M154.2616927169825,-412.70708930231905L-112.48073308432356,-328.805626497768" style="fill:none;stroke:rgb(0,0,0);stroke-width:1;stroke-linecap:round">
    </path>
    <path d="M154.2616927169825,-412.70708930231905L50.367425396205995,-162.75173041837687" style="fill:none;stroke:rgb(0,0,0);stroke-width:1;stroke-linecap:round">
    </path>
    <path d="M154.2616927169825,-412.70708930231905L50.367425396205995,-162.75173041837687" style="fill:none;stroke:rgb(0,0,0);stroke-width:1;stroke-linecap:round">
    </path>
    <path d="M280.49160081279825,-402.5373775197973L154.2616927169825,-412.70708930231905" style="fill:none;stroke:rgb(0,0,0);stroke-width:1;stroke-linecap:round">
    </path>
    <path d="M154.2616927169825,-412.70708930231905L154.2616927169825,-412.70708930231905" style="fill:none;stroke:rgb(0,0,0);stroke-width:1;stroke-linecap:round">
    </path>
    <path d="M280.49160081279825,-402.5373775197973L154.2616927169825,-412.70708930231905" style="fill:none;stroke:rgb(0,0,0);stroke-width:1;stroke-linecap:round">
    </path>
    <path d="M280.49160081279825,-402.5373775197973L154.2616927169825,-412.70708930231905" style="fill:none;stroke:rgb(0,0,0);stroke-width:1;stroke-linecap:round">
    </path>
    <path d="M154.2616927169825,-412.70708930231905L-112.48073308432356,-328.805626497768" style="fill:none;stroke:rgb(0,0,0);stroke-width:1;stroke-linecap:round">
    </path>
    <path d="M280.49160081279825,-402.5373775197973L154.2616927169825,-412.70708930231905" style="fill:none;stroke:rgb(0,0,0);stroke-width:1;stroke-linecap:round">
    </path>
    <path d="M339.03678737130593,1.6647928376859207L340.3947114855636,10.393415382468785L358.67898649840447,4.478251117454539z" style="fill:rgb(197,147,42)">
    </path>
    <path d="M342.7891752548641,-6.227875293943564L339.03678737130593,1.6647928376859207L358.67898649840447,4.478251117454539z" style="fill:rgb(197,147,42)">
    </path>
    <path d="M23.733295460253718,471.6349424923337L-89.64750474329794,547.5704110045599" style="fill:none;stroke:rgb(160,0,0);stroke-width:4;stroke-linecap:round">
    </path>
    <path d="M13.024342288758621,-147.5494492658958L23.733295460253718,471.6349424923337" style="fill:none;stroke:rgb(0,0,0);stroke-width:1;stroke-linecap:round">
    </path>
    <path d="M-89.64750474329794,547.5704110045599L23.733295460253718,471.6349424923337" style="fill:none;stroke:rgb(160,0,0);stroke-width:4;stroke-linecap:round">
    </path>
    <path d="M279.995812440395,-162.1827249688964L343.78269523820865,-154.8006426628339" style="fill:none;stroke:rgb(197,147,42);stroke-width:5;stroke-linecap:round">
    </path>
    <path d="M339.28707737813227,-37.34627825903998L340.64853187389133,-28.538516476362386L358.98554776897805,-34.53695120038765z" style="fill:rgb(197,147,42)">
    </path>
    <path d="M343.0498372573635,-45.20774052915019L339.28707737813227,-37.34627825903998L358.98554776897805,-34.53695120038765z" style="fill:rgb(197,147,42)">
    </path>
    <path d="M280.0772620352255,-201.66890527400292L344.049071402939,-194.63501400771338" style="fill:none;stroke:rgb(197,147,42);stroke-width:5;stroke-linecap:round">
    </path>
    <path d="M155.69465938283412,-205.63019922264525L50.367425396205995,-162.75173041837687L154.2616927169825,-412.70708930231905z" style="fill:rgb(0,0,0); fill-opacity: 0.2">
    </path>
    <path d="M155.69465938283412,-205.63019922264525L50.367425396205995,-162.75173041837687L154.2616927169825,-412.70708930231905z" style="fill:rgb(0,0,0); fill-opacity: 0.2">
    </path>
    <path d="M50.367425396205995,-162.75173041837687L59.26442862012149,447.83838047812117L154.2616927169825,-412.70708930231905z" style="fill:rgb(0,0,0); fill-opacity: 0.2">
    </path>
    <path d="M154.2616927169825,-412.70708930231905L154.2616927169825,-412.70708930231905L280.49160081279825,-402.5373775197973z" style="fill:rgb(0,0,0); fill-opacity: 0.2">
    </path>
    <path d="M339.5388031216182,-76.58112826572292L340.9038062211143,-67.69346205370661L359.2938681152561,-73.77602620236864z" style="fill:rgb(197,147,42)">
    </path>
    <path d="M343.31199242736994,-84.41089672214538L339.5388031216182,-76.58112826572292L359.2938681152561,-73.77602620236864z" style="fill:rgb(197,147,42)">
    </path>
    <path d="M280.1591789260636,-241.38162733727302L344.3169901747247,-234.70006958946104" style="fill:none;stroke:rgb(197,147,42);stroke-width:5;stroke-linecap:round">
    </path>
    <path d="M339.7919769910057,-116.0416882127251L341.1605470561826,-107.07334308735972L359.6039627214004,-113.24090633467692z" style="fill:rgb(197,147,42)">
    </path>
    <path d="M343.575653631853,-123.83926802274134L339.7919769910057,-116.0416882127251L359.6039627214004,-113.24090633467692z" style="fill:rgb(197,147,42)">
    </path>
    <path d="M280.2415671459639,-281.3228463546373L344.58646499253206,-274.9978190953039" style="fill:none;stroke:rgb(197,147,42);stroke-width:5;stroke-linecap:round">
    </path>
    <path d="M154.2616927169825,-412.70708930231905L154.2616927169825,-412.70708930231905L50.367425396205995,-162.75173041837687z" style="fill:rgb(0,0,0); fill-opacity: 0.2">
    </path>
    <path d="M340.04661151849336,-155.72991141213268L341.4187670524126,-146.68010345853597L359.9158469468353,-152.93354634858417z" style="fill:rgb(197,147,42)">
    </path>
    <path d="M343.84083388604523,-163.49480075222806L340.04661151849336,-155.72991141213268L359.9158469468353,-152.93354634858417z" style="fill:rgb(197,147,42)">
    </path>
    <path d="M280.49160081279825,-402.5373775197973L280.49160081279825,-402.5373775197973L154.2616927169825,-412.70708930231905z" style="fill:rgb(0,0,0); fill-opacity: 0.2">
    </path>
    <path d="M280.32443077452507,-321.49454008634655L344.8575094518864,-315.5302956245904" style="fill:none;stroke:rgb(197,147,42);stroke-width:5;stroke-linecap:round">
    </path>
    <path d="M340.3027193813047,-195.64777378006514L341.678479029572,-186.51570951172732L360.22953632878244,-192.85592362319426z" style="fill:rgb(197,147,42)">
    </path>
    <path d="M344.10754635558334,-203.3794637236398L340.3027193813047,-195.64777378006514L360.22953632878244,-192.85592362319426z" style="fill:rgb(197,147,42)">
    </path>
    <path d="M280.4077739385634,-361.898709183423L345.13013730715875,-356.2995560307145" style="fill:none;stroke:rgb(197,147,42);stroke-width:5;stroke-linecap:round">
    </path>
    <path d="M340.5603134037914,-235.79727416459613L341.93969595600134,-226.58215038012204L360.5450465848414,-233.01003849381314z" style="fill:rgb(197,147,42)">
    </path>
    <path d="M344.3758043586872,-243.49524856759191L340.5603134037914,-235.79727416459613L360.5450465848414,-233.01003849381314z" style="fill:rgb(197,147,42)">
    </path>
    <path d="M280.49160081279825,-402.537377519797L345.4043624738923,-397.3076812690498" style="fill:none;stroke:rgb(197,147,42);stroke-width:5;stroke-linecap:round">
    </path>
    <path d="M280.49160081279825,-402.5373775197973L280.49160081279825,-402.5373775197973" style="fill:none;stroke:rgb(45,114,23);stroke-width:5;stroke-linecap:round">
    </path>
    <path d="M280.49160081279825,-402.5373775197973L345.4043624738923,-397.3076812690501" style="fill:none;stroke:rgb(109,213,75);stroke-width:5;stroke-linecap:round">
    </path>
    <path d="M23.446365407483214,-315.6314468668649L280.49160081279825,-402.5373775197973" style="fill:none;stroke:rgb(1,93,85);stroke-width:5;stroke-linecap:round">
    </path>
    <path d="M280.49160081279825,-402.5373775197973L345.4043624738923,-397.3076812690501" style="fill:none;stroke:rgb(43,180,168);stroke-width:5;stroke-linecap:round">
    </path>
    <path d="M340.81940655957425,-276.180434679399L342.2024309507733,-266.8814383166977L360.86239361561525,-273.3979145860537z" style="fill:rgb(197,147,42)">
    </path>
    <path d="M344.64562136837753,-283.84417006379664L340.81940655957425,-276.180434679399L360.86239361561525,-273.3979145860537z" style="fill:rgb(197,147,42)">
    </path>
    <path d="M341.0800119737213,-316.79930104323444L342.466697285888,-307.41560903110246L361.1815935073811,-314.021599155792z" style="fill:rgb(197,147,42)">
    </path>
    <path d="M344.9170110147301,-324.42826647837603L341.0800119737213,-316.79930104323444L361.1815935073811,-314.021599155792z" style="fill:rgb(197,147,42)">
    </path>
    <path d="M341.34214292496415,-357.65594292540055L342.7325083885088,-348.18672203244546L361.50266253480896,-354.88316343509615z" style="fill:rgb(197,147,42)">
    </path>
    <path d="M345.189987087172,-365.2495999070902L341.34214292496415,-357.65594292540055L361.50266253480896,-354.88316343509615z" style="fill:rgb(197,147,42)">
    </path>
    <path d="M261.21616525332,-396.0204325027241L326.54081987378447,-390.6802253969175" style="fill:none;stroke:rgb(43,180,168);stroke-width:5;stroke-linecap:round">
    </path>
    <path d="M-106.49061330175446,-98.89519242305563L155.69465938283412,-205.63019922264525L154.2616927169825,-412.70708930231905z" style="fill:rgb(0,0,0); fill-opacity: 0.2">
    </path>
    <path d="M-242.90527294585578,-341.4464930760927L-212.4798600644319,519.0604075047465" style="fill:none;stroke:rgb(0,0,0);stroke-width:1;stroke-linecap:round">
    </path>
    <path d="M-89.64750474329794,547.5704110045599L-212.4798600644319,519.0604075047465" style="fill:none;stroke:rgb(160,0,0);stroke-width:4;stroke-linecap:round">
    </path>
    <path d="M342.99987784323577,-389.1968609781147L347.70615700413157,-390.8669913010787L361.825617163727,-395.9847029842502z" style="fill:rgb(197,147,42)">
    </path>
    <path d="M342.9998778432357,-389.19686097811484L347.7061570041315,-390.8669913010789L361.825617163727,-395.9847029842506z" style="fill:rgb(109,213,75)">
    </path>
    <path d="M342.9998778432357,-389.19686097811484L347.7061570041315,-390.8669913010789L361.825617163727,-395.9847029842506z" style="fill:rgb(43,180,168)">
    </path>
    <path d="M341.6058128479535,-398.7524542972674L342.99987784323577,-389.1968609781147L361.825617163727,-395.9847029842502z" style="fill:rgb(197,147,42)">
    </path>
    <path d="M341.6058128479535,-398.75245429726755L342.9998778432357,-389.19686097811484L361.825617163727,-395.9847029842506z" style="fill:rgb(109,213,75)">
    </path>
    <path d="M341.6058128479535,-398.75245429726755L342.9998778432357,-389.19686097811484L361.825617163727,-395.9847029842506z" style="fill:rgb(43,180,168)">
    </path>
    <path d="M345.46456353681714,-406.31025662460314L341.6058128479535,-398.7524542972674L361.825617163727,-395.9847029842502z" style="fill:rgb(197,147,42)">
    </path>
    <path d="M345.46456353681714,-406.3102566246033L341.6058128479535,-398.75245429726755L361.825617163727,-395.9847029842506z" style="fill:rgb(109,213,75)">
    </path>
    <path d="M345.46456353681714,-406.3102566246033L341.6058128479535,-398.75245429726755L361.825617163727,-395.9847029842506z" style="fill:rgb(43,180,168)">
    </path>
    <path d="M23.733295460253718,471.6349424923337L13.024342288758621,-147.5494492658958L-89.64750474329794,547.5704110045599z" style="fill:rgb(0,0,0); fill-opacity: 0.2">
    </path>
    <path d="M-112.48073308432356,-328.805626497768L154.2616927169825,-412.70708930231905L32.60865402264681,-422.5080656291834z" style="fill:rgb(0,0,0); fill-opacity: 0.2">
    </path>
    <path d="M-112.48073308432356,-328.805626497768L154.2616927169825,-412.70708930231905L155.69465938283412,-205.63019922264525z" style="fill:rgb(0,0,0); fill-opacity: 0.2">
    </path>
    <path d="M241.5865592386669,-389.38374392001657L307.3273230149905,-383.9298177306348" style="fill:none;stroke:rgb(43,180,168);stroke-width:5;stroke-linecap:round">
    </path>
    <path d="M324.10224765269646,-382.49060660297675L328.8953867144276,-384.1915611395658L343.0680628010378,-389.32914439033135z" style="fill:rgb(43,180,168)">
    </path>
    <path d="M322.6681032142553,-392.12453796073277L324.10224765269646,-382.49060660297675L343.0680628010378,-389.32914439033135z" style="fill:rgb(43,180,168)">
    </path>
    <path d="M326.5893674168443,-399.7613053470233L322.6681032142553,-392.12453796073277L343.0680628010378,-389.32914439033135z" style="fill:rgb(43,180,168)">
    </path>
    <path d="M221.59293086730253,-382.6239808845241L287.7540422519419,-377.0530047544112" style="fill:none;stroke:rgb(43,180,168);stroke-width:5;stroke-linecap:round">
    </path>
    <path d="M13.024342288758621,-147.5494492658958L-112.48073308432356,-328.805626497768" style="fill:none;stroke:rgb(0,0,0);stroke-width:1;stroke-linecap:round">
    </path>
    <path d="M13.024342288758621,-147.5494492658958L-112.48073308432356,-328.805626497768" style="fill:none;stroke:rgb(0,0,0);stroke-width:1;stroke-linecap:round">
    </path>
    <path d="M-106.49061330175446,-98.89519242305563L13.024342288758621,-147.5494492658958" style="fill:none;stroke:rgb(0,0,0);stroke-width:1;stroke-linecap:round">
    </path>
    <path d="M-112.48073308432356,-328.805626497768L13.024342288758621,-147.5494492658958" style="fill:none;stroke:rgb(0,0,0);stroke-width:1;stroke-linecap:round">
    </path>
    <path d="M-112.48073308432356,-328.805626497768L13.024342288758621,-147.5494492658958" style="fill:none;stroke:rgb(0,0,0);stroke-width:1;stroke-linecap:round">
    </path>
    <path d="M304.85380619421557,-375.6598588613815L309.7362321893615,-377.39249889937037L323.9616770712942,-382.5498133920817z" style="fill:rgb(43,180,168)">
    </path>
    <path d="M-112.48073308432356,-328.805626497768L-89.64750474329794,547.5704110045599" style="fill:none;stroke:rgb(0,0,0);stroke-width:1;stroke-linecap:round">
    </path>
    <path d="M-112.48073308432356,-328.805626497768L-89.64750474329794,547.5704110045599" style="fill:none;stroke:rgb(0,0,0);stroke-width:1;stroke-linecap:round">
    </path>
    <path d="M38.03560551696176,577.2062989664082L-89.64750474329794,547.5704110045599" style="fill:none;stroke:rgb(160,0,0);stroke-width:4;stroke-linecap:round">
    </path>
    <path d="M303.3783268193142,-385.3734035010179L304.85380619421557,-375.6598588613815L323.9616770712942,-382.5498133920817z" style="fill:rgb(43,180,168)">
    </path>
    <path d="M307.36377213421883,-393.0907793303343L303.3783268193142,-385.3734035010179L323.9616770712942,-382.5498133920817z" style="fill:rgb(43,180,168)">
    </path>
    <path d="M23.446365407483214,-315.6314468668649L280.49160081279825,-402.5373775197973L154.2616927169825,-412.70708930231905z" style="fill:rgb(0,0,0); fill-opacity: 0.2">
    </path>
    <path d="M23.733295460253718,471.6349424923337L13.024342288758621,-147.5494492658958L-112.48073308432356,-328.805626497768z" style="fill:rgb(0,0,0); fill-opacity: 0.2">
    </path>
    <path d="M-89.64750474329794,547.5704110045599L-112.48073308432356,-328.805626497768L23.733295460253718,471.6349424923337z" style="fill:rgb(0,0,0); fill-opacity: 0.2">
    </path>
    <path d="M201.22505941959795,-375.737687813225L267.81077632809286,-370.0462023918601" style="fill:none;stroke:rgb(43,180,168);stroke-width:5;stroke-linecap:round">
    </path>
    <path d="M285.2446933778226,-368.7011186758874L290.21892460970633,-370.4663378925525L304.4966378993823,-375.6432249191577z" style="fill:rgb(43,180,168)">
    </path>
    <path d="M-212.4798600644319,519.0604075047465L-242.90527294585578,-341.4464930760927L-89.64750474329794,547.5704110045599z" style="fill:rgb(0,0,0); fill-opacity: 0.2">
    </path>
    <path d="M283.7265737540126,-378.49558259751797L285.2446933778226,-368.7011186758874L304.4966378993823,-375.6432249191577z" style="fill:rgb(43,180,168)">
    </path>
    <path d="M287.7779290582524,-386.2952614867286L283.7265737540126,-378.49558259751797L304.4966378993823,-375.6432249191577z" style="fill:rgb(43,180,168)">
    </path>
    <path d="M-242.90527294585578,-341.4464930760927L32.60865402264681,-422.5080656291834L-112.48073308432356,-328.805626497768z" style="fill:rgb(0,0,0); fill-opacity: 0.2">
    </path>
    <path d="M180.4723379358277,-368.72127853691893L247.4869346473639,-362.90568977730646" style="fill:none;stroke:rgb(43,180,168);stroke-width:5;stroke-linecap:round">
    </path>
    <path d="M265.2646761082703,-361.6107545996366L270.33332648204464,-363.40948059874023L284.66275096840997,-368.6057618223251z" style="fill:rgb(43,180,168)">
    </path>
    <path d="M-106.49061330175446,-98.89519242305563L155.69465938283412,-205.63019922264525L-112.48073308432356,-328.805626497768z" style="fill:rgb(0,0,0); fill-opacity: 0.2">
    </path>
    <path d="M263.70255866355916,-371.4874755292336L265.2646761082703,-361.6107545996366L284.66275096840997,-368.6057618223251z" style="fill:rgb(43,180,168)">
    </path>
    <path d="M267.82161698176316,-379.37120545899734L263.70255866355916,-371.4874755292336L284.66275096840997,-368.6057618223251z" style="fill:rgb(43,180,168)">
    </path>
    <path d="M38.03560551696176,577.2062989664082L23.446365407483214,-315.6314468668649" style="fill:none;stroke:rgb(84,0,79);stroke-width:5;stroke-linecap:round">
    </path>
    <path d="M38.035605516961745,577.2062989664079L103.78688306839751,592.4674990647675" style="fill:none;stroke:rgb(167,41,160);stroke-width:5;stroke-linecap:round">
    </path>
    <path d="M-89.64750474329794,547.5704110045599L-112.48073308432356,-328.805626497768L13.024342288758621,-147.5494492658958z" style="fill:rgb(0,0,0); fill-opacity: 0.2">
    </path>
    <path d="M37.383332420642084,537.2882472642236L103.3309885580704,552.1972846388949" style="fill:none;stroke:rgb(167,41,160);stroke-width:5;stroke-linecap:round">
    </path>
    <path d="M-112.48073308432356,-328.805626497768L154.2616927169825,-412.70708930231905L-106.49061330175446,-98.89519242305563z" style="fill:rgb(0,0,0); fill-opacity: 0.2">
    </path>
    <path d="M36.72706126187738,497.1255206485871L102.8722716385076,511.677760290345" style="fill:none;stroke:rgb(167,41,160);stroke-width:5;stroke-linecap:round">
    </path>
    <path d="M159.32375479718252,-361.571030072843L226.77151852086934,-355.62760266707164" style="fill:none;stroke:rgb(43,180,168);stroke-width:5;stroke-linecap:round">
    </path>
    <path d="M244.90313047823165,-354.3849964972061L250.06891408095504,-356.2181924343414L264.4494319167812,-361.4336685566222z" style="fill:rgb(43,180,168)">
    </path>
    <path d="M-89.64750474329794,547.5704110045599L-112.48073308432356,-328.805626497768L38.03560551696176,577.2062989664082z" style="fill:rgb(0,0,0); fill-opacity: 0.2">
    </path>
    <path d="M36.06675516889886,456.71586262726987L102.41070601833451,470.90660364131173" style="fill:none;stroke:rgb(167,41,160);stroke-width:5;stroke-linecap:round">
    </path>
    <path d="M243.2956027973601,-364.3453448924935L244.90313047823165,-354.3849964972061L264.4494319167812,-361.4336685566222z" style="fill:rgb(43,180,168)">
    </path>
    <path d="M247.4842243345152,-372.3149294492923L243.2956027973601,-364.3453448924935L264.4494319167812,-361.4336685566222z" style="fill:rgb(43,180,168)">
    </path>
    <path d="M108.21979322011798,586.4295740202235L103.68739599444324,583.6795761791291L120.43009454343905,596.3304716191977z" style="fill:rgb(167,41,160)">
    </path>
    <path d="M99.27507750229621,593.0896988600762L101.10209652443065,601.6392739846608L120.43009454343905,596.3304716191977z" style="fill:rgb(167,41,160)">
    </path>
    <path d="M103.68739599444324,583.6795761791291L99.27507750229621,593.0896988600762L120.43009454343905,596.3304716191977z" style="fill:rgb(167,41,160)">
    </path>
    <path d="M35.40237681514426,416.05698887542223L101.94626507861268,429.8814633795186" style="fill:none;stroke:rgb(167,41,160);stroke-width:5;stroke-linecap:round">
    </path>
    <path d="M107.77834925569874,546.2109687968947L103.23088631223212,543.3550222007592L120.0245454300529,555.9712605145792z" style="fill:rgb(167,41,160)">
    </path>
    <path d="M98.80424121556248,552.734087163897L100.6376094212603,561.3706971724296L120.0245454300529,555.9712605145792z" style="fill:rgb(167,41,160)">
    </path>
    <path d="M103.23088631223212,543.3550222007592L98.80424121556248,552.734087163897L120.0245454300529,555.9712605145792z" style="fill:rgb(167,41,160)">
    </path>
    <path d="M34.73388841222407,375.1465868051202L101.4789218677225,388.59995880619385" style="fill:none;stroke:rgb(167,41,160);stroke-width:5;stroke-linecap:round">
    </path>
    <path d="M-112.48073308432356,-328.805626497768L154.2616927169825,-412.70708930231905L23.446365407483214,-315.6314468668649z" style="fill:rgb(0,0,0); fill-opacity: 0.2">
    </path>
    <path d="M107.33417712379325,505.74380860406643L102.7715484972809,502.78065272935606L119.61647927877507,515.3615602330029z" style="fill:rgb(167,41,160)">
    </path>
    <path d="M137.76787424259678,-354.2830760374927L205.65310131915794,-348.2079264662275" style="fill:none;stroke:rgb(43,180,168);stroke-width:5;stroke-linecap:round">
    </path>
    <path d="M-89.64750474329794,547.5704110045599L-112.48073308432356,-328.805626497768L-242.90527294585578,-341.4464930760927z" style="fill:rgb(0,0,0); fill-opacity: 0.2">
    </path>
    <path d="M224.1490229315739,-347.0199288599666L229.41475887813868,-348.88859516224466L243.84568750366657,-354.12304449848864z" style="fill:rgb(43,180,168)">
    </path>
    <path d="M98.3304836758868,512.1280934289667L100.1702448013701,520.8526548696186L119.61647927877507,515.3615602330029z" style="fill:rgb(167,41,160)">
    </path>
    <path d="M102.7715484972809,502.78065272935606L98.3304836758868,512.1280934289667L119.61647927877507,515.3615602330029z" style="fill:rgb(167,41,160)">
    </path>
    <path d="M13.024342288758621,-147.5494492658958L-106.49061330175446,-98.89519242305563L-112.48073308432356,-328.805626497768z" style="fill:rgb(0,0,0); fill-opacity: 0.2">
    </path>
    <path d="M13.024342288758621,-147.5494492658958L-106.49061330175446,-98.89519242305563L-112.48073308432356,-328.805626497768z" style="fill:rgb(0,0,0); fill-opacity: 0.2">
    </path>
    <path d="M34.0612517027569,333.9823151268985L101.00864909614967,347.05967937554374" style="fill:none;stroke:rgb(167,41,160);stroke-width:5;stroke-linecap:round">
    </path>
    <path d="M222.4946150191092,-357.065308954768L224.1490229315739,-347.0199288599666L243.84568750366657,-354.12304449848864z" style="fill:rgb(43,180,168)">
    </path>
    <path d="M226.75473036789225,-365.1226096909481L222.4946150191092,-357.065308954768L243.84568750366657,-354.12304449848864z" style="fill:rgb(43,180,168)">
    </path>
    <path d="M106.8872514554918,465.02578215821035L102.30935618699287,461.9541390958986L119.20587258369241,474.4990315260722z" style="fill:rgb(167,41,160)">
    </path>
    <path d="M97.85377761176962,471.2693802015273L99.69997584217485,480.0828216998559L119.20587258369241,474.4990315260722z" style="fill:rgb(167,41,160)">
    </path>
    <path d="M102.30935618699287,461.9541390958986L97.85377761176962,471.2693802015273L119.20587258369241,474.4990315260722z" style="fill:rgb(167,41,160)">
    </path>
    <path d="M33.384427953070954,292.5618034030966L100.53541913117311,305.25818422553857" style="fill:none;stroke:rgb(167,41,160);stroke-width:5;stroke-linecap:round">
    </path>
    <path d="M106.43754656637013,424.0545494302244L101.84428269009615,420.8731235987319L118.79270154529083,433.381305926987z" style="fill:rgb(167,41,160)">
    </path>
    <path d="M-112.48073308432356,-328.805626497768L-112.48073308432356,-328.805626497768L13.024342288758621,-147.5494492658958z" style="fill:rgb(0,0,0); fill-opacity: 0.2">
    </path>
    <path d="M97.37409541119246,430.15558084178014L99.22677538668356,439.0588432955627L118.79270154529083,433.381305926987z" style="fill:rgb(167,41,160)">
    </path>
    <path d="M101.84428269009615,420.8731235987319L97.37409541119246,430.15558084178014L118.79270154529083,433.381305926987z" style="fill:rgb(167,41,160)">
    </path>
    <path d="M32.70337794576892,250.88265159283674L100.05920399145282,263.1930016998195" style="fill:none;stroke:rgb(167,41,160);stroke-width:5;stroke-linecap:round">
    </path>
    <path d="M-112.48073308432356,-328.805626497768L-242.90527294585578,-341.4464930760927" style="fill:none;stroke:rgb(0,0,0);stroke-width:1;stroke-linecap:round">
    </path>
    <path d="M-112.48073308432356,-328.805626497768L-242.90527294585578,-341.4464930760927" style="fill:none;stroke:rgb(0,0,0);stroke-width:1;stroke-linecap:round">
    </path>
    <path d="M105.98503645156872,382.8277411971512L101.37630098150552,379.5352190496986L118.37694206585712,392.00598529292466z" style="fill:rgb(167,41,160)">
    </path>
    <path d="M115.79281574896007,-346.85339967515614L184.11980745471024,-340.64248884437404" style="fill:none;stroke:rgb(43,180,168);stroke-width:5;stroke-linecap:round">
    </path>
    <path d="M96.89140911628665,388.7842990669284L98.75061593827184,397.7783358447382L118.37694206585712,392.00598529292466z" style="fill:rgb(167,41,160)">
    </path>
    <path d="M101.37630098150552,379.5352190496986L96.89140911628665,388.7842990669284L118.37694206585712,392.00598529292466z" style="fill:rgb(167,41,160)">
    </path>
    <path d="M202.9908903265367,-339.5114837310468L208.35950788962623,-341.4166599175793L222.84009567244885,-346.66983687187474z" style="fill:rgb(43,180,168)">
    </path>
    <path d="M32.01806197215295,208.94242958845183L99.57997534151436,220.86162886052875" style="fill:none;stroke:rgb(167,41,160);stroke-width:5;stroke-linecap:round">
    </path>
    <path d="M-106.49061330175446,-98.89519242305563L-112.48073308432356,-328.805626497768" style="fill:none;stroke:rgb(0,0,0);stroke-width:1;stroke-linecap:round">
    </path>
    <path d="M-106.49061330175446,-98.89519242305563L-112.48073308432356,-328.805626497768" style="fill:none;stroke:rgb(0,0,0);stroke-width:1;stroke-linecap:round">
    </path>
    <path d="M-112.48073308432356,-328.805626497768L-106.49061330175446,-98.89519242305563" style="fill:none;stroke:rgb(0,0,0);stroke-width:1;stroke-linecap:round">
    </path>
    <path d="M-112.48073308432356,-328.805626497768L-106.49061330175446,-98.89519242305563" style="fill:none;stroke:rgb(0,0,0);stroke-width:1;stroke-linecap:round">
    </path>
    <path d="M201.28807170614326,-349.6433346197442L202.9908903265367,-339.5114837310468L222.84009567244885,-346.66983687187474z" style="fill:rgb(43,180,168)">
    </path>
    <path d="M205.62168524071072,-357.7902735390411L201.28807170614326,-349.6433346197442L222.84009567244885,-346.66983687187474z" style="fill:rgb(43,180,168)">
    </path>
    <path d="M96.40569041790127,347.15310848560864L98.27146965535583,356.23888562921456L117.95856974479376,350.3706413387915z" style="fill:rgb(167,41,160)">
    </path>
    <path d="M100.90538369708754,337.93800831172734L96.40569041790127,347.15310848560864L117.95856974479376,350.3706413387915z" style="fill:rgb(167,41,160)">
    </path>
    <path d="M31.328439824507097,166.73867674317495L99.09770448612885,178.26153099186206" style="fill:none;stroke:rgb(167,41,160);stroke-width:5;stroke-linecap:round">
    </path>
    <path d="M95.91691065006876,305.25955212351914L97.78930834596545,314.43804855419654L117.5375598738452,308.4728151621571z" style="fill:rgb(167,41,160)">
    </path>
    <path d="M100.43150312832684,296.0790438276938L95.91691065006876,305.25955212351914L117.5375598738452,308.4728151621571z" style="fill:rgb(167,41,160)">
    </path>
    <path d="M30.634470788233518,124.26890138989691L98.61236236458531,135.39014109413662" style="fill:none;stroke:rgb(167,41,160);stroke-width:5;stroke-linecap:round">
    </path>
    <path d="M93.38623219659456,-339.2778264757521L162.1592901134664,-332.9269519119069" style="fill:none;stroke:rgb(43,180,168);stroke-width:5;stroke-linecap:round">
    </path>
    <path d="M95.42504078436527,263.1011419400517L97.30410346221514,272.3733496688904L117.1138874322337,266.3100167591757z" style="fill:rgb(167,41,160)">
    </path>
    <path d="M99.95463121689126,253.9558471403582L95.42504078436527,263.1011419400517L117.1138874322337,266.3100167591757z" style="fill:rgb(167,41,160)">
    </path>
    <path d="M181.4168188231202,-331.8554332130425L186.89136286681037,-333.7981998231789L201.42078443617748,-339.0698332563736z" style="fill:rgb(43,180,168)">
    </path>
    <path d="M29.936113633839796,81.53058035079556L98.12391954485322,92.24485936816205" style="fill:none;stroke:rgb(167,41,160);stroke-width:5;stroke-linecap:round">
    </path>
    <path d="M38.03560551696176,577.2062989664082L23.446365407483214,-315.6314468668649L-112.48073308432356,-328.805626497768z" style="fill:rgb(0,0,0); fill-opacity: 0.2">
    </path>
    <path d="M179.6639954615196,-342.07522997686897L181.4168188231202,-331.8554332130425L201.42078443617748,-339.0698332563736z" style="fill:rgb(43,180,168)">
    </path>
    <path d="M184.0731889305625,-350.31379215345464L179.6639954615196,-342.07522997686897L201.42078443617748,-339.0698332563736z" style="fill:rgb(43,180,168)">
    </path>
    <path d="M-112.48073308432356,-328.805626497768L-112.48073308432356,-328.805626497768L-106.49061330175446,-98.89519242305563z" style="fill:rgb(0,0,0); fill-opacity: 0.2">
    </path>
    <path d="M94.93005142416384,220.67535833572637L96.81582609466919,230.04228267802708L116.68752708170241,223.8797245312937z" style="fill:rgb(167,41,160)">
    </path>
    <path d="M99.47473954909411,211.56590840318427L94.93005142416384,220.67535833572637L116.68752708170241,223.8797245312937z" style="fill:rgb(167,41,160)">
    </path>
    <path d="M29.23332660877358,38.521158437633005L97.63234621763303,48.82305268969765" style="fill:none;stroke:rgb(167,41,160);stroke-width:5;stroke-linecap:round">
    </path>
    <path d="M94.43191279877779,177.97964965022487L96.3244469666002,187.44230944407673L116.25845316146382,181.17938478253802z" style="fill:rgb(167,41,160)">
    </path>
    <path d="M98.9917993502505,168.90668588183397L94.43191279877779,177.97964965022487L116.25845316146382,181.17938478253802z" style="fill:rgb(167,41,160)">
    </path>
    <path d="M28.52606742910141,-4.76195205748671L97.13761219029165,5.122054073771418" style="fill:none;stroke:rgb(167,41,160);stroke-width:5;stroke-linecap:round">
    </path>
    <path d="M-112.48073308432356,-328.805626497768L-112.48073308432356,-328.805626497768" style="fill:none;stroke:rgb(0,0,0);stroke-width:1;stroke-linecap:round">
    </path>
    <path d="M23.446365407483214,-315.6314468668649L-112.48073308432356,-328.805626497768" style="fill:none;stroke:rgb(0,0,0);stroke-width:1;stroke-linecap:round">
    </path>
    <path d="M-112.48073308432356,-328.805626497768L-112.48073308432356,-328.805626497768" style="fill:none;stroke:rgb(0,0,0);stroke-width:1;stroke-linecap:round">
    </path>
    <path d="M23.446365407483214,-315.6314468668649L-112.48073308432356,-328.805626497768" style="fill:none;stroke:rgb(0,0,0);stroke-width:1;stroke-linecap:round">
    </path>
    <path d="M23.446365407483214,-315.6314468668649L-112.48073308432356,-328.805626497768" style="fill:none;stroke:rgb(0,0,0);stroke-width:1;stroke-linecap:round">
    </path>
    <path d="M23.446365407483214,-315.6314468668649L-112.48073308432356,-328.805626497768" style="fill:none;stroke:rgb(0,0,0);stroke-width:1;stroke-linecap:round">
    </path>
    <path d="M70.53528673568093,-331.5520163534647L139.7587076476442,-325.056803925947" style="fill:none;stroke:rgb(43,180,168);stroke-width:5;stroke-linecap:round">
    </path>
    <path d="M93.9305947574922,135.01143165081237L95.82993642813727,144.57085947994534L115.82663968305171,138.20641120717613z" style="fill:rgb(167,41,160)">
    </path>
    <path d="M98.50578147892588,125.97560544613312L93.9305947574922,135.01143165081237L115.82663968305171,138.20641120717613z" style="fill:rgb(167,41,160)">
    </path>
    <path d="M27.814293271028202,-48.321371881112356L96.63968688068074,-38.860837871366186" style="fill:none;stroke:rgb(167,41,160);stroke-width:5;stroke-linecap:round">
    </path>
    <path d="M159.41442151298162,-324.0473815294767L164.99805825116357,-326.0288621663113L179.57540950301828,-331.31865364828036z" style="fill:rgb(43,180,168)">
    </path>
    <path d="M157.60993255618735,-334.356636406445L159.41442151298162,-324.0473815294767L179.57540950301828,-331.31865364828036z" style="fill:rgb(43,180,168)">
    </path>
    <path d="M162.09686888907632,-342.6888727461321L157.60993255618735,-334.356636406445L179.57540950301828,-331.31865364828036z" style="fill:rgb(43,180,168)">
    </path>
    <path d="M93.4260667634805,91.76808701093273L95.3322644503022,101.4253294319429L115.39206032507377,94.95818436753069z" style="fill:rgb(167,41,160)">
    </path>
    <path d="M98.01665642107453,82.77006005229231L93.4260667634805,91.76808701093273L115.39206032507377,94.95818436753069z" style="fill:rgb(167,41,160)">
    </path>
    <path d="M27.097960762253802,-92.15975534741179L96.13853931083514,-83.12835950089028" style="fill:none;stroke:rgb(167,41,160);stroke-width:5;stroke-linecap:round">
    </path>
    <path d="M-112.48073308432356,-328.805626497768L-112.48073308432356,-328.805626497768L23.446365407483214,-315.6314468668649z" style="fill:rgb(0,0,0); fill-opacity: 0.2">
    </path>
    <path d="M92.91829788760384,48.24696477875485L94.83140061893097,58.00308255280248L114.95468842786342,51.4320511617277z" style="fill:rgb(167,41,160)">
    </path>
    <path d="M97.52439428406487,39.28740921516547L92.91829788760384,48.24696477875485L114.95468842786342,51.4320511617277z" style="fill:rgb(167,41,160)">
    </path>
    <path d="M26.377025973162855,-136.27979087733314L95.63413810054816,-127.68328270089073" style="fill:none;stroke:rgb(167,41,160);stroke-width:5;stroke-linecap:round">
    </path>
    <path d="M92.40725680209074,4.4453798354457446L94.32731412847782,14.30144816452805L114.51449698802793,7.62532428115119z" style="fill:rgb(167,41,160)">
    </path>
    <path d="M97.02896479058975,-4.475021529678283L92.40725680209074,4.4453798354457446L114.51449698802793,7.62532428115119z" style="fill:rgb(167,41,160)">
    </path>
    <path d="M47.22662826256235,-323.67145535538356L116.90469853500736,-317.0273504926109" style="fill:none;stroke:rgb(43,180,168);stroke-width:5;stroke-linecap:round">
    </path>
    <path d="M25.651444407844448,-180.6842015481925L95.12645146082163,-172.52841546695132" style="fill:none;stroke:rgb(167,41,160);stroke-width:5;stroke-linecap:round">
    </path>
    <path d="M136.97081470358245,-316.0827566086881L142.6668378060872,-318.10412010595786L157.29113055309563,-323.411742043137z" style="fill:rgb(43,180,168)">
    </path>
    <path d="M135.11292901198246,-326.4830202090358L136.97081470358245,-316.0827566086881L157.29113055309563,-323.411742043137z" style="fill:rgb(43,180,168)">
    </path>
    <path d="M139.6798563529369,-334.9110503619329L135.11292901198246,-326.4830202090358L157.29113055309563,-323.411742043137z" style="fill:rgb(43,180,168)">
    </path>
    <path d="M91.89291177409409,-39.63938765706429L93.81997377569935,-29.68227888916021L114.07145865289098,-36.46471834262878z" style="fill:rgb(167,41,160)">
    </path>
    <path d="M96.53033727245858,-48.51994117430019L91.89291177409409,-39.63938765706429L114.07145865289098,-36.46471834262878z" style="fill:rgb(167,41,160)">
    </path>
    <path d="M23.446365407483214,-315.6314468668649L23.446365407483214,-315.6314468668649L-112.48073308432356,-328.805626497768z" style="fill:rgb(0,0,0); fill-opacity: 0.2">
    </path>
    <path d="M24.921170994937466,-225.37574565392197L94.61544718718751,-217.66660249407087" style="fill:none;stroke:rgb(167,41,160);stroke-width:5;stroke-linecap:round">
    </path>
    <path d="M91.37523065912262,-84.01009281906157L93.30934795321593,-73.95083880101791L113.62554571482687,-80.84083410169373z" style="fill:rgb(167,41,160)">
    </path>
    <path d="M96.02848066426914,-92.85009379739013L91.37523065912262,-84.01009281906157L113.62554571482687,-80.84083410169373z" style="fill:rgb(167,41,160)">
    </path>
    <path d="M24.18616007829778,-270.357217276222L94.1010926528981,-263.1007257781877" style="fill:none;stroke:rgb(167,41,160);stroke-width:5;stroke-linecap:round">
    </path>
    <path d="M90.85418089434451,-128.66952662701937L92.79540464294756,-118.5070073693482L113.17673010548424,-125.50581628662485z" style="fill:rgb(167,41,160)">
    </path>
    <path d="M95.5233634969557,-137.46825913416137L90.85418089434451,-128.66952662701937L113.17673010548424,-125.50581628662485z" style="fill:rgb(167,41,160)">
    </path>
    <path d="M23.446365407483334,-315.63144686686496L93.58335480198193,-308.8337052295742" style="fill:none;stroke:rgb(43,180,168);stroke-width:5;stroke-linecap:round">
    </path>
    <path d="M23.446365407483214,-315.6314468668649L23.446365407483214,-315.6314468668649" style="fill:none;stroke:rgb(22,31,115);stroke-width:5;stroke-linecap:round">
    </path>
    <path d="M23.446365407483214,-315.6314468668649L93.5833548019818,-308.83370522957415" style="fill:none;stroke:rgb(74,87,214);stroke-width:5;stroke-linecap:round">
    </path>
    <path d="M23.446365407483214,-315.6314468668649L93.5833548019818,-308.83370522957415" style="fill:none;stroke:rgb(167,41,160);stroke-width:5;stroke-linecap:round">
    </path>
    <path d="M114.07259276117844,-307.9568011562945L119.88442983234766,-310.01926387744726L134.55458607093115,-315.34435750577444z" style="fill:rgb(43,180,168)">
    </path>
    <path d="M112.15950522893583,-318.44966372540097L114.07259276117844,-307.9568011562945L134.55458607093115,-315.34435750577444z" style="fill:rgb(43,180,168)">
    </path>
    <path d="M116.80876121536161,-326.9756791600207L112.15950522893583,-318.44966372540097L134.55458607093115,-315.34435750577444z" style="fill:rgb(43,180,168)">
    </path>
    <path d="M90.32972949175942,-173.62051649880965L92.2781114094215,-163.35359657820123L112.72498338989651,-170.46249467261475z" style="fill:rgb(167,41,160)">
    </path>
    <path d="M95.01495389121126,-182.37725315738737L90.32972949175942,-173.62051649880965L112.72498338989651,-170.46249467261475z" style="fill:rgb(167,41,160)">
    </path>
    <path d="M89.80184303123666,-218.86592689041365L91.7574353929485,-208.49345518895598L112.27027676047648,-215.7137361170988z" style="fill:rgb(167,41,160)">
    </path>
    <path d="M94.5032195507806,-227.57992866983972L89.80184303123666,-218.86592689041365L112.27027676047648,-215.7137361170988z" style="fill:rgb(167,41,160)">
    </path>
    <path d="M89.27048765341591,-264.4086599043963L91.23334330266475,-253.92946934354612L111.81258103089273,-261.2624451691732z" style="fill:rgb(167,41,160)">
    </path>
    <path d="M93.98812775562138,-273.07917590838616L89.27048765341591,-264.4086599043963L111.81258103089273,-261.2624451691732z" style="fill:rgb(167,41,160)">
    </path>
    <path d="M90.70580140943648,-299.6645631795978L96.63702086591421,-301.76939145853305L111.35186662982476,-307.1115646910711z" style="fill:rgb(74,87,214)">
    </path>
    <path d="M90.70580140943648,-299.6645631795978L96.63702086591421,-301.76939145853305L111.35186662982476,-307.1115646910711z" style="fill:rgb(167,41,160)">
    </path>
    <path d="M90.70580140943652,-299.66456317959774L96.63702086591432,-301.7693914585331L111.35186662982484,-307.1115646910712z" style="fill:rgb(43,180,168)">
    </path>
    <path d="M88.7356290524679,-310.2516559104157L90.70580140943652,-299.66456317959774L111.35186662982484,-307.1115646910712z" style="fill:rgb(43,180,168)">
    </path>
    <path d="M88.73562905246779,-310.2516559104156L90.70580140943648,-299.6645631795978L111.35186662982476,-307.1115646910711z" style="fill:rgb(74,87,214)">
    </path>
    <path d="M88.73562905246779,-310.2516559104156L90.70580140943648,-299.6645631795978L111.35186662982476,-307.1115646910711z" style="fill:rgb(167,41,160)">
    </path>
    <path d="M93.46964535493024,-318.8779231600168L88.7356290524679,-310.2516559104157L111.35186662982484,-307.1115646910712z" style="fill:rgb(43,180,168)">
    </path>
    <path d="M93.46964535493011,-318.8779231600168L88.73562905246779,-310.2516559104156L111.35186662982476,-307.1115646910711z" style="fill:rgb(74,87,214)">
    </path>
    <path d="M93.46964535493011,-318.8779231600168L88.73562905246779,-310.2516559104156L111.35186662982476,-307.1115646910711z" style="fill:rgb(167,41,160)">
    </path>
</svg>