<svg viewBox="-812 -675 1624 1350" width="1624" height="1350" style="background-color: rgb(255, 255, 255);">
    <path d="M11.00106202955353,167.20533937104088L-4.366605850340848,-411.3769299714748" style="fill:none;stroke:rgb(0,0,0);stroke-width:1;stroke-linecap:round">
    </path>
    <path d="M210.94165058371198,218.16143783096072L11.00106202955353,167.20533937104088" style="fill:none;stroke:rgb(160,0,0);stroke-width:4;stroke-linecap:round">
    </path>
    <path d="M210.94165058371198,218.16143783096072L205.97409529751351,-380.59308733997193" style="fill:none;stroke:rgb(0,0,0);stroke-width:1;stroke-linecap:round">
    </path>
    <path d="M85.9086568683625,323.0406753769717L210.94165058371198,218.16143783096072" style="fill:none;stroke:rgb(160,0,0);stroke-width:4;stroke-linecap:round">
    </path>
    <path d="M205.97409529751351,-380.59308733997193L210.94165058371198,218.16143783096072L11.00106202955353,167.20533937104088z" style="fill:rgb(0,0,0); fill-opacity: 0.2">
    </path>
    <path d="M-4.366605850340848,-411.3769299714748L11.00106202955353,167.20533937104088L205.97409529751351,-380.59308733997193z" style="fill:rgb(0,0,0); fill-opacity: 0.2">
    </path>
    <path d="M205.97409529751351,-380.59308733997193L-4.366605850340848,-411.3769299714748" style="fill:none;stroke:rgb(0,0,0);stroke-width:1;stroke-linecap:round">
    </path>
    <path d="M-4.366605850340848,-411.3769299714748L-541.2802754254783,-249.34778081668756" style="fill:none;stroke:rgb(0,0,0);stroke-width:1;stroke-linecap:round">
    </path>
    <path d="M205.97409529751351,-380.59308733997193L-4.366605850340848,-411.3769299714748" style="fill:none;stroke:rgb(0,0,0);stroke-width:1;stroke-linecap:round">
    </path>
    <path d="M267.8993248397141,3.826962016562503L252.59724637497538,2.4454285275791374L257.132211012223,6.487432710361562z" style="fill:rgb(109,213,75)">
    </path>
    <path d="M267.8993248397141,3.826962016562503L252.59724637497538,2.4454285275791374L257.132211012223,6.487432710361562z" style="fill:rgb(43,180,168)">
    </path>
    <path d="M252.59724637497538,2.4454285275791374L243.5361816020638,6.646744693131167L257.132211012223,6.487432710361562z" style="fill:rgb(109,213,75)">
    </path>
    <path d="M252.59724637497538,2.4454285275791374L243.53618160206383,6.646744693131167L257.132211012223,6.487432710361562z" style="fill:rgb(43,180,168)">
    </path>
    <path d="M256.7345276057878,-93.66090162754115L257.132211012223,6.487432710361562" style="fill:none;stroke:rgb(109,213,75);stroke-width:5;stroke-linecap:round">
    </path>
    <path d="M256.7345276057878,-93.66090162754115L257.132211012223,6.487432710361562" style="fill:none;stroke:rgb(43,180,168);stroke-width:5;stroke-linecap:round">
    </path>
    <path d="M268.37039399250796,8.899730315345927L267.8993248397141,3.826962016562503L257.132211012223,6.487432710361562z" style="fill:rgb(109,213,75)">
    </path>
    <path d="M268.37039399250796,8.899730315345927L267.8993248397141,3.826962016562503L257.132211012223,6.487432710361562z" style="fill:rgb(43,180,168)">
    </path>
    <path d="M253.26561585978976,10.653204188406717L243.5361816020638,6.646744693131167L257.23052157713795,31.244913572577794z" style="fill:rgb(109,213,75)">
    </path>
    <path d="M253.26561585978976,10.653204188406717L243.53618160206383,6.646744693131167L257.23052157713795,31.24491357257778z" style="fill:rgb(43,180,168)">
    </path>
    <path d="M268.37039399250796,8.899730315345927L253.26561585978976,10.653204188406717L257.23052157713795,31.244913572577794z" style="fill:rgb(109,213,75)">
    </path>
    <path d="M268.37039399250796,8.899730315345927L253.26561585978976,10.653204188406717L257.23052157713795,31.24491357257778z" style="fill:rgb(43,180,168)">
    </path>
    <path d="M243.5361816020638,6.646744693131167L253.26561585978976,10.653204188406717L257.132211012223,6.487432710361562z" style="fill:rgb(109,213,75)">
    </path>
    <path d="M243.53618160206383,6.646744693131167L253.26561585978976,10.653204188406717L257.132211012223,6.487432710361562z" style="fill:rgb(43,180,168)">
    </path>
    <path d="M253.26561585978976,10.653204188406717L268.37039399250796,8.899730315345927L257.132211012223,6.487432710361562z" style="fill:rgb(109,213,75)">
    </path>
    <path d="M253.26561585978976,10.653204188406717L268.37039399250796,8.899730315345927L257.132211012223,6.487432710361562z" style="fill:rgb(43,180,168)">
    </path>
    <path d="M256.7345276057878,-93.66090162754115L79.11516835067044,-16.824002528913756" style="fill:none;stroke:rgb(45,114,23);stroke-width:5;stroke-linecap:round">
    </path>
    <path d="M256.7345276057878,-93.66090162754115L205.97409529751351,-380.59308733997193" style="fill:none;stroke:rgb(0,0,0);stroke-width:1;stroke-linecap:round">
    </path>
    <path d="M-251.1589472196282,126.05028211769239L256.7345276057878,-93.66090162754115" style="fill:none;stroke:rgb(1,93,85);stroke-width:5;stroke-linecap:round">
    </path>
    <path d="M256.7345276057878,-93.66090162754115L205.97409529751351,-380.59308733997193" style="fill:none;stroke:rgb(0,0,0);stroke-width:1;stroke-linecap:round">
    </path>
    <path d="M231.74216268281273,20.693331675017003L216.30576305020082,19.272589505399107L220.78033512871426,23.416298830084003z" style="fill:rgb(43,180,168)">
    </path>
    <path d="M216.30576305020082,19.272589505399107L207.0263902456378,23.57512788770309L220.78033512871426,23.416298830084003z" style="fill:rgb(43,180,168)">
    </path>
    <path d="M220.0454258382349,-77.78945145254275L220.78033512871414,23.416298830084063" style="fill:none;stroke:rgb(43,180,168);stroke-width:5;stroke-linecap:round">
    </path>
    <path d="M232.07920142925863,25.89223281964235L231.74216268281273,20.693331675017003L220.78033512871426,23.416298830084003z" style="fill:rgb(43,180,168)">
    </path>
    <path d="M216.75507245332005,27.684416949307195L207.0263902456378,23.57512788770309L220.96198611386637,48.43180003555498z" style="fill:rgb(43,180,168)">
    </path>
    <path d="M225.98145671866143,23.380550209021724L210.52376318394516,21.953511683545493L214.98846252569413,26.113541640694955z" style="fill:rgb(109,213,75)">
    </path>
    <path d="M210.52376318394516,21.953511683545493L201.20936858334136,26.272288514811084L214.98846252569413,26.113541640694955z" style="fill:rgb(109,213,75)">
    </path>
    <path d="M232.07920142925863,25.89223281964235L216.75507245332005,27.684416949307195L220.96198611386637,48.43180003555498z" style="fill:rgb(43,180,168)">
    </path>
    <path d="M207.0263902456378,23.57512788770309L216.75507245332005,27.684416949307195L220.78033512871426,23.416298830084003z" style="fill:rgb(43,180,168)">
    </path>
    <path d="M216.75507245332005,27.684416949307195L232.07920142925863,25.89223281964235L220.78033512871426,23.416298830084003z" style="fill:rgb(43,180,168)">
    </path>
    <path d="M214.19908918885972,-75.26036689155504L214.9884625256941,26.113541640694987" style="fill:none;stroke:rgb(109,213,75);stroke-width:5;stroke-linecap:round">
    </path>
    <path d="M226.29683479063047,28.599690818340108L225.98145671866143,23.380550209021724L214.98846252569413,26.113541640694955z" style="fill:rgb(109,213,75)">
    </path>
    <path d="M210.9376730726086,30.398081478070978L201.20936858334136,26.272288514811084L215.18357144325657,51.17006767198446z" style="fill:rgb(109,213,75)">
    </path>
    <path d="M226.29683479063047,28.599690818340108L210.9376730726086,30.398081478070978L215.18357144325657,51.17006767198446z" style="fill:rgb(109,213,75)">
    </path>
    <path d="M201.20936858334136,26.272288514811084L210.9376730726086,30.398081478070978L214.98846252569413,26.113541640694955z" style="fill:rgb(109,213,75)">
    </path>
    <path d="M210.9376730726086,30.398081478070978L226.29683479063047,28.599690818340108L214.98846252569413,26.113541640694955z" style="fill:rgb(109,213,75)">
    </path>
    <path d="M205.97409529751351,-380.59308733997193L205.97409529751351,-380.59308733997193L256.7345276057878,-93.66090162754115z" style="fill:rgb(0,0,0); fill-opacity: 0.2">
    </path>
    <path d="M205.97409529751351,-380.59308733997193L210.94165058371198,218.16143783096072L79.11516835067044,-16.824002528913756z" style="fill:rgb(0,0,0); fill-opacity: 0.2">
    </path>
    <path d="M194.70870112808328,37.96847206362764L179.1359225105443,36.507015684218985L183.54582376945433,40.7562033746017z" style="fill:rgb(43,180,168)">
    </path>
    <path d="M179.1359225105443,36.507015684218985L169.63025603108213,40.91447896203393L183.54582376945433,40.7562033746017z" style="fill:rgb(43,180,168)">
    </path>
    <path d="M182.45725488006906,-61.52907020059692L183.54582376945433,40.75620337460169" style="fill:none;stroke:rgb(43,180,168);stroke-width:5;stroke-linecap:round">
    </path>
    <path d="M194.90502167970052,43.298173431503436L194.70870112808328,37.96847206362764L183.54582376945433,40.7562033746017z" style="fill:rgb(43,180,168)">
    </path>
    <path d="M179.35527293050214,45.13044441038479L169.63025603108213,40.91447896203393L183.81485320867228,66.03503511278147z" style="fill:rgb(43,180,168)">
    </path>
    <path d="M79.11516835067044,-16.824002528913756L205.97409529751351,-380.59308733997193" style="fill:none;stroke:rgb(0,0,0);stroke-width:1;stroke-linecap:round">
    </path>
    <path d="M205.97409529751351,-380.59308733997193L205.97409529751351,-380.59308733997193" style="fill:none;stroke:rgb(0,0,0);stroke-width:1;stroke-linecap:round">
    </path>
    <path d="M79.11516835067044,-16.824002528913756L205.97409529751351,-380.59308733997193" style="fill:none;stroke:rgb(0,0,0);stroke-width:1;stroke-linecap:round">
    </path>
    <path d="M205.97409529751351,-380.59308733997193L-320.00365458698536,-205.77686828475555" style="fill:none;stroke:rgb(0,0,0);stroke-width:1;stroke-linecap:round">
    </path>
    <path d="M79.11516835067044,-16.824002528913756L85.9086568683625,323.0406753769717L210.94165058371198,218.16143783096072z" style="fill:rgb(0,0,0); fill-opacity: 0.2">
    </path>
    <path d="M194.90502167970052,43.298173431503436L179.35527293050214,45.13044441038479L183.81485320867228,66.03503511278147z" style="fill:rgb(43,180,168)">
    </path>
    <path d="M169.63025603108213,40.91447896203393L179.35527293050214,45.13044441038479L183.54582376945433,40.7562033746017z" style="fill:rgb(43,180,168)">
    </path>
    <path d="M179.35527293050214,45.13044441038479L194.90502167970052,43.298173431503436L183.54582376945433,40.7562033746017z" style="fill:rgb(43,180,168)">
    </path>
    <path d="M182.88353561750094,43.4846022263987L167.26746504650978,42.010027024882L171.65611628946925,46.293173922595926z" style="fill:rgb(109,213,75)">
    </path>
    <path d="M167.26746504650978,42.010027024882L157.68896625525548,46.451260237751576L171.65611628946925,46.293173922595926z" style="fill:rgb(109,213,75)">
    </path>
    <path d="M170.45285878855006,-56.33605196715548L171.65611628946922,46.29317392259596" style="fill:none;stroke:rgb(109,213,75);stroke-width:5;stroke-linecap:round">
    </path>
    <path d="M183.0341901810989,48.856412765096984L182.88353561750094,43.4846022263987L171.65611628946925,46.293173922595926z" style="fill:rgb(109,213,75)">
    </path>
    <path d="M167.41219557609693,50.70157736171536L157.68896625525548,46.451260237751576L171.95347677925324,71.65588876410973z" style="fill:rgb(109,213,75)">
    </path>
    <path d="M183.0341901810989,48.856412765096984L167.41219557609693,50.70157736171536L171.95347677925324,71.65588876410973z" style="fill:rgb(109,213,75)">
    </path>
    <path d="M157.68896625525548,46.451260237751576L167.41219557609693,50.70157736171536L171.65611628946925,46.293173922595926z" style="fill:rgb(109,213,75)">
    </path>
    <path d="M167.41219557609693,50.70157736171536L183.0341901810989,48.856412765096984L171.65611628946925,46.293173922595926z" style="fill:rgb(109,213,75)">
    </path>
    <path d="M256.7345276057878,-93.66090162754115L79.11516835067044,-16.824002528913756L205.97409529751351,-380.59308733997193z" style="fill:rgb(0,0,0); fill-opacity: 0.2">
    </path>
    <path d="M156.76669261679746,55.667425824395224L141.05544601954725,54.1636736469609L145.39613586198658,58.522300540104546z" style="fill:rgb(43,180,168)">
    </path>
    <path d="M79.11516835067044,-16.824002528913756L85.9086568683625,323.0406753769717" style="fill:none;stroke:rgb(104,70,1);stroke-width:5;stroke-linecap:round">
    </path>
    <path d="M85.9086568683625,323.0406753769717L17.094659500802663,360.1764782160497" style="fill:none;stroke:rgb(197,147,42);stroke-width:5;stroke-linecap:round">
    </path>
    <path d="M141.05544601954725,54.1636736469609L131.31510593565125,58.679947316561574L145.39613586198658,58.522300540104546z" style="fill:rgb(43,180,168)">
    </path>
    <path d="M143.93655715414792,-44.86528435659941L145.39613586198655,58.522300540104574" style="fill:none;stroke:rgb(43,180,168);stroke-width:5;stroke-linecap:round">
    </path>
    <path d="M156.81523244600768,61.13282677924391L156.76669261679746,55.667425824395224L145.39613586198658,58.522300540104546z" style="fill:rgb(43,180,168)">
    </path>
    <path d="M141.03332849178005,63.00662833570072L131.31510593565125,58.679947316561574L145.75680567306085,84.06993323155265z" style="fill:rgb(43,180,168)">
    </path>
    <path d="M156.81523244600768,61.13282677924391L141.03332849178005,63.00662833570072L145.75680567306085,84.06993323155265z" style="fill:rgb(43,180,168)">
    </path>
    <path d="M131.31510593565125,58.679947316561574L141.03332849178005,63.00662833570072L145.39613586198658,58.522300540104546z" style="fill:rgb(43,180,168)">
    </path>
    <path d="M141.03332849178005,63.00662833570072L156.81523244600768,61.13282677924391L145.39613586198658,58.522300540104546z" style="fill:rgb(43,180,168)">
    </path>
    <path d="M138.55501963829255,64.16269454104481L122.77776199676597,62.63843144621323L127.08416929542965,67.05008137285955z" style="fill:rgb(109,213,75)">
    </path>
    <path d="M122.77776199676597,62.63843144621323L112.9237648833532,67.20740412276339L127.08416929542965,67.05008137285955z" style="fill:rgb(109,213,75)">
    </path>
    <path d="M84.58342128353998,256.74178284007195L15.307911351146362,292.67735404915555" style="fill:none;stroke:rgb(197,147,42);stroke-width:5;stroke-linecap:round">
    </path>
    <path d="M125.44339129120426,-36.86526946304133L127.08416929542962,67.05008137285958" style="fill:none;stroke:rgb(109,213,75);stroke-width:5;stroke-linecap:round">
    </path>
    <path d="M138.53132861984344,69.69383730577684L138.55501963829255,64.16269454104481L127.08416929542965,67.05008137285955z" style="fill:rgb(109,213,75)">
    </path>
    <path d="M122.63763348824082,71.58773850987556L112.9237648833532,67.20740412276339L127.48958682335268,92.72637916613495z" style="fill:rgb(109,213,75)">
    </path>
    <path d="M138.53132861984344,69.69383730577684L122.63763348824082,71.58773850987556L127.48958682335268,92.72637916613495z" style="fill:rgb(109,213,75)">
    </path>
    <path d="M112.9237648833532,67.20740412276339L122.63763348824082,71.58773850987556L127.08416929542965,67.05008137285955z" style="fill:rgb(109,213,75)">
    </path>
    <path d="M122.63763348824082,71.58773850987556L138.53132861984344,69.69383730577684L127.08416929542965,67.05008137285955z" style="fill:rgb(109,213,75)">
    </path>
    <path d="M34.13789725167,338.16324204790857L38.57989129383023,353.41328600462475L44.97217231619723,345.13224507803415z" style="fill:rgb(167,41,160)">
    </path>
    <path d="M55.663881463963385,344.31530062929704L51.86704001995282,357.2455032308382L62.155575196391155,335.8591395199469z" style="fill:rgb(167,41,160)">
    </path>
    <path d="M117.88228767269545,73.80598285191569L102.03045361181879,72.25827241346445L106.29711079508535,76.73049873296638z" style="fill:rgb(43,180,168)">
    </path>
    <path d="M38.57989129383023,353.41328600462475L51.86704001995282,357.2455032308382L44.97217231619723,345.13224507803415z" style="fill:rgb(167,41,160)">
    </path>
    <path d="M44.67112339458449,332.504029329747L55.663881463963385,344.31530062929704L62.155575196391155,335.8591395199469z" style="fill:rgb(167,41,160)">
    </path>
    <path d="M83.24176559434449,189.62142523859472L13.498542994948709,224.32369191600773" style="fill:none;stroke:rgb(197,147,42);stroke-width:5;stroke-linecap:round">
    </path>
    <path d="M44.67112339458449,332.504029329747L34.13789725167,338.16324204790857L44.97217231619723,345.13224507803415z" style="fill:rgb(167,41,160)">
    </path>
    <path d="M102.03045361181879,72.25827241346445L92.04664106928018,76.88743621264679L106.29711079508535,76.73049873296638z" style="fill:rgb(43,180,168)">
    </path>
    <path d="M-25.63204215844679,383.2341471421394L44.972172316197216,345.1322450780342" style="fill:none;stroke:rgb(167,41,160);stroke-width:5;stroke-linecap:round">
    </path>
    <path d="M51.86704001995282,357.2455032308382L55.663881463963385,344.31530062929704L44.97217231619723,345.13224507803415z" style="fill:rgb(167,41,160)">
    </path>
    <path d="M104.44819413058165,-27.78289323698212L106.29711079508532,76.73049873296642" style="fill:none;stroke:rgb(43,180,168);stroke-width:5;stroke-linecap:round">
    </path>
    <path d="M117.77558440234381,79.41222930900784L117.88228767269545,73.80598285191569L106.29711079508535,76.73049873296638z" style="fill:rgb(43,180,168)">
    </path>
    <path d="M55.663881463963385,344.31530062929704L44.67112339458449,332.504029329747L44.97217231619723,345.13224507803415z" style="fill:rgb(167,41,160)">
    </path>
    <path d="M101.75470825397925,81.32907647833932L92.04664106928018,76.88743621264679L106.75392169300072,102.55256921702838z" style="fill:rgb(43,180,168)">
    </path>
    <path d="M117.77558440234381,79.41222930900784L101.75470825397925,81.32907647833932L106.75392169300072,102.55256921702838z" style="fill:rgb(43,180,168)">
    </path>
    <path d="M92.04664106928018,76.88743621264679L101.75470825397925,81.32907647833932L106.29711079508535,76.73049873296638z" style="fill:rgb(43,180,168)">
    </path>
    <path d="M101.75470825397925,81.32907647833932L117.77558440234381,79.41222930900784L106.29711079508535,76.73049873296638z" style="fill:rgb(43,180,168)">
    </path>
    <path d="M32.475518652211676,271.21689283525427L36.94606017549241,286.59836427395965L43.374598695538054,278.118205474836z" style="fill:rgb(167,41,160)">
    </path>
    <path d="M54.12931578033948,277.13558957394474L50.312003837727815,290.2871745452377L60.67310766316573,269.1448785166684z" style="fill:rgb(167,41,160)">
    </path>
    <path d="M36.94606017549241,286.59836427395965L50.312003837727815,290.2871745452377L43.374598695538054,278.118205474836z" style="fill:rgb(167,41,160)">
    </path>
    <path d="M43.06978101220411,265.33190001852336L54.12931578033948,277.13558957394474L60.67310766316573,269.1448785166684z" style="fill:rgb(167,41,160)">
    </path>
    <path d="M81.88338272264325,121.66424006615932L11.666122138547033,155.09916078325932" style="fill:none;stroke:rgb(197,147,42);stroke-width:5;stroke-linecap:round">
    </path>
    <path d="M43.06978101220411,265.33190001852336L32.475518652211676,271.21689283525427L43.374598695538054,278.118205474836z" style="fill:rgb(167,41,160)">
    </path>
    <path d="M-27.71457166224906,314.9945842424554L43.37459869553803,278.118205474836" style="fill:none;stroke:rgb(167,41,160);stroke-width:5;stroke-linecap:round">
    </path>
    <path d="M50.312003837727815,290.2871745452377L54.12931578033948,277.13558957394474L43.374598695538054,278.118205474836z" style="fill:rgb(167,41,160)">
    </path>
    <path d="M92.94243878707172,85.43976950545802L77.00113730970506,83.86353888359868L81.21865812341625,88.40939445567881z" style="fill:rgb(109,213,75)">
    </path>
    <path d="M54.12931578033948,277.13558957394474L43.06978101220411,265.33190001852336L43.374598695538054,278.118205474836z" style="fill:rgb(167,41,160)">
    </path>
    <path d="M77.00113730970506,83.86353888359868L66.85958276132688,88.5658424357493L81.21865812341625,88.40939445567881z" style="fill:rgb(109,213,75)">
    </path>
    <path d="M79.11516835067044,-16.824002528913756L81.2186581234162,88.40939445567881" style="fill:none;stroke:rgb(109,213,75);stroke-width:5;stroke-linecap:round">
    </path>
    <path d="M92.73414433970756,91.13729820096924L92.94243878707172,85.43976950545802L81.21865812341625,88.40939445567881z" style="fill:rgb(109,213,75)">
    </path>
    <path d="M76.55943512004937,93.08201185746385L66.85958276132688,88.5658424357493L81.73831779416219,114.4069310907671z" style="fill:rgb(109,213,75)">
    </path>
    <path d="M92.73414433970756,91.13729820096924L76.55943512004937,93.08201185746385L81.73831779416219,114.4069310907671z" style="fill:rgb(109,213,75)">
    </path>
    <path d="M66.85958276132688,88.5658424357493L76.55943512004937,93.08201185746385L81.21865812341625,88.40939445567881z" style="fill:rgb(109,213,75)">
    </path>
    <path d="M16.757976925655676,347.4574058895725L6.213717824766811,353.1226702516553L-0.5734966982218577,369.7111832213766z" style="fill:rgb(197,147,42)">
    </path>
    <path d="M76.55943512004937,93.08201185746385L92.73414433970756,91.13729820096924L81.21865812341625,88.40939445567881z" style="fill:rgb(109,213,75)">
    </path>
    <path d="M30.792310793009136,203.43171972464333L35.29176873319793,218.9467251320486L41.75697436497803,210.26309097531325z" style="fill:rgb(167,41,160)">
    </path>
    <path d="M24.040539179126757,372.39836713528416L27.81155040419447,359.3886244748189L-0.5734966982218577,369.7111832213766z" style="fill:rgb(197,147,42)">
    </path>
    <path d="M27.81155040419447,359.3886244748189L16.757976925655676,347.4574058895725L-0.5734966982218577,369.7111832213766z" style="fill:rgb(197,147,42)">
    </path>
    <path d="M52.57544374547407,209.11069143290484L48.73744500332729,222.48821965677055L59.172133906324056,201.59779722906876z" style="fill:rgb(167,41,160)">
    </path>
    <path d="M78.01993418082711,92.40072727716385L62.02536355741661,90.80731005552927L66.21286639569432,95.39750808131662z" style="fill:rgb(43,180,168)">
    </path>
    <path d="M35.29176873319793,218.9467251320486L48.73744500332729,222.48821965677055L41.75697436497803,210.26309097531325z" style="fill:rgb(167,41,160)">
    </path>
    <path d="M41.44831670399804,197.31570848898414L52.57544374547407,209.11069143290484L59.172133906324056,201.59779722906876z" style="fill:rgb(167,41,160)">
    </path>
    <path d="M80.50795788523719,52.85447934729191L9.81020540226644,84.98701081421207" style="fill:none;stroke:rgb(197,147,42);stroke-width:5;stroke-linecap:round">
    </path>
    <path d="M41.44831670399804,197.31570848898414L30.792310793009136,203.43171972464333L41.75697436497803,210.26309097531325z" style="fill:rgb(167,41,160)">
    </path>
    <path d="M62.02536355741661,90.80731005552927L51.788834268064925,95.55365025509067L66.21286639569432,95.39750808131662z" style="fill:rgb(43,180,168)">
    </path>
    <path d="M-29.823814790174538,245.87967910617624L41.756974364978,210.26309097531325" style="fill:none;stroke:rgb(167,41,160);stroke-width:5;stroke-linecap:round">
    </path>
    <path d="M48.73744500332729,222.48821965677055L52.57544374547407,209.11069143290484L41.75697436497803,210.26309097531325z" style="fill:rgb(167,41,160)">
    </path>
    <path d="M63.95523941731473,-10.265922741442289L66.2128663956943,95.39750808131666" style="fill:none;stroke:rgb(43,180,168);stroke-width:5;stroke-linecap:round">
    </path>
    <path d="M77.75009847967927,98.15322737875172L78.01993418082711,92.40072727716385L66.21286639569432,95.39750808131662z" style="fill:rgb(43,180,168)">
    </path>
    <path d="M52.57544374547407,209.11069143290484L41.44831670399804,197.31570848898414L41.75697436497803,210.26309097531325z" style="fill:rgb(167,41,160)">
    </path>
    <path d="M61.48313547176907,100.11471099037927L51.788834268064925,95.55365025509067L66.77057398528284,121.49982607988656z" style="fill:rgb(43,180,168)">
    </path>
    <path d="M77.75009847967927,98.15322737875172L61.48313547176907,100.11471099037927L66.77057398528284,121.49982607988656z" style="fill:rgb(43,180,168)">
    </path>
    <path d="M51.788834268064925,95.55365025509067L61.48313547176907,100.11471099037927L66.21286639569432,95.39750808131662z" style="fill:rgb(43,180,168)">
    </path>
    <path d="M61.48313547176907,100.11471099037927L77.75009847967927,98.15322737875172L66.21286639569432,95.39750808131662z" style="fill:rgb(43,180,168)">
    </path>
    <path d="M14.96697732738231,279.7976720373417L4.361628250416517,285.6920995089212L-2.481697658381462,301.90543135912435z" style="fill:rgb(197,147,42)">
    </path>
    <path d="M29.087879726552494,134.79185788987007L33.61663021102491,150.44255233793595L40.11891946428596,141.55096743518018z" style="fill:rgb(167,41,160)">
    </path>
    <path d="M22.29696099804894,304.9559745299393L26.088058159682216,291.72140331961157L-2.481697658381462,301.90543135912435z" style="fill:rgb(197,147,42)">
    </path>
    <path d="M26.088058159682216,291.72140331961157L14.96697732738231,279.7976720373417L-2.481697658381462,301.90543135912435z" style="fill:rgb(197,147,42)">
    </path>
    <path d="M51.00189871354685,140.22455530621886L47.14299354960934,153.83270814415607L57.65230521867099,133.20220307548126z" style="fill:rgb(167,41,160)">
    </path>
    <path d="M33.61663021102491,150.44255233793595L47.14299354960934,153.83270814415607L40.11891946428596,141.55096743518018z" style="fill:rgb(167,41,160)">
    </path>
    <path d="M39.806348804070474,128.4394448539327L51.00189871354685,140.22455530621886L57.65230521867099,133.20220307548126z" style="fill:rgb(167,41,160)">
    </path>
    <path d="M79.11516835067044,-16.824002528913827L7.9303379627559485,13.97005985711805" style="fill:none;stroke:rgb(197,147,42);stroke-width:5;stroke-linecap:round">
    </path>
    <path d="M39.806348804070474,128.4394448539327L29.087879726552494,134.79185788987007L40.11891946428596,141.55096743518018z" style="fill:rgb(167,41,160)">
    </path>
    <path d="M-31.960288863264104,175.87248034718937L40.11891946428594,141.55096743518024" style="fill:none;stroke:rgb(167,41,160);stroke-width:5;stroke-linecap:round">
    </path>
    <path d="M47.14299354960934,153.83270814415607L51.00189871354685,140.22455530621886L40.11891946428596,141.55096743518018z" style="fill:rgb(167,41,160)">
    </path>
    <path d="M51.00189871354685,140.22455530621886L39.806348804070474,128.4394448539327L40.11891946428596,141.55096743518018z" style="fill:rgb(167,41,160)">
    </path>
    <path d="M-320.00365458698536,-205.77686828475555L205.97409529751351,-380.59308733997193L-4.366605850340848,-411.3769299714748z" style="fill:rgb(0,0,0); fill-opacity: 0.2">
    </path>
    <path d="M-251.1589472196282,126.05028211769239L256.7345276057878,-93.66090162754115L205.97409529751351,-380.59308733997193z" style="fill:rgb(0,0,0); fill-opacity: 0.2">
    </path>
    <path d="M-25.63204215844679,383.2341471421394L-36.317066790282944,33.11117931978967" style="fill:none;stroke:rgb(84,0,79);stroke-width:5;stroke-linecap:round">
    </path>
    <path d="M-25.63204215844679,383.2341471421394L-282.38498148578583,478.3903306876653" style="fill:none;stroke:rgb(160,0,0);stroke-width:4;stroke-linecap:round">
    </path>
    <path d="M13.153276483620084,211.2803387588624L2.486130696493105,217.4092949193964L-4.41418857480763,233.2365635139425z" style="fill:rgb(197,147,42)">
    </path>
    <path d="M27.361821507904676,65.28103989412477L31.920248043587375,81.06962849624487L38.46004447699392,71.9654956562497z" style="fill:rgb(167,41,160)">
    </path>
    <path d="M20.531302504083392,236.6595054359207L24.34269346064268,223.19543259798368L-4.41418857480763,233.2365635139425z" style="fill:rgb(197,147,42)">
    </path>
    <path d="M24.34269346064268,223.19543259798368L13.153276483620084,211.2803387588624L-4.41418857480763,233.2365635139425z" style="fill:rgb(197,147,42)">
    </path>
    <path d="M49.408304695659574,70.46072127574128L45.52827010184343,84.30430450459885L56.11326407685847,63.942006728200205z" style="fill:rgb(167,41,160)">
    </path>
    <path d="M37.14226897015683,111.46908804137034L21.002784155160043,109.82812386877843L25.10568909510837,114.54089158403737z" style="fill:rgb(43,180,168)">
    </path>
    <path d="M31.920248043587375,81.06962849624487L45.52827010184343,84.30430450459885L38.46004447699392,71.9654956562497z" style="fill:rgb(167,41,160)">
    </path>
    <path d="M38.143485932696294,58.68669175640905L49.408304695659574,70.46072127574128L56.11326407685847,63.942006728200205z" style="fill:rgb(167,41,160)">
    </path>
    <path d="M38.143485932696294,58.68669175640905L27.361821507904676,65.28103989412477L38.46004447699392,71.9654956562497z" style="fill:rgb(167,41,160)">
    </path>
    <path d="M21.002784155160043,109.82812386877843L10.503819848810119,114.6961465093061L25.10568909510837,114.54089158403737z" style="fill:rgb(43,180,168)">
    </path>
    <path d="M-34.124524646875344,104.95559604094532L38.46004447699389,71.96549565624971" style="fill:none;stroke:rgb(167,41,160);stroke-width:5;stroke-linecap:round">
    </path>
    <path d="M45.52827010184343,84.30430450459885L49.408304695659574,70.46072127574128L38.46004447699392,71.9654956562497z" style="fill:rgb(167,41,160)">
    </path>
    <path d="M22.418863586193076,7.702424470499403L25.10568909510835,114.54089158403741" style="fill:none;stroke:rgb(43,180,168);stroke-width:5;stroke-linecap:round">
    </path>
    <path d="M36.7009552697428,117.37352904225857L37.14226897015683,111.46908804137034L25.10568909510837,114.54089158403737z" style="fill:rgb(43,180,168)">
    </path>
    <path d="M49.408304695659574,70.46072127574128L38.143485932696294,58.68669175640905L38.46004447699392,71.9654956562497z" style="fill:rgb(167,41,160)">
    </path>
    <path d="M20.18047578789268,119.38132055123604L10.503819848810119,114.6961465093061L25.76932125197925,140.92944645374314z" style="fill:rgb(43,180,168)">
    </path>
    <path d="M36.7009552697428,117.37352904225857L20.18047578789268,119.38132055123604L25.76932125197925,140.92944645374314z" style="fill:rgb(43,180,168)">
    </path>
    <path d="M10.503819848810119,114.6961465093061L20.18047578789268,119.38132055123604L25.10568909510837,114.54089158403737z" style="fill:rgb(43,180,168)">
    </path>
    <path d="M20.18047578789268,119.38132055123604L36.7009552697428,117.37352904225857L25.10568909510837,114.54089158403737z" style="fill:rgb(43,180,168)">
    </path>
    <path d="M11.316440027912039,141.88899671551712L0.5867785716580853,148.25799705953014L-6.3714362074333675,163.68799390222776z" style="fill:rgb(197,147,42)">
    </path>
    <path d="M-541.2802754254783,-249.34778081668756L-492.39563022670825,408.7157822360047" style="fill:none;stroke:rgb(0,0,0);stroke-width:1;stroke-linecap:round">
    </path>
    <path d="M-282.38498148578583,478.3903306876653L-492.39563022670825,408.7157822360047" style="fill:none;stroke:rgb(160,0,0);stroke-width:4;stroke-linecap:round">
    </path>
    <path d="M25.613721875538587,-5.117417163146343L30.20221554304835,10.811322257692707L36.779949921601954,1.4899184332742188z" style="fill:rgb(167,41,160)">
    </path>
    <path d="M18.743141593752192,167.49263269979934L22.575037280548653,153.79426061960837L-6.3714362074333675,163.68799390222776z" style="fill:rgb(197,147,42)">
    </path>
    <path d="M22.575037280548653,153.79426061960837L11.316440027912039,141.88899671551712L-6.3714362074333675,163.68799390222776z" style="fill:rgb(197,147,42)">
    </path>
    <path d="M47.79427606032104,-0.19769270693585625L43.8928855767751,13.886255195809817L54.55464386099661,-6.1992905046355355z" style="fill:rgb(167,41,160)">
    </path>
    <path d="M30.20221554304835,10.811322257692707L43.8928855767751,13.886255195809817L36.779949921601954,1.4899184332742188z" style="fill:rgb(167,41,160)">
    </path>
    <path d="M36.45932668530714,-11.959388676529336L47.79427606032104,-0.19769270693585625L54.55464386099661,-6.1992905046355355z" style="fill:rgb(167,41,160)">
    </path>
    <path d="M36.45932668530714,-11.959388676529336L25.613721875538587,-5.117417163146343L36.779949921601954,1.4899184332742188z" style="fill:rgb(167,41,160)">
    </path>
    <path d="M-36.317066790282944,33.11117931978967L36.779949921601926,1.4899184332742321" style="fill:none;stroke:rgb(167,41,160);stroke-width:5;stroke-linecap:round">
    </path>
    <path d="M43.8928855767751,13.886255195809817L47.79427606032104,-0.19769270693585625L36.779949921601954,1.4899184332742188z" style="fill:rgb(167,41,160)">
    </path>
    <path d="M47.79427606032104,-0.19769270693585625L36.45932668530714,-11.959388676529336L36.779949921601954,1.4899184332742188z" style="fill:rgb(167,41,160)">
    </path>
    <path d="M9.456022441090994,71.6068152456424L-1.33688614858298,78.22153024932202L-8.353919352406065,93.24270904718159z" style="fill:rgb(197,147,42)">
    </path>
    <path d="M16.93204533559206,97.43861033677501L20.784659820620835,83.50101275731896L-8.353919352406065,93.24270904718159z" style="fill:rgb(197,147,42)">
    </path>
    <path d="M20.784659820620835,83.50101275731896L9.456022441090994,71.6068152456424L-8.353919352406065,93.24270904718159z" style="fill:rgb(197,147,42)">
    </path>
    <path d="M-4.78999899501194,131.02939338416434L-21.0766028367917,129.33894442204536L-17.064084422261526,134.17912022627453z" style="fill:rgb(43,180,168)">
    </path>
    <path d="M-21.0766028367917,129.33894442204536L-31.84822518446051,134.3333895819314L-17.064084422261526,134.17912022627453z" style="fill:rgb(43,180,168)">
    </path>
    <path d="M-20.20179002057129,26.139822704758338L-17.064084422261548,134.17912022627453" style="fill:none;stroke:rgb(43,180,168);stroke-width:5;stroke-linecap:round">
    </path>
    <path d="M-5.411624166468231,137.09175985776656L-4.78999899501194,131.02939338416434L-17.064084422261526,134.17912022627453z" style="fill:rgb(43,180,168)">
    </path>
    <path d="M-22.193383211414663,139.14761655190634L-31.84822518446051,134.3333895819314L-16.289208762114782,160.86008801173972z" style="fill:rgb(43,180,168)">
    </path>
    <path d="M-5.411624166468231,137.09175985776656L-22.193383211414663,139.14761655190634L-16.289208762114782,160.86008801173972z" style="fill:rgb(43,180,168)">
    </path>
    <path d="M-31.84822518446051,134.3333895819314L-22.193383211414663,139.14761655190634L-17.064084422261526,134.17912022627453z" style="fill:rgb(43,180,168)">
    </path>
    <path d="M-22.193383211414663,139.14761655190634L-5.411624166468231,137.09175985776656L-17.064084422261526,134.17912022627453z" style="fill:rgb(43,180,168)">
    </path>
    <path d="M7.571566691023474,0.41652875490618674L-3.285333290111602,7.282789145823831L-10.362129232573157,21.88325390334622z" style="fill:rgb(197,147,42)">
    </path>
    <path d="M-20.64169836864497,138.4237961912816L-36.983513191419625,136.71445285199013L-33.00611494110384,141.60323504210567z" style="fill:rgb(74,87,214)">
    </path>
    <path d="M-36.983513191419625,136.71445285199013L-47.85911946812865,141.75711192193896L-33.00611494110384,141.60323504210567z" style="fill:rgb(74,87,214)">
    </path>
    <path d="M15.097569620707946,26.48026001393211L18.971120161425,12.298377768222966L-10.362129232573157,21.88325390334622z" style="fill:rgb(197,147,42)">
    </path>
    <path d="M18.971120161425,12.298377768222966L7.571566691023474,0.41652875490618674L-10.362129232573157,21.88325390334622z" style="fill:rgb(197,147,42)">
    </path>
    <path d="M-36.317066790282986,33.11117931978967L-33.00611494110385,141.60323504210564" style="fill:none;stroke:rgb(74,87,214);stroke-width:5;stroke-linecap:round">
    </path>
    <path d="M-21.3326501894533,144.54640809218438L-20.64169836864497,138.4237961912816L-33.00611494110384,141.60323504210567z" style="fill:rgb(74,87,214)">
    </path>
    <path d="M-38.213503622815175,146.6205833643767L-47.85911946812865,141.75711192193896L-32.188503551020084,168.39442516894434z" style="fill:rgb(74,87,214)">
    </path>
    <path d="M-21.3326501894533,144.54640809218438L-38.213503622815175,146.6205833643767L-32.188503551020084,168.39442516894434z" style="fill:rgb(74,87,214)">
    </path>
    <path d="M-47.85911946812865,141.75711192193896L-38.213503622815175,146.6205833643767L-33.00611494110384,141.60323504210567z" style="fill:rgb(74,87,214)">
    </path>
    <path d="M-38.213503622815175,146.6205833643767L-21.3326501894533,144.54640809218438L-33.00611494110384,141.60323504210567z" style="fill:rgb(74,87,214)">
    </path>
    <path d="M-47.818214582387995,151.10092960404538L-64.25416789696614,149.35895383846574L-60.338194868227546,154.3316324250241z" style="fill:rgb(43,180,168)">
    </path>
    <path d="M-64.25416789696614,149.35895383846574L-75.30920926540156,154.48481102810925L-60.338194868227546,154.3316324250241z" style="fill:rgb(43,180,168)">
    </path>
    <path d="M-63.949739338513325,45.064881220966925L-60.33819486822756,154.3316324250241" style="fill:none;stroke:rgb(43,180,168);stroke-width:5;stroke-linecap:round">
    </path>
    <path d="M-48.629506875217956,157.32752309092345L-47.818214582387995,151.10092960404538L-60.338194868227546,154.3316324250241z" style="fill:rgb(43,180,168)">
    </path>
    <path d="M-65.68066193544824,159.43329370812074L-75.30920926540156,154.48481102810925L-59.446445376807105,181.31138322611918z" style="fill:rgb(43,180,168)">
    </path>
    <path d="M-48.629506875217956,157.32752309092345L-65.68066193544824,159.43329370812074L-59.446445376807105,181.31138322611918z" style="fill:rgb(43,180,168)">
    </path>
    <path d="M-75.30920926540156,154.48481102810925L-65.68066193544824,159.43329370812074L-60.338194868227546,154.3316324250241z" style="fill:rgb(43,180,168)">
    </path>
    <path d="M-36.317066790282944,33.11117931978967L-251.1589472196282,126.05028211769239" style="fill:none;stroke:rgb(22,31,115);stroke-width:5;stroke-linecap:round">
    </path>
    <path d="M-36.317066790282944,33.11117931978967L-320.00365458698536,-205.77686828475555" style="fill:none;stroke:rgb(0,0,0);stroke-width:1;stroke-linecap:round">
    </path>
    <path d="M-36.317066790282944,33.11117931978967L-320.00365458698536,-205.77686828475555" style="fill:none;stroke:rgb(0,0,0);stroke-width:1;stroke-linecap:round">
    </path>
    <path d="M-65.68066193544824,159.43329370812074L-48.629506875217956,157.32752309092345L-60.338194868227546,154.3316324250241z" style="fill:rgb(43,180,168)">
    </path>
    <path d="M-71.01917190989029,161.9235688647704L-87.53497630169807,160.15349500434803L-83.67265665856435,165.19836130829466z" style="fill:rgb(74,87,214)">
    </path>
    <path d="M-541.2802754254783,-249.34778081668756L-4.366605850340848,-411.3769299714748L-320.00365458698536,-205.77686828475555z" style="fill:rgb(0,0,0); fill-opacity: 0.2">
    </path>
    <path d="M-87.53497630169807,160.15349500434803L-98.74436594472145,165.3509183859792L-83.67265665856435,165.19836130829466z" style="fill:rgb(74,87,214)">
    </path>
    <path d="M-87.54439567854578,55.271765403348844L-83.67265665856435,165.19836130829466" style="fill:none;stroke:rgb(74,87,214);stroke-width:5;stroke-linecap:round">
    </path>
    <path d="M-71.93468518351953,168.23962800664665L-71.01917190989029,161.9235688647704L-83.67265665856435,165.19836130829466z" style="fill:rgb(74,87,214)">
    </path>
    <path d="M-89.13164085499047,170.37256149670534L-98.74436594472145,165.3509183859792L-82.71674387026846,192.33868204196818z" style="fill:rgb(74,87,214)">
    </path>
    <path d="M-71.93468518351953,168.23962800664665L-89.13164085499047,170.37256149670534L-82.71674387026846,192.33868204196818z" style="fill:rgb(74,87,214)">
    </path>
    <path d="M-98.74436594472145,165.3509183859792L-89.13164085499047,170.37256149670534L-83.67265665856435,165.19836130829466z" style="fill:rgb(74,87,214)">
    </path>
    <path d="M-89.13164085499047,170.37256149670534L-71.93468518351953,168.23962800664665L-83.67265665856435,165.19836130829466z" style="fill:rgb(74,87,214)">
    </path>
    <path d="M-91.98591246672562,171.70400448717717L-108.57346940787541,169.90834869991818L-104.76059816181625,175.01889820694325z" style="fill:rgb(43,180,168)">
    </path>
    <path d="M-492.39563022670825,408.7157822360047L-541.2802754254783,-249.34778081668756L-282.38498148578583,478.3903306876653z" style="fill:rgb(0,0,0); fill-opacity: 0.2">
    </path>
    <path d="M-108.57346940787541,169.90834869991818L-119.92326458815805,175.17087348720142L-104.76059816181625,175.01889820694325z" style="fill:rgb(43,180,168)">
    </path>
    <path d="M-108.87030840810174,64.49720688370826L-104.76059816181625,175.01889820694322" style="fill:none;stroke:rgb(43,180,168);stroke-width:5;stroke-linecap:round">
    </path>
    <path d="M-92.99678684519783,178.10146472110736L-91.98591246672562,171.70400448717717L-104.76059816181625,175.01889820694325z" style="fill:rgb(43,180,168)">
    </path>
    <path d="M-110.32582910729161,180.25909551513786L-119.92326458815805,175.17087348720142L-103.74601109764106,202.30400387313145z" style="fill:rgb(43,180,168)">
    </path>
    <path d="M-92.99678684519783,178.10146472110736L-110.32582910729161,180.25909551513786L-103.74601109764106,202.30400387313145z" style="fill:rgb(43,180,168)">
    </path>
    <path d="M-119.92326458815805,175.17087348720142L-110.32582910729161,180.25909551513786L-104.76059816181625,175.01889820694325z" style="fill:rgb(43,180,168)">
    </path>
    <path d="M-110.32582910729161,180.25909551513786L-92.99678684519783,178.10146472110736L-104.76059816181625,175.01889820694325z" style="fill:rgb(43,180,168)">
    </path>
    <path d="M-25.63204215844679,383.2341471421394L-36.317066790282944,33.11117931978967L-320.00365458698536,-205.77686828475555z" style="fill:rgb(0,0,0); fill-opacity: 0.2">
    </path>
    <path d="M-320.00365458698536,-205.77686828475555L-282.38498148578583,478.3903306876653" style="fill:none;stroke:rgb(0,0,0);stroke-width:1;stroke-linecap:round">
    </path>
    <path d="M-122.9545428288245,186.15005988379795L-139.647370555861,184.31628932187314L-135.90920675860377,189.52463173333513z" style="fill:rgb(74,87,214)">
    </path>
    <path d="M-139.647370555861,184.31628932187314L-151.20614896591786,189.67571272356693L-135.90920675860377,189.52463173333513z" style="fill:rgb(74,87,214)">
    </path>
    <path d="M-140.37533099283203,78.12606047036004L-135.9092067586038,189.52463173333518" style="fill:none;stroke:rgb(74,87,214);stroke-width:5;stroke-linecap:round">
    </path>
    <path d="M-124.10831243433748,192.66870925473813L-122.9545428288245,186.15005988379795L-135.90920675860377,189.52463173333513z" style="fill:rgb(74,87,214)">
    </path>
    <path d="M-141.63301827923738,194.86307973408228L-151.20614896591786,189.67571272356693L-134.80675758190978,217.0230300610251z" style="fill:rgb(74,87,214)">
    </path>
    <path d="M-124.10831243433748,192.66870925473813L-141.63301827923738,194.86307973408228L-134.80675758190978,217.0230300610251z" style="fill:rgb(74,87,214)">
    </path>
    <path d="M-151.20614896591786,189.67571272356693L-141.63301827923738,194.86307973408228L-135.90920675860377,189.52463173333513z" style="fill:rgb(74,87,214)">
    </path>
    <path d="M-141.63301827923738,194.86307973408228L-124.10831243433748,192.66870925473813L-135.90920675860377,189.52463173333513z" style="fill:rgb(74,87,214)">
    </path>
    <path d="M-137.33896405257644,192.86001584300504L-154.0804002297893,191.00840800843696L-150.37761435835193,196.2624885637945z" style="fill:rgb(43,180,168)">
    </path>
    <path d="M-282.38498148578583,478.3903306876653L-320.00365458698536,-205.77686828475555L-25.63204215844679,383.2341471421394z" style="fill:rgb(0,0,0); fill-opacity: 0.2">
    </path>
    <path d="M-154.0804002297893,191.00840800843696L-165.7368965877925,196.41313999192116L-150.37761435835193,196.2624885637945z" style="fill:rgb(43,180,168)">
    </path>
    <path d="M-320.00365458698536,-205.77686828475555L205.97409529751351,-380.59308733997193L-251.1589472196282,126.05028211769239z" style="fill:rgb(0,0,0); fill-opacity: 0.2">
    </path>
    <path d="M-155.0112840059648,84.4574719200944L-150.37761435835196,196.26248856379456" style="fill:none;stroke:rgb(43,180,168);stroke-width:5;stroke-linecap:round">
    </path>
    <path d="M-138.55993506911219,199.43534370425562L-137.33896405257644,192.86001584300504L-150.37761435835193,196.2624885637945z" style="fill:rgb(43,180,168)">
    </path>
    <path d="M-156.17575344160792,201.64688500146354L-165.7368965877925,196.41313999192116L-149.2338686909708,223.85973072877854z" style="fill:rgb(43,180,168)">
    </path>
    <path d="M-138.55993506911219,199.43534370425562L-156.17575344160792,201.64688500146354L-149.2338686909708,223.85973072877854z" style="fill:rgb(43,180,168)">
    </path>
    <path d="M-165.7368965877925,196.41313999192116L-156.17575344160792,201.64688500146354L-150.37761435835193,196.2624885637945z" style="fill:rgb(43,180,168)">
    </path>
    <path d="M-156.17575344160792,201.64688500146354L-138.55993506911219,199.43534370425562L-150.37761435835193,196.2624885637945z" style="fill:rgb(43,180,168)">
    </path>
    <path d="M-176.52121182375367,211.13750875271032L-193.39412745487658,209.2368835638311L-189.7898886477051,214.61656517476035z" style="fill:rgb(74,87,214)">
    </path>
    <path d="M-193.39412745487658,209.2368835638311L-205.3188882142684,214.76600088109703L-189.7898886477051,214.61656517476035z" style="fill:rgb(74,87,214)">
    </path>
    <path d="M-320.00365458698536,-205.77686828475555L-541.2802754254783,-249.34778081668756" style="fill:none;stroke:rgb(0,0,0);stroke-width:1;stroke-linecap:round">
    </path>
    <path d="M-320.00365458698536,-205.77686828475555L-541.2802754254783,-249.34778081668756" style="fill:none;stroke:rgb(0,0,0);stroke-width:1;stroke-linecap:round">
    </path>
    <path d="M-194.88636832347453,101.70715598101405L-189.78988864770514,214.61656517476038" style="fill:none;stroke:rgb(74,87,214);stroke-width:5;stroke-linecap:round">
    </path>
    <path d="M-177.9279023363122,217.86847403501218L-176.52121182375367,211.13750875271032L-189.7898886477051,214.61656517476035z" style="fill:rgb(74,87,214)">
    </path>
    <path d="M-183.9257363870824,214.59152563291428L-200.8233462177937,212.68156668533106L-197.23808875735645,218.0851504794981z" style="fill:rgb(43,180,168)">
    </path>
    <path d="M-195.7926455805191,220.12712813101055L-205.3188882142684,214.76600088109703L-188.53209039093773,242.48232096924244z" style="fill:rgb(74,87,214)">
    </path>
    <path d="M-200.8233462177937,212.68156668533106L-212.7991456426516,218.23434894437418L-197.23808875735645,218.0851504794981z" style="fill:rgb(43,180,168)">
    </path>
    <path d="M-177.9279023363122,217.86847403501218L-195.7926455805191,220.12712813101055L-188.53209039093773,242.48232096924244z" style="fill:rgb(74,87,214)">
    </path>
    <path d="M-205.3188882142684,214.76600088109703L-195.7926455805191,220.12712813101055L-189.7898886477051,214.61656517476035z" style="fill:rgb(74,87,214)">
    </path>
    <path d="M-195.7926455805191,220.12712813101055L-177.9279023363122,217.86847403501218L-189.7898886477051,214.61656517476035z" style="fill:rgb(74,87,214)">
    </path>
    <path d="M-202.42308521803787,104.9674872759306L-197.2380887573565,218.0851504794981" style="fill:none;stroke:rgb(43,180,168);stroke-width:5;stroke-linecap:round">
    </path>
    <path d="M-185.3679619052342,221.35210799486856L-183.9257363870824,214.59152563291428L-197.23808875735645,218.0851504794981z" style="fill:rgb(43,180,168)">
    </path>
    <path d="M-203.27986776952474,223.61972128881317L-212.7991456426516,218.23434894437418L-195.95848025535966,246.00152894936284z" style="fill:rgb(43,180,168)">
    </path>
    <path d="M-185.3679619052342,221.35210799486856L-203.27986776952474,223.61972128881317L-195.95848025535966,246.00152894936284z" style="fill:rgb(43,180,168)">
    </path>
    <path d="M-212.7991456426516,218.23434894437418L-203.27986776952474,223.61972128881317L-197.23808875735645,218.0851504794981z" style="fill:rgb(43,180,168)">
    </path>
    <path d="M-203.27986776952474,223.61972128881317L-185.3679619052342,221.35210799486856L-197.23808875735645,218.0851504794981z" style="fill:rgb(43,180,168)">
    </path>
    <path d="M-282.38498148578583,478.3903306876653L-320.00365458698536,-205.77686828475555L-541.2802754254783,-249.34778081668756z" style="fill:rgb(0,0,0); fill-opacity: 0.2">
    </path>
    <path d="M-36.317066790282944,33.11117931978967L-251.1589472196282,126.05028211769239L-320.00365458698536,-205.77686828475555z" style="fill:rgb(0,0,0); fill-opacity: 0.2">
    </path>
    <path d="M-231.79726422011055,236.92234023177886L-248.85335783313514,234.95149514169105L-245.3935663672443,240.5108881773678z" style="fill:rgb(43,180,168)">
    </path>
    <path d="M-231.7972642201108,236.92234023177895L-248.8533578331353,234.95149514169114L-245.39356636724446,240.51088817736786z" style="fill:rgb(74,87,214)">
    </path>
    <path d="M-248.85335783313514,234.95149514169105L-261.161762180629,240.65849530704367L-245.3935663672443,240.5108881773678z" style="fill:rgb(43,180,168)">
    </path>
    <path d="M-248.8533578331353,234.95149514169114L-261.16176218062924,240.65849530704378L-245.39356636724446,240.51088817736786z" style="fill:rgb(74,87,214)">
    </path>
    <path d="M-251.15894721962803,126.0502821176923L-245.39356636724435,240.51088817736783" style="fill:none;stroke:rgb(43,180,168);stroke-width:5;stroke-linecap:round">
    </path>
    <path d="M-251.1589472196282,126.05028211769239L-245.39356636724452,240.51088817736792" style="fill:none;stroke:rgb(74,87,214);stroke-width:5;stroke-linecap:round">
    </path>
    <path d="M-233.47259293143486,243.87597688554635L-231.79726422011055,236.92234023177886L-245.3935663672443,240.5108881773678z" style="fill:rgb(43,180,168)">
    </path>
    <path d="M-233.47259293143503,243.8759768855464L-231.7972642201108,236.92234023177895L-245.39356636724446,240.51088817736786z" style="fill:rgb(74,87,214)">
    </path>
    <path d="M-251.6903468188212,246.20194252191544L-261.161762180629,240.65849530704367L-243.97097944660948,268.75362968525945z" style="fill:rgb(43,180,168)">
    </path>
    <path d="M-251.69034681882144,246.20194252191556L-261.16176218062924,240.65849530704378L-243.97097944660968,268.75362968525957z" style="fill:rgb(74,87,214)">
    </path>
    <path d="M-233.47259293143503,243.8759768855464L-251.69034681882144,246.20194252191556L-243.97097944660968,268.75362968525957z" style="fill:rgb(74,87,214)">
    </path>
    <path d="M-233.47259293143486,243.87597688554635L-251.6903468188212,246.20194252191544L-243.97097944660948,268.75362968525945z" style="fill:rgb(43,180,168)">
    </path>
    <path d="M-261.161762180629,240.65849530704367L-251.6903468188212,246.20194252191544L-245.3935663672443,240.5108881773678z" style="fill:rgb(43,180,168)">
    </path>
    <path d="M-261.16176218062924,240.65849530704378L-251.69034681882144,246.20194252191556L-245.39356636724446,240.51088817736786z" style="fill:rgb(74,87,214)">
    </path>
    <path d="M-251.6903468188212,246.20194252191544L-233.47259293143486,243.87597688554635L-245.3935663672443,240.5108881773678z" style="fill:rgb(43,180,168)">
    </path>
    <path d="M-251.69034681882144,246.20194252191556L-233.47259293143503,243.8759768855464L-245.39356636724446,240.51088817736786z" style="fill:rgb(74,87,214)">
    </path>
    <path d="M-320.00365458698536,-205.77686828475555L-320.00365458698536,-205.77686828475555L-36.317066790282944,33.11117931978967z" style="fill:rgb(0,0,0); fill-opacity: 0.2">
    </path>
    <path d="M-251.1589472196282,126.05028211769239L-320.00365458698536,-205.77686828475555" style="fill:none;stroke:rgb(0,0,0);stroke-width:1;stroke-linecap:round">
    </path>
    <path d="M-251.1589472196282,126.05028211769239L-320.00365458698536,-205.77686828475555" style="fill:none;stroke:rgb(0,0,0);stroke-width:1;stroke-linecap:round">
    </path>
    <path d="M-320.00365458698536,-205.77686828475555L-320.00365458698536,-205.77686828475555" style="fill:none;stroke:rgb(0,0,0);stroke-width:1;stroke-linecap:round">
    </path>
</svg>