<svg viewBox="-812 -675 1624 1350" width="1624" height="1350" style="background-color: rgb(255, 255, 255);">
    <path d="M58.14473521957955,332.50562585415435L69.78305394172797,-454.34873168920853" style="fill:none;stroke:rgb(0,0,0);stroke-width:1;stroke-linecap:round">
    </path>
    <path d="M185.5976932068577,373.69809295425983L58.14473521957955,332.50562585415435" style="fill:none;stroke:rgb(160,0,0);stroke-width:4;stroke-linecap:round">
    </path>
    <path d="M185.5976932068577,373.69809295425983L206.3798944469539,-431.97587954098196" style="fill:none;stroke:rgb(0,0,0);stroke-width:1;stroke-linecap:round">
    </path>
    <path d="M91.45066087159813,449.0730559862868L185.5976932068577,373.69809295425983" style="fill:none;stroke:rgb(160,0,0);stroke-width:4;stroke-linecap:round">
    </path>
    <path d="M251.81854305062353,395.10050072578156L91.45066087159817,449.0730559862868" style="fill:none;stroke:rgb(160,0,0);stroke-width:4;stroke-linecap:round">
    </path>
    <path d="M251.8185430506235,395.10050072578156L277.5392934117953,-420.32086097606765" style="fill:none;stroke:rgb(0,0,0);stroke-width:1;stroke-linecap:round">
    </path>
    <path d="M319.79024006961197,417.0687777858754L251.8185430506235,395.10050072578156" style="fill:none;stroke:rgb(160,0,0);stroke-width:4;stroke-linecap:round">
    </path>
    <path d="M206.3798944469539,-431.97587954098196L185.5976932068577,373.69809295425983L58.14473521957955,332.50562585415435z" style="fill:rgb(0,0,0); fill-opacity: 0.2">
    </path>
    <path d="M350.7140486176874,-408.3357522931077L319.79024006961197,417.0687777858754" style="fill:none;stroke:rgb(104,70,1);stroke-width:5;stroke-linecap:round">
    </path>
    <path d="M319.79024006961197,417.0687777858754L377.82142724773576,435.8243077191512" style="fill:none;stroke:rgb(197,147,42);stroke-width:5;stroke-linecap:round">
    </path>
    <path d="M69.78305394172797,-454.34873168920853L58.14473521957955,332.50562585415435L206.3798944469539,-431.97587954098196z" style="fill:rgb(0,0,0); fill-opacity: 0.2">
    </path>
    <path d="M321.1693033373766,380.2594350198045L379.4021921925535,398.6638315168555" style="fill:none;stroke:rgb(197,147,42);stroke-width:5;stroke-linecap:round">
    </path>
    <path d="M322.55715073264076,343.2156302333239L380.9931389122444,361.26400309201114" style="fill:none;stroke:rgb(197,147,42);stroke-width:5;stroke-linecap:round">
    </path>
    <path d="M323.9538664510607,305.93511611346725L382.5943660965144,323.6225024561339" style="fill:none;stroke:rgb(197,147,42);stroke-width:5;stroke-linecap:round">
    </path>
    <path d="M382.6499226187195,430.70334285150966L378.1663545171822,427.7157893528926L392.53179434249995,440.5786604007267z" style="fill:rgb(197,147,42)">
    </path>
    <path d="M325.359535767759,268.4156165346221L384.20597371464027,285.7369795407017" style="fill:none;stroke:rgb(197,147,42);stroke-width:5;stroke-linecap:round">
    </path>
    <path d="M373.19072011665577,435.9448267596383L374.6186656764806,444.0050343497217L392.53179434249995,440.5786604007267z" style="fill:rgb(197,147,42)">
    </path>
    <path d="M378.1663545171822,427.7157893528926L373.19072011665577,435.9448267596383L392.53179434249995,440.5786604007267z" style="fill:rgb(197,147,42)">
    </path>
    <path d="M206.3798944469539,-431.97587954098196L69.78305394172797,-454.34873168920853" style="fill:none;stroke:rgb(0,0,0);stroke-width:1;stroke-linecap:round">
    </path>
    <path d="M69.78305394172797,-454.34873168920853L-271.28620778716487,-376.94718859874115" style="fill:none;stroke:rgb(0,0,0);stroke-width:1;stroke-linecap:round">
    </path>
    <path d="M206.3798944469539,-431.97587954098196L69.78305394172797,-454.34873168920853" style="fill:none;stroke:rgb(0,0,0);stroke-width:1;stroke-linecap:round">
    </path>
    <path d="M384.2439502742451,393.5785419767615L379.7493383564917,390.5031515839959L394.1643431656507,403.3293819471953z" style="fill:rgb(197,147,42)">
    </path>
    <path d="M326.77424505468065,230.65482609528954L385.8280630362757,247.60505370806285" style="fill:none;stroke:rgb(197,147,42);stroke-width:5;stroke-linecap:round">
    </path>
    <path d="M374.7595027014367,398.7163201146097L376.18983038836745,406.8547123241154L394.1643431656507,403.3293819471953z" style="fill:rgb(197,147,42)">
    </path>
    <path d="M379.7493383564917,390.5031515839959L374.7595027014367,398.7163201146097L394.1643431656507,403.3293819471953z" style="fill:rgb(197,147,42)">
    </path>
    <path d="M385.8482306914955,356.21495494537254L381.34252545075043,353.05065664090284L395.8074368603042,365.8395049588485z" style="fill:rgb(197,147,42)">
    </path>
    <path d="M328.1980817982838,192.65040964587718L387.46073665266306,209.22431325276847" style="fill:none;stroke:rgb(197,147,42);stroke-width:5;stroke-linecap:round">
    </path>
    <path d="M376.3384085463066,361.24758014525264L377.77111944341476,369.4649993512348L395.8074368603042,365.8395049588485z" style="fill:rgb(197,147,42)">
    </path>
    <path d="M350.7140486176874,-408.3357522931077L319.79024006961197,417.0687777858754L251.8185430506235,395.10050072578156z" style="fill:rgb(0,0,0); fill-opacity: 0.2">
    </path>
    <path d="M381.34252545075043,353.05065664090284L376.3384085463066,361.24758014525264L395.8074368603042,365.8395049588485z" style="fill:rgb(197,147,42)">
    </path>
    <path d="M91.45066087159817,449.0730559862868L102.49795351770884,-170.8455025980962" style="fill:none;stroke:rgb(0,0,0);stroke-width:1;stroke-linecap:round">
    </path>
    <path d="M277.53929341179537,-420.32086097606765L251.81854305062353,395.10050072578156L91.45066087159817,449.0730559862868z" style="fill:rgb(0,0,0); fill-opacity: 0.2">
    </path>
    <path d="M387.4628631080296,318.6102705210128L382.9460147678132,315.3559779964355L397.46117792378305,328.10669079120055z" style="fill:rgb(197,147,42)">
    </path>
    <path d="M329.6311346175748,154.40000180732156L389.1040984982636,170.59231489311313" style="fill:none;stroke:rgb(197,147,42);stroke-width:5;stroke-linecap:round">
    </path>
    <path d="M377.9275359556283,323.53627400783L379.3626310174968,331.8335740542505L397.46117792378305,328.10669079120055z" style="fill:rgb(197,147,42)">
    </path>
    <path d="M382.9460147678132,315.3559779964355L377.9275359556283,323.53627400783L397.46117792378305,328.10669079120055z" style="fill:rgb(197,147,42)">
    </path>
    <path d="M102.49795351770878,-170.8455025980962L91.45066087159813,449.0730559862868L185.5976932068577,373.69809295425983z" style="fill:rgb(0,0,0); fill-opacity: 0.2">
    </path>
    <path d="M389.0879480462601,280.7621475432066L384.5599065596225,277.4167589371964L399.12567018610787,290.1285703920646z" style="fill:rgb(197,147,42)">
    </path>
    <path d="M331.0734932824944,115.90120648033488L390.7582538728127,131.70658325265612" style="fill:none;stroke:rgb(197,147,42);stroke-width:5;stroke-linecap:round">
    </path>
    <path d="M379.5269845107091,285.5800385556593L380.9644645599548,293.95808494511243L399.12567018610787,290.1285703920646z" style="fill:rgb(197,147,42)">
    </path>
    <path d="M384.5599065596225,277.4167589371964L379.5269845107091,285.5800385556593L399.12567018610787,290.1285703920646z" style="fill:rgb(197,147,42)">
    </path>
    <path d="M390.7235873343142,242.6682144414656L386.18430238310236,239.2306120724002L400.80101883172904,251.90274380572976z" style="fill:rgb(197,147,42)">
    </path>
    <path d="M332.5252487326628,77.15159634505825L392.4233094638106,92.56461033149273" style="fill:none;stroke:rgb(197,147,42);stroke-width:5;stroke-linecap:round">
    </path>
    <path d="M381.13685509060235,247.3764798454772L382.5767208143117,255.83614993473498L400.80101883172904,251.90274380572976z" style="fill:rgb(197,147,42)">
    </path>
    <path d="M386.18430238310236,239.2306120724002L381.13685509060235,247.3764798454772L400.80101883172904,251.90274380572976z" style="fill:rgb(197,147,42)">
    </path>
    <path d="M206.3798944469539,-431.97587954098196L185.5976932068577,373.69809295425983L102.49795351770878,-170.8455025980962z" style="fill:rgb(0,0,0); fill-opacity: 0.2">
    </path>
    <path d="M235.6097790907117,-213.14683661013436L206.3798944469539,-431.97587954098196" style="fill:none;stroke:rgb(0,0,0);stroke-width:1;stroke-linecap:round">
    </path>
    <path d="M235.6097790907117,-213.14683661013436L206.3798944469539,-431.97587954098196" style="fill:none;stroke:rgb(0,0,0);stroke-width:1;stroke-linecap:round">
    </path>
    <path d="M102.49795351770884,-170.8455025980962L235.60977909071173,-213.14683661013427" style="fill:none;stroke:rgb(0,0,0);stroke-width:1;stroke-linecap:round">
    </path>
    <path d="M277.53929341179537,-420.32086097606765L235.60977909071173,-213.14683661013427" style="fill:none;stroke:rgb(0,0,0);stroke-width:1;stroke-linecap:round">
    </path>
    <path d="M235.60977909071173,-213.14683661013427L-94.04774994132559,-108.3856466471921" style="fill:none;stroke:rgb(0,0,0);stroke-width:1;stroke-linecap:round">
    </path>
    <path d="M277.53929341179537,-420.32086097606765L235.60977909071173,-213.14683661013427" style="fill:none;stroke:rgb(0,0,0);stroke-width:1;stroke-linecap:round">
    </path>
    <path d="M392.369884127303,204.32606873992486L387.81930512146175,200.7951188330838L402.487330421683,213.42677966740376z" style="fill:rgb(197,147,42)">
    </path>
    <path d="M333.9864930964932,38.14871235090494L394.0993733694616,53.16385496703932" style="fill:none;stroke:rgb(197,147,42);stroke-width:5;stroke-linecap:round">
    </path>
    <path d="M382.75724989331616,208.92317263412275L384.1995018393926,217.46535583359L402.487330421683,213.42677966740376z" style="fill:rgb(197,147,42)">
    </path>
    <path d="M387.81930512146175,200.7951188330838L382.75724989331616,208.92317263412275L402.487330421683,213.42677966740376z" style="fill:rgb(197,147,42)">
    </path>
    <path d="M394.02694292900924,165.7332765522639L389.46501900591596,162.10782896147415L404.1847129161871,174.69821468769877z" style="fill:rgb(197,147,42)">
    </path>
    <path d="M46.74646271699894,471.8550464472204L-129.14596589552997,531.3321833718398" style="fill:none;stroke:rgb(160,0,0);stroke-width:4;stroke-linecap:round">
    </path>
    <path d="M55.52386564440088,-155.9177035653208L46.746462716999,471.8550464472204" style="fill:none;stroke:rgb(0,0,0);stroke-width:1;stroke-linecap:round">
    </path>
    <path d="M-60.67382203400219,557.1924929400866L46.746462716999,471.8550464472204" style="fill:none;stroke:rgb(160,0,0);stroke-width:4;stroke-linecap:round">
    </path>
    <path d="M335.4573197106806,-1.1099368036329165L395.7865551220666,13.501742284087463" style="fill:none;stroke:rgb(197,147,42);stroke-width:5;stroke-linecap:round">
    </path>
    <path d="M384.38827245744125,170.2176598653167L385.83291103086157,178.84325784248736L404.1847129161871,174.69821468769877z" style="fill:rgb(197,147,42)">
    </path>
    <path d="M389.46501900591596,162.10782896147415L384.38827245744125,170.2176598653167L404.1847129161871,174.69821468769877z" style="fill:rgb(197,147,42)">
    </path>
    <path d="M206.3798944469539,-431.97587954098196L206.3798944469539,-431.97587954098196L235.6097790907117,-213.14683661013436z" style="fill:rgb(0,0,0); fill-opacity: 0.2">
    </path>
    <path d="M277.5392934117953,-420.32086097606765L251.8185430506235,395.10050072578156L350.7140486176874,-408.3357522931077z" style="fill:rgb(0,0,0); fill-opacity: 0.2">
    </path>
    <path d="M395.6948696139986,126.88737206668958L391.1215496378365,123.16625999028763L405.89327569767926,135.7145531269313z" style="fill:rgb(197,147,42)">
    </path>
    <path d="M336.9378231400754,-40.62687520144488L397.48496571188485,-26.424336866121802" style="fill:none;stroke:rgb(197,147,42);stroke-width:5;stroke-linecap:round">
    </path>
    <path d="M386.0300276842033,131.2574521463097L387.477053143182,139.96737903331748L405.89327569767926,135.7145531269313z" style="fill:rgb(197,147,42)">
    </path>
    <path d="M391.1215496378365,123.16625999028763L386.0300276842033,131.2574521463097L405.89327569767926,135.7145531269313z" style="fill:rgb(197,147,42)">
    </path>
    <path d="M102.49795351770878,-170.8455025980962L206.3798944469539,-431.97587954098196" style="fill:none;stroke:rgb(0,0,0);stroke-width:1;stroke-linecap:round">
    </path>
    <path d="M206.3798944469539,-431.97587954098196L206.3798944469539,-431.97587954098196" style="fill:none;stroke:rgb(0,0,0);stroke-width:1;stroke-linecap:round">
    </path>
    <path d="M102.49795351770878,-170.8455025980962L206.3798944469539,-431.97587954098196" style="fill:none;stroke:rgb(0,0,0);stroke-width:1;stroke-linecap:round">
    </path>
    <path d="M206.3798944469539,-431.97587954098196L-130.26231844679475,-349.7801320936835" style="fill:none;stroke:rgb(0,0,0);stroke-width:1;stroke-linecap:round">
    </path>
    <path d="M397.3737714501717,87.78585702075344L392.7890040113397,83.96789671172766L407.6131295943146,96.47326625899817z" style="fill:rgb(197,147,42)">
    </path>
    <path d="M338.4280991979514,-80.40466024776721L399.19471761147366,-66.61702647806072" style="fill:none;stroke:rgb(197,147,42);stroke-width:5;stroke-linecap:round">
    </path>
    <path d="M387.6826218599548,92.04002721416511L389.1320343120106,100.8352098195241L407.6131295943146,96.47326625899817z" style="fill:rgb(197,147,42)">
    </path>
    <path d="M-271.28620778716487,-376.94718859874115L-260.4257574103468,481.75091050423856" style="fill:none;stroke:rgb(0,0,0);stroke-width:1;stroke-linecap:round">
    </path>
    <path d="M-129.14596589552997,531.3321833718398L-260.4257574103468,481.75091050423856" style="fill:none;stroke:rgb(160,0,0);stroke-width:4;stroke-linecap:round">
    </path>
    <path d="M392.7890040113397,83.96789671172766L387.6826218599548,92.04002721416511L407.6131295943146,96.47326625899817z" style="fill:rgb(197,147,42)">
    </path>
    <path d="M339.9282449666743,-120.44588322189612L400.91592480051554,-107.07900597557835" style="fill:none;stroke:rgb(197,147,42);stroke-width:5;stroke-linecap:round">
    </path>
    <path d="M389.34616267911156,52.562829391435415L390.79796207703794,61.44420741606972L409.344386903931,56.971791824589815z" style="fill:rgb(197,147,42)">
    </path>
    <path d="M394.4674905363232,44.51019063594364L389.34616267911156,52.562829391435415L409.344386903931,56.971791824589815z" style="fill:rgb(197,147,42)">
    </path>
    <path d="M235.6097790907117,-213.14683661013436L102.49795351770878,-170.8455025980962L206.3798944469539,-431.97587954098196z" style="fill:rgb(0,0,0); fill-opacity: 0.2">
    </path>
    <path d="M341.43835881878533,-160.7531698398987L402.6487027911486,-147.8129908073345" style="fill:none;stroke:rgb(197,147,42);stroke-width:5;stroke-linecap:round">
    </path>
    <path d="M391.0207592675472,12.82326903098645L392.4749454052809,21.79179528864947L411.0871614184907,17.207533473489946z" style="fill:rgb(197,147,42)">
    </path>
    <path d="M396.15711906196105,4.790559438704652L391.0207592675472,12.82326903098645L411.0871614184907,17.207533473489946z" style="fill:rgb(197,147,42)">
    </path>
    <path d="M102.49795351770884,-170.8455025980962L91.45066087159817,449.0730559862868L277.53929341179537,-420.32086097606765z" style="fill:rgb(0,0,0); fill-opacity: 0.2">
    </path>
    <path d="M342.958540438504,-201.3291808285787L404.3931686538073,-188.82173305428302" style="fill:none;stroke:rgb(197,147,42);stroke-width:5;stroke-linecap:round">
    </path>
    <path d="M392.7065222064569,-27.181278050284487L394.163094714843,-18.12463740809671L412.8415684490128,-22.822139804291616z" style="fill:rgb(197,147,42)">
    </path>
    <path d="M397.85800090066886,-35.19361360196192L392.7065222064569,-27.181278050284487L412.8415684490128,-22.822139804291616z" style="fill:rgb(197,147,42)">
    </path>
    <path d="M235.60977909071173,-213.14683661013427L102.49795351770884,-170.8455025980962L277.53929341179537,-420.32086097606765z" style="fill:rgb(0,0,0); fill-opacity: 0.2">
    </path>
    <path d="M350.7140486176874,-408.3357522931077L277.5392934117953,-420.32086097606765" style="fill:none;stroke:rgb(0,0,0);stroke-width:1;stroke-linecap:round">
    </path>
    <path d="M277.5392934117953,-420.32086097606765L277.5392934117953,-420.32086097606765" style="fill:none;stroke:rgb(0,0,0);stroke-width:1;stroke-linecap:round">
    </path>
    <path d="M350.7140486176874,-408.3357522931077L277.5392934117953,-420.32086097606765" style="fill:none;stroke:rgb(0,0,0);stroke-width:1;stroke-linecap:round">
    </path>
    <path d="M350.7140486176874,-408.3357522931077L277.5392934117953,-420.32086097606765" style="fill:none;stroke:rgb(0,0,0);stroke-width:1;stroke-linecap:round">
    </path>
    <path d="M277.5392934117953,-420.32086097606765L-56.470775726585316,-335.5648170853387" style="fill:none;stroke:rgb(0,0,0);stroke-width:1;stroke-linecap:round">
    </path>
    <path d="M350.7140486176874,-408.3357522931077L277.5392934117953,-420.32086097606765" style="fill:none;stroke:rgb(0,0,0);stroke-width:1;stroke-linecap:round">
    </path>
    <path d="M277.53929341179537,-420.32086097606765L102.49795351770884,-170.8455025980962" style="fill:none;stroke:rgb(0,0,0);stroke-width:1;stroke-linecap:round">
    </path>
    <path d="M277.53929341179537,-420.32086097606765L102.49795351770884,-170.8455025980962" style="fill:none;stroke:rgb(0,0,0);stroke-width:1;stroke-linecap:round">
    </path>
    <path d="M344.4888908436631,-242.17661251096018L406.14944104358915,-230.1080220494891" style="fill:none;stroke:rgb(197,147,42);stroke-width:5;stroke-linecap:round">
    </path>
    <path d="M394.40356355669843,-67.45347114909612L395.8625218991492,-58.307736403631935L414.60772485100665,-63.11989425881534z" style="fill:rgb(197,147,42)">
    </path>
    <path d="M399.57024885254833,-75.44498018042674L394.40356355669843,-67.45347114909612L414.60772485100665,-63.11989425881534z" style="fill:rgb(197,147,42)">
    </path>
    <path d="M346.02951240808613,-283.2981974035601L407.9176402271583,-271.674685010575" style="fill:none;stroke:rgb(197,147,42);stroke-width:5;stroke-linecap:round">
    </path>
    <path d="M396.1119968836235,-107.99600526506445L397.5733403516687,-98.7601828960923L416.38574905041656,-103.68843197220723z" style="fill:rgb(197,147,42)">
    </path>
    <path d="M401.293977230325,-115.96622754967282L396.1119968836235,-107.99600526506445L416.38574905041656,-103.68843197220723z" style="fill:rgb(197,147,42)">
    </path>
    <path d="M277.5392934117953,-420.32086097606765L277.5392934117953,-420.32086097606765L350.7140486176874,-408.3357522931077z" style="fill:rgb(0,0,0); fill-opacity: 0.2">
    </path>
    <path d="M277.53929341179537,-420.32086097606765L277.53929341179537,-420.32086097606765L102.49795351770884,-170.8455025980962z" style="fill:rgb(0,0,0); fill-opacity: 0.2">
    </path>
    <path d="M347.580508884416,-324.69670482572735L409.69788811019885,-313.52458768509246" style="fill:none;stroke:rgb(197,147,42);stroke-width:5;stroke-linecap:round">
    </path>
    <path d="M397.83193728241224,-148.81161170189029L399.2956649911365,-139.48469414865335L418.1757610700942,-144.53049146262669z" style="fill:rgb(197,147,42)">
    </path>
    <path d="M403.02930188478825,-156.76007911934164L397.83193728241224,-148.81161170189029L418.1757610700942,-144.53049146262669z" style="fill:rgb(197,147,42)">
    </path>
    <path d="M350.7140486176874,-408.3357522931077L350.7140486176874,-408.3357522931077L277.5392934117953,-420.32086097606765z" style="fill:rgb(0,0,0); fill-opacity: 0.2">
    </path>
    <path d="M349.14198542740627,-366.3749415213331L411.49030826543134,-355.66063500913515" style="fill:none;stroke:rgb(197,147,42);stroke-width:5;stroke-linecap:round">
    </path>
    <path d="M399.56350140392055,-189.90305868073582L401.0296122872857,-180.48402409796748L419.9778825568041,-185.64884830049317z" style="fill:rgb(197,147,42)">
    </path>
    <path d="M404.77634023074575,-197.8292950658897L399.56350140392055,-189.90305868073582L419.9778825568041,-185.64884830049317z" style="fill:rgb(197,147,42)">
    </path>
    <path d="M-130.26231844679475,-349.7801320936835L206.3798944469539,-431.97587954098196L69.78305394172797,-454.34873168920853z" style="fill:rgb(0,0,0); fill-opacity: 0.2">
    </path>
    <path d="M350.7140486176874,-408.3357522931077L350.7140486176874,-408.3357522931077" style="fill:none;stroke:rgb(45,114,23);stroke-width:5;stroke-linecap:round">
    </path>
    <path d="M350.7140486176874,-408.3357522931077L413.2950259612063,-398.0857717795066" style="fill:none;stroke:rgb(109,213,75);stroke-width:5;stroke-linecap:round">
    </path>
    <path d="M19.64489043220741,-320.9017794033672L350.7140486176874,-408.3357522931077" style="fill:none;stroke:rgb(1,93,85);stroke-width:5;stroke-linecap:round">
    </path>
    <path d="M350.7140486176874,-408.3357522931077L413.2950259612063,-398.0857717795066" style="fill:none;stroke:rgb(43,180,168);stroke-width:5;stroke-linecap:round">
    </path>
    <path d="M350.71404861768735,-408.33575229310725L413.2950259612062,-398.08577177950616" style="fill:none;stroke:rgb(197,147,42);stroke-width:5;stroke-linecap:round">
    </path>
    <path d="M401.30680748105203,-231.27315196608L402.775300287102,-221.76096397496335L421.79223680878323,-227.04631573726118z" style="fill:rgb(197,147,42)">
    </path>
    <path d="M406.53521127350797,-239.17667295514326L401.30680748105203,-231.27315196608L421.79223680878323,-227.04631573726118z" style="fill:rgb(197,147,42)">
    </path>
    <path d="M-94.04774994132563,-108.38564664719208L235.6097790907117,-213.14683661013436L206.3798944469539,-431.97587954098196z" style="fill:rgb(0,0,0); fill-opacity: 0.2">
    </path>
    <path d="M46.746462716999,471.8550464472204L55.52386564440088,-155.9177035653208L-60.67382203400219,557.1924929400866z" style="fill:rgb(0,0,0); fill-opacity: 0.2">
    </path>
    <path d="M-130.26231844679475,-349.7801320936835L-129.14596589552997,531.3321833718398" style="fill:none;stroke:rgb(0,0,0);stroke-width:1;stroke-linecap:round">
    </path>
    <path d="M403.0619753556708,-272.924735504349L404.53284864161424,-263.3183429382961L423.6189488038606,-268.72574534704324z" style="fill:rgb(197,147,42)">
    </path>
    <path d="M408.30603563590887,-280.80504837754467L403.0619753556708,-272.924735504349L423.6189488038606,-268.72574534704324z" style="fill:rgb(197,147,42)">
    </path>
    <path d="M404.829126506063,-314.86069207562616L406.30237863323146,-305.1590287207543L425.45814522815556,-310.69002768138813z" style="fill:rgb(197,147,42)">
    </path>
    <path d="M410.0889355858833,-322.71729559639647L404.829126506063,-314.86069207562616L425.45814522815556,-310.69002768138813z" style="fill:rgb(197,147,42)">
    </path>
    <path d="M-260.4257574103468,481.75091050423856L-271.28620778716487,-376.94718859874115L-129.14596589552997,531.3321833718398z" style="fill:rgb(0,0,0); fill-opacity: 0.2">
    </path>
    <path d="M325.69521217047674,-401.72838276449477L388.51126273995044,-391.31096758281734" style="fill:none;stroke:rgb(43,180,168);stroke-width:5;stroke-linecap:round">
    </path>
    <path d="M408.0840132036425,-347.285928288932L414.25382362089,-349.07765338704223L427.3099545053648,-352.94209293752994z" style="fill:rgb(197,147,42)">
    </path>
    <path d="M406.60838407496476,-357.08394395875865L408.0840132036425,-347.285928288932L427.3099545053648,-352.94209293752994z" style="fill:rgb(197,147,42)">
    </path>
    <path d="M411.8840350646072,-364.9163282094092L406.60838407496476,-357.08394395875865L427.3099545053648,-352.94209293752994z" style="fill:rgb(197,147,42)">
    </path>
    <path d="M409.87787698228937,-389.7019885164839L416.0649831309634,-391.40919632887096L429.1745068266558,-395.48491164043355z" style="fill:rgb(197,147,42)">
    </path>
    <path d="M409.87787698228937,-389.7019885164842L416.0649831309634,-391.40919632887136L429.1745068266558,-395.48491164043395z" style="fill:rgb(109,213,75)">
    </path>
    <path d="M409.87787698228937,-389.7019885164842L416.0649831309634,-391.40919632887136L429.1745068266558,-395.48491164043395z" style="fill:rgb(43,180,168)">
    </path>
    <path d="M408.39987289816656,-399.5974536101772L409.87787698228937,-389.7019885164839L429.1745068266558,-395.48491164043355z" style="fill:rgb(197,147,42)">
    </path>
    <path d="M408.39987289816656,-399.5974536101776L409.87787698228937,-389.7019885164842L429.1745068266558,-395.48491164043395z" style="fill:rgb(109,213,75)">
    </path>
    <path d="M408.39987289816656,-399.5974536101776L409.87787698228937,-389.7019885164842L429.1745068266558,-395.48491164043395z" style="fill:rgb(43,180,168)">
    </path>
    <path d="M413.6914597152195,-407.40509982387886L408.39987289816656,-399.5974536101772L429.1745068266558,-395.48491164043355z" style="fill:rgb(197,147,42)">
    </path>
    <path d="M413.6914597152195,-407.40509982387897L408.39987289816656,-399.5974536101776L429.1745068266558,-395.48491164043395z" style="fill:rgb(109,213,75)">
    </path>
    <path d="M413.6914597152195,-407.40509982387897L408.39987289816656,-399.5974536101776L429.1745068266558,-395.48491164043395z" style="fill:rgb(43,180,168)">
    </path>
    <path d="M-56.47077572658522,-335.5648170853387L277.53929341179537,-420.32086097606765L235.60977909071173,-213.14683661013427z" style="fill:rgb(0,0,0); fill-opacity: 0.2">
    </path>
    <path d="M-129.14596589552997,531.3321833718398L-130.26231844679475,-349.7801320936835L46.74646271699894,471.8550464472204z" style="fill:rgb(0,0,0); fill-opacity: 0.2">
    </path>
    <path d="M-56.470775726585316,-335.5648170853387L-60.67382203400227,557.1924929400866" style="fill:none;stroke:rgb(0,0,0);stroke-width:1;stroke-linecap:round">
    </path>
    <path d="M9.796700501261673,583.8075428775252L-60.67382203400227,557.1924929400866" style="fill:none;stroke:rgb(160,0,0);stroke-width:4;stroke-linecap:round">
    </path>
    <path d="M300.2489724553635,-395.0081378295964L363.29896870827133,-384.4190216789972" style="fill:none;stroke:rgb(43,180,168);stroke-width:5;stroke-linecap:round">
    </path>
    <path d="M55.52386564440083,-155.9177035653209L-130.26231844679475,-349.7801320936835" style="fill:none;stroke:rgb(0,0,0);stroke-width:1;stroke-linecap:round">
    </path>
    <path d="M55.52386564440083,-155.9177035653209L-130.26231844679475,-349.7801320936835" style="fill:none;stroke:rgb(0,0,0);stroke-width:1;stroke-linecap:round">
    </path>
    <path d="M-94.04774994132559,-108.3856466471921L55.52386564440088,-155.9177035653208" style="fill:none;stroke:rgb(0,0,0);stroke-width:1;stroke-linecap:round">
    </path>
    <path d="M-56.47077572658522,-335.5648170853387L55.52386564440088,-155.9177035653208" style="fill:none;stroke:rgb(0,0,0);stroke-width:1;stroke-linecap:round">
    </path>
    <path d="M-56.47077572658522,-335.5648170853387L55.52386564440088,-155.9177035653208" style="fill:none;stroke:rgb(0,0,0);stroke-width:1;stroke-linecap:round">
    </path>
    <path d="M46.74646271699894,471.8550464472204L55.52386564440083,-155.9177035653209L-130.26231844679475,-349.7801320936835z" style="fill:rgb(0,0,0); fill-opacity: 0.2">
    </path>
    <path d="M385.0532239851664,-382.8521235686248L391.34678233602904,-384.5887047304995L404.4524131132171,-388.66728686098963z" style="fill:rgb(43,180,168)">
    </path>
    <path d="M383.5248823286918,-392.8221867995726L385.0532239851664,-382.8521235686248L404.4524131132171,-388.66728686098963z" style="fill:rgb(43,180,168)">
    </path>
    <path d="M388.892325508417,-400.7051034960487L383.5248823286918,-392.8221867995726L404.4524131132171,-388.66728686098963z" style="fill:rgb(43,180,168)">
    </path>
    <path d="M-271.28620778716487,-376.94718859874115L69.78305394172797,-454.34873168920853L-130.26231844679475,-349.7801320936835z" style="fill:rgb(0,0,0); fill-opacity: 0.2">
    </path>
    <path d="M274.3642829558833,-388.1721001498529L337.6469324858922,-377.4068693637285" style="fill:none;stroke:rgb(43,180,168);stroke-width:5;stroke-linecap:round">
    </path>
    <path d="M359.79913075169753,-375.8837632032265L366.20191247194043,-377.6504823625787L379.3015527270842,-381.7314208708192z" style="fill:rgb(43,180,168)">
    </path>
    <path d="M9.796700501261673,583.8075428775252L19.64489043220741,-320.9017794033672" style="fill:none;stroke:rgb(84,0,79);stroke-width:5;stroke-linecap:round">
    </path>
    <path d="M9.796700501261673,583.8075428775248L70.11256819162027,606.5874198082731" style="fill:none;stroke:rgb(167,41,160);stroke-width:5;stroke-linecap:round">
    </path>
    <path d="M358.21892256123203,-385.9295357714604L359.79913075169753,-375.8837632032265L379.3015527270842,-381.7314208708192z" style="fill:rgb(43,180,168)">
    </path>
    <path d="M363.6640671292815,-393.8891704441844L358.21892256123203,-385.9295357714604L379.3015527270842,-381.7314208708192z" style="fill:rgb(43,180,168)">
    </path>
    <path d="M19.64489043220741,-320.9017794033672L350.7140486176874,-408.3357522931077L277.5392934117953,-420.32086097606765z" style="fill:rgb(0,0,0); fill-opacity: 0.2">
    </path>
    <path d="M10.232782503373558,543.7466326639815L70.76809036917186,566.1124430332335" style="fill:none;stroke:rgb(167,41,160);stroke-width:5;stroke-linecap:round">
    </path>
    <path d="M248.02971317492256,-381.2172509790294L311.54354816360757,-370.2713380856241" style="fill:none;stroke:rgb(43,180,168);stroke-width:5;stroke-linecap:round">
    </path>
    <path d="M10.671932682066107,503.40386274074575L71.42828183642769,525.3491626754819" style="fill:none;stroke:rgb(167,41,160);stroke-width:5;stroke-linecap:round">
    </path>
    <path d="M-130.26231844679475,-349.7801320936835L206.3798944469539,-431.97587954098196L-94.04774994132563,-108.38564664719208z" style="fill:rgb(0,0,0); fill-opacity: 0.2">
    </path>
    <path d="M334.10435676463896,-368.7938058250702L340.6192300483005,-370.5914544025013L353.71067364653896,-374.6742106939785z" style="fill:rgb(43,180,168)">
    </path>
    <path d="M332.47069565353485,-378.91642327550136L334.10435676463896,-368.7938058250702L353.71067364653896,-374.6742106939785z" style="fill:rgb(43,180,168)">
    </path>
    <path d="M337.99544902197096,-386.9542651517131L332.47069565353485,-378.91642327550136L353.71067364653896,-374.6742106939785z" style="fill:rgb(43,180,168)">
    </path>
    <path d="M-94.04774994132559,-108.3856466471921L235.60977909071173,-213.14683661013427L-56.47077572658522,-335.5648170853387z" style="fill:rgb(0,0,0); fill-opacity: 0.2">
    </path>
    <path d="M11.11418353217095,462.7762479524436L72.09319266078477,484.29448734192766" style="fill:none;stroke:rgb(167,41,160);stroke-width:5;stroke-linecap:round">
    </path>
    <path d="M-129.14596589552997,531.3321833718398L-130.26231844679475,-349.7801320936835L-271.28620778716487,-376.94718859874115z" style="fill:rgb(0,0,0); fill-opacity: 0.2">
    </path>
    <path d="M-60.67382203400219,557.1924929400866L-56.47077572658522,-335.5648170853387L55.52386564440088,-155.9177035653208z" style="fill:rgb(0,0,0); fill-opacity: 0.2">
    </path>
    <path d="M221.23343180433966,-374.1404657183837L284.9767977948917,-363.009142660193" style="fill:none;stroke:rgb(43,180,168);stroke-width:5;stroke-linecap:round">
    </path>
    <path d="M75.92299570910235,600.6652663049704L70.25556719599233,597.7579986551528L85.42428339106428,612.3702925613042z" style="fill:rgb(167,41,160)">
    </path>
    <path d="M11.559568009012551,421.8607608402756L72.76287362801801,442.94528128349623" style="fill:none;stroke:rgb(167,41,160);stroke-width:5;stroke-linecap:round">
    </path>
    <path d="M64.36983943891731,607.0670409434836L66.42590280703712,615.7101901477752L85.42428339106428,612.3702925613042z" style="fill:rgb(167,41,160)">
    </path>
    <path d="M70.25556719599233,597.7579986551528L64.36983943891731,607.0670409434836L85.42428339106428,612.3702925613042z" style="fill:rgb(167,41,160)">
    </path>
    <path d="M-130.26231844679475,-349.7801320936835L-271.28620778716487,-376.94718859874115" style="fill:none;stroke:rgb(0,0,0);stroke-width:1;stroke-linecap:round">
    </path>
    <path d="M-130.26231844679475,-349.7801320936835L-271.28620778716487,-376.94718859874115" style="fill:none;stroke:rgb(0,0,0);stroke-width:1;stroke-linecap:round">
    </path>
    <path d="M-60.67382203400227,557.1924929400866L-56.470775726585316,-335.5648170853387L9.796700501261673,583.8075428775252z" style="fill:rgb(0,0,0); fill-opacity: 0.2">
    </path>
    <path d="M76.59809064991094,560.2320196457168L70.91210653844517,557.2202174058102L86.1363439588692,571.7905085723689z" style="fill:rgb(167,41,160)">
    </path>
    <path d="M307.95726576267833,-361.57904064129974L314.5872001146154,-363.40843801209917L327.66812666326973,-367.49244382216756z" style="fill:rgb(43,180,168)">
    </path>
    <path d="M12.00811953659441,380.654330889988L73.43737625521103,401.29836359672936" style="fill:none;stroke:rgb(167,41,160);stroke-width:5;stroke-linecap:round">
    </path>
    <path d="M65.00627446614426,566.5113711113368L67.06864958820213,575.2481946786725L86.1363439588692,571.7905085723689z" style="fill:rgb(167,41,160)">
    </path>
    <path d="M70.91210653844517,557.2202174058102L65.00627446614426,566.5113711113368L86.1363439588692,571.7905085723689z" style="fill:rgb(167,41,160)">
    </path>
    <path d="M306.268505278399,-371.7796635521967L307.95726576267833,-361.57904064129974L327.66812666326973,-367.49244382216756z" style="fill:rgb(43,180,168)">
    </path>
    <path d="M311.8748399436001,-379.89724519906605L306.268505278399,-371.7796635521967L327.66812666326973,-367.49244382216756z" style="fill:rgb(43,180,168)">
    </path>
    <path d="M77.27798681996529,519.5112144896859L71.57332606210687,516.3934600817931L86.85349230926151,530.9207757676828z" style="fill:rgb(167,41,160)">
    </path>
    <path d="M12.459872015960539,339.15384376374146L74.11675280396706,359.3505074080766" style="fill:none;stroke:rgb(167,41,160);stroke-width:5;stroke-linecap:round">
    </path>
    <path d="M65.64725208700774,525.6662327241559L67.71597686315441,534.497849389241L86.85349230926151,530.9207757676828z" style="fill:rgb(167,41,160)">
    </path>
    <path d="M71.57332606210687,516.3934600817931L65.64725208700774,525.6662327241559L86.85349230926151,530.9207757676828z" style="fill:rgb(167,41,160)">
    </path>
    <path d="M193.96318900151994,-366.9385092359784L257.9342329467731,-355.6168802266516" style="fill:none;stroke:rgb(43,180,168);stroke-width:5;stroke-linecap:round">
    </path>
    <path d="M55.52386564440083,-155.9177035653209L-94.04774994132563,-108.38564664719208L-130.26231844679475,-349.7801320936835z" style="fill:rgb(0,0,0); fill-opacity: 0.2">
    </path>
    <path d="M77.96273562107157,478.4997722448392L72.23927599042865,475.274625654499L87.57578316723747,489.7579754118063z" style="fill:rgb(167,41,160)">
    </path>
    <path d="M12.914859833736566,297.3561405154777L74.80105629390734,317.0984390404406" style="fill:none;stroke:rgb(167,41,160);stroke-width:5;stroke-linecap:round">
    </path>
    <path d="M66.29282111025213,484.5285155330734L68.36793377088046,493.45606089728386L87.57578316723747,489.7579754118063z" style="fill:rgb(167,41,160)">
    </path>
    <path d="M72.23927599042865,475.274625654499L66.29282111025213,484.5285155330734L87.57578316723747,489.7579754118063z" style="fill:rgb(167,41,160)">
    </path>
    <path d="M281.3458081696145,-354.2361428131085L288.0938789184744,-356.0981375525173L301.1618477009078,-360.18279333870424z" style="fill:rgb(43,180,168)">
    </path>
    <path d="M-130.26231844679475,-349.7801320936835L-130.26231844679475,-349.7801320936835L55.52386564440083,-155.9177035653209z" style="fill:rgb(0,0,0); fill-opacity: 0.2">
    </path>
    <path d="M279.6002390078237,-364.515957507575L281.3458081696145,-354.2361428131085L301.1618477009078,-360.18279333870424z" style="fill:rgb(43,180,168)">
    </path>
    <path d="M285.29019539068247,-372.71485651582066L279.6002390078237,-364.515957507575L301.1618477009078,-360.18279333870424z" style="fill:rgb(43,180,168)">
    </path>
    <path d="M78.6523891914054,437.1945702160063L72.91000726804465,433.86056856614863L88.30327204545843,448.29894388087337z" style="fill:rgb(167,41,160)">
    </path>
    <path d="M55.52386564440088,-155.9177035653208L-94.04774994132559,-108.3856466471921L-56.47077572658522,-335.5648170853387z" style="fill:rgb(0,0,0); fill-opacity: 0.2">
    </path>
    <path d="M13.37311787085501,255.25801678936594L75.49034051646437,274.5388371615222" style="fill:none;stroke:rgb(167,41,160);stroke-width:5;stroke-linecap:round">
    </path>
    <path d="M66.94303104638144,443.09506457086206L69.02457015576545,452.11969141456746L88.30327204545843,448.29894388087337z" style="fill:rgb(167,41,160)">
    </path>
    <path d="M72.91000726804465,433.86056856614863L66.94303104638144,443.09506457086206L88.30327204545843,448.29894388087337z" style="fill:rgb(167,41,160)">
    </path>
    <path d="M166.20629771708468,-359.60803093540795L230.4029552504725,-348.0910249313127" style="fill:none;stroke:rgb(43,180,168);stroke-width:5;stroke-linecap:round">
    </path>
    <path d="M79.34700041874525,395.5924408122822L73.58557157376345,392.1480979276373L89.0360152584732,406.5404718520682z" style="fill:rgb(167,41,160)">
    </path>
    <path d="M13.834681511469395,212.8562220009059L76.18466004897732,231.66833191350275" style="fill:none;stroke:rgb(167,41,160);stroke-width:5;stroke-linecap:round">
    </path>
    <path d="M67.59793212031688,401.36267934534885L69.68593658029644,410.48555794713L89.0360152584732,406.5404718520682z" style="fill:rgb(167,41,160)">
    </path>
    <path d="M73.58557157376345,392.1480979276373L67.59793212031688,401.36267934534885L89.0360152584732,406.5404718520682z" style="fill:rgb(167,41,160)">
    </path>
    <path d="M-56.470775726585316,-335.5648170853387L277.5392934117953,-420.32086097606765L19.64489043220741,-320.9017794033672z" style="fill:rgb(0,0,0); fill-opacity: 0.2">
    </path>
    <path d="M-94.04774994132563,-108.38564664719208L-130.26231844679475,-349.7801320936835" style="fill:none;stroke:rgb(0,0,0);stroke-width:1;stroke-linecap:round">
    </path>
    <path d="M-94.04774994132563,-108.38564664719208L-130.26231844679475,-349.7801320936835" style="fill:none;stroke:rgb(0,0,0);stroke-width:1;stroke-linecap:round">
    </path>
    <path d="M-56.47077572658522,-335.5648170853387L-94.04774994132559,-108.3856466471921" style="fill:none;stroke:rgb(0,0,0);stroke-width:1;stroke-linecap:round">
    </path>
    <path d="M-56.47077572658522,-335.5648170853387L-94.04774994132559,-108.3856466471921" style="fill:none;stroke:rgb(0,0,0);stroke-width:1;stroke-linecap:round">
    </path>
    <path d="M80.04662295399275,353.69017073727196L74.26602133384111,350.13397669898114L89.77406993724976,364.4793034754753z" style="fill:rgb(167,41,160)">
    </path>
    <path d="M254.25750257898954,-346.7616683467933L261.1268956335878,-348.6571395424316L274.179339180535,-352.74181277968046z" style="fill:rgb(43,180,168)">
    </path>
    <path d="M14.299586652061928,170.14745850024298L76.88407026909755,188.48350402358201" style="fill:none;stroke:rgb(167,41,160);stroke-width:5;stroke-linecap:round">
    </path>
    <path d="M68.25757528432962,359.32811301530813L70.35208433804121,368.55043147824887L89.77406993724976,364.4793034754753z" style="fill:rgb(167,41,160)">
    </path>
    <path d="M74.26602133384111,350.13397669898114L68.25757528432962,359.32811301530813L89.77406993724976,364.4793034754753z" style="fill:rgb(167,41,160)">
    </path>
    <path d="M252.45334964330596,-357.1218876280758L254.25750257898954,-346.7616683467933L274.179339180535,-352.74181277968046z" style="fill:rgb(43,180,168)">
    </path>
    <path d="M258.2290390805881,-365.403728377535L252.45334964330596,-357.1218876280758L274.179339180535,-352.74181277968046z" style="fill:rgb(43,180,168)">
    </path>
    <path d="M80.75131122498648,311.4845001617447L74.95140973554363,307.81492085192116L90.51749404402413,322.1121355278551z" style="fill:rgb(167,41,160)">
    </path>
    <path d="M14.767869710749732,127.12838071724758L77.58862736951205,144.98088389488012" style="fill:none;stroke:rgb(167,41,160);stroke-width:5;stroke-linecap:round">
    </path>
    <path d="M68.92201223125511,316.98807154838755L71.02306546690939,326.3110361336195L90.51749404402413,322.1121355278551z" style="fill:rgb(167,41,160)">
    </path>
    <path d="M74.95140973554363,307.81492085192116L68.92201223125511,316.98807154838755L90.51749404402413,322.1121355278551z" style="fill:rgb(167,41,160)">
    </path>
    <path d="M137.9496140139558,-352.145559558146L202.36959588795904,-340.4279223201011" style="fill:none;stroke:rgb(43,180,168);stroke-width:5;stroke-linecap:round">
    </path>
    <path d="M81.4611204506169,268.9721218782501L75.64179074100556,265.1875985142261L91.26634638747431,279.4356165478833z" style="fill:rgb(167,41,160)">
    </path>
    <path d="M15.239567636794662,83.79559428789086L78.29838837299329,101.15695067719558" style="fill:none;stroke:rgb(167,41,160);stroke-width:5;stroke-linecap:round">
    </path>
    <path d="M69.59129540799701,274.3392128606091L71.6989327627035,283.7640483283006L91.26634638747431,279.4356165478833z" style="fill:rgb(167,41,160)">
    </path>
    <path d="M75.64179074100556,265.1875985142261L69.59129540799701,274.3392128606091L91.26634638747431,279.4356165478833z" style="fill:rgb(167,41,160)">
    </path>
    <path d="M226.6794162343976,-339.1520487076887L233.67343309895972,-341.0819073434108L246.7076503726864,-345.16593071562363z" style="fill:rgb(43,180,168)">
    </path>
    <path d="M224.81483553182247,-349.593912619162L226.6794162343976,-339.1520487076887L246.7076503726864,-345.16593071562363z" style="fill:rgb(43,180,168)">
    </path>
    <path d="M-130.26231844679475,-349.7801320936835L-130.26231844679475,-349.7801320936835" style="fill:none;stroke:rgb(0,0,0);stroke-width:1;stroke-linecap:round">
    </path>
    <path d="M230.67844342820086,-357.96036813111556L224.81483553182247,-349.593912619162L246.7076503726864,-345.16593071562363z" style="fill:rgb(43,180,168)">
    </path>
    <path d="M82.17610665525012,226.14968043723903L76.33721910139245,222.24862909522773L92.0206866382283,236.4463459523782z" style="fill:rgb(167,41,160)">
    </path>
    <path d="M9.796700501261673,583.8075428775252L19.64489043220741,-320.9017794033672L-56.470775726585316,-335.5648170853387z" style="fill:rgb(0,0,0); fill-opacity: 0.2">
    </path>
    <path d="M15.714717920321931,40.14565516143783L79.01341114778363,57.00813131709643" style="fill:none;stroke:rgb(167,41,160);stroke-width:5;stroke-linecap:round">
    </path>
    <path d="M70.26547802932733,231.37814593697152L72.37973979296707,240.90609589495247L92.0206866382283,236.4463459523782z" style="fill:rgb(167,41,160)">
    </path>
    <path d="M76.33721910139245,222.24862909522773L70.26547802932733,231.37814593697152L92.0206866382283,236.4463459523782z" style="fill:rgb(167,41,160)">
    </path>
    <path d="M109.17951631363488,-344.54749770257513L173.8202939458833,-332.6237834214597" style="fill:none;stroke:rgb(43,180,168);stroke-width:5;stroke-linecap:round">
    </path>
    <path d="M82.89632668346854,183.01377126421144L77.03775037137537,178.99458239210637L92.78057534471372,193.1408731330261z" style="fill:rgb(167,41,160)">
    </path>
    <path d="M16.193358602252893,-3.8249313120338346L79.73375442332329,12.530799586807124" style="fill:none;stroke:rgb(167,41,160);stroke-width:5;stroke-linecap:round">
    </path>
    <path d="M70.94461409199097,188.1014299326701L73.06554091113746,197.73375719289132L92.78057534471372,193.1408731330261z" style="fill:rgb(167,41,160)">
    </path>
    <path d="M77.03775037137537,178.99458239210637L70.94461409199097,188.1014299326701L92.78057534471372,193.1408731330261z" style="fill:rgb(167,41,160)">
    </path>
    <path d="M-56.47077572658522,-335.5648170853387L-56.47077572658522,-335.5648170853387L-94.04774994132559,-108.3856466471921z" style="fill:rgb(0,0,0); fill-opacity: 0.2">
    </path>
    <path d="M83.62183821513624,139.56093975740643L77.74344092392508,135.42197767643034L93.54607394935891,149.5156965331018z" style="fill:rgb(167,41,160)">
    </path>
    <path d="M198.5981444413325,-331.40358513927845L205.72020750618492,-333.368775555033L218.73335667094977,-337.45144503576626z" style="fill:rgb(43,180,168)">
    </path>
    <path d="M16.67552828445755,-48.11971131429942L80.45947780633057,-32.27872490866494" style="fill:none;stroke:rgb(167,41,160);stroke-width:5;stroke-linecap:round">
    </path>
    <path d="M71.62875838912211,144.50557325443128L73.75639127101131,154.24356019746557L93.54607394935891,149.5156965331018z" style="fill:rgb(167,41,160)">
    </path>
    <path d="M77.74344092392508,135.42197767643034L71.62875838912211,144.50557325443128L93.54607394935891,149.5156965331018z" style="fill:rgb(167,41,160)">
    </path>
    <path d="M196.67121980261965,-341.92836174998985L198.5981444413325,-331.40358513927845L218.73335667094977,-337.45144503576626z" style="fill:rgb(43,180,168)">
    </path>
    <path d="M202.62500895358568,-350.38115563137467L196.67121980261965,-341.92836174998985L218.73335667094977,-337.45144503576626z" style="fill:rgb(43,180,168)">
    </path>
    <path d="M84.35269978079769,95.78768036552994L78.45434796543421,91.52728276043807L94.31724480515399,105.56726270366518z" style="fill:rgb(167,41,160)">
    </path>
    <path d="M17.161266140132447,-92.74228351235735L81.19064179724387,-77.42417774673164" style="fill:none;stroke:rgb(167,41,160);stroke-width:5;stroke-linecap:round">
    </path>
    <path d="M72.31796652498093,100.58703262144931L74.4523468415306,110.43198156924312L94.31724480515399,105.56726270366518z" style="fill:rgb(167,41,160)">
    </path>
    <path d="M78.45434796543421,91.52728276043807L72.31796652498093,100.58703262144931L94.31724480515399,105.56726270366518z" style="fill:rgb(167,41,160)">
    </path>
    <path d="M79.88188350084587,-336.81011604151496L144.7406735632467,-324.67467849951413" style="fill:none;stroke:rgb(43,180,168);stroke-width:5;stroke-linecap:round">
    </path>
    <path d="M85.08897077741852,51.69043564500473L79.17052955117609,47.30691304253769L95.09415119258145,61.29196533869841z" style="fill:rgb(167,41,160)">
    </path>
    <path d="M19.64489043220741,-320.9017794033672L-56.470775726585316,-335.5648170853387" style="fill:none;stroke:rgb(0,0,0);stroke-width:1;stroke-linecap:round">
    </path>
    <path d="M-56.470775726585316,-335.5648170853387L-56.470775726585316,-335.5648170853387" style="fill:none;stroke:rgb(0,0,0);stroke-width:1;stroke-linecap:round">
    </path>
    <path d="M19.64489043220741,-320.9017794033672L-56.470775726585316,-335.5648170853387" style="fill:none;stroke:rgb(0,0,0);stroke-width:1;stroke-linecap:round">
    </path>
    <path d="M19.64489043220741,-320.9017794033672L-56.470775726585316,-335.5648170853387" style="fill:none;stroke:rgb(0,0,0);stroke-width:1;stroke-linecap:round">
    </path>
    <path d="M19.64489043220741,-320.9017794033672L-56.470775726585316,-335.5648170853387" style="fill:none;stroke:rgb(0,0,0);stroke-width:1;stroke-linecap:round">
    </path>
    <path d="M17.650611924409827,-137.69630003304397L81.92730780703488,-122.90935072534529" style="fill:none;stroke:rgb(167,41,160);stroke-width:5;stroke-linecap:round">
    </path>
    <path d="M73.01229493001858,56.342212105392875L75.15346442189792,66.29544570248778L95.09415119258145,61.29196533869841z" style="fill:rgb(167,41,160)">
    </path>
    <path d="M79.17052955117609,47.30691304253769L73.01229493001858,56.342212105392875L95.09415119258145,61.29196533869841z" style="fill:rgb(167,41,160)">
    </path>
    <path d="M169.999788841717,-323.5124426684882L177.25344696724056,-325.51394410109793L190.24253771747237,-329.59451691570564z" style="fill:rgb(43,180,168)">
    </path>
    <path d="M168.00852845514447,-334.1214288851603L169.999788841717,-323.5124426684882L190.24253771747237,-329.59451691570564z" style="fill:rgb(43,180,168)">
    </path>
    <path d="M174.05484255175068,-342.6623373701593L168.00852845514447,-334.1214288851603L190.24253771747237,-329.59451691570564z" style="fill:rgb(43,180,168)">
    </path>
    <path d="M85.83071148447694,7.265595296209213L79.89204460110909,2.7572305314810226L95.87685733692598,16.686144288635788z" style="fill:rgb(167,41,160)">
    </path>
    <path d="M18.143605985204026,-182.985467459448L82.66953817440253,-168.73809292464477" style="fill:none;stroke:rgb(167,41,160);stroke-width:5;stroke-linecap:round">
    </path>
    <path d="M73.71180087627928,11.767462148935962L75.85980165702921,21.830323752382817L95.87685733692598,16.686144288635788z" style="fill:rgb(167,41,160)">
    </path>
    <path d="M79.89204460110909,2.7572305314810226L73.71180087627928,11.767462148935962L95.87685733692598,16.686144288635788z" style="fill:rgb(167,41,160)">
    </path>
    <path d="M-56.470775726585316,-335.5648170853387L-56.470775726585316,-335.5648170853387L19.64489043220741,-320.9017794033672z" style="fill:rgb(0,0,0); fill-opacity: 0.2">
    </path>
    <path d="M50.04207181259937,-328.92954721872104L115.11581979365181,-316.57653045586176" style="fill:none;stroke:rgb(43,180,168);stroke-width:5;stroke-linecap:round">
    </path>
    <path d="M86.57798308041505,-37.49050482184346L80.6189529160351,-42.12545715134373L96.66542842597329,-28.25391544828323z" style="fill:rgb(167,41,160)">
    </path>
    <path d="M18.640289274301463,-228.61354784969197L83.41739618335843,-214.91431179274807" style="fill:none;stroke:rgb(167,41,160);stroke-width:5;stroke-linecap:round">
    </path>
    <path d="M74.41654249314823,-33.14092143774973L76.57141705335273,-22.967067359551343L96.66542842597329,-28.25391544828323z" style="fill:rgb(167,41,160)">
    </path>
    <path d="M80.6189529160351,-42.12545715134373L74.41654249314823,-33.14092143774973L96.66542842597329,-28.25391544828323z" style="fill:rgb(167,41,160)">
    </path>
    <path d="M19.64489043220741,-320.9017794033672L19.64489043220741,-320.9017794033672L-56.470775726585316,-335.5648170853387z" style="fill:rgb(0,0,0); fill-opacity: 0.2">
    </path>
    <path d="M87.33084765945989,-82.58158369894899L81.35131519412192,-87.34489779207817L97.45993062810835,-73.53198475741868z" style="fill:rgb(167,41,160)">
    </path>
    <path d="M140.86993447713107,-315.4746437767431L148.25886889011807,-317.51347198688643L161.22075430548472,-321.5911644478004z" style="fill:rgb(43,180,168)">
    </path>
    <path d="M19.140703358700414,-274.5843597786731L84.1709460812135,-261.4419742563381" style="fill:none;stroke:rgb(167,41,160);stroke-width:5;stroke-linecap:round">
    </path>
    <path d="M75.12657878345449,-78.38669850311948L77.28836999496394,-68.10046596242104L97.45993062810835,-73.53198475741868z" style="fill:rgb(167,41,160)">
    </path>
    <path d="M81.35131519412192,-87.34489779207817L75.12657878345449,-78.38669850311948L97.45993062810835,-73.53198475741868z" style="fill:rgb(167,41,160)">
    </path>
    <path d="M138.81226722326454,-326.1691661831654L140.86993447713107,-315.4746437767431L161.22075430548472,-321.5911644478004z" style="fill:rgb(43,180,168)">
    </path>
    <path d="M144.95353455046373,-334.8000202780489L138.81226722326454,-326.1691661831654L161.22075430548472,-321.5911644478004z" style="fill:rgb(43,180,168)">
    </path>
    <path d="M88.08936824882319,-128.01141620386304L82.08919304779887,-132.90489562760777L98.26043111082366,-119.15189146249594z" style="fill:rgb(167,41,160)">
    </path>
    <path d="M19.64489043220741,-320.9017794033672L19.64489043220741,-320.9017794033672" style="fill:none;stroke:rgb(22,31,115);stroke-width:5;stroke-linecap:round">
    </path>
    <path d="M19.64489043220741,-320.9017794033672L84.93025309697704,-308.32510785670286" style="fill:none;stroke:rgb(74,87,214);stroke-width:5;stroke-linecap:round">
    </path>
    <path d="M19.64489043220741,-320.9017794033672L84.93025309697704,-308.32510785670286" style="fill:none;stroke:rgb(167,41,160);stroke-width:5;stroke-linecap:round">
    </path>
    <path d="M19.644890432207532,-320.9017794033672L84.93025309697714,-308.3251078567028" style="fill:none;stroke:rgb(43,180,168);stroke-width:5;stroke-linecap:round">
    </path>
    <path d="M75.84196963993813,-123.97368560359612L78.01072076014489,-113.57366667589136L98.26043111082366,-119.15189146249594z" style="fill:rgb(167,41,160)">
    </path>
    <path d="M82.08919304779887,-132.90489562760777L75.84196963993813,-123.97368560359612L98.26043111082366,-119.15189146249594z" style="fill:rgb(167,41,160)">
    </path>
    <path d="M88.85360882629054,-173.78383413775555L82.83264902103573,-178.80931241243576L99.06699805964811,-165.11752140435274z" style="fill:rgb(167,41,160)">
    </path>
    <path d="M76.56277586209127,-169.90575707673932L78.73853053825832,-159.39052147369642L99.06699805964811,-165.11752140435274z" style="fill:rgb(167,41,160)">
    </path>
    <path d="M82.83264902103573,-178.80931241243576L76.56277586209127,-169.90575707673932L99.06699805964811,-165.11752140435274z" style="fill:rgb(167,41,160)">
    </path>
    <path d="M111.19362556120959,-307.2860617148476L118.72165608420762,-309.3632707059211L131.65302397832278,-313.4372559121002z" style="fill:rgb(43,180,168)">
    </path>
    <path d="M109.06739713529795,-318.0674774396103L111.19362556120959,-307.2860617148476L131.65302397832278,-313.4372559121002z" style="fill:rgb(43,180,168)">
    </path>
    <path d="M115.30613447652439,-326.7901651771146L109.06739713529795,-318.0674774396103L131.65302397832278,-313.4372559121002z" style="fill:rgb(43,180,168)">
    </path>
    <path d="M77.28905917338327,-216.1868461388802L79.47186144702626,-205.55494077135293L99.8797006975079,-211.43281954430225z" style="fill:rgb(167,41,160)">
    </path>
    <path d="M83.58174660701467,-225.06206850984447L77.28905917338327,-216.1868461388802L99.8797006975079,-211.43281954430225z" style="fill:rgb(167,41,160)">
    </path>
    <path d="M80.21077655020319,-252.0708945387207L87.85449532784521,-254.29064552791039L100.69860930453102,-258.10179109277504z" style="fill:rgb(167,41,160)">
    </path>
    <path d="M78.02088223887975,-262.82094600787053L80.21077655020319,-252.0708945387207L100.69860930453102,-258.10179109277504z" style="fill:rgb(167,41,160)">
    </path>
    <path d="M84.33655026620643,-271.66714400799106L78.02088223887975,-262.82094600787053L100.69860930453102,-258.10179109277504z" style="fill:rgb(167,41,160)">
    </path>
    <path d="M80.95533987565484,-298.9424134380781L88.62643151144428,-301.0590972730508L101.52379523830732,-305.12850266391484z" style="fill:rgb(43,180,168)">
    </path>
    <path d="M80.95533987565466,-298.94241343807823L88.62643151144417,-301.05909727305067L101.5237952383072,-305.12850266391496z" style="fill:rgb(74,87,214)">
    </path>
    <path d="M80.95533987565466,-298.94241343807823L88.62643151144417,-301.05909727305067L101.5237952383072,-305.12850266391496z" style="fill:rgb(167,41,160)">
    </path>
    <path d="M78.75830868326659,-309.81211105162316L80.95533987565466,-298.94241343807823L101.5237952383072,-305.12850266391496z" style="fill:rgb(74,87,214)">
    </path>
    <path d="M78.75830868326659,-309.81211105162316L80.95533987565466,-298.94241343807823L101.5237952383072,-305.12850266391496z" style="fill:rgb(167,41,160)">
    </path>
    <path d="M78.75830868326679,-309.8121110516233L80.95533987565484,-298.9424134380781L101.52379523830732,-305.12850266391484z" style="fill:rgb(43,180,168)">
    </path>
    <path d="M85.09712544486088,-318.62857986160714L78.75830868326659,-309.81211105162316L101.5237952383072,-305.12850266391496z" style="fill:rgb(74,87,214)">
    </path>
    <path d="M85.09712544486088,-318.62857986160714L78.75830868326659,-309.81211105162316L101.5237952383072,-305.12850266391496z" style="fill:rgb(167,41,160)">
    </path>
    <path d="M85.097125444861,-318.62857986160714L78.75830868326679,-309.8121110516233L101.52379523830732,-305.12850266391484z" style="fill:rgb(43,180,168)">
    </path>
</svg>