<?xml version="1.0" encoding="UTF-8" standalone="no"?>
<svg
   xmlns:ns0="http://www.iki.fi/pav/software/textext/"
   xmlns:dc="http://purl.org/dc/elements/1.1/"
   xmlns:cc="http://creativecommons.org/ns#"
   xmlns:rdf="http://www.w3.org/1999/02/22-rdf-syntax-ns#"
   xmlns:svg="http://www.w3.org/2000/svg"
   xmlns="http://www.w3.org/2000/svg"
   xmlns:xlink="http://www.w3.org/1999/xlink"
   xmlns:sodipodi="http://sodipodi.sourceforge.net/DTD/sodipodi-0.dtd"
   xmlns:inkscape="http://www.inkscape.org/namespaces/inkscape"
   viewBox="-812 -675 1624 1350"
   width="1624"
   height="1350"
   style="background-color: rgb(255, 255, 255);"
   version="1.1"
   id="svg428"
   sodipodi:docname="column (12).svg"
   inkscape:version="0.92.2 5c3e80d, 2017-08-06">
  <metadata
     id="metadata434">
    <rdf:RDF>
      <cc:Work
         rdf:about="">
        <dc:format>image/svg+xml</dc:format>
        <dc:type
           rdf:resource="http://purl.org/dc/dcmitype/StillImage" />
      </cc:Work>
    </rdf:RDF>
  </metadata>
  <defs
     id="defs432">
    <g
       id="g5262">
      <symbol
         style="overflow:visible"
         id="textext-5328596a-0"
         overflow="visible">
        <path
           inkscape:connector-curvature="0"
           id="path5256"
           d=""
           style="stroke:none" />
      </symbol>
      <symbol
         style="overflow:visible"
         id="textext-5328596a-1"
         overflow="visible">
        <path
           inkscape:connector-curvature="0"
           id="path5259"
           d="M 3.734375,-6.03125 C 3.8125,-6.390625 3.84375,-6.5 4.78125,-6.5 c 0.296875,0 0.375,0 0.375,-0.1875 0,-0.125 -0.109375,-0.125 -0.15625,-0.125 -0.328125,0 -1.140625,0.03125 -1.46875,0.03125 -0.296875,0 -1.03125,-0.03125 -1.328125,-0.03125 -0.0625,0 -0.1875,0 -0.1875,0.203125 0,0.109375 0.09375,0.109375 0.28125,0.109375 0.015625,0 0.203125,0 0.375,0.015625 0.171875,0.03125 0.265625,0.03125 0.265625,0.171875 0,0.03125 0,0.0625 -0.03125,0.1875 L 1.5625,-0.78125 c -0.09375,0.390625 -0.109375,0.46875 -0.90625,0.46875 -0.171875,0 -0.265625,0 -0.265625,0.203125 C 0.390625,0 0.484375,0 0.65625,0 h 4.625 C 5.515625,0 5.515625,0 5.578125,-0.171875 L 6.375,-2.328125 c 0.03125,-0.109375 0.03125,-0.125 0.03125,-0.140625 0,-0.03125 -0.03125,-0.109375 -0.109375,-0.109375 -0.09375,0 -0.109375,0.0625 -0.171875,0.21875 -0.34375,0.90625 -0.78125,2.046875 -2.5,2.046875 H 2.6875 c -0.140625,0 -0.171875,0 -0.21875,0 -0.109375,-0.015625 -0.140625,-0.03125 -0.140625,-0.109375 0,-0.03125 0,-0.046875 0.046875,-0.21875 z m 0,0"
           style="stroke:none" />
      </symbol>
    </g>
    <g
       id="g5863">
      <symbol
         style="overflow:visible"
         overflow="visible"
         id="textext-e0c4fa52-0">
        <path
           inkscape:connector-curvature="0"
           style="stroke:none"
           d=""
           id="path5851" />
      </symbol>
      <symbol
         style="overflow:visible"
         overflow="visible"
         id="textext-e0c4fa52-1">
        <path
           inkscape:connector-curvature="0"
           style="stroke:none"
           d="m 3.734375,-6.125 c 0.0625,-0.234375 0.09375,-0.328125 0.28125,-0.359375 C 4.109375,-6.5 4.421875,-6.5 4.625,-6.5 c 0.703125,0 1.8125,0 1.8125,0.984375 0,0.34375 -0.15625,1.03125 -0.546875,1.421875 -0.265625,0.25 -0.78125,0.578125 -1.6875,0.578125 H 3.09375 Z m 1.4375,2.734375 c 1.015625,-0.21875 2.1875,-0.921875 2.1875,-1.921875 0,-0.859375 -0.890625,-1.5 -2.203125,-1.5 H 2.328125 c -0.203125,0 -0.296875,0 -0.296875,0.203125 C 2.03125,-6.5 2.125,-6.5 2.3125,-6.5 c 0.015625,0 0.203125,0 0.375,0.015625 0.1875,0.03125 0.265625,0.03125 0.265625,0.171875 0,0.03125 0,0.0625 -0.03125,0.1875 l -1.34375,5.34375 C 1.484375,-0.390625 1.46875,-0.3125 0.671875,-0.3125 0.5,-0.3125 0.40625,-0.3125 0.40625,-0.109375 0.40625,0 0.53125,0 0.546875,0 c 0.28125,0 0.984375,-0.03125 1.25,-0.03125 0.28125,0 1,0.03125 1.28125,0.03125 0.078125,0 0.1875,0 0.1875,-0.203125 0,-0.109375 -0.078125,-0.109375 -0.28125,-0.109375 -0.359375,0 -0.640625,0 -0.640625,-0.171875 0,-0.0625 0.015625,-0.109375 0.03125,-0.171875 l 0.65625,-2.640625 h 1.1875 c 0.90625,0 1.078125,0.5625 1.078125,0.90625 0,0.140625 -0.078125,0.453125 -0.140625,0.6875 C 5.09375,-1.421875 5,-1.0625 5,-0.859375 5,0.21875 6.203125,0.21875 6.328125,0.21875 c 0.84375,0 1.203125,-1 1.203125,-1.140625 0,-0.125 -0.109375,-0.125 -0.125,-0.125 -0.09375,0 -0.109375,0.0625 -0.125,0.140625 C 7.03125,-0.171875 6.59375,0 6.375,0 6.046875,0 5.96875,-0.21875 5.96875,-0.609375 c 0,-0.3125 0.0625,-0.8125 0.109375,-1.140625 0.015625,-0.140625 0.03125,-0.328125 0.03125,-0.46875 0,-0.765625 -0.671875,-1.078125 -0.9375,-1.171875 z m 0,0"
           id="path5854" />
      </symbol>
      <symbol
         style="overflow:visible"
         overflow="visible"
         id="textext-e0c4fa52-2">
        <path
           inkscape:connector-curvature="0"
           style="stroke:none"
           d=""
           id="path5857" />
      </symbol>
      <symbol
         style="overflow:visible"
         overflow="visible"
         id="textext-e0c4fa52-3">
        <path
           inkscape:connector-curvature="0"
           style="stroke:none"
           d="m 2.015625,-3.296875 c 0.0625,-0.109375 0.0625,-0.171875 0.0625,-0.21875 0,-0.21875 -0.1875,-0.375 -0.40625,-0.375 -0.265625,0 -0.34375,0.21875 -0.375,0.328125 L 0.375,-0.546875 c -0.015625,0.015625 -0.046875,0.09375 -0.046875,0.109375 0,0.078125 0.21875,0.15625 0.28125,0.15625 0.046875,0 0.046875,-0.015625 0.09375,-0.125 z m 0,0"
           id="path5860" />
      </symbol>
    </g>
    <g
       id="g6462">
      <symbol
         style="overflow:visible"
         id="textext-3a2c719b-0"
         overflow="visible">
        <path
           inkscape:connector-curvature="0"
           id="path6456"
           d=""
           style="stroke:none" />
      </symbol>
      <symbol
         style="overflow:visible"
         id="textext-3a2c719b-1"
         overflow="visible">
        <path
           inkscape:connector-curvature="0"
           id="path6459"
           d="m 3.734375,-6.125 c 0.0625,-0.234375 0.09375,-0.328125 0.28125,-0.359375 C 4.109375,-6.5 4.421875,-6.5 4.625,-6.5 c 0.703125,0 1.8125,0 1.8125,0.984375 0,0.34375 -0.15625,1.03125 -0.546875,1.421875 -0.265625,0.25 -0.78125,0.578125 -1.6875,0.578125 H 3.09375 Z m 1.4375,2.734375 c 1.015625,-0.21875 2.1875,-0.921875 2.1875,-1.921875 0,-0.859375 -0.890625,-1.5 -2.203125,-1.5 H 2.328125 c -0.203125,0 -0.296875,0 -0.296875,0.203125 C 2.03125,-6.5 2.125,-6.5 2.3125,-6.5 c 0.015625,0 0.203125,0 0.375,0.015625 0.1875,0.03125 0.265625,0.03125 0.265625,0.171875 0,0.03125 0,0.0625 -0.03125,0.1875 l -1.34375,5.34375 C 1.484375,-0.390625 1.46875,-0.3125 0.671875,-0.3125 0.5,-0.3125 0.40625,-0.3125 0.40625,-0.109375 0.40625,0 0.53125,0 0.546875,0 c 0.28125,0 0.984375,-0.03125 1.25,-0.03125 0.28125,0 1,0.03125 1.28125,0.03125 0.078125,0 0.1875,0 0.1875,-0.203125 0,-0.109375 -0.078125,-0.109375 -0.28125,-0.109375 -0.359375,0 -0.640625,0 -0.640625,-0.171875 0,-0.0625 0.015625,-0.109375 0.03125,-0.171875 l 0.65625,-2.640625 h 1.1875 c 0.90625,0 1.078125,0.5625 1.078125,0.90625 0,0.140625 -0.078125,0.453125 -0.140625,0.6875 C 5.09375,-1.421875 5,-1.0625 5,-0.859375 5,0.21875 6.203125,0.21875 6.328125,0.21875 c 0.84375,0 1.203125,-1 1.203125,-1.140625 0,-0.125 -0.109375,-0.125 -0.125,-0.125 -0.09375,0 -0.109375,0.0625 -0.125,0.140625 C 7.03125,-0.171875 6.59375,0 6.375,0 6.046875,0 5.96875,-0.21875 5.96875,-0.609375 c 0,-0.3125 0.0625,-0.8125 0.109375,-1.140625 0.015625,-0.140625 0.03125,-0.328125 0.03125,-0.46875 0,-0.765625 -0.671875,-1.078125 -0.9375,-1.171875 z m 0,0"
           style="stroke:none" />
      </symbol>
    </g>
    <g
       id="g7051">
      <symbol
         style="overflow:visible"
         overflow="visible"
         id="textext-d9e0ea7a-0">
        <path
           inkscape:connector-curvature="0"
           style="stroke:none"
           d=""
           id="path7039" />
      </symbol>
      <symbol
         style="overflow:visible"
         overflow="visible"
         id="textext-d9e0ea7a-1">
        <path
           inkscape:connector-curvature="0"
           style="stroke:none"
           d="M 3.734375,-6.03125 C 3.8125,-6.390625 3.84375,-6.5 4.78125,-6.5 c 0.296875,0 0.375,0 0.375,-0.1875 0,-0.125 -0.109375,-0.125 -0.15625,-0.125 -0.328125,0 -1.140625,0.03125 -1.46875,0.03125 -0.296875,0 -1.03125,-0.03125 -1.328125,-0.03125 -0.0625,0 -0.1875,0 -0.1875,0.203125 0,0.109375 0.09375,0.109375 0.28125,0.109375 0.015625,0 0.203125,0 0.375,0.015625 0.171875,0.03125 0.265625,0.03125 0.265625,0.171875 0,0.03125 0,0.0625 -0.03125,0.1875 L 1.5625,-0.78125 c -0.09375,0.390625 -0.109375,0.46875 -0.90625,0.46875 -0.171875,0 -0.265625,0 -0.265625,0.203125 C 0.390625,0 0.484375,0 0.65625,0 h 4.625 C 5.515625,0 5.515625,0 5.578125,-0.171875 L 6.375,-2.328125 c 0.03125,-0.109375 0.03125,-0.125 0.03125,-0.140625 0,-0.03125 -0.03125,-0.109375 -0.109375,-0.109375 -0.09375,0 -0.109375,0.0625 -0.171875,0.21875 -0.34375,0.90625 -0.78125,2.046875 -2.5,2.046875 H 2.6875 c -0.140625,0 -0.171875,0 -0.21875,0 -0.109375,-0.015625 -0.140625,-0.03125 -0.140625,-0.109375 0,-0.03125 0,-0.046875 0.046875,-0.21875 z m 0,0"
           id="path7042" />
      </symbol>
      <symbol
         style="overflow:visible"
         overflow="visible"
         id="textext-d9e0ea7a-2">
        <path
           inkscape:connector-curvature="0"
           style="stroke:none"
           d=""
           id="path7045" />
      </symbol>
      <symbol
         style="overflow:visible"
         overflow="visible"
         id="textext-d9e0ea7a-3">
        <path
           inkscape:connector-curvature="0"
           style="stroke:none"
           d="m 2.015625,-3.296875 c 0.0625,-0.109375 0.0625,-0.171875 0.0625,-0.21875 0,-0.21875 -0.1875,-0.375 -0.40625,-0.375 -0.265625,0 -0.34375,0.21875 -0.375,0.328125 L 0.375,-0.546875 c -0.015625,0.015625 -0.046875,0.09375 -0.046875,0.109375 0,0.078125 0.21875,0.15625 0.28125,0.15625 0.046875,0 0.046875,-0.015625 0.09375,-0.125 z m 0,0"
           id="path7048" />
      </symbol>
    </g>
  </defs>
  <sodipodi:namedview
     pagecolor="#ffffff"
     bordercolor="#666666"
     borderopacity="1"
     objecttolerance="10"
     gridtolerance="10"
     guidetolerance="10"
     inkscape:pageopacity="0"
     inkscape:pageshadow="2"
     inkscape:window-width="2560"
     inkscape:window-height="1565"
     id="namedview430"
     showgrid="false"
     inkscape:zoom="0.98228627"
     inkscape:cx="927.28472"
     inkscape:cy="973.96145"
     inkscape:window-x="0"
     inkscape:window-y="0"
     inkscape:window-maximized="1"
     inkscape:current-layer="svg428" />
  <path
     d="m -608.49572,-390.47366 h 11.47573 l -7.02942,-0.80722 z"
     style="fill:#c5932a"
     id="path2"
     inkscape:connector-curvature="0" />
  <path
     d="m -521.02962,-390.47366 h 11.47573 l -6.8486,-0.80722 z"
     style="fill:#c5932a"
     id="path6"
     inkscape:connector-curvature="0" />
  <path
     d="m -433.56352,-390.47366 h 11.47573 l -6.66778,-0.80722 z"
     style="fill:#c5932a"
     id="path10"
     inkscape:connector-curvature="0" />
  <path
     d="m -346.09742,-390.47366 h 11.47573 l -6.48697,-0.80722 z"
     style="fill:#c5932a"
     id="path14"
     inkscape:connector-curvature="0" />
  <path
     d="m -258.63132,-390.47366 h 11.47573 l -6.30615,-0.80722 z"
     style="fill:#c5932a"
     id="path18"
     inkscape:connector-curvature="0" />
  <path
     d="m -171.16522,-390.47366 h 11.47573 l -6.12533,-0.80722 z"
     style="fill:#c5932a"
     id="path22"
     inkscape:connector-curvature="0" />
  <path
     d="m -83.69912,-390.47366 h 11.47573 l -5.944515,-0.80722 z"
     style="fill:#c5932a"
     id="path26"
     inkscape:connector-curvature="0" />
  <path
     d="m 3.766977,-390.47366 h 11.475732 l -5.763697,-0.80722 z"
     style="fill:#c5932a"
     id="path30"
     inkscape:connector-curvature="0" />
  <path
     d="m 91.23308,-390.47366 h 11.47573 l -5.58288,-0.80722 z"
     style="fill:#c5932a"
     id="path34"
     inkscape:connector-curvature="0" />
  <path
     d="m 178.69918,-390.47366 h 11.47573 l -5.40206,-0.80722 z"
     style="fill:#c5932a"
     id="path38"
     inkscape:connector-curvature="0" />
  <path
     d="m 266.16527,-390.47366 h 11.47574 l -5.22125,-0.80722 z"
     style="fill:#c5932a"
     id="path42"
     inkscape:connector-curvature="0" />
  <path
     d="m 353.63137,-390.47366 h 11.47574 l -5.04043,-0.80722 z"
     style="fill:#c5932a"
     id="path46"
     inkscape:connector-curvature="0" />
  <path
     d="m 441.09747,-390.47366 h 11.47574 l -4.85961,-0.80722 z"
     style="fill:#c5932a"
     id="path50"
     inkscape:connector-curvature="0" />
  <path
     d="m -597.01999,-390.47366 1.78645,-1.11643 -8.81587,0.30921 z"
     style="fill:#c5932a"
     id="path54"
     inkscape:connector-curvature="0" />
  <path
     d="m -613.85476,-391.59009 5.35904,1.11643 4.44631,-0.80722 z"
     style="fill:#c5932a"
     id="path56"
     inkscape:connector-curvature="0" />
  <path
     d="m -526.13858,-391.59009 5.10896,1.11643 4.62713,-0.80722 z"
     style="fill:#c5932a"
     id="path62"
     inkscape:connector-curvature="0" />
  <path
     d="m -509.55389,-390.47366 2.03653,-1.11643 -8.88513,0.30921 z"
     style="fill:#c5932a"
     id="path64"
     inkscape:connector-curvature="0" />
  <path
     d="m -422.08779,-390.47366 2.28661,-1.11643 -8.95439,0.30921 z"
     style="fill:#c5932a"
     id="path70"
     inkscape:connector-curvature="0" />
  <path
     d="m -438.4224,-391.59009 4.85888,1.11643 4.80795,-0.80722 z"
     style="fill:#c5932a"
     id="path72"
     inkscape:connector-curvature="0" />
  <path
     d="m -350.70621,-391.59009 4.60879,1.11643 4.98876,-0.80722 z"
     style="fill:#c5932a"
     id="path78"
     inkscape:connector-curvature="0" />
  <path
     d="m -334.62169,-390.47366 2.53669,-1.11643 -9.02366,0.30921 z"
     style="fill:#c5932a"
     id="path80"
     inkscape:connector-curvature="0" />
  <path
     d="m -247.15559,-390.47366 2.78677,-1.11643 -9.09292,0.30921 z"
     style="fill:#c5932a"
     id="path86"
     inkscape:connector-curvature="0" />
  <path
     d="m -262.99003,-391.59009 4.35871,1.11643 5.16958,-0.80722 z"
     style="fill:#c5932a"
     id="path88"
     inkscape:connector-curvature="0" />
  <path
     d="m -159.68949,-390.47366 3.03685,-1.11643 -9.16218,0.30921 z"
     style="fill:#c5932a"
     id="path94"
     inkscape:connector-curvature="0" />
  <path
     d="m -175.27385,-391.59009 4.10863,1.11643 5.3504,-0.80722 z"
     style="fill:#c5932a"
     id="path96"
     inkscape:connector-curvature="0" />
  <path
     d="m -87.55767,-391.59009 3.85855,1.11643 5.531215,-0.80722 z"
     style="fill:#c5932a"
     id="path102"
     inkscape:connector-curvature="0" />
  <path
     d="m -72.22339,-390.47366 3.286934,-1.11643 -9.231449,0.30921 z"
     style="fill:#c5932a"
     id="path104"
     inkscape:connector-curvature="0" />
  <path
     d="m 0.158509,-391.59009 3.608468,1.11643 5.712035,-0.80722 z"
     style="fill:#c5932a"
     id="path110"
     inkscape:connector-curvature="0" />
  <path
     d="m 15.242709,-390.47366 3.537016,-1.11643 -9.300713,0.30921 z"
     style="fill:#c5932a"
     id="path112"
     inkscape:connector-curvature="0" />
  <path
     d="m 102.70881,-390.47366 3.7871,-1.11643 -9.36998,0.30921 z"
     style="fill:#c5932a"
     id="path118"
     inkscape:connector-curvature="0" />
  <path
     d="m 87.87469,-391.59009 3.35839,1.11643 5.89285,-0.80722 z"
     style="fill:#c5932a"
     id="path120"
     inkscape:connector-curvature="0" />
  <path
     d="m 175.59087,-391.59009 3.10831,1.11643 6.07367,-0.80722 z"
     style="fill:#c5932a"
     id="path126"
     inkscape:connector-curvature="0" />
  <path
     d="m 190.17491,-390.47366 4.03718,-1.11643 -9.43924,0.30921 z"
     style="fill:#c5932a"
     id="path128"
     inkscape:connector-curvature="0" />
  <path
     d="m 263.30705,-391.59009 2.85822,1.11643 6.25449,-0.80722 z"
     style="fill:#c5932a"
     id="path134"
     inkscape:connector-curvature="0" />
  <path
     d="m 277.64101,-390.47366 4.28726,-1.11643 -9.50851,0.30921 z"
     style="fill:#c5932a"
     id="path136"
     inkscape:connector-curvature="0" />
  <path
     d="m 365.10711,-390.47366 4.53734,-1.11643 -9.57777,0.30921 z"
     style="fill:#c5932a"
     id="path142"
     inkscape:connector-curvature="0" />
  <path
     d="m 351.02323,-391.59009 2.60814,1.11643 6.43531,-0.80722 z"
     style="fill:#c5932a"
     id="path144"
     inkscape:connector-curvature="0" />
  <path
     d="m 452.57321,-390.47366 4.78742,-1.11643 -9.64703,0.30921 z"
     style="fill:#c5932a"
     id="path150"
     inkscape:connector-curvature="0" />
  <path
     d="m 438.73941,-391.59009 2.35806,1.11643 6.61613,-0.80722 z"
     style="fill:#c5932a"
     id="path152"
     inkscape:connector-curvature="0" />
  <path
     d="M469.53705617159784,-313.0247041143985L-626.0494082287971,-313.0247041143985"
     style="fill:none;stroke:rgb(50,34,0);stroke-width:5;stroke-linecap:round"
     id="path158" />
  <path
     d="m -604.04941,-313.0247 v -78.25618"
     style="fill:none;stroke:#c5932a;stroke-width:5;stroke-linecap:round"
     id="path160"
     inkscape:connector-curvature="0" />
  <path
     d="m -516.40249,-313.0247 v -78.25618"
     style="fill:none;stroke:#c5932a;stroke-width:5;stroke-linecap:round"
     id="path164"
     inkscape:connector-curvature="0" />
  <path
     d="m -428.75557,-313.0247 v -78.25618"
     style="fill:none;stroke:#c5932a;stroke-width:5;stroke-linecap:round"
     id="path168"
     inkscape:connector-curvature="0" />
  <path
     d="m -341.10866,-313.0247 v -78.25618"
     style="fill:none;stroke:#c5932a;stroke-width:5;stroke-linecap:round"
     id="path172"
     inkscape:connector-curvature="0" />
  <path
     d="m -253.46174,-313.0247 v -78.25618"
     style="fill:none;stroke:#c5932a;stroke-width:5;stroke-linecap:round"
     id="path176"
     inkscape:connector-curvature="0" />
  <path
     d="m -165.81482,-313.0247 v -78.25618"
     style="fill:none;stroke:#c5932a;stroke-width:5;stroke-linecap:round"
     id="path180"
     inkscape:connector-curvature="0" />
  <path
     d="m -78.167905,-313.0247 v -78.25618"
     style="fill:none;stroke:#c5932a;stroke-width:5;stroke-linecap:round"
     id="path184"
     inkscape:connector-curvature="0" />
  <path
     d="m 9.479012,-313.0247 v -78.25618"
     style="fill:none;stroke:#c5932a;stroke-width:5;stroke-linecap:round"
     id="path188"
     inkscape:connector-curvature="0" />
  <path
     d="m 97.12593,-313.0247 v -78.25618"
     style="fill:none;stroke:#c5932a;stroke-width:5;stroke-linecap:round"
     id="path192"
     inkscape:connector-curvature="0" />
  <path
     d="m 184.77285,-313.0247 v -78.25618"
     style="fill:none;stroke:#c5932a;stroke-width:5;stroke-linecap:round"
     id="path196"
     inkscape:connector-curvature="0" />
  <path
     d="m 272.41976,-313.0247 v -78.25618"
     style="fill:none;stroke:#c5932a;stroke-width:5;stroke-linecap:round"
     id="path200"
     inkscape:connector-curvature="0" />
  <path
     d="m 360.06668,-313.0247 v -78.25618"
     style="fill:none;stroke:#c5932a;stroke-width:5;stroke-linecap:round"
     id="path204"
     inkscape:connector-curvature="0" />
  <path
     d="m 447.7136,-313.0247 v -78.25618"
     style="fill:none;stroke:#c5932a;stroke-width:5;stroke-linecap:round"
     id="path208"
     inkscape:connector-curvature="0" />
  <path
     d="M782.5617602859965,0L0,0L469.53705617159784,-313.0247041143985z"
     style="fill:rgb(0,0,0); fill-opacity: 0.2"
     id="path212" />
  <path
     d="M469.53705617159784,-313.0247041143985L-626.0494082287971,-313.0247041143985L0,0z"
     style="fill:rgb(0,0,0); fill-opacity: 0.2"
     id="path214" />
  <path
     d="M-626.0494082287971,-313.0247041143985L0,0"
     style="fill:none;stroke:rgb(160,0,0);stroke-width:4;stroke-linecap:round"
     id="path216" />
  <path
     d="M469.53705617159784,-313.0247041143985L782.5617602859965,0"
     style="fill:none;stroke:rgb(160,0,0);stroke-width:4;stroke-linecap:round"
     id="path218" />
  <path
     d="m -595.23354,-391.59009 -10.41972,-0.6932 1.60385,1.00241 z"
     style="fill:#c5932a"
     id="path220"
     inkscape:connector-curvature="0" />
  <path
     d="m -605.65326,-392.28329 -8.2015,0.6932 9.80535,0.30921 z"
     style="fill:#c5932a"
     id="path222"
     inkscape:connector-curvature="0" />
  <path
     d="m -613.85476,-391.59009 8.2015,-0.6932 1.60385,-18.56163 z"
     style="fill:#c5932a"
     id="path224"
     inkscape:connector-curvature="0" />
  <path
     d="m -605.65326,-392.28329 10.41972,0.6932 -8.81587,-19.25483 z"
     style="fill:#c5932a"
     id="path226"
     inkscape:connector-curvature="0" />
  <path
     d="m -517.7818,-392.28329 -8.35678,0.6932 9.73609,0.30921 z"
     style="fill:#c5932a"
     id="path236"
     inkscape:connector-curvature="0" />
  <path
     d="m -507.51736,-391.59009 -10.26444,-0.6932 1.37931,1.00241 z"
     style="fill:#c5932a"
     id="path238"
     inkscape:connector-curvature="0" />
  <path
     d="m -517.7818,-392.28329 10.26444,0.6932 -8.88513,-19.25483 z"
     style="fill:#c5932a"
     id="path240"
     inkscape:connector-curvature="0" />
  <path
     d="m -526.13858,-391.59009 8.35678,-0.6932 1.37931,-18.56163 z"
     style="fill:#c5932a"
     id="path242"
     inkscape:connector-curvature="0" />
  <path
     d="m -419.80118,-391.59009 -10.10917,-0.6932 1.15478,1.00241 z"
     style="fill:#c5932a"
     id="path252"
     inkscape:connector-curvature="0" />
  <path
     d="m -429.91035,-392.28329 -8.51205,0.6932 9.66683,0.30921 z"
     style="fill:#c5932a"
     id="path254"
     inkscape:connector-curvature="0" />
  <path
     d="m -438.4224,-391.59009 8.51205,-0.6932 1.15478,-18.56163 z"
     style="fill:#c5932a"
     id="path256"
     inkscape:connector-curvature="0" />
  <path
     d="m -429.91035,-392.28329 10.10917,0.6932 -8.95439,-19.25483 z"
     style="fill:#c5932a"
     id="path258"
     inkscape:connector-curvature="0" />
  <path
     d="m -332.085,-391.59009 -9.95389,-0.6932 0.93023,1.00241 z"
     style="fill:#c5932a"
     id="path268"
     inkscape:connector-curvature="0" />
  <path
     d="m -342.03889,-392.28329 -8.66732,0.6932 9.59755,0.30921 z"
     style="fill:#c5932a"
     id="path270"
     inkscape:connector-curvature="0" />
  <path
     d="m -350.70621,-391.59009 8.66732,-0.6932 0.93023,-18.56163 z"
     style="fill:#c5932a"
     id="path272"
     inkscape:connector-curvature="0" />
  <path
     d="m -342.03889,-392.28329 9.95389,0.6932 -9.02366,-19.25483 z"
     style="fill:#c5932a"
     id="path274"
     inkscape:connector-curvature="0" />
  <path
     d="m -254.16743,-392.28329 -8.8226,0.6932 9.52829,0.30921 z"
     style="fill:#c5932a"
     id="path284"
     inkscape:connector-curvature="0" />
  <path
     d="m -244.36882,-391.59009 -9.79861,-0.6932 0.70569,1.00241 z"
     style="fill:#c5932a"
     id="path286"
     inkscape:connector-curvature="0" />
  <path
     d="m -262.99003,-391.59009 8.8226,-0.6932 0.70569,-18.56163 z"
     style="fill:#c5932a"
     id="path288"
     inkscape:connector-curvature="0" />
  <path
     d="m -254.16743,-392.28329 9.79861,0.6932 -9.09292,-19.25483 z"
     style="fill:#c5932a"
     id="path290"
     inkscape:connector-curvature="0" />
  <path
     d="m -175.27385,-391.59009 8.97787,-0.6932 0.48116,-18.56163 z"
     style="fill:#c5932a"
     id="path300"
     inkscape:connector-curvature="0" />
  <path
     d="m -166.29598,-392.28329 -8.97787,0.6932 9.45903,0.30921 z"
     style="fill:#c5932a"
     id="path302"
     inkscape:connector-curvature="0" />
  <path
     d="m -156.65264,-391.59009 -9.64334,-0.6932 0.48116,1.00241 z"
     style="fill:#c5932a"
     id="path304"
     inkscape:connector-curvature="0" />
  <path
     d="m -166.29598,-392.28329 9.64334,0.6932 -9.16218,-19.25483 z"
     style="fill:#c5932a"
     id="path306"
     inkscape:connector-curvature="0" />
  <path
     d="m -78.424521,-392.28329 9.488065,0.6932 -9.231449,-19.25483 z"
     style="fill:#c5932a"
     id="path316"
     inkscape:connector-curvature="0" />
  <path
     d="m -87.55767,-391.59009 9.133149,-0.6932 0.256616,-18.56163 z"
     style="fill:#c5932a"
     id="path318"
     inkscape:connector-curvature="0" />
  <path
     d="m -68.936456,-391.59009 -9.488065,-0.6932 0.256616,1.00241 z"
     style="fill:#c5932a"
     id="path320"
     inkscape:connector-curvature="0" />
  <path
     d="m -78.424521,-392.28329 -9.133149,0.6932 9.389765,0.30921 z"
     style="fill:#c5932a"
     id="path322"
     inkscape:connector-curvature="0" />
  <path
     d="m 9.446935,-392.28329 9.33279,0.6932 -9.300713,-19.25483 z"
     style="fill:#c5932a"
     id="path332"
     inkscape:connector-curvature="0" />
  <path
     d="m 0.158509,-391.59009 9.288426,-0.6932 0.03208,-18.56163 z"
     style="fill:#c5932a"
     id="path334"
     inkscape:connector-curvature="0" />
  <path
     d="m 18.779725,-391.59009 -9.33279,-0.6932 0.03208,1.00241 z"
     style="fill:#c5932a"
     id="path336"
     inkscape:connector-curvature="0" />
  <path
     d="m 9.446935,-392.28329 -9.288426,0.6932 9.320503,0.30921 z"
     style="fill:#c5932a"
     id="path338"
     inkscape:connector-curvature="0" />
  <path
     d="m 106.49591,-391.59009 -9.17752,-0.6932 -0.19246,1.00241 z"
     style="fill:#c5932a"
     id="path348"
     inkscape:connector-curvature="0" />
  <path
     d="m 97.31839,-392.28329 -9.4437,0.6932 9.25124,0.30921 z"
     style="fill:#c5932a"
     id="path350"
     inkscape:connector-curvature="0" />
  <path
     d="m 97.31839,-392.28329 9.17752,0.6932 -9.36998,-19.25483 z"
     style="fill:#c5932a"
     id="path352"
     inkscape:connector-curvature="0" />
  <path
     d="m 87.87469,-391.59009 9.4437,-0.6932 -0.19246,-18.56163 z"
     style="fill:#c5932a"
     id="path354"
     inkscape:connector-curvature="0" />
  <path
     d="m 194.21209,-391.59009 -9.02224,-0.6932 -0.417,1.00241 z"
     style="fill:#c5932a"
     id="path364"
     inkscape:connector-curvature="0" />
  <path
     d="m 175.59087,-391.59009 9.59898,-0.6932 -0.417,-18.56163 z"
     style="fill:#c5932a"
     id="path366"
     inkscape:connector-curvature="0" />
  <path
     d="m 185.18985,-392.28329 9.02224,0.6932 -9.43924,-19.25483 z"
     style="fill:#c5932a"
     id="path368"
     inkscape:connector-curvature="0" />
  <path
     d="m 185.18985,-392.28329 -9.59898,0.6932 9.18198,0.30921 z"
     style="fill:#c5932a"
     id="path370"
     inkscape:connector-curvature="0" />
  <path
     d="m 281.92827,-391.59009 -8.86697,-0.6932 -0.64154,1.00241 z"
     style="fill:#c5932a"
     id="path380"
     inkscape:connector-curvature="0" />
  <path
     d="m 273.0613,-392.28329 -9.75425,0.6932 9.11271,0.30921 z"
     style="fill:#c5932a"
     id="path382"
     inkscape:connector-curvature="0" />
  <path
     d="m 273.0613,-392.28329 8.86697,0.6932 -9.50851,-19.25483 z"
     style="fill:#c5932a"
     id="path384"
     inkscape:connector-curvature="0" />
  <path
     d="m 263.30705,-391.59009 9.75425,-0.6932 -0.64154,-18.56163 z"
     style="fill:#c5932a"
     id="path386"
     inkscape:connector-curvature="0" />
  <path
     d="m 360.93276,-392.28329 -9.90953,0.6932 9.04345,0.30921 z"
     style="fill:#c5932a"
     id="path396"
     inkscape:connector-curvature="0" />
  <path
     d="m 369.64445,-391.59009 -8.71169,-0.6932 -0.86608,1.00241 z"
     style="fill:#c5932a"
     id="path398"
     inkscape:connector-curvature="0" />
  <path
     d="m 360.93276,-392.28329 8.71169,0.6932 -9.57777,-19.25483 z"
     style="fill:#c5932a"
     id="path400"
     inkscape:connector-curvature="0" />
  <path
     d="m 351.02323,-391.59009 9.90953,-0.6932 -0.86608,-18.56163 z"
     style="fill:#c5932a"
     id="path402"
     inkscape:connector-curvature="0" />
  <path
     d="m 448.80421,-392.28329 8.55642,0.6932 -9.64703,-19.25483 z"
     style="fill:#c5932a"
     id="path412"
     inkscape:connector-curvature="0" />
  <path
     d="m 448.80421,-392.28329 -10.0648,0.6932 8.97419,0.30921 z"
     style="fill:#c5932a"
     id="path414"
     inkscape:connector-curvature="0" />
  <path
     d="m 457.36063,-391.59009 -8.55642,-0.6932 -1.09061,1.00241 z"
     style="fill:#c5932a"
     id="path416"
     inkscape:connector-curvature="0" />
  <path
     d="m 438.73941,-391.59009 10.0648,-0.6932 -1.09061,-18.56163 z"
     style="fill:#c5932a"
     id="path418"
     inkscape:connector-curvature="0" />
  <circle
     style="fill:#590000;fill-opacity:1;stroke:#580000;stroke-width:2.35059786;stroke-miterlimit:4;stroke-dasharray:none;stroke-dashoffset:0;stroke-opacity:1"
     id="path2541-6"
     cx="-625.5257"
     cy="-313.03207"
     r="3.8247011" />
  <path
     inkscape:connector-curvature="0"
     d="m 32.3934,-77.44896 h 11.47573 l -6.30615,-0.80722 z"
     style="fill:#c5932a"
     id="path18-3" />
  <path
     inkscape:connector-curvature="0"
     d="m 119.8595,-77.44896 h 11.47573 l -6.12533,-0.80722 z"
     style="fill:#c5932a"
     id="path22-5" />
  <path
     inkscape:connector-curvature="0"
     d="m 207.3256,-77.44896 h 11.47573 l -5.94452,-0.80722 z"
     style="fill:#c5932a"
     id="path26-6" />
  <path
     inkscape:connector-curvature="0"
     d="m 294.79169,-77.44896 h 11.47574 l -5.7637,-0.80722 z"
     style="fill:#c5932a"
     id="path30-2" />
  <path
     inkscape:connector-curvature="0"
     d="m 382.25779,-77.44896 h 11.47574 l -5.58288,-0.80722 z"
     style="fill:#c5932a"
     id="path34-9" />
  <path
     inkscape:connector-curvature="0"
     d="m 469.7239,-77.44896 h 11.47573 l -5.40206,-0.80722 z"
     style="fill:#c5932a"
     id="path38-1" />
  <path
     inkscape:connector-curvature="0"
     d="m 557.18999,-77.44896 h 11.47574 l -5.22125,-0.80722 z"
     style="fill:#c5932a"
     id="path42-2" />
  <path
     inkscape:connector-curvature="0"
     d="m 644.65609,-77.44896 h 11.47574 l -5.04043,-0.80722 z"
     style="fill:#c5932a"
     id="path46-7" />
  <path
     inkscape:connector-curvature="0"
     d="m 732.12216,-77.44896 h 11.4758 l -4.8596,-0.80722 z"
     style="fill:#c5932a"
     id="path50-0" />
  <path
     inkscape:connector-curvature="0"
     d="m 43.86913,-77.44896 2.78677,-1.11643 -9.09292,0.30921 z"
     style="fill:#c5932a"
     id="path86-8" />
  <path
     inkscape:connector-curvature="0"
     d="m 28.03469,-78.56539 4.35871,1.11643 5.16958,-0.80722 z"
     style="fill:#c5932a"
     id="path88-7" />
  <path
     inkscape:connector-curvature="0"
     d="m 131.33523,-77.44896 3.03685,-1.11643 -9.16218,0.30921 z"
     style="fill:#c5932a"
     id="path94-9" />
  <path
     inkscape:connector-curvature="0"
     d="m 115.75087,-78.56539 4.10863,1.11643 5.3504,-0.80722 z"
     style="fill:#c5932a"
     id="path96-2" />
  <path
     inkscape:connector-curvature="0"
     d="m 203.46705,-78.56539 3.85855,1.11643 5.53121,-0.80722 z"
     style="fill:#c5932a"
     id="path102-0" />
  <path
     inkscape:connector-curvature="0"
     d="m 218.80133,-77.44896 3.28693,-1.11643 -9.23145,0.30921 z"
     style="fill:#c5932a"
     id="path104-2" />
  <path
     inkscape:connector-curvature="0"
     d="m 291.18323,-78.56539 3.60846,1.11643 5.71204,-0.80722 z"
     style="fill:#c5932a"
     id="path110-3" />
  <path
     inkscape:connector-curvature="0"
     d="m 306.26743,-77.44896 3.53701,-1.11643 -9.30071,0.30921 z"
     style="fill:#c5932a"
     id="path112-7" />
  <path
     inkscape:connector-curvature="0"
     d="m 393.73353,-77.44896 3.78709,-1.11643 -9.36997,0.30921 z"
     style="fill:#c5932a"
     id="path118-5" />
  <path
     inkscape:connector-curvature="0"
     d="m 378.89941,-78.56539 3.35838,1.11643 5.89286,-0.80722 z"
     style="fill:#c5932a"
     id="path120-9" />
  <path
     inkscape:connector-curvature="0"
     d="m 466.61559,-78.56539 3.10831,1.11643 6.07367,-0.80722 z"
     style="fill:#c5932a"
     id="path126-2" />
  <path
     inkscape:connector-curvature="0"
     d="m 481.19963,-77.44896 4.03718,-1.11643 -9.43924,0.30921 z"
     style="fill:#c5932a"
     id="path128-2" />
  <path
     inkscape:connector-curvature="0"
     d="m 554.33177,-78.56539 2.85822,1.11643 6.25449,-0.80722 z"
     style="fill:#c5932a"
     id="path134-8" />
  <path
     inkscape:connector-curvature="0"
     d="m 568.66573,-77.44896 4.28726,-1.11643 -9.50851,0.30921 z"
     style="fill:#c5932a"
     id="path136-9" />
  <path
     inkscape:connector-curvature="0"
     d="m 656.13183,-77.44896 4.53734,-1.11643 -9.57777,0.30921 z"
     style="fill:#c5932a"
     id="path142-7" />
  <path
     inkscape:connector-curvature="0"
     d="m 642.04795,-78.56539 2.60814,1.11643 6.43531,-0.80722 z"
     style="fill:#c5932a"
     id="path144-3" />
  <path
     inkscape:connector-curvature="0"
     d="m 743.59796,-77.44896 4.7874,-1.11643 -9.647,0.30921 z"
     style="fill:#c5932a"
     id="path150-6" />
  <path
     inkscape:connector-curvature="0"
     d="m 729.76416,-78.56539 2.358,1.11643 6.6162,-0.80722 z"
     style="fill:#c5932a"
     id="path152-1" />
  <path
     inkscape:connector-curvature="0"
     d="M 782.56176,0 H 0"
     style="fill:none;stroke:#322200;stroke-width:5;stroke-linecap:round;stroke-miterlimit:4;stroke-dasharray:none"
     id="path158-2" />
  <path
     inkscape:connector-curvature="0"
     d="M 37.56298,0 V -78.25618"
     style="fill:none;stroke:#c5932a;stroke-width:5;stroke-linecap:round"
     id="path176-4" />
  <path
     inkscape:connector-curvature="0"
     d="M 125.2099,0 V -78.25618"
     style="fill:none;stroke:#c5932a;stroke-width:5;stroke-linecap:round"
     id="path180-7" />
  <path
     inkscape:connector-curvature="0"
     d="M 212.85681,0 V -78.25618"
     style="fill:none;stroke:#c5932a;stroke-width:5;stroke-linecap:round"
     id="path184-8" />
  <path
     inkscape:connector-curvature="0"
     d="M 300.50373,0 V -78.25618"
     style="fill:none;stroke:#c5932a;stroke-width:5;stroke-linecap:round"
     id="path188-4" />
  <path
     inkscape:connector-curvature="0"
     d="M 388.15065,0 V -78.25618"
     style="fill:none;stroke:#c5932a;stroke-width:5;stroke-linecap:round"
     id="path192-5" />
  <path
     inkscape:connector-curvature="0"
     d="M 475.79757,0 V -78.25618"
     style="fill:none;stroke:#c5932a;stroke-width:5;stroke-linecap:round"
     id="path196-0" />
  <path
     inkscape:connector-curvature="0"
     d="M 563.44448,0 V -78.25618"
     style="fill:none;stroke:#c5932a;stroke-width:5;stroke-linecap:round"
     id="path200-3" />
  <path
     inkscape:connector-curvature="0"
     d="M 651.0914,0 V -78.25618"
     style="fill:none;stroke:#c5932a;stroke-width:5;stroke-linecap:round"
     id="path204-6" />
  <path
     inkscape:connector-curvature="0"
     d="M 738.73836,0 V -78.25618"
     style="fill:none;stroke:#c5932a;stroke-width:5;stroke-linecap:round"
     id="path208-1" />
  <path
     inkscape:connector-curvature="0"
     d="m 36.85729,-79.25859 -8.8226,0.6932 9.52829,0.30921 z"
     style="fill:#c5932a"
     id="path284-7" />
  <path
     inkscape:connector-curvature="0"
     d="m 46.6559,-78.56539 -9.79861,-0.6932 0.70569,1.00241 z"
     style="fill:#c5932a"
     id="path286-4" />
  <path
     inkscape:connector-curvature="0"
     d="m 28.03469,-78.56539 8.8226,-0.6932 0.70569,-18.56163 z"
     style="fill:#c5932a"
     id="path288-5" />
  <path
     inkscape:connector-curvature="0"
     d="m 36.85729,-79.25859 9.79861,0.6932 -9.09292,-19.25483 z"
     style="fill:#c5932a"
     id="path290-2" />
  <path
     inkscape:connector-curvature="0"
     d="m 115.75087,-78.56539 8.97787,-0.6932 0.48116,-18.56163 z"
     style="fill:#c5932a"
     id="path300-5" />
  <path
     inkscape:connector-curvature="0"
     d="m 124.72874,-79.25859 -8.97787,0.6932 9.45903,0.30921 z"
     style="fill:#c5932a"
     id="path302-4" />
  <path
     inkscape:connector-curvature="0"
     d="m 134.37208,-78.56539 -9.64334,-0.6932 0.48116,1.00241 z"
     style="fill:#c5932a"
     id="path304-7" />
  <path
     inkscape:connector-curvature="0"
     d="m 124.72874,-79.25859 9.64334,0.6932 -9.16218,-19.25483 z"
     style="fill:#c5932a"
     id="path306-4" />
  <path
     inkscape:connector-curvature="0"
     d="m 212.6002,-79.25859 9.48806,0.6932 -9.23145,-19.25483 z"
     style="fill:#c5932a"
     id="path316-4" />
  <path
     inkscape:connector-curvature="0"
     d="m 203.46705,-78.56539 9.13315,-0.6932 0.25661,-18.56163 z"
     style="fill:#c5932a"
     id="path318-3" />
  <path
     inkscape:connector-curvature="0"
     d="m 222.08826,-78.56539 -9.48806,-0.6932 0.25661,1.00241 z"
     style="fill:#c5932a"
     id="path320-0" />
  <path
     inkscape:connector-curvature="0"
     d="m 212.6002,-79.25859 -9.13315,0.6932 9.38976,0.30921 z"
     style="fill:#c5932a"
     id="path322-7" />
  <path
     inkscape:connector-curvature="0"
     d="m 300.47165,-79.25859 9.33279,0.6932 -9.30071,-19.25483 z"
     style="fill:#c5932a"
     id="path332-8" />
  <path
     inkscape:connector-curvature="0"
     d="m 291.18323,-78.56539 9.28842,-0.6932 0.0321,-18.56163 z"
     style="fill:#c5932a"
     id="path334-6" />
  <path
     inkscape:connector-curvature="0"
     d="m 309.80444,-78.56539 -9.33279,-0.6932 0.0321,1.00241 z"
     style="fill:#c5932a"
     id="path336-8" />
  <path
     inkscape:connector-curvature="0"
     d="m 300.47165,-79.25859 -9.28842,0.6932 9.3205,0.30921 z"
     style="fill:#c5932a"
     id="path338-8" />
  <path
     inkscape:connector-curvature="0"
     d="m 397.52062,-78.56539 -9.17751,-0.6932 -0.19246,1.00241 z"
     style="fill:#c5932a"
     id="path348-4" />
  <path
     inkscape:connector-curvature="0"
     d="m 388.34311,-79.25859 -9.4437,0.6932 9.25124,0.30921 z"
     style="fill:#c5932a"
     id="path350-3" />
  <path
     inkscape:connector-curvature="0"
     d="m 388.34311,-79.25859 9.17751,0.6932 -9.36997,-19.25483 z"
     style="fill:#c5932a"
     id="path352-1" />
  <path
     inkscape:connector-curvature="0"
     d="m 378.89941,-78.56539 9.4437,-0.6932 -0.19246,-18.56163 z"
     style="fill:#c5932a"
     id="path354-4" />
  <path
     inkscape:connector-curvature="0"
     d="m 485.23681,-78.56539 -9.02224,-0.6932 -0.417,1.00241 z"
     style="fill:#c5932a"
     id="path364-9" />
  <path
     inkscape:connector-curvature="0"
     d="m 466.61559,-78.56539 9.59898,-0.6932 -0.417,-18.56163 z"
     style="fill:#c5932a"
     id="path366-2" />
  <path
     inkscape:connector-curvature="0"
     d="m 476.21457,-79.25859 9.02224,0.6932 -9.43924,-19.25483 z"
     style="fill:#c5932a"
     id="path368-0" />
  <path
     inkscape:connector-curvature="0"
     d="m 476.21457,-79.25859 -9.59898,0.6932 9.18198,0.30921 z"
     style="fill:#c5932a"
     id="path370-6" />
  <path
     inkscape:connector-curvature="0"
     d="m 572.95299,-78.56539 -8.86697,-0.6932 -0.64154,1.00241 z"
     style="fill:#c5932a"
     id="path380-8" />
  <path
     inkscape:connector-curvature="0"
     d="m 564.08602,-79.25859 -9.75425,0.6932 9.11271,0.30921 z"
     style="fill:#c5932a"
     id="path382-9" />
  <path
     inkscape:connector-curvature="0"
     d="m 564.08602,-79.25859 8.86697,0.6932 -9.50851,-19.25483 z"
     style="fill:#c5932a"
     id="path384-2" />
  <path
     inkscape:connector-curvature="0"
     d="m 554.33177,-78.56539 9.75425,-0.6932 -0.64154,-18.56163 z"
     style="fill:#c5932a"
     id="path386-6" />
  <path
     inkscape:connector-curvature="0"
     d="m 651.95748,-79.25859 -9.90953,0.6932 9.04345,0.30921 z"
     style="fill:#c5932a"
     id="path396-6" />
  <path
     inkscape:connector-curvature="0"
     d="m 660.66917,-78.56539 -8.71169,-0.6932 -0.86608,1.00241 z"
     style="fill:#c5932a"
     id="path398-4" />
  <path
     inkscape:connector-curvature="0"
     d="m 651.95748,-79.25859 8.71169,0.6932 -9.57777,-19.25483 z"
     style="fill:#c5932a"
     id="path400-9" />
  <path
     inkscape:connector-curvature="0"
     d="m 642.04795,-78.56539 9.90953,-0.6932 -0.86608,-18.56163 z"
     style="fill:#c5932a"
     id="path402-5" />
  <path
     inkscape:connector-curvature="0"
     d="m 739.82896,-79.25859 8.5564,0.6932 -9.647,-19.25483 z"
     style="fill:#c5932a"
     id="path412-0" />
  <path
     inkscape:connector-curvature="0"
     d="m 739.82896,-79.25859 -10.0648,0.6932 8.9742,0.30921 z"
     style="fill:#c5932a"
     id="path414-4" />
  <path
     inkscape:connector-curvature="0"
     d="m 748.38536,-78.56539 -8.5564,-0.6932 -1.0906,1.00241 z"
     style="fill:#c5932a"
     id="path416-8" />
  <path
     inkscape:connector-curvature="0"
     d="m 729.76416,-78.56539 10.0648,-0.6932 -1.0906,-18.56163 z"
     style="fill:#c5932a"
     id="path418-7" />
  <circle
     style="fill:#590000;fill-opacity:1;stroke:#580000;stroke-width:2.35059786;stroke-miterlimit:4;stroke-dasharray:none;stroke-dashoffset:0;stroke-opacity:1"
     id="path2541-6-1"
     cx="-0.87117982"
     cy="0.29384869"
     r="3.8247011" />
  <circle
     style="fill:#590000;fill-opacity:1;stroke:#580000;stroke-width:2.35059786;stroke-miterlimit:4;stroke-dasharray:none;stroke-dashoffset:0;stroke-opacity:1"
     id="path2541-6-7"
     cx="469.83099"
     cy="-313.25568"
     r="3.8247011" />
  <circle
     style="fill:#590000;fill-opacity:1;stroke:#580000;stroke-width:2.35059786;stroke-miterlimit:4;stroke-dasharray:none;stroke-dashoffset:0;stroke-opacity:1"
     id="path2541-6-2"
     cx="781.85815"
     cy="-0.71951562"
     r="3.8247011" />
  <g
     id="g5271"
     transform="matrix(5,0,0,5,-1170.5454,-641.29673)"
     ns0:preamble=""
     ns0:text="$L$">
    <defs
       id="defs5264">
      <g
         id="g1693">
        <symbol
           style="overflow:visible"
           id="symbol1687"
           overflow="visible">
          <path
             inkscape:connector-curvature="0"
             id="path1685"
             d=""
             style="stroke:none" />
        </symbol>
        <symbol
           style="overflow:visible"
           id="symbol1691"
           overflow="visible">
          <path
             inkscape:connector-curvature="0"
             id="path1689"
             d="M 3.734375,-6.03125 C 3.8125,-6.390625 3.84375,-6.5 4.78125,-6.5 c 0.296875,0 0.375,0 0.375,-0.1875 0,-0.125 -0.109375,-0.125 -0.15625,-0.125 -0.328125,0 -1.140625,0.03125 -1.46875,0.03125 -0.296875,0 -1.03125,-0.03125 -1.328125,-0.03125 -0.0625,0 -0.1875,0 -0.1875,0.203125 0,0.109375 0.09375,0.109375 0.28125,0.109375 0.015625,0 0.203125,0 0.375,0.015625 0.171875,0.03125 0.265625,0.03125 0.265625,0.171875 0,0.03125 0,0.0625 -0.03125,0.1875 L 1.5625,-0.78125 c -0.09375,0.390625 -0.109375,0.46875 -0.90625,0.46875 -0.171875,0 -0.265625,0 -0.265625,0.203125 C 0.390625,0 0.484375,0 0.65625,0 h 4.625 C 5.515625,0 5.515625,0 5.578125,-0.171875 L 6.375,-2.328125 c 0.03125,-0.109375 0.03125,-0.125 0.03125,-0.140625 0,-0.03125 -0.03125,-0.109375 -0.109375,-0.109375 -0.09375,0 -0.109375,0.0625 -0.171875,0.21875 -0.34375,0.90625 -0.78125,2.046875 -2.5,2.046875 H 2.6875 c -0.140625,0 -0.171875,0 -0.21875,0 -0.109375,-0.015625 -0.140625,-0.03125 -0.140625,-0.109375 0,-0.03125 0,-0.046875 0.046875,-0.21875 z m 0,0"
             style="stroke:none" />
        </symbol>
      </g>
    </defs>
    <g
       id="textext-5328596a-2">
      <g
         id="g5268"
         style="fill:#000000;fill-opacity:1">
        <use
           height="100%"
           width="100%"
           id="use5266"
           y="134.765"
           x="223.43201"
           xlink:href="#textext-5328596a-1" />
      </g>
    </g>
  </g>
  <g
     ns0:text="$R\'$"
     ns0:preamble=""
     transform="matrix(5,0,0,5,-610.15653,-960.17)"
     id="g5876">
    <defs
       id="defs5865">
      <g
         id="g1716">
        <symbol
           style="overflow:visible"
           overflow="visible"
           id="symbol1702">
          <path
             inkscape:connector-curvature="0"
             style="stroke:none"
             d=""
             id="path1700" />
        </symbol>
        <symbol
           style="overflow:visible"
           overflow="visible"
           id="symbol1706">
          <path
             inkscape:connector-curvature="0"
             style="stroke:none"
             d="m 3.734375,-6.125 c 0.0625,-0.234375 0.09375,-0.328125 0.28125,-0.359375 C 4.109375,-6.5 4.421875,-6.5 4.625,-6.5 c 0.703125,0 1.8125,0 1.8125,0.984375 0,0.34375 -0.15625,1.03125 -0.546875,1.421875 -0.265625,0.25 -0.78125,0.578125 -1.6875,0.578125 H 3.09375 Z m 1.4375,2.734375 c 1.015625,-0.21875 2.1875,-0.921875 2.1875,-1.921875 0,-0.859375 -0.890625,-1.5 -2.203125,-1.5 H 2.328125 c -0.203125,0 -0.296875,0 -0.296875,0.203125 C 2.03125,-6.5 2.125,-6.5 2.3125,-6.5 c 0.015625,0 0.203125,0 0.375,0.015625 0.1875,0.03125 0.265625,0.03125 0.265625,0.171875 0,0.03125 0,0.0625 -0.03125,0.1875 l -1.34375,5.34375 C 1.484375,-0.390625 1.46875,-0.3125 0.671875,-0.3125 0.5,-0.3125 0.40625,-0.3125 0.40625,-0.109375 0.40625,0 0.53125,0 0.546875,0 c 0.28125,0 0.984375,-0.03125 1.25,-0.03125 0.28125,0 1,0.03125 1.28125,0.03125 0.078125,0 0.1875,0 0.1875,-0.203125 0,-0.109375 -0.078125,-0.109375 -0.28125,-0.109375 -0.359375,0 -0.640625,0 -0.640625,-0.171875 0,-0.0625 0.015625,-0.109375 0.03125,-0.171875 l 0.65625,-2.640625 h 1.1875 c 0.90625,0 1.078125,0.5625 1.078125,0.90625 0,0.140625 -0.078125,0.453125 -0.140625,0.6875 C 5.09375,-1.421875 5,-1.0625 5,-0.859375 5,0.21875 6.203125,0.21875 6.328125,0.21875 c 0.84375,0 1.203125,-1 1.203125,-1.140625 0,-0.125 -0.109375,-0.125 -0.125,-0.125 -0.09375,0 -0.109375,0.0625 -0.125,0.140625 C 7.03125,-0.171875 6.59375,0 6.375,0 6.046875,0 5.96875,-0.21875 5.96875,-0.609375 c 0,-0.3125 0.0625,-0.8125 0.109375,-1.140625 0.015625,-0.140625 0.03125,-0.328125 0.03125,-0.46875 0,-0.765625 -0.671875,-1.078125 -0.9375,-1.171875 z m 0,0"
             id="path1704" />
        </symbol>
        <symbol
           style="overflow:visible"
           overflow="visible"
           id="symbol1710">
          <path
             inkscape:connector-curvature="0"
             style="stroke:none"
             d=""
             id="path1708" />
        </symbol>
        <symbol
           style="overflow:visible"
           overflow="visible"
           id="symbol1714">
          <path
             inkscape:connector-curvature="0"
             style="stroke:none"
             d="m 2.015625,-3.296875 c 0.0625,-0.109375 0.0625,-0.171875 0.0625,-0.21875 0,-0.21875 -0.1875,-0.375 -0.40625,-0.375 -0.265625,0 -0.34375,0.21875 -0.375,0.328125 L 0.375,-0.546875 c -0.015625,0.015625 -0.046875,0.09375 -0.046875,0.109375 0,0.078125 0.21875,0.15625 0.28125,0.15625 0.046875,0 0.046875,-0.015625 0.09375,-0.125 z m 0,0"
             id="path1712" />
        </symbol>
      </g>
    </defs>
    <g
       id="textext-e0c4fa52-4">
      <g
         style="fill:#000000;fill-opacity:1"
         id="g5869">
        <use
           height="100%"
           width="100%"
           xlink:href="#textext-e0c4fa52-1"
           x="223.43201"
           y="134.765"
           id="use5867" />
      </g>
      <g
         style="fill:#000000;fill-opacity:1"
         id="g5873">
        <use
           height="100%"
           width="100%"
           xlink:href="#textext-e0c4fa52-3"
           x="231.07401"
           y="131.14999"
           id="use5871" />
      </g>
    </g>
  </g>
  <g
     id="g6471"
     transform="matrix(5,0,0,5,-379.79959,-628.78414)"
     ns0:preamble=""
     ns0:text="$R$">
    <defs
       id="defs6464">
      <g
         id="g1733">
        <symbol
           style="overflow:visible"
           id="symbol1727"
           overflow="visible">
          <path
             inkscape:connector-curvature="0"
             id="path1725"
             d=""
             style="stroke:none" />
        </symbol>
        <symbol
           style="overflow:visible"
           id="symbol1731"
           overflow="visible">
          <path
             inkscape:connector-curvature="0"
             id="path1729"
             d="m 3.734375,-6.125 c 0.0625,-0.234375 0.09375,-0.328125 0.28125,-0.359375 C 4.109375,-6.5 4.421875,-6.5 4.625,-6.5 c 0.703125,0 1.8125,0 1.8125,0.984375 0,0.34375 -0.15625,1.03125 -0.546875,1.421875 -0.265625,0.25 -0.78125,0.578125 -1.6875,0.578125 H 3.09375 Z m 1.4375,2.734375 c 1.015625,-0.21875 2.1875,-0.921875 2.1875,-1.921875 0,-0.859375 -0.890625,-1.5 -2.203125,-1.5 H 2.328125 c -0.203125,0 -0.296875,0 -0.296875,0.203125 C 2.03125,-6.5 2.125,-6.5 2.3125,-6.5 c 0.015625,0 0.203125,0 0.375,0.015625 0.1875,0.03125 0.265625,0.03125 0.265625,0.171875 0,0.03125 0,0.0625 -0.03125,0.1875 l -1.34375,5.34375 C 1.484375,-0.390625 1.46875,-0.3125 0.671875,-0.3125 0.5,-0.3125 0.40625,-0.3125 0.40625,-0.109375 0.40625,0 0.53125,0 0.546875,0 c 0.28125,0 0.984375,-0.03125 1.25,-0.03125 0.28125,0 1,0.03125 1.28125,0.03125 0.078125,0 0.1875,0 0.1875,-0.203125 0,-0.109375 -0.078125,-0.109375 -0.28125,-0.109375 -0.359375,0 -0.640625,0 -0.640625,-0.171875 0,-0.0625 0.015625,-0.109375 0.03125,-0.171875 l 0.65625,-2.640625 h 1.1875 c 0.90625,0 1.078125,0.5625 1.078125,0.90625 0,0.140625 -0.078125,0.453125 -0.140625,0.6875 C 5.09375,-1.421875 5,-1.0625 5,-0.859375 5,0.21875 6.203125,0.21875 6.328125,0.21875 c 0.84375,0 1.203125,-1 1.203125,-1.140625 0,-0.125 -0.109375,-0.125 -0.125,-0.125 -0.09375,0 -0.109375,0.0625 -0.125,0.140625 C 7.03125,-0.171875 6.59375,0 6.375,0 6.046875,0 5.96875,-0.21875 5.96875,-0.609375 c 0,-0.3125 0.0625,-0.8125 0.109375,-1.140625 0.015625,-0.140625 0.03125,-0.328125 0.03125,-0.46875 0,-0.765625 -0.671875,-1.078125 -0.9375,-1.171875 z m 0,0"
             style="stroke:none" />
        </symbol>
      </g>
    </defs>
    <g
       id="textext-3a2c719b-2">
      <g
         id="g6468"
         style="fill:#000000;fill-opacity:1">
        <use
           height="100%"
           width="100%"
           id="use6466"
           y="134.765"
           x="223.43201"
           xlink:href="#textext-3a2c719b-1" />
      </g>
    </g>
  </g>
  <g
     ns0:text="$L\'$"
     ns0:preamble=""
     transform="matrix(5,0,0,5,-1744.5235,-921.05615)"
     id="g7064">
    <defs
       id="defs7053">
      <g
         id="g1756">
        <symbol
           style="overflow:visible"
           overflow="visible"
           id="symbol1742">
          <path
             inkscape:connector-curvature="0"
             style="stroke:none"
             d=""
             id="path1740" />
        </symbol>
        <symbol
           style="overflow:visible"
           overflow="visible"
           id="symbol1746">
          <path
             inkscape:connector-curvature="0"
             style="stroke:none"
             d="M 3.734375,-6.03125 C 3.8125,-6.390625 3.84375,-6.5 4.78125,-6.5 c 0.296875,0 0.375,0 0.375,-0.1875 0,-0.125 -0.109375,-0.125 -0.15625,-0.125 -0.328125,0 -1.140625,0.03125 -1.46875,0.03125 -0.296875,0 -1.03125,-0.03125 -1.328125,-0.03125 -0.0625,0 -0.1875,0 -0.1875,0.203125 0,0.109375 0.09375,0.109375 0.28125,0.109375 0.015625,0 0.203125,0 0.375,0.015625 0.171875,0.03125 0.265625,0.03125 0.265625,0.171875 0,0.03125 0,0.0625 -0.03125,0.1875 L 1.5625,-0.78125 c -0.09375,0.390625 -0.109375,0.46875 -0.90625,0.46875 -0.171875,0 -0.265625,0 -0.265625,0.203125 C 0.390625,0 0.484375,0 0.65625,0 h 4.625 C 5.515625,0 5.515625,0 5.578125,-0.171875 L 6.375,-2.328125 c 0.03125,-0.109375 0.03125,-0.125 0.03125,-0.140625 0,-0.03125 -0.03125,-0.109375 -0.109375,-0.109375 -0.09375,0 -0.109375,0.0625 -0.171875,0.21875 -0.34375,0.90625 -0.78125,2.046875 -2.5,2.046875 H 2.6875 c -0.140625,0 -0.171875,0 -0.21875,0 -0.109375,-0.015625 -0.140625,-0.03125 -0.140625,-0.109375 0,-0.03125 0,-0.046875 0.046875,-0.21875 z m 0,0"
             id="path1744" />
        </symbol>
        <symbol
           style="overflow:visible"
           overflow="visible"
           id="symbol1750">
          <path
             inkscape:connector-curvature="0"
             style="stroke:none"
             d=""
             id="path1748" />
        </symbol>
        <symbol
           style="overflow:visible"
           overflow="visible"
           id="symbol1754">
          <path
             inkscape:connector-curvature="0"
             style="stroke:none"
             d="m 2.015625,-3.296875 c 0.0625,-0.109375 0.0625,-0.171875 0.0625,-0.21875 0,-0.21875 -0.1875,-0.375 -0.40625,-0.375 -0.265625,0 -0.34375,0.21875 -0.375,0.328125 L 0.375,-0.546875 c -0.015625,0.015625 -0.046875,0.09375 -0.046875,0.109375 0,0.078125 0.21875,0.15625 0.28125,0.15625 0.046875,0 0.046875,-0.015625 0.09375,-0.125 z m 0,0"
             id="path1752" />
        </symbol>
      </g>
    </defs>
    <g
       id="textext-d9e0ea7a-4">
      <g
         style="fill:#000000;fill-opacity:1"
         id="g7057">
        <use
           height="100%"
           width="100%"
           xlink:href="#textext-d9e0ea7a-1"
           x="223.43201"
           y="134.765"
           id="use7055" />
      </g>
      <g
         style="fill:#000000;fill-opacity:1"
         id="g7061">
        <use
           height="100%"
           width="100%"
           xlink:href="#textext-d9e0ea7a-3"
           x="230.21201"
           y="131.14999"
           id="use7059" />
      </g>
    </g>
  </g>
</svg>
