<svg viewBox="-1163.5 -590 2327 1180" width="2327" height="1180" style="background-color: rgb(255, 255, 255);">
    <path d="M-139.22149829031247,-11.8585151758396L-139.22149829031247,-11.8585151758396" style="fill:none;stroke:rgb(0,0,0);stroke-width:1;stroke-linecap:round">
    </path>
    <path d="M-8.764780625953742,45.66831198465309L-139.22149829031247,-11.8585151758396" style="fill:none;stroke:rgb(160,0,0);stroke-width:4;stroke-linecap:round">
    </path>
    <path d="M-8.764780625953742,45.66831198465309L-139.22149829031247,-11.8585151758396" style="fill:none;stroke:rgb(0,0,0);stroke-width:1;stroke-linecap:round">
    </path>
    <path d="M-139.22149829031247,-11.8585151758396L-265.01485691291924,26.35703319788878" style="fill:none;stroke:rgb(0,0,0);stroke-width:1;stroke-linecap:round">
    </path>
    <path d="M-8.764780625953742,45.66831198465309L-139.22149829031247,-11.8585151758396" style="fill:none;stroke:rgb(0,0,0);stroke-width:1;stroke-linecap:round">
    </path>
    <path d="M-265.01485691291924,26.35703319788878L-139.22149829031247,-11.8585151758396" style="fill:none;stroke:rgb(0,0,0);stroke-width:1;stroke-linecap:round">
    </path>
    <path d="M-8.764780625953742,45.66831198465309L-139.22149829031247,-11.8585151758396" style="fill:none;stroke:rgb(0,0,0);stroke-width:1;stroke-linecap:round">
    </path>
    <path d="M-139.22149829031247,-11.8585151758396L-265.01485691291924,26.35703319788878" style="fill:none;stroke:rgb(0,0,0);stroke-width:1;stroke-linecap:round">
    </path>
    <path d="M-8.764780625953742,45.66831198465309L-139.22149829031247,-11.8585151758396" style="fill:none;stroke:rgb(0,0,0);stroke-width:1;stroke-linecap:round">
    </path>
    <path d="M-265.01485691291924,26.35703319788878L-139.22149829031247,-11.8585151758396" style="fill:none;stroke:rgb(0,0,0);stroke-width:1;stroke-linecap:round">
    </path>
    <path d="M-8.764780625953742,45.66831198465309L-139.22149829031247,-11.8585151758396" style="fill:none;stroke:rgb(0,0,0);stroke-width:1;stroke-linecap:round">
    </path>
    <path d="M-139.22149829031247,-11.8585151758396L-588.646896494547,124.67522741213739" style="fill:none;stroke:rgb(0,0,0);stroke-width:1;stroke-linecap:round">
    </path>
    <path d="M-8.764780625953742,45.66831198465309L-139.22149829031247,-11.8585151758396" style="fill:none;stroke:rgb(0,0,0);stroke-width:1;stroke-linecap:round">
    </path>
    <path d="M-139.22149829031247,-11.8585151758396L-139.22149829031247,-11.8585151758396L-8.764780625953742,45.66831198465309z" style="fill:rgb(0,0,0); fill-opacity: 0.18">
    </path>
    <path d="M-139.22149829031247,-11.8585151758396L-265.01485691291924,26.35703319788878L-8.764780625953742,45.66831198465309z" style="fill:rgb(0,0,0); fill-opacity: 0.18">
    </path>
    <path d="M-139.22149829031247,-11.8585151758396L-265.01485691291924,26.35703319788878L-8.764780625953742,45.66831198465309z" style="fill:rgb(0,0,0); fill-opacity: 0.18">
    </path>
    <path d="M-136.44637437819742,87.37641375499172L-265.01485691291924,26.35703319788878" style="fill:none;stroke:rgb(0,0,0);stroke-width:1;stroke-linecap:round">
    </path>
    <path d="M-136.44637437819742,87.37641375499172L-265.01485691291924,26.35703319788878" style="fill:none;stroke:rgb(0,0,0);stroke-width:1;stroke-linecap:round">
    </path>
    <path d="M-136.44637437819742,87.37641375499172L-265.01485691291924,26.35703319788878" style="fill:none;stroke:rgb(0,0,0);stroke-width:1;stroke-linecap:round">
    </path>
    <path d="M-136.44637437819742,87.37641375499172L-265.01485691291924,26.35703319788878" style="fill:none;stroke:rgb(0,0,0);stroke-width:1;stroke-linecap:round">
    </path>
    <path d="M-8.764780625953742,45.66831198465309L-8.764780625953742,45.66831198465309L-139.22149829031247,-11.8585151758396z" style="fill:rgb(0,0,0); fill-opacity: 0.18">
    </path>
    <path d="M-265.01485691291924,26.35703319788878L-139.22149829031247,-11.8585151758396L-136.44637437819742,87.37641375499172z" style="fill:rgb(0,0,0); fill-opacity: 0.18">
    </path>
    <path d="M-265.01485691291924,26.35703319788878L-139.22149829031247,-11.8585151758396L-136.44637437819742,87.37641375499172z" style="fill:rgb(0,0,0); fill-opacity: 0.18">
    </path>
    <path d="M-136.44637437819742,87.37641375499172L-8.764780625953742,45.66831198465309L-139.22149829031247,-11.8585151758396z" style="fill:rgb(0,0,0); fill-opacity: 0.18">
    </path>
    <path d="M-136.44637437819742,87.37641375499172L-8.764780625953742,45.66831198465309L-139.22149829031247,-11.8585151758396z" style="fill:rgb(0,0,0); fill-opacity: 0.18">
    </path>
    <path d="M-8.764780625953625,45.66831198465312L-8.764780625953625,45.66831198465312" style="fill:none;stroke:rgb(0,0,0);stroke-width:1;stroke-linecap:round">
    </path>
    <path d="M-27.412704552006996,56.627320886424506L-8.764780625953625,45.66831198465312" style="fill:none;stroke:rgb(160,0,0);stroke-width:4;stroke-linecap:round">
    </path>
    <path d="M-27.709358772372404,26.260116374552812L-8.764780625953625,45.66831198465312" style="fill:none;stroke:rgb(0,0,0);stroke-width:1;stroke-linecap:round">
    </path>
    <path d="M-8.764780625953625,45.66831198465312L-136.4463743781973,87.37641375499177" style="fill:none;stroke:rgb(0,0,0);stroke-width:1;stroke-linecap:round">
    </path>
    <path d="M-27.709358772372404,26.260116374552812L-8.764780625953625,45.66831198465312" style="fill:none;stroke:rgb(0,0,0);stroke-width:1;stroke-linecap:round">
    </path>
    <path d="M-136.4463743781973,87.37641375499177L-8.764780625953625,45.66831198465312" style="fill:none;stroke:rgb(0,0,0);stroke-width:1;stroke-linecap:round">
    </path>
    <path d="M-2.666632644311838,18.229887187291112L-8.764780625953625,45.66831198465312" style="fill:none;stroke:rgb(0,0,0);stroke-width:1;stroke-linecap:round">
    </path>
    <path d="M-8.764780625953625,45.66831198465312L-136.4463743781973,87.37641375499177" style="fill:none;stroke:rgb(0,0,0);stroke-width:1;stroke-linecap:round">
    </path>
    <path d="M-2.666632644311838,18.229887187291112L-8.764780625953625,45.66831198465312" style="fill:none;stroke:rgb(0,0,0);stroke-width:1;stroke-linecap:round">
    </path>
    <path d="M-136.4463743781973,87.37641375499177L-8.764780625953625,45.66831198465312" style="fill:none;stroke:rgb(0,0,0);stroke-width:1;stroke-linecap:round">
    </path>
    <path d="M-2.666632644311838,18.229887187291112L-8.764780625953625,45.66831198465312" style="fill:none;stroke:rgb(0,0,0);stroke-width:1;stroke-linecap:round">
    </path>
    <path d="M-8.764780625953625,45.66831198465312L-466.45385693829996,195.1757077886955" style="fill:none;stroke:rgb(0,0,0);stroke-width:1;stroke-linecap:round">
    </path>
    <path d="M-2.666632644311838,18.229887187291112L-8.764780625953625,45.66831198465312" style="fill:none;stroke:rgb(0,0,0);stroke-width:1;stroke-linecap:round">
    </path>
    <path d="M-8.764780625953625,45.66831198465312L-8.764780625953625,45.66831198465312L-27.709358772372404,26.260116374552812z" style="fill:rgb(0,0,0); fill-opacity: 0.18">
    </path>
    <path d="M-8.764780625953742,45.66831198465309L-136.44637437819742,87.37641375499172L-265.01485691291924,26.35703319788878z" style="fill:rgb(0,0,0); fill-opacity: 0.18">
    </path>
    <path d="M-8.764780625953742,45.66831198465309L-136.44637437819742,87.37641375499172L-265.01485691291924,26.35703319788878z" style="fill:rgb(0,0,0); fill-opacity: 0.18">
    </path>
    <path d="M-2.666632644311838,18.229887187291112L-130.90717833112825,59.35164716256554" style="fill:none;stroke:rgb(0,44,41);stroke-width:5;stroke-linecap:round">
    </path>
    <path d="M-2.6666326443118207,18.229887187291105L-3.0129837249703306,-32.61619474257532" style="fill:none;stroke:rgb(43,180,168);stroke-width:5;stroke-linecap:round">
    </path>
    <path d="M-130.90717833112825,59.35164716256554L-2.666632644311838,18.229887187291112" style="fill:none;stroke:rgb(10,15,55);stroke-width:5;stroke-linecap:round">
    </path>
    <path d="M-2.666632644311838,18.229887187291112L-3.012983724970348,-32.61619474257531" style="fill:none;stroke:rgb(74,87,214);stroke-width:5;stroke-linecap:round">
    </path>
    <path d="M-2.666632644311838,18.229887187291112L-130.90717833112825,59.35164716256554" style="fill:none;stroke:rgb(40,0,38);stroke-width:5;stroke-linecap:round">
    </path>
    <path d="M-2.6666326443118207,18.229887187291105L-3.0129837249703306,-32.61619474257532" style="fill:none;stroke:rgb(167,41,160);stroke-width:5;stroke-linecap:round">
    </path>
    <path d="M-462.56113802628175,165.70018500129294L-2.666632644311838,18.229887187291112" style="fill:none;stroke:rgb(55,17,8);stroke-width:5;stroke-linecap:round">
    </path>
    <path d="M-2.666632644311838,18.229887187291112L-3.012983724970348,-32.61619474257531" style="fill:none;stroke:rgb(214,94,68);stroke-width:5;stroke-linecap:round">
    </path>
    <path d="M-27.709358772372404,26.260116374552812L-27.412704552006996,56.627320886424506L-8.764780625953625,45.66831198465312z" style="fill:rgb(0,0,0); fill-opacity: 0.18">
    </path>
    <path d="M-27.709358772372404,26.260116374552812L-27.412704552006996,56.627320886424506" style="fill:none;stroke:rgb(50,34,0);stroke-width:5;stroke-linecap:round">
    </path>
    <path d="M-27.412704552006996,56.627320886424506L-69.65772428421772,70.47512916136117" style="fill:none;stroke:rgb(197,147,42);stroke-width:5;stroke-linecap:round">
    </path>
    <path d="M-16.821760135989507,22.768886549893L-17.254281193035375,-28.22054683401755" style="fill:none;stroke:rgb(43,180,168);stroke-width:5;stroke-linecap:round">
    </path>
    <path d="M-25.844211095407275,25.662035988354905L-26.331953462388196,-25.418677747662805" style="fill:none;stroke:rgb(214,94,68);stroke-width:5;stroke-linecap:round">
    </path>
    <path d="M-26.54968797770143,25.888255011881633L-27.041757907417672,-25.199593044792483" style="fill:none;stroke:rgb(167,41,160);stroke-width:5;stroke-linecap:round">
    </path>
    <path d="M-27.709358772372404,26.260116374552812L-70.11052999315744,39.85652440816963" style="fill:none;stroke:rgb(197,147,42);stroke-width:5;stroke-linecap:round">
    </path>
    <path d="M-130.90717833112825,59.35164716256554L-27.709358772372404,26.260116374552812" style="fill:none;stroke:rgb(22,55,11);stroke-width:5;stroke-linecap:round">
    </path>
    <path d="M-27.709358772372404,26.260116374552812L-28.208545467470568,-24.83945821089981" style="fill:none;stroke:rgb(109,213,75);stroke-width:5;stroke-linecap:round">
    </path>
    <path d="M-8.764780625953625,45.66831198465312L-136.4463743781973,87.37641375499177L-2.666632644311838,18.229887187291112z" style="fill:rgb(0,0,0); fill-opacity: 0.18">
    </path>
    <path d="M-8.764780625953625,45.66831198465312L-136.4463743781973,87.37641375499177L-2.666632644311838,18.229887187291112z" style="fill:rgb(0,0,0); fill-opacity: 0.18">
    </path>
    <path d="M-30.72165932785916,27.22604411411987L-31.239349996190256,-23.90398518831964" style="fill:none;stroke:rgb(74,87,214);stroke-width:5;stroke-linecap:round">
    </path>
    <path d="M-2.4967555959217655,-30.180214510380626L3.639521557633542,-32.07795995643705L-3.100220289706104,-45.422961533663646z" style="fill:rgb(43,180,168)">
    </path>
    <path d="M-2.4967555959217993,-30.180214510380615L3.639521557633525,-32.07795995643705L-3.1002202897061215,-45.422961533663646z" style="fill:rgb(74,87,214)">
    </path>
    <path d="M-2.4967555959217655,-30.180214510380626L3.639521557633542,-32.07795995643705L-3.100220289706104,-45.422961533663646z" style="fill:rgb(167,41,160)">
    </path>
    <path d="M-2.4967555959217993,-30.180214510380615L3.639521557633525,-32.07795995643705L-3.1002202897061215,-45.422961533663646z" style="fill:rgb(214,94,68)">
    </path>
    <path d="M-9.348596832703434,-31.650829879588095L-2.4967555959217655,-30.180214510380626L-3.100220289706104,-45.422961533663646z" style="fill:rgb(43,180,168)">
    </path>
    <path d="M-9.348596832703452,-31.650829879588095L-2.4967555959217993,-30.180214510380615L-3.1002202897061215,-45.422961533663646z" style="fill:rgb(74,87,214)">
    </path>
    <path d="M-9.348596832703434,-31.650829879588095L-2.4967555959217655,-30.180214510380626L-3.100220289706104,-45.422961533663646z" style="fill:rgb(167,41,160)">
    </path>
    <path d="M-9.348596832703452,-31.650829879588095L-2.4967555959217993,-30.180214510380615L-3.1002202897061215,-45.422961533663646z" style="fill:rgb(214,94,68)">
    </path>
    <path d="M-37.33628919666264,29.34709888921803L-37.89470260722816,-21.849777216677722" style="fill:none;stroke:rgb(109,213,75);stroke-width:5;stroke-linecap:round">
    </path>
    <path d="M-130.90717833112825,59.35164716256554L-2.666632644311838,18.229887187291112L-8.764780625953625,45.66831198465312z" style="fill:rgb(0,0,0); fill-opacity: 0.18">
    </path>
    <path d="M-130.90717833112825,59.35164716256554L-27.709358772372404,26.260116374552812L-8.764780625953625,45.66831198465312z" style="fill:rgb(0,0,0); fill-opacity: 0.18">
    </path>
    <path d="M-16.76349588690346,-25.767988540177598L-10.585921201423663,-27.678505932673517L-17.363224390575468,-41.06374099325903z" style="fill:rgb(43,180,168)">
    </path>
    <path d="M-23.621466422448382,-27.2487618658476L-16.76349588690346,-25.767988540177598L-17.363224390575468,-41.06374099325903z" style="fill:rgb(43,180,168)">
    </path>
    <path d="M-48.561828187104304,32.946693054119365L-49.18963544353068,-18.363539532890393" style="fill:none;stroke:rgb(74,87,214);stroke-width:5;stroke-linecap:round">
    </path>
    <path d="M-49.27634226328597,33.17580995456873L-49.90857859791991,-18.141634121529545" style="fill:none;stroke:rgb(214,94,68);stroke-width:5;stroke-linecap:round">
    </path>
    <path d="M-56.22096062197748,35.40267921605343L-56.89632024120405,-15.984832607571898" style="fill:none;stroke:rgb(167,41,160);stroke-width:5;stroke-linecap:round">
    </path>
    <path d="M-25.857480926081156,-22.955522893216784L-19.653509963232985,-24.874203772125586L-26.454807734219166,-38.28506852172853z" style="fill:rgb(214,94,68)">
    </path>
    <path d="M-32.71929938344371,-24.442789372360597L-25.857480926081156,-22.955522893216784L-26.454807734219166,-38.28506852172853z" style="fill:rgb(214,94,68)">
    </path>
    <path d="M-69.7517887437737,64.11451477067486L-73.82668747137956,66.61600879561023L-80.34995324256087,73.98001417704899z" style="fill:rgb(197,147,42)">
    </path>
    <path d="M-26.568564023708518,-22.735608655883468L-20.36252669638105,-24.654928592266735L-27.165702375438038,-38.067796865620956z" style="fill:rgb(167,41,160)">
    </path>
    <path d="M-33.43068142243612,-24.223383449836923L-26.568564023708518,-22.735608655883468L-27.165702375438038,-38.067796865620956z" style="fill:rgb(167,41,160)">
    </path>
    <path d="M-27.737454435758433,-22.374109916355135L-21.52801963702253,-24.294480577099794L-28.334282791204792,-37.7106421094771z" style="fill:rgb(109,213,75)">
    </path>
    <path d="M-34.600062628552024,-23.862720475167087L-27.737454435758433,-22.374109916355135L-28.334282791204792,-37.7106421094771z" style="fill:rgb(109,213,75)">
    </path>
    <path d="M-59.94349629917651,36.59635176163829L-60.64202772179986,-14.828701202405266" style="fill:none;stroke:rgb(43,180,168);stroke-width:5;stroke-linecap:round">
    </path>
    <path d="M-60.0323870756315,36.62485557962987L-60.731472300745345,-14.801093684392578" style="fill:none;stroke:rgb(167,41,160);stroke-width:5;stroke-linecap:round">
    </path>
    <path d="M-67.01942730237559,76.79265796283809L-65.5353319684029,70.41049729856653L-80.34995324256087,73.98001417704899z" style="fill:rgb(197,147,42)">
    </path>
    <path d="M-65.5353319684029,70.41049729856653L-69.7517887437737,64.11451477067486L-80.34995324256087,73.98001417704899z" style="fill:rgb(197,147,42)">
    </path>
    <path d="M-30.773726967231728,-21.435092296159933L-24.555462667178045,-23.3581936265757L-31.369748875019116,-36.78290865243781z" style="fill:rgb(74,87,214)">
    </path>
    <path d="M-37.63760648213907,-22.925874905736745L-30.773726967231728,-21.435092296159933L-31.369748875019116,-36.78290865243781z" style="fill:rgb(74,87,214)">
    </path>
    <path d="M-66.34294217189343,38.64840539056854L-67.08140039003585,-12.841156523626674" style="fill:none;stroke:rgb(43,180,168);stroke-width:5;stroke-linecap:round">
    </path>
    <path d="M-37.44111572342578,-19.373091781430244L-31.20344063119871,-21.3021962211466L-38.035360605448545,-34.745689048197576z" style="fill:rgb(109,213,75)">
    </path>
    <path d="M-44.30776896735247,-20.868649570776306L-37.44111572342578,-19.373091781430244L-38.035360605448545,-34.745689048197576z" style="fill:rgb(109,213,75)">
    </path>
    <path d="M-466.4538569383001,195.17570778869543L-8.764780625953742,45.66831198465309L-139.22149829031247,-11.8585151758396z" style="fill:rgb(0,0,0); fill-opacity: 0.18">
    </path>
    <path d="M-136.4463743781973,87.37641375499177L-8.764780625953625,45.66831198465312L-130.90717833112825,59.35164716256554z" style="fill:rgb(0,0,0); fill-opacity: 0.18">
    </path>
    <path d="M-136.4463743781973,87.37641375499177L-8.764780625953625,45.66831198465312L-130.90717833112825,59.35164716256554z" style="fill:rgb(0,0,0); fill-opacity: 0.18">
    </path>
    <path d="M-72.96724282276814,40.77256120970062L-73.7471531740988,-10.783738486405491" style="fill:none;stroke:rgb(214,94,68);stroke-width:5;stroke-linecap:round">
    </path>
    <path d="M-70.2052782135006,33.449674290161965L-74.29406901478414,36.018972277877054L-80.84275887710726,43.297933190406766z" style="fill:rgb(197,147,42)">
    </path>
    <path d="M-67.46277647466664,46.18927032563897L-65.97390203708723,39.74169034579811L-80.84275887710726,43.297933190406766z" style="fill:rgb(197,147,42)">
    </path>
    <path d="M-65.97390203708723,39.74169034579811L-70.2052782135006,33.449674290161965L-80.84275887710726,43.297933190406766z" style="fill:rgb(197,147,42)">
    </path>
    <path d="M-588.646896494547,124.67522741213739L-444.4253299585708,80.86125890982892" style="fill:none;stroke:rgb(0,0,0);stroke-width:1;stroke-linecap:round">
    </path>
    <path d="M-319.12036415945846,147.04817326775824L-444.4253299585708,80.86125890982892" style="fill:none;stroke:rgb(0,0,0);stroke-width:1;stroke-linecap:round">
    </path>
    <path d="M-444.4253299585708,80.86125890982892L-588.646896494547,124.67522741213739" style="fill:none;stroke:rgb(0,0,0);stroke-width:1;stroke-linecap:round">
    </path>
    <path d="M-319.12036415945846,147.04817326775824L-444.4253299585708,80.86125890982892" style="fill:none;stroke:rgb(0,0,0);stroke-width:1;stroke-linecap:round">
    </path>
    <path d="M-588.646896494547,124.67522741213739L-444.4253299585708,80.86125890982892" style="fill:none;stroke:rgb(0,0,0);stroke-width:1;stroke-linecap:round">
    </path>
    <path d="M-319.12036415945846,147.04817326775824L-444.4253299585708,80.86125890982892" style="fill:none;stroke:rgb(0,0,0);stroke-width:1;stroke-linecap:round">
    </path>
    <path d="M-444.4253299585708,80.86125890982892L-588.646896494547,124.67522741213739" style="fill:none;stroke:rgb(0,0,0);stroke-width:1;stroke-linecap:round">
    </path>
    <path d="M-319.12036415945846,147.04817326775824L-444.4253299585708,80.86125890982892" style="fill:none;stroke:rgb(0,0,0);stroke-width:1;stroke-linecap:round">
    </path>
    <path d="M-2.666632644311838,18.229887187291112L-130.90717833112825,59.35164716256554L-136.4463743781973,87.37641375499177z" style="fill:rgb(0,0,0); fill-opacity: 0.18">
    </path>
    <path d="M-2.666632644311838,18.229887187291112L-130.90717833112825,59.35164716256554L-136.4463743781973,87.37641375499177z" style="fill:rgb(0,0,0); fill-opacity: 0.18">
    </path>
    <path d="M-48.756566369054376,-15.873601064917185L-42.4858794363491,-17.81291496362076L-49.34777609811535,-31.288260751292093z" style="fill:rgb(74,87,214)">
    </path>
    <path d="M-55.62787044336863,-17.377280417114907L-48.756566369054376,-15.873601064917185L-49.34777609811535,-31.288260751292093z" style="fill:rgb(74,87,214)">
    </path>
    <path d="M-49.4768193973946,-15.650850874478177L-43.20402824427799,-17.59081553823084L-50.06783511005475,-31.0681881766121z" style="fill:rgb(214,94,68)">
    </path>
    <path d="M-56.34841709768544,-17.155047924942842L-49.4768193973946,-15.650850874478177L-50.06783511005475,-31.0681881766121z" style="fill:rgb(214,94,68)">
    </path>
    <path d="M-56.47731649043192,-13.485831083814796L-50.18405501166775,-15.432126535161434L-57.06644133419404,-28.929195031078883z" style="fill:rgb(167,41,160)">
    </path>
    <path d="M-63.35175306459148,-14.995064534388625L-56.47731649043192,-13.485831083814796L-57.06644133419404,-28.929195031078883z" style="fill:rgb(167,41,160)">
    </path>
    <path d="M-91.54912131587878,46.73104760876437L-92.44597416502515,-5.012253580232198" style="fill:none;stroke:rgb(109,213,75);stroke-width:5;stroke-linecap:round">
    </path>
    <path d="M-91.64524067000944,46.76186935073661L-92.54270098135802,-4.982398363116747" style="fill:none;stroke:rgb(167,41,160);stroke-width:5;stroke-linecap:round">
    </path>
    <path d="M-60.22987944998672,-12.325288773008458L-53.925631301244465,-14.274982034199175L-60.81798688019339,-27.78260527433984z" style="fill:rgb(43,180,168)">
    </path>
    <path d="M-60.3194878864455,-12.297575878371788L-54.01497726716197,-14.247350312929015L-60.907570988907345,-27.75522556638785z" style="fill:rgb(167,41,160)">
    </path>
    <path d="M-67.10582656513942,-13.837225406518602L-60.22987944998672,-12.325288773008458L-60.81798688019339,-27.78260527433984z" style="fill:rgb(43,180,168)">
    </path>
    <path d="M-92.07001013502105,46.89807641295304L-92.97015524990623,-4.850462458697819" style="fill:none;stroke:rgb(109,213,75);stroke-width:5;stroke-linecap:round">
    </path>
    <path d="M-67.19547097650845,-13.809577091411613L-60.3194878864455,-12.297575878371788L-60.907570988907345,-27.75522556638785z" style="fill:rgb(167,41,160)">
    </path>
    <path d="M-93.29845977325097,47.291992478222845L-94.20637232600225,-4.468897856367859" style="fill:none;stroke:rgb(74,87,214);stroke-width:5;stroke-linecap:round">
    </path>
    <path d="M-96.92122309826838,48.453671907304596L-97.85206718490498,-3.34363584862518" style="fill:none;stroke:rgb(214,94,68);stroke-width:5;stroke-linecap:round">
    </path>
    <path d="M-66.68106705050657,-10.33015205017499L-60.35790889623385,-12.285693544094164L-67.26741915835241,-25.811456877966176z" style="fill:rgb(43,180,168)">
    </path>
    <path d="M-73.55959270349273,-11.846741481252511L-66.68106705050657,-10.33015205017499L-67.26741915835241,-25.811456877966176z" style="fill:rgb(43,180,168)">
    </path>
    <path d="M-73.35908934858287,-8.264862936319558L-67.01632649524304,-10.22646750846107L-73.9436160969531,-23.771002102750856z" style="fill:rgb(214,94,68)">
    </path>
    <path d="M-80.24025983566892,-9.786276281309085L-73.35908934858287,-8.264862936319558L-73.9436160969531,-23.771002102750856z" style="fill:rgb(214,94,68)">
    </path>
    <path d="M-130.90717833112825,59.35164716256554L-136.4463743781973,87.37641375499177" style="fill:none;stroke:rgb(0,0,0);stroke-width:1;stroke-linecap:round">
    </path>
    <path d="M-130.90717833112825,59.35164716256554L-136.4463743781973,87.37641375499177" style="fill:none;stroke:rgb(0,0,0);stroke-width:1;stroke-linecap:round">
    </path>
    <path d="M-130.90717833112825,59.35164716256554L-136.4463743781973,87.37641375499177" style="fill:none;stroke:rgb(0,0,0);stroke-width:1;stroke-linecap:round">
    </path>
    <path d="M-130.90717833112825,59.35164716256554L-136.4463743781973,87.37641375499177" style="fill:none;stroke:rgb(0,0,0);stroke-width:1;stroke-linecap:round">
    </path>
    <path d="M-120.1192694918113,55.89238398219108L-121.1978368394934,3.862153075170523" style="fill:none;stroke:rgb(74,87,214);stroke-width:5;stroke-linecap:round">
    </path>
    <path d="M-121.14268967818212,56.220555069052864L-122.22780927089491,4.180059233237537" style="fill:none;stroke:rgb(214,94,68);stroke-width:5;stroke-linecap:round">
    </path>
    <path d="M-121.26421036495029,56.25952203138563L-122.35010816730552,4.217807401157758" style="fill:none;stroke:rgb(43,180,168);stroke-width:5;stroke-linecap:round">
    </path>
    <path d="M-92.0925418212259,-2.4712321681469356L-85.69462137003103,-4.449895141909713L-92.67190284176645,-18.047051405744327z" style="fill:rgb(109,213,75)">
    </path>
    <path d="M-92.18944859844122,-2.4412621406285644L-85.79124220112845,-4.420013547969136L-92.76878272395265,-18.017441881033324z" style="fill:rgb(167,41,160)">
    </path>
    <path d="M-98.98099938817437,-4.0062185557624L-92.0925418212259,-2.4712321681469356L-92.67190284176645,-18.047051405744327z" style="fill:rgb(109,213,75)">
    </path>
    <path d="M-99.07794335373548,-3.9763188970260455L-92.18944859844122,-2.4412621406285644L-92.76878272395265,-18.017441881033324z" style="fill:rgb(167,41,160)">
    </path>
    <path d="M-92.61769824908978,-2.308818836006521L-86.21822812459183,-4.287961071931067L-93.19691349897123,-17.886591714038936z" style="fill:rgb(109,213,75)">
    </path>
    <path d="M-99.50635728431469,-3.844186584838554L-92.61769824908978,-2.308818836006521L-93.19691349897123,-17.886591714038936z" style="fill:rgb(109,213,75)">
    </path>
    <path d="M-93.8562165296129,-1.9257865237585992L-87.45309094494623,-3.9060592713459643L-94.43508778972104,-17.508166891142857z" style="fill:rgb(74,87,214)">
    </path>
    <path d="M-100.74535009642362,-3.4620538544058435L-93.8562165296129,-1.9257865237585992L-94.43508778972104,-17.508166891142857z" style="fill:rgb(74,87,214)">
    </path>
    <path d="M-97.50870580036107,-0.7961936603860128L-91.09479390316716,-2.7798022539539486L-98.08656091258095,-16.392162399569013z" style="fill:rgb(214,94,68)">
    </path>
    <path d="M-104.39923383349026,-2.3351154609923457L-97.50870580036107,-0.7961936603860128L-98.08656091258095,-16.392162399569013z" style="fill:rgb(214,94,68)">
    </path>
    <path d="M-130.90717833112828,59.35164716256556L-132.05496266943908,7.213259430077205" style="fill:none;stroke:rgb(109,213,75);stroke-width:5;stroke-linecap:round">
    </path>
    <path d="M-130.90717833112825,59.35164716256554L-132.05496266943905,7.213259430077187" style="fill:none;stroke:rgb(43,180,168);stroke-width:5;stroke-linecap:round">
    </path>
    <path d="M-130.90717833112828,59.35164716256556L-132.05496266943908,7.213259430077205" style="fill:none;stroke:rgb(74,87,214);stroke-width:5;stroke-linecap:round">
    </path>
    <path d="M-130.90717833112825,59.35164716256554L-132.05496266943905,7.213259430077187" style="fill:none;stroke:rgb(167,41,160);stroke-width:5;stroke-linecap:round">
    </path>
    <path d="M-145.63614811734567,64.07465545130965L-146.87896950568648,11.788763508432101" style="fill:none;stroke:rgb(214,94,68);stroke-width:5;stroke-linecap:round">
    </path>
    <path d="M-588.646896494547,124.67522741213739L-139.22149829031247,-11.8585151758396L-466.4538569383001,195.17570778869543z" style="fill:rgb(0,0,0); fill-opacity: 0.18">
    </path>
    <path d="M-462.56113802628175,165.70018500129294L-2.666632644311838,18.229887187291112L-8.764780625953625,45.66831198465312z" style="fill:rgb(0,0,0); fill-opacity: 0.18">
    </path>
    <path d="M-120.89826744986006,6.437416066624944L-114.41506803507127,4.432379159489395L-121.46955542544355,-9.245587298295199z" style="fill:rgb(74,87,214)">
    </path>
    <path d="M-127.79754947555716,4.881441533079313L-120.89826744986006,6.437416066624944L-121.46955542544355,-9.245587298295199z" style="fill:rgb(74,87,214)">
    </path>
    <path d="M-121.93018317639874,6.756553113689092L-115.44391832949897,4.750568170849915L-122.5011790283123,-8.930290831450783z" style="fill:rgb(214,94,68)">
    </path>
    <path d="M-122.05271288289212,6.794447456901686L-115.56608399843313,4.788349929411775L-122.62367403461373,-8.89285252295771z" style="fill:rgb(43,180,168)">
    </path>
    <path d="M-128.82984441215763,5.199824076448186L-121.93018317639874,6.756553113689092L-122.5011790283123,-8.930290831450783z" style="fill:rgb(214,94,68)">
    </path>
    <path d="M-128.9524191067512,5.2376288177422765L-122.05271288289212,6.794447456901686L-122.62367403461373,-8.89285252295771z" style="fill:rgb(43,180,168)">
    </path>
    <path d="M-588.646896494547,124.67522741213739L-606.1000104050623,288.76717754847164" style="fill:none;stroke:rgb(0,0,0);stroke-width:1;stroke-linecap:round">
    </path>
    <path d="M-486.3539847836226,366.38983270413365L-606.1000104050623,288.76717754847164" style="fill:none;stroke:rgb(0,0,0);stroke-width:1;stroke-linecap:round">
    </path>
    <path d="M-606.1000104050623,288.76717754847164L-606.1000104050623,288.76717754847164" style="fill:none;stroke:rgb(0,0,0);stroke-width:1;stroke-linecap:round">
    </path>
    <path d="M-486.3539847836226,366.38983270413365L-606.1000104050623,288.76717754847164" style="fill:none;stroke:rgb(0,0,0);stroke-width:1;stroke-linecap:round">
    </path>
    <path d="M-486.3539847836226,366.38983270413365L-606.1000104050623,288.76717754847164" style="fill:none;stroke:rgb(0,0,0);stroke-width:1;stroke-linecap:round">
    </path>
    <path d="M-606.1000104050623,288.76717754847164L-648.8523680196821,142.9654228137446" style="fill:none;stroke:rgb(0,0,0);stroke-width:1;stroke-linecap:round">
    </path>
    <path d="M-486.3539847836226,366.38983270413365L-606.1000104050623,288.76717754847164" style="fill:none;stroke:rgb(0,0,0);stroke-width:1;stroke-linecap:round">
    </path>
    <path d="M-131.77592581262172,9.801512261290494L-125.26037659941062,7.786470642649821L-132.34412428701808,-5.921978638144075z" style="fill:rgb(109,213,75)">
    </path>
    <path d="M-131.7759258126217,9.801512261290494L-125.26037659941058,7.786470642649804L-132.34412428701808,-5.9219786381440915z" style="fill:rgb(43,180,168)">
    </path>
    <path d="M-131.77592581262172,9.801512261290494L-125.26037659941062,7.786470642649821L-132.34412428701808,-5.921978638144075z" style="fill:rgb(74,87,214)">
    </path>
    <path d="M-131.7759258126217,9.801512261290494L-125.26037659941058,7.786470642649804L-132.34412428701808,-5.9219786381440915z" style="fill:rgb(167,41,160)">
    </path>
    <path d="M-138.67917541165318,8.237575152151612L-131.77592581262172,9.801512261290494L-132.34412428701808,-5.921978638144075z" style="fill:rgb(109,213,75)">
    </path>
    <path d="M-138.67917541165315,8.237575152151594L-131.7759258126217,9.801512261290494L-132.34412428701808,-5.9219786381440915z" style="fill:rgb(43,180,168)">
    </path>
    <path d="M-138.67917541165318,8.237575152151612L-131.77592581262172,9.801512261290494L-132.34412428701808,-5.921978638144075z" style="fill:rgb(74,87,214)">
    </path>
    <path d="M-138.67917541165315,8.237575152151594L-131.7759258126217,9.801512261290494L-132.34412428701808,-5.9219786381440915z" style="fill:rgb(167,41,160)">
    </path>
    <path d="M-170.40620573105124,72.01745044106332L-171.81024227743322,19.48392592341265" style="fill:none;stroke:rgb(214,94,68);stroke-width:5;stroke-linecap:round">
    </path>
    <path d="M-146.62813811669272,14.39480515836628L-140.06828909867443,12.366063090620994L-147.1920819772072,-1.3839779695341525z" style="fill:rgb(214,94,68)">
    </path>
    <path d="M-153.53669877854378,12.819963295302852L-146.62813811669272,14.39480515836628L-147.1920819772072,-1.3839779695341525z" style="fill:rgb(214,94,68)">
    </path>
    <path d="M-444.4253299585708,80.86125890982892L-588.646896494547,124.67522741213739L-319.12036415945846,147.04817326775824z" style="fill:rgb(0,0,0); fill-opacity: 0.18">
    </path>
    <path d="M-444.4253299585708,80.86125890982892L-588.646896494547,124.67522741213739L-319.12036415945846,147.04817326775824z" style="fill:rgb(0,0,0); fill-opacity: 0.18">
    </path>
    <path d="M-195.45757448425604,80.05045098238337L-197.02642926908666,27.267028541710996" style="fill:none;stroke:rgb(214,94,68);stroke-width:5;stroke-linecap:round">
    </path>
    <path d="M-171.6072923870348,22.120022758001117L-164.97259988179948,20.068134100967438L-172.1639862578619,6.248217695796486z" style="fill:rgb(214,94,68)">
    </path>
    <path d="M-178.52450892189225,20.52675547705782L-171.6072923870348,22.120022758001117L-172.1639862578619,6.248217695796486z" style="fill:rgb(214,94,68)">
    </path>
    <path d="M-466.4538569383001,195.17570778869543L-588.646896494547,124.67522741213739" style="fill:none;stroke:rgb(160,0,0);stroke-width:4;stroke-linecap:round">
    </path>
    <path d="M-466.4538569383001,195.17570778869543L-588.646896494547,124.67522741213739" style="fill:none;stroke:rgb(0,0,0);stroke-width:1;stroke-linecap:round">
    </path>
    <path d="M-466.4538569383001,195.17570778869543L-588.646896494547,124.67522741213739" style="fill:none;stroke:rgb(0,0,0);stroke-width:1;stroke-linecap:round">
    </path>
    <path d="M-466.4538569383001,195.17570778869543L-588.646896494547,124.67522741213739" style="fill:none;stroke:rgb(0,0,0);stroke-width:1;stroke-linecap:round">
    </path>
    <path d="M-466.4538569383001,195.17570778869543L-588.646896494547,124.67522741213739" style="fill:none;stroke:rgb(0,0,0);stroke-width:1;stroke-linecap:round">
    </path>
    <path d="M-466.4538569383001,195.17570778869543L-588.646896494547,124.67522741213739" style="fill:none;stroke:rgb(0,0,0);stroke-width:1;stroke-linecap:round">
    </path>
    <path d="M-588.646896494547,124.67522741213739L-588.646896494547,124.67522741213739" style="fill:none;stroke:rgb(0,0,0);stroke-width:1;stroke-linecap:round">
    </path>
    <path d="M-466.4538569383001,195.17570778869543L-588.646896494547,124.67522741213739" style="fill:none;stroke:rgb(0,0,0);stroke-width:1;stroke-linecap:round">
    </path>
    <path d="M-466.4538569383001,195.17570778869543L-588.646896494547,124.67522741213739" style="fill:none;stroke:rgb(160,0,0);stroke-width:4;stroke-linecap:round">
    </path>
    <path d="M-220.7950739797907,88.17520253462295L-222.5324425414213,35.139587495527834" style="fill:none;stroke:rgb(214,94,68);stroke-width:5;stroke-linecap:round">
    </path>
    <path d="M-606.1000104050623,288.76717754847164L-606.1000104050623,288.76717754847164L-486.3539847836226,366.38983270413365z" style="fill:rgb(0,0,0); fill-opacity: 0.18">
    </path>
    <path d="M-196.87247588842595,29.933699639555446L-190.16165167924404,27.858265990851763L-197.42171633796977,13.96777067289271z" style="fill:rgb(214,94,68)">
    </path>
    <path d="M-203.79809460970185,28.32168714439217L-196.87247588842595,29.933699639555446L-197.42171633796977,13.96777067289271z" style="fill:rgb(214,94,68)">
    </path>
    <path d="M-588.646896494547,124.67522741213739L-444.4253299585708,80.86125890982892L-466.4538569383001,195.17570778869543z" style="fill:rgb(0,0,0); fill-opacity: 0.18">
    </path>
    <path d="M-588.646896494547,124.67522741213739L-444.4253299585708,80.86125890982892L-466.4538569383001,195.17570778869543z" style="fill:rgb(0,0,0); fill-opacity: 0.18">
    </path>
    <path d="M-246.42363454954796,96.39328606364279L-248.3333077229795,43.10315397032504" style="fill:none;stroke:rgb(214,94,68);stroke-width:5;stroke-linecap:round">
    </path>
    <path d="M-606.1000104050623,288.76717754847164L-588.646896494547,124.67522741213739L-486.3539847836226,366.38983270413365z" style="fill:rgb(0,0,0); fill-opacity: 0.18">
    </path>
    <path d="M-222.4286297704664,37.83736393546481L-215.64035590612733,35.73797769682836L-222.97020776161196,21.776189418527395z" style="fill:rgb(214,94,68)">
    </path>
    <path d="M-229.3623864869909,36.20627901705926L-222.4286297704664,37.83736393546481L-222.97020776161196,21.776189418527395z" style="fill:rgb(214,94,68)">
    </path>
    <path d="M-466.4538569383001,195.17570778869543L-319.12036415945846,147.04817326775824L-444.4253299585708,80.86125890982892z" style="fill:rgb(0,0,0); fill-opacity: 0.18">
    </path>
    <path d="M-466.4538569383001,195.17570778869543L-319.12036415945846,147.04817326775824L-444.4253299585708,80.86125890982892z" style="fill:rgb(0,0,0); fill-opacity: 0.18">
    </path>
    <path d="M-528.0877276725039,215.3088505349411L-648.8523680196821,142.9654228137446" style="fill:none;stroke:rgb(160,0,0);stroke-width:4;stroke-linecap:round">
    </path>
    <path d="M-272.3483004528155,104.70631906739227L-274.43416731128775,51.159315223762825" style="fill:none;stroke:rgb(214,94,68);stroke-width:5;stroke-linecap:round">
    </path>
    <path d="M-248.28080965293492,45.83257917996543L-241.4137375848603,43.708823290390065L-248.81451036448001,29.675017320567214z" style="fill:rgb(214,94,68)">
    </path>
    <path d="M-255.22242928312627,44.182087000943596L-248.28080965293492,45.83257917996543L-248.81451036448001,29.675017320567214z" style="fill:rgb(214,94,68)">
    </path>
    <path d="M-588.646896494547,124.67522741213739L-588.646896494547,124.67522741213739L-466.4538569383001,195.17570778869543z" style="fill:rgb(0,0,0); fill-opacity: 0.18">
    </path>
    <path d="M-466.45385693829996,195.1757077886955L-319.12036415945835,147.0481732677583" style="fill:none;stroke:rgb(0,0,0);stroke-width:1;stroke-linecap:round">
    </path>
    <path d="M-314.45659315796263,118.20881234138706L-319.12036415945835,147.0481732677583" style="fill:none;stroke:rgb(0,0,0);stroke-width:1;stroke-linecap:round">
    </path>
    <path d="M-319.12036415945835,147.0481732677583L-466.45385693829996,195.1757077886955" style="fill:none;stroke:rgb(0,0,0);stroke-width:1;stroke-linecap:round">
    </path>
    <path d="M-314.45659315796263,118.20881234138706L-319.12036415945835,147.0481732677583" style="fill:none;stroke:rgb(0,0,0);stroke-width:1;stroke-linecap:round">
    </path>
    <path d="M-466.45385693829996,195.1757077886955L-319.12036415945835,147.0481732677583" style="fill:none;stroke:rgb(0,0,0);stroke-width:1;stroke-linecap:round">
    </path>
    <path d="M-314.45659315796263,118.20881234138706L-319.12036415945835,147.0481732677583" style="fill:none;stroke:rgb(0,0,0);stroke-width:1;stroke-linecap:round">
    </path>
    <path d="M-319.12036415945835,147.0481732677583L-466.45385693829996,195.1757077886955" style="fill:none;stroke:rgb(0,0,0);stroke-width:1;stroke-linecap:round">
    </path>
    <path d="M-314.45659315796263,118.20881234138706L-319.12036415945835,147.0481732677583" style="fill:none;stroke:rgb(0,0,0);stroke-width:1;stroke-linecap:round">
    </path>
    <path d="M-466.45385693829996,195.1757077886955L-8.764780625953625,45.66831198465312L-462.56113802628175,165.70018500129294z" style="fill:rgb(0,0,0); fill-opacity: 0.18">
    </path>
    <path d="M-298.57423318611063,113.1159566372449L-300.8402840898995,59.309695640386984" style="fill:none;stroke:rgb(214,94,68);stroke-width:5;stroke-linecap:round">
    </path>
    <path d="M-486.3539847836226,366.38983270413365L-486.3539847836226,366.38983270413365L-606.1000104050623,288.76717754847164z" style="fill:rgb(0,0,0); fill-opacity: 0.18">
    </path>
    <path d="M-648.8523680196821,142.9654228137446L-606.1000104050623,288.76717754847164L-528.0877276725039,215.3088505349411z" style="fill:rgb(0,0,0); fill-opacity: 0.18">
    </path>
    <path d="M-274.4341889599718,53.92094534024535L-267.4869386491039,51.77239299977215L-274.95979160143065,37.665833714977694z" style="fill:rgb(214,94,68)">
    </path>
    <path d="M-281.38338513059904,52.250703211644606L-274.4341889599718,53.92094534024535L-274.95979160143065,37.665833714977694z" style="fill:rgb(214,94,68)">
    </path>
    <path d="M-319.12036415945846,147.04817326775824L-466.4538569383001,195.17570778869543L-588.646896494547,124.67522741213739z" style="fill:rgb(0,0,0); fill-opacity: 0.18">
    </path>
    <path d="M-319.12036415945846,147.04817326775824L-466.4538569383001,195.17570778869543L-588.646896494547,124.67522741213739z" style="fill:rgb(0,0,0); fill-opacity: 0.18">
    </path>
    <path d="M-401.3322029327242,303.61007139235215L-399.4344883363855,311.83065776914555L-397.310934705225,307.9962745834592z" style="fill:rgb(197,147,42)">
    </path>
    <path d="M-314.45659315796263,118.20881234138706L-462.56113802628175,165.70018500129294" style="fill:none;stroke:rgb(38,46,1);stroke-width:5;stroke-linecap:round">
    </path>
    <path d="M-314.45659315796274,118.2088123413871L-316.83271317713076,64.24583910819123" style="fill:none;stroke:rgb(162,186,45);stroke-width:5;stroke-linecap:round">
    </path>
    <path d="M-462.56113802628175,165.70018500129294L-314.45659315796263,118.20881234138706" style="fill:none;stroke:rgb(9,54,24);stroke-width:5;stroke-linecap:round">
    </path>
    <path d="M-314.45659315796263,118.20881234138706L-316.8327131771307,64.24583910819119" style="fill:none;stroke:rgb(70,211,116);stroke-width:5;stroke-linecap:round">
    </path>
    <path d="M-314.45659315796263,118.20881234138706L-462.56113802628175,165.70018500129294" style="fill:none;stroke:rgb(1,31,51);stroke-width:5;stroke-linecap:round">
    </path>
    <path d="M-314.45659315796274,118.2088123413871L-316.83271317713076,64.24583910819123" style="fill:none;stroke:rgb(44,139,201);stroke-width:5;stroke-linecap:round">
    </path>
    <path d="M-432.1748324879743,155.95647753194694L-314.45659315796263,118.20881234138706" style="fill:none;stroke:rgb(23,4,51);stroke-width:5;stroke-linecap:round">
    </path>
    <path d="M-314.45659315796263,118.20881234138706L-316.8327131771307,64.24583910819119" style="fill:none;stroke:rgb(115,55,201);stroke-width:5;stroke-linecap:round">
    </path>
    <path d="M-399.4344883363855,311.83065776914555L-394.59847740556296,314.7631385308426L-397.310934705225,307.9962745834592z" style="fill:rgb(197,147,42)">
    </path>
    <path d="M-393.5015645549612,308.33754441830087L-394.59847740556296,314.7631385308426L-385.1650327486077,303.67417192080126z" style="fill:rgb(197,147,42)">
    </path>
    <path d="M-397.6726953900797,301.4365223634494L-401.3322029327242,303.61007139235215L-397.310934705225,307.9962745834592z" style="fill:rgb(197,147,42)">
    </path>
    <path d="M-397.6726953900797,301.4365223634494L-393.5015645549612,308.33754441830087L-385.1650327486077,303.67417192080126z" style="fill:rgb(197,147,42)">
    </path>
    <path d="M-446.53905282295494,325.5140333431009L-397.310934705225,307.9962745834592" style="fill:none;stroke:rgb(197,147,42);stroke-width:5;stroke-linecap:round">
    </path>
    <path d="M-394.59847740556296,314.7631385308426L-393.5015645549612,308.33754441830087L-397.310934705225,307.9962745834592z" style="fill:rgb(197,147,42)">
    </path>
    <path d="M-393.5015645549612,308.33754441830087L-397.6726953900797,301.4365223634494L-397.310934705225,307.9962745834592z" style="fill:rgb(197,147,42)">
    </path>
    <path d="M-397.22675686408365,270.0118685094939L-395.32550608583006,278.2647164063217L-393.1900524020986,274.36799619108905z" style="fill:rgb(197,147,42)">
    </path>
    <path d="M-325.1067149090788,121.62389255655081L-327.557044666032,67.55595782353845" style="fill:none;stroke:rgb(214,94,68);stroke-width:5;stroke-linecap:round">
    </path>
    <path d="M-395.32550608583006,278.2647164063217L-390.4694944825347,281.14336451934986L-393.1900524020986,274.36799619108905z" style="fill:rgb(197,147,42)">
    </path>
    <path d="M-389.36370483646465,274.6519704747081L-390.4694944825347,281.14336451934986L-381.02370491297603,270.1230494788342z" style="fill:rgb(197,147,42)">
    </path>
    <path d="M-393.54944450454065,267.76434744096184L-397.22675686408365,270.0118685094939L-393.1900524020986,274.36799619108905z" style="fill:rgb(197,147,42)">
    </path>
    <path d="M-393.54944450454065,267.76434744096184L-389.36370483646465,274.6519704747081L-381.02370491297603,270.1230494788342z" style="fill:rgb(197,147,42)">
    </path>
    <path d="M-442.50272144377186,291.57362446268957L-393.1900524020985,274.36799619108905" style="fill:none;stroke:rgb(197,147,42);stroke-width:5;stroke-linecap:round">
    </path>
    <path d="M-390.4694944825347,281.14336451934986L-389.36370483646465,274.6519704747081L-393.1900524020986,274.36799619108905z" style="fill:rgb(197,147,42)">
    </path>
    <path d="M-389.36370483646465,274.6519704747081L-393.54944450454065,267.76434744096184L-393.1900524020986,274.36799619108905z" style="fill:rgb(197,147,42)">
    </path>
    <path d="M-300.8940623714813,62.1040998838481L-293.8652213637051,59.930314267624176L-301.4113399909781,45.75025493856787z" style="fill:rgb(214,94,68)">
    </path>
    <path d="M-307.8505370003319,60.41375703400108L-300.8940623714813,62.1040998838481L-301.4113399909781,45.75025493856787z" style="fill:rgb(214,94,68)">
    </path>
    <path d="M-393.10009161784257,236.24001184526765L-391.1952934019242,244.52534536249874L-389.0478448287926,240.56569387140465z" style="fill:rgb(197,147,42)">
    </path>
    <path d="M-336.9233923080979,125.41304183929337L-339.4564375363155,71.22876512923935" style="fill:none;stroke:rgb(162,186,45);stroke-width:5;stroke-linecap:round">
    </path>
    <path d="M-391.1952934019242,244.52534536249874L-386.31913865872457,247.3495640932044L-389.0478448287926,240.56569387140465z" style="fill:rgb(197,147,42)">
    </path>
    <path d="M-486.3539847836226,366.38983270413365L-466.4538569383001,195.17570778869543L-588.646896494547,124.67522741213739z" style="fill:rgb(0,0,0); fill-opacity: 0.18">
    </path>
    <path d="M-339.34126124738435,126.18835845729826L-341.89128020122473,71.98029153276228" style="fill:none;stroke:rgb(44,139,201);stroke-width:5;stroke-linecap:round">
    </path>
    <path d="M-385.2043948495812,240.79177374276273L-386.31913865872457,247.3495640932044L-376.8610024091338,236.3987593624528z" style="fill:rgb(197,147,42)">
    </path>
    <path d="M-389.4048389448967,233.9177814028635L-393.10009161784257,236.24001184526765L-389.0478448287926,240.56569387140465z" style="fill:rgb(197,147,42)">
    </path>
    <path d="M-389.4048389448967,233.9177814028635L-385.2043948495812,240.79177374276273L-376.8610024091338,236.3987593624528z" style="fill:rgb(197,147,42)">
    </path>
    <path d="M-438.44527950266877,257.4557026290652L-389.0478448287926,240.56569387140465" style="fill:none;stroke:rgb(197,147,42);stroke-width:5;stroke-linecap:round">
    </path>
    <path d="M-528.0877276725039,215.3088505349411L-486.3539847836226,366.38983270413365L-606.1000104050623,288.76717754847164z" style="fill:rgb(0,0,0); fill-opacity: 0.18">
    </path>
    <path d="M-386.31913865872457,247.3495640932044L-385.2043948495812,240.79177374276273L-389.0478448287926,240.56569387140465z" style="fill:rgb(197,147,42)">
    </path>
    <path d="M-385.2043948495812,240.79177374276273L-389.4048389448967,233.9177814028635L-389.0478448287926,240.56569387140465z" style="fill:rgb(197,147,42)">
    </path>
    <path d="M-432.1748324879743,155.95647753194694L-314.45659315796263,118.20881234138706L-319.12036415945835,147.0481732677583z" style="fill:rgb(0,0,0); fill-opacity: 0.18">
    </path>
    <path d="M-319.12036415945835,147.0481732677583L-466.45385693829996,195.1757077886955L-314.45659315796263,118.20881234138706z" style="fill:rgb(0,0,0); fill-opacity: 0.18">
    </path>
    <path d="M-319.12036415945835,147.0481732677583L-466.45385693829996,195.1757077886955L-314.45659315796263,118.20881234138706z" style="fill:rgb(0,0,0); fill-opacity: 0.18">
    </path>
    <path d="M-388.95204225939386,202.2931516056904L-387.0436853172689,210.61119703242807L-384.8841460207658,206.58801327808104z" style="fill:rgb(197,147,42)">
    </path>
    <path d="M-316.91935280150875,67.06018664040796L-309.84086555553057,64.87104710191096L-317.4315238333888,50.64652461450791z" style="fill:rgb(162,186,45)">
    </path>
    <path d="M-316.9193528015087,67.06018664040792L-309.84086555553046,64.87104710191093L-317.4315238333887,50.646524614507875z" style="fill:rgb(70,211,116)">
    </path>
    <path d="M-316.91935280150875,67.06018664040796L-309.84086555553057,64.87104710191096L-317.4315238333888,50.64652461450791z" style="fill:rgb(44,139,201)">
    </path>
    <path d="M-316.9193528015087,67.06018664040792L-309.84086555553046,64.87104710191093L-317.4315238333887,50.646524614507875z" style="fill:rgb(115,55,201)">
    </path>
    <path d="M-323.88004639286925,65.35761153565933L-316.91935280150875,67.06018664040796L-317.4315238333888,50.64652461450791z" style="fill:rgb(162,186,45)">
    </path>
    <path d="M-323.88004639286925,65.35761153565933L-316.91935280150875,67.06018664040796L-317.4315238333888,50.64652461450791z" style="fill:rgb(44,139,201)">
    </path>
    <path d="M-323.88004639286913,65.35761153565929L-316.9193528015087,67.06018664040792L-317.4315238333887,50.646524614507875z" style="fill:rgb(70,211,116)">
    </path>
    <path d="M-323.88004639286913,65.35761153565929L-316.9193528015087,67.06018664040792L-317.4315238333887,50.646524614507875z" style="fill:rgb(115,55,201)">
    </path>
    <path d="M-387.0436853172689,210.61119703242807L-382.1472435543353,213.38038252382427L-384.8841460207658,206.58801327808104z" style="fill:rgb(197,147,42)">
    </path>
    <path d="M-381.02346736666016,206.75559285214837L-382.1472435543353,213.38038252382427L-372.67675932705805,202.4999574453948z" style="fill:rgb(197,147,42)">
    </path>
    <path d="M-385.2387123838711,199.89546595170518L-388.95204225939386,202.2931516056904L-384.8841460207658,206.58801327808104z" style="fill:rgb(197,147,42)">
    </path>
    <path d="M-351.95115199123234,130.2318604379379L-354.5899631337945,75.89980372602683" style="fill:none;stroke:rgb(214,94,68);stroke-width:5;stroke-linecap:round">
    </path>
    <path d="M-385.2387123838711,199.89546595170518L-381.02346736666016,206.75559285214837L-372.67675932705805,202.4999574453948z" style="fill:rgb(197,147,42)">
    </path>
    <path d="M-434.3665609487473,223.15887156554757L-384.8841460207656,206.58801327808106" style="fill:none;stroke:rgb(197,147,42);stroke-width:5;stroke-linecap:round">
    </path>
    <path d="M-353.6274051737069,130.76936969960192L-356.2780536339298,76.42084132762282" style="fill:none;stroke:rgb(162,186,45);stroke-width:5;stroke-linecap:round">
    </path>
    <path d="M-353.91954589289617,130.8630478765714L-356.57225820139223,76.51164904332113" style="fill:none;stroke:rgb(115,55,201);stroke-width:5;stroke-linecap:round">
    </path>
    <path d="M-462.56113802628175,165.70018500129294L-314.45659315796263,118.20881234138706L-319.12036415945835,147.0481732677583z" style="fill:rgb(0,0,0); fill-opacity: 0.18">
    </path>
    <path d="M-382.1472435543353,213.38038252382427L-381.02346736666016,206.75559285214837L-384.8841460207658,206.58801327808104z" style="fill:rgb(197,147,42)">
    </path>
    <path d="M-381.02346736666016,206.75559285214837L-385.2387123838711,199.89546595170518L-384.8841460207658,206.58801327808104z" style="fill:rgb(197,147,42)">
    </path>
    <path d="M-466.4538569383001,195.17570778869543L-466.4538569383001,195.17570778869543L-588.646896494547,124.67522741213739z" style="fill:rgb(0,0,0); fill-opacity: 0.18">
    </path>
    <path d="M-384.78244214032895,168.1699239713497L-382.87051515089246,176.5209098128277L-380.69878828683204,172.43358597458763z" style="fill:rgb(197,147,42)">
    </path>
    <path d="M-384.78244214032895,168.1699239713497L-382.87051515089246,176.5209098128277L-380.69878828683204,172.43358597458763z" style="fill:rgb(200,54,116)">
    </path>
    <path d="M-327.66584939659293,70.38371888382457L-320.55397186539,68.1842528460281L-328.174568681546,53.929935418948524z" style="fill:rgb(214,94,68)">
    </path>
    <path d="M-334.62929225831994,68.67291621903789L-327.66584939659293,70.38371888382457L-328.174568681546,53.929935418948524z" style="fill:rgb(214,94,68)">
    </path>
    <path d="M-382.87051515089246,176.5209098128277L-377.95364105814036,179.2344509846582L-380.69878828683204,172.43358597458763z" style="fill:rgb(197,147,42)">
    </path>
    <path d="M-382.87051515089246,176.5209098128277L-377.95364105814036,179.2344509846582L-380.69878828683204,172.43358597458763z" style="fill:rgb(200,54,116)">
    </path>
    <path d="M-362.95611783629784,133.76072536589962L-365.6727894227507,79.32057365989004" style="fill:none;stroke:rgb(70,211,116);stroke-width:5;stroke-linecap:round">
    </path>
    <path d="M-376.82075341723197,172.54205224457283L-377.95364105814036,179.2344509846582L-368.47080803521453,168.42528565451462z" style="fill:rgb(197,147,42)">
    </path>
    <path d="M-376.82075341723197,172.54205224457283L-377.95364105814036,179.2344509846582L-368.47080803521453,168.42528565451462z" style="fill:rgb(200,54,116)">
    </path>
    <path d="M-363.57186709421967,133.95817222682496L-366.2929052922285,79.5119755339711" style="fill:none;stroke:rgb(70,211,116);stroke-width:5;stroke-linecap:round">
    </path>
    <path d="M-381.05089676237077,165.6960286473103L-384.78244214032895,168.1699239713497L-380.69878828683204,172.43358597458763z" style="fill:rgb(197,147,42)">
    </path>
    <path d="M-381.05089676237077,165.6960286473103L-384.78244214032895,168.1699239713497L-380.69878828683204,172.43358597458763z" style="fill:rgb(200,54,116)">
    </path>
    <path d="M-381.05089676237077,165.6960286473103L-376.82075341723197,172.54205224457283L-368.47080803521453,168.42528565451462z" style="fill:rgb(197,147,42)">
    </path>
    <path d="M-381.05089676237077,165.6960286473103L-376.82075341723197,172.54205224457283L-368.47080803521453,168.42528565451462z" style="fill:rgb(200,54,116)">
    </path>
    <path d="M-430.2663979850397,188.68172031323263L-380.69878828683204,172.43358597458763" style="fill:none;stroke:rgb(197,147,42);stroke-width:5;stroke-linecap:round">
    </path>
    <path d="M-430.2663979850397,188.68172031323263L-380.69878828683204,172.43358597458763" style="fill:none;stroke:rgb(200,54,116);stroke-width:5;stroke-linecap:round">
    </path>
    <path d="M-446.53905282295506,325.51403334310095L-430.2663979850397,188.68172031323263" style="fill:none;stroke:rgb(50,34,0);stroke-width:5;stroke-linecap:round">
    </path>
    <path d="M-446.53905282295506,325.51403334310095L-486.3539847836224,366.38983270413365" style="fill:none;stroke:rgb(0,0,0);stroke-width:1;stroke-linecap:round">
    </path>
    <path d="M-519.2917061914109,351.40296591989664L-446.53905282295506,325.51403334310095" style="fill:none;stroke:rgb(22,55,11);stroke-width:5;stroke-linecap:round">
    </path>
    <path d="M-446.53905282295506,325.51403334310095L-449.80051132105444,272.29084432624245" style="fill:none;stroke:rgb(109,213,75);stroke-width:5;stroke-linecap:round">
    </path>
    <path d="M-446.53905282295506,325.51403334310095L-486.3539847836224,366.38983270413365" style="fill:none;stroke:rgb(0,0,0);stroke-width:1;stroke-linecap:round">
    </path>
    <path d="M-377.95364105814036,179.2344509846582L-376.82075341723197,172.54205224457283L-380.69878828683204,172.43358597458763z" style="fill:rgb(197,147,42)">
    </path>
    <path d="M-377.95364105814036,179.2344509846582L-376.82075341723197,172.54205224457283L-380.69878828683204,172.43358597458763z" style="fill:rgb(200,54,116)">
    </path>
    <path d="M-367.7724520354107,135.30513659587294L-370.52330760712255,80.81771043133703" style="fill:none;stroke:rgb(44,139,201);stroke-width:5;stroke-linecap:round">
    </path>
    <path d="M-376.82075341723197,172.54205224457283L-381.05089676237077,165.6960286473103L-380.69878828683204,172.43358597458763z" style="fill:rgb(197,147,42)">
    </path>
    <path d="M-376.82075341723197,172.54205224457283L-381.05089676237077,165.6960286473103L-380.69878828683204,172.43358597458763z" style="fill:rgb(200,54,116)">
    </path>
    <path d="M-466.45385693829996,195.1757077886955L-486.3539847836224,366.38983270413365" style="fill:none;stroke:rgb(0,0,0);stroke-width:1;stroke-linecap:round">
    </path>
    <path d="M-486.3539847836224,366.38983270413365L-486.3539847836224,366.38983270413365" style="fill:none;stroke:rgb(0,0,0);stroke-width:1;stroke-linecap:round">
    </path>
    <path d="M-519.2917061914109,351.40296591989664L-486.3539847836224,366.38983270413365" style="fill:none;stroke:rgb(0,0,0);stroke-width:1;stroke-linecap:round">
    </path>
    <path d="M-486.3539847836224,366.38983270413365L-528.0877276725037,215.30885053494112" style="fill:none;stroke:rgb(0,0,0);stroke-width:1;stroke-linecap:round">
    </path>
    <path d="M-519.2917061914109,351.40296591989664L-486.3539847836224,366.38983270413365" style="fill:none;stroke:rgb(0,0,0);stroke-width:1;stroke-linecap:round">
    </path>
    <path d="M-339.5899569067418,74.07144682690834L-332.4409383415259,71.8604943085641L-340.09482055805995,57.5731375423868z" style="fill:rgb(162,186,45)">
    </path>
    <path d="M-346.5563751865804,72.35149184992919L-339.5899569067418,74.07144682690834L-340.09482055805995,57.5731375423868z" style="fill:rgb(162,186,45)">
    </path>
    <path d="M-342.02987233383993,74.82603112528139L-334.87324205319663,72.6127245577429L-342.53394371965004,58.31860993455505z" style="fill:rgb(44,139,201)">
    </path>
    <path d="M-348.99688970589,73.10420039497475L-342.02987233383993,74.82603112528139L-342.53394371965004,58.31860993455505z" style="fill:rgb(44,139,201)">
    </path>
    <path d="M-386.49151872787445,135.7538975727995L-384.5715973188296,144.1481256659463L-382.39411285248906,139.99373506790508z" style="fill:rgb(200,54,116)">
    </path>
    <path d="M-379.1130786845307,138.94163490096597L-381.94468486823786,84.34297582118303" style="fill:none;stroke:rgb(214,94,68);stroke-width:5;stroke-linecap:round">
    </path>
    <path d="M-384.5715973188296,144.1481256659463L-379.63874335365045,146.81230886582833L-382.39411285248906,139.99373506790508z" style="fill:rgb(200,54,116)">
    </path>
    <path d="M-378.5039362787211,140.045843089241L-379.63874335365045,146.81230886582833L-370.11419845724174,136.05604368041287z" style="fill:rgb(200,54,116)">
    </path>
    <path d="M-382.74896665480856,133.2036462117054L-386.49151872787445,135.7538975727995L-382.39411285248906,139.99373506790508z" style="fill:rgb(200,54,116)">
    </path>
    <path d="M-382.74896665480856,133.2036462117054L-378.5039362787211,140.045843089241L-370.11419845724174,136.05604368041287z" style="fill:rgb(200,54,116)">
    </path>
    <path d="M-382.2758735085175,139.9558203047045L-385.13006547321964,85.32615952517115" style="fill:none;stroke:rgb(115,55,201);stroke-width:5;stroke-linecap:round">
    </path>
    <path d="M-432.1748324879743,155.95647753194694L-382.39411285248906,139.99373506790505" style="fill:none;stroke:rgb(200,54,116);stroke-width:5;stroke-linecap:round">
    </path>
    <path d="M-383.77868318897623,140.43771297474396L-386.6436168072326,85.79332473752402" style="fill:none;stroke:rgb(162,186,45);stroke-width:5;stroke-linecap:round">
    </path>
    <path d="M-466.45385693829996,195.1757077886955L-319.12036415945835,147.0481732677583L-432.1748324879743,155.95647753194694z" style="fill:rgb(0,0,0); fill-opacity: 0.18">
    </path>
    <path d="M-379.63874335365045,146.81230886582833L-378.5039362787211,140.045843089241L-382.39411285248906,139.99373506790508z" style="fill:rgb(200,54,116)">
    </path>
    <path d="M-378.5039362787211,140.045843089241L-382.74896665480856,133.2036462117054L-382.39411285248906,139.99373506790508z" style="fill:rgb(200,54,116)">
    </path>
    <path d="M-354.75509807424373,78.76151816319975L-347.55870382921637,76.53591393040941L-355.2550191445313,62.206568803248004z" style="fill:rgb(214,94,68)">
    </path>
    <path d="M-361.72518634863525,77.02988801988573L-354.75509807424373,78.76151816319975L-355.2550191445313,62.206568803248004z" style="fill:rgb(214,94,68)">
    </path>
    <path d="M-389.14998215518483,142.16007984132986L-392.0533607560242,87.46306934665543" style="fill:none;stroke:rgb(115,55,201);stroke-width:5;stroke-linecap:round">
    </path>
    <path d="M-356.44672793196486,79.28468274305307L-349.24503937548934,77.05744115667042L-356.94609496617215,62.7234145115535z" style="fill:rgb(162,186,45)">
    </path>
    <path d="M-356.7415496093237,79.37586123476811L-349.53893814749983,77.14833422460518L-357.24082002912365,62.81349171682555z" style="fill:rgb(115,55,201)">
    </path>
    <path d="M-363.4172176603041,77.55174782309565L-356.44672793196486,79.28468274305307L-356.94609496617215,62.7234145115535z" style="fill:rgb(162,186,45)">
    </path>
    <path d="M-486.3539847836224,366.38983270413365L-466.45385693829996,195.1757077886955L-446.53905282295506,325.51403334310095z" style="fill:rgb(0,0,0); fill-opacity: 0.18">
    </path>
    <path d="M-363.71210914136793,77.64269886473117L-356.7415496093237,79.37586123476811L-357.24082002912365,62.81349171682555z" style="fill:rgb(115,55,201)">
    </path>
    <path d="M-519.2917061914109,351.40296591989664L-446.53905282295506,325.51403334310095L-486.3539847836224,366.38983270413365z" style="fill:rgb(0,0,0); fill-opacity: 0.18">
    </path>
    <path d="M-486.3539847836224,366.38983270413365L-486.3539847836224,366.38983270413365L-519.2917061914109,351.40296591989664z" style="fill:rgb(0,0,0); fill-opacity: 0.18">
    </path>
    <path d="M-466.45385693829996,195.1757077886955L-319.12036415945835,147.0481732677583L-462.56113802628175,165.70018500129294z" style="fill:rgb(0,0,0); fill-opacity: 0.18">
    </path>
    <path d="M-365.8612080853488,82.19626681772631L-358.630019423138,79.95990183454846L-366.3574818078526,65.59982894317004z" style="fill:rgb(70,211,116)">
    </path>
    <path d="M-372.8339029833562,80.45606142278343L-365.8612080853488,82.19626681772631L-366.3574818078526,65.59982894317004z" style="fill:rgb(70,211,116)">
    </path>
    <path d="M-366.48263000534945,82.38845184934239L-359.24949201059843,80.15148400275754L-366.9786989559759,65.78969235013538z" style="fill:rgb(70,211,116)">
    </path>
    <path d="M-373.4554687270788,80.6477660174113L-366.48263000534945,82.38845184934239L-366.9786989559759,65.78969235013538z" style="fill:rgb(70,211,116)">
    </path>
    <path d="M-482.6352797699914,338.35882652165066L-486.15847146477546,284.80727366405915" style="fill:none;stroke:rgb(109,213,75);stroke-width:5;stroke-linecap:round">
    </path>
    <path d="M-450.16284001607085,275.5667749234131L-442.79534268622075,273.0255244144112L-450.62251188468315,258.87675630535483z" style="fill:rgb(109,213,75)">
    </path>
    <path d="M-457.0313583014687,273.577994741854L-450.16284001607085,275.5667749234131L-450.62251188468315,258.87675630535483z" style="fill:rgb(109,213,75)">
    </path>
    <path d="M-314.45659315796263,118.20881234138706L-462.56113802628175,165.70018500129294L-466.45385693829996,195.1757077886955z" style="fill:rgb(0,0,0); fill-opacity: 0.18">
    </path>
    <path d="M-314.45659315796263,118.20881234138706L-462.56113802628175,165.70018500129294L-466.45385693829996,195.1757077886955z" style="fill:rgb(0,0,0); fill-opacity: 0.18">
    </path>
    <path d="M-446.53905282295506,325.51403334310095L-430.2663979850397,188.68172031323263L-466.45385693829996,195.1757077886955z" style="fill:rgb(0,0,0); fill-opacity: 0.18">
    </path>
    <path d="M-370.72195135417144,83.69953226223335L-363.4755080741986,81.45844953559885L-371.2166214027794,67.08493411323785z" style="fill:rgb(44,139,201)">
    </path>
    <path d="M-377.6957655109515,81.95556713782963L-370.72195135417144,83.69953226223335L-371.2166214027794,67.08493411323785z" style="fill:rgb(44,139,201)">
    </path>
    <path d="M-405.2040423089096,147.3079931220666L-408.22281643258447,92.45385295935434" style="fill:none;stroke:rgb(70,211,116);stroke-width:5;stroke-linecap:round">
    </path>
    <path d="M-406.5981609270432,147.75503279181314L-409.6269904557104,92.88725831598326" style="fill:none;stroke:rgb(214,94,68);stroke-width:5;stroke-linecap:round">
    </path>
    <path d="M-408.35441509369036,148.31819526051328L-411.39591987825963,93.43324725653103" style="fill:none;stroke:rgb(44,139,201);stroke-width:5;stroke-linecap:round">
    </path>
    <path d="M-430.2663979850397,188.68172031323263L-466.45385693829996,195.1757077886955" style="fill:none;stroke:rgb(160,0,0);stroke-width:4;stroke-linecap:round">
    </path>
    <path d="M-430.2663979850397,188.68172031323263L-432.1748324879743,155.95647753194694" style="fill:none;stroke:rgb(51,4,24);stroke-width:5;stroke-linecap:round">
    </path>
    <path d="M-430.2663979850397,188.68172031323263L-466.45385693829996,195.1757077886955" style="fill:none;stroke:rgb(160,0,0);stroke-width:4;stroke-linecap:round">
    </path>
    <path d="M-382.167488806193,87.23925448039579L-374.885062266029,84.98704333396324L-382.6583649994709,70.58188912720298z" style="fill:rgb(214,94,68)">
    </path>
    <path d="M-389.1438866080633,85.48642036829929L-382.167488806193,87.23925448039579L-382.6583649994709,70.58188912720298z" style="fill:rgb(214,94,68)">
    </path>
    <path d="M-385.3596284993449,88.22647660453751L-378.0671504244876,85.97115685435176L-385.8494421612735,71.55718220090394z" style="fill:rgb(115,55,201)">
    </path>
    <path d="M-392.3367338913825,86.47116494333251L-385.3596284993449,88.22647660453751L-385.8494421612735,71.55718220090394z" style="fill:rgb(115,55,201)">
    </path>
    <path d="M-386.8763946462551,88.69556168267214L-379.5791380930561,86.43876410883449L-387.3657027619784,72.02059890529904z" style="fill:rgb(162,186,45)">
    </path>
    <path d="M-393.85383426976074,86.9390721856218L-386.8763946462551,88.69556168267214L-387.3657027619784,72.02059890529904z" style="fill:rgb(162,186,45)">
    </path>
    <path d="M-392.29764582078496,90.37217348995192L-384.9832971760126,88.11008990341715L-392.7851434371298,73.67694962507373z" style="fill:rgb(115,55,201)">
    </path>
    <path d="M-399.2762696085466,88.61147092866055L-392.29764582078496,90.37217348995192L-392.7851434371298,73.67694962507373z" style="fill:rgb(115,55,201)">
    </path>
    <path d="M-430.2663979850397,188.68172031323263L-432.1748324879743,155.95647753194694L-466.45385693829996,195.1757077886955z" style="fill:rgb(0,0,0); fill-opacity: 0.18">
    </path>
    <path d="M-466.45385693829996,195.1757077886955L-466.45385693829996,195.1757077886955L-430.2663979850397,188.68172031323263z" style="fill:rgb(0,0,0); fill-opacity: 0.18">
    </path>
    <path d="M-432.1748324879742,155.95647753194694L-435.38912020841576,100.83886890633904" style="fill:none;stroke:rgb(115,55,201);stroke-width:5;stroke-linecap:round">
    </path>
    <path d="M-432.1748324879743,155.95647753194694L-466.45385693829996,195.1757077886955" style="fill:none;stroke:rgb(0,0,0);stroke-width:1;stroke-linecap:round">
    </path>
    <path d="M-432.1748324879743,155.95647753194694L-466.45385693829996,195.1757077886955" style="fill:none;stroke:rgb(0,0,0);stroke-width:1;stroke-linecap:round">
    </path>
    <path d="M-462.56113802628175,165.70018500129294L-466.45385693829996,195.1757077886955" style="fill:none;stroke:rgb(0,0,0);stroke-width:1;stroke-linecap:round">
    </path>
    <path d="M-462.56113802628175,165.70018500129294L-466.45385693829996,195.1757077886955" style="fill:none;stroke:rgb(0,0,0);stroke-width:1;stroke-linecap:round">
    </path>
    <path d="M-462.56113802628175,165.70018500129294L-466.45385693829996,195.1757077886955" style="fill:none;stroke:rgb(0,0,0);stroke-width:1;stroke-linecap:round">
    </path>
    <path d="M-462.56113802628175,165.70018500129294L-466.45385693829996,195.1757077886955" style="fill:none;stroke:rgb(0,0,0);stroke-width:1;stroke-linecap:round">
    </path>
    <path d="M-466.45385693829996,195.1757077886955L-466.45385693829996,195.1757077886955" style="fill:none;stroke:rgb(0,0,0);stroke-width:1;stroke-linecap:round">
    </path>
    <path d="M-434.4122002831851,156.67391444675673L-437.6427997662679,101.53447840801866" style="fill:none;stroke:rgb(214,94,68);stroke-width:5;stroke-linecap:round">
    </path>
    <path d="M-435.63351734457956,157.065543371785L-438.8730269713253,101.9141942066028" style="fill:none;stroke:rgb(70,211,116);stroke-width:5;stroke-linecap:round">
    </path>
    <path d="M-519.2917061914109,351.40296591989664L-523.0844182560317,297.5192355540487" style="fill:none;stroke:rgb(109,213,75);stroke-width:5;stroke-linecap:round">
    </path>
    <path d="M-553.6809731615658,229.13669905890967L-519.2917061914109,351.40296591989664" style="fill:none;stroke:rgb(0,44,41);stroke-width:5;stroke-linecap:round">
    </path>
    <path d="M-519.2917061914109,351.40296591989664L-571.1574581333562,369.85932308214984" style="fill:none;stroke:rgb(43,180,168);stroke-width:5;stroke-linecap:round">
    </path>
    <path d="M-486.5993131178315,288.13470697286573L-479.1170213389328,285.5538607315528L-487.04649351441293,271.30958070563213z" style="fill:rgb(109,213,75)">
    </path>
    <path d="M-493.4740851559085,286.1142812010464L-486.5993131178315,288.13470697286573L-487.04649351441293,271.30958070563213z" style="fill:rgb(109,213,75)">
    </path>
    <path d="M-440.03390026516007,158.47657518929867L-443.30554814039994,103.28231410229156" style="fill:none;stroke:rgb(162,186,45);stroke-width:5;stroke-linecap:round">
    </path>
    <path d="M-408.50165275044293,95.38353128705015L-401.136097196519,93.10561111487606L-408.98370558470094,78.62773729500151z" style="fill:rgb(70,211,116)">
    </path>
    <path d="M-415.4837186106266,93.61020593340332L-408.50165275044293,95.38353128705015L-408.98370558470094,78.62773729500151z" style="fill:rgb(70,211,116)">
    </path>
    <path d="M-409.90883832802825,95.81872675733165L-402.5388274564108,93.5394287042939L-410.3904159768576,79.05767202631912z" style="fill:rgb(214,94,68)">
    </path>
    <path d="M-416.8911962178926,94.04430309347642L-409.90883832802825,95.81872675733165L-410.3904159768576,79.05767202631912z" style="fill:rgb(214,94,68)">
    </path>
    <path d="M-411.6815641230285,96.36697160031746L-404.3059386753414,94.08593714654342L-412.16254261430845,79.59928940114013z" style="fill:rgb(44,139,201)">
    </path>
    <path d="M-418.6642883358517,94.59116383852879L-411.6815641230285,96.36697160031746L-412.16254261430845,79.59928940114013z" style="fill:rgb(44,139,201)">
    </path>
    <path d="M-448.5415568201909,161.204650065574L-451.8754965740817,105.92747167964245" style="fill:none;stroke:rgb(44,139,201);stroke-width:5;stroke-linecap:round">
    </path>
    <path d="M-553.6809731615658,229.13669905890967L-519.2917061914109,351.40296591989664L-486.3539847836224,366.38983270413365z" style="fill:rgb(0,0,0); fill-opacity: 0.18">
    </path>
    <path d="M-527.7534625564051,321.31836531666465L-579.9874824921988,339.5432788654961" style="fill:none;stroke:rgb(43,180,168);stroke-width:5;stroke-linecap:round">
    </path>
    <path d="M-462.56113802628175,165.70018500129285L-465.99817617416113,110.28650758817021" style="fill:none;stroke:rgb(214,94,68);stroke-width:5;stroke-linecap:round">
    </path>
    <path d="M-462.56113802628175,165.70018500129294L-465.99817617416113,110.28650758817027" style="fill:none;stroke:rgb(162,186,45);stroke-width:5;stroke-linecap:round">
    </path>
    <path d="M-462.56113802628175,165.70018500129285L-465.99817617416113,110.28650758817021" style="fill:none;stroke:rgb(70,211,116);stroke-width:5;stroke-linecap:round">
    </path>
    <path d="M-462.56113802628175,165.70018500129294L-465.99817617416113,110.28650758817027" style="fill:none;stroke:rgb(44,139,201);stroke-width:5;stroke-linecap:round">
    </path>
    <path d="M-528.0877276725037,215.30885053494112L-486.3539847836224,366.38983270413365L-553.6809731615658,229.13669905890967z" style="fill:rgb(0,0,0); fill-opacity: 0.18">
    </path>
    <path d="M-435.72653490102766,103.8032774666634L-428.2745434190767,101.49862555068366L-436.19932763312255,86.94568334720358z" style="fill:rgb(115,55,201)">
    </path>
    <path d="M-442.71405536608205,102.0086428196129L-435.72653490102766,103.8032774666634L-436.19932763312255,86.94568334720358z" style="fill:rgb(115,55,201)">
    </path>
    <path d="M-437.98510382399616,104.50177735200258L-430.52591902688835,102.19490078404912L-438.45712202442036,87.6357359908788z" style="fill:rgb(214,94,68)">
    </path>
    <path d="M-444.9730582986471,102.7053691849638L-437.98510382399616,104.50177735200258L-438.45712202442036,87.6357359908788z" style="fill:rgb(214,94,68)">
    </path>
    <path d="M-439.2180019362343,104.8830715340289L-431.75488902066627,102.57498013031544L-439.6895969302739,88.01241890333782z" style="fill:rgb(70,211,116)">
    </path>
    <path d="M-446.20619213013765,103.08569487645379L-439.2180019362343,104.8830715340289L-439.6895969302739,88.01241890333782z" style="fill:rgb(70,211,116)">
    </path>
    <path d="M-523.6061938057217,300.8993881358495L-516.0064035722609,298.2780134770707L-524.0404338809839,283.9369526697258z" style="fill:rgb(109,213,75)">
    </path>
    <path d="M-530.4865754833329,298.8465661139178L-523.6061938057217,300.8993881358495L-524.0404338809839,283.9369526697258z" style="fill:rgb(109,213,75)">
    </path>
    <path d="M-443.660157686178,106.25688184835681L-436.18288312291554,103.94441072030101L-444.1302254683258,89.36961399341024z" style="fill:rgb(162,186,45)">
    </path>
    <path d="M-450.64919017642256,104.45601354024333L-443.660157686178,106.25688184835681L-444.1302254683258,89.36961399341024z" style="fill:rgb(162,186,45)">
    </path>
    <path d="M-452.24878391694506,108.91305690522745L-444.7440907010397,106.59210610425471L-452.7158883166291,91.99366132429698z" style="fill:rgb(44,139,201)">
    </path>
    <path d="M-536.3046374946458,290.9158493839662L-588.9118445203782,308.9033459664675" style="fill:none;stroke:rgb(43,180,168);stroke-width:5;stroke-linecap:round">
    </path>
    <path d="M-459.2394138367913,107.10542812141183L-452.24878391694506,108.91305690522745L-452.7158883166291,91.99366132429698z" style="fill:rgb(44,139,201)">
    </path>
    <path d="M-571.6769834951865,363.1048285516008L-575.107881242394,365.2301683771871L-584.3009639348267,374.53642171377896z" style="fill:rgb(43,180,168)">
    </path>
    <path d="M-553.6809731615658,229.13669905890967L-528.0877276725037,215.30885053494112" style="fill:none;stroke:rgb(160,0,0);stroke-width:4;stroke-linecap:round">
    </path>
    <path d="M-568.3912686077593,376.8969339315603L-567.516309355244,370.32416282229343L-584.3009639348267,374.53642171377896z" style="fill:rgb(43,180,168)">
    </path>
    <path d="M-567.516309355244,370.32416282229343L-571.6769834951865,363.1048285516008L-584.3009639348267,374.53642171377896z" style="fill:rgb(43,180,168)">
    </path>
    <path d="M-466.40238719176966,113.29029337743034L-458.85240017442936,110.95533471741592L-466.8645775629626,96.31794366665846z" style="fill:rgb(214,94,68)">
    </path>
    <path d="M-466.4023871917698,113.29029337743043L-458.8524001744294,110.95533471741597L-466.8645775629628,96.31794366665855z" style="fill:rgb(162,186,45)">
    </path>
    <path d="M-466.40238719176966,113.29029337743034L-458.85240017442936,110.95533471741592L-466.8645775629626,96.31794366665846z" style="fill:rgb(70,211,116)">
    </path>
    <path d="M-466.4023871917698,113.29029337743043L-458.8524001744294,110.95533471741597L-466.8645775629628,96.31794366665855z" style="fill:rgb(44,139,201)">
    </path>
    <path d="M-473.3955601538269,111.47149610152053L-466.40238719176966,113.29029337743034L-466.8645775629626,96.31794366665846z" style="fill:rgb(214,94,68)">
    </path>
    <path d="M-473.3955601538269,111.47149610152053L-466.40238719176966,113.29029337743034L-466.8645775629626,96.31794366665846z" style="fill:rgb(70,211,116)">
    </path>
    <path d="M-473.39556015382703,111.47149610152057L-466.4023871917698,113.29029337743043L-466.8645775629628,96.31794366665855z" style="fill:rgb(162,186,45)">
    </path>
    <path d="M-473.39556015382703,111.47149610152057L-466.4023871917698,113.29029337743043L-466.8645775629628,96.31794366665855z" style="fill:rgb(44,139,201)">
    </path>
    <path d="M-544.946655914626,260.1903520573771L-597.9320641556587,277.9343059962381" style="fill:none;stroke:rgb(43,180,168);stroke-width:5;stroke-linecap:round">
    </path>
    <path d="M-580.5171335648978,332.7275854579777L-583.9475660174309,334.92836597682174L-593.2252626751148,344.16205796212006z" style="fill:rgb(43,180,168)">
    </path>
    <path d="M-577.2090394527834,346.6098873314862L-576.3428447147456,339.95602762819266L-593.2252626751148,344.16205796212006z" style="fill:rgb(43,180,168)">
    </path>
    <path d="M-576.3428447147456,339.95602762819266L-580.5171335648978,332.7275854579777L-593.2252626751148,344.16205796212006z" style="fill:rgb(43,180,168)">
    </path>
    <path d="M-553.6809731615657,229.13669905890958L-607.0496941637635,246.63082785803817" style="fill:none;stroke:rgb(43,180,168);stroke-width:5;stroke-linecap:round">
    </path>
    <path d="M-589.4518086591386,302.02552778248406L-592.8815701333451,304.3032436728019L-602.2451694804959,313.46228666514753z" style="fill:rgb(43,180,168)">
    </path>
    <path d="M-586.1210433180405,315.9991716402967L-585.2638511060483,309.2628601367283L-602.2451694804959,313.46228666514753z" style="fill:rgb(43,180,168)">
    </path>
    <path d="M-585.2638511060483,309.2628601367283L-589.4518086591386,302.02552778248406L-602.2451694804959,313.46228666514753z" style="fill:rgb(43,180,168)">
    </path>
    <path d="M-598.4825330178479,270.99341780779696L-601.9114112664514,273.3495989800892L-611.3622290320196,282.4318504121158z" style="fill:rgb(43,180,168)">
    </path>
    <path d="M-595.1287988807751,285.0595705454717L-594.2808533846659,278.23941400644134L-611.3622290320196,282.4318504121158z" style="fill:rgb(43,180,168)">
    </path>
    <path d="M-594.2808533846659,278.23941400644134L-598.4825330178479,270.99341780779696L-611.3622290320196,282.4318504121158z" style="fill:rgb(43,180,168)">
    </path>
    <path d="M-607.61086382974,239.62590459532987L-611.0386398295414,242.06211719535892L-620.5780194661994,251.06537792468814z" style="fill:rgb(43,180,168)">
    </path>
    <path d="M-604.2338576282093,253.7857550396429L-603.3954094005262,246.88032937694487L-620.5780194661994,251.06537792468814z" style="fill:rgb(43,180,168)">
    </path>
    <path d="M-603.3954094005262,246.88032937694487L-607.61086382974,239.62590459532987L-620.5780194661994,251.06537792468814z" style="fill:rgb(43,180,168)">
    </path>
</svg>