<svg viewBox="-1163.5 -590 2327 1180" width="2327" height="1180" style="background-color: rgb(255, 255, 255);">
    <path d="M-139.22149829031247,-11.8585151758396L-139.22149829031247,-11.8585151758396" style="fill:none;stroke:rgb(0,0,0);stroke-width:1;stroke-linecap:round">
    </path>
    <path d="M-8.764780625953742,45.66831198465309L-139.22149829031247,-11.8585151758396" style="fill:none;stroke:rgb(160,0,0);stroke-width:4;stroke-linecap:round">
    </path>
    <path d="M-8.764780625953742,45.66831198465309L-139.22149829031247,-11.8585151758396" style="fill:none;stroke:rgb(0,0,0);stroke-width:1;stroke-linecap:round">
    </path>
    <path d="M-139.22149829031247,-11.8585151758396L-265.01485691291924,26.35703319788878" style="fill:none;stroke:rgb(0,0,0);stroke-width:1;stroke-linecap:round">
    </path>
    <path d="M-8.764780625953742,45.66831198465309L-139.22149829031247,-11.8585151758396" style="fill:none;stroke:rgb(0,0,0);stroke-width:1;stroke-linecap:round">
    </path>
    <path d="M-265.01485691291924,26.35703319788878L-139.22149829031247,-11.8585151758396" style="fill:none;stroke:rgb(0,0,0);stroke-width:1;stroke-linecap:round">
    </path>
    <path d="M-8.764780625953742,45.66831198465309L-139.22149829031247,-11.8585151758396" style="fill:none;stroke:rgb(0,0,0);stroke-width:1;stroke-linecap:round">
    </path>
    <path d="M-139.22149829031247,-11.8585151758396L-265.01485691291924,26.35703319788878" style="fill:none;stroke:rgb(0,0,0);stroke-width:1;stroke-linecap:round">
    </path>
    <path d="M-8.764780625953742,45.66831198465309L-139.22149829031247,-11.8585151758396" style="fill:none;stroke:rgb(0,0,0);stroke-width:1;stroke-linecap:round">
    </path>
    <path d="M-265.01485691291924,26.35703319788878L-139.22149829031247,-11.8585151758396" style="fill:none;stroke:rgb(0,0,0);stroke-width:1;stroke-linecap:round">
    </path>
    <path d="M-8.764780625953742,45.66831198465309L-139.22149829031247,-11.8585151758396" style="fill:none;stroke:rgb(0,0,0);stroke-width:1;stroke-linecap:round">
    </path>
    <path d="M-139.22149829031247,-11.8585151758396L-588.646896494547,124.67522741213739" style="fill:none;stroke:rgb(0,0,0);stroke-width:1;stroke-linecap:round">
    </path>
    <path d="M-8.764780625953742,45.66831198465309L-139.22149829031247,-11.8585151758396" style="fill:none;stroke:rgb(0,0,0);stroke-width:1;stroke-linecap:round">
    </path>
    <path d="M-139.22149829031247,-11.8585151758396L-139.22149829031247,-11.8585151758396L-8.764780625953742,45.66831198465309z" style="fill:rgb(0,0,0); fill-opacity: 0.18">
    </path>
    <path d="M-139.22149829031247,-11.8585151758396L-265.01485691291924,26.35703319788878L-8.764780625953742,45.66831198465309z" style="fill:rgb(0,0,0); fill-opacity: 0.18">
    </path>
    <path d="M-139.22149829031247,-11.8585151758396L-265.01485691291924,26.35703319788878L-8.764780625953742,45.66831198465309z" style="fill:rgb(0,0,0); fill-opacity: 0.18">
    </path>
    <path d="M-136.44637437819742,87.37641375499172L-265.01485691291924,26.35703319788878" style="fill:none;stroke:rgb(0,0,0);stroke-width:1;stroke-linecap:round">
    </path>
    <path d="M-136.44637437819742,87.37641375499172L-265.01485691291924,26.35703319788878" style="fill:none;stroke:rgb(0,0,0);stroke-width:1;stroke-linecap:round">
    </path>
    <path d="M-136.44637437819742,87.37641375499172L-265.01485691291924,26.35703319788878" style="fill:none;stroke:rgb(0,0,0);stroke-width:1;stroke-linecap:round">
    </path>
    <path d="M-136.44637437819742,87.37641375499172L-265.01485691291924,26.35703319788878" style="fill:none;stroke:rgb(0,0,0);stroke-width:1;stroke-linecap:round">
    </path>
    <path d="M-8.764780625953742,45.66831198465309L-8.764780625953742,45.66831198465309L-139.22149829031247,-11.8585151758396z" style="fill:rgb(0,0,0); fill-opacity: 0.18">
    </path>
    <path d="M-265.01485691291924,26.35703319788878L-139.22149829031247,-11.8585151758396L-136.44637437819742,87.37641375499172z" style="fill:rgb(0,0,0); fill-opacity: 0.18">
    </path>
    <path d="M-265.01485691291924,26.35703319788878L-139.22149829031247,-11.8585151758396L-136.44637437819742,87.37641375499172z" style="fill:rgb(0,0,0); fill-opacity: 0.18">
    </path>
    <path d="M-136.44637437819742,87.37641375499172L-8.764780625953742,45.66831198465309L-139.22149829031247,-11.8585151758396z" style="fill:rgb(0,0,0); fill-opacity: 0.18">
    </path>
    <path d="M-136.44637437819742,87.37641375499172L-8.764780625953742,45.66831198465309L-139.22149829031247,-11.8585151758396z" style="fill:rgb(0,0,0); fill-opacity: 0.18">
    </path>
    <path d="M-8.764780625953625,45.66831198465312L-8.764780625953625,45.66831198465312" style="fill:none;stroke:rgb(0,0,0);stroke-width:1;stroke-linecap:round">
    </path>
    <path d="M-105.07271436401642,102.26654282964624L-8.764780625953625,45.66831198465312" style="fill:none;stroke:rgb(160,0,0);stroke-width:4;stroke-linecap:round">
    </path>
    <path d="M-108.09015848647314,-56.08778665555343L-8.764780625953625,45.66831198465312" style="fill:none;stroke:rgb(0,0,0);stroke-width:1;stroke-linecap:round">
    </path>
    <path d="M-8.764780625953625,45.66831198465312L-136.4463743781973,87.37641375499177" style="fill:none;stroke:rgb(0,0,0);stroke-width:1;stroke-linecap:round">
    </path>
    <path d="M-108.09015848647314,-56.08778665555343L-8.764780625953625,45.66831198465312" style="fill:none;stroke:rgb(0,0,0);stroke-width:1;stroke-linecap:round">
    </path>
    <path d="M-136.4463743781973,87.37641375499177L-8.764780625953625,45.66831198465312" style="fill:none;stroke:rgb(0,0,0);stroke-width:1;stroke-linecap:round">
    </path>
    <path d="M22.431005702372705,-94.69614616578787L-8.764780625953625,45.66831198465312" style="fill:none;stroke:rgb(0,0,0);stroke-width:1;stroke-linecap:round">
    </path>
    <path d="M-8.764780625953625,45.66831198465312L-136.4463743781973,87.37641375499177" style="fill:none;stroke:rgb(0,0,0);stroke-width:1;stroke-linecap:round">
    </path>
    <path d="M22.431005702372705,-94.69614616578787L-8.764780625953625,45.66831198465312" style="fill:none;stroke:rgb(0,0,0);stroke-width:1;stroke-linecap:round">
    </path>
    <path d="M-136.4463743781973,87.37641375499177L-8.764780625953625,45.66831198465312" style="fill:none;stroke:rgb(0,0,0);stroke-width:1;stroke-linecap:round">
    </path>
    <path d="M22.431005702372705,-94.69614616578787L-8.764780625953625,45.66831198465312" style="fill:none;stroke:rgb(0,0,0);stroke-width:1;stroke-linecap:round">
    </path>
    <path d="M-8.764780625953625,45.66831198465312L-466.45385693829996,195.1757077886955" style="fill:none;stroke:rgb(0,0,0);stroke-width:1;stroke-linecap:round">
    </path>
    <path d="M22.431005702372705,-94.69614616578787L-8.764780625953625,45.66831198465312" style="fill:none;stroke:rgb(0,0,0);stroke-width:1;stroke-linecap:round">
    </path>
    <path d="M-8.764780625953742,45.66831198465309L-136.44637437819742,87.37641375499172L-265.01485691291924,26.35703319788878z" style="fill:rgb(0,0,0); fill-opacity: 0.18">
    </path>
    <path d="M-8.764780625953742,45.66831198465309L-136.44637437819742,87.37641375499172L-265.01485691291924,26.35703319788878z" style="fill:rgb(0,0,0); fill-opacity: 0.18">
    </path>
    <path d="M-8.764780625953625,45.66831198465312L-136.4463743781973,87.37641375499177L22.431005702372705,-94.69614616578787z" style="fill:rgb(0,0,0); fill-opacity: 0.18">
    </path>
    <path d="M-8.764780625953625,45.66831198465312L-136.4463743781973,87.37641375499177L22.431005702372705,-94.69614616578787z" style="fill:rgb(0,0,0); fill-opacity: 0.18">
    </path>
    <path d="M-8.764780625953625,45.66831198465312L-8.764780625953625,45.66831198465312L-108.09015848647314,-56.08778665555343z" style="fill:rgb(0,0,0); fill-opacity: 0.18">
    </path>
    <path d="M-466.4538569383001,195.17570778869543L-8.764780625953742,45.66831198465309L-139.22149829031247,-11.8585151758396z" style="fill:rgb(0,0,0); fill-opacity: 0.18">
    </path>
    <path d="M-588.646896494547,124.67522741213739L-444.4253299585708,80.86125890982892" style="fill:none;stroke:rgb(0,0,0);stroke-width:1;stroke-linecap:round">
    </path>
    <path d="M-319.12036415945846,147.04817326775824L-444.4253299585708,80.86125890982892" style="fill:none;stroke:rgb(0,0,0);stroke-width:1;stroke-linecap:round">
    </path>
    <path d="M-444.4253299585708,80.86125890982892L-588.646896494547,124.67522741213739" style="fill:none;stroke:rgb(0,0,0);stroke-width:1;stroke-linecap:round">
    </path>
    <path d="M-319.12036415945846,147.04817326775824L-444.4253299585708,80.86125890982892" style="fill:none;stroke:rgb(0,0,0);stroke-width:1;stroke-linecap:round">
    </path>
    <path d="M-588.646896494547,124.67522741213739L-444.4253299585708,80.86125890982892" style="fill:none;stroke:rgb(0,0,0);stroke-width:1;stroke-linecap:round">
    </path>
    <path d="M-319.12036415945846,147.04817326775824L-444.4253299585708,80.86125890982892" style="fill:none;stroke:rgb(0,0,0);stroke-width:1;stroke-linecap:round">
    </path>
    <path d="M-444.4253299585708,80.86125890982892L-588.646896494547,124.67522741213739" style="fill:none;stroke:rgb(0,0,0);stroke-width:1;stroke-linecap:round">
    </path>
    <path d="M-319.12036415945846,147.04817326775824L-444.4253299585708,80.86125890982892" style="fill:none;stroke:rgb(0,0,0);stroke-width:1;stroke-linecap:round">
    </path>
    <path d="M22.431005702372705,-94.69614616578787L-108.09015848647314,-56.08778665555343" style="fill:none;stroke:rgb(22,55,11);stroke-width:5;stroke-linecap:round">
    </path>
    <path d="M22.43100570237274,-94.69614616578788L22.23031001972992,-147.4167858318856" style="fill:none;stroke:rgb(109,213,75);stroke-width:5;stroke-linecap:round">
    </path>
    <path d="M-108.09015848647314,-56.08778665555343L22.431005702372705,-94.69614616578787" style="fill:none;stroke:rgb(0,44,41);stroke-width:5;stroke-linecap:round">
    </path>
    <path d="M22.431005702372705,-94.69614616578787L22.230310019729885,-147.41678583188556" style="fill:none;stroke:rgb(43,180,168);stroke-width:5;stroke-linecap:round">
    </path>
    <path d="M22.431005702372705,-94.69614616578787L-108.09015848647314,-56.08778665555343" style="fill:none;stroke:rgb(10,15,55);stroke-width:5;stroke-linecap:round">
    </path>
    <path d="M22.43100570237274,-94.69614616578788L22.23031001972992,-147.4167858318856" style="fill:none;stroke:rgb(74,87,214);stroke-width:5;stroke-linecap:round">
    </path>
    <path d="M-446.4901755107746,44.0114546953769L22.431005702372705,-94.69614616578787" style="fill:none;stroke:rgb(40,0,38);stroke-width:5;stroke-linecap:round">
    </path>
    <path d="M22.431005702372705,-94.69614616578787L22.230310019729885,-147.41678583188556" style="fill:none;stroke:rgb(167,41,160);stroke-width:5;stroke-linecap:round">
    </path>
    <path d="M-65.75057337336087,83.86007084619142L-64.04493240352835,91.77386530908652L-61.5198741791124,87.78779349514576z" style="fill:rgb(197,147,42)">
    </path>
    <path d="M-108.09015848647314,-56.08778665555343L22.431005702372705,-94.69614616578787L-8.764780625953625,45.66831198465312z" style="fill:rgb(0,0,0); fill-opacity: 0.18">
    </path>
    <path d="M-108.09015848647314,-56.08778665555343L-136.4463743781973,87.37641375499177" style="fill:none;stroke:rgb(0,0,0);stroke-width:1;stroke-linecap:round">
    </path>
    <path d="M-108.09015848647314,-56.08778665555343L-136.4463743781973,87.37641375499177" style="fill:none;stroke:rgb(0,0,0);stroke-width:1;stroke-linecap:round">
    </path>
    <path d="M-108.09015848647314,-56.08778665555343L-136.4463743781973,87.37641375499177" style="fill:none;stroke:rgb(0,0,0);stroke-width:1;stroke-linecap:round">
    </path>
    <path d="M-108.09015848647314,-56.08778665555343L-136.4463743781973,87.37641375499177" style="fill:none;stroke:rgb(0,0,0);stroke-width:1;stroke-linecap:round">
    </path>
    <path d="M-136.4463743781973,87.37641375499177L-8.764780625953625,45.66831198465312L-108.09015848647314,-56.08778665555343z" style="fill:rgb(0,0,0); fill-opacity: 0.18">
    </path>
    <path d="M-136.4463743781973,87.37641375499177L-8.764780625953625,45.66831198465312L-108.09015848647314,-56.08778665555343z" style="fill:rgb(0,0,0); fill-opacity: 0.18">
    </path>
    <path d="M-64.04493240352835,91.77386530908652L-58.84642830395189,94.18893650624715L-61.5198741791124,87.78779349514576z" style="fill:rgb(197,147,42)">
    </path>
    <path d="M-57.3323165096738,87.75085432341666L-58.84642830395189,94.18893650624715L-50.76770660698375,84.21333225637322z" style="fill:rgb(197,147,42)">
    </path>
    <path d="M-61.60891103817555,81.36058285400007L-65.75057337336087,83.86007084619142L-61.5198741791124,87.78779349514576z" style="fill:rgb(197,147,42)">
    </path>
    <path d="M-61.60891103817555,81.36058285400007L-57.3323165096738,87.75085432341666L-50.76770660698375,84.21333225637322z" style="fill:rgb(197,147,42)">
    </path>
    <path d="M-105.07271436401642,102.26654282964624L-61.51987417911239,87.78779349514576" style="fill:none;stroke:rgb(197,147,42);stroke-width:5;stroke-linecap:round">
    </path>
    <path d="M-58.84642830395189,94.18893650624715L-57.3323165096738,87.75085432341666L-61.5198741791124,87.78779349514576z" style="fill:rgb(197,147,42)">
    </path>
    <path d="M-57.3323165096738,87.75085432341666L-61.60891103817555,81.36058285400007L-61.5198741791124,87.78779349514576z" style="fill:rgb(197,147,42)">
    </path>
    <path d="M8.033100717674207,-90.43722390365453L7.743231559516946,-143.3127195614619" style="fill:none;stroke:rgb(109,213,75);stroke-width:5;stroke-linecap:round">
    </path>
    <path d="M-66.19420665262176,52.9417376720668L-64.48217178493022,60.894289866704554L-61.94849355969398,56.84749446773518z" style="fill:rgb(197,147,42)">
    </path>
    <path d="M-108.09015848647314,-56.08778665555343L-105.07271436401642,102.26654282964624L-8.764780625953625,45.66831198465312z" style="fill:rgb(0,0,0); fill-opacity: 0.18">
    </path>
    <path d="M-64.48217178493022,60.894289866704554L-59.26533686134681,63.26427133131193L-61.94849355969398,56.84749446773518z" style="fill:rgb(197,147,42)">
    </path>
    <path d="M-57.74624116428123,56.759290626796755L-59.26533686134681,63.26427133131193L-51.155865758855285,53.337539736663565z" style="fill:rgb(197,147,42)">
    </path>
    <path d="M-62.03818579546269,50.37297483366022L-66.19420665262176,52.9417376720668L-61.94849355969398,56.84749446773518z" style="fill:rgb(197,147,42)">
    </path>
    <path d="M-62.03818579546269,50.37297483366022L-57.74624116428123,56.759290626796755L-51.155865758855285,53.337539736663565z" style="fill:rgb(197,147,42)">
    </path>
    <path d="M-105.6672485680051,71.06561203925547L-61.94849355969397,56.84749446773519" style="fill:none;stroke:rgb(197,147,42);stroke-width:5;stroke-linecap:round">
    </path>
    <path d="M-1.1452552343665598,-87.72225220912858L-1.492286672123709,-140.69637569555024" style="fill:none;stroke:rgb(167,41,160);stroke-width:5;stroke-linecap:round">
    </path>
    <path d="M-1.8629605694695655,-87.50995387596342L-2.2144722107647357,-140.4917866669021" style="fill:none;stroke:rgb(74,87,214);stroke-width:5;stroke-linecap:round">
    </path>
    <path d="M-59.26533686134681,63.26427133131193L-57.74624116428123,56.759290626796755L-61.94849355969398,56.84749446773518z" style="fill:rgb(197,147,42)">
    </path>
    <path d="M-57.74624116428123,56.759290626796755L-62.03818579546269,50.37297483366022L-61.94849355969398,56.84749446773518z" style="fill:rgb(197,147,42)">
    </path>
    <path d="M-6.107360004454745,-86.25445404718585L-6.485397650700919,-139.2818697682206" style="fill:none;stroke:rgb(43,180,168);stroke-width:5;stroke-linecap:round">
    </path>
    <path d="M22.807703973110105,-145.14746526750918L29.049366509650586,-146.91927498465725L22.179751390449926,-160.69800464627292z" style="fill:rgb(109,213,75)">
    </path>
    <path d="M22.807703973110105,-145.14746526750918L29.04936650965055,-146.91927498465725L22.17975139044989,-160.6980046462729z" style="fill:rgb(43,180,168)">
    </path>
    <path d="M22.807703973110105,-145.14746526750918L29.049366509650586,-146.91927498465725L22.179751390449926,-160.69800464627292z" style="fill:rgb(74,87,214)">
    </path>
    <path d="M22.807703973110105,-145.14746526750918L29.04936650965055,-146.91927498465725L22.17975139044989,-160.6980046462729z" style="fill:rgb(167,41,160)">
    </path>
    <path d="M15.76580694710112,-146.51360763842237L22.807703973110105,-145.14746526750918L22.17975139044989,-160.6980046462729z" style="fill:rgb(43,180,168)">
    </path>
    <path d="M15.76580694710112,-146.51360763842237L22.807703973110105,-145.14746526750918L22.17975139044989,-160.6980046462729z" style="fill:rgb(167,41,160)">
    </path>
    <path d="M15.765806947101153,-146.51360763842234L22.807703973110105,-145.14746526750918L22.179751390449926,-160.69800464627292z" style="fill:rgb(109,213,75)">
    </path>
    <path d="M15.765806947101153,-146.51360763842234L22.807703973110105,-145.14746526750918L22.179751390449926,-160.69800464627292z" style="fill:rgb(74,87,214)">
    </path>
    <path d="M-66.64110631494003,21.795758998014012L-64.92262945452093,29.787426176395975L-62.38027250695148,25.679119104586082z" style="fill:rgb(197,147,42)">
    </path>
    <path d="M-64.92262945452093,29.787426176395975L-59.6873341913183,32.11158680454896L-62.38027250695148,25.679119104586082z" style="fill:rgb(197,147,42)">
    </path>
    <path d="M-58.16322212422126,25.538893783038155L-59.6873341913183,32.11158680454896L-51.54687902223099,22.23471932335406z" style="fill:rgb(197,147,42)">
    </path>
    <path d="M-62.470627382228805,19.15676620521032L-66.64110631494003,21.795758998014012L-62.38027250695148,25.679119104586082z" style="fill:rgb(197,147,42)">
    </path>
    <path d="M-62.470627382228805,19.15676620521032L-58.16322212422126,25.538893783038155L-51.54687902223099,22.23471932335406z" style="fill:rgb(197,147,42)">
    </path>
    <path d="M-106.26621007068228,39.63233828349575L-62.38027250695148,25.679119104586096" style="fill:none;stroke:rgb(197,147,42);stroke-width:5;stroke-linecap:round">
    </path>
    <path d="M-59.6873341913183,32.11158680454896L-58.16322212422126,25.538893783038155L-62.38027250695148,25.679119104586082z" style="fill:rgb(197,147,42)">
    </path>
    <path d="M-58.16322212422126,25.538893783038155L-62.470627382228805,19.15676620521032L-62.38027250695148,25.679119104586082z" style="fill:rgb(197,147,42)">
    </path>
    <path d="M22.431005702372705,-94.69614616578787L-108.09015848647314,-56.08778665555343L-136.4463743781973,87.37641375499177z" style="fill:rgb(0,0,0); fill-opacity: 0.18">
    </path>
    <path d="M22.431005702372705,-94.69614616578787L-108.09015848647314,-56.08778665555343L-136.4463743781973,87.37641375499177z" style="fill:rgb(0,0,0); fill-opacity: 0.18">
    </path>
    <path d="M-588.646896494547,124.67522741213739L-139.22149829031247,-11.8585151758396L-466.4538569383001,195.17570778869543z" style="fill:rgb(0,0,0); fill-opacity: 0.18">
    </path>
    <path d="M8.294317987712864,-141.02757602852762L14.578970817786079,-142.8115893243502L7.670206716037371,-156.6332977797945z" style="fill:rgb(109,213,75)">
    </path>
    <path d="M1.2457939908904385,-142.40340074023607L8.294317987712864,-141.02757602852762L7.670206716037371,-156.6332977797945z" style="fill:rgb(109,213,75)">
    </path>
    <path d="M-24.25942292692646,-80.88504613913813L-24.75149850800443,-134.10723855278962" style="fill:none;stroke:rgb(43,180,168);stroke-width:5;stroke-linecap:round">
    </path>
    <path d="M-24.98650214453634,-80.66997499722518L-25.483165558664272,-133.8999634923252" style="fill:none;stroke:rgb(167,41,160);stroke-width:5;stroke-linecap:round">
    </path>
    <path d="M-108.09015848647314,-56.08778665555343L-108.09015848647314,-56.08778665555343L-8.764780625953625,45.66831198465312z" style="fill:rgb(0,0,0); fill-opacity: 0.18">
    </path>
    <path d="M-108.09015848647314,-56.08778665555343L-105.07271436401642,102.26654282964624" style="fill:none;stroke:rgb(50,34,0);stroke-width:5;stroke-linecap:round">
    </path>
    <path d="M-67.09130856819858,-9.580388628194777L-65.36634107573012,-1.5492444543717467L-62.81524608623354,-5.719863819958154z" style="fill:rgb(197,147,42)">
    </path>
    <path d="M-65.36634107573012,-1.5492444543717467L-60.11245458232484,0.7283516835698819L-62.81524608623354,-5.719863819958154z" style="fill:rgb(197,147,42)">
    </path>
    <path d="M-58.58329336529963,-5.912880060551575L-60.11245458232484,0.7283516835698819L-51.94077799244221,-9.097642207552175z" style="fill:rgb(197,147,42)">
    </path>
    <path d="M-62.90627097153432,-12.29058203228088L-67.09130856819858,-9.580388628194777L-62.81524608623354,-5.719863819958154z" style="fill:rgb(197,147,42)">
    </path>
    <path d="M-62.90627097153432,-12.29058203228088L-58.58329336529963,-5.912880060551575L-51.94077799244221,-9.097642207552175z" style="fill:rgb(197,147,42)">
    </path>
    <path d="M-106.86964850979946,7.964116591888389L-62.815246086233536,-5.719863819958146" style="fill:none;stroke:rgb(197,147,42);stroke-width:5;stroke-linecap:round">
    </path>
    <path d="M-32.05354060653464,-78.57953423760466L-32.59487715001706,-131.88527600739093" style="fill:none;stroke:rgb(74,87,214);stroke-width:5;stroke-linecap:round">
    </path>
    <path d="M-588.646896494547,124.67522741213739L-606.1000104050623,288.76717754847164" style="fill:none;stroke:rgb(0,0,0);stroke-width:1;stroke-linecap:round">
    </path>
    <path d="M-486.3539847836226,366.38983270413365L-606.1000104050623,288.76717754847164" style="fill:none;stroke:rgb(0,0,0);stroke-width:1;stroke-linecap:round">
    </path>
    <path d="M-606.1000104050623,288.76717754847164L-606.1000104050623,288.76717754847164" style="fill:none;stroke:rgb(0,0,0);stroke-width:1;stroke-linecap:round">
    </path>
    <path d="M-486.3539847836226,366.38983270413365L-606.1000104050623,288.76717754847164" style="fill:none;stroke:rgb(0,0,0);stroke-width:1;stroke-linecap:round">
    </path>
    <path d="M-486.3539847836226,366.38983270413365L-606.1000104050623,288.76717754847164" style="fill:none;stroke:rgb(0,0,0);stroke-width:1;stroke-linecap:round">
    </path>
    <path d="M-606.1000104050623,288.76717754847164L-648.8523680196821,142.9654228137446" style="fill:none;stroke:rgb(0,0,0);stroke-width:1;stroke-linecap:round">
    </path>
    <path d="M-486.3539847836226,366.38983270413365L-606.1000104050623,288.76717754847164" style="fill:none;stroke:rgb(0,0,0);stroke-width:1;stroke-linecap:round">
    </path>
    <path d="M-0.9580725590836133,-138.40111627013943L5.354063797169306,-140.19293126598365L-1.5797134937221162,-154.04202320607953z" style="fill:rgb(167,41,160)">
    </path>
    <path d="M-8.01075837859325,-139.7831313563716L-0.9580725590836133,-138.40111627013943L-1.5797134937221162,-154.04202320607953z" style="fill:rgb(167,41,160)">
    </path>
    <path d="M-1.681580777992072,-138.19573527025457L4.632707228731359,-139.98816105131658L-2.3030278351189786,-153.83939377586157z" style="fill:rgb(74,87,214)">
    </path>
    <path d="M-8.734589973852374,-139.57823500917607L-1.681580777992072,-138.19573527025457L-2.3030278351189786,-153.83939377586157z" style="fill:rgb(74,87,214)">
    </path>
    <path d="M-60.11245458232484,0.7283516835698819L-58.58329336529963,-5.912880060551575L-62.81524608623354,-5.719863819958154z" style="fill:rgb(197,147,42)">
    </path>
    <path d="M-58.58329336529963,-5.912880060551575L-62.90627097153432,-12.29058203228088L-62.81524608623354,-5.719863819958154z" style="fill:rgb(197,147,42)">
    </path>
    <path d="M-35.841917580891874,-77.45892654845889L-36.40726181490366,-130.80525981530553" style="fill:none;stroke:rgb(109,213,75);stroke-width:5;stroke-linecap:round">
    </path>
    <path d="M-35.932382467038344,-77.43216689710962L-36.49830050752364,-130.77946932699479" style="fill:none;stroke:rgb(74,87,214);stroke-width:5;stroke-linecap:round">
    </path>
    <path d="M-5.960338258898832,-136.98113194339922L0.3666818850055086,-138.777171973749L-6.580636653104855,-152.64106355084505z" style="fill:rgb(43,180,168)">
    </path>
    <path d="M-13.01525374676532,-138.36649960499264L-5.960338258898832,-136.98113194339922L-6.580636653104855,-152.64106355084505z" style="fill:rgb(43,180,168)">
    </path>
    <path d="M-42.35491114185368,-75.53237311590115L-42.96162752541055,-128.94846368416088" style="fill:none;stroke:rgb(109,213,75);stroke-width:5;stroke-linecap:round">
    </path>
    <path d="M-67.54485015741791,-41.18926609376113L-65.81334284087959,-33.11827807059422L-63.25344988369623,-37.3520231265325z" style="fill:rgb(197,147,42)">
    </path>
    <path d="M-65.81334284087959,-33.11827807059422L-60.54073283222465,-30.88800287892019L-63.25344988369623,-37.3520231265325z" style="fill:rgb(197,147,42)">
    </path>
    <path d="M-59.006489368790234,-37.598612602318184L-60.54073283222465,-30.88800287892019L-52.33759473289929,-40.6620953130014z" style="fill:rgb(197,147,42)">
    </path>
    <path d="M-63.345152259251236,-43.97164661939917L-67.54485015741791,-41.18926609376113L-63.25344988369623,-37.3520231265325z" style="fill:rgb(197,147,42)">
    </path>
    <path d="M-63.345152259251236,-43.97164661939917L-59.006489368790234,-37.598612602318184L-52.33759473289929,-40.6620953130014z" style="fill:rgb(197,147,42)">
    </path>
    <path d="M-107.47761426792626,-23.941697093818377L-63.25344988369619,-37.35202312653249" style="fill:none;stroke:rgb(197,147,42);stroke-width:5;stroke-linecap:round">
    </path>
    <path d="M-49.09722775086778,-73.537985575839L-49.74690358235192,-127.02625261328929" style="fill:none;stroke:rgb(167,41,160);stroke-width:5;stroke-linecap:round">
    </path>
    <path d="M-60.54073283222465,-30.88800287892019L-59.006489368790234,-37.598612602318184L-63.25344988369623,-37.3520231265325z" style="fill:rgb(197,147,42)">
    </path>
    <path d="M-59.006489368790234,-37.598612602318184L-63.345152259251236,-43.97164661939917L-63.25344988369623,-37.3520231265325z" style="fill:rgb(197,147,42)">
    </path>
    <path d="M-24.2601258333158,-131.78640357475072L-17.878507212349,-133.59794237832546L-24.87547117088408,-147.51594479941775z" style="fill:rgb(43,180,168)">
    </path>
    <path d="M-31.32307610076085,-133.18407050130682L-24.2601258333158,-131.78640357475072L-24.87547117088408,-147.51594479941775z" style="fill:rgb(43,180,168)">
    </path>
    <path d="M-24.993148663789643,-131.5783216788902L-18.60933814792901,-133.39048269179608L-25.608294237556624,-147.31065159292103z" style="fill:rgb(167,41,160)">
    </path>
    <path d="M-32.05641678321451,-132.97648239922785L-24.993148663789643,-131.5783216788902L-25.608294237556624,-147.31065159292103z" style="fill:rgb(167,41,160)">
    </path>
    <path d="M-68.0017683747537,-73.03347241762107L-66.26367148102436,-64.92226876473288L-63.69492001600809,-69.21996593132478z" style="fill:rgb(197,147,42)">
    </path>
    <path d="M-66.26367148102436,-64.92226876473288L-60.97220425777072,-62.74008403606346L-63.69492001600809,-69.21996593132478z" style="fill:rgb(197,147,42)">
    </path>
    <path d="M-59.43284513087021,-69.52092409268946L-60.97220425777072,-62.74008403606346L-52.737361783791904,-72.46122837495142z" style="fill:rgb(197,147,42)">
    </path>
    <path d="M-63.78730747381319,-75.88904274020203L-68.0017683747537,-73.03347241762107L-63.69492001600809,-69.21996593132478z" style="fill:rgb(197,147,42)">
    </path>
    <path d="M-63.78730747381319,-75.88904274020203L-59.43284513087021,-69.52092409268946L-52.737361783791904,-72.46122837495142z" style="fill:rgb(197,147,42)">
    </path>
    <path d="M-108.09015848647314,-56.087786655553465L-63.694920016008055,-69.21996593132477" style="fill:none;stroke:rgb(197,147,42);stroke-width:5;stroke-linecap:round">
    </path>
    <path d="M-32.118064045402754,-129.5557845370477L-25.712928931782642,-131.3739989258456L-32.73126246589191,-145.31522179018708z" style="fill:rgb(74,87,214)">
    </path>
    <path d="M-39.18440563740369,-130.9587494228842L-32.118064045402754,-129.5557845370477L-32.73126246589191,-145.31522179018708z" style="fill:rgb(74,87,214)">
    </path>
    <path d="M-60.97220425777072,-62.74008403606346L-59.43284513087021,-69.52092409268946L-63.69492001600809,-69.21996593132478z" style="fill:rgb(197,147,42)">
    </path>
    <path d="M-444.4253299585708,80.86125890982892L-588.646896494547,124.67522741213739L-319.12036415945846,147.04817326775824z" style="fill:rgb(0,0,0); fill-opacity: 0.18">
    </path>
    <path d="M-444.4253299585708,80.86125890982892L-588.646896494547,124.67522741213739L-319.12036415945846,147.04817326775824z" style="fill:rgb(0,0,0); fill-opacity: 0.18">
    </path>
    <path d="M-59.43284513087021,-69.52092409268946L-63.78730747381319,-75.88904274020203L-63.69492001600809,-69.21996593132478z" style="fill:rgb(197,147,42)">
    </path>
    <path d="M-68.11060764960428,-67.91379879205441L-68.88214496705172,-121.60540126917314" style="fill:none;stroke:rgb(74,87,214);stroke-width:5;stroke-linecap:round">
    </path>
    <path d="M-35.937546132748,-128.47155490476416L-29.520964838316065,-130.2930185006872L-36.549696652896614,-144.24552484190968z" style="fill:rgb(109,213,75)">
    </path>
    <path d="M-36.028754474104375,-128.44566375404048L-29.611899722814197,-130.26720497567874L-36.640879935806076,-144.2199807380479z" style="fill:rgb(74,87,214)">
    </path>
    <path d="M-43.00552337266425,-129.87709856474692L-35.937546132748,-128.47155490476416L-36.549696652896614,-144.24552484190968z" style="fill:rgb(109,213,75)">
    </path>
    <path d="M-43.09677067085159,-129.85126902343856L-36.028754474104375,-128.44566375404048L-36.640879935806076,-144.2199807380479z" style="fill:rgb(74,87,214)">
    </path>
    <path d="M-69.7936984659953,-67.41593796058359L-70.57607403231779,-121.12552555369733" style="fill:none;stroke:rgb(43,180,168);stroke-width:5;stroke-linecap:round">
    </path>
    <path d="M-73.48202691623733,-66.32492477752051L-74.2881823923666,-120.07391678699709" style="fill:none;stroke:rgb(167,41,160);stroke-width:5;stroke-linecap:round">
    </path>
    <path d="M-42.50414534961902,-126.60750598623395L-36.067861495493176,-128.43456251296894L-43.114487619580636,-142.40646293348655z" style="fill:rgb(109,213,75)">
    </path>
    <path d="M-49.574915143267745,-128.01748869705236L-42.50414534961902,-126.60750598623395L-43.114487619580636,-142.40646293348655z" style="fill:rgb(109,213,75)">
    </path>
    <path d="M-49.30212773511624,-124.67777473640878L-42.845415304576996,-126.51063028703919L-49.910589166841454,-140.50260163085375z" style="fill:rgb(167,41,160)">
    </path>
    <path d="M-56.37576248643028,-126.09236027274044L-49.30212773511624,-124.67777473640878L-49.910589166841454,-140.50260163085375z" style="fill:rgb(167,41,160)">
    </path>
    <path d="M-466.4538569383001,195.17570778869543L-588.646896494547,124.67522741213739" style="fill:none;stroke:rgb(160,0,0);stroke-width:4;stroke-linecap:round">
    </path>
    <path d="M-466.4538569383001,195.17570778869543L-588.646896494547,124.67522741213739" style="fill:none;stroke:rgb(0,0,0);stroke-width:1;stroke-linecap:round">
    </path>
    <path d="M-466.4538569383001,195.17570778869543L-588.646896494547,124.67522741213739" style="fill:none;stroke:rgb(0,0,0);stroke-width:1;stroke-linecap:round">
    </path>
    <path d="M-466.4538569383001,195.17570778869543L-588.646896494547,124.67522741213739" style="fill:none;stroke:rgb(0,0,0);stroke-width:1;stroke-linecap:round">
    </path>
    <path d="M-466.4538569383001,195.17570778869543L-588.646896494547,124.67522741213739" style="fill:none;stroke:rgb(0,0,0);stroke-width:1;stroke-linecap:round">
    </path>
    <path d="M-466.4538569383001,195.17570778869543L-588.646896494547,124.67522741213739" style="fill:none;stroke:rgb(0,0,0);stroke-width:1;stroke-linecap:round">
    </path>
    <path d="M-588.646896494547,124.67522741213739L-588.646896494547,124.67522741213739" style="fill:none;stroke:rgb(0,0,0);stroke-width:1;stroke-linecap:round">
    </path>
    <path d="M-466.4538569383001,195.17570778869543L-588.646896494547,124.67522741213739" style="fill:none;stroke:rgb(0,0,0);stroke-width:1;stroke-linecap:round">
    </path>
    <path d="M-466.4538569383001,195.17570778869543L-588.646896494547,124.67522741213739" style="fill:none;stroke:rgb(160,0,0);stroke-width:4;stroke-linecap:round">
    </path>
    <path d="M-446.4901755107746,44.0114546953769L22.431005702372705,-94.69614616578787L-8.764780625953625,45.66831198465312z" style="fill:rgb(0,0,0); fill-opacity: 0.18">
    </path>
    <path d="M-97.10336743921879,-59.33769621047043L-98.06276044668955,-113.33878077221867" style="fill:none;stroke:rgb(43,180,168);stroke-width:5;stroke-linecap:round">
    </path>
    <path d="M-98.14559956289973,-59.0294023580959L-99.11179135605097,-113.04159922636276" style="fill:none;stroke:rgb(167,41,160);stroke-width:5;stroke-linecap:round">
    </path>
    <path d="M-98.26935474746294,-58.99279538568216L-99.23635404284734,-113.00631167526414" style="fill:none;stroke:rgb(109,213,75);stroke-width:5;stroke-linecap:round">
    </path>
    <path d="M-68.47343165023597,-119.23565056382654L-61.958933553100806,-121.08490962954403L-69.07654022605725,-135.13344811011183z" style="fill:rgb(74,87,214)">
    </path>
    <path d="M-75.55500354805645,-120.6632570652426L-68.47343165023597,-119.23565056382654L-69.07654022605725,-135.13344811011183z" style="fill:rgb(74,87,214)">
    </path>
    <path d="M-606.1000104050623,288.76717754847164L-606.1000104050623,288.76717754847164L-486.3539847836226,366.38983270413365z" style="fill:rgb(0,0,0); fill-opacity: 0.18">
    </path>
    <path d="M-70.17056942526311,-118.7538870619505L-63.65094347323825,-120.60460176277618L-70.77320068157724,-134.65814529679915z" style="fill:rgb(43,180,168)">
    </path>
    <path d="M-77.25283382460374,-120.18264911154039L-70.17056942526311,-118.7538870619505L-70.77320068157724,-134.65814529679915z" style="fill:rgb(43,180,168)">
    </path>
    <path d="M-73.88971868869875,-117.69813873113291L-67.35884838605526,-119.55204534590338L-74.49130196828486,-133.6165556281037z" style="fill:rgb(167,41,160)">
    </path>
    <path d="M-80.9734948891631,-119.12943470880643L-73.88971868869875,-117.69813873113291L-74.49130196828486,-133.6165556281037z" style="fill:rgb(167,41,160)">
    </path>
    <path d="M-108.09015848647314,-56.08778665555343L-109.12138123265747,-110.20596743861644" style="fill:none;stroke:rgb(109,213,75);stroke-width:5;stroke-linecap:round">
    </path>
    <path d="M-108.09015848647319,-56.08778665555343L-109.1213812326575,-110.20596743861644" style="fill:none;stroke:rgb(43,180,168);stroke-width:5;stroke-linecap:round">
    </path>
    <path d="M-108.09015848647314,-56.08778665555343L-109.12138123265747,-110.20596743861644" style="fill:none;stroke:rgb(74,87,214);stroke-width:5;stroke-linecap:round">
    </path>
    <path d="M-588.646896494547,124.67522741213739L-444.4253299585708,80.86125890982892L-466.4538569383001,195.17570778869543z" style="fill:rgb(0,0,0); fill-opacity: 0.18">
    </path>
    <path d="M-588.646896494547,124.67522741213739L-444.4253299585708,80.86125890982892L-466.4538569383001,195.17570778869543z" style="fill:rgb(0,0,0); fill-opacity: 0.18">
    </path>
    <path d="M-606.1000104050623,288.76717754847164L-588.646896494547,124.67522741213739L-486.3539847836226,366.38983270413365z" style="fill:rgb(0,0,0); fill-opacity: 0.18">
    </path>
    <path d="M-123.09275369241696,-51.64999610336728L-124.22263067488825,-105.92791174592969" style="fill:none;stroke:rgb(167,41,160);stroke-width:5;stroke-linecap:round">
    </path>
    <path d="M-97.70969298962012,-110.93640470890526L-91.10657679959651,-112.81081963609005L-98.30450025292863,-126.94552130191299z" style="fill:rgb(43,180,168)">
    </path>
    <path d="M-104.80296410811427,-112.38398282393351L-97.70969298962012,-110.93640470890526L-98.30450025292863,-126.94552130191299z" style="fill:rgb(43,180,168)">
    </path>
    <path d="M-98.76073900265422,-110.6380461340606L-92.15442585366733,-112.51336857633821L-99.3552447245546,-126.65116552683043z" style="fill:rgb(167,41,160)">
    </path>
    <path d="M-98.88554103188726,-110.60261880250903L-92.27884822216872,-112.47804901840782L-99.480010934194,-126.61621349488139z" style="fill:rgb(109,213,75)">
    </path>
    <path d="M-105.85442160097648,-112.08634480850296L-98.76073900265422,-110.6380461340606L-99.3552447245546,-126.65116552683043z" style="fill:rgb(167,41,160)">
    </path>
    <path d="M-105.9792724476605,-112.05100304862765L-98.88554103188726,-110.60261880250903L-99.480010934194,-126.61621349488139z" style="fill:rgb(109,213,75)">
    </path>
    <path d="M-466.4538569383001,195.17570778869543L-319.12036415945846,147.04817326775824L-444.4253299585708,80.86125890982892z" style="fill:rgb(0,0,0); fill-opacity: 0.18">
    </path>
    <path d="M-466.4538569383001,195.17570778869543L-319.12036415945846,147.04817326775824L-444.4253299585708,80.86125890982892z" style="fill:rgb(0,0,0); fill-opacity: 0.18">
    </path>
    <path d="M-528.0877276725039,215.3088505349411L-648.8523680196821,142.9654228137446" style="fill:none;stroke:rgb(160,0,0);stroke-width:4;stroke-linecap:round">
    </path>
    <path d="M-108.78960765994837,-107.7911689062436L-102.15275092006065,-109.67516170370911L-109.38122528390603,-123.84248524517814z" style="fill:rgb(109,213,75)">
    </path>
    <path d="M-108.78960765994839,-107.7911689062436L-102.15275092006068,-109.67516170370911L-109.38122528390606,-123.84248524517814z" style="fill:rgb(43,180,168)">
    </path>
    <path d="M-108.78960765994837,-107.7911689062436L-102.15275092006065,-109.67516170370911L-109.38122528390603,-123.84248524517814z" style="fill:rgb(74,87,214)">
    </path>
    <path d="M-115.88718472276064,-109.24635201267093L-108.78960765994837,-107.7911689062436L-109.38122528390603,-123.84248524517814z" style="fill:rgb(109,213,75)">
    </path>
    <path d="M-115.88718472276067,-109.24635201267093L-108.78960765994839,-107.7911689062436L-109.38122528390606,-123.84248524517814z" style="fill:rgb(43,180,168)">
    </path>
    <path d="M-115.88718472276064,-109.24635201267093L-108.78960765994837,-107.7911689062436L-109.38122528390603,-123.84248524517814z" style="fill:rgb(74,87,214)">
    </path>
    <path d="M-148.32840851035874,-44.18525090482162L-149.62571460927316,-98.73143384832069" style="fill:none;stroke:rgb(167,41,160);stroke-width:5;stroke-linecap:round">
    </path>
    <path d="M-123.9201178643079,-103.4960977054941L-117.23704703507737,-105.39320921485526L-124.50734105483784,-119.6050520233294z" style="fill:rgb(167,41,160)">
    </path>
    <path d="M-131.02346157262951,-104.96169815534932L-123.9201178643079,-103.4960977054941L-124.50734105483784,-119.6050520233294z" style="fill:rgb(167,41,160)">
    </path>
    <path d="M-588.646896494547,124.67522741213739L-588.646896494547,124.67522741213739L-466.4538569383001,195.17570778869543z" style="fill:rgb(0,0,0); fill-opacity: 0.18">
    </path>
    <path d="M-466.45385693829996,195.1757077886955L-319.12036415945835,147.0481732677583" style="fill:none;stroke:rgb(0,0,0);stroke-width:1;stroke-linecap:round">
    </path>
    <path d="M-295.2217010327874,-0.733990853674928L-319.12036415945835,147.0481732677583" style="fill:none;stroke:rgb(0,0,0);stroke-width:1;stroke-linecap:round">
    </path>
    <path d="M-319.12036415945835,147.0481732677583L-466.45385693829996,195.1757077886955" style="fill:none;stroke:rgb(0,0,0);stroke-width:1;stroke-linecap:round">
    </path>
    <path d="M-295.2217010327874,-0.733990853674928L-319.12036415945835,147.0481732677583" style="fill:none;stroke:rgb(0,0,0);stroke-width:1;stroke-linecap:round">
    </path>
    <path d="M-466.45385693829996,195.1757077886955L-319.12036415945835,147.0481732677583" style="fill:none;stroke:rgb(0,0,0);stroke-width:1;stroke-linecap:round">
    </path>
    <path d="M-295.2217010327874,-0.733990853674928L-319.12036415945835,147.0481732677583" style="fill:none;stroke:rgb(0,0,0);stroke-width:1;stroke-linecap:round">
    </path>
    <path d="M-319.12036415945835,147.0481732677583L-466.45385693829996,195.1757077886955" style="fill:none;stroke:rgb(0,0,0);stroke-width:1;stroke-linecap:round">
    </path>
    <path d="M-295.2217010327874,-0.733990853674928L-319.12036415945835,147.0481732677583" style="fill:none;stroke:rgb(0,0,0);stroke-width:1;stroke-linecap:round">
    </path>
    <path d="M-486.3539847836226,366.38983270413365L-486.3539847836226,366.38983270413365L-606.1000104050623,288.76717754847164z" style="fill:rgb(0,0,0); fill-opacity: 0.18">
    </path>
    <path d="M-173.85759766004,-36.633677803086265L-175.32617481653293,-91.45071177860464" style="fill:none;stroke:rgb(167,41,160);stroke-width:5;stroke-linecap:round">
    </path>
    <path d="M-279.3216995050737,215.28021875513227L-286.25688735722747,213.4096688907232L-286.28082817058356,216.49853652184044z" style="fill:rgb(109,213,75)">
    </path>
    <path d="M-286.25688735722747,213.4096688907232L-293.22711731342514,215.80523662799553L-286.28082817058356,216.49853652184044z" style="fill:rgb(109,213,75)">
    </path>
    <path d="M-648.8523680196821,142.9654228137446L-606.1000104050623,288.76717754847164L-528.0877276725039,215.3088505349411z" style="fill:rgb(0,0,0); fill-opacity: 0.18">
    </path>
    <path d="M-279.3216995050737,215.28021875513227L-281.9938989214253,218.8437460278735L-285.73714829419976,229.70809172414315z" style="fill:rgb(109,213,75)">
    </path>
    <path d="M-290.60739553267507,219.16957046586748L-293.22711731342514,215.80523662799553L-285.73714829419976,229.70809172414315z" style="fill:rgb(109,213,75)">
    </path>
    <path d="M-288.4729987280136,163.23631503988247L-286.28082817058356,216.49853652184035" style="fill:none;stroke:rgb(109,213,75);stroke-width:5;stroke-linecap:round">
    </path>
    <path d="M-281.9938989214253,218.8437460278735L-279.3216995050737,215.28021875513227L-286.28082817058356,216.49853652184044z" style="fill:rgb(109,213,75)">
    </path>
    <path d="M-293.22711731342514,215.80523662799553L-290.60739553267507,219.16957046586748L-286.28082817058356,216.49853652184044z" style="fill:rgb(109,213,75)">
    </path>
    <path d="M-319.12036415945846,147.04817326775824L-466.4538569383001,195.17570778869543L-588.646896494547,124.67522741213739z" style="fill:rgb(0,0,0); fill-opacity: 0.18">
    </path>
    <path d="M-319.12036415945846,147.04817326775824L-466.4538569383001,195.17570778869543L-588.646896494547,124.67522741213739z" style="fill:rgb(0,0,0); fill-opacity: 0.18">
    </path>
    <path d="M-281.9938989214253,218.8437460278735L-290.60739553267507,219.16957046586748L-285.73714829419976,229.70809172414315z" style="fill:rgb(109,213,75)">
    </path>
    <path d="M-149.37289942700903,-96.2708615705337L-142.61172535157553,-98.19014411041006L-149.952629365228,-112.4768036574686z" style="fill:rgb(167,41,160)">
    </path>
    <path d="M-156.48564833808715,-97.75406989758477L-149.37289942700903,-96.2708615705337L-149.952629365228,-112.4768036574686z" style="fill:rgb(167,41,160)">
    </path>
    <path d="M-290.60739553267507,219.16957046586748L-281.9938989214253,218.8437460278735L-286.28082817058356,216.49853652184044z" style="fill:rgb(109,213,75)">
    </path>
    <path d="M-199.68547256976083,-28.993752997810283L-201.3292638068669,-84.08425754525844" style="fill:none;stroke:rgb(167,41,160);stroke-width:5;stroke-linecap:round">
    </path>
    <path d="M-466.45385693829996,195.1757077886955L-8.764780625953625,45.66831198465312L-446.4901755107746,44.0114546953769z" style="fill:rgb(0,0,0); fill-opacity: 0.18">
    </path>
    <path d="M-288.4729987280136,163.23631503988247L-466.45385693829996,195.1757077886955" style="fill:none;stroke:rgb(160,0,0);stroke-width:4;stroke-linecap:round">
    </path>
    <path d="M-288.4729987280136,163.23631503988247L-486.3539847836224,366.38983270413365" style="fill:none;stroke:rgb(0,0,0);stroke-width:1;stroke-linecap:round">
    </path>
    <path d="M-288.4729987280136,163.23631503988247L-486.3539847836224,366.38983270413365" style="fill:none;stroke:rgb(0,0,0);stroke-width:1;stroke-linecap:round">
    </path>
    <path d="M-288.4729987280136,163.23631503988247L-466.45385693829996,195.1757077886955" style="fill:none;stroke:rgb(160,0,0);stroke-width:4;stroke-linecap:round">
    </path>
    <path d="M-288.4729987280136,163.23631503988247L-288.4729987280136,163.23631503988247" style="fill:none;stroke:rgb(50,34,0);stroke-width:5;stroke-linecap:round">
    </path>
    <path d="M-660.8034867038184,287.0142312930335L-288.4729987280136,163.23631503988247" style="fill:none;stroke:rgb(22,55,11);stroke-width:5;stroke-linecap:round">
    </path>
    <path d="M-288.4729987280136,163.23631503988247L-295.2217010327874,-0.733990853674928" style="fill:none;stroke:rgb(1,31,51);stroke-width:5;stroke-linecap:round">
    </path>
    <path d="M-288.4729987280136,163.2363150398825L-336.7672541955765,179.2913051677947" style="fill:none;stroke:rgb(44,139,201);stroke-width:5;stroke-linecap:round">
    </path>
    <path d="M-175.12424618155498,-88.96087226203721L-168.28359165873687,-90.90271677609518L-175.69626621344406,-105.2649758700947z" style="fill:rgb(167,41,160)">
    </path>
    <path d="M-182.2461333704742,-90.46200179819287L-175.12424618155498,-88.96087226203721L-175.69626621344406,-105.2649758700947z" style="fill:rgb(167,41,160)">
    </path>
    <path d="M-313.6710969818843,227.11793682873795L-320.6155444987433,225.2182449436598L-320.7097087890302,228.35467360772262z" style="fill:rgb(109,213,75)">
    </path>
    <path d="M-486.3539847836226,366.38983270413365L-466.4538569383001,195.17570778869543L-588.646896494547,124.67522741213739z" style="fill:rgb(0,0,0); fill-opacity: 0.18">
    </path>
    <path d="M-320.6155444987433,225.2182449436598L-327.692050907868,227.6503383685298L-320.7097087890302,228.35467360772262z" style="fill:rgb(109,213,75)">
    </path>
    <path d="M-528.0877276725039,215.3088505349411L-486.3539847836226,366.38983270413365L-606.1000104050623,288.76717754847164z" style="fill:rgb(0,0,0); fill-opacity: 0.18">
    </path>
    <path d="M-313.6710969818843,227.11793682873795L-316.4439427033746,230.73627626592008L-320.1066699590387,241.64549786396466z" style="fill:rgb(109,213,75)">
    </path>
    <path d="M-325.1291699010851,231.06669421162604L-327.692050907868,227.6503383685298L-320.1066699590387,241.64549786396466z" style="fill:rgb(109,213,75)">
    </path>
    <path d="M-323.14136861074206,174.76150226617398L-320.7097087890302,228.35467360772262" style="fill:none;stroke:rgb(109,213,75);stroke-width:5;stroke-linecap:round">
    </path>
    <path d="M-316.4439427033746,230.73627626592008L-313.6710969818843,227.11793682873795L-320.7097087890302,228.35467360772262z" style="fill:rgb(109,213,75)">
    </path>
    <path d="M-327.692050907868,227.6503383685298L-325.1291699010851,231.06669421162604L-320.7097087890302,228.35467360772262z" style="fill:rgb(109,213,75)">
    </path>
    <path d="M-316.4439427033746,230.73627626592008L-325.1291699010851,231.06669421162604L-320.1066699590387,241.64549786396466z" style="fill:rgb(109,213,75)">
    </path>
    <path d="M-325.1291699010851,231.06669421162604L-316.4439427033746,230.73627626592008L-320.7097087890302,228.35467360772262z" style="fill:rgb(109,213,75)">
    </path>
    <path d="M-304.7545115262273,168.6489572829825L-353.39843026227265,184.8201898142454" style="fill:none;stroke:rgb(197,147,42);stroke-width:5;stroke-linecap:round">
    </path>
    <path d="M-289.8018632564043,130.94946738071116L-338.29907798355435,146.72162513659416" style="fill:none;stroke:rgb(44,139,201);stroke-width:5;stroke-linecap:round">
    </path>
    <path d="M-225.8173059182227,-21.263916822588907L-227.64035852209165,-76.63054790633866" style="fill:none;stroke:rgb(167,41,160);stroke-width:5;stroke-linecap:round">
    </path>
    <path d="M-466.4538569383001,195.17570778869543L-466.4538569383001,195.17570778869543L-588.646896494547,124.67522741213739z" style="fill:rgb(0,0,0); fill-opacity: 0.18">
    </path>
    <path d="M-201.17944244695846,-81.5646297297024L-194.25789770514842,-83.5294364073174L-201.74352979260362,-97.96809002708876z" style="fill:rgb(167,41,160)">
    </path>
    <path d="M-208.31018955667295,-83.08400125134031L-201.17944244695846,-81.5646297297024L-201.74352979260362,-97.96809002708876z" style="fill:rgb(167,41,160)">
    </path>
    <path d="M-288.4729987280136,163.23631503988247L-288.4729987280136,163.23631503988247L-466.45385693829996,195.1757077886955z" style="fill:rgb(0,0,0); fill-opacity: 0.18">
    </path>
    <path d="M-466.45385693829996,195.1757077886955L-486.3539847836224,366.38983270413365" style="fill:none;stroke:rgb(0,0,0);stroke-width:1;stroke-linecap:round">
    </path>
    <path d="M-486.3539847836224,366.38983270413365L-486.3539847836224,366.38983270413365" style="fill:none;stroke:rgb(0,0,0);stroke-width:1;stroke-linecap:round">
    </path>
    <path d="M-660.8034867038184,287.0142312930335L-486.3539847836224,366.38983270413365" style="fill:none;stroke:rgb(0,0,0);stroke-width:1;stroke-linecap:round">
    </path>
    <path d="M-486.3539847836224,366.38983270413365L-528.0877276725037,215.30885053494112" style="fill:none;stroke:rgb(0,0,0);stroke-width:1;stroke-linecap:round">
    </path>
    <path d="M-660.8034867038184,287.0142312930335L-486.3539847836224,366.38983270413365" style="fill:none;stroke:rgb(0,0,0);stroke-width:1;stroke-linecap:round">
    </path>
    <path d="M-291.1410442009845,98.4119662118863L-339.8429216114691,113.89637893398088" style="fill:none;stroke:rgb(44,139,201);stroke-width:5;stroke-linecap:round">
    </path>
    <path d="M-348.54649666953156,239.13692928662297L-355.49967624173206,237.2074190557645L-355.66621960729174,240.39250861312135z" style="fill:rgb(109,213,75)">
    </path>
    <path d="M-355.49967624173206,237.2074190557645L-362.6849083913585,239.6768799531273L-355.66621960729174,240.39250861312135z" style="fill:rgb(109,213,75)">
    </path>
    <path d="M-348.54649666953156,239.13692928662297L-351.42277255754067,242.81134921401653L-355.0020606984918,253.76555166415395z" style="fill:rgb(109,213,75)">
    </path>
    <path d="M-360.1809261636209,243.14646384661776L-362.6849083913585,239.6768799531273L-355.0020606984918,253.76555166415395z" style="fill:rgb(109,213,75)">
    </path>
    <path d="M-358.34450226940703,186.46446689187465L-355.66621960729174,240.39250861312135" style="fill:none;stroke:rgb(109,213,75);stroke-width:5;stroke-linecap:round">
    </path>
    <path d="M-351.42277255754067,242.81134921401653L-348.54649666953156,239.13692928662297L-355.66621960729174,240.39250861312135z" style="fill:rgb(109,213,75)">
    </path>
    <path d="M-362.6849083913585,239.6768799531273L-360.1809261636209,243.14646384661776L-355.66621960729174,240.39250861312135z" style="fill:rgb(109,213,75)">
    </path>
    <path d="M-295.2217010327874,-0.733990853674928L-295.2217010327874,-0.733990853674928L-319.12036415945835,147.0481732677583z" style="fill:rgb(0,0,0); fill-opacity: 0.18">
    </path>
    <path d="M-351.42277255754067,242.81134921401653L-360.1809261636209,243.14646384661776L-355.0020606984918,253.76555166415395z" style="fill:rgb(109,213,75)">
    </path>
    <path d="M-486.3539847836224,366.38983270413365L-466.45385693829996,195.1757077886955L-288.4729987280136,163.23631503988247z" style="fill:rgb(0,0,0); fill-opacity: 0.18">
    </path>
    <path d="M-319.12036415945835,147.0481732677583L-466.45385693829996,195.1757077886955L-295.2217010327874,-0.733990853674928z" style="fill:rgb(0,0,0); fill-opacity: 0.18">
    </path>
    <path d="M-319.12036415945835,147.0481732677583L-466.45385693829996,195.1757077886955L-295.2217010327874,-0.733990853674928z" style="fill:rgb(0,0,0); fill-opacity: 0.18">
    </path>
    <path d="M-466.45385693829996,195.1757077886955L-319.12036415945835,147.0481732677583L-295.2217010327874,-0.733990853674928z" style="fill:rgb(0,0,0); fill-opacity: 0.18">
    </path>
    <path d="M-360.1809261636209,243.14646384661776L-351.42277255754067,242.81134921401653L-355.66621960729174,240.39250861312135z" style="fill:rgb(109,213,75)">
    </path>
    <path d="M-252.25849522301934,-13.442572683482643L-254.2649640423151,-69.0880233194125" style="fill:none;stroke:rgb(167,41,160);stroke-width:5;stroke-linecap:round">
    </path>
    <path d="M-337.0853998509888,172.52688338415527L-340.9252670829749,174.99861719564515L-349.0021530503975,183.35868706297873z" style="fill:rgb(44,139,201)">
    </path>
    <path d="M-292.4906621645358,65.62088129969376L-341.3989271116045,80.81254666558426" style="fill:none;stroke:rgb(44,139,201);stroke-width:5;stroke-linecap:round">
    </path>
    <path d="M-227.54389798551293,-74.08059831386426L-220.54001971410264,-76.06877686506881L-228.09982353899207,-90.58463240868454z" style="fill:rgb(167,41,160)">
    </path>
    <path d="M-234.68321479548646,-75.61854026383848L-227.54389798551293,-74.08059831386426L-228.09982353899207,-90.58463240868454z" style="fill:rgb(167,41,160)">
    </path>
    <path d="M-333.99704183752755,186.12673896218686L-332.7935693872148,179.41230839886538L-349.0021530503975,183.35868706297873z" style="fill:rgb(44,139,201)">
    </path>
    <path d="M-332.7935693872148,179.41230839886538L-337.0853998509888,172.52688338415527L-349.0021530503975,183.35868706297873z" style="fill:rgb(44,139,201)">
    </path>
    <path d="M-288.4729987280136,163.23631503988247L-295.2217010327874,-0.733990853674928L-466.45385693829996,195.1757077886955z" style="fill:rgb(0,0,0); fill-opacity: 0.18">
    </path>
    <path d="M-466.45385693829996,195.1757077886955L-466.45385693829996,195.1757077886955L-288.4729987280136,163.23631503988247z" style="fill:rgb(0,0,0); fill-opacity: 0.18">
    </path>
    <path d="M-353.7312806427592,178.0356779001288L-357.550730305841,180.50501217002198L-365.72250497285785,188.9172174192572z" style="fill:rgb(197,147,42)">
    </path>
    <path d="M-338.6197161686953,139.90420711646343L-342.47140397723535,142.45292567948135L-350.58602952493766,150.71756055556367z" style="fill:rgb(44,139,201)">
    </path>
    <path d="M-293.85083963704994,32.573236557696596L-342.9672387628567,47.467060669495055" style="fill:none;stroke:rgb(44,139,201);stroke-width:5;stroke-linecap:round">
    </path>
    <path d="M-383.96007402605414,251.34139211620686L-390.92143023720655,249.38136619989086L-391.1625833574278,252.61625063180512z" style="fill:rgb(109,213,75)">
    </path>
    <path d="M-390.92143023720655,249.38136619989086L-398.21791326015347,251.8890624215607L-391.1625833574278,252.61625063180512z" style="fill:rgb(109,213,75)">
    </path>
    <path d="M-350.6226571437543,191.68196021393157L-349.43952734789497,184.95135498061103L-365.72250497285785,188.9172174192572z" style="fill:rgb(197,147,42)">
    </path>
    <path d="M-279.01456655733057,-5.528085959613525L-281.208717425905,-61.45508685372717" style="fill:none;stroke:rgb(167,41,160);stroke-width:5;stroke-linecap:round">
    </path>
    <path d="M-349.43952734789497,184.95135498061103L-353.7312806427592,178.0356779001288L-365.72250497285785,188.9172174192572z" style="fill:rgb(197,147,42)">
    </path>
    <path d="M-335.5184516961342,153.57495319554542L-334.3125307160805,146.78581826240958L-350.58602952493766,150.71756055556367z" style="fill:rgb(44,139,201)">
    </path>
    <path d="M-383.96007402605414,251.34139211620686L-386.94265743467037,255.07320024755666L-390.43548260382585,266.0724773273163z" style="fill:rgb(109,213,75)">
    </path>
    <path d="M-334.3125307160805,146.78581826240958L-338.6197161686953,139.90420711646343L-350.58602952493766,150.71756055556367z" style="fill:rgb(44,139,201)">
    </path>
    <path d="M-395.7749632336676,255.4131179042657L-398.21791326015347,251.8890624215607L-390.43548260382585,266.0724773273163z" style="fill:rgb(109,213,75)">
    </path>
    <path d="M-394.09486906809036,198.34935424473204L-391.1625833574279,252.61625063180514" style="fill:none;stroke:rgb(109,213,75);stroke-width:5;stroke-linecap:round">
    </path>
    <path d="M-386.94265743467037,255.07320024755666L-383.96007402605414,251.34139211620686L-391.1625833574278,252.61625063180512z" style="fill:rgb(109,213,75)">
    </path>
    <path d="M-398.21791326015347,251.8890624215607L-395.7749632336676,255.4131179042657L-391.1625833574278,252.61625063180512z" style="fill:rgb(109,213,75)">
    </path>
    <path d="M-386.94265743467037,255.07320024755666L-395.7749632336676,255.4131179042657L-390.43548260382585,266.0724773273163z" style="fill:rgb(109,213,75)">
    </path>
    <path d="M-395.7749632336676,255.4131179042657L-386.94265743467037,255.07320024755666L-391.1625833574278,252.61625063180512z" style="fill:rgb(109,213,75)">
    </path>
    <path d="M-254.22315174735436,-66.50720568253337L-247.13546209338736,-68.51917562283533L-254.77067986900803,-83.1130531626001z" style="fill:rgb(167,41,160)">
    </path>
    <path d="M-261.3707357245253,-68.0640544001666L-254.22315174735436,-66.50720568253337L-254.77067986900803,-83.1130531626001z" style="fill:rgb(167,41,160)">
    </path>
    <path d="M-340.1660817332908,107.02533942592552L-344.0296577864453,109.65217694455549L-352.18236776022013,117.81961736109311z" style="fill:rgb(44,139,201)">
    </path>
    <path d="M-295.2217010327874,-0.733990853674928L-466.45385693829996,195.1757077886955" style="fill:none;stroke:rgb(0,0,0);stroke-width:1;stroke-linecap:round">
    </path>
    <path d="M-295.2217010327874,-0.733990853674928L-466.45385693829996,195.1757077886955" style="fill:none;stroke:rgb(0,0,0);stroke-width:1;stroke-linecap:round">
    </path>
    <path d="M-295.2217010327874,-0.733990853674928L-446.4901755107746,44.0114546953769" style="fill:none;stroke:rgb(55,17,8);stroke-width:5;stroke-linecap:round">
    </path>
    <path d="M-295.22170103278745,-0.7339908536748905L-297.53055622663965,-56.83124856380858" style="fill:none;stroke:rgb(214,94,68);stroke-width:5;stroke-linecap:round">
    </path>
    <path d="M-446.4901755107746,44.0114546953769L-295.2217010327874,-0.733990853674928" style="fill:none;stroke:rgb(38,46,1);stroke-width:5;stroke-linecap:round">
    </path>
    <path d="M-295.2217010327874,-0.733990853674928L-297.5305562266396,-56.831248563808614" style="fill:none;stroke:rgb(162,186,45);stroke-width:5;stroke-linecap:round">
    </path>
    <path d="M-295.2217010327874,-0.733990853674928L-446.4901755107746,44.0114546953769" style="fill:none;stroke:rgb(9,54,24);stroke-width:5;stroke-linecap:round">
    </path>
    <path d="M-295.22170103278745,-0.7339908536748905L-297.53055622663965,-56.83124856380858" style="fill:none;stroke:rgb(70,211,116);stroke-width:5;stroke-linecap:round">
    </path>
    <path d="M-295.2217010327874,-0.733990853674928L-344.5480031353311,13.856804568054756" style="fill:none;stroke:rgb(44,139,201);stroke-width:5;stroke-linecap:round">
    </path>
    <path d="M-337.051802927006,120.76767217919485L-335.84343200183974,113.90286413413668L-352.18236776022013,117.81961736109311z" style="fill:rgb(44,139,201)">
    </path>
    <path d="M-335.84343200183974,113.90286413413668L-340.1660817332908,107.02533942592552L-352.18236776022013,117.81961736109311z" style="fill:rgb(44,139,201)">
    </path>
    <path d="M-446.4901755107746,44.0114546953769L-295.2217010327874,-0.733990853674928L-319.12036415945835,147.0481732677583z" style="fill:rgb(0,0,0); fill-opacity: 0.18">
    </path>
    <path d="M-446.4901755107746,44.0114546953769L-466.45385693829996,195.1757077886955" style="fill:none;stroke:rgb(0,0,0);stroke-width:1;stroke-linecap:round">
    </path>
    <path d="M-446.4901755107746,44.0114546953769L-466.45385693829996,195.1757077886955" style="fill:none;stroke:rgb(0,0,0);stroke-width:1;stroke-linecap:round">
    </path>
    <path d="M-446.4901755107746,44.0114546953769L-466.45385693829996,195.1757077886955" style="fill:none;stroke:rgb(0,0,0);stroke-width:1;stroke-linecap:round">
    </path>
    <path d="M-446.4901755107746,44.0114546953769L-466.45385693829996,195.1757077886955" style="fill:none;stroke:rgb(0,0,0);stroke-width:1;stroke-linecap:round">
    </path>
    <path d="M-466.45385693829996,195.1757077886955L-466.45385693829996,195.1757077886955" style="fill:none;stroke:rgb(0,0,0);stroke-width:1;stroke-linecap:round">
    </path>
    <path d="M-466.45385693829996,195.1757077886955L-319.12036415945835,147.0481732677583L-446.4901755107746,44.0114546953769z" style="fill:rgb(0,0,0); fill-opacity: 0.18">
    </path>
    <path d="M-306.0911784001954,2.4812171357517268L-308.47739168837904,-53.730103063024046" style="fill:none;stroke:rgb(167,41,160);stroke-width:5;stroke-linecap:round">
    </path>
    <path d="M-341.7246390414771,73.8872505436993L-345.60017150945254,76.5933609104523L-353.7913154086848,84.66181460214202z" style="fill:rgb(44,139,201)">
    </path>
    <path d="M-419.9243832010912,263.7356518121299L-426.8933314747331,261.7443910347234L-427.21140323431206,265.03023977601265z" style="fill:rgb(109,213,75)">
    </path>
    <path d="M-426.8933314747331,261.7443910347234L-434.3036693077567,264.29121751629384L-427.21140323431206,265.03023977601265z" style="fill:rgb(109,213,75)">
    </path>
    <path d="M-281.22287574995977,-58.842841730129294L-274.0498612785494,-60.8790326756162L-281.76176405071413,-75.55176521946069z" style="fill:rgb(167,41,160)">
    </path>
    <path d="M-288.3784115812224,-60.41894168952721L-281.22287574995977,-58.842841730129294L-281.76176405071413,-75.55176521946069z" style="fill:rgb(167,41,160)">
    </path>
    <path d="M-338.5972366737542,87.70187603222121L-337.3864145829449,80.76041013845544L-353.7913154086848,84.66181460214202z" style="fill:rgb(44,139,201)">
    </path>
    <path d="M-419.9243832010912,263.7356518121299L-423.01624879787704,267.5261967893681L-426.4194757200569,278.5706303289753z" style="fill:rgb(109,213,75)">
    </path>
    <path d="M-337.3864145829449,80.76041013845544L-341.7246390414771,73.8872505436993L-353.7913154086848,84.66181460214202z" style="fill:rgb(44,139,201)">
    </path>
    <path d="M-431.9239635408026,267.8710270878966L-434.3036693077567,264.29121751629384L-426.4194757200569,278.5706303289753z" style="fill:rgb(109,213,75)">
    </path>
    <path d="M-430.4053290804988,210.42043954038837L-427.21140323431206,265.03023977601265" style="fill:none;stroke:rgb(109,213,75);stroke-width:5;stroke-linecap:round">
    </path>
    <path d="M-318.15271741137616,6.049038778199067L-320.62517728291044,-50.28873859083064" style="fill:none;stroke:rgb(214,94,68);stroke-width:5;stroke-linecap:round">
    </path>
    <path d="M-423.01624879787704,267.5261967893681L-419.9243832010912,263.7356518121299L-427.21140323431206,265.03023977601265z" style="fill:rgb(109,213,75)">
    </path>
    <path d="M-434.3036693077567,264.29121751629384L-431.9239635408026,267.8710270878966L-427.21140323431206,265.03023977601265z" style="fill:rgb(109,213,75)">
    </path>
    <path d="M-423.01624879787704,267.5261967893681L-431.9239635408026,267.8710270878966L-426.4194757200569,278.5706303289753z" style="fill:rgb(109,213,75)">
    </path>
    <path d="M-320.6208804616463,6.779125174278368L-323.11104150541735,-49.584514372230416" style="fill:none;stroke:rgb(70,211,116);stroke-width:5;stroke-linecap:round">
    </path>
    <path d="M-431.9239635408026,267.8710270878966L-423.01624879787704,267.5261967893681L-427.21140323431206,265.03023977601265z" style="fill:rgb(109,213,75)">
    </path>
    <path d="M-343.295532845773,40.48686273769947L-347.18309040414294,43.273419944718206L-355.41302246462226,51.24106113953745z" style="fill:rgb(44,139,201)">
    </path>
    <path d="M-297.5789466281652,-54.199872786084235L-290.3539956132665,-56.25080686641525L-298.11253179826804,-70.97125773786618z" style="fill:rgb(214,94,68)">
    </path>
    <path d="M-297.57894662816517,-54.199872786084235L-290.3539956132664,-56.250806866415296L-298.112531798268,-70.97125773786622z" style="fill:rgb(162,186,45)">
    </path>
    <path d="M-297.5789466281652,-54.199872786084235L-290.3539956132665,-56.25080686641525L-298.11253179826804,-70.97125773786618z" style="fill:rgb(70,211,116)">
    </path>
    <path d="M-304.7390967234142,-55.78769231438615L-297.5789466281652,-54.199872786084235L-298.11253179826804,-70.97125773786618z" style="fill:rgb(214,94,68)">
    </path>
    <path d="M-304.7390967234141,-55.787692314386184L-297.57894662816517,-54.199872786084235L-298.112531798268,-70.97125773786622z" style="fill:rgb(162,186,45)">
    </path>
    <path d="M-304.7390967234142,-55.78769231438615L-297.5789466281652,-54.199872786084235L-298.11253179826804,-70.97125773786618z" style="fill:rgb(70,211,116)">
    </path>
    <path d="M-333.4941256259991,10.5870507352978L-336.07689992611495,-45.91139681732684" style="fill:none;stroke:rgb(167,41,160);stroke-width:5;stroke-linecap:round">
    </path>
    <path d="M-340.15489631315796,54.37449709328652L-338.94162203746487,47.35537229398869L-355.41302246462226,51.24106113953745z" style="fill:rgb(44,139,201)">
    </path>
    <path d="M-338.94162203746487,47.35537229398869L-343.295532845773,40.48686273769947L-355.41302246462226,51.24106113953745z" style="fill:rgb(44,139,201)">
    </path>
    <path d="M-335.20552039608236,11.093283919455612L-337.80064340145066,-45.4230749327304" style="fill:none;stroke:rgb(214,94,68);stroke-width:5;stroke-linecap:round">
    </path>
    <path d="M-660.8034867038184,287.0142312930335L-288.4729987280136,163.23631503988247L-486.3539847836224,366.38983270413365z" style="fill:rgb(0,0,0); fill-opacity: 0.18">
    </path>
    <path d="M-308.54887909829284,-51.08585743628879L-301.2889897152673,-53.14670940945461L-309.07887821568227,-67.89914316891955z" style="fill:rgb(167,41,160)">
    </path>
    <path d="M-315.7120382036407,-52.68156149332993L-308.54887909829284,-51.08585743628879L-309.07887821568227,-67.89914316891955z" style="fill:rgb(167,41,160)">
    </path>
    <path d="M-344.7303758310972,13.910750689718244L-347.3943827640105,-42.70525006326125" style="fill:none;stroke:rgb(162,186,45);stroke-width:5;stroke-linecap:round">
    </path>
    <path d="M-345.35910578390155,14.096729969044924L-348.0276690429499,-42.52584543975102" style="fill:none;stroke:rgb(162,186,45);stroke-width:5;stroke-linecap:round">
    </path>
    <path d="M-295.2217010327874,-0.733990853674928L-446.4901755107746,44.0114546953769L-466.45385693829996,195.1757077886955z" style="fill:rgb(0,0,0); fill-opacity: 0.18">
    </path>
    <path d="M-295.2217010327874,-0.733990853674928L-446.4901755107746,44.0114546953769L-466.45385693829996,195.1757077886955z" style="fill:rgb(0,0,0); fill-opacity: 0.18">
    </path>
    <path d="M-344.87891019933056,6.8210493597141335L-348.7785620322268,9.6892479201283L-357.04764131078764,17.554216611726396z" style="fill:rgb(44,139,201)">
    </path>
    <path d="M-456.4523718742527,276.3241704899515L-463.42829704853085,274.30093297967375L-463.8256778152933,277.63895231427784z" style="fill:rgb(109,213,75)">
    </path>
    <path d="M-463.42829704853085,274.30093297967375L-470.9551755306088,276.8878128053533L-463.8256778152933,277.63895231427784z" style="fill:rgb(109,213,75)">
    </path>
    <path d="M-349.6483566151931,15.365496909282111L-352.34803439256024,-41.301922634615494" style="fill:none;stroke:rgb(70,211,116);stroke-width:5;stroke-linecap:round">
    </path>
    <path d="M-456.4523718742527,276.3241704899515L-459.6565956468567,280.174843496236L-462.96697284269806,291.26450255685836z" style="fill:rgb(109,213,75)">
    </path>
    <path d="M-341.7249274995064,20.78241897190137L-340.5092002276224,13.684617556942316L-357.04764131078764,17.554216611726396z" style="fill:rgb(44,139,201)">
    </path>
    <path d="M-486.3539847836224,366.38983270413365L-486.3539847836224,366.38983270413365L-660.8034867038184,287.0142312930335z" style="fill:rgb(0,0,0); fill-opacity: 0.18">
    </path>
    <path d="M-468.64100809719946,280.5246994630255L-470.9551755306088,276.8878128053533L-462.96697284269806,291.26450255685836z" style="fill:rgb(109,213,75)">
    </path>
    <path d="M-340.5092002276224,13.684617556942316L-344.87891019933056,6.8210493597141335L-357.04764131078764,17.554216611726396z" style="fill:rgb(44,139,201)">
    </path>
    <path d="M-467.2891485136908,222.68213300985963L-463.8256778152933,277.63895231427784" style="fill:none;stroke:rgb(109,213,75);stroke-width:5;stroke-linecap:round">
    </path>
    <path d="M-459.6565956468567,280.174843496236L-456.4523718742527,276.3241704899515L-463.8256778152933,277.63895231427784z" style="fill:rgb(109,213,75)">
    </path>
    <path d="M-470.9551755306088,276.8878128053533L-468.64100809719946,280.5246994630255L-463.8256778152933,277.63895231427784z" style="fill:rgb(109,213,75)">
    </path>
    <path d="M-320.72242533544704,-47.630174372863195L-313.42366567678573,-49.7020603825019L-321.2484174307366,-64.48996591909571z" style="fill:rgb(214,94,68)">
    </path>
    <path d="M-327.88884300214596,-49.234650858220874L-320.72242533544704,-47.630174372863195L-321.2484174307366,-64.48996591909571z" style="fill:rgb(214,94,68)">
    </path>
    <path d="M-459.6565956468567,280.174843496236L-468.64100809719946,280.5246994630255L-462.96697284269806,291.26450255685836z" style="fill:rgb(109,213,75)">
    </path>
    <path d="M-323.2135779117087,-46.92301529214086L-315.9068512026152,-48.99716289431049L-323.73874645667433,-63.79232462719697z" style="fill:rgb(70,211,116)">
    </path>
    <path d="M-330.3806519487406,-48.52928989524222L-323.2135779117087,-46.92301529214086L-323.73874645667433,-63.79232462719697z" style="fill:rgb(70,211,116)">
    </path>
    <path d="M-468.64100809719946,280.5246994630255L-459.6565956468567,280.174843496236L-463.8256778152933,277.63895231427784z" style="fill:rgb(109,213,75)">
    </path>
    <path d="M-660.8034867038184,287.0142312930335L-528.0877276725037,215.30885053494112" style="fill:none;stroke:rgb(160,0,0);stroke-width:4;stroke-linecap:round">
    </path>
    <path d="M-361.22934363908263,18.791170540684615L-364.01329959106846,-37.99725209195029" style="fill:none;stroke:rgb(167,41,160);stroke-width:5;stroke-linecap:round">
    </path>
    <path d="M-365.9942502815828,20.200637195610998L-368.812995788116,-36.637538929308036" style="fill:none;stroke:rgb(214,94,68);stroke-width:5;stroke-linecap:round">
    </path>
    <path d="M-336.2071121515801,-43.234563683050766L-328.858759986746,-45.320527429802034L-336.727965517102,-60.15352209480459z" style="fill:rgb(167,41,160)">
    </path>
    <path d="M-343.37755217701704,-44.85023333142203L-336.2071121515801,-43.234563683050766L-336.727965517102,-60.15352209480459z" style="fill:rgb(167,41,160)">
    </path>
    <path d="M-337.9345466914483,-42.744199892064415L-330.5806517114773,-44.83173706795614L-338.454823889385,-59.66975963080168z" style="fill:rgb(214,94,68)">
    </path>
    <path d="M-345.10542693624063,-44.36112063049124L-337.9345466914483,-42.744199892064415L-338.454823889385,-59.66975963080168z" style="fill:rgb(214,94,68)">
    </path>
    <path d="M-347.54887940393894,-40.01499625054116L-340.1640968180313,-42.11130143656118L-348.0659391951791,-56.97729978767025z" style="fill:rgb(162,186,45)">
    </path>
    <path d="M-354.72217857227423,-41.63888897465361L-347.54887940393894,-40.01499625054116L-348.0659391951791,-56.97729978767025z" style="fill:rgb(162,186,45)">
    </path>
    <path d="M-348.1835280522996,-39.83483965996016L-340.79670428067254,-41.931724273764225L-348.70037482521417,-56.7995688581608z" style="fill:rgb(162,186,45)">
    </path>
    <path d="M-355.3569850347735,-41.4591931362927L-348.1835280522996,-39.83483965996016L-348.70037482521417,-56.7995688581608z" style="fill:rgb(162,186,45)">
    </path>
    <path d="M-493.55739679669915,289.11155124219204L-500.5396516224403,287.0555715299676L-501.0188166874896,290.44700605293895z" style="fill:rgb(109,213,75)">
    </path>
    <path d="M-500.5396516224403,287.0555715299676L-508.18584174038733,289.68345704805114L-501.0188166874896,290.44700605293895z" style="fill:rgb(109,213,75)">
    </path>
    <path d="M-352.5131975679989,-38.60578402373413L-345.1124410035193,-40.70662371483031L-353.02858899880636,-55.587062038286945z" style="fill:rgb(70,211,116)">
    </path>
    <path d="M-359.68772503408513,-40.233282562169656L-352.5131975679989,-38.60578402373413L-353.02858899880636,-55.587062038286945z" style="fill:rgb(70,211,116)">
    </path>
    <path d="M-493.55739679669915,289.11155124219204L-496.8771602558529,293.0237876918188L-500.09131501514105,304.15872769353024z" style="fill:rgb(109,213,75)">
    </path>
    <path d="M-387.87874150673554,26.674103090358766L-390.8581234987666,-30.392341506450084" style="fill:none;stroke:rgb(162,186,45);stroke-width:5;stroke-linecap:round">
    </path>
    <path d="M-505.9395922799138,293.3787858963522L-508.18584174038733,289.68345704805114L-500.09131501514105,304.15872769353024z" style="fill:rgb(109,213,75)">
    </path>
    <path d="M-504.7600158682614,235.13898527184352L-501.01881668748973,290.447006052939" style="fill:none;stroke:rgb(109,213,75);stroke-width:5;stroke-linecap:round">
    </path>
    <path d="M-389.30291265966883,27.095375090331096L-392.2927969229888,-29.98591071189103" style="fill:none;stroke:rgb(167,41,160);stroke-width:5;stroke-linecap:round">
    </path>
    <path d="M-496.8771602558529,293.0237876918188L-493.55739679669915,289.11155124219204L-501.0188166874896,290.44700605293895z" style="fill:rgb(109,213,75)">
    </path>
    <path d="M-391.09705665664274,27.626085622058174L-394.10017993292877,-29.47389445759911" style="fill:none;stroke:rgb(70,211,116);stroke-width:5;stroke-linecap:round">
    </path>
    <path d="M-508.18584174038733,289.68345704805114L-505.9395922799138,293.3787858963522L-501.0188166874896,290.44700605293895z" style="fill:rgb(109,213,75)">
    </path>
    <path d="M-528.0877276725037,215.30885053494112L-486.3539847836224,366.38983270413365L-660.8034867038184,287.0142312930335z" style="fill:rgb(0,0,0); fill-opacity: 0.18">
    </path>
    <path d="M-496.8771602558529,293.0237876918188L-505.9395922799138,293.3787858963522L-500.09131501514105,304.15872769353024z" style="fill:rgb(109,213,75)">
    </path>
    <path d="M-505.9395922799138,293.3787858963522L-496.8771602558529,293.0237876918188L-501.0188166874896,290.44700605293895z" style="fill:rgb(109,213,75)">
    </path>
    <path d="M-364.20367084299545,-35.28723002863475L-356.76522909232773,-37.39876734695599L-364.715114440411,-52.313196367537444z" style="fill:rgb(167,41,160)">
    </path>
    <path d="M-371.3810351322696,-36.92323566530158L-364.20367084299545,-35.28723002863475L-364.715114440411,-52.313196367537444z" style="fill:rgb(167,41,160)">
    </path>
    <path d="M-369.0137754951997,-33.92179411899034L-361.55980023790653,-36.037740906394475L-369.52358698666376,-50.966149867140125z" style="fill:rgb(214,94,68)">
    </path>
    <path d="M-376.19228430601214,-35.561306471267976L-369.0137754951997,-33.92179411899034L-369.52358698666376,-50.966149867140125z" style="fill:rgb(214,94,68)">
    </path>
    <path d="M-417.7210621676101,35.50150707388225L-420.92175154594463,-21.875571049670718" style="fill:none;stroke:rgb(167,41,160);stroke-width:5;stroke-linecap:round">
    </path>
    <path d="M-418.9691036394411,35.87067964545398L-422.1791051413104,-21.519373456421757" style="fill:none;stroke:rgb(162,186,45);stroke-width:5;stroke-linecap:round">
    </path>
    <path d="M-531.2532400751202,302.10254375022726L-538.2411436326505,300.0130318252888L-538.8046568221793,303.4591659749225z" style="fill:rgb(109,213,75)">
    </path>
    <path d="M-538.2411436326505,300.0130318252888L-546.0095049223092,302.6829058170981L-538.8046568221793,303.4591659749225z" style="fill:rgb(109,213,75)">
    </path>
    <path d="M-423.4659121827438,37.20084247358608L-426.7095039323735,-20.235949961406227" style="fill:none;stroke:rgb(214,94,68);stroke-width:5;stroke-linecap:round">
    </path>
    <path d="M-531.2532400751202,302.10254375022726L-534.691834665242,306.07782505972415L-537.8062677656781,317.2580868559223z" style="fill:rgb(109,213,75)">
    </path>
    <path d="M-543.8336423690569,306.43808575525674L-546.0095049223092,302.6829058170981L-537.8062677656781,317.2580868559223z" style="fill:rgb(109,213,75)">
    </path>
    <path d="M-391.10698316496797,-27.65023428968207L-383.5814534548092,-29.7864931132064L-391.60924022252726,-44.77907037064926z" style="fill:rgb(162,186,45)">
    </path>
    <path d="M-542.8320588763406,247.79569296360424L-538.8046568221793,303.4591659749225" style="fill:none;stroke:rgb(109,213,75);stroke-width:5;stroke-linecap:round">
    </path>
    <path d="M-398.29057883600456,-29.3059014045338L-391.10698316496797,-27.65023428968207L-391.60924022252726,-44.77907037064926z" style="fill:rgb(162,186,45)">
    </path>
    <path d="M-392.5448011588402,-27.24208343594413L-385.014602883827,-29.379667516725775L-393.0465632730142,-44.376418391985524z" style="fill:rgb(167,41,160)">
    </path>
    <path d="M-534.691834665242,306.07782505972415L-531.2532400751202,302.10254375022726L-538.8046568221793,303.4591659749225z" style="fill:rgb(109,213,75)">
    </path>
    <path d="M-399.7287182030102,-28.898804636462952L-392.5448011588402,-27.24208343594413L-393.0465632730142,-44.376418391985524z" style="fill:rgb(167,41,160)">
    </path>
    <path d="M-546.0095049223092,302.6829058170981L-543.8336423690569,306.43808575525674L-538.8046568221793,303.4591659749225z" style="fill:rgb(109,213,75)">
    </path>
    <path d="M-534.691834665242,306.07782505972415L-543.8336423690569,306.43808575525674L-537.8062677656781,317.2580868559223z" style="fill:rgb(109,213,75)">
    </path>
    <path d="M-394.35614836659016,-26.727899504174097L-386.82006662792145,-28.86715371338932L-394.8572863819046,-43.86916204320586z" style="fill:rgb(70,211,116)">
    </path>
    <path d="M-401.540468589605,-28.38594910670338L-394.35614836659016,-26.727899504174097L-394.8572863819046,-43.86916204320586z" style="fill:rgb(70,211,116)">
    </path>
    <path d="M-543.8336423690569,306.43808575525674L-534.691834665242,306.07782505972415L-538.8046568221793,303.4591659749225z" style="fill:rgb(109,213,75)">
    </path>
    <path d="M-432.1606100251861,39.772747361349566L-435.46931726731225,-17.754369251957883" style="fill:none;stroke:rgb(70,211,116);stroke-width:5;stroke-linecap:round">
    </path>
    <path d="M-446.49017551077446,44.011454695376855L-449.9066812363116,-13.664386674606028" style="fill:none;stroke:rgb(167,41,160);stroke-width:5;stroke-linecap:round">
    </path>
    <path d="M-446.4901755107746,44.0114546953769L-449.9066812363118,-13.664386674605993" style="fill:none;stroke:rgb(214,94,68);stroke-width:5;stroke-linecap:round">
    </path>
    <path d="M-446.49017551077446,44.011454695376855L-449.9066812363116,-13.664386674606028" style="fill:none;stroke:rgb(162,186,45);stroke-width:5;stroke-linecap:round">
    </path>
    <path d="M-446.4901755107746,44.0114546953769L-449.9066812363118,-13.664386674605993" style="fill:none;stroke:rgb(70,211,116);stroke-width:5;stroke-linecap:round">
    </path>
    <path d="M-421.236903784132,-19.097306953831037L-413.61324066641185,-21.261422734388187L-421.7287047399846,-36.341397308815644z" style="fill:rgb(167,41,160)">
    </path>
    <path d="M-428.42698664791965,-20.775132757932372L-421.236903784132,-19.097306953831037L-421.7287047399846,-36.341397308815644z" style="fill:rgb(167,41,160)">
    </path>
    <path d="M-422.49704815085596,-18.73959199873691L-414.8692669053425,-20.904876784955366L-422.9884079316935,-35.98850379437657z" style="fill:rgb(162,186,45)">
    </path>
    <path d="M-429.68739101838,-20.41834776375957L-422.49704815085596,-18.73959199873691L-422.9884079316935,-35.98850379437657z" style="fill:rgb(162,186,45)">
    </path>
    <path d="M-569.5541262398201,315.30205016640434L-576.5469622695819,313.1781904862086L-577.1974797382952,316.6803501502681z" style="fill:rgb(109,213,75)">
    </path>
    <path d="M-576.5469622695819,313.1781904862086L-584.4404463813544,315.89106739151373L-577.1974797382952,316.6803501502681z" style="fill:rgb(109,213,75)">
    </path>
    <path d="M-427.0375145582545,-17.45069782127763L-419.39488594878605,-19.620197302471194L-427.52728215569687,-34.7169826241138z" style="fill:rgb(214,94,68)">
    </path>
    <path d="M-569.5541262398201,315.30205016640434L-573.1149579691823,319.3419056113933L-576.1260381256815,330.5675145061776z" style="fill:rgb(109,213,75)">
    </path>
    <path d="M-434.22878672006146,-19.132806490708568L-427.0375145582545,-17.45069782127763L-427.52728215569687,-34.7169826241138z" style="fill:rgb(214,94,68)">
    </path>
    <path d="M-660.8034867038184,287.0142312930335L-660.8034867038184,287.0142312930335L-486.3539847836224,366.38983270413365z" style="fill:rgb(0,0,0); fill-opacity: 0.18">
    </path>
    <path d="M-581.5198622614345,260.65710464507174L-577.1974797382952,316.6803501502681" style="fill:none;stroke:rgb(109,213,75);stroke-width:5;stroke-linecap:round">
    </path>
    <path d="M-573.1149579691823,319.3419056113933L-569.5541262398201,315.30205016640434L-577.1974797382952,316.6803501502681z" style="fill:rgb(109,213,75)">
    </path>
    <path d="M-584.4404463813544,315.89106739151373L-582.3375328844274,319.7075528824645L-577.1974797382952,316.6803501502681z" style="fill:rgb(109,213,75)">
    </path>
    <path d="M-573.1149579691823,319.3419056113933L-582.3375328844274,319.7075528824645L-576.1260381256815,330.5675145061776z" style="fill:rgb(109,213,75)">
    </path>
    <path d="M-582.3375328844274,319.7075528824645L-573.1149579691823,319.3419056113933L-577.1974797382952,316.6803501502681z" style="fill:rgb(109,213,75)">
    </path>
    <path d="M-435.8168481063233,-14.958523917371872L-428.14547012561087,-17.136184431789157L-436.3035256793439,-32.2584039358822z" style="fill:rgb(70,211,116)">
    </path>
    <path d="M-443.00988367989174,-16.647125148220585L-435.8168481063233,-14.958523917371872L-436.3035256793439,-32.2584039358822z" style="fill:rgb(70,211,116)">
    </path>
    <path d="M-574.4679905065396,252.34855092820527L-572.3824365289952,261.13762078723147L-570.4040270134498,256.96174536388855z" style="fill:rgb(43,180,168)">
    </path>
    <path d="M-572.3824365289952,261.13762078723147L-567.5586849566658,264.16815755328776L-570.4040270134498,256.96174536388855z" style="fill:rgb(43,180,168)">
    </path>
    <path d="M-566.6574214640337,257.2319672914232L-567.5586849566658,264.16815755328776L-556.9621392881746,252.49311089296796z" style="fill:rgb(43,180,168)">
    </path>
    <path d="M-570.9377437444251,249.9180725740131L-574.4679905065396,252.34855092820527L-570.4040270134498,256.96174536388855z" style="fill:rgb(43,180,168)">
    </path>
    <path d="M-570.9377437444251,249.9180725740131L-566.6574214640337,257.2319672914232L-556.9621392881746,252.49311089296796z" style="fill:rgb(43,180,168)">
    </path>
    <path d="M-624.9332451159997,275.089492646528L-570.4040270134498,256.96174536388855" style="fill:none;stroke:rgb(43,180,168);stroke-width:5;stroke-linecap:round">
    </path>
    <path d="M-450.2865389218592,-10.851038349062915L-442.56765997119766,-13.042182879900079L-450.7680908129806,-28.206297647323026z" style="fill:rgb(167,41,160)">
    </path>
    <path d="M-450.28653892185935,-10.851038349062874L-442.5676599711978,-13.042182879900079L-450.76809081298074,-28.20629764732299z" style="fill:rgb(214,94,68)">
    </path>
    <path d="M-450.2865389218592,-10.851038349062915L-442.56765997119766,-13.042182879900079L-450.7680908129806,-28.206297647323026z" style="fill:rgb(162,186,45)">
    </path>
    <path d="M-450.28653892185935,-10.851038349062874L-442.5676599711978,-13.042182879900079L-450.76809081298074,-28.20629764732299z" style="fill:rgb(70,211,116)">
    </path>
    <path d="M-457.48238464569107,-12.550367556954582L-450.28653892185935,-10.851038349062874L-450.76809081298074,-28.20629764732299z" style="fill:rgb(214,94,68)">
    </path>
    <path d="M-457.48238464569107,-12.550367556954582L-450.28653892185935,-10.851038349062874L-450.76809081298074,-28.20629764732299z" style="fill:rgb(70,211,116)">
    </path>
    <path d="M-457.482384645691,-12.550367556954658L-450.2865389218592,-10.851038349062915L-450.7680908129806,-28.206297647323026z" style="fill:rgb(167,41,160)">
    </path>
    <path d="M-457.482384645691,-12.550367556954658L-450.2865389218592,-10.851038349062915L-450.7680908129806,-28.206297647323026z" style="fill:rgb(162,186,45)">
    </path>
    <path d="M-567.5586849566658,264.16815755328776L-566.6574214640337,257.2319672914232L-570.4040270134498,256.96174536388855z" style="fill:rgb(43,180,168)">
    </path>
    <path d="M-566.6574214640337,257.2319672914232L-570.9377437444251,249.9180725740131L-570.4040270134498,256.96174536388855z" style="fill:rgb(43,180,168)">
    </path>
    <path d="M-608.474740141312,328.7151312816862L-615.4717552829866,326.55608173354176L-616.2120294997492,330.1156359337953z" style="fill:rgb(109,213,75)">
    </path>
    <path d="M-615.4717552829866,326.55608173354176L-623.4934097210496,329.3130089356759L-616.2120294997492,330.1156359337953z" style="fill:rgb(109,213,75)">
    </path>
    <path d="M-608.474740141312,328.7151312816862L-612.161334444522,332.82113994439675L-615.0652924731418,344.0921046491641z" style="fill:rgb(109,213,75)">
    </path>
    <path d="M-620.8384863670111,273.7282269917474L-616.2120294997492,330.1156359337953" style="fill:none;stroke:rgb(109,213,75);stroke-width:5;stroke-linecap:round">
    </path>
    <path d="M-612.161334444522,332.82113994439675L-608.474740141312,328.7151312816862L-616.2120294997492,330.1156359337953z" style="fill:rgb(109,213,75)">
    </path>
    <path d="M-623.4934097210496,329.3130089356759L-621.4661047659469,333.1923018615097L-616.2120294997492,330.1156359337953z" style="fill:rgb(109,213,75)">
    </path>
    <path d="M-612.161334444522,332.82113994439675L-621.4661047659469,333.1923018615097L-615.0652924731418,344.0921046491641z" style="fill:rgb(109,213,75)">
    </path>
    <path d="M-621.4661047659469,333.1923018615097L-612.161334444522,332.82113994439675L-616.2120294997492,330.1156359337953z" style="fill:rgb(109,213,75)">
    </path>
    <path d="M-648.030245722728,342.34701299512375L-655.0306476572035,340.15190380676347L-655.8635315942266,343.77026646631936z" style="fill:rgb(109,213,75)">
    </path>
    <path d="M-655.0306476572035,340.15190380676347L-663.1836197023564,342.9539629808492L-655.8635315942266,343.77026646631936z" style="fill:rgb(109,213,75)">
    </path>
    <path d="M-648.030245722728,342.34701299512375L-651.8462525691131,346.5208058077647L-654.63917524864,357.8371173330065z" style="fill:rgb(109,213,75)">
    </path>
    <path d="M-660.8034867038178,287.0142312930333L-655.8635315942266,343.7702664663194" style="fill:none;stroke:rgb(109,213,75);stroke-width:5;stroke-linecap:round">
    </path>
    <path d="M-651.8462525691131,346.5208058077647L-648.030245722728,342.34701299512375L-655.8635315942266,343.77026646631936z" style="fill:rgb(109,213,75)">
    </path>
    <path d="M-663.1836197023564,342.9539629808492L-661.2346844462004,346.8976145896406L-655.8635315942266,343.77026646631936z" style="fill:rgb(109,213,75)">
    </path>
    <path d="M-651.8462525691131,346.5208058077647L-661.2346844462004,346.8976145896406L-654.63917524864,357.8371173330065z" style="fill:rgb(109,213,75)">
    </path>
    <path d="M-661.2346844462004,346.8976145896406L-651.8462525691131,346.5208058077647L-655.8635315942266,343.77026646631936z" style="fill:rgb(109,213,75)">
    </path>
    <path d="M-660.8034867038184,287.0142312930335L-660.8034867038184,287.0142312930335" style="fill:none;stroke:rgb(0,44,41);stroke-width:5;stroke-linecap:round">
    </path>
</svg>