<svg viewBox="-1163.5 -590 2327 1180" width="2327" height="1180" style="background-color: rgb(255, 255, 255);">
    <path d="M-139.22149829031247,-11.858515175839592L-139.22149829031247,-11.858515175839592" style="fill:none;stroke:rgb(0,0,0);stroke-width:1;stroke-linecap:round">
    </path>
    <path d="M-13.301464286034637,43.667793947193616L-139.22149829031247,-11.858515175839592" style="fill:none;stroke:rgb(160,0,0);stroke-width:4;stroke-linecap:round">
    </path>
    <path d="M-13.301464286034637,43.667793947193616L-139.22149829031247,-11.858515175839592" style="fill:none;stroke:rgb(0,0,0);stroke-width:1;stroke-linecap:round">
    </path>
    <path d="M-139.22149829031247,-11.858515175839592L-265.01485691291924,26.35703319788879" style="fill:none;stroke:rgb(0,0,0);stroke-width:1;stroke-linecap:round">
    </path>
    <path d="M-13.301464286034637,43.667793947193616L-139.22149829031247,-11.858515175839592" style="fill:none;stroke:rgb(0,0,0);stroke-width:1;stroke-linecap:round">
    </path>
    <path d="M-265.01485691291924,26.35703319788879L-139.22149829031247,-11.858515175839592" style="fill:none;stroke:rgb(0,0,0);stroke-width:1;stroke-linecap:round">
    </path>
    <path d="M-13.301464286034637,43.667793947193616L-139.22149829031247,-11.858515175839592" style="fill:none;stroke:rgb(0,0,0);stroke-width:1;stroke-linecap:round">
    </path>
    <path d="M-139.22149829031247,-11.858515175839592L-265.01485691291924,26.35703319788879" style="fill:none;stroke:rgb(0,0,0);stroke-width:1;stroke-linecap:round">
    </path>
    <path d="M-13.301464286034637,43.667793947193616L-139.22149829031247,-11.858515175839592" style="fill:none;stroke:rgb(0,0,0);stroke-width:1;stroke-linecap:round">
    </path>
    <path d="M-265.01485691291924,26.35703319788879L-139.22149829031247,-11.858515175839592" style="fill:none;stroke:rgb(0,0,0);stroke-width:1;stroke-linecap:round">
    </path>
    <path d="M-13.301464286034637,43.667793947193616L-139.22149829031247,-11.858515175839592" style="fill:none;stroke:rgb(0,0,0);stroke-width:1;stroke-linecap:round">
    </path>
    <path d="M-139.22149829031247,-11.858515175839592L-588.646896494547,124.67522741213739" style="fill:none;stroke:rgb(0,0,0);stroke-width:1;stroke-linecap:round">
    </path>
    <path d="M-13.301464286034637,43.667793947193616L-139.22149829031247,-11.858515175839592" style="fill:none;stroke:rgb(0,0,0);stroke-width:1;stroke-linecap:round">
    </path>
    <path d="M-139.22149829031247,-11.858515175839592L-139.22149829031247,-11.858515175839592L-13.301464286034637,43.667793947193616z" style="fill:rgb(0,0,0); fill-opacity: 0.18">
    </path>
    <path d="M-139.22149829031247,-11.858515175839592L-265.01485691291924,26.35703319788879L-13.301464286034637,43.667793947193616z" style="fill:rgb(0,0,0); fill-opacity: 0.18">
    </path>
    <path d="M-139.22149829031247,-11.858515175839592L-265.01485691291924,26.35703319788879L-13.301464286034637,43.667793947193616z" style="fill:rgb(0,0,0); fill-opacity: 0.18">
    </path>
    <path d="M-140.92295536838148,85.25180130216168L-265.01485691291924,26.35703319788879" style="fill:none;stroke:rgb(0,0,0);stroke-width:1;stroke-linecap:round">
    </path>
    <path d="M-140.92295536838148,85.25180130216168L-265.01485691291924,26.35703319788879" style="fill:none;stroke:rgb(0,0,0);stroke-width:1;stroke-linecap:round">
    </path>
    <path d="M-140.92295536838148,85.25180130216168L-265.01485691291924,26.35703319788879" style="fill:none;stroke:rgb(0,0,0);stroke-width:1;stroke-linecap:round">
    </path>
    <path d="M-140.92295536838148,85.25180130216168L-265.01485691291924,26.35703319788879" style="fill:none;stroke:rgb(0,0,0);stroke-width:1;stroke-linecap:round">
    </path>
    <path d="M-13.301464286034637,43.667793947193616L-13.301464286034637,43.667793947193616L-139.22149829031247,-11.858515175839592z" style="fill:rgb(0,0,0); fill-opacity: 0.18">
    </path>
    <path d="M-265.01485691291924,26.35703319788879L-139.22149829031247,-11.858515175839592L-140.92295536838148,85.25180130216168z" style="fill:rgb(0,0,0); fill-opacity: 0.18">
    </path>
    <path d="M-265.01485691291924,26.35703319788879L-139.22149829031247,-11.858515175839592L-140.92295536838148,85.25180130216168z" style="fill:rgb(0,0,0); fill-opacity: 0.18">
    </path>
    <path d="M-140.92295536838148,85.25180130216168L-13.301464286034637,43.667793947193616L-139.22149829031247,-11.858515175839592z" style="fill:rgb(0,0,0); fill-opacity: 0.18">
    </path>
    <path d="M-140.92295536838148,85.25180130216168L-13.301464286034637,43.667793947193616L-139.22149829031247,-11.858515175839592z" style="fill:rgb(0,0,0); fill-opacity: 0.18">
    </path>
    <path d="M-13.301464286034637,43.667793947193616L-13.301464286034637,43.667793947193616" style="fill:none;stroke:rgb(50,34,0);stroke-width:5;stroke-linecap:round">
    </path>
    <path d="M-13.301464286034637,43.667793947193616L21.948546292348265,59.21180963495134" style="fill:none;stroke:rgb(197,147,42);stroke-width:5;stroke-linecap:round">
    </path>
    <path d="M-140.92295536838148,85.25180130216168L-13.301464286034637,43.667793947193616" style="fill:none;stroke:rgb(22,55,11);stroke-width:5;stroke-linecap:round">
    </path>
    <path d="M-13.301464286034637,43.667793947193616L21.948546292348265,59.21180963495134" style="fill:none;stroke:rgb(109,213,75);stroke-width:5;stroke-linecap:round">
    </path>
    <path d="M-13.301464286034637,43.667793947193616L-140.92295536838148,85.25180130216168" style="fill:none;stroke:rgb(0,44,41);stroke-width:5;stroke-linecap:round">
    </path>
    <path d="M-13.301464286034621,43.667793947193616L21.948546292348286,59.21180963495134" style="fill:none;stroke:rgb(43,180,168);stroke-width:5;stroke-linecap:round">
    </path>
    <path d="M-140.92295536838148,85.25180130216168L-13.301464286034637,43.667793947193616" style="fill:none;stroke:rgb(10,15,55);stroke-width:5;stroke-linecap:round">
    </path>
    <path d="M-13.301464286034637,43.667793947193616L21.948546292348265,59.21180963495134" style="fill:none;stroke:rgb(74,87,214);stroke-width:5;stroke-linecap:round">
    </path>
    <path d="M-13.301464286034637,43.667793947193616L-140.92295536838148,85.25180130216168" style="fill:none;stroke:rgb(40,0,38);stroke-width:5;stroke-linecap:round">
    </path>
    <path d="M-13.301464286034621,43.667793947193616L21.948546292348286,59.21180963495134" style="fill:none;stroke:rgb(167,41,160);stroke-width:5;stroke-linecap:round">
    </path>
    <path d="M-470.72211282348036,192.71309542249136L-13.301464286034637,43.667793947193616" style="fill:none;stroke:rgb(55,17,8);stroke-width:5;stroke-linecap:round">
    </path>
    <path d="M-13.301464286034637,43.667793947193616L21.948546292348265,59.21180963495134" style="fill:none;stroke:rgb(214,94,68);stroke-width:5;stroke-linecap:round">
    </path>
    <path d="M-22.771605741736934,46.75353153423068L12.447598627409512,62.36845037896113" style="fill:none;stroke:rgb(109,213,75);stroke-width:5;stroke-linecap:round">
    </path>
    <path d="M-27.390950117952226,48.258692215919645L7.8130494365009495,63.90825538811059" style="fill:none;stroke:rgb(43,180,168);stroke-width:5;stroke-linecap:round">
    </path>
    <path d="M-13.301464286034637,43.667793947193616L-140.92295536838148,85.25180130216168L-265.01485691291924,26.35703319788879z" style="fill:rgb(0,0,0); fill-opacity: 0.18">
    </path>
    <path d="M-13.301464286034637,43.667793947193616L-140.92295536838148,85.25180130216168L-265.01485691291924,26.35703319788879z" style="fill:rgb(0,0,0); fill-opacity: 0.18">
    </path>
    <path d="M-36.37121290414574,51.18480842552937L-1.1971066991936785,66.90183318380589" style="fill:none;stroke:rgb(214,94,68);stroke-width:5;stroke-linecap:round">
    </path>
    <path d="M-37.07337960946969,51.4136014382968L-1.9016293784466505,67.13590720177102" style="fill:none;stroke:rgb(167,41,160);stroke-width:5;stroke-linecap:round">
    </path>
    <path d="M-41.22574171002719,52.766601271362994L-6.067979052928906,68.5201553420693" style="fill:none;stroke:rgb(74,87,214);stroke-width:5;stroke-linecap:round">
    </path>
    <path d="M-58.981403555070635,58.55208118148407L-23.884517374605462,74.43960809213121" style="fill:none;stroke:rgb(74,87,214);stroke-width:5;stroke-linecap:round">
    </path>
    <path d="M-59.692510974167,58.783787423866045L-24.598098830655353,74.67669184185539" style="fill:none;stroke:rgb(214,94,68);stroke-width:5;stroke-linecap:round">
    </path>
    <path d="M26.862132391873466,55.62704451315337L21.923688784285467,52.89180539486925L30.889295920490152,63.1543659689735z" style="fill:rgb(197,147,42)">
    </path>
    <path d="M26.862132391873466,55.62704451315337L21.923688784285467,52.89180539486925L30.889295920490152,63.1543659689735z" style="fill:rgb(109,213,75)">
    </path>
    <path d="M26.862132391873498,55.62704451315337L21.9236887842855,52.89180539486924L30.88929592049019,63.1543659689735z" style="fill:rgb(43,180,168)">
    </path>
    <path d="M26.862132391873466,55.62704451315337L21.923688784285467,52.89180539486925L30.889295920490152,63.1543659689735z" style="fill:rgb(74,87,214)">
    </path>
    <path d="M26.862132391873498,55.62704451315337L21.9236887842855,52.89180539486924L30.88929592049019,63.1543659689735z" style="fill:rgb(167,41,160)">
    </path>
    <path d="M26.862132391873466,55.62704451315337L21.923688784285467,52.89180539486925L30.889295920490152,63.1543659689735z" style="fill:rgb(214,94,68)">
    </path>
    <path d="M-66.60393023560945,61.03579456595189L-31.53370810025583,76.98101216621053" style="fill:none;stroke:rgb(167,41,160);stroke-width:5;stroke-linecap:round">
    </path>
    <path d="M17.00809849336332,58.89643159917923L18.923935761612213,65.33316836556358L30.889295920490152,63.1543659689735z" style="fill:rgb(197,147,42)">
    </path>
    <path d="M17.00809849336332,58.89643159917923L18.923935761612213,65.33316836556358L30.889295920490152,63.1543659689735z" style="fill:rgb(109,213,75)">
    </path>
    <path d="M17.008098493363352,58.89643159917923L18.923935761612213,65.33316836556358L30.88929592049019,63.1543659689735z" style="fill:rgb(43,180,168)">
    </path>
    <path d="M17.00809849336332,58.89643159917923L18.923935761612213,65.33316836556358L30.889295920490152,63.1543659689735z" style="fill:rgb(74,87,214)">
    </path>
    <path d="M17.008098493363352,58.89643159917923L18.923935761612213,65.33316836556358L30.88929592049019,63.1543659689735z" style="fill:rgb(167,41,160)">
    </path>
    <path d="M17.00809849336332,58.89643159917923L18.923935761612213,65.33316836556358L30.889295920490152,63.1543659689735z" style="fill:rgb(214,94,68)">
    </path>
    <path d="M21.923688784285467,52.89180539486925L17.00809849336332,58.89643159917923L30.889295920490152,63.1543659689735z" style="fill:rgb(197,147,42)">
    </path>
    <path d="M21.923688784285467,52.89180539486925L17.00809849336332,58.89643159917923L30.889295920490152,63.1543659689735z" style="fill:rgb(109,213,75)">
    </path>
    <path d="M21.9236887842855,52.89180539486924L17.008098493363352,58.89643159917923L30.88929592049019,63.1543659689735z" style="fill:rgb(43,180,168)">
    </path>
    <path d="M21.923688784285467,52.89180539486925L17.00809849336332,58.89643159917923L30.889295920490152,63.1543659689735z" style="fill:rgb(74,87,214)">
    </path>
    <path d="M21.9236887842855,52.89180539486924L17.008098493363352,58.89643159917923L30.88929592049019,63.1543659689735z" style="fill:rgb(167,41,160)">
    </path>
    <path d="M21.923688784285467,52.89180539486925L17.00809849336332,58.89643159917923L30.889295920490152,63.1543659689735z" style="fill:rgb(214,94,68)">
    </path>
    <path d="M-70.30860401841534,62.242920266532806L-35.25145596461387,78.21621467426097" style="fill:none;stroke:rgb(43,180,168);stroke-width:5;stroke-linecap:round">
    </path>
    <path d="M-70.39706770484939,62.271745149835155L-35.34023276520081,78.24571030730078" style="fill:none;stroke:rgb(167,41,160);stroke-width:5;stroke-linecap:round">
    </path>
    <path d="M-76.0911937177655,64.12711117003339L-41.05460311363227,80.14428031361564" style="fill:none;stroke:rgb(109,213,75);stroke-width:5;stroke-linecap:round">
    </path>
    <path d="M17.381149143768674,58.77266025929649L12.415566499225266,56.03656931884336L21.380823997406626,66.32911876068053z" style="fill:rgb(109,213,75)">
    </path>
    <path d="M-76.60341516072722,64.29401268537259L-41.568654364598,80.31507118422488" style="fill:none;stroke:rgb(109,213,75);stroke-width:5;stroke-linecap:round">
    </path>
    <path d="M-76.67723547755845,64.31806619369648L-41.64273850813385,80.33968525791707" style="fill:none;stroke:rgb(43,180,168);stroke-width:5;stroke-linecap:round">
    </path>
    <path d="M7.482676638651359,62.05679125711104L9.415060505819728,68.50396549242431L21.380823997406626,66.32911876068053z" style="fill:rgb(109,213,75)">
    </path>
    <path d="M12.415566499225266,56.03656931884336L7.482676638651359,62.05679125711104L21.380823997406626,66.32911876068053z" style="fill:rgb(109,213,75)">
    </path>
    <path d="M12.756353066329,60.307082479355046L7.777505922476625,57.570584673471664L16.742559256078263,67.87777390267661z" style="fill:rgb(43,180,168)">
    </path>
    <path d="M-83.26949534225156,66.46607888634225L-48.258678828468234,82.53779722649186" style="fill:none;stroke:rgb(214,94,68);stroke-width:5;stroke-linecap:round">
    </path>
    <path d="M2.836167174248303,63.59841757933356L4.776642425752624,70.05067657294846L16.742559256078263,67.87777390267661z" style="fill:rgb(43,180,168)">
    </path>
    <path d="M7.777505922476625,57.57058467347168L2.836167174248303,63.59841757933356L16.742559256078263,67.87777390267661z" style="fill:rgb(43,180,168)">
    </path>
    <path d="M3.765185438102345,63.29018641777992L-1.2394985952351143,60.55291385051298L7.725094738565871,70.88858582731314z" style="fill:rgb(214,94,68)">
    </path>
    <path d="M3.062149024069719,63.52344096071304L-1.944557977164257,60.78610871718335L7.019995876675542,71.12400899502333z" style="fill:rgb(167,41,160)">
    </path>
    <path d="M-6.197282168122657,66.59554981232515L-4.241038742904631,73.05768179400305L7.725094738565871,70.88858582731314z" style="fill:rgb(214,94,68)">
    </path>
    <path d="M-6.903628468489693,66.82990251462621L-4.9461500102673615,73.29280579348016L7.019995876675542,71.12400899502333z" style="fill:rgb(167,41,160)">
    </path>
    <path d="M-1.2394985952351143,60.55291385051298L-6.197282168122657,66.59554981232515L7.725094738565871,70.88858582731314z" style="fill:rgb(214,94,68)">
    </path>
    <path d="M-1.944557977164257,60.78610871718335L-6.903628468489693,66.82990251462621L7.019995876675542,71.12400899502333z" style="fill:rgb(167,41,160)">
    </path>
    <path d="M-1.0954068032704565,64.90284146525083L-6.1140851592218945,62.16515899325806L2.8502248087439965,72.51624030682403z" style="fill:rgb(74,87,214)">
    </path>
    <path d="M-11.080769279521233,68.21580095629514L-9.115980994048687,74.68326341829909L2.8502248087439965,72.51624030682403z" style="fill:rgb(74,87,214)">
    </path>
    <path d="M-6.1140851592218945,62.16515899325806L-11.080769279521233,68.21580095629514L2.8502248087439965,72.51624030682403z" style="fill:rgb(74,87,214)">
    </path>
    <path d="M-101.8563635022004,72.52239789432511L-66.91359583452737,88.73579696021918" style="fill:none;stroke:rgb(167,41,160);stroke-width:5;stroke-linecap:round">
    </path>
    <path d="M-103.50146060897512,73.05843402434976L-68.56480701597917,89.28440333888285" style="fill:none;stroke:rgb(74,87,214);stroke-width:5;stroke-linecap:round">
    </path>
    <path d="M-470.72211282348036,192.71309542249136L-13.301464286034637,43.667793947193616L-139.22149829031247,-11.858515175839592z" style="fill:rgb(0,0,0); fill-opacity: 0.18">
    </path>
    <path d="M-107.10639406432557,74.2330604767608L-72.18319020729253,90.48659244800616" style="fill:none;stroke:rgb(214,94,68);stroke-width:5;stroke-linecap:round">
    </path>
    <path d="M-18.874253367669017,70.80153553924505L-23.94428088602365,68.06240711417753L-14.981214804674277,78.46992173437529z" style="fill:rgb(74,87,214)">
    </path>
    <path d="M-19.586322281013697,71.03778689920857L-24.658411688049135,68.29860230770561L-15.69540221106841,78.70837944667575z" style="fill:rgb(214,94,68)">
    </path>
    <path d="M-28.94358399763207,74.14235411827423L-26.947417307958524,80.62927338383145L-14.981214804674277,78.46992173437529z" style="fill:rgb(74,87,214)">
    </path>
    <path d="M-29.65902329862444,74.37972371082793L-27.66159582052683,80.86742091598441L-15.69540221106841,78.70837944667575z" style="fill:rgb(214,94,68)">
    </path>
    <path d="M-23.94428088602365,68.06240711417753L-28.94358399763207,74.14235411827423L-14.981214804674277,78.46992173437529z" style="fill:rgb(74,87,214)">
    </path>
    <path d="M-24.658411688049135,68.29860230770561L-29.65902329862444,74.37972371082793L-15.69540221106841,78.70837944667575z" style="fill:rgb(214,94,68)">
    </path>
    <path d="M-588.646896494547,124.67522741213739L-444.4253299585708,80.86125890982892" style="fill:none;stroke:rgb(0,0,0);stroke-width:1;stroke-linecap:round">
    </path>
    <path d="M-323.49106785029403,144.73953857778918L-444.4253299585708,80.86125890982892" style="fill:none;stroke:rgb(0,0,0);stroke-width:1;stroke-linecap:round">
    </path>
    <path d="M-444.4253299585708,80.86125890982892L-588.646896494547,124.67522741213739" style="fill:none;stroke:rgb(0,0,0);stroke-width:1;stroke-linecap:round">
    </path>
    <path d="M-323.49106785029403,144.73953857778918L-444.4253299585708,80.86125890982892" style="fill:none;stroke:rgb(0,0,0);stroke-width:1;stroke-linecap:round">
    </path>
    <path d="M-588.646896494547,124.67522741213739L-444.4253299585708,80.86125890982892" style="fill:none;stroke:rgb(0,0,0);stroke-width:1;stroke-linecap:round">
    </path>
    <path d="M-323.49106785029403,144.73953857778918L-444.4253299585708,80.86125890982892" style="fill:none;stroke:rgb(0,0,0);stroke-width:1;stroke-linecap:round">
    </path>
    <path d="M-444.4253299585708,80.86125890982892L-588.646896494547,124.67522741213739" style="fill:none;stroke:rgb(0,0,0);stroke-width:1;stroke-linecap:round">
    </path>
    <path d="M-323.49106785029403,144.73953857778918L-444.4253299585708,80.86125890982892" style="fill:none;stroke:rgb(0,0,0);stroke-width:1;stroke-linecap:round">
    </path>
    <path d="M-26.507218748036944,73.33401296926795L-31.599369697623228,70.59428947830763L-22.63693760499995,81.02606614217062z" style="fill:rgb(167,41,160)">
    </path>
    <path d="M-121.9919165935681,79.08333822456707L-87.12500351782498,95.45093267476803" style="fill:none;stroke:rgb(109,213,75);stroke-width:5;stroke-linecap:round">
    </path>
    <path d="M-36.61270742559771,76.68682812300848L-34.60300961759641,83.18208109734415L-22.63693760499995,81.02606614217062z" style="fill:rgb(167,41,160)">
    </path>
    <path d="M-31.599369697623228,70.59428947830763L-36.61270742559771,76.68682812300848L-22.63693760499995,81.02606614217062z" style="fill:rgb(167,41,160)">
    </path>
    <path d="M-30.217071230838748,74.56487374397737L-35.31999171100343,71.82486661348044L-26.357889441145925,82.26844265915162z" style="fill:rgb(43,180,168)">
    </path>
    <path d="M-30.305659421339012,74.59426567513765L-35.40883720385638,71.85425181618976L-26.44674298330051,82.2981096796035z" style="fill:rgb(167,41,160)">
    </path>
    <path d="M-40.34015727315605,77.92352737946821L-38.32387002844364,84.42282652546167L-26.357889441145925,82.26844265915162z" style="fill:rgb(43,180,168)">
    </path>
    <path d="M-40.42916586166861,77.95305879095162L-38.41272116350835,84.45245452206515L-26.44674298330051,82.2981096796035z" style="fill:rgb(167,41,160)">
    </path>
    <path d="M-35.31999171100343,71.82486661348044L-40.34015727315605,77.92352737946821L-26.357889441145925,82.26844265915162z" style="fill:rgb(43,180,168)">
    </path>
    <path d="M-35.40883720385638,71.85425181618976L-40.42916586166861,77.95305879095162L-26.44674298330051,82.2981096796035z" style="fill:rgb(167,41,160)">
    </path>
    <path d="M-130.18923260026182,81.75434015553026L-95.3538367184573,98.18491996454478" style="fill:none;stroke:rgb(74,87,214);stroke-width:5;stroke-linecap:round">
    </path>
    <path d="M-36.00788200834809,76.48615818125448L-41.1276350047247,73.74571560614662L-32.1660759164147,84.20771916712016z" style="fill:rgb(109,213,75)">
    </path>
    <path d="M-131.2075289337784,82.0861404022079L-96.37607392822605,98.52455299276436" style="fill:none;stroke:rgb(214,94,68);stroke-width:5;stroke-linecap:round">
    </path>
    <path d="M-131.32844098377362,82.12553821470533L-96.49745429350912,98.56488099162169" style="fill:none;stroke:rgb(43,180,168);stroke-width:5;stroke-linecap:round">
    </path>
    <path d="M-36.52083976685568,76.65634812464354L-41.64208510656946,73.91586740609858L-32.68057580040911,84.37950386147034z" style="fill:rgb(109,213,75)">
    </path>
    <path d="M-36.594766308578905,76.68087559058428L-41.71622673950405,73.94038938063014L-32.75472463021592,84.4042611733008z" style="fill:rgb(43,180,168)">
    </path>
    <path d="M-46.1584669309745,79.85393543912052L-44.131877183158075,86.35954479166638L-32.1660759164147,84.20771916712016z" style="fill:rgb(109,213,75)">
    </path>
    <path d="M-46.673862379656256,80.0249341632442L-44.64635903080582,86.53110215470464L-32.68057580040911,84.37950386147034z" style="fill:rgb(109,213,75)">
    </path>
    <path d="M-46.748140261052214,80.049578197222L-44.720505232373874,86.55582669431371L-32.75472463021592,84.4042611733008z" style="fill:rgb(43,180,168)">
    </path>
    <path d="M-41.1276350047247,73.74571560614662L-46.1584669309745,79.85393543912052L-32.1660759164147,84.20771916712016z" style="fill:rgb(109,213,75)">
    </path>
    <path d="M-41.64208510656946,73.91586740609858L-46.673862379656256,80.0249341632442L-32.68057580040911,84.37950386147034z" style="fill:rgb(109,213,75)">
    </path>
    <path d="M-41.71622673950405,73.94038938063014L-46.748140261052214,80.049578197222L-32.75472463021592,84.4042611733008z" style="fill:rgb(43,180,168)">
    </path>
    <path d="M-43.196622510614674,78.87124997259231L-48.337308886981134,76.13027920859035L-39.37647219238425,86.61517494882949z" style="fill:rgb(214,94,68)">
    </path>
    <path d="M-53.3813966916563,82.25037059715417L-51.34198875502548,88.76380401701444L-39.37647219238425,86.61517494882949z" style="fill:rgb(214,94,68)">
    </path>
    <path d="M-140.92295536838148,85.25180130216168L-106.12938546038579,101.76504032699644" style="fill:none;stroke:rgb(109,213,75);stroke-width:5;stroke-linecap:round">
    </path>
    <path d="M-140.92295536838148,85.25180130216168L-106.12938546038576,101.76504032699644" style="fill:none;stroke:rgb(43,180,168);stroke-width:5;stroke-linecap:round">
    </path>
    <path d="M-140.92295536838148,85.25180130216168L-106.12938546038579,101.76504032699644" style="fill:none;stroke:rgb(74,87,214);stroke-width:5;stroke-linecap:round">
    </path>
    <path d="M-140.92295536838148,85.25180130216168L-106.12938546038576,101.76504032699644" style="fill:none;stroke:rgb(167,41,160);stroke-width:5;stroke-linecap:round">
    </path>
    <path d="M-48.337308886981134,76.13027920859035L-53.3813966916563,82.25037059715417L-39.37647219238425,86.61517494882949z" style="fill:rgb(214,94,68)">
    </path>
    <path d="M-155.57731809368107,90.0267582642146L-120.84187114697264,106.6531876362723" style="fill:none;stroke:rgb(214,94,68);stroke-width:5;stroke-linecap:round">
    </path>
    <path d="M-61.811722307666926,85.04739747810954L-67.00680785677113,82.30512268227166L-58.04808933999876,92.84938052303606z" style="fill:rgb(167,41,160)">
    </path>
    <path d="M-63.4594017102219,85.59406717867128L-68.65931568369983,82.85168138675695L-59.700801860403296,93.40119933582609z" style="fill:rgb(74,87,214)">
    </path>
    <path d="M-72.08529666906007,88.45598036816266L-70.01254899276151,94.9896253855965L-58.04808933999876,92.84938052303606z" style="fill:rgb(167,41,160)">
    </path>
    <path d="M-67.00680785677113,82.30512268227166L-72.08529666906007,88.45598036816266L-58.04808933999876,92.84938052303606z" style="fill:rgb(167,41,160)">
    </path>
    <path d="M-73.74085465964036,89.00526403922738L-71.665145742864,95.54069466415206L-59.700801860403296,93.40119933582609z" style="fill:rgb(74,87,214)">
    </path>
    <path d="M-68.65931568369983,82.85168138675695L-73.74085465964036,89.00526403922738L-59.700801860403296,93.40119933582609z" style="fill:rgb(74,87,214)">
    </path>
    <path d="M-67.07004131490801,86.79201094641486L-72.28054366134718,84.04938444138473L-63.322488178204246,94.61043241145964z" style="fill:rgb(214,94,68)">
    </path>
    <path d="M-77.36876958001307,90.2089394387671L-75.28656573144306,96.74828102805431L-63.322488178204246,94.61043241145964z" style="fill:rgb(214,94,68)">
    </path>
    <path d="M-72.28054366134718,84.04938444138473L-77.36876958001307,90.2089394387671L-63.322488178204246,94.61043241145964z" style="fill:rgb(214,94,68)">
    </path>
    <path d="M-81.97981675581443,91.73880002630784L-87.23415345625334,88.99521614257108L-78.2781329683647,99.6039240506444z" style="fill:rgb(109,213,75)">
    </path>
    <path d="M-180.2202787368492,98.05638593854164L-145.5852260555423,114.87403938731596" style="fill:none;stroke:rgb(214,94,68);stroke-width:5;stroke-linecap:round">
    </path>
    <path d="M-92.35003565599601,95.17944779560779L-90.24092695420224,101.73491134169502L-78.2781329683647,99.6039240506444z" style="fill:rgb(109,213,75)">
    </path>
    <path d="M-87.23415345625334,88.99521614257108L-92.35003565599601,95.17944779560779L-78.2781329683647,99.6039240506444z" style="fill:rgb(109,213,75)">
    </path>
    <path d="M-90.19096370019302,94.46310745795478L-95.46951708761293,91.71902150311017L-86.51471517254407,102.35400971723413z" style="fill:rgb(74,87,214)">
    </path>
    <path d="M-91.21100171967592,94.80153729922588L-96.4925672252968,92.05739022292147L-87.53792154226028,102.69564476701146z" style="fill:rgb(214,94,68)">
    </path>
    <path d="M-588.646896494547,124.67522741213739L-139.22149829031247,-11.858515175839592L-470.72211282348036,192.71309542249136z" style="fill:rgb(0,0,0); fill-opacity: 0.18">
    </path>
    <path d="M-91.33212092256024,94.84172242156849L-96.61404414219075,92.09756810603979L-87.65941708137346,102.73621051775454z" style="fill:rgb(43,180,168)">
    </path>
    <path d="M-100.60065993518043,97.91685308037094L-98.47667590705434,104.48117611168895L-86.51471517254407,102.35400971723413z" style="fill:rgb(74,87,214)">
    </path>
    <path d="M-95.46951708761293,91.71902150311017L-100.60065993518043,97.91685308037094L-86.51471517254407,102.35400971723413z" style="fill:rgb(74,87,214)">
    </path>
    <path d="M-101.6256073160899,98.2569117574076L-99.499772497793,104.82233441308101L-87.53792154226028,102.69564476701146z" style="fill:rgb(214,94,68)">
    </path>
    <path d="M-101.74730953307109,98.29729031309726L-99.62125490976344,104.86284352404084L-87.65941708137346,102.73621051775454z" style="fill:rgb(43,180,168)">
    </path>
    <path d="M-96.4925672252968,92.05739022292147L-101.6256073160899,98.2569117574076L-87.53792154226028,102.69564476701146z" style="fill:rgb(214,94,68)">
    </path>
    <path d="M-96.61404414219075,92.09756810603979L-101.74730953307109,98.29729031309726L-87.65941708137346,102.73621051775454z" style="fill:rgb(43,180,168)">
    </path>
    <path d="M-100.94330720515954,98.03053713819635L-106.25365365521378,95.28582077348648L-97.30055254183067,105.95525790685237z" style="fill:rgb(109,213,75)">
    </path>
    <path d="M-100.94330720515951,98.03053713819635L-106.25365365521377,95.28582077348648L-97.30055254183065,105.95525790685237z" style="fill:rgb(43,180,168)">
    </path>
    <path d="M-100.94330720515954,98.03053713819635L-106.25365365521378,95.28582077348648L-97.30055254183067,105.95525790685237z" style="fill:rgb(74,87,214)">
    </path>
    <path d="M-100.94330720515951,98.03053713819635L-106.25365365521377,95.28582077348648L-97.30055254183065,105.95525790685237z" style="fill:rgb(167,41,160)">
    </path>
    <path d="M-588.646896494547,124.67522741213739L-606.1000104050623,288.76717754847164" style="fill:none;stroke:rgb(0,0,0);stroke-width:1;stroke-linecap:round">
    </path>
    <path d="M-490.5342781141921,363.6800520165129L-606.1000104050623,288.76717754847164" style="fill:none;stroke:rgb(0,0,0);stroke-width:1;stroke-linecap:round">
    </path>
    <path d="M-606.1000104050623,288.76717754847164L-606.1000104050623,288.76717754847164" style="fill:none;stroke:rgb(0,0,0);stroke-width:1;stroke-linecap:round">
    </path>
    <path d="M-490.5342781141921,363.6800520165129L-606.1000104050623,288.76717754847164" style="fill:none;stroke:rgb(0,0,0);stroke-width:1;stroke-linecap:round">
    </path>
    <path d="M-490.5342781141921,363.6800520165129L-606.1000104050623,288.76717754847164" style="fill:none;stroke:rgb(0,0,0);stroke-width:1;stroke-linecap:round">
    </path>
    <path d="M-606.1000104050623,288.76717754847164L-648.8523680196821,142.9654228137446" style="fill:none;stroke:rgb(0,0,0);stroke-width:1;stroke-linecap:round">
    </path>
    <path d="M-490.5342781141921,363.6800520165129L-606.1000104050623,288.76717754847164" style="fill:none;stroke:rgb(0,0,0);stroke-width:1;stroke-linecap:round">
    </path>
    <path d="M-111.40481195153565,101.50147187116613L-109.26128642857113,108.07737557125246L-97.30055254183067,105.95525790685237z" style="fill:rgb(109,213,75)">
    </path>
    <path d="M-111.40481195153562,101.5014718711661L-109.26128642857113,108.07737557125245L-97.30055254183065,105.95525790685237z" style="fill:rgb(43,180,168)">
    </path>
    <path d="M-111.40481195153565,101.50147187116613L-109.26128642857113,108.07737557125246L-97.30055254183067,105.95525790685237z" style="fill:rgb(74,87,214)">
    </path>
    <path d="M-111.40481195153562,101.5014718711661L-109.26128642857113,108.07737557125245L-97.30055254183065,105.95525790685237z" style="fill:rgb(167,41,160)">
    </path>
    <path d="M-106.25365365521378,95.28582077348648L-111.40481195153565,101.50147187116613L-97.30055254183067,105.95525790685237z" style="fill:rgb(109,213,75)">
    </path>
    <path d="M-106.25365365521377,95.28582077348648L-111.40481195153562,101.5014718711661L-97.30055254183065,105.95525790685237z" style="fill:rgb(43,180,168)">
    </path>
    <path d="M-106.25365365521378,95.28582077348648L-111.40481195153565,101.50147187116613L-97.30055254183067,105.95525790685237z" style="fill:rgb(74,87,214)">
    </path>
    <path d="M-106.25365365521377,95.28582077348648L-111.40481195153562,101.5014718711661L-97.30055254183065,105.95525790685237z" style="fill:rgb(167,41,160)">
    </path>
    <path d="M-205.1410298972163,106.17652848471644L-170.610888821218,123.18868646441778" style="fill:none;stroke:rgb(214,94,68);stroke-width:5;stroke-linecap:round">
    </path>
    <path d="M-115.62402644412464,102.90132958601822L-120.97793129652737,100.15580201107936L-112.02734484263095,110.87233873204278z" style="fill:rgb(214,94,68)">
    </path>
    <path d="M-126.15647614304123,106.39580254851343L-123.98615511684814,112.98748008668915L-112.02734484263095,110.87233873204278z" style="fill:rgb(214,94,68)">
    </path>
    <path d="M-120.97793129652737,100.15580201107936L-126.15647614304123,106.39580254851343L-112.02734484263095,110.87233873204278z" style="fill:rgb(214,94,68)">
    </path>
    <path d="M-230.34429533613985,114.38872508650321L-195.92371862669523,131.59874330590762" style="fill:none;stroke:rgb(214,94,68);stroke-width:5;stroke-linecap:round">
    </path>
    <path d="M-444.4253299585708,80.86125890982892L-588.646896494547,124.67522741213739L-323.49106785029403,144.73953857778918z" style="fill:rgb(0,0,0); fill-opacity: 0.18">
    </path>
    <path d="M-444.4253299585708,80.86125890982892L-588.646896494547,124.67522741213739L-323.49106785029403,144.73953857778918z" style="fill:rgb(0,0,0); fill-opacity: 0.18">
    </path>
    <path d="M-140.31374072561928,111.09292237542311L-145.74129094896182,108.34615944829224L-136.7954347001981,119.14207576830272z" style="fill:rgb(214,94,68)">
    </path>
    <path d="M-150.966046060391,114.62716123197632L-148.75036281159507,121.24526836292652L-136.7954347001981,119.14207576830272z" style="fill:rgb(214,94,68)">
    </path>
    <path d="M-145.74129094896182,108.34615944829224L-150.966046060391,114.62716123197632L-136.7954347001981,119.14207576830272z" style="fill:rgb(214,94,68)">
    </path>
    <path d="M-470.72211282348036,192.71309542249136L-588.646896494547,124.67522741213739" style="fill:none;stroke:rgb(160,0,0);stroke-width:4;stroke-linecap:round">
    </path>
    <path d="M-470.72211282348036,192.71309542249136L-588.646896494547,124.67522741213739" style="fill:none;stroke:rgb(0,0,0);stroke-width:1;stroke-linecap:round">
    </path>
    <path d="M-470.72211282348036,192.71309542249136L-588.646896494547,124.67522741213739" style="fill:none;stroke:rgb(0,0,0);stroke-width:1;stroke-linecap:round">
    </path>
    <path d="M-470.72211282348036,192.71309542249136L-588.646896494547,124.67522741213739" style="fill:none;stroke:rgb(0,0,0);stroke-width:1;stroke-linecap:round">
    </path>
    <path d="M-470.72211282348036,192.71309542249136L-588.646896494547,124.67522741213739" style="fill:none;stroke:rgb(0,0,0);stroke-width:1;stroke-linecap:round">
    </path>
    <path d="M-470.72211282348036,192.71309542249136L-588.646896494547,124.67522741213739" style="fill:none;stroke:rgb(0,0,0);stroke-width:1;stroke-linecap:round">
    </path>
    <path d="M-588.646896494547,124.67522741213739L-588.646896494547,124.67522741213739" style="fill:none;stroke:rgb(0,0,0);stroke-width:1;stroke-linecap:round">
    </path>
    <path d="M-470.72211282348036,192.71309542249136L-588.646896494547,124.67522741213739" style="fill:none;stroke:rgb(0,0,0);stroke-width:1;stroke-linecap:round">
    </path>
    <path d="M-470.72211282348036,192.71309542249136L-588.646896494547,124.67522741213739" style="fill:none;stroke:rgb(160,0,0);stroke-width:4;stroke-linecap:round">
    </path>
    <path d="M-255.83490652742978,122.69455002454026L-221.52868681548205,140.10586161496525" style="fill:none;stroke:rgb(214,94,68);stroke-width:5;stroke-linecap:round">
    </path>
    <path d="M-165.2848752410101,119.37788521895229L-170.7874075631453,116.63003733737796L-161.84697477592746,127.50645307680621z" style="fill:rgb(214,94,68)">
    </path>
    <path d="M-176.05909378787175,122.95257263548895L-173.797150908096,129.59728493661086L-161.84697477592746,127.50645307680621z" style="fill:rgb(214,94,68)">
    </path>
    <path d="M-170.7874075631453,116.63003733737796L-176.05909378787175,122.95257263548895L-161.84697477592746,127.50645307680621z" style="fill:rgb(214,94,68)">
    </path>
    <path d="M-606.1000104050623,288.76717754847164L-606.1000104050623,288.76717754847164L-490.5342781141921,363.6800520165129z" style="fill:rgb(0,0,0); fill-opacity: 0.18">
    </path>
    <path d="M-281.6178057450593,131.09561368243553L-247.43088014683468,148.71173144105632" style="fill:none;stroke:rgb(214,94,68);stroke-width:5;stroke-linecap:round">
    </path>
    <path d="M-588.646896494547,124.67522741213739L-444.4253299585708,80.86125890982892L-470.72211282348036,192.71309542249136z" style="fill:rgb(0,0,0); fill-opacity: 0.18">
    </path>
    <path d="M-588.646896494547,124.67522741213739L-444.4253299585708,80.86125890982892L-470.72211282348036,192.71309542249136z" style="fill:rgb(0,0,0); fill-opacity: 0.18">
    </path>
    <path d="M-606.1000104050623,288.76717754847164L-588.646896494547,124.67522741213739L-490.5342781141921,363.6800520165129z" style="fill:rgb(0,0,0); fill-opacity: 0.18">
    </path>
    <path d="M-190.54226912842563,127.75782365357344L-196.1211518782881,125.00904665098622L-187.18685885095542,135.967104626234z" style="fill:rgb(214,94,68)">
    </path>
    <path d="M-201.44050583144332,131.3736580117936L-199.13138387966984,138.04515189843195L-187.18685885095542,135.967104626234z" style="fill:rgb(214,94,68)">
    </path>
    <path d="M-196.1211518782881,125.00904665098622L-201.44050583144332,131.3736580117936L-187.18685885095542,135.967104626234z" style="fill:rgb(214,94,68)">
    </path>
    <path d="M-470.72211282348036,192.71309542249136L-323.49106785029403,144.73953857778918L-444.4253299585708,80.86125890982892z" style="fill:rgb(0,0,0); fill-opacity: 0.18">
    </path>
    <path d="M-470.72211282348036,192.71309542249136L-323.49106785029403,144.73953857778918L-444.4253299585708,80.86125890982892z" style="fill:rgb(0,0,0); fill-opacity: 0.18">
    </path>
    <path d="M-307.6980492577047,139.59356358767076L-273.63550416470645,157.41808229924777" style="fill:none;stroke:rgb(214,94,68);stroke-width:5;stroke-linecap:round">
    </path>
    <path d="M-532.3086098496918,212.7803530887744L-648.8523680196821,142.9654228137446" style="fill:none;stroke:rgb(160,0,0);stroke-width:4;stroke-linecap:round">
    </path>
    <path d="M-216.09087311358667,136.23438023896364L-221.74750715006394,133.4848355760247L-212.82009401364698,144.5257022170493z" style="fill:rgb(214,94,68)">
    </path>
    <path d="M-227.11528165562413,139.8920760912034L-224.75803849648642,146.59052878520478L-212.82009401364698,144.5257022170493z" style="fill:rgb(214,94,68)">
    </path>
    <path d="M-221.74750715006394,133.4848355760247L-227.11528165562413,139.8920760912034L-212.82009401364698,144.5257022170493z" style="fill:rgb(214,94,68)">
    </path>
    <path d="M-323.49106785029403,144.73953857778918L-470.72211282348036,192.71309542249136" style="fill:none;stroke:rgb(38,46,1);stroke-width:5;stroke-linecap:round">
    </path>
    <path d="M-323.49106785029414,144.7395385777892L-289.50565648273243,162.69085836195492" style="fill:none;stroke:rgb(162,186,45);stroke-width:5;stroke-linecap:round">
    </path>
    <path d="M-470.72211282348036,192.71309542249136L-323.49106785029403,144.73953857778918" style="fill:none;stroke:rgb(9,54,24);stroke-width:5;stroke-linecap:round">
    </path>
    <path d="M-323.49106785029403,144.73953857778918L-289.5056564827323,162.69085836195487" style="fill:none;stroke:rgb(70,211,116);stroke-width:5;stroke-linecap:round">
    </path>
    <path d="M-323.49106785029403,144.73953857778918L-470.72211282348036,192.71309542249136" style="fill:none;stroke:rgb(1,31,51);stroke-width:5;stroke-linecap:round">
    </path>
    <path d="M-323.49106785029414,144.7395385777892L-289.50565648273243,162.69085836195492" style="fill:none;stroke:rgb(44,139,201);stroke-width:5;stroke-linecap:round">
    </path>
    <path d="M-470.72211282348036,192.71309542249136L-323.49106785029403,144.73953857778918" style="fill:none;stroke:rgb(23,4,51);stroke-width:5;stroke-linecap:round">
    </path>
    <path d="M-323.49106785029403,144.73953857778918L-289.5056564827323,162.69085836195487" style="fill:none;stroke:rgb(115,55,201);stroke-width:5;stroke-linecap:round">
    </path>
    <path d="M-588.646896494547,124.67522741213739L-588.646896494547,124.67522741213739L-470.72211282348036,192.71309542249136z" style="fill:rgb(0,0,0); fill-opacity: 0.18">
    </path>
    <path d="M-334.08081063445053,148.1900854887279L-300.14788668539586,166.22668432896128" style="fill:none;stroke:rgb(214,94,68);stroke-width:5;stroke-linecap:round">
    </path>
    <path d="M-490.5342781141921,363.6800520165129L-490.5342781141921,363.6800520165129L-606.1000104050623,288.76717754847164z" style="fill:rgb(0,0,0); fill-opacity: 0.18">
    </path>
    <path d="M-241.93575274488424,144.80923563084863L-247.67157241846442,142.05909059448555L-238.7518039579846,153.183956582786z" style="fill:rgb(214,94,68)">
    </path>
    <path d="M-253.08853696646202,148.50952417083147L-250.6822070848567,155.23511366670115L-238.7518039579846,153.183956582786z" style="fill:rgb(214,94,68)">
    </path>
    <path d="M-247.67157241846442,142.05909059448555L-253.08853696646202,148.50952417083147L-238.7518039579846,153.183956582786z" style="fill:rgb(214,94,68)">
    </path>
    <path d="M-345.8300539896388,152.01844243671408L-311.9560847922556,170.1498971043569" style="fill:none;stroke:rgb(162,186,45);stroke-width:5;stroke-linecap:round">
    </path>
    <path d="M-648.8523680196821,142.9654228137446L-606.1000104050623,288.76717754847164L-532.3086098496918,212.7803530887744z" style="fill:rgb(0,0,0); fill-opacity: 0.18">
    </path>
    <path d="M-348.23406768147436,152.80176288059002L-314.3722546078336,170.95265703455271" style="fill:none;stroke:rgb(44,139,201);stroke-width:5;stroke-linecap:round">
    </path>
    <path d="M-323.49106785029403,144.73953857778918L-470.72211282348036,192.71309542249136L-588.646896494547,124.67522741213739z" style="fill:rgb(0,0,0); fill-opacity: 0.18">
    </path>
    <path d="M-323.49106785029403,144.73953857778918L-470.72211282348036,192.71309542249136L-588.646896494547,124.67522741213739z" style="fill:rgb(0,0,0); fill-opacity: 0.18">
    </path>
    <path d="M-360.77138416619795,156.88690446991612L-326.97348140880115,175.1393494937937" style="fill:none;stroke:rgb(214,94,68);stroke-width:5;stroke-linecap:round">
    </path>
    <path d="M-362.4379501153864,157.42993597739064L-328.64860783587375,175.6959015891787" style="fill:none;stroke:rgb(162,186,45);stroke-width:5;stroke-linecap:round">
    </path>
    <path d="M-362.72840156823264,157.52457627072204L-328.9405527811985,175.79289878797616" style="fill:none;stroke:rgb(115,55,201);stroke-width:5;stroke-linecap:round">
    </path>
    <path d="M-268.08209174166024,153.48410969190078L-273.89856589020945,150.73353760216062L-264.9872323978517,161.94361853003267z" style="fill:rgb(214,94,68)">
    </path>
    <path d="M-279.36550710967157,157.22773924203042L-276.9091009007023,163.98064427055536L-264.9872323978517,161.94361853003267z" style="fill:rgb(214,94,68)">
    </path>
    <path d="M-371.7125805221785,160.4519685189302L-337.9711568520871,178.79327030442857" style="fill:none;stroke:rgb(70,211,116);stroke-width:5;stroke-linecap:round">
    </path>
    <path d="M-372.3247498556079,160.65143691447958L-338.5865056551429,178.99771676303519" style="fill:none;stroke:rgb(70,211,116);stroke-width:5;stroke-linecap:round">
    </path>
    <path d="M-273.89856589020945,150.73353760216062L-279.36550710967157,157.22773924203042L-264.9872323978517,161.94361853003267z" style="fill:rgb(214,94,68)">
    </path>
    <path d="M-376.50087924219577,162.01218104663448L-342.7843798152228,180.39243875069909" style="fill:none;stroke:rgb(44,139,201);stroke-width:5;stroke-linecap:round">
    </path>
    <path d="M-490.5342781141921,363.6800520165129L-470.72211282348036,192.71309542249136L-588.646896494547,124.67522741213739z" style="fill:rgb(0,0,0); fill-opacity: 0.18">
    </path>
    <path d="M-532.3086098496918,212.7803530887744L-490.5342781141921,363.6800520165129L-606.1000104050623,288.76717754847164z" style="fill:rgb(0,0,0); fill-opacity: 0.18">
    </path>
    <path d="M-283.9167974967138,158.73777362687247L-289.78238410419874,155.987031088756L-280.87650187479903,167.24883508198573z" style="fill:rgb(162,186,45)">
    </path>
    <path d="M-283.91679749671374,158.73777362687247L-289.7823841041987,155.987031088756L-280.876501874799,167.24883508198573z" style="fill:rgb(70,211,116)">
    </path>
    <path d="M-283.9167974967138,158.73777362687247L-289.78238410419874,155.987031088756L-280.87650187479903,167.24883508198573z" style="fill:rgb(44,139,201)">
    </path>
    <path d="M-283.91679749671374,158.73777362687247L-289.7823841041987,155.987031088756L-280.876501874799,167.24883508198573z" style="fill:rgb(115,55,201)">
    </path>
    <path d="M-295.27969622098414,162.50777429173374L-292.7927589092193,169.27715472238464L-280.87650187479903,167.24883508198573z" style="fill:rgb(162,186,45)">
    </path>
    <path d="M-295.279696220984,162.50777429173374L-292.79275890921923,169.27715472238455L-280.876501874799,167.24883508198573z" style="fill:rgb(70,211,116)">
    </path>
    <path d="M-295.27969622098414,162.50777429173374L-292.7927589092193,169.27715472238464L-280.87650187479903,167.24883508198573z" style="fill:rgb(44,139,201)">
    </path>
    <path d="M-295.279696220984,162.50777429173374L-292.79275890921923,169.27715472238455L-280.876501874799,167.24883508198573z" style="fill:rgb(115,55,201)">
    </path>
    <path d="M-387.7751884075325,165.6857861054489L-354.1178716584244,184.15793282411408" style="fill:none;stroke:rgb(214,94,68);stroke-width:5;stroke-linecap:round">
    </path>
    <path d="M-289.78238410419874,155.987031088756L-295.27969622098414,162.50777429173374L-280.87650187479903,167.24883508198573z" style="fill:rgb(162,186,45)">
    </path>
    <path d="M-289.7823841041987,155.987031088756L-295.279696220984,162.50777429173374L-280.876501874799,167.24883508198573z" style="fill:rgb(70,211,116)">
    </path>
    <path d="M-289.78238410419874,155.987031088756L-295.27969622098414,162.50777429173374L-280.87650187479903,167.24883508198573z" style="fill:rgb(44,139,201)">
    </path>
    <path d="M-289.7823841041987,155.987031088756L-295.279696220984,162.50777429173374L-280.876501874799,167.24883508198573z" style="fill:rgb(115,55,201)">
    </path>
    <path d="M-390.9194116403749,166.71029538622372L-357.2787244606763,185.20810982679626" style="fill:none;stroke:rgb(115,55,201);stroke-width:5;stroke-linecap:round">
    </path>
    <path d="M-392.4133853271238,167.19708967338502L-358.7806186925756,185.7071064209047" style="fill:none;stroke:rgb(162,186,45);stroke-width:5;stroke-linecap:round">
    </path>
    <path d="M-294.53519546034124,162.2607626417383L-300.4338284404278,159.50994306680488L-291.5317466019891,170.80648011870773z" style="fill:rgb(214,94,68)">
    </path>
    <path d="M-397.75304155540914,168.93695575696452L-364.1486841725601,187.4906184249928" style="fill:none;stroke:rgb(115,55,201);stroke-width:5;stroke-linecap:round">
    </path>
    <path d="M-305.9515505886796,166.0484991576151L-303.44405362189934,172.82889914680948L-291.5317466019891,170.80648011870773z" style="fill:rgb(214,94,68)">
    </path>
    <path d="M-470.72211282348036,192.71309542249136L-470.72211282348036,192.71309542249136L-588.646896494547,124.67522741213739z" style="fill:rgb(0,0,0); fill-opacity: 0.18">
    </path>
    <path d="M-300.4338284404278,159.50994306680488L-305.9515505886796,166.0484991576151L-291.5317466019891,170.80648011870773z" style="fill:rgb(214,94,68)">
    </path>
    <path d="M-482.71452010018476,360.86020106802096L-450.15827990291524,381.86400335648887" style="fill:none;stroke:rgb(109,213,75);stroke-width:5;stroke-linecap:round">
    </path>
    <path d="M-306.31689159953544,166.1697125809897L-312.25229719898965,163.41884253972586L-303.35456824818795,174.75396361876432z" style="fill:rgb(162,186,45)">
    </path>
    <path d="M-490.5342781141921,363.6800520165129L-470.72211282348036,192.71309542249136" style="fill:none;stroke:rgb(50,34,0);stroke-width:5;stroke-linecap:round">
    </path>
    <path d="M-490.5342781141918,363.6800520165128L-458.0227967187993,384.7548851548782" style="fill:none;stroke:rgb(197,147,42);stroke-width:5;stroke-linecap:round">
    </path>
    <path d="M-490.5342781141921,363.6800520165129L-490.5342781141921,363.6800520165129" style="fill:none;stroke:rgb(22,55,11);stroke-width:5;stroke-linecap:round">
    </path>
    <path d="M-532.3086098496918,212.7803530887744L-490.5342781141921,363.6800520165129" style="fill:none;stroke:rgb(0,44,41);stroke-width:5;stroke-linecap:round">
    </path>
    <path d="M-490.5342781141921,363.6800520165129L-458.02279671879967,384.75488515487825" style="fill:none;stroke:rgb(43,180,168);stroke-width:5;stroke-linecap:round">
    </path>
    <path d="M-308.7276310311626,166.96955155523221L-314.6705746697231,164.2186757265657L-305.7737540460902,175.56169770344968z" style="fill:rgb(44,139,201)">
    </path>
    <path d="M-317.79270673140604,169.97717683168918L-315.2623167209609,176.7697768711399L-303.35456824818795,174.75396361876432z" style="fill:rgb(162,186,45)">
    </path>
    <path d="M-312.25229719898965,163.41884253972586L-317.79270673140604,169.97717683168918L-303.35456824818795,174.75396361876432z" style="fill:rgb(162,186,45)">
    </path>
    <path d="M-320.2156317931459,170.781058773729L-317.6805469705436,177.57615168637307L-305.7737540460902,175.56169770344968z" style="fill:rgb(44,139,201)">
    </path>
    <path d="M-413.71195417968596,174.13698542529846L-380.1934384004934,192.82140506961585" style="fill:none;stroke:rgb(70,211,116);stroke-width:5;stroke-linecap:round">
    </path>
    <path d="M-314.6705746697231,164.2186757265657L-320.2156317931459,170.781058773729L-305.7737540460902,175.56169770344968z" style="fill:rgb(44,139,201)">
    </path>
    <path d="M-415.0977698440239,174.58853765439193L-381.58677425551053,193.28433370422644" style="fill:none;stroke:rgb(214,94,68);stroke-width:5;stroke-linecap:round">
    </path>
    <path d="M-416.84355508841026,175.15738186571608L-383.3420480960028,193.8675143633768" style="fill:none;stroke:rgb(44,139,201);stroke-width:5;stroke-linecap:round">
    </path>
    <path d="M-486.6131799865924,329.84335604989406L-453.96588957671435,350.54288543180706" style="fill:none;stroke:rgb(197,147,42);stroke-width:5;stroke-linecap:round">
    </path>
    <path d="M-321.3004944832915,171.14099624764106L-327.2828272385419,168.39011522737985L-318.39084105463104,179.77437588429717z" style="fill:rgb(214,94,68)">
    </path>
    <path d="M-322.9718451769436,171.69551964692351L-328.9594236017441,168.94464109484252L-320.0680923578319,180.33438787153398z" style="fill:rgb(162,186,45)">
    </path>
    <path d="M-323.2631319515665,171.79216323766923L-329.2516248328148,169.04128519159082L-320.3604080282777,180.4319882008313z" style="fill:rgb(115,55,201)">
    </path>
    <path d="M-332.8521527075441,174.9736238405161L-330.2925249644101,181.78169887373596L-318.39084105463104,179.77437588429717z" style="fill:rgb(214,94,68)">
    </path>
    <path d="M-327.2828272385419,168.39011522737985L-332.8521527075441,174.9736238405161L-318.39084105463104,179.77437588429717z" style="fill:rgb(214,94,68)">
    </path>
    <path d="M-334.53197886783875,175.5309592436413L-331.96908125110355,182.34075761768463L-320.0680923578319,180.33438787153398z" style="fill:rgb(162,186,45)">
    </path>
    <path d="M-334.82474308478567,175.6280930225581L-332.2612754116676,182.4381916863709L-320.3604080282777,180.4319882008313z" style="fill:rgb(115,55,201)">
    </path>
    <path d="M-328.9594236017441,168.94464109484252L-334.53197886783875,175.5309592436413L-320.0680923578319,180.33438787153398z" style="fill:rgb(162,186,45)">
    </path>
    <path d="M-329.2516248328148,169.04128519159082L-334.82474308478567,175.6280930225581L-320.3604080282777,180.4319882008313z" style="fill:rgb(115,55,201)">
    </path>
    <path d="M-498.71621408872306,334.12478149728304L-466.1388329058771,354.9326493501834" style="fill:none;stroke:rgb(43,180,168);stroke-width:5;stroke-linecap:round">
    </path>
    <path d="M-482.67157651418665,295.8297114083582L-449.8874959476857,316.1496896252149" style="fill:none;stroke:rgb(197,147,42);stroke-width:5;stroke-linecap:round">
    </path>
    <path d="M-332.2733584913197,174.78159057216325L-338.29017140786436,172.03073929642892L-329.40253773877214,183.45103550660073z" style="fill:rgb(70,211,116)">
    </path>
    <path d="M-332.8873174483263,174.9852908543077L-338.90606246883544,172.2344421866077L-330.01867600407803,183.65675590980337z" style="fill:rgb(70,211,116)">
    </path>
    <path d="M-343.8807173442213,178.63269860846518L-341.29959068803737,185.4520774866412L-329.40253773877214,183.45103550660073z" style="fill:rgb(70,211,116)">
    </path>
    <path d="M-344.4977968572161,178.8374342336533L-341.91546510059135,185.65744486872396L-330.01867600407803,183.65675590980337z" style="fill:rgb(70,211,116)">
    </path>
    <path d="M-338.29017140786436,172.03073929642892L-343.8807173442213,178.63269860846518L-329.40253773877214,183.45103550660073z" style="fill:rgb(70,211,116)">
    </path>
    <path d="M-338.90606246883544,172.2344421866077L-344.4977968572161,178.8374342336533L-330.01867600407803,183.65675590980337z" style="fill:rgb(70,211,116)">
    </path>
    <path d="M-337.075705687961,176.37492098578053L-343.1076394645638,173.62409277836832L-334.22194978971515,185.0601733351485z" style="fill:rgb(44,139,201)">
    </path>
    <path d="M-348.70748454620144,180.23413113040868L-346.11692550018597,187.0584495307147L-334.22194978971515,185.0601733351485z" style="fill:rgb(44,139,201)">
    </path>
    <path d="M-442.7448066901753,183.5970092981812L-409.3860435329688,202.5204972059744" style="fill:none;stroke:rgb(214,94,68);stroke-width:5;stroke-linecap:round">
    </path>
    <path d="M-343.1076394645638,173.62409277836832L-348.70748454620144,180.23413113040868L-334.22194978971515,185.0601733351485z" style="fill:rgb(44,139,201)">
    </path>
    <path d="M-443.9587317131835,183.99255292219812L-410.6067490038022,202.92607028789843" style="fill:none;stroke:rgb(70,211,116);stroke-width:5;stroke-linecap:round">
    </path>
    <path d="M-478.7093064265395,261.6377264259725L-445.7874446810392,281.57385441716644" style="fill:none;stroke:rgb(197,147,42);stroke-width:5;stroke-linecap:round">
    </path>
    <path d="M-447.1628604369138,185.03658172396072L-413.82881345853195,203.99658454566654" style="fill:none;stroke:rgb(115,55,201);stroke-width:5;stroke-linecap:round">
    </path>
    <path d="M-448.33244013965884,185.41767593112522L-415.00495416226477,204.38735121411082" style="fill:none;stroke:rgb(162,186,45);stroke-width:5;stroke-linecap:round">
    </path>
    <path d="M-348.38354833548715,180.12665505767404L-354.4511595035289,177.37590533608716L-345.5701412470636,188.84918410380618z" style="fill:rgb(214,94,68)">
    </path>
    <path d="M-360.0729293439498,184.00497653559003L-357.46010442735485,190.84090730665673L-345.5701412470636,188.84918410380618z" style="fill:rgb(214,94,68)">
    </path>
    <path d="M-351.53723757172537,181.17299110324566L-357.61481724324545,178.4222693214657L-348.73512534952494,189.90593036085764z" style="fill:rgb(115,55,201)">
    </path>
    <path d="M-354.4511595035289,177.37590533608716L-360.0729293439498,184.00497653559003L-345.5701412470636,188.84918410380618z" style="fill:rgb(214,94,68)">
    </path>
    <path d="M-353.03572645174074,181.6701621342502L-359.11804549646683,178.91945455304992L-350.2389874267343,190.40804998287302z" style="fill:rgb(162,186,45)">
    </path>
    <path d="M-456.7883419736389,188.17293510475633L-423.5085147328799,207.2126152522884" style="fill:none;stroke:rgb(44,139,201);stroke-width:5;stroke-linecap:round">
    </path>
    <path d="M-363.2427089107078,185.05665105668885L-360.6236601813913,191.89581582377625L-348.73512534952494,189.90593036085764z" style="fill:rgb(115,55,201)">
    </path>
    <path d="M-506.9832660150809,304.262050128985L-474.34038332165727,324.796192978423" style="fill:none;stroke:rgb(43,180,168);stroke-width:5;stroke-linecap:round">
    </path>
    <path d="M-357.61481724324545,178.4222693214657L-363.2427089107078,185.05665105668885L-348.73512534952494,189.90593036085764z" style="fill:rgb(115,55,201)">
    </path>
    <path d="M-474.7262067576244,227.26599480487968L-441.6655628035254,246.81392111991278" style="fill:none;stroke:rgb(197,147,42);stroke-width:5;stroke-linecap:round">
    </path>
    <path d="M-364.7488470681127,185.5563599771478L-362.12683892836895,192.39706068437863L-350.2389874267343,190.40804998287302z" style="fill:rgb(162,186,45)">
    </path>
    <path d="M-359.11804549646683,178.91945455304992L-364.7488470681127,185.5563599771478L-350.2389874267343,190.40804998287302z" style="fill:rgb(162,186,45)">
    </path>
    <path d="M-358.3916123745482,183.44714650944113L-364.49088557141613,180.69649455426364L-355.61411185269736,192.20273281047557z" style="fill:rgb(115,55,201)">
    </path>
    <path d="M-370.1320934478036,187.34242204836897L-367.49949654323774,194.18860877714124L-355.61411185269736,192.20273281047557z" style="fill:rgb(115,55,201)">
    </path>
    <path d="M-364.49088557141613,180.69649455426364L-370.1320934478036,187.34242204836897L-355.61411185269736,192.20273281047557z" style="fill:rgb(115,55,201)">
    </path>
    <path d="M-444.3082682749455,377.6183197889494L-450.571028274012,375.22269429795415L-441.8897869004995,387.1984581704967z" style="fill:rgb(109,213,75)">
    </path>
    <path d="M-456.27851092504187,382.0130536882306L-453.52303165932074,388.59273150264727L-441.8897869004995,387.1984581704967z" style="fill:rgb(109,213,75)">
    </path>
    <path d="M-450.571028274012,375.22269429795415L-456.27851092504187,382.0130536882306L-441.8897869004995,387.1984581704967z" style="fill:rgb(109,213,75)">
    </path>
    <path d="M-470.72211282348036,192.71309542249136L-437.52167549499586,211.86841547075426" style="fill:none;stroke:rgb(197,147,42);stroke-width:5;stroke-linecap:round">
    </path>
    <path d="M-470.72211282348024,192.7130954224913L-437.5216754949958,211.86841547075423" style="fill:none;stroke:rgb(214,94,68);stroke-width:5;stroke-linecap:round">
    </path>
    <path d="M-470.72211282348036,192.71309542249136L-437.52167549499586,211.86841547075426" style="fill:none;stroke:rgb(162,186,45);stroke-width:5;stroke-linecap:round">
    </path>
    <path d="M-470.72211282348024,192.7130954224913L-437.5216754949958,211.86841547075423" style="fill:none;stroke:rgb(70,211,116);stroke-width:5;stroke-linecap:round">
    </path>
    <path d="M-470.72211282348036,192.71309542249136L-437.52167549499586,211.86841547075426" style="fill:none;stroke:rgb(44,139,201);stroke-width:5;stroke-linecap:round">
    </path>
    <path d="M-470.72211282348024,192.7130954224913L-437.5216754949958,211.86841547075423" style="fill:none;stroke:rgb(115,55,201);stroke-width:5;stroke-linecap:round">
    </path>
    <path d="M-470.72211282348036,192.71309542249136L-470.72211282348036,192.71309542249136" style="fill:none;stroke:rgb(51,4,24);stroke-width:5;stroke-linecap:round">
    </path>
    <path d="M-470.72211282348036,192.71309542249136L-437.52167549499586,211.86841547075426" style="fill:none;stroke:rgb(200,54,116);stroke-width:5;stroke-linecap:round">
    </path>
    <path d="M-452.1549359851485,380.49913161460995L-458.44267165073234,378.1047987942916L-449.7654539941427,390.1075209813437z" style="fill:rgb(43,180,168)">
    </path>
    <path d="M-452.1549359851483,380.4991316146099L-458.44267165073194,378.10479879429147L-449.7654539941423,390.1075209813436z" style="fill:rgb(197,147,42)">
    </path>
    <path d="M-464.16535552030217,384.9086159850297L-461.39419840423,391.49526532566466L-449.7654539941423,390.1075209813436z" style="fill:rgb(197,147,42)">
    </path>
    <path d="M-464.1653555203025,384.90861598502977L-461.3941984042302,391.49526532566483L-449.7654539941427,390.1075209813437z" style="fill:rgb(43,180,168)">
    </path>
    <path d="M-458.44267165073194,378.10479879429147L-464.16535552030217,384.9086159850297L-449.7654539941423,390.1075209813436z" style="fill:rgb(197,147,42)">
    </path>
    <path d="M-458.44267165073234,378.1047987942916L-464.1653555203025,384.90861598502977L-449.7654539941427,390.1075209813437z" style="fill:rgb(43,180,168)">
    </path>
    <path d="M-374.39988678395684,188.75839732943194L-380.54997164409525,186.00795700912803L-371.68020212806516,197.56698748421715z" style="fill:rgb(70,211,116)">
    </path>
    <path d="M-375.79004933435004,189.2196276779919L-381.9445563939739,186.46920894498433L-373.0754076056015,198.0328281072577z" style="fill:rgb(214,94,68)">
    </path>
    <path d="M-386.222336628037,192.68086859790077L-383.5579858772512,199.54341788676712L-371.68020212806516,197.56698748421715z" style="fill:rgb(70,211,116)">
    </path>
    <path d="M-377.5413243382875,189.80066849243636L-383.70140452694903,187.0502776841993L-374.83304054716035,198.61967845851805z" style="fill:rgb(44,139,201)">
    </path>
    <path d="M-380.54997164409525,186.00795700912803L-386.222336628037,192.68086859790077L-371.68020212806516,197.56698748421715z" style="fill:rgb(70,211,116)">
    </path>
    <path d="M-387.61963085772777,193.14446510639465L-384.95251517241826,200.00843287155678L-373.0754076056015,198.0328281072577z" style="fill:rgb(214,94,68)">
    </path>
    <path d="M-515.3367690183682,274.087035094171L-482.6288066488843,294.3405235831503" style="fill:none;stroke:rgb(43,180,168);stroke-width:5;stroke-linecap:round">
    </path>
    <path d="M-381.9445563939739,186.46920894498433L-387.61963085772777,193.14446510639465L-373.0754076056015,198.0328281072577z" style="fill:rgb(214,94,68)">
    </path>
    <path d="M-389.37989315427603,193.72848773911798L-386.70929261906036,200.59424189002644L-374.83304054716035,198.61967845851805z" style="fill:rgb(44,139,201)">
    </path>
    <path d="M-383.70140452694903,187.0502776841993L-389.37989315427603,193.72848773911798L-374.83304054716035,198.61967845851805z" style="fill:rgb(44,139,201)">
    </path>
    <path d="M-448.08671167585806,346.3110250573402L-454.3835465789317,343.84715751319845L-445.6737092779635,355.80041913764194z" style="fill:rgb(197,147,42)">
    </path>
    <path d="M-460.11846305555906,350.6444546162753L-457.3456750732284,357.29667080783923L-445.6737092779635,355.80041913764194z" style="fill:rgb(197,147,42)">
    </path>
    <path d="M-454.3835465789317,343.84715751319845L-460.11846305555906,350.6444546162753L-445.6737092779635,355.80041913764194z" style="fill:rgb(197,147,42)">
    </path>
    <path d="M-460.2318991935019,350.68531047322404L-466.56758472585494,348.2231577927015L-457.86407072981433,360.21791635514325z" style="fill:rgb(43,180,168)">
    </path>
    <path d="M-443.9969631186676,311.9420353370894L-450.30290559217747,309.40792919467947L-441.56022415737027,321.3110355730392z" style="fill:rgb(197,147,42)">
    </path>
    <path d="M-472.3261351396859,355.041244857835L-469.52895145854745,361.7045129862196L-457.86407072981433,360.21791635514325z" style="fill:rgb(43,180,168)">
    </path>
    <path d="M-456.05010412352306,316.1985413216313L-453.27570689365245,322.9169278512057L-441.56022415737027,321.3110355730392z" style="fill:rgb(197,147,42)">
    </path>
    <path d="M-466.56758472585494,348.2231577927015L-472.3261351396859,355.041244857835L-457.86407072981433,360.21791635514325z" style="fill:rgb(43,180,168)">
    </path>
    <path d="M-450.30290559217747,309.40792919467947L-456.05010412352306,316.1985413216313L-441.56022415737027,321.3110355730392z" style="fill:rgb(197,147,42)">
    </path>
    <path d="M-523.7780862940762,243.59481217788235L-491.0054905065805,263.5605423820623" style="fill:none;stroke:rgb(43,180,168);stroke-width:5;stroke-linecap:round">
    </path>
    <path d="M-403.52582657834597,198.42184809618237L-409.76888703859635,195.67196723906136L-400.91253956174484,207.32727763666463z" style="fill:rgb(214,94,68)">
    </path>
    <path d="M-404.7437361859144,198.82592808859366L-410.99069927236746,196.07607552873608L-402.13493211412185,207.735418313696z" style="fill:rgb(70,211,116)">
    </path>
    <path d="M-415.49814614061825,202.3940433788255L-412.7756180432452,209.2862299053782L-400.91253956174484,207.32727763666463z" style="fill:rgb(214,94,68)">
    </path>
    <path d="M-439.88551903906085,277.39072311547426L-446.20057716405483,274.78566621387336L-437.42482490298914,286.6379136591892z" style="fill:rgb(197,147,42)">
    </path>
    <path d="M-409.76888703859635,195.67196723906136L-415.49814614061825,202.3940433788255L-400.91253956174484,207.32727763666463z" style="fill:rgb(214,94,68)">
    </path>
    <path d="M-416.7223432079379,202.80020943466295L-413.9973710659383,209.69363150334627L-402.13493211412185,207.735418313696z" style="fill:rgb(70,211,116)">
    </path>
    <path d="M-407.9584177640959,199.89250027067038L-414.21568757786184,197.1427242922141L-405.36145952903126,208.81271306734988z" style="fill:rgb(115,55,201)">
    </path>
    <path d="M-410.99069927236746,196.07607552873608L-416.7223432079379,202.80020943466295L-402.13493211412185,207.735418313696z" style="fill:rgb(70,211,116)">
    </path>
    <path d="M-409.13186237363993,200.28182759510656L-415.39289648366133,197.53208025409063L-406.5392329083911,209.20595599369676z" style="fill:rgb(162,186,45)">
    </path>
    <path d="M-451.9601074688531,281.56942611924035L-449.18412302441544,288.35459333080735L-437.42482490298914,286.6379136591892z" style="fill:rgb(197,147,42)">
    </path>
    <path d="M-446.20057716405483,274.78566621387336L-451.9601074688531,281.56942611924035L-437.42482490298914,286.6379136591892z" style="fill:rgb(197,147,42)">
    </path>
    <path d="M-419.9536285319102,203.87229043400444L-417.2222009423868,210.76897228044064L-405.36145952903126,208.81271306734988z" style="fill:rgb(115,55,201)">
    </path>
    <path d="M-414.21568757786184,197.1427242922141L-419.9536285319102,203.87229043400444L-405.36145952903126,208.81271306734988z" style="fill:rgb(115,55,201)">
    </path>
    <path d="M-421.13313682429316,204.2636295768056L-418.39935124368395,211.16150080698353L-406.5392329083911,209.20595599369676z" style="fill:rgb(162,186,45)">
    </path>
    <path d="M-415.39289648366133,197.53208025409063L-421.13313682429316,204.2636295768056L-406.5392329083911,209.20595599369676z" style="fill:rgb(162,186,45)">
    </path>
    <path d="M-417.615911826935,203.09667905649653L-423.9041948109589,200.34714963618342L-415.05465468856687,212.04914250020002z" style="fill:rgb(44,139,201)">
    </path>
    <path d="M-468.39387688736394,320.5576824467495L-474.77817633611136,318.02641000723065L-466.0482928824871,330.01236739529475z" style="fill:rgb(43,180,168)">
    </path>
    <path d="M-435.7522063405166,242.65563374253648L-442.0763879400642,239.97890551749524L-433.26733592945357,251.77958120624422z" style="fill:rgb(197,147,42)">
    </path>
    <path d="M-429.66107264111247,207.09304172589336L-426.9102135474022,213.99950393709068L-415.05465468856687,212.04914250020002z" style="fill:rgb(44,139,201)">
    </path>
    <path d="M-480.57303358770275,324.8586902388912L-477.74942705954936,331.5998311222835L-466.0482928824871,330.01236739529475z" style="fill:rgb(43,180,168)">
    </path>
    <path d="M-423.9041948109589,200.34714963618342L-429.66107264111247,207.09304172589336L-415.05465468856687,212.04914250020002z" style="fill:rgb(44,139,201)">
    </path>
    <path d="M-447.8483000096941,246.75564356255217L-445.0707508049171,253.60820875193642L-433.26733592945357,251.77958120624422z" style="fill:rgb(197,147,42)">
    </path>
    <path d="M-474.77817633611136,318.02641000723065L-480.57303358770275,324.8586902388912L-466.0482928824871,330.01236739529475z" style="fill:rgb(43,180,168)">
    </path>
    <path d="M-442.0763879400642,239.97890551749524L-447.8483000096941,246.75564356255217L-433.26733592945357,251.77958120624422z" style="fill:rgb(197,147,42)">
    </path>
    <path d="M-532.3086098496916,212.7803530887743L-499.4718522244995,232.4510414212803" style="fill:none;stroke:rgb(43,180,168);stroke-width:5;stroke-linecap:round">
    </path>
    <path d="M-431.59685008021484,207.73529705259543L-437.93016271320073,204.98616841774611L-429.08757977055507,216.73455025448928z" style="fill:rgb(197,147,42)">
    </path>
    <path d="M-431.5968500802147,207.73529705259543L-437.93016271320056,204.98616841774606L-429.08757977055484,216.73455025448922z" style="fill:rgb(214,94,68)">
    </path>
    <path d="M-431.59685008021484,207.73529705259543L-437.93016271320073,204.98616841774611L-429.08757977055507,216.73455025448928z" style="fill:rgb(162,186,45)">
    </path>
    <path d="M-431.5968500802147,207.73529705259543L-437.93016271320056,204.98616841774606L-429.08757977055484,216.73455025448922z" style="fill:rgb(70,211,116)">
    </path>
    <path d="M-431.59685008021484,207.73529705259543L-437.93016271320073,204.98616841774611L-429.08757977055507,216.73455025448928z" style="fill:rgb(44,139,201)">
    </path>
    <path d="M-431.5968500802147,207.73529705259543L-437.93016271320056,204.98616841774606L-429.08757977055484,216.73455025448922z" style="fill:rgb(115,55,201)">
    </path>
    <path d="M-431.59685008021484,207.73529705259543L-437.93016271320073,204.98616841774611L-429.08757977055507,216.73455025448928z" style="fill:rgb(200,54,116)">
    </path>
    <path d="M-443.71450681326246,211.75571253360067L-440.9354157307564,218.67630004497218L-429.08757977055507,216.73455025448928z" style="fill:rgb(197,147,42)">
    </path>
    <path d="M-443.71450681326235,211.75571253360064L-440.9354157307563,218.67630004497215L-429.08757977055484,216.73455025448922z" style="fill:rgb(214,94,68)">
    </path>
    <path d="M-443.71450681326246,211.75571253360067L-440.9354157307564,218.67630004497218L-429.08757977055507,216.73455025448928z" style="fill:rgb(162,186,45)">
    </path>
    <path d="M-443.71450681326235,211.75571253360064L-440.9354157307563,218.67630004497215L-429.08757977055484,216.73455025448922z" style="fill:rgb(70,211,116)">
    </path>
    <path d="M-443.71450681326246,211.75571253360067L-440.9354157307564,218.67630004497218L-429.08757977055507,216.73455025448928z" style="fill:rgb(44,139,201)">
    </path>
    <path d="M-443.71450681326235,211.75571253360064L-440.9354157307563,218.67630004497215L-429.08757977055484,216.73455025448922z" style="fill:rgb(115,55,201)">
    </path>
    <path d="M-443.71450681326246,211.75571253360067L-440.9354157307564,218.67630004497218L-429.08757977055507,216.73455025448928z" style="fill:rgb(200,54,116)">
    </path>
    <path d="M-437.93016271320073,204.98616841774611L-443.71450681326246,211.75571253360067L-429.08757977055507,216.73455025448928z" style="fill:rgb(197,147,42)">
    </path>
    <path d="M-437.93016271320056,204.98616841774606L-443.71450681326235,211.75571253360064L-429.08757977055484,216.73455025448922z" style="fill:rgb(214,94,68)">
    </path>
    <path d="M-437.93016271320073,204.98616841774611L-443.71450681326246,211.75571253360067L-429.08757977055507,216.73455025448928z" style="fill:rgb(162,186,45)">
    </path>
    <path d="M-437.93016271320056,204.98616841774606L-443.71450681326235,211.75571253360064L-429.08757977055484,216.73455025448922z" style="fill:rgb(70,211,116)">
    </path>
    <path d="M-437.93016271320073,204.98616841774611L-443.71450681326246,211.75571253360067L-429.08757977055507,216.73455025448928z" style="fill:rgb(44,139,201)">
    </path>
    <path d="M-437.93016271320056,204.98616841774606L-443.71450681326235,211.75571253360064L-429.08757977055484,216.73455025448922z" style="fill:rgb(115,55,201)">
    </path>
    <path d="M-437.93016271320073,204.98616841774611L-443.71450681326246,211.75571253360067L-429.08757977055507,216.73455025448928z" style="fill:rgb(200,54,116)">
    </path>
    <path d="M-476.6422184044086,290.11126683748904L-483.07580890621307,287.5095447398275L-474.31948498603566,299.48583800991355z" style="fill:rgb(43,180,168)">
    </path>
    <path d="M-488.90742128347136,294.35593657596917L-486.0569873772717,301.1762312517349L-474.31948498603566,299.48583800991355z" style="fill:rgb(43,180,168)">
    </path>
    <path d="M-483.07580890621307,287.5095447398275L-488.90742128347136,294.35593657596917L-474.31948498603566,299.48583800991355z" style="fill:rgb(43,180,168)">
    </path>
    <path d="M-484.9783017895119,259.34097698323853L-491.46187390108724,256.6674444889213L-482.67904072978894,268.63318450293764z" style="fill:rgb(43,180,168)">
    </path>
    <path d="M-497.33069787802316,263.52786133191626L-494.45302359609747,270.42861863732264L-482.67904072978894,268.63318450293764z" style="fill:rgb(43,180,168)">
    </path>
    <path d="M-491.46187390108724,256.6674444889213L-497.33069787802316,263.52786133191626L-482.67904072978894,268.63318450293764z" style="fill:rgb(43,180,168)">
    </path>
    <path d="M-493.4035345622695,228.24161742422066L-499.937792603766,225.49488208851847L-491.1283837414032,237.44915268477376z" style="fill:rgb(43,180,168)">
    </path>
    <path d="M-505.84429303789915,232.36923211679243L-502.93895669140363,239.3517894424644L-491.1283837414032,237.44915268477376z" style="fill:rgb(43,180,168)">
    </path>
    <path d="M-499.937792603766,225.49488208851847L-505.84429303789915,232.36923211679243L-491.1283837414032,237.44915268477376z" style="fill:rgb(43,180,168)">
    </path>
</svg>