<svg viewBox="-1163.5 -590 2327 1180" width="2327" height="1180" style="background-color: rgb(255, 255, 255);">
    <path d="M-139.22149829031247,-11.8585151758396L-139.22149829031247,-11.8585151758396" style="fill:none;stroke:rgb(0,0,0);stroke-width:1;stroke-linecap:round">
    </path>
    <path d="M-8.764780625953742,45.66831198465309L-139.22149829031247,-11.8585151758396" style="fill:none;stroke:rgb(160,0,0);stroke-width:4;stroke-linecap:round">
    </path>
    <path d="M-8.764780625953742,45.66831198465309L-139.22149829031247,-11.8585151758396" style="fill:none;stroke:rgb(0,0,0);stroke-width:1;stroke-linecap:round">
    </path>
    <path d="M-139.22149829031247,-11.8585151758396L-265.01485691291924,26.35703319788878" style="fill:none;stroke:rgb(0,0,0);stroke-width:1;stroke-linecap:round">
    </path>
    <path d="M-8.764780625953742,45.66831198465309L-139.22149829031247,-11.8585151758396" style="fill:none;stroke:rgb(0,0,0);stroke-width:1;stroke-linecap:round">
    </path>
    <path d="M-265.01485691291924,26.35703319788878L-139.22149829031247,-11.8585151758396" style="fill:none;stroke:rgb(0,0,0);stroke-width:1;stroke-linecap:round">
    </path>
    <path d="M-8.764780625953742,45.66831198465309L-139.22149829031247,-11.8585151758396" style="fill:none;stroke:rgb(0,0,0);stroke-width:1;stroke-linecap:round">
    </path>
    <path d="M-139.22149829031247,-11.8585151758396L-265.01485691291924,26.35703319788878" style="fill:none;stroke:rgb(0,0,0);stroke-width:1;stroke-linecap:round">
    </path>
    <path d="M-8.764780625953742,45.66831198465309L-139.22149829031247,-11.8585151758396" style="fill:none;stroke:rgb(0,0,0);stroke-width:1;stroke-linecap:round">
    </path>
    <path d="M-265.01485691291924,26.35703319788878L-139.22149829031247,-11.8585151758396" style="fill:none;stroke:rgb(0,0,0);stroke-width:1;stroke-linecap:round">
    </path>
    <path d="M-8.764780625953742,45.66831198465309L-139.22149829031247,-11.8585151758396" style="fill:none;stroke:rgb(0,0,0);stroke-width:1;stroke-linecap:round">
    </path>
    <path d="M-139.22149829031247,-11.8585151758396L-588.646896494547,124.67522741213739" style="fill:none;stroke:rgb(0,0,0);stroke-width:1;stroke-linecap:round">
    </path>
    <path d="M-8.764780625953742,45.66831198465309L-139.22149829031247,-11.8585151758396" style="fill:none;stroke:rgb(0,0,0);stroke-width:1;stroke-linecap:round">
    </path>
    <path d="M-139.22149829031247,-11.8585151758396L-139.22149829031247,-11.8585151758396L-8.764780625953742,45.66831198465309z" style="fill:rgb(0,0,0); fill-opacity: 0.18">
    </path>
    <path d="M-139.22149829031247,-11.8585151758396L-265.01485691291924,26.35703319788878L-8.764780625953742,45.66831198465309z" style="fill:rgb(0,0,0); fill-opacity: 0.18">
    </path>
    <path d="M-139.22149829031247,-11.8585151758396L-265.01485691291924,26.35703319788878L-8.764780625953742,45.66831198465309z" style="fill:rgb(0,0,0); fill-opacity: 0.18">
    </path>
    <path d="M-136.44637437819742,87.37641375499172L-265.01485691291924,26.35703319788878" style="fill:none;stroke:rgb(0,0,0);stroke-width:1;stroke-linecap:round">
    </path>
    <path d="M-136.44637437819742,87.37641375499172L-265.01485691291924,26.35703319788878" style="fill:none;stroke:rgb(0,0,0);stroke-width:1;stroke-linecap:round">
    </path>
    <path d="M-136.44637437819742,87.37641375499172L-265.01485691291924,26.35703319788878" style="fill:none;stroke:rgb(0,0,0);stroke-width:1;stroke-linecap:round">
    </path>
    <path d="M-136.44637437819742,87.37641375499172L-265.01485691291924,26.35703319788878" style="fill:none;stroke:rgb(0,0,0);stroke-width:1;stroke-linecap:round">
    </path>
    <path d="M-8.764780625953742,45.66831198465309L-8.764780625953742,45.66831198465309L-139.22149829031247,-11.8585151758396z" style="fill:rgb(0,0,0); fill-opacity: 0.18">
    </path>
    <path d="M-265.01485691291924,26.35703319788878L-139.22149829031247,-11.8585151758396L-136.44637437819742,87.37641375499172z" style="fill:rgb(0,0,0); fill-opacity: 0.18">
    </path>
    <path d="M-265.01485691291924,26.35703319788878L-139.22149829031247,-11.8585151758396L-136.44637437819742,87.37641375499172z" style="fill:rgb(0,0,0); fill-opacity: 0.18">
    </path>
    <path d="M-136.44637437819742,87.37641375499172L-8.764780625953742,45.66831198465309L-139.22149829031247,-11.8585151758396z" style="fill:rgb(0,0,0); fill-opacity: 0.18">
    </path>
    <path d="M-136.44637437819742,87.37641375499172L-8.764780625953742,45.66831198465309L-139.22149829031247,-11.8585151758396z" style="fill:rgb(0,0,0); fill-opacity: 0.18">
    </path>
    <path d="M-8.764780625953625,45.66831198465312L-8.764780625953625,45.66831198465312" style="fill:none;stroke:rgb(0,0,0);stroke-width:1;stroke-linecap:round">
    </path>
    <path d="M-105.07271436401642,102.26654282964624L-8.764780625953625,45.66831198465312" style="fill:none;stroke:rgb(160,0,0);stroke-width:4;stroke-linecap:round">
    </path>
    <path d="M-108.09015848647314,-56.08778665555343L-8.764780625953625,45.66831198465312" style="fill:none;stroke:rgb(0,0,0);stroke-width:1;stroke-linecap:round">
    </path>
    <path d="M-8.764780625953625,45.66831198465312L-136.4463743781973,87.37641375499177" style="fill:none;stroke:rgb(0,0,0);stroke-width:1;stroke-linecap:round">
    </path>
    <path d="M-108.09015848647314,-56.08778665555343L-8.764780625953625,45.66831198465312" style="fill:none;stroke:rgb(0,0,0);stroke-width:1;stroke-linecap:round">
    </path>
    <path d="M-136.4463743781973,87.37641375499177L-8.764780625953625,45.66831198465312" style="fill:none;stroke:rgb(0,0,0);stroke-width:1;stroke-linecap:round">
    </path>
    <path d="M22.431005702372705,-94.69614616578787L-8.764780625953625,45.66831198465312" style="fill:none;stroke:rgb(0,0,0);stroke-width:1;stroke-linecap:round">
    </path>
    <path d="M-8.764780625953625,45.66831198465312L-136.4463743781973,87.37641375499177" style="fill:none;stroke:rgb(0,0,0);stroke-width:1;stroke-linecap:round">
    </path>
    <path d="M22.431005702372705,-94.69614616578787L-8.764780625953625,45.66831198465312" style="fill:none;stroke:rgb(0,0,0);stroke-width:1;stroke-linecap:round">
    </path>
    <path d="M-136.4463743781973,87.37641375499177L-8.764780625953625,45.66831198465312" style="fill:none;stroke:rgb(0,0,0);stroke-width:1;stroke-linecap:round">
    </path>
    <path d="M22.431005702372705,-94.69614616578787L-8.764780625953625,45.66831198465312" style="fill:none;stroke:rgb(0,0,0);stroke-width:1;stroke-linecap:round">
    </path>
    <path d="M-8.764780625953625,45.66831198465312L-466.45385693829996,195.1757077886955" style="fill:none;stroke:rgb(0,0,0);stroke-width:1;stroke-linecap:round">
    </path>
    <path d="M22.431005702372705,-94.69614616578787L-8.764780625953625,45.66831198465312" style="fill:none;stroke:rgb(0,0,0);stroke-width:1;stroke-linecap:round">
    </path>
    <path d="M-8.764780625953742,45.66831198465309L-136.44637437819742,87.37641375499172L-265.01485691291924,26.35703319788878z" style="fill:rgb(0,0,0); fill-opacity: 0.18">
    </path>
    <path d="M-8.764780625953742,45.66831198465309L-136.44637437819742,87.37641375499172L-265.01485691291924,26.35703319788878z" style="fill:rgb(0,0,0); fill-opacity: 0.18">
    </path>
    <path d="M61.16229665351363,61.68663901301081L62.80268114895402,69.48651172431663L65.4748840257567,65.52872747799823z" style="fill:rgb(197,147,42)">
    </path>
    <path d="M62.80268114895402,69.48651172431663L68.13918607187004,71.8264521215417L65.4748840257567,65.52872747799823z" style="fill:rgb(197,147,42)">
    </path>
    <path d="M69.80422533464218,65.45626654726587L68.13918607187004,71.8264521215417L75.75061495688203,62.06353778018621z" style="fill:rgb(197,147,42)">
    </path>
    <path d="M65.48260229722518,59.183101980905334L61.16229665351363,61.68663901301081L65.4748840257567,65.52872747799823z" style="fill:rgb(197,147,42)">
    </path>
    <path d="M65.48260229722518,59.183101980905334L69.80422533464218,65.45626654726587L75.75061495688203,62.06353778018621z" style="fill:rgb(197,147,42)">
    </path>
    <path d="M23.85993058698224,79.56215331383565L65.47488402575672,65.52872747799823" style="fill:none;stroke:rgb(197,147,42);stroke-width:5;stroke-linecap:round">
    </path>
    <path d="M68.13918607187004,71.8264521215417L69.80422533464218,65.45626654726587L65.4748840257567,65.52872747799823z" style="fill:rgb(197,147,42)">
    </path>
    <path d="M69.80422533464218,65.45626654726587L65.48260229722518,59.183101980905334L65.4748840257567,65.52872747799823z" style="fill:rgb(197,147,42)">
    </path>
    <path d="M61.18383162747438,31.161927802632082L62.8301321824191,38.999431192007926L65.51203778068563,34.98253387071476z" style="fill:rgb(197,147,42)">
    </path>
    <path d="M62.8301321824191,38.999431192007926L68.18598537017958,41.29537727050009L65.51203778068563,34.98253387071476z" style="fill:rgb(197,147,42)">
    </path>
    <path d="M69.85711941874388,34.86010849748727L68.18598537017958,41.29537727050009L75.82474106268081,31.580284488441727z" style="fill:rgb(197,147,42)">
    </path>
    <path d="M65.51981199096232,28.59091793015748L61.18383162747438,31.161927802632082L65.51203778068563,34.98253387071476z" style="fill:rgb(197,147,42)">
    </path>
    <path d="M65.51981199096232,28.59091793015748L69.85711941874388,34.86010849748727L75.82474106268081,31.580284488441727z" style="fill:rgb(197,147,42)">
    </path>
    <path d="M23.745475954305117,48.76168132486131L65.51203778068566,34.982533870714775" style="fill:none;stroke:rgb(197,147,42);stroke-width:5;stroke-linecap:round">
    </path>
    <path d="M68.18598537017958,41.29537727050009L69.85711941874388,34.86010849748727L65.51203778068563,34.98253387071476z" style="fill:rgb(197,147,42)">
    </path>
    <path d="M69.85711941874388,34.86010849748727L65.51981199096232,28.59091793015748L65.51203778068563,34.98253387071476z" style="fill:rgb(197,147,42)">
    </path>
    <path d="M-8.764780625953625,45.66831198465312L-136.4463743781973,87.37641375499177L22.431005702372705,-94.69614616578787z" style="fill:rgb(0,0,0); fill-opacity: 0.18">
    </path>
    <path d="M-8.764780625953625,45.66831198465312L-136.4463743781973,87.37641375499177L22.431005702372705,-94.69614616578787z" style="fill:rgb(0,0,0); fill-opacity: 0.18">
    </path>
    <path d="M-8.764780625953625,45.66831198465312L-8.764780625953625,45.66831198465312L-108.09015848647314,-56.08778665555343z" style="fill:rgb(0,0,0); fill-opacity: 0.18">
    </path>
    <path d="M61.20552272104002,0.41592513109511153L62.85778216250483,8.291400812625374L65.54946119816616,4.214635498337756z" style="fill:rgb(197,147,42)">
    </path>
    <path d="M-466.4538569383001,195.17570778869543L-8.764780625953742,45.66831198465309L-139.22149829031247,-11.8585151758396z" style="fill:rgb(0,0,0); fill-opacity: 0.18">
    </path>
    <path d="M62.85778216250483,8.291400812625374L68.23312442402404,10.54265162462667L65.54946119816616,4.214635498337756z" style="fill:rgb(197,147,42)">
    </path>
    <path d="M69.91039803588767,4.041520398465983L68.23312442402404,10.54265162462667L75.89940384343431,0.8763316414557373z" style="fill:rgb(197,147,42)">
    </path>
    <path d="M65.55729195759383,-2.2234726828555975L61.20552272104002,0.41592513109511153L65.54946119816616,4.214635498337756z" style="fill:rgb(197,147,42)">
    </path>
    <path d="M65.55729195759383,-2.2234726828555975L69.91039803588767,4.041520398465983L75.89940384343431,0.8763316414557373z" style="fill:rgb(197,147,42)">
    </path>
    <path d="M23.630182268640173,17.735414822861646L65.54946119816616,4.214635498337764" style="fill:none;stroke:rgb(197,147,42);stroke-width:5;stroke-linecap:round">
    </path>
    <path d="M68.23312442402404,10.54265162462667L69.91039803588767,4.041520398465983L65.54946119816616,4.214635498337756z" style="fill:rgb(197,147,42)">
    </path>
    <path d="M69.91039803588767,4.041520398465983L65.55729195759383,-2.2234726828555975L65.54946119816616,4.214635498337756z" style="fill:rgb(197,147,42)">
    </path>
    <path d="M-588.646896494547,124.67522741213739L-444.4253299585708,80.86125890982892" style="fill:none;stroke:rgb(0,0,0);stroke-width:1;stroke-linecap:round">
    </path>
    <path d="M-319.12036415945846,147.04817326775824L-444.4253299585708,80.86125890982892" style="fill:none;stroke:rgb(0,0,0);stroke-width:1;stroke-linecap:round">
    </path>
    <path d="M-444.4253299585708,80.86125890982892L-588.646896494547,124.67522741213739" style="fill:none;stroke:rgb(0,0,0);stroke-width:1;stroke-linecap:round">
    </path>
    <path d="M-319.12036415945846,147.04817326775824L-444.4253299585708,80.86125890982892" style="fill:none;stroke:rgb(0,0,0);stroke-width:1;stroke-linecap:round">
    </path>
    <path d="M-588.646896494547,124.67522741213739L-444.4253299585708,80.86125890982892" style="fill:none;stroke:rgb(0,0,0);stroke-width:1;stroke-linecap:round">
    </path>
    <path d="M-319.12036415945846,147.04817326775824L-444.4253299585708,80.86125890982892" style="fill:none;stroke:rgb(0,0,0);stroke-width:1;stroke-linecap:round">
    </path>
    <path d="M-444.4253299585708,80.86125890982892L-588.646896494547,124.67522741213739" style="fill:none;stroke:rgb(0,0,0);stroke-width:1;stroke-linecap:round">
    </path>
    <path d="M-319.12036415945846,147.04817326775824L-444.4253299585708,80.86125890982892" style="fill:none;stroke:rgb(0,0,0);stroke-width:1;stroke-linecap:round">
    </path>
    <path d="M22.798837550585347,-205.98475362032283L23.85993058698224,79.56215331383565" style="fill:none;stroke:rgb(50,34,0);stroke-width:5;stroke-linecap:round">
    </path>
    <path d="M23.85993058698224,79.56215331383565L-105.07271436401642,102.26654282964624" style="fill:none;stroke:rgb(160,0,0);stroke-width:4;stroke-linecap:round">
    </path>
    <path d="M61.22737163809009,-30.553784162645254L62.88563325982369,-22.63999009306644L65.58715722471388,-26.777390135524538z" style="fill:rgb(197,147,42)">
    </path>
    <path d="M62.88563325982369,-22.63999009306644L68.28060694674005,-20.434147334420732L65.58715722471388,-26.777390135524538z" style="fill:rgb(197,147,42)">
    </path>
    <path d="M69.9640653946284,-27.001932154551426L68.28060694674005,-20.434147334420732L75.974609148629,-30.05072627463682z" style="fill:rgb(197,147,42)">
    </path>
    <path d="M65.59504515254692,-33.26249968124385L61.22737163809009,-30.553784162645254L65.58715722471388,-26.777390135524538z" style="fill:rgb(197,147,42)">
    </path>
    <path d="M65.59504515254692,-33.26249968124385L69.9640653946284,-27.001932154551426L75.974609148629,-30.05072627463682z" style="fill:rgb(197,147,42)">
    </path>
    <path d="M23.514040269550765,-13.519138234751782L65.58715722471388,-26.77739013552453" style="fill:none;stroke:rgb(197,147,42);stroke-width:5;stroke-linecap:round">
    </path>
    <path d="M68.28060694674005,-20.434147334420732L69.9640653946284,-27.001932154551426L65.58715722471388,-26.777390135524538z" style="fill:rgb(197,147,42)">
    </path>
    <path d="M69.9640653946284,-27.001932154551426L65.59504515254692,-33.26249968124385L65.58715722471388,-26.777390135524538z" style="fill:rgb(197,147,42)">
    </path>
    <path d="M61.24938010738929,-61.749650513179L62.913687676680084,-53.79718740134969L65.62512884992887,-57.99600094939388z" style="fill:rgb(197,147,42)">
    </path>
    <path d="M48.7167983605762,-212.96824242557568L22.431005702372705,-94.69614616578787" style="fill:none;stroke:rgb(0,0,0);stroke-width:1;stroke-linecap:round">
    </path>
    <path d="M48.7167983605762,-212.96824242557568L22.431005702372705,-94.69614616578787" style="fill:none;stroke:rgb(0,0,0);stroke-width:1;stroke-linecap:round">
    </path>
    <path d="M48.7167983605762,-212.96824242557568L22.431005702372705,-94.69614616578787" style="fill:none;stroke:rgb(0,0,0);stroke-width:1;stroke-linecap:round">
    </path>
    <path d="M48.7167983605762,-212.96824242557568L22.431005702372705,-94.69614616578787" style="fill:none;stroke:rgb(0,0,0);stroke-width:1;stroke-linecap:round">
    </path>
    <path d="M62.913687676680084,-53.79718740134969L68.32843670597502,-51.637477556414126L65.62512884992887,-57.99600094939388z" style="fill:rgb(197,147,42)">
    </path>
    <path d="M70.01812576516033,-58.27271922112968L68.32843670597502,-51.637477556414126L76.05036291306983,-61.20332985969179z" style="fill:rgb(197,147,42)">
    </path>
    <path d="M65.63307457449652,-64.52862844445845L61.24938010738929,-61.749650513179L65.62512884992887,-57.99600094939388z" style="fill:rgb(197,147,42)">
    </path>
    <path d="M65.63307457449652,-64.52862844445845L70.01812576516033,-58.27271922112968L76.05036291306983,-61.20332985969179z" style="fill:rgb(197,147,42)">
    </path>
    <path d="M23.39704055982331,-45.00450669812118L65.62512884992888,-57.996000949393874" style="fill:none;stroke:rgb(197,147,42);stroke-width:5;stroke-linecap:round">
    </path>
    <path d="M-108.09015848647314,-56.08778665555343L22.431005702372705,-94.69614616578787L-8.764780625953625,45.66831198465312z" style="fill:rgb(0,0,0); fill-opacity: 0.18">
    </path>
    <path d="M-108.09015848647314,-56.08778665555343L-136.4463743781973,87.37641375499177" style="fill:none;stroke:rgb(0,0,0);stroke-width:1;stroke-linecap:round">
    </path>
    <path d="M-108.09015848647314,-56.08778665555343L-136.4463743781973,87.37641375499177" style="fill:none;stroke:rgb(0,0,0);stroke-width:1;stroke-linecap:round">
    </path>
    <path d="M-108.09015848647314,-56.08778665555343L-136.4463743781973,87.37641375499177" style="fill:none;stroke:rgb(0,0,0);stroke-width:1;stroke-linecap:round">
    </path>
    <path d="M-108.09015848647314,-56.08778665555343L-136.4463743781973,87.37641375499177" style="fill:none;stroke:rgb(0,0,0);stroke-width:1;stroke-linecap:round">
    </path>
    <path d="M-136.4463743781973,87.37641375499177L-8.764780625953625,45.66831198465312L-108.09015848647314,-56.08778665555343z" style="fill:rgb(0,0,0); fill-opacity: 0.18">
    </path>
    <path d="M-136.4463743781973,87.37641375499177L-8.764780625953625,45.66831198465312L-108.09015848647314,-56.08778665555343z" style="fill:rgb(0,0,0); fill-opacity: 0.18">
    </path>
    <path d="M68.32843670597502,-51.637477556414126L70.01812576516033,-58.27271922112968L65.62512884992887,-57.99600094939388z" style="fill:rgb(197,147,42)">
    </path>
    <path d="M70.01812576516033,-58.27271922112968L65.63307457449652,-64.52862844445845L65.62512884992887,-57.99600094939388z" style="fill:rgb(197,147,42)">
    </path>
    <path d="M61.2715498830437,-93.17416027496552L62.94194764765083,-85.18267283027329L65.66337910728599,-89.44369093373253z" style="fill:rgb(197,147,42)">
    </path>
    <path d="M62.94194764765083,-85.18267283027329L68.37661752468362,-83.0698330727018L65.66337910728599,-89.44369093373253z" style="fill:rgb(197,147,42)">
    </path>
    <path d="M70.0725834804498,-89.77334717080353L68.37661752468362,-83.0698330727018L76.12667115844154,-92.58395544158692z" style="fill:rgb(197,147,42)">
    </path>
    <path d="M65.67138326615913,-96.02436056106309L61.2715498830437,-93.17416027496552L65.66337910728599,-89.44369093373253z" style="fill:rgb(197,147,42)">
    </path>
    <path d="M65.67138326615913,-96.02436056106309L70.0725834804498,-89.77334717080353L76.12667115844154,-92.58395544158692z" style="fill:rgb(197,147,42)">
    </path>
    <path d="M23.27917360293262,-76.72325690702209L65.663379107286,-89.44369093373253" style="fill:none;stroke:rgb(197,147,42);stroke-width:5;stroke-linecap:round">
    </path>
    <path d="M-108.09015848647314,-56.08778665555343L-105.07271436401642,102.26654282964624L-8.764780625953625,45.66831198465312z" style="fill:rgb(0,0,0); fill-opacity: 0.18">
    </path>
    <path d="M68.37661752468362,-83.0698330727018L70.0725834804498,-89.77334717080353L65.66337910728599,-89.44369093373253z" style="fill:rgb(197,147,42)">
    </path>
    <path d="M70.0725834804498,-89.77334717080353L65.67138326615913,-96.02436056106309L65.66337910728599,-89.44369093373253z" style="fill:rgb(197,147,42)">
    </path>
    <path d="M61.293882744966496,-124.829836382922L62.970415440178684,-116.79896459859663L65.70191107494276,-121.12299081511117z" style="fill:rgb(197,147,42)">
    </path>
    <path d="M62.970415440178684,-116.79896459859663L68.42515328214662,-114.73374466072325L65.70191107494276,-121.12299081511117z" style="fill:rgb(197,147,42)">
    </path>
    <path d="M70.12744293739271,-121.50635935273631L68.42515328214662,-114.73374466072325L76.2035399949044,-124.19511573240308z" style="fill:rgb(197,147,42)">
    </path>
    <path d="M65.70997431510447,-127.75223449593967L61.293882744966496,-124.829836382922L65.70191107494276,-121.12299081511117z" style="fill:rgb(197,147,42)">
    </path>
    <path d="M65.70997431510447,-127.75223449593967L70.12744293739271,-121.50635935273631L76.2035399949044,-124.19511573240308z" style="fill:rgb(197,147,42)">
    </path>
    <path d="M23.160429720450793,-108.67799338816711L65.70191107494279,-121.12299081511118" style="fill:none;stroke:rgb(197,147,42);stroke-width:5;stroke-linecap:round">
    </path>
    <path d="M68.42515328214662,-114.73374466072325L70.12744293739271,-121.50635935273631L65.70191107494276,-121.12299081511117z" style="fill:rgb(197,147,42)">
    </path>
    <path d="M70.12744293739271,-121.50635935273631L65.70997431510447,-127.75223449593967L65.70191107494276,-121.12299081511117z" style="fill:rgb(197,147,42)">
    </path>
    <path d="M22.431005702372705,-94.69614616578787L-108.09015848647314,-56.08778665555343L-136.4463743781973,87.37641375499177z" style="fill:rgb(0,0,0); fill-opacity: 0.18">
    </path>
    <path d="M22.431005702372705,-94.69614616578787L-108.09015848647314,-56.08778665555343L-136.4463743781973,87.37641375499177z" style="fill:rgb(0,0,0); fill-opacity: 0.18">
    </path>
    <path d="M-588.646896494547,124.67522741213739L-139.22149829031247,-11.8585151758396L-466.4538569383001,195.17570778869543z" style="fill:rgb(0,0,0); fill-opacity: 0.18">
    </path>
    <path d="M61.316380499354565,-156.7192390276437L62.99909335517854,-148.64861809932435L65.74072787656505,-153.03646873510561z" style="fill:rgb(197,147,42)">
    </path>
    <path d="M-108.09015848647314,-56.08778665555343L-108.09015848647314,-56.08778665555343L-8.764780625953625,45.66831198465312z" style="fill:rgb(0,0,0); fill-opacity: 0.18">
    </path>
    <path d="M62.99909335517854,-148.64861809932435L68.47404791501174,-146.6317805232645L65.74072787656505,-153.03646873510561z" style="fill:rgb(197,147,42)">
    </path>
    <path d="M70.18270859799824,-153.47433678025362L68.47404791501174,-146.6317805232645L76.28097562272494,-156.03936049912016z" style="fill:rgb(197,147,42)">
    </path>
    <path d="M65.74885085458499,-159.71482627230114L61.316380499354565,-156.7192390276437L65.74072787656505,-153.03646873510561z" style="fill:rgb(197,147,42)">
    </path>
    <path d="M-105.07271436401642,102.26654282964624L-108.09015848647314,-56.08778665555343" style="fill:none;stroke:rgb(0,0,0);stroke-width:1;stroke-linecap:round">
    </path>
    <path d="M65.74885085458499,-159.71482627230114L70.18270859799824,-153.47433678025362L76.28097562272494,-156.03936049912016z" style="fill:rgb(197,147,42)">
    </path>
    <path d="M23.040799089397908,-140.87135956813097L65.74072787656506,-153.03646873510561" style="fill:none;stroke:rgb(197,147,42);stroke-width:5;stroke-linecap:round">
    </path>
    <path d="M68.47404791501174,-146.6317805232645L70.18270859799824,-153.47433678025362L65.74072787656505,-153.03646873510561z" style="fill:rgb(197,147,42)">
    </path>
    <path d="M22.798837550585347,-205.98475362032283L23.85993058698224,79.56215331383565L-105.07271436401642,102.26654282964624z" style="fill:rgb(0,0,0); fill-opacity: 0.18">
    </path>
    <path d="M70.18270859799824,-153.47433678025362L65.74885085458499,-159.71482627230114L65.74072787656505,-153.03646873510561z" style="fill:rgb(197,147,42)">
    </path>
    <path d="M-588.646896494547,124.67522741213739L-606.1000104050623,288.76717754847164" style="fill:none;stroke:rgb(0,0,0);stroke-width:1;stroke-linecap:round">
    </path>
    <path d="M-486.3539847836226,366.38983270413365L-606.1000104050623,288.76717754847164" style="fill:none;stroke:rgb(0,0,0);stroke-width:1;stroke-linecap:round">
    </path>
    <path d="M-606.1000104050623,288.76717754847164L-606.1000104050623,288.76717754847164" style="fill:none;stroke:rgb(0,0,0);stroke-width:1;stroke-linecap:round">
    </path>
    <path d="M-486.3539847836226,366.38983270413365L-606.1000104050623,288.76717754847164" style="fill:none;stroke:rgb(0,0,0);stroke-width:1;stroke-linecap:round">
    </path>
    <path d="M-486.3539847836226,366.38983270413365L-606.1000104050623,288.76717754847164" style="fill:none;stroke:rgb(0,0,0);stroke-width:1;stroke-linecap:round">
    </path>
    <path d="M-606.1000104050623,288.76717754847164L-648.8523680196821,142.9654228137446" style="fill:none;stroke:rgb(0,0,0);stroke-width:1;stroke-linecap:round">
    </path>
    <path d="M-486.3539847836226,366.38983270413365L-606.1000104050623,288.76717754847164" style="fill:none;stroke:rgb(0,0,0);stroke-width:1;stroke-linecap:round">
    </path>
    <path d="M61.339044979175355,-188.84496634563632L63.02798372765752,-180.73422658821067L65.77983268217119,-185.186730944305z" style="fill:rgb(197,147,42)">
    </path>
    <path d="M63.02798372765752,-180.73422658821067L68.52330541835828,-178.76654698283673L65.77983268217119,-185.186730944305z" style="fill:rgb(197,147,42)">
    </path>
    <path d="M70.23838499059838,-185.6798988306395L68.52330541835828,-178.76654698283673L76.35898433394327,-188.1192772492045z" style="fill:rgb(197,147,42)">
    </path>
    <path d="M65.78801606438377,-191.9147501688971L61.339044979175355,-188.84496634563632L65.77983268217119,-185.186730944305z" style="fill:rgb(197,147,42)">
    </path>
    <path d="M65.78801606438377,-191.9147501688971L70.23838499059838,-185.6798988306395L76.35898433394327,-188.1192772492045z" style="fill:rgb(197,147,42)">
    </path>
    <path d="M22.920271739533217,-173.30603850230796L65.7798326821712,-185.186730944305" style="fill:none;stroke:rgb(197,147,42);stroke-width:5;stroke-linecap:round">
    </path>
    <path d="M68.52330541835828,-178.76654698283673L70.23838499059838,-185.6798988306395L65.77983268217119,-185.186730944305z" style="fill:rgb(197,147,42)">
    </path>
    <path d="M70.23838499059838,-185.6798988306395L65.78801606438377,-191.9147501688971L65.77983268217119,-185.186730944305z" style="fill:rgb(197,147,42)">
    </path>
    <path d="M22.431005702372705,-94.69614616578787L-108.09015848647314,-56.08778665555343L48.7167983605762,-212.96824242557568z" style="fill:rgb(0,0,0); fill-opacity: 0.18">
    </path>
    <path d="M22.431005702372705,-94.69614616578787L-108.09015848647314,-56.08778665555343L48.7167983605762,-212.96824242557568z" style="fill:rgb(0,0,0); fill-opacity: 0.18">
    </path>
    <path d="M61.361878044664735,-221.20965512495044L63.05708892734877,-213.05842188762261L65.81922870899521,-217.57642251182534z" style="fill:rgb(197,147,42)">
    </path>
    <path d="M63.05708892734877,-213.05842188762261L68.57292984678519,-211.14068919157228L65.81922870899521,-217.57642251182534z" style="fill:rgb(197,147,42)">
    </path>
    <path d="M70.29447671108491,-218.12570396059309L68.57292984678519,-211.14068919157228L76.43757251407737,-220.43749193147397z" style="fill:rgb(197,147,42)">
    </path>
    <path d="M65.82747317168177,-224.3546594328083L61.361878044664735,-221.20965512495044L65.81922870899521,-217.57642251182534z" style="fill:rgb(197,147,42)">
    </path>
    <path d="M65.82747317168177,-224.3546594328083L70.29447671108491,-218.12570396059309L76.43757251407737,-220.43749193147397z" style="fill:rgb(197,147,42)">
    </path>
    <path d="M22.798837550585347,-205.98475362032278L65.81922870899521,-217.57642251182534" style="fill:none;stroke:rgb(197,147,42);stroke-width:5;stroke-linecap:round">
    </path>
    <path d="M68.57292984678519,-211.14068919157228L70.29447671108491,-218.12570396059309L65.81922870899521,-217.57642251182534z" style="fill:rgb(197,147,42)">
    </path>
    <path d="M70.29447671108491,-218.12570396059309L65.82747317168177,-224.3546594328083L65.81922870899521,-217.57642251182534z" style="fill:rgb(197,147,42)">
    </path>
    <path d="M-444.4253299585708,80.86125890982892L-588.646896494547,124.67522741213739L-319.12036415945846,147.04817326775824z" style="fill:rgb(0,0,0); fill-opacity: 0.18">
    </path>
    <path d="M-444.4253299585708,80.86125890982892L-588.646896494547,124.67522741213739L-319.12036415945846,147.04817326775824z" style="fill:rgb(0,0,0); fill-opacity: 0.18">
    </path>
    <path d="M48.7167983605762,-212.96824242557568L22.798837550585347,-205.98475362032283" style="fill:none;stroke:rgb(22,55,11);stroke-width:5;stroke-linecap:round">
    </path>
    <path d="M48.7167983605762,-212.96824242557568L48.67614713886128,-267.6862627009774" style="fill:none;stroke:rgb(109,213,75);stroke-width:5;stroke-linecap:round">
    </path>
    <path d="M-84.15871695243256,-177.16547690388L48.7167983605762,-212.96824242557568" style="fill:none;stroke:rgb(0,44,41);stroke-width:5;stroke-linecap:round">
    </path>
    <path d="M48.7167983605762,-212.96824242557568L48.67614713886128,-267.6862627009774" style="fill:none;stroke:rgb(43,180,168);stroke-width:5;stroke-linecap:round">
    </path>
    <path d="M48.7167983605762,-212.96824242557568L-84.15871695243256,-177.16547690388" style="fill:none;stroke:rgb(10,15,55);stroke-width:5;stroke-linecap:round">
    </path>
    <path d="M48.716798360576234,-212.96824242557568L48.676147138861324,-267.6862627009774" style="fill:none;stroke:rgb(74,87,214);stroke-width:5;stroke-linecap:round">
    </path>
    <path d="M-429.571597940997,-84.09538526905017L48.7167983605762,-212.96824242557568" style="fill:none;stroke:rgb(40,0,38);stroke-width:5;stroke-linecap:round">
    </path>
    <path d="M48.7167983605762,-212.96824242557568L48.67614713886128,-267.6862627009774" style="fill:none;stroke:rgb(167,41,160);stroke-width:5;stroke-linecap:round">
    </path>
    <path d="M-108.09015848647314,-56.08778665555343L-105.07271436401642,102.26654282964624L22.798837550585347,-205.98475362032283z" style="fill:rgb(0,0,0); fill-opacity: 0.18">
    </path>
    <path d="M-466.4538569383001,195.17570778869543L-588.646896494547,124.67522741213739" style="fill:none;stroke:rgb(160,0,0);stroke-width:4;stroke-linecap:round">
    </path>
    <path d="M-466.4538569383001,195.17570778869543L-588.646896494547,124.67522741213739" style="fill:none;stroke:rgb(0,0,0);stroke-width:1;stroke-linecap:round">
    </path>
    <path d="M-466.4538569383001,195.17570778869543L-588.646896494547,124.67522741213739" style="fill:none;stroke:rgb(0,0,0);stroke-width:1;stroke-linecap:round">
    </path>
    <path d="M-466.4538569383001,195.17570778869543L-588.646896494547,124.67522741213739" style="fill:none;stroke:rgb(0,0,0);stroke-width:1;stroke-linecap:round">
    </path>
    <path d="M-466.4538569383001,195.17570778869543L-588.646896494547,124.67522741213739" style="fill:none;stroke:rgb(0,0,0);stroke-width:1;stroke-linecap:round">
    </path>
    <path d="M-466.4538569383001,195.17570778869543L-588.646896494547,124.67522741213739" style="fill:none;stroke:rgb(0,0,0);stroke-width:1;stroke-linecap:round">
    </path>
    <path d="M-588.646896494547,124.67522741213739L-588.646896494547,124.67522741213739" style="fill:none;stroke:rgb(0,0,0);stroke-width:1;stroke-linecap:round">
    </path>
    <path d="M-466.4538569383001,195.17570778869543L-588.646896494547,124.67522741213739" style="fill:none;stroke:rgb(0,0,0);stroke-width:1;stroke-linecap:round">
    </path>
    <path d="M-466.4538569383001,195.17570778869543L-588.646896494547,124.67522741213739" style="fill:none;stroke:rgb(160,0,0);stroke-width:4;stroke-linecap:round">
    </path>
    <path d="M-84.15871695243256,-177.16547690388L48.7167983605762,-212.96824242557568L22.431005702372705,-94.69614616578787z" style="fill:rgb(0,0,0); fill-opacity: 0.18">
    </path>
    <path d="M-446.4901755107746,44.0114546953769L22.431005702372705,-94.69614616578787L-8.764780625953625,45.66831198465312z" style="fill:rgb(0,0,0); fill-opacity: 0.18">
    </path>
    <path d="M48.7167983605762,-212.96824242557568L22.798837550585347,-205.98475362032283L-108.09015848647314,-56.08778665555343z" style="fill:rgb(0,0,0); fill-opacity: 0.18">
    </path>
    <path d="M-108.09015848647314,-56.08778665555343L22.431005702372705,-94.69614616578787L-84.15871695243256,-177.16547690388z" style="fill:rgb(0,0,0); fill-opacity: 0.18">
    </path>
    <path d="M-606.1000104050623,288.76717754847164L-606.1000104050623,288.76717754847164L-486.3539847836226,366.38983270413365z" style="fill:rgb(0,0,0); fill-opacity: 0.18">
    </path>
    <path d="M24.729670711846254,-206.50500873859121L24.53750836854376,-261.4973057434343" style="fill:none;stroke:rgb(167,41,160);stroke-width:5;stroke-linecap:round">
    </path>
    <path d="M23.99935828148943,-206.30822903361658L23.802555858522922,-261.3088697055269" style="fill:none;stroke:rgb(74,87,214);stroke-width:5;stroke-linecap:round">
    </path>
    <path d="M22.798837550585347,-205.98475362032283L-108.09015848647314,-56.08778665555343" style="fill:none;stroke:rgb(0,0,0);stroke-width:1;stroke-linecap:round">
    </path>
    <path d="M22.798837550585347,-205.98475362032283L22.594404064947895,-260.99910909641545" style="fill:none;stroke:rgb(109,213,75);stroke-width:5;stroke-linecap:round">
    </path>
    <path d="M22.798837550585347,-205.98475362032283L-108.09015848647314,-56.08778665555343" style="fill:none;stroke:rgb(0,0,0);stroke-width:1;stroke-linecap:round">
    </path>
    <path d="M19.68028215255668,-205.144471590793L19.456005418507438,-260.19444838943656" style="fill:none;stroke:rgb(43,180,168);stroke-width:5;stroke-linecap:round">
    </path>
    <path d="M-84.15871695243256,-177.16547690388L-108.09015848647314,-56.08778665555343" style="fill:none;stroke:rgb(0,0,0);stroke-width:1;stroke-linecap:round">
    </path>
    <path d="M-84.15871695243256,-177.16547690388L-108.09015848647314,-56.08778665555343" style="fill:none;stroke:rgb(0,0,0);stroke-width:1;stroke-linecap:round">
    </path>
    <path d="M49.32002298826553,-265.602455426581L55.67026390088521,-267.23401399285524L48.665904551130104,-281.473157645406z" style="fill:rgb(109,213,75)">
    </path>
    <path d="M49.32002298826553,-265.602455426581L55.67026390088521,-267.23401399285524L48.665904551130104,-281.473157645406z" style="fill:rgb(43,180,168)">
    </path>
    <path d="M49.32002298826553,-265.602455426581L55.67026390088524,-267.2340139928553L48.66590455113015,-281.473157645406z" style="fill:rgb(74,87,214)">
    </path>
    <path d="M49.32002298826553,-265.602455426581L55.67026390088521,-267.23401399285524L48.665904551130104,-281.473157645406z" style="fill:rgb(167,41,160)">
    </path>
    <path d="M42.07751737134221,-266.8523651662721L49.32002298826553,-265.602455426581L48.665904551130104,-281.473157645406z" style="fill:rgb(109,213,75)">
    </path>
    <path d="M42.07751737134221,-266.8523651662721L49.32002298826553,-265.602455426581L48.665904551130104,-281.473157645406z" style="fill:rgb(43,180,168)">
    </path>
    <path d="M42.07751737134225,-266.8523651662721L49.32002298826553,-265.602455426581L48.66590455113015,-281.473157645406z" style="fill:rgb(74,87,214)">
    </path>
    <path d="M42.07751737134221,-266.8523651662721L49.32002298826553,-265.602455426581L48.665904551130104,-281.473157645406z" style="fill:rgb(167,41,160)">
    </path>
    <path d="M-588.646896494547,124.67522741213739L-444.4253299585708,80.86125890982892L-466.4538569383001,195.17570778869543z" style="fill:rgb(0,0,0); fill-opacity: 0.18">
    </path>
    <path d="M-588.646896494547,124.67522741213739L-444.4253299585708,80.86125890982892L-466.4538569383001,195.17570778869543z" style="fill:rgb(0,0,0); fill-opacity: 0.18">
    </path>
    <path d="M-606.1000104050623,288.76717754847164L-588.646896494547,124.67522741213739L-486.3539847836226,366.38983270413365z" style="fill:rgb(0,0,0); fill-opacity: 0.18">
    </path>
    <path d="M1.2065269747169562,-200.16679362371718L0.8641020112309881,-255.4276307142028" style="fill:none;stroke:rgb(43,180,168);stroke-width:5;stroke-linecap:round">
    </path>
    <path d="M0.4664840011364145,-199.96739206356767L0.11930471570282337,-255.236670550791" style="fill:none;stroke:rgb(167,41,160);stroke-width:5;stroke-linecap:round">
    </path>
    <path d="M48.7167983605762,-212.96824242557568L-84.15871695243256,-177.16547690388L-108.09015848647314,-56.08778665555343z" style="fill:rgb(0,0,0); fill-opacity: 0.18">
    </path>
    <path d="M-6.726873763299133,-198.0291711599868L-7.120351865835958,-253.38047959500136" style="fill:none;stroke:rgb(74,87,214);stroke-width:5;stroke-linecap:round">
    </path>
    <path d="M25.13671753890661,-259.3890723896763L31.560382945675663,-261.03949580911956L24.489088469091424,-275.35393054237244z" style="fill:rgb(167,41,160)">
    </path>
    <path d="M17.882527340442373,-260.6539035050389L25.13671753890661,-259.3890723896763L24.489088469091424,-275.35393054237244z" style="fill:rgb(167,41,160)">
    </path>
    <path d="M24.40039635081991,-259.1998904108376L30.82630396054981,-260.8508899163693L23.752966712179756,-275.1676158435824z" style="fill:rgb(74,87,214)">
    </path>
    <path d="M17.145855795749,-260.4651772306791L24.40039635081991,-259.1998904108376L23.752966712179756,-275.1676158435824z" style="fill:rgb(74,87,214)">
    </path>
    <path d="M23.189993537667636,-258.88890329938533L29.61958784539713,-260.5408500231069L22.54289197137712,-274.86134217522635z" style="fill:rgb(109,213,75)">
    </path>
    <path d="M15.934877742999712,-260.1549394077672L23.189993537667636,-258.88890329938533L22.54289197137712,-274.86134217522635z" style="fill:rgb(109,213,75)">
    </path>
    <path d="M-466.4538569383001,195.17570778869543L-319.12036415945846,147.04817326775824L-444.4253299585708,80.86125890982892z" style="fill:rgb(0,0,0); fill-opacity: 0.18">
    </path>
    <path d="M-466.4538569383001,195.17570778869543L-319.12036415945846,147.04817326775824L-444.4253299585708,80.86125890982892z" style="fill:rgb(0,0,0); fill-opacity: 0.18">
    </path>
    <path d="M-10.675290275075934,-196.96528643886165L-11.094247911096058,-252.3616039321322" style="fill:none;stroke:rgb(74,87,214);stroke-width:5;stroke-linecap:round">
    </path>
    <path d="M-528.0877276725039,215.3088505349411L-648.8523680196821,142.9654228137446" style="fill:none;stroke:rgb(160,0,0);stroke-width:4;stroke-linecap:round">
    </path>
    <path d="M20.04574095374926,-258.08105485577323L26.484917096887393,-259.73546342714064L19.399492995699614,-274.06573814935535z" style="fill:rgb(43,180,168)">
    </path>
    <path d="M12.789134901052833,-259.34903841847137L20.04574095374926,-258.08105485577323L19.399492995699614,-274.06573814935535z" style="fill:rgb(43,180,168)">
    </path>
    <path d="M-24.077554946875434,-193.35410089896885L-24.58334883516828,-248.90310464352717" style="fill:none;stroke:rgb(167,41,160);stroke-width:5;stroke-linecap:round">
    </path>
    <path d="M-588.646896494547,124.67522741213739L-588.646896494547,124.67522741213739L-466.4538569383001,195.17570778869543z" style="fill:rgb(0,0,0); fill-opacity: 0.18">
    </path>
    <path d="M-466.45385693829996,195.1757077886955L-319.12036415945835,147.0481732677583" style="fill:none;stroke:rgb(0,0,0);stroke-width:1;stroke-linecap:round">
    </path>
    <path d="M-295.2217010327874,-0.733990853674928L-319.12036415945835,147.0481732677583" style="fill:none;stroke:rgb(0,0,0);stroke-width:1;stroke-linecap:round">
    </path>
    <path d="M-319.12036415945835,147.0481732677583L-466.45385693829996,195.1757077886955" style="fill:none;stroke:rgb(0,0,0);stroke-width:1;stroke-linecap:round">
    </path>
    <path d="M-295.2217010327874,-0.733990853674928L-319.12036415945835,147.0481732677583" style="fill:none;stroke:rgb(0,0,0);stroke-width:1;stroke-linecap:round">
    </path>
    <path d="M-466.45385693829996,195.1757077886955L-319.12036415945835,147.0481732677583" style="fill:none;stroke:rgb(0,0,0);stroke-width:1;stroke-linecap:round">
    </path>
    <path d="M-295.2217010327874,-0.733990853674928L-319.12036415945835,147.0481732677583" style="fill:none;stroke:rgb(0,0,0);stroke-width:1;stroke-linecap:round">
    </path>
    <path d="M-319.12036415945835,147.0481732677583L-466.45385693829996,195.1757077886955" style="fill:none;stroke:rgb(0,0,0);stroke-width:1;stroke-linecap:round">
    </path>
    <path d="M-295.2217010327874,-0.733990853674928L-319.12036415945835,147.0481732677583" style="fill:none;stroke:rgb(0,0,0);stroke-width:1;stroke-linecap:round">
    </path>
    <path d="M1.4189663701679855,-253.29530356663585L7.915052082209258,-254.96433383439634L0.7778160491540147,-269.35253398348954z" style="fill:rgb(43,180,168)">
    </path>
    <path d="M-5.846348519994037,-254.57485461527958L1.4189663701679855,-253.29530356663585L0.7778160491540147,-269.35253398348954z" style="fill:rgb(43,180,168)">
    </path>
    <path d="M0.6727652662252934,-253.10358315475648L7.171136021915924,-254.7732005156039L0.03182061446491979,-269.16372022624375z" style="fill:rgb(167,41,160)">
    </path>
    <path d="M-6.592894243891967,-254.38359869651174L0.6727652662252934,-253.10358315475648L0.03182061446491979,-269.16372022624375z" style="fill:rgb(167,41,160)">
    </path>
    <path d="M-6.58056428889583,-251.23999527950744L-0.05996122487826886,-252.9153247564144L-7.219503927343791,-267.3283875042443z" style="fill:rgb(74,87,214)">
    </path>
    <path d="M-13.84955651652323,-252.52453023531467L-6.58056428889583,-251.23999527950744L-7.219503927343791,-267.3283875042443z" style="fill:rgb(74,87,214)">
    </path>
    <path d="M-486.3539847836226,366.38983270413365L-486.3539847836226,366.38983270413365L-606.1000104050623,288.76717754847164z" style="fill:rgb(0,0,0); fill-opacity: 0.18">
    </path>
    <path d="M-43.43732515747431,-188.137689795906L-44.06951020757272,-243.90700626577419" style="fill:none;stroke:rgb(74,87,214);stroke-width:5;stroke-linecap:round">
    </path>
    <path d="M-10.56198674256921,-250.21705394552774L-4.029164035703959,-251.8955229982775L-11.199821309423713,-266.3209568351087z" style="fill:rgb(74,87,214)">
    </path>
    <path d="M-17.83279514380537,-251.50407302961963L-10.56198674256921,-250.21705394552774L-11.199821309423713,-266.3209568351087z" style="fill:rgb(74,87,214)">
    </path>
    <path d="M-45.15127803374603,-187.67587218564245L-45.79470708670775,-243.46467936698554" style="fill:none;stroke:rgb(43,180,168);stroke-width:5;stroke-linecap:round">
    </path>
    <path d="M-648.8523680196821,142.9654228137446L-606.1000104050623,288.76717754847164L-528.0877276725039,215.3088505349411z" style="fill:rgb(0,0,0); fill-opacity: 0.18">
    </path>
    <path d="M-48.90735091778978,-186.66381367032426L-49.575451778352125,-242.49532619066557" style="fill:none;stroke:rgb(167,41,160);stroke-width:5;stroke-linecap:round">
    </path>
    <path d="M-319.12036415945846,147.04817326775824L-466.4538569383001,195.17570778869543L-588.646896494547,124.67522741213739z" style="fill:rgb(0,0,0); fill-opacity: 0.18">
    </path>
    <path d="M-319.12036415945846,147.04817326775824L-466.4538569383001,195.17570778869543L-588.646896494547,124.67522741213739z" style="fill:rgb(0,0,0); fill-opacity: 0.18">
    </path>
    <path d="M-24.07674769441372,-246.74472520941453L-17.50236076900501,-248.43387329903044L-24.71080735433037,-262.90128438054904z" style="fill:rgb(167,41,160)">
    </path>
    <path d="M-31.353651305638508,-248.0401944151156L-24.07674769441372,-246.74472520941453L-24.71080735433037,-262.90128438054904z" style="fill:rgb(167,41,160)">
    </path>
    <path d="M-466.45385693829996,195.1757077886955L-8.764780625953625,45.66831198465312L-446.4901755107746,44.0114546953769z" style="fill:rgb(0,0,0); fill-opacity: 0.18">
    </path>
    <path d="M-72.96623878194364,-180.18124448604704L-73.7933783531644,-236.28604046421614" style="fill:none;stroke:rgb(43,180,168);stroke-width:5;stroke-linecap:round">
    </path>
    <path d="M-74.02792357509867,-179.89517784978423L-74.86212146013669,-236.0120231449025" style="fill:none;stroke:rgb(167,41,160);stroke-width:5;stroke-linecap:round">
    </path>
    <path d="M-43.600283190250856,-241.72857038623434L-36.96561987752094,-243.4332052042171L-44.22882469056622,-257.9612136832291z" style="fill:rgb(74,87,214)">
    </path>
    <path d="M-50.885801833294416,-243.03629542394046L-43.600283190250856,-241.72857038623434L-44.22882469056622,-257.9612136832291z" style="fill:rgb(74,87,214)">
    </path>
    <path d="M-288.4729987280136,163.23631503988247L-466.45385693829996,195.1757077886955" style="fill:none;stroke:rgb(160,0,0);stroke-width:4;stroke-linecap:round">
    </path>
    <path d="M-288.4729987280136,163.23631503988247L-486.3539847836224,366.38983270413365" style="fill:none;stroke:rgb(0,0,0);stroke-width:1;stroke-linecap:round">
    </path>
    <path d="M-288.4729987280136,163.23631503988247L-486.3539847836224,366.38983270413365" style="fill:none;stroke:rgb(0,0,0);stroke-width:1;stroke-linecap:round">
    </path>
    <path d="M-288.4729987280136,163.23631503988247L-466.45385693829996,195.1757077886955" style="fill:none;stroke:rgb(160,0,0);stroke-width:4;stroke-linecap:round">
    </path>
    <path d="M-288.4729987280136,163.23631503988247L-288.4729987280136,163.23631503988247" style="fill:none;stroke:rgb(0,0,0);stroke-width:1;stroke-linecap:round">
    </path>
    <path d="M-381.55585024591545,216.2767672414233L-288.4729987280136,163.23631503988247" style="fill:none;stroke:rgb(160,0,0);stroke-width:4;stroke-linecap:round">
    </path>
    <path d="M-398.64408184888737,355.3340267258193L-288.4729987280136,163.23631503988247" style="fill:none;stroke:rgb(0,0,0);stroke-width:1;stroke-linecap:round">
    </path>
    <path d="M-288.4729987280136,163.23631503988247L-660.8034867038184,287.0142312930335" style="fill:none;stroke:rgb(0,0,0);stroke-width:1;stroke-linecap:round">
    </path>
    <path d="M-398.64408184888737,355.3340267258193L-288.4729987280136,163.23631503988247" style="fill:none;stroke:rgb(0,0,0);stroke-width:1;stroke-linecap:round">
    </path>
    <path d="M-295.2217010327874,-0.733990853674928L-288.4729987280136,163.23631503988247" style="fill:none;stroke:rgb(0,0,0);stroke-width:1;stroke-linecap:round">
    </path>
    <path d="M-381.55585024591545,216.2767672414233L-288.4729987280136,163.23631503988247" style="fill:none;stroke:rgb(160,0,0);stroke-width:4;stroke-linecap:round">
    </path>
    <path d="M-429.571597940997,-84.09538526905017L48.7167983605762,-212.96824242557568L22.431005702372705,-94.69614616578787z" style="fill:rgb(0,0,0); fill-opacity: 0.18">
    </path>
    <path d="M-45.32880639527643,-241.2844633230584L-38.688793257327056,-242.99047266419464L-45.95685564738456,-257.52384369083796z" style="fill:rgb(43,180,168)">
    </path>
    <path d="M-52.61507694364531,-242.59327620965084L-45.32880639527643,-241.2844633230584L-45.95685564738456,-257.52384369083796z" style="fill:rgb(43,180,168)">
    </path>
    <path d="M-486.3539847836226,366.38983270413365L-466.4538569383001,195.17570778869543L-588.646896494547,124.67522741213739z" style="fill:rgb(0,0,0); fill-opacity: 0.18">
    </path>
    <path d="M-528.0877276725039,215.3088505349411L-486.3539847836226,366.38983270413365L-606.1000104050623,288.76717754847164z" style="fill:rgb(0,0,0); fill-opacity: 0.18">
    </path>
    <path d="M-49.11685059736211,-240.31120639432416L-42.465105833929876,-242.02022992568038L-49.743818989129025,-256.56535152874505z" style="fill:rgb(167,41,160)">
    </path>
    <path d="M-56.40476277947186,-241.6224048709361L-49.11685059736211,-240.31120639432416L-49.743818989129025,-256.56535152874505z" style="fill:rgb(167,41,160)">
    </path>
    <path d="M-84.15871695243258,-177.16547690387998L-85.06043732746917,-233.39725523926725" style="fill:none;stroke:rgb(43,180,168);stroke-width:5;stroke-linecap:round">
    </path>
    <path d="M-84.15871695243256,-177.16547690388L-85.06043732746916,-233.39725523926728" style="fill:none;stroke:rgb(74,87,214);stroke-width:5;stroke-linecap:round">
    </path>
    <path d="M-466.4538569383001,195.17570778869543L-466.4538569383001,195.17570778869543L-588.646896494547,124.67522741213739z" style="fill:rgb(0,0,0); fill-opacity: 0.18">
    </path>
    <path d="M-99.44441084327403,-173.0468090445604L-100.44859657202656,-229.45185234697598" style="fill:none;stroke:rgb(167,41,160);stroke-width:5;stroke-linecap:round">
    </path>
    <path d="M-73.3818578342666,-234.07683183076972L-66.65471878615912,-235.80522631083514L-74.00183409083536,-250.42557270210133z" style="fill:rgb(43,180,168)">
    </path>
    <path d="M-80.68008512699713,-235.4033630489288L-73.3818578342666,-234.07683183076972L-74.00183409083536,-250.42557270210133z" style="fill:rgb(43,180,168)">
    </path>
    <path d="M-74.45269149373495,-233.80170402787195L-67.72221546368017,-235.53095587406835L-75.07235645228992,-250.15462017359692z" style="fill:rgb(167,41,160)">
    </path>
    <path d="M-288.4729987280136,163.23631503988247L-288.4729987280136,163.23631503988247L-466.45385693829996,195.1757077886955z" style="fill:rgb(0,0,0); fill-opacity: 0.18">
    </path>
    <path d="M-81.75136600230097,-235.12891394084897L-74.45269149373495,-233.80170402787195L-75.07235645228992,-250.15462017359692z" style="fill:rgb(167,41,160)">
    </path>
    <path d="M-466.45385693829996,195.1757077886955L-486.3539847836224,366.38983270413365" style="fill:none;stroke:rgb(0,0,0);stroke-width:1;stroke-linecap:round">
    </path>
    <path d="M-486.3539847836224,366.38983270413365L-486.3539847836224,366.38983270413365" style="fill:none;stroke:rgb(0,0,0);stroke-width:1;stroke-linecap:round">
    </path>
    <path d="M-660.8034867038184,287.0142312930335L-486.3539847836224,366.38983270413365" style="fill:none;stroke:rgb(0,0,0);stroke-width:1;stroke-linecap:round">
    </path>
    <path d="M-486.3539847836224,366.38983270413365L-528.0877276725037,215.30885053494112" style="fill:none;stroke:rgb(0,0,0);stroke-width:1;stroke-linecap:round">
    </path>
    <path d="M-660.8034867038184,287.0142312930335L-486.3539847836224,366.38983270413365" style="fill:none;stroke:rgb(0,0,0);stroke-width:1;stroke-linecap:round">
    </path>
    <path d="M-288.4729987280136,163.23631503988247L-288.4729987280136,163.23631503988247L-398.64408184888737,355.3340267258193z" style="fill:rgb(0,0,0); fill-opacity: 0.18">
    </path>
    <path d="M-84.67101086190098,-231.176325443427L-77.90865047164925,-232.9137692939466L-85.28769368523277,-247.56908665047553z" style="fill:rgb(43,180,168)">
    </path>
    <path d="M-84.67101086190095,-231.176325443427L-77.90865047164921,-232.91376929394667L-85.28769368523277,-247.56908665047555z" style="fill:rgb(74,87,214)">
    </path>
    <path d="M-295.2217010327874,-0.733990853674928L-295.2217010327874,-0.733990853674928L-319.12036415945835,147.0481732677583z" style="fill:rgb(0,0,0); fill-opacity: 0.18">
    </path>
    <path d="M-91.973918874804,-232.5100204435085L-84.67101086190098,-231.176325443427L-85.28769368523277,-247.56908665047553z" style="fill:rgb(43,180,168)">
    </path>
    <path d="M-91.973918874804,-232.5100204435085L-84.67101086190095,-231.176325443427L-85.28769368523277,-247.56908665047555z" style="fill:rgb(74,87,214)">
    </path>
    <path d="M-486.3539847836224,366.38983270413365L-466.45385693829996,195.1757077886955L-288.4729987280136,163.23631503988247z" style="fill:rgb(0,0,0); fill-opacity: 0.18">
    </path>
    <path d="M-319.12036415945835,147.0481732677583L-466.45385693829996,195.1757077886955L-295.2217010327874,-0.733990853674928z" style="fill:rgb(0,0,0); fill-opacity: 0.18">
    </path>
    <path d="M-319.12036415945835,147.0481732677583L-466.45385693829996,195.1757077886955L-295.2217010327874,-0.733990853674928z" style="fill:rgb(0,0,0); fill-opacity: 0.18">
    </path>
    <path d="M-466.45385693829996,195.1757077886955L-319.12036415945835,147.0481732677583L-295.2217010327874,-0.733990853674928z" style="fill:rgb(0,0,0); fill-opacity: 0.18">
    </path>
    <path d="M-125.16207241112043,-166.11729005296195L-126.34024076894443,-222.81343859798744" style="fill:none;stroke:rgb(167,41,160);stroke-width:5;stroke-linecap:round">
    </path>
    <path d="M-100.08954075989246,-227.21486399958923L-93.27892732893365,-228.96470543675125L-100.70168403810696,-243.6677579058986z" style="fill:rgb(167,41,160)">
    </path>
    <path d="M-107.39872022553357,-228.55837426872063L-100.08954075989246,-227.21486399958923L-100.70168403810696,-243.6677579058986z" style="fill:rgb(167,41,160)">
    </path>
    <path d="M-288.4729987280136,163.23631503988247L-295.2217010327874,-0.733990853674928L-466.45385693829996,195.1757077886955z" style="fill:rgb(0,0,0); fill-opacity: 0.18">
    </path>
    <path d="M-466.45385693829996,195.1757077886955L-466.45385693829996,195.1757077886955L-288.4729987280136,163.23631503988247z" style="fill:rgb(0,0,0); fill-opacity: 0.18">
    </path>
    <path d="M-388.46398431063216,407.2406639612033L-395.42780951196016,405.078201449983L-395.67858840115167,408.6396059915813z" style="fill:rgb(109,213,75)">
    </path>
    <path d="M-151.18629336040956,-159.10516988667436L-152.54254641767167,-216.09537369833083" style="fill:none;stroke:rgb(167,41,160);stroke-width:5;stroke-linecap:round">
    </path>
    <path d="M-395.42780951196016,405.078201449983L-402.7400603625929,407.8344153768807L-395.67858840115167,408.6396059915813z" style="fill:rgb(109,213,75)">
    </path>
    <path d="M-388.46398431063216,407.2406639612033L-391.46081926923677,411.3474141495965L-394.94326048976814,421.8573321330807z" style="fill:rgb(109,213,75)">
    </path>
    <path d="M-400.3044485089093,411.71594541765074L-402.7400603625929,407.8344153768807L-394.94326048976814,421.8573321330807z" style="fill:rgb(109,213,75)">
    </path>
    <path d="M-398.64408184888737,355.3340267258193L-395.67858840115167,408.6396059915812" style="fill:none;stroke:rgb(109,213,75);stroke-width:5;stroke-linecap:round">
    </path>
    <path d="M-391.46081926923677,411.3474141495965L-388.46398431063216,407.2406639612033L-395.67858840115167,408.6396059915813z" style="fill:rgb(109,213,75)">
    </path>
    <path d="M-402.7400603625929,407.8344153768807L-400.3044485089093,411.71594541765074L-395.67858840115167,408.6396059915813z" style="fill:rgb(109,213,75)">
    </path>
    <path d="M-288.4729987280136,163.23631503988247L-295.2217010327874,-0.733990853674928L-381.55585024591545,216.2767672414233z" style="fill:rgb(0,0,0); fill-opacity: 0.18">
    </path>
    <path d="M-391.46081926923677,411.3474141495965L-400.3044485089093,411.71594541765074L-394.94326048976814,421.8573321330807z" style="fill:rgb(109,213,75)">
    </path>
    <path d="M-126.03279475243599,-220.54929983107917L-119.14060410124915,-222.32010078998337L-126.63719182042547,-237.10340048124976z" style="fill:rgb(167,41,160)">
    </path>
    <path d="M-400.3044485089093,411.71594541765074L-391.46081926923677,411.3474141495965L-395.67858840115167,408.6396059915813z" style="fill:rgb(109,213,75)">
    </path>
    <path d="M-133.35221025311176,-221.90940633338806L-126.03279475243599,-220.54929983107917L-126.63719182042547,-237.10340048124976z" style="fill:rgb(167,41,160)">
    </path>
    <path d="M-295.2217010327874,-0.733990853674928L-466.45385693829996,195.1757077886955" style="fill:none;stroke:rgb(0,0,0);stroke-width:1;stroke-linecap:round">
    </path>
    <path d="M-295.2217010327874,-0.733990853674928L-466.45385693829996,195.1757077886955" style="fill:none;stroke:rgb(0,0,0);stroke-width:1;stroke-linecap:round">
    </path>
    <path d="M-275.00589298085816,-125.74248390379525L-295.2217010327874,-0.733990853674928" style="fill:none;stroke:rgb(0,0,0);stroke-width:1;stroke-linecap:round">
    </path>
    <path d="M-275.00589298085816,-125.74248390379525L-295.2217010327874,-0.733990853674928" style="fill:none;stroke:rgb(0,0,0);stroke-width:1;stroke-linecap:round">
    </path>
    <path d="M-397.8178261893803,-92.65130952473041L-295.2217010327874,-0.733990853674928" style="fill:none;stroke:rgb(0,0,0);stroke-width:1;stroke-linecap:round">
    </path>
    <path d="M-397.8178261893803,-92.65130952473041L-295.2217010327874,-0.733990853674928" style="fill:none;stroke:rgb(0,0,0);stroke-width:1;stroke-linecap:round">
    </path>
    <path d="M-398.64408184888737,355.3340267258193L-381.55585024591545,216.2767672414233L-288.4729987280136,163.23631503988247z" style="fill:rgb(0,0,0); fill-opacity: 0.18">
    </path>
    <path d="M-446.4901755107746,44.0114546953769L-295.2217010327874,-0.733990853674928L-319.12036415945835,147.0481732677583z" style="fill:rgb(0,0,0); fill-opacity: 0.18">
    </path>
    <path d="M-446.4901755107746,44.0114546953769L-466.45385693829996,195.1757077886955" style="fill:none;stroke:rgb(0,0,0);stroke-width:1;stroke-linecap:round">
    </path>
    <path d="M-446.4901755107746,44.0114546953769L-466.45385693829996,195.1757077886955" style="fill:none;stroke:rgb(0,0,0);stroke-width:1;stroke-linecap:round">
    </path>
    <path d="M-446.4901755107746,44.0114546953769L-466.45385693829996,195.1757077886955" style="fill:none;stroke:rgb(0,0,0);stroke-width:1;stroke-linecap:round">
    </path>
    <path d="M-446.4901755107746,44.0114546953769L-466.45385693829996,195.1757077886955" style="fill:none;stroke:rgb(0,0,0);stroke-width:1;stroke-linecap:round">
    </path>
    <path d="M-466.45385693829996,195.1757077886955L-466.45385693829996,195.1757077886955" style="fill:none;stroke:rgb(0,0,0);stroke-width:1;stroke-linecap:round">
    </path>
    <path d="M-466.45385693829996,195.1757077886955L-319.12036415945835,147.0481732677583L-446.4901755107746,44.0114546953769z" style="fill:rgb(0,0,0); fill-opacity: 0.18">
    </path>
    <path d="M-471.9991637425215,382.17822588498836L-398.64408184888737,355.3340267258193L-288.4729987280136,163.23631503988247z" style="fill:rgb(0,0,0); fill-opacity: 0.18">
    </path>
    <path d="M-177.5225879250551,-152.00896275786562L-179.06113848103072,-209.29621545181905" style="fill:none;stroke:rgb(167,41,160);stroke-width:5;stroke-linecap:round">
    </path>
    <path d="M-398.64408184888737,355.3340267258193L-381.55585024591545,216.2767672414233" style="fill:none;stroke:rgb(50,34,0);stroke-width:5;stroke-linecap:round">
    </path>
    <path d="M-398.6440818488872,355.3340267258192L-449.34021181049707,373.8862111710891" style="fill:none;stroke:rgb(197,147,42);stroke-width:5;stroke-linecap:round">
    </path>
    <path d="M-471.9991637425215,382.17822588498836L-398.64408184888737,355.3340267258193" style="fill:none;stroke:rgb(22,55,11);stroke-width:5;stroke-linecap:round">
    </path>
    <path d="M-424.5063666116266,420.86342422268876L-431.4777111448748,418.6665264368552L-431.8057386439139,422.2840594560688z" style="fill:rgb(109,213,75)">
    </path>
    <path d="M-431.4777111448748,418.6665264368552L-438.90419976273387,421.4658001180526L-431.8057386439139,422.2840594560688z" style="fill:rgb(109,213,75)">
    </path>
    <path d="M-152.28797959504257,-213.80359170307085L-145.31273720449747,-215.59573102986664L-152.88439943177204,-230.46015086354592z" style="fill:rgb(167,41,160)">
    </path>
    <path d="M-159.617350210604,-215.1805974830632L-152.28797959504257,-213.80359170307085L-152.88439943177204,-230.46015086354592z" style="fill:rgb(167,41,160)">
    </path>
    <path d="M-424.5063666116266,420.86342422268876L-427.61291297042646,425.03484997179015L-431.0053137759837,435.58217252693254z" style="fill:rgb(109,213,75)">
    </path>
    <path d="M-436.53214423036275,425.4087476724502L-438.90419976273387,421.4658001180526L-431.0053137759837,435.58217252693254z" style="fill:rgb(109,213,75)">
    </path>
    <path d="M-435.0339671227573,368.6508590768149L-431.805738643914,422.28405945606886" style="fill:none;stroke:rgb(109,213,75);stroke-width:5;stroke-linecap:round">
    </path>
    <path d="M-427.61291297042646,425.03484997179015L-424.5063666116266,420.86342422268876L-431.8057386439139,422.2840594560688z" style="fill:rgb(109,213,75)">
    </path>
    <path d="M-438.90419976273387,421.4658001180526L-436.53214423036275,425.4087476724502L-431.8057386439139,422.2840594560688z" style="fill:rgb(109,213,75)">
    </path>
    <path d="M-427.61291297042646,425.03484997179015L-436.53214423036275,425.4087476724502L-431.0053137759837,435.58217252693254z" style="fill:rgb(109,213,75)">
    </path>
    <path d="M-436.53214423036275,425.4087476724502L-427.61291297042646,425.03484997179015L-431.8057386439139,422.2840594560688z" style="fill:rgb(109,213,75)">
    </path>
    <path d="M-394.40606832011537,320.8467514675463L-445.1919113110355,339.0709323001632" style="fill:none;stroke:rgb(197,147,42);stroke-width:5;stroke-linecap:round">
    </path>
    <path d="M-446.4901755107746,44.0114546953769L22.431005702372705,-94.69614616578787L-429.571597940997,-84.09538526905017z" style="fill:rgb(0,0,0); fill-opacity: 0.18">
    </path>
    <path d="M-424.94320685020796,358.8412802976989L-422.9728096240404,367.3231452606393L-420.8147248553613,363.44734540789244z" style="fill:rgb(43,180,168)">
    </path>
    <path d="M-422.9728096240404,367.3231452606393L-418.01614623368897,370.4604278343952L-420.8147248553613,363.44734540789244z" style="fill:rgb(43,180,168)">
    </path>
    <path d="M-416.91707775706703,363.8992366905015L-418.01614623368897,370.4604278343952L-408.19184714508623,358.8280193234666z" style="fill:rgb(43,180,168)">
    </path>
    <path d="M-204.1766033863389,-144.8271470296329L-205.90177854357853,-202.41448663352787" style="fill:none;stroke:rgb(167,41,160);stroke-width:5;stroke-linecap:round">
    </path>
    <path d="M-421.2082721305429,356.7094113940885L-424.94320685020796,358.8412802976989L-420.8147248553613,363.44734540789244z" style="fill:rgb(43,180,168)">
    </path>
    <path d="M-421.2082721305429,356.7094113940885L-416.91707775706703,363.8992366905015L-408.19184714508623,358.8280193234666z" style="fill:rgb(43,180,168)">
    </path>
    <path d="M-471.9991637425215,382.17822588498836L-420.81472485536125,363.44734540789244" style="fill:none;stroke:rgb(43,180,168);stroke-width:5;stroke-linecap:round">
    </path>
    <path d="M-660.8034867038184,287.0142312930335L-288.4729987280136,163.23631503988247L-486.3539847836224,366.38983270413365z" style="fill:rgb(0,0,0); fill-opacity: 0.18">
    </path>
    <path d="M-390.1454794433301,286.17576697009633L-441.0212706130012,304.0681597210436" style="fill:none;stroke:rgb(197,147,42);stroke-width:5;stroke-linecap:round">
    </path>
    <path d="M-418.01614623368897,370.4604278343952L-416.91707775706703,363.8992366905015L-420.8147248553613,363.44734540789244z" style="fill:rgb(43,180,168)">
    </path>
    <path d="M-416.91707775706703,363.8992366905015L-421.2082721305429,356.7094113940885L-420.8147248553613,363.44734540789244z" style="fill:rgb(43,180,168)">
    </path>
    <path d="M-178.86075510271954,-206.9762854471656L-171.80095070220975,-208.79015117357955L-179.44895997956476,-223.73657823377386z" style="fill:rgb(167,41,160)">
    </path>
    <path d="M-295.2217010327874,-0.733990853674928L-446.4901755107746,44.0114546953769L-466.45385693829996,195.1757077886955z" style="fill:rgb(0,0,0); fill-opacity: 0.18">
    </path>
    <path d="M-295.2217010327874,-0.733990853674928L-446.4901755107746,44.0114546953769L-466.45385693829996,195.1757077886955z" style="fill:rgb(0,0,0); fill-opacity: 0.18">
    </path>
    <path d="M-186.19978745089554,-208.3705009347424L-178.86075510271954,-206.9762854471656L-179.44895997956476,-223.73657823377386z" style="fill:rgb(167,41,160)">
    </path>
    <path d="M-486.3539847836224,366.38983270413365L-486.3539847836224,366.38983270413365L-660.8034867038184,287.0142312930335z" style="fill:rgb(0,0,0); fill-opacity: 0.18">
    </path>
    <path d="M-385.8621343528841,251.31960142048075L-436.8281087632607,268.87637475546774" style="fill:none;stroke:rgb(197,147,42);stroke-width:5;stroke-linecap:round">
    </path>
    <path d="M-461.1143329490706,434.699955473892L-468.09257728909256,432.4678040543284L-468.50025583121646,436.14279530430525z" style="fill:rgb(109,213,75)">
    </path>
    <path d="M-468.09257728909256,432.4678040543284L-475.63600180625735,435.31115449941205L-468.50025583121646,436.14279530430525z" style="fill:rgb(109,213,75)">
    </path>
    <path d="M-461.1143329490706,434.699955473892L-464.333681761108,438.9375901648852L-467.6327735560562,449.52220072011033z" style="fill:rgb(109,213,75)">
    </path>
    <path d="M-473.3298087517943,439.31697820426484L-475.63600180625735,435.31115449941205L-467.6327735560562,449.52220072011033z" style="fill:rgb(109,213,75)">
    </path>
    <path d="M-471.9991637425214,382.17822588498836L-468.50025583121646,436.14279530430525" style="fill:none;stroke:rgb(109,213,75);stroke-width:5;stroke-linecap:round">
    </path>
    <path d="M-432.95990092644706,328.60407151095774L-430.97634397630117,337.14112387436734L-428.81979546128514,333.19590134100895z" style="fill:rgb(43,180,168)">
    </path>
    <path d="M-464.333681761108,438.9375901648852L-461.1143329490706,434.699955473892L-468.50025583121646,436.14279530430525z" style="fill:rgb(109,213,75)">
    </path>
    <path d="M-660.8034867038184,287.0142312930335L-528.0877276725037,215.30885053494112" style="fill:none;stroke:rgb(160,0,0);stroke-width:4;stroke-linecap:round">
    </path>
    <path d="M-475.63600180625735,435.31115449941205L-473.3298087517943,439.31697820426484L-468.50025583121646,436.14279530430525z" style="fill:rgb(109,213,75)">
    </path>
    <path d="M-430.97634397630117,337.14112387436734L-426.00860356144756,340.23777499750594L-428.81979546128514,333.19590134100895z" style="fill:rgb(43,180,168)">
    </path>
    <path d="M-464.333681761108,438.9375901648852L-473.3298087517943,439.31697820426484L-467.6327735560562,449.52220072011033z" style="fill:rgb(109,213,75)">
    </path>
    <path d="M-424.9158298360831,333.5959184942335L-426.00860356144756,340.23777499750594L-416.10845750416496,328.6345175396909z" style="fill:rgb(43,180,168)">
    </path>
    <path d="M-429.2220820898954,326.3971090494039L-432.95990092644706,328.60407151095774L-428.81979546128514,333.19590134100895z" style="fill:rgb(43,180,168)">
    </path>
    <path d="M-429.2220820898954,326.3971090494039L-424.9158298360831,333.5959184942335L-416.10845750416496,328.6345175396909z" style="fill:rgb(43,180,168)">
    </path>
    <path d="M-480.36666772965873,351.6931727507322L-428.81979546128514,333.19590134100895" style="fill:none;stroke:rgb(43,180,168);stroke-width:5;stroke-linecap:round">
    </path>
    <path d="M-473.3298087517943,439.31697820426484L-464.333681761108,438.9375901648852L-468.50025583121646,436.14279530430525z" style="fill:rgb(109,213,75)">
    </path>
    <path d="M-231.15412410996956,-137.55816412823395L-233.070368984863,-195.4486739198057" style="fill:none;stroke:rgb(167,41,160);stroke-width:5;stroke-linecap:round">
    </path>
    <path d="M-381.55585024591545,216.2767672414233L-432.61224284912316,233.4940422792688" style="fill:none;stroke:rgb(197,147,42);stroke-width:5;stroke-linecap:round">
    </path>
    <path d="M-381.55585024591545,216.2767672414233L-397.8178261893803,-92.65130952473041" style="fill:none;stroke:rgb(1,31,51);stroke-width:5;stroke-linecap:round">
    </path>
    <path d="M-381.55585024591545,216.27676724142327L-432.61224284912316,233.49404227926874" style="fill:none;stroke:rgb(44,139,201);stroke-width:5;stroke-linecap:round">
    </path>
    <path d="M-426.00860356144756,340.23777499750594L-424.9158298360831,333.5959184942335L-428.81979546128514,333.19590134100895z" style="fill:rgb(43,180,168)">
    </path>
    <path d="M-424.9158298360831,333.5959184942335L-429.2220820898954,326.3971090494039L-428.81979546128514,333.19590134100895z" style="fill:rgb(43,180,168)">
    </path>
    <path d="M-449.7598970673794,367.115699106569L-453.4574958657058,369.23866901070323L-462.187816272592,378.58777572525037z" style="fill:rgb(197,147,42)">
    </path>
    <path d="M-446.5323961372142,380.94510375997737L-445.4698908667007,374.3596152738983L-462.187816272592,378.58777572525037z" style="fill:rgb(197,147,42)">
    </path>
    <path d="M-205.75691884933244,-200.06589150077286L-198.61100532662385,-201.90188112419978L-206.33666410523813,-216.93121696263444z" style="fill:rgb(167,41,160)">
    </path>
    <path d="M-445.4698908667007,374.3596152738983L-449.7598970673794,367.115699106569L-462.187816272592,378.58777572525037z" style="fill:rgb(197,147,42)">
    </path>
    <path d="M-213.1053066022874,-201.47763473713326L-205.75691884933244,-200.06589150077286L-206.33666410523813,-216.93121696263444z" style="fill:rgb(167,41,160)">
    </path>
    <path d="M-445.6092646526405,332.2531853189376L-449.3255495076706,334.4555028541656L-458.0627194155524,343.6895409624347z" style="fill:rgb(197,147,42)">
    </path>
    <path d="M-441.06185383020704,298.0452851581845L-439.0649679428676,306.63822218125983L-436.91011062205723,302.6223150957554z" style="fill:rgb(43,180,168)">
    </path>
    <path d="M-295.2217010327874,-0.733990853674928L-446.4901755107746,44.0114546953769L-275.00589298085816,-125.74248390379525z" style="fill:rgb(0,0,0); fill-opacity: 0.18">
    </path>
    <path d="M-383.3048506368286,183.05107997522174L-434.5873622814397,199.96962100111395" style="fill:none;stroke:rgb(44,139,201);stroke-width:5;stroke-linecap:round">
    </path>
    <path d="M-439.0649679428676,306.63822218125983L-434.08619477813426,309.69319714253845L-436.91011062205723,302.6223150957554z" style="fill:rgb(43,180,168)">
    </path>
    <path d="M-432.9999128100174,302.96932371242605L-434.08619477813426,309.69319714253845L-424.10913974152356,298.1203703923483z" style="fill:rgb(43,180,168)">
    </path>
    <path d="M-442.37540261227304,346.1391294988767L-441.30370977980095,339.4829312877021L-458.0627194155524,343.6895409624347z" style="fill:rgb(197,147,42)">
    </path>
    <path d="M-437.321300973125,295.76174674489533L-441.06185383020704,298.0452851581845L-436.91011062205723,302.6223150957554z" style="fill:rgb(43,180,168)">
    </path>
    <path d="M-437.321300973125,295.76174674489533L-432.9999128100174,302.96932371242605L-424.10913974152356,298.1203703923483z" style="fill:rgb(43,180,168)">
    </path>
    <path d="M-441.30370977980095,339.4829312877021L-445.6092646526405,332.2531853189376L-458.0627194155524,343.6895409624347z" style="fill:rgb(197,147,42)">
    </path>
    <path d="M-488.82426455888947,320.8798873165619L-436.9101106220571,302.6223150957555" style="fill:none;stroke:rgb(43,180,168);stroke-width:5;stroke-linecap:round">
    </path>
    <path d="M-471.9991637425215,382.17822588498836L-660.8034867038184,287.0142312930335" style="fill:none;stroke:rgb(0,0,0);stroke-width:1;stroke-linecap:round">
    </path>
    <path d="M-506.0156202644967,258.24718430967266L-471.9991637425215,382.17822588498836" style="fill:none;stroke:rgb(0,44,41);stroke-width:5;stroke-linecap:round">
    </path>
    <path d="M-471.9991637425215,382.17822588498836L-660.8034867038184,287.0142312930335" style="fill:none;stroke:rgb(0,0,0);stroke-width:1;stroke-linecap:round">
    </path>
    <path d="M-660.8034867038184,287.0142312930335L-288.4729987280136,163.23631503988247L-471.9991637425215,382.17822588498836z" style="fill:rgb(0,0,0); fill-opacity: 0.18">
    </path>
    <path d="M-434.08619477813426,309.69319714253845L-432.9999128100174,302.96932371242605L-436.91011062205723,302.6223150957554z" style="fill:rgb(43,180,168)">
    </path>
    <path d="M-432.9999128100174,302.96932371242605L-437.321300973125,295.76174674489533L-436.91011062205723,302.6223150957554z" style="fill:rgb(43,180,168)">
    </path>
    <path d="M-528.0877276725037,215.30885053494112L-486.3539847836224,366.38983270413365L-660.8034867038184,287.0142312930335z" style="fill:rgb(0,0,0); fill-opacity: 0.18">
    </path>
    <path d="M-258.46107573103365,-130.2004174154689L-260.5729573065915,-188.3972267788215" style="fill:none;stroke:rgb(167,41,160);stroke-width:5;stroke-linecap:round">
    </path>
    <path d="M-441.4362607874303,297.2027664309324L-445.17137959269553,299.4852564195609L-453.91534614399296,308.60284818989663z" style="fill:rgb(197,147,42)">
    </path>
    <path d="M-438.1960158470455,311.14565950549894L-437.1150516985936,304.41808384651677L-453.91534614399296,308.60284818989663z" style="fill:rgb(197,147,42)">
    </path>
    <path d="M-381.55585024591545,216.2767672414233L-397.8178261893803,-92.65130952473041L-295.2217010327874,-0.733990853674928z" style="fill:rgb(0,0,0); fill-opacity: 0.18">
    </path>
    <path d="M-437.1150516985936,304.41808384651677L-441.4362607874303,297.2027664309324L-453.91534614399296,308.60284818989663z" style="fill:rgb(197,147,42)">
    </path>
    <path d="M-385.06791519343494,149.55821634164622L-436.5785410006426,166.17261959935166" style="fill:none;stroke:rgb(44,139,201);stroke-width:5;stroke-linecap:round">
    </path>
    <path d="M-232.98241038454668,-193.07088382365754L-225.74880265549209,-194.92940459756278L-233.55344419240672,-210.04256554544332z" style="fill:rgb(167,41,160)">
    </path>
    <path d="M-240.3398337650993,-194.50048069553577L-232.98241038454668,-193.07088382365754L-233.55344419240672,-210.04256554544332z" style="fill:rgb(167,41,160)">
    </path>
    <path d="M-437.24070411352596,261.9629191557611L-440.9948063441582,264.3264163280586L-449.74551552319133,273.32616670359846z" style="fill:rgb(197,147,42)">
    </path>
    <path d="M-449.25043294461875,267.1597637706232L-447.2400457214481,275.8092956735785L-445.08703925722926,271.7214134768797z" style="fill:rgb(43,180,168)">
    </path>
    <path d="M-447.2400457214481,275.8092956735785L-442.2502874080847,278.8215231172987L-445.08703925722926,271.7214134768797z" style="fill:rgb(43,180,168)">
    </path>
    <path d="M-275.00589298085816,-125.74248390379525L-429.571597940997,-84.09538526905017" style="fill:none;stroke:rgb(55,17,8);stroke-width:5;stroke-linecap:round">
    </path>
    <path d="M-275.0058929808582,-125.74248390379522L-277.23740091866864,-184.12459462180982" style="fill:none;stroke:rgb(214,94,68);stroke-width:5;stroke-linecap:round">
    </path>
    <path d="M-429.571597940997,-84.09538526905017L-275.00589298085816,-125.74248390379525" style="fill:none;stroke:rgb(38,46,1);stroke-width:5;stroke-linecap:round">
    </path>
    <path d="M-275.00589298085816,-125.74248390379525L-277.2374009186686,-184.12459462180985" style="fill:none;stroke:rgb(162,186,45);stroke-width:5;stroke-linecap:round">
    </path>
    <path d="M-441.17069946965853,272.01425151929135L-442.2502874080847,278.8215231172987L-432.1952402310115,267.2804428881289z" style="fill:rgb(43,180,168)">
    </path>
    <path d="M-445.5073014915104,264.7981321888177L-449.25043294461875,267.1597637706232L-445.08703925722926,271.7214134768797z" style="fill:rgb(43,180,168)">
    </path>
    <path d="M-433.99405440818265,275.9631746616567L-432.90373423237344,269.1635460884847L-449.74551552319133,273.32616670359846z" style="fill:rgb(197,147,42)">
    </path>
    <path d="M-445.5073014915104,264.7981321888177L-441.17069946965853,272.01425151929135L-432.1952402310115,267.2804428881289z" style="fill:rgb(43,180,168)">
    </path>
    <path d="M-497.37341714909303,289.7330397780543L-445.0870392572292,271.7214134768798" style="fill:none;stroke:rgb(43,180,168);stroke-width:5;stroke-linecap:round">
    </path>
    <path d="M-432.90373423237344,269.1635460884847L-437.24070411352596,261.9629191557611L-449.74551552319133,273.32616670359846z" style="fill:rgb(197,147,42)">
    </path>
    <path d="M-442.2502874080847,278.8215231172987L-441.17069946965853,272.01425151929135L-445.08703925722926,271.7214134768797z" style="fill:rgb(43,180,168)">
    </path>
    <path d="M-441.17069946965853,272.01425151929135L-445.5073014915104,264.7981321888177L-445.08703925722926,271.7214134768797z" style="fill:rgb(43,180,168)">
    </path>
    <path d="M-433.0224113071092,226.53210369695086L-436.79564804113073,228.97745283346578L-445.5530446536417,237.85794917747455z" style="fill:rgb(197,147,42)">
    </path>
    <path d="M-433.0224113071092,226.53210369695083L-436.79564804113073,228.9774528334657L-445.5530446536417,237.85794917747452z" style="fill:rgb(44,139,201)">
    </path>
    <path d="M-386.8452142409541,115.79494067962077L-438.5859756683405,132.09970006488646" style="fill:none;stroke:rgb(44,139,201);stroke-width:5;stroke-linecap:round">
    </path>
    <path d="M-286.1035294932004,-122.75227101949943L-288.41574062037546,-181.25855631994293" style="fill:none;stroke:rgb(167,41,160);stroke-width:5;stroke-linecap:round">
    </path>
    <path d="M-429.76933489702844,240.59013939389456L-428.6695730117249,233.71777458721382L-445.5530446536417,237.85794917747455z" style="fill:rgb(197,147,42)">
    </path>
    <path d="M-429.76933489702844,240.59013939389453L-428.6695730117249,233.7177745872138L-445.5530446536417,237.85794917747452z" style="fill:rgb(44,139,201)">
    </path>
    <path d="M-428.6695730117249,233.71777458721382L-433.0224113071092,226.53210369695086L-445.5530446536417,237.85794917747455z" style="fill:rgb(197,147,42)">
    </path>
    <path d="M-428.6695730117249,233.7177745872138L-433.0224113071092,226.53210369695083L-445.5530446536417,237.85794917747452z" style="fill:rgb(44,139,201)">
    </path>
    <path d="M-429.571597940997,-84.09538526905017L-275.00589298085816,-125.74248390379525L-295.2217010327874,-0.733990853674928z" style="fill:rgb(0,0,0); fill-opacity: 0.18">
    </path>
    <path d="M-295.2217010327874,-0.733990853674928L-446.4901755107746,44.0114546953769L-397.8178261893803,-92.65130952473041z" style="fill:rgb(0,0,0); fill-opacity: 0.18">
    </path>
    <path d="M-260.5433156066252,-185.98969877444245L-253.22038944300948,-187.87116800952265L-261.1053787304895,-203.06908549768409z" style="fill:rgb(167,41,160)">
    </path>
    <path d="M-267.90944086317126,-187.4374832570405L-260.5433156066252,-185.98969877444245L-261.1053787304895,-203.06908549768409z" style="fill:rgb(167,41,160)">
    </path>
    <path d="M-457.52703505013665,235.94223899927368L-455.5029708284014,244.64908928041402L-453.35197975491377,240.48791192639928z" style="fill:rgb(43,180,168)">
    </path>
    <path d="M-298.4198374316775,-119.43369209112764L-300.8220487190478,-178.07767658785468" style="fill:none;stroke:rgb(214,94,68);stroke-width:5;stroke-linecap:round">
    </path>
    <path d="M-455.5029708284014,244.64908928041402L-450.50227842242947,247.61747041957645L-453.35197975491377,240.48791192639928z" style="fill:rgb(43,180,168)">
    </path>
    <path d="M-449.4295922115658,240.72538892740894L-450.50227842242947,247.61747041957645L-440.36813424954187,236.10948979908198z" style="fill:rgb(43,180,168)">
    </path>
    <path d="M-453.78148593147165,233.500961221207L-457.52703505013665,235.94223899927368L-453.35197975491377,240.48791192639928z" style="fill:rgb(43,180,168)">
    </path>
    <path d="M-453.78148593147165,233.500961221207L-449.4295922115658,240.72538892740894L-440.36813424954187,236.10948979908198z" style="fill:rgb(43,180,168)">
    </path>
    <path d="M-446.4901755107746,44.0114546953769L-295.2217010327874,-0.733990853674928L-429.571597940997,-84.09538526905017z" style="fill:rgb(0,0,0); fill-opacity: 0.18">
    </path>
    <path d="M-506.0156202644965,258.2471843096725L-453.35197975491377,240.48791192639928" style="fill:none;stroke:rgb(43,180,168);stroke-width:5;stroke-linecap:round">
    </path>
    <path d="M-435.0008603629953,192.95116750561408L-438.7851240926507,195.4782157485667L-447.58619706134715,204.25804823409968z" style="fill:rgb(44,139,201)">
    </path>
    <path d="M-388.63692086607017,81.75796486865002L-440.60986617038805,97.74746966233408" style="fill:none;stroke:rgb(44,139,201);stroke-width:5;stroke-linecap:round">
    </path>
    <path d="M-450.50227842242947,247.61747041957645L-449.4295922115658,240.72538892740894L-453.35197975491377,240.48791192639928z" style="fill:rgb(43,180,168)">
    </path>
    <path d="M-449.4295922115658,240.72538892740894L-453.78148593147165,233.500961221207L-453.35197975491377,240.48791192639928z" style="fill:rgb(43,180,168)">
    </path>
    <path d="M-431.73349489031386,207.08504533413404L-430.6322990600395,200.13316819449088L-447.58619706134715,204.25804823409968z" style="fill:rgb(44,139,201)">
    </path>
    <path d="M-430.6322990600395,200.13316819449088L-435.0008603629953,192.95116750561408L-447.58619706134715,204.25804823409968z" style="fill:rgb(44,139,201)">
    </path>
    <path d="M-429.571597940997,-84.09538526905017L-446.4901755107746,44.0114546953769" style="fill:none;stroke:rgb(0,0,0);stroke-width:1;stroke-linecap:round">
    </path>
    <path d="M-429.571597940997,-84.09538526905017L-446.4901755107746,44.0114546953769" style="fill:none;stroke:rgb(0,0,0);stroke-width:1;stroke-linecap:round">
    </path>
    <path d="M-429.571597940997,-84.09538526905017L-446.4901755107746,44.0114546953769" style="fill:none;stroke:rgb(0,0,0);stroke-width:1;stroke-linecap:round">
    </path>
    <path d="M-429.571597940997,-84.09538526905017L-446.4901755107746,44.0114546953769" style="fill:none;stroke:rgb(0,0,0);stroke-width:1;stroke-linecap:round">
    </path>
    <path d="M-277.2434453945112,-181.69895765324026L-269.86613180282325,-183.5944005745774L-277.79999849844813,-198.84362547795772z" style="fill:rgb(214,94,68)">
    </path>
    <path d="M-277.24344539451107,-181.69895765324034L-269.8661318028232,-183.5944005745774L-277.799998498448,-198.84362547795772z" style="fill:rgb(162,186,45)">
    </path>
    <path d="M-284.6146255582756,-183.15781846924L-277.2434453945112,-181.69895765324026L-277.79999849844813,-198.84362547795772z" style="fill:rgb(214,94,68)">
    </path>
    <path d="M-284.61462555827546,-183.15781846924003L-277.24344539451107,-181.69895765324034L-277.799998498448,-198.84362547795772z" style="fill:rgb(162,186,45)">
    </path>
    <path d="M-314.08770674885307,-115.21204862230651L-316.6050703030444,-174.03103410014978" style="fill:none;stroke:rgb(167,41,160);stroke-width:5;stroke-linecap:round">
    </path>
    <path d="M-315.83568711084996,-114.74106244483296L-318.3659434780001,-173.57956007996216" style="fill:none;stroke:rgb(214,94,68);stroke-width:5;stroke-linecap:round">
    </path>
    <path d="M-436.99540941426017,159.09696023060278L-440.79075511240933,161.706957741016L-449.6359267539998,170.38419088193814z" style="fill:rgb(44,139,201)">
    </path>
    <path d="M-390.44321097312326,47.44394726134401L-442.6504156832329,63.11247980386636" style="fill:none;stroke:rgb(44,139,201);stroke-width:5;stroke-linecap:round">
    </path>
    <path d="M-288.4458712978446,-178.8207339453311L-281.03196211154057,-180.72557932189872L-288.99869684053715,-196.00920020950733z" style="fill:rgb(167,41,160)">
    </path>
    <path d="M-295.8203501569751,-180.28704835432492L-288.4458712978446,-178.8207339453311L-288.99869684053715,-196.00920020950733z" style="fill:rgb(167,41,160)">
    </path>
    <path d="M-433.71362956366136,173.3074514984469L-432.61101282737576,166.27499267533832L-449.6359267539998,170.38419088193814z" style="fill:rgb(44,139,201)">
    </path>
    <path d="M-660.8034867038184,287.0142312930335L-660.8034867038184,287.0142312930335L-486.3539847836224,366.38983270413365z" style="fill:rgb(0,0,0); fill-opacity: 0.18">
    </path>
    <path d="M-325.56477611910566,-112.11959910238235L-328.1669609622171,-171.06665635216225" style="fill:none;stroke:rgb(162,186,45);stroke-width:5;stroke-linecap:round">
    </path>
    <path d="M-432.61101282737576,166.27499267533832L-436.99540941426017,159.09696023060278L-449.6359267539998,170.38419088193814z" style="fill:rgb(44,139,201)">
    </path>
    <path d="M-326.20702406848534,-111.94654801253886L-328.8139671795392,-170.9007690513757" style="fill:none;stroke:rgb(162,186,45);stroke-width:5;stroke-linecap:round">
    </path>
    <path d="M-300.8790509276395,-175.62629439411563L-293.4244197378471,-177.54160241840665L-301.4277098164834,-192.86337849302123z" style="fill:rgb(214,94,68)">
    </path>
    <path d="M-308.25710427893813,-177.10090347405335L-300.8790509276395,-175.62629439411563L-301.4277098164834,-192.86337849302123z" style="fill:rgb(214,94,68)">
    </path>
    <path d="M-275.00589298085816,-125.74248390379525L-429.571597940997,-84.09538526905017L-446.4901755107746,44.0114546953769z" style="fill:rgb(0,0,0); fill-opacity: 0.18">
    </path>
    <path d="M-439.00625578883853,124.96613255303214L-442.8127386752433,127.66035200208502L-451.7024373055739,136.2330128550604z" style="fill:rgb(44,139,201)">
    </path>
    <path d="M-392.2642633416791,12.849491589770397L-444.7078307419103,28.191224895132397" style="fill:none;stroke:rgb(44,139,201);stroke-width:5;stroke-linecap:round">
    </path>
    <path d="M-342.41998362715447,-107.57803220189922L-345.14745682687783,-166.7129908856012" style="fill:none;stroke:rgb(167,41,160);stroke-width:5;stroke-linecap:round">
    </path>
    <path d="M-435.7099345979604,139.2540199171018L-434.60591045862833,132.1398917543915L-451.7024373055739,136.2330128550604z" style="fill:rgb(44,139,201)">
    </path>
    <path d="M-434.60591045862833,132.1398917543915L-439.00625578883853,124.96613255303214L-451.7024373055739,136.2330128550604z" style="fill:rgb(44,139,201)">
    </path>
    <path d="M-506.0156202644967,258.24718430967266L-471.9991637425215,382.17822588498836L-660.8034867038184,287.0142312930335z" style="fill:rgb(0,0,0); fill-opacity: 0.18">
    </path>
    <path d="M-347.28835442132726,-106.2662695524311L-350.0521747067978,-165.45545983190135" style="fill:none;stroke:rgb(214,94,68);stroke-width:5;stroke-linecap:round">
    </path>
    <path d="M-506.0156202644967,258.24718430967266L-660.8034867038184,287.0142312930335" style="fill:none;stroke:rgb(160,0,0);stroke-width:4;stroke-linecap:round">
    </path>
    <path d="M-316.69646982962786,-171.56234695322368L-309.18987141115144,-173.49100684530865L-317.23978297034085,-188.86129375738412z" style="fill:rgb(167,41,160)">
    </path>
    <path d="M-324.0789389253831,-173.0475422062408L-316.69646982962786,-171.56234695322368L-317.23978297034085,-188.86129375738412z" style="fill:rgb(167,41,160)">
    </path>
    <path d="M-318.46119534774556,-171.1089384800923L-310.94878784970825,-173.03909089091L-319.003908949905,-188.41478800283468z" style="fill:rgb(214,94,68)">
    </path>
    <path d="M-325.84414795651475,-172.59531715925547L-318.46119534774556,-171.1089384800923L-319.003908949905,-188.41478800283468z" style="fill:rgb(214,94,68)">
    </path>
    <path d="M-441.0336000525998,90.55528019537631L-444.8512755909572,93.33501725194107L-453.7859356370093,101.8010945755435z" style="fill:rgb(44,139,201)">
    </path>
    <path d="M-394.100259685516,-22.028854155117354L-446.78232130972884,-7.019858847555043" style="fill:none;stroke:rgb(44,139,201);stroke-width:5;stroke-linecap:round">
    </path>
    <path d="M-437.72260888317845,104.92135787916962L-436.617191320398,97.72445402901316L-453.7859356370093,101.8010945755435z" style="fill:rgb(44,139,201)">
    </path>
    <path d="M-436.617191320398,97.72445402901316L-441.0336000525998,90.55528019537631L-453.7859356370093,101.8010945755435z" style="fill:rgb(44,139,201)">
    </path>
    <path d="M-328.28370895813237,-168.58525371853872L-320.7389269645274,-170.5237240634787L-328.8230740609239,-185.92952687198024z" style="fill:rgb(162,186,45)">
    </path>
    <path d="M-335.6693192692428,-170.07822797594872L-328.28370895813237,-168.58525371853872L-328.8230740609239,-185.92952687198024z" style="fill:rgb(162,186,45)">
    </path>
    <path d="M-328.93213744553367,-168.41865388905293L-321.3852158200396,-170.35767396663863L-329.47128081569247,-185.7654637327856z" style="fill:rgb(162,186,45)">
    </path>
    <path d="M-336.31792120245683,-169.91206406303553L-328.93213744553367,-168.41865388905293L-329.47128081569247,-185.7654637327856z" style="fill:rgb(162,186,45)">
    </path>
    <path d="M-369.65139174421137,-100.24064037810146L-372.5830918637007,-159.67871003980008" style="fill:none;stroke:rgb(162,186,45);stroke-width:5;stroke-linecap:round">
    </path>
    <path d="M-371.106895877403,-99.84846072729248L-374.04957477246785,-159.3027153663766" style="fill:none;stroke:rgb(167,41,160);stroke-width:5;stroke-linecap:round">
    </path>
    <path d="M-443.07764607603485,55.86094278956191L-446.9065699708047,58.72751662021952L-455.8866320852803,67.08496001204698z" style="fill:rgb(44,139,201)">
    </path>
    <path d="M-395.95138471306996,-57.19459887175244L-448.87410084969974,-42.524394609606" style="fill:none;stroke:rgb(44,139,201);stroke-width:5;stroke-linecap:round">
    </path>
    <path d="M-397.8178261893803,-92.65130952473041L-429.571597940997,-84.09538526905017L-446.4901755107746,44.0114546953769z" style="fill:rgb(0,0,0); fill-opacity: 0.18">
    </path>
    <path d="M-345.30166404485294,-164.21285418531278L-337.7006272543084,-166.16577799699587L-345.8351817662559,-181.6237096710324z" style="fill:rgb(167,41,160)">
    </path>
    <path d="M-352.6917443234908,-165.71729007329935L-345.30166404485294,-164.21285418531278L-345.8351817662559,-181.6237096710324z" style="fill:rgb(167,41,160)">
    </path>
    <path d="M-439.75185458441695,70.3060168057405L-438.6450580674108,63.025211832785175L-455.8866320852803,67.08496001204698z" style="fill:rgb(44,139,201)">
    </path>
    <path d="M-438.6450580674108,63.025211832785175L-443.07764607603485,55.86094278956191L-455.8866320852803,67.08496001204698z" style="fill:rgb(44,139,201)">
    </path>
    <path d="M-350.2172529474604,-162.9498987647722L-342.59992828749034,-164.90700739609488L-350.74907082236166,-180.3799891169533z" style="fill:rgb(214,94,68)">
    </path>
    <path d="M-357.6085925874091,-164.45765345352498L-350.2172529474604,-162.9498987647722L-350.74907082236166,-180.3799891169533z" style="fill:rgb(214,94,68)">
    </path>
    <path d="M-445.1386011025984,20.879602716970215L-448.97882929561644,23.834356498876748L-458.0047404741804,32.08107551000603z" style="fill:rgb(44,139,201)">
    </path>
    <path d="M-397.8178261893803,-92.65130952473041L-429.571597940997,-84.09538526905017" style="fill:none;stroke:rgb(9,54,24);stroke-width:5;stroke-linecap:round">
    </path>
    <path d="M-397.8178261893803,-92.65130952473041L-400.963118429312,-152.40229464041644" style="fill:none;stroke:rgb(70,211,116);stroke-width:5;stroke-linecap:round">
    </path>
    <path d="M-397.8178261893803,-92.65130952473041L-450.98338639775835,-78.3260662209793" style="fill:none;stroke:rgb(44,139,201);stroke-width:5;stroke-linecap:round">
    </path>
    <path d="M-400.15514389540704,-92.02152880417059L-403.3182680323227,-151.79845282231307" style="fill:none;stroke:rgb(167,41,160);stroke-width:5;stroke-linecap:round">
    </path>
    <path d="M-441.79787720960366,35.40449109519309L-440.68971671058665,28.03864007076826L-458.0047404741804,32.08107551000603z" style="fill:rgb(44,139,201)">
    </path>
    <path d="M-440.68971671058665,28.03864007076826L-445.1386011025984,20.879602716970215L-458.0047404741804,32.08107551000603z" style="fill:rgb(44,139,201)">
    </path>
    <path d="M-401.43107030732074,-91.6777356377541L-404.6039357123976,-151.4688177501204" style="fill:none;stroke:rgb(162,186,45);stroke-width:5;stroke-linecap:round">
    </path>
    <path d="M-660.8034867038184,287.0142312930335L-660.8034867038184,287.0142312930335L-506.0156202644967,258.24718430967266z" style="fill:rgb(0,0,0); fill-opacity: 0.18">
    </path>
    <path d="M-406.0284994167115,-90.43897711991582L-409.2365053653079,-150.2810633594321" style="fill:none;stroke:rgb(214,94,68);stroke-width:5;stroke-linecap:round">
    </path>
    <path d="M-372.79840310395764,-157.14815525911354L-365.10603189636055,-159.12454549554934L-373.3223497872442,-174.66662222953815z" style="fill:rgb(162,186,45)">
    </path>
    <path d="M-380.19534498100063,-158.67120268067305L-372.79840310395764,-157.14815525911354L-373.3223497872442,-174.66662222953815z" style="fill:rgb(162,186,45)">
    </path>
    <path d="M-374.2681723251648,-156.77052949714576L-366.5709037334722,-158.74817801166637L-374.7916031295473,-174.29474965364z" style="fill:rgb(167,41,160)">
    </path>
    <path d="M-381.66546842426953,-158.29457496606165L-374.2681723251648,-156.77052949714576L-374.7916031295473,-174.29474965364z" style="fill:rgb(167,41,160)">
    </path>
    <path d="M-447.2166758187549,-14.392316080467097L-451.06826448562157,-11.348014633482034L-460.14047818687607,-3.214151407384683z" style="fill:rgb(44,139,201)">
    </path>
    <path d="M-443.86088567887305,0.21321693970446554L-442.75137668680657,-7.238844974293635L-460.14047818687607,-3.214151407384683z" style="fill:rgb(44,139,201)">
    </path>
    <path d="M-442.75137668680657,-7.238844974293635L-447.2166758187549,-14.392316080467097L-460.14047818687607,-3.214151407384683z" style="fill:rgb(44,139,201)">
    </path>
    <path d="M-429.571597940997,-84.09538526905024L-432.96055521372944,-144.19840373775395" style="fill:none;stroke:rgb(167,41,160);stroke-width:5;stroke-linecap:round">
    </path>
    <path d="M-429.571597940997,-84.09538526905017L-432.96055521372944,-144.19840373775386" style="fill:none;stroke:rgb(214,94,68);stroke-width:5;stroke-linecap:round">
    </path>
    <path d="M-429.571597940997,-84.09538526905024L-432.96055521372944,-144.19840373775395" style="fill:none;stroke:rgb(162,186,45);stroke-width:5;stroke-linecap:round">
    </path>
    <path d="M-429.571597940997,-84.09538526905017L-432.96055521372944,-144.19840373775386" style="fill:none;stroke:rgb(70,211,116);stroke-width:5;stroke-linecap:round">
    </path>
    <path d="M-660.8034867038184,287.0142312930335L-660.8034867038184,287.0142312930335" style="fill:none;stroke:rgb(0,0,0);stroke-width:1;stroke-linecap:round">
    </path>
    <path d="M-449.31208442577554,-49.958449318923776L-453.17508997201276,-46.823207416629444L-462.29406624027956,-38.80437326825088z" style="fill:rgb(44,139,201)">
    </path>
    <path d="M-401.24239178630233,-149.8400808045739L-393.4549667201484,-151.84089309669542L-401.75627763746274,-167.46990694013238z" style="fill:rgb(70,211,116)">
    </path>
    <path d="M-408.64596269107017,-151.3825010573597L-401.24239178630233,-149.8400808045739L-401.75627763746274,-167.46990694013238z" style="fill:rgb(70,211,116)">
    </path>
    <path d="M-445.9410923956799,-35.271428887838L-444.8302509304265,-42.810886865671534L-462.29406624027956,-38.80437326825088z" style="fill:rgb(44,139,201)">
    </path>
    <path d="M-403.6028838515264,-149.2336028610387L-395.80754432971264,-151.23644860324612L-404.11592746546563,-166.87267225330734z" style="fill:rgb(167,41,160)">
    </path>
    <path d="M-411.00698345221235,-150.7776363043416L-403.6028838515264,-149.2336028610387L-404.11592746546563,-166.87267225330734z" style="fill:rgb(167,41,160)">
    </path>
    <path d="M-444.8302509304265,-42.810886865671534L-449.31208442577554,-49.958449318923776L-462.29406624027956,-38.80437326825088z" style="fill:rgb(44,139,201)">
    </path>
    <path d="M-404.8914701929075,-148.90252816441L-397.0918084975134,-150.9064843966645L-405.4040535587438,-166.54664354566592z" style="fill:rgb(162,186,45)">
    </path>
    <path d="M-412.29585702151456,-150.44744259914498L-404.8914701929075,-148.90252816441L-405.4040535587438,-166.54664354566592z" style="fill:rgb(162,186,45)">
    </path>
    <path d="M-409.5345695480632,-147.70958310433957L-401.71932406078815,-149.71754325856932L-410.04549175399654,-165.3718811491175z" style="fill:rgb(214,94,68)">
    </path>
    <path d="M-416.93998321408867,-149.257674051283L-409.5345695480632,-147.70958310433957L-410.04549175399654,-165.3718811491175z" style="fill:rgb(214,94,68)">
    </path>
    <path d="M-451.42504471334195,-85.82249362195824L-455.29952377030537,-82.59489284395714L-464.4657293612936,-74.69330391206597z" style="fill:rgb(44,139,201)">
    </path>
    <path d="M-448.0387133197009,-71.053130277391L-446.92655594659163,-78.68119026713158L-464.4657293612936,-74.69330391206597z" style="fill:rgb(44,139,201)">
    </path>
    <path d="M-446.92655594659163,-78.68119026713158L-451.42504471334195,-85.82249362195824L-464.4657293612936,-74.69330391206597z" style="fill:rgb(44,139,201)">
    </path>
    <path d="M-433.3128640666585,-141.60025896261934L-425.41756732088237,-143.6287865753669L-433.8152111336759,-159.35569148352735z" style="fill:rgb(167,41,160)">
    </path>
    <path d="M-433.3128640666587,-141.60025896261925L-425.41756732088265,-143.6287865753669L-433.81521113367603,-159.3556914835273z" style="fill:rgb(214,94,68)">
    </path>
    <path d="M-433.3128640666585,-141.60025896261934L-425.41756732088237,-143.6287865753669L-433.8152111336759,-159.35569148352735z" style="fill:rgb(162,186,45)">
    </path>
    <path d="M-433.3128640666587,-141.60025896261925L-425.41756732088265,-143.6287865753669L-433.81521113367603,-159.3556914835273z" style="fill:rgb(70,211,116)">
    </path>
    <path d="M-440.7233372175619,-143.16466852502347L-433.3128640666585,-141.60025896261934L-433.8152111336759,-159.35569148352735z" style="fill:rgb(167,41,160)">
    </path>
    <path d="M-440.7233372175621,-143.1646685250234L-433.3128640666587,-141.60025896261925L-433.81521113367603,-159.3556914835273z" style="fill:rgb(214,94,68)">
    </path>
    <path d="M-440.7233372175619,-143.16466852502347L-433.3128640666585,-141.60025896261934L-433.8152111336759,-159.35569148352735z" style="fill:rgb(162,186,45)">
    </path>
    <path d="M-440.7233372175621,-143.1646685250234L-433.3128640666587,-141.60025896261925L-433.81521113367603,-159.3556914835273z" style="fill:rgb(70,211,116)">
    </path>
</svg>