<svg viewBox="-1163.5 -590 2327 1180" width="2327" height="1180" style="background-color: rgb(255, 255, 255);">
    <path d="M-139.22149829031247,-11.8585151758396L-139.22149829031247,-11.8585151758396" style="fill:none;stroke:rgb(0,0,0);stroke-width:1;stroke-linecap:round">
    </path>
    <path d="M-8.764780625953742,45.66831198465309L-139.22149829031247,-11.8585151758396" style="fill:none;stroke:rgb(160,0,0);stroke-width:4;stroke-linecap:round">
    </path>
    <path d="M-8.764780625953742,45.66831198465309L-139.22149829031247,-11.8585151758396" style="fill:none;stroke:rgb(0,0,0);stroke-width:1;stroke-linecap:round">
    </path>
    <path d="M-139.22149829031247,-11.8585151758396L-265.01485691291924,26.35703319788878" style="fill:none;stroke:rgb(0,0,0);stroke-width:1;stroke-linecap:round">
    </path>
    <path d="M-8.764780625953742,45.66831198465309L-139.22149829031247,-11.8585151758396" style="fill:none;stroke:rgb(0,0,0);stroke-width:1;stroke-linecap:round">
    </path>
    <path d="M-265.01485691291924,26.35703319788878L-139.22149829031247,-11.8585151758396" style="fill:none;stroke:rgb(0,0,0);stroke-width:1;stroke-linecap:round">
    </path>
    <path d="M-8.764780625953742,45.66831198465309L-139.22149829031247,-11.8585151758396" style="fill:none;stroke:rgb(0,0,0);stroke-width:1;stroke-linecap:round">
    </path>
    <path d="M-139.22149829031247,-11.8585151758396L-265.01485691291924,26.35703319788878" style="fill:none;stroke:rgb(0,0,0);stroke-width:1;stroke-linecap:round">
    </path>
    <path d="M-8.764780625953742,45.66831198465309L-139.22149829031247,-11.8585151758396" style="fill:none;stroke:rgb(0,0,0);stroke-width:1;stroke-linecap:round">
    </path>
    <path d="M-265.01485691291924,26.35703319788878L-139.22149829031247,-11.8585151758396" style="fill:none;stroke:rgb(0,0,0);stroke-width:1;stroke-linecap:round">
    </path>
    <path d="M-8.764780625953742,45.66831198465309L-139.22149829031247,-11.8585151758396" style="fill:none;stroke:rgb(0,0,0);stroke-width:1;stroke-linecap:round">
    </path>
    <path d="M-139.22149829031247,-11.8585151758396L-588.646896494547,124.67522741213739" style="fill:none;stroke:rgb(0,0,0);stroke-width:1;stroke-linecap:round">
    </path>
    <path d="M-8.764780625953742,45.66831198465309L-139.22149829031247,-11.8585151758396" style="fill:none;stroke:rgb(0,0,0);stroke-width:1;stroke-linecap:round">
    </path>
    <path d="M-139.22149829031247,-11.8585151758396L-139.22149829031247,-11.8585151758396L-8.764780625953742,45.66831198465309z" style="fill:rgb(0,0,0); fill-opacity: 0.18">
    </path>
    <path d="M-139.22149829031247,-11.8585151758396L-265.01485691291924,26.35703319788878L-8.764780625953742,45.66831198465309z" style="fill:rgb(0,0,0); fill-opacity: 0.18">
    </path>
    <path d="M-139.22149829031247,-11.8585151758396L-265.01485691291924,26.35703319788878L-8.764780625953742,45.66831198465309z" style="fill:rgb(0,0,0); fill-opacity: 0.18">
    </path>
    <path d="M-136.44637437819742,87.37641375499172L-265.01485691291924,26.35703319788878" style="fill:none;stroke:rgb(0,0,0);stroke-width:1;stroke-linecap:round">
    </path>
    <path d="M-136.44637437819742,87.37641375499172L-265.01485691291924,26.35703319788878" style="fill:none;stroke:rgb(0,0,0);stroke-width:1;stroke-linecap:round">
    </path>
    <path d="M-136.44637437819742,87.37641375499172L-265.01485691291924,26.35703319788878" style="fill:none;stroke:rgb(0,0,0);stroke-width:1;stroke-linecap:round">
    </path>
    <path d="M-136.44637437819742,87.37641375499172L-265.01485691291924,26.35703319788878" style="fill:none;stroke:rgb(0,0,0);stroke-width:1;stroke-linecap:round">
    </path>
    <path d="M-8.764780625953742,45.66831198465309L-8.764780625953742,45.66831198465309L-139.22149829031247,-11.8585151758396z" style="fill:rgb(0,0,0); fill-opacity: 0.18">
    </path>
    <path d="M-265.01485691291924,26.35703319788878L-139.22149829031247,-11.8585151758396L-136.44637437819742,87.37641375499172z" style="fill:rgb(0,0,0); fill-opacity: 0.18">
    </path>
    <path d="M-265.01485691291924,26.35703319788878L-139.22149829031247,-11.8585151758396L-136.44637437819742,87.37641375499172z" style="fill:rgb(0,0,0); fill-opacity: 0.18">
    </path>
    <path d="M-136.44637437819742,87.37641375499172L-8.764780625953742,45.66831198465309L-139.22149829031247,-11.8585151758396z" style="fill:rgb(0,0,0); fill-opacity: 0.18">
    </path>
    <path d="M-136.44637437819742,87.37641375499172L-8.764780625953742,45.66831198465309L-139.22149829031247,-11.8585151758396z" style="fill:rgb(0,0,0); fill-opacity: 0.18">
    </path>
    <path d="M-8.764780625953625,45.66831198465312L-8.764780625953625,45.66831198465312" style="fill:none;stroke:rgb(0,0,0);stroke-width:1;stroke-linecap:round">
    </path>
    <path d="M-105.07271436401642,102.26654282964624L-8.764780625953625,45.66831198465312" style="fill:none;stroke:rgb(160,0,0);stroke-width:4;stroke-linecap:round">
    </path>
    <path d="M-108.09015848647314,-56.08778665555343L-8.764780625953625,45.66831198465312" style="fill:none;stroke:rgb(0,0,0);stroke-width:1;stroke-linecap:round">
    </path>
    <path d="M-8.764780625953625,45.66831198465312L-136.4463743781973,87.37641375499177" style="fill:none;stroke:rgb(0,0,0);stroke-width:1;stroke-linecap:round">
    </path>
    <path d="M-108.09015848647314,-56.08778665555343L-8.764780625953625,45.66831198465312" style="fill:none;stroke:rgb(0,0,0);stroke-width:1;stroke-linecap:round">
    </path>
    <path d="M-136.4463743781973,87.37641375499177L-8.764780625953625,45.66831198465312" style="fill:none;stroke:rgb(0,0,0);stroke-width:1;stroke-linecap:round">
    </path>
    <path d="M22.431005702372705,-94.69614616578787L-8.764780625953625,45.66831198465312" style="fill:none;stroke:rgb(0,0,0);stroke-width:1;stroke-linecap:round">
    </path>
    <path d="M-8.764780625953625,45.66831198465312L-136.4463743781973,87.37641375499177" style="fill:none;stroke:rgb(0,0,0);stroke-width:1;stroke-linecap:round">
    </path>
    <path d="M22.431005702372705,-94.69614616578787L-8.764780625953625,45.66831198465312" style="fill:none;stroke:rgb(0,0,0);stroke-width:1;stroke-linecap:round">
    </path>
    <path d="M-136.4463743781973,87.37641375499177L-8.764780625953625,45.66831198465312" style="fill:none;stroke:rgb(0,0,0);stroke-width:1;stroke-linecap:round">
    </path>
    <path d="M22.431005702372705,-94.69614616578787L-8.764780625953625,45.66831198465312" style="fill:none;stroke:rgb(0,0,0);stroke-width:1;stroke-linecap:round">
    </path>
    <path d="M-8.764780625953625,45.66831198465312L-466.45385693829996,195.1757077886955" style="fill:none;stroke:rgb(0,0,0);stroke-width:1;stroke-linecap:round">
    </path>
    <path d="M22.431005702372705,-94.69614616578787L-8.764780625953625,45.66831198465312" style="fill:none;stroke:rgb(0,0,0);stroke-width:1;stroke-linecap:round">
    </path>
    <path d="M-8.764780625953742,45.66831198465309L-136.44637437819742,87.37641375499172L-265.01485691291924,26.35703319788878z" style="fill:rgb(0,0,0); fill-opacity: 0.18">
    </path>
    <path d="M-8.764780625953742,45.66831198465309L-136.44637437819742,87.37641375499172L-265.01485691291924,26.35703319788878z" style="fill:rgb(0,0,0); fill-opacity: 0.18">
    </path>
    <path d="M-8.764780625953625,45.66831198465312L-136.4463743781973,87.37641375499177L22.431005702372705,-94.69614616578787z" style="fill:rgb(0,0,0); fill-opacity: 0.18">
    </path>
    <path d="M-8.764780625953625,45.66831198465312L-136.4463743781973,87.37641375499177L22.431005702372705,-94.69614616578787z" style="fill:rgb(0,0,0); fill-opacity: 0.18">
    </path>
    <path d="M-8.764780625953625,45.66831198465312L-8.764780625953625,45.66831198465312L-108.09015848647314,-56.08778665555343z" style="fill:rgb(0,0,0); fill-opacity: 0.18">
    </path>
    <path d="M-466.4538569383001,195.17570778869543L-8.764780625953742,45.66831198465309L-139.22149829031247,-11.8585151758396z" style="fill:rgb(0,0,0); fill-opacity: 0.18">
    </path>
    <path d="M-1.8060479821865003,72.6880787971104L-0.13343815780824625,80.54450095217642L2.4664785467636796,76.57255540457741z" style="fill:rgb(197,147,42)">
    </path>
    <path d="M-0.13343815780824625,80.54450095217642L5.135440390481106,82.92156935905982L2.4664785467636796,76.57255540457741z" style="fill:rgb(197,147,42)">
    </path>
    <path d="M6.726273700927126,76.51757833880197L5.135440390481106,82.92156935905982L12.977385394155917,73.05336214897548z" style="fill:rgb(197,147,42)">
    </path>
    <path d="M2.4265622032663483,70.1863868298815L-1.8060479821865003,72.6880787971104L2.4664785467636796,76.57255540457741z" style="fill:rgb(197,147,42)">
    </path>
    <path d="M2.4265622032663483,70.1863868298815L6.726273700927126,76.51757833880197L12.977385394155917,73.05336214897548z" style="fill:rgb(197,147,42)">
    </path>
    <path d="M-40.10497087527602,90.82605035629143L2.4664785467636885,76.57255540457744" style="fill:none;stroke:rgb(197,147,42);stroke-width:5;stroke-linecap:round">
    </path>
    <path d="M5.135440390481106,82.92156935905982L6.726273700927126,76.51757833880197L2.4664785467636796,76.57255540457741z" style="fill:rgb(197,147,42)">
    </path>
    <path d="M6.726273700927126,76.51757833880197L2.4265622032663483,70.1863868298815L2.4664785467636796,76.57255540457741z" style="fill:rgb(197,147,42)">
    </path>
    <path d="M-588.646896494547,124.67522741213739L-444.4253299585708,80.86125890982892" style="fill:none;stroke:rgb(0,0,0);stroke-width:1;stroke-linecap:round">
    </path>
    <path d="M-319.12036415945846,147.04817326775824L-444.4253299585708,80.86125890982892" style="fill:none;stroke:rgb(0,0,0);stroke-width:1;stroke-linecap:round">
    </path>
    <path d="M-444.4253299585708,80.86125890982892L-588.646896494547,124.67522741213739" style="fill:none;stroke:rgb(0,0,0);stroke-width:1;stroke-linecap:round">
    </path>
    <path d="M-319.12036415945846,147.04817326775824L-444.4253299585708,80.86125890982892" style="fill:none;stroke:rgb(0,0,0);stroke-width:1;stroke-linecap:round">
    </path>
    <path d="M-588.646896494547,124.67522741213739L-444.4253299585708,80.86125890982892" style="fill:none;stroke:rgb(0,0,0);stroke-width:1;stroke-linecap:round">
    </path>
    <path d="M-319.12036415945846,147.04817326775824L-444.4253299585708,80.86125890982892" style="fill:none;stroke:rgb(0,0,0);stroke-width:1;stroke-linecap:round">
    </path>
    <path d="M-444.4253299585708,80.86125890982892L-588.646896494547,124.67522741213739" style="fill:none;stroke:rgb(0,0,0);stroke-width:1;stroke-linecap:round">
    </path>
    <path d="M-319.12036415945846,147.04817326775824L-444.4253299585708,80.86125890982892" style="fill:none;stroke:rgb(0,0,0);stroke-width:1;stroke-linecap:round">
    </path>
    <path d="M-2.0135252023253516,41.96776556390443L-0.33476482558704984,49.86237570007953L2.274327393829398,45.83051976339842z" style="fill:rgb(197,147,42)">
    </path>
    <path d="M-0.33476482558704984,49.86237570007953L4.952968393780476,52.19490680677667L2.274327393829398,45.83051976339842z" style="fill:rgb(197,147,42)">
    </path>
    <path d="M6.549354907080521,45.72493414867612L4.952968393780476,52.19490680677667L12.823917113944534,42.37504316704385z" style="fill:rgb(197,147,42)">
    </path>
    <path d="M2.234119512521696,39.39770839931356L-2.0135252023253516,41.96776556390443L2.274327393829398,45.83051976339842z" style="fill:rgb(197,147,42)">
    </path>
    <path d="M2.234119512521696,39.39770839931356L6.549354907080521,45.72493414867612L12.823917113944534,42.37504316704385z" style="fill:rgb(197,147,42)">
    </path>
    <path d="M-40.45574587343344,59.82658710372443L2.2743273938294064,45.83051976339843" style="fill:none;stroke:rgb(197,147,42);stroke-width:5;stroke-linecap:round">
    </path>
    <path d="M4.952968393780476,52.19490680677667L6.549354907080521,45.72493414867612L2.274327393829398,45.83051976339842z" style="fill:rgb(197,147,42)">
    </path>
    <path d="M6.549354907080521,45.72493414867612L2.234119512521696,39.39770839931356L2.274327393829398,45.83051976339842z" style="fill:rgb(197,147,42)">
    </path>
    <path d="M35.42017110406735,-153.1404868291874L22.431005702372705,-94.69614616578787" style="fill:none;stroke:rgb(0,0,0);stroke-width:1;stroke-linecap:round">
    </path>
    <path d="M35.42017110406735,-153.1404868291874L22.431005702372705,-94.69614616578787" style="fill:none;stroke:rgb(0,0,0);stroke-width:1;stroke-linecap:round">
    </path>
    <path d="M35.42017110406735,-153.1404868291874L22.431005702372705,-94.69614616578787" style="fill:none;stroke:rgb(0,0,0);stroke-width:1;stroke-linecap:round">
    </path>
    <path d="M35.42017110406735,-153.1404868291874L22.431005702372705,-94.69614616578787" style="fill:none;stroke:rgb(0,0,0);stroke-width:1;stroke-linecap:round">
    </path>
    <path d="M-2.2225181998706462,11.023017297847186L-0.5375618749053361,18.95616473166378L2.080770786519035,14.863627139257224z" style="fill:rgb(197,147,42)">
    </path>
    <path d="M-0.5375618749053361,18.95616473166378L4.769161400659687,21.243442721913695L2.080770786519035,14.863627139257224z" style="fill:rgb(197,147,42)">
    </path>
    <path d="M-108.09015848647314,-56.08778665555343L22.431005702372705,-94.69614616578787L-8.764780625953625,45.66831198465312z" style="fill:rgb(0,0,0); fill-opacity: 0.18">
    </path>
    <path d="M6.371139943537761,14.706692149544441L4.769161400659687,21.243442721913695L12.669329121946909,11.472893727777343z" style="fill:rgb(197,147,42)">
    </path>
    <path d="M-108.09015848647314,-56.08778665555343L-136.4463743781973,87.37641375499177" style="fill:none;stroke:rgb(0,0,0);stroke-width:1;stroke-linecap:round">
    </path>
    <path d="M-108.09015848647314,-56.08778665555343L-136.4463743781973,87.37641375499177" style="fill:none;stroke:rgb(0,0,0);stroke-width:1;stroke-linecap:round">
    </path>
    <path d="M-108.09015848647314,-56.08778665555343L-136.4463743781973,87.37641375499177" style="fill:none;stroke:rgb(0,0,0);stroke-width:1;stroke-linecap:round">
    </path>
    <path d="M-108.09015848647314,-56.08778665555343L-136.4463743781973,87.37641375499177" style="fill:none;stroke:rgb(0,0,0);stroke-width:1;stroke-linecap:round">
    </path>
    <path d="M2.04026816173177,8.383660114561465L-2.2225181998706462,11.023017297847186L2.080770786519035,14.863627139257224z" style="fill:rgb(197,147,42)">
    </path>
    <path d="M2.04026816173177,8.383660114561465L6.371139943537761,14.706692149544441L12.669329121946909,11.472893727777343z" style="fill:rgb(197,147,42)">
    </path>
    <path d="M-40.80911250932062,28.598089914901905L2.080770786519044,14.86362713925723" style="fill:none;stroke:rgb(197,147,42);stroke-width:5;stroke-linecap:round">
    </path>
    <path d="M-136.4463743781973,87.37641375499177L-8.764780625953625,45.66831198465312L-108.09015848647314,-56.08778665555343z" style="fill:rgb(0,0,0); fill-opacity: 0.18">
    </path>
    <path d="M-136.4463743781973,87.37641375499177L-8.764780625953625,45.66831198465312L-108.09015848647314,-56.08778665555343z" style="fill:rgb(0,0,0); fill-opacity: 0.18">
    </path>
    <path d="M4.769161400659687,21.243442721913695L6.371139943537761,14.706692149544441L2.080770786519035,14.863627139257224z" style="fill:rgb(197,147,42)">
    </path>
    <path d="M6.371139943537761,14.706692149544441L2.04026816173177,8.383660114561465L2.080770786519035,14.863627139257224z" style="fill:rgb(197,147,42)">
    </path>
    <path d="M-42.615844434100886,-131.0704161179311L-40.10497087527602,90.82605035629143" style="fill:none;stroke:rgb(50,34,0);stroke-width:5;stroke-linecap:round">
    </path>
    <path d="M-40.10497087527602,90.82605035629143L-105.07271436401642,102.26654282964624" style="fill:none;stroke:rgb(160,0,0);stroke-width:4;stroke-linecap:round">
    </path>
    <path d="M-2.4330436465661194,-20.148634518758588L-0.741845473114078,-12.17659585262523L1.885793248325051,-16.33059853597886z" style="fill:rgb(197,147,42)">
    </path>
    <path d="M-0.741845473114078,-12.17659585262523L4.584004706734703,-9.935298983115525L1.885793248325051,-16.33059853597886z" style="fill:rgb(197,147,42)">
    </path>
    <path d="M6.191614513630747,-16.53963598786695L4.584004706734703,-9.935298983115525L12.513609119091004,-19.655544754107858z" style="fill:rgb(197,147,42)">
    </path>
    <path d="M1.844992627217982,-22.858241639347305L-2.4330436465661194,-20.148634518758588L1.885793248325051,-16.33059853597886z" style="fill:rgb(197,147,42)">
    </path>
    <path d="M-108.09015848647314,-56.08778665555343L-105.07271436401642,102.26654282964624L-8.764780625953625,45.66831198465312z" style="fill:rgb(0,0,0); fill-opacity: 0.18">
    </path>
    <path d="M1.844992627217982,-22.858241639347305L6.191614513630747,-16.53963598786695L12.513609119091004,-19.655544754107858z" style="fill:rgb(197,147,42)">
    </path>
    <path d="M-41.16509961120485,-2.861988885513192L1.88579324832506,-16.330598535978854" style="fill:none;stroke:rgb(197,147,42);stroke-width:5;stroke-linecap:round">
    </path>
    <path d="M4.584004706734703,-9.935298983115525L6.191614513630747,-16.53963598786695L1.885793248325051,-16.33059853597886z" style="fill:rgb(197,147,42)">
    </path>
    <path d="M6.191614513630747,-16.53963598786695L1.844992627217982,-22.858241639347305L1.885793248325051,-16.33059853597886z" style="fill:rgb(197,147,42)">
    </path>
    <path d="M-2.6451184595475774,-51.549694737822094L-0.9476320254569176,-43.53840620711762L1.6893790746715691,-47.754669818822826z" style="fill:rgb(197,147,42)">
    </path>
    <path d="M-0.9476320254569176,-43.53840620711762L4.397483390876164,-41.34383089388577L1.6893790746715691,-47.754669818822826z" style="fill:rgb(197,147,42)">
    </path>
    <path d="M6.01076410966036,-48.01657532268968L4.397483390876164,-41.34383089388577L12.356744625516521,-51.01276700347924z" style="fill:rgb(197,147,42)">
    </path>
    <path d="M1.6482771563625627,-54.33051710509153L-2.6451184595475774,-51.549694737822094L1.6893790746715691,-47.754669818822826z" style="fill:rgb(197,147,42)">
    </path>
    <path d="M1.6482771563625627,-54.33051710509153L6.01076410966036,-48.01657532268968L12.356744625516521,-51.01276700347924z" style="fill:rgb(197,147,42)">
    </path>
    <path d="M-41.523736436509026,-34.5562348991478L1.689379074671578,-47.75466981882281" style="fill:none;stroke:rgb(197,147,42);stroke-width:5;stroke-linecap:round">
    </path>
    <path d="M4.397483390876164,-41.34383089388577L6.01076410966036,-48.01657532268968L1.6893790746715691,-47.754669818822826z" style="fill:rgb(197,147,42)">
    </path>
    <path d="M6.01076410966036,-48.01657532268968L1.6482771563625627,-54.33051710509153L1.6893790746715691,-47.754669818822826z" style="fill:rgb(197,147,42)">
    </path>
    <path d="M22.431005702372705,-94.69614616578787L-108.09015848647314,-56.08778665555343L-136.4463743781973,87.37641375499177z" style="fill:rgb(0,0,0); fill-opacity: 0.18">
    </path>
    <path d="M22.431005702372705,-94.69614616578787L-108.09015848647314,-56.08778665555343L-136.4463743781973,87.37641375499177z" style="fill:rgb(0,0,0); fill-opacity: 0.18">
    </path>
    <path d="M-588.646896494547,124.67522741213739L-139.22149829031247,-11.8585151758396L-466.4538569383001,195.17570778869543z" style="fill:rgb(0,0,0); fill-opacity: 0.18">
    </path>
    <path d="M-108.09015848647314,-56.08778665555343L-108.09015848647314,-56.08778665555343L-8.764780625953625,45.66831198465312z" style="fill:rgb(0,0,0); fill-opacity: 0.18">
    </path>
    <path d="M-2.8587598058744916,-83.18270521643935L-1.1549381794618954,-75.13180341021489L1.4915123286977752,-79.4111364287884z" style="fill:rgb(197,147,42)">
    </path>
    <path d="M35.42017110406735,-153.1404868291874L-42.615844434100886,-131.0704161179311" style="fill:none;stroke:rgb(22,55,11);stroke-width:5;stroke-linecap:round">
    </path>
    <path d="M35.42017110406735,-153.1404868291874L35.29760321780337,-206.84377655060314" style="fill:none;stroke:rgb(109,213,75);stroke-width:5;stroke-linecap:round">
    </path>
    <path d="M-96.2687817088203,-115.89634410318956L35.42017110406735,-153.1404868291874" style="fill:none;stroke:rgb(0,44,41);stroke-width:5;stroke-linecap:round">
    </path>
    <path d="M35.42017110406735,-153.1404868291874L35.29760321780337,-206.84377655060314" style="fill:none;stroke:rgb(43,180,168);stroke-width:5;stroke-linecap:round">
    </path>
    <path d="M35.42017110406735,-153.1404868291874L-96.2687817088203,-115.89634410318956" style="fill:none;stroke:rgb(10,15,55);stroke-width:5;stroke-linecap:round">
    </path>
    <path d="M35.420171104067386,-153.1404868291874L35.297603217803406,-206.84377655060314" style="fill:none;stroke:rgb(74,87,214);stroke-width:5;stroke-linecap:round">
    </path>
    <path d="M-438.14097515257305,-19.20837981539845L35.42017110406735,-153.1404868291874" style="fill:none;stroke:rgb(40,0,38);stroke-width:5;stroke-linecap:round">
    </path>
    <path d="M35.42017110406735,-153.1404868291874L35.29760321780337,-206.84377655060314" style="fill:none;stroke:rgb(167,41,160);stroke-width:5;stroke-linecap:round">
    </path>
    <path d="M-105.07271436401642,102.26654282964624L-108.09015848647314,-56.08778665555343" style="fill:none;stroke:rgb(0,0,0);stroke-width:1;stroke-linecap:round">
    </path>
    <path d="M-1.1549381794618954,-75.13180341021489L4.209582311201018,-72.98470276893134L1.4915123286977752,-79.4111364287884z" style="fill:rgb(197,147,42)">
    </path>
    <path d="M5.8285740089884275,-79.72668832412815L4.209582311201018,-72.98470276893134L12.198722977240816,-82.60130455127226z" style="fill:rgb(197,147,42)">
    </path>
    <path d="M1.4501057633725911,-86.03572383077478L-2.8587598058744916,-83.18270521643935L1.4915123286977752,-79.4111364287884z" style="fill:rgb(197,147,42)">
    </path>
    <path d="M1.4501057633725911,-86.03572383077478L5.8285740089884275,-79.72668832412815L12.198722977240816,-82.60130455127226z" style="fill:rgb(197,147,42)">
    </path>
    <path d="M-41.88505267982732,-66.48727236229814L1.4915123286977836,-79.41113642878838" style="fill:none;stroke:rgb(197,147,42);stroke-width:5;stroke-linecap:round">
    </path>
    <path d="M-588.646896494547,124.67522741213739L-606.1000104050623,288.76717754847164" style="fill:none;stroke:rgb(0,0,0);stroke-width:1;stroke-linecap:round">
    </path>
    <path d="M-486.3539847836226,366.38983270413365L-606.1000104050623,288.76717754847164" style="fill:none;stroke:rgb(0,0,0);stroke-width:1;stroke-linecap:round">
    </path>
    <path d="M-606.1000104050623,288.76717754847164L-606.1000104050623,288.76717754847164" style="fill:none;stroke:rgb(0,0,0);stroke-width:1;stroke-linecap:round">
    </path>
    <path d="M-486.3539847836226,366.38983270413365L-606.1000104050623,288.76717754847164" style="fill:none;stroke:rgb(0,0,0);stroke-width:1;stroke-linecap:round">
    </path>
    <path d="M-486.3539847836226,366.38983270413365L-606.1000104050623,288.76717754847164" style="fill:none;stroke:rgb(0,0,0);stroke-width:1;stroke-linecap:round">
    </path>
    <path d="M-606.1000104050623,288.76717754847164L-648.8523680196821,142.9654228137446" style="fill:none;stroke:rgb(0,0,0);stroke-width:1;stroke-linecap:round">
    </path>
    <path d="M-486.3539847836226,366.38983270413365L-606.1000104050623,288.76717754847164" style="fill:none;stroke:rgb(0,0,0);stroke-width:1;stroke-linecap:round">
    </path>
    <path d="M4.209582311201018,-72.98470276893134L5.8285740089884275,-79.72668832412815L1.4915123286977752,-79.4111364287884z" style="fill:rgb(197,147,42)">
    </path>
    <path d="M5.8285740089884275,-79.72668832412815L1.4501057633725911,-86.03572383077478L1.4915123286977752,-79.4111364287884z" style="fill:rgb(197,147,42)">
    </path>
    <path d="M22.431005702372705,-94.69614616578787L-108.09015848647314,-56.08778665555343L35.42017110406735,-153.1404868291874z" style="fill:rgb(0,0,0); fill-opacity: 0.18">
    </path>
    <path d="M22.431005702372705,-94.69614616578787L-108.09015848647314,-56.08778665555343L35.42017110406735,-153.1404868291874z" style="fill:rgb(0,0,0); fill-opacity: 0.18">
    </path>
    <path d="M22.100782053227725,-149.373510053714L21.895024436106993,-203.22451215553897" style="fill:none;stroke:rgb(109,213,75);stroke-width:5;stroke-linecap:round">
    </path>
    <path d="M-3.0739851071623896,-115.05024550279221L-1.3637808294308116,-106.95936214856746L1.29217683694724,-111.30258593803353z" style="fill:rgb(197,147,42)">
    </path>
    <path d="M-42.615844434100886,-131.0704161179311L-40.10497087527602,90.82605035629143L-105.07271436401642,102.26654282964624z" style="fill:rgb(0,0,0); fill-opacity: 0.18">
    </path>
    <path d="M-1.3637808294308116,-106.95936214856746L4.020286100974892,-104.86050222975176L1.29217683694724,-111.30258593803353z" style="fill:rgb(197,147,42)">
    </path>
    <path d="M5.645029270042174,-111.6725755668475L4.020286100974892,-104.86050222975176L12.039531322750776,-114.4237264157789z" style="fill:rgb(197,147,42)">
    </path>
    <path d="M1.250462224949452,-117.97645736274752L-3.0739851071623896,-115.05024550279221L1.29217683694724,-111.30258593803353z" style="fill:rgb(197,147,42)">
    </path>
    <path d="M1.250462224949452,-117.97645736274752L5.645029270042174,-111.6725755668475L12.039531322750776,-114.4237264157789z" style="fill:rgb(197,147,42)">
    </path>
    <path d="M-42.24907848112129,-98.65776487024597L1.2921768369472488,-111.30258593803353" style="fill:none;stroke:rgb(197,147,42);stroke-width:5;stroke-linecap:round">
    </path>
    <path d="M4.020286100974892,-104.86050222975176L5.645029270042174,-111.6725755668475L1.29217683694724,-111.30258593803353z" style="fill:rgb(197,147,42)">
    </path>
    <path d="M5.645029270042174,-111.6725755668475L1.250462224949452,-117.97645736274752L1.29217683694724,-111.30258593803353z" style="fill:rgb(197,147,42)">
    </path>
    <path d="M11.640024118767796,-146.41500857571447L11.3685622874922,-200.38192116756414" style="fill:none;stroke:rgb(167,41,160);stroke-width:5;stroke-linecap:round">
    </path>
    <path d="M10.91606334897712,-146.21025868848272L10.640042301123165,-200.185189889897" style="fill:none;stroke:rgb(74,87,214);stroke-width:5;stroke-linecap:round">
    </path>
    <path d="M-96.2687817088203,-115.89634410318956L35.42017110406735,-153.1404868291874L22.431005702372705,-94.69614616578787z" style="fill:rgb(0,0,0); fill-opacity: 0.18">
    </path>
    <path d="M6.634611324556952,-144.99938255296823L6.331595622234303,-199.0217266551775" style="fill:none;stroke:rgb(43,180,168);stroke-width:5;stroke-linecap:round">
    </path>
    <path d="M-3.2908120443186544,-147.15493353735985L-1.574177121028785,-139.0236954165217L1.0913561849610676,-143.43164447641846z" style="fill:rgb(197,147,42)">
    </path>
    <path d="M35.907539649494844,-204.66472502069712L42.20308614727855,-206.36829813101127L35.266723529398064,-220.37375494448145z" style="fill:rgb(109,213,75)">
    </path>
    <path d="M35.90753964949487,-204.66472502069712L42.20308614727855,-206.36829813101127L35.266723529398064,-220.37375494448145z" style="fill:rgb(43,180,168)">
    </path>
    <path d="M35.90753964949487,-204.66472502069712L42.20308614727859,-206.3682981310113L35.2667235293981,-220.37375494448145z" style="fill:rgb(74,87,214)">
    </path>
    <path d="M35.90753964949487,-204.66472502069712L42.20308614727855,-206.36829813101127L35.266723529398064,-220.37375494448145z" style="fill:rgb(167,41,160)">
    </path>
    <path d="M28.766710558399605,-205.97430259505293L35.907539649494844,-204.66472502069712L35.266723529398064,-220.37375494448145z" style="fill:rgb(109,213,75)">
    </path>
    <path d="M28.766710558399605,-205.97430259505293L35.90753964949487,-204.66472502069712L35.266723529398064,-220.37375494448145z" style="fill:rgb(43,180,168)">
    </path>
    <path d="M28.766710558399645,-205.97430259505296L35.90753964949487,-204.66472502069712L35.2667235293981,-220.37375494448145z" style="fill:rgb(74,87,214)">
    </path>
    <path d="M28.766710558399605,-205.97430259505293L35.90753964949487,-204.66472502069712L35.266723529398064,-220.37375494448145z" style="fill:rgb(167,41,160)">
    </path>
    <path d="M-1.574177121028785,-139.0236954165217L3.8295791644228268,-136.97385546624443L1.0913561849610676,-143.43164447641846z" style="fill:rgb(197,147,42)">
    </path>
    <path d="M5.46011472822956,-143.85687644193047L3.8295791644228268,-136.97385546624443L11.879156619518646,-146.48263979912497z" style="fill:rgb(197,147,42)">
    </path>
    <path d="M1.0493300758615935,-150.15535195392698L-3.2908120443186544,-147.15493353735985L1.0913561849610676,-143.43164447641846z" style="fill:rgb(197,147,42)">
    </path>
    <path d="M1.0493300758615935,-150.15535195392698L5.46011472822956,-143.85687644193047L11.879156619518646,-146.48263979912497z" style="fill:rgb(197,147,42)">
    </path>
    <path d="M-42.615844434100886,-131.0704161179311L1.0913561849610764,-143.43164447641846" style="fill:none;stroke:rgb(197,147,42);stroke-width:5;stroke-linecap:round">
    </path>
    <path d="M3.8295791644228268,-136.97385546624443L5.46011472822956,-143.85687644193047L1.0913561849610676,-143.43164447641846z" style="fill:rgb(197,147,42)">
    </path>
    <path d="M5.46011472822956,-143.85687644193047L1.0493300758615935,-150.15535195392698L1.0913561849610676,-143.43164447641846z" style="fill:rgb(197,147,42)">
    </path>
    <path d="M-444.4253299585708,80.86125890982892L-588.646896494547,124.67522741213739L-319.12036415945846,147.04817326775824z" style="fill:rgb(0,0,0); fill-opacity: 0.18">
    </path>
    <path d="M-444.4253299585708,80.86125890982892L-588.646896494547,124.67522741213739L-319.12036415945846,147.04817326775824z" style="fill:rgb(0,0,0); fill-opacity: 0.18">
    </path>
    <path d="M22.480430227591903,-201.03135299041304L28.816212348366033,-202.7458138489834L21.843184697314914,-216.79203846009415z" style="fill:rgb(109,213,75)">
    </path>
    <path d="M15.333272669347158,-202.34955632226567L22.480430227591903,-201.03135299041304L21.843184697314914,-216.79203846009415z" style="fill:rgb(109,213,75)">
    </path>
    <path d="M-11.677051900164793,-139.82049560668827L-12.096136504392312,-194.04545784497182" style="fill:none;stroke:rgb(43,180,168);stroke-width:5;stroke-linecap:round">
    </path>
    <path d="M-12.410562290703231,-139.61304490491958L-12.83431698203775,-193.84611782515998" style="fill:none;stroke:rgb(167,41,160);stroke-width:5;stroke-linecap:round">
    </path>
    <path d="M35.42017110406735,-153.1404868291874L-42.615844434100886,-131.0704161179311L-108.09015848647314,-56.08778665555343z" style="fill:rgb(0,0,0); fill-opacity: 0.18">
    </path>
    <path d="M-108.09015848647314,-56.08778665555343L-105.07271436401642,102.26654282964624L-42.615844434100886,-131.0704161179311z" style="fill:rgb(0,0,0); fill-opacity: 0.18">
    </path>
    <path d="M-108.09015848647314,-56.08778665555343L22.431005702372705,-94.69614616578787L-96.2687817088203,-115.89634410318956z" style="fill:rgb(0,0,0); fill-opacity: 0.18">
    </path>
    <path d="M-19.540264326143255,-137.59662944614482L-20.009495276005136,-191.90851553603488" style="fill:none;stroke:rgb(74,87,214);stroke-width:5;stroke-linecap:round">
    </path>
    <path d="M11.934583417488419,-198.17764981190265L18.302056908888073,-199.90068634644433L11.300167337309807,-213.97891298357987z" style="fill:rgb(167,41,160)">
    </path>
    <path d="M4.7825288115969515,-199.50264775058278L11.934583417488419,-198.17764981190265L11.300167337309807,-213.97891298357987z" style="fill:rgb(167,41,160)">
    </path>
    <path d="M11.20471800273587,-197.98014843610338L17.574387736736806,-199.7037792732748L10.570498561070657,-213.78422015952725z" style="fill:rgb(74,87,214)">
    </path>
    <path d="M4.05232686810951,-199.3056172662869L11.20471800273587,-197.98014843610338L10.570498561070657,-213.78422015952725z" style="fill:rgb(74,87,214)">
    </path>
    <path d="M-466.4538569383001,195.17570778869543L-588.646896494547,124.67522741213739" style="fill:none;stroke:rgb(160,0,0);stroke-width:4;stroke-linecap:round">
    </path>
    <path d="M-466.4538569383001,195.17570778869543L-588.646896494547,124.67522741213739" style="fill:none;stroke:rgb(0,0,0);stroke-width:1;stroke-linecap:round">
    </path>
    <path d="M-466.4538569383001,195.17570778869543L-588.646896494547,124.67522741213739" style="fill:none;stroke:rgb(0,0,0);stroke-width:1;stroke-linecap:round">
    </path>
    <path d="M-466.4538569383001,195.17570778869543L-588.646896494547,124.67522741213739" style="fill:none;stroke:rgb(0,0,0);stroke-width:1;stroke-linecap:round">
    </path>
    <path d="M-466.4538569383001,195.17570778869543L-588.646896494547,124.67522741213739" style="fill:none;stroke:rgb(0,0,0);stroke-width:1;stroke-linecap:round">
    </path>
    <path d="M-466.4538569383001,195.17570778869543L-588.646896494547,124.67522741213739" style="fill:none;stroke:rgb(0,0,0);stroke-width:1;stroke-linecap:round">
    </path>
    <path d="M-588.646896494547,124.67522741213739L-588.646896494547,124.67522741213739" style="fill:none;stroke:rgb(0,0,0);stroke-width:1;stroke-linecap:round">
    </path>
    <path d="M-466.4538569383001,195.17570778869543L-588.646896494547,124.67522741213739" style="fill:none;stroke:rgb(0,0,0);stroke-width:1;stroke-linecap:round">
    </path>
    <path d="M-466.4538569383001,195.17570778869543L-588.646896494547,124.67522741213739" style="fill:none;stroke:rgb(160,0,0);stroke-width:4;stroke-linecap:round">
    </path>
    <path d="M-23.453618734230243,-136.48985832374632L-23.947874798984824,-190.84498612024544" style="fill:none;stroke:rgb(74,87,214);stroke-width:5;stroke-linecap:round">
    </path>
    <path d="M6.888304318312088,-196.81212810802464L13.27097033040531,-198.53927573438978L6.255249952847895,-212.63281014256813z" style="fill:rgb(43,180,168)">
    </path>
    <path d="M-0.26607071667789234,-198.14038349075224L6.888304318312088,-196.81212810802464L6.255249952847895,-212.63281014256813z" style="fill:rgb(43,180,168)">
    </path>
    <path d="M-446.4901755107746,44.0114546953769L22.431005702372705,-94.69614616578787L-8.764780625953625,45.66831198465312z" style="fill:rgb(0,0,0); fill-opacity: 0.18">
    </path>
    <path d="M-32.947278626500285,-133.80487058204727L-33.50243348780532,-188.26485026458272" style="fill:none;stroke:rgb(109,213,75);stroke-width:5;stroke-linecap:round">
    </path>
    <path d="M35.42017110406735,-153.1404868291874L-96.2687817088203,-115.89634410318956L-108.09015848647314,-56.08778665555343z" style="fill:rgb(0,0,0); fill-opacity: 0.18">
    </path>
    <path d="M-36.73622786046972,-132.7332836111035L-37.315762254639644,-187.2350898537485" style="fill:none;stroke:rgb(167,41,160);stroke-width:5;stroke-linecap:round">
    </path>
    <path d="M-606.1000104050623,288.76717754847164L-606.1000104050623,288.76717754847164L-486.3539847836226,366.38983270413365z" style="fill:rgb(0,0,0); fill-opacity: 0.18">
    </path>
    <path d="M-42.615844434100886,-131.0704161179311L-108.09015848647314,-56.08778665555343" style="fill:none;stroke:rgb(0,0,0);stroke-width:1;stroke-linecap:round">
    </path>
    <path d="M-42.615844434100886,-131.0704161179311L-43.2332948110573,-185.63710522430355" style="fill:none;stroke:rgb(109,213,75);stroke-width:5;stroke-linecap:round">
    </path>
    <path d="M-42.615844434100886,-131.0704161179311L-108.09015848647314,-56.08778665555343" style="fill:none;stroke:rgb(0,0,0);stroke-width:1;stroke-linecap:round">
    </path>
    <path d="M-11.5737001660633,-191.8163148909903L-5.135297704719143,-193.55854478483474L-12.201729631048677,-207.70805305320505z" style="fill:rgb(43,180,168)">
    </path>
    <path d="M-18.736438536795387,-193.15652176704992L-11.5737001660633,-191.8163148909903L-12.201729631048677,-207.70805305320505z" style="fill:rgb(43,180,168)">
    </path>
    <path d="M-96.2687817088203,-115.89634410318956L-108.09015848647314,-56.08778665555343" style="fill:none;stroke:rgb(0,0,0);stroke-width:1;stroke-linecap:round">
    </path>
    <path d="M-96.2687817088203,-115.89634410318956L-108.09015848647314,-56.08778665555343" style="fill:none;stroke:rgb(0,0,0);stroke-width:1;stroke-linecap:round">
    </path>
    <path d="M-12.313260167044373,-191.61619016288628L-5.872619947886284,-193.35902559336535L-12.941086934663248,-207.51077510173974z" style="fill:rgb(167,41,160)">
    </path>
    <path d="M-19.476329436312604,-192.9568769105028L-12.313260167044373,-191.61619016288628L-12.941086934663248,-207.51077510173974z" style="fill:rgb(167,41,160)">
    </path>
    <path d="M-588.646896494547,124.67522741213739L-444.4253299585708,80.86125890982892L-466.4538569383001,195.17570778869543z" style="fill:rgb(0,0,0); fill-opacity: 0.18">
    </path>
    <path d="M-588.646896494547,124.67522741213739L-444.4253299585708,80.86125890982892L-466.4538569383001,195.17570778869543z" style="fill:rgb(0,0,0); fill-opacity: 0.18">
    </path>
    <path d="M-19.50187418330391,-189.67095323344117L-13.039462456749547,-191.41968002769372L-20.12772505905415,-205.5932106979377z" style="fill:rgb(74,87,214)">
    </path>
    <path d="M-26.668143275772543,-191.01630885752462L-19.50187418330391,-189.67095323344117L-20.12772505905415,-205.5932106979377z" style="fill:rgb(74,87,214)">
    </path>
    <path d="M-55.92140055103059,-127.30735155949532L-56.62503327221133,-182.02076817529786" style="fill:none;stroke:rgb(74,87,214);stroke-width:5;stroke-linecap:round">
    </path>
    <path d="M-23.44764896487195,-188.6032276881527L-16.973271433802836,-190.35519242573898L-24.07241093451126,-204.54067555034416z" style="fill:rgb(74,87,214)">
    </path>
    <path d="M-606.1000104050623,288.76717754847164L-588.646896494547,124.67522741213739L-486.3539847836226,366.38983270413365z" style="fill:rgb(0,0,0); fill-opacity: 0.18">
    </path>
    <path d="M-30.61566165685646,-189.95114946521048L-23.44764896487195,-188.6032276881527L-24.07241093451126,-204.54067555034416z" style="fill:rgb(74,87,214)">
    </path>
    <path d="M-57.619796180809395,-126.82701294422384L-58.33446749204437,-181.5591484744687" style="fill:none;stroke:rgb(43,180,168);stroke-width:5;stroke-linecap:round">
    </path>
    <path d="M-61.341719071289795,-125.77438229915242L-62.08061065132421,-180.54753102561543" style="fill:none;stroke:rgb(167,41,160);stroke-width:5;stroke-linecap:round">
    </path>
    <path d="M-33.02020912257983,-186.01289560383293L-26.51675628918529,-187.77272811004474L-33.64231655009615,-201.98719921849585z" style="fill:rgb(109,213,75)">
    </path>
    <path d="M-40.192414255699326,-187.36705308014803L-33.02020912257983,-186.01289560383293L-33.64231655009615,-201.98719921849585z" style="fill:rgb(109,213,75)">
    </path>
    <path d="M-36.84074638614765,-184.9790592956651L-30.32567104977337,-186.74203684791192L-37.46178927891138,-200.9680738890582z" style="fill:rgb(167,41,160)">
    </path>
    <path d="M-44.01460991909496,-186.3357095328609L-36.84074638614765,-184.9790592956651L-37.46178927891138,-200.9680738890582z" style="fill:rgb(167,41,160)">
    </path>
    <path d="M-466.4538569383001,195.17570778869543L-319.12036415945846,147.04817326775824L-444.4253299585708,80.86125890982892z" style="fill:rgb(0,0,0); fill-opacity: 0.18">
    </path>
    <path d="M-466.4538569383001,195.17570778869543L-319.12036415945846,147.04817326775824L-444.4253299585708,80.86125890982892z" style="fill:rgb(0,0,0); fill-opacity: 0.18">
    </path>
    <path d="M-42.769492118067085,-183.37474236935162L-36.236360358942775,-185.14260598451227L-43.38887732710579,-199.38658712672296z" style="fill:rgb(109,213,75)">
    </path>
    <path d="M-528.0877276725039,215.3088505349411L-648.8523680196821,142.9654228137446" style="fill:none;stroke:rgb(160,0,0);stroke-width:4;stroke-linecap:round">
    </path>
    <path d="M-49.945912385855955,-184.73526542564633L-42.769492118067085,-183.37474236935162L-43.38887732710579,-199.38658712672296z" style="fill:rgb(109,213,75)">
    </path>
    <path d="M-85.18001553095465,-119.03245826737805L-86.07500835215681,-174.06802654411732" style="fill:none;stroke:rgb(43,180,168);stroke-width:5;stroke-linecap:round">
    </path>
    <path d="M-86.2318922361054,-118.73496751132008L-87.13381193645802,-173.78210469456536" style="fill:none;stroke:rgb(167,41,160);stroke-width:5;stroke-linecap:round">
    </path>
    <path d="M-56.18672799095419,-179.74404211865212L-49.61264095394744,-181.52298822048027L-56.80233600041453,-195.80756026623436z" style="fill:rgb(74,87,214)">
    </path>
    <path d="M-63.368858979020516,-181.11335002057743L-56.18672799095419,-179.74404211865212L-56.80233600041453,-195.80756026623436z" style="fill:rgb(74,87,214)">
    </path>
    <path d="M-57.89942902542152,-179.28058570079344L-51.32010487886616,-181.06094896299126L-58.51455230969056,-195.35070060675966z" style="fill:rgb(43,180,168)">
    </path>
    <path d="M-65.08228145789134,-180.65101701280298L-57.89942902542152,-179.28058570079344L-58.51455230969056,-195.35070060675966z" style="fill:rgb(43,180,168)">
    </path>
    <path d="M-588.646896494547,124.67522741213739L-588.646896494547,124.67522741213739L-466.4538569383001,195.17570778869543z" style="fill:rgb(0,0,0); fill-opacity: 0.18">
    </path>
    <path d="M-466.45385693829996,195.1757077886955L-319.12036415945835,147.0481732677583" style="fill:none;stroke:rgb(0,0,0);stroke-width:1;stroke-linecap:round">
    </path>
    <path d="M-295.2217010327874,-0.733990853674928L-319.12036415945835,147.0481732677583" style="fill:none;stroke:rgb(0,0,0);stroke-width:1;stroke-linecap:round">
    </path>
    <path d="M-319.12036415945835,147.0481732677583L-466.45385693829996,195.1757077886955" style="fill:none;stroke:rgb(0,0,0);stroke-width:1;stroke-linecap:round">
    </path>
    <path d="M-295.2217010327874,-0.733990853674928L-319.12036415945835,147.0481732677583" style="fill:none;stroke:rgb(0,0,0);stroke-width:1;stroke-linecap:round">
    </path>
    <path d="M-466.45385693829996,195.1757077886955L-319.12036415945835,147.0481732677583" style="fill:none;stroke:rgb(0,0,0);stroke-width:1;stroke-linecap:round">
    </path>
    <path d="M-295.2217010327874,-0.733990853674928L-319.12036415945835,147.0481732677583" style="fill:none;stroke:rgb(0,0,0);stroke-width:1;stroke-linecap:round">
    </path>
    <path d="M-319.12036415945835,147.0481732677583L-466.45385693829996,195.1757077886955" style="fill:none;stroke:rgb(0,0,0);stroke-width:1;stroke-linecap:round">
    </path>
    <path d="M-295.2217010327874,-0.733990853674928L-319.12036415945835,147.0481732677583" style="fill:none;stroke:rgb(0,0,0);stroke-width:1;stroke-linecap:round">
    </path>
    <path d="M-61.65274084029679,-178.2649405801201L-55.06193250919685,-180.04841145942333L-62.266799836533586,-194.34951254536165z" style="fill:rgb(167,41,160)">
    </path>
    <path d="M-68.8371683299211,-179.63783540534425L-61.65274084029679,-178.2649405801201L-62.266799836533586,-194.34951254536165z" style="fill:rgb(167,41,160)">
    </path>
    <path d="M-96.26878170882033,-115.89634410318955L-97.23696200446669,-171.05382591219615" style="fill:none;stroke:rgb(43,180,168);stroke-width:5;stroke-linecap:round">
    </path>
    <path d="M-96.2687817088203,-115.89634410318956L-97.23696200446668,-171.0538259121962" style="fill:none;stroke:rgb(74,87,214);stroke-width:5;stroke-linecap:round">
    </path>
    <path d="M-438.14097515257305,-19.20837981539845L35.42017110406735,-153.1404868291874L22.431005702372705,-94.69614616578787z" style="fill:rgb(0,0,0); fill-opacity: 0.18">
    </path>
    <path d="M-486.3539847836226,366.38983270413365L-486.3539847836226,366.38983270413365L-606.1000104050623,288.76717754847164z" style="fill:rgb(0,0,0); fill-opacity: 0.18">
    </path>
    <path d="M-111.41171669538303,-111.61363382352472L-112.48043181591035,-166.93744290528272" style="fill:none;stroke:rgb(167,41,160);stroke-width:5;stroke-linecap:round">
    </path>
    <path d="M-648.8523680196821,142.9654228137446L-606.1000104050623,288.76717754847164L-528.0877276725039,215.3088505349411z" style="fill:rgb(0,0,0); fill-opacity: 0.18">
    </path>
    <path d="M-319.12036415945846,147.04817326775824L-466.4538569383001,195.17570778869543L-588.646896494547,124.67522741213739z" style="fill:rgb(0,0,0); fill-opacity: 0.18">
    </path>
    <path d="M-319.12036415945846,147.04817326775824L-466.4538569383001,195.17570778869543L-588.646896494547,124.67522741213739z" style="fill:rgb(0,0,0); fill-opacity: 0.18">
    </path>
    <path d="M-85.69336672077127,-171.75955398349703L-79.0287630320065,-173.56299386581344L-86.30054254083764,-187.93674363975921z" style="fill:rgb(43,180,168)">
    </path>
    <path d="M-92.88768869207861,-173.14828040376347L-85.69336672077127,-171.75955398349703L-86.30054254083764,-187.93674363975921z" style="fill:rgb(43,180,168)">
    </path>
    <path d="M-86.7542226661761,-171.47248666326598L-80.08635311284363,-173.27681028761515L-87.36109210878617,-187.6537640233147z" style="fill:rgb(167,41,160)">
    </path>
    <path d="M-93.94897352464335,-172.86191378093943L-86.7542226661761,-171.47248666326598L-87.36109210878617,-187.6537640233147z" style="fill:rgb(167,41,160)">
    </path>
    <path d="M-96.87700936069251,-168.73326343295622L-90.17793644717655,-170.54603067778834L-97.48094410090663,-184.9535490387902z" style="fill:rgb(43,180,168)">
    </path>
    <path d="M-96.8770093606925,-168.73326343295622L-90.17793644717649,-170.54603067778837L-97.48094410090661,-184.95354903879021z" style="fill:rgb(74,87,214)">
    </path>
    <path d="M-104.07581982554952,-170.12938554152174L-96.87700936069251,-168.73326343295622L-97.48094410090663,-184.9535490387902z" style="fill:rgb(43,180,168)">
    </path>
    <path d="M-104.07581982554949,-170.12938554152177L-96.8770093606925,-168.73326343295622L-97.48094410090661,-184.95354903879021z" style="fill:rgb(74,87,214)">
    </path>
    <path d="M-136.8862781246618,-104.40894290991143L-138.1256553517646,-160.01214547121444" style="fill:none;stroke:rgb(167,41,160);stroke-width:5;stroke-linecap:round">
    </path>
    <path d="M-466.45385693829996,195.1757077886955L-8.764780625953625,45.66831198465312L-446.4901755107746,44.0114546953769z" style="fill:rgb(0,0,0); fill-opacity: 0.18">
    </path>
    <path d="M-288.4729987280136,163.23631503988247L-466.45385693829996,195.1757077886955" style="fill:none;stroke:rgb(160,0,0);stroke-width:4;stroke-linecap:round">
    </path>
    <path d="M-288.4729987280136,163.23631503988247L-486.3539847836224,366.38983270413365" style="fill:none;stroke:rgb(0,0,0);stroke-width:1;stroke-linecap:round">
    </path>
    <path d="M-288.4729987280136,163.23631503988247L-486.3539847836224,366.38983270413365" style="fill:none;stroke:rgb(0,0,0);stroke-width:1;stroke-linecap:round">
    </path>
    <path d="M-288.4729987280136,163.23631503988247L-466.45385693829996,195.1757077886955" style="fill:none;stroke:rgb(160,0,0);stroke-width:4;stroke-linecap:round">
    </path>
    <path d="M-288.4729987280136,163.23631503988247L-288.4729987280136,163.23631503988247" style="fill:none;stroke:rgb(0,0,0);stroke-width:1;stroke-linecap:round">
    </path>
    <path d="M-334.20239712663766,189.29383186940245L-288.4729987280136,163.23631503988247" style="fill:none;stroke:rgb(160,0,0);stroke-width:4;stroke-linecap:round">
    </path>
    <path d="M-342.8908117039542,258.1208986484724L-288.4729987280136,163.23631503988247" style="fill:none;stroke:rgb(0,0,0);stroke-width:1;stroke-linecap:round">
    </path>
    <path d="M-288.4729987280136,163.23631503988247L-660.8034867038184,287.0142312930335" style="fill:none;stroke:rgb(0,0,0);stroke-width:1;stroke-linecap:round">
    </path>
    <path d="M-342.8908117039542,258.1208986484724L-288.4729987280136,163.23631503988247" style="fill:none;stroke:rgb(0,0,0);stroke-width:1;stroke-linecap:round">
    </path>
    <path d="M-295.2217010327874,-0.733990853674928L-288.4729987280136,163.23631503988247" style="fill:none;stroke:rgb(0,0,0);stroke-width:1;stroke-linecap:round">
    </path>
    <path d="M-334.20239712663766,189.29383186940245L-288.4729987280136,163.23631503988247" style="fill:none;stroke:rgb(160,0,0);stroke-width:4;stroke-linecap:round">
    </path>
    <path d="M-486.3539847836226,366.38983270413365L-466.4538569383001,195.17570778869543L-588.646896494547,124.67522741213739z" style="fill:rgb(0,0,0); fill-opacity: 0.18">
    </path>
    <path d="M-112.1502878677452,-164.60031856786557L-105.40399762231847,-166.42586280942263L-112.74975628154857,-180.87947014137535z" style="fill:rgb(167,41,160)">
    </path>
    <path d="M-119.35511083770704,-166.00657248319925L-112.1502878677452,-164.60031856786557L-112.74975628154857,-180.87947014137535z" style="fill:rgb(167,41,160)">
    </path>
    <path d="M-528.0877276725039,215.3088505349411L-486.3539847836226,366.38983270413365L-606.1000104050623,288.76717754847164z" style="fill:rgb(0,0,0); fill-opacity: 0.18">
    </path>
    <path d="M-288.4729987280136,163.23631503988247L-288.4729987280136,163.23631503988247L-342.8908117039542,258.1208986484724z" style="fill:rgb(0,0,0); fill-opacity: 0.18">
    </path>
    <path d="M-162.66078195893226,-97.11942257437272L-164.07479049842902,-153.00477901967074" style="fill:none;stroke:rgb(167,41,160);stroke-width:5;stroke-linecap:round">
    </path>
    <path d="M-333.2361290491101,310.1054087971269L-340.18629631344044,308.0921216209023L-340.3209469330575,311.4120538681692z" style="fill:rgb(109,213,75)">
    </path>
    <path d="M-340.18629631344044,308.0921216209023L-347.3244560031003,310.66404721091106L-340.3209469330575,311.4120538681692z" style="fill:rgb(109,213,75)">
    </path>
    <path d="M-466.4538569383001,195.17570778869543L-466.4538569383001,195.17570778869543L-588.646896494547,124.67522741213739z" style="fill:rgb(0,0,0); fill-opacity: 0.18">
    </path>
    <path d="M-333.2361290491101,310.1054087971269L-336.06714641921667,313.9345593759146L-339.68365666998955,324.6275096827199z" style="fill:rgb(109,213,75)">
    </path>
    <path d="M-344.7942033922737,314.281272562686L-347.3244560031003,310.66404721091106L-339.68365666998955,324.6275096827199z" style="fill:rgb(109,213,75)">
    </path>
    <path d="M-342.8908117039542,258.1208986484724L-340.3209469330575,311.4120538681692" style="fill:none;stroke:rgb(109,213,75);stroke-width:5;stroke-linecap:round">
    </path>
    <path d="M-336.06714641921667,313.9345593759146L-333.2361290491101,310.1054087971269L-340.3209469330575,311.4120538681692z" style="fill:rgb(109,213,75)">
    </path>
    <path d="M-347.3244560031003,310.66404721091106L-344.7942033922737,314.281272562686L-340.3209469330575,311.4120538681692z" style="fill:rgb(109,213,75)">
    </path>
    <path d="M-336.06714641921667,313.9345593759146L-344.7942033922737,314.281272562686L-339.68365666998955,324.6275096827199z" style="fill:rgb(109,213,75)">
    </path>
    <path d="M-137.8461527652745,-157.64702475912188L-131.02005019150857,-159.49416619426307L-138.43800266747334,-174.02524066534744z" style="fill:rgb(167,41,160)">
    </path>
    <path d="M-145.06078551534569,-159.07040697986326L-137.8461527652745,-157.64702475912188L-138.43800266747334,-174.02524066534744z" style="fill:rgb(167,41,160)">
    </path>
    <path d="M-344.7942033922737,314.281272562686L-336.06714641921667,313.9345593759146L-340.3209469330575,311.4120538681692z" style="fill:rgb(109,213,75)">
    </path>
    <path d="M-288.4729987280136,163.23631503988247L-288.4729987280136,163.23631503988247L-466.45385693829996,195.1757077886955z" style="fill:rgb(0,0,0); fill-opacity: 0.18">
    </path>
    <path d="M-466.45385693829996,195.1757077886955L-486.3539847836224,366.38983270413365" style="fill:none;stroke:rgb(0,0,0);stroke-width:1;stroke-linecap:round">
    </path>
    <path d="M-486.3539847836224,366.38983270413365L-486.3539847836224,366.38983270413365" style="fill:none;stroke:rgb(0,0,0);stroke-width:1;stroke-linecap:round">
    </path>
    <path d="M-660.8034867038184,287.0142312930335L-486.3539847836224,366.38983270413365" style="fill:none;stroke:rgb(0,0,0);stroke-width:1;stroke-linecap:round">
    </path>
    <path d="M-486.3539847836224,366.38983270413365L-528.0877276725037,215.30885053494112" style="fill:none;stroke:rgb(0,0,0);stroke-width:1;stroke-linecap:round">
    </path>
    <path d="M-660.8034867038184,287.0142312930335L-486.3539847836224,366.38983270413365" style="fill:none;stroke:rgb(0,0,0);stroke-width:1;stroke-linecap:round">
    </path>
    <path d="M-295.2217010327874,-0.733990853674928L-295.2217010327874,-0.733990853674928L-319.12036415945835,147.0481732677583z" style="fill:rgb(0,0,0); fill-opacity: 0.18">
    </path>
    <path d="M-486.3539847836224,366.38983270413365L-466.45385693829996,195.1757077886955L-288.4729987280136,163.23631503988247z" style="fill:rgb(0,0,0); fill-opacity: 0.18">
    </path>
    <path d="M-319.12036415945835,147.0481732677583L-466.45385693829996,195.1757077886955L-295.2217010327874,-0.733990853674928z" style="fill:rgb(0,0,0); fill-opacity: 0.18">
    </path>
    <path d="M-319.12036415945835,147.0481732677583L-466.45385693829996,195.1757077886955L-295.2217010327874,-0.733990853674928z" style="fill:rgb(0,0,0); fill-opacity: 0.18">
    </path>
    <path d="M-466.45385693829996,195.1757077886955L-319.12036415945835,147.0481732677583L-295.2217010327874,-0.733990853674928z" style="fill:rgb(0,0,0); fill-opacity: 0.18">
    </path>
    <path d="M-342.8908117039542,258.1208986484724L-334.20239712663766,189.29383186940245L-288.4729987280136,163.23631503988247z" style="fill:rgb(0,0,0); fill-opacity: 0.18">
    </path>
    <path d="M-188.7405569386897,-89.74356574765692L-190.33327176521183,-145.91387600277403" style="fill:none;stroke:rgb(167,41,160);stroke-width:5;stroke-linecap:round">
    </path>
    <path d="M-342.8908117039542,258.1208986484724L-334.20239712663766,189.29383186940245" style="fill:none;stroke:rgb(50,34,0);stroke-width:5;stroke-linecap:round">
    </path>
    <path d="M-342.8908117039541,258.1208986484724L-392.36408364320664,275.39662237417883" style="fill:none;stroke:rgb(197,147,42);stroke-width:5;stroke-linecap:round">
    </path>
    <path d="M-564.5577472901535,335.52545646735445L-342.8908117039542,258.1208986484724" style="fill:none;stroke:rgb(22,55,11);stroke-width:5;stroke-linecap:round">
    </path>
    <path d="M-288.4729987280136,163.23631503988247L-295.2217010327874,-0.733990853674928L-334.20239712663766,189.29383186940245z" style="fill:rgb(0,0,0); fill-opacity: 0.18">
    </path>
    <path d="M-368.416703326428,322.8159417989418L-375.3752952748977,320.77094793615896L-375.5835869293011,324.14259240878255z" style="fill:rgb(109,213,75)">
    </path>
    <path d="M-163.84715756725336,-150.61116017812085L-156.9398179055019,-152.48028434640543L-164.4311652707101,-167.08965235722886z" style="fill:rgb(167,41,160)">
    </path>
    <path d="M-375.3752952748977,320.77094793615896L-382.62361609828434,323.3825653026444L-375.5835869293011,324.14259240878255z" style="fill:rgb(109,213,75)">
    </path>
    <path d="M-171.07132627092787,-152.05197942351805L-163.84715756725336,-150.61116017812085L-164.4311652707101,-167.08965235722886z" style="fill:rgb(167,41,160)">
    </path>
    <path d="M-368.416703326428,322.8159417989418L-371.3527812387382,326.70468350796364L-374.8841454472984,337.43892758489784z" style="fill:rgb(109,213,75)">
    </path>
    <path d="M-380.1534665969107,327.0563648150078L-382.62361609828434,323.3825653026444L-374.8841454472984,337.43892758489784z" style="fill:rgb(109,213,75)">
    </path>
    <path d="M-378.404251723726,270.52194580549815L-375.5835869293011,324.14259240878255" style="fill:none;stroke:rgb(109,213,75);stroke-width:5;stroke-linecap:round">
    </path>
    <path d="M-288.4729987280136,163.23631503988247L-295.2217010327874,-0.733990853674928L-466.45385693829996,195.1757077886955z" style="fill:rgb(0,0,0); fill-opacity: 0.18">
    </path>
    <path d="M-371.3527812387382,326.70468350796364L-368.416703326428,322.8159417989418L-375.5835869293011,324.14259240878255z" style="fill:rgb(109,213,75)">
    </path>
    <path d="M-382.62361609828434,323.3825653026444L-380.1534665969107,327.0563648150078L-375.5835869293011,324.14259240878255z" style="fill:rgb(109,213,75)">
    </path>
    <path d="M-466.45385693829996,195.1757077886955L-466.45385693829996,195.1757077886955L-288.4729987280136,163.23631503988247z" style="fill:rgb(0,0,0); fill-opacity: 0.18">
    </path>
    <path d="M-371.3527812387382,326.70468350796364L-380.1534665969107,327.0563648150078L-374.8841454472984,337.43892758489784z" style="fill:rgb(109,213,75)">
    </path>
    <path d="M-380.1534665969107,327.0563648150078L-371.3527812387382,326.70468350796364L-375.5835869293011,324.14259240878255z" style="fill:rgb(109,213,75)">
    </path>
    <path d="M-338.5580039456258,223.7976689879184L-388.11561743699,240.7478079663802" style="fill:none;stroke:rgb(197,147,42);stroke-width:5;stroke-linecap:round">
    </path>
    <path d="M-215.13105878273547,-82.2798294486303L-216.90666401066932,-138.73793367282445" style="fill:none;stroke:rgb(167,41,160);stroke-width:5;stroke-linecap:round">
    </path>
    <path d="M-334.20239712663766,189.29383186940245L-383.8445534246959,205.91469476678486" style="fill:none;stroke:rgb(197,147,42);stroke-width:5;stroke-linecap:round">
    </path>
    <path d="M-334.20239712663766,189.29383186940245L-345.18608805168196,-45.497791404718946" style="fill:none;stroke:rgb(1,31,51);stroke-width:5;stroke-linecap:round">
    </path>
    <path d="M-334.20239712663766,189.29383186940245L-383.8445534246959,205.91469476678486" style="fill:none;stroke:rgb(44,139,201);stroke-width:5;stroke-linecap:round">
    </path>
    <path d="M-190.15877007030846,-143.49124524063436L-183.16873444613253,-145.38274691307478L-190.7347054793254,-160.07124798998638z" style="fill:rgb(167,41,160)">
    </path>
    <path d="M-197.39218896755668,-144.94981765792102L-190.15877007030846,-143.49124524063436L-190.7347054793254,-160.07124798998638z" style="fill:rgb(167,41,160)">
    </path>
    <path d="M-295.2217010327874,-0.733990853674928L-466.45385693829996,195.1757077886955" style="fill:none;stroke:rgb(0,0,0);stroke-width:1;stroke-linecap:round">
    </path>
    <path d="M-295.2217010327874,-0.733990853674928L-466.45385693829996,195.1757077886955" style="fill:none;stroke:rgb(0,0,0);stroke-width:1;stroke-linecap:round">
    </path>
    <path d="M-285.2410421608798,-62.45139151456082L-295.2217010327874,-0.733990853674928" style="fill:none;stroke:rgb(0,0,0);stroke-width:1;stroke-linecap:round">
    </path>
    <path d="M-285.2410421608798,-62.45139151456082L-295.2217010327874,-0.733990853674928" style="fill:none;stroke:rgb(0,0,0);stroke-width:1;stroke-linecap:round">
    </path>
    <path d="M-345.18608805168196,-45.497791404718946L-295.2217010327874,-0.733990853674928" style="fill:none;stroke:rgb(0,0,0);stroke-width:1;stroke-linecap:round">
    </path>
    <path d="M-345.18608805168196,-45.497791404718946L-295.2217010327874,-0.733990853674928" style="fill:none;stroke:rgb(0,0,0);stroke-width:1;stroke-linecap:round">
    </path>
    <path d="M-404.1425914720337,335.7234934697694L-411.10903626018234,333.64604836294404L-411.39324398897645,337.0706153637542z" style="fill:rgb(109,213,75)">
    </path>
    <path d="M-411.10903626018234,333.64604836294404L-418.4700881624926,336.29828347395716L-411.39324398897645,337.0706153637542z" style="fill:rgb(109,213,75)">
    </path>
    <path d="M-446.4901755107746,44.0114546953769L-295.2217010327874,-0.733990853674928L-319.12036415945835,147.0481732677583z" style="fill:rgb(0,0,0); fill-opacity: 0.18">
    </path>
    <path d="M-446.4901755107746,44.0114546953769L-466.45385693829996,195.1757077886955" style="fill:none;stroke:rgb(0,0,0);stroke-width:1;stroke-linecap:round">
    </path>
    <path d="M-446.4901755107746,44.0114546953769L-466.45385693829996,195.1757077886955" style="fill:none;stroke:rgb(0,0,0);stroke-width:1;stroke-linecap:round">
    </path>
    <path d="M-446.4901755107746,44.0114546953769L-466.45385693829996,195.1757077886955" style="fill:none;stroke:rgb(0,0,0);stroke-width:1;stroke-linecap:round">
    </path>
    <path d="M-446.4901755107746,44.0114546953769L-466.45385693829996,195.1757077886955" style="fill:none;stroke:rgb(0,0,0);stroke-width:1;stroke-linecap:round">
    </path>
    <path d="M-466.45385693829996,195.1757077886955L-466.45385693829996,195.1757077886955" style="fill:none;stroke:rgb(0,0,0);stroke-width:1;stroke-linecap:round">
    </path>
    <path d="M-404.1425914720337,335.7234934697694L-407.186662521294,339.6732219642474L-410.629793693291,350.448759373338z" style="fill:rgb(109,213,75)">
    </path>
    <path d="M-416.06221975418276,340.029984530869L-418.4700881624926,336.29828347395716L-410.629793693291,350.448759373338z" style="fill:rgb(109,213,75)">
    </path>
    <path d="M-466.45385693829996,195.1757077886955L-319.12036415945835,147.0481732677583L-446.4901755107746,44.0114546953769z" style="fill:rgb(0,0,0); fill-opacity: 0.18">
    </path>
    <path d="M-414.47223475341156,283.1166355387628L-411.39324398897645,337.07061536375426" style="fill:none;stroke:rgb(109,213,75);stroke-width:5;stroke-linecap:round">
    </path>
    <path d="M-335.7344551962059,156.54396631337642L-385.5907388036601,172.8741958064048" style="fill:none;stroke:rgb(44,139,201);stroke-width:5;stroke-linecap:round">
    </path>
    <path d="M-407.186662521294,339.6732219642474L-404.1425914720337,335.7234934697694L-411.39324398897645,337.0706153637542z" style="fill:rgb(109,213,75)">
    </path>
    <path d="M-418.4700881624926,336.29828347395716L-416.06221975418276,340.029984530869L-411.39324398897645,337.0706153637542z" style="fill:rgb(109,213,75)">
    </path>
    <path d="M-407.186662521294,339.6732219642474L-416.06221975418276,340.029984530869L-410.629793693291,350.448759373338z" style="fill:rgb(109,213,75)">
    </path>
    <path d="M-416.06221975418276,340.029984530869L-407.186662521294,339.6732219642474L-411.39324398897645,337.0706153637542z" style="fill:rgb(109,213,75)">
    </path>
    <path d="M-241.8378739930435,-74.72663370818834L-243.80066637429132,-131.4754130205781" style="fill:none;stroke:rgb(167,41,160);stroke-width:5;stroke-linecap:round">
    </path>
    <path d="M-446.4901755107746,44.0114546953769L22.431005702372705,-94.69614616578787L-438.14097515257305,-19.20837981539845z" style="fill:rgb(0,0,0); fill-opacity: 0.18">
    </path>
    <path d="M-392.73180990395826,268.6282133116874L-396.5028512038117,270.9301821896171L-404.8997058086048,279.7739747660961z" style="fill:rgb(197,147,42)">
    </path>
    <path d="M-564.5577472901535,335.52545646735445L-342.8908117039542,258.1208986484724L-288.4729987280136,163.23631503988247z" style="fill:rgb(0,0,0); fill-opacity: 0.18">
    </path>
    <path d="M-216.7865894925155,-136.28576479982698L-209.71236388947176,-138.20004825685237L-217.35421589078825,-152.96853532682647z" style="fill:rgb(167,41,160)">
    </path>
    <path d="M-389.57511161383457,282.342090482769L-388.4402233509413,275.68954912162366L-404.8997058086048,279.7739747660961z" style="fill:rgb(197,147,42)">
    </path>
    <path d="M-224.02896043326726,-137.7624141885452L-216.7865894925155,-136.28576479982698L-217.35421589078825,-152.96853532682647z" style="fill:rgb(167,41,160)">
    </path>
    <path d="M-388.4402233509413,275.68954912162366L-392.73180990395826,268.6282133116874L-404.8997058086048,279.7739747660961z" style="fill:rgb(197,147,42)">
    </path>
    <path d="M-337.27861629751044,123.53538167218012L-387.3508696506368,139.56982725524546" style="fill:none;stroke:rgb(44,139,201);stroke-width:5;stroke-linecap:round">
    </path>
    <path d="M-388.4808200039819,233.932887461471L-392.2707220737318,236.31335572487458L-400.6730559407639,245.04281559199043z" style="fill:rgb(197,147,42)">
    </path>
    <path d="M-385.3180817585421,247.70221101529359L-384.1737762353461,240.97990174019208L-400.6730559407639,245.04281559199043z" style="fill:rgb(197,147,42)">
    </path>
    <path d="M-384.1737762353461,240.97990174019208L-388.4808200039819,233.932887461471L-400.6730559407639,245.04281559199043z" style="fill:rgb(197,147,42)">
    </path>
    <path d="M-334.20239712663766,189.29383186940245L-345.18608805168196,-45.497791404718946L-295.2217010327874,-0.733990853674928z" style="fill:rgb(0,0,0); fill-opacity: 0.18">
    </path>
    <path d="M-440.4265714130102,348.832680398941L-447.4002672302206,346.72201607489745L-447.7627461384661,350.2007539145354z" style="fill:rgb(109,213,75)">
    </path>
    <path d="M-447.4002672302206,346.72201607489745L-454.87670072163996,349.4158239265815L-447.7627461384661,350.2007539145354z" style="fill:rgb(109,213,75)">
    </path>
    <path d="M-268.866723797266,-67.08236045423999L-271.0211163513588,-124.1247376748625" style="fill:none;stroke:rgb(167,41,160);stroke-width:5;stroke-linecap:round">
    </path>
    <path d="M-440.4265714130102,348.832680398941L-443.5816677821894,352.8448352098473L-446.9333647906508,363.6616503536906z" style="fill:rgb(109,213,75)">
    </path>
    <path d="M-452.53337194293607,353.20679568395576L-454.87670072163996,349.4158239265815L-446.9333647906508,363.6616503536906z" style="fill:rgb(109,213,75)">
    </path>
    <path d="M-451.1078517998997,295.90953913715526L-447.7627461384661,350.2007539145354" style="fill:none;stroke:rgb(109,213,75);stroke-width:5;stroke-linecap:round">
    </path>
    <path d="M-384.2072001975942,199.05286298920004L-388.01611058028146,201.51263409828888L-396.4238631632419,210.1264171837713z" style="fill:rgb(197,147,42)">
    </path>
    <path d="M-384.2072001975942,199.05286298920004L-388.01611058028146,201.51263409828888L-396.4238631632419,210.1264171837713z" style="fill:rgb(44,139,201)">
    </path>
    <path d="M-443.5816677821894,352.8448352098473L-440.4265714130102,348.832680398941L-447.7627461384661,350.2007539145354z" style="fill:rgb(109,213,75)">
    </path>
    <path d="M-338.83502441752535,90.26500002459734L-389.12511369331474,105.99841544881983" style="fill:none;stroke:rgb(44,139,201);stroke-width:5;stroke-linecap:round">
    </path>
    <path d="M-454.87670072163996,349.4158239265815L-452.53337194293607,353.20679568395576L-447.7627461384661,350.2007539145354z" style="fill:rgb(109,213,75)">
    </path>
    <path d="M-443.5816677821894,352.8448352098473L-452.53337194293607,353.20679568395576L-446.9333647906508,363.6616503536906z" style="fill:rgb(109,213,75)">
    </path>
    <path d="M-660.8034867038184,287.0142312930335L-288.4729987280136,163.23631503988247L-486.3539847836224,366.38983270413365z" style="fill:rgb(0,0,0); fill-opacity: 0.18">
    </path>
    <path d="M-381.0384023265723,212.8780296676879L-379.8845952120881,206.08530282949206L-396.4238631632419,210.1264171837713z" style="fill:rgb(197,147,42)">
    </path>
    <path d="M-381.0384023265723,212.8780296676879L-379.8845952120881,206.08530282949206L-396.4238631632419,210.1264171837713z" style="fill:rgb(44,139,201)">
    </path>
    <path d="M-379.8845952120881,206.08530282949206L-384.2072001975942,199.05286298920004L-396.4238631632419,210.1264171837713z" style="fill:rgb(197,147,42)">
    </path>
    <path d="M-379.8845952120881,206.08530282949206L-384.2072001975942,199.05286298920004L-396.4238631632419,210.1264171837713z" style="fill:rgb(44,139,201)">
    </path>
    <path d="M-452.53337194293607,353.20679568395576L-443.5816677821894,352.8448352098473L-447.7627461384661,350.2007539145354z" style="fill:rgb(109,213,75)">
    </path>
    <path d="M-243.73635044575138,-128.993167071339L-236.5764046408389,-130.93064639086268L-244.29542427614874,-145.7799860634588z" style="fill:rgb(167,41,160)">
    </path>
    <path d="M-250.9873624144262,-130.48822511583273L-243.73635044575138,-128.993167071339L-244.29542427614874,-145.7799860634588z" style="fill:rgb(167,41,160)">
    </path>
    <path d="M-295.2217010327874,-0.733990853674928L-446.4901755107746,44.0114546953769L-466.45385693829996,195.1757077886955z" style="fill:rgb(0,0,0); fill-opacity: 0.18">
    </path>
    <path d="M-295.2217010327874,-0.733990853674928L-446.4901755107746,44.0114546953769L-466.45385693829996,195.1757077886955z" style="fill:rgb(0,0,0); fill-opacity: 0.18">
    </path>
    <path d="M-486.3539847836224,366.38983270413365L-486.3539847836224,366.38983270413365L-660.8034867038184,287.0142312930335z" style="fill:rgb(0,0,0); fill-opacity: 0.18">
    </path>
    <path d="M-285.2410421608798,-62.45139151456082L-438.14097515257305,-19.20837981539845" style="fill:none;stroke:rgb(55,17,8);stroke-width:5;stroke-linecap:round">
    </path>
    <path d="M-438.14097515257305,-19.20837981539845L-285.2410421608798,-62.45139151456082" style="fill:none;stroke:rgb(38,46,1);stroke-width:5;stroke-linecap:round">
    </path>
    <path d="M-285.2410421608798,-62.45139151456082L-287.51256284195273,-119.67134806390001" style="fill:none;stroke:rgb(162,186,45);stroke-width:5;stroke-linecap:round">
    </path>
    <path d="M-285.2410421608799,-62.45139151456079L-287.5125628419528,-119.67134806389997" style="fill:none;stroke:rgb(214,94,68);stroke-width:5;stroke-linecap:round">
    </path>
    <path d="M-385.9562771818466,165.95765043273153L-389.77664308211945,168.49671281923747L-398.22498432570654,177.01249320680384z" style="fill:rgb(44,139,201)">
    </path>
    <path d="M-340.40382583629076,56.72969443193779L-390.91364135998003,72.15673562321037" style="fill:none;stroke:rgb(44,139,201);stroke-width:5;stroke-linecap:round">
    </path>
    <path d="M-660.8034867038184,287.0142312930335L-528.0877276725037,215.30885053494112" style="fill:none;stroke:rgb(160,0,0);stroke-width:4;stroke-linecap:round">
    </path>
    <path d="M-382.7739054701776,179.85612089607446L-381.61812837102633,172.9863409093572L-398.22498432570654,177.01249320680384z" style="fill:rgb(44,139,201)">
    </path>
    <path d="M-381.61812837102633,172.9863409093572L-385.9562771818466,165.95765043273153L-398.22498432570654,177.01249320680384z" style="fill:rgb(44,139,201)">
    </path>
    <path d="M-296.2234682347217,-59.345352356112464L-298.5739940170928,-116.68429276187776" style="fill:none;stroke:rgb(167,41,160);stroke-width:5;stroke-linecap:round">
    </path>
    <path d="M-295.2217010327874,-0.733990853674928L-446.4901755107746,44.0114546953769L-285.2410421608798,-62.45139151456082z" style="fill:rgb(0,0,0); fill-opacity: 0.18">
    </path>
    <path d="M-477.28182343985617,362.14826454730587L-484.26213704067015,360.0035886906517L-484.7053256687878,363.53778519042777z" style="fill:rgb(109,213,75)">
    </path>
    <path d="M-484.26213704067015,360.0035886906517L-491.8566863783249,362.73995445372L-484.7053256687878,363.53778519042777z" style="fill:rgb(109,213,75)">
    </path>
    <path d="M-477.28182343985617,362.14826454730587L-480.5510810181931,366.2243308184001L-483.80802368101655,377.08239198126904z" style="fill:rgb(109,213,75)">
    </path>
    <path d="M-271.0139270530035,-121.61186251914336L-263.76669351317764,-123.57296187516603L-271.5641976888124,-138.50403473177838z" style="fill:rgb(167,41,160)">
    </path>
    <path d="M-489.5802397947496,366.5916094943416L-491.8566863783249,362.73995445372L-483.80802368101655,377.08239198126904z" style="fill:rgb(109,213,75)">
    </path>
    <path d="M-278.27325567320895,-123.12566902957235L-271.0139270530035,-121.61186251914336L-271.5641976888124,-138.50403473177838z" style="fill:rgb(167,41,160)">
    </path>
    <path d="M-488.32460918789474,308.9053729156672L-484.7053256687878,363.53778519042777" style="fill:none;stroke:rgb(109,213,75);stroke-width:5;stroke-linecap:round">
    </path>
    <path d="M-387.71933435731745,132.5979112693012L-391.5512176605815,135.2174552507809L-400.04052912230793,143.63338822245794z" style="fill:rgb(44,139,201)">
    </path>
    <path d="M-480.5510810181931,366.2243308184001L-477.28182343985617,362.14826454730587L-484.7053256687878,363.53778519042777z" style="fill:rgb(109,213,75)">
    </path>
    <path d="M-491.8566863783249,362.73995445372L-489.5802397947496,366.5916094943416L-484.7053256687878,363.53778519042777z" style="fill:rgb(109,213,75)">
    </path>
    <path d="M-308.41111864199166,-55.898452813157704L-310.8497389035199,-113.36932128407432" style="fill:none;stroke:rgb(214,94,68);stroke-width:5;stroke-linecap:round">
    </path>
    <path d="M-341.9851691727439,22.92628795835141L-392.71662583408846,38.04151088246722" style="fill:none;stroke:rgb(44,139,201);stroke-width:5;stroke-linecap:round">
    </path>
    <path d="M-480.5510810181931,366.2243308184001L-489.5802397947496,366.5916094943416L-483.80802368101655,377.08239198126904z" style="fill:rgb(109,213,75)">
    </path>
    <path d="M-384.5232726086172,146.57041797674438L-383.36553083497097,139.62256744183435L-400.04052912230793,143.63338822245794z" style="fill:rgb(44,139,201)">
    </path>
    <path d="M-489.5802397947496,366.5916094943416L-480.5510810181931,366.2243308184001L-484.7053256687878,363.53778519042777z" style="fill:rgb(109,213,75)">
    </path>
    <path d="M-383.36553083497097,139.62256744183435L-387.71933435731745,132.5979112693012L-400.04052912230793,143.63338822245794z" style="fill:rgb(44,139,201)">
    </path>
    <path d="M-295.2217010327874,-0.733990853674928L-446.4901755107746,44.0114546953769L-345.18608805168196,-45.497791404718946z" style="fill:rgb(0,0,0); fill-opacity: 0.18">
    </path>
    <path d="M-438.14097515257305,-19.20837981539845L-285.2410421608798,-62.45139151456082L-295.2217010327874,-0.733990853674928z" style="fill:rgb(0,0,0); fill-opacity: 0.18">
    </path>
    <path d="M-287.540321866084,-117.13982473435195L-280.23994732137845,-119.1153040313377L-288.0851872546631,-134.0958454005888z" style="fill:rgb(214,94,68)">
    </path>
    <path d="M-287.54032186608396,-117.13982473435198L-280.23994732137834,-119.1153040313377L-288.085187254663,-134.09584540058884z" style="fill:rgb(162,186,45)">
    </path>
    <path d="M-294.8044790258723,-118.66504690684579L-287.540321866084,-117.13982473435195L-288.0851872546631,-134.0958454005888z" style="fill:rgb(214,94,68)">
    </path>
    <path d="M-294.80447902587224,-118.66504690684583L-287.54032186608396,-117.13982473435198L-288.085187254663,-134.09584540058884z" style="fill:rgb(162,186,45)">
    </path>
    <path d="M-323.9141103919962,-51.5139116266427L-326.4654264065155,-109.15242372244795" style="fill:none;stroke:rgb(167,41,160);stroke-width:5;stroke-linecap:round">
    </path>
    <path d="M-528.0877276725037,215.30885053494112L-486.3539847836224,366.38983270413365L-660.8034867038184,287.0142312930335z" style="fill:rgb(0,0,0); fill-opacity: 0.18">
    </path>
    <path d="M-389.4965400098839,98.970461272647L-393.34000298857313,101.67169820713684L-401.870671509346,109.98590401407881z" style="fill:rgb(44,139,201)">
    </path>
    <path d="M-325.6436122923083,-51.0247755659161L-328.2075448129923,-108.6819779057699" style="fill:none;stroke:rgb(214,94,68);stroke-width:5;stroke-linecap:round">
    </path>
    <path d="M-343.5792054316519,-11.148447332448635L-394.53424311016744,3.6494111408652135" style="fill:none;stroke:rgb(44,139,201);stroke-width:5;stroke-linecap:round">
    </path>
    <path d="M-386.2866705360261,113.0177472705543L-385.12696971656055,105.99079168619302L-401.870671509346,109.98590401407881z" style="fill:rgb(44,139,201)">
    </path>
    <path d="M-385.12696971656055,105.99079168619302L-389.4965400098839,98.970461272647L-401.870671509346,109.98590401407881z" style="fill:rgb(44,139,201)">
    </path>
    <path d="M-298.6253372168478,-114.14022270049688L-291.28920995492786,-116.12537667269757L-299.1665467241007,-131.13907756331452z" style="fill:rgb(167,41,160)">
    </path>
    <path d="M-305.8926442353183,-115.67312586273667L-298.6253372168478,-114.14022270049688L-299.1665467241007,-131.13907756331452z" style="fill:rgb(167,41,160)">
    </path>
    <path d="M-335.2695440635182,-48.30237881888559L-337.903858897857,-106.0635620842836" style="fill:none;stroke:rgb(162,186,45);stroke-width:5;stroke-linecap:round">
    </path>
    <path d="M-335.90496390987386,-48.12266999029291L-338.5439344513635,-105.89071455257418" style="fill:none;stroke:rgb(162,186,45);stroke-width:5;stroke-linecap:round">
    </path>
    <path d="M-514.7219461696503,375.67515901462747L-521.7082113258464,373.49565399691335L-522.2346351871391,377.0866380635216z" style="fill:rgb(109,213,75)">
    </path>
    <path d="M-521.7082113258464,373.49565399691335L-529.4236978477644,376.27559421789687L-522.2346351871391,377.0866380635216z" style="fill:rgb(109,213,75)">
    </path>
    <path d="M-514.7219461696503,375.67515901462747L-518.1086088734468,379.8166693226555L-521.2673527823885,390.7159276542809z" style="fill:rgb(109,213,75)">
    </path>
    <path d="M-526.1364451617608,322.10900401264263L-522.2346351871391,377.0866380635216" style="fill:none;stroke:rgb(109,213,75);stroke-width:5;stroke-linecap:round">
    </path>
    <path d="M-518.1086088734468,379.8166693226555L-514.7219461696503,375.67515901462747L-522.2346351871391,377.0866380635216z" style="fill:rgb(109,213,75)">
    </path>
    <path d="M-391.2880651372816,65.07206490398971L-395.1431704513175,67.85622763743216L-403.71558825174657,76.06679072794816z" style="fill:rgb(44,139,201)">
    </path>
    <path d="M-529.4236978477644,376.27559421789687L-527.2165637054571,380.1893902856139L-522.2346351871391,377.0866380635216z" style="fill:rgb(109,213,75)">
    </path>
    <path d="M-518.1086088734468,379.8166693226555L-527.2165637054571,380.1893902856139L-521.2673527823885,390.7159276542809z" style="fill:rgb(109,213,75)">
    </path>
    <path d="M-345.18608805168196,-45.497791404718946L-438.14097515257305,-19.20837981539845" style="fill:none;stroke:rgb(9,54,24);stroke-width:5;stroke-linecap:round">
    </path>
    <path d="M-345.18608805168196,-45.497791404718946L-347.8931978575369,-103.36601712551996" style="fill:none;stroke:rgb(70,211,116);stroke-width:5;stroke-linecap:round">
    </path>
    <path d="M-345.18608805168196,-45.497791404718946L-396.36667205108455,-31.022947960697497" style="fill:none;stroke:rgb(44,139,201);stroke-width:5;stroke-linecap:round">
    </path>
    <path d="M-310.9273897718494,-110.81129074173036L-303.5514823818237,-112.80720920539973L-311.46451350151943,-127.85769022707416z" style="fill:rgb(214,94,68)">
    </path>
    <path d="M-318.1981089430155,-112.35274073850202L-310.9273897718494,-110.81129074173036L-311.46451350151943,-127.85769022707416z" style="fill:rgb(214,94,68)">
    </path>
    <path d="M-527.2165637054571,380.1893902856139L-518.1086088734468,379.8166693226555L-522.2346351871391,377.0866380635216z" style="fill:rgb(109,213,75)">
    </path>
    <path d="M-388.0642687328549,79.19488402507517L-386.90261482400246,72.08777143425289L-403.71558825174657,76.06679072794816z" style="fill:rgb(44,139,201)">
    </path>
    <path d="M-446.4901755107746,44.0114546953769L-295.2217010327874,-0.733990853674928L-438.14097515257305,-19.20837981539845z" style="fill:rgb(0,0,0); fill-opacity: 0.18">
    </path>
    <path d="M-386.90261482400246,72.08777143425289L-391.2880651372816,65.07206490398971L-403.71558825174657,76.06679072794816z" style="fill:rgb(44,139,201)">
    </path>
    <path d="M-351.94480079458646,-43.58629878013701L-354.70169205676217,-101.52743508540472" style="fill:none;stroke:rgb(167,41,160);stroke-width:5;stroke-linecap:round">
    </path>
    <path d="M-660.8034867038184,287.0142312930335L-288.4729987280136,163.23631503988247L-564.5577472901535,335.52545646735445z" style="fill:rgb(0,0,0); fill-opacity: 0.18">
    </path>
    <path d="M-515.4511954240589,312.31449812860933L-513.411430636215,320.9760323338525L-511.36022281091306,316.9492495626783z" style="fill:rgb(43,180,168)">
    </path>
    <path d="M-356.7609039521613,-42.224213126386644L-359.5533511203434,-100.21728148050367" style="fill:none;stroke:rgb(214,94,68);stroke-width:5;stroke-linecap:round">
    </path>
    <path d="M-513.411430636215,320.9760323338525L-508.5329573625397,324.08478046104915L-511.36022281091306,316.9492495626783z" style="fill:rgb(43,180,168)">
    </path>
    <path d="M-507.5518738205418,317.3253002356574L-508.5329573625397,324.08478046104915L-498.2443545055873,312.36927923963646z" style="fill:rgb(43,180,168)">
    </path>
    <path d="M-511.8376828789258,310.04189189025533L-515.4511954240589,312.31449812860933L-511.36022281091306,316.9492495626783z" style="fill:rgb(43,180,168)">
    </path>
    <path d="M-511.8376828789258,310.04189189025533L-507.5518738205418,317.3253002356574L-498.2443545055873,312.36927923963646z" style="fill:rgb(43,180,168)">
    </path>
    <path d="M-564.5577472901535,335.52545646735445L-511.36022281091306,316.9492495626783" style="fill:none;stroke:rgb(43,180,168);stroke-width:5;stroke-linecap:round">
    </path>
    <path d="M-326.5767470456092,-106.57657906822236L-319.1500804338276,-108.58623296301184L-327.10862993609413,-123.68347131071297z" style="fill:rgb(167,41,160)">
    </path>
    <path d="M-333.85167979441127,-108.12893570303538L-326.5767470456092,-106.57657906822236L-327.10862993609413,-123.68347131071297z" style="fill:rgb(167,41,160)">
    </path>
    <path d="M-508.5329573625397,324.08478046104915L-507.5518738205418,317.3253002356574L-511.36022281091306,316.9492495626783z" style="fill:rgb(43,180,168)">
    </path>
    <path d="M-393.09408350395177,30.899434274251472L-396.9608942010929,33.767777599166166L-405.5754589799739,41.87274582692257z" style="fill:rgb(44,139,201)">
    </path>
    <path d="M-328.3226359129762,-106.1041420321223L-320.8902956765233,-108.1153312081509L-328.8539311101109,-123.21778382968486z" style="fill:rgb(214,94,68)">
    </path>
    <path d="M-507.5518738205418,317.3253002356574L-511.8376828789258,310.04189189025533L-511.36022281091306,316.9492495626783z" style="fill:rgb(43,180,168)">
    </path>
    <path d="M-335.59802992360784,-107.65771782313989L-328.3226359129762,-106.1041420321223L-328.8539311101109,-123.21778382968486z" style="fill:rgb(214,94,68)">
    </path>
    <path d="M-389.85623942016906,45.098551341421334L-388.69263871564317,37.91021196845383L-405.5754589799739,41.87274582692257z" style="fill:rgb(44,139,201)">
    </path>
    <path d="M-285.2410421608798,-62.45139151456082L-438.14097515257305,-19.20837981539845L-446.4901755107746,44.0114546953769z" style="fill:rgb(0,0,0); fill-opacity: 0.18">
    </path>
    <path d="M-388.69263871564317,37.91021196845383L-393.09408350395177,30.899434274251472L-405.5754589799739,41.87274582692257z" style="fill:rgb(44,139,201)">
    </path>
    <path d="M-338.03998774916977,-103.47462936035835L-330.57602946110603,-105.49437437225338L-338.5680008953821,-120.62584110015393z" style="fill:rgb(162,186,45)">
    </path>
    <path d="M-345.31791673246966,-105.03499951578475L-338.03998774916977,-103.47462936035835L-338.5680008953821,-120.62584110015393z" style="fill:rgb(162,186,45)">
    </path>
    <path d="M-338.6814551571104,-103.30104846032121L-331.2154073226226,-105.3213589028905L-339.20925098818026,-120.45474046441835z" style="fill:rgb(162,186,45)">
    </path>
    <path d="M-345.95954955129247,-104.8618676497848L-338.6814551571104,-103.30104846032121L-339.20925098818026,-120.45474046441835z" style="fill:rgb(162,186,45)">
    </path>
    <path d="M-552.7609732752716,389.41843408375155L-559.7524891438895,387.2032559458256L-560.3647644393661,390.852399221953z" style="fill:rgb(109,213,75)">
    </path>
    <path d="M-559.7524891438895,387.2032559458256L-567.5918247635074,390.0278198061675L-560.3647644393661,390.852399221953z" style="fill:rgb(109,213,75)">
    </path>
    <path d="M-552.7609732752716,389.41843408375155L-556.268397583071,393.62697034648943L-559.3253686697241,404.567358784825z" style="fill:rgb(109,213,75)">
    </path>
    <path d="M-438.14097515257305,-19.20837981539845L-446.4901755107746,44.0114546953769" style="fill:none;stroke:rgb(0,0,0);stroke-width:1;stroke-linecap:round">
    </path>
    <path d="M-438.14097515257305,-19.20837981539845L-446.4901755107746,44.0114546953769" style="fill:none;stroke:rgb(0,0,0);stroke-width:1;stroke-linecap:round">
    </path>
    <path d="M-438.14097515257305,-19.20837981539845L-446.4901755107746,44.0114546953769" style="fill:none;stroke:rgb(0,0,0);stroke-width:1;stroke-linecap:round">
    </path>
    <path d="M-438.14097515257305,-19.20837981539845L-446.4901755107746,44.0114546953769" style="fill:none;stroke:rgb(0,0,0);stroke-width:1;stroke-linecap:round">
    </path>
    <path d="M-378.8821691912038,-35.96789820972701L-381.83881628484335,-94.19926122402364" style="fill:none;stroke:rgb(162,186,45);stroke-width:5;stroke-linecap:round">
    </path>
    <path d="M-564.5577472901533,335.5254564673544L-560.3647644393661,390.852399221953" style="fill:none;stroke:rgb(109,213,75);stroke-width:5;stroke-linecap:round">
    </path>
    <path d="M-524.1113691553239,281.24006122049514L-522.0575913650542,289.95911288402937L-520.009587941998,285.8593654644143z" style="fill:rgb(43,180,168)">
    </path>
    <path d="M-380.32184196133466,-35.56073134429015L-383.2892257189148,-93.80758919519224" style="fill:none;stroke:rgb(167,41,160);stroke-width:5;stroke-linecap:round">
    </path>
    <path d="M-556.268397583071,393.62697034648943L-552.7609732752716,389.41843408375155L-560.3647644393661,390.852399221953z" style="fill:rgb(109,213,75)">
    </path>
    <path d="M-394.9147716972237,-3.5507719190146076L-398.7933512133038,-0.5969707932868625L-407.45046624833367,7.400413018524728z" style="fill:rgb(44,139,201)">
    </path>
    <path d="M-567.5918247635074,390.0278198061675L-565.4565248267027,394.0052616238223L-560.3647644393661,390.852399221953z" style="fill:rgb(109,213,75)">
    </path>
    <path d="M-522.0575913650542,289.95911288402937L-517.1694908566217,293.0246718288605L-520.009587941998,285.8593654644143z" style="fill:rgb(43,180,168)">
    </path>
    <path d="M-556.268397583071,393.62697034648943L-565.4565248267027,394.0052616238223L-559.3253686697241,404.567358784825z" style="fill:rgb(109,213,75)">
    </path>
    <path d="M-382.1355308055791,-35.047785613211474L-385.11644929491905,-93.31416137520544" style="fill:none;stroke:rgb(70,211,116);stroke-width:5;stroke-linecap:round">
    </path>
    <path d="M-348.0510925160826,-100.76562722822332L-340.55449030134804,-102.79420567748738L-348.57570482300537,-117.95554986199211z" style="fill:rgb(70,211,116)">
    </path>
    <path d="M-516.1964588824347,286.18058926652617L-517.1694908566217,293.0246718288605L-506.7991045760165,281.340997584067z" style="fill:rgb(43,180,168)">
    </path>
    <path d="M-520.4969565366722,278.88834092058914L-524.1113691553239,281.24006122049514L-520.009587941998,285.8593654644143z" style="fill:rgb(43,180,168)">
    </path>
    <path d="M-355.33157576277796,-102.3330126121454L-348.0510925160826,-100.76562722822332L-348.57570482300537,-117.95554986199211z" style="fill:rgb(70,211,116)">
    </path>
    <path d="M-520.4969565366722,278.88834092058914L-516.1964588824347,286.18058926652617L-506.7991045760165,281.340997584067z" style="fill:rgb(43,180,168)">
    </path>
    <path d="M-573.594904644548,304.1870955814302L-520.009587941998,285.8593654644143" style="fill:none;stroke:rgb(43,180,168);stroke-width:5;stroke-linecap:round">
    </path>
    <path d="M-565.4565248267027,394.0052616238223L-556.268397583071,393.62697034648943L-560.3647644393661,390.852399221953z" style="fill:rgb(109,213,75)">
    </path>
    <path d="M-391.66275761527135,10.72541911591723L-390.49721675586954,3.454764994510619L-407.45046624833367,7.400413018524728z" style="fill:rgb(44,139,201)">
    </path>
    <path d="M-390.49721675586954,3.454764994510619L-394.9147716972237,-3.5507719190146076L-407.45046624833367,7.400413018524728z" style="fill:rgb(44,139,201)">
    </path>
    <path d="M-345.18608805168196,-45.497791404718946L-438.14097515257305,-19.20837981539845L-446.4901755107746,44.0114546953769z" style="fill:rgb(0,0,0); fill-opacity: 0.18">
    </path>
    <path d="M-517.1694908566217,293.0246718288605L-516.1964588824347,286.18058926652617L-520.009587941998,285.8593654644143z" style="fill:rgb(43,180,168)">
    </path>
    <path d="M-516.1964588824347,286.18058926652617L-520.4969565366722,278.88834092058914L-520.009587941998,285.8593654644143z" style="fill:rgb(43,180,168)">
    </path>
    <path d="M-354.87447544404216,-98.91922172847187L-347.3555829833932,-100.9538319120064L-355.3967584185746,-116.13553202543271z" style="fill:rgb(167,41,160)">
    </path>
    <path d="M-362.1566662800197,-100.49139756035225L-354.87447544404216,-98.91922172847187L-355.3967584185746,-116.13553202543271z" style="fill:rgb(167,41,160)">
    </path>
    <path d="M-660.8034867038184,287.0142312930335L-660.8034867038184,287.0142312930335L-486.3539847836224,366.38983270413365z" style="fill:rgb(0,0,0); fill-opacity: 0.18">
    </path>
    <path d="M-359.7367706046337,-97.60348602658947L-352.20197411212274,-99.6423998366694L-360.2573880822983,-114.83860149103056z" style="fill:rgb(214,94,68)">
    </path>
    <path d="M-367.02016176087153,-99.1790799494373L-359.7367706046337,-97.60348602658947L-360.2573880822983,-114.83860149103056z" style="fill:rgb(214,94,68)">
    </path>
    <path d="M-396.7503091848735,-38.2819494807053L-400.6407213439186,-35.241390445847735L-409.3407955947059,-27.353618843243456z" style="fill:rgb(44,139,201)">
    </path>
    <path d="M-393.4840011886831,-23.927897044116435L-392.31652717238,-31.281972452073063L-409.3407955947059,-27.353618843243456z" style="fill:rgb(44,139,201)">
    </path>
    <path d="M-532.8654409380259,249.82869930767308L-530.7974653583,258.60600991129513L-528.7528567325678,254.4319474725592z" style="fill:rgb(43,180,168)">
    </path>
    <path d="M-392.31652717238,-31.281972452073063L-396.7503091848735,-38.2819494807053L-409.3407955947059,-27.353618843243456z" style="fill:rgb(44,139,201)">
    </path>
    <path d="M-530.7974653583,258.60600991129513L-525.8998152650507,261.62725703207104L-528.7528567325678,254.4319474725592z" style="fill:rgb(43,180,168)">
    </path>
    <path d="M-524.9350682887915,254.6971273901592L-525.8998152650507,261.62725703207104L-515.4464720096229,249.97679055286386z" style="fill:rgb(43,180,168)">
    </path>
    <path d="M-529.2503215153722,247.39627671309415L-532.8654409380259,249.82869930767308L-528.7528567325678,254.4319474725592z" style="fill:rgb(43,180,168)">
    </path>
    <path d="M-529.2503215153722,247.39627671309415L-524.9350682887915,254.6971273901592L-515.4464720096229,249.97679055286386z" style="fill:rgb(43,180,168)">
    </path>
    <path d="M-582.7312860848917,272.5046530233475L-528.7528567325677,254.4319474725592" style="fill:none;stroke:rgb(43,180,168);stroke-width:5;stroke-linecap:round">
    </path>
    <path d="M-409.05169312873824,-27.43538252406064L-412.23462324678866,-85.9911048916877" style="fill:none;stroke:rgb(167,41,160);stroke-width:5;stroke-linecap:round">
    </path>
    <path d="M-410.3135275256505,-27.078511735954756L-413.50598079871395,-85.64778446089397" style="fill:none;stroke:rgb(162,186,45);stroke-width:5;stroke-linecap:round">
    </path>
    <path d="M-564.5577472901535,335.52545646735445L-660.8034867038184,287.0142312930335" style="fill:none;stroke:rgb(0,0,0);stroke-width:1;stroke-linecap:round">
    </path>
    <path d="M-582.7312860848921,272.5046530233475L-564.5577472901535,335.52545646735445" style="fill:none;stroke:rgb(0,44,41);stroke-width:5;stroke-linecap:round">
    </path>
    <path d="M-564.5577472901535,335.52545646735445L-660.8034867038184,287.0142312930335" style="fill:none;stroke:rgb(0,0,0);stroke-width:1;stroke-linecap:round">
    </path>
    <path d="M-525.8998152650507,261.62725703207104L-524.9350682887915,254.6971273901592L-528.7528567325678,254.4319474725592z" style="fill:rgb(43,180,168)">
    </path>
    <path d="M-524.9350682887915,254.6971273901592L-529.2503215153722,247.39627671309415L-528.7528567325678,254.4319474725592z" style="fill:rgb(43,180,168)">
    </path>
    <path d="M-414.86010575614495,-25.79265286234027L-418.0869116110604,-84.4107389597684" style="fill:none;stroke:rgb(214,94,68);stroke-width:5;stroke-linecap:round">
    </path>
    <path d="M-382.071375136292,-91.55974832676802L-374.46330911567946,-93.61848885052929L-382.5842820766377,-108.88126004291988z" style="fill:rgb(162,186,45)">
    </path>
    <path d="M-389.36010352743415,-93.15109059024104L-382.071375136292,-91.55974832676802L-382.5842820766377,-108.88126004291988z" style="fill:rgb(162,186,45)">
    </path>
    <path d="M-383.52499887571173,-91.16639815202754L-375.91215191916655,-93.22643239570652L-384.0374005572238,-108.49353378974706z" style="fill:rgb(167,41,160)">
    </path>
    <path d="M-390.81406459609,-92.75876808814476L-383.52499887571173,-91.16639815202754L-384.0374005572238,-108.49353378974706z" style="fill:rgb(167,41,160)">
    </path>
    <path d="M-385.3562746395739,-90.67085544576943L-377.73740252396215,-92.73252009579592L-385.86803919966604,-108.00507626117638z" style="fill:rgb(70,211,116)">
    </path>
    <path d="M-392.64576358104296,-92.26452051552688L-385.3562746395739,-90.67085544576943L-385.86803919966604,-108.00507626117638z" style="fill:rgb(70,211,116)">
    </path>
    <path d="M-423.6513565267329,-23.306319791524253L-426.9447606199996,-82.01874425060917" style="fill:none;stroke:rgb(70,211,116);stroke-width:5;stroke-linecap:round">
    </path>
    <path d="M-438.140975152573,-19.20837981539853L-441.5446466704692,-78.0761561401313" style="fill:none;stroke:rgb(167,41,160);stroke-width:5;stroke-linecap:round">
    </path>
    <path d="M-438.14097515257305,-19.20837981539845L-441.5446466704693,-78.07615614013123" style="fill:none;stroke:rgb(214,94,68);stroke-width:5;stroke-linecap:round">
    </path>
    <path d="M-438.140975152573,-19.20837981539853L-441.5446466704692,-78.0761561401313" style="fill:none;stroke:rgb(162,186,45);stroke-width:5;stroke-linecap:round">
    </path>
    <path d="M-438.14097515257305,-19.20837981539845L-441.5446466704693,-78.07615614013123" style="fill:none;stroke:rgb(70,211,116);stroke-width:5;stroke-linecap:round">
    </path>
    <path d="M-412.53495630461293,-83.31631183710104L-404.82638273217174,-85.40224967609767L-413.03718696059667,-100.75570740104415z" style="fill:rgb(167,41,160)">
    </path>
    <path d="M-419.8304975376243,-84.92926025678597L-412.53495630461293,-83.31631183710104L-413.03718696059667,-100.75570740104415z" style="fill:rgb(167,41,160)">
    </path>
    <path d="M-413.80916752738847,-82.97151063886584L-406.0963756427948,-85.05858995194363L-414.3109476149261,-100.41583804246105z" style="fill:rgb(162,186,45)">
    </path>
    <path d="M-421.1049819832124,-84.58536595496798L-413.80916752738847,-82.97151063886584L-414.3109476149261,-100.41583804246105z" style="fill:rgb(162,186,45)">
    </path>
    <path d="M-418.40039321437126,-81.729126260245L-410.6723923945717,-83.82032110690864L-418.9005471493045,-99.19122473335884z" style="fill:rgb(214,94,68)">
    </path>
    <path d="M-425.6971843261443,-83.34625140633912L-418.40039321437126,-81.729126260245L-418.9005471493045,-99.19122473335884z" style="fill:rgb(214,94,68)">
    </path>
    <path d="M-582.7312860848921,272.5046530233475L-564.5577472901535,335.52545646735445L-660.8034867038184,287.0142312930335z" style="fill:rgb(0,0,0); fill-opacity: 0.18">
    </path>
    <path d="M-582.7312860848921,272.5046530233475L-660.8034867038184,287.0142312930335" style="fill:none;stroke:rgb(160,0,0);stroke-width:4;stroke-linecap:round">
    </path>
    <path d="M-427.27820462875036,-79.32679299032147L-419.5207526725557,-81.4259573062041L-427.77520230820187,-96.8232576068435z" style="fill:rgb(70,211,116)">
    </path>
    <path d="M-434.5768495350654,-80.95025020132623L-427.27820462875036,-79.32679299032147L-427.77520230820187,-96.8232576068435z" style="fill:rgb(70,211,116)">
    </path>
    <path d="M-441.9111543239485,-75.36712092148747L-434.1050371673954,-77.47945402688948L-442.40291557776123,-92.92023900631987z" style="fill:rgb(167,41,160)">
    </path>
    <path d="M-441.91115432394855,-75.3671209214874L-434.10503716739555,-77.47945402688944L-442.40291557776123,-92.92023900631979z" style="fill:rgb(214,94,68)">
    </path>
    <path d="M-441.9111543239485,-75.36712092148747L-434.1050371673954,-77.47945402688948L-442.40291557776123,-92.92023900631987z" style="fill:rgb(162,186,45)">
    </path>
    <path d="M-441.91115432394855,-75.3671209214874L-434.10503716739555,-77.47945402688944L-442.40291557776123,-92.92023900631979z" style="fill:rgb(70,211,116)">
    </path>
    <path d="M-449.2127548932801,-77.00104197672944L-441.91115432394855,-75.3671209214874L-442.40291557776123,-92.92023900631979z" style="fill:rgb(214,94,68)">
    </path>
    <path d="M-449.2127548932801,-77.00104197672944L-441.91115432394855,-75.3671209214874L-442.40291557776123,-92.92023900631979z" style="fill:rgb(70,211,116)">
    </path>
    <path d="M-449.21275489328,-77.00104197672948L-441.9111543239485,-75.36712092148747L-442.40291557776123,-92.92023900631987z" style="fill:rgb(167,41,160)">
    </path>
    <path d="M-449.21275489328,-77.00104197672948L-441.9111543239485,-75.36712092148747L-442.40291557776123,-92.92023900631987z" style="fill:rgb(162,186,45)">
    </path>
    <path d="M-660.8034867038184,287.0142312930335L-660.8034867038184,287.0142312930335L-582.7312860848921,272.5046530233475z" style="fill:rgb(0,0,0); fill-opacity: 0.18">
    </path>
    <path d="M-660.8034867038184,287.0142312930335L-660.8034867038184,287.0142312930335" style="fill:none;stroke:rgb(0,0,0);stroke-width:1;stroke-linecap:round">
    </path>
</svg>