<svg viewBox="-1163.5 -590 2327 1180" width="2327" height="1180" style="background-color: rgb(255, 255, 255);">
    <path d="M-139.22149829031247,-11.8585151758396L-139.22149829031247,-11.8585151758396" style="fill:none;stroke:rgb(0,0,0);stroke-width:1;stroke-linecap:round">
    </path>
    <path d="M-8.764780625953742,45.66831198465309L-139.22149829031247,-11.8585151758396" style="fill:none;stroke:rgb(160,0,0);stroke-width:4;stroke-linecap:round">
    </path>
    <path d="M-8.764780625953742,45.66831198465309L-139.22149829031247,-11.8585151758396" style="fill:none;stroke:rgb(0,0,0);stroke-width:1;stroke-linecap:round">
    </path>
    <path d="M-139.22149829031247,-11.8585151758396L-265.01485691291924,26.35703319788878" style="fill:none;stroke:rgb(0,0,0);stroke-width:1;stroke-linecap:round">
    </path>
    <path d="M-8.764780625953742,45.66831198465309L-139.22149829031247,-11.8585151758396" style="fill:none;stroke:rgb(0,0,0);stroke-width:1;stroke-linecap:round">
    </path>
    <path d="M-265.01485691291924,26.35703319788878L-139.22149829031247,-11.8585151758396" style="fill:none;stroke:rgb(0,0,0);stroke-width:1;stroke-linecap:round">
    </path>
    <path d="M-8.764780625953742,45.66831198465309L-139.22149829031247,-11.8585151758396" style="fill:none;stroke:rgb(0,0,0);stroke-width:1;stroke-linecap:round">
    </path>
    <path d="M-139.22149829031247,-11.8585151758396L-265.01485691291924,26.35703319788878" style="fill:none;stroke:rgb(0,0,0);stroke-width:1;stroke-linecap:round">
    </path>
    <path d="M-8.764780625953742,45.66831198465309L-139.22149829031247,-11.8585151758396" style="fill:none;stroke:rgb(0,0,0);stroke-width:1;stroke-linecap:round">
    </path>
    <path d="M-265.01485691291924,26.35703319788878L-139.22149829031247,-11.8585151758396" style="fill:none;stroke:rgb(0,0,0);stroke-width:1;stroke-linecap:round">
    </path>
    <path d="M-8.764780625953742,45.66831198465309L-139.22149829031247,-11.8585151758396" style="fill:none;stroke:rgb(0,0,0);stroke-width:1;stroke-linecap:round">
    </path>
    <path d="M-139.22149829031247,-11.8585151758396L-588.646896494547,124.67522741213739" style="fill:none;stroke:rgb(0,0,0);stroke-width:1;stroke-linecap:round">
    </path>
    <path d="M-8.764780625953742,45.66831198465309L-139.22149829031247,-11.8585151758396" style="fill:none;stroke:rgb(0,0,0);stroke-width:1;stroke-linecap:round">
    </path>
    <path d="M-139.22149829031247,-11.8585151758396L-139.22149829031247,-11.8585151758396L-8.764780625953742,45.66831198465309z" style="fill:rgb(0,0,0); fill-opacity: 0.18">
    </path>
    <path d="M-139.22149829031247,-11.8585151758396L-265.01485691291924,26.35703319788878L-8.764780625953742,45.66831198465309z" style="fill:rgb(0,0,0); fill-opacity: 0.18">
    </path>
    <path d="M-139.22149829031247,-11.8585151758396L-265.01485691291924,26.35703319788878L-8.764780625953742,45.66831198465309z" style="fill:rgb(0,0,0); fill-opacity: 0.18">
    </path>
    <path d="M-136.44637437819742,87.37641375499172L-265.01485691291924,26.35703319788878" style="fill:none;stroke:rgb(0,0,0);stroke-width:1;stroke-linecap:round">
    </path>
    <path d="M-136.44637437819742,87.37641375499172L-265.01485691291924,26.35703319788878" style="fill:none;stroke:rgb(0,0,0);stroke-width:1;stroke-linecap:round">
    </path>
    <path d="M-136.44637437819742,87.37641375499172L-265.01485691291924,26.35703319788878" style="fill:none;stroke:rgb(0,0,0);stroke-width:1;stroke-linecap:round">
    </path>
    <path d="M-136.44637437819742,87.37641375499172L-265.01485691291924,26.35703319788878" style="fill:none;stroke:rgb(0,0,0);stroke-width:1;stroke-linecap:round">
    </path>
    <path d="M-8.764780625953742,45.66831198465309L-8.764780625953742,45.66831198465309L-139.22149829031247,-11.8585151758396z" style="fill:rgb(0,0,0); fill-opacity: 0.18">
    </path>
    <path d="M-265.01485691291924,26.35703319788878L-139.22149829031247,-11.8585151758396L-136.44637437819742,87.37641375499172z" style="fill:rgb(0,0,0); fill-opacity: 0.18">
    </path>
    <path d="M-265.01485691291924,26.35703319788878L-139.22149829031247,-11.8585151758396L-136.44637437819742,87.37641375499172z" style="fill:rgb(0,0,0); fill-opacity: 0.18">
    </path>
    <path d="M-136.44637437819742,87.37641375499172L-8.764780625953742,45.66831198465309L-139.22149829031247,-11.8585151758396z" style="fill:rgb(0,0,0); fill-opacity: 0.18">
    </path>
    <path d="M-136.44637437819742,87.37641375499172L-8.764780625953742,45.66831198465309L-139.22149829031247,-11.8585151758396z" style="fill:rgb(0,0,0); fill-opacity: 0.18">
    </path>
    <path d="M-8.764780625953625,45.66831198465312L-8.764780625953625,45.66831198465312" style="fill:none;stroke:rgb(0,0,0);stroke-width:1;stroke-linecap:round">
    </path>
    <path d="M-65.6141460725094,79.077537829812L-8.764780625953625,45.66831198465312" style="fill:none;stroke:rgb(160,0,0);stroke-width:4;stroke-linecap:round">
    </path>
    <path d="M-66.94651230895859,-13.937260686892078L-8.764780625953625,45.66831198465312" style="fill:none;stroke:rgb(0,0,0);stroke-width:1;stroke-linecap:round">
    </path>
    <path d="M-8.764780625953625,45.66831198465312L-136.4463743781973,87.37641375499177" style="fill:none;stroke:rgb(0,0,0);stroke-width:1;stroke-linecap:round">
    </path>
    <path d="M-66.94651230895859,-13.937260686892078L-8.764780625953625,45.66831198465312" style="fill:none;stroke:rgb(0,0,0);stroke-width:1;stroke-linecap:round">
    </path>
    <path d="M-136.4463743781973,87.37641375499177L-8.764780625953625,45.66831198465312" style="fill:none;stroke:rgb(0,0,0);stroke-width:1;stroke-linecap:round">
    </path>
    <path d="M9.73875974566869,-37.58778519438286L-8.764780625953625,45.66831198465312" style="fill:none;stroke:rgb(0,0,0);stroke-width:1;stroke-linecap:round">
    </path>
    <path d="M-8.764780625953625,45.66831198465312L-136.4463743781973,87.37641375499177" style="fill:none;stroke:rgb(0,0,0);stroke-width:1;stroke-linecap:round">
    </path>
    <path d="M9.73875974566869,-37.58778519438286L-8.764780625953625,45.66831198465312" style="fill:none;stroke:rgb(0,0,0);stroke-width:1;stroke-linecap:round">
    </path>
    <path d="M-136.4463743781973,87.37641375499177L-8.764780625953625,45.66831198465312" style="fill:none;stroke:rgb(0,0,0);stroke-width:1;stroke-linecap:round">
    </path>
    <path d="M9.73875974566869,-37.58778519438286L-8.764780625953625,45.66831198465312" style="fill:none;stroke:rgb(0,0,0);stroke-width:1;stroke-linecap:round">
    </path>
    <path d="M-8.764780625953625,45.66831198465312L-466.45385693829996,195.1757077886955" style="fill:none;stroke:rgb(0,0,0);stroke-width:1;stroke-linecap:round">
    </path>
    <path d="M9.73875974566869,-37.58778519438286L-8.764780625953625,45.66831198465312" style="fill:none;stroke:rgb(0,0,0);stroke-width:1;stroke-linecap:round">
    </path>
    <path d="M-8.764780625953742,45.66831198465309L-136.44637437819742,87.37641375499172L-265.01485691291924,26.35703319788878z" style="fill:rgb(0,0,0); fill-opacity: 0.18">
    </path>
    <path d="M-8.764780625953742,45.66831198465309L-136.44637437819742,87.37641375499172L-265.01485691291924,26.35703319788878z" style="fill:rgb(0,0,0); fill-opacity: 0.18">
    </path>
    <path d="M-8.764780625953625,45.66831198465312L-8.764780625953625,45.66831198465312L-66.94651230895859,-13.937260686892078z" style="fill:rgb(0,0,0); fill-opacity: 0.18">
    </path>
    <path d="M-8.764780625953625,45.66831198465312L-136.4463743781973,87.37641375499177L9.73875974566869,-37.58778519438286z" style="fill:rgb(0,0,0); fill-opacity: 0.18">
    </path>
    <path d="M-8.764780625953625,45.66831198465312L-136.4463743781973,87.37641375499177L9.73875974566869,-37.58778519438286z" style="fill:rgb(0,0,0); fill-opacity: 0.18">
    </path>
    <path d="M9.73875974566869,-37.58778519438286L-119.6330486036426,2.3118075431141025" style="fill:none;stroke:rgb(0,44,41);stroke-width:5;stroke-linecap:round">
    </path>
    <path d="M-119.6330486036426,2.3118075431141025L9.73875974566869,-37.58778519438286" style="fill:none;stroke:rgb(10,15,55);stroke-width:5;stroke-linecap:round">
    </path>
    <path d="M9.73875974566869,-37.58778519438286L9.463530607943497,-89.35646146998972" style="fill:none;stroke:rgb(74,87,214);stroke-width:5;stroke-linecap:round">
    </path>
    <path d="M9.73875974566869,-37.58778519438286L-119.6330486036426,2.3118075431141025" style="fill:none;stroke:rgb(40,0,38);stroke-width:5;stroke-linecap:round">
    </path>
    <path d="M-454.6275770394538,105.627556348212L9.73875974566869,-37.58778519438286" style="fill:none;stroke:rgb(55,17,8);stroke-width:5;stroke-linecap:round">
    </path>
    <path d="M9.73875974566869,-37.58778519438286L9.463530607943497,-89.35646146998972" style="fill:none;stroke:rgb(214,94,68);stroke-width:5;stroke-linecap:round">
    </path>
    <path d="M9.738759745668721,-37.58778519438286L9.463530607943529,-89.35646146998972" style="fill:none;stroke:rgb(43,180,168);stroke-width:5;stroke-linecap:round">
    </path>
    <path d="M9.738759745668721,-37.58778519438286L9.463530607943529,-89.35646146998972" style="fill:none;stroke:rgb(167,41,160);stroke-width:5;stroke-linecap:round">
    </path>
    <path d="M-66.94651230895859,-13.937260686892078L-65.6141460725094,79.077537829812L-8.764780625953625,45.66831198465312z" style="fill:rgb(0,0,0); fill-opacity: 0.18">
    </path>
    <path d="M-4.536848269567659,-33.18504124919388L-4.899732078823944,-85.10268205674436" style="fill:none;stroke:rgb(43,180,168);stroke-width:5;stroke-linecap:round">
    </path>
    <path d="M-466.4538569383001,195.17570778869543L-8.764780625953742,45.66831198465309L-139.22149829031247,-11.8585151758396z" style="fill:rgb(0,0,0); fill-opacity: 0.18">
    </path>
    <path d="M-119.6330486036426,2.3118075431141025L9.73875974566869,-37.58778519438286L-8.764780625953625,45.66831198465312z" style="fill:rgb(0,0,0); fill-opacity: 0.18">
    </path>
    <path d="M-13.636661299139819,-30.378565568750712L-14.055725728769724,-82.39107132140451" style="fill:none;stroke:rgb(214,94,68);stroke-width:5;stroke-linecap:round">
    </path>
    <path d="M-14.348205862113652,-30.15911792679937L-14.771673291099711,-82.17903850768955" style="fill:none;stroke:rgb(167,41,160);stroke-width:5;stroke-linecap:round">
    </path>
    <path d="M-588.646896494547,124.67522741213739L-444.4253299585708,80.86125890982892" style="fill:none;stroke:rgb(0,0,0);stroke-width:1;stroke-linecap:round">
    </path>
    <path d="M-319.12036415945846,147.04817326775824L-444.4253299585708,80.86125890982892" style="fill:none;stroke:rgb(0,0,0);stroke-width:1;stroke-linecap:round">
    </path>
    <path d="M-444.4253299585708,80.86125890982892L-588.646896494547,124.67522741213739" style="fill:none;stroke:rgb(0,0,0);stroke-width:1;stroke-linecap:round">
    </path>
    <path d="M-319.12036415945846,147.04817326775824L-444.4253299585708,80.86125890982892" style="fill:none;stroke:rgb(0,0,0);stroke-width:1;stroke-linecap:round">
    </path>
    <path d="M-588.646896494547,124.67522741213739L-444.4253299585708,80.86125890982892" style="fill:none;stroke:rgb(0,0,0);stroke-width:1;stroke-linecap:round">
    </path>
    <path d="M-319.12036415945846,147.04817326775824L-444.4253299585708,80.86125890982892" style="fill:none;stroke:rgb(0,0,0);stroke-width:1;stroke-linecap:round">
    </path>
    <path d="M-444.4253299585708,80.86125890982892L-588.646896494547,124.67522741213739" style="fill:none;stroke:rgb(0,0,0);stroke-width:1;stroke-linecap:round">
    </path>
    <path d="M-319.12036415945846,147.04817326775824L-444.4253299585708,80.86125890982892" style="fill:none;stroke:rgb(0,0,0);stroke-width:1;stroke-linecap:round">
    </path>
    <path d="M-18.55611487011491,-28.861355625739385L-19.005650414595742,-80.92511694983405" style="fill:none;stroke:rgb(74,87,214);stroke-width:5;stroke-linecap:round">
    </path>
    <path d="M-66.94651230895859,-13.937260686892078L-65.6141460725094,79.077537829812" style="fill:none;stroke:rgb(50,34,0);stroke-width:5;stroke-linecap:round">
    </path>
    <path d="M-65.6141460725094,79.077537829812L-108.93413225545324,93.37757557065098" style="fill:none;stroke:rgb(197,147,42);stroke-width:5;stroke-linecap:round">
    </path>
    <path d="M10.009710083594088,-87.00158119240103L16.19828694676323,-88.83805176896347L9.394201819225488,-102.39672184862538z" style="fill:rgb(43,180,168)">
    </path>
    <path d="M10.009710083594088,-87.00158119240103L16.198286946763194,-88.83805176896347L9.394201819225456,-102.39672184862535z" style="fill:rgb(74,87,214)">
    </path>
    <path d="M10.009710083594088,-87.00158119240103L16.19828694676323,-88.83805176896347L9.394201819225488,-102.39672184862538z" style="fill:rgb(167,41,160)">
    </path>
    <path d="M10.009710083594088,-87.00158119240103L16.198286946763194,-88.83805176896347L9.394201819225456,-102.39672184862535z" style="fill:rgb(214,94,68)">
    </path>
    <path d="M3.0641082917810945,-88.4213509956862L10.009710083594088,-87.00158119240103L9.394201819225488,-102.39672184862538z" style="fill:rgb(43,180,168)">
    </path>
    <path d="M3.064108291781077,-88.4213509956862L10.009710083594088,-87.00158119240103L9.394201819225456,-102.39672184862535z" style="fill:rgb(74,87,214)">
    </path>
    <path d="M3.0641082917810945,-88.4213509956862L10.009710083594088,-87.00158119240103L9.394201819225488,-102.39672184862538z" style="fill:rgb(167,41,160)">
    </path>
    <path d="M3.064108291781077,-88.4213509956862L10.009710083594088,-87.00158119240103L9.394201819225456,-102.39672184862535z" style="fill:rgb(214,94,68)">
    </path>
    <path d="M-136.4463743781973,87.37641375499177L-8.764780625953625,45.66831198465312L-119.6330486036426,2.3118075431141025z" style="fill:rgb(0,0,0); fill-opacity: 0.18">
    </path>
    <path d="M-136.4463743781973,87.37641375499177L-8.764780625953625,45.66831198465312L-119.6330486036426,2.3118075431141025z" style="fill:rgb(0,0,0); fill-opacity: 0.18">
    </path>
    <path d="M-119.6330486036426,2.3118075431141025L-66.94651230895859,-13.937260686892078L-8.764780625953625,45.66831198465312z" style="fill:rgb(0,0,0); fill-opacity: 0.18">
    </path>
    <path d="M-66.05502672205728,48.29889479176931L-109.53914540046212,62.34091995669117" style="fill:none;stroke:rgb(197,147,42);stroke-width:5;stroke-linecap:round">
    </path>
    <path d="M-4.379423140777447,-82.7315817445372L1.8512851661638152,-84.58055489778992L-4.991142960866586,-98.18080022772727z" style="fill:rgb(43,180,168)">
    </path>
    <path d="M-11.331397002434162,-84.16128388390455L-4.379423140777447,-82.7315817445372L-4.991142960866586,-98.18080022772727z" style="fill:rgb(43,180,168)">
    </path>
    <path d="M-36.55102705562631,-23.311540123351786L-37.11261680431736,-75.56261383723117" style="fill:none;stroke:rgb(74,87,214);stroke-width:5;stroke-linecap:round">
    </path>
    <path d="M-37.271774753738505,-23.089254140121813L-37.837872014881505,-75.34782449922865" style="fill:none;stroke:rgb(214,94,68);stroke-width:5;stroke-linecap:round">
    </path>
    <path d="M-119.6330486036426,2.3118075431141025L-136.4463743781973,87.37641375499177" style="fill:none;stroke:rgb(0,0,0);stroke-width:1;stroke-linecap:round">
    </path>
    <path d="M-119.6330486036426,2.3118075431141025L-136.4463743781973,87.37641375499177" style="fill:none;stroke:rgb(0,0,0);stroke-width:1;stroke-linecap:round">
    </path>
    <path d="M-119.6330486036426,2.3118075431141025L-136.4463743781973,87.37641375499177" style="fill:none;stroke:rgb(0,0,0);stroke-width:1;stroke-linecap:round">
    </path>
    <path d="M-119.6330486036426,2.3118075431141025L-136.4463743781973,87.37641375499177" style="fill:none;stroke:rgb(0,0,0);stroke-width:1;stroke-linecap:round">
    </path>
    <path d="M-44.27712443644905,-20.928732439990593L-44.887110657848346,-73.26014380491598" style="fill:none;stroke:rgb(167,41,160);stroke-width:5;stroke-linecap:round">
    </path>
    <path d="M-13.552006282635526,-80.00960229376108L-7.294366126488466,-81.86656751849203L-14.161290299467534,-95.49329964830902z" style="fill:rgb(214,94,68)">
    </path>
    <path d="M-20.507981177744615,-81.44565399493878L-13.552006282635526,-80.00960229376108L-14.161290299467534,-95.49329964830902z" style="fill:rgb(214,94,68)">
    </path>
    <path d="M-14.269254269720209,-79.79675774912614L-8.009505739199135,-81.65434863749313L-14.878347136838094,-95.28315137099646z" style="fill:rgb(167,41,160)">
    </path>
    <path d="M-21.225540024423132,-81.2333065447432L-14.269254269720209,-79.79675774912614L-14.878347136838094,-95.28315137099646z" style="fill:rgb(167,41,160)">
    </path>
    <path d="M-48.03232192312812,-19.770591015834146L-48.66589287531478,-72.14103136129238" style="fill:none;stroke:rgb(43,180,168);stroke-width:5;stroke-linecap:round">
    </path>
    <path d="M-48.12199355456579,-19.742935364884218L-48.75612819094235,-72.11430754955578" style="fill:none;stroke:rgb(167,41,160);stroke-width:5;stroke-linecap:round">
    </path>
    <path d="M-18.5109314024934,-78.5380329369685L-12.238707071273083,-80.3993260401435L-19.118891819920666,-94.04037239787563z" style="fill:rgb(74,87,214)">
    </path>
    <path d="M-25.469049594212446,-79.97752321603613L-18.5109314024934,-78.5380329369685L-19.118891819920666,-94.04037239787563z" style="fill:rgb(74,87,214)">
    </path>
    <path d="M-66.4991369287479,17.294790766565548L-110.14863531992174,31.074609651695837" style="fill:none;stroke:rgb(197,147,42);stroke-width:5;stroke-linecap:round">
    </path>
    <path d="M9.73875974566869,-37.58778519438286L-119.6330486036426,2.3118075431141025L-136.4463743781973,87.37641375499177z" style="fill:rgb(0,0,0); fill-opacity: 0.18">
    </path>
    <path d="M9.73875974566869,-37.58778519438286L-119.6330486036426,2.3118075431141025L-136.4463743781973,87.37641375499177z" style="fill:rgb(0,0,0); fill-opacity: 0.18">
    </path>
    <path d="M-54.4880930276275,-17.779564986573284L-55.1623047312499,-70.21707413685208" style="fill:none;stroke:rgb(43,180,168);stroke-width:5;stroke-linecap:round">
    </path>
    <path d="M-61.17093242367534,-15.718508767026135L-61.88734075955814,-68.22540828526905" style="fill:none;stroke:rgb(214,94,68);stroke-width:5;stroke-linecap:round">
    </path>
    <path d="M-109.05980991326909,86.93041947796411L-113.12500317696616,89.42850542867257L-119.90063709472723,96.99764674113658z" style="fill:rgb(197,147,42)">
    </path>
    <path d="M-66.94651230895859,-13.93726068689206L-110.76265188696274,-0.42391379317528116" style="fill:none;stroke:rgb(197,147,42);stroke-width:5;stroke-linecap:round">
    </path>
    <path d="M-119.6330486036426,2.3118075431141025L-66.94651230895859,-13.937260686892078" style="fill:none;stroke:rgb(22,55,11);stroke-width:5;stroke-linecap:round">
    </path>
    <path d="M-66.94651230895859,-13.937260686892078L-67.69949228937794,-66.50409948075996" style="fill:none;stroke:rgb(109,213,75);stroke-width:5;stroke-linecap:round">
    </path>
    <path d="M-36.651011794255794,-73.15493361825231L-30.325293161740312,-75.03210124516909L-37.25409007170407,-88.72547897142296z" style="fill:rgb(74,87,214)">
    </path>
    <path d="M-43.61685215138245,-74.60703741197241L-36.651011794255794,-73.15493361825231L-37.25409007170407,-88.72547897142296z" style="fill:rgb(74,87,214)">
    </path>
    <path d="M-37.37759957184309,-72.93931747510148L-31.049733539417915,-74.81712234654758L-37.9804809794816,-88.51259515249906z" style="fill:rgb(214,94,68)">
    </path>
    <path d="M-106.26268921194493,99.80425705681276L-104.80913612658513,93.3497350176501L-119.90063709472723,96.99764674113658z" style="fill:rgb(197,147,42)">
    </path>
    <path d="M-44.34374536918851,-74.39192763793781L-37.37759957184309,-72.93931747510148L-37.9804809794816,-88.51259515249906z" style="fill:rgb(214,94,68)">
    </path>
    <path d="M-104.80913612658513,93.3497350176501L-109.05980991326909,86.93041947796411L-119.90063709472723,96.99764674113658z" style="fill:rgb(197,147,42)">
    </path>
    <path d="M-44.43981528415011,-70.84359310296415L-38.09105821019114,-72.72759742606752L-45.04077788260511,-86.44342970538156z" style="fill:rgb(167,41,160)">
    </path>
    <path d="M-51.408914358224415,-72.30112961214944L-44.43981528415011,-70.84359310296415L-45.04077788260511,-86.44342970538156z" style="fill:rgb(167,41,160)">
    </path>
    <path d="M-76.89289117842159,-10.8696954177039L-77.70907796691067,-63.53969157297792" style="fill:none;stroke:rgb(109,213,75);stroke-width:5;stroke-linecap:round">
    </path>
    <path d="M-80.01527150315519,-9.906721297468474L-80.85135901663463,-62.60908334478886" style="fill:none;stroke:rgb(167,41,160);stroke-width:5;stroke-linecap:round">
    </path>
    <path d="M-48.225572566363425,-69.72016327208193L-41.86560252887946,-71.60749506094116L-48.825502619608244,-85.33423815719144z" style="fill:rgb(43,180,168)">
    </path>
    <path d="M-48.31597460186009,-69.69333631623704L-41.955736683517635,-71.58074759919089L-48.9158799647073,-85.30775121446833z" style="fill:rgb(167,41,160)">
    </path>
    <path d="M-55.196243187728044,-71.18034401565114L-48.225572566363425,-69.72016327208193L-48.825502619608244,-85.33423815719144z" style="fill:rgb(43,180,168)">
    </path>
    <path d="M-55.286682652197186,-71.15358023207303L-48.31597460186009,-69.69333631623704L-48.9158799647073,-85.30775121446833z" style="fill:rgb(167,41,160)">
    </path>
    <path d="M-81.68330508223441,-9.392282631681006L-82.5300354395204,-62.11193173203233" style="fill:none;stroke:rgb(74,87,214);stroke-width:5;stroke-linecap:round">
    </path>
    <path d="M-109.66575164297114,55.846128265391954L-113.74473212659859,58.41393371080176L-120.54770693878464,65.89583846139766z" style="fill:rgb(197,147,42)">
    </path>
    <path d="M-106.85800728583193,68.78336394253438L-105.39992248871093,62.261494383412405L-120.54770693878464,65.89583846139766z" style="fill:rgb(197,147,42)">
    </path>
    <path d="M-85.33858389474891,-8.264957151561397L-86.20866468212704,-61.02248028340162" style="fill:none;stroke:rgb(214,94,68);stroke-width:5;stroke-linecap:round">
    </path>
    <path d="M-588.646896494547,124.67522741213739L-139.22149829031247,-11.8585151758396L-466.4538569383001,195.17570778869543z" style="fill:rgb(0,0,0); fill-opacity: 0.18">
    </path>
    <path d="M-105.39992248871093,62.261494383412405L-109.66575164297114,55.846128265391954L-120.54770693878464,65.89583846139766z" style="fill:rgb(197,147,42)">
    </path>
    <path d="M-54.73400622831335,-67.78877465334888L-48.35473589304417,-69.6818338379867L-55.33215469313038,-83.4273297322793z" style="fill:rgb(43,180,168)">
    </path>
    <path d="M-61.70735974468081,-69.25350692738321L-54.73400622831335,-67.78877465334888L-55.33215469313038,-83.4273297322793z" style="fill:rgb(43,180,168)">
    </path>
    <path d="M-61.471527638735765,-65.78940386055181L-55.0722469056153,-67.68840116435526L-62.06782321720101,-81.45330331887482z" style="fill:rgb(214,94,68)">
    </path>
    <path d="M-68.4476333191047,-67.25885531967948L-61.471527638735765,-65.78940386055181L-62.06782321720101,-81.45330331887482z" style="fill:rgb(214,94,68)">
    </path>
    <path d="M-588.646896494547,124.67522741213739L-606.1000104050623,288.76717754847164" style="fill:none;stroke:rgb(0,0,0);stroke-width:1;stroke-linecap:round">
    </path>
    <path d="M-486.3539847836226,366.38983270413365L-606.1000104050623,288.76717754847164" style="fill:none;stroke:rgb(0,0,0);stroke-width:1;stroke-linecap:round">
    </path>
    <path d="M-606.1000104050623,288.76717754847164L-606.1000104050623,288.76717754847164" style="fill:none;stroke:rgb(0,0,0);stroke-width:1;stroke-linecap:round">
    </path>
    <path d="M-486.3539847836226,366.38983270413365L-606.1000104050623,288.76717754847164" style="fill:none;stroke:rgb(0,0,0);stroke-width:1;stroke-linecap:round">
    </path>
    <path d="M-486.3539847836226,366.38983270413365L-606.1000104050623,288.76717754847164" style="fill:none;stroke:rgb(0,0,0);stroke-width:1;stroke-linecap:round">
    </path>
    <path d="M-606.1000104050623,288.76717754847164L-648.8523680196821,142.9654228137446" style="fill:none;stroke:rgb(0,0,0);stroke-width:1;stroke-linecap:round">
    </path>
    <path d="M-486.3539847836226,366.38983270413365L-606.1000104050623,288.76717754847164" style="fill:none;stroke:rgb(0,0,0);stroke-width:1;stroke-linecap:round">
    </path>
    <path d="M-110.2761804767152,24.531652462610857L-114.36904130868793,27.170142512215207L-121.1995769141038,34.5633089332613z" style="fill:rgb(197,147,42)">
    </path>
    <path d="M-67.29450292400338,-64.06142616618284L-60.877902783487166,-65.96556303321528L-67.88919008694438,-79.74723183956657z" style="fill:rgb(109,213,75)">
    </path>
    <path d="M-74.27296656804015,-65.53496233490662L-67.29450292400338,-64.06142616618284L-67.88919008694438,-79.74723183956657z" style="fill:rgb(109,213,75)">
    </path>
    <path d="M-107.4577315259031,37.53287388464217L-105.99508763281425,30.942834368280316L-121.1995769141038,34.5633089332613z" style="fill:rgb(197,147,42)">
    </path>
    <path d="M-105.99508763281425,30.942834368280316L-110.2761804767152,24.531652462610857L-121.1995769141038,34.5633089332613z" style="fill:rgb(197,147,42)">
    </path>
    <path d="M-108.74653158037135,-1.0457059762573964L-109.76705790710079,-54.04549947514449" style="fill:none;stroke:rgb(74,87,214);stroke-width:5;stroke-linecap:round">
    </path>
    <path d="M-77.3228012214095,-61.08551180600369L-70.87631890362498,-62.99851625932135L-77.91470308172826,-76.80904873436931z" style="fill:rgb(109,213,75)">
    </path>
    <path d="M-84.30528091528497,-62.56609590526298L-77.3228012214095,-61.08551180600369L-77.91470308172826,-76.80904873436931z" style="fill:rgb(109,213,75)">
    </path>
    <path d="M-109.77927929478939,-0.727195987631432L-110.80647956011262,-53.73766757610552" style="fill:none;stroke:rgb(214,94,68);stroke-width:5;stroke-linecap:round">
    </path>
    <path d="M-109.90190790842138,-0.6893760653136476L-110.9299008422378,-53.701115511264135" style="fill:none;stroke:rgb(43,180,168);stroke-width:5;stroke-linecap:round">
    </path>
    <path d="M-80.47097549588692,-60.151285803354064L-74.01509799858036,-62.067078291972116L-81.06199897677539,-75.88666883912653z" style="fill:rgb(167,41,160)">
    </path>
    <path d="M-87.45470424773367,-61.63408591426712L-80.47097549588692,-60.151285803354064L-81.06199897677539,-75.88666883912653z" style="fill:rgb(167,41,160)">
    </path>
    <path d="M-110.89114644141058,-7.0155742679381845L-114.99798168827283,-4.305418731892542L-121.85630063245834,2.997481274001826z" style="fill:rgb(197,147,42)">
    </path>
    <path d="M-82.1528038968705,-59.65220040108407L-75.69190447525692,-61.56948315417354L-82.74335734516717,-75.39391213387252z" style="fill:rgb(74,87,214)">
    </path>
    <path d="M-89.13719763419863,-61.13618503513997L-82.1528038968705,-59.65220040108407L-82.74335734516717,-75.39391213387252z" style="fill:rgb(74,87,214)">
    </path>
    <path d="M-108.06191103132319,6.050228418998549L-106.59468042186722,-0.608816285198543L-121.85630063245834,2.997481274001826z" style="fill:rgb(197,147,42)">
    </path>
    <path d="M-85.8383493194861,-58.55850860782228L-79.36643807556342,-60.47905913767399L-86.42787083840622,-74.31408955498416z" style="fill:rgb(214,94,68)">
    </path>
    <path d="M-106.59468042186722,-0.608816285198543L-110.89114644141058,-7.0155742679381845L-121.85630063245834,2.997481274001826z" style="fill:rgb(197,147,42)">
    </path>
    <path d="M-92.82419472284269,-60.04509064716604L-85.8383493194861,-58.55850860782228L-86.42787083840622,-74.31408955498416z" style="fill:rgb(214,94,68)">
    </path>
    <path d="M-119.63304860364264,2.3118075431141207L-120.72408150714439,-50.800501285196404" style="fill:none;stroke:rgb(109,213,75);stroke-width:5;stroke-linecap:round">
    </path>
    <path d="M-119.6330486036426,2.3118075431141025L-120.72408150714436,-50.80050128519642" style="fill:none;stroke:rgb(43,180,168);stroke-width:5;stroke-linecap:round">
    </path>
    <path d="M-119.63304860364264,2.3118075431141207L-120.72408150714439,-50.800501285196404" style="fill:none;stroke:rgb(74,87,214);stroke-width:5;stroke-linecap:round">
    </path>
    <path d="M-119.6330486036426,2.3118075431141025L-120.72408150714436,-50.80050128519642" style="fill:none;stroke:rgb(167,41,160);stroke-width:5;stroke-linecap:round">
    </path>
    <path d="M-454.6275770394538,105.627556348212L9.73875974566869,-37.58778519438286L-8.764780625953625,45.66831198465312z" style="fill:rgb(0,0,0); fill-opacity: 0.18">
    </path>
    <path d="M-444.4253299585708,80.86125890982892L-588.646896494547,124.67522741213739L-319.12036415945846,147.04817326775824z" style="fill:rgb(0,0,0); fill-opacity: 0.18">
    </path>
    <path d="M-444.4253299585708,80.86125890982892L-588.646896494547,124.67522741213739L-319.12036415945846,147.04817326775824z" style="fill:rgb(0,0,0); fill-opacity: 0.18">
    </path>
    <path d="M-134.49767214957828,6.896209919848753L-135.68552717495933,-46.369565852067204" style="fill:none;stroke:rgb(214,94,68);stroke-width:5;stroke-linecap:round">
    </path>
    <path d="M-109.44132689810303,-51.55428537511684L-102.89867175383257,-53.49582927619629L-110.02417774925371,-67.39870573905647z" style="fill:rgb(74,87,214)">
    </path>
    <path d="M-116.43628745014661,-53.057555467810616L-109.44132689810303,-51.55428537511684L-110.02417774925371,-67.39870573905647z" style="fill:rgb(74,87,214)">
    </path>
    <path d="M-110.48272730736777,-51.24524805485394L-103.936941986777,-53.187720841012926L-111.06528136837649,-67.0935888771006z" style="fill:rgb(214,94,68)">
    </path>
    <path d="M-110.60638361306366,-51.20855283848385L-104.06022656442383,-53.15113593556564L-111.18890241922682,-67.05735918159829z" style="fill:rgb(43,180,168)">
    </path>
    <path d="M-117.47808279747883,-52.74925659217748L-110.48272730736777,-51.24524805485394L-111.06528136837649,-67.0935888771006z" style="fill:rgb(214,94,68)">
    </path>
    <path d="M-117.60178595765878,-52.71264907104256L-110.60638361306366,-51.20855283848385L-111.18890241922682,-67.05735918159829z" style="fill:rgb(43,180,168)">
    </path>
    <path d="M-466.4538569383001,195.17570778869543L-588.646896494547,124.67522741213739" style="fill:none;stroke:rgb(160,0,0);stroke-width:4;stroke-linecap:round">
    </path>
    <path d="M-466.4538569383001,195.17570778869543L-588.646896494547,124.67522741213739" style="fill:none;stroke:rgb(0,0,0);stroke-width:1;stroke-linecap:round">
    </path>
    <path d="M-466.4538569383001,195.17570778869543L-588.646896494547,124.67522741213739" style="fill:none;stroke:rgb(0,0,0);stroke-width:1;stroke-linecap:round">
    </path>
    <path d="M-466.4538569383001,195.17570778869543L-588.646896494547,124.67522741213739" style="fill:none;stroke:rgb(0,0,0);stroke-width:1;stroke-linecap:round">
    </path>
    <path d="M-466.4538569383001,195.17570778869543L-588.646896494547,124.67522741213739" style="fill:none;stroke:rgb(0,0,0);stroke-width:1;stroke-linecap:round">
    </path>
    <path d="M-466.4538569383001,195.17570778869543L-588.646896494547,124.67522741213739" style="fill:none;stroke:rgb(0,0,0);stroke-width:1;stroke-linecap:round">
    </path>
    <path d="M-588.646896494547,124.67522741213739L-588.646896494547,124.67522741213739" style="fill:none;stroke:rgb(0,0,0);stroke-width:1;stroke-linecap:round">
    </path>
    <path d="M-466.4538569383001,195.17570778869543L-588.646896494547,124.67522741213739" style="fill:none;stroke:rgb(0,0,0);stroke-width:1;stroke-linecap:round">
    </path>
    <path d="M-466.4538569383001,195.17570778869543L-588.646896494547,124.67522741213739" style="fill:none;stroke:rgb(160,0,0);stroke-width:4;stroke-linecap:round">
    </path>
    <path d="M-120.41925898287337,-48.29656559382658L-113.8435694648358,-50.247912500795735L-120.99897072057477,-64.18231658189809z" style="fill:rgb(109,213,75)">
    </path>
    <path d="M-120.41925898287337,-48.29656559382658L-113.84356946483574,-50.247912500795735L-120.99897072057476,-64.1823165818981z" style="fill:rgb(43,180,168)">
    </path>
    <path d="M-120.41925898287337,-48.29656559382658L-113.8435694648358,-50.247912500795735L-120.99897072057477,-64.18231658189809z" style="fill:rgb(74,87,214)">
    </path>
    <path d="M-120.41925898287337,-48.29656559382658L-113.84356946483574,-50.247912500795735L-120.99897072057476,-64.1823165818981z" style="fill:rgb(167,41,160)">
    </path>
    <path d="M-127.41835202080496,-49.807629109496254L-120.41925898287337,-48.29656559382658L-120.99897072057477,-64.18231658189809z" style="fill:rgb(109,213,75)">
    </path>
    <path d="M-127.41835202080493,-49.807629109496254L-120.41925898287337,-48.29656559382658L-120.99897072057476,-64.1823165818981z" style="fill:rgb(43,180,168)">
    </path>
    <path d="M-127.41835202080496,-49.807629109496254L-120.41925898287337,-48.29656559382658L-120.99897072057477,-64.18231658189809z" style="fill:rgb(74,87,214)">
    </path>
    <path d="M-127.41835202080493,-49.807629109496254L-120.41925898287337,-48.29656559382658L-120.99897072057476,-64.1823165818981z" style="fill:rgb(167,41,160)">
    </path>
    <path d="M-159.4985223366722,14.606728565942447L-160.85065835937314,-38.91673850368917" style="fill:none;stroke:rgb(214,94,68);stroke-width:5;stroke-linecap:round">
    </path>
    <path d="M-606.1000104050623,288.76717754847164L-606.1000104050623,288.76717754847164L-486.3539847836226,366.38983270413365z" style="fill:rgb(0,0,0); fill-opacity: 0.18">
    </path>
    <path d="M-135.40943112722147,-43.848206837140886L-128.7884996117472,-45.812979382823826L-135.98481900059053,-59.79040504018444z" style="fill:rgb(214,94,68)">
    </path>
    <path d="M-142.4140572430194,-45.36994461496177L-135.40943112722147,-43.848206837140886L-135.98481900059053,-59.79040504018444z" style="fill:rgb(214,94,68)">
    </path>
    <path d="M-588.646896494547,124.67522741213739L-444.4253299585708,80.86125890982892L-466.4538569383001,195.17570778869543z" style="fill:rgb(0,0,0); fill-opacity: 0.18">
    </path>
    <path d="M-588.646896494547,124.67522741213739L-444.4253299585708,80.86125890982892L-466.4538569383001,195.17570778869543z" style="fill:rgb(0,0,0); fill-opacity: 0.18">
    </path>
    <path d="M-606.1000104050623,288.76717754847164L-588.646896494547,124.67522741213739L-486.3539847836226,366.38983270413365z" style="fill:rgb(0,0,0); fill-opacity: 0.18">
    </path>
    <path d="M-184.78669914106848,22.40586168808989L-186.30683615039436,-31.377715693285527" style="fill:none;stroke:rgb(214,94,68);stroke-width:5;stroke-linecap:round">
    </path>
    <path d="M-160.62334021273563,-36.365936974542045L-153.92596100762958,-38.35339550050106L-161.19135766799977,-52.40310963778294z" style="fill:rgb(214,94,68)">
    </path>
    <path d="M-167.63698730583354,-37.905713757671734L-160.62334021273563,-36.365936974542045L-161.19135766799977,-52.40310963778294z" style="fill:rgb(214,94,68)">
    </path>
    <path d="M-466.4538569383001,195.17570778869543L-319.12036415945846,147.04817326775824L-444.4253299585708,80.86125890982892z" style="fill:rgb(0,0,0); fill-opacity: 0.18">
    </path>
    <path d="M-466.4538569383001,195.17570778869543L-319.12036415945846,147.04817326775824L-444.4253299585708,80.86125890982892z" style="fill:rgb(0,0,0); fill-opacity: 0.18">
    </path>
    <path d="M-528.0877276725039,215.3088505349411L-648.8523680196821,142.9654228137446" style="fill:none;stroke:rgb(160,0,0);stroke-width:4;stroke-linecap:round">
    </path>
    <path d="M-210.36718441683294,30.29514574118686L-212.05913905250753,-23.75099338668949" style="fill:none;stroke:rgb(214,94,68);stroke-width:5;stroke-linecap:round">
    </path>
    <path d="M-186.12944709071314,-28.79695692634479L-179.35428847179645,-30.80749662396635L-186.6898842210329,-44.93024117065068z" style="fill:rgb(214,94,68)">
    </path>
    <path d="M-193.1518549484576,-30.355089706324044L-186.12944709071314,-28.79695692634479L-186.6898842210329,-44.93024117065068z" style="fill:rgb(214,94,68)">
    </path>
    <path d="M-588.646896494547,124.67522741213739L-588.646896494547,124.67522741213739L-466.4538569383001,195.17570778869543z" style="fill:rgb(0,0,0); fill-opacity: 0.18">
    </path>
    <path d="M-466.45385693829996,195.1757077886955L-319.12036415945835,147.0481732677583" style="fill:none;stroke:rgb(0,0,0);stroke-width:1;stroke-linecap:round">
    </path>
    <path d="M-304.9572446475831,59.46769058211495L-319.12036415945835,147.0481732677583" style="fill:none;stroke:rgb(0,0,0);stroke-width:1;stroke-linecap:round">
    </path>
    <path d="M-319.12036415945835,147.0481732677583L-466.45385693829996,195.1757077886955" style="fill:none;stroke:rgb(0,0,0);stroke-width:1;stroke-linecap:round">
    </path>
    <path d="M-304.9572446475831,59.46769058211495L-319.12036415945835,147.0481732677583" style="fill:none;stroke:rgb(0,0,0);stroke-width:1;stroke-linecap:round">
    </path>
    <path d="M-466.45385693829996,195.1757077886955L-319.12036415945835,147.0481732677583" style="fill:none;stroke:rgb(0,0,0);stroke-width:1;stroke-linecap:round">
    </path>
    <path d="M-304.9572446475831,59.46769058211495L-319.12036415945835,147.0481732677583" style="fill:none;stroke:rgb(0,0,0);stroke-width:1;stroke-linecap:round">
    </path>
    <path d="M-319.12036415945835,147.0481732677583L-466.45385693829996,195.1757077886955" style="fill:none;stroke:rgb(0,0,0);stroke-width:1;stroke-linecap:round">
    </path>
    <path d="M-304.9572446475831,59.46769058211495L-319.12036415945835,147.0481732677583" style="fill:none;stroke:rgb(0,0,0);stroke-width:1;stroke-linecap:round">
    </path>
    <path d="M-323.12183400972816,223.24295534475192L-321.2554046965206,231.46547308427284L-319.01670474321173,227.5176378001636z" style="fill:rgb(197,147,42)">
    </path>
    <path d="M-486.3539847836226,366.38983270413365L-486.3539847836226,366.38983270413365L-606.1000104050623,288.76717754847164z" style="fill:rgb(0,0,0); fill-opacity: 0.18">
    </path>
    <path d="M-236.2450758590017,38.27615290667255L-238.11276441529418,-16.035032352938362" style="fill:none;stroke:rgb(214,94,68);stroke-width:5;stroke-linecap:round">
    </path>
    <path d="M-321.2554046965206,231.46547308427284L-316.29156596892443,234.24302719812556L-319.01670474321173,227.5176378001636z" style="fill:rgb(197,147,42)">
    </path>
    <path d="M-315.0839900672076,227.71943317061772L-316.29156596892443,234.24302719812556L-307.11125180819033,223.4184673610379z" style="fill:rgb(197,147,42)">
    </path>
    <path d="M-319.314982017825,220.91327301784224L-323.12183400972816,223.24295534475192L-319.01670474321173,227.5176378001636z" style="fill:rgb(197,147,42)">
    </path>
    <path d="M-319.314982017825,220.91327301784224L-315.0839900672076,227.71943317061772L-307.11125180819033,223.4184673610379z" style="fill:rgb(197,147,42)">
    </path>
    <path d="M-367.2683678643948,244.1311838940863L-319.0167047432118,227.5176378001636" style="fill:none;stroke:rgb(197,147,42);stroke-width:5;stroke-linecap:round">
    </path>
    <path d="M-648.8523680196821,142.9654228137446L-606.1000104050623,288.76717754847164L-528.0877276725039,215.3088505349411z" style="fill:rgb(0,0,0); fill-opacity: 0.18">
    </path>
    <path d="M-316.29156596892443,234.24302719812556L-315.0839900672076,227.71943317061772L-319.01670474321173,227.5176378001636z" style="fill:rgb(197,147,42)">
    </path>
    <path d="M-315.0839900672076,227.71943317061772L-319.314982017825,220.91327301784224L-319.01670474321173,227.5176378001636z" style="fill:rgb(197,147,42)">
    </path>
    <path d="M-211.93286067668808,-21.139750613285056L-205.07855980756503,-23.173775906558177L-212.48550171668376,-37.3703040828143z" style="fill:rgb(214,94,68)">
    </path>
    <path d="M-218.9637581301047,-22.716563819996598L-211.93286067668808,-21.139750613285056L-212.48550171668376,-37.3703040828143z" style="fill:rgb(214,94,68)">
    </path>
    <path d="M-319.12036415945846,147.04817326775824L-466.4538569383001,195.17570778869543L-588.646896494547,124.67522741213739z" style="fill:rgb(0,0,0); fill-opacity: 0.18">
    </path>
    <path d="M-319.12036415945846,147.04817326775824L-466.4538569383001,195.17570778869543L-588.646896494547,124.67522741213739z" style="fill:rgb(0,0,0); fill-opacity: 0.18">
    </path>
    <path d="M-318.8276252513098,189.53832319385077L-316.9578127228963,197.79304631158294L-314.70665814339003,193.78260217251113z" style="fill:rgb(197,147,42)">
    </path>
    <path d="M-466.45385693829996,195.1757077886955L-8.764780625953625,45.66831198465312L-454.6275770394538,105.627556348212z" style="fill:rgb(0,0,0); fill-opacity: 0.18">
    </path>
    <path d="M-316.9578127228963,197.79304631158294L-311.9733600085106,200.51633545520497L-314.70665814339003,193.78260217251113z" style="fill:rgb(197,147,42)">
    </path>
    <path d="M-310.75637258216153,193.9267295731902L-311.9733600085106,200.51633545520497L-302.78193270445036,189.76120965960854z" style="fill:rgb(197,147,42)">
    </path>
    <path d="M-315.0022592626512,187.13427172270264L-318.8276252513098,189.53832319385077L-314.70665814339003,193.78260217251113z" style="fill:rgb(197,147,42)">
    </path>
    <path d="M-315.0022592626512,187.13427172270264L-310.75637258216153,193.9267295731902L-302.78193270445036,189.76120965960854z" style="fill:rgb(197,147,42)">
    </path>
    <path d="M-363.0380713879654,210.08147499394013L-314.70665814339003,193.78260217251116" style="fill:none;stroke:rgb(197,147,42);stroke-width:5;stroke-linecap:round">
    </path>
    <path d="M-311.9733600085106,200.51633545520497L-310.75637258216153,193.9267295731902L-314.70665814339003,193.78260217251113z" style="fill:rgb(197,147,42)">
    </path>
    <path d="M-310.75637258216153,193.9267295731902L-315.0022592626512,187.13427172270264L-314.70665814339003,193.78260217251113z" style="fill:rgb(197,147,42)">
    </path>
    <path d="M-314.51128798872463,155.66000756947273L-312.63808211068937,163.94715921713723L-310.37437407217374,159.87351230382086z" style="fill:rgb(197,147,42)">
    </path>
    <path d="M-314.51128798872463,155.66000756947273L-312.63808211068937,163.94715921713723L-310.37437407217374,159.87351230382086z" style="fill:rgb(200,54,116)">
    </path>
    <path d="M-312.63808211068937,163.94715921713723L-307.632868542387,166.61558615497984L-310.37437407217374,159.87351230382086z" style="fill:rgb(197,147,42)">
    </path>
    <path d="M-312.63808211068937,163.94715921713723L-307.632868542387,166.61558615497984L-310.37437407217374,159.87351230382086z" style="fill:rgb(200,54,116)">
    </path>
    <path d="M-306.4063883572663,159.95937269072095L-307.632868542387,166.61558615497984L-298.4303353086768,155.93075469594103z" style="fill:rgb(197,147,42)">
    </path>
    <path d="M-306.4063883572663,159.95937269072095L-307.632868542387,166.61558615497984L-298.4303353086768,155.93075469594103z" style="fill:rgb(200,54,116)">
    </path>
    <path d="M-310.6672674011504,153.18084971606282L-314.51128798872463,155.66000756947273L-310.37437407217374,159.87351230382086z" style="fill:rgb(197,147,42)">
    </path>
    <path d="M-310.6672674011504,153.18084971606282L-314.51128798872463,155.66000756947273L-310.37437407217374,159.87351230382086z" style="fill:rgb(200,54,116)">
    </path>
    <path d="M-310.6672674011504,153.18084971606282L-306.4063883572663,159.95937269072095L-298.4303353086768,155.93075469594103z" style="fill:rgb(197,147,42)">
    </path>
    <path d="M-310.6672674011504,153.18084971606282L-306.4063883572663,159.95937269072095L-298.4303353086768,155.93075469594103z" style="fill:rgb(200,54,116)">
    </path>
    <path d="M-358.7857167642214,175.85421979198577L-310.37437407217374,159.87351230382092" style="fill:none;stroke:rgb(197,147,42);stroke-width:5;stroke-linecap:round">
    </path>
    <path d="M-358.7857167642214,175.85421979198577L-310.37437407217374,159.87351230382092" style="fill:none;stroke:rgb(200,54,116);stroke-width:5;stroke-linecap:round">
    </path>
    <path d="M-262.425590390271,46.35049213701946L-264.4730319303469,-8.228257128638147" style="fill:none;stroke:rgb(214,94,68);stroke-width:5;stroke-linecap:round">
    </path>
    <path d="M-307.632868542387,166.61558615497984L-306.4063883572663,159.95937269072095L-310.37437407217374,159.87351230382086z" style="fill:rgb(197,147,42)">
    </path>
    <path d="M-307.632868542387,166.61558615497984L-306.4063883572663,159.95937269072095L-310.37437407217374,159.87351230382086z" style="fill:rgb(200,54,116)">
    </path>
    <path d="M-306.4063883572663,159.95937269072095L-310.6672674011504,153.18084971606282L-310.37437407217374,159.87351230382086z" style="fill:rgb(197,147,42)">
    </path>
    <path d="M-306.4063883572663,159.95937269072095L-310.6672674011504,153.18084971606282L-310.37437407217374,159.87351230382086z" style="fill:rgb(200,54,116)">
    </path>
    <path d="M-238.03880968646206,-13.392766405168151L-231.10397170461624,-15.450691221886913L-238.58343282323963,-29.72176776374713z" style="fill:rgb(214,94,68)">
    </path>
    <path d="M-245.07791420241696,-14.98859212592241L-238.03880968646206,-13.392766405168151L-238.58343282323963,-29.72176776374713z" style="fill:rgb(214,94,68)">
    </path>
    <path d="M-486.3539847836226,366.38983270413365L-466.4538569383001,195.17570778869543L-588.646896494547,124.67522741213739z" style="fill:rgb(0,0,0); fill-opacity: 0.18">
    </path>
    <path d="M-315.9356662108656,123.4606793556402L-314.05477455290463,131.79040245455403L-311.7845553646576,127.65062893827255z" style="fill:rgb(200,54,116)">
    </path>
    <path d="M-528.0877276725039,215.3088505349411L-486.3539847836226,366.38983270413365L-606.1000104050623,288.76717754847164z" style="fill:rgb(0,0,0); fill-opacity: 0.18">
    </path>
    <path d="M-314.05477455290463,131.79040245455403L-309.03284900439775,134.4100978391725L-311.7845553646576,127.65062893827255z" style="fill:rgb(200,54,116)">
    </path>
    <path d="M-307.80368486908435,127.68088229313976L-309.03284900439775,134.4100978391725L-299.790849788343,123.77758469495178z" style="fill:rgb(200,54,116)">
    </path>
    <path d="M-312.0797136026739,120.90621279215678L-315.9356662108656,123.4606793556402L-311.7845553646576,127.65062893827255z" style="fill:rgb(200,54,116)">
    </path>
    <path d="M-312.0797136026739,120.90621279215678L-307.80368486908435,127.68088229313976L-299.790849788343,123.77758469495178z" style="fill:rgb(200,54,116)">
    </path>
    <path d="M-360.3996932638982,143.34957858989108L-311.7845553646577,127.6506289382726" style="fill:none;stroke:rgb(200,54,116);stroke-width:5;stroke-linecap:round">
    </path>
    <path d="M-309.03284900439775,134.4100978391725L-307.80368486908435,127.68088229313976L-311.7845553646576,127.65062893827255z" style="fill:rgb(200,54,116)">
    </path>
    <path d="M-307.80368486908435,127.68088229313976L-312.0797136026739,120.90621279215678L-311.7845553646576,127.65062893827255z" style="fill:rgb(200,54,116)">
    </path>
    <path d="M-367.2683678643948,244.13118389408635L-358.7857167642214,175.85421979198577" style="fill:none;stroke:rgb(50,34,0);stroke-width:5;stroke-linecap:round">
    </path>
    <path d="M-367.2683678643948,244.13118389408635L-486.3539847836224,366.38983270413365" style="fill:none;stroke:rgb(0,0,0);stroke-width:1;stroke-linecap:round">
    </path>
    <path d="M-588.011137586828,320.1351999727323L-367.2683678643948,244.13118389408635" style="fill:none;stroke:rgb(22,55,11);stroke-width:5;stroke-linecap:round">
    </path>
    <path d="M-367.2683678643948,244.13118389408635L-370.006230749895,190.54166518554564" style="fill:none;stroke:rgb(109,213,75);stroke-width:5;stroke-linecap:round">
    </path>
    <path d="M-367.2683678643948,244.13118389408635L-486.3539847836224,366.38983270413365" style="fill:none;stroke:rgb(0,0,0);stroke-width:1;stroke-linecap:round">
    </path>
    <path d="M-288.9140676671997,54.51981023708233L-291.1453872523871,-0.3290549455445871" style="fill:none;stroke:rgb(214,94,68);stroke-width:5;stroke-linecap:round">
    </path>
    <path d="M-317.3710622275956,91.01228416040293L-315.48242169899527,99.38499062935611L-313.20565817411466,95.17818704470263z" style="fill:rgb(200,54,116)">
    </path>
    <path d="M-466.4538569383001,195.17570778869543L-466.4538569383001,195.17570778869543L-588.646896494547,124.67522741213739z" style="fill:rgb(0,0,0); fill-opacity: 0.18">
    </path>
    <path d="M-315.48242169899527,99.38499062935611L-310.4436748918096,101.95511874080577L-313.20565817411466,95.17818704470263z" style="fill:rgb(200,54,116)">
    </path>
    <path d="M-309.21182196768433,95.15196704057395L-310.4436748918096,101.95511874080577L-301.1618732637534,91.37605458331792z" style="fill:rgb(200,54,116)">
    </path>
    <path d="M-313.5031076945154,88.38141470479205L-317.3710622275956,91.01228416040293L-313.20565817411466,95.17818704470263z" style="fill:rgb(200,54,116)">
    </path>
    <path d="M-313.5031076945154,88.38141470479205L-309.21182196768433,95.15196704057395L-301.1618732637534,91.37605458331792z" style="fill:rgb(200,54,116)">
    </path>
    <path d="M-362.02630361570243,110.59049822434892L-313.20565817411466,95.17818704470264" style="fill:none;stroke:rgb(200,54,116);stroke-width:5;stroke-linecap:round">
    </path>
    <path d="M-363.6656967450243,77.57397941601626L-304.9572446475831,59.46769058211495L-319.12036415945835,147.0481732677583z" style="fill:rgb(0,0,0); fill-opacity: 0.18">
    </path>
    <path d="M-264.4526461683454,-5.554416072670352L-257.4358432388314,-7.636664125252569L-264.98902334542066,-21.98306551525418z" style="fill:rgb(214,94,68)">
    </path>
    <path d="M-271.49966342521105,-7.169594279073739L-264.4526461683454,-5.554416072670352L-264.98902334542066,-21.98306551525418z" style="fill:rgb(214,94,68)">
    </path>
    <path d="M-319.12036415945835,147.0481732677583L-466.45385693829996,195.1757077886955L-304.9572446475831,59.46769058211495z" style="fill:rgb(0,0,0); fill-opacity: 0.18">
    </path>
    <path d="M-319.12036415945835,147.0481732677583L-466.45385693829996,195.1757077886955L-304.9572446475831,59.46769058211495z" style="fill:rgb(0,0,0); fill-opacity: 0.18">
    </path>
    <path d="M-310.4436748918096,101.95511874080577L-309.21182196768433,95.15196704057395L-313.20565817411466,95.17818704470263z" style="fill:rgb(200,54,116)">
    </path>
    <path d="M-309.21182196768433,95.15196704057395L-313.5031076945154,88.38141470479205L-313.20565817411466,95.17818704470263z" style="fill:rgb(200,54,116)">
    </path>
    <path d="M-304.9572446475831,59.46769058211495L-454.6275770394538,105.627556348212" style="fill:none;stroke:rgb(38,46,1);stroke-width:5;stroke-linecap:round">
    </path>
    <path d="M-304.9572446475832,59.46769058211499L-307.3009164347065,4.455516564739547" style="fill:none;stroke:rgb(162,186,45);stroke-width:5;stroke-linecap:round">
    </path>
    <path d="M-454.6275770394538,105.627556348212L-304.9572446475831,59.46769058211495" style="fill:none;stroke:rgb(9,54,24);stroke-width:5;stroke-linecap:round">
    </path>
    <path d="M-304.9572446475831,59.46769058211495L-307.3009164347064,4.4555165647395105" style="fill:none;stroke:rgb(70,211,116);stroke-width:5;stroke-linecap:round">
    </path>
    <path d="M-304.9572446475831,59.46769058211495L-454.6275770394538,105.627556348212" style="fill:none;stroke:rgb(1,31,51);stroke-width:5;stroke-linecap:round">
    </path>
    <path d="M-304.9572446475832,59.46769058211499L-307.3009164347065,4.455516564739547" style="fill:none;stroke:rgb(44,139,201);stroke-width:5;stroke-linecap:round">
    </path>
    <path d="M-363.6656967450243,77.57397941601626L-304.9572446475831,59.46769058211495" style="fill:none;stroke:rgb(23,4,51);stroke-width:5;stroke-linecap:round">
    </path>
    <path d="M-304.9572446475831,59.46769058211495L-307.3009164347064,4.4555165647395105" style="fill:none;stroke:rgb(115,55,201);stroke-width:5;stroke-linecap:round">
    </path>
    <path d="M-466.45385693829996,195.1757077886955L-486.3539847836224,366.38983270413365" style="fill:none;stroke:rgb(0,0,0);stroke-width:1;stroke-linecap:round">
    </path>
    <path d="M-486.3539847836224,366.38983270413365L-486.3539847836224,366.38983270413365" style="fill:none;stroke:rgb(0,0,0);stroke-width:1;stroke-linecap:round">
    </path>
    <path d="M-588.011137586828,320.1351999727323L-486.3539847836224,366.38983270413365" style="fill:none;stroke:rgb(0,0,0);stroke-width:1;stroke-linecap:round">
    </path>
    <path d="M-486.3539847836224,366.38983270413365L-528.0877276725037,215.30885053494112" style="fill:none;stroke:rgb(0,0,0);stroke-width:1;stroke-linecap:round">
    </path>
    <path d="M-588.011137586828,320.1351999727323L-486.3539847836224,366.38983270413365" style="fill:none;stroke:rgb(0,0,0);stroke-width:1;stroke-linecap:round">
    </path>
    <path d="M-358.7857167642214,175.85421979198577L-466.45385693829996,195.1757077886955" style="fill:none;stroke:rgb(160,0,0);stroke-width:4;stroke-linecap:round">
    </path>
    <path d="M-358.7857167642214,175.85421979198577L-363.6656967450243,77.57397941601626" style="fill:none;stroke:rgb(51,4,24);stroke-width:5;stroke-linecap:round">
    </path>
    <path d="M-358.7857167642214,175.85421979198577L-466.45385693829996,195.1757077886955" style="fill:none;stroke:rgb(160,0,0);stroke-width:4;stroke-linecap:round">
    </path>
    <path d="M-318.817604371872,58.31192090387428L-316.92115110450294,66.72802842537565L-314.63780987057663,62.45327619612539z" style="fill:rgb(200,54,116)">
    </path>
    <path d="M-316.92115110450294,66.72802842537565L-311.8654727213468,69.24773843863112L-314.63780987057663,62.45327619612539z" style="fill:rgb(200,54,116)">
    </path>
    <path d="M-310.6309263004506,62.36970129315313L-311.8654727213468,69.24773843863112L-302.5435279686414,58.723275599420724z" style="fill:rgb(200,54,116)">
    </path>
    <path d="M-314.9375774577686,55.60353563415668L-318.817604371872,58.31192090387428L-314.63780987057663,62.45327619612539z" style="fill:rgb(200,54,116)">
    </path>
    <path d="M-314.9375774577686,55.60353563415668L-310.6309263004506,62.36970129315313L-302.5435279686414,58.723275599420724z" style="fill:rgb(200,54,116)">
    </path>
    <path d="M-363.6656967450243,77.57397941601626L-314.63780987057675,62.45327619612542" style="fill:none;stroke:rgb(200,54,116);stroke-width:5;stroke-linecap:round">
    </path>
    <path d="M-315.71597371087483,62.78579298383268L-318.13540574976264,7.66422538017269" style="fill:none;stroke:rgb(214,94,68);stroke-width:5;stroke-linecap:round">
    </path>
    <path d="M-311.8654727213468,69.24773843863112L-310.6309263004506,62.36970129315313L-314.63780987057663,62.45327619612539z" style="fill:rgb(200,54,116)">
    </path>
    <path d="M-466.45385693829996,195.1757077886955L-319.12036415945835,147.0481732677583L-363.6656967450243,77.57397941601626z" style="fill:rgb(0,0,0); fill-opacity: 0.18">
    </path>
    <path d="M-310.6309263004506,62.36970129315313L-314.9375774577686,55.60353563415668L-314.63780987057663,62.45327619612539z" style="fill:rgb(200,54,116)">
    </path>
    <path d="M-486.3539847836224,366.38983270413365L-466.45385693829996,195.1757077886955L-367.2683678643948,244.13118389408635z" style="fill:rgb(0,0,0); fill-opacity: 0.18">
    </path>
    <path d="M-367.2683678643948,244.13118389408635L-358.7857167642214,175.85421979198577L-466.45385693829996,195.1757077886955z" style="fill:rgb(0,0,0); fill-opacity: 0.18">
    </path>
    <path d="M-402.6466785309549,256.31230174504765L-405.6367420874647,202.38825583672119" style="fill:none;stroke:rgb(109,213,75);stroke-width:5;stroke-linecap:round">
    </path>
    <path d="M-370.2031056872606,193.6392791065944L-362.9831077792528,191.23399479020563L-370.69625018742585,177.03557992735213z" style="fill:rgb(109,213,75)">
    </path>
    <path d="M-377.15290647465656,191.76112177223567L-370.2031056872606,193.6392791065944L-370.69625018742585,177.03557992735213z" style="fill:rgb(109,213,75)">
    </path>
    <path d="M-291.17984916111453,2.376926298166115L-284.0796194964962,0.26992122184396844L-291.7077458749293,-14.152593481603638z" style="fill:rgb(214,94,68)">
    </path>
    <path d="M-298.23447260719416,0.7420475152362481L-291.17984916111453,2.376926298166115L-291.7077458749293,-14.152593481603638z" style="fill:rgb(214,94,68)">
    </path>
    <path d="M-454.6275770394538,105.627556348212L-304.9572446475831,59.46769058211495L-319.12036415945835,147.0481732677583z" style="fill:rgb(0,0,0); fill-opacity: 0.18">
    </path>
    <path d="M-327.65387759612105,66.46756499612938L-330.15776391518136,11.224729757067164" style="fill:none;stroke:rgb(162,186,45);stroke-width:5;stroke-linecap:round">
    </path>
    <path d="M-330.0966450144739,67.22093952484849L-332.6178632455907,11.95330515908043" style="fill:none;stroke:rgb(44,139,201);stroke-width:5;stroke-linecap:round">
    </path>
    <path d="M-307.36891500934297,7.1810587747689025L-300.21791314244217,5.058986962158137L-307.8916081226705,-9.409579267977527z" style="fill:rgb(162,186,45)">
    </path>
    <path d="M-307.3689150093429,7.1810587747689025L-300.21791314244206,5.058986962158101L-307.89160812267045,-9.409579267977564z" style="fill:rgb(70,211,116)">
    </path>
    <path d="M-307.36891500934297,7.1810587747689025L-300.21791314244217,5.058986962158137L-307.8916081226705,-9.409579267977527z" style="fill:rgb(44,139,201)">
    </path>
    <path d="M-307.3689150093429,7.1810587747689025L-300.21791314244206,5.058986962158101L-307.89160812267045,-9.409579267977564z" style="fill:rgb(115,55,201)">
    </path>
    <path d="M-314.42794976491086,5.534189093809256L-307.36891500934297,7.1810587747689025L-307.8916081226705,-9.409579267977527z" style="fill:rgb(162,186,45)">
    </path>
    <path d="M-314.4279497649108,5.534189093809218L-307.3689150093429,7.1810587747689025L-307.89160812267045,-9.409579267977564z" style="fill:rgb(70,211,116)">
    </path>
    <path d="M-314.42794976491086,5.534189093809256L-307.36891500934297,7.1810587747689025L-307.8916081226705,-9.409579267977527z" style="fill:rgb(44,139,201)">
    </path>
    <path d="M-314.4279497649108,5.534189093809218L-307.3689150093429,7.1810587747689025L-307.89160812267045,-9.409579267977564z" style="fill:rgb(115,55,201)">
    </path>
    <path d="M-342.8369046672261,71.1501662860781L-345.44879638975215,15.75327459858983" style="fill:none;stroke:rgb(214,94,68);stroke-width:5;stroke-linecap:round">
    </path>
    <path d="M-344.5305532215563,71.67250487298078L-347.15453402479176,16.258440576164958" style="fill:none;stroke:rgb(162,186,45);stroke-width:5;stroke-linecap:round">
    </path>
    <path d="M-344.8257272067938,71.76353955780081L-347.45181577643706,16.346482619442984" style="fill:none;stroke:rgb(115,55,201);stroke-width:5;stroke-linecap:round">
    </path>
    <path d="M-358.7857167642214,175.85421979198577L-363.6656967450243,77.57397941601626L-466.45385693829996,195.1757077886955z" style="fill:rgb(0,0,0); fill-opacity: 0.18">
    </path>
    <path d="M-466.45385693829996,195.1757077886955L-466.45385693829996,195.1757077886955L-358.7857167642214,175.85421979198577z" style="fill:rgb(0,0,0); fill-opacity: 0.18">
    </path>
    <path d="M-466.45385693829996,195.1757077886955L-319.12036415945835,147.0481732677583L-454.6275770394538,105.627556348212z" style="fill:rgb(0,0,0); fill-opacity: 0.18">
    </path>
    <path d="M-318.22602848293775,10.402925430303277L-311.04087532806005,8.270719165635462L-318.74520357164334,-6.2287095413700895z" style="fill:rgb(214,94,68)">
    </path>
    <path d="M-325.2879388768618,8.7479896172768L-318.22602848293775,10.402925430303277L-318.74520357164334,-6.2287095413700895z" style="fill:rgb(214,94,68)">
    </path>
    <path d="M-353.95635452810023,74.57951868189508L-356.64776678872386,19.069927003518465" style="fill:none;stroke:rgb(70,211,116);stroke-width:5;stroke-linecap:round">
    </path>
    <path d="M-354.57852887963884,74.77140363391713L-357.274401140787,19.25550909336602" style="fill:none;stroke:rgb(70,211,116);stroke-width:5;stroke-linecap:round">
    </path>
    <path d="M-438.5723702881609,268.68188856043713L-441.82216492831145,214.41934592897044" style="fill:none;stroke:rgb(109,213,75);stroke-width:5;stroke-linecap:round">
    </path>
    <path d="M-405.9090989827333,205.5344440040007L-398.57694971591053,203.09179736315477L-406.39037022060785,188.79701361682177z" style="fill:rgb(109,213,75)">
    </path>
    <path d="M-412.8667028211546,203.62645869342293L-405.9090989827333,205.5344440040007L-406.39037022060785,188.79701361682177z" style="fill:rgb(109,213,75)">
    </path>
    <path d="M-358.82300032896626,76.08044216692454L-361.54932848089976,20.521558340605925" style="fill:none;stroke:rgb(44,139,201);stroke-width:5;stroke-linecap:round">
    </path>
    <path d="M-363.66569674502415,77.57397941601619L-366.4268367540372,21.966066091572564" style="fill:none;stroke:rgb(115,55,201);stroke-width:5;stroke-linecap:round">
    </path>
    <path d="M-363.6656967450243,77.57397941601626L-466.45385693829996,195.1757077886955" style="fill:none;stroke:rgb(0,0,0);stroke-width:1;stroke-linecap:round">
    </path>
    <path d="M-363.6656967450243,77.57397941601626L-466.45385693829996,195.1757077886955" style="fill:none;stroke:rgb(0,0,0);stroke-width:1;stroke-linecap:round">
    </path>
    <path d="M-330.27361648014835,13.978067399873L-323.0504722997823,11.834587234593528L-330.788861241663,-2.6990675660175767z" style="fill:rgb(162,186,45)">
    </path>
    <path d="M-337.33864003045653,12.314157987828402L-330.27361648014835,13.978067399873L-330.788861241663,-2.6990675660175767z" style="fill:rgb(162,186,45)">
    </path>
    <path d="M-588.011137586828,320.1351999727323L-367.2683678643948,244.13118389408635L-486.3539847836224,366.38983270413365z" style="fill:rgb(0,0,0); fill-opacity: 0.18">
    </path>
    <path d="M-332.7388947503729,14.709642866479957L-325.5079642016247,12.563852083307507L-333.25333181258975,-1.9768036979721233z" style="fill:rgb(44,139,201)">
    </path>
    <path d="M-339.80454525441405,13.043894216647894L-332.7388947503729,14.709642866479957L-333.25333181258975,-1.9768036979721233z" style="fill:rgb(44,139,201)">
    </path>
    <path d="M-454.6275770394538,105.627556348212L-466.45385693829996,195.1757077886955" style="fill:none;stroke:rgb(0,0,0);stroke-width:1;stroke-linecap:round">
    </path>
    <path d="M-454.6275770394538,105.627556348212L-466.45385693829996,195.1757077886955" style="fill:none;stroke:rgb(0,0,0);stroke-width:1;stroke-linecap:round">
    </path>
    <path d="M-454.6275770394538,105.627556348212L-466.45385693829996,195.1757077886955" style="fill:none;stroke:rgb(0,0,0);stroke-width:1;stroke-linecap:round">
    </path>
    <path d="M-454.6275770394538,105.627556348212L-466.45385693829996,195.1757077886955" style="fill:none;stroke:rgb(0,0,0);stroke-width:1;stroke-linecap:round">
    </path>
    <path d="M-466.45385693829996,195.1757077886955L-466.45385693829996,195.1757077886955" style="fill:none;stroke:rgb(0,0,0);stroke-width:1;stroke-linecap:round">
    </path>
    <path d="M-370.2825907024213,79.61469738584243L-373.09140576436306,23.939824218296494" style="fill:none;stroke:rgb(214,94,68);stroke-width:5;stroke-linecap:round">
    </path>
    <path d="M-486.3539847836224,366.38983270413365L-486.3539847836224,366.38983270413365L-588.011137586828,320.1351999727323z" style="fill:rgb(0,0,0); fill-opacity: 0.18">
    </path>
    <path d="M-374.9973410644164,81.06877475944333L-377.8402031708513,25.34621335744398" style="fill:none;stroke:rgb(162,186,45);stroke-width:5;stroke-linecap:round">
    </path>
    <path d="M-304.9572446475831,59.46769058211495L-454.6275770394538,105.627556348212L-466.45385693829996,195.1757077886955z" style="fill:rgb(0,0,0); fill-opacity: 0.18">
    </path>
    <path d="M-304.9572446475831,59.46769058211495L-454.6275770394538,105.627556348212L-466.45385693829996,195.1757077886955z" style="fill:rgb(0,0,0); fill-opacity: 0.18">
    </path>
    <path d="M-345.5969286567721,18.5252860205753L-338.32531923688606,16.367423714081106L-346.1071340809436,1.7902678406187684z" style="fill:rgb(214,94,68)">
    </path>
    <path d="M-352.6657935890433,16.849928108964814L-345.5969286567721,18.5252860205753L-346.1071340809436,1.7902678406187684z" style="fill:rgb(214,94,68)">
    </path>
    <path d="M-347.30628035191154,19.032539006605592L-340.0292544890852,16.873069361573076L-347.81592082445013,2.2910629962151075z" style="fill:rgb(162,186,45)">
    </path>
    <path d="M-347.60419224556983,19.12094486132927L-340.3262221797782,16.9611950224812L-348.1137341987856,2.3783433404159124z" style="fill:rgb(115,55,201)">
    </path>
    <path d="M-354.37556559165574,17.355901558879147L-347.30628035191154,19.032539006605592L-347.81592082445013,2.2910629962151075z" style="fill:rgb(162,186,45)">
    </path>
    <path d="M-354.67355056941744,17.44408436160977L-347.60419224556983,19.12094486132927L-348.1137341987856,2.3783433404159124z" style="fill:rgb(115,55,201)">
    </path>
    <path d="M-356.81967550640894,21.85565499445478L-349.5124676519694,19.687228792726717L-357.3261614673794,5.078234924270374z" style="fill:rgb(70,211,116)">
    </path>
    <path d="M-363.89126986864665,20.171887382741705L-356.81967550640894,21.85565499445478L-357.3261614673794,5.078234924270374z" style="fill:rgb(70,211,116)">
    </path>
    <path d="M-357.44764363793666,22.042005592026374L-350.1384413113013,19.872987527324902L-357.95392076045647,5.2622127167294215z" style="fill:rgb(70,211,116)">
    </path>
    <path d="M-364.5193886273471,20.357766795207237L-357.44764363793666,22.042005592026374L-357.95392076045647,5.2622127167294215z" style="fill:rgb(70,211,116)">
    </path>
    <path d="M-475.05824598321755,281.2443524928118L-478.5755643429659,226.63927939496776" style="fill:none;stroke:rgb(109,213,75);stroke-width:5;stroke-linecap:round">
    </path>
    <path d="M-442.17234260796965,217.6152523732696L-434.7254083972634,215.13436605025225L-442.6413085867305,200.7419223966949z" style="fill:rgb(109,213,75)">
    </path>
    <path d="M-449.13714857366574,215.67673346566488L-442.17234260796965,217.6152523732696L-442.6413085867305,200.7419223966949z" style="fill:rgb(109,213,75)">
    </path>
    <path d="M-361.73167962900766,23.313300466516722L-354.4088636444056,21.140242525952317L-362.2365300182601,6.517319579987863z" style="fill:rgb(44,139,201)">
    </path>
    <path d="M-368.8044462737542,21.625845461322754L-361.73167962900766,23.313300466516722L-362.2365300182601,6.517319579987863z" style="fill:rgb(44,139,201)">
    </path>
    <path d="M-396.6499104795855,87.74664927019437L-399.6499574187221,31.805322659469375" style="fill:none;stroke:rgb(70,211,116);stroke-width:5;stroke-linecap:round">
    </path>
    <path d="M-398.0589000390392,88.18119610316272L-401.0692222625843,32.2256477420375" style="fill:none;stroke:rgb(214,94,68);stroke-width:5;stroke-linecap:round">
    </path>
    <path d="M-399.8339030914485,88.72862525177388L-402.8571779617395,32.755163166960294" style="fill:none;stroke:rgb(44,139,201);stroke-width:5;stroke-linecap:round">
    </path>
    <path d="M-366.61960082349236,24.76379928921859L-359.28123673035634,22.586127421336982L-367.12281905064395,7.949347236780102z" style="fill:rgb(115,55,201)">
    </path>
    <path d="M-373.69352049957365,23.072670973230466L-366.61960082349236,24.76379928921859L-367.12281905064395,7.949347236780102z" style="fill:rgb(115,55,201)">
    </path>
    <path d="M-373.2984329780009,26.745753946766953L-365.9387974086889,24.561769732609118L-373.7994135929255,9.90606080291789z" style="fill:rgb(214,94,68)">
    </path>
    <path d="M-380.37390637282033,25.049599991766897L-373.2984329780009,26.745753946766953L-373.7994135929255,9.90606080291789z" style="fill:rgb(214,94,68)">
    </path>
    <path d="M-378.05741819799977,28.15799080251928L-370.682606938362,25.969503176772864L-378.5567991700683,11.300310646785498z" style="fill:rgb(162,186,45)">
    </path>
    <path d="M-385.1339833465922,26.45825130000987L-378.05741819799977,28.15799080251928L-378.5567991700683,11.300310646785498z" style="fill:rgb(162,186,45)">
    </path>
    <path d="M-426.17184313899105,96.85151612614536L-429.38838039535,40.612561947580744" style="fill:none;stroke:rgb(214,94,68);stroke-width:5;stroke-linecap:round">
    </path>
    <path d="M-606.2663631907708,257.5482113154701L-528.0877276725037,215.30885053494112" style="fill:none;stroke:rgb(160,0,0);stroke-width:4;stroke-linecap:round">
    </path>
    <path d="M-427.40638173348987,97.23226049207575L-430.63202686948034,40.980876437427426" style="fill:none;stroke:rgb(70,211,116);stroke-width:5;stroke-linecap:round">
    </path>
    <path d="M-512.1175108663979,294.0042402462624L-515.9104187923475,239.05253761326006" style="fill:none;stroke:rgb(109,213,75);stroke-width:5;stroke-linecap:round">
    </path>
    <path d="M-479.0059843613982,229.88608429785234L-471.44154851436855,227.36605324839604L-479.46219702796304,212.8746332573724z" style="fill:rgb(109,213,75)">
    </path>
    <path d="M-528.0877276725037,215.30885053494112L-486.3539847836224,366.38983270413365L-606.2663631907708,257.5482113154701z" style="fill:rgb(0,0,0); fill-opacity: 0.18">
    </path>
    <path d="M-485.977360189239,227.91630382177118L-479.0059843613982,229.88608429785234L-479.46219702796304,212.8746332573724z" style="fill:rgb(109,213,75)">
    </path>
    <path d="M-431.85446901761304,98.60409623714129L-435.11296662825043,42.307937684828374" style="fill:none;stroke:rgb(162,186,45);stroke-width:5;stroke-linecap:round">
    </path>
    <path d="M-399.9142258716922,34.64403518361219L-392.4695161131434,32.43480506093409L-400.4062041131028,17.703728855473475z" style="fill:rgb(70,211,116)">
    </path>
    <path d="M-406.99564117592945,32.92777964405537L-399.9142258716922,34.64403518361219L-400.4062041131028,17.703728855473475z" style="fill:rgb(70,211,116)">
    </path>
    <path d="M-401.336567730362,35.06611751869735L-393.88729788763396,32.855534183381344L-401.8280610495286,18.120433320450765z" style="fill:rgb(214,94,68)">
    </path>
    <path d="M-408.41828932682364,33.348784428215154L-401.336567730362,35.06611751869735L-401.8280610495286,18.120433320450765z" style="fill:rgb(214,94,68)">
    </path>
    <path d="M-403.128402391938,35.597847463530535L-395.6733858723961,33.385558792219705L-403.6192842626499,18.64538818163025z" style="fill:rgb(44,139,201)">
    </path>
    <path d="M-410.2105082250212,33.879156417893974L-403.128402391938,35.597847463530535L-403.6192842626499,18.64538818163025z" style="fill:rgb(44,139,201)">
    </path>
    <path d="M-440.45465603433877,101.25648213026538L-443.77683434737435,44.873801927960464" style="fill:none;stroke:rgb(44,139,201);stroke-width:5;stroke-linecap:round">
    </path>
    <path d="M-454.6275770394537,105.62755634821194L-458.05516527977437,49.10242821575391" style="fill:none;stroke:rgb(214,94,68);stroke-width:5;stroke-linecap:round">
    </path>
    <path d="M-454.6275770394538,105.627556348212L-458.0551652797745,49.102428215753996" style="fill:none;stroke:rgb(162,186,45);stroke-width:5;stroke-linecap:round">
    </path>
    <path d="M-454.6275770394537,105.62755634821194L-458.05516527977437,49.10242821575391" style="fill:none;stroke:rgb(70,211,116);stroke-width:5;stroke-linecap:round">
    </path>
    <path d="M-454.6275770394538,105.627556348212L-458.0551652797745,49.102428215753996" style="fill:none;stroke:rgb(44,139,201);stroke-width:5;stroke-linecap:round">
    </path>
    <path d="M-606.2663631907708,257.5482113154701L-588.011137586828,320.1351999727323L-486.3539847836224,366.38983270413365z" style="fill:rgb(0,0,0); fill-opacity: 0.18">
    </path>
    <path d="M-429.7175065565125,43.48820877519224L-422.17695490536744,41.250537409939845L-430.1992425059107,26.435192482699918z" style="fill:rgb(214,94,68)">
    </path>
    <path d="M-436.80510136820754,41.74930402890062L-429.7175065565125,43.48820877519224L-430.1992425059107,26.435192482699918z" style="fill:rgb(214,94,68)">
    </path>
    <path d="M-430.9638829079271,43.85807305050221L-423.4193098066536,41.61920831317099L-431.44518679972055,26.800342124019362z" style="fill:rgb(70,211,116)">
    </path>
    <path d="M-549.7637885260427,306.9662425629981L-553.8406366081756,251.66374488774682" style="fill:none;stroke:rgb(109,213,75);stroke-width:5;stroke-linecap:round">
    </path>
    <path d="M-438.05172523820397,42.118217883662524L-430.9638829079271,43.85807305050221L-431.44518679972055,26.800342124019362z" style="fill:rgb(70,211,116)">
    </path>
    <path d="M-516.4235889334551,242.35145874542434L-508.73884834599204,239.79134913790767L-516.8665834820521,225.19961032827638z" style="fill:rgb(109,213,75)">
    </path>
    <path d="M-523.400869475352,240.3496654880801L-516.4235889334551,242.35145874542434L-516.8665834820521,225.19961032827638z" style="fill:rgb(109,213,75)">
    </path>
    <path d="M-435.454670283611,45.190721745572034L-427.8955987204789,42.94755456533715L-435.9344149603119,28.11600291301723z" style="fill:rgb(162,186,45)">
    </path>
    <path d="M-442.5433971791977,43.44743999304059L-435.454670283611,45.190721745572034L-435.9344149603119,28.11600291301723z" style="fill:rgb(162,186,45)">
    </path>
    <path d="M-444.1376302065711,47.76740468392065L-436.5504863888838,45.51590701500507L-444.61434912620746,30.65983642395349z" style="fill:rgb(44,139,201)">
    </path>
    <path d="M-451.2280351693282,46.01748806869588L-444.1376302065711,47.76740468392065L-444.61434912620746,30.65983642395349z" style="fill:rgb(44,139,201)">
    </path>
    <path d="M-458.44757498988724,52.013904828920914L-450.8140533695439,49.74864446918538L-458.9192756527021,34.852189819046814z" style="fill:rgb(214,94,68)">
    </path>
    <path d="M-458.44757498988724,52.01390482892094L-450.8140533695439,49.74864446918538L-458.9192756527021,34.85218981904689z" style="fill:rgb(162,186,45)">
    </path>
    <path d="M-458.44757498988724,52.013904828920914L-450.8140533695439,49.74864446918538L-458.9192756527021,34.852189819046814z" style="fill:rgb(70,211,116)">
    </path>
    <path d="M-458.44757498988724,52.01390482892094L-450.8140533695439,49.74864446918538L-458.9192756527021,34.85218981904689z" style="fill:rgb(44,139,201)">
    </path>
    <path d="M-465.54065274190845,50.253026186899966L-458.44757498988724,52.013904828920914L-458.9192756527021,34.852189819046814z" style="fill:rgb(214,94,68)">
    </path>
    <path d="M-465.5406527419086,50.25302618690005L-458.44757498988724,52.01390482892094L-458.9192756527021,34.85218981904689z" style="fill:rgb(162,186,45)">
    </path>
    <path d="M-465.54065274190845,50.253026186899966L-458.44757498988724,52.013904828920914L-458.9192756527021,34.852189819046814z" style="fill:rgb(70,211,116)">
    </path>
    <path d="M-465.5406527419086,50.25302618690005L-458.44757498988724,52.01390482892094L-458.9192756527021,34.85218981904689z" style="fill:rgb(44,139,201)">
    </path>
    <path d="M-588.0111375868275,320.13519997273227L-592.3805732681351,264.477674191404" style="fill:none;stroke:rgb(109,213,75);stroke-width:5;stroke-linecap:round">
    </path>
    <path d="M-606.2663631907708,257.5482113154701L-588.011137586828,320.1351999727323" style="fill:none;stroke:rgb(0,44,41);stroke-width:5;stroke-linecap:round">
    </path>
    <path d="M-588.011137586828,320.1351999727323L-642.1568827913087,338.7781394188863" style="fill:none;stroke:rgb(43,180,168);stroke-width:5;stroke-linecap:round">
    </path>
    <path d="M-554.4391545621921,255.01603911656713L-546.6312162553015,252.4148871782729L-554.8684487025664,237.72146035432388z" style="fill:rgb(109,213,75)">
    </path>
    <path d="M-561.4216401618988,252.98145769023606L-554.4391545621921,255.01603911656713L-554.8684487025664,237.72146035432388z" style="fill:rgb(109,213,75)">
    </path>
    <path d="M-597.0893881744265,289.01094115058476L-651.6335972989251,307.4049641676008" style="fill:none;stroke:rgb(43,180,168);stroke-width:5;stroke-linecap:round">
    </path>
    <path d="M-593.0671304938242,267.88463906160956L-585.1330079825084,265.24144986904645L-593.4822236820032,250.44493843694798z" style="fill:rgb(109,213,75)">
    </path>
    <path d="M-600.0540852730039,265.81646892469655L-593.0671304938242,267.88463906160956L-593.4822236820032,250.44493843694798z" style="fill:rgb(109,213,75)">
    </path>
    <path d="M-606.2663631907706,257.5482113154701L-661.2145376548806,275.6867436157494" style="fill:none;stroke:rgb(43,180,168);stroke-width:5;stroke-linecap:round">
    </path>
    <path d="M-642.7521465385742,331.80036220229914L-646.1290953797796,334.05516057351286L-655.8835657998754,343.5043781872112z" style="fill:rgb(43,180,168)">
    </path>
    <path d="M-639.3303177962725,346.0118090499768L-638.540386539844,339.19926404340333L-655.8835657998754,343.5043781872112z" style="fill:rgb(43,180,168)">
    </path>
    <path d="M-638.540386539844,339.19926404340333L-642.7521465385742,331.80036220229914L-655.8835657998754,343.5043781872112z" style="fill:rgb(43,180,168)">
    </path>
    <path d="M-652.2402529267936,300.36206617112236L-655.6150196216176,302.6975236775705L-665.4623474055987,312.06845368998285z" style="fill:rgb(43,180,168)">
    </path>
    <path d="M-648.7942744069215,314.6692510354435L-648.0148429244985,307.7702726192112L-665.4623474055987,312.06845368998285z" style="fill:rgb(43,180,168)">
    </path>
    <path d="M-648.0148429244985,307.7702726192112L-652.2402529267936,300.36206617112236L-665.4623474055987,312.06845368998285z" style="fill:rgb(43,180,168)">
    </path>
    <path d="M-661.8328005070305,268.57771024367656L-665.2051327954414,270.99546924101816L-675.1467767918156,280.2858112292798z" style="fill:rgb(43,180,168)">
    </path>
    <path d="M-658.3623464257502,282.98188552069354L-657.5936944341531,275.9949781085769L-675.1467767918156,280.2858112292798z" style="fill:rgb(43,180,168)">
    </path>
    <path d="M-657.5936944341531,275.9949781085769L-661.8328005070305,268.57771024367656L-675.1467767918156,280.2858112292798z" style="fill:rgb(43,180,168)">
    </path>
</svg>