<svg viewBox="-1163.5 -590 2327 1180" width="2327" height="1180" style="background-color: rgb(255, 255, 255);">
    <path d="M-139.22149829031247,-11.8585151758396L-139.22149829031247,-11.8585151758396" style="fill:none;stroke:rgb(0,0,0);stroke-width:1;stroke-linecap:round">
    </path>
    <path d="M-8.764780625953742,45.66831198465309L-139.22149829031247,-11.8585151758396" style="fill:none;stroke:rgb(160,0,0);stroke-width:4;stroke-linecap:round">
    </path>
    <path d="M-8.764780625953742,45.66831198465309L-139.22149829031247,-11.8585151758396" style="fill:none;stroke:rgb(0,0,0);stroke-width:1;stroke-linecap:round">
    </path>
    <path d="M-139.22149829031247,-11.8585151758396L-265.01485691291924,26.35703319788878" style="fill:none;stroke:rgb(0,0,0);stroke-width:1;stroke-linecap:round">
    </path>
    <path d="M-8.764780625953742,45.66831198465309L-139.22149829031247,-11.8585151758396" style="fill:none;stroke:rgb(0,0,0);stroke-width:1;stroke-linecap:round">
    </path>
    <path d="M-265.01485691291924,26.35703319788878L-139.22149829031247,-11.8585151758396" style="fill:none;stroke:rgb(0,0,0);stroke-width:1;stroke-linecap:round">
    </path>
    <path d="M-8.764780625953742,45.66831198465309L-139.22149829031247,-11.8585151758396" style="fill:none;stroke:rgb(0,0,0);stroke-width:1;stroke-linecap:round">
    </path>
    <path d="M-139.22149829031247,-11.8585151758396L-265.01485691291924,26.35703319788878" style="fill:none;stroke:rgb(0,0,0);stroke-width:1;stroke-linecap:round">
    </path>
    <path d="M-8.764780625953742,45.66831198465309L-139.22149829031247,-11.8585151758396" style="fill:none;stroke:rgb(0,0,0);stroke-width:1;stroke-linecap:round">
    </path>
    <path d="M-265.01485691291924,26.35703319788878L-139.22149829031247,-11.8585151758396" style="fill:none;stroke:rgb(0,0,0);stroke-width:1;stroke-linecap:round">
    </path>
    <path d="M-8.764780625953742,45.66831198465309L-139.22149829031247,-11.8585151758396" style="fill:none;stroke:rgb(0,0,0);stroke-width:1;stroke-linecap:round">
    </path>
    <path d="M-139.22149829031247,-11.8585151758396L-588.646896494547,124.67522741213739" style="fill:none;stroke:rgb(0,0,0);stroke-width:1;stroke-linecap:round">
    </path>
    <path d="M-8.764780625953742,45.66831198465309L-139.22149829031247,-11.8585151758396" style="fill:none;stroke:rgb(0,0,0);stroke-width:1;stroke-linecap:round">
    </path>
    <path d="M-139.22149829031247,-11.8585151758396L-139.22149829031247,-11.8585151758396L-8.764780625953742,45.66831198465309z" style="fill:rgb(0,0,0); fill-opacity: 0.18">
    </path>
    <path d="M-139.22149829031247,-11.8585151758396L-265.01485691291924,26.35703319788878L-8.764780625953742,45.66831198465309z" style="fill:rgb(0,0,0); fill-opacity: 0.18">
    </path>
    <path d="M-139.22149829031247,-11.8585151758396L-265.01485691291924,26.35703319788878L-8.764780625953742,45.66831198465309z" style="fill:rgb(0,0,0); fill-opacity: 0.18">
    </path>
    <path d="M-136.44637437819742,87.37641375499172L-265.01485691291924,26.35703319788878" style="fill:none;stroke:rgb(0,0,0);stroke-width:1;stroke-linecap:round">
    </path>
    <path d="M-136.44637437819742,87.37641375499172L-265.01485691291924,26.35703319788878" style="fill:none;stroke:rgb(0,0,0);stroke-width:1;stroke-linecap:round">
    </path>
    <path d="M-136.44637437819742,87.37641375499172L-265.01485691291924,26.35703319788878" style="fill:none;stroke:rgb(0,0,0);stroke-width:1;stroke-linecap:round">
    </path>
    <path d="M-136.44637437819742,87.37641375499172L-265.01485691291924,26.35703319788878" style="fill:none;stroke:rgb(0,0,0);stroke-width:1;stroke-linecap:round">
    </path>
    <path d="M-8.764780625953742,45.66831198465309L-8.764780625953742,45.66831198465309L-139.22149829031247,-11.8585151758396z" style="fill:rgb(0,0,0); fill-opacity: 0.18">
    </path>
    <path d="M-265.01485691291924,26.35703319788878L-139.22149829031247,-11.8585151758396L-136.44637437819742,87.37641375499172z" style="fill:rgb(0,0,0); fill-opacity: 0.18">
    </path>
    <path d="M-265.01485691291924,26.35703319788878L-139.22149829031247,-11.8585151758396L-136.44637437819742,87.37641375499172z" style="fill:rgb(0,0,0); fill-opacity: 0.18">
    </path>
    <path d="M-136.44637437819742,87.37641375499172L-8.764780625953742,45.66831198465309L-139.22149829031247,-11.8585151758396z" style="fill:rgb(0,0,0); fill-opacity: 0.18">
    </path>
    <path d="M-136.44637437819742,87.37641375499172L-8.764780625953742,45.66831198465309L-139.22149829031247,-11.8585151758396z" style="fill:rgb(0,0,0); fill-opacity: 0.18">
    </path>
    <path d="M-8.764780625953625,45.66831198465312L-8.764780625953625,45.66831198465312" style="fill:none;stroke:rgb(0,0,0);stroke-width:1;stroke-linecap:round">
    </path>
    <path d="M-105.07271436401642,102.26654282964624L-8.764780625953625,45.66831198465312" style="fill:none;stroke:rgb(160,0,0);stroke-width:4;stroke-linecap:round">
    </path>
    <path d="M-108.09015848647314,-56.08778665555343L-8.764780625953625,45.66831198465312" style="fill:none;stroke:rgb(0,0,0);stroke-width:1;stroke-linecap:round">
    </path>
    <path d="M-8.764780625953625,45.66831198465312L-136.4463743781973,87.37641375499177" style="fill:none;stroke:rgb(0,0,0);stroke-width:1;stroke-linecap:round">
    </path>
    <path d="M-108.09015848647314,-56.08778665555343L-8.764780625953625,45.66831198465312" style="fill:none;stroke:rgb(0,0,0);stroke-width:1;stroke-linecap:round">
    </path>
    <path d="M-136.4463743781973,87.37641375499177L-8.764780625953625,45.66831198465312" style="fill:none;stroke:rgb(0,0,0);stroke-width:1;stroke-linecap:round">
    </path>
    <path d="M22.431005702372705,-94.69614616578787L-8.764780625953625,45.66831198465312" style="fill:none;stroke:rgb(0,0,0);stroke-width:1;stroke-linecap:round">
    </path>
    <path d="M-8.764780625953625,45.66831198465312L-136.4463743781973,87.37641375499177" style="fill:none;stroke:rgb(0,0,0);stroke-width:1;stroke-linecap:round">
    </path>
    <path d="M22.431005702372705,-94.69614616578787L-8.764780625953625,45.66831198465312" style="fill:none;stroke:rgb(0,0,0);stroke-width:1;stroke-linecap:round">
    </path>
    <path d="M-136.4463743781973,87.37641375499177L-8.764780625953625,45.66831198465312" style="fill:none;stroke:rgb(0,0,0);stroke-width:1;stroke-linecap:round">
    </path>
    <path d="M22.431005702372705,-94.69614616578787L-8.764780625953625,45.66831198465312" style="fill:none;stroke:rgb(0,0,0);stroke-width:1;stroke-linecap:round">
    </path>
    <path d="M-8.764780625953625,45.66831198465312L-466.45385693829996,195.1757077886955" style="fill:none;stroke:rgb(0,0,0);stroke-width:1;stroke-linecap:round">
    </path>
    <path d="M22.431005702372705,-94.69614616578787L-8.764780625953625,45.66831198465312" style="fill:none;stroke:rgb(0,0,0);stroke-width:1;stroke-linecap:round">
    </path>
    <path d="M-8.764780625953742,45.66831198465309L-136.44637437819742,87.37641375499172L-265.01485691291924,26.35703319788878z" style="fill:rgb(0,0,0); fill-opacity: 0.18">
    </path>
    <path d="M-8.764780625953742,45.66831198465309L-136.44637437819742,87.37641375499172L-265.01485691291924,26.35703319788878z" style="fill:rgb(0,0,0); fill-opacity: 0.18">
    </path>
    <path d="M-8.764780625953625,45.66831198465312L-136.4463743781973,87.37641375499177L22.431005702372705,-94.69614616578787z" style="fill:rgb(0,0,0); fill-opacity: 0.18">
    </path>
    <path d="M-8.764780625953625,45.66831198465312L-136.4463743781973,87.37641375499177L22.431005702372705,-94.69614616578787z" style="fill:rgb(0,0,0); fill-opacity: 0.18">
    </path>
    <path d="M-8.764780625953625,45.66831198465312L-8.764780625953625,45.66831198465312L-108.09015848647314,-56.08778665555343z" style="fill:rgb(0,0,0); fill-opacity: 0.18">
    </path>
    <path d="M55.473543852583376,73.99515521294974L-105.07271436401642,102.26654282964624" style="fill:none;stroke:rgb(160,0,0);stroke-width:4;stroke-linecap:round">
    </path>
    <path d="M55.483841970089536,-243.41634203533823L55.47354385258335,73.99515521294971" style="fill:none;stroke:rgb(50,34,0);stroke-width:5;stroke-linecap:round">
    </path>
    <path d="M55.47354385258335,73.99515521294971L13.502610631524867,88.19970023341727" style="fill:none;stroke:rgb(197,147,42);stroke-width:5;stroke-linecap:round">
    </path>
    <path d="M-466.4538569383001,195.17570778869543L-8.764780625953742,45.66831198465309L-139.22149829031247,-11.8585151758396z" style="fill:rgb(0,0,0); fill-opacity: 0.18">
    </path>
    <path d="M-588.646896494547,124.67522741213739L-444.4253299585708,80.86125890982892" style="fill:none;stroke:rgb(0,0,0);stroke-width:1;stroke-linecap:round">
    </path>
    <path d="M-319.12036415945846,147.04817326775824L-444.4253299585708,80.86125890982892" style="fill:none;stroke:rgb(0,0,0);stroke-width:1;stroke-linecap:round">
    </path>
    <path d="M-444.4253299585708,80.86125890982892L-588.646896494547,124.67522741213739" style="fill:none;stroke:rgb(0,0,0);stroke-width:1;stroke-linecap:round">
    </path>
    <path d="M-319.12036415945846,147.04817326775824L-444.4253299585708,80.86125890982892" style="fill:none;stroke:rgb(0,0,0);stroke-width:1;stroke-linecap:round">
    </path>
    <path d="M-588.646896494547,124.67522741213739L-444.4253299585708,80.86125890982892" style="fill:none;stroke:rgb(0,0,0);stroke-width:1;stroke-linecap:round">
    </path>
    <path d="M-319.12036415945846,147.04817326775824L-444.4253299585708,80.86125890982892" style="fill:none;stroke:rgb(0,0,0);stroke-width:1;stroke-linecap:round">
    </path>
    <path d="M-444.4253299585708,80.86125890982892L-588.646896494547,124.67522741213739" style="fill:none;stroke:rgb(0,0,0);stroke-width:1;stroke-linecap:round">
    </path>
    <path d="M-319.12036415945846,147.04817326775824L-444.4253299585708,80.86125890982892" style="fill:none;stroke:rgb(0,0,0);stroke-width:1;stroke-linecap:round">
    </path>
    <path d="M55.47453994658402,43.293263535740664L13.349391422366732,57.2410239263581" style="fill:none;stroke:rgb(197,147,42);stroke-width:5;stroke-linecap:round">
    </path>
    <path d="M55.47554331455262,12.367171557282385L13.19504202941662,26.053988561869563" style="fill:none;stroke:rgb(197,147,42);stroke-width:5;stroke-linecap:round">
    </path>
    <path d="M55.483841970089586,-243.41634203533823L22.431005702372705,-94.69614616578787" style="fill:none;stroke:rgb(0,0,0);stroke-width:1;stroke-linecap:round">
    </path>
    <path d="M55.483841970089586,-243.41634203533823L22.431005702372705,-94.69614616578787" style="fill:none;stroke:rgb(0,0,0);stroke-width:1;stroke-linecap:round">
    </path>
    <path d="M55.483841970089586,-243.41634203533823L22.431005702372705,-94.69614616578787" style="fill:none;stroke:rgb(0,0,0);stroke-width:1;stroke-linecap:round">
    </path>
    <path d="M55.483841970089586,-243.41634203533823L22.431005702372705,-94.69614616578787" style="fill:none;stroke:rgb(0,0,0);stroke-width:1;stroke-linecap:round">
    </path>
    <path d="M-108.09015848647314,-56.08778665555343L22.431005702372705,-94.69614616578787L-8.764780625953625,45.66831198465312z" style="fill:rgb(0,0,0); fill-opacity: 0.18">
    </path>
    <path d="M-108.09015848647314,-56.08778665555343L-136.4463743781973,87.37641375499177" style="fill:none;stroke:rgb(0,0,0);stroke-width:1;stroke-linecap:round">
    </path>
    <path d="M-108.09015848647314,-56.08778665555343L-136.4463743781973,87.37641375499177" style="fill:none;stroke:rgb(0,0,0);stroke-width:1;stroke-linecap:round">
    </path>
    <path d="M-108.09015848647314,-56.08778665555343L-136.4463743781973,87.37641375499177" style="fill:none;stroke:rgb(0,0,0);stroke-width:1;stroke-linecap:round">
    </path>
    <path d="M-108.09015848647314,-56.08778665555343L-136.4463743781973,87.37641375499177" style="fill:none;stroke:rgb(0,0,0);stroke-width:1;stroke-linecap:round">
    </path>
    <path d="M-136.4463743781973,87.37641375499177L-8.764780625953625,45.66831198465312L-108.09015848647314,-56.08778665555343z" style="fill:rgb(0,0,0); fill-opacity: 0.18">
    </path>
    <path d="M-136.4463743781973,87.37641375499177L-8.764780625953625,45.66831198465312L-108.09015848647314,-56.08778665555343z" style="fill:rgb(0,0,0); fill-opacity: 0.18">
    </path>
    <path d="M13.470782552051613,81.76868407492371L9.181277016277273,84.26898196574825L2.878033011761678,91.79545757168053z" style="fill:rgb(197,147,42)">
    </path>
    <path d="M55.476554036458246,-18.7855855533003L13.039549901600635,-5.363941864744011" style="fill:none;stroke:rgb(197,147,42);stroke-width:5;stroke-linecap:round">
    </path>
    <path d="M16.196815022093666,94.6050489474989L17.816454402480712,88.16341597805835L2.878033011761678,91.79545757168053z" style="fill:rgb(197,147,42)">
    </path>
    <path d="M17.816454402480712,88.16341597805835L13.470782552051613,81.76868407492371L2.878033011761678,91.79545757168053z" style="fill:rgb(197,147,42)">
    </path>
    <path d="M-108.09015848647314,-56.08778665555343L-105.07271436401642,102.26654282964624L-8.764780625953625,45.66831198465312z" style="fill:rgb(0,0,0); fill-opacity: 0.18">
    </path>
    <path d="M13.31732891389527,50.76264026406148L9.012377657782006,53.33229623962913L2.685288058156139,60.77193986886873z" style="fill:rgb(197,147,42)">
    </path>
    <path d="M55.47757219344658,-50.16750889051021L12.882902301309135,-37.015341048621735" style="fill:none;stroke:rgb(197,147,42);stroke-width:5;stroke-linecap:round">
    </path>
    <path d="M16.053459350506895,63.662027321738L17.67885958830218,57.153414012862044L2.685288058156139,60.77193986886873z" style="fill:rgb(197,147,42)">
    </path>
    <path d="M17.67885958830218,57.153414012862044L13.31732891389527,50.76264026406148L2.685288058156139,60.77193986886873z" style="fill:rgb(197,147,42)">
    </path>
    <path d="M13.162742492353937,19.52771213552963L8.84223392564217,22.16768308553785L2.4911177695034343,29.51900548748242z" style="fill:rgb(197,147,42)">
    </path>
    <path d="M22.431005702372705,-94.69614616578787L-108.09015848647314,-56.08778665555343L-136.4463743781973,87.37641375499177z" style="fill:rgb(0,0,0); fill-opacity: 0.18">
    </path>
    <path d="M22.431005702372705,-94.69614616578787L-108.09015848647314,-56.08778665555343L-136.4463743781973,87.37641375499177z" style="fill:rgb(0,0,0); fill-opacity: 0.18">
    </path>
    <path d="M55.47859786786151,-81.7811364818468L12.725086300918406,-68.90282107815796" style="fill:none;stroke:rgb(197,147,42);stroke-width:5;stroke-linecap:round">
    </path>
    <path d="M-588.646896494547,124.67522741213739L-139.22149829031247,-11.8585151758396L-466.4538569383001,195.17570778869543z" style="fill:rgb(0,0,0); fill-opacity: 0.18">
    </path>
    <path d="M-108.09015848647314,-56.08778665555343L-108.09015848647314,-56.08778665555343L-8.764780625953625,45.66831198465312z" style="fill:rgb(0,0,0); fill-opacity: 0.18">
    </path>
    <path d="M15.909045980660018,32.490703740611664L17.540248155379114,25.914294769851804L2.4911177695034343,29.51900548748242z" style="fill:rgb(197,147,42)">
    </path>
    <path d="M55.483841970089586,-243.41634203533823L55.473543852583376,73.99515521294974L-105.07271436401642,102.26654282964624z" style="fill:rgb(0,0,0); fill-opacity: 0.18">
    </path>
    <path d="M17.540248155379114,25.914294769851804L13.162742492353937,19.52771213552963L2.4911177695034343,29.51900548748242z" style="fill:rgb(197,147,42)">
    </path>
    <path d="M-105.07271436401642,102.26654282964624L-108.09015848647314,-56.08778665555343" style="fill:none;stroke:rgb(0,0,0);stroke-width:1;stroke-linecap:round">
    </path>
    <path d="M-588.646896494547,124.67522741213739L-606.1000104050623,288.76717754847164" style="fill:none;stroke:rgb(0,0,0);stroke-width:1;stroke-linecap:round">
    </path>
    <path d="M-486.3539847836226,366.38983270413365L-606.1000104050623,288.76717754847164" style="fill:none;stroke:rgb(0,0,0);stroke-width:1;stroke-linecap:round">
    </path>
    <path d="M-606.1000104050623,288.76717754847164L-606.1000104050623,288.76717754847164" style="fill:none;stroke:rgb(0,0,0);stroke-width:1;stroke-linecap:round">
    </path>
    <path d="M-486.3539847836226,366.38983270413365L-606.1000104050623,288.76717754847164" style="fill:none;stroke:rgb(0,0,0);stroke-width:1;stroke-linecap:round">
    </path>
    <path d="M-486.3539847836226,366.38983270413365L-606.1000104050623,288.76717754847164" style="fill:none;stroke:rgb(0,0,0);stroke-width:1;stroke-linecap:round">
    </path>
    <path d="M-606.1000104050623,288.76717754847164L-648.8523680196821,142.9654228137446" style="fill:none;stroke:rgb(0,0,0);stroke-width:1;stroke-linecap:round">
    </path>
    <path d="M-486.3539847836226,366.38983270413365L-606.1000104050623,288.76717754847164" style="fill:none;stroke:rgb(0,0,0);stroke-width:1;stroke-linecap:round">
    </path>
    <path d="M13.007010697775165,-11.93864411034913L8.67083201704287,-9.227385708297495L2.295506276753327,-1.965899796346509z" style="fill:rgb(197,147,42)">
    </path>
    <path d="M55.47963114326742,-113.629043972057L12.56608877923421,-101.0290331535995" style="fill:none;stroke:rgb(197,147,42);stroke-width:5;stroke-linecap:round">
    </path>
    <path d="M15.763563163440468,1.088542182767472L17.400608795008953,-5.556490414529584L2.295506276753327,-1.965899796346509z" style="fill:rgb(197,147,42)">
    </path>
    <path d="M17.400608795008953,-5.556490414529584L13.007010697775165,-11.93864411034913L2.295506276753327,-1.965899796346509z" style="fill:rgb(197,147,42)">
    </path>
    <path d="M12.850120753252456,-43.63901010883293L8.498157924273885,-40.855475883580866L2.0984374744060683,-33.68536826452573z" style="fill:rgb(197,147,42)">
    </path>
    <path d="M55.48067210447185,-145.71384532265506L12.405896417855166,-133.3966683218432" style="fill:none;stroke:rgb(197,147,42);stroke-width:5;stroke-linecap:round">
    </path>
    <path d="M15.616998975073807,-30.547031073548652L17.259930030136623,-37.26152814575437L2.0984374744060683,-33.68536826452573z" style="fill:rgb(197,147,42)">
    </path>
    <path d="M17.259930030136623,-37.26152814575437L12.850120753252456,-43.63901010883293L2.0984374744060683,-33.68536826452573z" style="fill:rgb(197,147,42)">
    </path>
    <path d="M22.431005702372705,-94.69614616578787L-108.09015848647314,-56.08778665555343L55.483841970089586,-243.41634203533823z" style="fill:rgb(0,0,0); fill-opacity: 0.18">
    </path>
    <path d="M22.431005702372705,-94.69614616578787L-108.09015848647314,-56.08778665555343L55.483841970089586,-243.41634203533823z" style="fill:rgb(0,0,0); fill-opacity: 0.18">
    </path>
    <path d="M-444.4253299585708,80.86125890982892L-588.646896494547,124.67522741213739L-319.12036415945846,147.04817326775824z" style="fill:rgb(0,0,0); fill-opacity: 0.18">
    </path>
    <path d="M-444.4253299585708,80.86125890982892L-588.646896494547,124.67522741213739L-319.12036415945846,147.04817326775824z" style="fill:rgb(0,0,0); fill-opacity: 0.18">
    </path>
    <path d="M12.692059691130817,-75.57600603682761L8.324197430913683,-72.71919141093167L1.8998950160921189,-65.64203096848549z" style="fill:rgb(197,147,42)">
    </path>
    <path d="M55.481720837548615,-178.0381935271095L12.244495697453793,-166.00845822786127" style="fill:none;stroke:rgb(197,147,42);stroke-width:5;stroke-linecap:round">
    </path>
    <path d="M15.469341313865916,-62.41862815367179L17.11820021221015,-69.20344367989837L1.8998950160921189,-65.64203096848549z" style="fill:rgb(197,147,42)">
    </path>
    <path d="M17.11820021221015,-69.20344367989837L12.692059691130817,-75.57600603682761L1.8998950160921189,-65.64203096848549z" style="fill:rgb(197,147,42)">
    </path>
    <path d="M-108.09015848647314,-56.08778665555343L-105.07271436401642,102.26654282964624L55.483841970089586,-243.41634203533823z" style="fill:rgb(0,0,0); fill-opacity: 0.18">
    </path>
    <path d="M12.532814349433783,-107.75229133482419L8.148936107927504,-104.82117520454858L1.6998623100521575,-97.83855845668302z" style="fill:rgb(197,147,42)">
    </path>
    <path d="M-466.4538569383001,195.17570778869543L-588.646896494547,124.67522741213739" style="fill:none;stroke:rgb(160,0,0);stroke-width:4;stroke-linecap:round">
    </path>
    <path d="M-466.4538569383001,195.17570778869543L-588.646896494547,124.67522741213739" style="fill:none;stroke:rgb(0,0,0);stroke-width:1;stroke-linecap:round">
    </path>
    <path d="M-466.4538569383001,195.17570778869543L-588.646896494547,124.67522741213739" style="fill:none;stroke:rgb(0,0,0);stroke-width:1;stroke-linecap:round">
    </path>
    <path d="M-466.4538569383001,195.17570778869543L-588.646896494547,124.67522741213739" style="fill:none;stroke:rgb(0,0,0);stroke-width:1;stroke-linecap:round">
    </path>
    <path d="M-466.4538569383001,195.17570778869543L-588.646896494547,124.67522741213739" style="fill:none;stroke:rgb(0,0,0);stroke-width:1;stroke-linecap:round">
    </path>
    <path d="M-466.4538569383001,195.17570778869543L-588.646896494547,124.67522741213739" style="fill:none;stroke:rgb(0,0,0);stroke-width:1;stroke-linecap:round">
    </path>
    <path d="M-588.646896494547,124.67522741213739L-588.646896494547,124.67522741213739" style="fill:none;stroke:rgb(0,0,0);stroke-width:1;stroke-linecap:round">
    </path>
    <path d="M-466.4538569383001,195.17570778869543L-588.646896494547,124.67522741213739" style="fill:none;stroke:rgb(0,0,0);stroke-width:1;stroke-linecap:round">
    </path>
    <path d="M-466.4538569383001,195.17570778869543L-588.646896494547,124.67522741213739" style="fill:none;stroke:rgb(160,0,0);stroke-width:4;stroke-linecap:round">
    </path>
    <path d="M55.482777429861756,-210.60478134211058L12.081872893973244,-198.86717588319607" style="fill:none;stroke:rgb(197,147,42);stroke-width:5;stroke-linecap:round">
    </path>
    <path d="M15.320577896872202,-94.52890030549493L16.97540751796516,-101.38490164827333L1.6998623100521575,-97.83855845668302z" style="fill:rgb(197,147,42)">
    </path>
    <path d="M16.97540751796516,-101.38490164827333L12.532814349433783,-107.75229133482419L1.6998623100521575,-97.83855845668302z" style="fill:rgb(197,147,42)">
    </path>
    <path d="M-446.4901755107746,44.0114546953769L22.431005702372705,-94.69614616578787L-8.764780625953625,45.66831198465312z" style="fill:rgb(0,0,0); fill-opacity: 0.18">
    </path>
    <path d="M-606.1000104050623,288.76717754847164L-606.1000104050623,288.76717754847164L-486.3539847836226,366.38983270413365z" style="fill:rgb(0,0,0); fill-opacity: 0.18">
    </path>
    <path d="M12.37237136820983,-140.1705654451251L7.972359309677914,-137.1641098529655L1.4983225145151027,-130.27766151855027z" style="fill:rgb(197,147,42)">
    </path>
    <path d="M55.483841970089586,-243.41634203533823L-108.09015848647314,-56.08778665555343" style="fill:none;stroke:rgb(0,0,0);stroke-width:1;stroke-linecap:round">
    </path>
    <path d="M55.483841970089586,-243.41634203533823L-108.09015848647314,-56.08778665555343" style="fill:none;stroke:rgb(0,0,0);stroke-width:1;stroke-linecap:round">
    </path>
    <path d="M55.483841970089536,-243.41634203533823L11.918014074736998,-231.9756364519772" style="fill:none;stroke:rgb(197,147,42);stroke-width:5;stroke-linecap:round">
    </path>
    <path d="M-77.99210159325888,-208.36458136553856L55.483841970089536,-243.41634203533823" style="fill:none;stroke:rgb(22,55,11);stroke-width:5;stroke-linecap:round">
    </path>
    <path d="M55.483841970089536,-243.41634203533823L55.4856341109438,-298.65421550920223" style="fill:none;stroke:rgb(109,213,75);stroke-width:5;stroke-linecap:round">
    </path>
    <path d="M55.483841970089536,-243.41634203533823L-77.99210159325888,-208.36458136553856" style="fill:none;stroke:rgb(0,44,41);stroke-width:5;stroke-linecap:round">
    </path>
    <path d="M55.48384197008957,-243.41634203533823L55.485634110943835,-298.65421550920223" style="fill:none;stroke:rgb(43,180,168);stroke-width:5;stroke-linecap:round">
    </path>
    <path d="M-425.2016032559856,-117.18482245425409L55.483841970089536,-243.41634203533823" style="fill:none;stroke:rgb(10,15,55);stroke-width:5;stroke-linecap:round">
    </path>
    <path d="M55.483841970089536,-243.41634203533823L55.4856341109438,-298.65421550920223" style="fill:none;stroke:rgb(74,87,214);stroke-width:5;stroke-linecap:round">
    </path>
    <path d="M55.483841970089586,-243.41634203533823L55.483841970089586,-243.41634203533823L-108.09015848647314,-56.08778665555343z" style="fill:rgb(0,0,0); fill-opacity: 0.18">
    </path>
    <path d="M15.170696256491334,-126.88053863465915L16.831539946137156,-133.80860679842354L1.4983225145151027,-130.27766151855027z" style="fill:rgb(197,147,42)">
    </path>
    <path d="M16.831539946137156,-133.80860679842354L12.37237136820983,-140.1705654451251L1.4983225145151027,-130.27766151855027z" style="fill:rgb(197,147,42)">
    </path>
    <path d="M-77.99210159325884,-208.36458136553856L55.483841970089586,-243.41634203533823L22.431005702372705,-94.69614616578787z" style="fill:rgb(0,0,0); fill-opacity: 0.18">
    </path>
    <path d="M-77.99210159325884,-208.36458136553856L-108.09015848647314,-56.08778665555343" style="fill:none;stroke:rgb(0,0,0);stroke-width:1;stroke-linecap:round">
    </path>
    <path d="M-77.99210159325884,-208.36458136553856L-108.09015848647314,-56.08778665555343" style="fill:none;stroke:rgb(0,0,0);stroke-width:1;stroke-linecap:round">
    </path>
    <path d="M-108.09015848647314,-56.08778665555343L22.431005702372705,-94.69614616578787L-77.99210159325884,-208.36458136553856z" style="fill:rgb(0,0,0); fill-opacity: 0.18">
    </path>
    <path d="M-588.646896494547,124.67522741213739L-444.4253299585708,80.86125890982892L-466.4538569383001,195.17570778869543z" style="fill:rgb(0,0,0); fill-opacity: 0.18">
    </path>
    <path d="M-588.646896494547,124.67522741213739L-444.4253299585708,80.86125890982892L-466.4538569383001,195.17570778869543z" style="fill:rgb(0,0,0); fill-opacity: 0.18">
    </path>
    <path d="M12.210717185796002,-172.83356856678867L7.794452169845028,-169.7507183663246L1.2952585329711819,-162.96209194532034z" style="fill:rgb(197,147,42)">
    </path>
    <path d="M-606.1000104050623,288.76717754847164L-588.646896494547,124.67522741213739L-486.3539847836226,366.38983270413365z" style="fill:rgb(0,0,0); fill-opacity: 0.18">
    </path>
    <path d="M15.01968373698223,-159.47627485638503L16.686585314099055,-166.47730475191923L1.2952585329711819,-162.96209194532034z" style="fill:rgb(197,147,42)">
    </path>
    <path d="M16.686585314099055,-166.47730475191923L12.210717185796002,-172.83356856678867L1.2952585329711819,-162.96209194532034z" style="fill:rgb(197,147,42)">
    </path>
    <path d="M31.39204852136634,-237.08966057104797L31.240998442754016,-292.6073407731452" style="fill:none;stroke:rgb(74,87,214);stroke-width:5;stroke-linecap:round">
    </path>
    <path d="M30.658523690953533,-236.89703157652968L30.502792394575103,-292.4232241890138" style="fill:none;stroke:rgb(43,180,168);stroke-width:5;stroke-linecap:round">
    </path>
    <path d="M26.320418287880653,-235.75781331525022L26.136968647658804,-291.33434045907825" style="fill:none;stroke:rgb(109,213,75);stroke-width:5;stroke-linecap:round">
    </path>
    <path d="M12.047838034996767,-205.7440824277367L7.615199597254201,-202.5837649406031L1.0906530093373685,-195.89464330818143z" style="fill:rgb(197,147,42)">
    </path>
    <path d="M56.14702625211883,-296.61998393826366L62.524922037312436,-298.2140516885876L55.4860856845257,-312.57274446990886z" style="fill:rgb(109,213,75)">
    </path>
    <path d="M56.14702625211883,-296.61998393826366L62.524922037312464,-298.21405168858763L55.48608568452574,-312.57274446990886z" style="fill:rgb(43,180,168)">
    </path>
    <path d="M56.14702625211883,-296.61998393826366L62.524922037312436,-298.2140516885876L55.4860856845257,-312.57274446990886z" style="fill:rgb(74,87,214)">
    </path>
    <path d="M48.85261797739243,-297.83884137449013L56.14702625211883,-296.61998393826366L55.4860856845257,-312.57274446990886z" style="fill:rgb(109,213,75)">
    </path>
    <path d="M48.852617977392455,-297.83884137449013L56.14702625211883,-296.61998393826366L55.48608568452574,-312.57274446990886z" style="fill:rgb(43,180,168)">
    </path>
    <path d="M48.85261797739243,-297.83884137449013L56.14702625211883,-296.61998393826366L55.4860856845257,-312.57274446990886z" style="fill:rgb(74,87,214)">
    </path>
    <path d="M14.867527490901727,-192.31888206438683L16.540531254422273,-199.39378277939292L1.0906530093373685,-195.89464330818143z" style="fill:rgb(197,147,42)">
    </path>
    <path d="M-466.4538569383001,195.17570778869543L-319.12036415945846,147.04817326775824L-444.4253299585708,80.86125890982892z" style="fill:rgb(0,0,0); fill-opacity: 0.18">
    </path>
    <path d="M-466.4538569383001,195.17570778869543L-319.12036415945846,147.04817326775824L-444.4253299585708,80.86125890982892z" style="fill:rgb(0,0,0); fill-opacity: 0.18">
    </path>
    <path d="M16.540531254422273,-199.39378277939292L12.047838034996767,-205.7440824277367L1.0906530093373685,-195.89464330818143z" style="fill:rgb(197,147,42)">
    </path>
    <path d="M-528.0877276725039,215.3088505349411L-648.8523680196821,142.9654228137446" style="fill:none;stroke:rgb(160,0,0);stroke-width:4;stroke-linecap:round">
    </path>
    <path d="M55.483841970089586,-243.41634203533823L-77.99210159325884,-208.36458136553856L-108.09015848647314,-56.08778665555343z" style="fill:rgb(0,0,0); fill-opacity: 0.18">
    </path>
    <path d="M11.883719939175338,-238.9049310744805L7.434586271608694,-235.66605573924386L0.8844883230122901,-229.07815175421987z" style="fill:rgb(197,147,42)">
    </path>
    <path d="M7.764669663534156,-230.88493778078453L7.462013644262872,-286.6766044075854" style="fill:none;stroke:rgb(109,213,75);stroke-width:5;stroke-linecap:round">
    </path>
    <path d="M7.021321821681732,-230.68972919149553L6.713868605443163,-286.49000893153624" style="fill:none;stroke:rgb(74,87,214);stroke-width:5;stroke-linecap:round">
    </path>
    <path d="M14.714214475461024,-225.41117551732341L16.39336521135925,-232.5608705932775L0.8844883230122901,-229.07815175421987z" style="fill:rgb(197,147,42)">
    </path>
    <path d="M16.39336521135925,-232.5608705932775L11.883719939175338,-238.9049310744805L0.8844883230122901,-229.07815175421987z" style="fill:rgb(197,147,42)">
    </path>
    <path d="M-588.646896494547,124.67522741213739L-588.646896494547,124.67522741213739L-466.4538569383001,195.17570778869543z" style="fill:rgb(0,0,0); fill-opacity: 0.18">
    </path>
    <path d="M-466.45385693829996,195.1757077886955L-319.12036415945835,147.0481732677583" style="fill:none;stroke:rgb(0,0,0);stroke-width:1;stroke-linecap:round">
    </path>
    <path d="M-295.2217010327874,-0.733990853674928L-319.12036415945835,147.0481732677583" style="fill:none;stroke:rgb(0,0,0);stroke-width:1;stroke-linecap:round">
    </path>
    <path d="M-319.12036415945835,147.0481732677583L-466.45385693829996,195.1757077886955" style="fill:none;stroke:rgb(0,0,0);stroke-width:1;stroke-linecap:round">
    </path>
    <path d="M-295.2217010327874,-0.733990853674928L-319.12036415945835,147.0481732677583" style="fill:none;stroke:rgb(0,0,0);stroke-width:1;stroke-linecap:round">
    </path>
    <path d="M-466.45385693829996,195.1757077886955L-319.12036415945835,147.0481732677583" style="fill:none;stroke:rgb(0,0,0);stroke-width:1;stroke-linecap:round">
    </path>
    <path d="M-295.2217010327874,-0.733990853674928L-319.12036415945835,147.0481732677583" style="fill:none;stroke:rgb(0,0,0);stroke-width:1;stroke-linecap:round">
    </path>
    <path d="M-319.12036415945835,147.0481732677583L-466.45385693829996,195.1757077886955" style="fill:none;stroke:rgb(0,0,0);stroke-width:1;stroke-linecap:round">
    </path>
    <path d="M-295.2217010327874,-0.733990853674928L-319.12036415945835,147.0481732677583" style="fill:none;stroke:rgb(0,0,0);stroke-width:1;stroke-linecap:round">
    </path>
    <path d="M-0.2042412854483579,-228.79224338263543L-0.5584120310922214,-284.6762233726845" style="fill:none;stroke:rgb(43,180,168);stroke-width:5;stroke-linecap:round">
    </path>
    <path d="M31.857342168468648,-290.54910988083685L38.3094283669628,-292.1617205094405L31.20293596259433,-306.5970097664829z" style="fill:rgb(74,87,214)">
    </path>
    <path d="M24.55101096180425,-291.7826205446921L31.857342168468648,-290.54910988083685L31.20293596259433,-306.5970097664829z" style="fill:rgb(74,87,214)">
    </path>
    <path d="M31.117755626592356,-290.364260348219L37.572107538300436,-291.9774372608272L30.463550259535687,-306.4150575545343z" style="fill:rgb(43,180,168)">
    </path>
    <path d="M23.811066882807626,-291.5982185526251L31.117755626592356,-290.364260348219L30.463550259535687,-306.4150575545343z" style="fill:rgb(43,180,168)">
    </path>
    <path d="M-4.170397979962598,-227.75070157724596L-4.550279601712282,-283.6806083635409" style="fill:none;stroke:rgb(43,180,168);stroke-width:5;stroke-linecap:round">
    </path>
    <path d="M26.74375681041221,-289.2710392157862L33.21151652698132,-290.8875672256922L26.09074149455417,-305.3389720636663z" style="fill:rgb(109,213,75)">
    </path>
    <path d="M19.43496019611483,-290.50764588175736L26.74375681041221,-289.2710392157862L26.09074149455417,-305.3389720636663z" style="fill:rgb(109,213,75)">
    </path>
    <path d="M-486.3539847836226,366.38983270413365L-486.3539847836226,366.38983270413365L-606.1000104050623,288.76717754847164z" style="fill:rgb(0,0,0); fill-opacity: 0.18">
    </path>
    <path d="M-648.8523680196821,142.9654228137446L-606.1000104050623,288.76717754847164L-528.0877276725039,215.3088505349411z" style="fill:rgb(0,0,0); fill-opacity: 0.18">
    </path>
    <path d="M-17.63321054234602,-224.21526836523L-18.10072169163978,-280.3009813376957" style="fill:none;stroke:rgb(74,87,214);stroke-width:5;stroke-linecap:round">
    </path>
    <path d="M-319.12036415945846,147.04817326775824L-466.4538569383001,195.17570778869543L-588.646896494547,124.67522741213739z" style="fill:rgb(0,0,0); fill-opacity: 0.18">
    </path>
    <path d="M-319.12036415945846,147.04817326775824L-466.4538569383001,195.17570778869543L-588.646896494547,124.67522741213739z" style="fill:rgb(0,0,0); fill-opacity: 0.18">
    </path>
    <path d="M8.03362620289421,-284.59469817631145L14.558895668390752,-286.2255999607636L7.385745214446736,-300.7359408803787z" style="fill:rgb(109,213,75)">
    </path>
    <path d="M0.7159413115069798,-285.84266582469263L8.03362620289421,-284.59469817631145L7.385745214446736,-300.7359408803787z" style="fill:rgb(109,213,75)">
    </path>
    <path d="M7.284065006722822,-284.40735561538645L13.811643710286052,-286.03883456228425L6.636391187377967,-300.55153560692844z" style="fill:rgb(74,87,214)">
    </path>
    <path d="M-0.03397163174688185,-285.6557794848487L7.284065006722822,-284.40735561538645L6.636391187377967,-300.55153560692844z" style="fill:rgb(74,87,214)">
    </path>
    <path d="M-0.0020092569318584663,-282.5863010855961L6.548037539863668,-284.2233956248521L-0.6476633630226262,-298.75903430224116z" style="fill:rgb(43,180,168)">
    </path>
    <path d="M-7.323447643479666,-283.83916396504986L-0.0020092569318584663,-282.5863010855961L-0.6476633630226262,-298.75903430224116z" style="fill:rgb(43,180,168)">
    </path>
    <path d="M-37.08134784646512,-219.1080450255137L-37.67641803354259,-275.4185906401986" style="fill:none;stroke:rgb(43,180,168);stroke-width:5;stroke-linecap:round">
    </path>
    <path d="M-4.001469940740355,-281.5866906326395L2.5609263919382825,-283.22687176934795L-4.646010812940868,-297.7750983677997z" style="fill:rgb(43,180,168)">
    </path>
    <path d="M-11.32476220115088,-282.8419935081662L-4.001469940740355,-281.5866906326395L-4.646010812940868,-297.7750983677997z" style="fill:rgb(43,180,168)">
    </path>
    <path d="M-38.803175535584636,-218.65588045965688L-39.409594376634786,-274.98631768771503" style="fill:none;stroke:rgb(109,213,75);stroke-width:5;stroke-linecap:round">
    </path>
    <path d="M-466.45385693829996,195.1757077886955L-8.764780625953625,45.66831198465312L-446.4901755107746,44.0114546953769z" style="fill:rgb(0,0,0); fill-opacity: 0.18">
    </path>
    <path d="M-42.57653513066433,-217.66496858507588L-43.2078558362051,-274.038990139669" style="fill:none;stroke:rgb(74,87,214);stroke-width:5;stroke-linecap:round">
    </path>
    <path d="M-288.4729987280136,163.23631503988247L-466.45385693829996,195.1757077886955" style="fill:none;stroke:rgb(160,0,0);stroke-width:4;stroke-linecap:round">
    </path>
    <path d="M-288.4729987280136,163.23631503988247L-486.3539847836224,366.38983270413365" style="fill:none;stroke:rgb(0,0,0);stroke-width:1;stroke-linecap:round">
    </path>
    <path d="M-288.4729987280136,163.23631503988247L-486.3539847836224,366.38983270413365" style="fill:none;stroke:rgb(0,0,0);stroke-width:1;stroke-linecap:round">
    </path>
    <path d="M-288.4729987280136,163.23631503988247L-466.45385693829996,195.1757077886955" style="fill:none;stroke:rgb(160,0,0);stroke-width:4;stroke-linecap:round">
    </path>
    <path d="M-288.4729987280136,163.23631503988247L-288.4729987280136,163.23631503988247" style="fill:none;stroke:rgb(0,0,0);stroke-width:1;stroke-linecap:round">
    </path>
    <path d="M-405.86887581175745,230.13081070239173L-288.4729987280136,163.23631503988247" style="fill:none;stroke:rgb(160,0,0);stroke-width:4;stroke-linecap:round">
    </path>
    <path d="M-427.03697063055495,404.8407467162869L-288.4729987280136,163.23631503988247" style="fill:none;stroke:rgb(0,0,0);stroke-width:1;stroke-linecap:round">
    </path>
    <path d="M-288.4729987280136,163.23631503988247L-660.8034867038184,287.0142312930335" style="fill:none;stroke:rgb(0,0,0);stroke-width:1;stroke-linecap:round">
    </path>
    <path d="M-427.03697063055495,404.8407467162869L-288.4729987280136,163.23631503988247" style="fill:none;stroke:rgb(0,0,0);stroke-width:1;stroke-linecap:round">
    </path>
    <path d="M-295.2217010327874,-0.733990853674928L-288.4729987280136,163.23631503988247" style="fill:none;stroke:rgb(0,0,0);stroke-width:1;stroke-linecap:round">
    </path>
    <path d="M-405.86887581175745,230.13081070239173L-288.4729987280136,163.23631503988247" style="fill:none;stroke:rgb(160,0,0);stroke-width:4;stroke-linecap:round">
    </path>
    <path d="M-486.3539847836226,366.38983270413365L-466.4538569383001,195.17570778869543L-588.646896494547,124.67522741213739z" style="fill:rgb(0,0,0); fill-opacity: 0.18">
    </path>
    <path d="M-528.0877276725039,215.3088505349411L-486.3539847836226,366.38983270413365L-606.1000104050623,288.76717754847164z" style="fill:rgb(0,0,0); fill-opacity: 0.18">
    </path>
    <path d="M-17.577801013834133,-278.19347251490535L-10.973397064091749,-279.84415288049496L-18.218538777315896,-294.4350939903328z" style="fill:rgb(74,87,214)">
    </path>
    <path d="M-24.907315439849803,-279.457075720907L-17.577801013834133,-278.19347251490535L-18.218538777315896,-294.4350939903328z" style="fill:rgb(74,87,214)">
    </path>
    <path d="M-425.2016032559856,-117.18482245425405L55.483841970089586,-243.41634203533823L22.431005702372705,-94.69614616578787z" style="fill:rgb(0,0,0); fill-opacity: 0.18">
    </path>
    <path d="M-466.4538569383001,195.17570778869543L-466.4538569383001,195.17570778869543L-588.646896494547,124.67522741213739z" style="fill:rgb(0,0,0); fill-opacity: 0.18">
    </path>
    <path d="M-66.74710480732087,-211.31759990618886L-67.53896126564136,-267.970548908579" style="fill:none;stroke:rgb(109,213,75);stroke-width:5;stroke-linecap:round">
    </path>
    <path d="M-67.81375601213395,-211.03748948515624L-68.61273778468413,-267.70273741435676" style="fill:none;stroke:rgb(74,87,214);stroke-width:5;stroke-linecap:round">
    </path>
    <path d="M-37.19120916171523,-273.29136961835746L-30.525881490676937,-274.9572770341559L-37.82638666714469,-289.60988398106764z" style="fill:rgb(43,180,168)">
    </path>
    <path d="M-44.529519228159714,-274.567012309336L-37.19120916171523,-273.29136961835746L-37.82638666714469,-289.60988398106764z" style="fill:rgb(43,180,168)">
    </path>
    <path d="M-38.92774212406653,-272.85734697423L-32.257006927436585,-274.5246059270315L-39.562423576377746,-289.1826702084011z" style="fill:rgb(109,213,75)">
    </path>
    <path d="M-46.266819925955545,-274.13405836242777L-38.92774212406653,-272.85734697423L-39.562423576377746,-289.1826702084011z" style="fill:rgb(109,213,75)">
    </path>
    <path d="M-288.4729987280136,163.23631503988247L-288.4729987280136,163.23631503988247L-466.45385693829996,195.1757077886955z" style="fill:rgb(0,0,0); fill-opacity: 0.18">
    </path>
    <path d="M-42.73336970803089,-271.9061824513753L-36.050776214520994,-273.57640522316444L-43.366961917210475,-288.2464279147049z" style="fill:rgb(74,87,214)">
    </path>
    <path d="M-50.074123743696205,-273.18523746051864L-42.73336970803089,-271.9061824513753L-43.366961917210475,-288.2464279147049z" style="fill:rgb(74,87,214)">
    </path>
    <path d="M-466.45385693829996,195.1757077886955L-486.3539847836224,366.38983270413365" style="fill:none;stroke:rgb(0,0,0);stroke-width:1;stroke-linecap:round">
    </path>
    <path d="M-486.3539847836224,366.38983270413365L-486.3539847836224,366.38983270413365" style="fill:none;stroke:rgb(0,0,0);stroke-width:1;stroke-linecap:round">
    </path>
    <path d="M-660.8034867038184,287.0142312930335L-486.3539847836224,366.38983270413365" style="fill:none;stroke:rgb(0,0,0);stroke-width:1;stroke-linecap:round">
    </path>
    <path d="M-486.3539847836224,366.38983270413365L-528.0877276725037,215.30885053494112" style="fill:none;stroke:rgb(0,0,0);stroke-width:1;stroke-linecap:round">
    </path>
    <path d="M-660.8034867038184,287.0142312930335L-486.3539847836224,366.38983270413365" style="fill:none;stroke:rgb(0,0,0);stroke-width:1;stroke-linecap:round">
    </path>
    <path d="M-77.9921015932589,-208.36458136553856L-78.85924919205016,-265.147146486537" style="fill:none;stroke:rgb(109,213,75);stroke-width:5;stroke-linecap:round">
    </path>
    <path d="M-77.99210159325888,-208.36458136553856L-78.85924919205014,-265.147146486537" style="fill:none;stroke:rgb(43,180,168);stroke-width:5;stroke-linecap:round">
    </path>
    <path d="M-295.2217010327874,-0.733990853674928L-295.2217010327874,-0.733990853674928L-319.12036415945835,147.0481732677583z" style="fill:rgb(0,0,0); fill-opacity: 0.18">
    </path>
    <path d="M-486.3539847836224,366.38983270413365L-466.45385693829996,195.1757077886955L-288.4729987280136,163.23631503988247z" style="fill:rgb(0,0,0); fill-opacity: 0.18">
    </path>
    <path d="M-319.12036415945835,147.0481732677583L-466.45385693829996,195.1757077886955L-295.2217010327874,-0.733990853674928z" style="fill:rgb(0,0,0); fill-opacity: 0.18">
    </path>
    <path d="M-319.12036415945835,147.0481732677583L-466.45385693829996,195.1757077886955L-295.2217010327874,-0.733990853674928z" style="fill:rgb(0,0,0); fill-opacity: 0.18">
    </path>
    <path d="M-466.45385693829996,195.1757077886955L-319.12036415945835,147.0481732677583L-295.2217010327874,-0.733990853674928z" style="fill:rgb(0,0,0); fill-opacity: 0.18">
    </path>
    <path d="M-288.4729987280136,163.23631503988247L-288.4729987280136,163.23631503988247L-427.03697063055495,404.8407467162869z" style="fill:rgb(0,0,0); fill-opacity: 0.18">
    </path>
    <path d="M-93.35009824643225,-204.3314589265192L-94.32069565814022,-261.2908942706554" style="fill:none;stroke:rgb(74,87,214);stroke-width:5;stroke-linecap:round">
    </path>
    <path d="M-67.11198990647304,-265.8130800294214L-60.353183474622284,-267.5023511819397L-67.73853483202728,-282.2489335323096z" style="fill:rgb(109,213,75)">
    </path>
    <path d="M-74.46327769042585,-267.1071989975237L-67.11198990647304,-265.8130800294214L-67.73853483202728,-282.2489335323096z" style="fill:rgb(109,213,75)">
    </path>
    <path d="M-68.18787643147657,-265.54417691932395L-61.42569660058552,-267.23429120675695L-68.81410756721323,-281.9842505157607z" style="fill:rgb(74,87,214)">
    </path>
    <path d="M-75.53962095970392,-266.83896272313933L-68.18787643147657,-265.54417691932395L-68.81410756721323,-281.9842505157607z" style="fill:rgb(74,87,214)">
    </path>
    <path d="M-288.4729987280136,163.23631503988247L-295.2217010327874,-0.733990853674928L-466.45385693829996,195.1757077886955z" style="fill:rgb(0,0,0); fill-opacity: 0.18">
    </path>
    <path d="M-466.45385693829996,195.1757077886955L-466.45385693829996,195.1757077886955L-288.4729987280136,163.23631503988247z" style="fill:rgb(0,0,0); fill-opacity: 0.18">
    </path>
    <path d="M-78.45457823651158,-262.9781553346514L-71.66016530482233,-264.67632584441947L-79.07780321117329,-279.4585022933371z" style="fill:rgb(109,213,75)">
    </path>
    <path d="M-78.45457823651157,-262.9781553346514L-71.6601653048223,-264.67632584441947L-79.07780321117328,-279.4585022933371z" style="fill:rgb(43,180,168)">
    </path>
    <path d="M-85.81064667858398,-264.27931307272024L-78.45457823651158,-262.9781553346514L-79.07780321117329,-279.4585022933371z" style="fill:rgb(109,213,75)">
    </path>
    <path d="M-85.81064667858398,-264.27931307272024L-78.45457823651157,-262.9781553346514L-79.07780321117328,-279.4585022933371z" style="fill:rgb(43,180,168)">
    </path>
    <path d="M-119.19091149050139,-197.54547205005844L-120.33718546764769,-254.80209992030734" style="fill:none;stroke:rgb(74,87,214);stroke-width:5;stroke-linecap:round">
    </path>
    <path d="M-380.96167441670127,381.4505461894801L-379.0245573333982,389.8453220591454L-376.81656765494165,386.04184846669915z" style="fill:rgb(197,147,42)">
    </path>
    <path d="M-93.94668171299074,-259.10611612794816L-87.10348528176324,-260.816479405673L-94.5653300365252,-275.6472441748357z" style="fill:rgb(74,87,214)">
    </path>
    <path d="M-101.30915625516609,-260.41691843896973L-93.94668171299074,-259.10611612794816L-94.5653300365252,-275.6472441748357z" style="fill:rgb(74,87,214)">
    </path>
    <path d="M-379.0245573333982,389.8453220591454L-374.03227568109816,392.99525253075143L-376.81656765494165,386.04184846669915z" style="fill:rgb(197,147,42)">
    </path>
    <path d="M-372.8777839502807,386.52943348420325L-374.03227568109816,392.99525253075143L-364.42984537045703,381.4051526603154z" style="fill:rgb(197,147,42)">
    </path>
    <path d="M-377.170384603231,379.38570331872836L-380.96167441670127,381.4505461894801L-376.81656765494165,386.04184846669915z" style="fill:rgb(197,147,42)">
    </path>
    <path d="M-295.2217010327874,-0.733990853674928L-466.45385693829996,195.1757077886955" style="fill:none;stroke:rgb(0,0,0);stroke-width:1;stroke-linecap:round">
    </path>
    <path d="M-295.2217010327874,-0.733990853674928L-466.45385693829996,195.1757077886955" style="fill:none;stroke:rgb(0,0,0);stroke-width:1;stroke-linecap:round">
    </path>
    <path d="M-269.7898232536296,-157.99709448232L-295.2217010327874,-0.733990853674928" style="fill:none;stroke:rgb(0,0,0);stroke-width:1;stroke-linecap:round">
    </path>
    <path d="M-269.7898232536296,-157.99709448232L-295.2217010327874,-0.733990853674928" style="fill:none;stroke:rgb(0,0,0);stroke-width:1;stroke-linecap:round">
    </path>
    <path d="M-425.2016032559856,-117.18482245425405L-295.2217010327874,-0.733990853674928" style="fill:none;stroke:rgb(0,0,0);stroke-width:1;stroke-linecap:round">
    </path>
    <path d="M-425.2016032559856,-117.18482245425405L-295.2217010327874,-0.733990853674928" style="fill:none;stroke:rgb(0,0,0);stroke-width:1;stroke-linecap:round">
    </path>
    <path d="M-377.170384603231,379.38570331872836L-372.8777839502807,386.52943348420325L-364.42984537045703,381.4051526603154z" style="fill:rgb(197,147,42)">
    </path>
    <path d="M-427.0369706305546,404.8407467162869L-376.81656765494165,386.0418484666992" style="fill:none;stroke:rgb(197,147,42);stroke-width:5;stroke-linecap:round">
    </path>
    <path d="M-374.03227568109816,392.99525253075143L-372.8777839502807,386.52943348420325L-376.81656765494165,386.04184846669915z" style="fill:rgb(197,147,42)">
    </path>
    <path d="M-427.03697063055495,404.8407467162869L-427.03697063055495,404.8407467162869L-288.4729987280136,163.23631503988247z" style="fill:rgb(0,0,0); fill-opacity: 0.18">
    </path>
    <path d="M-372.8777839502807,386.52943348420325L-377.170384603231,379.38570331872836L-376.81656765494165,386.04184846669915z" style="fill:rgb(197,147,42)">
    </path>
    <path d="M-446.4901755107746,44.0114546953769L-295.2217010327874,-0.733990853674928L-319.12036415945835,147.0481732677583z" style="fill:rgb(0,0,0); fill-opacity: 0.18">
    </path>
    <path d="M-446.4901755107746,44.0114546953769L-466.45385693829996,195.1757077886955" style="fill:none;stroke:rgb(0,0,0);stroke-width:1;stroke-linecap:round">
    </path>
    <path d="M-446.4901755107746,44.0114546953769L-466.45385693829996,195.1757077886955" style="fill:none;stroke:rgb(0,0,0);stroke-width:1;stroke-linecap:round">
    </path>
    <path d="M-446.4901755107746,44.0114546953769L-466.45385693829996,195.1757077886955" style="fill:none;stroke:rgb(0,0,0);stroke-width:1;stroke-linecap:round">
    </path>
    <path d="M-446.4901755107746,44.0114546953769L-466.45385693829996,195.1757077886955" style="fill:none;stroke:rgb(0,0,0);stroke-width:1;stroke-linecap:round">
    </path>
    <path d="M-466.45385693829996,195.1757077886955L-466.45385693829996,195.1757077886955" style="fill:none;stroke:rgb(0,0,0);stroke-width:1;stroke-linecap:round">
    </path>
    <path d="M-466.45385693829996,195.1757077886955L-319.12036415945835,147.0481732677583L-446.4901755107746,44.0114546953769z" style="fill:rgb(0,0,0); fill-opacity: 0.18">
    </path>
    <path d="M-288.4729987280136,163.23631503988247L-295.2217010327874,-0.733990853674928L-405.86887581175745,230.13081070239173z" style="fill:rgb(0,0,0); fill-opacity: 0.18">
    </path>
    <path d="M-376.70204935077413,347.23633709958756L-374.7612577176351,355.6648310026889L-372.54060639006593,351.79659225354317z" style="fill:rgb(197,147,42)">
    </path>
    <path d="M-374.7612577176351,355.6648310026889L-369.74778308130743,358.7590338193752L-372.54060639006593,351.79659225354317z" style="fill:rgb(197,147,42)">
    </path>
    <path d="M-368.5838112283461,352.22477042598547L-369.74778308130743,358.7590338193752L-360.1327213916397,347.23976604524654z" style="fill:rgb(197,147,42)">
    </path>
    <path d="M-372.89184835338926,345.09471325987096L-376.70204935077413,347.23633709958756L-372.54060639006593,351.79659225354317z" style="fill:rgb(197,147,42)">
    </path>
    <path d="M-372.89184835338926,345.09471325987096L-368.5838112283461,352.22477042598547L-360.1327213916397,347.23976604524654z" style="fill:rgb(197,147,42)">
    </path>
    <path d="M-422.8486141643654,370.2723315388599L-372.54060639006593,351.7965922535432" style="fill:none;stroke:rgb(197,147,42);stroke-width:5;stroke-linecap:round">
    </path>
    <path d="M-369.74778308130743,358.7590338193752L-368.5838112283461,352.22477042598547L-372.54060639006593,351.79659225354317z" style="fill:rgb(197,147,42)">
    </path>
    <path d="M-145.34167373476936,-190.67809029535388L-146.66779497461002,-248.234960715096" style="fill:none;stroke:rgb(74,87,214);stroke-width:5;stroke-linecap:round">
    </path>
    <path d="M-368.5838112283461,352.22477042598547L-372.89184835338926,345.09471325987096L-372.54060639006593,351.79659225354317z" style="fill:rgb(197,147,42)">
    </path>
    <path d="M-372.4198684567787,312.8409548299479L-370.47539046247346,321.3034066161488L-368.24197413695094,317.369768960434z" style="fill:rgb(197,147,42)">
    </path>
    <path d="M-370.47539046247346,321.3034066161488L-365.4405680403732,324.3412462415506L-368.24197413695094,317.369768960434z" style="fill:rgb(197,147,42)">
    </path>
    <path d="M-364.26703156228416,317.73790208041606L-365.4405680403732,324.3412462415506L-355.812875653591,312.8937242541725z" style="fill:rgb(197,147,42)">
    </path>
    <path d="M-368.59060878576054,310.6217639516169L-372.4198684567787,312.8409548299479L-368.24197413695094,317.369768960434z" style="fill:rgb(197,147,42)">
    </path>
    <path d="M-368.59060878576054,310.6217639516169L-364.26703156228416,317.73790208041606L-355.812875653591,312.8937242541725z" style="fill:rgb(197,147,42)">
    </path>
    <path d="M-418.63780840224246,335.5186320885832L-368.24197413695094,317.36976896043404" style="fill:none;stroke:rgb(197,147,42);stroke-width:5;stroke-linecap:round">
    </path>
    <path d="M-427.03697063055495,404.8407467162869L-405.86887581175745,230.13081070239173L-288.4729987280136,163.23631503988247z" style="fill:rgb(0,0,0); fill-opacity: 0.18">
    </path>
    <path d="M-120.01527501808934,-252.59062806048257L-113.08959724571832,-254.32160642041458L-120.62611236448461,-269.2340595946259z" style="fill:rgb(74,87,214)">
    </path>
    <path d="M-127.38820729418217,-253.91773951543018L-120.01527501808934,-252.59062806048257L-120.62611236448461,-269.2340595946259z" style="fill:rgb(74,87,214)">
    </path>
    <path d="M-365.4405680403732,324.3412462415506L-364.26703156228416,317.73790208041606L-368.24197413695094,317.369768960434z" style="fill:rgb(197,147,42)">
    </path>
    <path d="M-364.26703156228416,317.73790208041606L-368.59060878576054,310.6217639516169L-368.24197413695094,317.369768960434z" style="fill:rgb(197,147,42)">
    </path>
    <path d="M-368.1149521006025,278.2629565213925L-366.16677590077234,286.7596084398662L-363.92049011524153,282.7599307562995z" style="fill:rgb(197,147,42)">
    </path>
    <path d="M-366.16677590077234,286.7596084398662L-361.1104493179053,289.7404415544615L-363.92049011524153,282.7599307562995z" style="fill:rgb(197,147,42)">
    </path>
    <path d="M-359.9272627635519,283.0673729383484L-361.1104493179053,289.7404415544615L-351.4701274609493,278.365590622262z" style="fill:rgb(197,147,42)">
    </path>
    <path d="M-364.26648471273927,275.96540323789833L-368.1149521006025,278.2629565213925L-363.92049011524153,282.7599307562995z" style="fill:rgb(197,147,42)">
    </path>
    <path d="M-364.26648471273927,275.96540323789833L-359.9272627635519,283.0673729383484L-351.4701274609493,278.365590622262z" style="fill:rgb(197,147,42)">
    </path>
    <path d="M-414.40437236920957,300.5781546964799L-363.92049011524153,282.7599307562995" style="fill:none;stroke:rgb(197,147,42);stroke-width:5;stroke-linecap:round">
    </path>
    <path d="M-361.1104493179053,289.7404415544615L-359.9272627635519,283.0673729383484L-363.92049011524153,282.7599307562995z" style="fill:rgb(197,147,42)">
    </path>
    <path d="M-359.9272627635519,283.0673729383484L-364.26648471273927,275.96540323789833L-363.92049011524153,282.7599307562995z" style="fill:rgb(197,147,42)">
    </path>
    <path d="M-420.74018392630546,402.4836837391136L-423.90651225786894,348.5240970973962" style="fill:none;stroke:rgb(109,213,75);stroke-width:5;stroke-linecap:round">
    </path>
    <path d="M-171.8079951746252,-183.72784038399416L-173.31824769175424,-241.58804914895433" style="fill:none;stroke:rgb(74,87,214);stroke-width:5;stroke-linecap:round">
    </path>
    <path d="M-363.7871187355868,243.50088395277407L-361.83523245314353,252.03198068297323L-359.5759716173832,247.9656143755411z" style="fill:rgb(197,147,42)">
    </path>
    <path d="M-660.8034867038184,287.0142312930335L-288.4729987280136,163.23631503988247L-486.3539847836224,366.38983270413365z" style="fill:rgb(0,0,0); fill-opacity: 0.18">
    </path>
    <path d="M-446.4901755107746,44.0114546953769L22.431005702372705,-94.69614616578787L-425.2016032559856,-117.18482245425405z" style="fill:rgb(0,0,0); fill-opacity: 0.18">
    </path>
    <path d="M-361.83523245314353,252.03198068297323L-356.7572437408785,254.95515607212573L-359.5759716173832,247.9656143755411z" style="fill:rgb(197,147,42)">
    </path>
    <path d="M-355.5643206979253,248.2117119465355L-356.7572437408785,254.95515607212573L-347.10429419728115,243.6539132107105z" style="fill:rgb(197,147,42)">
    </path>
    <path d="M-359.91929301358067,241.12416346920105L-363.7871187355868,243.50088395277407L-359.5759716173832,247.9656143755411z" style="fill:rgb(197,147,42)">
    </path>
    <path d="M-359.91929301358067,241.12416346920105L-355.5643206979253,248.2117119465355L-347.10429419728115,243.6539132107105z" style="fill:rgb(197,147,42)">
    </path>
    <path d="M-410.1481231398097,265.4493895953664L-359.5759716173832,247.9656143755411" style="fill:none;stroke:rgb(197,147,42);stroke-width:5;stroke-linecap:round">
    </path>
    <path d="M-427.03697063055495,404.8407467162869L-660.8034867038184,287.0142312930335" style="fill:none;stroke:rgb(0,0,0);stroke-width:1;stroke-linecap:round">
    </path>
    <path d="M-427.03697063055495,404.8407467162869L-660.8034867038184,287.0142312930335" style="fill:none;stroke:rgb(0,0,0);stroke-width:1;stroke-linecap:round">
    </path>
    <path d="M-427.03697063055495,404.8407467162869L-405.8688758117574,230.1308107023916" style="fill:none;stroke:rgb(50,34,0);stroke-width:5;stroke-linecap:round">
    </path>
    <path d="M-427.03697063055495,404.8407467162869L-427.03697063055495,404.8407467162869" style="fill:none;stroke:rgb(22,55,11);stroke-width:5;stroke-linecap:round">
    </path>
    <path d="M-468.1554871025987,251.21094655720276L-427.03697063055495,404.8407467162869" style="fill:none;stroke:rgb(0,44,41);stroke-width:5;stroke-linecap:round">
    </path>
    <path d="M-427.03697063055495,404.8407467162869L-478.36165315096827,424.0530076147542" style="fill:none;stroke:rgb(43,180,168);stroke-width:5;stroke-linecap:round">
    </path>
    <path d="M-356.7572437408785,254.95515607212573L-355.5643206979253,248.2117119465355L-359.5759716173832,247.9656143755411z" style="fill:rgb(197,147,42)">
    </path>
    <path d="M-295.2217010327874,-0.733990853674928L-446.4901755107746,44.0114546953769L-466.45385693829996,195.1757077886955z" style="fill:rgb(0,0,0); fill-opacity: 0.18">
    </path>
    <path d="M-295.2217010327874,-0.733990853674928L-446.4901755107746,44.0114546953769L-466.45385693829996,195.1757077886955z" style="fill:rgb(0,0,0); fill-opacity: 0.18">
    </path>
    <path d="M-146.3992786490768,-245.99630749942463L-139.38961927170558,-247.74827591197902L-147.00207021267815,-262.7433148413948z" style="fill:rgb(74,87,214)">
    </path>
    <path d="M-355.5643206979253,248.2117119465355L-359.91929301358067,241.12416346920105L-359.5759716173832,247.9656143755411z" style="fill:rgb(197,147,42)">
    </path>
    <path d="M-153.78238411938042,-247.34002786979278L-146.3992786490768,-245.99630749942463L-147.00207021267815,-262.7433148413948z" style="fill:rgb(74,87,214)">
    </path>
    <path d="M-359.4361848770044,208.5532633359746L-357.4805766024438,217.11905201888118L-355.20823398287206,212.98534091180986z" style="fill:rgb(197,147,42)">
    </path>
    <path d="M-359.4361848770044,208.55326333597458L-357.4805766024438,217.11905201888112L-355.20823398287206,212.98534091180983z" style="fill:rgb(162,186,45)">
    </path>
    <path d="M-486.3539847836224,366.38983270413365L-486.3539847836224,366.38983270413365L-660.8034867038184,287.0142312930335z" style="fill:rgb(0,0,0); fill-opacity: 0.18">
    </path>
    <path d="M-357.4805766024438,217.11905201888118L-352.38076617780257,219.9839104589995L-355.20823398287206,212.98534091180986z" style="fill:rgb(197,147,42)">
    </path>
    <path d="M-357.4805766024438,217.11905201888112L-352.38076617780257,219.98391045899945L-355.20823398287206,212.98534091180983z" style="fill:rgb(162,186,45)">
    </path>
    <path d="M-351.17801925945594,213.1694322995701L-352.38076617780257,219.9839104589995L-342.7151912994832,208.75722460321697z" style="fill:rgb(197,147,42)">
    </path>
    <path d="M-351.178019259456,213.1694322995701L-352.38076617780257,219.98391045899945L-342.7151912994832,208.75722460321694z" style="fill:rgb(162,186,45)">
    </path>
    <path d="M-355.54884860854935,206.09656129538135L-359.4361848770044,208.5532633359746L-355.20823398287206,212.98534091180986z" style="fill:rgb(197,147,42)">
    </path>
    <path d="M-355.54884860854935,206.09656129538135L-359.4361848770044,208.55326333597458L-355.20823398287206,212.98534091180983z" style="fill:rgb(162,186,45)">
    </path>
    <path d="M-355.54884860854935,206.09656129538135L-351.178019259456,213.1694322995701L-342.7151912994832,208.75722460321694z" style="fill:rgb(162,186,45)">
    </path>
    <path d="M-355.54884860854935,206.09656129538135L-351.17801925945594,213.1694322995701L-342.7151912994832,208.75722460321697z" style="fill:rgb(197,147,42)">
    </path>
    <path d="M-405.8688758117574,230.1308107023916L-355.208233982872,212.98534091180989" style="fill:none;stroke:rgb(197,147,42);stroke-width:5;stroke-linecap:round">
    </path>
    <path d="M-405.8688758117574,230.13081070239159L-355.208233982872,212.98534091180986" style="fill:none;stroke:rgb(162,186,45);stroke-width:5;stroke-linecap:round">
    </path>
    <path d="M-352.38076617780257,219.9839104589995L-351.17801925945594,213.1694322995701L-355.20823398287206,212.98534091180986z" style="fill:rgb(197,147,42)">
    </path>
    <path d="M-352.38076617780257,219.98391045899945L-351.178019259456,213.1694322995701L-355.20823398287206,212.98534091180983z" style="fill:rgb(162,186,45)">
    </path>
    <path d="M-660.8034867038184,287.0142312930335L-528.0877276725037,215.30885053494112" style="fill:none;stroke:rgb(160,0,0);stroke-width:4;stroke-linecap:round">
    </path>
    <path d="M-351.178019259456,213.1694322995701L-355.54884860854935,206.09656129538135L-355.20823398287206,212.98534091180983z" style="fill:rgb(162,186,45)">
    </path>
    <path d="M-351.17801925945594,213.1694322995701L-355.54884860854935,206.09656129538135L-355.20823398287206,212.98534091180986z" style="fill:rgb(197,147,42)">
    </path>
    <path d="M-198.5956222228955,-176.6932132658709L-200.2944070308188,-234.8599028234864" style="fill:none;stroke:rgb(74,87,214);stroke-width:5;stroke-linecap:round">
    </path>
    <path d="M-435.08621293461937,374.76661971206454L-486.7750804768088,393.7494831350647" style="fill:none;stroke:rgb(43,180,168);stroke-width:5;stroke-linecap:round">
    </path>
    <path d="M-361.0910842821024,175.40725024458314L-359.1271061740156,184.0185768192598L-356.84835676905607,179.8145855590653z" style="fill:rgb(162,186,45)">
    </path>
    <path d="M-359.1271061740156,184.0185768192598L-354.0100408623426,186.83193925876802L-356.84835676905607,179.8145855590653z" style="fill:rgb(162,186,45)">
    </path>
    <path d="M-352.80495697901887,179.9397527046357L-354.0100408623426,186.83193925876802L-344.3010485173321,175.66013494765315z" style="fill:rgb(162,186,45)">
    </path>
    <path d="M-357.1917003853952,172.87061331781143L-361.0910842821024,175.40725024458314L-356.84835676905607,179.8145855590653z" style="fill:rgb(162,186,45)">
    </path>
    <path d="M-357.1917003853952,172.87061331781143L-352.80495697901887,179.9397527046357L-344.3010485173321,175.66013494765315z" style="fill:rgb(162,186,45)">
    </path>
    <path d="M-407.7318452408191,196.66225802803928L-356.848356769056,179.81458555906534" style="fill:none;stroke:rgb(162,186,45);stroke-width:5;stroke-linecap:round">
    </path>
    <path d="M-660.8034867038184,287.0142312930335L-288.4729987280136,163.23631503988247L-427.03697063055495,404.8407467162869z" style="fill:rgb(0,0,0); fill-opacity: 0.18">
    </path>
    <path d="M-424.22260359961086,352.03823398046245L-416.7238924029278,349.3144322000689L-424.7046880941299,334.9218317344795z" style="fill:rgb(109,213,75)">
    </path>
    <path d="M-173.1044517875643,-239.3217150161628L-166.00927393483457,-241.0950576010489L-173.69895589912366,-256.1735943522193z" style="fill:rgb(74,87,214)">
    </path>
    <path d="M-431.2863653838546,349.9025367201803L-424.22260359961086,352.03823398046245L-424.7046880941299,334.9218317344795z" style="fill:rgb(109,213,75)">
    </path>
    <path d="M-180.4974331752103,-240.68235142653495L-173.1044517875643,-239.3217150161628L-173.69895589912366,-256.1735943522193z" style="fill:rgb(74,87,214)">
    </path>
    <path d="M-354.0100408623426,186.83193925876802L-352.80495697901887,179.9397527046357L-356.84835676905607,179.8145855590653z" style="fill:rgb(162,186,45)">
    </path>
    <path d="M-352.80495697901887,179.9397527046357L-357.1917003853952,172.87061331781143L-356.84835676905607,179.8145855590653z" style="fill:rgb(162,186,45)">
    </path>
    <path d="M-362.759246727789,141.99559144951283L-360.78682716549554,150.65291217205063L-358.50164107347786,146.37764434193556z" style="fill:rgb(162,186,45)">
    </path>
    <path d="M-360.78682716549554,150.65291217205063L-355.6523936498773,153.41385891319294L-358.50164107347786,146.37764434193556z" style="fill:rgb(162,186,45)">
    </path>
    <path d="M-528.0877276725037,215.30885053494112L-486.3539847836224,366.38983270413365L-660.8034867038184,287.0142312930335z" style="fill:rgb(0,0,0); fill-opacity: 0.18">
    </path>
    <path d="M-354.4449739869386,146.44293285214766L-355.6523936498773,153.41385891319294L-345.89959692182356,142.29817823002227z" style="fill:rgb(162,186,45)">
    </path>
    <path d="M-358.8477466091932,139.37781350722412L-362.759246727789,141.99559144951283L-358.50164107347786,146.37764434193556z" style="fill:rgb(162,186,45)">
    </path>
    <path d="M-358.8477466091932,139.37781350722412L-354.4449739869386,146.44293285214766L-345.89959692182356,142.29817823002227z" style="fill:rgb(162,186,45)">
    </path>
    <path d="M-409.6099305776797,162.92214558008413L-358.5016410734778,146.3776443419356" style="fill:none;stroke:rgb(162,186,45);stroke-width:5;stroke-linecap:round">
    </path>
    <path d="M-443.2212904262667,344.37178943723757L-495.2792236053955,363.1192180248627" style="fill:none;stroke:rgb(43,180,168);stroke-width:5;stroke-linecap:round">
    </path>
    <path d="M-295.2217010327874,-0.733990853674928L-446.4901755107746,44.0114546953769L-269.7898232536296,-157.99709448232z" style="fill:rgb(0,0,0); fill-opacity: 0.18">
    </path>
    <path d="M-225.71044166934948,-169.57266302686202L-227.60228060324877,-228.0490233753278" style="fill:none;stroke:rgb(74,87,214);stroke-width:5;stroke-linecap:round">
    </path>
    <path d="M-355.6523936498773,153.41385891319294L-354.4449739869386,146.44293285214766L-358.50164107347786,146.37764434193556z" style="fill:rgb(162,186,45)">
    </path>
    <path d="M-354.4449739869386,146.44293285214766L-358.8477466091932,139.37781350722412L-358.50164107347786,146.37764434193556z" style="fill:rgb(162,186,45)">
    </path>
    <path d="M-478.80825116673526,417.2821960736987L-482.4673092403361,419.3120365604804L-491.3696474794522,428.92226288399473z" style="fill:rgb(43,180,168)">
    </path>
    <path d="M-475.54438767595417,431.1699312044521L-474.51956765304703,424.6200087685454L-491.3696474794522,428.92226288399473z" style="fill:rgb(43,180,168)">
    </path>
    <path d="M-474.51956765304703,424.6200087685454L-478.80825116673526,417.2821960736987L-491.3696474794522,428.92226288399473z" style="fill:rgb(43,180,168)">
    </path>
    <path d="M-200.1366946855192,-232.56537592348118L-192.95442375722192,-234.3604862304678L-200.72266258061106,-249.52344790577536z" style="fill:rgb(74,87,214)">
    </path>
    <path d="M-207.53924147886434,-233.94324307790015L-200.1366946855192,-232.56537592348118L-200.72266258061106,-249.52344790577536z" style="fill:rgb(74,87,214)">
    </path>
    <path d="M-405.8688758117574,230.1308107023916L-425.2016032559856,-117.18482245425409" style="fill:none;stroke:rgb(38,46,1);stroke-width:5;stroke-linecap:round">
    </path>
    <path d="M-364.4408322987029,108.31508061235617L-362.4598987420458,117.01885835184997L-360.16824596051373,112.67130025401619z" style="fill:rgb(162,186,45)">
    </path>
    <path d="M-362.4598987420458,117.01885835184997L-357.3079826408154,119.72645244465343L-360.16824596051373,112.67130025401619z" style="fill:rgb(162,186,45)">
    </path>
    <path d="M-356.098228640399,112.6757383475643L-357.3079826408154,119.72645244465343L-347.5109894712039,108.66816218766427z" style="fill:rgb(162,186,45)">
    </path>
    <path d="M-360.517146876227,105.61493409962561L-364.4408322987029,108.31508061235617L-360.16824596051373,112.67130025401619z" style="fill:rgb(162,186,45)">
    </path>
    <path d="M-360.517146876227,105.61493409962561L-356.098228640399,112.6757383475643L-347.5109894712039,108.66816218766427z" style="fill:rgb(162,186,45)">
    </path>
    <path d="M-411.50331654470784,128.90715479074112L-360.16824596051373,112.67130025401626" style="fill:none;stroke:rgb(162,186,45);stroke-width:5;stroke-linecap:round">
    </path>
    <path d="M-357.3079826408154,119.72645244465343L-356.098228640399,112.6757383475643L-360.16824596051373,112.67130025401619z" style="fill:rgb(162,186,45)">
    </path>
    <path d="M-356.098228640399,112.6757383475643L-360.517146876227,105.61493409962561L-360.16824596051373,112.67130025401619z" style="fill:rgb(162,186,45)">
    </path>
    <path d="M-451.4435834541015,313.65109853939003L-503.87555767211217,332.15689913416986" style="fill:none;stroke:rgb(43,180,168);stroke-width:5;stroke-linecap:round">
    </path>
    <path d="M-253.15848499355738,-162.36460575624375L-255.2480246805235,-221.15387536369116" style="fill:none;stroke:rgb(74,87,214);stroke-width:5;stroke-linecap:round">
    </path>
    <path d="M-487.2311552108734,386.9168338541451L-490.8918549655152,389.0222693807719L-499.8763332924866,398.56095037541803z" style="fill:rgb(43,180,168)">
    </path>
    <path d="M-366.13600366618084,74.3624595856722L-364.1464826397774,83.11316394901289L-361.8483330680843,78.69228424010554z" style="fill:rgb(162,186,45)">
    </path>
    <path d="M-483.9450585145749,400.89609931665143L-482.9276377767018,394.264486178958L-499.8763332924866,398.56095037541803z" style="fill:rgb(43,180,168)">
    </path>
    <path d="M-364.1464826397774,83.11316394901289L-358.9769684942315,85.76645081259892L-361.8483330680843,78.69228424010554z" style="fill:rgb(162,186,45)">
    </path>
    <path d="M-482.9276377767018,394.264486178958L-487.2311552108734,386.9168338541451L-499.8763332924866,398.56095037541803z" style="fill:rgb(43,180,168)">
    </path>
    <path d="M-357.7648818633509,78.63488237095389L-358.9769684942315,85.76645081259892L-349.13538159163585,74.76684305210146z" style="fill:rgb(162,186,45)">
    </path>
    <path d="M-362.2000633671082,71.57869506413114L-366.13600366618084,74.3624595856722L-361.8483330680843,78.69228424010554z" style="fill:rgb(162,186,45)">
    </path>
    <path d="M-362.2000633671082,71.57869506413114L-357.7648818633509,78.63488237095389L-349.13538159163585,74.76684305210146z" style="fill:rgb(162,186,45)">
    </path>
    <path d="M-413.41219088642356,94.61391279878248L-361.84833306808423,78.69228424010556" style="fill:none;stroke:rgb(162,186,45);stroke-width:5;stroke-linecap:round">
    </path>
    <path d="M-227.5020530112522,-225.7257791893389L-220.2310755123558,-227.54306048942368L-228.07922858958852,-242.79138955509248z" style="fill:rgb(74,87,214)">
    </path>
    <path d="M-234.9138409451895,-227.12119960608396L-227.5020530112522,-225.7257791893389L-228.07922858958852,-242.79138955509248z" style="fill:rgb(74,87,214)">
    </path>
    <path d="M-358.9769684942315,85.76645081259892L-357.7648818633509,78.63488237095389L-361.8483330680843,78.69228424010554z" style="fill:rgb(162,186,45)">
    </path>
    <path d="M-405.86887581175745,230.13081070239173L-425.2016032559856,-117.18482245425405L-295.2217010327874,-0.733990853674928z" style="fill:rgb(0,0,0); fill-opacity: 0.18">
    </path>
    <path d="M-357.7648818633509,78.63488237095389L-362.2000633671082,71.57869506413114L-361.8483330680843,78.69228424010554z" style="fill:rgb(162,186,45)">
    </path>
    <path d="M-269.78982325362966,-157.99709448232L-425.2016032559856,-117.18482245425409" style="fill:none;stroke:rgb(40,0,38);stroke-width:5;stroke-linecap:round">
    </path>
    <path d="M-269.7898232536298,-157.99709448232L-272.00026722624017,-216.97568462457843" style="fill:none;stroke:rgb(167,41,160);stroke-width:5;stroke-linecap:round">
    </path>
    <path d="M-425.2016032559856,-117.18482245425409L-269.78982325362966,-157.99709448232" style="fill:none;stroke:rgb(55,17,8);stroke-width:5;stroke-linecap:round">
    </path>
    <path d="M-269.78982325362966,-157.99709448232L-272.0002672262401,-216.97568462457843" style="fill:none;stroke:rgb(214,94,68);stroke-width:5;stroke-linecap:round">
    </path>
    <path d="M-459.7545021234593,282.5992784869827L-512.5655899696727,300.8570974885767" style="fill:none;stroke:rgb(43,180,168);stroke-width:5;stroke-linecap:round">
    </path>
    <path d="M-367.84492614071587,40.1344173623091L-365.84674321787037,48.93252482187153L-363.5420666599141,44.43727413929072z" style="fill:rgb(162,186,45)">
    </path>
    <path d="M-425.2016032559856,-117.18482245425405L-269.7898232536296,-157.99709448232L-295.2217010327874,-0.733990853674928z" style="fill:rgb(0,0,0); fill-opacity: 0.18">
    </path>
    <path d="M-425.2016032559856,-117.18482245425405L-446.4901755107746,44.0114546953769" style="fill:none;stroke:rgb(0,0,0);stroke-width:1;stroke-linecap:round">
    </path>
    <path d="M-425.2016032559856,-117.18482245425405L-446.4901755107746,44.0114546953769" style="fill:none;stroke:rgb(0,0,0);stroke-width:1;stroke-linecap:round">
    </path>
    <path d="M-425.2016032559856,-117.18482245425405L-446.4901755107746,44.0114546953769" style="fill:none;stroke:rgb(0,0,0);stroke-width:1;stroke-linecap:round">
    </path>
    <path d="M-425.2016032559856,-117.18482245425405L-446.4901755107746,44.0114546953769" style="fill:none;stroke:rgb(0,0,0);stroke-width:1;stroke-linecap:round">
    </path>
    <path d="M-365.84674321787037,48.93252482187153L-360.6595144798373,51.530531856049976L-363.5420666599141,44.43727413929072z" style="fill:rgb(162,186,45)">
    </path>
    <path d="M-446.4901755107746,44.0114546953769L-295.2217010327874,-0.733990853674928L-425.2016032559856,-117.18482245425405z" style="fill:rgb(0,0,0); fill-opacity: 0.18">
    </path>
    <path d="M-295.2217010327874,-0.733990853674928L-446.4901755107746,44.0114546953769L-425.2016032559856,-117.18482245425405z" style="fill:rgb(0,0,0); fill-opacity: 0.18">
    </path>
    <path d="M-359.4450971987286,44.317024610487415L-360.6595144798373,51.530531856049976L-350.77293122717475,40.59092450605072z" style="fill:rgb(162,186,45)">
    </path>
    <path d="M-363.89666089929904,37.26576304072389L-367.84492614071587,40.1344173623091L-363.5420666599141,44.43727413929072z" style="fill:rgb(162,186,45)">
    </path>
    <path d="M-495.74495407442805,356.2237872515098L-499.4071184000967,358.4063340744358L-508.4749959778716,367.8713621286307z" style="fill:rgb(43,180,168)">
    </path>
    <path d="M-363.89666089929904,37.26576304072389L-359.4450971987286,44.317024610487415L-350.77293122717475,40.59092450605072z" style="fill:rgb(162,186,45)">
    </path>
    <path d="M-415.33674443155684,60.03899133464251L-363.5420666599139,44.43727413929076" style="fill:none;stroke:rgb(162,186,45);stroke-width:5;stroke-linecap:round">
    </path>
    <path d="M-280.9459328377386,-155.06741837208773L-283.23794882107353,-214.17288511636352" style="fill:none;stroke:rgb(74,87,214);stroke-width:5;stroke-linecap:round">
    </path>
    <path d="M-360.6595144798373,51.530531856049976L-359.4450971987286,44.317024610487415L-363.5420666599141,44.43727413929072z" style="fill:rgb(162,186,45)">
    </path>
    <path d="M-492.43633309769433,370.29575510834064L-491.4265315030781,363.5810645728858L-508.4749959778716,367.8713621286307z" style="fill:rgb(43,180,168)">
    </path>
    <path d="M-359.4450971987286,44.317024610487415L-363.89666089929904,37.26576304072389L-363.5420666599141,44.43727413929072z" style="fill:rgb(162,186,45)">
    </path>
    <path d="M-491.4265315030781,363.5810645728858L-495.74495407442805,356.2237872515098L-508.4749959778716,367.8713621286307z" style="fill:rgb(43,180,168)">
    </path>
    <path d="M-255.20672235706618,-218.8013763102458L-247.84538468931237,-220.6412418976787L-255.7748419322989,-235.97589652062715z" style="fill:rgb(74,87,214)">
    </path>
    <path d="M-262.62741287226095,-220.21468056538131L-255.20672235706618,-218.8013763102458L-255.7748419322989,-235.97589652062715z" style="fill:rgb(74,87,214)">
    </path>
    <path d="M-468.1554871025988,251.2109465572028L-427.03697063055495,404.8407467162869L-660.8034867038184,287.0142312930335z" style="fill:rgb(0,0,0); fill-opacity: 0.18">
    </path>
    <path d="M-660.8034867038184,287.0142312930335L-660.8034867038184,287.0142312930335L-486.3539847836224,366.38983270413365z" style="fill:rgb(0,0,0); fill-opacity: 0.18">
    </path>
    <path d="M-369.56776772569674,5.627588999053172L-367.5608475119672,14.47358302335963L-365.24961367906826,9.902893602174357z" style="fill:rgb(162,186,45)">
    </path>
    <path d="M-293.32754680212315,-151.81591583313417L-295.7105381676039,-211.06208623924513" style="fill:none;stroke:rgb(167,41,160);stroke-width:5;stroke-linecap:round">
    </path>
    <path d="M-367.5608475119672,14.47358302335963L-362.3557865312252,17.015319210218834L-365.24961367906826,9.902893602174357z" style="fill:rgb(162,186,45)">
    </path>
    <path d="M-361.1390408619467,9.71877016978972L-362.3557865312252,17.015319210218834L-352.4237988909624,6.137056614988008z" style="fill:rgb(162,186,45)">
    </path>
    <path d="M-365.6071069809208,2.672750252001412L-369.56776772569674,5.627588999053172L-365.24961367906826,9.902893602174357z" style="fill:rgb(162,186,45)">
    </path>
    <path d="M-365.6071069809208,2.672750252001412L-361.1390408619467,9.71877016978972L-352.4237988909624,6.137056614988008z" style="fill:rgb(162,186,45)">
    </path>
    <path d="M-417.27717115664143,25.178905577936398L-365.24961367906826,9.902893602174387" style="fill:none;stroke:rgb(162,186,45);stroke-width:5;stroke-linecap:round">
    </path>
    <path d="M-468.1554871025988,251.2109465572028L-660.8034867038184,287.0142312930335" style="fill:none;stroke:rgb(160,0,0);stroke-width:4;stroke-linecap:round">
    </path>
    <path d="M-468.15548710259856,251.21094655720262L-521.3508608291929,269.2142651157922" style="fill:none;stroke:rgb(43,180,168);stroke-width:5;stroke-linecap:round">
    </path>
    <path d="M-362.3557865312252,17.015319210218834L-361.1390408619467,9.71877016978972L-365.24961367906826,9.902893602174357z" style="fill:rgb(162,186,45)">
    </path>
    <path d="M-361.1390408619467,9.71877016978972L-365.6071069809208,2.672750252001412L-365.24961367906826,9.902893602174357z" style="fill:rgb(162,186,45)">
    </path>
    <path d="M-504.35112706106315,325.19772323678563L-508.0145727841917,327.4589337267857L-517.1671353667684,336.8481450785738z" style="fill:rgb(43,180,168)">
    </path>
    <path d="M-501.01968515529677,339.363587640114L-500.01772843229105,332.5644021734335L-517.1671353667684,336.8481450785738z" style="fill:rgb(43,180,168)">
    </path>
    <path d="M-271.9950283588909,-214.60536902486396L-264.57866371172014,-216.4589878525881L-272.5575845099237,-231.84590439076763z" style="fill:rgb(167,41,160)">
    </path>
    <path d="M-271.9950283588908,-214.60536902486396L-264.5786637117201,-216.4589878525881L-272.55758450992363,-231.84590439076763z" style="fill:rgb(214,94,68)">
    </path>
    <path d="M-500.01772843229105,332.5644021734335L-504.35112706106315,325.19772323678563L-517.1671353667684,336.8481450785738z" style="fill:rgb(43,180,168)">
    </path>
    <path d="M-279.42089175755797,-216.02956570591255L-271.9950283588909,-214.60536902486396L-272.5575845099237,-231.84590439076763z" style="fill:rgb(167,41,160)">
    </path>
    <path d="M-279.4208917575579,-216.02956570591255L-271.9950283588908,-214.60536902486396L-272.55758450992363,-231.84590439076763z" style="fill:rgb(214,94,68)">
    </path>
    <path d="M-309.0791196465671,-147.67943740281441L-311.57852067108934,-207.104439532332" style="fill:none;stroke:rgb(74,87,214);stroke-width:5;stroke-linecap:round">
    </path>
    <path d="M-310.83648184149257,-147.21794121539511L-313.3489171292215,-206.6628834800161" style="fill:none;stroke:rgb(167,41,160);stroke-width:5;stroke-linecap:round">
    </path>
    <path d="M-371.3046991724659,-29.161445486130457L-369.28896528887594,-20.26707429868868L-366.97114380280635,-24.914289018499524z" style="fill:rgb(162,186,45)">
    </path>
    <path d="M-369.28896528887594,-20.26707429868868L-364.06595330041984,-17.78261880349345L-366.97114380280635,-24.914289018499524z" style="fill:rgb(162,186,45)">
    </path>
    <path d="M-362.8468817957128,-25.163331551602482L-364.06595330041984,-17.78261880349345L-354.0881477176758,-28.5981652674621z" style="fill:rgb(162,186,45)">
    </path>
    <path d="M-367.3315718658855,-32.20378661183532L-371.3046991724659,-29.161445486130457L-366.97114380280635,-24.914289018499524z" style="fill:rgb(162,186,45)">
    </path>
    <path d="M-367.3315718658855,-32.20378661183532L-362.8468817957128,-25.163331551602482L-354.0881477176758,-28.5981652674621z" style="fill:rgb(162,186,45)">
    </path>
    <path d="M-419.2336682511896,-9.96988701340678L-366.9711438028063,-24.914289018499495" style="fill:none;stroke:rgb(162,186,45);stroke-width:5;stroke-linecap:round">
    </path>
    <path d="M-283.2570529156254,-211.79058014246735L-275.8036601237914,-213.65345364810574L-283.8158449552024,-229.07540804192294z" style="fill:rgb(74,87,214)">
    </path>
    <path d="M-364.06595330041984,-17.78261880349345L-362.8468817957128,-25.163331551602482L-366.97114380280635,-24.914289018499524z" style="fill:rgb(162,186,45)">
    </path>
    <path d="M-290.6862925946248,-213.2221071225479L-283.2570529156254,-211.79058014246735L-283.8158449552024,-229.07540804192294z" style="fill:rgb(74,87,214)">
    </path>
    <path d="M-362.8468817957128,-25.163331551602482L-367.3315718658855,-32.20378661183532L-366.97114380280635,-24.914289018499524z" style="fill:rgb(162,186,45)">
    </path>
    <path d="M-320.61794870247803,-144.64925635535425L-323.20310406847767,-204.2051425239186" style="fill:none;stroke:rgb(214,94,68);stroke-width:5;stroke-linecap:round">
    </path>
    <path d="M-321.26366379339726,-144.47968684175095L-323.8536299406171,-204.04289432537985" style="fill:none;stroke:rgb(214,94,68);stroke-width:5;stroke-linecap:round">
    </path>
    <path d="M-269.7898232536296,-157.99709448232L-425.2016032559856,-117.18482245425405L-446.4901755107746,44.0114546953769z" style="fill:rgb(0,0,0); fill-opacity: 0.18">
    </path>
    <path d="M-513.0511857502208,293.83319242374665L-516.7157234317605,296.1746561042292L-525.9542840781104,305.48582913696464z" style="fill:rgb(43,180,168)">
    </path>
    <path d="M-373.05589403673434,-64.23616224402362L-371.0312691026198,-55.292916028322196L-368.7068294987875,-60.017761804585255z" style="fill:rgb(162,186,45)">
    </path>
    <path d="M-295.75680223962047,-208.66643889657695L-288.26220403175824,-210.53961113192827L-296.31138637287324,-226.00043459973259z" style="fill:rgb(167,41,160)">
    </path>
    <path d="M-509.69662055319736,308.09417016339296L-508.702740478663,301.2090405402354L-525.9542840781104,305.48582913696464z" style="fill:rgb(43,180,168)">
    </path>
    <path d="M-303.1897010490938,-210.10612377721375L-295.75680223962047,-208.66643889657695L-296.31138637287324,-226.00043459973259z" style="fill:rgb(167,41,160)">
    </path>
    <path d="M-508.702740478663,301.2090405402354L-513.0511857502208,293.83319242374665L-525.9542840781104,305.48582913696464z" style="fill:rgb(43,180,168)">
    </path>
    <path d="M-371.0312691026198,-55.292916028322196L-365.7901862137763,-52.866770314888925L-368.7068294987875,-60.017761804585255z" style="fill:rgb(162,186,45)">
    </path>
    <path d="M-364.56879172619597,-60.33278800544993L-365.7901862137763,-52.866770314888925L-355.7661435172658,-63.61820162106275z" style="fill:rgb(162,186,45)">
    </path>
    <path d="M-369.0702286103885,-67.36734753552192L-373.05589403673434,-64.23616224402362L-368.7068294987875,-60.017761804585255z" style="fill:rgb(162,186,45)">
    </path>
    <path d="M-369.0702286103885,-67.36734753552192L-364.56879172619597,-60.33278800544993L-355.7661435172658,-63.61820162106275z" style="fill:rgb(162,186,45)">
    </path>
    <path d="M-421.2064361844924,-45.41098790322263L-368.7068294987874,-60.01776180458523" style="fill:none;stroke:rgb(162,186,45);stroke-width:5;stroke-linecap:round">
    </path>
    <path d="M-365.7901862137763,-52.866770314888925L-364.56879172619597,-60.33278800544993L-368.7068294987875,-60.017761804585255z" style="fill:rgb(162,186,45)">
    </path>
    <path d="M-337.56453848124994,-140.19895772298034L-340.2763709468976,-199.94688483912552" style="fill:none;stroke:rgb(74,87,214);stroke-width:5;stroke-linecap:round">
    </path>
    <path d="M-364.56879172619597,-60.33278800544993L-369.0702286103885,-67.36734753552192L-368.7068294987875,-60.017761804585255z" style="fill:rgb(162,186,45)">
    </path>
    <path d="M-342.4594547201861,-138.91351685681803L-345.2080394934929,-198.71687328732725" style="fill:none;stroke:rgb(167,41,160);stroke-width:5;stroke-linecap:round">
    </path>
    <path d="M-311.6595543324606,-204.69176368920787L-304.11236880329113,-206.57807940570012L-312.2087391870799,-222.08832418603842z" style="fill:rgb(74,87,214)">
    </path>
    <path d="M-319.09697431156815,-206.14186085354416L-311.6595543324606,-204.69176368920787L-312.2087391870799,-222.08832418603842z" style="fill:rgb(74,87,214)">
    </path>
    <path d="M-374.8215287363908,-99.60009475203258L-372.7879343518732,-90.60746823611969L-370.45684608266885,-95.4110704374326z" style="fill:rgb(162,186,45)">
    </path>
    <path d="M-313.43384503760916,-204.24830401409952L-305.8807808911155,-206.136089010525L-313.98242430822154,-221.65184572864192z" style="fill:rgb(167,41,160)">
    </path>
    <path d="M-320.8717601347471,-205.69956521178392L-313.43384503760916,-204.24830401409952L-313.98242430822154,-221.65184572864192z" style="fill:rgb(167,41,160)">
    </path>
    <path d="M-372.7879343518732,-90.60746823611969L-367.52865952926254,-88.24068107054607L-370.45684608266885,-95.4110704374326z" style="fill:rgb(162,186,45)">
    </path>
    <path d="M-366.3049452205876,-95.79316467048969L-367.52865952926254,-88.24068107054607L-357.45795483002314,-98.92656990820342z" style="fill:rgb(162,186,45)">
    </path>
    <path d="M-521.8466748821985,262.12462587815986L-525.5121086082358,264.54797049883894L-534.838008419492,273.7788239769226z" style="fill:rgb(43,180,168)">
    </path>
    <path d="M-370.82325313080156,-102.82149034959555L-374.8215287363908,-99.60009475203258L-370.45684608266885,-95.4110704374326z" style="fill:rgb(162,186,45)">
    </path>
    <path d="M-370.82325313080156,-102.82149034959555L-366.3049452205876,-95.79316467048969L-357.45795483002314,-98.92656990820342z" style="fill:rgb(162,186,45)">
    </path>
    <path d="M-423.1956787740935,-81.14805870725613L-370.4568460826688,-95.4110704374326" style="fill:none;stroke:rgb(162,186,45);stroke-width:5;stroke-linecap:round">
    </path>
    <path d="M-518.4686781737768,276.4819569464873L-517.483112757737,269.5094013670829L-534.838008419492,273.7788239769226z" style="fill:rgb(43,180,168)">
    </path>
    <path d="M-367.52865952926254,-88.24068107054607L-366.3049452205876,-95.79316467048969L-370.45684608266885,-95.4110704374326z" style="fill:rgb(162,186,45)">
    </path>
    <path d="M-517.483112757737,269.5094013670829L-521.8466748821985,262.12462587815986L-534.838008419492,273.7788239769226z" style="fill:rgb(43,180,168)">
    </path>
    <path d="M-366.3049452205876,-95.79316467048969L-370.82325313080156,-102.82149034959555L-370.45684608266885,-95.4110704374326z" style="fill:rgb(162,186,45)">
    </path>
    <path d="M-323.3097627030173,-201.77995357603982L-315.72393570636285,-203.67592719840226L-323.85495955589704,-219.22235646691533z" style="fill:rgb(214,94,68)">
    </path>
    <path d="M-330.7503995173649,-203.23770244029322L-323.3097627030173,-201.77995357603982L-323.85495955589704,-219.22235646691533z" style="fill:rgb(214,94,68)">
    </path>
    <path d="M-323.9617264135992,-201.61700417071512L-316.3737340700553,-203.5135189918931L-324.5066992786586,-219.06197267307041z" style="fill:rgb(214,94,68)">
    </path>
    <path d="M-331.40254086505945,-203.07518182956377L-323.9617264135992,-201.61700417071512L-324.5066992786586,-219.06197267307041z" style="fill:rgb(214,94,68)">
    </path>
    <path d="M-660.8034867038184,287.0142312930335L-660.8034867038184,287.0142312930335L-468.1554871025988,251.2109465572028z" style="fill:rgb(0,0,0); fill-opacity: 0.18">
    </path>
    <path d="M-364.945299408687,-133.00856930268776L-367.863649171921,-193.06631884430035" style="fill:none;stroke:rgb(214,94,68);stroke-width:5;stroke-linecap:round">
    </path>
    <path d="M-366.40884601556434,-132.62423124128262L-369.33829860696346,-192.69852530286153" style="fill:none;stroke:rgb(74,87,214);stroke-width:5;stroke-linecap:round">
    </path>
    <path d="M-376.6017826107485,-135.2568350008263L-374.55913933882454,-126.21431536250732L-372.2213717771364,-131.09781939175727z" style="fill:rgb(162,186,45)">
    </path>
    <path d="M-374.55913933882454,-126.21431536250732L-369.28155039516764,-123.90795562839192L-372.2213717771364,-131.09781939175727z" style="fill:rgb(162,186,45)">
    </path>
    <path d="M-368.05551974609835,-131.54808625741032L-369.28155039516764,-123.90795562839192L-359.16375298301074,-134.52684575164176z" style="fill:rgb(162,186,45)">
    </path>
    <path d="M-372.59082426300745,-138.569831930407L-376.6017826107485,-135.2568350008263L-372.2213717771364,-131.09781939175727z" style="fill:rgb(162,186,45)">
    </path>
    <path d="M-372.59082426300745,-138.569831930407L-368.05551974609835,-131.54808625741032L-359.16375298301074,-134.52684575164176z" style="fill:rgb(162,186,45)">
    </path>
    <path d="M-425.2016032559856,-117.18482245425409L-372.2213717771363,-131.09781939175727" style="fill:none;stroke:rgb(162,186,45);stroke-width:5;stroke-linecap:round">
    </path>
    <path d="M-425.2016032559856,-117.18482245425405L-425.2016032559856,-117.18482245425405L-446.4901755107746,44.0114546953769z" style="fill:rgb(0,0,0); fill-opacity: 0.18">
    </path>
    <path d="M-369.28155039516764,-123.90795562839192L-368.05551974609835,-131.54808625741032L-372.2213717771364,-131.09781939175727z" style="fill:rgb(162,186,45)">
    </path>
    <path d="M-340.42090074239604,-197.503258841824L-332.7781408541079,-199.41346206114798L-340.96019036457926,-215.01300461083235z" style="fill:rgb(74,87,214)">
    </path>
    <path d="M-368.05551974609835,-131.54808625741032L-372.59082426300745,-138.569831930407L-372.2213717771364,-131.09781939175727z" style="fill:rgb(162,186,45)">
    </path>
    <path d="M-347.8661160981455,-198.9722824947336L-340.42090074239604,-197.503258841824L-340.96019036457926,-215.01300461083235z" style="fill:rgb(74,87,214)">
    </path>
    <path d="M-345.36356059817354,-196.26790866642492L-337.7043157312711,-198.1822320805058L-345.90113282963057,-213.79710956862658z" style="fill:rgb(167,41,160)">
    </path>
    <path d="M-352.8100661224483,-197.74019718039793L-345.36356059817354,-196.26790866642492L-345.90113282963057,-213.79710956862658z" style="fill:rgb(167,41,160)">
    </path>
    <path d="M-395.6188677219276,-124.95346553865869L-398.77127622199623,-185.35762188888322" style="fill:none;stroke:rgb(74,87,214);stroke-width:5;stroke-linecap:round">
    </path>
    <path d="M-396.9019552219156,-124.61651736082733L-400.0642167984072,-185.03514850492635" style="fill:none;stroke:rgb(214,94,68);stroke-width:5;stroke-linecap:round">
    </path>
    <path d="M-660.8034867038184,287.0142312930335L-660.8034867038184,287.0142312930335" style="fill:none;stroke:rgb(0,0,0);stroke-width:1;stroke-linecap:round">
    </path>
    <path d="M-401.525225806076,-123.40241263377733L-404.7230318656971,-183.8731895662189" style="fill:none;stroke:rgb(167,41,160);stroke-width:5;stroke-linecap:round">
    </path>
    <path d="M-368.06996336580073,-190.59275410184748L-360.3347592844201,-192.5260624818508L-368.59958232356723,-208.21134685217066z" style="fill:rgb(214,94,68)">
    </path>
    <path d="M-375.5222094344252,-192.08008773466787L-368.06996336580073,-190.59275410184748L-368.59958232356723,-208.21134685217066z" style="fill:rgb(214,94,68)">
    </path>
    <path d="M-369.54793599808715,-190.22335507302378L-361.8077747182401,-192.15790243692933L-370.077033649366,-207.84776728109784z" style="fill:rgb(74,87,214)">
    </path>
    <path d="M-377.00054510708145,-191.71167064651266L-369.54793599808715,-190.22335507302378L-370.077033649366,-207.84776728109784z" style="fill:rgb(74,87,214)">
    </path>
    <path d="M-425.2016032559856,-117.18482245425413L-428.58245555206406,-177.92239087076692" style="fill:none;stroke:rgb(74,87,214);stroke-width:5;stroke-linecap:round">
    </path>
    <path d="M-425.2016032559856,-117.18482245425409L-428.58245555206406,-177.92239087076686" style="fill:none;stroke:rgb(167,41,160);stroke-width:5;stroke-linecap:round">
    </path>
    <path d="M-425.2016032559856,-117.18482245425413L-428.58245555206406,-177.92239087076692" style="fill:none;stroke:rgb(214,94,68);stroke-width:5;stroke-linecap:round">
    </path>
    <path d="M-399.04767909926875,-182.85029807990034L-391.20824252868715,-184.80965794383616L-399.56627904545434,-200.59088713543468z" style="fill:rgb(74,87,214)">
    </path>
    <path d="M-406.50726297009066,-184.35828042724444L-399.04767909926875,-182.85029807990034L-399.56627904545434,-200.59088713543468z" style="fill:rgb(74,87,214)">
    </path>
    <path d="M-400.3435716442339,-182.5264074765747L-392.49975953439815,-184.48686094665442L-400.86170639186054,-200.27210105379658z" style="fill:rgb(214,94,68)">
    </path>
    <path d="M-407.8034500577708,-184.03525671796092L-400.3435716442339,-182.5264074765747L-400.86170639186054,-200.27210105379658z" style="fill:rgb(214,94,68)">
    </path>
    <path d="M-405.0130367673543,-181.35933858509034L-397.15344825247837,-183.32373515166105L-405.5294924501423,-199.12342588372786z" style="fill:rgb(167,41,160)">
    </path>
    <path d="M-412.4739682292291,-182.87131355083662L-405.0130367673543,-181.35933858509034L-405.5294924501423,-199.12342588372786z" style="fill:rgb(167,41,160)">
    </path>
    <path d="M-428.92732983176245,-175.38228837453863L-420.9866956920687,-177.36694118567306L-429.4351170257381,-193.24059470164102z" style="fill:rgb(74,87,214)">
    </path>
    <path d="M-428.9273298317625,-175.38228837453858L-420.98669569206874,-177.36694118567306L-429.4351170257383,-193.240594701641z" style="fill:rgb(167,41,160)">
    </path>
    <path d="M-428.92732983176245,-175.38228837453863L-420.9866956920687,-177.36694118567306L-429.4351170257381,-193.24059470164102z" style="fill:rgb(214,94,68)">
    </path>
    <path d="M-436.39345140758564,-176.91032207525865L-428.92732983176245,-175.38228837453863L-429.4351170257381,-193.24059470164102z" style="fill:rgb(74,87,214)">
    </path>
    <path d="M-436.3934514075859,-176.91032207525865L-428.9273298317625,-175.38228837453858L-429.4351170257383,-193.240594701641z" style="fill:rgb(167,41,160)">
    </path>
    <path d="M-436.39345140758564,-176.91032207525865L-428.92732983176245,-175.38228837453863L-429.4351170257381,-193.24059470164102z" style="fill:rgb(214,94,68)">
    </path>
</svg>