<svg viewBox="-1163.5 -590 2327 1180" width="2327" height="1180" style="background-color: rgb(255, 255, 255);">
    <path d="M-442.4036451535774,-528.8392483084793L-573.173264996522,-303.7843001123178" style="fill:none;stroke:rgb(0,0,0);stroke-width:1;stroke-linecap:round">
    </path>
    <path d="M-443.07602611725713,-55.108332174089384L-573.173264996522,-303.7843001123178" style="fill:none;stroke:rgb(0,0,0);stroke-width:1;stroke-linecap:round">
    </path>
    <path d="M-573.173264996522,-303.7843001123178L-573.173264996522,-303.7843001123178" style="fill:none;stroke:rgb(0,0,0);stroke-width:1;stroke-linecap:round">
    </path>
    <path d="M-443.07602611725713,-55.108332174089384L-573.173264996522,-303.7843001123178" style="fill:none;stroke:rgb(0,0,0);stroke-width:1;stroke-linecap:round">
    </path>
    <path d="M-443.07602611725713,-55.108332174089384L-573.173264996522,-303.7843001123178" style="fill:none;stroke:rgb(0,0,0);stroke-width:1;stroke-linecap:round">
    </path>
    <path d="M-573.173264996522,-303.7843001123178L-549.25367801873,-534.0523166489722" style="fill:none;stroke:rgb(0,0,0);stroke-width:1;stroke-linecap:round">
    </path>
    <path d="M-443.07602611725713,-55.108332174089384L-573.173264996522,-303.7843001123178" style="fill:none;stroke:rgb(0,0,0);stroke-width:1;stroke-linecap:round">
    </path>
    <path d="M-573.173264996522,-303.7843001123178L-573.173264996522,-303.7843001123178L-443.07602611725713,-55.108332174089384z" style="fill:rgb(0,0,0); fill-opacity: 0.2">
    </path>
    <path d="M-573.173264996522,-303.7843001123178L-442.4036451535774,-528.8392483084793L-443.07602611725713,-55.108332174089384z" style="fill:rgb(0,0,0); fill-opacity: 0.2">
    </path>
    <path d="M-297.3944712836644,-284.8046238508622L-442.4036451535774,-528.8392483084793" style="fill:none;stroke:rgb(160,0,0);stroke-width:4;stroke-linecap:round">
    </path>
    <path d="M-443.07602611725713,-55.108332174089384L-443.07602611725713,-55.108332174089384L-573.173264996522,-303.7843001123178z" style="fill:rgb(0,0,0); fill-opacity: 0.2">
    </path>
    <path d="M-408.7375837030909,-285.13341960858554L-549.25367801873,-534.0523166489722" style="fill:none;stroke:rgb(160,0,0);stroke-width:4;stroke-linecap:round">
    </path>
    <path d="M-297.3944712836644,-284.8046238508622L-443.07602611725713,-55.108332174089384" style="fill:none;stroke:rgb(0,0,0);stroke-width:1;stroke-linecap:round">
    </path>
    <path d="M0.006618749018374621,-225.9106399679262L-443.07602611725713,-55.108332174089384" style="fill:none;stroke:rgb(0,0,0);stroke-width:1;stroke-linecap:round">
    </path>
    <path d="M-443.07602611725713,-55.108332174089384L-443.07602611725713,-55.108332174089384" style="fill:none;stroke:rgb(0,0,0);stroke-width:1;stroke-linecap:round">
    </path>
    <path d="M0.006618749018374621,-225.9106399679262L-443.07602611725713,-55.108332174089384" style="fill:none;stroke:rgb(0,0,0);stroke-width:1;stroke-linecap:round">
    </path>
    <path d="M-677.2249225970371,-219.84664375412092L-443.07602611725713,-55.108332174089384" style="fill:none;stroke:rgb(0,0,0);stroke-width:1;stroke-linecap:round">
    </path>
    <path d="M-443.07602611725713,-55.108332174089384L-408.7375837030909,-285.13341960858554" style="fill:none;stroke:rgb(0,0,0);stroke-width:1;stroke-linecap:round">
    </path>
    <path d="M-677.2249225970371,-219.84664375412092L-443.07602611725713,-55.108332174089384" style="fill:none;stroke:rgb(0,0,0);stroke-width:1;stroke-linecap:round">
    </path>
    <path d="M-549.25367801873,-534.0523166489722L-573.173264996522,-303.7843001123178L-408.7375837030909,-285.13341960858554z" style="fill:rgb(0,0,0); fill-opacity: 0.2">
    </path>
    <path d="M-408.7375837030909,-285.13341960858554L-443.07602611725713,-55.108332174089384L-573.173264996522,-303.7843001123178z" style="fill:rgb(0,0,0); fill-opacity: 0.2">
    </path>
    <path d="M-443.07602611725713,-55.108332174089384L-297.3944712836644,-284.8046238508622L-442.4036451535774,-528.8392483084793z" style="fill:rgb(0,0,0); fill-opacity: 0.2">
    </path>
    <path d="M0.006618749018374621,-225.9106399679262L-297.3944712836644,-284.8046238508622" style="fill:none;stroke:rgb(160,0,0);stroke-width:4;stroke-linecap:round">
    </path>
    <path d="M0.006618749018374621,-225.9106399679262L0.006618749018374621,-225.9106399679262" style="fill:none;stroke:rgb(0,0,0);stroke-width:1;stroke-linecap:round">
    </path>
    <path d="M-223.41472730105968,-160.30478319621912L0.006618749018374621,-225.9106399679262" style="fill:none;stroke:rgb(160,0,0);stroke-width:4;stroke-linecap:round">
    </path>
    <path d="M-376.981993695948,71.22791930133907L0.006618749018374621,-225.9106399679262" style="fill:none;stroke:rgb(0,0,0);stroke-width:1;stroke-linecap:round">
    </path>
    <path d="M0.006618749018374621,-225.9106399679262L-677.2249225970371,-219.84664375412092" style="fill:none;stroke:rgb(0,0,0);stroke-width:1;stroke-linecap:round">
    </path>
    <path d="M-376.981993695948,71.22791930133907L0.006618749018374621,-225.9106399679262" style="fill:none;stroke:rgb(0,0,0);stroke-width:1;stroke-linecap:round">
    </path>
    <path d="M0.006618749018374621,-225.9106399679262L0.006618749018374621,-225.9106399679262L-376.981993695948,71.22791930133907z" style="fill:rgb(0,0,0); fill-opacity: 0.2">
    </path>
    <path d="M-443.07602611725713,-55.108332174089384L-297.3944712836644,-284.8046238508622L0.006618749018374621,-225.9106399679262z" style="fill:rgb(0,0,0); fill-opacity: 0.2">
    </path>
    <path d="M0.006618749018374621,-225.9106399679262L0.006618749018374621,-225.9106399679262L-297.3944712836644,-284.8046238508622z" style="fill:rgb(0,0,0); fill-opacity: 0.2">
    </path>
    <path d="M-376.981993695948,71.22791930133907L-376.981993695948,71.22791930133907L0.006618749018374621,-225.9106399679262z" style="fill:rgb(0,0,0); fill-opacity: 0.2">
    </path>
    <path d="M-376.981993695948,71.22791930133907L-677.2249225970371,-219.84664375412092" style="fill:none;stroke:rgb(0,0,0);stroke-width:1;stroke-linecap:round">
    </path>
    <path d="M-376.981993695948,71.22791930133907L-677.2249225970371,-219.84664375412092" style="fill:none;stroke:rgb(0,0,0);stroke-width:1;stroke-linecap:round">
    </path>
    <path d="M-223.41472730105968,-160.30478319621912L-376.981993695948,71.22791930133907" style="fill:none;stroke:rgb(0,0,0);stroke-width:1;stroke-linecap:round">
    </path>
    <path d="M80.82582450993921,-104.0599148344275L-376.981993695948,71.22791930133907" style="fill:none;stroke:rgb(0,0,0);stroke-width:1;stroke-linecap:round">
    </path>
    <path d="M-376.981993695948,71.22791930133907L-376.981993695948,71.22791930133907" style="fill:none;stroke:rgb(0,0,0);stroke-width:1;stroke-linecap:round">
    </path>
    <path d="M80.82582450993921,-104.0599148344275L-376.981993695948,71.22791930133907" style="fill:none;stroke:rgb(0,0,0);stroke-width:1;stroke-linecap:round">
    </path>
    <path d="M-609.6034596644666,-80.21562509052634L-376.981993695948,71.22791930133907" style="fill:none;stroke:rgb(0,0,0);stroke-width:1;stroke-linecap:round">
    </path>
    <path d="M-376.981993695948,71.22791930133907L-336.8978958009513,-157.8721548871395" style="fill:none;stroke:rgb(0,0,0);stroke-width:1;stroke-linecap:round">
    </path>
    <path d="M-609.6034596644666,-80.21562509052634L-376.981993695948,71.22791930133907" style="fill:none;stroke:rgb(0,0,0);stroke-width:1;stroke-linecap:round">
    </path>
    <path d="M-376.981993695948,71.22791930133907L-223.41472730105968,-160.30478319621912L0.006618749018374621,-225.9106399679262z" style="fill:rgb(0,0,0); fill-opacity: 0.2">
    </path>
    <path d="M80.82582450993921,-104.0599148344275L-223.41472730105968,-160.30478319621912" style="fill:none;stroke:rgb(160,0,0);stroke-width:4;stroke-linecap:round">
    </path>
    <path d="M80.82582450993921,-104.0599148344275L80.82582450993921,-104.0599148344275" style="fill:none;stroke:rgb(0,0,0);stroke-width:1;stroke-linecap:round">
    </path>
    <path d="M-144.34198383541508,-27.23397987047319L80.82582450993921,-104.0599148344275" style="fill:none;stroke:rgb(160,0,0);stroke-width:4;stroke-linecap:round">
    </path>
    <path d="M-306.54436335905535,205.86679445500428L80.82582450993921,-104.0599148344275" style="fill:none;stroke:rgb(0,0,0);stroke-width:1;stroke-linecap:round">
    </path>
    <path d="M80.82582450993921,-104.0599148344275L-609.6034596644666,-80.21562509052634" style="fill:none;stroke:rgb(0,0,0);stroke-width:1;stroke-linecap:round">
    </path>
    <path d="M-306.54436335905535,205.86679445500428L80.82582450993921,-104.0599148344275" style="fill:none;stroke:rgb(0,0,0);stroke-width:1;stroke-linecap:round">
    </path>
    <path d="M80.82582450993921,-104.0599148344275L80.82582450993921,-104.0599148344275L-306.54436335905535,205.86679445500428z" style="fill:rgb(0,0,0); fill-opacity: 0.2">
    </path>
    <path d="M-443.07602611725713,-55.108332174089384L-443.07602611725713,-55.108332174089384L-677.2249225970371,-219.84664375412092z" style="fill:rgb(0,0,0); fill-opacity: 0.2">
    </path>
    <path d="M-376.981993695948,71.22791930133907L-223.41472730105968,-160.30478319621912L80.82582450993921,-104.0599148344275z" style="fill:rgb(0,0,0); fill-opacity: 0.2">
    </path>
    <path d="M-677.2249225970371,-219.84664375412092L0.006618749018374621,-225.9106399679262L-443.07602611725713,-55.108332174089384z" style="fill:rgb(0,0,0); fill-opacity: 0.2">
    </path>
    <path d="M80.82582450993921,-104.0599148344275L80.82582450993921,-104.0599148344275L-223.41472730105968,-160.30478319621912z" style="fill:rgb(0,0,0); fill-opacity: 0.2">
    </path>
    <path d="M-306.54436335905535,205.86679445500428L-306.54436335905535,205.86679445500428L80.82582450993921,-104.0599148344275z" style="fill:rgb(0,0,0); fill-opacity: 0.2">
    </path>
    <path d="M-677.2249225970371,-219.84664375412092L0.006618749018374621,-225.9106399679262L-376.981993695948,71.22791930133907z" style="fill:rgb(0,0,0); fill-opacity: 0.2">
    </path>
    <path d="M-306.54436335905535,205.86679445500428L-609.6034596644666,-80.21562509052634" style="fill:none;stroke:rgb(0,0,0);stroke-width:1;stroke-linecap:round">
    </path>
    <path d="M-306.54436335905535,205.86679445500428L-609.6034596644666,-80.21562509052634" style="fill:none;stroke:rgb(0,0,0);stroke-width:1;stroke-linecap:round">
    </path>
    <path d="M-144.34198383541508,-27.23397987047319L-306.54436335905535,205.86679445500428" style="fill:none;stroke:rgb(0,0,0);stroke-width:1;stroke-linecap:round">
    </path>
    <path d="M-136.83202116966893,530.2655390292522L-306.54436335905535,205.86679445500428" style="fill:none;stroke:rgb(0,0,0);stroke-width:1;stroke-linecap:round">
    </path>
    <path d="M-306.54436335905535,205.86679445500428L-306.54436335905535,205.86679445500428" style="fill:none;stroke:rgb(0,0,0);stroke-width:1;stroke-linecap:round">
    </path>
    <path d="M-136.83202116966893,530.2655390292522L-306.54436335905535,205.86679445500428" style="fill:none;stroke:rgb(0,0,0);stroke-width:1;stroke-linecap:round">
    </path>
    <path d="M-136.83202116966893,530.2655390292522L-306.54436335905535,205.86679445500428" style="fill:none;stroke:rgb(0,0,0);stroke-width:1;stroke-linecap:round">
    </path>
    <path d="M-306.54436335905535,205.86679445500428L-259.99851805410395,-21.647842753615667" style="fill:none;stroke:rgb(0,0,0);stroke-width:1;stroke-linecap:round">
    </path>
    <path d="M-136.83202116966893,530.2655390292522L-306.54436335905535,205.86679445500428" style="fill:none;stroke:rgb(0,0,0);stroke-width:1;stroke-linecap:round">
    </path>
    <path d="M-677.2249225970371,-219.84664375412092L-408.7375837030909,-285.13341960858554" style="fill:none;stroke:rgb(160,0,0);stroke-width:4;stroke-linecap:round">
    </path>
    <path d="M-408.7375837030909,-285.13341960858554L-443.07602611725713,-55.108332174089384L-677.2249225970371,-219.84664375412092z" style="fill:rgb(0,0,0); fill-opacity: 0.2">
    </path>
    <path d="M-306.54436335905535,205.86679445500428L-144.34198383541508,-27.23397987047319L80.82582450993921,-104.0599148344275z" style="fill:rgb(0,0,0); fill-opacity: 0.2">
    </path>
    <path d="M-376.981993695948,71.22791930133907L-376.981993695948,71.22791930133907L-609.6034596644666,-80.21562509052634z" style="fill:rgb(0,0,0); fill-opacity: 0.2">
    </path>
    <path d="M-609.6034596644666,-80.21562509052634L80.82582450993921,-104.0599148344275L-376.981993695948,71.22791930133907z" style="fill:rgb(0,0,0); fill-opacity: 0.2">
    </path>
    <path d="M-306.54436335905535,205.86679445500428L-306.54436335905535,205.86679445500428L-136.83202116966893,530.2655390292522z" style="fill:rgb(0,0,0); fill-opacity: 0.2">
    </path>
    <path d="M-336.8978958009513,-157.8721548871395L-376.981993695948,71.22791930133907L-677.2249225970371,-219.84664375412092z" style="fill:rgb(0,0,0); fill-opacity: 0.2">
    </path>
    <path d="M-677.2249225970371,-219.84664375412092L-677.2249225970371,-219.84664375412092L-443.07602611725713,-55.108332174089384z" style="fill:rgb(0,0,0); fill-opacity: 0.2">
    </path>
    <path d="M-609.6034596644666,-80.21562509052634L80.82582450993921,-104.0599148344275L-306.54436335905535,205.86679445500428z" style="fill:rgb(0,0,0); fill-opacity: 0.2">
    </path>
    <path d="M-336.8978958009513,-157.8721548871395L-677.2249225970371,-219.84664375412092" style="fill:none;stroke:rgb(160,0,0);stroke-width:4;stroke-linecap:round">
    </path>
    <path d="M-609.6034596644666,-80.21562509052634L-336.8978958009513,-157.8721548871395" style="fill:none;stroke:rgb(160,0,0);stroke-width:4;stroke-linecap:round">
    </path>
    <path d="M-336.8978958009513,-157.8721548871395L-376.981993695948,71.22791930133907L-609.6034596644666,-80.21562509052634z" style="fill:rgb(0,0,0); fill-opacity: 0.2">
    </path>
    <path d="M-306.54436335905535,205.86679445500428L-144.34198383541508,-27.23397987047319L-136.83202116966893,530.2655390292522z" style="fill:rgb(0,0,0); fill-opacity: 0.2">
    </path>
    <path d="M47.161925296276664,295.04621316781345L-144.34198383541508,-27.23397987047319" style="fill:none;stroke:rgb(160,0,0);stroke-width:4;stroke-linecap:round">
    </path>
    <path d="M-136.83202116966893,530.2655390292522L-136.83202116966893,530.2655390292522L-306.54436335905535,205.86679445500428z" style="fill:rgb(0,0,0); fill-opacity: 0.2">
    </path>
    <path d="M-259.99851805410395,-21.647842753615667L-306.54436335905535,205.86679445500428L-609.6034596644666,-80.21562509052634z" style="fill:rgb(0,0,0); fill-opacity: 0.2">
    </path>
    <path d="M-677.2249225970371,-219.84664375412092L-677.2249225970371,-219.84664375412092L-336.8978958009513,-157.8721548871395z" style="fill:rgb(0,0,0); fill-opacity: 0.2">
    </path>
    <path d="M-609.6034596644666,-80.21562509052634L-609.6034596644666,-80.21562509052634L-376.981993695948,71.22791930133907z" style="fill:rgb(0,0,0); fill-opacity: 0.2">
    </path>
    <path d="M-259.99851805410395,-21.647842753615667L-609.6034596644666,-80.21562509052634" style="fill:none;stroke:rgb(160,0,0);stroke-width:4;stroke-linecap:round">
    </path>
    <path d="M-73.26840732547333,309.1374201956325L-259.99851805410395,-21.647842753615667" style="fill:none;stroke:rgb(160,0,0);stroke-width:4;stroke-linecap:round">
    </path>
    <path d="M-136.83202116966893,530.2655390292522L47.161925296276664,295.04621316781345" style="fill:none;stroke:rgb(50,34,0);stroke-width:5;stroke-linecap:round">
    </path>
    <path d="M-136.83202116966893,530.2655390292522L-136.83202116966893,530.2655390292522" style="fill:none;stroke:rgb(22,55,11);stroke-width:5;stroke-linecap:round">
    </path>
    <path d="M-73.26840732547333,309.1374201956325L-136.83202116966893,530.2655390292522" style="fill:none;stroke:rgb(0,44,41);stroke-width:5;stroke-linecap:round">
    </path>
    <path d="M-136.83202116966893,530.2655390292522L-89.04113533677942,621.6160157611093" style="fill:none;stroke:rgb(43,180,168);stroke-width:5;stroke-linecap:round">
    </path>
    <path d="M-136.8320211696683,530.2655390292521L-89.04113533677882,621.6160157611093" style="fill:none;stroke:rgb(197,147,42);stroke-width:5;stroke-linecap:round">
    </path>
    <path d="M-677.2249225970371,-219.84664375412092L-677.2249225970371,-219.84664375412092" style="fill:none;stroke:rgb(0,0,0);stroke-width:1;stroke-linecap:round">
    </path>
    <path d="M-138.6051270724791,530.5486449992625L-90.83254634999216,621.9377833868974" style="fill:none;stroke:rgb(109,213,75);stroke-width:5;stroke-linecap:round">
    </path>
    <path d="M-259.99851805410395,-21.647842753615667L-306.54436335905535,205.86679445500428L-73.26840732547333,309.1374201956325z" style="fill:rgb(0,0,0); fill-opacity: 0.2">
    </path>
    <path d="M-73.26840732547333,309.1374201956325L-136.83202116966893,530.2655390292522L-306.54436335905535,205.86679445500428z" style="fill:rgb(0,0,0); fill-opacity: 0.2">
    </path>
    <path d="M-136.83202116966893,530.2655390292522L47.161925296276664,295.04621316781345L-144.34198383541508,-27.23397987047319z" style="fill:rgb(0,0,0); fill-opacity: 0.2">
    </path>
    <path d="M-101.4860540425541,485.07897327938787L-52.49814992961487,576.434297472139" style="fill:none;stroke:rgb(197,147,42);stroke-width:5;stroke-linecap:round">
    </path>
    <path d="M-124.86255006752633,488.62557446182154L-76.11537692839102,580.491157241743" style="fill:none;stroke:rgb(43,180,168);stroke-width:5;stroke-linecap:round">
    </path>
    <path d="M-65.43539936502742,438.991529355352L-15.211708669972909,530.333370954485" style="fill:none;stroke:rgb(197,147,42);stroke-width:5;stroke-linecap:round">
    </path>
    <path d="M-609.6034596644666,-80.21562509052634L-609.6034596644666,-80.21562509052634L-259.99851805410395,-21.647842753615667z" style="fill:rgb(0,0,0); fill-opacity: 0.2">
    </path>
    <path d="M-112.53799022238434,445.75031031008945L-62.7982398404835,538.121080274516" style="fill:none;stroke:rgb(43,180,168);stroke-width:5;stroke-linecap:round">
    </path>
    <path d="M-28.658771064249656,391.9759949721771L22.841109677531545,483.28489641082444" style="fill:none;stroke:rgb(197,147,42);stroke-width:5;stroke-linecap:round">
    </path>
    <path d="M-39.25638399337572,571.633794798936L-47.243114022689305,567.3235828270333L-39.9395895198056,599.8541881248876z" style="fill:rgb(197,147,42)">
    </path>
    <path d="M-62.55307267328428,575.623613229541L-63.926862627695805,585.0164468316461L-39.9395895198056,599.8541881248876z" style="fill:rgb(197,147,42)">
    </path>
    <path d="M-47.243114022689305,567.3235828270333L-62.55307267328428,575.623613229541L-39.9395895198056,599.8541881248876z" style="fill:rgb(197,147,42)">
    </path>
    <path d="M-609.6034596644666,-80.21562509052634L-609.6034596644666,-80.21562509052634" style="fill:none;stroke:rgb(0,0,0);stroke-width:1;stroke-linecap:round">
    </path>
    <path d="M-62.773196908533095,575.6613119661677L-70.89681730043046,571.3472438400972L-63.61703595405839,604.0446743680001z" style="fill:rgb(43,180,168)">
    </path>
    <path d="M-86.29404208972083,579.6895197040442L-87.58372203762899,589.1118354201277L-63.61703595405839,604.0446743680001z" style="fill:rgb(43,180,168)">
    </path>
    <path d="M-70.89681730043046,571.3472438400972L-86.29404208972083,579.6895197040442L-63.61703595405839,604.0446743680001z" style="fill:rgb(43,180,168)">
    </path>
    <path d="M8.865982953198499,344.0040507172928L61.6841783678656,435.2593569675764" style="fill:none;stroke:rgb(197,147,42);stroke-width:5;stroke-linecap:round">
    </path>
    <path d="M-1.8942023622739135,525.5567478791561L-9.805075027341315,521.0085667819997L-2.3330752702052124,553.7557454501674z" style="fill:rgb(197,147,42)">
    </path>
    <path d="M-25.24960990431591,529.366500979701L-26.780631989947736,539.0324737347443L-2.3330752702052124,553.7557454501674z" style="fill:rgb(197,147,42)">
    </path>
    <path d="M-9.805075027341315,521.0085667819997L-25.24960990431591,529.366500979701L-2.3330752702052124,553.7557454501674z" style="fill:rgb(197,147,42)">
    </path>
    <path d="M-99.84230252312672,401.5839489525167L-49.07167500317876,494.44835956787455" style="fill:none;stroke:rgb(43,180,168);stroke-width:5;stroke-linecap:round">
    </path>
    <path d="M47.161925296276664,295.04621316781345L101.34237262113756,386.22599692224986" style="fill:none;stroke:rgb(197,147,42);stroke-width:5;stroke-linecap:round">
    </path>
    <path d="M-49.275573404155764,533.2856357142298L-57.465120658020616,528.7259155185676L-50.04057320973478,561.8131068846966z" style="fill:rgb(43,180,168)">
    </path>
    <path d="M-73.0883592378643,537.1699967342325L-74.44876236202033,546.8997566239681L-50.04057320973478,561.8131068846966z" style="fill:rgb(43,180,168)">
    </path>
    <path d="M36.234690762440025,478.5341512103298L28.40450028539021,473.73907454435897L36.05040910249403,506.7048849990498z" style="fill:rgb(197,147,42)">
    </path>
    <path d="M12.82306518024546,482.1555485824538L11.128596801518675,492.1039717860259L36.05040910249403,506.7048849990498z" style="fill:rgb(197,147,42)">
    </path>
    <path d="M-57.465120658020616,528.7259155185676L-73.0883592378643,537.1699967342325L-50.04057320973478,561.8131068846966z" style="fill:rgb(43,180,168)">
    </path>
    <path d="M28.40450028539021,473.73907454435897L12.82306518024546,482.1555485824538L36.05040910249403,506.7048849990498z" style="fill:rgb(197,147,42)">
    </path>
    <path d="M-86.75846712498655,356.06728094476114L-34.916506203287376,449.4119836879496" style="fill:none;stroke:rgb(43,180,168);stroke-width:5;stroke-linecap:round">
    </path>
    <path d="M75.15414064222487,430.5365975366957L67.40971036921398,425.485293647964L75.23519384570263,458.6717825100242z" style="fill:rgb(197,147,42)">
    </path>
    <path d="M51.688992636381045,433.96094584095806L49.82457611036274,444.2015375162098L75.23519384570263,458.6717825100242z" style="fill:rgb(197,147,42)">
    </path>
    <path d="M67.40971036921398,425.485293647964L51.688992636381045,433.96094584095806L75.23519384570263,458.6717825100242z" style="fill:rgb(197,147,42)">
    </path>
    <path d="M-35.363643509610355,489.6092480108889L-43.61936134045438,484.79068756891434L-36.044509822779325,518.2763104040422z" style="fill:rgb(43,180,168)">
    </path>
    <path d="M-59.475339586801496,493.33893489251227L-60.91024268638484,503.39074910165874L-36.044509822779325,518.2763104040422z" style="fill:rgb(43,180,168)">
    </path>
    <path d="M-43.61936134045438,484.79068756891434L-59.475339586801496,493.33893489251227L-36.044509822779325,518.2763104040422z" style="fill:rgb(43,180,168)">
    </path>
    <path d="M114.88899170242298,381.5334473799835L107.23566783686006,376.2161569992184L115.24663576720712,409.62535535356494z" style="fill:rgb(197,147,42)">
    </path>
    <path d="M91.37322482534151,384.7516272776285L89.33205452891178,395.2945342070007L115.24663576720712,409.62535535356494z" style="fill:rgb(197,147,42)">
    </path>
    <path d="M107.23566783686006,376.2161569992184L91.37322482534151,384.7516272776285L115.24663576720712,409.62535535356494z" style="fill:rgb(197,147,42)">
    </path>
    <path d="M-73.26840732547302,309.13742019563244L-20.31234070289049,402.94707068079674" style="fill:none;stroke:rgb(43,180,168);stroke-width:5;stroke-linecap:round">
    </path>
    <path d="M-21.01803434557751,444.5713278633351L-29.340092969127323,439.4798529328835L-21.60908790295835,473.37282512679167z" style="fill:rgb(43,180,168)">
    </path>
    <path d="M-45.43584111027968,448.1347008779733L-46.94927430612248,458.5241098509354L-21.60908790295835,473.37282512679167z" style="fill:rgb(43,180,168)">
    </path>
    <path d="M-29.340092969127323,439.4798529328835L-45.43584111027968,448.1347008779733L-21.60908790295835,473.37282512679167z" style="fill:rgb(43,180,168)">
    </path>
    <path d="M-6.218146079721361,398.1072022700124L-14.606632071264409,392.72777901710646L-6.713289316771355,427.03727108321124z" style="fill:rgb(43,180,168)">
    </path>
    <path d="M-30.94950330402233,401.4917381465902L-32.5457710480399,412.2352875411135L-6.713289316771355,427.03727108321124z" style="fill:rgb(43,180,168)">
    </path>
    <path d="M-14.606632071264409,392.72777901710646L-30.94950330402233,401.4917381465902L-6.713289316771355,427.03727108321124z" style="fill:rgb(43,180,168)">
    </path>
</svg>