<svg viewBox="-1163.5 -590 2327 1180" width="2327" height="1180" style="background-color: rgb(255, 255, 255);">
    <path d="M-379.3579650921231,-187.91134167420796L-35.25223975173175,-139.06279989877007" style="fill:none;stroke:rgb(0,0,0);stroke-width:1;stroke-linecap:round">
    </path>
    <path d="M-379.3579650921231,-187.91134167420796L-35.25223975173175,-139.06279989877007" style="fill:none;stroke:rgb(0,0,0);stroke-width:1;stroke-linecap:round">
    </path>
    <path d="M-379.3579650921231,-187.91134167420796L-283.37479805156204,-244.02020770586338" style="fill:none;stroke:rgb(160,0,0);stroke-width:4;stroke-linecap:round">
    </path>
    <path d="M-204.29253798123364,-139.84260348380565L-379.3579650921231,-187.91134167420796" style="fill:none;stroke:rgb(0,0,0);stroke-width:1;stroke-linecap:round">
    </path>
    <path d="M-95.36756451839463,7.116892492554253L-379.3579650921231,-187.91134167420796" style="fill:none;stroke:rgb(0,0,0);stroke-width:1;stroke-linecap:round">
    </path>
    <path d="M-379.3579650921231,-187.91134167420796L-379.3579650921231,-187.91134167420796" style="fill:none;stroke:rgb(0,0,0);stroke-width:1;stroke-linecap:round">
    </path>
    <path d="M-95.36756451839463,7.116892492554253L-379.3579650921231,-187.91134167420796" style="fill:none;stroke:rgb(0,0,0);stroke-width:1;stroke-linecap:round">
    </path>
    <path d="M-344.65719638864863,-95.82417218777994L-379.3579650921231,-187.91134167420796" style="fill:none;stroke:rgb(160,0,0);stroke-width:4;stroke-linecap:round">
    </path>
    <path d="M-436.5359863365812,-49.830837672295694L-95.36756451839463,7.116892492554253" style="fill:none;stroke:rgb(0,0,0);stroke-width:1;stroke-linecap:round">
    </path>
    <path d="M-436.5359863365812,-49.830837672295694L-95.36756451839463,7.116892492554253" style="fill:none;stroke:rgb(0,0,0);stroke-width:1;stroke-linecap:round">
    </path>
    <path d="M-436.5359863365812,-49.830837672295694L-344.65719638864863,-95.82417218777994" style="fill:none;stroke:rgb(160,0,0);stroke-width:4;stroke-linecap:round">
    </path>
    <path d="M-272.63247121570316,25.802997292725355L-436.5359863365812,-49.830837672295694" style="fill:none;stroke:rgb(0,0,0);stroke-width:1;stroke-linecap:round">
    </path>
    <path d="M-155.62049390681443,153.63119176420594L-436.5359863365812,-49.830837672295694" style="fill:none;stroke:rgb(0,0,0);stroke-width:1;stroke-linecap:round">
    </path>
    <path d="M-436.5359863365812,-49.830837672295694L-436.5359863365812,-49.830837672295694" style="fill:none;stroke:rgb(0,0,0);stroke-width:1;stroke-linecap:round">
    </path>
    <path d="M-155.62049390681443,153.63119176420594L-436.5359863365812,-49.830837672295694" style="fill:none;stroke:rgb(0,0,0);stroke-width:1;stroke-linecap:round">
    </path>
    <path d="M-406.0819249101849,52.71605301024994L-436.5359863365812,-49.830837672295694" style="fill:none;stroke:rgb(160,0,0);stroke-width:4;stroke-linecap:round">
    </path>
    <path d="M-379.3579650921231,-187.91134167420796L-379.3579650921231,-187.91134167420796L-35.25223975173175,-139.06279989877007z" style="fill:rgb(0,0,0); fill-opacity: 0.2">
    </path>
    <path d="M-436.5359863365812,-49.830837672295694L-436.5359863365812,-49.830837672295694L-95.36756451839463,7.116892492554253z" style="fill:rgb(0,0,0); fill-opacity: 0.2">
    </path>
    <path d="M-379.3579650921231,-187.91134167420796L-379.3579650921231,-187.91134167420796L-344.65719638864863,-95.82417218777994z" style="fill:rgb(0,0,0); fill-opacity: 0.2">
    </path>
    <path d="M-436.5359863365812,-49.830837672295694L-436.5359863365812,-49.830837672295694L-406.0819249101849,52.71605301024994z" style="fill:rgb(0,0,0); fill-opacity: 0.2">
    </path>
    <path d="M-35.25223975173175,-139.06279989877007L-35.25223975173175,-139.06279989877007L-379.3579650921231,-187.91134167420796z" style="fill:rgb(0,0,0); fill-opacity: 0.2">
    </path>
    <path d="M-95.36756451839463,7.116892492554253L-95.36756451839463,7.116892492554253L-436.5359863365812,-49.830837672295694z" style="fill:rgb(0,0,0); fill-opacity: 0.2">
    </path>
    <path d="M-283.37479805156204,-244.02020770586338L-35.25223975173175,-139.06279989877007L-379.3579650921231,-187.91134167420796z" style="fill:rgb(0,0,0); fill-opacity: 0.2">
    </path>
    <path d="M-344.65719638864863,-95.82417218777994L-95.36756451839463,7.116892492554253L-379.3579650921231,-187.91134167420796z" style="fill:rgb(0,0,0); fill-opacity: 0.2">
    </path>
    <path d="M-344.65719638864863,-95.82417218777994L-95.36756451839463,7.116892492554253L-436.5359863365812,-49.830837672295694z" style="fill:rgb(0,0,0); fill-opacity: 0.2">
    </path>
    <path d="M-406.0819249101849,52.71605301024994L-155.62049390681443,153.63119176420594L-436.5359863365812,-49.830837672295694z" style="fill:rgb(0,0,0); fill-opacity: 0.2">
    </path>
    <path d="M-117.25673309915409,-568.0376328936795L94.52781074021689,-454.64302728804483" style="fill:none;stroke:rgb(0,0,0);stroke-width:1;stroke-linecap:round">
    </path>
    <path d="M-35.25223975173175,-139.06279989877007L94.52781074021689,-454.64302728804483" style="fill:none;stroke:rgb(0,0,0);stroke-width:1;stroke-linecap:round">
    </path>
    <path d="M94.52781074021689,-454.64302728804483L94.52781074021689,-454.64302728804483" style="fill:none;stroke:rgb(0,0,0);stroke-width:1;stroke-linecap:round">
    </path>
    <path d="M-35.25223975173175,-139.06279989877007L94.52781074021689,-454.64302728804483" style="fill:none;stroke:rgb(0,0,0);stroke-width:1;stroke-linecap:round">
    </path>
    <path d="M-35.25223975173175,-139.06279989877007L94.52781074021689,-454.64302728804483" style="fill:none;stroke:rgb(0,0,0);stroke-width:1;stroke-linecap:round">
    </path>
    <path d="M94.52781074021689,-454.64302728804483L-151.0821887499824,-563.9365419034468" style="fill:none;stroke:rgb(0,0,0);stroke-width:1;stroke-linecap:round">
    </path>
    <path d="M-35.25223975173175,-139.06279989877007L94.52781074021689,-454.64302728804483" style="fill:none;stroke:rgb(0,0,0);stroke-width:1;stroke-linecap:round">
    </path>
    <path d="M94.52781074021689,-454.64302728804483L94.52781074021689,-454.64302728804483L-35.25223975173175,-139.06279989877007z" style="fill:rgb(0,0,0); fill-opacity: 0.2">
    </path>
    <path d="M-35.25223975173175,-139.06279989877007L-35.25223975173175,-139.06279989877007L94.52781074021689,-454.64302728804483z" style="fill:rgb(0,0,0); fill-opacity: 0.2">
    </path>
    <path d="M-253.509696314211,-238.34317408832226L-35.25223975173175,-139.06279989877007" style="fill:none;stroke:rgb(0,0,0);stroke-width:1;stroke-linecap:round">
    </path>
    <path d="M-204.29253798123364,-139.84260348380565L-35.25223975173175,-139.06279989877007" style="fill:none;stroke:rgb(0,0,0);stroke-width:1;stroke-linecap:round">
    </path>
    <path d="M-35.25223975173175,-139.06279989877007L-35.25223975173175,-139.06279989877007" style="fill:none;stroke:rgb(0,0,0);stroke-width:1;stroke-linecap:round">
    </path>
    <path d="M-204.29253798123364,-139.84260348380565L-35.25223975173175,-139.06279989877007" style="fill:none;stroke:rgb(0,0,0);stroke-width:1;stroke-linecap:round">
    </path>
    <path d="M-35.25223975173175,-139.06279989877007L-283.37479805156204,-244.02020770586338" style="fill:none;stroke:rgb(0,0,0);stroke-width:1;stroke-linecap:round">
    </path>
    <path d="M-95.36756451839463,7.116892492554253L-204.29253798123364,-139.84260348380565" style="fill:none;stroke:rgb(0,0,0);stroke-width:1;stroke-linecap:round">
    </path>
    <path d="M-95.36756451839463,7.116892492554253L-204.29253798123364,-139.84260348380565" style="fill:none;stroke:rgb(0,0,0);stroke-width:1;stroke-linecap:round">
    </path>
    <path d="M-316.63374022611487,-85.60045933141542L-95.36756451839463,7.116892492554253" style="fill:none;stroke:rgb(0,0,0);stroke-width:1;stroke-linecap:round">
    </path>
    <path d="M-272.63247121570316,25.802997292725355L-95.36756451839463,7.116892492554253" style="fill:none;stroke:rgb(0,0,0);stroke-width:1;stroke-linecap:round">
    </path>
    <path d="M-95.36756451839463,7.116892492554253L-95.36756451839463,7.116892492554253" style="fill:none;stroke:rgb(0,0,0);stroke-width:1;stroke-linecap:round">
    </path>
    <path d="M-272.63247121570316,25.802997292725355L-95.36756451839463,7.116892492554253" style="fill:none;stroke:rgb(0,0,0);stroke-width:1;stroke-linecap:round">
    </path>
    <path d="M-95.36756451839463,7.116892492554253L-344.65719638864863,-95.82417218777994" style="fill:none;stroke:rgb(0,0,0);stroke-width:1;stroke-linecap:round">
    </path>
    <path d="M-155.62049390681443,153.63119176420594L-272.63247121570316,25.802997292725355" style="fill:none;stroke:rgb(0,0,0);stroke-width:1;stroke-linecap:round">
    </path>
    <path d="M-155.62049390681443,153.63119176420594L-272.63247121570316,25.802997292725355" style="fill:none;stroke:rgb(0,0,0);stroke-width:1;stroke-linecap:round">
    </path>
    <path d="M-379.9088882019412,67.5078854375122L-155.62049390681443,153.63119176420594" style="fill:none;stroke:rgb(0,0,0);stroke-width:1;stroke-linecap:round">
    </path>
    <path d="M-286.64282462562915,472.23221530041957L-155.62049390681443,153.63119176420594" style="fill:none;stroke:rgb(0,0,0);stroke-width:1;stroke-linecap:round">
    </path>
    <path d="M-155.62049390681443,153.63119176420594L-155.62049390681443,153.63119176420594" style="fill:none;stroke:rgb(0,0,0);stroke-width:1;stroke-linecap:round">
    </path>
    <path d="M-286.64282462562915,472.23221530041957L-155.62049390681443,153.63119176420594" style="fill:none;stroke:rgb(0,0,0);stroke-width:1;stroke-linecap:round">
    </path>
    <path d="M-286.64282462562915,472.23221530041957L-155.62049390681443,153.63119176420594" style="fill:none;stroke:rgb(0,0,0);stroke-width:1;stroke-linecap:round">
    </path>
    <path d="M-155.62049390681443,153.63119176420594L-406.0819249101849,52.71605301024994" style="fill:none;stroke:rgb(0,0,0);stroke-width:1;stroke-linecap:round">
    </path>
    <path d="M-286.64282462562915,472.23221530041957L-155.62049390681443,153.63119176420594" style="fill:none;stroke:rgb(0,0,0);stroke-width:1;stroke-linecap:round">
    </path>
    <path d="M-155.62049390681443,153.63119176420594L-155.62049390681443,153.63119176420594L-286.64282462562915,472.23221530041957z" style="fill:rgb(0,0,0); fill-opacity: 0.2">
    </path>
    <path d="M-314.51416764700537,554.6442380589666L-326.5251123333715,549.8599850397022L-320.7651996070708,553.7381325321884z" style="fill:rgb(109,213,75)">
    </path>
    <path d="M-314.09062913474355,555.0853862047954L-326.1068547090721,550.2990966370348L-320.3432911434287,554.1801021019559z" style="fill:rgb(197,147,42)">
    </path>
    <path d="M-314.0906291347438,555.0853862047954L-326.10685470907214,550.2990966370346L-320.34329114342876,554.1801021019556z" style="fill:rgb(43,180,168)">
    </path>
    <path d="M-286.64282462562915,472.23221530041957L-286.64282462562915,472.23221530041957L-155.62049390681443,153.63119176420594z" style="fill:rgb(0,0,0); fill-opacity: 0.2">
    </path>
    <path d="M-283.37479805156204,-244.02020770586338L-35.25223975173175,-139.06279989877007L94.52781074021689,-454.64302728804483z" style="fill:rgb(0,0,0); fill-opacity: 0.2">
    </path>
    <path d="M-311.10867410161836,558.1913231992461L-314.51416764700537,554.6442380589666L-320.7651996070708,553.7381325321884z" style="fill:rgb(109,213,75)">
    </path>
    <path d="M-287.0795954374316,471.82732107206266L-320.76519960707077,553.7381325321885" style="fill:none;stroke:rgb(109,213,75);stroke-width:5;stroke-linecap:round">
    </path>
    <path d="M-326.5251123333715,549.8599850397022L-330.61446239891205,550.422564774883L-320.7651996070708,553.7381325321884z" style="fill:rgb(109,213,75)">
    </path>
    <path d="M-310.68207651445476,558.6356576083825L-314.0906291347438,555.0853862047954L-320.34329114342876,554.1801021019556z" style="fill:rgb(43,180,168)">
    </path>
    <path d="M-310.6820765144547,558.6356576083825L-314.09062913474355,555.0853862047954L-320.3432911434287,554.1801021019559z" style="fill:rgb(197,147,42)">
    </path>
    <path d="M-286.64282462562915,472.23221530041957L-517.5260048767279,400.5032180442211" style="fill:none;stroke:rgb(50,34,0);stroke-width:5;stroke-linecap:round">
    </path>
    <path d="M-286.6428246256289,472.23221530041974L-320.34329114342864,554.180102101956" style="fill:none;stroke:rgb(197,147,42);stroke-width:5;stroke-linecap:round">
    </path>
    <path d="M-286.64282462562915,472.23221530041957L-286.64282462562915,472.23221530041957" style="fill:none;stroke:rgb(22,55,11);stroke-width:5;stroke-linecap:round">
    </path>
    <path d="M-539.6594768238059,375.7396970739607L-286.64282462562915,472.23221530041957" style="fill:none;stroke:rgb(0,44,41);stroke-width:5;stroke-linecap:round">
    </path>
    <path d="M-286.64282462562915,472.23221530041957L-320.3432911434288,554.1801021019559" style="fill:none;stroke:rgb(43,180,168);stroke-width:5;stroke-linecap:round">
    </path>
    <path d="M-326.1068547090721,550.2990966370348L-330.19647262488013,550.8635804085652L-320.3432911434287,554.1801021019559z" style="fill:rgb(197,147,42)">
    </path>
    <path d="M-326.10685470907214,550.2990966370346L-330.19647262488024,550.863580408565L-320.34329114342876,554.1801021019556z" style="fill:rgb(43,180,168)">
    </path>
    <path d="M-321.07145704109405,555.5855549936337L-311.10867410161836,558.1913231992461L-320.7651996070708,553.7381325321884z" style="fill:rgb(109,213,75)">
    </path>
    <path d="M-311.10867410161836,558.1913231992461L-321.07145704109405,555.5855549936337L-329.1933129122187,574.2321571139046z" style="fill:rgb(109,213,75)">
    </path>
    <path d="M-330.61446239891205,550.422564774883L-321.07145704109405,555.5855549936337L-320.7651996070708,553.7381325321884z" style="fill:rgb(109,213,75)">
    </path>
    <path d="M-321.07145704109405,555.5855549936337L-330.61446239891205,550.422564774883L-329.1933129122187,574.2321571139046z" style="fill:rgb(109,213,75)">
    </path>
    <path d="M-364.0786247431085,536.2917860372831L-376.1419760872127,531.4870008450339L-370.48907576658223,535.3313766672941z" style="fill:rgb(43,180,168)">
    </path>
    <path d="M-320.6482938354915,556.0298167604229L-310.6820765144547,558.6356576083825L-320.3432911434287,554.1801021019559z" style="fill:rgb(197,147,42)">
    </path>
    <path d="M-320.6482938354918,556.0298167604227L-310.68207651445476,558.6356576083825L-320.34329114342876,554.1801021019556z" style="fill:rgb(43,180,168)">
    </path>
    <path d="M-310.6820765144547,558.6356576083825L-320.6482938354915,556.0298167604229L-328.7751260159442,574.6834102474736z" style="fill:rgb(197,147,42)">
    </path>
    <path d="M-310.68207651445476,558.6356576083825L-320.6482938354918,556.0298167604227L-328.77512601594424,574.6834102474734z" style="fill:rgb(43,180,168)">
    </path>
    <path d="M-330.19647262488024,550.863580408565L-320.6482938354918,556.0298167604227L-320.34329114342876,554.1801021019556z" style="fill:rgb(43,180,168)">
    </path>
    <path d="M-330.19647262488013,550.8635804085652L-320.6482938354915,556.0298167604229L-320.3432911434287,554.1801021019559z" style="fill:rgb(197,147,42)">
    </path>
    <path d="M-320.6482938354915,556.0298167604229L-330.19647262488013,550.8635804085652L-328.7751260159442,574.6834102474736z" style="fill:rgb(197,147,42)">
    </path>
    <path d="M-320.6482938354918,556.0298167604227L-330.19647262488024,550.863580408565L-328.77512601594424,574.6834102474734z" style="fill:rgb(43,180,168)">
    </path>
    <path d="M-360.8409288076865,539.7844153716911L-364.0786247431085,536.2917860372831L-370.48907576658223,535.3313766672941z" style="fill:rgb(43,180,168)">
    </path>
    <path d="M-336.65875443453626,453.1577276065458L-370.4890757665822,535.3313766672942" style="fill:none;stroke:rgb(43,180,168);stroke-width:5;stroke-linecap:round">
    </path>
    <path d="M-376.1419760872127,531.4870008450339L-380.432140484825,531.98219517816L-370.48907576658223,535.3313766672941z" style="fill:rgb(43,180,168)">
    </path>
    <path d="M-151.0821887499824,-563.9365419034468L94.52781074021689,-454.64302728804483L-283.37479805156204,-244.02020770586338z" style="fill:rgb(0,0,0); fill-opacity: 0.2">
    </path>
    <path d="M-539.6594768238059,375.7396970739607L-286.64282462562915,472.23221530041957L-155.62049390681443,153.63119176420594z" style="fill:rgb(0,0,0); fill-opacity: 0.2">
    </path>
    <path d="M-414.356966960027,517.3890265005115L-426.46778963667526,512.5656112445586L-420.92693944773725,516.3728649762031z" style="fill:rgb(43,180,168)">
    </path>
    <path d="M-370.9609963658266,537.1240735367425L-360.8409288076865,539.7844153716911L-370.48907576658223,535.3313766672941z" style="fill:rgb(43,180,168)">
    </path>
    <path d="M-360.8409288076865,539.7844153716911L-370.9609963658266,537.1240735367425L-378.9534198164509,555.8912179604504z" style="fill:rgb(43,180,168)">
    </path>
    <path d="M-380.432140484825,531.98219517816L-370.9609963658266,537.1240735367425L-370.48907576658223,535.3313766672941z" style="fill:rgb(43,180,168)">
    </path>
    <path d="M-370.9609963658266,537.1240735367425L-380.432140484825,531.98219517816L-378.9534198164509,555.8912179604504z" style="fill:rgb(43,180,168)">
    </path>
    <path d="M-411.2921766890509,520.8232818633934L-414.356966960027,517.3890265005115L-420.92693944773725,516.3728649762031z" style="fill:rgb(43,180,168)">
    </path>
    <path d="M-386.96582017436896,433.9722099117724L-420.92693944773714,516.3728649762035" style="fill:none;stroke:rgb(43,180,168);stroke-width:5;stroke-linecap:round">
    </path>
    <path d="M-426.46778963667526,512.5656112445586L-430.96076929407377,512.9906987702412L-420.92693944773725,516.3728649762031z" style="fill:rgb(43,180,168)">
    </path>
    <path d="M-283.37479805156204,-244.02020770586338L-151.0821887499824,-563.9365419034468" style="fill:none;stroke:rgb(160,0,0);stroke-width:4;stroke-linecap:round">
    </path>
    <path d="M-464.92819279531955,498.37615377451624L-477.0868360164817,493.53397260417205L-471.6594415052248,497.3036050357881z" style="fill:rgb(43,180,168)">
    </path>
    <path d="M-358.77852248615653,542.0092137967804L-370.91198745824346,537.1773968055918L-365.2121346049059,541.0591686140456z" style="fill:rgb(197,147,42)">
    </path>
    <path d="M-421.56772329200675,518.1078462911396L-411.2921766890509,520.8232818633934L-420.92693944773725,516.3728649762031z" style="fill:rgb(43,180,168)">
    </path>
    <path d="M-411.2921766890509,520.8232818633934L-421.56772329200675,518.1078462911396L-429.4240289107463,536.9895511418468z" style="fill:rgb(43,180,168)">
    </path>
    <path d="M-430.96076929407377,512.9906987702412L-421.56772329200675,518.1078462911396L-420.92693944773725,516.3728649762031z" style="fill:rgb(43,180,168)">
    </path>
    <path d="M-421.56772329200675,518.1078462911396L-430.96076929407377,512.9906987702412L-429.4240289107463,536.9895511418468z" style="fill:rgb(43,180,168)">
    </path>
    <path d="M-406.0819249101849,52.71605301024994L-155.62049390681443,153.63119176420594L-539.6594768238059,375.7396970739607z" style="fill:rgb(0,0,0); fill-opacity: 0.2">
    </path>
    <path d="M94.52781074021689,-454.64302728804483L-117.25673309915409,-568.0376328936795L-35.25223975173175,-139.06279989877007z" style="fill:rgb(0,0,0); fill-opacity: 0.2">
    </path>
    <path d="M-462.0383843649721,501.7512933757039L-464.92819279531955,498.37615377451624L-471.6594415052248,497.3036050357881z" style="fill:rgb(43,180,168)">
    </path>
    <path d="M-437.56657125906156,414.6746899505648L-471.6594415052248,497.30360503578805" style="fill:none;stroke:rgb(43,180,168);stroke-width:5;stroke-linecap:round">
    </path>
    <path d="M-355.5023113307026,545.5433910065873L-358.77852248615653,542.0092137967804L-365.2121346049059,541.0591686140456z" style="fill:rgb(197,147,42)">
    </path>
    <path d="M-331.1845116052878,458.3943491567028L-365.2121346049059,541.0591686140456" style="fill:none;stroke:rgb(197,147,42);stroke-width:5;stroke-linecap:round">
    </path>
    <path d="M-477.0868360164817,493.53397260417205L-481.7849292515745,493.8881251597004L-471.6594415052248,497.3036050357881z" style="fill:rgb(43,180,168)">
    </path>
    <path d="M-370.91198745824346,537.1773968055918L-375.2078137299988,537.697117371287L-365.2121346049059,541.0591686140456z" style="fill:rgb(197,147,42)">
    </path>
    <path d="M-515.7948689025504,479.2522028944038L-528.0016855794188,474.39111852824016L-522.6891712460515,478.12262358105346z" style="fill:rgb(43,180,168)">
    </path>
    <path d="M-472.4710595583868,498.9801636924836L-462.0383843649721,501.7512933757039L-471.6594415052248,497.3036050357881z" style="fill:rgb(43,180,168)">
    </path>
    <path d="M-462.0383843649721,501.7512933757039L-472.4710595583868,498.9801636924836L-480.18951509923147,517.977450375906z" style="fill:rgb(43,180,168)">
    </path>
    <path d="M-365.6692903034495,542.8816200512836L-355.5023113307026,545.5433910065873L-365.2121346049059,541.0591686140456z" style="fill:rgb(197,147,42)">
    </path>
    <path d="M-481.7849292515745,493.8881251597004L-472.4710595583868,498.9801636924836L-471.6594415052248,497.3036050357881z" style="fill:rgb(43,180,168)">
    </path>
    <path d="M-355.5023113307026,545.5433910065873L-365.6692903034495,542.8816200512836L-373.72588390987653,561.7419988313773z" style="fill:rgb(197,147,42)">
    </path>
    <path d="M-472.4710595583868,498.9801636924836L-481.7849292515745,493.8881251597004L-480.18951509923147,517.977450375906z" style="fill:rgb(43,180,168)">
    </path>
    <path d="M-375.2078137299988,537.697117371287L-365.6692903034495,542.8816200512836L-365.2121346049059,541.0591686140456z" style="fill:rgb(197,147,42)">
    </path>
    <path d="M-365.6692903034495,542.8816200512836L-375.2078137299988,537.697117371287L-373.72588390987653,561.7419988313773z" style="fill:rgb(197,147,42)">
    </path>
    <path d="M-513.0821461126944,482.5674748992967L-515.7948689025504,479.2522028944038L-522.6891712460515,478.12262358105346z" style="fill:rgb(43,180,168)">
    </path>
    <path d="M-488.46358695590555,395.2641840722666L-522.6891712460517,478.1226235810535" style="fill:none;stroke:rgb(43,180,168);stroke-width:5;stroke-linecap:round">
    </path>
    <path d="M-528.0016855794188,474.39111852824016L-532.9072207095433,474.6734969881382L-522.6891712460515,478.12262358105346z" style="fill:rgb(43,180,168)">
    </path>
    <path d="M-539.6594768238059,375.7396970739607L-406.0819249101849,52.71605301024994" style="fill:none;stroke:rgb(160,0,0);stroke-width:4;stroke-linecap:round">
    </path>
    <path d="M-566.9595920132625,460.01619758709563L-579.2149388071138,455.13607129335327L-574.0187484064277,458.82893590931855z" style="fill:rgb(43,180,168)">
    </path>
    <path d="M-155.62049390681443,153.63119176420594L-379.9088882019412,67.5078854375122L-286.64282462562915,472.23221530041957z" style="fill:rgb(0,0,0); fill-opacity: 0.2">
    </path>
    <path d="M-523.6736204994372,479.7400429901084L-513.0821461126944,482.5674748992967L-522.6891712460515,478.12262358105346z" style="fill:rgb(43,180,168)">
    </path>
    <path d="M-513.0821461126944,482.5674748992967L-523.6736204994372,479.7400429901084L-531.2524702049097,498.85394500315374z" style="fill:rgb(43,180,168)">
    </path>
    <path d="M-532.9072207095433,474.6734969881382L-523.6736204994372,479.7400429901084L-522.6891712460515,478.12262358105346z" style="fill:rgb(43,180,168)">
    </path>
    <path d="M-523.6736204994372,479.7400429901084L-532.9072207095433,474.6734969881382L-531.2524702049097,498.85394500315374z" style="fill:rgb(43,180,168)">
    </path>
    <path d="M-564.4260867223865,463.2708399571493L-566.9595920132625,460.01619758709563L-574.0187484064277,458.82893590931855z" style="fill:rgb(43,180,168)">
    </path>
    <path d="M-539.6594768238057,375.7396970739609L-574.0187484064277,458.82893590931866" style="fill:none;stroke:rgb(43,180,168);stroke-width:5;stroke-linecap:round">
    </path>
    <path d="M-579.2149388071138,455.13607129335327L-584.3302746169594,455.34582539717354L-574.0187484064277,458.82893590931855z" style="fill:rgb(43,180,168)">
    </path>
    <path d="M-404.2628603362453,528.6999929097013L-416.5158539456866,523.8217785876659L-410.8829145957546,527.7037259422185z" style="fill:rgb(197,147,42)">
    </path>
    <path d="M-575.178052287665,460.3864898454984L-564.4260867223865,463.2708399571493L-574.0187484064277,458.82893590931855z" style="fill:rgb(43,180,168)">
    </path>
    <path d="M-564.4260867223865,463.2708399571493L-575.178052287665,460.3864898454984L-582.6155165144846,479.61805295520503z" style="fill:rgb(43,180,168)">
    </path>
    <path d="M-584.3302746169594,455.34582539717354L-575.178052287665,460.3864898454984L-574.0187484064277,458.82893590931855z" style="fill:rgb(43,180,168)">
    </path>
    <path d="M-575.178052287665,460.3864898454984L-584.3302746169594,455.34582539717354L-582.6155165144846,479.61805295520503z" style="fill:rgb(43,180,168)">
    </path>
    <path d="M-401.12428100488273,532.2169327155464L-404.2628603362453,528.6999929097013L-410.8829145957546,527.7037259422185z" style="fill:rgb(197,147,42)">
    </path>
    <path d="M-376.5217713735789,444.30932062414956L-410.8829145957545,527.7037259422187" style="fill:none;stroke:rgb(197,147,42);stroke-width:5;stroke-linecap:round">
    </path>
    <path d="M-416.5158539456866,523.8217785876659L-421.0246352983577,524.2950397425278L-410.8829145957546,527.7037259422185z" style="fill:rgb(197,147,42)">
    </path>
    <path d="M-411.49764677631526,529.4976371758571L-401.12428100488273,532.2169327155464L-410.8829145957546,527.7037259422185z" style="fill:rgb(197,147,42)">
    </path>
    <path d="M-401.12428100488273,532.2169327155464L-411.49764677631526,529.4976371758571L-419.48017279971793,548.569249264583z" style="fill:rgb(197,147,42)">
    </path>
    <path d="M-421.0246352983577,524.2950397425278L-411.49764677631526,529.4976371758571L-410.8829145957546,527.7037259422185z" style="fill:rgb(197,147,42)">
    </path>
    <path d="M-411.49764677631526,529.4976371758571L-421.0246352983577,524.2950397425278L-419.48017279971793,548.569249264583z" style="fill:rgb(197,147,42)">
    </path>
    <path d="M-379.3579650921231,-187.91134167420796L-204.29253798123364,-139.84260348380565L-35.25223975173175,-139.06279989877007z" style="fill:rgb(0,0,0); fill-opacity: 0.2">
    </path>
    <path d="M-379.3579650921231,-187.91134167420796L-204.29253798123364,-139.84260348380565L-95.36756451839463,7.116892492554253z" style="fill:rgb(0,0,0); fill-opacity: 0.2">
    </path>
    <path d="M-436.5359863365812,-49.830837672295694L-272.63247121570316,25.802997292725355L-95.36756451839463,7.116892492554253z" style="fill:rgb(0,0,0); fill-opacity: 0.2">
    </path>
    <path d="M-436.5359863365812,-49.830837672295694L-272.63247121570316,25.802997292725355L-155.62049390681443,153.63119176420594z" style="fill:rgb(0,0,0); fill-opacity: 0.2">
    </path>
    <path d="M-35.25223975173175,-139.06279989877007L-253.509696314211,-238.34317408832226L-117.25673309915409,-568.0376328936795z" style="fill:rgb(0,0,0); fill-opacity: 0.2">
    </path>
    <path d="M-450.56512592784185,515.1514373088304L-462.94000460202653,510.2259306911225L-457.37732437861564,514.1074303558539z" style="fill:rgb(197,147,42)">
    </path>
    <path d="M-447.5696915681785,518.6499422698811L-450.56512592784185,515.1514373088304L-457.37732437861564,514.1074303558539z" style="fill:rgb(197,147,42)">
    </path>
    <path d="M-422.6761109582106,429.9704480660566L-457.37732437861587,514.1074303558539" style="fill:none;stroke:rgb(197,147,42);stroke-width:5;stroke-linecap:round">
    </path>
    <path d="M-462.94000460202653,510.2259306911225L-467.6687537094426,510.6509659182949L-457.37732437861564,514.1074303558539z" style="fill:rgb(197,147,42)">
    </path>
    <path d="M-458.155277285316,515.8714682315226L-447.5696915681785,518.6499422698811L-457.37732437861564,514.1074303558539z" style="fill:rgb(197,147,42)">
    </path>
    <path d="M-447.5696915681785,518.6499422698811L-458.155277285316,515.8714682315226L-466.05973264051573,535.1589025713677z" style="fill:rgb(197,147,42)">
    </path>
    <path d="M-467.6687537094426,510.6509659182949L-458.155277285316,515.8714682315226L-457.37732437861564,514.1074303558539z" style="fill:rgb(197,147,42)">
    </path>
    <path d="M-458.155277285316,515.8714682315226L-467.6687537094426,510.6509659182949L-466.05973264051573,535.1589025713677z" style="fill:rgb(197,147,42)">
    </path>
    <path d="M-286.64282462562915,472.23221530041957L-517.5260048767279,400.5032180442211L-379.9088882019412,67.5078854375122z" style="fill:rgb(0,0,0); fill-opacity: 0.2">
    </path>
    <path d="M-497.70758216409854,501.35703262219454L-510.2067721557551,496.38331271887495L-504.71784677096633,500.2637072359061z" style="fill:rgb(197,147,42)">
    </path>
    <path d="M-494.86103974122545,504.8358482389546L-497.70758216409854,501.35703262219454L-504.71784677096633,500.2637072359061z" style="fill:rgb(197,147,42)">
    </path>
    <path d="M-469.6698196463582,415.37080681941075L-504.71784677096633,500.26370723590617" style="fill:none;stroke:rgb(197,147,42);stroke-width:5;stroke-linecap:round">
    </path>
    <path d="M-510.2067721557551,496.38331271887495L-515.1627803806464,496.75828173460167L-504.71784677096633,500.2637072359061z" style="fill:rgb(197,147,42)">
    </path>
    <path d="M-253.509696314211,-238.34317408832226L-117.25673309915409,-568.0376328936795" style="fill:none;stroke:rgb(160,0,0);stroke-width:4;stroke-linecap:round">
    </path>
    <path d="M-505.66489618093624,501.99647958571495L-494.86103974122545,504.8358482389546L-504.71784677096633,500.2637072359061z" style="fill:rgb(197,147,42)">
    </path>
    <path d="M-494.86103974122545,504.8358482389546L-505.66489618093624,501.99647958571495L-513.4870947723689,521.5044719346963z" style="fill:rgb(197,147,42)">
    </path>
    <path d="M-515.1627803806464,496.75828173460167L-505.66489618093624,501.99647958571495L-504.71784677096633,500.2637072359061z" style="fill:rgb(197,147,42)">
    </path>
    <path d="M-505.66489618093624,501.99647958571495L-515.1627803806464,496.75828173460167L-513.4870947723689,521.5044719346963z" style="fill:rgb(197,147,42)">
    </path>
    <path d="M-95.36756451839463,7.116892492554253L-95.36756451839463,7.116892492554253L-204.29253798123364,-139.84260348380565z" style="fill:rgb(0,0,0); fill-opacity: 0.2">
    </path>
    <path d="M-204.29253798123364,-139.84260348380565L-253.509696314211,-238.34317408832226" style="fill:none;stroke:rgb(160,0,0);stroke-width:4;stroke-linecap:round">
    </path>
    <path d="M-155.62049390681443,153.63119176420594L-155.62049390681443,153.63119176420594L-272.63247121570316,25.802997292725355z" style="fill:rgb(0,0,0); fill-opacity: 0.2">
    </path>
    <path d="M-316.63374022611487,-85.60045933141542L-204.29253798123364,-139.84260348380565" style="fill:none;stroke:rgb(160,0,0);stroke-width:4;stroke-linecap:round">
    </path>
    <path d="M-272.63247121570316,25.802997292725355L-316.63374022611487,-85.60045933141542" style="fill:none;stroke:rgb(160,0,0);stroke-width:4;stroke-linecap:round">
    </path>
    <path d="M-379.9088882019412,67.5078854375122L-272.63247121570316,25.802997292725355" style="fill:none;stroke:rgb(160,0,0);stroke-width:4;stroke-linecap:round">
    </path>
    <path d="M-517.5260048767279,400.5032180442211L-379.9088882019412,67.5078854375122" style="fill:none;stroke:rgb(160,0,0);stroke-width:4;stroke-linecap:round">
    </path>
    <path d="M-545.7133073011851,487.3100258965018L-558.339307455875,482.28714467781094L-552.9277903960794,486.1657404740903z" style="fill:rgb(197,147,42)">
    </path>
    <path d="M-543.0216492682314,490.76783761345126L-545.7133073011851,487.3100258965018L-552.9277903960794,486.1657404740903z" style="fill:rgb(197,147,42)">
    </path>
    <path d="M-517.5260048767279,400.5032180442211L-552.9277903960796,486.1657404740903" style="fill:none;stroke:rgb(197,147,42);stroke-width:5;stroke-linecap:round">
    </path>
    <path d="M-558.339307455875,482.28714467781094L-563.5301583164623,482.6101297763043L-552.9277903960794,486.1657404740903z" style="fill:rgb(197,147,42)">
    </path>
    <path d="M-554.0500550050028,487.86579310758356L-543.0216492682314,490.76783761345126L-552.9277903960794,486.1657404740903z" style="fill:rgb(197,147,42)">
    </path>
    <path d="M-543.0216492682314,490.76783761345126L-554.0500550050028,487.86579310758356L-561.7856182614797,507.59923223356685z" style="fill:rgb(197,147,42)">
    </path>
    <path d="M-563.5301583164623,482.6101297763043L-554.0500550050028,487.86579310758356L-552.9277903960794,486.1657404740903z" style="fill:rgb(197,147,42)">
    </path>
    <path d="M-554.0500550050028,487.86579310758356L-563.5301583164623,482.6101297763043L-561.7856182614797,507.59923223356685z" style="fill:rgb(197,147,42)">
    </path>
    <path d="M-35.25223975173175,-139.06279989877007L-253.509696314211,-238.34317408832226L-204.29253798123364,-139.84260348380565z" style="fill:rgb(0,0,0); fill-opacity: 0.2">
    </path>
    <path d="M-95.36756451839463,7.116892492554253L-316.63374022611487,-85.60045933141542L-204.29253798123364,-139.84260348380565z" style="fill:rgb(0,0,0); fill-opacity: 0.2">
    </path>
    <path d="M-95.36756451839463,7.116892492554253L-316.63374022611487,-85.60045933141542L-272.63247121570316,25.802997292725355z" style="fill:rgb(0,0,0); fill-opacity: 0.2">
    </path>
    <path d="M-155.62049390681443,153.63119176420594L-379.9088882019412,67.5078854375122L-272.63247121570316,25.802997292725355z" style="fill:rgb(0,0,0); fill-opacity: 0.2">
    </path>
    <path d="M-204.29253798123364,-139.84260348380565L-204.29253798123364,-139.84260348380565L-95.36756451839463,7.116892492554253z" style="fill:rgb(0,0,0); fill-opacity: 0.2">
    </path>
    <path d="M-272.63247121570316,25.802997292725355L-272.63247121570316,25.802997292725355L-155.62049390681443,153.63119176420594z" style="fill:rgb(0,0,0); fill-opacity: 0.2">
    </path>
    <path d="M-204.29253798123364,-139.84260348380565L-204.29253798123364,-139.84260348380565L-253.509696314211,-238.34317408832226z" style="fill:rgb(0,0,0); fill-opacity: 0.2">
    </path>
    <path d="M-272.63247121570316,25.802997292725355L-272.63247121570316,25.802997292725355L-316.63374022611487,-85.60045933141542z" style="fill:rgb(0,0,0); fill-opacity: 0.2">
    </path>
    <path d="M-204.29253798123364,-139.84260348380565L-204.29253798123364,-139.84260348380565" style="fill:none;stroke:rgb(0,0,0);stroke-width:1;stroke-linecap:round">
    </path>
    <path d="M-272.63247121570316,25.802997292725355L-272.63247121570316,25.802997292725355" style="fill:none;stroke:rgb(0,0,0);stroke-width:1;stroke-linecap:round">
    </path>
</svg>